<?xml version="1.0" encoding="UTF-8" standalone="no"?>
<!DOCTYPE svg PUBLIC "-//W3C//DTD SVG 1.1//EN" "http://www.w3.org/Graphics/SVG/1.1/DTD/svg11.dtd">
<svg width="100%" height="100%" viewBox="0 0 702 846" version="1.1" xmlns="http://www.w3.org/2000/svg" xmlns:xlink="http://www.w3.org/1999/xlink" xml:space="preserve" xmlns:serif="http://www.serif.com/" style="fill-rule:evenodd;clip-rule:evenodd;stroke-linecap:round;stroke-linejoin:round;">
    <g id="items" transform="matrix(1.10482,0,0,1.10482,-36.7931,-58.5891)">
        <g id="blend">
            <g id="g-root-cp_5_shape-5_1ha37jfa1gumf-fill" transform="matrix(1,0,0,1,314.303,68)">
                <g id="cp_5_shape-5_1ha37jfa1gumf-fill">
                    <g>
                        <path d="M27.697,292L15.697,292L15.697,160L27.697,160L27.697,292ZM32.297,28.191L27.697,28.191L27.697,160L15.697,160L15.697,28.191L11.017,28.191C10.237,28.191 9.747,27.341 10.137,26.661L20.86,10.448C21.256,9.849 22.136,9.851 22.53,10.451L33.177,26.661C33.577,27.341 33.087,28.191 32.297,28.191Z" style="fill:rgb(247,148,56);"/>
                    </g>
                </g>
            </g>
            <g id="g-root-cp_1_shape-1_qnsnvva1gumh-fill" transform="matrix(1,0,0,1,32,67.8164)">
                <g id="cp_1_shape-1_qnsnvva1gumh-fill">
                    <g>
                        <path d="M214,328.184L46,328.183C26.118,328.183 10,312.081 10,292.199L10,292.184L250,292.184C250,312.066 233.882,328.184 214,328.184ZM254.6,28.375L250,28.375L250,160.184L10,160.184C10,140.302 26.118,124.505 46,124.505L172,124.505C213.07,124.505 238,94.374 238,55.034L238,28.374L233.32,28.374C232.54,28.374 232.05,27.524 232.44,26.844L243.163,10.632C243.559,10.033 244.439,10.034 244.833,10.635L255.48,26.844C255.88,27.525 255.39,28.375 254.6,28.375ZM250,160.184L250,292.184L10,292.184L10,160.184L250,160.184Z" style="fill:rgb(26,195,251);"/>
                    </g>
                </g>
            </g>
            <g id="g-root-cp_3_shape-3_dcymlna1gt1n-fill" transform="matrix(1,0,0,1,284.303,68)">
                <g id="cp_3_shape-3_dcymlna1gt1n-fill">
                    <g>
                        <path d="M27.697,292L15.697,292L15.697,160L27.697,160L27.697,292ZM32.297,28.191L27.697,28.191L27.697,160L15.697,160L15.697,28.191L11.017,28.191C10.237,28.191 9.747,27.341 10.137,26.661L20.86,10.448C21.256,9.849 22.136,9.851 22.53,10.451L33.177,26.661C33.577,27.341 33.087,28.191 32.297,28.191Z" style="fill:rgb(166,218,55);"/>
                    </g>
                </g>
            </g>
            <g id="g-root-cp_3_shape-3_1_1i48ba1guml-fill" transform="matrix(1,0,0,1,32,350)">
                <g id="cp_3_shape-3_1_1i48ba1guml-fill">
                    <g>
                        <path d="M214,64.321C244,64.321 268,46 268,10L280,10L280,100.306L10,100.306C10,80.423 26.118,64.321 46,64.321L214,64.321Z" style="fill:rgb(166,218,55);"/>
                    </g>
                </g>
            </g>
            <g id="g-root-cp_5_shape-5_1_1hbymsra1gtmv-fill" transform="matrix(1,0,0,1,320,350)">
                <g id="cp_5_shape-5_1_1hbymsra1gtmv-fill">
                    <g>
                        <rect x="10" y="10" width="12" height="198" style="fill:rgb(247,148,56);"/>
                    </g>
                </g>
            </g>
            <g id="g-root-cp_3_shape-3_2_140i4ffa1gv7t-fill" transform="matrix(1,0,0,1,32,440)">
                <g id="cp_3_shape-3_2_140i4ffa1gv7t-fill">
                    <g>
                        <path d="M280,10L280,117.982L10,117.982L10,10L280,10ZM244,154.008L46,154.008C26.118,154.008 10,137.906 10,118.023L10,118.008L280,118.008C280,137.89 263.882,154.008 244,154.008Z" style="fill:rgb(166,218,55);"/>
                    </g>
                </g>
            </g>
            <g id="g-root-cp_5_shape-5_2_qpo357a1gtmz-fill" transform="matrix(1,0,0,1,32,548)">
                <g id="cp_5_shape-5_2_qpo357a1gtmz-fill">
                    <g>
                        <path d="M244,64.137C274,64.137 298,45.878 298,10L310,10L310,100L10,100C10,80.185 26.118,64.137 46,64.137L244,64.137Z" style="fill:rgb(247,148,56);"/>
                    </g>
                </g>
            </g>
            <g id="g-root-cp_5_shape-5_3_m9ul0ra1guf9-fill" transform="matrix(1,0,0,1,32,638)">
                <g id="cp_5_shape-5_3_m9ul0ra1guf9-fill">
                    <g>
                        <path d="M310,10L310,118L10,118L10,10L310,10ZM274,154.008L46,154.008C26.118,154.008 10,137.882 10,118L310,118C310,137.882 293.882,154.008 274,154.008Z" style="fill:rgb(247,148,56);"/>
                    </g>
                </g>
            </g>
            <g id="g-root-cp_2_shape-2_3djhna1gtn3-fill" transform="matrix(1,0,0,1,404.378,67.8164)">
                <g id="cp_2_shape-2_3djhna1gtn3-fill">
                    <g>
                        <path d="M51.622,328.184L219.622,328.184C239.504,328.184 255.622,312.081 255.622,292.199L255.622,292.184L15.622,292.184C15.622,312.066 31.74,328.184 51.622,328.184ZM11.022,28.375L15.622,28.375L15.622,160.184L255.622,160.184C255.622,140.302 239.505,124.505 219.623,124.505L93.622,124.505C52.552,124.505 27.622,94.374 27.622,55.034L27.622,28.374L32.302,28.374C33.082,28.374 33.572,27.524 33.182,26.844L22.459,10.632C22.063,10.033 21.184,10.034 20.79,10.635L10.142,26.844C9.742,27.525 10.232,28.375 11.022,28.375ZM15.622,160.184L15.622,292.184L255.622,292.184L255.622,160.184L15.622,160.184Z" style="fill:rgb(67,221,147);"/>
                    </g>
                </g>
            </g>
            <g id="g-root-cp_4_shape-4_1hd7kyza1gvt5-fill" transform="matrix(1,0,0,1,374.383,68)">
                <g id="cp_4_shape-4_1hd7kyza1gvt5-fill">
                    <g>
                        <path d="M15.623,292L27.623,292L27.623,160L15.623,160L15.623,292ZM11.022,28.191L15.622,28.191L15.622,160L27.622,160L27.622,28.191L32.302,28.191C33.082,28.191 33.572,27.341 33.182,26.661L22.459,10.448C22.063,9.849 21.184,9.851 20.79,10.451L10.142,26.661C9.742,27.341 10.232,28.191 11.022,28.191Z" style="fill:rgb(255,231,17);"/>
                    </g>
                </g>
            </g>
            <g id="g-root-cp_6_shape-6_142djora1gu8b-fill" transform="matrix(1,0,0,1,344.383,68)">
                <g id="cp_6_shape-6_142djora1gu8b-fill">
                    <g>
                        <path d="M15.623,292L27.623,292L27.623,160L15.623,160L15.623,292ZM11.022,28.191L15.622,28.191L15.622,160L27.622,160L27.622,28.191L32.302,28.191C33.082,28.191 33.572,27.341 33.182,26.661L22.459,10.448C22.063,9.849 21.184,9.851 20.79,10.451L10.142,26.661C9.742,27.341 10.232,28.191 11.022,28.191Z" style="fill:rgb(251,103,98);"/>
                    </g>
                </g>
            </g>
            <g id="g-root-cp_4_shape-4_1_zmk1kba1gv0l-fill" transform="matrix(1,0,0,1,380,350)">
                <g id="cp_4_shape-4_1_zmk1kba1gv0l-fill">
                    <g>
                        <path d="M76,64.321C46,64.321 22,46 22,10L10,10L10,100.306L280,100.306C280,80.423 263.882,64.321 244,64.321L76,64.321Z" style="fill:rgb(255,231,17);"/>
                    </g>
                </g>
            </g>
            <g id="g-root-cp_4_shape-4_2_dg3017a1gu8f-fill" transform="matrix(1,0,0,1,380,440)">
                <g id="cp_4_shape-4_2_dg3017a1gu8f-fill">
                    <g>
                        <path d="M10,10L10,118L280,118L280,10L10,10ZM46,154L244,154C263.882,154 280,137.898 280,118.016L280,118L10,118C10,137.882 26.118,154 46,154Z" style="fill:rgb(255,231,17);"/>
                    </g>
                </g>
            </g>
            <g id="g-root-cp_6_shape-6_1_4kfzsba1gvsx-fill" transform="matrix(1,0,0,1,350,350)">
                <g id="cp_6_shape-6_1_4kfzsba1gvsx-fill">
                    <g>
                        <rect x="10" y="10" width="12" height="198" style="fill:rgb(251,103,98);"/>
                    </g>
                </g>
            </g>
            <g id="g-root-cp_6_shape-6_2_1qaq0h7a1gu0z-fill" transform="matrix(1,0,0,1,350,548)">
                <g id="cp_6_shape-6_2_1qaq0h7a1gu0z-fill">
                    <g>
                        <path d="M76,64.321C46,64.321 22,46 22,10L10,10L10,100.306L310,100.306C310,80.423 293.882,64.321 274,64.321L76,64.321Z" style="fill:rgb(251,103,98);"/>
                    </g>
                </g>
            </g>
            <g id="g-root-cp_6_shape-6_3_1hf308ba1gutp-fill" transform="matrix(1,0,0,1,350,638)">
                <g id="cp_6_shape-6_3_1hf308ba1gutp-fill">
                    <g>
                        <path d="M10,10L10,118L310,118L310,10L10,10ZM46,154L274,154C293.882,154 310,137.898 310,118.016L310,118L10,118C10,137.882 26.118,154 46,154Z" style="fill:rgb(251,103,98);"/>
                    </g>
                </g>
            </g>
            <g id="g-root-tx_optimize_1lqj6qza1p9tz-fill" transform="matrix(1,0,0,1,440,302)">
                <g id="tx_optimize_1lqj6qza1p9tz-fill">
                    <g>
                        <g>
                            <g transform="matrix(1,0,0,1,15.32,31.2)">
                                <text x="0px" y="0px" style="font-family:'ArialMT', 'Arial', sans-serif;font-size:15px;fill:rgb(44,44,44);">Optimized integration for</text>
                            </g>
                            <g transform="matrix(1,0,0,1,20.01,49.2)">
                                <text x="0px" y="0px" style="font-family:'ArialMT', 'Arial', sans-serif;font-size:15px;fill:rgb(44,44,44);">e-commerce call center</text>
                            </g>
                            <g transform="matrix(1,0,0,1,64.84,67.2)">
                                <g transform="matrix(15,0,0,15,8.34229,0)">
                                </g>
                                <g transform="matrix(15,0,0,15,12.3763,0)">
                                </g>
                                <g transform="matrix(15,0,0,15,16.4104,0)">
                                </g>
                                <text x="0px" y="0px" style="font-family:'ArialMT', 'Arial', sans-serif;font-size:15px;fill:rgb(44,44,44);">eﬃciency<tspan x="61.04px " y="0px ">.</tspan></text>
                            </g>
                        </g>
                    </g>
                </g>
            </g>
            <g id="g-root-tx_tailored_zqaw2za1gt1d-fill" transform="matrix(1,0,0,1,68,302)">
                <g id="tx_tailored_zqaw2za1gt1d-fill">
                    <g>
                        <g>
                            <g transform="matrix(1,0,0,1,21.57,31.2)">
                                <text x="0px" y="0px" style="font-family:'ArialMT', 'Arial', sans-serif;font-size:15px;fill:rgb(44,44,44);">T<tspan x="7.5px 15.842px " y="0px 0px ">ai</tspan>lored solutions for</text>
                            </g>
                            <g transform="matrix(1,0,0,1,16.24,49.2)">
                                <text x="0px" y="0px" style="font-family:'ArialMT', 'Arial', sans-serif;font-size:15px;fill:rgb(44,44,44);">SaaS-based call center</text>
                            </g>
                            <g transform="matrix(1,0,0,1,54.66,67.2)">
                                <text x="0px" y="0px" style="font-family:'ArialMT', 'Arial', sans-serif;font-size:15px;fill:rgb(44,44,44);">operations.</text>
                            </g>
                        </g>
                    </g>
                </g>
            </g>
            <g transform="matrix(1,0,0,1,482.69,300)">
                <g id="g-root-tx_ecommerc_1lyncvfa1nw9a-fill">
                    <g id="tx_ecommerc_1lyncvfa1nw9a-fill">
                        <g>
                            <g>
                                <text x="0px" y="0px" style="font-family:'Arial-BoldMT', 'Arial', sans-serif;font-weight:700;font-size:20px;fill:rgb(44,44,44);">E-commerce</text>
                            </g>
                        </g>
                    </g>
                </g>
            </g>
            <g transform="matrix(1,0,0,1,95.18,522)">
                <g id="g-root-tx_financia_v9uwvfa1l1xc-fill">
                    <g id="tx_financia_v9uwvfa1l1xc-fill">
                        <g>
                            <g>
                                <text x="0px" y="0px" style="font-family:'Arial-BoldMT', 'Arial', sans-serif;font-weight:700;font-size:20px;fill:rgb(44,44,44);">Financial Services</text>
                            </g>
                        </g>
                    </g>
                </g>
            </g>
            <g id="g-root-tx_efficien_m9ul0ra1s3kd-fill" transform="matrix(1,0,0,1,380,722)">
                <g id="tx_efficien_m9ul0ra1s3kd-fill">
                    <g>
                        <g>
                            <g transform="matrix(1,0,0,1,14.07,28.2)">
                                <g transform="matrix(15,0,0,15,10.0049,0)">
                                </g>
                                <g transform="matrix(15,0,0,15,14.0389,0)">
                                </g>
                                <g transform="matrix(15,0,0,15,18.073,0)">
                                </g>
                                <text x="0px" y="0px" style="font-family:'ArialMT', 'Arial', sans-serif;font-size:15px;fill:rgb(44,44,44);">Eﬃcient manufacturing call center</text>
                            </g>
                            <g transform="matrix(1,0,0,1,60.85,46.2)">
                                <text x="0px" y="0px" style="font-family:'ArialMT', 'Arial', sans-serif;font-size:15px;fill:rgb(44,44,44);">integration services.</text>
                            </g>
                        </g>
                    </g>
                </g>
            </g>
            <g id="g-root-tx_securean_94mtija1l3b5-fill" transform="matrix(1,0,0,1,59,524)">
                <g id="tx_securean_94mtija1l3b5-fill">
                    <g>
                        <g>
                            <g transform="matrix(1,0,0,1,15.27,28.2)">
                                <g transform="matrix(15,0,0,15,149.253,0)">
                                </g>
                                <g transform="matrix(15,0,0,15,153.42,0)">
                                </g>
                                <text x="0px" y="0px" style="font-family:'ArialMT', 'Arial', sans-serif;font-size:15px;fill:rgb(44,44,44);">Secure and compliant ﬁnancial</text>
                            </g>
                            <g transform="matrix(1,0,0,1,50.43,46.2)">
                                <text x="0px" y="0px" style="font-family:'ArialMT', 'Arial', sans-serif;font-size:15px;fill:rgb(44,44,44);">services integration.</text>
                            </g>
                        </g>
                    </g>
                </g>
            </g>
            <g id="g-root-tx_hipaacom_mgpsyza1pb7m-fill" transform="matrix(1,0,0,1,413,524)">
                <g id="tx_hipaacom_mgpsyza1pb7m-fill">
                    <g>
                        <g>
                            <g transform="matrix(1,0,0,1,16.44,28.2)">
                                <text x="0px" y="0px" style="font-family:'ArialMT', 'Arial', sans-serif;font-size:15px;fill:rgb(44,44,44);">HIP<tspan x="23.892px 33.896px " y="0px 0px ">AA</tspan>-compliant healthcare</text>
                            </g>
                            <g transform="matrix(1,0,0,1,41.11,46.2)">
                                <text x="0px" y="0px" style="font-family:'ArialMT', 'Arial', sans-serif;font-size:15px;fill:rgb(44,44,44);">call center solutions.</text>
                            </g>
                        </g>
                    </g>
                </g>
            </g>
            <g transform="matrix(1,0,0,1,92.01,300)">
                <g id="g-root-tx_saasplat_4mbf1na1gutc-fill">
                    <g id="tx_saasplat_4mbf1na1gutc-fill">
                        <g>
                            <g>
                                <text x="0px" y="0px" style="font-family:'Arial-BoldMT', 'Arial', sans-serif;font-weight:700;font-size:20px;fill:rgb(44,44,44);">SaaS Platforms</text>
                            </g>
                        </g>
                    </g>
                </g>
            </g>
            <g transform="matrix(1,0,0,1,166.16,720)">
                <g id="g-root-tx_retail_18koy5na1mgw3-fill">
                    <g id="tx_retail_18koy5na1mgw3-fill">
                        <g>
                            <g>
                                <text x="0px" y="0px" style="font-family:'Arial-BoldMT', 'Arial', sans-serif;font-weight:700;font-size:20px;fill:rgb(44,44,44);">Retail</text>
                            </g>
                        </g>
                    </g>
                </g>
            </g>
            <g transform="matrix(1,0,0,1,443.93,720)">
                <g id="g-root-tx_manufact_qnsnvva1s4jo-fill">
                    <g id="tx_manufact_qnsnvva1s4jo-fill">
                        <g>
                            <g>
                                <text x="0px" y="0px" style="font-family:'Arial-BoldMT', 'Arial', sans-serif;font-weight:700;font-size:20px;fill:rgb(44,44,44);">Manufacturing</text>
                            </g>
                        </g>
                    </g>
                </g>
            </g>
            <g id="g-root-tx_streamli_92re97a1mhos-fill" transform="matrix(1,0,0,1,80,722)">
                <g id="tx_streamli_92re97a1mhos-fill">
                    <g>
                        <g>
                            <g transform="matrix(1,0,0,1,15.26,28.2)">
                                <text x="0px" y="0px" style="font-family:'ArialMT', 'Arial', sans-serif;font-size:15px;fill:rgb(44,44,44);">Streamlined retail call center</text>
                            </g>
                            <g transform="matrix(1,0,0,1,25.97,46.2)">
                                <text x="0px" y="0px" style="font-family:'ArialMT', 'Arial', sans-serif;font-size:15px;fill:rgb(44,44,44);">communication systems.</text>
                            </g>
                        </g>
                    </g>
                </g>
            </g>
            <g transform="matrix(1,0,0,1,476.03,522)">
                <g id="g-root-tx_healthca_mfgusra1p91l-fill">
                    <g id="tx_healthca_mfgusra1p91l-fill">
                        <g>
                            <g>
                                <text x="0px" y="0px" style="font-family:'Arial-BoldMT', 'Arial', sans-serif;font-weight:700;font-size:20px;fill:rgb(44,44,44);">Healthcare</text>
                            </g>
                        </g>
                    </g>
                </g>
            </g>
            <g id="g-root-cp_5_shape-5_1ha37jfa1gumf-stroke" transform="matrix(1,0,0,1,314.303,68)">
                <g id="cp_5_shape-5_1ha37jfa1gumf-stroke">
                    <g>
                        <path d="M15.697,160L15.697,292M27.697,292L27.697,160M15.697,160L15.697,28.191L11.017,28.191C10.237,28.191 9.747,27.341 10.137,26.661L20.86,10.448C21.256,9.849 22.136,9.851 22.53,10.451L33.177,26.661C33.577,27.341 33.087,28.191 32.297,28.191L27.697,28.191L27.697,160" style="fill:none;stroke:rgb(44,44,44);stroke-width:2px;"/>
                    </g>
                </g>
            </g>
            <g id="g-root-cp_1_shape-1_qnsnvva1gumh-stroke" transform="matrix(1,0,0,1,32,67.8164)">
                <g id="cp_1_shape-1_qnsnvva1gumh-stroke">
                    <g>
                        <path d="M10,160.184C10,140.301 26.118,124.321 46,124.321L172,124.321C213.07,124.321 238,94.191 238,54.851L238,28.191L233.32,28.191C232.54,28.191 232.05,27.341 232.44,26.661L243.163,10.448C243.559,9.849 244.439,9.851 244.833,10.451L255.48,26.661C255.88,27.341 255.39,28.191 254.6,28.191L250,28.191L250,160.184M250,292.184C250,312.066 233.882,328.191 214,328.191L46,328.191C26.118,328.191 10,312.081 10,292.199L10,292.184M250,292.184L250,160.184M10,160.184L10,292.184" style="fill:none;stroke:rgb(44,44,44);stroke-width:2px;"/>
                    </g>
                </g>
            </g>
            <g id="g-root-cp_3_shape-3_dcymlna1gt1n-stroke" transform="matrix(1,0,0,1,284.303,68)">
                <g id="cp_3_shape-3_dcymlna1gt1n-stroke">
                    <g>
                        <path d="M15.697,160L15.697,292M27.697,292L27.697,160M15.697,160L15.697,28.191L11.017,28.191C10.237,28.191 9.747,27.341 10.137,26.661L20.86,10.448C21.256,9.849 22.136,9.851 22.53,10.451L33.177,26.661C33.577,27.341 33.087,28.191 32.297,28.191L27.697,28.191L27.697,160" style="fill:none;stroke:rgb(44,44,44);stroke-width:2px;"/>
                    </g>
                </g>
            </g>
            <g id="g-root-cp_3_shape-3_1_1i48ba1guml-stroke" transform="matrix(1,0,0,1,32,350)">
                <g id="cp_3_shape-3_1_1i48ba1guml-stroke">
                    <g>
                        <path d="M268,10C268,46 244,64.321 214,64.321L46,64.321C26.118,64.321 10,80.423 10,100.306M280,100.306L280,10" style="fill:none;stroke:rgb(44,44,44);stroke-width:2px;"/>
                    </g>
                </g>
            </g>
            <g id="g-root-cp_5_shape-5_1_1hbymsra1gtmv-stroke" transform="matrix(1,0,0,1,320,350)">
                <g id="cp_5_shape-5_1_1hbymsra1gtmv-stroke">
                    <g>
                        <path d="M10,10L10,208M22,208L22,10" style="fill:none;stroke:rgb(44,44,44);stroke-width:2px;"/>
                    </g>
                </g>
            </g>
            <g id="g-root-cp_3_shape-3_2_140i4ffa1gv7t-stroke" transform="matrix(1,0,0,1,32,440)">
                <g id="cp_3_shape-3_2_140i4ffa1gv7t-stroke">
                    <g>
                        <path d="M280,117.982L280,10M10,10L10,118M280,118.008C280,137.89 263.882,154.008 244,154.008L46,154.008C26.118,154.008 10,137.906 10,118.023L10,118.008" style="fill:none;stroke:rgb(44,44,44);stroke-width:2px;"/>
                    </g>
                </g>
            </g>
            <g id="g-root-cp_5_shape-5_2_qpo357a1gtmz-stroke" transform="matrix(1,0,0,1,32,548)">
                <g id="cp_5_shape-5_2_qpo357a1gtmz-stroke">
                    <g>
                        <path d="M298,10C298,45.878 274,64.137 244,64.137L46,64.137C26.118,64.137 10,80.185 10,100M310,100L310,10" style="fill:none;stroke:rgb(44,44,44);stroke-width:2px;"/>
                    </g>
                </g>
            </g>
            <g id="g-root-cp_5_shape-5_3_m9ul0ra1guf9-stroke" transform="matrix(1,0,0,1,32,638)">
                <g id="cp_5_shape-5_3_m9ul0ra1guf9-stroke">
                    <g>
                        <path d="M310,118L310,10M10,10L10,118M310,118C310,137.882 293.882,154.008 274,154.008L46,154.008C26.118,154.008 10,137.882 10,118" style="fill:none;stroke:rgb(44,44,44);stroke-width:2px;"/>
                    </g>
                </g>
            </g>
            <g id="g-root-cp_2_shape-2_3djhna1gtn3-stroke" transform="matrix(1,0,0,1,404.378,67.8164)">
                <g id="cp_2_shape-2_3djhna1gtn3-stroke">
                    <g>
                        <path d="M255.622,160.184C255.622,140.301 239.505,124.321 219.623,124.321L93.622,124.321C52.552,124.321 27.622,94.191 27.622,54.851L27.622,28.191L32.302,28.191C33.082,28.191 33.572,27.341 33.182,26.661L22.459,10.448C22.063,9.849 21.184,9.851 20.79,10.451L10.142,26.661C9.742,27.341 10.232,28.191 11.022,28.191L15.622,28.191L15.622,160.184M15.622,292.184C15.622,312.066 31.74,328.184 51.622,328.184L219.623,328.183C239.505,328.183 255.622,312.081 255.622,292.199L255.622,292.184M15.622,292.184L15.622,160.184M255.622,160.184L255.622,292.184" style="fill:none;stroke:rgb(44,44,44);stroke-width:2px;"/>
                    </g>
                </g>
            </g>
            <g id="g-root-cp_4_shape-4_1hd7kyza1gvt5-stroke" transform="matrix(1,0,0,1,374.383,68)">
                <g id="cp_4_shape-4_1hd7kyza1gvt5-stroke">
                    <g>
                        <path d="M27.622,160L27.622,292M15.622,292L15.622,160M27.622,160L27.622,28.191L32.302,28.191C33.082,28.191 33.572,27.341 33.182,26.661L22.459,10.448C22.063,9.849 21.184,9.851 20.79,10.451L10.142,26.661C9.742,27.341 10.232,28.191 11.022,28.191L15.622,28.191L15.622,160" style="fill:none;stroke:rgb(44,44,44);stroke-width:2px;"/>
                    </g>
                </g>
            </g>
            <g id="g-root-cp_6_shape-6_142djora1gu8b-stroke" transform="matrix(1,0,0,1,344.383,68)">
                <g id="cp_6_shape-6_142djora1gu8b-stroke">
                    <g>
                        <path d="M27.622,160L27.622,292M15.622,292L15.622,160M27.622,160L27.622,28.191L32.302,28.191C33.082,28.191 33.572,27.341 33.182,26.661L22.459,10.448C22.063,9.849 21.184,9.851 20.79,10.451L10.142,26.661C9.742,27.341 10.232,28.191 11.022,28.191L15.622,28.191L15.622,160" style="fill:none;stroke:rgb(44,44,44);stroke-width:2px;"/>
                    </g>
                </g>
            </g>
            <g id="g-root-cp_4_shape-4_1_zmk1kba1gv0l-stroke" transform="matrix(1,0,0,1,380,350)">
                <g id="cp_4_shape-4_1_zmk1kba1gv0l-stroke">
                    <g>
                        <path d="M22,10C22,46 46,64.321 76,64.321L244,64.321C263.882,64.321 280,80.423 280,100.306M10,100.306L10,10" style="fill:none;stroke:rgb(44,44,44);stroke-width:2px;"/>
                    </g>
                </g>
            </g>
            <g id="g-root-cp_4_shape-4_2_dg3017a1gu8f-stroke" transform="matrix(1,0,0,1,380,440)">
                <g id="cp_4_shape-4_2_dg3017a1gu8f-stroke">
                    <g>
                        <path d="M10,118L10,10M280,10L280,118M10,118C10,137.882 26.118,154.008 46,154.008L244,154.008C263.882,154.008 280,137.898 280,118.016L280,118" style="fill:none;stroke:rgb(44,44,44);stroke-width:2px;"/>
                    </g>
                </g>
            </g>
            <g id="g-root-cp_6_shape-6_1_4kfzsba1gvsx-stroke" transform="matrix(1,0,0,1,350,350)">
                <g id="cp_6_shape-6_1_4kfzsba1gvsx-stroke">
                    <g>
                        <path d="M22,10L22,208M10,208L10,10" style="fill:none;stroke:rgb(44,44,44);stroke-width:2px;"/>
                    </g>
                </g>
            </g>
            <g id="g-root-cp_6_shape-6_2_1qaq0h7a1gu0z-stroke" transform="matrix(1,0,0,1,350,548)">
                <g id="cp_6_shape-6_2_1qaq0h7a1gu0z-stroke">
                    <g>
                        <path d="M22,10C22,46 46,64.321 76,64.321L274,64.321C293.882,64.321 310,80.423 310,100.306M10,100.306L10,10" style="fill:none;stroke:rgb(44,44,44);stroke-width:2px;"/>
                    </g>
                </g>
            </g>
            <g id="g-root-cp_6_shape-6_3_1hf308ba1gutp-stroke" transform="matrix(1,0,0,1,350,638)">
                <g id="cp_6_shape-6_3_1hf308ba1gutp-stroke">
                    <g>
                        <path d="M10,118L10,10M310,10L310,118M10,118C10,137.882 26.118,154.008 46,154.008L274,154.008C293.882,154.008 310,137.898 310,118.016L310,118" style="fill:none;stroke:rgb(44,44,44);stroke-width:2px;"/>
                    </g>
                </g>
            </g>
            <g id="g-root-ic_safe_v2zox7a1mgwa-stroke" transform="matrix(1,0,0,1,143,428)">
                <g id="ic_safe_v2zox7a1mgwa-stroke">
                    <g>
                        <path d="M20,34C20,41.732 26.268,48 34,48C41.732,48 48,41.732 48,34C48,26.268 41.732,20 34,20C26.268,20 20,26.268 20,34ZM26,22.518L26,45.488M34,20L34,48M42,22.508L42,45.488M34,15C34.276,15 34.5,15.224 34.5,15.5M33.5,15.5C33.5,15.224 33.724,15 34,15M34,16C33.724,16 33.5,15.776 33.5,15.5M34.5,15.5C34.5,15.776 34.276,16 34,16M53,34C53,34.276 52.776,34.5 52.5,34.5M52.5,33.5C52.776,33.5 53,33.724 53,34M52,34C52,33.724 52.224,33.5 52.5,33.5M52.5,34.5C52.224,34.5 52,34.276 52,34M34,53C33.724,52.999 33.501,52.776 33.5,52.5M34.5,52.5C34.5,52.776 34.276,53 34,53M34,52C34.276,52 34.5,52.224 34.5,52.5M33.5,52.5C33.501,52.224 33.724,52.001 34,52M15,34C15,33.724 15.224,33.5 15.5,33.5M15.5,34.5C15.224,34.5 15,34.276 15,34M16,34C16,34.276 15.776,34.5 15.5,34.5M15.5,33.5C15.776,33.5 16,33.724 16,34M20.564,20.566C20.658,20.472 20.785,20.419 20.918,20.419C21.051,20.419 21.178,20.472 21.272,20.566M20.564,21.272C20.369,21.077 20.369,20.761 20.564,20.566M21.272,21.272C21.178,21.366 21.051,21.419 20.918,21.419C20.785,21.419 20.658,21.366 20.564,21.272M21.272,20.566C21.467,20.761 21.467,21.077 21.272,21.272M47.434,20.564C47.528,20.658 47.581,20.785 47.581,20.918C47.581,21.051 47.528,21.178 47.434,21.272M46.728,20.564C46.923,20.369 47.239,20.369 47.434,20.564M46.728,21.272C46.634,21.178 46.581,21.051 46.581,20.918C46.581,20.785 46.634,20.658 46.728,20.564M47.434,21.272C47.239,21.467 46.923,21.467 46.728,21.272M47.436,47.434C47.24,47.629 46.924,47.629 46.728,47.434M47.436,46.728C47.631,46.923 47.631,47.239 47.436,47.434M46.728,46.728C46.822,46.634 46.949,46.581 47.082,46.581C47.215,46.581 47.342,46.634 47.436,46.728M46.728,47.434C46.533,47.239 46.533,46.923 46.728,46.728M20.566,47.436C20.472,47.342 20.419,47.215 20.419,47.082C20.419,46.949 20.472,46.822 20.566,46.728M21.272,47.436C21.077,47.631 20.761,47.631 20.566,47.436M21.272,46.728C21.366,46.822 21.419,46.949 21.419,47.082C21.419,47.215 21.366,47.342 21.272,47.436M20.566,46.728C20.761,46.533 21.077,46.533 21.272,46.728M11,34C11,46.703 21.297,57 34,57C46.703,57 57,46.703 57,34C57,21.297 46.703,11 34,11C21.297,11 11,21.297 11,34Z" style="fill:none;stroke:rgb(44,44,44);stroke-width:2px;"/>
                    </g>
                </g>
            </g>
            <g id="g-root-ic_stet_13z9697a1qpkz-stroke" transform="matrix(1,0,0,1,491,428)">
                <g id="ic_stet_13z9697a1qpkz-stroke">
                    <g>
                        <path d="M23.886,46.212C25.586,45.613 27.231,44.866 28.8,43.978M11,50C11,53.866 14.134,57 18,57C21.866,57 25,53.866 25,50C25,46.134 21.866,43 18,43C14.134,43 11,46.134 11,50M16,50C16,51.105 16.895,52 18,52C19.105,52 20,51.105 20,50C20,48.895 19.105,48 18,48C16.895,48 16,48.895 16,50M52.722,55.038L51.866,56.838L41.634,50.34C39.706,49.113 38.993,46.643 39.972,44.578L39.972,44.578C40.949,42.513 43.311,41.498 45.482,42.212L57,46L56.144,47.8M35.98,39.178C41.282,35.166 50,27.578 50,21.062C50,10.094 36.236,7.102 32,17.072C27.764,7.102 14,10.094 14,21.062C14,30.424 31.266,41.52 32,42C34.354,43.54 38.716,45.4 39.846,44.868" style="fill:none;stroke:rgb(44,44,44);stroke-width:2px;"/>
                    </g>
                </g>
            </g>
            <g id="g-root-ic_cash_ddl3ora1p91c-stroke" transform="matrix(1,0,0,1,506,206)">
                <g id="ic_cash_ddl3ora1p91c-stroke">
                    <g>
                        <path d="M23,48C23,49.657 24.343,51 26,51C27.657,51 29,49.657 29,48C29,46.343 27.657,45 26,45C24.343,45 23,46.343 23,48ZM11,11L16.416,11C17.344,11 18.15,11.639 18.362,12.542L26,45L34,45M53.968,32.094L56.122,25.632C56.325,25.022 56.223,24.352 55.847,23.83C55.471,23.309 54.867,23 54.224,23L20.824,23M24.586,39L33.948,39M37,47C37,52.523 41.477,57 47,57C52.523,57 57,52.523 57,47C57,41.477 52.523,37 47,37C41.477,37 37,41.477 37,47ZM47,51L47,53M47,41L47,43M43,51L49,51C50.105,51 51,50.105 51,49C51,47.895 50.105,47 49,47L45,47C43.895,47 43,46.105 43,45C43,43.895 43.895,43 45,43L51,43" style="fill:none;stroke:rgb(44,44,44);stroke-width:2px;"/>
                    </g>
                </g>
            </g>
            <g id="g-root-ic_conn_8dc6ja1gtu2-stroke" transform="matrix(1,0,0,1,128,206)">
                <g id="ic_conn_8dc6ja1gtu2-stroke">
                    <g>
                        <path d="M46.9,24.1C44.9,24.1 42.9,24.7 41.3,25.9C39.9,18.9 33.9,13.7 26.5,13.7C18.3,13.7 11.5,20.5 11.5,28.7C11.5,36.9 18.3,43.7 26.5,43.7L28.9,43.7L28.9,54.3L39.9,43.7L46.7,43.7C52.1,43.7 56.5,39.3 56.5,33.9C56.5,28.5 52.1,24.1 46.9,24.1ZM30.9,29.3C32.557,29.3 33.9,27.957 33.9,26.3C33.9,24.643 32.557,23.3 30.9,23.3C29.243,23.3 27.9,24.643 27.9,26.3C27.9,27.957 29.243,29.3 30.9,29.3ZM38.9,37.3C40.557,37.3 41.9,35.957 41.9,34.3C41.9,32.643 40.557,31.3 38.9,31.3C37.243,31.3 35.9,32.643 35.9,34.3C35.9,35.957 37.243,37.3 38.9,37.3ZM33,28.438L36.759,32.197M22.9,37.3C24.557,37.3 25.9,35.957 25.9,34.3C25.9,32.643 24.557,31.3 22.9,31.3C21.243,31.3 19.9,32.643 19.9,34.3C19.9,35.957 21.243,37.3 22.9,37.3ZM28.43,28.007L24.601,31.836" style="fill:none;stroke:rgb(44,44,44);stroke-width:2px;"/>
                    </g>
                </g>
            </g>
            <g id="g-root-ic_barc_qvacx7a1mhhp-stroke" transform="matrix(1,0,0,1,158,626)">
                <g id="ic_barc_qvacx7a1mhhp-stroke">
                    <g>
                        <path d="M21.006,34L21.006,47M47.006,34L47.006,47M25.006,34L25.006,42M35.006,34L35.006,42M39.006,34L39.006,42M29.006,34L29.006,42M43.006,34L43.006,42M25.006,47L25.006,46M29.006,47L29.006,46M35.006,47L35.006,46M39.006,47L39.006,46M43.006,47L43.006,46M50.2,57L17.8,57C16.079,57.001 14.44,56.262 13.3,54.972C12.161,53.682 11.631,51.964 11.844,50.256L15,25L53,25L56.156,50.256C56.369,51.964 55.839,53.682 54.7,54.972C53.56,56.262 51.921,57.001 50.2,57ZM22,20L19.132,20C18.43,20.001 17.779,20.37 17.418,20.972L15,25L53,25L50.582,20.972C50.221,20.37 49.57,20.001 48.868,20L46,20M42,19C42,14.582 38.418,11 34,11C29.582,11 26,14.582 26,19L26,25L42,25L42,19Z" style="fill:none;stroke:rgb(44,44,44);stroke-width:2px;"/>
                    </g>
                </g>
            </g>
            <g id="g-root-ic_2_zmk1kba1s45i-stroke" transform="matrix(1,0,0,1,476,626)">
                <g id="ic_2_zmk1kba1s45i-stroke">
                    <g>
                        <path d="M11.5,51.538C11.5,54.299 13.739,56.538 16.5,56.538L51.5,56.538C54.261,56.538 56.5,54.299 56.5,51.538C56.5,48.777 54.261,46.538 51.5,46.538L16.5,46.538C13.739,46.538 11.5,48.777 11.5,51.538L11.5,51.538ZM49.68,46.54L38.172,46.54L38.172,36.304L49.68,36.304L49.68,46.54ZM48,51.538C48,52.09 48.448,52.538 49,52.538C49.552,52.538 50,52.09 50,51.538C50,50.986 49.552,50.538 49,50.538C48.448,50.538 48,50.986 48,51.538M38,51.538C38,52.09 38.448,52.538 39,52.538C39.552,52.538 40,52.09 40,51.538C40,50.986 39.552,50.538 39,50.538C38.448,50.538 38,50.986 38,51.538M27.916,51.538C27.916,52.09 28.364,52.538 28.916,52.538C29.468,52.538 29.916,52.09 29.916,51.538C29.916,50.986 29.468,50.538 28.916,50.538C28.364,50.538 27.916,50.986 27.916,51.538M17.916,51.538C17.916,52.09 18.364,52.538 18.916,52.538C19.468,52.538 19.916,52.09 19.916,51.538C19.916,50.986 19.468,50.538 18.916,50.538C18.364,50.538 17.916,50.986 17.916,51.538M43.926,40.388L43.926,36.302M28.916,46.54L17.408,46.54L17.408,36.304L28.916,36.304L28.916,46.54ZM23.162,40.388L23.162,36.302M13.456,21.44L23.436,11.462L23.436,17.948L51.952,17.948L51.952,25.262L23.436,25.262L23.436,31.42L13.456,21.44Z" style="fill:none;stroke:rgb(44,44,44);stroke-width:2px;"/>
                    </g>
                </g>
            </g>
        </g>
    </g>
</svg>
