<?xml version="1.0" encoding="UTF-8" standalone="no"?>
<!DOCTYPE svg PUBLIC "-//W3C//DTD SVG 1.1//EN" "http://www.w3.org/Graphics/SVG/1.1/DTD/svg11.dtd">
<svg width="100%" height="100%" viewBox="0 0 588 598" version="1.1" xmlns="http://www.w3.org/2000/svg" xmlns:xlink="http://www.w3.org/1999/xlink" xml:space="preserve" xmlns:serif="http://www.serif.com/" style="fill-rule:evenodd;clip-rule:evenodd;stroke-linecap:round;stroke-linejoin:round;">
    <g id="items" transform="matrix(1.067,0,0,1.067,-19.6993,-47.7095)">
        <g id="blend">
            <g id="g-root-sy_-1_cu_1uqitaj8xv4lg-fill" transform="matrix(1,0,0,1,14,74)">
                <g id="sy_-1_cu_1uqitaj8xv4lg-fill">
                    <g>
                        <path d="M10,490L10,418L82.5,418L82.5,490L10,490ZM34,394L10,418L82.5,418L106,394L34,394ZM34,394L34,322L106,322L106,394L34,394ZM58,298L34,322L106,322L130,298L58,298ZM58,298L58,226L130,226L130,298L58,298ZM82,202L58,226L130,226L154,202L82,202ZM82,202L82,130L154,130L154,202L82,202ZM106,106L82,130L154,130L178,106L106,106ZM106,106L106,34L178,34L178,106L106,106ZM130,10L106,34L178,34L202,10L130,10Z" style="fill:url(#_Linear1);"/>
                    </g>
                </g>
            </g>
            <g id="g-root-sy_-1_cu_1_4mapqj8xv5e5-fill" transform="matrix(1,0,0,1,362,74)">
                <g id="sy_-1_cu_1_4mapqj8xv5e5-fill">
                    <g>
                        <path d="M202,490L202,418L130.5,418L130.5,490L202,490ZM202,418L178,394L106,394L130.5,418L202,418ZM178,322L178,394L106,394L106,322L178,322ZM178,322L154,298L82,298L106,322L178,322ZM154,226L154,298L82,298L82,226L154,226ZM154,226L130,202L58,202L82,226L154,226ZM130,130L130,202L58,202L58,130L130,130ZM130,130L106,106L34,106L58,130L130,130ZM106,34L106,106L34,106L34,34L106,34ZM106,34L82,10L10,10L34,34L106,34Z" style="fill:url(#_Linear2);"/>
                    </g>
                </g>
            </g>
            <g id="g-root-sy_1_cu_zqa6rv8xv3m6-fill" transform="matrix(1,0,0,1,86.4998,458)">
                <g id="sy_1_cu_zqa6rv8xv3m6-fill">
                    <g>
                        <path d="M10,106L10,34L406,34L406,106L10,106ZM381.5,10L406,34L10,34L33.5,10L381.5,10Z" style="fill:url(#_Linear3);"/>
                    </g>
                </g>
            </g>
            <g id="g-root-sy_2_cu_4o64zv8xv4ef-fill" transform="matrix(1,0,0,1,110,362)">
                <g id="sy_2_cu_4o64zv8xv4ef-fill">
                    <g>
                        <path d="M10,106L10,34L358,34L358,106L10,106ZM334,10L358,34L10,34L34,10L334,10Z" style="fill:url(#_Linear4);"/>
                    </g>
                </g>
            </g>
            <g id="g-root-sy_3_cu_18n656z8xv4zk-fill" transform="matrix(1,0,0,1,134,266)">
                <g id="sy_3_cu_18n656z8xv4zk-fill">
                    <g>
                        <path d="M10,34L10,106L310,106L310,34L10,34ZM286,10L310,34L10,34L34,10L286,10Z" style="fill:url(#_Linear5);"/>
                    </g>
                </g>
            </g>
            <g id="g-root-sy_4_cu_mgp3nv8xv47d-fill" transform="matrix(1,0,0,1,158,170)">
                <g id="sy_4_cu_mgp3nv8xv47d-fill">
                    <g>
                        <path d="M10,106L10,34L262,34L262,106L10,106ZM238,10L262,34L10,34L34,10L238,10Z" style="fill:url(#_Linear6);"/>
                    </g>
                </g>
            </g>
            <g id="g-root-sy_5_cu_1ulj0ln8xwikq-fill" transform="matrix(1,0,0,1,182,74)">
                <g id="sy_5_cu_1ulj0ln8xwikq-fill">
                    <g>
                        <path d="M10,106L10,34L214,34L214,106L10,106ZM190,10L214,34L10,34L34,10L190,10Z" style="fill:url(#_Linear7);"/>
                    </g>
                </g>
            </g>
            <g transform="matrix(1,0,0,1,213.04,156)">
                <g id="g-root-tx_monitora_1hit5fv8xwhkw-fill">
                    <g id="tx_monitora_1hit5fv8xwhkw-fill">
                        <g>
                            <g>
                                <text x="0px" y="0px" style="font-family:'ArialMT', 'Arial', sans-serif;font-size:20px;fill:rgb(244,244,244);">Monitor &amp; <tspan x="90.039px 103.379px " y="0px 0px ">An</tspan>alyse</text>
                            </g>
                        </g>
                    </g>
                </g>
            </g>
            <g transform="matrix(1,0,0,1,203.78,252)">
                <g id="g-root-tx_realtime_vagonf8xwhsf-fill">
                    <g id="tx_realtime_vagonf8xwhsf-fill">
                        <g>
                            <g>
                                <text x="0px" y="0px" style="font-family:'ArialMT', 'Arial', sans-serif;font-size:20px;fill:rgb(244,244,244);">Real-T<tspan x="59.268px 63.711px " y="0px 0px ">im</tspan>e Exchange</text>
                            </g>
                        </g>
                    </g>
                </g>
            </g>
            <g transform="matrix(1,0,0,1,233.71,348)">
                <g id="g-root-tx_plugandp_14489mz8xwhzi-fill">
                    <g id="tx_plugandp_14489mz8xwhzi-fill">
                        <g>
                            <g>
                                <text x="0px" y="0px" style="font-family:'ArialMT', 'Arial', sans-serif;font-size:20px;fill:rgb(244,244,244);">Plug and Play</text>
                            </g>
                        </g>
                    </g>
                </g>
            </g>
            <g transform="matrix(1,0,0,1,213.13,444)">
                <g id="g-root-tx_getacces_v7cb7v8xwhdx-fill">
                    <g id="tx_getacces_v7cb7v8xwhdx-fill">
                        <g>
                            <g>
                                <text x="0px" y="0px" style="font-family:'ArialMT', 'Arial', sans-serif;font-size:20px;fill:rgb(244,244,244);">Get <tspan x="36.689px 50.029px " y="0px 0px ">Ac</tspan>cess &amp; <tspan x="125.244px 135.244px 146.367px " y="0px 0px 0px ">Tes</tspan>t</text>
                            </g>
                        </g>
                    </g>
                </g>
            </g>
            <g transform="matrix(1,0,0,1,211.3,540)">
                <g id="g-root-tx_describe_qpndu38xwj5w-fill">
                    <g id="tx_describe_qpndu38xwj5w-fill">
                        <g>
                            <g>
                                <text x="0px" y="0px" style="font-family:'ArialMT', 'Arial', sans-serif;font-size:20px;fill:rgb(244,244,244);">Describe Objective</text>
                            </g>
                        </g>
                    </g>
                </g>
            </g>
            <g id="g-root-sy_-1_cu_1uqitaj8xv4lg-stroke" transform="matrix(1,0,0,1,14,74)">
                <g id="sy_-1_cu_1uqitaj8xv4lg-stroke">
                    <g>
                        <path d="M10,490L10,418L82.5,418L82.5,490L10,490ZM10,418L34,394L106,394L82.5,418L10,418ZM34,394L34,322L106,322L106,394L34,394ZM34,322L58,298L130,298L106,322L34,322ZM58,298L58,226L130,226L130,298L58,298ZM58,226L82,202L154,202L130,226L58,226ZM82,202L82,130L154,130L154,202L82,202ZM82,130L106,106L178,106L154,130L82,130ZM106,106L106,34L178,34L178,106L106,106ZM106,34L130,10L202,10L178,34L106,34Z" style="fill:none;stroke:rgb(244,244,244);stroke-width:2px;"/>
                    </g>
                </g>
            </g>
            <g id="g-root-sy_-1_cu_1_4mapqj8xv5e5-stroke" transform="matrix(1,0,0,1,362,74)">
                <g id="sy_-1_cu_1_4mapqj8xv5e5-stroke">
                    <g>
                        <path d="M202,418L202,490L130.5,490L130.5,418L202,418ZM202,418L178,394L106,394L130.5,418L202,418ZM178,322L178,394L106,394L106,322L178,322ZM178,322L154,298L82,298L106,322L178,322ZM154,226L154,298L82,298L82,226L154,226ZM154,226L130,202L58,202L82,226L154,226ZM130,130L130,202L58,202L58,130L130,130ZM130,130L106,106L34,106L58,130L130,130ZM106,106L106,34L34,34L34,106L106,106ZM106,34L82,10L10,10L34,34L106,34Z" style="fill:none;stroke:rgb(244,244,244);stroke-width:2px;"/>
                    </g>
                </g>
            </g>
            <g id="g-root-sy_1_cu_zqa6rv8xv3m6-stroke" transform="matrix(1,0,0,1,86.4998,458)">
                <g id="sy_1_cu_zqa6rv8xv3m6-stroke">
                    <g>
                        <path d="M10,34L10,106L406,106L406,34L10,34ZM406,34L381.5,10L33.5,10L10,34L406,34Z" style="fill:none;stroke:rgb(244,244,244);stroke-width:2px;"/>
                    </g>
                </g>
            </g>
            <g id="g-root-sy_2_cu_4o64zv8xv4ef-stroke" transform="matrix(1,0,0,1,110,362)">
                <g id="sy_2_cu_4o64zv8xv4ef-stroke">
                    <g>
                        <path d="M10,34L10,106L358,106L358,34L10,34ZM358,34L334,10L34,10L10,34L358,34Z" style="fill:none;stroke:rgb(244,244,244);stroke-width:2px;"/>
                    </g>
                </g>
            </g>
            <g id="g-root-sy_3_cu_18n656z8xv4zk-stroke" transform="matrix(1,0,0,1,134,266)">
                <g id="sy_3_cu_18n656z8xv4zk-stroke">
                    <g>
                        <path d="M10,106L10,34L310,34L310,106L10,106ZM310,34L286,10L34,10L10,34L310,34Z" style="fill:none;stroke:rgb(244,244,244);stroke-width:2px;"/>
                    </g>
                </g>
            </g>
            <g id="g-root-sy_4_cu_mgp3nv8xv47d-stroke" transform="matrix(1,0,0,1,158,170)">
                <g id="sy_4_cu_mgp3nv8xv47d-stroke">
                    <g>
                        <path d="M10,34L10,106L262,106L262,34L10,34ZM262,34L238,10L34,10L10,34L262,34Z" style="fill:none;stroke:rgb(244,244,244);stroke-width:2px;"/>
                    </g>
                </g>
            </g>
            <g id="g-root-sy_5_cu_1ulj0ln8xwikq-stroke" transform="matrix(1,0,0,1,182,74)">
                <g id="sy_5_cu_1ulj0ln8xwikq-stroke">
                    <g>
                        <path d="M10,34L10,106L214,106L214,34L10,34ZM214,34L190,10L34,10L10,34L214,34Z" style="fill:none;stroke:rgb(244,244,244);stroke-width:2px;"/>
                    </g>
                </g>
            </g>
            <g id="g-root-ic_idea_vbppzf8xmolr-stroke" transform="matrix(1,0,0,1,494,494)">
                <g id="ic_idea_vbppzf8xmolr-stroke">
                    <g>
                        <path d="M12,57C11.875,53.781 13.099,50.655 15.377,48.377C17.655,46.099 20.781,44.875 24,45C27.219,44.875 30.345,46.099 32.623,48.377C34.901,50.655 36.125,53.781 36,57L12,57ZM16,34C16,38.418 19.582,42 24,42C28.418,42 32,38.418 32,34C32,29.582 28.418,26 24,26C19.582,26 16,29.582 16,34M32,32.68C30.569,33.577 28.908,34.035 27.22,34C23.399,34.01 19.919,31.802 18.3,28.34M46.44,37L43.56,37M48,33L42,33M45,11L45,13M33.6,23L36,23M56,23L54,23M35,14L37,16M55,14L53,16M51,22C50.906,18.726 48.274,16.094 45,16C41.726,16.094 39.094,18.726 39,22C39.045,24.08 40.186,25.981 42,27L42,28C42,28.552 42.448,29 43,29L47,29C47.552,29 48,28.552 48,28L48,27C49.814,25.981 50.955,24.08 51,22ZM24,49L24,51" style="fill:none;stroke:rgb(244,244,244);stroke-width:2px;"/>
                    </g>
                </g>
            </g>
            <g id="g-root-ic_48px_1utn6q38xxwjo-stroke" transform="matrix(1,0,0,1,122,110)">
                <g id="ic_48px_1utn6q38xxwjo-stroke">
                    <g>
                        <path d="M15.072,30.179C15.072,24.482 17.789,19.696 23.011,19.696C28.233,19.696 30.949,24.482 30.949,30.179L30.949,37.273C30.949,42.97 28.105,47.882 23.011,47.882C17.916,47.882 15.072,42.97 15.072,37.273L15.072,30.179ZM53.693,20.121L40.379,20.121L38.988,33.144C39.817,32.315 42.353,30.657 45.865,30.657C49.971,30.657 53.813,33.447 53.427,40.052C53.028,46.894 48.912,47.904 45.529,47.904C41.945,47.904 38.405,45.361 38.073,40.565" style="fill:none;stroke:rgb(244,244,244);stroke-width:2px;"/>
                    </g>
                </g>
            </g>
            <g id="g-root-ic_view_1q5pih78xxwqx-stroke" transform="matrix(1,0,0,1,398,110)">
                <g id="ic_view_1q5pih78xxwqx-stroke">
                    <g>
                        <path d="M28.52,45.064L16,45.064C13.791,45.064 12,43.273 12,41.064L12,16.048C12,13.839 13.791,12.048 16,12.048L46.018,12.048C48.227,12.048 50.018,13.839 50.018,16.048L50.018,29.666M12,19.86L50.02,19.86M12,36.468L28.736,36.468M12,28.178L34.022,28.178M27.53,19.86L27.53,45.064M38.662,19.86L38.662,28.178M42.156,51.632C47.618,51.518 51.955,47 51.846,41.538C51.955,36.076 47.618,31.558 42.156,31.444C36.694,31.558 32.357,36.076 32.466,41.538C32.357,47 36.694,51.518 42.156,51.632ZM56,55.954L49,48.672" style="fill:none;stroke:rgb(244,244,244);stroke-width:2px;"/>
                    </g>
                </g>
            </g>
            <g id="g-root-ic_48px_hv9brf8y24g4-stroke" transform="matrix(1,0,0,1,98,206)">
                <g id="ic_48px_hv9brf8y24g4-stroke">
                    <g>
                        <path d="M15.072,30.179C15.072,24.482 17.789,19.696 23.011,19.696C28.233,19.696 30.949,24.482 30.949,30.179L30.949,37.273C30.949,42.97 28.105,47.882 23.011,47.882C17.916,47.882 15.072,42.97 15.072,37.273L15.072,30.179ZM49.91,47.979L49.91,19.551L36.295,39.738L55.315,39.738" style="fill:none;stroke:rgb(244,244,244);stroke-width:2px;"/>
                    </g>
                </g>
            </g>
            <g id="g-root-ic_arro_145h7t78y0p36-stroke" transform="matrix(1,0,0,1,422,206)">
                <g id="ic_arro_145h7t78y0p36-stroke">
                    <g>
                        <path d="M57,14L57,25.958C57.004,27.624 55.665,28.981 54,29L36,29C34.335,28.98 32.997,27.623 33,25.958L33,14C33,12.343 34.343,11 36,11L54,11C55.657,11 57,12.343 57,14ZM57,23L33,23M50,33L40,33M45,29L45,33M35,38L35,49.958C35.004,51.624 33.665,52.981 32,53L14,53C12.335,52.98 10.997,51.623 11,49.958L11,38C11,36.343 12.343,35 14,35L32,35C33.657,35 35,36.343 35,38ZM35,47L11,47M28,57L18,57M23,53L23,57M15,27L15,21.5C14.999,17.357 18.357,13.999 22.5,14L26,14M19,23L15,27L11,23M23,11L26,14L23,17" style="fill:none;stroke:rgb(244,244,244);stroke-width:2px;"/>
                    </g>
                </g>
            </g>
            <g id="g-root-ic_48px_1ut0pmz8y3i0w-stroke" transform="matrix(1,0,0,1,74,302)">
                <g id="ic_48px_1ut0pmz8y3i0w-stroke">
                    <g>
                        <path d="M15.072,30.179C15.072,24.482 17.789,19.695 23.011,19.695C28.233,19.695 30.949,24.482 30.949,30.179L30.949,37.273C30.949,42.969 28.105,47.882 23.011,47.882C17.916,47.882 15.072,42.969 15.072,37.273L15.072,30.179ZM37.121,27.068C37.002,24.659 38.483,19.71 45.065,19.71C51.648,19.71 52.656,24.597 52.428,27.357C52.177,30.4 50.272,33.508 42.201,33.508C49.714,33.508 53.126,35.562 53.126,41.125C53.126,45.933 48.876,47.89 44.992,47.89C42.201,47.866 36.62,46.287 36.62,40.162" style="fill:none;stroke:rgb(244,244,244);stroke-width:2px;"/>
                    </g>
                </g>
            </g>
            <g id="g-root-ic_d_8why2z8y3i86-stroke" transform="matrix(1,0,0,1,446,302)">
                <g id="ic_d_8why2z8y3i86-stroke">
                    <g>
                        <path d="M50.5,11.5L17.5,11.5C14.186,11.5 11.5,14.186 11.5,17.5L11.5,50.5C11.5,53.814 14.186,56.5 17.5,56.5L50.5,56.5C53.814,56.5 56.5,53.814 56.5,50.5L56.5,17.5C56.5,14.186 53.814,11.5 50.5,11.5ZM34,30.375C36.209,30.375 38,28.584 38,26.375C38,24.166 36.209,22.375 34,22.375C31.791,22.375 30,24.166 30,26.375C30,28.584 31.791,30.375 34,30.375ZM25,41.999C24.448,41.999 24,41.552 24,41C24,40.448 24.448,40 25,40M25,41.999C25.552,41.999 26,41.552 26,41C26,40.448 25.552,40 25,40M43,41.999C42.448,41.999 42,41.552 42,41C42,40.448 42.448,40 43,40M43,41.999C43.552,41.999 44,41.552 44,41C44,40.448 43.552,40 43,40" style="fill:none;stroke:rgb(244,244,244);stroke-width:2px;"/>
                    </g>
                </g>
            </g>
            <g id="g-root-ic_48px_de6ymj8xmpe6-stroke" transform="matrix(1,0,0,1,50,398)">
                <g id="ic_48px_de6ymj8xmpe6-stroke">
                    <g>
                        <path d="M15.072,30.179C15.072,24.482 17.789,19.695 23.011,19.695C28.233,19.695 30.949,24.482 30.949,30.179L30.949,37.273C30.949,42.969 28.105,47.882 23.011,47.882C17.916,47.882 15.072,42.969 15.072,37.273L15.072,30.179ZM36.832,27.515C36.832,22.895 40.056,19.695 44.438,19.695C51.707,19.695 54.186,26.789 49.421,33.098L37.33,47.417L53.951,47.417" style="fill:none;stroke:rgb(244,244,244);stroke-width:2px;"/>
                    </g>
                </g>
            </g>
            <g id="g-root-ic_appr_1czvd1n8xihoi-stroke" transform="matrix(1,0,0,1,470,398)">
                <g id="ic_appr_1czvd1n8xihoi-stroke">
                    <g>
                        <path d="M28.276,57C29.933,54.65 30.879,51.873 31,49M39.724,57C38.067,54.65 37.121,51.873 37,49M25,57L43,57M11,43L57,43M39,11L13,11C11.895,11 11,11.895 11,13L11,47C11,48.105 11.895,49 13,49L55,49C56.105,49 57,48.105 57,47L57,37M33.5,20.682L25.078,29.102L21.71,25.734M32.658,26.576C32.652,29.958 30.404,32.926 27.15,33.849C23.896,34.771 20.425,33.425 18.644,30.549C16.864,27.673 17.206,23.966 19.482,21.464C21.759,18.963 25.418,18.274 28.448,19.776M41,19L55,19C55,19 57,19 57,21L57,31C57,31 57,33 55,33L41,33C41,33 39,33 39,31L39,21C39,21 39,19 41,19M48,24C46.895,24 46,24.895 46,26C46,27.105 46.895,28 48,28C49.105,28 50,27.105 50,26C50,24.895 49.105,24 48,24ZM43,19L43,16C43,13.239 45.239,11 48,11C50.761,11 53,13.239 53,16L53,19" style="fill:none;stroke:rgb(244,244,244);stroke-width:2px;"/>
                    </g>
                </g>
            </g>
            <g id="g-root-ic_48px_4lvij8xo3d4-stroke" transform="matrix(1,0,0,1,26,494)">
                <g id="ic_48px_4lvij8xo3d4-stroke">
                    <g>
                        <path d="M37.842,23.377L46.297,20.184L46.297,47.951M15.072,30.179C15.072,24.482 17.789,19.695 23.011,19.695C28.233,19.695 30.949,24.482 30.949,30.179L30.949,37.273C30.949,42.969 28.105,47.882 23.011,47.882C17.916,47.882 15.072,42.969 15.072,37.273L15.072,30.179Z" style="fill:none;stroke:rgb(244,244,244);stroke-width:2px;"/>
                    </g>
                </g>
            </g>
        </g>
    </g>
    <defs>
        <linearGradient id="_Linear1" x1="0" y1="0" x2="1" y2="0" gradientUnits="userSpaceOnUse" gradientTransform="matrix(10,490,-490,10,0,0)"><stop offset="0" style="stop-color:rgb(149,149,149);stop-opacity:1"/><stop offset="1" style="stop-color:rgb(127,127,127);stop-opacity:1"/></linearGradient>
        <linearGradient id="_Linear2" x1="0" y1="0" x2="1" y2="0" gradientUnits="userSpaceOnUse" gradientTransform="matrix(10,490,-490,10,0,0)"><stop offset="0" style="stop-color:rgb(149,149,149);stop-opacity:1"/><stop offset="1" style="stop-color:rgb(127,127,127);stop-opacity:1"/></linearGradient>
        <linearGradient id="_Linear3" x1="0" y1="0" x2="1" y2="0" gradientUnits="userSpaceOnUse" gradientTransform="matrix(10,106,-106,10,-1.77636e-15,0)"><stop offset="0" style="stop-color:rgb(221,201,22);stop-opacity:1"/><stop offset="1" style="stop-color:rgb(169,156,44);stop-opacity:1"/></linearGradient>
        <linearGradient id="_Linear4" x1="0" y1="0" x2="1" y2="0" gradientUnits="userSpaceOnUse" gradientTransform="matrix(10,106,-106,10,0,0)"><stop offset="0" style="stop-color:rgb(220,131,49);stop-opacity:1"/><stop offset="1" style="stop-color:rgb(176,114,57);stop-opacity:1"/></linearGradient>
        <linearGradient id="_Linear5" x1="0" y1="0" x2="1" y2="0" gradientUnits="userSpaceOnUse" gradientTransform="matrix(10,106,-106,10,0,0)"><stop offset="0" style="stop-color:rgb(228,87,82);stop-opacity:1"/><stop offset="1" style="stop-color:rgb(197,74,70);stop-opacity:1"/></linearGradient>
        <linearGradient id="_Linear6" x1="0" y1="0" x2="1" y2="0" gradientUnits="userSpaceOnUse" gradientTransform="matrix(10,106,-106,10,0,0)"><stop offset="0" style="stop-color:rgb(221,87,168);stop-opacity:1"/><stop offset="1" style="stop-color:rgb(191,74,144);stop-opacity:1"/></linearGradient>
        <linearGradient id="_Linear7" x1="0" y1="0" x2="1" y2="0" gradientUnits="userSpaceOnUse" gradientTransform="matrix(10,106,-106,10,0,0)"><stop offset="0" style="stop-color:rgb(185,92,227);stop-opacity:1"/><stop offset="1" style="stop-color:rgb(163,84,199);stop-opacity:1"/></linearGradient>
    </defs>
</svg>
