<?xml version="1.0" encoding="UTF-8" standalone="no"?>
<!DOCTYPE svg PUBLIC "-//W3C//DTD SVG 1.1//EN" "http://www.w3.org/Graphics/SVG/1.1/DTD/svg11.dtd">
<svg width="100%" height="100%" viewBox="0 0 702 942" version="1.1" xmlns="http://www.w3.org/2000/svg" xmlns:xlink="http://www.w3.org/1999/xlink" xml:space="preserve" xmlns:serif="http://www.serif.com/" style="fill-rule:evenodd;clip-rule:evenodd;stroke-linecap:round;stroke-linejoin:round;">
    <g id="items" transform="matrix(1.1083,0,0,1.1083,-38.0149,-62.3016)">
        <g id="blend">
            <g id="g-root-cp_5_shape-5_metocrctqubm-fill" transform="matrix(1,0,0,1,314.303,68)">
                <g id="cp_5_shape-5_metocrctqubm-fill">
                    <g>
                        <path d="M27.697,316L15.697,316L15.697,160L27.697,160L27.697,316ZM32.297,28.191L27.697,28.191L27.697,160L15.697,160L15.697,28.191L11.017,28.191C10.237,28.191 9.747,27.341 10.137,26.661L20.86,10.448C21.256,9.849 22.136,9.851 22.53,10.451L33.177,26.661C33.577,27.341 33.087,28.191 32.297,28.191Z" style="fill:rgb(247,148,56);"/>
                    </g>
                </g>
            </g>
            <g id="g-root-cp_1_shape-1_vbpmrvctqux8-fill" transform="matrix(1,0,0,1,32,67.8164)">
                <g id="cp_1_shape-1_vbpmrvctqux8-fill">
                    <g>
                        <path d="M214,352.184L46,352.183C26.118,352.183 10,336.081 10,316.199L10,316.184L250,316.184C250,336.066 233.882,352.184 214,352.184ZM254.6,28.375L250,28.375L250,160.184L10,160.184C10,140.302 26.118,124.505 46,124.505L172,124.505C213.07,124.505 238,94.374 238,55.034L238,28.374L233.32,28.374C232.54,28.374 232.05,27.524 232.44,26.844L243.163,10.632C243.559,10.033 244.439,10.034 244.833,10.635L255.48,26.844C255.88,27.525 255.39,28.375 254.6,28.375ZM250,160.184L250,316.184L10,316.184L10,160.184L250,160.184Z" style="fill:rgb(26,195,251);"/>
                    </g>
                </g>
            </g>
            <g id="g-root-cp_3_shape-3_8gp7cts746-fill" transform="matrix(1,0,0,1,284.303,68)">
                <g id="cp_3_shape-3_8gp7cts746-fill">
                    <g>
                        <path d="M27.697,316L15.697,316L15.697,160L27.697,160L27.697,316ZM32.297,28.191L27.697,28.191L27.697,160L15.697,160L15.697,28.191L11.017,28.191C10.237,28.191 9.747,27.341 10.137,26.661L20.86,10.448C21.256,9.849 22.136,9.851 22.53,10.451L33.177,26.661C33.577,27.341 33.087,28.191 32.297,28.191Z" style="fill:rgb(166,218,55);"/>
                    </g>
                </g>
            </g>
            <g id="g-root-cp_3_shape-3_1_hs4ya3ctsa2w-fill" transform="matrix(1,0,0,1,32,374)">
                <g id="cp_3_shape-3_1_hs4ya3ctsa2w-fill">
                    <g>
                        <path d="M214,64.321C244,64.321 268,46 268,10L280,10L280,100.306L10,100.306C10,80.423 26.118,64.321 46,64.321L214,64.321Z" style="fill:rgb(166,218,55);"/>
                    </g>
                </g>
            </g>
            <g id="g-root-cp_5_shape-5_1_1cw4fbfcts8ay-fill" transform="matrix(1,0,0,1,320,374)">
                <g id="cp_5_shape-5_1_1cw4fbfcts8ay-fill">
                    <g>
                        <rect x="10" y="10" width="12" height="222" style="fill:rgb(247,148,56);"/>
                    </g>
                </g>
            </g>
            <g id="g-root-cp_3_shape-3_2_hu0djfcts938-fill" transform="matrix(1,0,0,1,32,464)">
                <g id="cp_3_shape-3_2_hu0djfcts938-fill">
                    <g>
                        <path d="M280,10L280,141.979L10,141.979L10,10L280,10ZM244,178.008L46,178.008C26.118,178.008 10,161.905 10,142.023L10,142.008L280,142.008C280,161.89 263.882,178.008 244,178.008Z" style="fill:rgb(166,218,55);"/>
                    </g>
                </g>
            </g>
            <g id="g-root-cp_5_shape-5_2_1hd6vm3cts9ou-fill" transform="matrix(1,0,0,1,32,596)">
                <g id="cp_5_shape-5_2_1hd6vm3cts9ou-fill">
                    <g>
                        <path d="M244,64.137C274,64.137 298,45.878 298,10L310,10L310,100L10,100C10,80.185 26.118,64.137 46,64.137L244,64.137Z" style="fill:rgb(247,148,56);"/>
                    </g>
                </g>
            </g>
            <g id="g-root-cp_5_shape-5_3_mbpax7cts7bc-fill" transform="matrix(1,0,0,1,32,686)">
                <g id="cp_5_shape-5_3_mbpax7cts7bc-fill">
                    <g>
                        <path d="M310,10L310,118L10,118L10,10L310,10ZM274,154.008L46,154.008C26.118,154.008 10,137.882 10,118L310,118C310,137.882 293.882,154.008 274,154.008Z" style="fill:rgb(247,148,56);"/>
                    </g>
                </g>
            </g>
            <g id="g-root-cp_2_shape-2_1qapb4bcts7wi-fill" transform="matrix(1,0,0,1,404.378,67.8164)">
                <g id="cp_2_shape-2_1qapb4bcts7wi-fill">
                    <g>
                        <path d="M51.622,352.184L219.622,352.184C239.504,352.184 255.622,336.081 255.622,316.199L255.622,316.184L15.622,316.184C15.622,336.066 31.74,352.184 51.622,352.184ZM11.022,28.375L15.622,28.375L15.622,160.184L255.622,160.184C255.622,140.302 239.505,124.505 219.623,124.505L93.622,124.505C52.552,124.505 27.622,94.374 27.622,55.034L27.622,28.374L32.302,28.374C33.082,28.374 33.572,27.524 33.182,26.844L22.459,10.632C22.063,10.033 21.184,10.034 20.79,10.635L10.142,26.844C9.742,27.525 10.232,28.375 11.022,28.375ZM15.622,160.184L15.622,316.184L255.622,316.184L255.622,160.184L15.622,160.184Z" style="fill:rgb(67,221,147);"/>
                    </g>
                </g>
            </g>
            <g id="g-root-cp_4_shape-4_mcy93fcts9hg-fill" transform="matrix(1,0,0,1,374.383,68)">
                <g id="cp_4_shape-4_mcy93fcts9hg-fill">
                    <g>
                        <path d="M15.623,316L27.623,316L27.623,160L15.623,160L15.623,316ZM11.022,28.191L15.622,28.191L15.622,160L27.622,160L27.622,28.191L32.302,28.191C33.082,28.191 33.572,27.341 33.182,26.661L22.459,10.448C22.063,9.849 21.184,9.851 20.79,10.451L10.142,26.661C9.742,27.341 10.232,28.191 11.022,28.191Z" style="fill:rgb(255,231,17);"/>
                    </g>
                </g>
            </g>
            <g id="g-root-cp_6_shape-6_1hgxq4rcts7pi-fill" transform="matrix(1,0,0,1,344.383,68)">
                <g id="cp_6_shape-6_1hgxq4rcts7pi-fill">
                    <g>
                        <path d="M15.623,316L27.623,316L27.623,160L15.623,160L15.623,316ZM11.022,28.191L15.622,28.191L15.622,160L27.622,160L27.622,28.191L32.302,28.191C33.082,28.191 33.572,27.341 33.182,26.661L22.459,10.448C22.063,9.849 21.184,9.851 20.79,10.451L10.142,26.661C9.742,27.341 10.232,28.191 11.022,28.191Z" style="fill:rgb(251,103,98);"/>
                    </g>
                </g>
            </g>
            <g id="g-root-cp_4_shape-4_1_qun6h7cts7pk-fill" transform="matrix(1,0,0,1,380,374)">
                <g id="cp_4_shape-4_1_qun6h7cts7pk-fill">
                    <g>
                        <path d="M76,64.321C46,64.321 22,46 22,10L10,10L10,100.306L280,100.306C280,80.423 263.882,64.321 244,64.321L76,64.321Z" style="fill:rgb(255,231,17);"/>
                    </g>
                </g>
            </g>
            <g id="g-root-cp_4_shape-4_2_8cmtncts7pm-fill" transform="matrix(1,0,0,1,380,464)">
                <g id="cp_4_shape-4_2_8cmtncts7pm-fill">
                    <g>
                        <path d="M10,10L10,166L280,166L280,10L10,10ZM46,202L244,202C263.882,202 280,185.898 280,166.016L280,166L10,166C10,185.882 26.118,202 46,202Z" style="fill:rgb(255,231,17);"/>
                    </g>
                </g>
            </g>
            <g id="g-root-cp_6_shape-6_1_18n6557cts7ik-fill" transform="matrix(1,0,0,1,350,374)">
                <g id="cp_6_shape-6_1_18n6557cts7ik-fill">
                    <g>
                        <rect x="10" y="10" width="12" height="246" style="fill:rgb(251,103,98);"/>
                    </g>
                </g>
            </g>
            <g id="g-root-cp_6_shape-6_2_qvw4nfcts9vq-fill" transform="matrix(1,0,0,1,350,620)">
                <g id="cp_6_shape-6_2_qvw4nfcts9vq-fill">
                    <g>
                        <path d="M76,64.321C46,64.321 22,46 22,10L10,10L10,100.306L310,100.306C310,80.423 293.882,64.321 274,64.321L76,64.321Z" style="fill:rgb(251,103,98);"/>
                    </g>
                </g>
            </g>
            <g id="g-root-cp_6_shape-6_3_1ulj0jvcttlvk-fill" transform="matrix(1,0,0,1,350,710)">
                <g id="cp_6_shape-6_3_1ulj0jvcttlvk-fill">
                    <g>
                        <path d="M10,10L10,142L310,142L310,10L10,10ZM46,178L274,178C293.882,178 310,161.898 310,142.016L310,142L10,142C10,161.882 26.118,178 46,178Z" style="fill:rgb(251,103,98);"/>
                    </g>
                </g>
            </g>
            <g id="g-root-tx_datadriv_hzmnbfctxw5h-fill" transform="matrix(1,0,0,1,440,326)">
                <g id="tx_datadriv_hzmnbfctxw5h-fill">
                    <g>
                        <g>
                            <g transform="matrix(1,0,0,1,22.01,31.2)">
                                <text x="0px" y="0px" style="font-family:'ArialMT', 'Arial', sans-serif;font-size:15px;fill:rgb(44,44,44);">Data-driven insights for</text>
                            </g>
                            <g transform="matrix(1,0,0,1,12.59,49.2)">
                                <text x="0px" y="0px" style="font-family:'ArialMT', 'Arial', sans-serif;font-size:15px;fill:rgb(44,44,44);">informed decision-making</text>
                            </g>
                            <g transform="matrix(1,0,0,1,23.49,67.2)">
                                <text x="0px" y="0px" style="font-family:'ArialMT', 'Arial', sans-serif;font-size:15px;fill:rgb(44,44,44);">and strategic planning.</text>
                            </g>
                        </g>
                    </g>
                </g>
            </g>
            <g id="g-root-tx_seamless_1luvszvcttm30-fill" transform="matrix(1,0,0,1,62,326)">
                <g id="tx_seamless_1luvszvcttm30-fill">
                    <g>
                        <g>
                            <g transform="matrix(1,0,0,1,12.68,31.2)">
                                <text x="0px" y="0px" style="font-family:'ArialMT', 'Arial', sans-serif;font-size:15px;fill:rgb(44,44,44);">Seamless communication</text>
                            </g>
                            <g transform="matrix(1,0,0,1,35.46,49.2)">
                                <text x="0px" y="0px" style="font-family:'ArialMT', 'Arial', sans-serif;font-size:15px;fill:rgb(44,44,44);">across all business</text>
                            </g>
                            <g transform="matrix(1,0,0,1,23.32,67.2)">
                                <text x="0px" y="0px" style="font-family:'ArialMT', 'Arial', sans-serif;font-size:15px;fill:rgb(44,44,44);">platforms and devices.</text>
                            </g>
                        </g>
                    </g>
                </g>
            </g>
            <g id="g-root-tx_business_hydp57ctxtzg-fill" transform="matrix(1,0,0,1,470,266)">
                <g id="tx_business_hydp57ctxtzg-fill">
                    <g>
                        <g>
                            <g transform="matrix(1,0,0,1,28.95,34)">
                                <text x="0px" y="0px" style="font-family:'Arial-BoldMT', 'Arial', sans-serif;font-weight:700;font-size:20px;fill:rgb(44,44,44);">Business</text>
                            </g>
                            <g transform="matrix(1,0,0,1,17.4,58)">
                                <text x="0px" y="0px" style="font-family:'Arial-BoldMT', 'Arial', sans-serif;font-weight:700;font-size:20px;fill:rgb(44,44,44);">Intelligence</text>
                            </g>
                        </g>
                    </g>
                </g>
            </g>
            <g transform="matrix(1,0,0,1,79.72,546)">
                <g id="g-root-tx_workflow_1hf2avfctv092-fill">
                    <g id="tx_workflow_1hf2avfctv092-fill">
                        <g>
                            <g>
                                <g transform="matrix(20,0,0,20,49.6387,0)">
                                </g>
                                <g transform="matrix(20,0,0,20,56.2988,0)">
                                </g>
                                <text x="0px" y="0px" style="font-family:'Arial-BoldMT', 'Arial', sans-serif;font-weight:700;font-size:20px;fill:rgb(44,44,44);">W<tspan x="18.516px 30.732px " y="0px 0px ">or</tspan>kﬂow <tspan x="94.443px 108.887px " y="0px 0px ">Au</tspan>tomation</text>
                            </g>
                        </g>
                    </g>
                </g>
            </g>
            <g id="g-root-tx_thirdpar_vb38ujctcqvb-fill" transform="matrix(1,0,0,1,455,512)">
                <g id="tx_thirdpar_vb38ujctcqvb-fill">
                    <g>
                        <g>
                            <g transform="matrix(1,0,0,1,18.12,34)">
                                <text x="0px" y="0px" style="font-family:'Arial-BoldMT', 'Arial', sans-serif;font-weight:700;font-size:20px;fill:rgb(44,44,44);">Third-Party</text>
                            </g>
                            <g transform="matrix(1,0,0,1,13.6,58)">
                                <text x="0px" y="0px" style="font-family:'Arial-BoldMT', 'Arial', sans-serif;font-weight:700;font-size:20px;fill:rgb(44,44,44);">Connectivity</text>
                            </g>
                        </g>
                    </g>
                </g>
            </g>
            <g id="g-root-tx_automate_18ko8srctv37r-fill" transform="matrix(1,0,0,1,65,548)">
                <g id="tx_automate_18ko8srctv37r-fill">
                    <g>
                        <g>
                            <g transform="matrix(1,0,0,1,28.36,31.2)">
                                <text x="0px" y="0px" style="font-family:'ArialMT', 'Arial', sans-serif;font-size:15px;fill:rgb(44,44,44);">Automated processes to</text>
                            </g>
                            <g transform="matrix(1,0,0,1,16.11,49.2)">
                                <text x="0px" y="0px" style="font-family:'ArialMT', 'Arial', sans-serif;font-size:15px;fill:rgb(44,44,44);">streamline tasks and reduce</text>
                            </g>
                            <g transform="matrix(1,0,0,1,62.83,67.2)">
                                <g transform="matrix(15,0,0,15,61.7065,0)">
                                </g>
                                <g transform="matrix(15,0,0,15,65.7129,0)">
                                </g>
                                <text x="0px" y="0px" style="font-family:'ArialMT', 'Arial', sans-serif;font-size:15px;fill:rgb(44,44,44);">manual eﬀort.</text>
                            </g>
                        </g>
                    </g>
                </g>
            </g>
            <g id="g-root-tx_integrat_18nspe3ctcrgg-fill" transform="matrix(1,0,0,1,425,572)">
                <g id="tx_integrat_18nspe3ctcrgg-fill">
                    <g>
                        <g>
                            <g transform="matrix(1,0,0,1,17.69,31.2)">
                                <text x="0px" y="0px" style="font-family:'ArialMT', 'Arial', sans-serif;font-size:15px;fill:rgb(44,44,44);">Integration with external</text>
                            </g>
                            <g transform="matrix(1,0,0,1,24.21,49.2)">
                                <text x="0px" y="0px" style="font-family:'ArialMT', 'Arial', sans-serif;font-size:15px;fill:rgb(44,44,44);">systems for enhanced</text>
                            </g>
                            <g transform="matrix(1,0,0,1,20.16,67.2)">
                                <text x="0px" y="0px" style="font-family:'ArialMT', 'Arial', sans-serif;font-size:15px;fill:rgb(44,44,44);">functionality and reach.</text>
                            </g>
                        </g>
                    </g>
                </g>
            </g>
            <g id="g-root-tx_flexible_1q5pll7ctfmdf-fill" transform="matrix(1,0,0,1,386,794)">
                <g id="tx_flexible_1q5pll7ctfmdf-fill">
                    <g>
                        <g>
                            <g transform="matrix(1,0,0,1,13.53,31.2)">
                                <text x="0px" y="0px" style="font-family:'ArialMT', 'Arial', sans-serif;font-size:15px;fill:rgb(44,44,44);">Flexible infrastructure to support</text>
                            </g>
                            <g transform="matrix(1,0,0,1,23.62,49.2)">
                                <text x="0px" y="0px" style="font-family:'ArialMT', 'Arial', sans-serif;font-size:15px;fill:rgb(44,44,44);">growth and evolving business</text>
                            </g>
                            <g transform="matrix(1,0,0,1,89.05,67.2)">
                                <text x="0px" y="0px" style="font-family:'ArialMT', 'Arial', sans-serif;font-size:15px;fill:rgb(44,44,44);">demands.</text>
                            </g>
                        </g>
                    </g>
                </g>
            </g>
            <g transform="matrix(1,0,0,1,95.49,768)">
                <g id="g-root-tx_customde_qs5a4rctwgsp-fill">
                    <g id="tx_customde_qs5a4rctwgsp-fill">
                        <g>
                            <g>
                                <text x="0px" y="0px" style="font-family:'Arial-BoldMT', 'Arial', sans-serif;font-weight:700;font-size:20px;fill:rgb(44,44,44);">Custom Development</text>
                            </g>
                        </g>
                    </g>
                </g>
            </g>
            <g id="g-root-tx_tailored_hydp57ctwglm-fill" transform="matrix(1,0,0,1,62,770)">
                <g id="tx_tailored_hydp57ctwglm-fill">
                    <g>
                        <g>
                            <g transform="matrix(1,0,0,1,13.81,28.2)">
                                <g transform="matrix(15,0,0,15,209.275,0)">
                                </g>
                                <g transform="matrix(15,0,0,15,213.442,0)">
                                </g>
                                <text x="0px" y="0px" style="font-family:'ArialMT', 'Arial', sans-serif;font-size:15px;fill:rgb(44,44,44);">T<tspan x="7.5px 15.842px " y="0px 0px ">ai</tspan>lored solutions to meet speciﬁc</text>
                            </g>
                            <g transform="matrix(1,0,0,1,13.93,46.2)">
                                <text x="0px" y="0px" style="font-family:'ArialMT', 'Arial', sans-serif;font-size:15px;fill:rgb(44,44,44);">business requirements and needs.</text>
                            </g>
                        </g>
                    </g>
                </g>
            </g>
            <g transform="matrix(1,0,0,1,413.44,792)">
                <g id="g-root-tx_scalable_1lymqobcte6f6-fill">
                    <g id="tx_scalable_1lymqobcte6f6-fill">
                        <g>
                            <g>
                                <text x="0px" y="0px" style="font-family:'Arial-BoldMT', 'Arial', sans-serif;font-weight:700;font-size:20px;fill:rgb(44,44,44);">Scalable <tspan x="85.977px 100.42px " y="0px 0px ">Ar</tspan>chitecture</text>
                            </g>
                        </g>
                    </g>
                </g>
            </g>
            <g id="g-root-tx_unifiedc_1hd6vm3cttnuz-fill" transform="matrix(1,0,0,1,74,266)">
                <g id="tx_unifiedc_1hd6vm3cttnuz-fill">
                    <g>
                        <g>
                            <g transform="matrix(1,0,0,1,56.02,34)">
                                <g transform="matrix(20,0,0,20,32.2168,0)">
                                </g>
                                <g transform="matrix(20,0,0,20,38.877,0)">
                                </g>
                                <text x="0px" y="0px" style="font-family:'Arial-BoldMT', 'Arial', sans-serif;font-weight:700;font-size:20px;fill:rgb(44,44,44);">Uniﬁed</text>
                            </g>
                            <g transform="matrix(1,0,0,1,16.8,58)">
                                <text x="0px" y="0px" style="font-family:'Arial-BoldMT', 'Arial', sans-serif;font-weight:700;font-size:20px;fill:rgb(44,44,44);">Communication</text>
                            </g>
                        </g>
                    </g>
                </g>
            </g>
            <g id="g-root-cp_5_shape-5_metocrctqubm-stroke" transform="matrix(1,0,0,1,314.303,68)">
                <g id="cp_5_shape-5_metocrctqubm-stroke">
                    <g>
                        <path d="M15.697,160L15.697,316M27.697,316L27.697,160M15.697,160L15.697,28.191L11.017,28.191C10.237,28.191 9.747,27.341 10.137,26.661L20.86,10.448C21.256,9.849 22.136,9.851 22.53,10.451L33.177,26.661C33.577,27.341 33.087,28.191 32.297,28.191L27.697,28.191L27.697,160" style="fill:none;stroke:rgb(44,44,44);stroke-width:2px;"/>
                    </g>
                </g>
            </g>
            <g id="g-root-cp_1_shape-1_vbpmrvctqux8-stroke" transform="matrix(1,0,0,1,32,67.8164)">
                <g id="cp_1_shape-1_vbpmrvctqux8-stroke">
                    <g>
                        <path d="M10,160.184C10,140.301 26.118,124.321 46,124.321L172,124.321C213.07,124.321 238,94.191 238,54.851L238,28.191L233.32,28.191C232.54,28.191 232.05,27.341 232.44,26.661L243.163,10.448C243.559,9.849 244.439,9.851 244.833,10.451L255.48,26.661C255.88,27.341 255.39,28.191 254.6,28.191L250,28.191L250,160.184M250,316.184C250,336.066 233.882,352.191 214,352.191L46,352.191C26.118,352.191 10,336.081 10,316.199L10,316.184M250,316.184L250,160.184M10,160.184L10,316.184" style="fill:none;stroke:rgb(44,44,44);stroke-width:2px;"/>
                    </g>
                </g>
            </g>
            <g id="g-root-cp_3_shape-3_8gp7cts746-stroke" transform="matrix(1,0,0,1,284.303,68)">
                <g id="cp_3_shape-3_8gp7cts746-stroke">
                    <g>
                        <path d="M15.697,160L15.697,316M27.697,316L27.697,160M15.697,160L15.697,28.191L11.017,28.191C10.237,28.191 9.747,27.341 10.137,26.661L20.86,10.448C21.256,9.849 22.136,9.851 22.53,10.451L33.177,26.661C33.577,27.341 33.087,28.191 32.297,28.191L27.697,28.191L27.697,160" style="fill:none;stroke:rgb(44,44,44);stroke-width:2px;"/>
                    </g>
                </g>
            </g>
            <g id="g-root-cp_3_shape-3_1_hs4ya3ctsa2w-stroke" transform="matrix(1,0,0,1,32,374)">
                <g id="cp_3_shape-3_1_hs4ya3ctsa2w-stroke">
                    <g>
                        <path d="M268,10C268,46 244,64.321 214,64.321L46,64.321C26.118,64.321 10,80.423 10,100.306M280,100.306L280,10" style="fill:none;stroke:rgb(44,44,44);stroke-width:2px;"/>
                    </g>
                </g>
            </g>
            <g id="g-root-cp_5_shape-5_1_1cw4fbfcts8ay-stroke" transform="matrix(1,0,0,1,320,374)">
                <g id="cp_5_shape-5_1_1cw4fbfcts8ay-stroke">
                    <g>
                        <path d="M10,10L10,232M22,232L22,10" style="fill:none;stroke:rgb(44,44,44);stroke-width:2px;"/>
                    </g>
                </g>
            </g>
            <g id="g-root-cp_3_shape-3_2_hu0djfcts938-stroke" transform="matrix(1,0,0,1,32,464)">
                <g id="cp_3_shape-3_2_hu0djfcts938-stroke">
                    <g>
                        <path d="M280,141.979L280,10M10,10L10,142M280,142.008C280,161.89 263.882,178.008 244,178.008L46,178.008C26.118,178.008 10,161.905 10,142.023L10,142.008" style="fill:none;stroke:rgb(44,44,44);stroke-width:2px;"/>
                    </g>
                </g>
            </g>
            <g id="g-root-cp_5_shape-5_2_1hd6vm3cts9ou-stroke" transform="matrix(1,0,0,1,32,596)">
                <g id="cp_5_shape-5_2_1hd6vm3cts9ou-stroke">
                    <g>
                        <path d="M298,10C298,45.878 274,64.137 244,64.137L46,64.137C26.118,64.137 10,80.185 10,100M310,100L310,10" style="fill:none;stroke:rgb(44,44,44);stroke-width:2px;"/>
                    </g>
                </g>
            </g>
            <g id="g-root-cp_5_shape-5_3_mbpax7cts7bc-stroke" transform="matrix(1,0,0,1,32,686)">
                <g id="cp_5_shape-5_3_mbpax7cts7bc-stroke">
                    <g>
                        <path d="M310,118L310,10M10,10L10,118M310,118C310,137.882 293.882,154.008 274,154.008L46,154.008C26.118,154.008 10,137.882 10,118" style="fill:none;stroke:rgb(44,44,44);stroke-width:2px;"/>
                    </g>
                </g>
            </g>
            <g id="g-root-cp_2_shape-2_1qapb4bcts7wi-stroke" transform="matrix(1,0,0,1,404.378,67.8164)">
                <g id="cp_2_shape-2_1qapb4bcts7wi-stroke">
                    <g>
                        <path d="M255.622,160.184C255.622,140.301 239.505,124.321 219.623,124.321L93.622,124.321C52.552,124.321 27.622,94.191 27.622,54.851L27.622,28.191L32.302,28.191C33.082,28.191 33.572,27.341 33.182,26.661L22.459,10.448C22.063,9.849 21.184,9.851 20.79,10.451L10.142,26.661C9.742,27.341 10.232,28.191 11.022,28.191L15.622,28.191L15.622,160.184M15.622,316.184C15.622,336.066 31.74,352.184 51.622,352.184L219.623,352.183C239.505,352.183 255.622,336.081 255.622,316.199L255.622,316.184M15.622,316.184L15.622,160.184M255.622,160.184L255.622,316.184" style="fill:none;stroke:rgb(44,44,44);stroke-width:2px;"/>
                    </g>
                </g>
            </g>
            <g id="g-root-cp_4_shape-4_mcy93fcts9hg-stroke" transform="matrix(1,0,0,1,374.383,68)">
                <g id="cp_4_shape-4_mcy93fcts9hg-stroke">
                    <g>
                        <path d="M27.622,160L27.622,316M15.622,316L15.622,160M27.622,160L27.622,28.191L32.302,28.191C33.082,28.191 33.572,27.341 33.182,26.661L22.459,10.448C22.063,9.849 21.184,9.851 20.79,10.451L10.142,26.661C9.742,27.341 10.232,28.191 11.022,28.191L15.622,28.191L15.622,160" style="fill:none;stroke:rgb(44,44,44);stroke-width:2px;"/>
                    </g>
                </g>
            </g>
            <g id="g-root-cp_6_shape-6_1hgxq4rcts7pi-stroke" transform="matrix(1,0,0,1,344.383,68)">
                <g id="cp_6_shape-6_1hgxq4rcts7pi-stroke">
                    <g>
                        <path d="M27.622,160L27.622,316M15.622,316L15.622,160M27.622,160L27.622,28.191L32.302,28.191C33.082,28.191 33.572,27.341 33.182,26.661L22.459,10.448C22.063,9.849 21.184,9.851 20.79,10.451L10.142,26.661C9.742,27.341 10.232,28.191 11.022,28.191L15.622,28.191L15.622,160" style="fill:none;stroke:rgb(44,44,44);stroke-width:2px;"/>
                    </g>
                </g>
            </g>
            <g id="g-root-cp_4_shape-4_1_qun6h7cts7pk-stroke" transform="matrix(1,0,0,1,380,374)">
                <g id="cp_4_shape-4_1_qun6h7cts7pk-stroke">
                    <g>
                        <path d="M22,10C22,46 46,64.321 76,64.321L244,64.321C263.882,64.321 280,80.423 280,100.306M10,100.306L10,10" style="fill:none;stroke:rgb(44,44,44);stroke-width:2px;"/>
                    </g>
                </g>
            </g>
            <g id="g-root-cp_4_shape-4_2_8cmtncts7pm-stroke" transform="matrix(1,0,0,1,380,464)">
                <g id="cp_4_shape-4_2_8cmtncts7pm-stroke">
                    <g>
                        <path d="M10,166L10,10M280,10L280,166M10,166C10,185.882 26.118,202.008 46,202.008L244,202.008C263.882,202.008 280,185.898 280,166.016L280,166" style="fill:none;stroke:rgb(44,44,44);stroke-width:2px;"/>
                    </g>
                </g>
            </g>
            <g id="g-root-cp_6_shape-6_1_18n6557cts7ik-stroke" transform="matrix(1,0,0,1,350,374)">
                <g id="cp_6_shape-6_1_18n6557cts7ik-stroke">
                    <g>
                        <path d="M22,10L22,256M10,256L10,10" style="fill:none;stroke:rgb(44,44,44);stroke-width:2px;"/>
                    </g>
                </g>
            </g>
            <g id="g-root-cp_6_shape-6_2_qvw4nfcts9vq-stroke" transform="matrix(1,0,0,1,350,620)">
                <g id="cp_6_shape-6_2_qvw4nfcts9vq-stroke">
                    <g>
                        <path d="M22,10C22,46 46,64.321 76,64.321L274,64.321C293.882,64.321 310,80.423 310,100.306M10,100.306L10,10" style="fill:none;stroke:rgb(44,44,44);stroke-width:2px;"/>
                    </g>
                </g>
            </g>
            <g id="g-root-cp_6_shape-6_3_1ulj0jvcttlvk-stroke" transform="matrix(1,0,0,1,350,710)">
                <g id="cp_6_shape-6_3_1ulj0jvcttlvk-stroke">
                    <g>
                        <path d="M10,142L10,10M310,10L310,142M10,142C10,161.882 26.118,178.008 46,178.008L274,178.008C293.882,178.008 310,161.898 310,142.016L310,142" style="fill:none;stroke:rgb(44,44,44);stroke-width:2px;"/>
                    </g>
                </g>
            </g>
            <g id="g-root-ic_2_1d2d66jctv1fs-stroke" transform="matrix(1,0,0,1,143,452)">
                <g id="ic_2_1d2d66jctv1fs-stroke">
                    <g>
                        <path d="M20.5,38.5L20.5,47.5L11.5,47.5M47.5,29.5L47.5,20.5L56.5,20.5M48.1,20.5C51.5,24.1 53.5,28.7 53.5,34.1C53.5,44.9 44.7,53.7 33.9,53.7C31.3,53.7 28.7,53.1 26.3,52.3M19.9,47.5C16.5,43.9 14.5,39.3 14.5,33.9C14.5,23.1 23.3,14.3 34.1,14.3C36.7,14.3 39.3,14.9 41.7,15.7M33.9,35.1C33.348,35.1 32.9,34.652 32.9,34.1C32.9,33.548 33.348,33.1 33.9,33.1M33.9,35.1C34.452,35.1 34.9,34.652 34.9,34.1C34.9,33.548 34.452,33.1 33.9,33.1M35.7,25.7L36.3,27.7C36.5,28.5 37.3,28.9 37.9,28.7L39.9,28.3C41.7,27.9 42.9,30.1 41.7,31.5L40.3,33.1C39.7,33.7 39.7,34.5 40.3,35.1L41.7,36.7C42.9,38.1 41.7,40.3 39.9,39.9L37.9,39.5C37.1,39.3 36.5,39.7 36.3,40.5L35.7,42.5C35.1,44.3 32.7,44.3 32.1,42.5L31.5,40.5C31.3,39.7 30.5,39.3 29.9,39.5L27.9,39.9C26.1,40.3 24.9,38.1 26.1,36.7L27.5,35.1C28.1,34.5 28.1,33.7 27.5,33.1L26.1,31.5C24.9,30.1 26.1,27.9 27.9,28.3L29.9,28.7C30.7,28.9 31.3,28.5 31.5,27.7L32.1,25.7C32.7,23.9 35.3,23.9 35.7,25.7Z" style="fill:none;stroke:rgb(44,44,44);stroke-width:2px;"/>
                    </g>
                </g>
            </g>
            <g id="g-root-ic_arro_13z8k23cte87d-stroke" transform="matrix(1,0,0,1,491,452)">
                <g id="ic_arro_13z8k23cte87d-stroke">
                    <g>
                        <path d="M57,14L57,25.958C57.004,27.624 55.665,28.981 54,29L36,29C34.335,28.98 32.997,27.623 33,25.958L33,14C33,12.343 34.343,11 36,11L54,11C55.657,11 57,12.343 57,14ZM57,23L33,23M50,33L40,33M45,29L45,33M35,38L35,49.958C35.004,51.624 33.665,52.981 32,53L14,53C12.335,52.98 10.997,51.623 11,49.958L11,38C11,36.343 12.343,35 14,35L32,35C33.657,35 35,36.343 35,38ZM35,47L11,47M28,57L18,57M23,53L23,57M15,27L15,21.5C14.999,17.357 18.357,13.999 22.5,14L26,14M19,23L15,27L11,23M23,11L26,14L23,17" style="fill:none;stroke:rgb(44,44,44);stroke-width:2px;"/>
                    </g>
                </g>
            </g>
            <g id="g-root-ic_grap_m7c2h7ctcruu-stroke" transform="matrix(1,0,0,1,506,206)">
                <g id="ic_grap_m7c2h7ctcruu-stroke">
                    <g>
                        <path d="M37,24C37,27.866 40.134,31 44,31C47.866,31 51,27.866 51,24C51,20.134 47.866,17 44,17C40.134,17 37,20.134 37,24M17,51L21.4,44.834C21.556,44.615 21.794,44.469 22.06,44.427C22.325,44.386 22.597,44.453 22.812,44.614L25.2,46.4C25.642,46.731 26.269,46.642 26.6,46.2L32,39M45.502,17.162L44,24L50.948,23.15M40,37L50,37C50,37 51,37 51,38L51,50C51,50 51,51 50,51L40,51C40,51 39,51 39,50L39,38C39,38 39,37 40,37M43,43L47,43M43,47L45,47M18,17L28,17C28,17 29,17 29,18L29,30C29,30 29,31 28,31L18,31C18,31 17,31 17,30L17,18C17,18 17,17 18,17M21,21L25,21M21,25L23,25M13,11L55,11C55,11 57,11 57,13L57,55C57,55 57,57 55,57L13,57C13,57 11,57 11,55L11,13C11,13 11,11 13,11" style="fill:none;stroke:rgb(44,44,44);stroke-width:2px;"/>
                    </g>
                </g>
            </g>
            <g id="g-root-ic_2_zpnpmzcttngt-stroke" transform="matrix(1,0,0,1,128,206)">
                <g id="ic_2_zpnpmzcttngt-stroke">
                    <g>
                        <path d="M34.1,20.2C36.309,20.2 38.1,18.409 38.1,16.2C38.1,13.991 36.309,12.2 34.1,12.2C31.891,12.2 30.1,13.991 30.1,16.2C30.1,18.409 31.891,20.2 34.1,20.2ZM52.5,55.8C54.709,55.8 56.5,54.009 56.5,51.8C56.5,49.591 54.709,47.8 52.5,47.8C50.291,47.8 48.5,49.591 48.5,51.8C48.5,54.009 50.291,55.8 52.5,55.8ZM15.5,55.8C17.709,55.8 19.5,54.009 19.5,51.8C19.5,49.591 17.709,47.8 15.5,47.8C13.291,47.8 11.5,49.591 11.5,51.8C11.5,54.009 13.291,55.8 15.5,55.8ZM29.8,40.4C32.2,38 36,38 38.2,40.4M25.5,36.2C30.1,31.6 37.7,31.6 42.5,36.2M34,46.4C33.558,46.4 33.2,46.042 33.2,45.6C33.2,45.158 33.558,44.8 34,44.8M34,46.4C34.442,46.4 34.8,46.042 34.8,45.6C34.8,45.158 34.442,44.8 34,44.8M41.7,23C47.3,28 50.9,34.4 51.5,42.2M26.3,23C20.7,28 17.1,34.4 16.5,42.2M25.1,53.6C30.9,56 36.9,56.2 43.1,53.6" style="fill:none;stroke:rgb(44,44,44);stroke-width:2px;"/>
                    </g>
                </g>
            </g>
            <g id="g-root-ic_4_94m45nctwgej-stroke" transform="matrix(1,0,0,1,158,674)">
                <g id="ic_4_94m45nctwgej-stroke">
                    <g>
                        <path d="M55.858,56.314C54.406,52.522 50.748,50.033 46.687,50.075C42.627,50.116 39.021,52.679 37.646,56.5M53.61,40.328C53.652,42.793 52.361,45.09 50.233,46.335C48.104,47.58 45.47,47.58 43.341,46.335C41.213,45.09 39.922,42.793 39.964,40.328M49.156,31.934C52.374,32.975 54.555,35.971 54.556,39.354M38.954,40.328L38.954,39.354C38.954,35.773 41.392,32.653 44.866,31.786M37.004,40.328L56.5,40.328M32.64,45.36L31.184,43.746C30.608,43.109 29.79,42.746 28.931,42.746C28.072,42.746 27.254,43.109 26.678,43.746L25.22,45.36C24.359,46.312 22.993,46.62 21.807,46.129C20.621,45.638 19.872,44.454 19.936,43.172L20.048,41C20.092,40.142 19.77,39.307 19.163,38.699C18.555,38.092 17.72,37.77 16.862,37.814L14.69,37.924C13.407,37.991 12.221,37.242 11.73,36.055C11.238,34.868 11.548,33.5 12.502,32.64L14.116,31.184C14.753,30.608 15.116,29.79 15.116,28.931C15.116,28.072 14.753,27.254 14.116,26.678L12.502,25.222C11.548,24.361 11.24,22.994 11.731,21.807C12.222,20.62 13.407,19.871 14.69,19.936L16.862,20.048C17.719,20.091 18.555,19.769 19.162,19.162C19.769,18.555 20.091,17.719 20.048,16.862L19.936,14.69C19.872,13.408 20.621,12.224 21.807,11.733C22.993,11.242 24.359,11.55 25.22,12.502L26.678,14.116C27.254,14.753 28.072,15.116 28.931,15.116C29.79,15.116 30.608,14.753 31.184,14.116L32.64,12.502C33.5,11.548 34.868,11.238 36.055,11.73C37.242,12.221 37.991,13.407 37.924,14.69L37.814,16.862C37.77,17.72 38.092,18.555 38.699,19.163C39.307,19.77 40.142,20.092 41,20.048L43.172,19.936C44.455,19.871 45.64,20.62 46.131,21.807C46.622,22.994 46.314,24.361 45.36,25.222L43.746,26.678M21.958,28.93C21.958,32.781 25.079,35.902 28.93,35.902C32.781,35.902 35.902,32.781 35.902,28.93C35.902,25.079 32.781,21.958 28.93,21.958C25.079,21.958 21.958,25.079 21.958,28.93M48.374,35.418L45.374,35.418L44.704,30.696C44.663,30.408 44.75,30.116 44.942,29.897C45.135,29.677 45.413,29.553 45.704,29.556L48.056,29.556C48.347,29.553 48.625,29.677 48.818,29.897C49.01,30.116 49.097,30.408 49.056,30.696L48.374,35.418Z" style="fill:none;stroke:rgb(44,44,44);stroke-width:2px;"/>
                    </g>
                </g>
            </g>
            <g id="g-root-ic_buil_18gb0crctfmz0-stroke" transform="matrix(1,0,0,1,476,698)">
                <g id="ic_buil_18gb0crctfmz0-stroke">
                    <g>
                        <path d="M15,57L15,21M19,25L15,21L11,25M21,15L57,15M25,11L21,15L25,19M53,19L57,15L53,11M53,56C53,56.552 52.552,57 52,57L39,57L39,29.42C39,29.095 39.158,28.79 39.424,28.603C39.689,28.415 40.03,28.369 40.336,28.478L52.336,32.762C52.734,32.904 53,33.281 53,33.704L53,56ZM51,32L51,26M39,37L45,37M25,43L31,43M25,49L31,49M39,43L48,43M44,49L48,49C48.552,49 49,49.448 49,50L49,57L43,57L43,50C43,49.448 43.448,49 44,49ZM39,37L26,37C25.448,37 25,37.448 25,38L25,56C25,56.552 25.448,57 26,57L39,57" style="fill:none;stroke:rgb(44,44,44);stroke-width:2px;"/>
                    </g>
                </g>
            </g>
        </g>
    </g>
</svg>
