<?xml version="1.0" encoding="UTF-8" standalone="no"?>
<!DOCTYPE svg PUBLIC "-//W3C//DTD SVG 1.1//EN" "http://www.w3.org/Graphics/SVG/1.1/DTD/svg11.dtd">
<svg width="100%" height="100%" viewBox="0 0 600 636" version="1.1" xmlns="http://www.w3.org/2000/svg" xmlns:xlink="http://www.w3.org/1999/xlink" xml:space="preserve" xmlns:serif="http://www.serif.com/" style="fill-rule:evenodd;clip-rule:evenodd;stroke-linecap:round;stroke-linejoin:round;">
    <g id="items" transform="matrix(1.22148,0,0,1.22148,-66.4449,-122.345)">
        <g id="blend">
            <g id="g-root-cp_1_sign-1_8x4ud747qr64-fill" transform="matrix(1,0,0,1,53,146)">
                <g id="cp_1_sign-1_8x4ud747qr64-fill">
                    <g>
                        <path d="M10,52L28,10L28,94L10,52ZM28,10L225,10L225,94L28,94L28,10Z" style="fill:rgb(79,145,252);"/>
                    </g>
                </g>
            </g>
            <g id="g-root-cp_3_sign-3_1q6yvuj47qtc6-fill" transform="matrix(1,0,0,1,89,242)">
                <g id="cp_3_sign-3_1q6yvuj47qtc6-fill">
                    <g>
                        <path d="M10,52L28,10L28,94L10,52ZM28,10L189,10L189,94L28,94L28,10Z" style="fill:rgb(166,218,55);"/>
                    </g>
                </g>
            </g>
            <g id="g-root-cp_5_sign-5_1cw4ukb47qrrc-fill" transform="matrix(1,0,0,1,65,338)">
                <g id="cp_5_sign-5_1cw4ukb47qrrc-fill">
                    <g>
                        <path d="M10,64L28,10L28,118L10,64ZM28,10L213,10L213,118L28,118L28,10Z" style="fill:rgb(247,148,56);"/>
                    </g>
                </g>
            </g>
            <g id="g-root-cp_pole_g-pole_zkoc6z47qtca-fill" transform="matrix(1,0,0,1,266,122)">
                <g id="cp_pole_g-pole_zkoc6z47qtca-fill">
                    <g>
                        <path d="M31,346L13,346L13,460L31,460L31,459.897L24.55,459.88C24.55,459.88 25.3,453.89 17.74,452.78C25.63,449.53 28.41,454.56 28.41,454.56C28.41,454.56 27.994,447.986 31,442.2L31,346ZM13,22L31,22L31,346L13,346L13,22Z" style="fill:rgb(171,171,171);"/>
                    </g>
                </g>
                <g id="cp_pole_g-pole_zkoc6z47qtca-fill1" serif:id="cp_pole_g-pole_zkoc6z47qtca-fill">
                    <g>
                        <rect x="10" y="10" width="24" height="12" style="fill:rgb(171,171,171);"/>
                    </g>
                </g>
            </g>
            <g id="g-root-cp_pole_plant_hu0ssb47qsjp-fill" transform="matrix(1,0,0,1,234,547)">
                <g id="cp_pole_plant_hu0ssb47qsjp-fill">
                    <g>
                        <path d="M60.393,29.56C60.393,29.56 57.613,24.53 49.723,27.78C54.516,28.484 57.019,30.471 56.533,35.008L10,35.008C10,35.008 17.976,46.521 54.183,46.521C90.39,46.521 97.76,35.008 97.76,35.008L71.483,35.008C68.788,30.384 74.815,23.86 80.883,26.67C78.883,23.56 72.993,22.89 68.553,26C66.693,20.52 67.443,13.77 70.613,10C59.453,14.7 60.393,29.56 60.393,29.56Z" style="fill:rgb(145,187,57);"/>
                    </g>
                </g>
            </g>
            <g id="g-root-cp_2_sign-2_1uont8b47qrkf-fill" transform="matrix(1,0,0,1,288,182)">
                <g id="cp_2_sign-2_1uont8b47qrkf-fill">
                    <g>
                        <path d="M10,10L231,10L231,70L10,70L10,10ZM249,40L231,10L231,70L249,40Z" style="fill:rgb(67,221,147);"/>
                    </g>
                </g>
            </g>
            <g id="g-root-cp_4_sign-4_1lt0szf47qt4x-fill" transform="matrix(1,0,0,1,288,254)">
                <g id="cp_4_sign-4_1lt0szf47qt4x-fill">
                    <g>
                        <path d="M10,10L207,10L207,118L10,118L10,10ZM225,64L207,10L207,118L225,64Z" style="fill:rgb(255,231,17);"/>
                    </g>
                </g>
            </g>
            <g id="g-root-cp_6_sign-6_zmjrgb47qscr-fill" transform="matrix(1,0,0,1,288,374)">
                <g id="cp_6_sign-6_zmjrgb47qscr-fill">
                    <g>
                        <path d="M10,10L219,10L219,94L10,94L10,10ZM237,52L219,10L219,94L237,52Z" style="fill:rgb(26,195,251);"/>
                    </g>
                </g>
            </g>
            <g id="g-root-tx_flexible_1ly0lob47s5xk-fill" transform="matrix(1,0,0,1,125,164)">
                <g id="tx_flexible_1ly0lob47s5xk-fill">
                    <g>
                        <g>
                            <g transform="matrix(1,0,0,1,72,34)">
                                <text x="0px" y="0px" style="font-family:'ArialMT', 'Arial', sans-serif;font-size:20px;fill:rgb(44,44,44);">Flexible</text>
                            </g>
                            <g transform="matrix(1,0,0,1,23.38,58)">
                                <text x="0px" y="0px" style="font-family:'ArialMT', 'Arial', sans-serif;font-size:20px;fill:rgb(44,44,44);">Deployments</text>
                            </g>
                        </g>
                    </g>
                </g>
            </g>
            <g transform="matrix(1,0,0,1,311,234)">
                <g id="g-root-tx_highcall_1uua66347tlvp-fill">
                    <g id="tx_highcall_1uua66347tlvp-fill">
                        <g>
                            <g>
                                <text x="0px" y="0px" style="font-family:'ArialMT', 'Arial', sans-serif;font-size:20px;fill:rgb(44,44,44);">High Call Quality</text>
                            </g>
                        </g>
                    </g>
                </g>
            </g>
            <g id="g-root-tx_tailored_znspmj47uyoa-fill" transform="matrix(1,0,0,1,161,260)">
                <g id="tx_tailored_znspmj47uyoa-fill">
                    <g>
                        <g>
                            <g transform="matrix(1,0,0,1,32.67,34)">
                                <text x="0px" y="0px" style="font-family:'ArialMT', 'Arial', sans-serif;font-size:20px;fill:rgb(44,44,44);">T<tspan x="10px 21.123px " y="0px 0px ">ai</tspan>lored</text>
                            </g>
                            <g transform="matrix(1,0,0,1,13.17,58)">
                                <text x="0px" y="0px" style="font-family:'ArialMT', 'Arial', sans-serif;font-size:20px;fill:rgb(44,44,44);">Scalability</text>
                            </g>
                        </g>
                    </g>
                </g>
            </g>
            <g id="g-root-tx_lowmaint_mcyri347xudr-fill" transform="matrix(1,0,0,1,299,272)">
                <g id="tx_lowmaint_mcyri347xudr-fill">
                    <g>
                        <g>
                            <g transform="matrix(1,0,0,1,12,34)">
                                <text x="0px" y="0px" style="font-family:'ArialMT', 'Arial', sans-serif;font-size:20px;fill:rgb(44,44,44);">Low</text>
                            </g>
                            <g transform="matrix(1,0,0,1,12,58)">
                                <text x="0px" y="0px" style="font-family:'ArialMT', 'Arial', sans-serif;font-size:20px;fill:rgb(44,44,44);">Maintenance</text>
                            </g>
                            <g transform="matrix(1,0,0,1,12,82)">
                                <text x="0px" y="0px" style="font-family:'ArialMT', 'Arial', sans-serif;font-size:20px;fill:rgb(44,44,44);">Needs</text>
                            </g>
                        </g>
                    </g>
                </g>
            </g>
            <g id="g-root-tx_customfe_vg6z47s83n-fill" transform="matrix(1,0,0,1,137,356)">
                <g id="tx_customfe_vg6z47s83n-fill">
                    <g>
                        <g>
                            <g transform="matrix(1,0,0,1,58.35,34)">
                                <text x="0px" y="0px" style="font-family:'ArialMT', 'Arial', sans-serif;font-size:20px;fill:rgb(44,44,44);">Custom</text>
                            </g>
                            <g transform="matrix(1,0,0,1,15.25,58)">
                                <text x="0px" y="0px" style="font-family:'ArialMT', 'Arial', sans-serif;font-size:20px;fill:rgb(44,44,44);">Features On-</text>
                            </g>
                            <g transform="matrix(1,0,0,1,53.52,82)">
                                <text x="0px" y="0px" style="font-family:'ArialMT', 'Arial', sans-serif;font-size:20px;fill:rgb(44,44,44);">Demand</text>
                            </g>
                        </g>
                    </g>
                </g>
            </g>
            <g id="g-root-tx_costeffe_9m3ej480ljd-fill" transform="matrix(1,0,0,1,299,392)">
                <g id="tx_costeffe_9m3ej480ljd-fill">
                    <g>
                        <g>
                            <g transform="matrix(1,0,0,1,12,34)">
                                <g transform="matrix(20,0,0,20,61.123,0)">
                                </g>
                                <g transform="matrix(20,0,0,20,66.4648,0)">
                                </g>
                                <text x="0px" y="0px" style="font-family:'ArialMT', 'Arial', sans-serif;font-size:20px;fill:rgb(44,44,44);">Cost-Eﬀective</text>
                            </g>
                            <g transform="matrix(1,0,0,1,12,58)">
                                <text x="0px" y="0px" style="font-family:'ArialMT', 'Arial', sans-serif;font-size:20px;fill:rgb(44,44,44);">V<tspan x="12.236px 23.359px 28.916px 41.895px 47.451px " y="0px 0px 0px 0px 0px ">oIP S</tspan>olutions</text>
                            </g>
                        </g>
                    </g>
                </g>
            </g>
            <g id="g-root-cp_1_sign-1_8x4ud747qr64-stroke" transform="matrix(1,0,0,1,53,146)">
                <g id="cp_1_sign-1_8x4ud747qr64-stroke">
                    <g>
                        <path d="M28,10L225,10M225,94L28,94M28,94L10,52L28,10" style="fill:none;stroke:rgb(44,44,44);stroke-width:2px;"/>
                    </g>
                </g>
            </g>
            <g id="g-root-cp_3_sign-3_1q6yvuj47qtc6-stroke" transform="matrix(1,0,0,1,89,242)">
                <g id="cp_3_sign-3_1q6yvuj47qtc6-stroke">
                    <g>
                        <path d="M28,10L189,10M189,94L28,94M28,94L10,52L28,10" style="fill:none;stroke:rgb(44,44,44);stroke-width:2px;"/>
                    </g>
                </g>
            </g>
            <g id="g-root-cp_5_sign-5_1cw4ukb47qrrc-stroke" transform="matrix(1,0,0,1,65,338)">
                <g id="cp_5_sign-5_1cw4ukb47qrrc-stroke">
                    <g>
                        <path d="M28,10L213,10M213,118L28,118M28,118L10,64L28,10" style="fill:none;stroke:rgb(44,44,44);stroke-width:2px;"/>
                    </g>
                </g>
            </g>
            <g id="g-root-cp_pole_g-pole_zkoc6z47qtca-stroke" transform="matrix(1,0,0,1,266,122)">
                <g id="cp_pole_g-pole_zkoc6z47qtca-stroke">
                    <g>
                        <path d="M31,442L31,346M13,459L13,346M31,346L31,22M13,346L13,22" style="fill:none;stroke:rgb(44,44,44);stroke-width:2px;"/>
                    </g>
                </g>
                <g id="cp_pole_g-pole_zkoc6z47qtca-stroke1" serif:id="cp_pole_g-pole_zkoc6z47qtca-stroke">
                    <g>
                        <rect x="10" y="10" width="24" height="12" style="fill:none;stroke:rgb(44,44,44);stroke-width:2px;"/>
                    </g>
                </g>
            </g>
            <g id="g-root-cp_pole_plant_hu0ssb47qsjp-stroke" transform="matrix(1,0,0,1,234,547)">
                <g id="cp_pole_plant_hu0ssb47qsjp-stroke">
                    <g>
                        <path d="M56.55,34.88C56.55,34.88 57.3,28.89 49.74,27.78C57.63,24.53 60.41,29.56 60.41,29.56C60.41,29.56 59.47,14.7 70.63,10C67.46,13.77 66.71,20.52 68.57,26C73.01,22.89 78.9,23.56 80.9,26.67C76.68,24.44 69.89,28.468 71,34.918M71,34.918L98,34.918M10,34.918L56.5,34.918" style="fill:none;stroke:rgb(44,44,44);stroke-width:2px;"/>
                    </g>
                </g>
            </g>
            <g id="g-root-cp_2_sign-2_1uont8b47qrkf-stroke" transform="matrix(1,0,0,1,288,182)">
                <g id="cp_2_sign-2_1uont8b47qrkf-stroke">
                    <g>
                        <path d="M231,70L10,70M10,10L231,10M231,10L249,40L231,70" style="fill:none;stroke:rgb(44,44,44);stroke-width:2px;"/>
                    </g>
                </g>
            </g>
            <g id="g-root-cp_4_sign-4_1lt0szf47qt4x-stroke" transform="matrix(1,0,0,1,288,254)">
                <g id="cp_4_sign-4_1lt0szf47qt4x-stroke">
                    <g>
                        <path d="M207,118L10,118M10,10L207,10M207,10L225,64L207,118" style="fill:none;stroke:rgb(44,44,44);stroke-width:2px;"/>
                    </g>
                </g>
            </g>
            <g id="g-root-cp_6_sign-6_zmjrgb47qscr-stroke" transform="matrix(1,0,0,1,288,374)">
                <g id="cp_6_sign-6_zmjrgb47qscr-stroke">
                    <g>
                        <path d="M219,94L10,94M10,10L219,10M219,10L237,52L219,94" style="fill:none;stroke:rgb(44,44,44);stroke-width:2px;"/>
                    </g>
                </g>
            </g>
            <g id="g-root-ic_1_mcyocb47qsxy-stroke" transform="matrix(1,0,0,1,77,170)">
                <g id="ic_1_mcyocb47qsxy-stroke">
                    <g>
                        <path d="M32.575,44.875L43.075,44.875C43.975,44.875 44.575,44.275 44.575,43.375L44.575,41.875C44.575,40.975 43.975,40.375 43.075,40.375L32.575,40.375C31.675,40.375 31.075,40.975 31.075,41.875L31.075,43.375C31.075,44.275 31.825,44.875 32.575,44.875ZM37.825,40.375L37.825,33.325M34.225,30.025C36.175,28.075 39.475,28.075 41.425,30.025M30.925,26.725C34.825,22.825 40.975,22.825 44.875,26.725M14.8,36.512L26.5,43.563M12.775,32.2L23.275,32.2C24.175,32.2 24.775,31.6 24.775,30.7L24.775,29.2C24.775,28.3 24.175,27.7 23.275,27.7L12.775,27.7C11.875,27.7 11.275,28.3 11.275,29.2L11.275,30.7C11.275,31.6 12.025,32.2 12.775,32.2ZM18.025,27.7L18.025,20.5M14.425,17.35C16.375,15.4 19.675,15.4 21.625,17.35M11.125,14.05C15.025,10.15 21.175,10.15 25.075,14.05" style="fill:none;stroke:rgb(44,44,44);stroke-width:2px;"/>
                    </g>
                </g>
            </g>
            <g id="g-root-ic_soun_v4ux8b47s6bo-stroke" transform="matrix(1,0,0,1,467,194)">
                <g id="ic_soun_v4ux8b47s6bo-stroke">
                    <g>
                        <path d="M28,11.5L28,44.5M22,16L22,43M16,22L16,37M11.5,28L11.5,31M34,16L34,43M40,22L40,37M44.5,28L44.5,31" style="fill:none;stroke:rgb(44,44,44);stroke-width:2px;"/>
                    </g>
                </g>
            </g>
            <g id="g-root-ic_3_1lz9juj47s83l-stroke" transform="matrix(1,0,0,1,113,266)">
                <g id="ic_3_1lz9juj47s83l-stroke">
                    <g>
                        <path d="M37,19C36.33,14.604 32.55,11.357 28.103,11.357C23.656,11.357 19.876,14.604 19.206,19L19.206,19C14.945,19 11.491,22.454 11.491,26.714C11.491,30.975 14.945,34.429 19.206,34.429C20.167,34.438 21.12,34.254 22.009,33.889C23.464,35.851 25.762,37.009 28.206,37.009C30.649,37.009 32.948,35.851 34.403,33.889C35.292,34.254 36.245,34.438 37.206,34.429C41.466,34.429 44.92,30.975 44.92,26.714C44.92,22.454 41.466,19 37.206,19L37,19ZM24.143,26.714L28,30.571L28,44.714M28,30.571L31.857,26.714" style="fill:none;stroke:rgb(44,44,44);stroke-width:2px;"/>
                    </g>
                </g>
            </g>
            <g id="g-root-ic_cost_1q6chx747uzgu-stroke" transform="matrix(1,0,0,1,443,290)">
                <g id="ic_cost_1q6chx747uzgu-stroke">
                    <g>
                        <path d="M16.9,44.899L16.9,27.906C13.446,26.691 11.132,23.431 11.125,19.77C11.134,18.337 11.503,16.929 12.198,15.676C12.198,15.676 16.141,19.705 16.56,20.24C17.025,20.839 17.724,21.209 18.481,21.257C19.237,21.305 19.978,21.026 20.515,20.491C21.05,19.954 21.329,19.213 21.281,18.457C21.233,17.7 20.863,17.001 20.265,16.536C19.729,16.117 15.7,12.174 15.7,12.174C17.94,10.918 20.631,10.756 23.005,11.734C26.36,13.056 28.539,16.326 28.467,19.932C28.395,23.538 26.088,26.718 22.682,27.905L22.682,44.899M38.125,31.351L35.076,31.351C34.112,31.352 33.283,32.036 33.1,32.982C32.918,33.928 33.431,34.872 34.326,35.231L37.422,36.47C38.316,36.83 38.829,37.774 38.647,38.72C38.464,39.666 37.635,40.35 36.672,40.351L33.625,40.351M35.875,31.351L35.875,30.226M35.875,41.476L35.875,40.351M26.875,35.851C26.875,40.822 30.904,44.851 35.875,44.851C40.846,44.851 44.875,40.822 44.875,35.851C44.875,30.88 40.846,26.851 35.875,26.851C30.904,26.851 26.875,30.88 26.875,35.851" style="fill:none;stroke:rgb(44,44,44);stroke-width:2px;"/>
                    </g>
                </g>
            </g>
            <g id="g-root-ic_ligh_qu14mz47uyh7-stroke" transform="matrix(1,0,0,1,89,374)">
                <g id="ic_ligh_qu14mz47uyh7-stroke">
                    <g>
                        <path d="M28.857,11.8C28.813,11.823 28.774,11.85 28.731,11.872L30.061,14.517C30.173,14.755 30.438,14.881 30.694,14.817C31.73,14.527 32.826,15.011 33.31,15.972C33.793,16.933 33.529,18.102 32.679,18.761C32.473,18.924 32.41,19.21 32.529,19.444L33.567,21.505L35.626,20.469C35.859,20.347 36.144,20.406 36.31,20.61C36.97,21.457 38.136,21.72 39.096,21.237C40.055,20.755 40.54,19.661 40.254,18.627C40.189,18.37 40.315,18.105 40.553,17.992L42.504,17.014C42.381,16.735 42.258,16.456 42.106,16.186C39.66,11.315 33.726,9.35 28.857,11.8L28.857,11.8ZM28.536,37.924L28.536,37.9C28.571,35.97 29.531,34.174 31.116,33.072C33.8,31.113 35.455,28.045 35.616,24.726L33.174,24.726C32.879,24.721 32.623,24.924 32.56,25.212C32.326,26.393 31.29,27.245 30.085,27.245C28.88,27.245 27.844,26.393 27.61,25.212C27.547,24.924 27.29,24.721 26.997,24.726L24.409,24.726L24.409,27.312C24.413,27.606 24.209,27.862 23.922,27.925C22.74,28.159 21.888,29.195 21.888,30.4C21.888,31.605 22.74,32.641 23.922,32.875C24.209,32.937 24.413,33.193 24.409,33.487L24.409,37.92L28.536,37.924ZM24.409,33.492C24.413,33.197 24.209,32.941 23.922,32.88C22.74,32.646 21.888,31.609 21.888,30.405C21.888,29.2 22.74,28.163 23.922,27.93C24.209,27.867 24.413,27.61 24.409,27.316L24.409,24.729L21.822,24.729C21.528,24.732 21.272,24.528 21.21,24.241C20.976,23.059 19.939,22.208 18.735,22.208C17.53,22.208 16.493,23.059 16.26,24.241C16.196,24.528 15.94,24.732 15.646,24.729L13.525,24.729C13.686,28.055 15.347,31.13 18.042,33.088C19.632,34.19 20.596,35.989 20.632,37.924L24.409,37.924L24.409,33.492ZM24.895,16.577C24.608,16.514 24.405,16.258 24.409,15.964L24.409,12.643C18.364,12.729 13.509,17.653 13.507,23.698C13.49,24.046 13.507,24.386 13.525,24.729L15.645,24.729C15.939,24.732 16.195,24.528 16.258,24.241C16.492,23.059 17.528,22.208 18.733,22.208C19.938,22.208 20.974,23.059 21.208,24.241C21.27,24.528 21.526,24.732 21.82,24.729L24.409,24.729L24.409,22.141C24.405,21.847 24.608,21.591 24.895,21.528C26.079,21.297 26.934,20.259 26.934,19.052C26.934,17.846 26.079,16.808 24.895,16.577L24.895,16.577ZM20.581,43.035L28.706,43.035M20.581,40.492L28.706,40.492M24.643,43.035L24.643,45.25" style="fill:none;stroke:rgb(44,44,44);stroke-width:2px;"/>
                    </g>
                </g>
            </g>
            <g id="g-root-ic_appr_hz0omz47xu68-stroke" transform="matrix(1,0,0,1,455,398)">
                <g id="ic_appr_hz0omz47xu68-stroke">
                    <g>
                        <path d="M45.25,37.75C45.25,41.892 41.892,45.25 37.75,45.25C33.608,45.25 30.25,41.892 30.25,37.75C30.25,33.608 33.608,30.25 37.75,30.25M34.75,37.75L37.18,39.573C37.499,39.812 37.95,39.759 38.206,39.452L45.25,31M10.756,18.25C10.756,22.392 14.114,25.75 18.256,25.75C22.398,25.75 25.756,22.392 25.756,18.25C25.756,14.108 22.398,10.75 18.256,10.75C14.114,10.75 10.756,14.108 10.756,18.25L10.756,18.25ZM18.256,21.25L18.256,22.75M18.256,13.75L18.256,15.25M15.25,21.25L19.75,21.25C20.578,21.25 21.25,20.578 21.25,19.75C21.25,18.922 20.578,18.25 19.75,18.25L16.75,18.25C15.922,18.25 15.25,17.578 15.25,16.75C15.25,15.922 15.922,15.25 16.75,15.25L21.25,15.25M28,43.75C19.302,43.75 12.25,36.698 12.25,28M28,12.25C36.698,12.25 43.75,19.302 43.75,28" style="fill:none;stroke:rgb(44,44,44);stroke-width:2px;"/>
                    </g>
                </g>
            </g>
        </g>
    </g>
</svg>
