<?xml version="1.0" encoding="UTF-8" standalone="no"?>
<!DOCTYPE svg PUBLIC "-//W3C//DTD SVG 1.1//EN" "http://www.w3.org/Graphics/SVG/1.1/DTD/svg11.dtd">
<svg width="100%" height="100%" viewBox="0 0 576 710" version="1.1" xmlns="http://www.w3.org/2000/svg" xmlns:xlink="http://www.w3.org/1999/xlink" xml:space="preserve" xmlns:serif="http://www.serif.com/" style="fill-rule:evenodd;clip-rule:evenodd;stroke-linecap:round;stroke-linejoin:round;">
    <g id="items" transform="matrix(1.08183,0,0,1.08183,-23.5662,-36.1124)">
        <g id="blend">
            <g id="g-root-cp_5_text-5_zs5uvv47z6kk-fill" transform="matrix(1,0,0,1,50,50)">
                <g id="cp_5_text-5_zs5uvv47z6kk-fill">
                    <g>
                        <rect x="10" y="10" width="228" height="180" style="fill:rgb(203,104,249);"/>
                    </g>
                </g>
            </g>
            <g id="g-root-cp_5_stick-5_18f27x7480lqm-fill" transform="matrix(1,0,0,1,266,230)">
                <g id="cp_5_stick-5_18f27x7480lqm-fill">
                    <g>
                        <rect x="10" y="10" width="12" height="360" style="fill:rgb(203,104,249);"/>
                    </g>
                </g>
            </g>
            <g id="g-root-cp_3_text-3_8x4o0r480nb4-fill" transform="matrix(1,0,0,1,38,230)">
                <g id="cp_3_text-3_8x4o0r480nb4-fill">
                    <g>
                        <rect x="10" y="10" width="228" height="144" style="fill:rgb(251,103,98);"/>
                    </g>
                </g>
            </g>
            <g id="g-root-cp_3_stick-3_18gxn6j480kqy-fill" transform="matrix(1,0,0,1,254,374)">
                <g id="cp_3_stick-3_18gxn6j480kqy-fill">
                    <g>
                        <rect x="10" y="10" width="12" height="216" style="fill:rgb(251,103,98);"/>
                    </g>
                </g>
            </g>
            <g id="g-root-cp_1_text-1_hun3iz480kr0-fill" transform="matrix(1,0,0,1,26,374)">
                <g id="cp_1_text-1_hun3iz480kr0-fill">
                    <g>
                        <rect x="10" y="10" width="228" height="180" style="fill:rgb(255,231,17);"/>
                    </g>
                </g>
            </g>
            <g id="g-root-cp_1_stick-1_1q9gluj480kjy-fill" transform="matrix(1,0,0,1,242,458)">
                <g id="cp_1_stick-1_1q9gluj480kjy-fill">
                    <g>
                        <rect x="10" y="10" width="12" height="132" style="fill:rgb(255,231,17);"/>
                    </g>
                </g>
            </g>
            <g id="g-root-cp_6_text-6_qrj1y3480m4g-fill" transform="matrix(1,0,0,1,278,86)">
                <g id="cp_6_text-6_qrj1y3480m4g-fill">
                    <g>
                        <rect x="10" y="10" width="228" height="168" style="fill:rgb(135,105,253);"/>
                    </g>
                </g>
            </g>
            <g id="g-root-cp_6_stick-6_58iaj480m4i-fill" transform="matrix(1,0,0,1,278,254)">
                <g id="cp_6_stick-6_58iaj480m4i-fill">
                    <g>
                        <rect x="10" y="10" width="12" height="336" style="fill:rgb(135,105,253);"/>
                    </g>
                </g>
            </g>
            <g id="g-root-cp_4_text-4_1czviqj480l58-fill" transform="matrix(1,0,0,1,290,254)">
                <g id="cp_4_text-4_1czviqj480l58-fill">
                    <g>
                        <rect x="10" y="10" width="228" height="144" style="fill:rgb(243,102,187);"/>
                    </g>
                </g>
            </g>
            <g id="g-root-cp_4_stick-4_mdkz2z480l5a-fill" transform="matrix(1,0,0,1,290,398)">
                <g id="cp_4_stick-4_mdkz2z480l5a-fill">
                    <g>
                        <rect x="10" y="10" width="12" height="192" style="fill:rgb(243,102,187);"/>
                    </g>
                </g>
            </g>
            <g id="g-root-cp_2_text-2_1qckza3480lqg-fill" transform="matrix(1,0,0,1,302,398)">
                <g id="cp_2_text-2_1qckza3480lqg-fill">
                    <g>
                        <rect x="10" y="10" width="228" height="144" style="fill:rgb(247,148,56);"/>
                    </g>
                </g>
            </g>
            <g id="g-root-cp_2_stick-2_vagxi3480miq-fill" transform="matrix(1,0,0,1,302,482)">
                <g id="cp_2_stick-2_vagxi3480miq-fill">
                    <g>
                        <rect x="10" y="10" width="12" height="108" style="fill:rgb(247,148,56);"/>
                    </g>
                </g>
            </g>
            <g id="g-root-cp_0_g-0_93zvyz480lqk-fill" transform="matrix(1,0,0,1,242,590)">
                <g id="cp_0_g-0_93zvyz480lqk-fill">
                    <g>
                        <path d="M33.994,61L46.01,86L58.005,61L33.994,61Z" style="fill:rgb(232,232,232);"/>
                    </g>
                </g>
                <g id="cp_0_g-0_93zvyz480lqk-fill1" serif:id="cp_0_g-0_93zvyz480lqk-fill">
                    <g>
                        <path d="M82,10L10,10L34,61L58.001,61L82,10Z" style="fill:rgb(232,232,232);"/>
                    </g>
                </g>
            </g>
            <g id="g-root-tx_ivrcallr_1hby6cb48670l-fill" transform="matrix(1,0,0,1,62,242)">
                <g id="tx_ivrcallr_1hby6cb48670l-fill">
                    <g>
                        <g>
                            <g transform="matrix(1,0,0,1,62.8,34)">
                                <text x="0px" y="0px" style="font-family:'Arial-BoldMT', 'Arial', sans-serif;font-weight:700;font-size:20px;fill:rgb(44,44,44);">IVR &amp; Call</text>
                            </g>
                            <g transform="matrix(1,0,0,1,15,58)">
                                <text x="0px" y="0px" style="font-family:'Arial-BoldMT', 'Arial', sans-serif;font-weight:700;font-size:20px;fill:rgb(44,44,44);">Routing Design</text>
                            </g>
                        </g>
                    </g>
                </g>
            </g>
            <g id="g-root-tx_robustse_maglnf48ahag-fill" transform="matrix(1,0,0,1,338,182)">
                <g id="tx_robustse_maglnf48ahag-fill">
                    <g>
                        <g>
                            <g transform="matrix(1,0,0,1,12,31.2)">
                                <text x="0px" y="0px" style="font-family:'ArialMT', 'Arial', sans-serif;font-size:15px;fill:rgb(44,44,44);">Robust security</text>
                            </g>
                            <g transform="matrix(1,0,0,1,12,49.2)">
                                <text x="0px" y="0px" style="font-family:'ArialMT', 'Arial', sans-serif;font-size:15px;fill:rgb(44,44,44);">measures for SIP<tspan x="115.605px 119.773px " y="0px 0px "> a</tspan>nd</text>
                            </g>
                            <g transform="matrix(1,0,0,1,12,67.2)">
                                <g transform="matrix(15,0,0,15,0,0)">
                                </g>
                                <g transform="matrix(15,0,0,15,4.16748,0)">
                                </g>
                                <text x="0px" y="0px" style="font-family:'ArialMT', 'Arial', sans-serif;font-size:15px;fill:rgb(44,44,44);">ﬁrewall protection.</text>
                            </g>
                        </g>
                    </g>
                </g>
            </g>
            <g id="g-root-tx_crmapiin_1czvlwb47perk-fill" transform="matrix(1,0,0,1,350,266)">
                <g id="tx_crmapiin_1czvlwb47perk-fill">
                    <g>
                        <g>
                            <g transform="matrix(1,0,0,1,12,34)">
                                <text x="0px" y="0px" style="font-family:'Arial-BoldMT', 'Arial', sans-serif;font-weight:700;font-size:20px;fill:rgb(44,44,44);">CRM &amp; <tspan x="70.361px 84.805px " y="0px 0px ">AP</tspan>I</text>
                            </g>
                            <g transform="matrix(1,0,0,1,12,58)">
                                <text x="0px" y="0px" style="font-family:'Arial-BoldMT', 'Arial', sans-serif;font-weight:700;font-size:20px;fill:rgb(44,44,44);">Integrations</text>
                            </g>
                        </g>
                    </g>
                </g>
            </g>
            <g id="g-root-tx_optimize_de74bf4868li-fill" transform="matrix(1,0,0,1,50,302)">
                <g id="tx_optimize_de74bf4868li-fill">
                    <g>
                        <g>
                            <g transform="matrix(1,0,0,1,18.43,31.2)">
                                <text x="0px" y="0px" style="font-family:'ArialMT', 'Arial', sans-serif;font-size:15px;fill:rgb(44,44,44);">Optimized call routing</text>
                            </g>
                            <g transform="matrix(1,0,0,1,76.22,49.2)">
                                <text x="0px" y="0px" style="font-family:'ArialMT', 'Arial', sans-serif;font-size:15px;fill:rgb(44,44,44);">for enhanced</text>
                            </g>
                            <g transform="matrix(1,0,0,1,20.45,67.2)">
                                <text x="0px" y="0px" style="font-family:'ArialMT', 'Arial', sans-serif;font-size:15px;fill:rgb(44,44,44);">customer experience.</text>
                            </g>
                        </g>
                    </g>
                </g>
            </g>
            <g id="g-root-tx_seamless_740pn47pdzd-fill" transform="matrix(1,0,0,1,350,326)">
                <g id="tx_seamless_740pn47pdzd-fill">
                    <g>
                        <g>
                            <g transform="matrix(1,0,0,1,12,31.2)">
                                <text x="0px" y="0px" style="font-family:'ArialMT', 'Arial', sans-serif;font-size:15px;fill:rgb(44,44,44);">Seamless integration</text>
                            </g>
                            <g transform="matrix(1,0,0,1,12,49.2)">
                                <text x="0px" y="0px" style="font-family:'ArialMT', 'Arial', sans-serif;font-size:15px;fill:rgb(44,44,44);">with CRM and other</text>
                            </g>
                            <g transform="matrix(1,0,0,1,12,67.2)">
                                <text x="0px" y="0px" style="font-family:'ArialMT', 'Arial', sans-serif;font-size:15px;fill:rgb(44,44,44);">APIs.</text>
                            </g>
                        </g>
                    </g>
                </g>
            </g>
            <g id="g-root-tx_instanti_244uz481z49-fill" transform="matrix(1,0,0,1,98,146)">
                <g id="tx_instanti_244uz481z49-fill">
                    <g>
                        <g>
                            <g transform="matrix(1,0,0,1,25.25,28.2)">
                                <text x="0px" y="0px" style="font-family:'ArialMT', 'Arial', sans-serif;font-size:15px;fill:rgb(44,44,44);">Instant insights</text>
                            </g>
                            <g transform="matrix(1,0,0,1,14.17,46.2)">
                                <text x="0px" y="0px" style="font-family:'ArialMT', 'Arial', sans-serif;font-size:15px;fill:rgb(44,44,44);">through real-time</text>
                            </g>
                            <g transform="matrix(1,0,0,1,26.98,64.2)">
                                <text x="0px" y="0px" style="font-family:'ArialMT', 'Arial', sans-serif;font-size:15px;fill:rgb(44,44,44);">monitoring and</text>
                            </g>
                            <g transform="matrix(1,0,0,1,76.08,82.2)">
                                <text x="0px" y="0px" style="font-family:'ArialMT', 'Arial', sans-serif;font-size:15px;fill:rgb(44,44,44);">reports.</text>
                            </g>
                        </g>
                    </g>
                </g>
            </g>
            <g id="g-root-tx_advanced_zqwwpn487ocg-fill" transform="matrix(1,0,0,1,50,386)">
                <g id="tx_advanced_zqwwpn487ocg-fill">
                    <g>
                        <g>
                            <g transform="matrix(1,0,0,1,62.92,34)">
                                <text x="0px" y="0px" style="font-family:'Arial-BoldMT', 'Arial', sans-serif;font-weight:700;font-size:20px;fill:rgb(44,44,44);">Advanced</text>
                            </g>
                            <g transform="matrix(1,0,0,1,77.17,58)">
                                <text x="0px" y="0px" style="font-family:'Arial-BoldMT', 'Arial', sans-serif;font-weight:700;font-size:20px;fill:rgb(44,44,44);">Asterisk</text>
                            </g>
                            <g transform="matrix(1,0,0,1,21.6,82)">
                                <text x="0px" y="0px" style="font-family:'Arial-BoldMT', 'Arial', sans-serif;font-weight:700;font-size:20px;fill:rgb(44,44,44);">Customization</text>
                            </g>
                        </g>
                    </g>
                </g>
            </g>
            <g id="g-root-tx_securesi_1uo15sr48aexb-fill" transform="matrix(1,0,0,1,338,98)">
                <g id="tx_securesi_1uo15sr48aexb-fill">
                    <g>
                        <g>
                            <g transform="matrix(1,0,0,1,12,34)">
                                <text x="0px" y="0px" style="font-family:'Arial-BoldMT', 'Arial', sans-serif;font-weight:700;font-size:20px;fill:rgb(44,44,44);">Secure SIP<tspan x="104.141px 109.697px " y="0px 0px "> &amp;</tspan></text>
                            </g>
                            <g transform="matrix(1,0,0,1,12,58)">
                                <text x="0px" y="0px" style="font-family:'Arial-BoldMT', 'Arial', sans-serif;font-weight:700;font-size:20px;fill:rgb(44,44,44);">Firewall</text>
                            </g>
                            <g transform="matrix(1,0,0,1,12,82)">
                                <g transform="matrix(20,0,0,20,38.877,0)">
                                </g>
                                <g transform="matrix(20,0,0,20,45.5371,0)">
                                </g>
                                <text x="0px" y="0px" style="font-family:'Arial-BoldMT', 'Arial', sans-serif;font-weight:700;font-size:20px;fill:rgb(44,44,44);">Conﬁguration</text>
                            </g>
                        </g>
                    </g>
                </g>
            </g>
            <g id="g-root-tx_multiten_1q7l9qz47s6pv-fill" transform="matrix(1,0,0,1,362,410)">
                <g id="tx_multiten_1q7l9qz47s6pv-fill">
                    <g>
                        <g>
                            <g transform="matrix(1,0,0,1,12,34)">
                                <text x="0px" y="0px" style="font-family:'Arial-BoldMT', 'Arial', sans-serif;font-weight:700;font-size:20px;fill:rgb(44,44,44);">Multi-T<tspan x="64.043px 75.166px " y="0px 0px ">en</tspan>ant</text>
                            </g>
                            <g transform="matrix(1,0,0,1,12,58)">
                                <text x="0px" y="0px" style="font-family:'Arial-BoldMT', 'Arial', sans-serif;font-weight:700;font-size:20px;fill:rgb(44,44,44);">PBX Support</text>
                            </g>
                        </g>
                    </g>
                </g>
            </g>
            <g id="g-root-tx_tailored_1lz9di3487nd6-fill" transform="matrix(1,0,0,1,50,470)">
                <g id="tx_tailored_1lz9di3487nd6-fill">
                    <g>
                        <g>
                            <g transform="matrix(1,0,0,1,40.32,28.2)">
                                <text x="0px" y="0px" style="font-family:'ArialMT', 'Arial', sans-serif;font-size:15px;fill:rgb(44,44,44);">T<tspan x="7.5px 15.842px " y="0px 0px ">ai</tspan>lored <tspan x="55.869px 65.874px " y="0px 0px ">As</tspan>terisk</text>
                            </g>
                            <g transform="matrix(1,0,0,1,19.42,46.2)">
                                <text x="0px" y="0px" style="font-family:'ArialMT', 'Arial', sans-serif;font-size:15px;fill:rgb(44,44,44);">solutions for unique</text>
                            </g>
                            <g transform="matrix(1,0,0,1,92.18,64.2)">
                                <text x="0px" y="0px" style="font-family:'ArialMT', 'Arial', sans-serif;font-size:15px;fill:rgb(44,44,44);">business</text>
                            </g>
                            <g transform="matrix(1,0,0,1,59.77,82.2)">
                                <text x="0px" y="0px" style="font-family:'ArialMT', 'Arial', sans-serif;font-size:15px;fill:rgb(44,44,44);">requirements.</text>
                            </g>
                        </g>
                    </g>
                </g>
            </g>
            <g id="g-root-tx_realtime_1ulj9gb4820p4-fill" transform="matrix(1,0,0,1,98,62)">
                <g id="tx_realtime_1ulj9gb4820p4-fill">
                    <g>
                        <g>
                            <g transform="matrix(1,0,0,1,34.68,34)">
                                <text x="0px" y="0px" style="font-family:'Arial-BoldMT', 'Arial', sans-serif;font-weight:700;font-size:20px;fill:rgb(44,44,44);">Real-T<tspan x="60.762px 66.318px " y="0px 0px ">im</tspan>e</text>
                            </g>
                            <g transform="matrix(1,0,0,1,11.52,58)">
                                <text x="0px" y="0px" style="font-family:'Arial-BoldMT', 'Arial', sans-serif;font-weight:700;font-size:20px;fill:rgb(44,44,44);">Monitoring &amp;</text>
                            </g>
                            <g transform="matrix(1,0,0,1,57,82)">
                                <text x="0px" y="0px" style="font-family:'Arial-BoldMT', 'Arial', sans-serif;font-weight:700;font-size:20px;fill:rgb(44,44,44);">Reports</text>
                            </g>
                        </g>
                    </g>
                </g>
            </g>
            <g id="g-root-tx_scalable_detokb47s5xp-fill" transform="matrix(1,0,0,1,362,470)">
                <g id="tx_scalable_detokb47s5xp-fill">
                    <g>
                        <g>
                            <g transform="matrix(1,0,0,1,12,31.2)">
                                <text x="0px" y="0px" style="font-family:'ArialMT', 'Arial', sans-serif;font-size:15px;fill:rgb(44,44,44);">Scalable PBX</text>
                            </g>
                            <g transform="matrix(1,0,0,1,12,49.2)">
                                <text x="0px" y="0px" style="font-family:'ArialMT', 'Arial', sans-serif;font-size:15px;fill:rgb(44,44,44);">solutions for multiple</text>
                            </g>
                            <g transform="matrix(1,0,0,1,12,67.2)">
                                <g transform="matrix(15,0,0,15,61.7139,0)">
                                </g>
                                <g transform="matrix(15,0,0,15,65.7479,0)">
                                </g>
                                <g transform="matrix(15,0,0,15,69.782,0)">
                                </g>
                                <text x="0px" y="0px" style="font-family:'ArialMT', 'Arial', sans-serif;font-size:15px;fill:rgb(44,44,44);">tenants eﬃciently<tspan x="114.412px " y="0px ">.</tspan></text>
                            </g>
                        </g>
                    </g>
                </g>
            </g>
            <g id="g-root-cp_5_text-5_zs5uvv47z6kk-stroke" transform="matrix(1,0,0,1,50,50)">
                <g id="cp_5_text-5_zs5uvv47z6kk-stroke">
                    <g>
                        <path d="M10,190L10,10L238,10L238,190" style="fill:none;stroke:rgb(44,44,44);stroke-width:2px;"/>
                    </g>
                </g>
            </g>
            <g id="g-root-cp_5_stick-5_18f27x7480lqm-stroke" transform="matrix(1,0,0,1,266,230)">
                <g id="cp_5_stick-5_18f27x7480lqm-stroke">
                    <g>
                        <path d="M21.996,370L21.996,10" style="fill:none;stroke:rgb(44,44,44);stroke-width:2px;"/>
                    </g>
                </g>
            </g>
            <g id="g-root-cp_3_text-3_8x4o0r480nb4-stroke" transform="matrix(1,0,0,1,38,230)">
                <g id="cp_3_text-3_8x4o0r480nb4-stroke">
                    <g>
                        <path d="M10,154L10,10L238,10L238,154" style="fill:none;stroke:rgb(44,44,44);stroke-width:2px;"/>
                    </g>
                </g>
            </g>
            <g id="g-root-cp_3_stick-3_18gxn6j480kqy-stroke" transform="matrix(1,0,0,1,254,374)">
                <g id="cp_3_stick-3_18gxn6j480kqy-stroke">
                    <g>
                        <path d="M21.996,226L21.996,10" style="fill:none;stroke:rgb(44,44,44);stroke-width:2px;"/>
                    </g>
                </g>
            </g>
            <g id="g-root-cp_1_text-1_hun3iz480kr0-stroke" transform="matrix(1,0,0,1,26,374)">
                <g id="cp_1_text-1_hun3iz480kr0-stroke">
                    <g>
                        <path d="M238,190L238,10L10,10L10,190L226,190" style="fill:none;stroke:rgb(44,44,44);stroke-width:2px;"/>
                    </g>
                </g>
            </g>
            <g id="g-root-cp_1_stick-1_1q9gluj480kjy-stroke" transform="matrix(1,0,0,1,242,458)">
                <g id="cp_1_stick-1_1q9gluj480kjy-stroke">
                    <g>
                        <path d="M21.996,142L21.996,10M10,142L10,106" style="fill:none;stroke:rgb(44,44,44);stroke-width:2px;"/>
                    </g>
                </g>
            </g>
            <g id="g-root-cp_6_text-6_qrj1y3480m4g-stroke" transform="matrix(1,0,0,1,278,86)">
                <g id="cp_6_text-6_qrj1y3480m4g-stroke">
                    <g>
                        <path d="M238,178L238,10L10,10L10,178" style="fill:none;stroke:rgb(44,44,44);stroke-width:2px;"/>
                    </g>
                </g>
            </g>
            <g id="g-root-cp_6_stick-6_58iaj480m4i-stroke" transform="matrix(1,0,0,1,278,254)">
                <g id="cp_6_stick-6_58iaj480m4i-stroke">
                    <g>
                        <path d="M10.004,346L10.004,10" style="fill:none;stroke:rgb(44,44,44);stroke-width:2px;"/>
                    </g>
                </g>
            </g>
            <g id="g-root-cp_4_text-4_1czviqj480l58-stroke" transform="matrix(1,0,0,1,290,254)">
                <g id="cp_4_text-4_1czviqj480l58-stroke">
                    <g>
                        <path d="M238,154L238,10L10,10L10,154" style="fill:none;stroke:rgb(44,44,44);stroke-width:2px;"/>
                    </g>
                </g>
            </g>
            <g id="g-root-cp_4_stick-4_mdkz2z480l5a-stroke" transform="matrix(1,0,0,1,290,398)">
                <g id="cp_4_stick-4_mdkz2z480l5a-stroke">
                    <g>
                        <path d="M10.004,202L10.004,10" style="fill:none;stroke:rgb(44,44,44);stroke-width:2px;"/>
                    </g>
                </g>
            </g>
            <g id="g-root-cp_2_text-2_1qckza3480lqg-stroke" transform="matrix(1,0,0,1,302,398)">
                <g id="cp_2_text-2_1qckza3480lqg-stroke">
                    <g>
                        <path d="M10,154L10,10L238,10L238,154L22,154" style="fill:none;stroke:rgb(44,44,44);stroke-width:2px;"/>
                    </g>
                </g>
            </g>
            <g id="g-root-cp_2_stick-2_vagxi3480miq-stroke" transform="matrix(1,0,0,1,302,482)">
                <g id="cp_2_stick-2_vagxi3480miq-stroke">
                    <g>
                        <path d="M10.004,118L10.004,10M22,118L22,70" style="fill:none;stroke:rgb(44,44,44);stroke-width:2px;"/>
                    </g>
                </g>
            </g>
            <g id="g-root-cp_0_g-0_93zvyz480lqk-stroke" transform="matrix(1,0,0,1,242,590)">
                <g id="cp_0_g-0_93zvyz480lqk-stroke">
                    <g>
                        <path d="M33.994,61L46.01,86L58.005,61L33.994,61Z" style="fill:none;stroke:rgb(44,44,44);stroke-width:2px;"/>
                    </g>
                </g>
                <g id="cp_0_g-0_93zvyz480lqk-stroke1" serif:id="cp_0_g-0_93zvyz480lqk-stroke">
                    <g>
                        <path d="M82,10L10,10L34,61L58.001,61L82,10Z" style="fill:none;stroke:rgb(44,44,44);stroke-width:2px;"/>
                    </g>
                </g>
            </g>
            <g id="g-root-ic_1_1cxdme3486973-stroke" transform="matrix(1,0,0,1,218,242)">
                <g id="ic_1_1cxdme3486973-stroke">
                    <g>
                        <path d="M13.75,10.75L42.25,10.75C42.25,10.75 45.25,10.75 45.25,13.75L45.25,42.25C45.25,42.25 45.25,45.25 42.25,45.25L13.75,45.25C13.75,45.25 10.75,45.25 10.75,42.25L10.75,13.75C10.75,13.75 10.75,10.75 13.75,10.75M10.75,22L15.994,22M10.75,36.25L18.25,36.25M34,10.75L34,17.5M35.5,26.5L35.5,33.25M22,10.75L22,17.5M18.25,36.25C18.25,38.321 19.929,40 22,40C24.071,40 25.75,38.321 25.75,36.25C25.75,34.179 24.071,32.5 22,32.5C19.929,32.5 18.25,34.179 18.25,36.25M37,26.5L22,26.5L15.994,22L22,17.5L37,17.5L37,26.5ZM32.125,33.25L38.125,33.25L38.125,39.25L32.125,39.25L32.125,33.25ZM25.75,36.25L32.125,36.25M38.125,36.25L45.25,36.25M35.5,39.25L35.5,45.25M22,26.5L22,32.5M22,40L22,45.25M37,22L45.25,22" style="fill:none;stroke:rgb(44,44,44);stroke-width:2px;"/>
                    </g>
                </g>
            </g>
            <g id="g-root-ic_sync_14640wr47peki-stroke" transform="matrix(1,0,0,1,302,266)">
                <g id="ic_sync_14640wr47peki-stroke">
                    <g>
                        <path d="M33.282,38.423L27.841,38.423L27.841,44.092M44.404,39.532C43.3,43.083 39.917,45.424 36.205,45.207C32.488,44.887 29.455,42.1 28.822,38.423M39.809,33.89L45.25,33.89L45.25,28.223M28.687,32.779C29.793,29.23 33.175,26.891 36.886,27.109C40.601,27.43 43.633,30.214 44.269,33.889M10.75,16.879L40.504,16.879M10.75,29.877L25.111,29.877M10.75,23.388L40.496,23.388M22.903,16.879L22.903,36.603M31.617,16.879L31.617,25.042M23.977,36.598L13.888,36.598C12.159,36.598 10.758,35.196 10.758,33.467L10.758,13.9C10.76,12.173 12.161,10.774 13.888,10.774L37.366,10.774C39.093,10.774 40.494,12.173 40.496,13.9L40.496,25.15" style="fill:none;stroke:rgb(44,44,44);stroke-width:2px;"/>
                    </g>
                </g>
            </g>
            <g id="g-root-ic_1_hs576j4890cr-stroke" transform="matrix(1,0,0,1,206,386)">
                <g id="ic_1_hs576j4890cr-stroke">
                    <g>
                        <path d="M17.5,30.55C14.186,30.55 11.5,33.236 11.5,36.55L11.5,44.8L23.5,44.8L23.5,36.55C23.5,33.236 20.814,30.55 17.5,30.55ZM14.5,31.294L14.5,21.898M20.5,21.898L20.5,31.294M13,18.544C13,21.029 15.015,23.044 17.5,23.044C19.985,23.044 22,21.029 22,18.544C22,16.059 19.985,14.044 17.5,14.044C15.015,14.044 13,16.059 13,18.544M32.157,15.337C32.157,17.618 34.006,19.468 36.287,19.468C38.569,19.468 40.418,17.618 40.418,15.337C40.418,13.056 38.569,11.206 36.287,11.206C34.006,11.206 32.157,13.056 32.157,15.337M32.338,13.371L20.578,15.262M21.919,19.397L32.109,17.758M34.891,19.468L35.25,23.83M38.746,23.542L38.387,19.188M11.5,37.294L23.5,37.294M33.475,23.94L37.037,23.683L40.411,23.44M37.408,28.186L37.037,23.683M11.5,44.794L44.5,44.794M30.168,44.8L30.168,41.627C30.177,40.918 30.76,40.351 31.47,40.36L43.197,40.36C43.906,40.35 44.49,40.918 44.5,41.628L44.5,44.8M32.773,40.36L37.333,31.36L41.895,40.36L32.773,40.36ZM16.75,18.436C16.75,18.85 17.086,19.186 17.5,19.186C17.914,19.186 18.25,18.85 18.25,18.436C18.25,18.022 17.914,17.686 17.5,17.686C17.086,17.686 16.75,18.022 16.75,18.436M42.16,25.758L43.909,24.606M42.397,29.31L43.853,30.423M32.154,26.614L30.181,25.909M32.765,30.119L31.615,31.546" style="fill:none;stroke:rgb(44,44,44);stroke-width:2px;"/>
                    </g>
                </g>
            </g>
            <g id="g-root-ic_lock_1qa32xn48aept-stroke" transform="matrix(1,0,0,1,290,98)">
                <g id="ic_lock_1qa32xn48aept-stroke">
                    <g>
                        <path d="M31.75,33.251L45.25,33.251L45.25,45.25L31.75,45.25L31.75,33.251ZM36.625,39.344C36.625,40.38 37.464,41.219 38.5,41.219C39.536,41.219 40.375,40.38 40.375,39.344C40.375,38.309 39.536,37.469 38.5,37.469C37.464,37.469 36.625,38.309 36.625,39.344ZM42.25,31C42.25,28.929 40.571,27.25 38.5,27.25C36.429,27.25 34.75,28.929 34.75,31L34.75,33.25L42.25,33.25L42.25,31ZM21.25,45.25L10.75,45.25L10.75,24.25C10.75,23.422 11.422,22.75 12.25,22.75L19.75,22.75C20.578,22.75 21.25,23.422 21.25,24.25L21.25,45.25ZM19.75,22.75L19.75,17.237C19.751,16.94 19.927,16.671 20.2,16.552L32.2,11.218C32.432,11.117 32.698,11.139 32.91,11.277C33.122,11.415 33.249,11.651 33.25,11.903L33.25,26.5M18.25,45.25L18.25,41.5C18.25,41.086 17.914,40.75 17.5,40.75L14.5,40.75C14.086,40.75 13.75,41.086 13.75,41.5L13.75,45.25M10.75,27.25L16.75,27.25M28.75,18.25L33.25,18.25M25.75,21.25L33.25,21.25M10.75,30.25L13.75,30.25M22.75,15.416L22.75,10.75M21.25,45.25L28.75,45.25" style="fill:none;stroke:rgb(44,44,44);stroke-width:2px;"/>
                    </g>
                </g>
            </g>
            <g id="g-root-ic_grap_detlej481zpe-stroke" transform="matrix(1,0,0,1,230,62)">
                <g id="ic_grap_detlej481zpe-stroke">
                    <g>
                        <path d="M30.25,20.5C30.25,23.399 32.601,25.75 35.5,25.75C38.399,25.75 40.75,23.399 40.75,20.5C40.75,17.601 38.399,15.25 35.5,15.25C32.601,15.25 30.25,17.601 30.25,20.5M15.25,40.75L18.55,36.126C18.667,35.961 18.846,35.851 19.045,35.82C19.244,35.789 19.447,35.84 19.609,35.96L21.4,37.3C21.731,37.549 22.201,37.481 22.45,37.15L26.5,31.75M36.626,15.371L35.5,20.5L40.711,19.862M32.5,30.25L40,30.25C40,30.25 40.75,30.25 40.75,31L40.75,40C40.75,40 40.75,40.75 40,40.75L32.5,40.75C32.5,40.75 31.75,40.75 31.75,40L31.75,31C31.75,31 31.75,30.25 32.5,30.25M34.75,34.75L37.75,34.75M34.75,37.75L36.25,37.75M16,15.25L23.5,15.25C23.5,15.25 24.25,15.25 24.25,16L24.25,25C24.25,25 24.25,25.75 23.5,25.75L16,25.75C16,25.75 15.25,25.75 15.25,25L15.25,16C15.25,16 15.25,15.25 16,15.25M18.25,18.25L21.25,18.25M18.25,21.25L19.75,21.25M12.25,10.75L43.75,10.75C43.75,10.75 45.25,10.75 45.25,12.25L45.25,43.75C45.25,43.75 45.25,45.25 43.75,45.25L12.25,45.25C12.25,45.25 10.75,45.25 10.75,43.75L10.75,12.25C10.75,12.25 10.75,10.75 12.25,10.75" style="fill:none;stroke:rgb(44,44,44);stroke-width:2px;"/>
                    </g>
                </g>
            </g>
            <g id="g-root-ic_towe_1hdtorf47s6iu-stroke" transform="matrix(1,0,0,1,314,410)">
                <g id="ic_towe_1hdtorf47s6iu-stroke">
                    <g>
                        <path d="M10.75,45.25L45.25,45.25M24.25,45.25L10.75,45.25L10.75,22C10.75,21.586 11.086,21.25 11.5,21.25L23.5,21.25C23.914,21.25 24.25,21.586 24.25,22L24.25,45.25ZM42.25,31C42.25,30.586 41.914,30.25 41.5,30.25L37,30.25C36.586,30.25 36.25,30.586 36.25,31L36.25,45.25L42.25,45.25L42.25,31ZM33.25,31C33.25,30.586 32.914,30.25 32.5,30.25L28,30.25C27.586,30.25 27.25,30.586 27.25,31L27.25,45.25L33.25,45.25L33.25,31ZM19.75,19C19.75,18.586 19.414,18.25 19,18.25L16,18.25C15.586,18.25 15.25,18.586 15.25,19L15.25,21.25L19.75,21.25L19.75,19ZM16.75,18.25L16.75,12.25M13.75,25.75L21.25,25.75M13.75,30.25L21.25,30.25M13.75,34.75L21.25,34.75M13.75,39.25L21.25,39.25M28.75,20.5C28.75,18.429 27.071,16.75 25,16.75M31.75,20.5C31.75,16.772 28.728,13.75 25,13.75M34.75,20.5C34.75,15.115 30.385,10.75 25,10.75" style="fill:none;stroke:rgb(44,44,44);stroke-width:2px;"/>
                    </g>
                </g>
            </g>
        </g>
    </g>
</svg>
