<?xml version="1.0" encoding="UTF-8" standalone="no"?>
<!DOCTYPE svg PUBLIC "-//W3C//DTD SVG 1.1//EN" "http://www.w3.org/Graphics/SVG/1.1/DTD/svg11.dtd">
<svg width="100%" height="100%" viewBox="0 0 702 882" version="1.1" xmlns="http://www.w3.org/2000/svg" xmlns:xlink="http://www.w3.org/1999/xlink" xml:space="preserve" xmlns:serif="http://www.serif.com/" style="fill-rule:evenodd;clip-rule:evenodd;stroke-linecap:round;stroke-linejoin:round;">
    <g id="items" transform="matrix(1.07816,0,0,1.07816,-27.4353,-34.9321)">
        <g id="blend">
            <g id="g-root-cp_5_shape-5_hunz7f16c269-fill" transform="matrix(1,0,0,1,314.303,56)">
                <g id="cp_5_shape-5_hunz7f16c269-fill">
                    <g>
                        <path d="M27.697,292L15.697,292L15.697,160L27.697,160L27.697,292ZM32.297,28.191L27.697,28.191L27.697,160L15.697,160L15.697,28.191L11.017,28.191C10.237,28.191 9.747,27.341 10.137,26.661L20.86,10.448C21.256,9.849 22.136,9.851 22.53,10.451L33.177,26.661C33.577,27.341 33.087,28.191 32.297,28.191Z" style="fill:rgb(247,148,56);"/>
                    </g>
                </g>
            </g>
            <g id="g-root-cp_1_shape-1_4j7gu316c3r7-fill" transform="matrix(1,0,0,1,32,55.8164)">
                <g id="cp_1_shape-1_4j7gu316c3r7-fill">
                    <g>
                        <path d="M214,328.184L46,328.183C26.118,328.183 10,312.081 10,292.199L10,292.184L250,292.184C250,312.066 233.882,328.184 214,328.184ZM254.6,28.375L250,28.375L250,160.184L10,160.184C10,140.302 26.118,124.505 46,124.505L172,124.505C213.07,124.505 238,94.374 238,55.034L238,28.374L233.32,28.374C232.54,28.374 232.05,27.524 232.44,26.844L243.163,10.632C243.559,10.033 244.439,10.034 244.833,10.635L255.48,26.844C255.88,27.525 255.39,28.375 254.6,28.375ZM250,160.184L250,292.184L10,292.184L10,160.184L250,160.184Z" style="fill:rgb(251,103,98);"/>
                    </g>
                </g>
            </g>
            <g id="g-root-cp_3_shape-3_1q8v0fv16c551-fill" transform="matrix(1,0,0,1,284.303,56)">
                <g id="cp_3_shape-3_1q8v0fv16c551-fill">
                    <g>
                        <path d="M27.697,292L15.697,292L15.697,160L27.697,160L27.697,292ZM32.297,28.191L27.697,28.191L27.697,160L15.697,160L15.697,28.191L11.017,28.191C10.237,28.191 9.747,27.341 10.137,26.661L20.86,10.448C21.256,9.849 22.136,9.851 22.53,10.451L33.177,26.661C33.577,27.341 33.087,28.191 32.297,28.191Z" style="fill:rgb(166,218,55);"/>
                    </g>
                </g>
            </g>
            <g id="g-root-cp_3_shape-3_1_1cy0z5n16c3k7-fill" transform="matrix(1,0,0,1,32,338)">
                <g id="cp_3_shape-3_1_1cy0z5n16c3k7-fill">
                    <g>
                        <path d="M214,64.321C244,64.321 268,46 268,10L280,10L280,100.306L10,100.306C10,80.423 26.118,64.321 46,64.321L214,64.321Z" style="fill:rgb(166,218,55);"/>
                    </g>
                </g>
            </g>
            <g id="g-root-cp_5_shape-5_1_zmkgsb16c555-fill" transform="matrix(1,0,0,1,320,338)">
                <g id="cp_5_shape-5_1_zmkgsb16c555-fill">
                    <g>
                        <rect x="10" y="10" width="12" height="198" style="fill:rgb(247,148,56);"/>
                    </g>
                </g>
            </g>
            <g id="g-root-cp_3_shape-3_2_mbqfi316c3kb-fill" transform="matrix(1,0,0,1,32,428)">
                <g id="cp_3_shape-3_2_mbqfi316c3kb-fill">
                    <g>
                        <path d="M280,10L280,117.982L10,117.982L10,10L280,10ZM244,154.008L46,154.008C26.118,154.008 10,137.906 10,118.023L10,118.008L280,118.008C280,137.89 263.882,154.008 244,154.008Z" style="fill:rgb(166,218,55);"/>
                    </g>
                </g>
            </g>
            <g id="g-root-cp_5_shape-5_2_hvwxdn16c4cl-fill" transform="matrix(1,0,0,1,32,536)">
                <g id="cp_5_shape-5_2_hvwxdn16c4cl-fill">
                    <g>
                        <path d="M244,64.137C274,64.137 298,45.878 298,10L310,10L310,100L10,100C10,80.185 26.118,64.137 46,64.137L244,64.137Z" style="fill:rgb(247,148,56);"/>
                    </g>
                </g>
            </g>
            <g id="g-root-cp_5_shape-5_3_1uqjxtn16c3db-fill" transform="matrix(1,0,0,1,32,626)">
                <g id="cp_5_shape-5_3_1uqjxtn16c3db-fill">
                    <g>
                        <path d="M310,10L310,142L10,142L10,10L310,10ZM274,178.008L46,178.008C26.118,178.008 10,161.882 10,142L310,142C310,161.882 293.882,178.008 274,178.008Z" style="fill:rgb(247,148,56);"/>
                    </g>
                </g>
            </g>
            <g id="g-root-cp_2_shape-2_1czweez16c2kp-fill" transform="matrix(1,0,0,1,404.378,55.8164)">
                <g id="cp_2_shape-2_1czweez16c2kp-fill">
                    <g>
                        <path d="M51.622,328.184L219.622,328.184C239.504,328.184 255.622,312.081 255.622,292.199L255.622,292.184L15.622,292.184C15.622,312.066 31.74,328.184 51.622,328.184ZM11.022,28.375L15.622,28.375L15.622,160.184L255.622,160.184C255.622,140.302 239.505,124.505 219.623,124.505L93.622,124.505C52.552,124.505 27.622,94.374 27.622,55.034L27.622,28.374L32.302,28.374C33.082,28.374 33.572,27.524 33.182,26.844L22.459,10.632C22.063,10.033 21.184,10.034 20.79,10.635L10.142,26.844C9.742,27.525 10.232,28.375 11.022,28.375ZM15.622,160.184L15.622,292.184L255.622,292.184L255.622,160.184L15.622,160.184Z" style="fill:rgb(67,221,147);"/>
                    </g>
                </g>
            </g>
            <g id="g-root-cp_4_shape-4_zofw1n16c45n-fill" transform="matrix(1,0,0,1,374.383,56)">
                <g id="cp_4_shape-4_zofw1n16c45n-fill">
                    <g>
                        <path d="M15.623,292L27.623,292L27.623,160L15.623,160L15.623,292ZM11.022,28.191L15.622,28.191L15.622,160L27.622,160L27.622,28.191L32.302,28.191C33.082,28.191 33.572,27.341 33.182,26.661L22.459,10.448C22.063,9.849 21.184,9.851 20.79,10.451L10.142,26.661C9.742,27.341 10.232,28.191 11.022,28.191Z" style="fill:rgb(26,195,251);"/>
                    </g>
                </g>
            </g>
            <g id="g-root-cp_6_shape-6_mdlurf16c2kt-fill" transform="matrix(1,0,0,1,344.383,56)">
                <g id="cp_6_shape-6_mdlurf16c2kt-fill">
                    <g>
                        <path d="M15.623,292L27.623,292L27.623,160L15.623,160L15.623,292ZM11.022,28.191L15.622,28.191L15.622,160L27.622,160L27.622,28.191L32.302,28.191C33.082,28.191 33.572,27.341 33.182,26.661L22.459,10.448C22.063,9.849 21.184,9.851 20.79,10.451L10.142,26.661C9.742,27.341 10.232,28.191 11.022,28.191Z" style="fill:rgb(203,104,249);"/>
                    </g>
                </g>
            </g>
            <g id="g-root-cp_4_shape-4_1_hxscmz16c3d3-fill" transform="matrix(1,0,0,1,380,338)">
                <g id="cp_4_shape-4_1_hxscmz16c3d3-fill">
                    <g>
                        <path d="M76,64.321C46,64.321 22,46 22,10L10,10L10,100.306L280,100.306C280,80.423 263.882,64.321 244,64.321L76,64.321Z" style="fill:rgb(26,195,251);"/>
                    </g>
                </g>
            </g>
            <g id="g-root-cp_4_shape-4_2_4mbu9n16c4y1-fill" transform="matrix(1,0,0,1,380,428)">
                <g id="cp_4_shape-4_2_4mbu9n16c4y1-fill">
                    <g>
                        <path d="M10,10L10,142L280,142L280,10L10,10ZM46,178L244,178C263.882,178 280,161.898 280,142.016L280,142L10,142C10,161.882 26.118,178 46,178Z" style="fill:rgb(26,195,251);"/>
                    </g>
                </g>
            </g>
            <g id="g-root-cp_6_shape-6_1_74t8b16c2kj-fill" transform="matrix(1,0,0,1,350,338)">
                <g id="cp_6_shape-6_1_74t8b16c2kj-fill">
                    <g>
                        <rect x="10" y="10" width="12" height="222" style="fill:rgb(203,104,249);"/>
                    </g>
                </g>
            </g>
            <g id="g-root-cp_6_shape-6_2_1qcluyj16c365-fill" transform="matrix(1,0,0,1,350,560)">
                <g id="cp_6_shape-6_2_1qcluyj16c365-fill">
                    <g>
                        <path d="M76,64.321C46,64.321 22,46 22,10L10,10L10,100.306L310,100.306C310,80.423 293.882,64.321 274,64.321L76,64.321Z" style="fill:rgb(203,104,249);"/>
                    </g>
                </g>
            </g>
            <g id="g-root-cp_6_shape-6_3_1d15cl716c4r3-fill" transform="matrix(1,0,0,1,350,650)">
                <g id="cp_6_shape-6_3_1d15cl716c4r3-fill">
                    <g>
                        <path d="M10,10L10,142L310,142L310,10L10,10ZM46,178L274,178C293.882,178 310,161.898 310,142.016L310,142L10,142C10,161.882 26.118,178 46,178Z" style="fill:rgb(203,104,249);"/>
                    </g>
                </g>
            </g>
            <g id="g-root-tx_optimize_hrjoxn15wow4-fill" transform="matrix(1,0,0,1,440,290)">
                <g id="tx_optimize_hrjoxn15wow4-fill">
                    <g>
                        <g>
                            <g transform="matrix(1,0,0,1,27.62,31.2)">
                                <text x="0px" y="0px" style="font-family:'ArialMT', 'Arial', sans-serif;font-size:15px;fill:rgb(44,44,44);">Optimized healthcare</text>
                            </g>
                            <g transform="matrix(1,0,0,1,13.55,49.2)">
                                <text x="0px" y="0px" style="font-family:'ArialMT', 'Arial', sans-serif;font-size:15px;fill:rgb(44,44,44);">communication for better</text>
                            </g>
                            <g transform="matrix(1,0,0,1,57.02,67.2)">
                                <text x="0px" y="0px" style="font-family:'ArialMT', 'Arial', sans-serif;font-size:15px;fill:rgb(44,44,44);">patient care.</text>
                            </g>
                        </g>
                    </g>
                </g>
            </g>
            <g id="g-root-tx_streamli_18n79q316c4jn-fill" transform="matrix(1,0,0,1,62,290)">
                <g id="tx_streamli_18n79q316c4jn-fill">
                    <g>
                        <g>
                            <g transform="matrix(1,0,0,1,21.75,31.2)">
                                <text x="0px" y="0px" style="font-family:'ArialMT', 'Arial', sans-serif;font-size:15px;fill:rgb(44,44,44);">Streamlined call center</text>
                            </g>
                            <g transform="matrix(1,0,0,1,17.65,49.2)">
                                <text x="0px" y="0px" style="font-family:'ArialMT', 'Arial', sans-serif;font-size:15px;fill:rgb(44,44,44);">operations with <tspan x="104.231px 114.236px " y="0px 0px ">As</tspan>terisk</text>
                            </g>
                            <g transform="matrix(1,0,0,1,65.5,67.2)">
                                <text x="0px" y="0px" style="font-family:'ArialMT', 'Arial', sans-serif;font-size:15px;fill:rgb(44,44,44);">solutions.</text>
                            </g>
                        </g>
                    </g>
                </g>
            </g>
            <g transform="matrix(1,0,0,1,491.03,288)">
                <g id="g-root-tx_healthca_1qf3ugr15v7yj-fill">
                    <g id="tx_healthca_1qf3ugr15v7yj-fill">
                        <g>
                            <g>
                                <text x="0px" y="0px" style="font-family:'Arial-BoldMT', 'Arial', sans-serif;font-weight:700;font-size:20px;fill:rgb(44,44,44);">Healthcare</text>
                            </g>
                        </g>
                    </g>
                </g>
            </g>
            <g transform="matrix(1,0,0,1,93.48,510)">
                <g id="g-root-tx_financeb_1hgyupn16di4l-fill">
                    <g id="tx_financeb_1hgyupn16di4l-fill">
                        <g>
                            <g>
                                <text x="0px" y="0px" style="font-family:'Arial-BoldMT', 'Arial', sans-serif;font-weight:700;font-size:20px;fill:rgb(44,44,44);">Finance &amp; Banking</text>
                            </g>
                        </g>
                    </g>
                </g>
            </g>
            <g transform="matrix(1,0,0,1,466.36,510)">
                <g id="g-root-tx_ecommerc_1q9hkor15y2ha-fill">
                    <g id="tx_ecommerc_1q9hkor15y2ha-fill">
                        <g>
                            <g>
                                <text x="0px" y="0px" style="font-family:'Arial-BoldMT', 'Arial', sans-serif;font-weight:700;font-size:20px;fill:rgb(44,44,44);">E-Commerce</text>
                            </g>
                        </g>
                    </g>
                </g>
            </g>
            <g id="g-root-tx_securean_dj7sor16djpi-fill" transform="matrix(1,0,0,1,65,512)">
                <g id="tx_securean_dj7sor16djpi-fill">
                    <g>
                        <g>
                            <g transform="matrix(1,0,0,1,14.3,28.2)">
                                <g transform="matrix(15,0,0,15,89.231,0)">
                                </g>
                                <g transform="matrix(15,0,0,15,93.265,0)">
                                </g>
                                <g transform="matrix(15,0,0,15,97.2991,0)">
                                </g>
                                <g transform="matrix(15,0,0,15,136.377,0)">
                                </g>
                                <g transform="matrix(15,0,0,15,140.544,0)">
                                </g>
                                <text x="0px" y="0px" style="font-family:'ArialMT', 'Arial', sans-serif;font-size:15px;fill:rgb(44,44,44);">Secure and eﬃcient ﬁnancial</text>
                            </g>
                            <g transform="matrix(1,0,0,1,25.98,46.2)">
                                <text x="0px" y="0px" style="font-family:'ArialMT', 'Arial', sans-serif;font-size:15px;fill:rgb(44,44,44);">communication systems.</text>
                            </g>
                        </g>
                    </g>
                </g>
            </g>
            <g id="g-root-tx_enhanced_hwjhmj15y1on-fill" transform="matrix(1,0,0,1,413,512)">
                <g id="tx_enhanced_hwjhmj15y1on-fill">
                    <g>
                        <g>
                            <g transform="matrix(1,0,0,1,33.63,31.2)">
                                <text x="0px" y="0px" style="font-family:'ArialMT', 'Arial', sans-serif;font-size:15px;fill:rgb(44,44,44);">Enhanced e-commerce</text>
                            </g>
                            <g transform="matrix(1,0,0,1,13.17,49.2)">
                                <text x="0px" y="0px" style="font-family:'ArialMT', 'Arial', sans-serif;font-size:15px;fill:rgb(44,44,44);">communication for customer</text>
                            </g>
                            <g transform="matrix(1,0,0,1,68.75,67.2)">
                                <text x="0px" y="0px" style="font-family:'ArialMT', 'Arial', sans-serif;font-size:15px;fill:rgb(44,44,44);">satisfaction.</text>
                            </g>
                        </g>
                    </g>
                </g>
            </g>
            <g transform="matrix(1,0,0,1,107.2,288)">
                <g id="g-root-tx_callcent_8drej16c4qq-fill">
                    <g id="tx_callcent_8drej16c4qq-fill">
                        <g>
                            <g>
                                <text x="0px" y="0px" style="font-family:'Arial-BoldMT', 'Arial', sans-serif;font-weight:700;font-size:20px;fill:rgb(44,44,44);">Call Centers</text>
                            </g>
                        </g>
                    </g>
                </g>
            </g>
            <g transform="matrix(1,0,0,1,143.44,708)">
                <g id="g-root-tx_hospital_m9v3ej15tt6o-fill">
                    <g id="tx_hospital_m9v3ej15tt6o-fill">
                        <g>
                            <g>
                                <text x="0px" y="0px" style="font-family:'Arial-BoldMT', 'Arial', sans-serif;font-weight:700;font-size:20px;fill:rgb(44,44,44);">Hospitality</text>
                            </g>
                        </g>
                    </g>
                </g>
            </g>
            <g id="g-root-tx_improved_4kgi6315tts9-fill" transform="matrix(1,0,0,1,92,710)">
                <g id="tx_improved_4kgi6315tts9-fill">
                    <g>
                        <g>
                            <g transform="matrix(1,0,0,1,30.47,31.2)">
                                <text x="0px" y="0px" style="font-family:'ArialMT', 'Arial', sans-serif;font-size:15px;fill:rgb(44,44,44);">Improved hospitality</text>
                            </g>
                            <g transform="matrix(1,0,0,1,14.21,49.2)">
                                <text x="0px" y="0px" style="font-family:'ArialMT', 'Arial', sans-serif;font-size:15px;fill:rgb(44,44,44);">communication for guest</text>
                            </g>
                            <g transform="matrix(1,0,0,1,56.03,67.2)">
                                <text x="0px" y="0px" style="font-family:'ArialMT', 'Arial', sans-serif;font-size:15px;fill:rgb(44,44,44);">experiences.</text>
                            </g>
                        </g>
                    </g>
                </g>
            </g>
            <g id="g-root-tx_streamli_142e22j160wea-fill" transform="matrix(1,0,0,1,398,734)">
                <g id="tx_streamli_142e22j160wea-fill">
                    <g>
                        <g>
                            <g transform="matrix(1,0,0,1,34.76,31.2)">
                                <text x="0px" y="0px" style="font-family:'ArialMT', 'Arial', sans-serif;font-size:15px;fill:rgb(44,44,44);">Streamlined enterprise</text>
                            </g>
                            <g transform="matrix(1,0,0,1,14.94,49.2)">
                                <text x="0px" y="0px" style="font-family:'ArialMT', 'Arial', sans-serif;font-size:15px;fill:rgb(44,44,44);">communication for business</text>
                            </g>
                            <g transform="matrix(1,0,0,1,84.99,67.2)">
                                <text x="0px" y="0px" style="font-family:'ArialMT', 'Arial', sans-serif;font-size:15px;fill:rgb(44,44,44);">growth.</text>
                            </g>
                        </g>
                    </g>
                </g>
            </g>
            <g transform="matrix(1,0,0,1,458.72,732)">
                <g id="g-root-tx_enterpri_1cuwovv160ufd-fill">
                    <g id="tx_enterpri_1cuwovv160ufd-fill">
                        <g>
                            <g>
                                <text x="0px" y="0px" style="font-family:'Arial-BoldMT', 'Arial', sans-serif;font-weight:700;font-size:20px;fill:rgb(44,44,44);">Enterprises</text>
                            </g>
                        </g>
                    </g>
                </g>
            </g>
            <g id="g-root-cp_5_shape-5_hunz7f16c269-stroke" transform="matrix(1,0,0,1,314.303,56)">
                <g id="cp_5_shape-5_hunz7f16c269-stroke">
                    <g>
                        <path d="M15.697,160L15.697,292M27.697,292L27.697,160M15.697,160L15.697,28.191L11.017,28.191C10.237,28.191 9.747,27.341 10.137,26.661L20.86,10.448C21.256,9.849 22.136,9.851 22.53,10.451L33.177,26.661C33.577,27.341 33.087,28.191 32.297,28.191L27.697,28.191L27.697,160" style="fill:none;stroke:rgb(44,44,44);stroke-width:2px;"/>
                    </g>
                </g>
            </g>
            <g id="g-root-cp_1_shape-1_4j7gu316c3r7-stroke" transform="matrix(1,0,0,1,32,55.8164)">
                <g id="cp_1_shape-1_4j7gu316c3r7-stroke">
                    <g>
                        <path d="M10,160.184C10,140.301 26.118,124.321 46,124.321L172,124.321C213.07,124.321 238,94.191 238,54.851L238,28.191L233.32,28.191C232.54,28.191 232.05,27.341 232.44,26.661L243.163,10.448C243.559,9.849 244.439,9.851 244.833,10.451L255.48,26.661C255.88,27.341 255.39,28.191 254.6,28.191L250,28.191L250,160.184M250,292.184C250,312.066 233.882,328.191 214,328.191L46,328.191C26.118,328.191 10,312.081 10,292.199L10,292.184M250,292.184L250,160.184M10,160.184L10,292.184" style="fill:none;stroke:rgb(44,44,44);stroke-width:2px;"/>
                    </g>
                </g>
            </g>
            <g id="g-root-cp_3_shape-3_1q8v0fv16c551-stroke" transform="matrix(1,0,0,1,284.303,56)">
                <g id="cp_3_shape-3_1q8v0fv16c551-stroke">
                    <g>
                        <path d="M15.697,160L15.697,292M27.697,292L27.697,160M15.697,160L15.697,28.191L11.017,28.191C10.237,28.191 9.747,27.341 10.137,26.661L20.86,10.448C21.256,9.849 22.136,9.851 22.53,10.451L33.177,26.661C33.577,27.341 33.087,28.191 32.297,28.191L27.697,28.191L27.697,160" style="fill:none;stroke:rgb(44,44,44);stroke-width:2px;"/>
                    </g>
                </g>
            </g>
            <g id="g-root-cp_3_shape-3_1_1cy0z5n16c3k7-stroke" transform="matrix(1,0,0,1,32,338)">
                <g id="cp_3_shape-3_1_1cy0z5n16c3k7-stroke">
                    <g>
                        <path d="M268,10C268,46 244,64.321 214,64.321L46,64.321C26.118,64.321 10,80.423 10,100.306M280,100.306L280,10" style="fill:none;stroke:rgb(44,44,44);stroke-width:2px;"/>
                    </g>
                </g>
            </g>
            <g id="g-root-cp_5_shape-5_1_zmkgsb16c555-stroke" transform="matrix(1,0,0,1,320,338)">
                <g id="cp_5_shape-5_1_zmkgsb16c555-stroke">
                    <g>
                        <path d="M10,10L10,208M22,208L22,10" style="fill:none;stroke:rgb(44,44,44);stroke-width:2px;"/>
                    </g>
                </g>
            </g>
            <g id="g-root-cp_3_shape-3_2_mbqfi316c3kb-stroke" transform="matrix(1,0,0,1,32,428)">
                <g id="cp_3_shape-3_2_mbqfi316c3kb-stroke">
                    <g>
                        <path d="M280,117.982L280,10M10,10L10,118M280,118.008C280,137.89 263.882,154.008 244,154.008L46,154.008C26.118,154.008 10,137.906 10,118.023L10,118.008" style="fill:none;stroke:rgb(44,44,44);stroke-width:2px;"/>
                    </g>
                </g>
            </g>
            <g id="g-root-cp_5_shape-5_2_hvwxdn16c4cl-stroke" transform="matrix(1,0,0,1,32,536)">
                <g id="cp_5_shape-5_2_hvwxdn16c4cl-stroke">
                    <g>
                        <path d="M298,10C298,45.878 274,64.137 244,64.137L46,64.137C26.118,64.137 10,80.185 10,100M310,100L310,10" style="fill:none;stroke:rgb(44,44,44);stroke-width:2px;"/>
                    </g>
                </g>
            </g>
            <g id="g-root-cp_5_shape-5_3_1uqjxtn16c3db-stroke" transform="matrix(1,0,0,1,32,626)">
                <g id="cp_5_shape-5_3_1uqjxtn16c3db-stroke">
                    <g>
                        <path d="M310,142L310,10M10,10L10,142M310,142C310,161.882 293.882,178.008 274,178.008L46,178.008C26.118,178.008 10,161.882 10,142" style="fill:none;stroke:rgb(44,44,44);stroke-width:2px;"/>
                    </g>
                </g>
            </g>
            <g id="g-root-cp_2_shape-2_1czweez16c2kp-stroke" transform="matrix(1,0,0,1,404.378,55.8164)">
                <g id="cp_2_shape-2_1czweez16c2kp-stroke">
                    <g>
                        <path d="M255.622,160.184C255.622,140.301 239.505,124.321 219.623,124.321L93.622,124.321C52.552,124.321 27.622,94.191 27.622,54.851L27.622,28.191L32.302,28.191C33.082,28.191 33.572,27.341 33.182,26.661L22.459,10.448C22.063,9.849 21.184,9.851 20.79,10.451L10.142,26.661C9.742,27.341 10.232,28.191 11.022,28.191L15.622,28.191L15.622,160.184M15.622,292.184C15.622,312.066 31.74,328.184 51.622,328.184L219.623,328.183C239.505,328.183 255.622,312.081 255.622,292.199L255.622,292.184M15.622,292.184L15.622,160.184M255.622,160.184L255.622,292.184" style="fill:none;stroke:rgb(44,44,44);stroke-width:2px;"/>
                    </g>
                </g>
            </g>
            <g id="g-root-cp_4_shape-4_zofw1n16c45n-stroke" transform="matrix(1,0,0,1,374.383,56)">
                <g id="cp_4_shape-4_zofw1n16c45n-stroke">
                    <g>
                        <path d="M27.622,160L27.622,292M15.622,292L15.622,160M27.622,160L27.622,28.191L32.302,28.191C33.082,28.191 33.572,27.341 33.182,26.661L22.459,10.448C22.063,9.849 21.184,9.851 20.79,10.451L10.142,26.661C9.742,27.341 10.232,28.191 11.022,28.191L15.622,28.191L15.622,160" style="fill:none;stroke:rgb(44,44,44);stroke-width:2px;"/>
                    </g>
                </g>
            </g>
            <g id="g-root-cp_6_shape-6_mdlurf16c2kt-stroke" transform="matrix(1,0,0,1,344.383,56)">
                <g id="cp_6_shape-6_mdlurf16c2kt-stroke">
                    <g>
                        <path d="M27.622,160L27.622,292M15.622,292L15.622,160M27.622,160L27.622,28.191L32.302,28.191C33.082,28.191 33.572,27.341 33.182,26.661L22.459,10.448C22.063,9.849 21.184,9.851 20.79,10.451L10.142,26.661C9.742,27.341 10.232,28.191 11.022,28.191L15.622,28.191L15.622,160" style="fill:none;stroke:rgb(44,44,44);stroke-width:2px;"/>
                    </g>
                </g>
            </g>
            <g id="g-root-cp_4_shape-4_1_hxscmz16c3d3-stroke" transform="matrix(1,0,0,1,380,338)">
                <g id="cp_4_shape-4_1_hxscmz16c3d3-stroke">
                    <g>
                        <path d="M22,10C22,46 46,64.321 76,64.321L244,64.321C263.882,64.321 280,80.423 280,100.306M10,100.306L10,10" style="fill:none;stroke:rgb(44,44,44);stroke-width:2px;"/>
                    </g>
                </g>
            </g>
            <g id="g-root-cp_4_shape-4_2_4mbu9n16c4y1-stroke" transform="matrix(1,0,0,1,380,428)">
                <g id="cp_4_shape-4_2_4mbu9n16c4y1-stroke">
                    <g>
                        <path d="M10,142L10,10M280,10L280,142M10,142C10,161.882 26.118,178.008 46,178.008L244,178.008C263.882,178.008 280,161.898 280,142.016L280,142" style="fill:none;stroke:rgb(44,44,44);stroke-width:2px;"/>
                    </g>
                </g>
            </g>
            <g id="g-root-cp_6_shape-6_1_74t8b16c2kj-stroke" transform="matrix(1,0,0,1,350,338)">
                <g id="cp_6_shape-6_1_74t8b16c2kj-stroke">
                    <g>
                        <path d="M22,10L22,232M10,232L10,10" style="fill:none;stroke:rgb(44,44,44);stroke-width:2px;"/>
                    </g>
                </g>
            </g>
            <g id="g-root-cp_6_shape-6_2_1qcluyj16c365-stroke" transform="matrix(1,0,0,1,350,560)">
                <g id="cp_6_shape-6_2_1qcluyj16c365-stroke">
                    <g>
                        <path d="M22,10C22,46 46,64.321 76,64.321L274,64.321C293.882,64.321 310,80.423 310,100.306M10,100.306L10,10" style="fill:none;stroke:rgb(44,44,44);stroke-width:2px;"/>
                    </g>
                </g>
            </g>
            <g id="g-root-cp_6_shape-6_3_1d15cl716c4r3-stroke" transform="matrix(1,0,0,1,350,650)">
                <g id="cp_6_shape-6_3_1d15cl716c4r3-stroke">
                    <g>
                        <path d="M10,142L10,10M310,10L310,142M10,142C10,161.882 26.118,178.008 46,178.008L274,178.008C293.882,178.008 310,161.898 310,142.016L310,142" style="fill:none;stroke:rgb(44,44,44);stroke-width:2px;"/>
                    </g>
                </g>
            </g>
            <g id="g-root-ic_cash_1d30ruj16dh5b-stroke" transform="matrix(1,0,0,1,143,416)">
                <g id="ic_cash_1d30ruj16dh5b-stroke">
                    <g>
                        <path d="M26.008,56.906L57.008,56.906M31.008,52.906L31.008,42.906M37.008,52.906L37.008,42.906M47.008,52.906L47.008,42.906M53.008,52.906L53.008,42.906M29.008,42.906L39.008,42.906M45.008,42.906L55.008,42.906M11.008,18.906L31.008,18.906L31.008,32.906L11.008,32.906L11.008,18.906ZM14.4,18.906L15.916,11.882C16.034,11.342 16.566,11 17.106,11.118L34.578,14.918C35.117,15.036 35.458,15.567 35.342,16.106L33.13,26.288C33.012,26.827 32.481,27.168 31.942,27.052L31.008,26.852M18.008,25.906C18.008,27.563 19.351,28.906 21.008,28.906C22.665,28.906 24.008,27.563 24.008,25.906C24.008,24.249 22.665,22.906 21.008,22.906C19.351,22.906 18.008,24.249 18.008,25.906ZM36,29.906L41.446,26.276C41.782,26.053 42.218,26.053 42.554,26.276L56.554,35.608C56.832,35.793 57,36.106 57,36.44L57,37.906C57,38.458 56.552,38.906 56,38.906L28,38.906C27.448,38.906 27,38.458 27,37.906" style="fill:none;stroke:rgb(44,44,44);stroke-width:2px;"/>
                    </g>
                </g>
            </g>
            <g id="g-root-ic_stor_1qbczy315y1hk-stroke" transform="matrix(1,0,0,1,491,416)">
                <g id="ic_stor_1qbczy315y1hk-stroke">
                    <g>
                        <path d="M11,14L57,14L57,50C57,52.209 55.209,54 53,54L15,54C12.791,54 11,52.209 11,50L11,14ZM34,33C24.059,33 16,41.059 16,51C15.999,52.005 16.079,53.008 16.24,54L51.76,54C51.921,53.008 52.001,52.005 52,51C52,41.059 43.941,33 34,33ZM34,43C29.582,43 26,46.582 26,51C25.995,52.028 26.192,53.048 26.58,54L41.42,54C41.808,53.048 42.005,52.028 42,51C42,46.582 38.418,43 34,43ZM34,43L50.12,43M26.5,54L19,41.04M42,21.5C42,22.881 40.881,24 39.5,24L28.5,24C27.119,24 26,22.881 26,21.5C26,20.119 27.119,19 28.5,19L39.5,19C40.881,19 42,20.119 42,21.5Z" style="fill:none;stroke:rgb(44,44,44);stroke-width:2px;"/>
                    </g>
                </g>
            </g>
            <g id="g-root-ic_buil_13zw5q315wnwt-stroke" transform="matrix(1,0,0,1,506,194)">
                <g id="ic_buil_13zw5q315wnwt-stroke">
                    <g>
                        <path d="M17,19C17,23.418 20.582,27 25,27C29.418,27 33,23.418 33,19C33,14.582 29.418,11 25,11C20.582,11 17,14.582 17,19ZM17,37L33,37M17,31L33,31M17,43L25,43M17,49L25,49M25,15L25,23M29,19L21,19M29,56C29,56.552 29.448,57 30,57L56,57C56.552,57 57,56.552 57,56L57,43C57,41.895 56.105,41 55,41L31,41C29.895,41 29,41.895 29,43L29,56ZM13,22C11.895,22 11,22.895 11,24L11,56C11,56.552 11.448,57 12,57L25,57M39,37L39,24C39,22.895 38.105,22 37,22M41,53L45,53L45,57L41,57L41,53ZM33,49L35,49M35,45L33,45M39,49L41,49M41,45L39,45M45,49L47,49M47,45L45,45M51,49L53,49M53,45L51,45" style="fill:none;stroke:rgb(44,44,44);stroke-width:2px;"/>
                    </g>
                </g>
            </g>
            <g id="g-root-ic_head_8vwliz16dgr0-stroke" transform="matrix(1,0,0,1,128,194)">
                <g id="ic_head_8vwliz16dgr0-stroke">
                    <g>
                        <path d="M51.906,35.044C51.031,39.444 48.293,43.25 44.4,45.48L44.4,57M24.4,57L24.4,50.046C20.4,50.068 18.364,49.78 16.962,48.376C15.162,46.576 15.336,39 15.336,39C15.336,39 13.63,39.064 12.336,39.012C11.884,38.99 11.467,38.765 11.2,38.4C11.018,38.007 10.949,37.57 11,37.14C10.756,33.926 15.278,28.414 15.278,26.812C15.278,16.75 24.78,11 33.4,11C42.789,10.897 50.807,17.752 52.166,27.042M30.082,31.042C30.082,34.615 32.979,37.512 36.552,37.512C40.125,37.512 43.022,34.615 43.022,31.042C43.022,27.469 40.125,24.572 36.552,24.572C32.979,24.572 30.082,27.469 30.082,31.042M33.822,36.908L31.702,40.2C30.966,41.344 29.699,42.036 28.338,42.036L26.522,42.036M41.634,27.042L55.022,27.042C56.127,27.042 57.022,27.937 57.022,29.042L57.022,33.042C57.022,34.147 56.127,35.042 55.022,35.042L41.634,35.042M22.022,42.042C22.022,43.285 23.029,44.292 24.272,44.292C25.515,44.292 26.522,43.285 26.522,42.042C26.522,40.799 25.515,39.792 24.272,39.792C23.029,39.792 22.022,40.799 22.022,42.042M43.022,31.042L52.172,31.042" style="fill:none;stroke:rgb(44,44,44);stroke-width:2px;"/>
                    </g>
                </g>
            </g>
            <g id="g-root-ic_pers_mczgu315ttl6-stroke" transform="matrix(1,0,0,1,158,614)">
                <g id="ic_pers_mczgu315ttl6-stroke">
                    <g>
                        <path d="M12.5,26.5C12.5,29.538 14.962,32 18,32C21.038,32 23.5,29.538 23.5,26.5C23.5,23.462 21.038,21 18,21C14.962,21 12.5,23.462 12.5,26.5M25,41C25,37.134 21.866,34 18,34C14.134,34 11,37.134 11,41L11,47L14.166,47L15,57L21,57L21.834,47L25,47L25,41ZM45.514,47L29,47M30,11L42,11C42,11 43,11 43,12L43,28C43,28 43,29 42,29L30,29C30,29 29,29 29,28L29,12C29,12 29,11 30,11M34,15L38,15C38,15 39,15 39,16L39,24C39,24 39,25 38,25L34,25C34,25 33,25 33,24L33,16C33,16 33,15 34,15M57,52.502C57.013,52.631 56.971,52.759 56.883,52.854C56.795,52.949 56.671,53.002 56.542,53L45.46,53C45.331,53.002 45.207,52.949 45.119,52.854C45.031,52.759 44.989,52.631 45.002,52.502L46.116,39.502C46.145,39.222 46.379,39.009 46.66,39.004L55.34,39.004C55.621,39.009 55.855,39.222 55.884,39.502L57,52.502ZM53,30L55,27L47,27L49,30C47.896,30.331 47.14,31.347 47.14,32.5C47.14,33.653 47.896,34.669 49,35L53,35C54.104,34.669 54.86,33.653 54.86,32.5C54.86,31.347 54.104,30.331 53,30L53,30ZM51,35L51,39" style="fill:none;stroke:rgb(44,44,44);stroke-width:2px;"/>
                    </g>
                </g>
            </g>
            <g id="g-root-ic_1_1lux0qj160w77-stroke" transform="matrix(1,0,0,1,476,638)">
                <g id="ic_1_1lux0qj160w77-stroke">
                    <g>
                        <path d="M16.722,38.896C16.722,41.378 18.734,43.39 21.216,43.39C23.698,43.39 25.71,41.378 25.71,38.896C25.71,36.414 23.698,34.402 21.216,34.402C18.734,34.402 16.722,36.414 16.722,38.896M28.618,50.838C27.505,47.744 24.584,45.669 21.295,45.636C18.007,45.603 15.045,47.619 13.87,50.69M41.862,38.896C41.862,41.378 43.874,43.39 46.356,43.39C48.838,43.39 50.85,41.378 50.85,38.896C50.85,36.414 48.838,34.402 46.356,34.402C43.874,34.402 41.862,36.414 41.862,38.896M53.458,50.12C52.251,47.642 49.853,45.96 47.112,45.668C46.405,45.612 45.694,45.647 44.996,45.772M12,54.622L56,54.622M47.848,54.622L34.876,54.622L33.148,46.838C33.083,46.542 33.155,46.232 33.345,45.996C33.534,45.76 33.821,45.622 34.124,45.622L44.244,45.622C45.181,45.622 45.993,46.273 46.196,47.188L47.848,54.622ZM33,13.378L33,21.378M29,27.378L30,21.378L36,21.378L37,27.378L29,27.378ZM39.388,50.122C39.388,50.536 39.724,50.872 40.138,50.872C40.552,50.872 40.888,50.536 40.888,50.122C40.888,49.708 40.552,49.372 40.138,49.372C39.724,49.372 39.388,49.708 39.388,50.122M43.15,35.75C45.124,37.888 47.944,39.04 50.85,38.896M24.422,35.75C22.448,37.888 19.628,39.04 16.722,38.896" style="fill:none;stroke:rgb(44,44,44);stroke-width:2px;"/>
                    </g>
                </g>
            </g>
        </g>
    </g>
</svg>
