<?xml version="1.0" encoding="UTF-8" standalone="no"?>
<!DOCTYPE svg PUBLIC "-//W3C//DTD SVG 1.1//EN" "http://www.w3.org/Graphics/SVG/1.1/DTD/svg11.dtd">
<svg width="100%" height="100%" viewBox="0 0 708 930" version="1.1" xmlns="http://www.w3.org/2000/svg" xmlns:xlink="http://www.w3.org/1999/xlink" xml:space="preserve" xmlns:serif="http://www.serif.com/" style="fill-rule:evenodd;clip-rule:evenodd;stroke-linecap:round;stroke-linejoin:round;">
    <g id="items" transform="matrix(1.08778,0,0,1.08778,-31.0947,-41.3348)">
        <g id="blend">
            <g id="g-root-cp_1_shape-1_hssjww10ygahb-fill" transform="matrix(1,0,0,1,35.5,55.8164)">
                <g id="cp_1_shape-1_hssjww10ygahb-fill">
                    <g>
                        <path d="M214,352.184L46,352.183C26.118,352.183 10,336.081 10,316.199L10,316.184L250,316.184C250,336.066 233.882,352.184 214,352.184ZM254.6,28.375L250,28.375L250,160.184L10,160.184C10,140.302 26.118,124.505 46,124.505L172,124.505C213.07,124.505 238,94.374 238,55.034L238,28.374L233.32,28.374C232.54,28.374 232.05,27.524 232.44,26.844L243.163,10.632C243.559,10.033 244.439,10.034 244.833,10.635L255.48,26.844C255.88,27.525 255.39,28.375 254.6,28.375ZM250,160.184L250,316.184L10,316.184L10,160.184L250,160.184Z" style="fill:rgb(67,221,147);"/>
                    </g>
                </g>
            </g>
            <g id="g-root-cp_3_shape-3_8xs0r410yg8w1-fill" transform="matrix(1,0,0,1,35,362)">
                <g id="cp_3_shape-3_8xs0r410yg8w1-fill">
                    <g>
                        <path d="M214,64.321C244,64.321 268,46 268,10L280,10L280,100.306L10,100.306C10,80.423 26.118,64.321 46,64.321L214,64.321Z" style="fill:rgb(26,195,251);"/>
                    </g>
                </g>
            </g>
            <g id="g-root-cp_3_shape-3_1_1lrsk4010ygb2j-fill" transform="matrix(1,0,0,1,287.303,56)">
                <g id="cp_3_shape-3_1_1lrsk4010ygb2j-fill">
                    <g>
                        <path d="M27.697,316L15.697,316L15.697,160L27.697,160L27.697,316ZM32.297,28.191L27.697,28.191L27.697,160L15.697,160L15.697,28.191L11.017,28.191C10.237,28.191 9.747,27.341 10.137,26.661L20.86,10.448C21.256,9.849 22.136,9.851 22.53,10.451L33.177,26.661C33.577,27.341 33.087,28.191 32.297,28.191Z" style="fill:rgb(26,195,251);"/>
                    </g>
                </g>
            </g>
            <g id="g-root-cp_5_shape-5_18gyits10yg9hp-fill" transform="matrix(1,0,0,1,317.303,56)">
                <g id="cp_5_shape-5_18gyits10yg9hp-fill">
                    <g>
                        <path d="M27.697,316L15.697,316L15.697,160L27.697,160L27.697,316ZM32.297,28.191L27.697,28.191L27.697,160L15.697,160L15.697,28.191L11.017,28.191C10.237,28.191 9.747,27.341 10.137,26.661L20.86,10.448C21.256,9.849 22.136,9.851 22.53,10.451L33.177,26.661C33.577,27.341 33.087,28.191 32.297,28.191Z" style="fill:rgb(247,148,56);"/>
                    </g>
                </g>
            </g>
            <g id="g-root-cp_2_shape-2_hunz6810yg9hr-fill" transform="matrix(1,0,0,1,407.878,55.8164)">
                <g id="cp_2_shape-2_hunz6810yg9hr-fill">
                    <g>
                        <path d="M51.622,352.184L219.622,352.184C239.504,352.184 255.622,336.081 255.622,316.199L255.622,316.184L15.622,316.184C15.622,336.066 31.74,352.184 51.622,352.184ZM11.022,28.375L15.622,28.375L15.622,160.184L255.622,160.184C255.622,140.302 239.505,124.505 219.623,124.505L93.622,124.505C52.552,124.505 27.622,94.374 27.622,55.034L27.622,28.374L32.302,28.374C33.082,28.374 33.572,27.524 33.182,26.844L22.459,10.632C22.063,10.033 21.184,10.034 20.79,10.635L10.142,26.844C9.742,27.525 10.232,28.375 11.022,28.375ZM15.622,160.184L15.622,316.184L255.622,316.184L255.622,160.184L15.622,160.184Z" style="fill:rgb(166,218,55);"/>
                    </g>
                </g>
            </g>
            <g id="g-root-cp_4_shape-4_8z0yxc10ygb29-fill" transform="matrix(1,0,0,1,383,362)">
                <g id="cp_4_shape-4_8z0yxc10ygb29-fill">
                    <g>
                        <path d="M76,64.321C46,64.321 22,46 22,10L10,10L10,100.306L280,100.306C280,80.423 263.882,64.321 244,64.321L76,64.321Z" style="fill:rgb(255,231,17);"/>
                    </g>
                </g>
            </g>
            <g id="g-root-cp_4_shape-4_1_1ltnzdc10yga2z-fill" transform="matrix(1,0,0,1,377.383,56)">
                <g id="cp_4_shape-4_1_1ltnzdc10yga2z-fill">
                    <g>
                        <path d="M15.623,316L27.623,316L27.623,160L15.623,160L15.623,316ZM11.022,28.191L15.622,28.191L15.622,160L27.622,160L27.622,28.191L32.302,28.191C33.082,28.191 33.572,27.341 33.182,26.661L22.459,10.448C22.063,9.849 21.184,9.851 20.79,10.451L10.142,26.661C9.742,27.341 10.232,28.191 11.022,28.191Z" style="fill:rgb(255,231,17);"/>
                    </g>
                </g>
            </g>
            <g id="g-root-cp_6_shape-6_18ity3410yg8i5-fill" transform="matrix(1,0,0,1,347.383,56)">
                <g id="cp_6_shape-6_18ity3410yg8i5-fill">
                    <g>
                        <path d="M15.623,316L27.623,316L27.623,160L15.623,160L15.623,316ZM11.022,28.191L15.622,28.191L15.622,160L27.622,160L27.622,28.191L32.302,28.191C33.082,28.191 33.572,27.341 33.182,26.661L22.459,10.448C22.063,9.849 21.184,9.851 20.79,10.451L10.142,26.661C9.742,27.341 10.232,28.191 11.022,28.191Z" style="fill:rgb(203,104,249);"/>
                    </g>
                </g>
            </g>
            <g id="g-root-cp_3_shape-3_2_v7dfps10yga33-fill" transform="matrix(1,0,0,1,35,452)">
                <g id="cp_3_shape-3_2_v7dfps10yga33-fill">
                    <g>
                        <path d="M280,10L280,165.975L10,165.975L10,10L280,10ZM244,202.008L46,202.008C26.118,202.008 10,185.905 10,166.023L10,166.008L280,166.008C280,185.89 263.882,202.008 244,202.008Z" style="fill:rgb(26,195,251);"/>
                    </g>
                </g>
            </g>
            <g id="g-root-cp_5_shape-5_1_mccwk010yg8ht-fill" transform="matrix(1,0,0,1,323,362)">
                <g id="cp_5_shape-5_1_mccwk010yg8ht-fill">
                    <g>
                        <rect x="10" y="10" width="12" height="246" style="fill:rgb(247,148,56);"/>
                    </g>
                </g>
            </g>
            <g id="g-root-cp_5_shape-5_2_90we6o10yga2r-fill" transform="matrix(1,0,0,1,35,608)">
                <g id="cp_5_shape-5_2_90we6o10yga2r-fill">
                    <g>
                        <path d="M244,64.137C274,64.137 298,45.878 298,10L310,10L310,100L10,100C10,80.185 26.118,64.137 46,64.137L244,64.137Z" style="fill:rgb(247,148,56);"/>
                    </g>
                </g>
            </g>
            <g id="g-root-cp_4_shape-4_2_1ur6evk10yg8at-fill" transform="matrix(1,0,0,1,383,452)">
                <g id="cp_4_shape-4_2_1ur6evk10yg8at-fill">
                    <g>
                        <path d="M10,10L10,166L280,166L280,10L10,10ZM46,202L244,202C263.882,202 280,185.898 280,166.016L280,166L10,166C10,185.882 26.118,202 46,202Z" style="fill:rgb(255,231,17);"/>
                    </g>
                </g>
            </g>
            <g id="g-root-cp_6_shape-6_1_18k2w9c10ygaof-fill" transform="matrix(1,0,0,1,353,362)">
                <g id="cp_6_shape-6_1_18k2w9c10ygaof-fill">
                    <g>
                        <rect x="10" y="10" width="12" height="246" style="fill:rgb(203,104,249);"/>
                    </g>
                </g>
            </g>
            <g id="g-root-cp_6_shape-6_2_zp2d3k10yg935-fill" transform="matrix(1,0,0,1,353,608)">
                <g id="cp_6_shape-6_2_zp2d3k10yg935-fill">
                    <g>
                        <path d="M76,64.321C46,64.321 22,46 22,10L10,10L10,100.306L310,100.306C310,80.423 293.882,64.321 274,64.321L76,64.321Z" style="fill:rgb(203,104,249);"/>
                    </g>
                </g>
            </g>
            <g id="g-root-cp_5_shape-5_3_mdluq810ygao3-fill" transform="matrix(1,0,0,1,35,698)">
                <g id="cp_5_shape-5_3_mdluq810ygao3-fill">
                    <g>
                        <path d="M310,10L310,142L10,142L10,10L310,10ZM274,178.008L46,178.008C26.118,178.008 10,161.882 10,142L310,142C310,161.882 293.882,178.008 274,178.008Z" style="fill:rgb(247,148,56);"/>
                    </g>
                </g>
            </g>
            <g id="g-root-cp_6_shape-6_3_74t7410yg9vx-fill" transform="matrix(1,0,0,1,353,698)">
                <g id="cp_6_shape-6_3_74t7410yg9vx-fill">
                    <g>
                        <path d="M10,10L10,142L310,142L310,10L10,10ZM46,178L274,178C293.882,178 310,161.898 310,142.016L310,142L10,142C10,161.882 26.118,178 46,178Z" style="fill:rgb(203,104,249);"/>
                    </g>
                </g>
            </g>
            <g id="g-root-tx_flexible_5vv0w10yq3gg-fill" transform="matrix(1,0,0,1,383,806)">
                <g id="tx_flexible_5vv0w10yq3gg-fill">
                    <g>
                        <g>
                            <g transform="matrix(1,0,0,1,12.96,28.2)">
                                <text x="0px" y="0px" style="font-family:'ArialMT', 'Arial', sans-serif;font-size:15px;fill:rgb(44,44,44);">Flexible deployment options to suit</text>
                            </g>
                            <g transform="matrix(1,0,0,1,49.22,46.2)">
                                <text x="0px" y="0px" style="font-family:'ArialMT', 'Arial', sans-serif;font-size:15px;fill:rgb(44,44,44);">diverse business needs.</text>
                            </g>
                        </g>
                    </g>
                </g>
            </g>
            <g id="g-root-tx_seamless_hvwxcg10ylurl-fill" transform="matrix(1,0,0,1,92,500)">
                <g id="tx_seamless_hvwxcg10ylurl-fill">
                    <g>
                        <g>
                            <g transform="matrix(1,0,0,1,17.44,34)">
                                <text x="0px" y="0px" style="font-family:'Arial-BoldMT', 'Arial', sans-serif;font-weight:700;font-size:20px;fill:rgb(44,44,44);">Seamless CRM</text>
                            </g>
                            <g transform="matrix(1,0,0,1,36.36,58)">
                                <text x="0px" y="0px" style="font-family:'Arial-BoldMT', 'Arial', sans-serif;font-weight:700;font-size:20px;fill:rgb(44,44,44);">Integration</text>
                            </g>
                        </g>
                    </g>
                </g>
            </g>
            <g transform="matrix(1,0,0,1,430.46,534)">
                <g id="g-root-tx_realtime_hyetow10ynbpr-fill">
                    <g id="tx_realtime_hyetow10ynbpr-fill">
                        <g>
                            <g>
                                <text x="0px" y="0px" style="font-family:'Arial-BoldMT', 'Arial', sans-serif;font-weight:700;font-size:20px;fill:rgb(44,44,44);">Real-T<tspan x="60.762px 66.318px " y="0px 0px ">im</tspan>e Dashboard</text>
                            </g>
                        </g>
                    </g>
                </g>
            </g>
            <g id="g-root-tx_instanta_146rahc10ynbi8-fill" transform="matrix(1,0,0,1,410,536)">
                <g id="tx_instanta_146rahc10ynbi8-fill">
                    <g>
                        <g>
                            <g transform="matrix(1,0,0,1,15.51,28.2)">
                                <text x="0px" y="0px" style="font-family:'ArialMT', 'Arial', sans-serif;font-size:15px;fill:rgb(44,44,44);">Instant access to performance</text>
                            </g>
                            <g transform="matrix(1,0,0,1,44.41,46.2)">
                                <text x="0px" y="0px" style="font-family:'ArialMT', 'Arial', sans-serif;font-size:15px;fill:rgb(44,44,44);">metrics and analytics.</text>
                            </g>
                        </g>
                    </g>
                </g>
            </g>
            <g id="g-root-tx_smoothin_zofw0g10yluki-fill" transform="matrix(1,0,0,1,68,560)">
                <g id="tx_smoothin_zofw0g10yluki-fill">
                    <g>
                        <g>
                            <g transform="matrix(1,0,0,1,12.54,31.2)">
                                <text x="0px" y="0px" style="font-family:'ArialMT', 'Arial', sans-serif;font-size:15px;fill:rgb(44,44,44);">Smooth integration with CRM</text>
                            </g>
                            <g transform="matrix(1,0,0,1,29.39,49.2)">
                                <text x="0px" y="0px" style="font-family:'ArialMT', 'Arial', sans-serif;font-size:15px;fill:rgb(44,44,44);">systems for streamlined</text>
                            </g>
                            <g transform="matrix(1,0,0,1,72.66,67.2)">
                                <text x="0px" y="0px" style="font-family:'ArialMT', 'Arial', sans-serif;font-size:15px;fill:rgb(44,44,44);">operations.</text>
                            </g>
                        </g>
                    </g>
                </g>
            </g>
            <g id="g-root-tx_tailored_14808nk10yg9hd-fill" transform="matrix(1,0,0,1,77.5,314)">
                <g id="tx_tailored_14808nk10yg9hd-fill">
                    <g>
                        <g>
                            <g transform="matrix(1,0,0,1,26.25,30.4)">
                                <text x="0px" y="0px" style="font-family:'ArialMT', 'Arial', sans-serif;font-size:15px;fill:rgb(44,44,44);">T<tspan x="7.5px 15.842px " y="0px 0px ">ai</tspan>lored engine for</text>
                            </g>
                            <g transform="matrix(1,0,0,1,32.1,48.4)">
                                <text x="0px" y="0px" style="font-family:'ArialMT', 'Arial', sans-serif;font-size:15px;fill:rgb(44,44,44);">optimized dialing</text>
                            </g>
                            <g transform="matrix(1,0,0,1,17.63,66.4)">
                                <g transform="matrix(15,0,0,15,8.34229,0)">
                                </g>
                                <g transform="matrix(15,0,0,15,12.3763,0)">
                                </g>
                                <g transform="matrix(15,0,0,15,16.4104,0)">
                                </g>
                                <text x="0px" y="0px" style="font-family:'ArialMT', 'Arial', sans-serif;font-size:15px;fill:rgb(44,44,44);">eﬃciency and speed.</text>
                            </g>
                        </g>
                    </g>
                </g>
            </g>
            <g id="g-root-tx_multimod_dcz1sg10yj3lt-fill" transform="matrix(1,0,0,1,443,254)">
                <g id="tx_multimod_dcz1sg10yj3lt-fill">
                    <g>
                        <g>
                            <g transform="matrix(1,0,0,1,12.98,34)">
                                <text x="0px" y="0px" style="font-family:'Arial-BoldMT', 'Arial', sans-serif;font-weight:700;font-size:20px;fill:rgb(44,44,44);">Multi-Mode Dialing</text>
                            </g>
                            <g transform="matrix(1,0,0,1,63.07,58)">
                                <text x="0px" y="0px" style="font-family:'Arial-BoldMT', 'Arial', sans-serif;font-weight:700;font-size:20px;fill:rgb(44,44,44);">Support</text>
                            </g>
                        </g>
                    </g>
                </g>
            </g>
            <g id="g-root-tx_custombu_mfh9zk10yg9og-fill" transform="matrix(1,0,0,1,83.5,254)">
                <g id="tx_custombu_mfh9zk10yg9og-fill">
                    <g>
                        <g>
                            <g transform="matrix(1,0,0,1,19.22,33.2)">
                                <text x="0px" y="0px" style="font-family:'Arial-BoldMT', 'Arial', sans-serif;font-weight:700;font-size:20px;fill:rgb(44,44,44);">Custom-Built</text>
                            </g>
                            <g transform="matrix(1,0,0,1,12.57,57.2)">
                                <text x="0px" y="0px" style="font-family:'Arial-BoldMT', 'Arial', sans-serif;font-weight:700;font-size:20px;fill:rgb(44,44,44);">Dialing Engine</text>
                            </g>
                        </g>
                    </g>
                </g>
            </g>
            <g transform="matrix(1,0,0,1,79.76,780)">
                <g id="g-root-tx_multicam_4gpkgg10yopvm-fill">
                    <g id="tx_multicam_4gpkgg10yopvm-fill">
                        <g>
                            <g>
                                <text x="0px" y="0px" style="font-family:'Arial-BoldMT', 'Arial', sans-serif;font-weight:700;font-size:20px;fill:rgb(44,44,44);">Multi-Campaign Handling</text>
                            </g>
                        </g>
                    </g>
                </g>
            </g>
            <g id="g-root-tx_cloudoro_v7zwsw10yq2o7-fill" transform="matrix(1,0,0,1,401,746)">
                <g id="tx_cloudoro_v7zwsw10yq2o7-fill">
                    <g>
                        <g>
                            <g transform="matrix(1,0,0,1,15.49,34)">
                                <text x="0px" y="0px" style="font-family:'Arial-BoldMT', 'Arial', sans-serif;font-weight:700;font-size:20px;fill:rgb(44,44,44);">Cloud or On-Premise</text>
                            </g>
                            <g transform="matrix(1,0,0,1,66.24,58)">
                                <text x="0px" y="0px" style="font-family:'Arial-BoldMT', 'Arial', sans-serif;font-weight:700;font-size:20px;fill:rgb(44,44,44);">Flexibility</text>
                            </g>
                        </g>
                    </g>
                </g>
            </g>
            <g id="g-root-tx_efficien_zkp1hs10yoo3n-fill" transform="matrix(1,0,0,1,65,782)">
                <g id="tx_efficien_zkp1hs10yoo3n-fill">
                    <g>
                        <g>
                            <g transform="matrix(1,0,0,1,17.68,28.2)">
                                <g transform="matrix(15,0,0,15,10.0049,0)">
                                </g>
                                <g transform="matrix(15,0,0,15,14.0389,0)">
                                </g>
                                <g transform="matrix(15,0,0,15,18.073,0)">
                                </g>
                                <text x="0px" y="0px" style="font-family:'ArialMT', 'Arial', sans-serif;font-size:15px;fill:rgb(44,44,44);">Eﬃcient management of multiple</text>
                            </g>
                            <g transform="matrix(1,0,0,1,37.22,46.2)">
                                <text x="0px" y="0px" style="font-family:'ArialMT', 'Arial', sans-serif;font-size:15px;fill:rgb(44,44,44);">campaigns simultaneously<tspan x="174.807px " y="0px ">.</tspan></text>
                            </g>
                        </g>
                    </g>
                </g>
            </g>
            <g id="g-root-tx_versatil_hunz6810yj1tu-fill" transform="matrix(1,0,0,1,443,314)">
                <g id="tx_versatil_hunz6810yj1tu-fill">
                    <g>
                        <g>
                            <g transform="matrix(1,0,0,1,31.53,31.2)">
                                <text x="0px" y="0px" style="font-family:'ArialMT', 'Arial', sans-serif;font-size:15px;fill:rgb(44,44,44);">V<tspan x="9.177px 17.52px " y="0px 0px ">er</tspan>satile support for</text>
                            </g>
                            <g transform="matrix(1,0,0,1,12.29,49.2)">
                                <text x="0px" y="0px" style="font-family:'ArialMT', 'Arial', sans-serif;font-size:15px;fill:rgb(44,44,44);">various dialing modes and</text>
                            </g>
                            <g transform="matrix(1,0,0,1,64.63,67.2)">
                                <text x="0px" y="0px" style="font-family:'ArialMT', 'Arial', sans-serif;font-size:15px;fill:rgb(44,44,44);">strategies.</text>
                            </g>
                        </g>
                    </g>
                </g>
            </g>
            <g id="g-root-cp_1_shape-1_hssjww10ygahb-stroke" transform="matrix(1,0,0,1,35.5,55.8164)">
                <g id="cp_1_shape-1_hssjww10ygahb-stroke">
                    <g>
                        <path d="M10,160.184C10,140.301 26.118,124.321 46,124.321L172,124.321C213.07,124.321 238,94.191 238,54.851L238,28.191L233.32,28.191C232.54,28.191 232.05,27.341 232.44,26.661L243.163,10.448C243.559,9.849 244.439,9.851 244.833,10.451L255.48,26.661C255.88,27.341 255.39,28.191 254.6,28.191L250,28.191L250,160.184M250,316.184C250,336.066 233.882,352.191 214,352.191L46,352.191C26.118,352.191 10,336.081 10,316.199L10,316.184M250,316.184L250,160.184M10,160.184L10,316.184" style="fill:none;stroke:rgb(44,44,44);stroke-width:2px;"/>
                    </g>
                </g>
            </g>
            <g id="g-root-cp_3_shape-3_8xs0r410yg8w1-stroke" transform="matrix(1,0,0,1,35,362)">
                <g id="cp_3_shape-3_8xs0r410yg8w1-stroke">
                    <g>
                        <path d="M268,10C268,46 244,64.321 214,64.321L46,64.321C26.118,64.321 10,80.423 10,100.306M280,100.306L280,10" style="fill:none;stroke:rgb(44,44,44);stroke-width:2px;"/>
                    </g>
                </g>
            </g>
            <g id="g-root-cp_3_shape-3_1_1lrsk4010ygb2j-stroke" transform="matrix(1,0,0,1,287.303,56)">
                <g id="cp_3_shape-3_1_1lrsk4010ygb2j-stroke">
                    <g>
                        <path d="M15.697,160L15.697,316M27.697,316L27.697,160M15.697,160L15.697,28.191L11.017,28.191C10.237,28.191 9.747,27.341 10.137,26.661L20.86,10.448C21.256,9.849 22.136,9.851 22.53,10.451L33.177,26.661C33.577,27.341 33.087,28.191 32.297,28.191L27.697,28.191L27.697,160" style="fill:none;stroke:rgb(44,44,44);stroke-width:2px;"/>
                    </g>
                </g>
            </g>
            <g id="g-root-cp_5_shape-5_18gyits10yg9hp-stroke" transform="matrix(1,0,0,1,317.303,56)">
                <g id="cp_5_shape-5_18gyits10yg9hp-stroke">
                    <g>
                        <path d="M15.697,160L15.697,316M27.697,316L27.697,160M15.697,160L15.697,28.191L11.017,28.191C10.237,28.191 9.747,27.341 10.137,26.661L20.86,10.448C21.256,9.849 22.136,9.851 22.53,10.451L33.177,26.661C33.577,27.341 33.087,28.191 32.297,28.191L27.697,28.191L27.697,160" style="fill:none;stroke:rgb(44,44,44);stroke-width:2px;"/>
                    </g>
                </g>
            </g>
            <g id="g-root-cp_2_shape-2_hunz6810yg9hr-stroke" transform="matrix(1,0,0,1,407.878,55.8164)">
                <g id="cp_2_shape-2_hunz6810yg9hr-stroke">
                    <g>
                        <path d="M255.622,160.184C255.622,140.301 239.505,124.321 219.623,124.321L93.622,124.321C52.552,124.321 27.622,94.191 27.622,54.851L27.622,28.191L32.302,28.191C33.082,28.191 33.572,27.341 33.182,26.661L22.459,10.448C22.063,9.849 21.184,9.851 20.79,10.451L10.142,26.661C9.742,27.341 10.232,28.191 11.022,28.191L15.622,28.191L15.622,160.184M15.622,316.184C15.622,336.066 31.74,352.184 51.622,352.184L219.623,352.183C239.505,352.183 255.622,336.081 255.622,316.199L255.622,316.184M15.622,316.184L15.622,160.184M255.622,160.184L255.622,316.184" style="fill:none;stroke:rgb(44,44,44);stroke-width:2px;"/>
                    </g>
                </g>
            </g>
            <g id="g-root-cp_4_shape-4_8z0yxc10ygb29-stroke" transform="matrix(1,0,0,1,383,362)">
                <g id="cp_4_shape-4_8z0yxc10ygb29-stroke">
                    <g>
                        <path d="M22,10C22,46 46,64.321 76,64.321L244,64.321C263.882,64.321 280,80.423 280,100.306M10,100.306L10,10" style="fill:none;stroke:rgb(44,44,44);stroke-width:2px;"/>
                    </g>
                </g>
            </g>
            <g id="g-root-cp_4_shape-4_1_1ltnzdc10yga2z-stroke" transform="matrix(1,0,0,1,377.383,56)">
                <g id="cp_4_shape-4_1_1ltnzdc10yga2z-stroke">
                    <g>
                        <path d="M27.622,160L27.622,316M15.622,316L15.622,160M27.622,160L27.622,28.191L32.302,28.191C33.082,28.191 33.572,27.341 33.182,26.661L22.459,10.448C22.063,9.849 21.184,9.851 20.79,10.451L10.142,26.661C9.742,27.341 10.232,28.191 11.022,28.191L15.622,28.191L15.622,160" style="fill:none;stroke:rgb(44,44,44);stroke-width:2px;"/>
                    </g>
                </g>
            </g>
            <g id="g-root-cp_6_shape-6_18ity3410yg8i5-stroke" transform="matrix(1,0,0,1,347.383,56)">
                <g id="cp_6_shape-6_18ity3410yg8i5-stroke">
                    <g>
                        <path d="M27.622,160L27.622,316M15.622,316L15.622,160M27.622,160L27.622,28.191L32.302,28.191C33.082,28.191 33.572,27.341 33.182,26.661L22.459,10.448C22.063,9.849 21.184,9.851 20.79,10.451L10.142,26.661C9.742,27.341 10.232,28.191 11.022,28.191L15.622,28.191L15.622,160" style="fill:none;stroke:rgb(44,44,44);stroke-width:2px;"/>
                    </g>
                </g>
            </g>
            <g id="g-root-cp_3_shape-3_2_v7dfps10yga33-stroke" transform="matrix(1,0,0,1,35,452)">
                <g id="cp_3_shape-3_2_v7dfps10yga33-stroke">
                    <g>
                        <path d="M280,165.975L280,10M10,10L10,166M280,166.008C280,185.89 263.882,202.008 244,202.008L46,202.008C26.118,202.008 10,185.905 10,166.023L10,166.008" style="fill:none;stroke:rgb(44,44,44);stroke-width:2px;"/>
                    </g>
                </g>
            </g>
            <g id="g-root-cp_5_shape-5_1_mccwk010yg8ht-stroke" transform="matrix(1,0,0,1,323,362)">
                <g id="cp_5_shape-5_1_mccwk010yg8ht-stroke">
                    <g>
                        <path d="M10,10L10,256M22,256L22,10" style="fill:none;stroke:rgb(44,44,44);stroke-width:2px;"/>
                    </g>
                </g>
            </g>
            <g id="g-root-cp_5_shape-5_2_90we6o10yga2r-stroke" transform="matrix(1,0,0,1,35,608)">
                <g id="cp_5_shape-5_2_90we6o10yga2r-stroke">
                    <g>
                        <path d="M298,10C298,45.878 274,64.137 244,64.137L46,64.137C26.118,64.137 10,80.185 10,100M310,100L310,10" style="fill:none;stroke:rgb(44,44,44);stroke-width:2px;"/>
                    </g>
                </g>
            </g>
            <g id="g-root-cp_4_shape-4_2_1ur6evk10yg8at-stroke" transform="matrix(1,0,0,1,383,452)">
                <g id="cp_4_shape-4_2_1ur6evk10yg8at-stroke">
                    <g>
                        <path d="M10,166L10,10M280,10L280,166M10,166C10,185.882 26.118,202.008 46,202.008L244,202.008C263.882,202.008 280,185.898 280,166.016L280,166" style="fill:none;stroke:rgb(44,44,44);stroke-width:2px;"/>
                    </g>
                </g>
            </g>
            <g id="g-root-cp_6_shape-6_1_18k2w9c10ygaof-stroke" transform="matrix(1,0,0,1,353,362)">
                <g id="cp_6_shape-6_1_18k2w9c10ygaof-stroke">
                    <g>
                        <path d="M22,10L22,256M10,256L10,10" style="fill:none;stroke:rgb(44,44,44);stroke-width:2px;"/>
                    </g>
                </g>
            </g>
            <g id="g-root-cp_6_shape-6_2_zp2d3k10yg935-stroke" transform="matrix(1,0,0,1,353,608)">
                <g id="cp_6_shape-6_2_zp2d3k10yg935-stroke">
                    <g>
                        <path d="M22,10C22,46 46,64.321 76,64.321L274,64.321C293.882,64.321 310,80.423 310,100.306M10,100.306L10,10" style="fill:none;stroke:rgb(44,44,44);stroke-width:2px;"/>
                    </g>
                </g>
            </g>
            <g id="g-root-cp_5_shape-5_3_mdluq810ygao3-stroke" transform="matrix(1,0,0,1,35,698)">
                <g id="cp_5_shape-5_3_mdluq810ygao3-stroke">
                    <g>
                        <path d="M310,142L310,10M10,10L10,142M310,142C310,161.882 293.882,178.008 274,178.008L46,178.008C26.118,178.008 10,161.882 10,142" style="fill:none;stroke:rgb(44,44,44);stroke-width:2px;"/>
                    </g>
                </g>
            </g>
            <g id="g-root-cp_6_shape-6_3_74t7410yg9vx-stroke" transform="matrix(1,0,0,1,353,698)">
                <g id="cp_6_shape-6_3_74t7410yg9vx-stroke">
                    <g>
                        <path d="M10,142L10,10M310,10L310,142M10,142C10,161.882 26.118,178.008 46,178.008L274,178.008C293.882,178.008 310,161.898 310,142.016L310,142" style="fill:none;stroke:rgb(44,44,44);stroke-width:2px;"/>
                    </g>
                </g>
            </g>
            <g id="g-root-ic_3_6ic4010ylvd7-stroke" transform="matrix(1,0,0,1,146,440)">
                <g id="ic_3_6ic4010ylvd7-stroke">
                    <g>
                        <path d="M29.436,43.516L15.646,43.516C13.08,43.516 11,41.436 11,38.87L11,27.258L16.8,27.258C16.8,25.334 18.36,23.774 20.284,23.774C22.208,23.774 23.768,25.334 23.768,27.258L29.568,27.258L29.568,36.986M11,27.258L11,15.646C11,13.08 13.08,11 15.646,11L29.58,11L29.58,15.646C30.844,15.616 32.026,16.273 32.667,17.363C33.308,18.453 33.308,19.805 32.667,20.895C32.026,21.985 30.844,22.642 29.58,22.612L29.58,27.258M41.548,27.258L29.58,27.258M29.58,11L42.354,11C44.92,11 47,13.08 47,15.646L47,27.258M33,45C33,51.627 38.373,57 45,57C51.627,57 57,51.627 57,45C57,38.373 51.627,33 45,33C38.373,33 33,38.373 33,45M48,50.2C46.144,51.272 43.856,51.272 42,50.2M45,33C46.657,33 48,34.343 48,36C48,37.657 46.657,39 45,39M50.25,42C50.664,42 51,42.336 51,42.75M49.5,42.75C49.5,42.336 49.836,42 50.25,42M50.25,43.5C49.836,43.5 49.5,43.164 49.5,42.75M51,42.75C51,43.164 50.664,43.5 50.25,43.5M39.75,42C40.164,42 40.5,42.336 40.5,42.75M39,42.75C39,42.336 39.336,42 39.75,42M39.75,43.5C39.336,43.5 39,43.164 39,42.75M40.5,42.75C40.5,43.164 40.164,43.5 39.75,43.5" style="fill:none;stroke:rgb(44,44,44);stroke-width:2px;"/>
                    </g>
                </g>
            </g>
            <g id="g-root-ic_14_9l8w10yhpmq-stroke" transform="matrix(1,0,0,1,131.5,194)">
                <g id="ic_14_9l8w10yhpmq-stroke">
                    <g>
                        <path d="M18.128,14.91L16.8,16.77C15.259,15.669 13.116,16.026 12.015,17.567C10.914,19.108 11.271,21.251 12.812,22.352L11.482,24.212L17.066,28.2L23.71,18.896L18.128,14.91ZM44.29,18.896L23.71,18.896L17.066,28.2L23.214,48.152C23.509,49.111 24.395,49.764 25.398,49.764L42.598,49.764C43.601,49.764 44.488,49.111 44.784,48.152L50.934,28.2L44.29,18.896ZM55.984,17.566C54.884,16.024 52.742,15.666 51.2,16.766L49.872,14.906L44.29,18.896L50.934,28.2L56.516,24.212L55.186,22.352C56.728,21.251 57.086,19.108 55.984,17.566ZM22.084,44.486L17.182,46C16.578,46.186 15.938,45.848 15.752,45.244L13.06,36.5C12.874,35.897 13.211,35.257 13.814,35.07L18.718,33.56M45.916,44.486L50.818,46C51.422,46.186 52.062,45.848 52.248,45.244L54.94,36.504C55.126,35.9 54.788,35.26 54.184,35.074L49.282,33.564M27.14,18.896L27.14,14.91M34,18.896L34,14.91M40.86,18.896L40.86,14.91M27.14,53.09L27.14,49.764M34,53.09L34,49.764M40.86,53.09L40.86,49.764M16.8,16.77L12.812,22.352M51.2,16.77L55.186,22.352M31.874,34.33C31.874,35.504 32.826,36.456 34,36.456C35.174,36.456 36.126,35.504 36.126,34.33C36.126,33.156 35.174,32.204 34,32.204C32.826,32.204 31.874,33.156 31.874,34.33M35.8,26.108L36.426,28.166C36.636,28.878 37.366,29.301 38.088,29.132L40.176,28.648C40.987,28.466 41.822,28.835 42.235,29.556C42.648,30.278 42.543,31.184 41.976,31.792L40.516,33.366C40.012,33.91 40.012,34.752 40.516,35.296L41.976,36.87C42.541,37.478 42.646,38.383 42.233,39.104C41.82,39.824 40.987,40.192 40.176,40.012L38.088,39.53C37.366,39.36 36.637,39.783 36.426,40.494L35.8,42.552C35.56,43.349 34.826,43.895 33.994,43.895C33.162,43.895 32.428,43.349 32.188,42.552L31.562,40.494C31.351,39.782 30.621,39.359 29.898,39.53L27.812,40.012C27.001,40.192 26.168,39.824 25.755,39.104C25.342,38.383 25.447,37.478 26.012,36.87L27.472,35.296C27.976,34.752 27.976,33.91 27.472,33.366L26.012,31.792C25.448,31.183 25.344,30.279 25.757,29.559C26.169,28.838 27.002,28.47 27.812,28.648L29.898,29.132C30.621,29.303 31.352,28.879 31.562,28.166L32.2,26.108C32.446,25.321 33.175,24.785 34,24.785C34.825,24.785 35.554,25.321 35.8,26.108L35.8,26.108Z" style="fill:none;stroke:rgb(44,44,44);stroke-width:2px;"/>
                    </g>
                </g>
            </g>
            <g id="g-root-ic_play_9mpjk10yn9xd-stroke" transform="matrix(1,0,0,1,494,440)">
                <g id="ic_play_9mpjk10yn9xd-stroke">
                    <g>
                        <path d="M13,11L55,11C55,11 57,11 57,13L57,55C57,55 57,57 55,57L13,57C13,57 11,57 11,55L11,13C11,13 11,11 13,11M16,32.008L20,26.008L25,37L33,17L40,35.008L47,25L52,31.008M16,50L52,50M45,47L45,53M11,43L56,43" style="fill:none;stroke:rgb(44,44,44);stroke-width:2px;"/>
                    </g>
                </g>
            </g>
            <g id="g-root-ic_1_18hkzww10yoop8-stroke" transform="matrix(1,0,0,1,161,686)">
                <g id="ic_1_18hkzww10yoop8-stroke">
                    <g>
                        <path d="M49,34L54,34C54.552,34 55,34.448 55,35L55,44C55,45.105 54.105,46 53,46L47,46C45.895,46 45,45.105 45,44L45,40M17,24L13,24L13,14C13,12.895 13.895,12 15,12L21,12C22.105,12 23,12.895 23,14L23,20M29,24C29,26.209 30.791,28 33,28C35.209,28 37,26.209 37,24C37,21.791 35.209,20 33,20C30.791,20 29,21.791 29,24ZM49,34C49,32.895 48.105,32 47,32L30,32C27.239,32 25,29.761 25,27L25,22C25,20.895 24.105,20 23,20C21.895,20 21,20.895 21,22L21,26C20.67,30.333 23.369,34.322 27.514,35.628C28.389,35.861 28.999,36.652 29,37.558L29,41.668C29,41.888 28.964,42.106 28.892,42.314L25.184,53.162C24.721,54.165 25.159,55.353 26.162,55.816C27.165,56.279 28.353,55.841 28.816,54.838L33,45.772L37.184,54.838C37.647,55.841 38.835,56.279 39.838,55.816C40.841,55.353 41.279,54.165 40.816,53.162L37.108,42.314C37.036,42.106 37,41.888 37,41.668L37,38C37,36.895 37.895,36 39,36L47,36C48.105,36 49,35.105 49,34Z" style="fill:none;stroke:rgb(44,44,44);stroke-width:2px;"/>
                    </g>
                </g>
            </g>
            <g id="g-root-ic_arro_v98uz410yq4u9-stroke" transform="matrix(1,0,0,1,479,686)">
                <g id="ic_arro_v98uz410yq4u9-stroke">
                    <g>
                        <path d="M23.948,22.672L20.273,22.672C15.855,22.672 12.273,26.254 12.273,30.672L12.273,41.125C12.273,45.543 15.855,49.125 20.273,49.125L31.763,49.125M48.891,33.712C52.621,33.712 55.729,30.448 55.729,26.719C55.729,22.99 52.621,19.882 48.891,19.882C47.493,19.882 46.094,20.348 45.006,21.125C44.074,16.308 39.878,12.578 34.75,12.578C29.001,12.578 24.184,17.24 24.184,23.145C24.184,29.05 28.845,33.712 34.75,33.712L48.891,33.712ZM41.109,49.125L55.727,49.125M26.145,42.828L32.439,49.119L26.145,55.414M46.695,55.422L40.399,49.129L46.695,42.833" style="fill:none;stroke:rgb(44,44,44);stroke-width:2px;"/>
                    </g>
                </g>
            </g>
            <g id="g-root-ic_2_142dyvk10yj40b-stroke" transform="matrix(1,0,0,1,509.5,194)">
                <g id="ic_2_142dyvk10yj40b-stroke">
                    <g>
                        <path d="M36.5,44C36.5,42.619 35.381,41.5 34,41.5C32.619,41.5 31.5,42.619 31.5,44C31.5,45.381 32.619,46.5 34,46.5C35.381,46.5 36.5,45.381 36.5,44ZM36.5,34C36.5,32.619 35.381,31.5 34,31.5C32.619,31.5 31.5,32.619 31.5,34C31.5,35.381 32.619,36.5 34,36.5C35.381,36.5 36.5,35.381 36.5,34ZM36.5,24C36.5,22.619 35.381,21.5 34,21.5C32.619,21.5 31.5,22.619 31.5,24C31.5,25.381 32.619,26.5 34,26.5C35.381,26.5 36.5,25.381 36.5,24ZM53,11L15,11C12.791,11 11,12.791 11,15L11,53C11,55.209 12.791,57 15,57L53,57C55.209,57 57,55.209 57,53L57,15C57,12.791 55.209,11 53,11Z" style="fill:none;stroke:rgb(44,44,44);stroke-width:2px;"/>
                    </g>
                </g>
            </g>
        </g>
    </g>
</svg>
