<?xml version="1.0" encoding="UTF-8" standalone="no"?>
<!DOCTYPE svg PUBLIC "-//W3C//DTD SVG 1.1//EN" "http://www.w3.org/Graphics/SVG/1.1/DTD/svg11.dtd">
<svg width="100%" height="100%" viewBox="0 0 708 894" version="1.1" xmlns="http://www.w3.org/2000/svg" xmlns:xlink="http://www.w3.org/1999/xlink" xml:space="preserve" xmlns:serif="http://www.serif.com/" style="fill-rule:evenodd;clip-rule:evenodd;stroke-linecap:round;stroke-linejoin:round;">
    <g id="items" transform="matrix(1.10186,0,0,1.10186,-36.0839,-48.1336)">
        <g id="blend">
            <g id="g-root-cp_1_shape-1_8ye52913gb8cm-fill" transform="matrix(1,0,0,1,35.5,55.8164)">
                <g id="cp_1_shape-1_8ye52913gb8cm-fill">
                    <g>
                        <path d="M214,340.184L46,340.183C26.118,340.183 10,324.081 10,304.199L10,304.184L250,304.184C250,324.066 233.882,340.184 214,340.184ZM254.6,28.375L250,28.375L250,160.184L10,160.184C10,140.302 26.118,124.505 46,124.505L172,124.505C213.07,124.505 238,94.374 238,55.034L238,28.374L233.32,28.374C232.54,28.374 232.05,27.524 232.44,26.844L243.163,10.632C243.559,10.033 244.439,10.034 244.833,10.635L255.48,26.844C255.88,27.525 255.39,28.375 254.6,28.375ZM250,160.184L250,304.184L10,304.184L10,160.184L250,160.184Z" style="fill:rgb(255,231,17);"/>
                    </g>
                </g>
            </g>
            <g id="g-root-cp_3_shape-3_1uoo5r513gb6ko-fill" transform="matrix(1,0,0,1,35,350)">
                <g id="cp_3_shape-3_1uoo5r513gb6ko-fill">
                    <g>
                        <path d="M214,64.321C244,64.321 268,46 268,10L280,10L280,100.306L10,100.306C10,80.423 26.118,64.321 46,64.321L214,64.321Z" style="fill:rgb(247,148,56);"/>
                    </g>
                </g>
            </g>
            <g id="g-root-cp_3_shape-3_1_1hd7ndt13gb85m-fill" transform="matrix(1,0,0,1,287.303,56)">
                <g id="cp_3_shape-3_1_1hd7ndt13gb85m-fill">
                    <g>
                        <path d="M27.697,304L15.697,304L15.697,160L27.697,160L27.697,304ZM32.297,28.191L27.697,28.191L27.697,160L15.697,160L15.697,28.191L11.017,28.191C10.237,28.191 9.747,27.341 10.137,26.661L20.86,10.448C21.256,9.849 22.136,9.851 22.53,10.451L33.177,26.661C33.577,27.341 33.087,28.191 32.297,28.191Z" style="fill:rgb(247,148,56);"/>
                    </g>
                </g>
            </g>
            <g id="g-root-cp_5_shape-5_zmk3z513gb7d0-fill" transform="matrix(1,0,0,1,317.303,56)">
                <g id="cp_5_shape-5_zmk3z513gb7d0-fill">
                    <g>
                        <path d="M27.697,304L15.697,304L15.697,160L27.697,160L27.697,304ZM32.297,28.191L27.697,28.191L27.697,160L15.697,160L15.697,28.191L11.017,28.191C10.237,28.191 9.747,27.341 10.137,26.661L20.86,10.448C21.256,9.849 22.136,9.851 22.53,10.451L33.177,26.661C33.577,27.341 33.087,28.191 32.297,28.191Z" style="fill:rgb(203,104,249);"/>
                    </g>
                </g>
            </g>
            <g id="g-root-cp_2_shape-2_mb3llt13gb8xy-fill" transform="matrix(1,0,0,1,407.878,55.8164)">
                <g id="cp_2_shape-2_mb3llt13gb8xy-fill">
                    <g>
                        <path d="M51.622,340.184L219.622,340.184C239.504,340.184 255.622,324.081 255.622,304.199L255.622,304.184L15.622,304.184C15.622,324.066 31.74,340.184 51.622,340.184ZM11.022,28.375L15.622,28.375L15.622,160.184L255.622,160.184C255.622,140.302 239.505,124.505 219.623,124.505L93.622,124.505C52.552,124.505 27.622,94.374 27.622,55.034L27.622,28.374L32.302,28.374C33.082,28.374 33.572,27.524 33.182,26.844L22.459,10.632C22.063,10.033 21.184,10.034 20.79,10.635L10.142,26.844C9.742,27.525 10.232,28.375 11.022,28.375ZM15.622,160.184L15.622,304.184L255.622,304.184L255.622,160.184L15.622,160.184Z" style="fill:rgb(67,221,147);"/>
                    </g>
                </g>
            </g>
            <g id="g-root-cp_4_shape-4_909kbl13gb7d4-fill" transform="matrix(1,0,0,1,383,350)">
                <g id="cp_4_shape-4_909kbl13gb7d4-fill">
                    <g>
                        <path d="M76,64.321C46,64.321 22,46 22,10L10,10L10,100.306L280,100.306C280,80.423 263.882,64.321 244,64.321L76,64.321Z" style="fill:rgb(251,103,98);"/>
                    </g>
                </g>
            </g>
            <g id="g-root-cp_4_shape-4_1_1upx3xd13gb8qy-fill" transform="matrix(1,0,0,1,377.383,56)">
                <g id="cp_4_shape-4_1_1upx3xd13gb8qy-fill">
                    <g>
                        <path d="M15.623,304L27.623,304L27.623,160L15.623,160L15.623,304ZM11.022,28.191L15.622,28.191L15.622,160L27.622,160L27.622,28.191L32.302,28.191C33.082,28.191 33.572,27.341 33.182,26.661L22.459,10.448C22.063,9.849 21.184,9.851 20.79,10.451L10.142,26.661C9.742,27.341 10.232,28.191 11.022,28.191Z" style="fill:rgb(251,103,98);"/>
                    </g>
                </g>
            </g>
            <g id="g-root-cp_6_shape-6_1hf32n513gb764-fill" transform="matrix(1,0,0,1,347.383,56)">
                <g id="cp_6_shape-6_1hf32n513gb764-fill">
                    <g>
                        <path d="M15.623,304L27.623,304L27.623,160L15.623,160L15.623,304ZM11.022,28.191L15.622,28.191L15.622,160L27.622,160L27.622,28.191L32.302,28.191C33.082,28.191 33.572,27.341 33.182,26.661L22.459,10.448C22.063,9.849 21.184,9.851 20.79,10.451L10.142,26.661C9.742,27.341 10.232,28.191 11.022,28.191Z" style="fill:rgb(243,102,187);"/>
                    </g>
                </g>
            </g>
            <g id="g-root-cp_3_shape-3_2_143mk9t13gb8r2-fill" transform="matrix(1,0,0,1,35,440)">
                <g id="cp_3_shape-3_2_143mk9t13gb8r2-fill">
                    <g>
                        <path d="M280,10L280,165.975L10,165.975L10,10L280,10ZM244,202.008L46,202.008C26.118,202.008 10,185.905 10,166.023L10,166.008L280,166.008C280,185.89 263.882,202.008 244,202.008Z" style="fill:rgb(247,148,56);"/>
                    </g>
                </g>
            </g>
            <g id="g-root-cp_5_shape-5_1_v8m14113gb75s-fill" transform="matrix(1,0,0,1,323,350)">
                <g id="cp_5_shape-5_1_v8m14113gb75s-fill">
                    <g>
                        <rect x="10" y="10" width="12" height="246" style="fill:rgb(203,104,249);"/>
                    </g>
                </g>
            </g>
            <g id="g-root-cp_5_shape-5_2_hx5iqp13gb8qq-fill" transform="matrix(1,0,0,1,35,596)">
                <g id="cp_5_shape-5_2_hx5iqp13gb8qq-fill">
                    <g>
                        <path d="M244,64.137C274,64.137 298,45.878 298,10L310,10L310,100L10,100C10,80.185 26.118,64.137 46,64.137L244,64.137Z" style="fill:rgb(203,104,249);"/>
                    </g>
                </g>
            </g>
            <g id="g-root-cp_4_shape-4_2_924zkx13gb6do-fill" transform="matrix(1,0,0,1,383,440)">
                <g id="cp_4_shape-4_2_924zkx13gb6do-fill">
                    <g>
                        <path d="M10,10L10,166L280,166L280,10L10,10ZM46,202L244,202C263.882,202 280,185.898 280,166.016L280,166L10,166C10,185.882 26.118,202 46,202Z" style="fill:rgb(251,103,98);"/>
                    </g>
                </g>
            </g>
            <g id="g-root-cp_6_shape-6_1_1qbz12913gb8jq-fill" transform="matrix(1,0,0,1,353,350)">
                <g id="cp_6_shape-6_1_1qbz12913gb8jq-fill">
                    <g>
                        <rect x="10" y="10" width="12" height="246" style="fill:rgb(243,102,187);"/>
                    </g>
                </g>
            </g>
            <g id="g-root-cp_6_shape-6_2_1lws00x13gb668-fill" transform="matrix(1,0,0,1,353,596)">
                <g id="cp_6_shape-6_2_1lws00x13gb668-fill">
                    <g>
                        <path d="M76,64.321C46,64.321 22,46 22,10L10,10L10,100.306L310,100.306C310,80.423 293.882,64.321 274,64.321L76,64.321Z" style="fill:rgb(243,102,187);"/>
                    </g>
                </g>
            </g>
            <g id="g-root-cp_5_shape-5_3_18lbhnl13gb7r6-fill" transform="matrix(1,0,0,1,35,686)">
                <g id="cp_5_shape-5_3_18lbhnl13gb7r6-fill">
                    <g>
                        <path d="M310,10L310,118L10,118L10,10L310,10ZM274,154.008L46,154.008C26.118,154.008 10,137.882 10,118L310,118C310,137.882 293.882,154.008 274,154.008Z" style="fill:rgb(203,104,249);"/>
                    </g>
                </g>
            </g>
            <g id="g-root-cp_6_shape-6_3_meug4h13gb6z0-fill" transform="matrix(1,0,0,1,353,686)">
                <g id="cp_6_shape-6_3_meug4h13gb6z0-fill">
                    <g>
                        <path d="M10,10L10,118L310,118L310,10L10,10ZM46,154L274,154C293.882,154 310,137.898 310,118.016L310,118L10,118C10,137.882 26.118,154 46,154Z" style="fill:rgb(243,102,187);"/>
                    </g>
                </g>
            </g>
            <g id="g-root-tx_enhanced_143mk9t13ge0b2-fill" transform="matrix(1,0,0,1,449,290)">
                <g id="tx_enhanced_143mk9t13ge0b2-fill">
                    <g>
                        <g>
                            <g transform="matrix(1,0,0,1,34.24,28.2)">
                                <text x="0px" y="0px" style="font-family:'ArialMT', 'Arial', sans-serif;font-size:15px;fill:rgb(44,44,44);">Enhanced patient</text>
                            </g>
                            <g transform="matrix(1,0,0,1,12.32,46.2)">
                                <text x="0px" y="0px" style="font-family:'ArialMT', 'Arial', sans-serif;font-size:15px;fill:rgb(44,44,44);">communication through</text>
                            </g>
                            <g transform="matrix(1,0,0,1,11.76,64.2)">
                                <text x="0px" y="0px" style="font-family:'ArialMT', 'Arial', sans-serif;font-size:15px;fill:rgb(44,44,44);">automated appointment</text>
                            </g>
                            <g transform="matrix(1,0,0,1,56.54,82.2)">
                                <text x="0px" y="0px" style="font-family:'ArialMT', 'Arial', sans-serif;font-size:15px;fill:rgb(44,44,44);">reminders.</text>
                            </g>
                        </g>
                    </g>
                </g>
            </g>
            <g id="g-root-tx_streamli_i0wd9d13gb6rk-fill" transform="matrix(1,0,0,1,71.5,290)">
                <g id="tx_streamli_i0wd9d13gb6rk-fill">
                    <g>
                        <g>
                            <g transform="matrix(1,0,0,1,15.45,31.2)">
                                <text x="0px" y="0px" style="font-family:'ArialMT', 'Arial', sans-serif;font-size:15px;fill:rgb(44,44,44);">Streamlined operations</text>
                            </g>
                            <g transform="matrix(1,0,0,1,27.2,49.2)">
                                <text x="0px" y="0px" style="font-family:'ArialMT', 'Arial', sans-serif;font-size:15px;fill:rgb(44,44,44);">with automated call</text>
                            </g>
                            <g transform="matrix(1,0,0,1,14.1,67.2)">
                                <text x="0px" y="0px" style="font-family:'ArialMT', 'Arial', sans-serif;font-size:15px;fill:rgb(44,44,44);">management solutions.</text>
                            </g>
                        </g>
                    </g>
                </g>
            </g>
            <g id="g-root-tx_enhanced_4mbkm913gcnbb-fill" transform="matrix(1,0,0,1,389,770)">
                <g id="tx_enhanced_4mbkm913gcnbb-fill">
                    <g>
                        <g>
                            <g transform="matrix(1,0,0,1,14.13,28.2)">
                                <text x="0px" y="0px" style="font-family:'ArialMT', 'Arial', sans-serif;font-size:15px;fill:rgb(44,44,44);">Enhanced customer service with</text>
                            </g>
                            <g transform="matrix(1,0,0,1,21.32,46.2)">
                                <g transform="matrix(15,0,0,15,138.42,0)">
                                </g>
                                <g transform="matrix(15,0,0,15,142.588,0)">
                                </g>
                                <text x="0px" y="0px" style="font-family:'ArialMT', 'Arial', sans-serif;font-size:15px;fill:rgb(44,44,44);">automated order notiﬁcations.</text>
                            </g>
                        </g>
                    </g>
                </g>
            </g>
            <g id="g-root-tx_telemark_qof7dt13ggvey-fill" transform="matrix(1,0,0,1,98,488)">
                <g id="tx_telemark_qof7dt13ggvey-fill">
                    <g>
                        <g>
                            <g transform="matrix(1,0,0,1,14.65,34)">
                                <text x="0px" y="0px" style="font-family:'Arial-BoldMT', 'Arial', sans-serif;font-weight:700;font-size:20px;fill:rgb(44,44,44);">T<tspan x="10.732px 21.855px " y="0px 0px ">el</tspan>emarketing</text>
                            </g>
                            <g transform="matrix(1,0,0,1,37.68,58)">
                                <text x="0px" y="0px" style="font-family:'Arial-BoldMT', 'Arial', sans-serif;font-weight:700;font-size:20px;fill:rgb(44,44,44);">Agencies</text>
                            </g>
                        </g>
                    </g>
                </g>
            </g>
            <g transform="matrix(1,0,0,1,483.39,522)">
                <g id="g-root-tx_educatio_qwjdi913gi9dt-fill">
                    <g id="tx_educatio_qwjdi913gi9dt-fill">
                        <g>
                            <g>
                                <text x="0px" y="0px" style="font-family:'Arial-BoldMT', 'Arial', sans-serif;font-weight:700;font-size:20px;fill:rgb(44,44,44);">Education</text>
                            </g>
                        </g>
                    </g>
                </g>
            </g>
            <g id="g-root-tx_improved_1lqj95t13gjm6a-fill" transform="matrix(1,0,0,1,410,524)">
                <g id="tx_improved_1lqj95t13gjm6a-fill">
                    <g>
                        <g>
                            <g transform="matrix(1,0,0,1,15.49,31.2)">
                                <text x="0px" y="0px" style="font-family:'ArialMT', 'Arial', sans-serif;font-size:15px;fill:rgb(44,44,44);">Improved student engagement</text>
                            </g>
                            <g transform="matrix(1,0,0,1,24.61,49.2)">
                                <text x="0px" y="0px" style="font-family:'ArialMT', 'Arial', sans-serif;font-size:15px;fill:rgb(44,44,44);">with automated educational</text>
                            </g>
                            <g transform="matrix(1,0,0,1,88.57,67.2)">
                                <text x="0px" y="0px" style="font-family:'ArialMT', 'Arial', sans-serif;font-size:15px;fill:rgb(44,44,44);">updates.</text>
                            </g>
                        </g>
                    </g>
                </g>
            </g>
            <g id="g-root-tx_increase_18gy61t13ggv7v-fill" transform="matrix(1,0,0,1,62,548)">
                <g id="tx_increase_18gy61t13ggv7v-fill">
                    <g>
                        <g>
                            <g transform="matrix(1,0,0,1,15.65,31.2)">
                                <g transform="matrix(15,0,0,15,117.568,0)">
                                </g>
                                <g transform="matrix(15,0,0,15,121.602,0)">
                                </g>
                                <g transform="matrix(15,0,0,15,125.636,0)">
                                </g>
                                <text x="0px" y="0px" style="font-family:'ArialMT', 'Arial', sans-serif;font-size:15px;fill:rgb(44,44,44);">Increased sales eﬃciency with</text>
                            </g>
                            <g transform="matrix(1,0,0,1,51.45,49.2)">
                                <text x="0px" y="0px" style="font-family:'ArialMT', 'Arial', sans-serif;font-size:15px;fill:rgb(44,44,44);">targeted automated</text>
                            </g>
                            <g transform="matrix(1,0,0,1,78.45,67.2)">
                                <text x="0px" y="0px" style="font-family:'ArialMT', 'Arial', sans-serif;font-size:15px;fill:rgb(44,44,44);">campaigns.</text>
                            </g>
                        </g>
                    </g>
                </g>
            </g>
            <g transform="matrix(1,0,0,1,79.44,288)">
                <g id="g-root-tx_bpocallc_1d2dxy913gb953-fill">
                    <g id="tx_bpocallc_1d2dxy913gb953-fill">
                        <g>
                            <g>
                                <text x="0px" y="0px" style="font-family:'Arial-BoldMT', 'Arial', sans-serif;font-weight:700;font-size:20px;fill:rgb(44,44,44);">BPO &amp; Call Centers</text>
                            </g>
                        </g>
                    </g>
                </g>
            </g>
            <g transform="matrix(1,0,0,1,111.48,768)">
                <g id="g-root-tx_financeb_1hgyhwh13gl15a-fill">
                    <g id="tx_financeb_1hgyhwh13gl15a-fill">
                        <g>
                            <g>
                                <text x="0px" y="0px" style="font-family:'Arial-BoldMT', 'Arial', sans-serif;font-weight:700;font-size:20px;fill:rgb(44,44,44);">Finance &amp; Banking</text>
                            </g>
                        </g>
                    </g>
                </g>
            </g>
            <g transform="matrix(1,0,0,1,418.31,768)">
                <g id="g-root-tx_ecommerc_v7d63l13gcl5a-fill">
                    <g id="tx_ecommerc_v7d63l13gcl5a-fill">
                        <g>
                            <g>
                                <text x="0px" y="0px" style="font-family:'Arial-BoldMT', 'Arial', sans-serif;font-weight:700;font-size:20px;fill:rgb(44,44,44);">E-commerce &amp; Retail</text>
                            </g>
                        </g>
                    </g>
                </g>
            </g>
            <g id="g-root-tx_securean_940eu913gl0cn-fill" transform="matrix(1,0,0,1,83,770)">
                <g id="tx_securean_940eu913gl0cn-fill">
                    <g>
                        <g>
                            <g transform="matrix(1,0,0,1,14.3,28.2)">
                                <g transform="matrix(15,0,0,15,89.231,0)">
                                </g>
                                <g transform="matrix(15,0,0,15,93.265,0)">
                                </g>
                                <g transform="matrix(15,0,0,15,97.2991,0)">
                                </g>
                                <g transform="matrix(15,0,0,15,136.377,0)">
                                </g>
                                <g transform="matrix(15,0,0,15,140.544,0)">
                                </g>
                                <text x="0px" y="0px" style="font-family:'ArialMT', 'Arial', sans-serif;font-size:15px;fill:rgb(44,44,44);">Secure and eﬃcient ﬁnancial</text>
                            </g>
                            <g transform="matrix(1,0,0,1,23.48,46.2)">
                                <text x="0px" y="0px" style="font-family:'ArialMT', 'Arial', sans-serif;font-size:15px;fill:rgb(44,44,44);">communication solutions.</text>
                            </g>
                        </g>
                    </g>
                </g>
            </g>
            <g transform="matrix(1,0,0,1,494.03,288)">
                <g id="g-root-tx_healthca_8zn38h13ge231-fill">
                    <g id="tx_healthca_8zn38h13ge231-fill">
                        <g>
                            <g>
                                <text x="0px" y="0px" style="font-family:'Arial-BoldMT', 'Arial', sans-serif;font-weight:700;font-size:20px;fill:rgb(44,44,44);">Healthcare</text>
                            </g>
                        </g>
                    </g>
                </g>
            </g>
            <g id="g-root-cp_1_shape-1_8ye52913gb8cm-stroke" transform="matrix(1,0,0,1,35.5,55.8164)">
                <g id="cp_1_shape-1_8ye52913gb8cm-stroke">
                    <g>
                        <path d="M10,160.184C10,140.301 26.118,124.321 46,124.321L172,124.321C213.07,124.321 238,94.191 238,54.851L238,28.191L233.32,28.191C232.54,28.191 232.05,27.341 232.44,26.661L243.163,10.448C243.559,9.849 244.439,9.851 244.833,10.451L255.48,26.661C255.88,27.341 255.39,28.191 254.6,28.191L250,28.191L250,160.184M250,304.184C250,324.066 233.882,340.191 214,340.191L46,340.191C26.118,340.191 10,324.081 10,304.199L10,304.184M250,304.184L250,160.184M10,160.184L10,304.184" style="fill:none;stroke:rgb(44,44,44);stroke-width:2px;"/>
                    </g>
                </g>
            </g>
            <g id="g-root-cp_3_shape-3_1uoo5r513gb6ko-stroke" transform="matrix(1,0,0,1,35,350)">
                <g id="cp_3_shape-3_1uoo5r513gb6ko-stroke">
                    <g>
                        <path d="M268,10C268,46 244,64.321 214,64.321L46,64.321C26.118,64.321 10,80.423 10,100.306M280,100.306L280,10" style="fill:none;stroke:rgb(44,44,44);stroke-width:2px;"/>
                    </g>
                </g>
            </g>
            <g id="g-root-cp_3_shape-3_1_1hd7ndt13gb85m-stroke" transform="matrix(1,0,0,1,287.303,56)">
                <g id="cp_3_shape-3_1_1hd7ndt13gb85m-stroke">
                    <g>
                        <path d="M15.697,160L15.697,304M27.697,304L27.697,160M15.697,160L15.697,28.191L11.017,28.191C10.237,28.191 9.747,27.341 10.137,26.661L20.86,10.448C21.256,9.849 22.136,9.851 22.53,10.451L33.177,26.661C33.577,27.341 33.087,28.191 32.297,28.191L27.697,28.191L27.697,160" style="fill:none;stroke:rgb(44,44,44);stroke-width:2px;"/>
                    </g>
                </g>
            </g>
            <g id="g-root-cp_5_shape-5_zmk3z513gb7d0-stroke" transform="matrix(1,0,0,1,317.303,56)">
                <g id="cp_5_shape-5_zmk3z513gb7d0-stroke">
                    <g>
                        <path d="M15.697,160L15.697,304M27.697,304L27.697,160M15.697,160L15.697,28.191L11.017,28.191C10.237,28.191 9.747,27.341 10.137,26.661L20.86,10.448C21.256,9.849 22.136,9.851 22.53,10.451L33.177,26.661C33.577,27.341 33.087,28.191 32.297,28.191L27.697,28.191L27.697,160" style="fill:none;stroke:rgb(44,44,44);stroke-width:2px;"/>
                    </g>
                </g>
            </g>
            <g id="g-root-cp_2_shape-2_mb3llt13gb8xy-stroke" transform="matrix(1,0,0,1,407.878,55.8164)">
                <g id="cp_2_shape-2_mb3llt13gb8xy-stroke">
                    <g>
                        <path d="M255.622,160.184C255.622,140.301 239.505,124.321 219.623,124.321L93.622,124.321C52.552,124.321 27.622,94.191 27.622,54.851L27.622,28.191L32.302,28.191C33.082,28.191 33.572,27.341 33.182,26.661L22.459,10.448C22.063,9.849 21.184,9.851 20.79,10.451L10.142,26.661C9.742,27.341 10.232,28.191 11.022,28.191L15.622,28.191L15.622,160.184M15.622,304.184C15.622,324.066 31.74,340.184 51.622,340.184L219.623,340.183C239.505,340.183 255.622,324.081 255.622,304.199L255.622,304.184M15.622,304.184L15.622,160.184M255.622,160.184L255.622,304.184" style="fill:none;stroke:rgb(44,44,44);stroke-width:2px;"/>
                    </g>
                </g>
            </g>
            <g id="g-root-cp_4_shape-4_909kbl13gb7d4-stroke" transform="matrix(1,0,0,1,383,350)">
                <g id="cp_4_shape-4_909kbl13gb7d4-stroke">
                    <g>
                        <path d="M22,10C22,46 46,64.321 76,64.321L244,64.321C263.882,64.321 280,80.423 280,100.306M10,100.306L10,10" style="fill:none;stroke:rgb(44,44,44);stroke-width:2px;"/>
                    </g>
                </g>
            </g>
            <g id="g-root-cp_4_shape-4_1_1upx3xd13gb8qy-stroke" transform="matrix(1,0,0,1,377.383,56)">
                <g id="cp_4_shape-4_1_1upx3xd13gb8qy-stroke">
                    <g>
                        <path d="M27.622,160L27.622,304M15.622,304L15.622,160M27.622,160L27.622,28.191L32.302,28.191C33.082,28.191 33.572,27.341 33.182,26.661L22.459,10.448C22.063,9.849 21.184,9.851 20.79,10.451L10.142,26.661C9.742,27.341 10.232,28.191 11.022,28.191L15.622,28.191L15.622,160" style="fill:none;stroke:rgb(44,44,44);stroke-width:2px;"/>
                    </g>
                </g>
            </g>
            <g id="g-root-cp_6_shape-6_1hf32n513gb764-stroke" transform="matrix(1,0,0,1,347.383,56)">
                <g id="cp_6_shape-6_1hf32n513gb764-stroke">
                    <g>
                        <path d="M27.622,160L27.622,304M15.622,304L15.622,160M27.622,160L27.622,28.191L32.302,28.191C33.082,28.191 33.572,27.341 33.182,26.661L22.459,10.448C22.063,9.849 21.184,9.851 20.79,10.451L10.142,26.661C9.742,27.341 10.232,28.191 11.022,28.191L15.622,28.191L15.622,160" style="fill:none;stroke:rgb(44,44,44);stroke-width:2px;"/>
                    </g>
                </g>
            </g>
            <g id="g-root-cp_3_shape-3_2_143mk9t13gb8r2-stroke" transform="matrix(1,0,0,1,35,440)">
                <g id="cp_3_shape-3_2_143mk9t13gb8r2-stroke">
                    <g>
                        <path d="M280,165.975L280,10M10,10L10,166M280,166.008C280,185.89 263.882,202.008 244,202.008L46,202.008C26.118,202.008 10,185.905 10,166.023L10,166.008" style="fill:none;stroke:rgb(44,44,44);stroke-width:2px;"/>
                    </g>
                </g>
            </g>
            <g id="g-root-cp_5_shape-5_1_v8m14113gb75s-stroke" transform="matrix(1,0,0,1,323,350)">
                <g id="cp_5_shape-5_1_v8m14113gb75s-stroke">
                    <g>
                        <path d="M10,10L10,256M22,256L22,10" style="fill:none;stroke:rgb(44,44,44);stroke-width:2px;"/>
                    </g>
                </g>
            </g>
            <g id="g-root-cp_5_shape-5_2_hx5iqp13gb8qq-stroke" transform="matrix(1,0,0,1,35,596)">
                <g id="cp_5_shape-5_2_hx5iqp13gb8qq-stroke">
                    <g>
                        <path d="M298,10C298,45.878 274,64.137 244,64.137L46,64.137C26.118,64.137 10,80.185 10,100M310,100L310,10" style="fill:none;stroke:rgb(44,44,44);stroke-width:2px;"/>
                    </g>
                </g>
            </g>
            <g id="g-root-cp_4_shape-4_2_924zkx13gb6do-stroke" transform="matrix(1,0,0,1,383,440)">
                <g id="cp_4_shape-4_2_924zkx13gb6do-stroke">
                    <g>
                        <path d="M10,166L10,10M280,10L280,166M10,166C10,185.882 26.118,202.008 46,202.008L244,202.008C263.882,202.008 280,185.898 280,166.016L280,166" style="fill:none;stroke:rgb(44,44,44);stroke-width:2px;"/>
                    </g>
                </g>
            </g>
            <g id="g-root-cp_6_shape-6_1_1qbz12913gb8jq-stroke" transform="matrix(1,0,0,1,353,350)">
                <g id="cp_6_shape-6_1_1qbz12913gb8jq-stroke">
                    <g>
                        <path d="M22,10L22,256M10,256L10,10" style="fill:none;stroke:rgb(44,44,44);stroke-width:2px;"/>
                    </g>
                </g>
            </g>
            <g id="g-root-cp_6_shape-6_2_1lws00x13gb668-stroke" transform="matrix(1,0,0,1,353,596)">
                <g id="cp_6_shape-6_2_1lws00x13gb668-stroke">
                    <g>
                        <path d="M22,10C22,46 46,64.321 76,64.321L274,64.321C293.882,64.321 310,80.423 310,100.306M10,100.306L10,10" style="fill:none;stroke:rgb(44,44,44);stroke-width:2px;"/>
                    </g>
                </g>
            </g>
            <g id="g-root-cp_5_shape-5_3_18lbhnl13gb7r6-stroke" transform="matrix(1,0,0,1,35,686)">
                <g id="cp_5_shape-5_3_18lbhnl13gb7r6-stroke">
                    <g>
                        <path d="M310,118L310,10M10,10L10,118M310,118C310,137.882 293.882,154.008 274,154.008L46,154.008C26.118,154.008 10,137.882 10,118" style="fill:none;stroke:rgb(44,44,44);stroke-width:2px;"/>
                    </g>
                </g>
            </g>
            <g id="g-root-cp_6_shape-6_3_meug4h13gb6z0-stroke" transform="matrix(1,0,0,1,353,686)">
                <g id="cp_6_shape-6_3_meug4h13gb6z0-stroke">
                    <g>
                        <path d="M10,118L10,10M310,10L310,118M10,118C10,137.882 26.118,154.008 46,154.008L274,154.008C293.882,154.008 310,137.898 310,118.016L310,118" style="fill:none;stroke:rgb(44,44,44);stroke-width:2px;"/>
                    </g>
                </g>
            </g>
            <g id="g-root-ic_head_dfglcx13ggsuc-stroke" transform="matrix(1,0,0,1,146,428)">
                <g id="ic_head_dfglcx13ggsuc-stroke">
                    <g>
                        <path d="M51.906,35.044C51.031,39.444 48.293,43.25 44.4,45.48L44.4,57M24.4,57L24.4,50.046C20.4,50.068 18.364,49.78 16.962,48.376C15.162,46.576 15.336,39 15.336,39C15.336,39 13.63,39.064 12.336,39.012C11.884,38.99 11.467,38.765 11.2,38.4C11.018,38.007 10.949,37.57 11,37.14C10.756,33.926 15.278,28.414 15.278,26.812C15.278,16.75 24.78,11 33.4,11C42.789,10.897 50.807,17.752 52.166,27.042M30.082,31.042C30.082,34.615 32.979,37.512 36.552,37.512C40.125,37.512 43.022,34.615 43.022,31.042C43.022,27.469 40.125,24.572 36.552,24.572C32.979,24.572 30.082,27.469 30.082,31.042M33.822,36.908L31.702,40.2C30.966,41.344 29.699,42.036 28.338,42.036L26.522,42.036M41.634,27.042L55.022,27.042C56.127,27.042 57.022,27.937 57.022,29.042L57.022,33.042C57.022,34.147 56.127,35.042 55.022,35.042L41.634,35.042M22.022,42.042C22.022,43.285 23.029,44.292 24.272,44.292C25.515,44.292 26.522,43.285 26.522,42.042C26.522,40.799 25.515,39.792 24.272,39.792C23.029,39.792 22.022,40.799 22.022,42.042M43.022,31.042L52.172,31.042" style="fill:none;stroke:rgb(44,44,44);stroke-width:2px;"/>
                    </g>
                </g>
            </g>
            <g id="g-root-ic_3_hss74x13gjnr7-stroke" transform="matrix(1,0,0,1,494,428)">
                <g id="ic_3_hss74x13gjnr7-stroke">
                    <g>
                        <path d="M36,39L55,39C56.105,39 57,38.105 57,37L57,13C57,11.895 56.105,11 55,11L31,11M39.604,27L47,27M38.128,31.03L42.382,19.668C42.529,19.278 42.901,19.02 43.318,19.02C43.735,19.02 44.107,19.278 44.254,19.668L48.508,31.03M15,18C15,21.866 18.134,25 22,25C25.866,25 29,21.866 29,18C29,14.134 25.866,11 22,11C18.134,11 15,14.134 15,18ZM15.094,19.154C17.749,19.124 20.264,17.957 22,15.948C23.737,17.954 26.251,19.119 28.904,19.148M26.434,29.43L22,36.412L17.604,29.402M22,28C25.521,27.997 28.583,30.411 29.4,33.836L33,47L27.086,47L24.978,57L18.978,57L16.87,47L11,47L14.61,33.836C15.426,30.415 18.483,28.001 22,28Z" style="fill:none;stroke:rgb(44,44,44);stroke-width:2px;"/>
                    </g>
                </g>
            </g>
            <g id="g-root-ic_yuan_5vi8x13ge1vz-stroke" transform="matrix(1,0,0,1,509.5,194)">
                <g id="ic_yuan_5vi8x13ge1vz-stroke">
                    <g>
                        <path d="M28,53L13,53C11.895,53 11,52.105 11,51L11,45C11,43.895 11.895,43 13,43L37,43M16,48L27,48M37,57L32.38,52C31.85,51.387 31.584,50.589 31.643,49.781C31.701,48.973 32.078,48.22 32.69,47.69C33.303,47.16 34.101,46.894 34.909,46.952C35.718,47.011 36.47,47.387 37,48L41,52.58L41,36C41,35.204 41.316,34.441 41.879,33.879C42.441,33.316 43.205,33 44,33C44.796,33 45.559,33.316 46.121,33.879C46.684,34.441 47,35.204 47,36L47,46L49,46C51.122,46 53.157,46.843 54.657,48.343C56.157,49.843 57,51.878 57,54L57,57M22.826,16.975L17.951,16.975L17.951,21.85L22.826,21.85L22.826,16.975ZM22.826,26.15L17.951,26.15L17.951,31.025L22.826,31.025L22.826,26.15ZM32.121,16.975L27.246,16.975L27.246,21.85L32.121,21.85L32.121,16.975ZM32.121,26.15L27.246,26.15L27.246,31.025L32.121,31.025L32.121,26.15ZM37,37L15,37C13.939,37 12.922,36.579 12.171,35.828C11.421,35.078 11,34.061 11,33L11,15C11,13.939 11.421,12.922 12.171,12.172C12.922,11.421 13.939,11 15,11L47,11C48.061,11 49.078,11.421 49.828,12.172C50.578,12.922 51,13.939 51,15L51,33C51.011,33.699 50.838,34.388 50.5,35M27.234,37L23.345,43.001M37.549,16.975L37.549,20.359C37.549,20.803 37.637,21.243 37.807,21.654C37.977,22.064 38.226,22.437 38.54,22.752C38.855,23.066 39.228,23.315 39.638,23.485C40.049,23.655 40.489,23.743 40.933,23.743C41.378,23.743 41.818,23.655 42.228,23.485C42.639,23.315 43.012,23.066 43.326,22.752C43.64,22.437 43.89,22.064 44.06,21.654C44.23,21.243 44.317,20.803 44.317,20.359L44.317,16.975M40.933,23.743L40.933,30.298M37.549,27.411L44.317,27.411" style="fill:none;stroke:rgb(44,44,44);stroke-width:2px;"/>
                    </g>
                </g>
            </g>
            <g id="g-root-ic_time_1ha39y913gclxl-stroke" transform="matrix(1,0,0,1,131.5,194)">
                <g id="ic_time_1ha39y913gclxl-stroke">
                    <g>
                        <path d="M37,47C37,52.523 41.477,57 47,57C52.523,57 57,52.523 57,47C57,41.477 52.523,37 47,37C41.477,37 37,41.477 37,47ZM47,41L47,47L51,47M11,37C11.019,35.143 11.403,33.309 12.13,31.6C12.93,30 16.256,28.9 20.434,27.352C21.566,26.934 21.38,23.984 20.88,23.432C19.267,21.687 18.477,19.335 18.708,16.97C18.563,15.464 19.051,13.965 20.055,12.833C21.058,11.701 22.487,11.037 24,11C25.512,11.037 26.941,11.702 27.944,12.834C28.947,13.966 29.435,15.464 29.29,16.97C29.522,19.336 28.732,21.688 27.118,23.434C26.618,23.986 26.432,26.936 27.564,27.354C31.742,28.902 35.072,30.008 35.868,31.602C36.596,33.31 36.98,35.145 37,37.002L11,37ZM31.824,11.474C32.506,11.159 33.249,10.997 34,11C35.512,11.037 36.941,11.702 37.944,12.834C38.947,13.966 39.435,15.464 39.29,16.97C39.522,19.336 38.732,21.688 37.118,23.434C36.618,23.986 36.432,26.936 37.564,27.354C41.742,28.902 45.072,30.008 45.868,31.602C45.932,31.73 45.994,31.862 46.05,32.002" style="fill:none;stroke:rgb(44,44,44);stroke-width:2px;"/>
                    </g>
                </g>
            </g>
            <g id="g-root-ic_user_147desh13gl1qg-stroke" transform="matrix(1,0,0,1,161,674)">
                <g id="ic_user_147desh13gl1qg-stroke">
                    <g>
                        <path d="M12,19L30,19C30,19 31,19 31,20L31,32C31,32 31,33 30,33L12,33C12,33 11,33 11,32L11,20C11,20 11,19 12,19M14.38,19L16,12C16.057,11.739 16.216,11.513 16.442,11.37C16.667,11.227 16.94,11.18 17.2,11.24L34.56,15C35.104,15.12 35.451,15.654 35.34,16.2L33.12,26.38C33.061,26.642 32.904,26.871 32.68,27.02C32.459,27.156 32.195,27.205 31.94,27.16L31,26.94M18,26C18,27.657 19.343,29 21,29C22.657,29 24,27.657 24,26C24,24.343 22.657,23 21,23C19.343,23 18,24.343 18,26M47,32L47,38M51,57L52,45L57,45L57,38C57,32.477 52.523,28 47,28C41.477,28 37,32.477 37,38L37,45L42,45L43,57L51,57ZM40.96,14.44C43.15,16.721 46.178,18.007 49.34,18C50.941,18.005 52.526,17.686 54,17.06M40,18C40,21.866 43.134,25 47,25C50.866,25 54,21.866 54,18C54,14.134 50.866,11 47,11C43.134,11 40,14.134 40,18" style="fill:none;stroke:rgb(44,44,44);stroke-width:2px;"/>
                    </g>
                </g>
            </g>
            <g id="g-root-ic_hand_zqb1nl13gcljc-stroke" transform="matrix(1,0,0,1,479,674)">
                <g id="ic_hand_zqb1nl13gcljc-stroke">
                    <g>
                        <path d="M27,34L27,26.68M53,26.68L53,53C53,55.209 51.209,57 49,57L31,57C28.791,57 27,55.209 27,53L27,42M53,19L27,19M53,49L27,49M40,52.5C40.276,52.5 40.5,52.724 40.5,53C40.5,53.276 40.276,53.5 40,53.5C39.724,53.5 39.5,53.276 39.5,53C39.5,52.724 39.724,52.5 40,52.5M53.56,12.1C53.218,11.421 52.52,10.995 51.76,11L28.24,11C27.48,10.995 26.782,11.421 26.44,12.1L23,19L57,19L53.56,12.1ZM57,19L23,19L23,21C22.911,23.414 24.349,25.623 26.592,26.52C28.835,27.418 31.399,26.809 33,25C34.505,27.434 37.14,28.939 40,29C42.86,28.939 45.495,27.434 47,25C48.601,26.809 51.165,27.418 53.408,26.52C55.651,25.623 57.089,23.414 57,21L57,19ZM33,25L33,19L35,11M47,25L47,19L45,11M37,37L45.48,37C45.806,37 46.111,37.159 46.298,37.426C46.485,37.692 46.531,38.034 46.42,38.34L44.24,44.34C44.097,44.736 43.721,45 43.3,45L36.14,45C35.743,44.996 35.384,44.762 35.22,44.4L34.3,41.78M45,37L43,34M27,42L33,42C35.209,42 37,40.209 37,38C37,35.791 35.209,34 33,34L22,34M23,48C25.433,47.004 27.016,44.629 27,42M23.82,24L23,24C16.373,24 11,29.373 11,36L11,47.1C11,50.12 12.34,51.56 15,53L15,57" style="fill:none;stroke:rgb(44,44,44);stroke-width:2px;"/>
                    </g>
                </g>
            </g>
        </g>
    </g>
</svg>
