<?xml version="1.0" encoding="UTF-8" standalone="no"?>
<!DOCTYPE svg PUBLIC "-//W3C//DTD SVG 1.1//EN" "http://www.w3.org/Graphics/SVG/1.1/DTD/svg11.dtd">
<svg width="100%" height="100%" viewBox="0 0 607 612" version="1.1" xmlns="http://www.w3.org/2000/svg" xmlns:xlink="http://www.w3.org/1999/xlink" xml:space="preserve" xmlns:serif="http://www.serif.com/" style="fill-rule:evenodd;clip-rule:evenodd;stroke-linecap:round;stroke-linejoin:round;">
    <g id="items" transform="matrix(1.23116,0,0,1.23116,-70.0428,-110.309)">
        <g id="blend">
            <g id="g-root-cp_1_sign-1_hz0c0w12wj11q-fill" transform="matrix(1,0,0,1,50,122)">
                <g id="cp_1_sign-1_hz0c0w12wj11q-fill">
                    <g>
                        <path d="M10,52L28,10L28,94L10,52ZM28,10L237,10L237,94L28,94L28,10Z" style="fill:rgb(67,221,147);"/>
                    </g>
                </g>
            </g>
            <g id="g-root-cp_3_sign-3_1ly0c8012wj1mw-fill" transform="matrix(1,0,0,1,50,218)">
                <g id="cp_3_sign-3_1ly0c8012wj1mw-fill">
                    <g>
                        <path d="M10,40L28,10L28,70L10,40ZM28,10L237,10L237,70L28,70L28,10Z" style="fill:rgb(166,218,55);"/>
                    </g>
                </g>
            </g>
            <g id="g-root-cp_5_sign-5_147cstc12wj0ua-fill" transform="matrix(1,0,0,1,86,290)">
                <g id="cp_5_sign-5_147cstc12wj0ua-fill">
                    <g>
                        <path d="M10,64L28,10L28,118L10,64ZM28,10L201,10L201,118L28,118L28,10Z" style="fill:rgb(255,231,17);"/>
                    </g>
                </g>
            </g>
            <g id="g-root-cp_pole_g-pole_qvwag012wj2f8-fill" transform="matrix(1,0,0,1,275,98)">
                <g id="cp_pole_g-pole_qvwag012wj2f8-fill">
                    <g>
                        <path d="M31,346L13,346L13,460L31,460L31,459.897L24.55,459.88C24.55,459.88 25.3,453.89 17.74,452.78C25.63,449.53 28.41,454.56 28.41,454.56C28.41,454.56 27.994,447.986 31,442.2L31,346ZM13,22L31,22L31,346L13,346L13,22Z" style="fill:rgb(171,171,171);"/>
                    </g>
                </g>
                <g id="cp_pole_g-pole_qvwag012wj2f8-fill1" serif:id="cp_pole_g-pole_qvwag012wj2f8-fill">
                    <g>
                        <rect x="10" y="10" width="24" height="12" style="fill:rgb(171,171,171);"/>
                    </g>
                </g>
            </g>
            <g id="g-root-cp_pole_plant_4pf8ww12wj1n3-fill" transform="matrix(1,0,0,1,243,523)">
                <g id="cp_pole_plant_4pf8ww12wj1n3-fill">
                    <g>
                        <path d="M60.393,29.56C60.393,29.56 57.613,24.53 49.723,27.78C54.516,28.484 57.019,30.471 56.533,35.008L10,35.008C10,35.008 17.976,46.521 54.183,46.521C90.39,46.521 97.76,35.008 97.76,35.008L71.483,35.008C68.788,30.384 74.815,23.86 80.883,26.67C78.883,23.56 72.993,22.89 68.553,26C66.693,20.52 67.443,13.77 70.613,10C59.453,14.7 60.393,29.56 60.393,29.56Z" style="fill:rgb(145,187,57);"/>
                    </g>
                </g>
            </g>
            <g id="g-root-cp_2_sign-2_1uuwan412wj30h-fill" transform="matrix(1,0,0,1,297,158)">
                <g id="cp_2_sign-2_1uuwan412wj30h-fill">
                    <g>
                        <path d="M10,10L195,10L195,94L10,94L10,10ZM213,52L195,10L195,94L213,52Z" style="fill:rgb(79,145,252);"/>
                    </g>
                </g>
            </g>
            <g id="g-root-cp_4_sign-4_1ha2nz412wkg03-fill" transform="matrix(1,0,0,1,297,254)">
                <g id="cp_4_sign-4_1ha2nz412wkg03-fill">
                    <g>
                        <path d="M10,10L207,10L207,94L10,94L10,10ZM225,52L207,10L207,94L225,52Z" style="fill:rgb(26,195,251);"/>
                    </g>
                </g>
            </g>
            <g id="g-root-cp_6_sign-6_v3lmg012wkf7x-fill" transform="matrix(1,0,0,1,297,350)">
                <g id="cp_6_sign-6_v3lmg012wkf7x-fill">
                    <g>
                        <path d="M10,10L231,10L231,94L10,94L10,10ZM249,52L231,10L231,94L249,52Z" style="fill:rgb(247,148,56);"/>
                    </g>
                </g>
            </g>
            <g id="g-root-tx_boosteda_1lr549s12wlurt-fill" transform="matrix(1,0,0,1,122,140)">
                <g id="tx_boosteda_1lr549s12wlurt-fill">
                    <g>
                        <g>
                            <g transform="matrix(1,0,0,1,20.53,34)">
                                <text x="0px" y="0px" style="font-family:'ArialMT', 'Arial', sans-serif;font-size:20px;fill:rgb(44,44,44);">Boosted <tspan x="77.842px 91.182px " y="0px 0px ">Ag</tspan>ent</text>
                            </g>
                            <g transform="matrix(1,0,0,1,46.63,58)">
                                <text x="0px" y="0px" style="font-family:'ArialMT', 'Arial', sans-serif;font-size:20px;fill:rgb(44,44,44);">Productivity</text>
                            </g>
                        </g>
                    </g>
                </g>
            </g>
            <g id="g-root-tx_fasterle_qsrx0g12wub5v-fill" transform="matrix(1,0,0,1,308,176)">
                <g id="tx_fasterle_qsrx0g12wub5v-fill">
                    <g>
                        <g>
                            <g transform="matrix(1,0,0,1,12,34)">
                                <text x="0px" y="0px" style="font-family:'ArialMT', 'Arial', sans-serif;font-size:20px;fill:rgb(44,44,44);">Faster Lead</text>
                            </g>
                            <g transform="matrix(1,0,0,1,12,58)">
                                <text x="0px" y="0px" style="font-family:'ArialMT', 'Arial', sans-serif;font-size:20px;fill:rgb(44,44,44);">Conversion</text>
                            </g>
                        </g>
                    </g>
                </g>
            </g>
            <g transform="matrix(1,0,0,1,138.5,270)">
                <g id="g-root-tx_zerodown_8zmh9c12wn9jf-fill">
                    <g id="tx_zerodown_8zmh9c12wn9jf-fill">
                        <g>
                            <g>
                                <text x="0px" y="0px" style="font-family:'ArialMT', 'Arial', sans-serif;font-size:20px;fill:rgb(44,44,44);">Zero Downtime</text>
                            </g>
                        </g>
                    </g>
                </g>
            </g>
            <g id="g-root-tx_costeffi_v9udb412wvpxh-fill" transform="matrix(1,0,0,1,308,272)">
                <g id="tx_costeffi_v9udb412wvpxh-fill">
                    <g>
                        <g>
                            <g transform="matrix(1,0,0,1,12,34)">
                                <g transform="matrix(20,0,0,20,61.123,0)">
                                </g>
                                <g transform="matrix(20,0,0,20,66.5018,0)">
                                </g>
                                <g transform="matrix(20,0,0,20,71.8805,0)">
                                </g>
                                <text x="0px" y="0px" style="font-family:'ArialMT', 'Arial', sans-serif;font-size:20px;fill:rgb(44,44,44);">Cost-Eﬃcient</text>
                            </g>
                            <g transform="matrix(1,0,0,1,12,58)">
                                <text x="0px" y="0px" style="font-family:'ArialMT', 'Arial', sans-serif;font-size:20px;fill:rgb(44,44,44);">Calling</text>
                            </g>
                        </g>
                    </g>
                </g>
            </g>
            <g id="g-root-tx_enhanced_4mxckg12woo3x-fill" transform="matrix(1,0,0,1,158,308)">
                <g id="tx_enhanced_4mxckg12woo3x-fill">
                    <g>
                        <g>
                            <g transform="matrix(1,0,0,1,28.28,34)">
                                <text x="0px" y="0px" style="font-family:'ArialMT', 'Arial', sans-serif;font-size:20px;fill:rgb(44,44,44);">Enhanced</text>
                            </g>
                            <g transform="matrix(1,0,0,1,28.97,58)">
                                <text x="0px" y="0px" style="font-family:'ArialMT', 'Arial', sans-serif;font-size:20px;fill:rgb(44,44,44);">Customer</text>
                            </g>
                            <g transform="matrix(1,0,0,1,18.52,82)">
                                <text x="0px" y="0px" style="font-family:'ArialMT', 'Arial', sans-serif;font-size:20px;fill:rgb(44,44,44);">Experience</text>
                            </g>
                        </g>
                    </g>
                </g>
            </g>
            <g id="g-root-tx_scalable_13ym8rk12wc0ef-fill" transform="matrix(1,0,0,1,308,368)">
                <g id="tx_scalable_13ym8rk12wc0ef-fill">
                    <g>
                        <g>
                            <g transform="matrix(1,0,0,1,12,34)">
                                <text x="0px" y="0px" style="font-family:'ArialMT', 'Arial', sans-serif;font-size:20px;fill:rgb(44,44,44);">Scalable to <tspan x="104.15px 115.654px 126.777px " y="0px 0px 0px ">You</tspan>r</text>
                            </g>
                            <g transform="matrix(1,0,0,1,12,58)">
                                <text x="0px" y="0px" style="font-family:'ArialMT', 'Arial', sans-serif;font-size:20px;fill:rgb(44,44,44);">Needs</text>
                            </g>
                        </g>
                    </g>
                </g>
            </g>
            <g id="g-root-cp_1_sign-1_hz0c0w12wj11q-stroke" transform="matrix(1,0,0,1,50,122)">
                <g id="cp_1_sign-1_hz0c0w12wj11q-stroke">
                    <g>
                        <path d="M28,10L237,10M237,94L28,94M28,94L10,52L28,10" style="fill:none;stroke:rgb(44,44,44);stroke-width:2px;"/>
                    </g>
                </g>
            </g>
            <g id="g-root-cp_3_sign-3_1ly0c8012wj1mw-stroke" transform="matrix(1,0,0,1,50,218)">
                <g id="cp_3_sign-3_1ly0c8012wj1mw-stroke">
                    <g>
                        <path d="M28,10L237,10M237,70L28,70M28,70L10,40L28,10" style="fill:none;stroke:rgb(44,44,44);stroke-width:2px;"/>
                    </g>
                </g>
            </g>
            <g id="g-root-cp_5_sign-5_147cstc12wj0ua-stroke" transform="matrix(1,0,0,1,86,290)">
                <g id="cp_5_sign-5_147cstc12wj0ua-stroke">
                    <g>
                        <path d="M28,10L201,10M201,118L28,118M28,118L10,64L28,10" style="fill:none;stroke:rgb(44,44,44);stroke-width:2px;"/>
                    </g>
                </g>
            </g>
            <g id="g-root-cp_pole_g-pole_qvwag012wj2f8-stroke" transform="matrix(1,0,0,1,275,98)">
                <g id="cp_pole_g-pole_qvwag012wj2f8-stroke">
                    <g>
                        <path d="M31,442L31,346M13,459L13,346M31,346L31,22M13,346L13,22" style="fill:none;stroke:rgb(44,44,44);stroke-width:2px;"/>
                    </g>
                </g>
                <g id="cp_pole_g-pole_qvwag012wj2f8-stroke1" serif:id="cp_pole_g-pole_qvwag012wj2f8-stroke">
                    <g>
                        <rect x="10" y="10" width="24" height="12" style="fill:none;stroke:rgb(44,44,44);stroke-width:2px;"/>
                    </g>
                </g>
            </g>
            <g id="g-root-cp_pole_plant_4pf8ww12wj1n3-stroke" transform="matrix(1,0,0,1,243,523)">
                <g id="cp_pole_plant_4pf8ww12wj1n3-stroke">
                    <g>
                        <path d="M56.55,34.88C56.55,34.88 57.3,28.89 49.74,27.78C57.63,24.53 60.41,29.56 60.41,29.56C60.41,29.56 59.47,14.7 70.63,10C67.46,13.77 66.71,20.52 68.57,26C73.01,22.89 78.9,23.56 80.9,26.67C76.68,24.44 69.89,28.468 71,34.918M71,34.918L98,34.918M10,34.918L56.5,34.918" style="fill:none;stroke:rgb(44,44,44);stroke-width:2px;"/>
                    </g>
                </g>
            </g>
            <g id="g-root-cp_2_sign-2_1uuwan412wj30h-stroke" transform="matrix(1,0,0,1,297,158)">
                <g id="cp_2_sign-2_1uuwan412wj30h-stroke">
                    <g>
                        <path d="M195,94L10,94M10,10L195,10M195,10L213,52L195,94" style="fill:none;stroke:rgb(44,44,44);stroke-width:2px;"/>
                    </g>
                </g>
            </g>
            <g id="g-root-cp_4_sign-4_1ha2nz412wkg03-stroke" transform="matrix(1,0,0,1,297,254)">
                <g id="cp_4_sign-4_1ha2nz412wkg03-stroke">
                    <g>
                        <path d="M207,94L10,94M10,10L207,10M207,10L225,52L207,94" style="fill:none;stroke:rgb(44,44,44);stroke-width:2px;"/>
                    </g>
                </g>
            </g>
            <g id="g-root-cp_6_sign-6_v3lmg012wkf7x-stroke" transform="matrix(1,0,0,1,297,350)">
                <g id="cp_6_sign-6_v3lmg012wkf7x-stroke">
                    <g>
                        <path d="M231,94L10,94M10,10L231,10M231,10L249,52L231,94" style="fill:none;stroke:rgb(44,44,44);stroke-width:2px;"/>
                    </g>
                </g>
            </g>
            <g id="g-root-ic_pick_1lr549s12wkhe0-stroke" transform="matrix(1,0,0,1,74,146)">
                <g id="ic_pick_1lr549s12wkhe0-stroke">
                    <g>
                        <path d="M37.873,32.172C39.412,32.3 40.595,33.589 40.591,35.134C40.587,36.679 39.398,37.962 37.858,38.083M43.284,45.058C42.231,43.019 40.175,41.691 37.883,41.569M23.352,33.85C23.351,36.623 25.599,38.871 28.372,38.871C31.145,38.871 33.393,36.623 33.392,33.85C33.393,31.077 31.145,28.829 28.372,28.829C25.599,28.829 23.351,31.077 23.351,33.85M20.676,45.25C21.837,42.059 24.846,39.915 28.242,39.861C31.637,39.807 34.714,41.854 35.976,45.007M18.127,32.172C16.588,32.3 15.405,33.589 15.409,35.134C15.413,36.679 16.602,37.962 18.142,38.083M12.717,45.058C13.769,43.019 15.825,41.691 18.117,41.569M25.174,17.617C25.174,19.358 26.585,20.769 28.326,20.769C30.066,20.769 31.477,19.358 31.477,17.617C31.477,15.876 30.066,14.466 28.326,14.466C26.585,14.466 25.174,15.876 25.174,17.617M25.362,18.691L20.404,23.253L22.843,26.793M31.289,18.691L36.249,23.253L33.808,26.793M28.326,14.466L28.326,10.75" style="fill:none;stroke:rgb(44,44,44);stroke-width:2px;"/>
                    </g>
                </g>
            </g>
            <g id="g-root-ic_spee_4osrts12won46-stroke" transform="matrix(1,0,0,1,440,182)">
                <g id="ic_spee_4osrts12won46-stroke">
                    <g>
                        <path d="M10.75,28C10.75,37.527 18.473,45.25 28,45.25C37.527,45.25 45.25,37.527 45.25,28C45.25,18.473 37.527,10.75 28,10.75C18.473,10.75 10.75,18.473 10.75,28M25.75,28C25.75,29.243 26.757,30.25 28,30.25C29.243,30.25 30.25,29.243 30.25,28C30.25,26.757 29.243,25.75 28,25.75C26.757,25.75 25.75,26.757 25.75,28M29.591,26.41L37.015,18.985M13.666,27.25L16.666,27.25M14.833,33.452L17.607,32.305M41.164,33.454L38.394,32.305M42.249,27.25L39.25,27.248M41.164,22.548L38.394,23.695M34.399,14.836L33.25,17.605M28.75,14.028L28.75,17.028M22.548,14.835L23.695,17.605M17.924,17.923L20.044,20.044M14.836,22.546L17.607,23.695M22,34.75L34,34.75C34,34.75 34.75,34.75 34.75,35.5L34.75,38.5C34.75,38.5 34.75,39.25 34,39.25L22,39.25C22,39.25 21.25,39.25 21.25,38.5L21.25,35.5C21.25,35.5 21.25,34.75 22,34.75" style="fill:none;stroke:rgb(44,44,44);stroke-width:2px;"/>
                    </g>
                </g>
            </g>
            <g id="g-root-ic_2_4ik0yo12wluru-stroke" transform="matrix(1,0,0,1,74,230)">
                <g id="ic_2_4ik0yo12wluru-stroke">
                    <g>
                        <path d="M19.927,27.994L28.006,27.994L33.882,35.338M37.184,40.478C37.184,41.715 38.187,42.718 39.424,42.718C40.661,42.718 41.664,41.715 41.663,40.478C41.664,39.242 40.661,38.239 39.424,38.239C38.187,38.239 37.184,39.242 37.184,40.478M11.673,23.82C12.141,21.966 12.921,20.206 13.98,18.615M17.568,14.752C19.06,13.555 20.754,12.633 22.57,12.031M27.763,11.131C29.674,11.115 31.574,11.413 33.388,12.012M38.05,14.46C39.585,15.599 40.92,16.986 42,18.563M44.218,23.35C44.745,25.188 44.959,27.102 44.849,29.011M43.718,34.158C43.061,35.86 42.107,37.431 40.9,38.8M34.275,43.666C29.076,45.741 23.186,45.105 18.551,41.967C13.915,38.829 11.136,33.598 11.131,28" style="fill:none;stroke:rgb(44,44,44);stroke-width:2px;"/>
                    </g>
                </g>
            </g>
            <g id="g-root-ic_decr_1lwre1s12wu9dw-stroke" transform="matrix(1,0,0,1,452,278)">
                <g id="ic_decr_1lwre1s12wu9dw-stroke">
                    <g>
                        <path d="M44.875,27.55C39.775,12.25 38.725,11.5 35.575,11.5L35.575,15.85L28.225,19.6C27.475,19.9 27.025,20.65 27.025,21.55L27.025,22.3C27.025,24.7 28.975,26.65 31.375,26.65L33.475,26.65L33.475,34.9M33.475,31.9L44.125,25.6M15.925,21.55C16.525,22.45 17.575,22.9 18.625,22.9C20.275,22.9 21.625,21.85 21.625,20.65C21.625,19.45 20.275,18.4 18.625,18.4C16.975,18.4 15.625,17.35 15.625,16.15C15.625,14.95 16.975,13.9 18.625,13.9C19.675,13.9 20.875,14.35 21.325,15.25M18.625,22.9L18.625,24.4M18.625,12.25L18.625,13.906M35.274,44.499L25.525,34.75C25.075,34.3 24.325,34.3 23.875,34.75L21.025,37.6C20.575,38.05 19.825,38.05 19.375,37.6L11.125,29.35M29.575,44.5L35.275,44.5L35.275,38.8" style="fill:none;stroke:rgb(44,44,44);stroke-width:2px;"/>
                    </g>
                </g>
            </g>
            <g id="g-root-ic_2_znsg6812wn8jo-stroke" transform="matrix(1,0,0,1,110,326)">
                <g id="ic_2_znsg6812wn8jo-stroke">
                    <g>
                        <path d="M25.375,16.375C17.575,16.375 11.125,22.825 11.125,30.625C11.125,38.425 17.575,44.875 25.375,44.875C33.175,44.875 39.625,38.425 39.625,30.625M18.025,34.975C19.375,37.825 22.075,39.625 25.375,39.625C28.675,39.625 31.375,37.825 32.725,34.975M37.375,26.125C41.517,26.125 44.875,22.767 44.875,18.625C44.875,14.483 41.517,11.125 37.375,11.125C33.233,11.125 29.875,14.483 29.875,18.625C29.875,22.767 33.233,26.125 37.375,26.125ZM37.375,15.625L37.375,21.625M34.375,18.625L40.375,18.625M19.75,29.125C19.439,29.125 19.188,28.873 19.188,28.563C19.188,28.252 19.439,28 19.75,28M19.75,29.125C20.061,29.125 20.313,28.873 20.313,28.563C20.313,28.252 20.061,28 19.75,28M31,29.125C30.689,29.125 30.438,28.873 30.438,28.563C30.438,28.252 30.689,28 31,28M31,29.125C31.311,29.125 31.563,28.873 31.563,28.563C31.563,28.252 31.311,28 31,28" style="fill:none;stroke:rgb(44,44,44);stroke-width:2px;"/>
                    </g>
                </g>
            </g>
            <g id="g-root-ic_poin_qvwag012wvoy6-stroke" transform="matrix(1,0,0,1,476,374)">
                <g id="ic_poin_qvwag012wvoy6-stroke">
                    <g>
                        <path d="M21.25,44.5L21.25,22.75L34.75,22.75L34.75,44.5M39.25,29.5L44.5,29.5L44.5,44.5M16.75,29.5L11.5,29.5L11.5,44.5M24.1,14.875L28,18.625L31.9,14.875M28,11.125L28,18.625" style="fill:none;stroke:rgb(44,44,44);stroke-width:2px;"/>
                    </g>
                </g>
            </g>
        </g>
    </g>
</svg>
