<?xml version="1.0" encoding="UTF-8" standalone="no"?>
<!DOCTYPE svg PUBLIC "-//W3C//DTD SVG 1.1//EN" "http://www.w3.org/Graphics/SVG/1.1/DTD/svg11.dtd">
<svg width="100%" height="100%" viewBox="0 0 702 894" version="1.1" xmlns="http://www.w3.org/2000/svg" xmlns:xlink="http://www.w3.org/1999/xlink" xml:space="preserve" xmlns:serif="http://www.serif.com/" style="fill-rule:evenodd;clip-rule:evenodd;stroke-linecap:round;stroke-linejoin:round;">
    <g id="items" transform="matrix(1.09033,0,0,1.09033,-31.7074,-51.4556)">
        <g id="blend">
            <g id="g-root-cp_5_shape-5_qqxdxrabm1vn-fill" transform="matrix(1,0,0,1,314.303,68)">
                <g id="cp_5_shape-5_qqxdxrabm1vn-fill">
                    <g>
                        <path d="M27.697,316L15.697,316L15.697,160L27.697,160L27.697,316ZM32.297,28.191L27.697,28.191L27.697,160L15.697,160L15.697,28.191L11.017,28.191C10.237,28.191 9.747,27.341 10.137,26.661L20.86,10.448C21.256,9.849 22.136,9.851 22.53,10.451L33.177,26.661C33.577,27.341 33.087,28.191 32.297,28.191Z" style="fill:rgb(203,104,249);"/>
                    </g>
                </g>
            </g>
            <g id="g-root-cp_1_shape-1_4kgcenabm13h-fill" transform="matrix(1,0,0,1,32,67.8164)">
                <g id="cp_1_shape-1_4kgcenabm13h-fill">
                    <g>
                        <path d="M214,352.184L46,352.183C26.118,352.183 10,336.081 10,316.199L10,316.184L250,316.184C250,336.066 233.882,352.184 214,352.184ZM254.6,28.375L250,28.375L250,160.184L10,160.184C10,140.302 26.118,124.505 46,124.505L172,124.505C213.07,124.505 238,94.374 238,55.034L238,28.374L233.32,28.374C232.54,28.374 232.05,27.524 232.44,26.844L243.163,10.632C243.559,10.033 244.439,10.034 244.833,10.635L255.48,26.844C255.88,27.525 255.39,28.375 254.6,28.375ZM250,160.184L250,316.184L10,316.184L10,160.184L250,160.184Z" style="fill:rgb(255,231,17);"/>
                    </g>
                </g>
            </g>
            <g id="g-root-cp_3_shape-3_1qa3w0fabm2hb-fill" transform="matrix(1,0,0,1,284.303,68)">
                <g id="cp_3_shape-3_1qa3w0fabm2hb-fill">
                    <g>
                        <path d="M27.697,316L15.697,316L15.697,160L27.697,160L27.697,316ZM32.297,28.191L27.697,28.191L27.697,160L15.697,160L15.697,28.191L11.017,28.191C10.237,28.191 9.747,27.341 10.137,26.661L20.86,10.448C21.256,9.849 22.136,9.851 22.53,10.451L33.177,26.661C33.577,27.341 33.087,28.191 32.297,28.191Z" style="fill:rgb(251,103,98);"/>
                    </g>
                </g>
            </g>
            <g id="g-root-cp_3_shape-3_1_1hf3cunabm0w1-fill" transform="matrix(1,0,0,1,32,374)">
                <g id="cp_3_shape-3_1_1hf3cunabm0w1-fill">
                    <g>
                        <path d="M214,64.321C244,64.321 268,46 268,10L280,10L280,100.306L10,100.306C10,80.423 26.118,64.321 46,64.321L214,64.321Z" style="fill:rgb(251,103,98);"/>
                    </g>
                </g>
            </g>
            <g id="g-root-cp_5_shape-5_1_143muhbabm2gz-fill" transform="matrix(1,0,0,1,320,374)">
                <g id="cp_5_shape-5_1_143muhbabm2gz-fill">
                    <g>
                        <rect x="10" y="10" width="12" height="198" style="fill:rgb(203,104,249);"/>
                    </g>
                </g>
            </g>
            <g id="g-root-cp_3_shape-3_2_v7zu8fabm39p-fill" transform="matrix(1,0,0,1,32,464)">
                <g id="cp_3_shape-3_2_v7zu8fabm39p-fill">
                    <g>
                        <path d="M280,10L280,117.982L10,117.982L10,10L280,10ZM244,154.008L46,154.008C26.118,154.008 10,137.906 10,118.023L10,118.008L280,118.008C280,137.89 263.882,154.008 244,154.008Z" style="fill:rgb(251,103,98);"/>
                    </g>
                </g>
            </g>
            <g id="g-root-cp_5_shape-5_2_dhcatrabm2h3-fill" transform="matrix(1,0,0,1,32,572)">
                <g id="cp_5_shape-5_2_dhcatrabm2h3-fill">
                    <g>
                        <path d="M244,64.137C274,64.137 298,45.878 298,10L310,10L310,100L10,100C10,80.185 26.118,64.137 46,64.137L244,64.137Z" style="fill:rgb(203,104,249);"/>
                    </g>
                </g>
            </g>
            <g id="g-root-cp_5_shape-5_3_6i9jjabm0w9-fill" transform="matrix(1,0,0,1,32,662)">
                <g id="cp_5_shape-5_3_6i9jjabm0w9-fill">
                    <g>
                        <path d="M310,10L310,118L10,118L10,10L310,10ZM274,154.008L46,154.008C26.118,154.008 10,137.882 10,118L310,118C310,137.882 293.882,154.008 274,154.008Z" style="fill:rgb(203,104,249);"/>
                    </g>
                </g>
            </g>
            <g id="g-root-cp_2_shape-2_1lw5t5babm2a3-fill" transform="matrix(1,0,0,1,404.378,67.8164)">
                <g id="cp_2_shape-2_1lw5t5babm2a3-fill">
                    <g>
                        <path d="M51.622,352.184L219.622,352.184C239.504,352.184 255.622,336.081 255.622,316.199L255.622,316.184L15.622,316.184C15.622,336.066 31.74,352.184 51.622,352.184ZM11.022,28.375L15.622,28.375L15.622,160.184L255.622,160.184C255.622,140.302 239.505,124.505 219.623,124.505L93.622,124.505C52.552,124.505 27.622,94.374 27.622,55.034L27.622,28.374L32.302,28.374C33.082,28.374 33.572,27.524 33.182,26.844L22.459,10.632C22.063,10.033 21.184,10.034 20.79,10.635L10.142,26.844C9.742,27.525 10.232,28.375 11.022,28.375ZM15.622,160.184L15.622,316.184L255.622,316.184L255.622,160.184L15.622,160.184Z" style="fill:rgb(247,148,56);"/>
                    </g>
                </g>
            </g>
            <g id="g-root-cp_4_shape-4_18lbrv3abm0p9-fill" transform="matrix(1,0,0,1,374.383,68)">
                <g id="cp_4_shape-4_18lbrv3abm0p9-fill">
                    <g>
                        <path d="M15.623,316L27.623,316L27.623,160L15.623,160L15.623,316ZM11.022,28.191L15.622,28.191L15.622,160L27.622,160L27.622,28.191L32.302,28.191C33.082,28.191 33.572,27.341 33.182,26.661L22.459,10.448C22.063,9.849 21.184,9.851 20.79,10.451L10.142,26.661C9.742,27.341 10.232,28.191 11.022,28.191Z" style="fill:rgb(243,102,187);"/>
                    </g>
                </g>
            </g>
            <g id="g-root-cp_6_shape-6_v9v9hrabm2a7-fill" transform="matrix(1,0,0,1,344.383,68)">
                <g id="cp_6_shape-6_v9v9hrabm2a7-fill">
                    <g>
                        <path d="M15.623,316L27.623,316L27.623,160L15.623,160L15.623,316ZM11.022,28.191L15.622,28.191L15.622,160L27.622,160L27.622,28.191L32.302,28.191C33.082,28.191 33.572,27.341 33.182,26.661L22.459,10.448C22.063,9.849 21.184,9.851 20.79,10.451L10.142,26.661C9.742,27.341 10.232,28.191 11.022,28.191Z" style="fill:rgb(135,105,253);"/>
                    </g>
                </g>
            </g>
            <g id="g-root-cp_4_shape-4_1_qu1rdbabm32h-fill" transform="matrix(1,0,0,1,380,374)">
                <g id="cp_4_shape-4_1_qu1rdbabm32h-fill">
                    <g>
                        <path d="M76,64.321C46,64.321 22,46 22,10L10,10L10,100.306L280,100.306C280,80.423 263.882,64.321 244,64.321L76,64.321Z" style="fill:rgb(243,102,187);"/>
                    </g>
                </g>
            </g>
            <g id="g-root-cp_4_shape-4_2_dj7q33abm1hn-fill" transform="matrix(1,0,0,1,380,464)">
                <g id="cp_4_shape-4_2_dj7q33abm1hn-fill">
                    <g>
                        <path d="M10,10L10,142L280,142L280,10L10,10ZM46,178L244,178C263.882,178 280,161.898 280,142.016L280,142L10,142C10,161.882 26.118,178 46,178Z" style="fill:rgb(243,102,187);"/>
                    </g>
                </g>
            </g>
            <g id="g-root-cp_6_shape-6_1_7r7prabm32l-fill" transform="matrix(1,0,0,1,350,374)">
                <g id="cp_6_shape-6_1_7r7prabm32l-fill">
                    <g>
                        <rect x="10" y="10" width="12" height="222" style="fill:rgb(135,105,253);"/>
                    </g>
                </g>
            </g>
            <g id="g-root-cp_6_shape-6_2_1ut1rkfabm3nr-fill" transform="matrix(1,0,0,1,350,596)">
                <g id="cp_6_shape-6_2_1ut1rkfabm3nr-fill">
                    <g>
                        <path d="M76,64.321C46,64.321 22,46 22,10L10,10L10,100.306L310,100.306C310,80.423 293.882,64.321 274,64.321L76,64.321Z" style="fill:rgb(135,105,253);"/>
                    </g>
                </g>
            </g>
            <g id="g-root-cp_6_shape-6_3_1hi7qa7abm22x-fill" transform="matrix(1,0,0,1,350,686)">
                <g id="cp_6_shape-6_3_1hi7qa7abm22x-fill">
                    <g>
                        <path d="M10,10L10,118L310,118L310,10L10,10ZM46,154L274,154C293.882,154 310,137.898 310,118.016L310,118L10,118C10,137.882 26.118,154 46,154Z" style="fill:rgb(135,105,253);"/>
                    </g>
                </g>
            </g>
            <g id="g-root-tx_reliable_qtfaa7abqb5y-fill" transform="matrix(1,0,0,1,440,326)">
                <g id="tx_reliable_qtfaa7abqb5y-fill">
                    <g>
                        <g>
                            <g transform="matrix(1,0,0,1,12.31,31.2)">
                                <text x="0px" y="0px" style="font-family:'ArialMT', 'Arial', sans-serif;font-size:15px;fill:rgb(44,44,44);">Reliable authentication for</text>
                            </g>
                            <g transform="matrix(1,0,0,1,23.57,49.2)">
                                <text x="0px" y="0px" style="font-family:'ArialMT', 'Arial', sans-serif;font-size:15px;fill:rgb(44,44,44);">government and public</text>
                            </g>
                            <g transform="matrix(1,0,0,1,48.38,67.2)">
                                <text x="0px" y="0px" style="font-family:'ArialMT', 'Arial', sans-serif;font-size:15px;fill:rgb(44,44,44);">service access.</text>
                            </g>
                        </g>
                    </g>
                </g>
            </g>
            <g id="g-root-tx_secureot_13yn1sfabnh8l-fill" transform="matrix(1,0,0,1,62,326)">
                <g id="tx_secureot_13yn1sfabnh8l-fill">
                    <g>
                        <g>
                            <g transform="matrix(1,0,0,1,15.27,31.2)">
                                <text x="0px" y="0px" style="font-family:'ArialMT', 'Arial', sans-serif;font-size:15px;fill:rgb(44,44,44);">Secure OTP<tspan x="82.258px 86.426px " y="0px 0px "> s</tspan>olutions for</text>
                            </g>
                            <g transform="matrix(1,0,0,1,27.38,49.2)">
                                <g transform="matrix(15,0,0,15,85.9058,0)">
                                </g>
                                <g transform="matrix(15,0,0,15,90.0732,0)">
                                </g>
                                <text x="0px" y="0px" style="font-family:'ArialMT', 'Arial', sans-serif;font-size:15px;fill:rgb(44,44,44);">banking and ﬁnancial</text>
                            </g>
                            <g transform="matrix(1,0,0,1,54.65,67.2)">
                                <text x="0px" y="0px" style="font-family:'ArialMT', 'Arial', sans-serif;font-size:15px;fill:rgb(44,44,44);">transactions.</text>
                            </g>
                        </g>
                    </g>
                </g>
            </g>
            <g id="g-root-tx_governme_5vsgfabq8zx-fill" transform="matrix(1,0,0,1,458,266)">
                <g id="tx_governme_5vsgfabq8zx-fill">
                    <g>
                        <g>
                            <g transform="matrix(1,0,0,1,17.84,34)">
                                <text x="0px" y="0px" style="font-family:'Arial-BoldMT', 'Arial', sans-serif;font-weight:700;font-size:20px;fill:rgb(44,44,44);">Government &amp;</text>
                            </g>
                            <g transform="matrix(1,0,0,1,12.57,58)">
                                <text x="0px" y="0px" style="font-family:'Arial-BoldMT', 'Arial', sans-serif;font-weight:700;font-size:20px;fill:rgb(44,44,44);">Public Services</text>
                            </g>
                        </g>
                    </g>
                </g>
            </g>
            <g transform="matrix(1,0,0,1,107.01,546)">
                <g id="g-root-tx_saasplat_hyer4fabni13-fill">
                    <g id="tx_saasplat_hyer4fabni13-fill">
                        <g>
                            <g>
                                <text x="0px" y="0px" style="font-family:'Arial-BoldMT', 'Arial', sans-serif;font-weight:700;font-size:20px;fill:rgb(44,44,44);">SaaS Platforms</text>
                            </g>
                        </g>
                    </g>
                </g>
            </g>
            <g transform="matrix(1,0,0,1,467.69,546)">
                <g id="g-root-tx_ecommerc_1q9hexbabroqw-fill">
                    <g id="tx_ecommerc_1q9hexbabroqw-fill">
                        <g>
                            <g>
                                <text x="0px" y="0px" style="font-family:'Arial-BoldMT', 'Arial', sans-serif;font-weight:700;font-size:20px;fill:rgb(44,44,44);">E-commerce</text>
                            </g>
                        </g>
                    </g>
                </g>
            </g>
            <g id="g-root-tx_seamless_mg3oi7abng94-fill" transform="matrix(1,0,0,1,65,548)">
                <g id="tx_seamless_mg3oi7abng94-fill">
                    <g>
                        <g>
                            <g transform="matrix(1,0,0,1,12.47,28.2)">
                                <text x="0px" y="0px" style="font-family:'ArialMT', 'Arial', sans-serif;font-size:15px;fill:rgb(44,44,44);">Seamless OTP<tspan x="100.591px 104.758px " y="0px 0px "> i</tspan>ntegration for</text>
                            </g>
                            <g transform="matrix(1,0,0,1,32.93,46.2)">
                                <text x="0px" y="0px" style="font-family:'ArialMT', 'Arial', sans-serif;font-size:15px;fill:rgb(44,44,44);">SaaS platform security<tspan x="149.78px " y="0px ">.</tspan></text>
                            </g>
                        </g>
                    </g>
                </g>
            </g>
            <g id="g-root-tx_enhanced_4l2thrabrpj5-fill" transform="matrix(1,0,0,1,413,548)">
                <g id="tx_enhanced_4l2thrabrpj5-fill">
                    <g>
                        <g>
                            <g transform="matrix(1,0,0,1,29.92,31.2)">
                                <text x="0px" y="0px" style="font-family:'ArialMT', 'Arial', sans-serif;font-size:15px;fill:rgb(44,44,44);">Enhanced security for e-</text>
                            </g>
                            <g transform="matrix(1,0,0,1,16.75,49.2)">
                                <text x="0px" y="0px" style="font-family:'ArialMT', 'Arial', sans-serif;font-size:15px;fill:rgb(44,44,44);">commerce transactions and</text>
                            </g>
                            <g transform="matrix(1,0,0,1,55,67.2)">
                                <g transform="matrix(15,0,0,15,57.5171,0)">
                                </g>
                                <g transform="matrix(15,0,0,15,61.6846,0)">
                                </g>
                                <text x="0px" y="0px" style="font-family:'ArialMT', 'Arial', sans-serif;font-size:15px;fill:rgb(44,44,44);">user veriﬁcation.</text>
                            </g>
                        </g>
                    </g>
                </g>
            </g>
            <g id="g-root-tx_bankingf_9mmz3abm230-fill" transform="matrix(1,0,0,1,68,266)">
                <g id="tx_bankingf_9mmz3abm230-fill">
                    <g>
                        <g>
                            <g transform="matrix(1,0,0,1,48.28,34)">
                                <text x="0px" y="0px" style="font-family:'Arial-BoldMT', 'Arial', sans-serif;font-weight:700;font-size:20px;fill:rgb(44,44,44);">Banking &amp;</text>
                            </g>
                            <g transform="matrix(1,0,0,1,12.18,58)">
                                <text x="0px" y="0px" style="font-family:'Arial-BoldMT', 'Arial', sans-serif;font-weight:700;font-size:20px;fill:rgb(44,44,44);">Financial Services</text>
                            </g>
                        </g>
                    </g>
                </g>
            </g>
            <g transform="matrix(1,0,0,1,143.03,744)">
                <g id="g-root-tx_healthca_hyer4fabovey-fill">
                    <g id="tx_healthca_hyer4fabovey-fill">
                        <g>
                            <g>
                                <text x="0px" y="0px" style="font-family:'Arial-BoldMT', 'Arial', sans-serif;font-weight:700;font-size:20px;fill:rgb(44,44,44);">Healthcare</text>
                            </g>
                        </g>
                    </g>
                </g>
            </g>
            <g id="g-root-tx_robustau_1unfhsfabt344-fill" transform="matrix(1,0,0,1,380,770)">
                <g id="tx_robustau_1unfhsfabt344-fill">
                    <g>
                        <g>
                            <g transform="matrix(1,0,0,1,26.9,28.2)">
                                <text x="0px" y="0px" style="font-family:'ArialMT', 'Arial', sans-serif;font-size:15px;fill:rgb(44,44,44);">Robust authentication for retail</text>
                            </g>
                            <g transform="matrix(1,0,0,1,14.78,46.2)">
                                <text x="0px" y="0px" style="font-family:'ArialMT', 'Arial', sans-serif;font-size:15px;fill:rgb(44,44,44);">customer and transaction security<tspan x="223.154px " y="0px ">.</tspan></text>
                            </g>
                        </g>
                    </g>
                </g>
            </g>
            <g transform="matrix(1,0,0,1,484.16,768)">
                <g id="g-root-tx_retail_qofhlbabt2iz-fill">
                    <g id="tx_retail_qofhlbabt2iz-fill">
                        <g>
                            <g>
                                <text x="0px" y="0px" style="font-family:'Arial-BoldMT', 'Arial', sans-serif;font-weight:700;font-size:20px;fill:rgb(44,44,44);">Retail</text>
                            </g>
                        </g>
                    </g>
                </g>
            </g>
            <g id="g-root-tx_secureac_mfh7f3abowsr-fill" transform="matrix(1,0,0,1,80,746)">
                <g id="tx_secureac_mfh7f3abowsr-fill">
                    <g>
                        <g>
                            <g transform="matrix(1,0,0,1,16.26,28.2)">
                                <text x="0px" y="0px" style="font-family:'ArialMT', 'Arial', sans-serif;font-size:15px;fill:rgb(44,44,44);">Secure access to healthcare</text>
                            </g>
                            <g transform="matrix(1,0,0,1,23.97,46.2)">
                                <text x="0px" y="0px" style="font-family:'ArialMT', 'Arial', sans-serif;font-size:15px;fill:rgb(44,44,44);">systems and patient data.</text>
                            </g>
                        </g>
                    </g>
                </g>
            </g>
            <g id="g-root-cp_5_shape-5_qqxdxrabm1vn-stroke" transform="matrix(1,0,0,1,314.303,68)">
                <g id="cp_5_shape-5_qqxdxrabm1vn-stroke">
                    <g>
                        <path d="M15.697,160L15.697,316M27.697,316L27.697,160M15.697,160L15.697,28.191L11.017,28.191C10.237,28.191 9.747,27.341 10.137,26.661L20.86,10.448C21.256,9.849 22.136,9.851 22.53,10.451L33.177,26.661C33.577,27.341 33.087,28.191 32.297,28.191L27.697,28.191L27.697,160" style="fill:none;stroke:rgb(44,44,44);stroke-width:2px;"/>
                    </g>
                </g>
            </g>
            <g id="g-root-cp_1_shape-1_4kgcenabm13h-stroke" transform="matrix(1,0,0,1,32,67.8164)">
                <g id="cp_1_shape-1_4kgcenabm13h-stroke">
                    <g>
                        <path d="M10,160.184C10,140.301 26.118,124.321 46,124.321L172,124.321C213.07,124.321 238,94.191 238,54.851L238,28.191L233.32,28.191C232.54,28.191 232.05,27.341 232.44,26.661L243.163,10.448C243.559,9.849 244.439,9.851 244.833,10.451L255.48,26.661C255.88,27.341 255.39,28.191 254.6,28.191L250,28.191L250,160.184M250,316.184C250,336.066 233.882,352.191 214,352.191L46,352.191C26.118,352.191 10,336.081 10,316.199L10,316.184M250,316.184L250,160.184M10,160.184L10,316.184" style="fill:none;stroke:rgb(44,44,44);stroke-width:2px;"/>
                    </g>
                </g>
            </g>
            <g id="g-root-cp_3_shape-3_1qa3w0fabm2hb-stroke" transform="matrix(1,0,0,1,284.303,68)">
                <g id="cp_3_shape-3_1qa3w0fabm2hb-stroke">
                    <g>
                        <path d="M15.697,160L15.697,316M27.697,316L27.697,160M15.697,160L15.697,28.191L11.017,28.191C10.237,28.191 9.747,27.341 10.137,26.661L20.86,10.448C21.256,9.849 22.136,9.851 22.53,10.451L33.177,26.661C33.577,27.341 33.087,28.191 32.297,28.191L27.697,28.191L27.697,160" style="fill:none;stroke:rgb(44,44,44);stroke-width:2px;"/>
                    </g>
                </g>
            </g>
            <g id="g-root-cp_3_shape-3_1_1hf3cunabm0w1-stroke" transform="matrix(1,0,0,1,32,374)">
                <g id="cp_3_shape-3_1_1hf3cunabm0w1-stroke">
                    <g>
                        <path d="M268,10C268,46 244,64.321 214,64.321L46,64.321C26.118,64.321 10,80.423 10,100.306M280,100.306L280,10" style="fill:none;stroke:rgb(44,44,44);stroke-width:2px;"/>
                    </g>
                </g>
            </g>
            <g id="g-root-cp_5_shape-5_1_143muhbabm2gz-stroke" transform="matrix(1,0,0,1,320,374)">
                <g id="cp_5_shape-5_1_143muhbabm2gz-stroke">
                    <g>
                        <path d="M10,10L10,208M22,208L22,10" style="fill:none;stroke:rgb(44,44,44);stroke-width:2px;"/>
                    </g>
                </g>
            </g>
            <g id="g-root-cp_3_shape-3_2_v7zu8fabm39p-stroke" transform="matrix(1,0,0,1,32,464)">
                <g id="cp_3_shape-3_2_v7zu8fabm39p-stroke">
                    <g>
                        <path d="M280,117.982L280,10M10,10L10,118M280,118.008C280,137.89 263.882,154.008 244,154.008L46,154.008C26.118,154.008 10,137.906 10,118.023L10,118.008" style="fill:none;stroke:rgb(44,44,44);stroke-width:2px;"/>
                    </g>
                </g>
            </g>
            <g id="g-root-cp_5_shape-5_2_dhcatrabm2h3-stroke" transform="matrix(1,0,0,1,32,572)">
                <g id="cp_5_shape-5_2_dhcatrabm2h3-stroke">
                    <g>
                        <path d="M298,10C298,45.878 274,64.137 244,64.137L46,64.137C26.118,64.137 10,80.185 10,100M310,100L310,10" style="fill:none;stroke:rgb(44,44,44);stroke-width:2px;"/>
                    </g>
                </g>
            </g>
            <g id="g-root-cp_5_shape-5_3_6i9jjabm0w9-stroke" transform="matrix(1,0,0,1,32,662)">
                <g id="cp_5_shape-5_3_6i9jjabm0w9-stroke">
                    <g>
                        <path d="M310,118L310,10M10,10L10,118M310,118C310,137.882 293.882,154.008 274,154.008L46,154.008C26.118,154.008 10,137.882 10,118" style="fill:none;stroke:rgb(44,44,44);stroke-width:2px;"/>
                    </g>
                </g>
            </g>
            <g id="g-root-cp_2_shape-2_1lw5t5babm2a3-stroke" transform="matrix(1,0,0,1,404.378,67.8164)">
                <g id="cp_2_shape-2_1lw5t5babm2a3-stroke">
                    <g>
                        <path d="M255.622,160.184C255.622,140.301 239.505,124.321 219.623,124.321L93.622,124.321C52.552,124.321 27.622,94.191 27.622,54.851L27.622,28.191L32.302,28.191C33.082,28.191 33.572,27.341 33.182,26.661L22.459,10.448C22.063,9.849 21.184,9.851 20.79,10.451L10.142,26.661C9.742,27.341 10.232,28.191 11.022,28.191L15.622,28.191L15.622,160.184M15.622,316.184C15.622,336.066 31.74,352.184 51.622,352.184L219.623,352.183C239.505,352.183 255.622,336.081 255.622,316.199L255.622,316.184M15.622,316.184L15.622,160.184M255.622,160.184L255.622,316.184" style="fill:none;stroke:rgb(44,44,44);stroke-width:2px;"/>
                    </g>
                </g>
            </g>
            <g id="g-root-cp_4_shape-4_18lbrv3abm0p9-stroke" transform="matrix(1,0,0,1,374.383,68)">
                <g id="cp_4_shape-4_18lbrv3abm0p9-stroke">
                    <g>
                        <path d="M27.622,160L27.622,316M15.622,316L15.622,160M27.622,160L27.622,28.191L32.302,28.191C33.082,28.191 33.572,27.341 33.182,26.661L22.459,10.448C22.063,9.849 21.184,9.851 20.79,10.451L10.142,26.661C9.742,27.341 10.232,28.191 11.022,28.191L15.622,28.191L15.622,160" style="fill:none;stroke:rgb(44,44,44);stroke-width:2px;"/>
                    </g>
                </g>
            </g>
            <g id="g-root-cp_6_shape-6_v9v9hrabm2a7-stroke" transform="matrix(1,0,0,1,344.383,68)">
                <g id="cp_6_shape-6_v9v9hrabm2a7-stroke">
                    <g>
                        <path d="M27.622,160L27.622,316M15.622,316L15.622,160M27.622,160L27.622,28.191L32.302,28.191C33.082,28.191 33.572,27.341 33.182,26.661L22.459,10.448C22.063,9.849 21.184,9.851 20.79,10.451L10.142,26.661C9.742,27.341 10.232,28.191 11.022,28.191L15.622,28.191L15.622,160" style="fill:none;stroke:rgb(44,44,44);stroke-width:2px;"/>
                    </g>
                </g>
            </g>
            <g id="g-root-cp_4_shape-4_1_qu1rdbabm32h-stroke" transform="matrix(1,0,0,1,380,374)">
                <g id="cp_4_shape-4_1_qu1rdbabm32h-stroke">
                    <g>
                        <path d="M22,10C22,46 46,64.321 76,64.321L244,64.321C263.882,64.321 280,80.423 280,100.306M10,100.306L10,10" style="fill:none;stroke:rgb(44,44,44);stroke-width:2px;"/>
                    </g>
                </g>
            </g>
            <g id="g-root-cp_4_shape-4_2_dj7q33abm1hn-stroke" transform="matrix(1,0,0,1,380,464)">
                <g id="cp_4_shape-4_2_dj7q33abm1hn-stroke">
                    <g>
                        <path d="M10,142L10,10M280,10L280,142M10,142C10,161.882 26.118,178.008 46,178.008L244,178.008C263.882,178.008 280,161.898 280,142.016L280,142" style="fill:none;stroke:rgb(44,44,44);stroke-width:2px;"/>
                    </g>
                </g>
            </g>
            <g id="g-root-cp_6_shape-6_1_7r7prabm32l-stroke" transform="matrix(1,0,0,1,350,374)">
                <g id="cp_6_shape-6_1_7r7prabm32l-stroke">
                    <g>
                        <path d="M22,10L22,232M10,232L10,10" style="fill:none;stroke:rgb(44,44,44);stroke-width:2px;"/>
                    </g>
                </g>
            </g>
            <g id="g-root-cp_6_shape-6_2_1ut1rkfabm3nr-stroke" transform="matrix(1,0,0,1,350,596)">
                <g id="cp_6_shape-6_2_1ut1rkfabm3nr-stroke">
                    <g>
                        <path d="M22,10C22,46 46,64.321 76,64.321L274,64.321C293.882,64.321 310,80.423 310,100.306M10,100.306L10,10" style="fill:none;stroke:rgb(44,44,44);stroke-width:2px;"/>
                    </g>
                </g>
            </g>
            <g id="g-root-cp_6_shape-6_3_1hi7qa7abm22x-stroke" transform="matrix(1,0,0,1,350,686)">
                <g id="cp_6_shape-6_3_1hi7qa7abm22x-stroke">
                    <g>
                        <path d="M10,118L10,10M310,10L310,118M10,118C10,137.882 26.118,154.008 46,154.008L274,154.008C293.882,154.008 310,137.898 310,118.016L310,118" style="fill:none;stroke:rgb(44,44,44);stroke-width:2px;"/>
                    </g>
                </g>
            </g>
            <g id="g-root-ic_plur_zitjnzabovep-stroke" transform="matrix(1,0,0,1,143,452)">
                <g id="ic_plur_zitjnzabovep-stroke">
                    <g>
                        <path d="M33.53,57L33.53,30.018M27.534,37.012L27.534,54.002L22.538,54.002L22.538,57M15.542,57L15.542,48.006L21.538,48.006L21.538,40.01M39.526,37.012L39.526,54.002L44.524,54.002L44.524,57M51.52,57L51.52,48.006L45.524,48.006L45.524,40.01M49,37.4C53.182,36.334 56.081,32.531 56,28.216C56.002,25.62 54.946,23.135 53.077,21.334C51.207,19.533 48.684,18.571 46.09,18.67C43.484,13.14 37.46,10.081 31.458,11.241C25.456,12.402 21.005,17.485 20.648,23.588C18.534,23.143 16.333,23.675 14.655,25.036C12.977,26.396 12.002,28.44 12,30.6C11.812,33.934 14.14,36.884 17.426,37.478" style="fill:none;stroke:rgb(44,44,44);stroke-width:2px;"/>
                    </g>
                </g>
            </g>
            <g id="g-root-ic_seac_qtfaa7abroju-stroke" transform="matrix(1,0,0,1,491,452)">
                <g id="ic_seac_qtfaa7abroju-stroke">
                    <g>
                        <path d="M23,48C23,49.657 24.343,51 26,51C27.657,51 29,49.657 29,48C29,46.343 27.657,45 26,45C24.343,45 23,46.343 23,48ZM11,11L16.416,11C17.344,11 18.15,11.639 18.362,12.542L26,45L34,45M53.968,32.092L56.122,25.632C56.325,25.022 56.223,24.352 55.847,23.83C55.471,23.309 54.867,23 54.224,23L20.824,23M24.588,39L33.948,39M37,45C37,49.418 40.582,53 45,53C49.418,53 53,49.418 53,45C53,40.582 49.418,37 45,37C40.582,37 37,40.582 37,45ZM50.658,50.656L57,57" style="fill:none;stroke:rgb(44,44,44);stroke-width:2px;"/>
                    </g>
                </g>
            </g>
            <g id="g-root-ic_1_vb47nzabq9dz-stroke" transform="matrix(1,0,0,1,506,206)">
                <g id="ic_1_vb47nzabq9dz-stroke">
                    <g>
                        <path d="M33,19L33,11M33,11L40,11C40.552,11 41,11.448 41,12L41,14C41,14.552 40.552,15 40,15L33,15L33,11ZM11,57L57,57M15,51L25,51L25,57L13,57L13,53C13,51.895 13.895,51 15,51ZM41,51L51,51C52.105,51 53,51.895 53,53L53,57L41,57L41,51ZM26,41L40,41C40.552,41 41,41.448 41,42L41,57L25,57L25,42C25,41.448 25.448,41 26,41ZM33,41L33,57M15,51L15,35L51,35L51,51M13,31L53,31L53,33C53,34.105 52.105,35 51,35L15,35C13.895,35 13,34.105 13,33L13,31ZM53,31L54.83,27.342C55.08,26.84 55.052,26.245 54.758,25.768C54.463,25.291 53.943,25.001 53.382,25L43,25L42.328,24C40.248,20.882 36.748,19.009 33,19.009C29.252,19.009 25.752,20.882 23.672,24L23,25L12.618,25C12.057,25.001 11.537,25.291 11.242,25.768C10.948,26.245 10.92,26.84 11.17,27.342L13,31" style="fill:none;stroke:rgb(44,44,44);stroke-width:2px;"/>
                    </g>
                </g>
            </g>
            <g id="g-root-ic_open_4gphvzabni1a-stroke" transform="matrix(1,0,0,1,128,206)">
                <g id="ic_open_4gphvzabni1a-stroke">
                    <g>
                        <path d="M44.8,45.266C44.255,46.901 42.723,48.002 41,48L15,48C12.791,48 11,46.209 11,44L11,20C11,17.791 12.791,16 15,16L41,16C42.723,15.998 44.255,17.099 44.8,18.734M17,20L41,20L41,44L17,44C15.895,44 15,43.105 15,42L15,22C15,20.895 15.895,20 17,20ZM53,48L41,44L41,20L53,16L55,16C56.105,16 57,16.895 57,18L57,46C57,47.105 56.105,48 55,48L53,48ZM17.008,48L17.008,52M39.008,48L39.008,52M53.008,16L53.008,48M15.008,38L24.008,38L27.008,44M41.008,38L32.008,38L29.008,44M35.008,38L32.008,32L24.008,32L21.008,38L35.008,38ZM35.008,28L35.008,24M37.008,26L33.008,26" style="fill:none;stroke:rgb(44,44,44);stroke-width:2px;"/>
                    </g>
                </g>
            </g>
            <g id="g-root-ic_phon_1d3n6bzabovt0-stroke" transform="matrix(1,0,0,1,158,650)">
                <g id="ic_phon_1d3n6bzabovt0-stroke">
                    <g>
                        <path d="M23.062,20.84L14.533,20.84C13.032,20.84 11.816,22.056 11.816,23.556L11.816,53.439C11.816,54.94 13.032,56.156 14.533,56.156L36.265,56.156C37.766,56.156 38.982,54.94 38.982,53.439L38.982,42.389M23.361,48.713L27.436,48.713M39.246,11.698L41.128,11.698C41.627,11.698 42.106,11.896 42.459,12.249C42.812,12.602 43.01,13.08 43.01,13.58L43.01,21.107C43.01,23.104 42.217,25.018 40.805,26.43C39.394,27.842 37.479,28.635 35.483,28.635C33.486,28.635 31.572,27.842 30.16,26.43C28.748,25.018 27.955,23.104 27.955,21.107L27.955,13.58C27.955,13.08 28.153,12.602 28.506,12.249C28.859,11.896 29.338,11.698 29.837,11.698L31.719,11.698M52.421,24.871C54.499,24.871 56.184,23.186 56.184,21.107C56.184,19.029 54.499,17.344 52.421,17.344C50.342,17.344 48.657,19.029 48.657,21.107C48.657,23.186 50.342,24.871 52.421,24.871ZM35.483,28.635L35.483,29.576C35.483,31.822 36.375,33.976 37.963,35.564C39.551,37.152 41.705,38.044 43.951,38.044C46.197,38.044 48.351,37.152 49.94,35.564C51.528,33.976 52.42,31.822 52.42,29.576L52.42,24.871" style="fill:none;stroke:rgb(44,44,44);stroke-width:2px;"/>
                    </g>
                </g>
            </g>
            <g id="g-root-ic_1_40d73abt1j9-stroke" transform="matrix(1,0,0,1,476,674)">
                <g id="ic_1_40d73abt1j9-stroke">
                    <g>
                        <path d="M11,47L57,47L57,55C57,56.105 56.105,57 55,57L13,57C11.895,57 11,56.105 11,55L11,47ZM21,27L19.418,27C18.569,27.001 17.812,27.538 17.532,28.34L11,47L57,47L53.33,35.378M27,31L21,31L21,21L24,23L27,21L27,31ZM35,23L49,23C50.105,23 51,23.895 51,25L51,31L33,31L33,25C33,23.895 33.895,23 35,23ZM35,11L49,11L49,17L35,17L35,11ZM27,27L33,27M20,31L28,31M42,17L42,23M30,53L38,53M19,41L21,41M25,41L27,41M31,41L33,41M25,37L27,37M31,37L33,37M40,41L42,41M40,37L42,37M46,41L48,41M46,37L48,37" style="fill:none;stroke:rgb(44,44,44);stroke-width:2px;"/>
                    </g>
                </g>
            </g>
        </g>
    </g>
</svg>
