<?xml version="1.0" encoding="UTF-8" standalone="no"?>
<!DOCTYPE svg PUBLIC "-//W3C//DTD SVG 1.1//EN" "http://www.w3.org/Graphics/SVG/1.1/DTD/svg11.dtd">
<svg width="100%" height="100%" viewBox="0 0 702 918" version="1.1" xmlns="http://www.w3.org/2000/svg" xmlns:xlink="http://www.w3.org/1999/xlink" xml:space="preserve" xmlns:serif="http://www.serif.com/" style="fill-rule:evenodd;clip-rule:evenodd;stroke-linecap:round;stroke-linejoin:round;">
    <g id="items" transform="matrix(1.08616,0,0,1.08616,-30.2433,-50.5754)">
        <g id="blend">
            <g id="g-root-cp_5_shape-5_4kfjyk9ro8ow-fill" transform="matrix(1,0,0,1,314.303,68)">
                <g id="cp_5_shape-5_4kfjyk9ro8ow-fill">
                    <g>
                        <path d="M27.697,316L15.697,316L15.697,160L27.697,160L27.697,316ZM32.297,28.191L27.697,28.191L27.697,160L15.697,160L15.697,28.191L11.017,28.191C10.237,28.191 9.747,27.341 10.137,26.661L20.86,10.448C21.256,9.849 22.136,9.851 22.53,10.451L33.177,26.661C33.577,27.341 33.087,28.191 32.297,28.191Z" style="fill:rgb(203,104,249);"/>
                    </g>
                </g>
            </g>
            <g id="g-root-cp_1_shape-1_1cz92a49ro8hu-fill" transform="matrix(1,0,0,1,32,67.8164)">
                <g id="cp_1_shape-1_1cz92a49ro8hu-fill">
                    <g>
                        <path d="M214,352.184L46,352.183C26.118,352.183 10,336.081 10,316.199L10,316.184L250,316.184C250,336.066 233.882,352.184 214,352.184ZM254.6,28.375L250,28.375L250,160.184L10,160.184C10,140.302 26.118,124.505 46,124.505L172,124.505C213.07,124.505 238,94.374 238,55.034L238,28.374L233.32,28.374C232.54,28.374 232.05,27.524 232.44,26.844L243.163,10.632C243.559,10.033 244.439,10.034 244.833,10.635L255.48,26.844C255.88,27.525 255.39,28.375 254.6,28.375ZM250,160.184L250,316.184L10,316.184L10,160.184L250,160.184Z" style="fill:rgb(255,231,17);"/>
                    </g>
                </g>
            </g>
            <g id="g-root-cp_3_shape-3_143m2189ro9ak-fill" transform="matrix(1,0,0,1,284.303,68)">
                <g id="cp_3_shape-3_143m2189ro9ak-fill">
                    <g>
                        <path d="M27.697,316L15.697,316L15.697,160L27.697,160L27.697,316ZM32.297,28.191L27.697,28.191L27.697,160L15.697,160L15.697,28.191L11.017,28.191C10.237,28.191 9.747,27.341 10.137,26.661L20.86,10.448C21.256,9.849 22.136,9.851 22.53,10.451L33.177,26.661C33.577,27.341 33.087,28.191 32.297,28.191Z" style="fill:rgb(247,148,56);"/>
                    </g>
                </g>
            </g>
            <g id="g-root-cp_3_shape-3_1_mcyimk9ro8hy-fill" transform="matrix(1,0,0,1,32,374)">
                <g id="cp_3_shape-3_1_mcyimk9ro8hy-fill">
                    <g>
                        <path d="M214,64.321C244,64.321 268,46 268,10L280,10L280,100.306L10,100.306C10,80.423 26.118,64.321 46,64.321L214,64.321Z" style="fill:rgb(247,148,56);"/>
                    </g>
                </g>
            </g>
            <g id="g-root-cp_5_shape-5_1_91i0989roa2w-fill" transform="matrix(1,0,0,1,320,374)">
                <g id="cp_5_shape-5_1_91i0989roa2w-fill">
                    <g>
                        <rect x="10" y="10" width="12" height="246" style="fill:rgb(203,104,249);"/>
                    </g>
                </g>
            </g>
            <g id="g-root-cp_3_shape-3_2_1ur5jv09robgq-fill" transform="matrix(1,0,0,1,32,464)">
                <g id="cp_3_shape-3_2_1ur5jv09robgq-fill">
                    <g>
                        <path d="M280,10L280,165.975L10,165.975L10,10L280,10ZM244,202.008L46,202.008C26.118,202.008 10,185.905 10,166.023L10,166.008L280,166.008C280,185.89 263.882,202.008 244,202.008Z" style="fill:rgb(247,148,56);"/>
                    </g>
                </g>
            </g>
            <g id="g-root-cp_5_shape-5_2_1hgbiks9ro9vw-fill" transform="matrix(1,0,0,1,32,620)">
                <g id="cp_5_shape-5_2_1hgbiks9ro9vw-fill">
                    <g>
                        <path d="M244,64.137C274,64.137 298,45.878 298,10L310,10L310,100L10,100C10,80.185 26.118,64.137 46,64.137L244,64.137Z" style="fill:rgb(203,104,249);"/>
                    </g>
                </g>
            </g>
            <g id="g-root-cp_5_shape-5_3_144v07g9robgu-fill" transform="matrix(1,0,0,1,32,710)">
                <g id="cp_5_shape-5_3_144v07g9robgu-fill">
                    <g>
                        <path d="M310,10L310,118L10,118L10,10L310,10ZM274,154.008L46,154.008C26.118,154.008 10,137.882 10,118L310,118C310,137.882 293.882,154.008 274,154.008Z" style="fill:rgb(203,104,249);"/>
                    </g>
                </g>
            </g>
            <g id="g-root-cp_2_shape-2_me7gss9roao8-fill" transform="matrix(1,0,0,1,404.378,67.8164)">
                <g id="cp_2_shape-2_me7gss9roao8-fill">
                    <g>
                        <path d="M51.622,328.184L219.622,328.184C239.504,328.184 255.622,312.081 255.622,292.199L255.622,292.184L15.622,292.184C15.622,312.066 31.74,328.184 51.622,328.184ZM11.022,28.375L15.622,28.375L15.622,160.184L255.622,160.184C255.622,140.302 239.505,124.505 219.623,124.505L93.622,124.505C52.552,124.505 27.622,94.374 27.622,55.034L27.622,28.374L32.302,28.374C33.082,28.374 33.572,27.524 33.182,26.844L22.459,10.632C22.063,10.033 21.184,10.034 20.79,10.635L10.142,26.844C9.742,27.525 10.232,28.375 11.022,28.375ZM15.622,160.184L15.622,292.184L255.622,292.184L255.622,160.184L15.622,160.184Z" style="fill:rgb(67,221,147);"/>
                    </g>
                </g>
            </g>
            <g id="g-root-cp_4_shape-4_93dfik9ro93e-fill" transform="matrix(1,0,0,1,374.383,68)">
                <g id="cp_4_shape-4_93dfik9ro93e-fill">
                    <g>
                        <path d="M15.623,292L27.623,292L27.623,160L15.623,160L15.623,292ZM11.022,28.191L15.622,28.191L15.622,160L27.622,160L27.622,28.191L32.302,28.191C33.082,28.191 33.572,27.341 33.182,26.661L22.459,10.448C22.063,9.849 21.184,9.851 20.79,10.451L10.142,26.661C9.742,27.341 10.232,28.191 11.022,28.191Z" style="fill:rgb(251,103,98);"/>
                    </g>
                </g>
            </g>
            <g id="g-root-cp_6_shape-6_4njxe49ro9vo-fill" transform="matrix(1,0,0,1,344.383,68)">
                <g id="cp_6_shape-6_4njxe49ro9vo-fill">
                    <g>
                        <path d="M15.623,292L27.623,292L27.623,160L15.623,160L15.623,292ZM11.022,28.191L15.622,28.191L15.622,160L27.622,160L27.622,28.191L32.302,28.191C33.082,28.191 33.572,27.341 33.182,26.661L22.459,10.448C22.063,9.849 21.184,9.851 20.79,10.451L10.142,26.661C9.742,27.341 10.232,28.191 11.022,28.191Z" style="fill:rgb(26,195,251);"/>
                    </g>
                </g>
            </g>
            <g id="g-root-cp_4_shape-4_1_1hi6xu49ro8we-fill" transform="matrix(1,0,0,1,380,350)">
                <g id="cp_4_shape-4_1_1hi6xu49ro8we-fill">
                    <g>
                        <path d="M76,64.321C46,64.321 22,46 22,10L10,10L10,100.306L280,100.306C280,80.423 263.882,64.321 244,64.321L76,64.321Z" style="fill:rgb(251,103,98);"/>
                    </g>
                </g>
            </g>
            <g id="g-root-cp_4_shape-4_2_1d2dfpo9ro9oo-fill" transform="matrix(1,0,0,1,380,440)">
                <g id="cp_4_shape-4_2_1d2dfpo9ro9oo-fill">
                    <g>
                        <path d="M10,10L10,118L280,118L280,10L10,10ZM46,154L244,154C263.882,154 280,137.898 280,118.016L280,118L10,118C10,137.882 26.118,154 46,154Z" style="fill:rgb(251,103,98);"/>
                    </g>
                </g>
            </g>
            <g id="g-root-cp_6_shape-6_1_zqwxcc9rob9m-fill" transform="matrix(1,0,0,1,350,350)">
                <g id="cp_6_shape-6_1_zqwxcc9rob9m-fill">
                    <g>
                        <rect x="10" y="10" width="12" height="198" style="fill:rgb(26,195,251);"/>
                    </g>
                </g>
            </g>
            <g id="g-root-cp_6_shape-6_2_i09dxo9roah0-fill" transform="matrix(1,0,0,1,350,548)">
                <g id="cp_6_shape-6_2_i09dxo9roah0-fill">
                    <g>
                        <path d="M76,64.321C46,64.321 22,46 22,10L10,10L10,100.306L310,100.306C310,80.423 293.882,64.321 274,64.321L76,64.321Z" style="fill:rgb(26,195,251);"/>
                    </g>
                </g>
            </g>
            <g id="g-root-cp_6_shape-6_3_4pfcng9ro8w6-fill" transform="matrix(1,0,0,1,350,638)">
                <g id="cp_6_shape-6_3_4pfcng9ro8w6-fill">
                    <g>
                        <path d="M10,10L10,142L310,142L310,10L10,10ZM46,178L274,178C293.882,178 310,161.898 310,142.016L310,142L10,142C10,161.882 26.118,178 46,178Z" style="fill:rgb(26,195,251);"/>
                    </g>
                </g>
            </g>
            <g id="g-root-tx_intellig_1hbbpvw9rpone-fill" transform="matrix(1,0,0,1,74,326)">
                <g id="tx_intellig_1hbbpvw9rpone-fill">
                    <g>
                        <g>
                            <g transform="matrix(1,0,0,1,33.85,31.2)">
                                <text x="0px" y="0px" style="font-family:'ArialMT', 'Arial', sans-serif;font-size:15px;fill:rgb(44,44,44);">Intelligent voice</text>
                            </g>
                            <g transform="matrix(1,0,0,1,12.05,49.2)">
                                <text x="0px" y="0px" style="font-family:'ArialMT', 'Arial', sans-serif;font-size:15px;fill:rgb(44,44,44);">technology for reliable</text>
                            </g>
                            <g transform="matrix(1,0,0,1,42.87,67.2)">
                                <text x="0px" y="0px" style="font-family:'ArialMT', 'Arial', sans-serif;font-size:15px;fill:rgb(44,44,44);">OTP<tspan x="30.564px 34.731px " y="0px 0px "> d</tspan>elivery<tspan x="85.305px " y="0px ">.</tspan></text>
                            </g>
                        </g>
                    </g>
                </g>
            </g>
            <g id="g-root-tx_worldwid_8vvqh89rtwxs-fill" transform="matrix(1,0,0,1,452,302)">
                <g id="tx_worldwid_8vvqh89rtwxs-fill">
                    <g>
                        <g>
                            <g transform="matrix(1,0,0,1,18.83,31.2)">
                                <text x="0px" y="0px" style="font-family:'ArialMT', 'Arial', sans-serif;font-size:15px;fill:rgb(44,44,44);">W<tspan x="13.887px 22.229px " y="0px 0px ">or</tspan>ldwide coverage</text>
                            </g>
                            <g transform="matrix(1,0,0,1,16.13,49.2)">
                                <text x="0px" y="0px" style="font-family:'ArialMT', 'Arial', sans-serif;font-size:15px;fill:rgb(44,44,44);">ensures OTP<tspan x="88.096px 92.263px " y="0px 0px "> d</tspan>elivery</text>
                            </g>
                            <g transform="matrix(1,0,0,1,52.2,67.2)">
                                <text x="0px" y="0px" style="font-family:'ArialMT', 'Arial', sans-serif;font-size:15px;fill:rgb(44,44,44);">anywhere.</text>
                            </g>
                        </g>
                    </g>
                </g>
            </g>
            <g transform="matrix(1,0,0,1,426.61,522)">
                <g id="g-root-tx_multilin_qtehu49rtw5f-fill">
                    <g id="tx_multilin_qtehu49rtw5f-fill">
                        <g>
                            <g>
                                <text x="0px" y="0px" style="font-family:'Arial-BoldMT', 'Arial', sans-serif;font-weight:700;font-size:20px;fill:rgb(44,44,44);">Multi-Lingual Support</text>
                            </g>
                        </g>
                    </g>
                </g>
            </g>
            <g id="g-root-tx_smartfal_v2z93g9rr30m-fill" transform="matrix(1,0,0,1,95,512)">
                <g id="tx_smartfal_v2z93g9rr30m-fill">
                    <g>
                        <g>
                            <g transform="matrix(1,0,0,1,12.08,34)">
                                <text x="0px" y="0px" style="font-family:'Arial-BoldMT', 'Arial', sans-serif;font-weight:700;font-size:20px;fill:rgb(44,44,44);">Smart Fallback</text>
                            </g>
                            <g transform="matrix(1,0,0,1,45.76,58)">
                                <text x="0px" y="0px" style="font-family:'Arial-BoldMT', 'Arial', sans-serif;font-weight:700;font-size:20px;fill:rgb(44,44,44);">System</text>
                            </g>
                        </g>
                    </g>
                </g>
            </g>
            <g id="g-root-tx_otpdeliv_1qckzws9rtwr0-fill" transform="matrix(1,0,0,1,419,524)">
                <g id="tx_otpdeliv_1qckzws9rtwr0-fill">
                    <g>
                        <g>
                            <g transform="matrix(1,0,0,1,27.8,28.2)">
                                <text x="0px" y="0px" style="font-family:'ArialMT', 'Arial', sans-serif;font-size:15px;fill:rgb(44,44,44);">OTP<tspan x="30.564px 34.731px " y="0px 0px "> d</tspan>elivery in multiple</text>
                            </g>
                            <g transform="matrix(1,0,0,1,12.08,46.2)">
                                <text x="0px" y="0px" style="font-family:'ArialMT', 'Arial', sans-serif;font-size:15px;fill:rgb(44,44,44);">languages for diverse users.</text>
                            </g>
                        </g>
                    </g>
                </g>
            </g>
            <g transform="matrix(1,0,0,1,480.82,300)">
                <g id="g-root-tx_globalre_18nsvrg9rsgsv-fill">
                    <g id="tx_globalre_18nsvrg9rsgsv-fill">
                        <g>
                            <g>
                                <text x="0px" y="0px" style="font-family:'Arial-BoldMT', 'Arial', sans-serif;font-weight:700;font-size:20px;fill:rgb(44,44,44);">Global Reach</text>
                            </g>
                        </g>
                    </g>
                </g>
            </g>
            <g id="g-root-tx_automati_1hbbpvw9rr21b-fill" transform="matrix(1,0,0,1,71,572)">
                <g id="tx_automati_1hbbpvw9rr21b-fill">
                    <g>
                        <g>
                            <g transform="matrix(1,0,0,1,15.18,31.2)">
                                <text x="0px" y="0px" style="font-family:'ArialMT', 'Arial', sans-serif;font-size:15px;fill:rgb(44,44,44);">Automatic system ensures</text>
                            </g>
                            <g transform="matrix(1,0,0,1,22.01,49.2)">
                                <text x="0px" y="0px" style="font-family:'ArialMT', 'Arial', sans-serif;font-size:15px;fill:rgb(44,44,44);">OTP<tspan x="30.564px 34.731px " y="0px 0px "> d</tspan>elivery even during</text>
                            </g>
                            <g transform="matrix(1,0,0,1,77.36,67.2)">
                                <text x="0px" y="0px" style="font-family:'ArialMT', 'Arial', sans-serif;font-size:15px;fill:rgb(44,44,44);">failures.</text>
                            </g>
                        </g>
                    </g>
                </g>
            </g>
            <g id="g-root-tx_robustse_1hjfw0c9rr2mb-fill" transform="matrix(1,0,0,1,62,794)">
                <g id="tx_robustse_1hjfw0c9rr2mb-fill">
                    <g>
                        <g>
                            <g transform="matrix(1,0,0,1,16.01,28.2)">
                                <text x="0px" y="0px" style="font-family:'ArialMT', 'Arial', sans-serif;font-size:15px;fill:rgb(44,44,44);">Robust security measures protect</text>
                            </g>
                            <g transform="matrix(1,0,0,1,41.38,46.2)">
                                <text x="0px" y="0px" style="font-family:'ArialMT', 'Arial', sans-serif;font-size:15px;fill:rgb(44,44,44);">OTP<tspan x="30.564px 34.731px " y="0px 0px "> d</tspan>elivery from threats.</text>
                            </g>
                        </g>
                    </g>
                </g>
            </g>
            <g id="g-root-tx_smartvoi_hs57t89rpo1t-fill" transform="matrix(1,0,0,1,92,266)">
                <g id="tx_smartvoi_hs57t89rpo1t-fill">
                    <g>
                        <g>
                            <g transform="matrix(1,0,0,1,12.37,34)">
                                <text x="0px" y="0px" style="font-family:'Arial-BoldMT', 'Arial', sans-serif;font-weight:700;font-size:20px;fill:rgb(44,44,44);">Smart V<tspan x="74.102px 86.318px " y="0px 0px ">oi</tspan>ce</text>
                            </g>
                            <g transform="matrix(1,0,0,1,31.13,58)">
                                <text x="0px" y="0px" style="font-family:'Arial-BoldMT', 'Arial', sans-serif;font-weight:700;font-size:20px;fill:rgb(44,44,44);">Delivery</text>
                            </g>
                        </g>
                    </g>
                </g>
            </g>
            <g transform="matrix(1,0,0,1,419.28,720)">
                <g id="g-root-tx_realtime_1qapkng9rvbwg-fill">
                    <g id="tx_realtime_1qapkng9rvbwg-fill">
                        <g>
                            <g>
                                <text x="0px" y="0px" style="font-family:'Arial-BoldMT', 'Arial', sans-serif;font-weight:700;font-size:20px;fill:rgb(44,44,44);">Real-T<tspan x="60.762px 66.318px " y="0px 0px ">im</tspan>e <tspan x="100.039px 114.482px " y="0px 0px ">An</tspan>alytics</text>
                            </g>
                        </g>
                    </g>
                </g>
            </g>
            <g id="g-root-tx_immediat_qtehu49rv9jd-fill" transform="matrix(1,0,0,1,404,722)">
                <g id="tx_immediat_qtehu49rv9jd-fill">
                    <g>
                        <g>
                            <g transform="matrix(1,0,0,1,12.22,31.2)">
                                <text x="0px" y="0px" style="font-family:'ArialMT', 'Arial', sans-serif;font-size:15px;fill:rgb(44,44,44);">Immediate data insights for</text>
                            </g>
                            <g transform="matrix(1,0,0,1,27.56,49.2)">
                                <text x="0px" y="0px" style="font-family:'ArialMT', 'Arial', sans-serif;font-size:15px;fill:rgb(44,44,44);">optimized OTP<tspan x="98.928px 103.096px " y="0px 0px "> d</tspan>elivery</text>
                            </g>
                            <g transform="matrix(1,0,0,1,59.26,67.2)">
                                <text x="0px" y="0px" style="font-family:'ArialMT', 'Arial', sans-serif;font-size:15px;fill:rgb(44,44,44);">performance.</text>
                            </g>
                        </g>
                    </g>
                </g>
            </g>
            <g transform="matrix(1,0,0,1,107.88,792)">
                <g id="g-root-tx_advanced_mfgez09rr4ea-fill">
                    <g id="tx_advanced_mfgez09rr4ea-fill">
                        <g>
                            <g>
                                <text x="0px" y="0px" style="font-family:'Arial-BoldMT', 'Arial', sans-serif;font-weight:700;font-size:20px;fill:rgb(44,44,44);">Advanced Security</text>
                            </g>
                        </g>
                    </g>
                </g>
            </g>
            <g id="g-root-cp_5_shape-5_4kfjyk9ro8ow-stroke" transform="matrix(1,0,0,1,314.303,68)">
                <g id="cp_5_shape-5_4kfjyk9ro8ow-stroke">
                    <g>
                        <path d="M15.697,160L15.697,316M27.697,316L27.697,160M15.697,160L15.697,28.191L11.017,28.191C10.237,28.191 9.747,27.341 10.137,26.661L20.86,10.448C21.256,9.849 22.136,9.851 22.53,10.451L33.177,26.661C33.577,27.341 33.087,28.191 32.297,28.191L27.697,28.191L27.697,160" style="fill:none;stroke:rgb(44,44,44);stroke-width:2px;"/>
                    </g>
                </g>
            </g>
            <g id="g-root-cp_1_shape-1_1cz92a49ro8hu-stroke" transform="matrix(1,0,0,1,32,67.8164)">
                <g id="cp_1_shape-1_1cz92a49ro8hu-stroke">
                    <g>
                        <path d="M10,160.184C10,140.301 26.118,124.321 46,124.321L172,124.321C213.07,124.321 238,94.191 238,54.851L238,28.191L233.32,28.191C232.54,28.191 232.05,27.341 232.44,26.661L243.163,10.448C243.559,9.849 244.439,9.851 244.833,10.451L255.48,26.661C255.88,27.341 255.39,28.191 254.6,28.191L250,28.191L250,160.184M250,316.184C250,336.066 233.882,352.191 214,352.191L46,352.191C26.118,352.191 10,336.081 10,316.199L10,316.184M250,316.184L250,160.184M10,160.184L10,316.184" style="fill:none;stroke:rgb(44,44,44);stroke-width:2px;"/>
                    </g>
                </g>
            </g>
            <g id="g-root-cp_3_shape-3_143m2189ro9ak-stroke" transform="matrix(1,0,0,1,284.303,68)">
                <g id="cp_3_shape-3_143m2189ro9ak-stroke">
                    <g>
                        <path d="M15.697,160L15.697,316M27.697,316L27.697,160M15.697,160L15.697,28.191L11.017,28.191C10.237,28.191 9.747,27.341 10.137,26.661L20.86,10.448C21.256,9.849 22.136,9.851 22.53,10.451L33.177,26.661C33.577,27.341 33.087,28.191 32.297,28.191L27.697,28.191L27.697,160" style="fill:none;stroke:rgb(44,44,44);stroke-width:2px;"/>
                    </g>
                </g>
            </g>
            <g id="g-root-cp_3_shape-3_1_mcyimk9ro8hy-stroke" transform="matrix(1,0,0,1,32,374)">
                <g id="cp_3_shape-3_1_mcyimk9ro8hy-stroke">
                    <g>
                        <path d="M268,10C268,46 244,64.321 214,64.321L46,64.321C26.118,64.321 10,80.423 10,100.306M280,100.306L280,10" style="fill:none;stroke:rgb(44,44,44);stroke-width:2px;"/>
                    </g>
                </g>
            </g>
            <g id="g-root-cp_5_shape-5_1_91i0989roa2w-stroke" transform="matrix(1,0,0,1,320,374)">
                <g id="cp_5_shape-5_1_91i0989roa2w-stroke">
                    <g>
                        <path d="M10,10L10,256M22,256L22,10" style="fill:none;stroke:rgb(44,44,44);stroke-width:2px;"/>
                    </g>
                </g>
            </g>
            <g id="g-root-cp_3_shape-3_2_1ur5jv09robgq-stroke" transform="matrix(1,0,0,1,32,464)">
                <g id="cp_3_shape-3_2_1ur5jv09robgq-stroke">
                    <g>
                        <path d="M280,165.975L280,10M10,10L10,166M280,166.008C280,185.89 263.882,202.008 244,202.008L46,202.008C26.118,202.008 10,185.905 10,166.023L10,166.008" style="fill:none;stroke:rgb(44,44,44);stroke-width:2px;"/>
                    </g>
                </g>
            </g>
            <g id="g-root-cp_5_shape-5_2_1hgbiks9ro9vw-stroke" transform="matrix(1,0,0,1,32,620)">
                <g id="cp_5_shape-5_2_1hgbiks9ro9vw-stroke">
                    <g>
                        <path d="M298,10C298,45.878 274,64.137 244,64.137L46,64.137C26.118,64.137 10,80.185 10,100M310,100L310,10" style="fill:none;stroke:rgb(44,44,44);stroke-width:2px;"/>
                    </g>
                </g>
            </g>
            <g id="g-root-cp_5_shape-5_3_144v07g9robgu-stroke" transform="matrix(1,0,0,1,32,710)">
                <g id="cp_5_shape-5_3_144v07g9robgu-stroke">
                    <g>
                        <path d="M310,118L310,10M10,10L10,118M310,118C310,137.882 293.882,154.008 274,154.008L46,154.008C26.118,154.008 10,137.882 10,118" style="fill:none;stroke:rgb(44,44,44);stroke-width:2px;"/>
                    </g>
                </g>
            </g>
            <g id="g-root-cp_2_shape-2_me7gss9roao8-stroke" transform="matrix(1,0,0,1,404.378,67.8164)">
                <g id="cp_2_shape-2_me7gss9roao8-stroke">
                    <g>
                        <path d="M255.622,160.184C255.622,140.301 239.505,124.321 219.623,124.321L93.622,124.321C52.552,124.321 27.622,94.191 27.622,54.851L27.622,28.191L32.302,28.191C33.082,28.191 33.572,27.341 33.182,26.661L22.459,10.448C22.063,9.849 21.184,9.851 20.79,10.451L10.142,26.661C9.742,27.341 10.232,28.191 11.022,28.191L15.622,28.191L15.622,160.184M15.622,292.184C15.622,312.066 31.74,328.184 51.622,328.184L219.623,328.183C239.505,328.183 255.622,312.081 255.622,292.199L255.622,292.184M15.622,292.184L15.622,160.184M255.622,160.184L255.622,292.184" style="fill:none;stroke:rgb(44,44,44);stroke-width:2px;"/>
                    </g>
                </g>
            </g>
            <g id="g-root-cp_4_shape-4_93dfik9ro93e-stroke" transform="matrix(1,0,0,1,374.383,68)">
                <g id="cp_4_shape-4_93dfik9ro93e-stroke">
                    <g>
                        <path d="M27.622,160L27.622,292M15.622,292L15.622,160M27.622,160L27.622,28.191L32.302,28.191C33.082,28.191 33.572,27.341 33.182,26.661L22.459,10.448C22.063,9.849 21.184,9.851 20.79,10.451L10.142,26.661C9.742,27.341 10.232,28.191 11.022,28.191L15.622,28.191L15.622,160" style="fill:none;stroke:rgb(44,44,44);stroke-width:2px;"/>
                    </g>
                </g>
            </g>
            <g id="g-root-cp_6_shape-6_4njxe49ro9vo-stroke" transform="matrix(1,0,0,1,344.383,68)">
                <g id="cp_6_shape-6_4njxe49ro9vo-stroke">
                    <g>
                        <path d="M27.622,160L27.622,292M15.622,292L15.622,160M27.622,160L27.622,28.191L32.302,28.191C33.082,28.191 33.572,27.341 33.182,26.661L22.459,10.448C22.063,9.849 21.184,9.851 20.79,10.451L10.142,26.661C9.742,27.341 10.232,28.191 11.022,28.191L15.622,28.191L15.622,160" style="fill:none;stroke:rgb(44,44,44);stroke-width:2px;"/>
                    </g>
                </g>
            </g>
            <g id="g-root-cp_4_shape-4_1_1hi6xu49ro8we-stroke" transform="matrix(1,0,0,1,380,350)">
                <g id="cp_4_shape-4_1_1hi6xu49ro8we-stroke">
                    <g>
                        <path d="M22,10C22,46 46,64.321 76,64.321L244,64.321C263.882,64.321 280,80.423 280,100.306M10,100.306L10,10" style="fill:none;stroke:rgb(44,44,44);stroke-width:2px;"/>
                    </g>
                </g>
            </g>
            <g id="g-root-cp_4_shape-4_2_1d2dfpo9ro9oo-stroke" transform="matrix(1,0,0,1,380,440)">
                <g id="cp_4_shape-4_2_1d2dfpo9ro9oo-stroke">
                    <g>
                        <path d="M10,118L10,10M280,10L280,118M10,118C10,137.882 26.118,154.008 46,154.008L244,154.008C263.882,154.008 280,137.898 280,118.016L280,118" style="fill:none;stroke:rgb(44,44,44);stroke-width:2px;"/>
                    </g>
                </g>
            </g>
            <g id="g-root-cp_6_shape-6_1_zqwxcc9rob9m-stroke" transform="matrix(1,0,0,1,350,350)">
                <g id="cp_6_shape-6_1_zqwxcc9rob9m-stroke">
                    <g>
                        <path d="M22,10L22,208M10,208L10,10" style="fill:none;stroke:rgb(44,44,44);stroke-width:2px;"/>
                    </g>
                </g>
            </g>
            <g id="g-root-cp_6_shape-6_2_i09dxo9roah0-stroke" transform="matrix(1,0,0,1,350,548)">
                <g id="cp_6_shape-6_2_i09dxo9roah0-stroke">
                    <g>
                        <path d="M22,10C22,46 46,64.321 76,64.321L274,64.321C293.882,64.321 310,80.423 310,100.306M10,100.306L10,10" style="fill:none;stroke:rgb(44,44,44);stroke-width:2px;"/>
                    </g>
                </g>
            </g>
            <g id="g-root-cp_6_shape-6_3_4pfcng9ro8w6-stroke" transform="matrix(1,0,0,1,350,638)">
                <g id="cp_6_shape-6_3_4pfcng9ro8w6-stroke">
                    <g>
                        <path d="M10,142L10,10M310,10L310,142M10,142C10,161.882 26.118,178.008 46,178.008L274,178.008C293.882,178.008 310,161.898 310,142.016L310,142" style="fill:none;stroke:rgb(44,44,44);stroke-width:2px;"/>
                    </g>
                </g>
            </g>
            <g id="g-root-ic_1_vagy4s9rtxj9-stroke" transform="matrix(1,0,0,1,491,428)">
                <g id="ic_1_vagy4s9rtxj9-stroke">
                    <g>
                        <path d="M12.277,55.865C12.277,53.397 13.258,51.03 15.003,49.285C16.748,47.539 19.115,46.559 21.584,46.559C24.052,46.559 26.419,47.539 28.164,49.285C29.909,51.03 30.89,53.397 30.89,55.865M55.76,44.057C55.76,41.174 54.615,38.409 52.576,36.37C50.537,34.332 47.772,33.187 44.889,33.187C42.006,33.187 39.241,34.332 37.203,36.37C36.005,37.568 35.116,39.016 34.586,40.591M21.584,46.559C24.597,46.559 27.04,44.117 27.04,41.104C27.04,38.091 24.597,35.648 21.584,35.648C18.571,35.648 16.129,38.091 16.129,41.104C16.129,44.117 18.571,46.559 21.584,46.559ZM44.89,33.187C48.409,33.187 51.262,30.334 51.262,26.814C51.262,23.295 48.409,20.442 44.89,20.442C41.371,20.442 38.518,23.295 38.518,26.814C38.518,30.334 41.371,33.187 44.89,33.187ZM12.241,21.379C12.241,26.484 17.116,30.622 23.13,30.622C23.928,30.622 24.707,30.549 25.456,30.411L30.928,33.979L30.02,28.536C32.461,26.841 34.018,24.264 34.018,21.379C34.018,16.273 29.143,12.135 23.13,12.135C17.116,12.135 12.241,16.273 12.241,21.379ZM17.937,21.842C18.274,21.842 18.547,21.569 18.547,21.232C18.547,20.895 18.274,20.622 17.937,20.622M17.937,21.842C17.6,21.842 17.327,21.569 17.327,21.232C17.327,20.895 17.6,20.622 17.937,20.622M23.13,21.842C23.467,21.842 23.74,21.569 23.74,21.232C23.74,20.895 23.467,20.622 23.13,20.622M23.131,21.842C22.795,21.842 22.521,21.569 22.521,21.232C22.521,20.895 22.795,20.622 23.131,20.622M28.324,21.842C28.661,21.842 28.934,21.569 28.934,21.232C28.934,20.895 28.661,20.622 28.324,20.622M28.325,21.842C27.988,21.842 27.715,21.569 27.715,21.232C27.715,20.895 27.988,20.622 28.325,20.622" style="fill:none;stroke:rgb(44,44,44);stroke-width:2px;"/>
                    </g>
                </g>
            </g>
            <g id="g-root-ic_reco_m97o3w9rppfn-stroke" transform="matrix(1,0,0,1,128,206)">
                <g id="ic_reco_m97o3w9rppfn-stroke">
                    <g>
                        <path d="M34.572,54.858C34.571,56.041 33.611,57 32.428,57L13.142,57C11.959,56.999 11.001,56.041 11,54.858L11,49.5C11,42.991 16.277,37.714 22.786,37.714C29.295,37.714 34.572,42.991 34.572,49.5L34.572,54.858ZM18.286,45C18.286,45.276 18.51,45.5 18.786,45.5C19.062,45.5 19.286,45.276 19.286,45C19.286,44.724 19.062,44.5 18.786,44.5C18.51,44.5 18.286,44.724 18.286,45M26.286,44.988C26.286,45.264 26.51,45.488 26.786,45.488C27.062,45.488 27.286,45.264 27.286,44.988C27.286,44.712 27.062,44.488 26.786,44.488C26.51,44.488 26.286,44.712 26.286,44.988M22.786,37.714L22.786,33.428M19.572,30.214C19.572,31.989 21.011,33.428 22.786,33.428C24.561,33.428 26,31.989 26,30.214C26,28.439 24.561,27 22.786,27C21.011,27 19.572,28.439 19.572,30.214M11,51.63L34.572,51.63M27,21L27,23.5M32,19L32,31M37,17L37,33M57,21L57,29M52,19L52,31M47,17L47,33M42,11L42,39" style="fill:none;stroke:rgb(44,44,44);stroke-width:2px;"/>
                    </g>
                </g>
            </g>
            <g id="g-root-ic_wave_1hgxznw9rvbpe-stroke" transform="matrix(1,0,0,1,476,626)">
                <g id="ic_wave_1hgxznw9rvbpe-stroke">
                    <g>
                        <path d="M15,12L53,12C53,12 57,12 57,16L57,52C57,52 57,56 53,56L15,56C15,56 11,56 11,52L11,16C11,16 11,12 15,12M11,22L57,22M18,16.5C18.276,16.5 18.5,16.724 18.5,17C18.5,17.276 18.276,17.5 18,17.5C17.724,17.5 17.5,17.276 17.5,17C17.5,16.724 17.724,16.5 18,16.5M24,16.5C24.276,16.5 24.5,16.724 24.5,17C24.5,17.276 24.276,17.5 24,17.5C23.724,17.5 23.5,17.276 23.5,17C23.5,16.724 23.724,16.5 24,16.5M30,16.5C30.276,16.5 30.5,16.724 30.5,17C30.5,17.276 30.276,17.5 30,17.5C29.724,17.5 29.5,17.276 29.5,17C29.5,16.724 29.724,16.5 30,16.5M11,39L57,39M22,22L22,56M22,36L24.93,30.142C25.875,28.25 27.817,27.063 29.932,27.083C32.047,27.103 33.965,28.328 34.874,30.238L35.66,31.886C36.529,33.711 38.323,34.917 40.341,35.033C42.359,35.148 44.279,34.154 45.35,32.44C46.357,30.829 48.12,29.846 50.02,29.839C51.919,29.831 53.69,30.799 54.71,32.402L57,36M22,48.186L25.282,44.904C25.943,44.243 26.869,43.917 27.799,44.019C28.728,44.121 29.562,44.639 30.064,45.428L32.522,49.29C33.075,50.159 34.025,50.695 35.055,50.718C36.084,50.741 37.057,50.248 37.648,49.404L39.33,47.004C39.922,46.156 40.901,45.662 41.935,45.689C42.969,45.716 43.921,46.26 44.468,47.138L44.556,47.278C45.102,48.151 46.047,48.694 47.076,48.725C48.105,48.757 49.082,48.273 49.68,47.436C50.235,46.659 51.119,46.184 52.073,46.148C53.027,46.113 53.944,46.521 54.556,47.254L57,50.186" style="fill:none;stroke:rgb(44,44,44);stroke-width:2px;"/>
                    </g>
                </g>
            </g>
            <g id="g-root-ic_lock_dbp8lo9rsiro-stroke" transform="matrix(1,0,0,1,158,698)">
                <g id="ic_lock_dbp8lo9rsiro-stroke">
                    <g>
                        <path d="M11.044,19.002C11.044,23.42 19.551,27.002 30.044,27.002C40.537,27.002 49.044,23.42 49.044,19.002C49.044,14.584 40.537,11.002 30.044,11.002C19.551,11.002 11.044,14.584 11.044,19.002L11.044,19.002ZM32.042,34.958C31.382,34.988 30.718,35.002 30.042,35.002C19.55,35.002 11.042,31.422 11.042,27.002M32.042,43.958C31.382,43.988 30.718,44.002 30.042,44.002C19.55,44.002 11.042,40.422 11.042,36.002M49.042,28.002L49.042,19.002M11.042,19L11.042,45C11.042,49.42 19.55,53 30.042,53C30.718,53 31.386,52.986 32.042,52.956M57.042,55C57.042,56.105 56.147,57 55.042,57L41.042,57C39.937,57 39.042,56.105 39.042,55L39.042,43C39.042,41.895 39.937,41 41.042,41L55.042,41C56.147,41 57.042,41.895 57.042,43L57.042,55ZM45.542,49.128C45.542,50.509 46.661,51.628 48.042,51.628C49.423,51.628 50.542,50.509 50.542,49.128C50.542,47.747 49.423,46.628 48.042,46.628C46.661,46.628 45.542,47.747 45.542,49.128L45.542,49.128ZM53.042,38C53.042,35.239 50.803,33 48.042,33C45.281,33 43.042,35.239 43.042,38L43.042,41L53.042,41L53.042,38Z" style="fill:none;stroke:rgb(44,44,44);stroke-width:2px;"/>
                    </g>
                </g>
            </g>
            <g id="g-root-ic_netw_18f28jw9rtxjd-stroke" transform="matrix(1,0,0,1,506,206)">
                <g id="ic_netw_18f28jw9rtxjd-stroke">
                    <g>
                        <path d="M11.072,33.996C11.072,46.699 21.369,56.996 34.072,56.996C46.775,56.996 57.072,46.699 57.072,33.996C57.072,21.293 46.775,10.996 34.072,10.996C21.369,10.996 11.072,21.293 11.072,33.996ZM23.072,25.496C23.072,27.981 25.087,29.996 27.572,29.996C30.057,29.996 32.072,27.981 32.072,25.496C32.072,23.011 30.057,20.996 27.572,20.996C25.087,20.996 23.072,23.011 23.072,25.496L23.072,25.496ZM36.072,45.496C36.072,46.877 37.191,47.996 38.572,47.996C39.953,47.996 41.072,46.877 41.072,45.496C41.072,44.115 39.953,42.996 38.572,42.996C37.191,42.996 36.072,44.115 36.072,45.496L36.072,45.496ZM44.072,30.496C44.072,32.429 45.639,33.996 47.572,33.996C49.505,33.996 51.072,32.429 51.072,30.496C51.072,28.563 49.505,26.996 47.572,26.996C45.639,26.996 44.072,28.563 44.072,30.496L44.072,30.496ZM32.072,25C36.543,25.17 40.803,26.945 44.072,30M48.27,33.928L49.07,34.996C49.07,34.996 52.07,38.996 52.07,47.996M43.718,13.11L44.072,14C45.52,18.289 46.197,22.799 46.072,27.324M45.072,33C44.821,37.13 43.333,41.09 40.8,44.362M37.376,47.692L37.072,48C37.072,48 32.072,53 21.072,53M34.072,11C31.336,13.927 29.136,17.311 27.572,21M25.236,29.344L25.072,30C23.982,35.409 24.684,41.026 27.072,46C30.472,52.812 39.072,56 39.072,56L39.818,56.278M23.072,25.496C23.072,25.496 15.4,26.046 11.522,29.442M11.632,39.064L12.072,38.996C12.072,38.996 25.834,36.88 37.02,43.536" style="fill:none;stroke:rgb(44,44,44);stroke-width:2px;"/>
                    </g>
                </g>
            </g>
            <g id="g-root-ic_warn_m97o3w9rr2tk-stroke" transform="matrix(1,0,0,1,143,452)">
                <g id="ic_warn_m97o3w9rr2tk-stroke">
                    <g>
                        <path d="M16.064,25.2C23.051,18.209 34.383,18.209 41.37,25.2M46.432,18.338C36.648,8.554 20.784,8.554 11,18.338M21.124,32.04C25.318,27.848 32.116,27.848 36.31,32.04M41.37,25.2C34.383,18.209 23.051,18.209 16.064,25.2M36.31,32.04C32.116,27.848 25.318,27.848 21.124,32.04M32.294,41.42C32.295,43.398 30.692,45.002 28.715,45.002C26.737,45.002 25.134,43.399 25.134,41.421C25.134,39.444 26.738,37.841 28.716,37.842C30.692,37.842 32.294,39.444 32.294,41.42ZM44.716,51C44.992,51 45.216,51.224 45.216,51.5C45.216,51.776 44.992,52 44.716,52C44.44,52 44.216,51.776 44.216,51.5C44.216,51.224 44.44,51 44.716,51M44.716,47L44.716,41M46.4,35C46.07,34.381 45.425,33.995 44.724,33.995C44.023,33.995 43.378,34.381 43.048,35L32.936,54.27C32.632,54.847 32.656,55.542 32.998,56.098C33.344,56.656 33.955,56.995 34.612,56.994L54.828,56.994C55.485,56.995 56.096,56.656 56.442,56.098C56.784,55.542 56.808,54.847 56.504,54.27L46.4,35Z" style="fill:none;stroke:rgb(44,44,44);stroke-width:2px;"/>
                    </g>
                </g>
            </g>
        </g>
    </g>
</svg>
