<?xml version="1.0" encoding="UTF-8" standalone="no"?>
<!DOCTYPE svg PUBLIC "-//W3C//DTD SVG 1.1//EN" "http://www.w3.org/Graphics/SVG/1.1/DTD/svg11.dtd">
<svg width="100%" height="100%" viewBox="0 0 588 598" version="1.1" xmlns="http://www.w3.org/2000/svg" xmlns:xlink="http://www.w3.org/1999/xlink" xml:space="preserve" xmlns:serif="http://www.serif.com/" style="fill-rule:evenodd;clip-rule:evenodd;stroke-linecap:round;stroke-linejoin:round;">
    <g id="items" transform="matrix(1.07108,0,0,1.07108,-20.8968,-43.0292)">
        <g id="blend">
            <g id="g-root-sy_-1_cu_qss73gd3p0y4-fill" transform="matrix(1,0,0,1,14,74)">
                <g id="sy_-1_cu_qss73gd3p0y4-fill">
                    <g>
                        <path d="M10,490L10,418L82.5,418L82.5,490L10,490ZM34,394L10,418L82.5,418L106,394L34,394ZM34,394L34,322L106,322L106,394L34,394ZM58,298L34,322L106,322L130,298L58,298ZM58,298L58,226L130,226L130,298L58,298ZM82,202L58,226L130,226L154,202L82,202ZM82,202L82,130L154,130L154,202L82,202ZM106,106L82,130L154,130L178,106L106,106ZM106,106L106,34L178,34L178,106L106,106ZM130,10L106,34L178,34L202,10L130,10Z" style="fill:url(#_Linear1);"/>
                    </g>
                </g>
            </g>
            <g id="g-root-sy_-1_cu_1_6hnfwd3p0y5-fill" transform="matrix(1,0,0,1,362,74)">
                <g id="sy_-1_cu_1_6hnfwd3p0y5-fill">
                    <g>
                        <path d="M202,490L202,418L130.5,418L130.5,490L202,490ZM202,418L178,394L106,394L130.5,418L202,418ZM178,322L178,394L106,394L106,322L178,322ZM178,322L154,298L82,298L106,322L178,322ZM154,226L154,298L82,298L82,226L154,226ZM154,226L130,202L58,202L82,226L154,226ZM130,130L130,202L58,202L58,130L130,130ZM130,130L106,106L34,106L58,130L130,130ZM106,34L106,106L34,106L34,34L106,34ZM106,34L82,10L10,10L34,34L106,34Z" style="fill:url(#_Linear2);"/>
                    </g>
                </g>
            </g>
            <g id="g-root-sy_1_cu_1lw571od3p2by-fill" transform="matrix(1,0,0,1,86.4998,458)">
                <g id="sy_1_cu_1lw571od3p2by-fill">
                    <g>
                        <path d="M10,106L10,34L406,34L406,106L10,106ZM381.5,10L406,34L10,34L33.5,10L381.5,10Z" style="fill:url(#_Linear3);"/>
                    </g>
                </g>
            </g>
            <g id="g-root-sy_2_cu_18lb5rgd3p0r3-fill" transform="matrix(1,0,0,1,110,362)">
                <g id="sy_2_cu_18lb5rgd3p0r3-fill">
                    <g>
                        <path d="M10,106L10,34L358,34L358,106L10,106ZM334,10L358,34L10,34L34,10L334,10Z" style="fill:url(#_Linear4);"/>
                    </g>
                </g>
            </g>
            <g id="g-root-sy_3_cu_zpo5ikd3p2bk-fill" transform="matrix(1,0,0,1,134,266)">
                <g id="sy_3_cu_zpo5ikd3p2bk-fill">
                    <g>
                        <path d="M10,34L10,106L310,106L310,34L10,34ZM286,10L310,34L10,34L34,10L286,10Z" style="fill:url(#_Linear5);"/>
                    </g>
                </g>
            </g>
            <g id="g-root-sy_4_cu_meu48cd3p0qp-fill" transform="matrix(1,0,0,1,158,170)">
                <g id="sy_4_cu_meu48cd3p0qp-fill">
                    <g>
                        <path d="M10,106L10,34L262,34L262,106L10,106ZM238,10L262,34L10,34L34,10L238,10Z" style="fill:url(#_Linear6);"/>
                    </g>
                </g>
            </g>
            <g id="g-root-sy_5_cu_93dlv0d3p2bm-fill" transform="matrix(1,0,0,1,182,74)">
                <g id="sy_5_cu_93dlv0d3p2bm-fill">
                    <g>
                        <path d="M10,106L10,34L214,34L214,106L10,106ZM190,10L214,34L10,34L34,10L190,10Z" style="fill:url(#_Linear7);"/>
                    </g>
                </g>
            </g>
            <g transform="matrix(1,0,0,1,196.53,252)">
                <g id="g-root-tx_realtime_1umselod3qfin-fill">
                    <g id="tx_realtime_1umselod3qfin-fill">
                        <g>
                            <g>
                                <g transform="matrix(20,0,0,20,131.514,0)">
                                </g>
                                <g transform="matrix(20,0,0,20,137.07,0)">
                                </g>
                                <text x="0px" y="0px" style="font-family:'ArialMT', 'Arial', sans-serif;font-size:20px;fill:rgb(244,244,244);">Real-T<tspan x="59.268px 63.711px " y="0px 0px ">im</tspan>e V<tspan x="109.287px 120.41px " y="0px 0px ">er</tspan>iﬁcation</text>
                            </g>
                        </g>
                    </g>
                </g>
            </g>
            <g transform="matrix(1,0,0,1,208.57,156)">
                <g id="g-root-tx_monitoro_18gbd2kd3qfi8-fill">
                    <g id="tx_monitoro_18gbd2kd3qfi8-fill">
                        <g>
                            <g>
                                <text x="0px" y="0px" style="font-family:'ArialMT', 'Arial', sans-serif;font-size:20px;fill:rgb(244,244,244);">Monitor &amp; Optimize</text>
                            </g>
                        </g>
                    </g>
                </g>
            </g>
            <g transform="matrix(1,0,0,1,231.68,348)">
                <g id="g-root-tx_voicedel_v3lwj0d3qex2-fill">
                    <g id="tx_voicedel_v3lwj0d3qex2-fill">
                        <g>
                            <g>
                                <text x="0px" y="0px" style="font-family:'ArialMT', 'Arial', sans-serif;font-size:20px;fill:rgb(244,244,244);">V<tspan x="12.236px 23.359px " y="0px 0px ">oi</tspan>ce Delivery</text>
                            </g>
                        </g>
                    </g>
                </g>
            </g>
            <g transform="matrix(1,0,0,1,186.13,444)">
                <g id="g-root-tx_generate_4pfizwd3p1cd-fill">
                    <g id="tx_generate_4pfizwd3p1cd-fill">
                        <g>
                            <g>
                                <text x="0px" y="0px" style="font-family:'ArialMT', 'Arial', sans-serif;font-size:20px;fill:rgb(244,244,244);">Generate &amp; <tspan x="106.738px 120.078px " y="0px 0px ">Au</tspan>thenticate</text>
                            </g>
                        </g>
                    </g>
                </g>
            </g>
            <g transform="matrix(1,0,0,1,227.33,540)">
                <g id="g-root-tx_configur_qvwkj0d3p24k-fill">
                    <g id="tx_configur_qvwkj0d3p24k-fill">
                        <g>
                            <g>
                                <g transform="matrix(20,0,0,20,36.6895,0)">
                                </g>
                                <g transform="matrix(20,0,0,20,42.2461,0)">
                                </g>
                                <text x="0px" y="0px" style="font-family:'ArialMT', 'Arial', sans-serif;font-size:20px;fill:rgb(244,244,244);">Conﬁgure Flow</text>
                            </g>
                        </g>
                    </g>
                </g>
            </g>
            <g id="g-root-sy_-1_cu_qss73gd3p0y4-stroke" transform="matrix(1,0,0,1,14,74)">
                <g id="sy_-1_cu_qss73gd3p0y4-stroke">
                    <g>
                        <path d="M10,490L10,418L82.5,418L82.5,490L10,490ZM10,418L34,394L106,394L82.5,418L10,418ZM34,394L34,322L106,322L106,394L34,394ZM34,322L58,298L130,298L106,322L34,322ZM58,298L58,226L130,226L130,298L58,298ZM58,226L82,202L154,202L130,226L58,226ZM82,202L82,130L154,130L154,202L82,202ZM82,130L106,106L178,106L154,130L82,130ZM106,106L106,34L178,34L178,106L106,106ZM106,34L130,10L202,10L178,34L106,34Z" style="fill:none;stroke:rgb(244,244,244);stroke-width:2px;"/>
                    </g>
                </g>
            </g>
            <g id="g-root-sy_-1_cu_1_6hnfwd3p0y5-stroke" transform="matrix(1,0,0,1,362,74)">
                <g id="sy_-1_cu_1_6hnfwd3p0y5-stroke">
                    <g>
                        <path d="M202,418L202,490L130.5,490L130.5,418L202,418ZM202,418L178,394L106,394L130.5,418L202,418ZM178,322L178,394L106,394L106,322L178,322ZM178,322L154,298L82,298L106,322L178,322ZM154,226L154,298L82,298L82,226L154,226ZM154,226L130,202L58,202L82,226L154,226ZM130,130L130,202L58,202L58,130L130,130ZM130,130L106,106L34,106L58,130L130,130ZM106,106L106,34L34,34L34,106L106,106ZM106,34L82,10L10,10L34,34L106,34Z" style="fill:none;stroke:rgb(244,244,244);stroke-width:2px;"/>
                    </g>
                </g>
            </g>
            <g id="g-root-sy_1_cu_1lw571od3p2by-stroke" transform="matrix(1,0,0,1,86.4998,458)">
                <g id="sy_1_cu_1lw571od3p2by-stroke">
                    <g>
                        <path d="M10,34L10,106L406,106L406,34L10,34ZM406,34L381.5,10L33.5,10L10,34L406,34Z" style="fill:none;stroke:rgb(244,244,244);stroke-width:2px;"/>
                    </g>
                </g>
            </g>
            <g id="g-root-sy_2_cu_18lb5rgd3p0r3-stroke" transform="matrix(1,0,0,1,110,362)">
                <g id="sy_2_cu_18lb5rgd3p0r3-stroke">
                    <g>
                        <path d="M10,34L10,106L358,106L358,34L10,34ZM358,34L334,10L34,10L10,34L358,34Z" style="fill:none;stroke:rgb(244,244,244);stroke-width:2px;"/>
                    </g>
                </g>
            </g>
            <g id="g-root-sy_3_cu_zpo5ikd3p2bk-stroke" transform="matrix(1,0,0,1,134,266)">
                <g id="sy_3_cu_zpo5ikd3p2bk-stroke">
                    <g>
                        <path d="M10,106L10,34L310,34L310,106L10,106ZM310,34L286,10L34,10L10,34L310,34Z" style="fill:none;stroke:rgb(244,244,244);stroke-width:2px;"/>
                    </g>
                </g>
            </g>
            <g id="g-root-sy_4_cu_meu48cd3p0qp-stroke" transform="matrix(1,0,0,1,158,170)">
                <g id="sy_4_cu_meu48cd3p0qp-stroke">
                    <g>
                        <path d="M10,34L10,106L262,106L262,34L10,34ZM262,34L238,10L34,10L10,34L262,34Z" style="fill:none;stroke:rgb(244,244,244);stroke-width:2px;"/>
                    </g>
                </g>
            </g>
            <g id="g-root-sy_5_cu_93dlv0d3p2bm-stroke" transform="matrix(1,0,0,1,182,74)">
                <g id="sy_5_cu_93dlv0d3p2bm-stroke">
                    <g>
                        <path d="M10,34L10,106L214,106L214,34L10,34ZM214,34L190,10L34,10L10,34L214,34Z" style="fill:none;stroke:rgb(244,244,244);stroke-width:2px;"/>
                    </g>
                </g>
            </g>
            <g id="g-root-ic_cros_4j6s4sd3qdxd-stroke" transform="matrix(1,0,0,1,398,110)">
                <g id="ic_cros_4j6s4sd3qdxd-stroke">
                    <g>
                        <path d="M34.75,17.053L13.833,17.053C12.905,17.053 12.153,17.806 12.153,18.734L12.153,45.623C12.153,46.551 12.905,47.303 13.833,47.303L54.166,47.303C55.095,47.303 55.847,46.551 55.847,45.623L55.847,28.201M30.639,47.303L27.278,55.706M37.361,47.303L40.722,55.706M23.917,55.706L44.083,55.706M50.71,12.294L44.662,12.294L44.662,17.431L39.526,17.431L39.526,23.479L44.662,23.479L44.662,28.615L50.71,28.615L50.71,23.479L55.847,23.479L55.847,17.431L50.71,17.431L50.71,12.294ZM20.545,41.793L27.343,34.229L32.035,38.346L38.93,31.069M25.584,23.417L19.107,23.417M21.983,29.324L19.106,29.324" style="fill:none;stroke:rgb(244,244,244);stroke-width:2px;"/>
                    </g>
                </g>
            </g>
            <g id="g-root-ic_48px_v7z84sd3w0lf-stroke" transform="matrix(1,0,0,1,98,206)">
                <g id="ic_48px_v7z84sd3w0lf-stroke">
                    <g>
                        <path d="M15.072,30.179C15.072,24.482 17.789,19.696 23.011,19.696C28.233,19.696 30.949,24.482 30.949,30.179L30.949,37.273C30.949,42.97 28.105,47.882 23.011,47.882C17.916,47.882 15.072,42.97 15.072,37.273L15.072,30.179ZM49.91,47.979L49.91,19.551L36.295,39.738L55.315,39.738" style="fill:none;stroke:rgb(244,244,244);stroke-width:2px;"/>
                    </g>
                </g>
            </g>
            <g id="g-root-ic_key_4ikb1od3um17-stroke" transform="matrix(1,0,0,1,422,206)">
                <g id="ic_key_4ikb1od3um17-stroke">
                    <g>
                        <path d="M34.107,31.172L50.619,14.663L56.043,20.087M16.989,48.303C21.682,52.999 29.295,53 33.989,48.306C38.684,43.611 38.683,35.998 33.987,31.305C29.294,26.609 21.681,26.608 16.987,31.303C12.292,35.997 12.293,43.61 16.989,48.303M43.572,21.711L48.998,27.136M25.488,34L25.488,40.026L30.372,42.522" style="fill:none;stroke:rgb(244,244,244);stroke-width:2px;"/>
                    </g>
                </g>
            </g>
            <g id="g-root-ic_48px_1448pgsd3xhqn-stroke" transform="matrix(1,0,0,1,74,302)">
                <g id="ic_48px_1448pgsd3xhqn-stroke">
                    <g>
                        <path d="M15.072,30.179C15.072,24.482 17.789,19.695 23.011,19.695C28.233,19.695 30.949,24.482 30.949,30.179L30.949,37.273C30.949,42.969 28.105,47.882 23.011,47.882C17.916,47.882 15.072,42.969 15.072,37.273L15.072,30.179ZM37.121,27.068C37.002,24.659 38.483,19.71 45.065,19.71C51.648,19.71 52.656,24.597 52.428,27.357C52.177,30.4 50.272,33.508 42.201,33.508C49.714,33.508 53.126,35.562 53.126,41.125C53.126,45.933 48.876,47.89 44.992,47.89C42.201,47.866 36.62,46.287 36.62,40.162" style="fill:none;stroke:rgb(244,244,244);stroke-width:2px;"/>
                    </g>
                </g>
            </g>
            <g id="g-root-ic_chec_hrix2kd3xg5h-stroke" transform="matrix(1,0,0,1,446,302)">
                <g id="ic_chec_hrix2kd3xg5h-stroke">
                    <g>
                        <path d="M27,34C27,35.105 27.895,36 29,36L33,36L33,43L40,36L55,36C56.105,36 57,35.105 57,34L57,13C57,11.895 56.105,11 55,11L29,11C27.895,11 27,11.895 27,13L27,34ZM12.5,30.5C12.5,32.985 14.515,35 17,35C19.485,35 21.5,32.985 21.5,30.5C21.5,28.015 19.485,26 17,26C14.515,26 12.5,28.015 12.5,30.5M17,37C13.686,37 11,39.686 11,43L11,47L14,47L15,57L19,57L20,47L23,47L23,43C23,39.686 20.314,37 17,37ZM47.16,19L41.46,26.6C41.198,26.94 40.807,27.157 40.38,27.2C39.955,27.219 39.542,27.06 39.24,26.76L36.28,23.82" style="fill:none;stroke:rgb(244,244,244);stroke-width:2px;"/>
                    </g>
                </g>
            </g>
            <g id="g-root-ic_48px_145hnn0d3t79c-stroke" transform="matrix(1,0,0,1,122,110)">
                <g id="ic_48px_145hnn0d3t79c-stroke">
                    <g>
                        <path d="M15.072,30.179C15.072,24.482 17.789,19.696 23.011,19.696C28.233,19.696 30.949,24.482 30.949,30.179L30.949,37.273C30.949,42.97 28.105,47.882 23.011,47.882C17.916,47.882 15.072,42.97 15.072,37.273L15.072,30.179ZM53.693,20.121L40.379,20.121L38.988,33.144C39.817,32.315 42.353,30.657 45.865,30.657C49.971,30.657 53.813,33.447 53.427,40.052C53.028,46.894 48.912,47.904 45.529,47.904C41.945,47.904 38.405,45.361 38.073,40.565" style="fill:none;stroke:rgb(244,244,244);stroke-width:2px;"/>
                    </g>
                </g>
            </g>
            <g id="g-root-ic_lock_mcys4sd3dtsb-stroke" transform="matrix(1,0,0,1,494,494)">
                <g id="ic_lock_mcys4sd3dtsb-stroke">
                    <g>
                        <path d="M14.5,15.5C14.5,13.3 16.3,11.5 18.5,11.5L40.5,11.5C42.7,11.5 44.5,13.3 44.5,15.5L44.5,52.5C44.5,54.7 42.7,56.5 40.5,56.5L18.5,56.5C16.3,56.5 14.5,54.7 14.5,52.5L14.5,25.573M11.5,20.5L38.5,20.5M44.5,20.5L56.5,20.5M50.5,14.5L56.5,20.5L50.5,26.5M38.5,49.7C38.5,50.1 38.1,50.5 37.7,50.5L21.3,50.5C20.9,50.5 20.5,50.1 20.5,49.7L20.5,39.3C20.5,38.9 20.9,38.5 21.3,38.5L37.7,38.5C38.1,38.5 38.5,38.9 38.5,39.3L38.5,49.7ZM23.5,38.5L23.5,35.5C23.5,32.1 26.1,29.5 29.5,29.5C32.9,29.5 35.5,32.1 35.5,35.5L35.5,38.5M29.5,46.706C30.718,46.706 31.706,45.718 31.706,44.5C31.706,43.282 30.718,42.294 29.5,42.294C28.282,42.294 27.294,43.282 27.294,44.5C27.294,45.718 28.282,46.706 29.5,46.706Z" style="fill:none;stroke:rgb(244,244,244);stroke-width:2px;"/>
                    </g>
                </g>
            </g>
            <g id="g-root-ic_vibr_142zugcd3ccn5-stroke" transform="matrix(1,0,0,1,470,398)">
                <g id="ic_vibr_142zugcd3ccn5-stroke">
                    <g>
                        <path d="M25.5,11.5L42.5,11.5C42.5,11.5 46.5,11.5 46.5,15.5L46.5,52.5C46.5,52.5 46.5,56.5 42.5,56.5L25.5,56.5C25.5,56.5 21.5,56.5 21.5,52.5L21.5,15.5C21.5,15.5 21.5,11.5 25.5,11.5M21.5,48.5L46.5,48.5M33.1,27.912L38.294,27.912M33.1,21.416L38.294,21.416M29.204,37.654C29.204,39.806 30.948,41.55 33.1,41.55C35.252,41.55 36.996,39.806 36.996,37.654C36.996,35.502 35.252,33.758 33.1,33.758C30.948,33.758 29.204,35.502 29.204,37.654M33.1,18.818L33.1,33.756M11.5,39.654L15.5,36.154L11.5,32.654L15.5,29.154L11.5,25.654L15.5,22.154L11.5,18.654M56.5,39.654L52.5,36.154L56.5,32.654L52.5,29.154L56.5,25.654L52.5,22.154L56.5,18.654" style="fill:none;stroke:rgb(244,244,244);stroke-width:2px;"/>
                    </g>
                </g>
            </g>
            <g id="g-root-ic_48px_18i6vhod3f5sc-stroke" transform="matrix(1,0,0,1,26,494)">
                <g id="ic_48px_18i6vhod3f5sc-stroke">
                    <g>
                        <path d="M37.842,23.377L46.297,20.184L46.297,47.951M15.072,30.179C15.072,24.482 17.789,19.695 23.011,19.695C28.233,19.695 30.949,24.482 30.949,30.179L30.949,37.273C30.949,42.969 28.105,47.882 23.011,47.882C17.916,47.882 15.072,42.969 15.072,37.273L15.072,30.179Z" style="fill:none;stroke:rgb(244,244,244);stroke-width:2px;"/>
                    </g>
                </g>
            </g>
            <g id="g-root-ic_48px_1lpwjccd3dtky-stroke" transform="matrix(1,0,0,1,50,398)">
                <g id="ic_48px_1lpwjccd3dtky-stroke">
                    <g>
                        <path d="M15.072,30.179C15.072,24.482 17.789,19.695 23.011,19.695C28.233,19.695 30.949,24.482 30.949,30.179L30.949,37.273C30.949,42.969 28.105,47.882 23.011,47.882C17.916,47.882 15.072,42.969 15.072,37.273L15.072,30.179ZM36.832,27.515C36.832,22.895 40.056,19.695 44.438,19.695C51.707,19.695 54.186,26.789 49.421,33.098L37.33,47.417L53.951,47.417" style="fill:none;stroke:rgb(244,244,244);stroke-width:2px;"/>
                    </g>
                </g>
            </g>
        </g>
    </g>
    <defs>
        <linearGradient id="_Linear1" x1="0" y1="0" x2="1" y2="0" gradientUnits="userSpaceOnUse" gradientTransform="matrix(10,490,-490,10,0,0)"><stop offset="0" style="stop-color:rgb(149,149,149);stop-opacity:1"/><stop offset="1" style="stop-color:rgb(127,127,127);stop-opacity:1"/></linearGradient>
        <linearGradient id="_Linear2" x1="0" y1="0" x2="1" y2="0" gradientUnits="userSpaceOnUse" gradientTransform="matrix(10,490,-490,10,0,0)"><stop offset="0" style="stop-color:rgb(149,149,149);stop-opacity:1"/><stop offset="1" style="stop-color:rgb(127,127,127);stop-opacity:1"/></linearGradient>
        <linearGradient id="_Linear3" x1="0" y1="0" x2="1" y2="0" gradientUnits="userSpaceOnUse" gradientTransform="matrix(10,106,-106,10,-1.77636e-15,0)"><stop offset="0" style="stop-color:rgb(78,136,230);stop-opacity:1"/><stop offset="1" style="stop-color:rgb(79,126,202);stop-opacity:1"/></linearGradient>
        <linearGradient id="_Linear4" x1="0" y1="0" x2="1" y2="0" gradientUnits="userSpaceOnUse" gradientTransform="matrix(10,106,-106,10,0,0)"><stop offset="0" style="stop-color:rgb(31,169,215);stop-opacity:1"/><stop offset="1" style="stop-color:rgb(49,135,163);stop-opacity:1"/></linearGradient>
        <linearGradient id="_Linear5" x1="0" y1="0" x2="1" y2="0" gradientUnits="userSpaceOnUse" gradientTransform="matrix(10,106,-106,10,0,0)"><stop offset="0" style="stop-color:rgb(59,196,130);stop-opacity:1"/><stop offset="1" style="stop-color:rgb(68,152,112);stop-opacity:1"/></linearGradient>
        <linearGradient id="_Linear6" x1="0" y1="0" x2="1" y2="0" gradientUnits="userSpaceOnUse" gradientTransform="matrix(10,106,-106,10,0,0)"><stop offset="0" style="stop-color:rgb(145,187,57);stop-opacity:1"/><stop offset="1" style="stop-color:rgb(125,152,68);stop-opacity:1"/></linearGradient>
        <linearGradient id="_Linear7" x1="0" y1="0" x2="1" y2="0" gradientUnits="userSpaceOnUse" gradientTransform="matrix(10,106,-106,10,0,0)"><stop offset="0" style="stop-color:rgb(221,201,22);stop-opacity:1"/><stop offset="1" style="stop-color:rgb(169,156,44);stop-opacity:1"/></linearGradient>
    </defs>
</svg>
