<?xml version="1.0" encoding="UTF-8" standalone="no"?>
<!DOCTYPE svg PUBLIC "-//W3C//DTD SVG 1.1//EN" "http://www.w3.org/Graphics/SVG/1.1/DTD/svg11.dtd">
<svg width="100%" height="100%" viewBox="0 0 702 954" version="1.1" xmlns="http://www.w3.org/2000/svg" xmlns:xlink="http://www.w3.org/1999/xlink" xml:space="preserve" xmlns:serif="http://www.serif.com/" style="fill-rule:evenodd;clip-rule:evenodd;stroke-linecap:round;stroke-linejoin:round;">
    <g id="items" transform="matrix(1.06664,0,0,1.06664,-23.3918,-52.9826)">
        <g id="blend">
            <g id="g-root-cp_5_shape-5_hs5pwh1u3dte5-fill" transform="matrix(1,0,0,1,314.303,104)">
                <g id="cp_5_shape-5_hs5pwh1u3dte5-fill">
                    <g>
                        <path d="M27.697,292L15.697,292L15.697,160L27.697,160L27.697,292ZM32.297,28.191L27.697,28.191L27.697,160L15.697,160L15.697,28.191L11.017,28.191C10.237,28.191 9.747,27.341 10.137,26.661L20.86,10.448C21.256,9.849 22.136,9.851 22.53,10.451L33.177,26.661C33.577,27.341 33.087,28.191 32.297,28.191Z" style="fill:rgb(203,104,249);"/>
                    </g>
                </g>
            </g>
            <g id="g-root-cp_1_shape-1_vpep1u3dvrb-fill" transform="matrix(1,0,0,1,32,103.816)">
                <g id="cp_1_shape-1_vpep1u3dvrb-fill">
                    <g>
                        <path d="M214,328.184L46,328.183C26.118,328.183 10,312.081 10,292.199L10,292.184L250,292.184C250,312.066 233.882,328.184 214,328.184ZM254.6,28.375L250,28.375L250,160.184L10,160.184C10,140.302 26.118,124.505 46,124.505L172,124.505C213.07,124.505 238,94.374 238,55.034L238,28.374L233.32,28.374C232.54,28.374 232.05,27.524 232.44,26.844L243.163,10.632C243.559,10.033 244.439,10.034 244.833,10.635L255.48,26.844C255.88,27.525 255.39,28.375 254.6,28.375ZM250,160.184L250,292.184L10,292.184L10,160.184L250,160.184Z" style="fill:rgb(255,231,17);"/>
                    </g>
                </g>
            </g>
            <g id="g-root-cp_3_shape-3_1umsqch1u3dt6p-fill" transform="matrix(1,0,0,1,284.303,104)">
                <g id="cp_3_shape-3_1umsqch1u3dt6p-fill">
                    <g>
                        <path d="M27.697,292L15.697,292L15.697,160L27.697,160L27.697,292ZM32.297,28.191L27.697,28.191L27.697,160L15.697,160L15.697,28.191L11.017,28.191C10.237,28.191 9.747,27.341 10.137,26.661L20.86,10.448C21.256,9.849 22.136,9.851 22.53,10.451L33.177,26.661C33.577,27.341 33.087,28.191 32.297,28.191Z" style="fill:rgb(247,148,56);"/>
                    </g>
                </g>
            </g>
            <g id="g-root-cp_3_shape-3_1_1hbc7z51u3durn-fill" transform="matrix(1,0,0,1,32,386)">
                <g id="cp_3_shape-3_1_1hbc7z51u3durn-fill">
                    <g>
                        <path d="M214,64.321C244,64.321 268,46 268,10L280,10L280,100.306L10,100.306C10,80.423 26.118,64.321 46,64.321L214,64.321Z" style="fill:rgb(247,148,56);"/>
                    </g>
                </g>
            </g>
            <g id="g-root-cp_5_shape-5_1_v4v6g11u3dtzh-fill" transform="matrix(1,0,0,1,320,386)">
                <g id="cp_5_shape-5_1_v4v6g11u3dtzh-fill">
                    <g>
                        <rect x="10" y="10" width="12" height="222" style="fill:rgb(203,104,249);"/>
                    </g>
                </g>
            </g>
            <g id="g-root-cp_3_shape-3_2_hteo2p1u3dvkf-fill" transform="matrix(1,0,0,1,32,476)">
                <g id="cp_3_shape-3_2_hteo2p1u3dvkf-fill">
                    <g>
                        <path d="M280,10L280,141.979L10,141.979L10,10L280,10ZM244,178.008L46,178.008C26.118,178.008 10,161.905 10,142.023L10,142.008L280,142.008C280,161.89 263.882,178.008 244,178.008Z" style="fill:rgb(247,148,56);"/>
                    </g>
                </g>
            </g>
            <g id="g-root-cp_5_shape-5_2_de7n1d1u3dt6x-fill" transform="matrix(1,0,0,1,32,608)">
                <g id="cp_5_shape-5_2_de7n1d1u3dt6x-fill">
                    <g>
                        <path d="M244,64.137C274,64.137 298,45.878 298,10L310,10L310,100L10,100C10,80.185 26.118,64.137 46,64.137L244,64.137Z" style="fill:rgb(203,104,249);"/>
                    </g>
                </g>
            </g>
            <g id="g-root-cp_5_shape-5_3_2r4o11u3durv-fill" transform="matrix(1,0,0,1,32,698)">
                <g id="cp_5_shape-5_3_2r4o11u3durv-fill">
                    <g>
                        <path d="M310,10L310,118L10,118L10,10L310,10ZM274,154.008L46,154.008C26.118,154.008 10,137.882 10,118L310,118C310,137.882 293.882,154.008 274,154.008Z" style="fill:rgb(203,104,249);"/>
                    </g>
                </g>
            </g>
            <g id="g-root-cp_2_shape-2_1lseo9t1u3dw5p-fill" transform="matrix(1,0,0,1,404.378,103.816)">
                <g id="cp_2_shape-2_1lseo9t1u3dw5p-fill">
                    <g>
                        <path d="M51.622,352.184L219.622,352.184C239.504,352.184 255.622,336.081 255.622,316.199L255.622,316.184L15.622,316.184C15.622,336.066 31.74,352.184 51.622,352.184ZM11.022,28.375L15.622,28.375L15.622,160.184L255.622,160.184C255.622,140.302 239.505,124.505 219.623,124.505L93.622,124.505C52.552,124.505 27.622,94.374 27.622,55.034L27.622,28.374L32.302,28.374C33.082,28.374 33.572,27.524 33.182,26.844L22.459,10.632C22.063,10.033 21.184,10.034 20.79,10.635L10.142,26.844C9.742,27.525 10.232,28.375 11.022,28.375ZM15.622,160.184L15.622,316.184L255.622,316.184L255.622,160.184L15.622,160.184Z" style="fill:rgb(67,221,147);"/>
                    </g>
                </g>
            </g>
            <g id="g-root-cp_4_shape-4_1hd7n8h1u3dts7-fill" transform="matrix(1,0,0,1,374.383,104)">
                <g id="cp_4_shape-4_1hd7n8h1u3dts7-fill">
                    <g>
                        <path d="M15.623,316L27.623,316L27.623,160L15.623,160L15.623,316ZM11.022,28.191L15.622,28.191L15.622,160L27.622,160L27.622,28.191L32.302,28.191C33.082,28.191 33.572,27.341 33.182,26.661L22.459,10.448C22.063,9.849 21.184,9.851 20.79,10.451L10.142,26.661C9.742,27.341 10.232,28.191 11.022,28.191Z" style="fill:rgb(251,103,98);"/>
                    </g>
                </g>
            </g>
            <g id="g-root-cp_6_shape-6_141r4v51u3dvd5-fill" transform="matrix(1,0,0,1,344.383,104)">
                <g id="cp_6_shape-6_141r4v51u3dvd5-fill">
                    <g>
                        <path d="M15.623,316L27.623,316L27.623,160L15.623,160L15.623,316ZM11.022,28.191L15.622,28.191L15.622,160L27.622,160L27.622,28.191L32.302,28.191C33.082,28.191 33.572,27.341 33.182,26.661L22.459,10.448C22.063,9.849 21.184,9.851 20.79,10.451L10.142,26.661C9.742,27.341 10.232,28.191 11.022,28.191Z" style="fill:rgb(243,102,187);"/>
                    </g>
                </g>
            </g>
            <g id="g-root-cp_4_shape-4_1_zlxmqp1u3dw5f-fill" transform="matrix(1,0,0,1,380,410)">
                <g id="cp_4_shape-4_1_zlxmqp1u3dw5f-fill">
                    <g>
                        <path d="M76,64.321C46,64.321 22,46 22,10L10,10L10,100.306L280,100.306C280,80.423 263.882,64.321 244,64.321L76,64.321Z" style="fill:rgb(251,103,98);"/>
                    </g>
                </g>
            </g>
            <g id="g-root-cp_4_shape-4_2_qqx3kx1u3dtsd-fill" transform="matrix(1,0,0,1,380,500)">
                <g id="cp_4_shape-4_2_qqx3kx1u3dtsd-fill">
                    <g>
                        <path d="M10,10L10,142L280,142L280,10L10,10ZM46,178L244,178C263.882,178 280,161.898 280,142.016L280,142L10,142C10,161.882 26.118,178 46,178Z" style="fill:rgb(251,103,98);"/>
                    </g>
                </g>
            </g>
            <g id="g-root-cp_6_shape-6_1_dfgl7l1u3dvdb-fill" transform="matrix(1,0,0,1,350,410)">
                <g id="cp_6_shape-6_1_dfgl7l1u3dvdb-fill">
                    <g>
                        <rect x="10" y="10" width="12" height="222" style="fill:rgb(243,102,187);"/>
                    </g>
                </g>
            </g>
            <g id="g-root-cp_6_shape-6_2_4kg21t1u3dts1-fill" transform="matrix(1,0,0,1,350,632)">
                <g id="cp_6_shape-6_2_4kg21t1u3dts1-fill">
                    <g>
                        <path d="M76,64.321C46,64.321 22,46 22,10L10,10L10,100.306L310,100.306C310,80.423 293.882,64.321 274,64.321L76,64.321Z" style="fill:rgb(243,102,187);"/>
                    </g>
                </g>
            </g>
            <g id="g-root-cp_6_shape-6_3_1qa3lnl1u3dv5v-fill" transform="matrix(1,0,0,1,350,722)">
                <g id="cp_6_shape-6_3_1qa3lnl1u3dv5v-fill">
                    <g>
                        <path d="M10,10L10,118L310,118L310,10L10,10ZM46,154L274,154C293.882,154 310,137.898 310,118.016L310,118L10,118C10,137.882 26.118,154 46,154Z" style="fill:rgb(243,102,187);"/>
                    </g>
                </g>
            </g>
            <g id="g-root-tx_advanced_mccjmp1u3p4aw-fill" transform="matrix(1,0,0,1,440,362)">
                <g id="tx_advanced_mccjmp1u3p4aw-fill">
                    <g>
                        <g>
                            <g transform="matrix(1,0,0,1,15.18,31.2)">
                                <text x="0px" y="0px" style="font-family:'ArialMT', 'Arial', sans-serif;font-size:15px;fill:rgb(44,44,44);">Advanced technology for</text>
                            </g>
                            <g transform="matrix(1,0,0,1,22.92,49.2)">
                                <text x="0px" y="0px" style="font-family:'ArialMT', 'Arial', sans-serif;font-size:15px;fill:rgb(44,44,44);">better patient care and</text>
                            </g>
                            <g transform="matrix(1,0,0,1,51.97,67.2)">
                                <text x="0px" y="0px" style="font-family:'ArialMT', 'Arial', sans-serif;font-size:15px;fill:rgb(44,44,44);">management.</text>
                            </g>
                        </g>
                    </g>
                </g>
            </g>
            <g id="g-root-tx_efficien_1ursj1d1u3dtdz-fill" transform="matrix(1,0,0,1,62,338)">
                <g id="tx_efficien_1ursj1d1u3dtdz-fill">
                    <g>
                        <g>
                            <g transform="matrix(1,0,0,1,17.15,31.2)">
                                <g transform="matrix(15,0,0,15,10.0049,0)">
                                </g>
                                <g transform="matrix(15,0,0,15,14.0389,0)">
                                </g>
                                <g transform="matrix(15,0,0,15,18.073,0)">
                                </g>
                                <text x="0px" y="0px" style="font-family:'ArialMT', 'Arial', sans-serif;font-size:15px;fill:rgb(44,44,44);">Eﬃcient communication</text>
                            </g>
                            <g transform="matrix(1,0,0,1,13.9,49.2)">
                                <text x="0px" y="0px" style="font-family:'ArialMT', 'Arial', sans-serif;font-size:15px;fill:rgb(44,44,44);">for customer satisfaction</text>
                            </g>
                            <g transform="matrix(1,0,0,1,55.98,67.2)">
                                <text x="0px" y="0px" style="font-family:'ArialMT', 'Arial', sans-serif;font-size:15px;fill:rgb(44,44,44);">and support.</text>
                            </g>
                        </g>
                    </g>
                </g>
            </g>
            <g id="g-root-tx_healthca_1upx3s11u3p1xr-fill" transform="matrix(1,0,0,1,446,302)">
                <g id="tx_healthca_1upx3s11u3p1xr-fill">
                    <g>
                        <g>
                            <g transform="matrix(1,0,0,1,35.97,34)">
                                <text x="0px" y="0px" style="font-family:'Arial-BoldMT', 'Arial', sans-serif;font-weight:700;font-size:20px;fill:rgb(44,44,44);">Healthcare &amp;</text>
                            </g>
                            <g transform="matrix(1,0,0,1,17.1,58)">
                                <text x="0px" y="0px" style="font-family:'Arial-BoldMT', 'Arial', sans-serif;font-weight:700;font-size:20px;fill:rgb(44,44,44);">Medical Services</text>
                            </g>
                        </g>
                    </g>
                </g>
            </g>
            <g transform="matrix(1,0,0,1,79.63,558)">
                <g id="g-root-tx_financec_1ltnmg11u3jgn5-fill">
                    <g id="tx_financec_1ltnmg11u3jgn5-fill">
                        <g>
                            <g>
                                <text x="0px" y="0px" style="font-family:'Arial-BoldMT', 'Arial', sans-serif;font-weight:700;font-size:20px;fill:rgb(44,44,44);">Finance &amp; Collections</text>
                            </g>
                        </g>
                    </g>
                </g>
            </g>
            <g id="g-root-tx_securean_144917l1u3jh8q-fill" transform="matrix(1,0,0,1,65,560)">
                <g id="tx_securean_144917l1u3jh8q-fill">
                    <g>
                        <g>
                            <g transform="matrix(1,0,0,1,16.8,31.2)">
                                <g transform="matrix(15,0,0,15,133.418,0)">
                                </g>
                                <g transform="matrix(15,0,0,15,137.585,0)">
                                </g>
                                <text x="0px" y="0px" style="font-family:'ArialMT', 'Arial', sans-serif;font-size:15px;fill:rgb(44,44,44);">Secure and reliable ﬁnancial</text>
                            </g>
                            <g transform="matrix(1,0,0,1,37.58,49.2)">
                                <text x="0px" y="0px" style="font-family:'ArialMT', 'Arial', sans-serif;font-size:15px;fill:rgb(44,44,44);">transactions and debt</text>
                            </g>
                            <g transform="matrix(1,0,0,1,80.25,67.2)">
                                <text x="0px" y="0px" style="font-family:'ArialMT', 'Arial', sans-serif;font-size:15px;fill:rgb(44,44,44);">recovery<tspan x="56.404px " y="0px ">.</tspan></text>
                            </g>
                        </g>
                    </g>
                </g>
            </g>
            <g transform="matrix(1,0,0,1,428.97,582)">
                <g id="g-root-tx_ecommerc_4lp0811u3qgw2-fill">
                    <g id="tx_ecommerc_4lp0811u3qgw2-fill">
                        <g>
                            <g>
                                <text x="0px" y="0px" style="font-family:'Arial-BoldMT', 'Arial', sans-serif;font-weight:700;font-size:20px;fill:rgb(44,44,44);">E-Commerce &amp; Retail</text>
                            </g>
                        </g>
                    </g>
                </g>
            </g>
            <g id="g-root-tx_outsourc_4g2tlt1u387pi-fill" transform="matrix(1,0,0,1,380,806)">
                <g id="tx_outsourc_4g2tlt1u387pi-fill">
                    <g>
                        <g>
                            <g transform="matrix(1,0,0,1,14.21,28.2)">
                                <text x="0px" y="0px" style="font-family:'ArialMT', 'Arial', sans-serif;font-size:15px;fill:rgb(44,44,44);">Outsourced services for enhanced</text>
                            </g>
                            <g transform="matrix(1,0,0,1,58.89,46.2)">
                                <text x="0px" y="0px" style="font-family:'ArialMT', 'Arial', sans-serif;font-size:15px;fill:rgb(44,44,44);">business operations.</text>
                            </g>
                        </g>
                    </g>
                </g>
            </g>
            <g transform="matrix(1,0,0,1,107.2,336)">
                <g id="g-root-tx_callcent_dhc0gx1u3dudq-fill">
                    <g id="tx_callcent_dhc0gx1u3dudq-fill">
                        <g>
                            <g>
                                <text x="0px" y="0px" style="font-family:'Arial-BoldMT', 'Arial', sans-serif;font-weight:700;font-size:20px;fill:rgb(44,44,44);">Call Centers</text>
                            </g>
                        </g>
                    </g>
                </g>
            </g>
            <g transform="matrix(1,0,0,1,102.72,780)">
                <g id="g-root-tx_educatio_mcz0pt1u3kwzo-fill">
                    <g id="tx_educatio_mcz0pt1u3kwzo-fill">
                        <g>
                            <g>
                                <text x="0px" y="0px" style="font-family:'Arial-BoldMT', 'Arial', sans-serif;font-weight:700;font-size:20px;fill:rgb(44,44,44);">Education &amp; EdT<tspan x="158.516px 169.639px " y="0px 0px ">ec</tspan>h</text>
                            </g>
                        </g>
                    </g>
                </g>
            </g>
            <g id="g-root-tx_innovati_dj7fq91u3kwsl-fill" transform="matrix(1,0,0,1,68,782)">
                <g id="tx_innovati_dj7fq91u3kwsl-fill">
                    <g>
                        <g>
                            <g transform="matrix(1,0,0,1,17.52,28.2)">
                                <text x="0px" y="0px" style="font-family:'ArialMT', 'Arial', sans-serif;font-size:15px;fill:rgb(44,44,44);">Innovative educational tools for</text>
                            </g>
                            <g transform="matrix(1,0,0,1,27.4,46.2)">
                                <g transform="matrix(15,0,0,15,8.34229,0)">
                                </g>
                                <g transform="matrix(15,0,0,15,12.3486,0)">
                                </g>
                                <text x="0px" y="0px" style="font-family:'ArialMT', 'Arial', sans-serif;font-size:15px;fill:rgb(44,44,44);">eﬀective learning outcomes.</text>
                            </g>
                        </g>
                    </g>
                </g>
            </g>
            <g transform="matrix(1,0,0,1,408.74,804)">
                <g id="g-root-tx_telemark_1464jmp1u36tc5-fill">
                    <g id="tx_telemark_1464jmp1u36tc5-fill">
                        <g>
                            <g>
                                <text x="0px" y="0px" style="font-family:'Arial-BoldMT', 'Arial', sans-serif;font-weight:700;font-size:20px;fill:rgb(44,44,44);">T<tspan x="10.732px 21.855px " y="0px 0px ">el</tspan>emarketing &amp; BPOs</text>
                            </g>
                        </g>
                    </g>
                </g>
            </g>
            <g id="g-root-tx_seamless_dikyn51u3qhhn-fill" transform="matrix(1,0,0,1,419,584)">
                <g id="tx_seamless_dikyn51u3qhhn-fill">
                    <g>
                        <g>
                            <g transform="matrix(1,0,0,1,16.73,31.2)">
                                <text x="0px" y="0px" style="font-family:'ArialMT', 'Arial', sans-serif;font-size:15px;fill:rgb(44,44,44);">Seamless online shopping</text>
                            </g>
                            <g transform="matrix(1,0,0,1,31.2,49.2)">
                                <text x="0px" y="0px" style="font-family:'ArialMT', 'Arial', sans-serif;font-size:15px;fill:rgb(44,44,44);">experiences and retail</text>
                            </g>
                            <g transform="matrix(1,0,0,1,71.5,67.2)">
                                <text x="0px" y="0px" style="font-family:'ArialMT', 'Arial', sans-serif;font-size:15px;fill:rgb(44,44,44);">solutions.</text>
                            </g>
                        </g>
                    </g>
                </g>
            </g>
            <g id="g-root-cp_5_shape-5_hs5pwh1u3dte5-stroke" transform="matrix(1,0,0,1,314.303,104)">
                <g id="cp_5_shape-5_hs5pwh1u3dte5-stroke">
                    <g>
                        <path d="M15.697,160L15.697,292M27.697,292L27.697,160M15.697,160L15.697,28.191L11.017,28.191C10.237,28.191 9.747,27.341 10.137,26.661L20.86,10.448C21.256,9.849 22.136,9.851 22.53,10.451L33.177,26.661C33.577,27.341 33.087,28.191 32.297,28.191L27.697,28.191L27.697,160" style="fill:none;stroke:rgb(44,44,44);stroke-width:2px;"/>
                    </g>
                </g>
            </g>
            <g id="g-root-cp_1_shape-1_vpep1u3dvrb-stroke" transform="matrix(1,0,0,1,32,103.816)">
                <g id="cp_1_shape-1_vpep1u3dvrb-stroke">
                    <g>
                        <path d="M10,160.184C10,140.301 26.118,124.321 46,124.321L172,124.321C213.07,124.321 238,94.191 238,54.851L238,28.191L233.32,28.191C232.54,28.191 232.05,27.341 232.44,26.661L243.163,10.448C243.559,9.849 244.439,9.851 244.833,10.451L255.48,26.661C255.88,27.341 255.39,28.191 254.6,28.191L250,28.191L250,160.184M250,292.184C250,312.066 233.882,328.191 214,328.191L46,328.191C26.118,328.191 10,312.081 10,292.199L10,292.184M250,292.184L250,160.184M10,160.184L10,292.184" style="fill:none;stroke:rgb(44,44,44);stroke-width:2px;"/>
                    </g>
                </g>
            </g>
            <g id="g-root-cp_3_shape-3_1umsqch1u3dt6p-stroke" transform="matrix(1,0,0,1,284.303,104)">
                <g id="cp_3_shape-3_1umsqch1u3dt6p-stroke">
                    <g>
                        <path d="M15.697,160L15.697,292M27.697,292L27.697,160M15.697,160L15.697,28.191L11.017,28.191C10.237,28.191 9.747,27.341 10.137,26.661L20.86,10.448C21.256,9.849 22.136,9.851 22.53,10.451L33.177,26.661C33.577,27.341 33.087,28.191 32.297,28.191L27.697,28.191L27.697,160" style="fill:none;stroke:rgb(44,44,44);stroke-width:2px;"/>
                    </g>
                </g>
            </g>
            <g id="g-root-cp_3_shape-3_1_1hbc7z51u3durn-stroke" transform="matrix(1,0,0,1,32,386)">
                <g id="cp_3_shape-3_1_1hbc7z51u3durn-stroke">
                    <g>
                        <path d="M268,10C268,46 244,64.321 214,64.321L46,64.321C26.118,64.321 10,80.423 10,100.306M280,100.306L280,10" style="fill:none;stroke:rgb(44,44,44);stroke-width:2px;"/>
                    </g>
                </g>
            </g>
            <g id="g-root-cp_5_shape-5_1_v4v6g11u3dtzh-stroke" transform="matrix(1,0,0,1,320,386)">
                <g id="cp_5_shape-5_1_v4v6g11u3dtzh-stroke">
                    <g>
                        <path d="M10,10L10,232M22,232L22,10" style="fill:none;stroke:rgb(44,44,44);stroke-width:2px;"/>
                    </g>
                </g>
            </g>
            <g id="g-root-cp_3_shape-3_2_hteo2p1u3dvkf-stroke" transform="matrix(1,0,0,1,32,476)">
                <g id="cp_3_shape-3_2_hteo2p1u3dvkf-stroke">
                    <g>
                        <path d="M280,141.979L280,10M10,10L10,142M280,142.008C280,161.89 263.882,178.008 244,178.008L46,178.008C26.118,178.008 10,161.905 10,142.023L10,142.008" style="fill:none;stroke:rgb(44,44,44);stroke-width:2px;"/>
                    </g>
                </g>
            </g>
            <g id="g-root-cp_5_shape-5_2_de7n1d1u3dt6x-stroke" transform="matrix(1,0,0,1,32,608)">
                <g id="cp_5_shape-5_2_de7n1d1u3dt6x-stroke">
                    <g>
                        <path d="M298,10C298,45.878 274,64.137 244,64.137L46,64.137C26.118,64.137 10,80.185 10,100M310,100L310,10" style="fill:none;stroke:rgb(44,44,44);stroke-width:2px;"/>
                    </g>
                </g>
            </g>
            <g id="g-root-cp_5_shape-5_3_2r4o11u3durv-stroke" transform="matrix(1,0,0,1,32,698)">
                <g id="cp_5_shape-5_3_2r4o11u3durv-stroke">
                    <g>
                        <path d="M310,118L310,10M10,10L10,118M310,118C310,137.882 293.882,154.008 274,154.008L46,154.008C26.118,154.008 10,137.882 10,118" style="fill:none;stroke:rgb(44,44,44);stroke-width:2px;"/>
                    </g>
                </g>
            </g>
            <g id="g-root-cp_2_shape-2_1lseo9t1u3dw5p-stroke" transform="matrix(1,0,0,1,404.378,103.816)">
                <g id="cp_2_shape-2_1lseo9t1u3dw5p-stroke">
                    <g>
                        <path d="M255.622,160.184C255.622,140.301 239.505,124.321 219.623,124.321L93.622,124.321C52.552,124.321 27.622,94.191 27.622,54.851L27.622,28.191L32.302,28.191C33.082,28.191 33.572,27.341 33.182,26.661L22.459,10.448C22.063,9.849 21.184,9.851 20.79,10.451L10.142,26.661C9.742,27.341 10.232,28.191 11.022,28.191L15.622,28.191L15.622,160.184M15.622,316.184C15.622,336.066 31.74,352.184 51.622,352.184L219.623,352.183C239.505,352.183 255.622,336.081 255.622,316.199L255.622,316.184M15.622,316.184L15.622,160.184M255.622,160.184L255.622,316.184" style="fill:none;stroke:rgb(44,44,44);stroke-width:2px;"/>
                    </g>
                </g>
            </g>
            <g id="g-root-cp_4_shape-4_1hd7n8h1u3dts7-stroke" transform="matrix(1,0,0,1,374.383,104)">
                <g id="cp_4_shape-4_1hd7n8h1u3dts7-stroke">
                    <g>
                        <path d="M27.622,160L27.622,316M15.622,316L15.622,160M27.622,160L27.622,28.191L32.302,28.191C33.082,28.191 33.572,27.341 33.182,26.661L22.459,10.448C22.063,9.849 21.184,9.851 20.79,10.451L10.142,26.661C9.742,27.341 10.232,28.191 11.022,28.191L15.622,28.191L15.622,160" style="fill:none;stroke:rgb(44,44,44);stroke-width:2px;"/>
                    </g>
                </g>
            </g>
            <g id="g-root-cp_6_shape-6_141r4v51u3dvd5-stroke" transform="matrix(1,0,0,1,344.383,104)">
                <g id="cp_6_shape-6_141r4v51u3dvd5-stroke">
                    <g>
                        <path d="M27.622,160L27.622,316M15.622,316L15.622,160M27.622,160L27.622,28.191L32.302,28.191C33.082,28.191 33.572,27.341 33.182,26.661L22.459,10.448C22.063,9.849 21.184,9.851 20.79,10.451L10.142,26.661C9.742,27.341 10.232,28.191 11.022,28.191L15.622,28.191L15.622,160" style="fill:none;stroke:rgb(44,44,44);stroke-width:2px;"/>
                    </g>
                </g>
            </g>
            <g id="g-root-cp_4_shape-4_1_zlxmqp1u3dw5f-stroke" transform="matrix(1,0,0,1,380,410)">
                <g id="cp_4_shape-4_1_zlxmqp1u3dw5f-stroke">
                    <g>
                        <path d="M22,10C22,46 46,64.321 76,64.321L244,64.321C263.882,64.321 280,80.423 280,100.306M10,100.306L10,10" style="fill:none;stroke:rgb(44,44,44);stroke-width:2px;"/>
                    </g>
                </g>
            </g>
            <g id="g-root-cp_4_shape-4_2_qqx3kx1u3dtsd-stroke" transform="matrix(1,0,0,1,380,500)">
                <g id="cp_4_shape-4_2_qqx3kx1u3dtsd-stroke">
                    <g>
                        <path d="M10,142L10,10M280,10L280,142M10,142C10,161.882 26.118,178.008 46,178.008L244,178.008C263.882,178.008 280,161.898 280,142.016L280,142" style="fill:none;stroke:rgb(44,44,44);stroke-width:2px;"/>
                    </g>
                </g>
            </g>
            <g id="g-root-cp_6_shape-6_1_dfgl7l1u3dvdb-stroke" transform="matrix(1,0,0,1,350,410)">
                <g id="cp_6_shape-6_1_dfgl7l1u3dvdb-stroke">
                    <g>
                        <path d="M22,10L22,232M10,232L10,10" style="fill:none;stroke:rgb(44,44,44);stroke-width:2px;"/>
                    </g>
                </g>
            </g>
            <g id="g-root-cp_6_shape-6_2_4kg21t1u3dts1-stroke" transform="matrix(1,0,0,1,350,632)">
                <g id="cp_6_shape-6_2_4kg21t1u3dts1-stroke">
                    <g>
                        <path d="M22,10C22,46 46,64.321 76,64.321L274,64.321C293.882,64.321 310,80.423 310,100.306M10,100.306L10,10" style="fill:none;stroke:rgb(44,44,44);stroke-width:2px;"/>
                    </g>
                </g>
            </g>
            <g id="g-root-cp_6_shape-6_3_1qa3lnl1u3dv5v-stroke" transform="matrix(1,0,0,1,350,722)">
                <g id="cp_6_shape-6_3_1qa3lnl1u3dv5v-stroke">
                    <g>
                        <path d="M10,118L10,10M310,10L310,118M10,118C10,137.882 26.118,154.008 46,154.008L274,154.008C293.882,154.008 310,137.898 310,118.016L310,118" style="fill:none;stroke:rgb(44,44,44);stroke-width:2px;"/>
                    </g>
                </g>
            </g>
            <g id="g-root-ic_lock_vahg811u3jh1n-stroke" transform="matrix(1,0,0,1,143,464)">
                <g id="ic_lock_vahg811u3jh1n-stroke">
                    <g>
                        <path d="M35.526,45.496L15.378,45.496C13.07,45.494 11.2,43.622 11.2,41.314L11.2,15.182C11.2,12.874 13.07,11.002 15.378,11L46.738,11C49.047,11.001 50.918,12.873 50.918,15.182L50.918,27.854M11.196,19.166L50.918,19.166M11.196,36.516L35.526,36.516M11.196,27.854L50.918,27.854M27.42,19.166L27.42,45.496M39.052,19.166L39.052,33.206M39.672,45.104C39.672,43.462 41.004,42.13 42.646,42.13L53.83,42.13C55.471,42.132 56.8,43.463 56.8,45.104L56.8,54.026C56.8,55.667 55.471,56.998 53.83,57L42.646,57C41.004,57 39.672,55.668 39.672,54.026L39.672,45.104ZM48.238,33.2C45.019,33.267 42.463,35.929 42.528,39.148L42.528,42.124L53.948,42.124L53.948,39.154C54.016,35.933 51.459,33.267 48.238,33.2L48.238,33.2ZM48.238,47.482C47.359,47.446 46.547,47.948 46.186,48.749C45.825,49.551 45.987,50.492 46.596,51.126C47.205,51.76 48.138,51.961 48.954,51.633C49.77,51.304 50.304,50.513 50.304,49.634C50.327,48.469 49.403,47.506 48.238,47.482" style="fill:none;stroke:rgb(44,44,44);stroke-width:2px;"/>
                    </g>
                </g>
            </g>
            <g id="g-root-ic_vr_18lxyld1u3qivg-stroke" transform="matrix(1,0,0,1,491,488)">
                <g id="ic_vr_18lxyld1u3qivg-stroke">
                    <g>
                        <path d="M51,51L51,53M51,41L51,43M47,47L45,47M57,47L55,47M19,21L19,23M19,11L19,13M15,17L13,17M25,17L23,17M49,31C49,32.105 49.895,33 51,33C52.105,33 53,32.105 53,31C53,29.895 52.105,29 51,29C49.895,29 49,29.895 49,31M41,31C41,32.105 41.895,33 43,33C44.105,33 45,32.105 45,31C45,29.895 44.105,29 43,29C41.895,29 41,29.895 41,31M57,12L52,27L42,27L39,17L55.334,17M36.316,37C34.624,32.201 30.088,28.991 24.999,28.991C19.91,28.991 15.374,32.201 13.682,37M39,39L39,45.344C39,46.405 38.578,47.422 37.828,48.172L36.866,49.134C35.735,50.266 34.038,50.614 32.552,50.02L25,47L17.448,50.02C15.962,50.614 14.265,50.266 13.134,49.134L12.172,48.172C11.422,47.422 11,46.405 11,45.344L11,39C11,37.895 11.895,37 13,37L37,37C38.105,37 39,37.895 39,39ZM17.932,54.698C22.048,57.698 27.611,57.773 31.806,54.884M25,27L25,37M28,52C26.222,53.333 23.778,53.333 22,52M22,41L29,41" style="fill:none;stroke:rgb(44,44,44);stroke-width:2px;"/>
                    </g>
                </g>
            </g>
            <g id="g-root-ic_buil_1d0iijl1u3p3b5-stroke" transform="matrix(1,0,0,1,506,242)">
                <g id="ic_buil_1d0iijl1u3p3b5-stroke">
                    <g>
                        <path d="M17,19C17,23.418 20.582,27 25,27C29.418,27 33,23.418 33,19C33,14.582 29.418,11 25,11C20.582,11 17,14.582 17,19ZM17,37L33,37M17,31L33,31M17,43L25,43M17,49L25,49M25,15L25,23M29,19L21,19M29,56C29,56.552 29.448,57 30,57L56,57C56.552,57 57,56.552 57,56L57,43C57,41.895 56.105,41 55,41L31,41C29.895,41 29,41.895 29,43L29,56ZM13,22C11.895,22 11,22.895 11,24L11,56C11,56.552 11.448,57 12,57L25,57M39,37L39,24C39,22.895 38.105,22 37,22M41,53L45,53L45,57L41,57L41,53ZM33,49L35,49M35,45L33,45M39,49L41,49M41,45L39,45M45,49L47,49M47,45L45,45M51,49L53,49M53,45L51,45" style="fill:none;stroke:rgb(44,44,44);stroke-width:2px;"/>
                    </g>
                </g>
            </g>
            <g id="g-root-ic_head_zpoh9d1u3du68-stroke" transform="matrix(1,0,0,1,128,242)">
                <g id="ic_head_zpoh9d1u3du68-stroke">
                    <g>
                        <path d="M51.906,35.044C51.031,39.444 48.293,43.25 44.4,45.48L44.4,57M24.4,57L24.4,50.046C20.4,50.068 18.364,49.78 16.962,48.376C15.162,46.576 15.336,39 15.336,39C15.336,39 13.63,39.064 12.336,39.012C11.884,38.99 11.467,38.765 11.2,38.4C11.018,38.007 10.949,37.57 11,37.14C10.756,33.926 15.278,28.414 15.278,26.812C15.278,16.75 24.78,11 33.4,11C42.789,10.897 50.807,17.752 52.166,27.042M30.082,31.042C30.082,34.615 32.979,37.512 36.552,37.512C40.125,37.512 43.022,34.615 43.022,31.042C43.022,27.469 40.125,24.572 36.552,24.572C32.979,24.572 30.082,27.469 30.082,31.042M33.822,36.908L31.702,40.2C30.966,41.344 29.699,42.036 28.338,42.036L26.522,42.036M41.634,27.042L55.022,27.042C56.127,27.042 57.022,27.937 57.022,29.042L57.022,33.042C57.022,34.147 56.127,35.042 55.022,35.042L41.634,35.042M22.022,42.042C22.022,43.285 23.029,44.292 24.272,44.292C25.515,44.292 26.522,43.285 26.522,42.042C26.522,40.799 25.515,39.792 24.272,39.792C23.029,39.792 22.022,40.799 22.022,42.042M43.022,31.042L52.172,31.042" style="fill:none;stroke:rgb(44,44,44);stroke-width:2px;"/>
                    </g>
                </g>
            </g>
            <g id="g-root-ic_math_1cu9roh1u3mayu-stroke" transform="matrix(1,0,0,1,158,686)">
                <g id="ic_math_1cu9roh1u3mayu-stroke">
                    <g>
                        <path d="M46.5,42.9C46.5,42.9 45.5,40.1 37.9,39.7C37.1,39.7 36.5,40.1 36.5,40.7L36.5,52.3C36.5,52.9 37.1,53.3 37.7,53.3C45.5,53.5 46.5,56.5 46.5,56.5L46.5,42.9ZM46.5,42.9C46.5,42.9 47.5,40.1 55.1,39.7C55.9,39.7 56.5,40.1 56.5,40.7L56.5,52.3C56.5,52.9 55.9,53.3 55.3,53.3C47.5,53.5 46.5,56.5 46.5,56.5M44.858,22.153L35.147,22.153M40.002,18.045C40.415,18.045 40.749,17.71 40.749,17.298C40.749,16.885 40.415,16.551 40.002,16.551M40.002,18.045C39.59,18.045 39.255,17.71 39.255,17.298C39.255,16.885 39.59,16.551 40.002,16.551M40.002,27.942C40.415,27.942 40.749,27.608 40.749,27.195C40.749,26.783 40.415,26.448 40.002,26.448M40.002,27.942C39.59,27.942 39.255,27.608 39.255,27.195C39.255,26.783 39.59,26.448 40.002,26.448M17.278,34.838L21.573,37.64L23.814,29.236L32.218,29.236M52.7,34.3L52.7,14.3C52.7,12.7 51.5,11.5 49.9,11.5L14.3,11.5C12.7,11.5 11.5,12.7 11.5,14.3L11.5,41.7C11.5,43.3 12.7,44.5 14.3,44.5L29.9,44.5M27.3,44.5L25.9,52.5M29.4,52.5L23.9,52.5" style="fill:none;stroke:rgb(44,44,44);stroke-width:2px;"/>
                    </g>
                </g>
            </g>
            <g id="g-root-ic_wome_qpo8kh1u388w7-stroke" transform="matrix(1,0,0,1,476,710)">
                <g id="ic_wome_qpo8kh1u388w7-stroke">
                    <g>
                        <path d="M35,19.976C35,24.979 39.055,29.034 44.058,29.034C49.061,29.034 53.116,24.979 53.116,19.976C53.116,14.973 49.061,10.918 44.058,10.918C39.055,10.918 35,14.973 35,19.976ZM57,32.916L50.504,26.422M45.082,42.878C47.926,43.196 50.783,42.409 53.062,40.678C51.804,39.422 50.94,38.632 50.608,33.752M48,56.916L57,56.916C56.915,54.921 56.412,52.967 55.522,51.18C54.48,49.096 51.466,47.652 46,45.628C45.412,45.417 45.014,44.865 45,44.24L45,41.542C45.013,41.122 45.2,40.727 45.516,40.45C46.547,39.577 47.099,38.263 47,36.916L47,35.916M31,24.362C30.028,24.065 29.017,23.915 28,23.916C23.788,23.916 18.884,26.474 18.4,33.744C18.068,38.624 17.2,39.414 15.946,40.67C18.239,42.409 21.115,43.197 23.974,42.87M32.082,42.878C34.926,43.196 37.783,42.409 40.062,40.678C38.804,39.422 37.94,38.632 37.608,33.752C37.568,33.137 37.49,32.525 37.376,31.92M33,45.628C32.412,45.417 32.014,44.865 32,44.24L32,41.542C32.013,41.122 32.2,40.727 32.516,40.45C33.547,39.577 34.099,38.263 34,36.916L34,32.916C31.649,32.513 29.52,31.28 28,29.442C26.48,31.28 24.351,32.513 22,32.916L22,36.916C21.902,38.264 22.454,39.577 23.486,40.45C23.801,40.727 23.987,41.122 24,41.542L24,44.24C23.986,44.865 23.588,45.417 23,45.628C17.534,47.652 13.52,49.096 12.478,51.18C11.588,52.967 11.085,54.921 11,56.916L45,56.916C44.915,54.921 44.412,52.967 43.522,51.18C42.48,49.096 38.466,47.652 33,45.628Z" style="fill:none;stroke:rgb(44,44,44);stroke-width:2px;"/>
                    </g>
                </g>
            </g>
        </g>
    </g>
</svg>
