<?xml version="1.0" encoding="UTF-8" standalone="no"?>
<!DOCTYPE svg PUBLIC "-//W3C//DTD SVG 1.1//EN" "http://www.w3.org/Graphics/SVG/1.1/DTD/svg11.dtd">
<svg width="100%" height="100%" viewBox="0 0 576 748" version="1.1" xmlns="http://www.w3.org/2000/svg" xmlns:xlink="http://www.w3.org/1999/xlink" xml:space="preserve" xmlns:serif="http://www.serif.com/" style="fill-rule:evenodd;clip-rule:evenodd;stroke-linecap:round;stroke-linejoin:round;">
    <g id="items" transform="matrix(1.09653,0,0,1.09653,-27.8007,-64.9982)">
        <g id="blend">
            <g id="g-root-cp_5_text-5_m9u7lc1r1cow3-fill" transform="matrix(1,0,0,1,50,98)">
                <g id="cp_5_text-5_m9u7lc1r1cow3-fill">
                    <g>
                        <rect x="10" y="10" width="228" height="156" style="fill:rgb(251,103,98);"/>
                    </g>
                </g>
            </g>
            <g id="g-root-cp_5_stick-5_8ydp801r1cqh1-fill" transform="matrix(1,0,0,1,266,254)">
                <g id="cp_5_stick-5_8ydp801r1cqh1-fill">
                    <g>
                        <rect x="10" y="10" width="12" height="360" style="fill:rgb(251,103,98);"/>
                    </g>
                </g>
            </g>
            <g id="g-root-cp_3_text-3_1lt0po01r1cphr-fill" transform="matrix(1,0,0,1,38,254)">
                <g id="cp_3_text-3_1lt0po01r1cphr-fill">
                    <g>
                        <rect x="10" y="10" width="228" height="168" style="fill:rgb(255,231,17);"/>
                    </g>
                </g>
            </g>
            <g id="g-root-cp_3_stick-3_1hd77jk1r1cqa1-fill" transform="matrix(1,0,0,1,254,422)">
                <g id="cp_3_stick-3_1hd77jk1r1cqa1-fill">
                    <g>
                        <rect x="10" y="10" width="12" height="192" style="fill:rgb(255,231,17);"/>
                    </g>
                </g>
            </g>
            <g id="g-root-cp_1_text-1_142d69c1r1cop7-fill" transform="matrix(1,0,0,1,26,422)">
                <g id="cp_1_text-1_142d69c1r1cop7-fill">
                    <g>
                        <rect x="10" y="10" width="228" height="156" style="fill:rgb(67,221,147);"/>
                    </g>
                </g>
            </g>
            <g id="g-root-cp_1_stick-1_zmjo4w1r1cphh-fill" transform="matrix(1,0,0,1,242,506)">
                <g id="cp_1_stick-1_zmjo4w1r1cphh-fill">
                    <g>
                        <rect x="10" y="10" width="12" height="108" style="fill:rgb(67,221,147);"/>
                    </g>
                </g>
            </g>
            <g id="g-root-cp_6_text-6_mbpmuo1r1cnwn-fill" transform="matrix(1,0,0,1,278,110)">
                <g id="cp_6_text-6_mbpmuo1r1cnwn-fill">
                    <g>
                        <rect x="10" y="10" width="228" height="168" style="fill:rgb(243,102,187);"/>
                    </g>
                </g>
            </g>
            <g id="g-root-cp_6_stick-6_4kfmcw1r1cq9t-fill" transform="matrix(1,0,0,1,278,278)">
                <g id="cp_6_stick-6_4kfmcw1r1cq9t-fill">
                    <g>
                        <rect x="10" y="10" width="12" height="336" style="fill:rgb(243,102,187);"/>
                    </g>
                </g>
            </g>
            <g id="g-root-cp_4_text-4_1uqj5681r1cnpn-fill" transform="matrix(1,0,0,1,290,278)">
                <g id="cp_4_text-4_1uqj5681r1cnpn-fill">
                    <g>
                        <rect x="10" y="10" width="228" height="144" style="fill:rgb(247,148,56);"/>
                    </g>
                </g>
            </g>
            <g id="g-root-cp_4_stick-4_1hf2msw1r1cpal-fill" transform="matrix(1,0,0,1,290,422)">
                <g id="cp_4_stick-4_1hf2msw1r1cpal-fill">
                    <g>
                        <rect x="10" y="10" width="12" height="192" style="fill:rgb(247,148,56);"/>
                    </g>
                </g>
            </g>
            <g id="g-root-cp_2_text-2_1448lio1r1cnpr-fill" transform="matrix(1,0,0,1,302,422)">
                <g id="cp_2_text-2_1448lio1r1cnpr-fill">
                    <g>
                        <rect x="10" y="10" width="228" height="144" style="fill:rgb(166,218,55);"/>
                    </g>
                </g>
            </g>
            <g id="g-root-cp_2_stick-2_v8ll9s1r1cpa9-fill" transform="matrix(1,0,0,1,302,506)">
                <g id="cp_2_stick-2_v8ll9s1r1cpa9-fill">
                    <g>
                        <rect x="10" y="10" width="12" height="108" style="fill:rgb(166,218,55);"/>
                    </g>
                </g>
            </g>
            <g id="g-root-cp_0_g-0_mcyl0w1r1cq2z-fill" transform="matrix(1,0,0,1,242,614)">
                <g id="cp_0_g-0_mcyl0w1r1cq2z-fill">
                    <g>
                        <path d="M33.994,61L46.01,86L58.005,61L33.994,61Z" style="fill:rgb(232,232,232);"/>
                    </g>
                </g>
                <g id="cp_0_g-0_mcyl0w1r1cq2z-fill1" serif:id="cp_0_g-0_mcyl0w1r1cq2z-fill">
                    <g>
                        <path d="M82,10L10,10L34,61L58.001,61L82,10Z" style="fill:rgb(232,232,232);"/>
                    </g>
                </g>
            </g>
            <g id="g-root-tx_improved_18lb4z41r1nw8x-fill" transform="matrix(1,0,0,1,350,290)">
                <g id="tx_improved_18lb4z41r1nw8x-fill">
                    <g>
                        <g>
                            <g transform="matrix(1,0,0,1,12,34)">
                                <g transform="matrix(20,0,0,20,128.916,0)">
                                </g>
                                <g transform="matrix(20,0,0,20,135.576,0)">
                                </g>
                                <text x="0px" y="0px" style="font-family:'Arial-BoldMT', 'Arial', sans-serif;font-weight:700;font-size:20px;fill:rgb(44,44,44);">Improved Proﬁt</text>
                            </g>
                            <g transform="matrix(1,0,0,1,12,58)">
                                <text x="0px" y="0px" style="font-family:'Arial-BoldMT', 'Arial', sans-serif;font-weight:700;font-size:20px;fill:rgb(44,44,44);">Margins</text>
                            </g>
                        </g>
                    </g>
                </g>
            </g>
            <g id="g-root-tx_accelera_1hdtomo1r1l4p2-fill" transform="matrix(1,0,0,1,50,350)">
                <g id="tx_accelera_1hdtomo1r1l4p2-fill">
                    <g>
                        <g>
                            <g transform="matrix(1,0,0,1,15.6,31.2)">
                                <text x="0px" y="0px" style="font-family:'ArialMT', 'Arial', sans-serif;font-size:15px;fill:rgb(44,44,44);">Accelerates campaign</text>
                            </g>
                            <g transform="matrix(1,0,0,1,57.05,49.2)">
                                <text x="0px" y="0px" style="font-family:'ArialMT', 'Arial', sans-serif;font-size:15px;fill:rgb(44,44,44);">deployment and</text>
                            </g>
                            <g transform="matrix(1,0,0,1,22.73,67.2)">
                                <text x="0px" y="0px" style="font-family:'ArialMT', 'Arial', sans-serif;font-size:15px;fill:rgb(44,44,44);">execution processes.</text>
                            </g>
                        </g>
                    </g>
                </g>
            </g>
            <g id="g-root-tx_increase_146ql0w1r1nyfe-fill" transform="matrix(1,0,0,1,350,350)">
                <g id="tx_increase_146ql0w1r1nyfe-fill">
                    <g>
                        <g>
                            <g transform="matrix(1,0,0,1,12,31.2)">
                                <g transform="matrix(15,0,0,15,90.8789,0)">
                                </g>
                                <g transform="matrix(15,0,0,15,95.0464,0)">
                                </g>
                                <text x="0px" y="0px" style="font-family:'ArialMT', 'Arial', sans-serif;font-size:15px;fill:rgb(44,44,44);">Increases proﬁtability</text>
                            </g>
                            <g transform="matrix(1,0,0,1,12,49.2)">
                                <g transform="matrix(15,0,0,15,95.8887,0)">
                                </g>
                                <g transform="matrix(15,0,0,15,99.895,0)">
                                </g>
                                <text x="0px" y="0px" style="font-family:'ArialMT', 'Arial', sans-serif;font-size:15px;fill:rgb(44,44,44);">through cost-eﬀective</text>
                            </g>
                            <g transform="matrix(1,0,0,1,12,67.2)">
                                <text x="0px" y="0px" style="font-family:'ArialMT', 'Arial', sans-serif;font-size:15px;fill:rgb(44,44,44);">solutions.</text>
                            </g>
                        </g>
                    </g>
                </g>
            </g>
            <g id="g-root-tx_consiste_qn5tdc1r1s6bl-fill" transform="matrix(1,0,0,1,50,434)">
                <g id="tx_consiste_qn5tdc1r1s6bl-fill">
                    <g>
                        <g>
                            <g transform="matrix(1,0,0,1,15.68,34)">
                                <text x="0px" y="0px" style="font-family:'Arial-BoldMT', 'Arial', sans-serif;font-weight:700;font-size:20px;fill:rgb(44,44,44);">Consistent Call</text>
                            </g>
                            <g transform="matrix(1,0,0,1,88.88,58)">
                                <text x="0px" y="0px" style="font-family:'Arial-BoldMT', 'Arial', sans-serif;font-weight:700;font-size:20px;fill:rgb(44,44,44);">Quality</text>
                            </g>
                        </g>
                    </g>
                </g>
            </g>
            <g id="g-root-tx_fasterca_detofk1r1l43x-fill" transform="matrix(1,0,0,1,98,266)">
                <g id="tx_fasterca_detofk1r1l43x-fill">
                    <g>
                        <g>
                            <g transform="matrix(1,0,0,1,59.5,34)">
                                <text x="0px" y="0px" style="font-family:'Arial-BoldMT', 'Arial', sans-serif;font-weight:700;font-size:20px;fill:rgb(44,44,44);">Faster</text>
                            </g>
                            <g transform="matrix(1,0,0,1,25,58)">
                                <text x="0px" y="0px" style="font-family:'Arial-BoldMT', 'Arial', sans-serif;font-weight:700;font-size:20px;fill:rgb(44,44,44);">Campaign</text>
                            </g>
                            <g transform="matrix(1,0,0,1,11.92,82)">
                                <text x="0px" y="0px" style="font-family:'Arial-BoldMT', 'Arial', sans-serif;font-weight:700;font-size:20px;fill:rgb(44,44,44);">T<tspan x="10.732px 22.949px " y="0px 0px ">ur</tspan>naround</text>
                            </g>
                        </g>
                    </g>
                </g>
            </g>
            <g id="g-root-tx_supports_92r3zk1r1ia6h-fill" transform="matrix(1,0,0,1,338,206)">
                <g id="tx_supports_92r3zk1r1ia6h-fill">
                    <g>
                        <g>
                            <g transform="matrix(1,0,0,1,12,31.2)">
                                <text x="0px" y="0px" style="font-family:'ArialMT', 'Arial', sans-serif;font-size:15px;fill:rgb(44,44,44);">Supports international</text>
                            </g>
                            <g transform="matrix(1,0,0,1,12,49.2)">
                                <text x="0px" y="0px" style="font-family:'ArialMT', 'Arial', sans-serif;font-size:15px;fill:rgb(44,44,44);">growth with adaptable</text>
                            </g>
                            <g transform="matrix(1,0,0,1,12,67.2)">
                                <text x="0px" y="0px" style="font-family:'ArialMT', 'Arial', sans-serif;font-size:15px;fill:rgb(44,44,44);">infrastructure.</text>
                            </g>
                        </g>
                    </g>
                </g>
            </g>
            <g id="g-root-tx_scalable_24b1s1r1s6is-fill" transform="matrix(1,0,0,1,362,434)">
                <g id="tx_scalable_24b1s1r1s6is-fill">
                    <g>
                        <g>
                            <g transform="matrix(1,0,0,1,12,34)">
                                <g transform="matrix(20,0,0,20,116.738,0)">
                                </g>
                                <g transform="matrix(20,0,0,20,123.209,0)">
                                </g>
                                <g transform="matrix(20,0,0,20,129.68,0)">
                                </g>
                                <text x="0px" y="0px" style="font-family:'Arial-BoldMT', 'Arial', sans-serif;font-weight:700;font-size:20px;fill:rgb(44,44,44);">Scalable T<tspan x="97.832px 105.615px " y="0px 0px ">ra</tspan>ﬃc</text>
                            </g>
                            <g transform="matrix(1,0,0,1,12,58)">
                                <text x="0px" y="0px" style="font-family:'Arial-BoldMT', 'Arial', sans-serif;font-weight:700;font-size:20px;fill:rgb(44,44,44);">Handling</text>
                            </g>
                        </g>
                    </g>
                </g>
            </g>
            <g id="g-root-tx_ensuresc_4ik73k1r1s4jn-fill" transform="matrix(1,0,0,1,38,494)">
                <g id="tx_ensuresc_4ik73k1r1s4jn-fill">
                    <g>
                        <g>
                            <g transform="matrix(1,0,0,1,45.47,28.2)">
                                <text x="0px" y="0px" style="font-family:'ArialMT', 'Arial', sans-serif;font-size:15px;fill:rgb(44,44,44);">Ensures clear and</text>
                            </g>
                            <g transform="matrix(1,0,0,1,74.5,46.2)">
                                <text x="0px" y="0px" style="font-family:'ArialMT', 'Arial', sans-serif;font-size:15px;fill:rgb(44,44,44);">uninterrupted</text>
                            </g>
                            <g transform="matrix(1,0,0,1,17.95,64.2)">
                                <text x="0px" y="0px" style="font-family:'ArialMT', 'Arial', sans-serif;font-size:15px;fill:rgb(44,44,44);">communication for all</text>
                            </g>
                            <g transform="matrix(1,0,0,1,128.98,82.2)">
                                <text x="0px" y="0px" style="font-family:'ArialMT', 'Arial', sans-serif;font-size:15px;fill:rgb(44,44,44);">calls.</text>
                            </g>
                        </g>
                    </g>
                </g>
            </g>
            <g id="g-root-tx_reducedc_1d14jxs1r1cp3b-fill" transform="matrix(1,0,0,1,86,110)">
                <g id="tx_reducedc_1d14jxs1r1cp3b-fill">
                    <g>
                        <g>
                            <g transform="matrix(1,0,0,1,22.08,34)">
                                <text x="0px" y="0px" style="font-family:'Arial-BoldMT', 'Arial', sans-serif;font-weight:700;font-size:20px;fill:rgb(44,44,44);">Reduced Call</text>
                            </g>
                            <g transform="matrix(1,0,0,1,87.18,58)">
                                <text x="0px" y="0px" style="font-family:'Arial-BoldMT', 'Arial', sans-serif;font-weight:700;font-size:20px;fill:rgb(44,44,44);">Drops</text>
                            </g>
                        </g>
                    </g>
                </g>
            </g>
            <g id="g-root-tx_adaptsto_1lvip681r1s55a-fill" transform="matrix(1,0,0,1,362,494)">
                <g id="tx_adaptsto_1lvip681r1s55a-fill">
                    <g>
                        <g>
                            <g transform="matrix(1,0,0,1,12,31.2)">
                                <text x="0px" y="0px" style="font-family:'ArialMT', 'Arial', sans-serif;font-size:15px;fill:rgb(44,44,44);">Adapts to varying call</text>
                            </g>
                            <g transform="matrix(1,0,0,1,12,49.2)">
                                <text x="0px" y="0px" style="font-family:'ArialMT', 'Arial', sans-serif;font-size:15px;fill:rgb(44,44,44);">volumes without</text>
                            </g>
                            <g transform="matrix(1,0,0,1,12,67.2)">
                                <text x="0px" y="0px" style="font-family:'ArialMT', 'Arial', sans-serif;font-size:15px;fill:rgb(44,44,44);">performance issues.</text>
                            </g>
                        </g>
                    </g>
                </g>
            </g>
            <g id="g-root-tx_globalex_qrj84w1r1icqo-fill" transform="matrix(1,0,0,1,338,122)">
                <g id="tx_globalex_qrj84w1r1icqo-fill">
                    <g>
                        <g>
                            <g transform="matrix(1,0,0,1,12,34)">
                                <text x="0px" y="0px" style="font-family:'Arial-BoldMT', 'Arial', sans-serif;font-weight:700;font-size:20px;fill:rgb(44,44,44);">Global</text>
                            </g>
                            <g transform="matrix(1,0,0,1,12,58)">
                                <text x="0px" y="0px" style="font-family:'Arial-BoldMT', 'Arial', sans-serif;font-weight:700;font-size:20px;fill:rgb(44,44,44);">Expansion</text>
                            </g>
                            <g transform="matrix(1,0,0,1,12,82)">
                                <text x="0px" y="0px" style="font-family:'Arial-BoldMT', 'Arial', sans-serif;font-weight:700;font-size:20px;fill:rgb(44,44,44);">Ready</text>
                            </g>
                        </g>
                    </g>
                </g>
            </g>
            <g id="g-root-tx_minimize_vah0j41r1coao-fill" transform="matrix(1,0,0,1,86,170)">
                <g id="tx_minimize_vah0j41r1coao-fill">
                    <g>
                        <g>
                            <g transform="matrix(1,0,0,1,44.47,28.2)">
                                <text x="0px" y="0px" style="font-family:'ArialMT', 'Arial', sans-serif;font-size:15px;fill:rgb(44,44,44);">Minimizes call</text>
                            </g>
                            <g transform="matrix(1,0,0,1,15.67,46.2)">
                                <text x="0px" y="0px" style="font-family:'ArialMT', 'Arial', sans-serif;font-size:15px;fill:rgb(44,44,44);">disconnections for</text>
                            </g>
                            <g transform="matrix(1,0,0,1,33.72,64.2)">
                                <text x="0px" y="0px" style="font-family:'ArialMT', 'Arial', sans-serif;font-size:15px;fill:rgb(44,44,44);">better customer</text>
                            </g>
                            <g transform="matrix(1,0,0,1,63.53,82.2)">
                                <text x="0px" y="0px" style="font-family:'ArialMT', 'Arial', sans-serif;font-size:15px;fill:rgb(44,44,44);">experience.</text>
                            </g>
                        </g>
                    </g>
                </g>
            </g>
            <g id="g-root-cp_5_text-5_m9u7lc1r1cow3-stroke" transform="matrix(1,0,0,1,50,98)">
                <g id="cp_5_text-5_m9u7lc1r1cow3-stroke">
                    <g>
                        <path d="M10,166L10,10L238,10L238,166" style="fill:none;stroke:rgb(44,44,44);stroke-width:2px;"/>
                    </g>
                </g>
            </g>
            <g id="g-root-cp_5_stick-5_8ydp801r1cqh1-stroke" transform="matrix(1,0,0,1,266,254)">
                <g id="cp_5_stick-5_8ydp801r1cqh1-stroke">
                    <g>
                        <path d="M21.996,370L21.996,10" style="fill:none;stroke:rgb(44,44,44);stroke-width:2px;"/>
                    </g>
                </g>
            </g>
            <g id="g-root-cp_3_text-3_1lt0po01r1cphr-stroke" transform="matrix(1,0,0,1,38,254)">
                <g id="cp_3_text-3_1lt0po01r1cphr-stroke">
                    <g>
                        <path d="M10,178L10,10L238,10L238,178" style="fill:none;stroke:rgb(44,44,44);stroke-width:2px;"/>
                    </g>
                </g>
            </g>
            <g id="g-root-cp_3_stick-3_1hd77jk1r1cqa1-stroke" transform="matrix(1,0,0,1,254,422)">
                <g id="cp_3_stick-3_1hd77jk1r1cqa1-stroke">
                    <g>
                        <path d="M21.996,202L21.996,10" style="fill:none;stroke:rgb(44,44,44);stroke-width:2px;"/>
                    </g>
                </g>
            </g>
            <g id="g-root-cp_1_text-1_142d69c1r1cop7-stroke" transform="matrix(1,0,0,1,26,422)">
                <g id="cp_1_text-1_142d69c1r1cop7-stroke">
                    <g>
                        <path d="M238,166L238,10L10,10L10,166L226,166" style="fill:none;stroke:rgb(44,44,44);stroke-width:2px;"/>
                    </g>
                </g>
            </g>
            <g id="g-root-cp_1_stick-1_zmjo4w1r1cphh-stroke" transform="matrix(1,0,0,1,242,506)">
                <g id="cp_1_stick-1_zmjo4w1r1cphh-stroke">
                    <g>
                        <path d="M21.996,118L21.996,10M10,118L10,82" style="fill:none;stroke:rgb(44,44,44);stroke-width:2px;"/>
                    </g>
                </g>
            </g>
            <g id="g-root-cp_6_text-6_mbpmuo1r1cnwn-stroke" transform="matrix(1,0,0,1,278,110)">
                <g id="cp_6_text-6_mbpmuo1r1cnwn-stroke">
                    <g>
                        <path d="M238,178L238,10L10,10L10,178" style="fill:none;stroke:rgb(44,44,44);stroke-width:2px;"/>
                    </g>
                </g>
            </g>
            <g id="g-root-cp_6_stick-6_4kfmcw1r1cq9t-stroke" transform="matrix(1,0,0,1,278,278)">
                <g id="cp_6_stick-6_4kfmcw1r1cq9t-stroke">
                    <g>
                        <path d="M10.004,346L10.004,10" style="fill:none;stroke:rgb(44,44,44);stroke-width:2px;"/>
                    </g>
                </g>
            </g>
            <g id="g-root-cp_4_text-4_1uqj5681r1cnpn-stroke" transform="matrix(1,0,0,1,290,278)">
                <g id="cp_4_text-4_1uqj5681r1cnpn-stroke">
                    <g>
                        <path d="M238,154L238,10L10,10L10,154" style="fill:none;stroke:rgb(44,44,44);stroke-width:2px;"/>
                    </g>
                </g>
            </g>
            <g id="g-root-cp_4_stick-4_1hf2msw1r1cpal-stroke" transform="matrix(1,0,0,1,290,422)">
                <g id="cp_4_stick-4_1hf2msw1r1cpal-stroke">
                    <g>
                        <path d="M10.004,202L10.004,10" style="fill:none;stroke:rgb(44,44,44);stroke-width:2px;"/>
                    </g>
                </g>
            </g>
            <g id="g-root-cp_2_text-2_1448lio1r1cnpr-stroke" transform="matrix(1,0,0,1,302,422)">
                <g id="cp_2_text-2_1448lio1r1cnpr-stroke">
                    <g>
                        <path d="M10,154L10,10L238,10L238,154L22,154" style="fill:none;stroke:rgb(44,44,44);stroke-width:2px;"/>
                    </g>
                </g>
            </g>
            <g id="g-root-cp_2_stick-2_v8ll9s1r1cpa9-stroke" transform="matrix(1,0,0,1,302,506)">
                <g id="cp_2_stick-2_v8ll9s1r1cpa9-stroke">
                    <g>
                        <path d="M10.004,118L10.004,10M22,118L22,70" style="fill:none;stroke:rgb(44,44,44);stroke-width:2px;"/>
                    </g>
                </g>
            </g>
            <g id="g-root-cp_0_g-0_mcyl0w1r1cq2z-stroke" transform="matrix(1,0,0,1,242,614)">
                <g id="cp_0_g-0_mcyl0w1r1cq2z-stroke">
                    <g>
                        <path d="M33.994,61L46.01,86L58.005,61L33.994,61Z" style="fill:none;stroke:rgb(44,44,44);stroke-width:2px;"/>
                    </g>
                </g>
                <g id="cp_0_g-0_mcyl0w1r1cq2z-stroke1" serif:id="cp_0_g-0_mcyl0w1r1cq2z-stroke">
                    <g>
                        <path d="M82,10L10,10L34,61L58.001,61L82,10Z" style="fill:none;stroke:rgb(44,44,44);stroke-width:2px;"/>
                    </g>
                </g>
            </g>
            <g id="g-root-ic_1_hvw4q81r1l5hr-stroke" transform="matrix(1,0,0,1,218,266)">
                <g id="ic_1_hvw4q81r1l5hr-stroke">
                    <g>
                        <path d="M40.36,37.99C42.845,37.99 44.86,35.975 44.86,33.49C44.86,31.005 42.845,28.99 40.36,28.99C37.875,28.99 35.86,31.005 35.86,33.49C35.86,35.975 37.875,37.99 40.36,37.99ZM23.098,31.593L21.209,31.593L21.209,34.644C21.209,37.259 19.902,37.84 18.595,37.84C17.287,37.84 15.979,37.259 15.979,34.645L15.979,29.704C15.979,28.251 17.142,27.088 18.595,27.088L19.176,27.088L12.492,23.311C11.185,22.585 10.75,20.986 11.475,19.678C12.202,18.517 13.654,17.935 14.962,18.661C18.885,20.695 25.569,24.328 29.202,26.362C33.705,28.978 34.675,30.867 34.675,34.063C34.675,36.243 32.785,37.84 30.753,37.84L27.649,37.84C26.488,37.84 25.47,37.114 25.324,35.952C25.035,34.498 26.197,33.337 27.505,33.337L30.508,33.337" style="fill:none;stroke:rgb(44,44,44);stroke-width:2px;"/>
                    </g>
                </g>
            </g>
            <g id="g-root-ic_incr_9m0341r1nwuj-stroke" transform="matrix(1,0,0,1,302,290)">
                <g id="ic_incr_9m0341r1nwuj-stroke">
                    <g>
                        <path d="M10.756,44.875L45.256,44.875M16.75,44.875L16.75,41.125C16.75,40.711 16.414,40.375 16,40.375L13,40.375C12.586,40.375 12.25,40.711 12.25,41.125L12.25,44.875M25.75,44.875L25.75,35.125C25.75,34.711 25.414,34.375 25,34.375L22,34.375C21.586,34.375 21.25,34.711 21.25,35.125L21.25,44.875M34.75,44.875L34.75,29.125C34.75,28.711 34.414,28.375 34,28.375L31,28.375C30.586,28.375 30.25,28.711 30.25,29.125L30.25,44.875M43.75,44.875L43.75,23.125C43.75,22.711 43.414,22.375 43,22.375L40,22.375C39.586,22.375 39.25,22.711 39.25,23.125L39.25,44.875M14.506,29.875L41.506,11.875M40.756,17.875L41.506,11.875L35.506,11.125" style="fill:none;stroke:rgb(44,44,44);stroke-width:2px;"/>
                    </g>
                </g>
            </g>
            <g id="g-root-ic_netw_mfgkj41r1iarm-stroke" transform="matrix(1,0,0,1,290,122)">
                <g id="ic_netw_mfgkj41r1iarm-stroke">
                    <g>
                        <path d="M10.804,27.997C10.804,37.524 18.527,45.247 28.054,45.247C37.581,45.247 45.304,37.524 45.304,27.997C45.304,18.47 37.581,10.747 28.054,10.747C18.527,10.747 10.804,18.47 10.804,27.997L10.804,27.997ZM19.804,21.622C19.804,23.486 21.315,24.997 23.179,24.997C25.043,24.997 26.554,23.486 26.554,21.622C26.554,19.758 25.043,18.247 23.179,18.247C21.315,18.247 19.804,19.758 19.804,21.622L19.804,21.622ZM29.554,36.622C29.554,37.658 30.393,38.497 31.429,38.497C32.465,38.497 33.304,37.658 33.304,36.622C33.304,35.586 32.465,34.747 31.429,34.747C30.393,34.747 29.554,35.586 29.554,36.622L29.554,36.622ZM35.554,25.372C35.554,26.822 36.729,27.997 38.179,27.997C39.629,27.997 40.804,26.822 40.804,25.372C40.804,23.922 39.629,22.747 38.179,22.747C36.729,22.747 35.554,23.922 35.554,25.372ZM26.554,21.25C29.907,21.378 33.102,22.709 35.554,25M38.702,27.946L39.302,28.747C39.302,28.747 41.552,31.747 41.552,38.497M35.288,12.333L35.554,13C36.64,16.216 37.148,19.6 37.054,22.993M36.304,27.25C36.116,30.348 35,33.317 33.1,35.772M30.532,38.269L30.304,38.5C30.304,38.5 26.554,42.25 18.304,42.25M28.054,10.75C26.002,12.945 24.352,15.484 23.179,18.25M21.427,24.508L21.304,25C20.487,29.057 21.013,33.269 22.804,37C25.354,42.109 31.804,44.5 31.804,44.5L32.364,44.709M19.804,21.622C19.804,21.622 14.05,22.035 11.142,24.581M11.224,31.798L11.554,31.747C11.554,31.747 21.876,30.16 30.265,35.152" style="fill:none;stroke:rgb(44,44,44);stroke-width:2px;"/>
                    </g>
                </g>
            </g>
            <g id="g-root-ic_1_dfg5io1r1s558-stroke" transform="matrix(1,0,0,1,206,434)">
                <g id="ic_1_dfg5io1r1s558-stroke">
                    <g>
                        <path d="M30.229,25.745L45.229,10.746M39.982,25.744L30.232,25.744L30.232,15.994M26.278,44.974C22.678,41.365 23.955,38.551 25.909,36.597L27.171,35.335C28.426,34.079 30.463,34.079 31.718,35.335L37.177,40.795C37.623,41.24 37.816,41.879 37.691,42.496C37.567,43.113 37.141,43.627 36.557,43.864C29.567,46.721 21.545,45.106 16.206,39.766C10.866,34.426 9.251,26.404 12.108,19.414C12.345,18.831 12.858,18.405 13.476,18.28C14.093,18.156 14.732,18.349 15.177,18.795L20.64,24.25C21.895,25.506 21.895,27.542 20.64,28.798L19.378,30.06C17.428,32.009 14.61,33.291 11.001,29.691" style="fill:none;stroke:rgb(44,44,44);stroke-width:2px;"/>
                    </g>
                </g>
            </g>
            <g id="g-root-ic_1_1lxe4fk1r1s45j-stroke" transform="matrix(1,0,0,1,314,434)">
                <g id="ic_1_1lxe4fk1r1s45j-stroke">
                    <g>
                        <path d="M15.25,10.75L22.75,10.75C22.75,10.75 24.25,10.75 24.25,12.25L24.25,21.25C24.25,21.25 24.25,22.75 22.75,22.75L15.25,22.75C15.25,22.75 13.75,22.75 13.75,21.25L13.75,12.25C13.75,12.25 13.75,10.75 15.25,10.75M15.25,22.75L15.25,24.25M22.75,22.75L22.75,24.25M16,19.375C16.207,19.375 16.375,19.543 16.375,19.75M15.625,19.75C15.625,19.543 15.793,19.375 16,19.375M16,20.125C15.793,20.125 15.625,19.957 15.625,19.75M16.375,19.75C16.375,19.957 16.207,20.125 16,20.125M22,19.375C22.207,19.375 22.375,19.543 22.375,19.75M21.625,19.75C21.625,19.543 21.793,19.375 22,19.375M22,20.125C21.793,20.125 21.625,19.957 21.625,19.75M22.375,19.75C22.375,19.957 22.207,20.125 22,20.125M13.75,16.75L24.25,16.75M10.75,12.25L10.75,15.25M27.25,12.25L27.25,15.25M33.25,31.75L40.75,31.75C40.75,31.75 42.25,31.75 42.25,33.25L42.25,42.25C42.25,42.25 42.25,43.75 40.75,43.75L33.25,43.75C33.25,43.75 31.75,43.75 31.75,42.25L31.75,33.25C31.75,33.25 31.75,31.75 33.25,31.75M33.25,43.75L33.25,45.25M40.75,43.75L40.75,45.25M34,40.375C34.207,40.375 34.375,40.543 34.375,40.75M33.625,40.75C33.625,40.543 33.793,40.375 34,40.375M34,41.125C33.793,41.125 33.625,40.957 33.625,40.75M34.375,40.75C34.375,40.957 34.207,41.125 34,41.125M40,40.375C40.207,40.375 40.375,40.543 40.375,40.75M39.625,40.75C39.625,40.543 39.793,40.375 40,40.375M40,41.125C39.793,41.125 39.625,40.957 39.625,40.75M40.375,40.75C40.375,40.957 40.207,41.125 40,41.125M31.75,37.75L42.25,37.75M28.75,33.25L28.75,36.25M45.25,33.25L45.25,36.25M25.161,37.675C21.972,36.204 19.93,33.012 19.931,29.5L19.931,28.75M28.931,20.5C32.952,20.499 36.486,23.164 37.59,27.031M34.546,26.095L37.587,27.031L38.522,23.989M22.181,31L19.931,28.75L17.681,31" style="fill:none;stroke:rgb(44,44,44);stroke-width:2px;"/>
                    </g>
                </g>
            </g>
            <g id="g-root-ic_1_1utnils1r1cow9-stroke" transform="matrix(1,0,0,1,230,110)">
                <g id="ic_1_1utnils1r1cow9-stroke">
                    <g>
                        <path d="M38.5,17.884L45.25,17.884L45.25,11.134M44.737,17.884C43.37,14.017 39.561,11.564 35.475,11.918C31.388,12.272 28.059,15.344 27.377,19.389C26.695,23.433 28.835,27.427 32.579,29.101C36.323,30.775 40.726,29.705 43.285,26.5M26.299,45.363C22.699,41.752 23.976,38.938 25.93,36.985L27.192,35.723C28.447,34.468 30.484,34.468 31.74,35.723L37.2,41.183C37.644,41.629 37.837,42.267 37.712,42.885C37.587,43.502 37.162,44.015 36.578,44.253C29.588,47.109 21.566,45.494 16.227,40.154C10.887,34.815 9.272,26.793 12.129,19.802C12.366,19.219 12.879,18.794 13.496,18.669C14.114,18.544 14.752,18.737 15.198,19.181L20.657,24.641C21.913,25.897 21.913,27.934 20.657,29.19L19.396,30.451C17.446,32.401 14.629,33.682 11.019,30.082" style="fill:none;stroke:rgb(44,44,44);stroke-width:2px;"/>
                    </g>
                </g>
            </g>
        </g>
    </g>
</svg>
