<?xml version="1.0" encoding="UTF-8" standalone="no"?>
<!DOCTYPE svg PUBLIC "-//W3C//DTD SVG 1.1//EN" "http://www.w3.org/Graphics/SVG/1.1/DTD/svg11.dtd">
<svg width="100%" height="100%" viewBox="0 0 702 978" version="1.1" xmlns="http://www.w3.org/2000/svg" xmlns:xlink="http://www.w3.org/1999/xlink" xml:space="preserve" xmlns:serif="http://www.serif.com/" style="fill-rule:evenodd;clip-rule:evenodd;stroke-linecap:round;stroke-linejoin:round;">
    <g id="items" transform="matrix(1.05989,0,0,1.05989,-21.0212,-50.3587)">
        <g id="blend">
            <g id="g-root-cp_5_shape-5_vbqxe81tjsphn-fill" transform="matrix(1,0,0,1,314.303,104)">
                <g id="cp_5_shape-5_vbqxe81tjsphn-fill">
                    <g>
                        <path d="M27.697,316L15.697,316L15.697,160L27.697,160L27.697,316ZM32.297,28.191L27.697,28.191L27.697,160L15.697,160L15.697,28.191L11.017,28.191C10.237,28.191 9.747,27.341 10.137,26.661L20.86,10.448C21.256,9.849 22.136,9.851 22.53,10.451L33.177,26.661C33.577,27.341 33.087,28.191 32.297,28.191Z" style="fill:rgb(247,148,56);"/>
                    </g>
                </g>
            </g>
            <g id="g-root-cp_1_shape-1_1lpvzio1tt77d1-fill" transform="matrix(1,0,0,1,32,103.816)">
                <g id="cp_1_shape-1_1lpvzio1tt77d1-fill">
                    <g>
                        <path d="M214,352.184L46,352.183C26.118,352.183 10,336.081 10,316.199L10,316.184L250,316.184C250,336.066 233.882,352.184 214,352.184ZM254.6,28.375L250,28.375L250,160.184L10,160.184C10,140.302 26.118,124.505 46,124.505L172,124.505C213.07,124.505 238,94.374 238,55.034L238,28.374L233.32,28.374C232.54,28.374 232.05,27.524 232.44,26.844L243.163,10.632C243.559,10.033 244.439,10.034 244.833,10.635L255.48,26.844C255.88,27.525 255.39,28.375 254.6,28.375ZM250,160.184L250,316.184L10,316.184L10,160.184L250,160.184Z" style="fill:rgb(67,221,147);"/>
                    </g>
                </g>
            </g>
            <g id="g-root-cp_3_shape-3_18efh5c1tt78xz-fill" transform="matrix(1,0,0,1,284.303,104)">
                <g id="cp_3_shape-3_18efh5c1tt78xz-fill">
                    <g>
                        <path d="M27.697,316L15.697,316L15.697,160L27.697,160L27.697,316ZM32.297,28.191L27.697,28.191L27.697,160L15.697,160L15.697,28.191L11.017,28.191C10.237,28.191 9.747,27.341 10.137,26.661L20.86,10.448C21.256,9.849 22.136,9.851 22.53,10.451L33.177,26.661C33.577,27.341 33.087,28.191 32.297,28.191Z" style="fill:rgb(26,195,251);"/>
                    </g>
                </g>
            </g>
            <g id="g-root-cp_3_shape-3_1_qnrxqo1tt785d-fill" transform="matrix(1,0,0,1,32,410)">
                <g id="cp_3_shape-3_1_qnrxqo1tt785d-fill">
                    <g>
                        <path d="M214,64.321C244,64.321 268,46 268,10L280,10L280,100.306L10,100.306C10,80.423 26.118,64.321 46,64.321L214,64.321Z" style="fill:rgb(26,195,251);"/>
                    </g>
                </g>
            </g>
            <g id="g-root-cp_5_shape-5_1_4haw7k1tt77d7-fill" transform="matrix(1,0,0,1,320,410)">
                <g id="cp_5_shape-5_1_4haw7k1tt77d7-fill">
                    <g>
                        <rect x="10" y="10" width="12" height="222" style="fill:rgb(247,148,56);"/>
                    </g>
                </g>
            </g>
            <g id="g-root-cp_3_shape-3_2_1lr4xow1tt79j9-fill" transform="matrix(1,0,0,1,32,500)">
                <g id="cp_3_shape-3_2_1lr4xow1tt79j9-fill">
                    <g>
                        <path d="M280,10L280,141.979L10,141.979L10,10L280,10ZM244,178.008L46,178.008C26.118,178.008 10,161.905 10,142.023L10,142.008L280,142.008C280,161.89 263.882,178.008 244,178.008Z" style="fill:rgb(26,195,251);"/>
                    </g>
                </g>
            </g>
            <g id="g-root-cp_5_shape-5_2_zknw5s1tt78r3-fill" transform="matrix(1,0,0,1,32,632)">
                <g id="cp_5_shape-5_2_zknw5s1tt78r3-fill">
                    <g>
                        <path d="M244,64.137C274,64.137 298,45.878 298,10L310,10L310,100L10,100C10,80.185 26.118,64.137 46,64.137L244,64.137Z" style="fill:rgb(247,148,56);"/>
                    </g>
                </g>
            </g>
            <g id="g-root-cp_5_shape-5_3_hu0cr41tt77yh-fill" transform="matrix(1,0,0,1,32,722)">
                <g id="cp_5_shape-5_3_hu0cr41tt77yh-fill">
                    <g>
                        <path d="M310,10L310,142L10,142L10,10L310,10ZM274,178.008L46,178.008C26.118,178.008 10,161.882 10,142L310,142C310,161.882 293.882,178.008 274,178.008Z" style="fill:rgb(247,148,56);"/>
                    </g>
                </g>
            </g>
            <g id="g-root-cp_2_shape-2_3ctcg1tt775v-fill" transform="matrix(1,0,0,1,404.378,103.816)">
                <g id="cp_2_shape-2_3ctcg1tt775v-fill">
                    <g>
                        <path d="M51.622,352.184L219.622,352.184C239.504,352.184 255.622,336.081 255.622,316.199L255.622,316.184L15.622,316.184C15.622,336.066 31.74,352.184 51.622,352.184ZM11.022,28.375L15.622,28.375L15.622,160.184L255.622,160.184C255.622,140.302 239.505,124.505 219.623,124.505L93.622,124.505C52.552,124.505 27.622,94.374 27.622,55.034L27.622,28.374L32.302,28.374C33.082,28.374 33.572,27.524 33.182,26.844L22.459,10.632C22.063,10.033 21.184,10.034 20.79,10.635L10.142,26.844C9.742,27.525 10.232,28.375 11.022,28.375ZM15.622,160.184L15.622,316.184L255.622,316.184L255.622,160.184L15.622,160.184Z" style="fill:rgb(166,218,55);"/>
                    </g>
                </g>
            </g>
            <g id="g-root-cp_4_shape-4_1lt0cy81tt78jp-fill" transform="matrix(1,0,0,1,374.383,104)">
                <g id="cp_4_shape-4_1lt0cy81tt78jp-fill">
                    <g>
                        <path d="M15.623,316L27.623,316L27.623,160L15.623,160L15.623,316ZM11.022,28.191L15.622,28.191L15.622,160L27.622,160L27.622,28.191L32.302,28.191C33.082,28.191 33.572,27.341 33.182,26.661L22.459,10.448C22.063,9.849 21.184,9.851 20.79,10.451L10.142,26.661C9.742,27.341 10.232,28.191 11.022,28.191Z" style="fill:rgb(255,231,17);"/>
                    </g>
                </g>
            </g>
            <g id="g-root-cp_6_shape-6_18i6bo01tt76yv-fill" transform="matrix(1,0,0,1,344.383,104)">
                <g id="cp_6_shape-6_18i6bo01tt76yv-fill">
                    <g>
                        <path d="M15.623,316L27.623,316L27.623,160L15.623,160L15.623,316ZM11.022,28.191L15.622,28.191L15.622,160L27.622,160L27.622,28.191L32.302,28.191C33.082,28.191 33.572,27.341 33.182,26.661L22.459,10.448C22.063,9.849 21.184,9.851 20.79,10.451L10.142,26.661C9.742,27.341 10.232,28.191 11.022,28.191Z" style="fill:rgb(251,103,98);"/>
                    </g>
                </g>
            </g>
            <g id="g-root-cp_4_shape-4_1_qqwb681tt79c1-fill" transform="matrix(1,0,0,1,380,410)">
                <g id="cp_4_shape-4_1_qqwb681tt79c1-fill">
                    <g>
                        <path d="M76,64.321C46,64.321 22,46 22,10L10,10L10,100.306L280,100.306C280,80.423 263.882,64.321 244,64.321L76,64.321Z" style="fill:rgb(255,231,17);"/>
                    </g>
                </g>
            </g>
            <g id="g-root-cp_4_shape-4_2_dg29w01tt77r7-fill" transform="matrix(1,0,0,1,380,500)">
                <g id="cp_4_shape-4_2_dg29w01tt77r7-fill">
                    <g>
                        <path d="M10,10L10,142L280,142L280,10L10,10ZM46,178L244,178C263.882,178 280,161.898 280,142.016L280,142L10,142C10,161.882 26.118,178 46,178Z" style="fill:rgb(255,231,17);"/>
                    </g>
                </g>
            </g>
            <g id="g-root-cp_6_shape-6_1_1qa2t8w1tt79xp-fill" transform="matrix(1,0,0,1,350,410)">
                <g id="cp_6_shape-6_1_1qa2t8w1tt79xp-fill">
                    <g>
                        <rect x="10" y="10" width="12" height="222" style="fill:rgb(251,103,98);"/>
                    </g>
                </g>
            </g>
            <g id="g-root-cp_6_shape-6_2_1cz8ryo1tt78cv-fill" transform="matrix(1,0,0,1,350,632)">
                <g id="cp_6_shape-6_2_1cz8ryo1tt78cv-fill">
                    <g>
                        <path d="M76,64.321C46,64.321 22,46 22,10L10,10L10,100.306L310,100.306C310,80.423 293.882,64.321 274,64.321L76,64.321Z" style="fill:rgb(251,103,98);"/>
                    </g>
                </g>
            </g>
            <g id="g-root-cp_6_shape-6_3_143lrps1tt79xd-fill" transform="matrix(1,0,0,1,350,722)">
                <g id="cp_6_shape-6_3_143lrps1tt79xd-fill">
                    <g>
                        <path d="M10,10L10,142L310,142L310,10L10,10ZM46,178L274,178C293.882,178 310,161.898 310,142.016L310,142L10,142C10,161.882 26.118,178 46,178Z" style="fill:rgb(251,103,98);"/>
                    </g>
                </g>
            </g>
            <g id="g-root-tx_supports_1ut0osw1ttctfw-fill" transform="matrix(1,0,0,1,440,362)">
                <g id="tx_supports_1ut0osw1ttctfw-fill">
                    <g>
                        <g>
                            <g transform="matrix(1,0,0,1,12.89,31.2)">
                                <text x="0px" y="0px" style="font-family:'ArialMT', 'Arial', sans-serif;font-size:15px;fill:rgb(44,44,44);">Supports high call volume</text>
                            </g>
                            <g transform="matrix(1,0,0,1,33.71,49.2)">
                                <text x="0px" y="0px" style="font-family:'ArialMT', 'Arial', sans-serif;font-size:15px;fill:rgb(44,44,44);">with concurrent call</text>
                            </g>
                            <g transform="matrix(1,0,0,1,68.54,67.2)">
                                <text x="0px" y="0px" style="font-family:'ArialMT', 'Arial', sans-serif;font-size:15px;fill:rgb(44,44,44);">handling.</text>
                            </g>
                        </g>
                    </g>
                </g>
            </g>
            <g id="g-root-tx_reliable_1d2d5e81tt79j9-fill" transform="matrix(1,0,0,1,62,362)">
                <g id="tx_reliable_1d2d5e81tt79j9-fill">
                    <g>
                        <g>
                            <g transform="matrix(1,0,0,1,24.32,31.2)">
                                <text x="0px" y="0px" style="font-family:'ArialMT', 'Arial', sans-serif;font-size:15px;fill:rgb(44,44,44);">Reliable routes ensure</text>
                            </g>
                            <g transform="matrix(1,0,0,1,17.01,49.2)">
                                <text x="0px" y="0px" style="font-family:'ArialMT', 'Arial', sans-serif;font-size:15px;fill:rgb(44,44,44);">uninterrupted call center</text>
                            </g>
                            <g transform="matrix(1,0,0,1,60.66,67.2)">
                                <text x="0px" y="0px" style="font-family:'ArialMT', 'Arial', sans-serif;font-size:15px;fill:rgb(44,44,44);">operations.</text>
                            </g>
                        </g>
                    </g>
                </g>
            </g>
            <g id="g-root-tx_highcpsc_me76hc1ttctmz-fill" transform="matrix(1,0,0,1,470,302)">
                <g id="tx_highcpsc_me76hc1ttctmz-fill">
                    <g>
                        <g>
                            <g transform="matrix(1,0,0,1,18.29,34)">
                                <text x="0px" y="0px" style="font-family:'Arial-BoldMT', 'Arial', sans-serif;font-weight:700;font-size:20px;fill:rgb(44,44,44);">High CPS &amp;</text>
                            </g>
                            <g transform="matrix(1,0,0,1,12.93,58)">
                                <text x="0px" y="0px" style="font-family:'Arial-BoldMT', 'Arial', sans-serif;font-weight:700;font-size:20px;fill:rgb(44,44,44);">Concurrency</text>
                            </g>
                        </g>
                    </g>
                </g>
            </g>
            <g id="g-root-tx_globalcl_4kf9n41tta0w7-fill" transform="matrix(1,0,0,1,65,548)">
                <g id="tx_globalcl_4kf9n41tta0w7-fill">
                    <g>
                        <g>
                            <g transform="matrix(1,0,0,1,14.76,34)">
                                <text x="0px" y="0px" style="font-family:'Arial-BoldMT', 'Arial', sans-serif;font-weight:700;font-size:20px;fill:rgb(44,44,44);">Global CLI &amp; Non-CLI</text>
                            </g>
                            <g transform="matrix(1,0,0,1,73.58,58)">
                                <text x="0px" y="0px" style="font-family:'Arial-BoldMT', 'Arial', sans-serif;font-weight:700;font-size:20px;fill:rgb(44,44,44);">Support</text>
                            </g>
                        </g>
                    </g>
                </g>
            </g>
            <g id="g-root-tx_predicti_1qckplc1tteart-fill" transform="matrix(1,0,0,1,431,548)">
                <g id="tx_predicti_1qckplc1tteart-fill">
                    <g>
                        <g>
                            <g transform="matrix(1,0,0,1,17.49,34)">
                                <text x="0px" y="0px" style="font-family:'Arial-BoldMT', 'Arial', sans-serif;font-weight:700;font-size:20px;fill:rgb(44,44,44);">Predictive Dialer</text>
                            </g>
                            <g transform="matrix(1,0,0,1,31.67,58)">
                                <text x="0px" y="0px" style="font-family:'Arial-BoldMT', 'Arial', sans-serif;font-weight:700;font-size:20px;fill:rgb(44,44,44);">Compatibility</text>
                            </g>
                        </g>
                    </g>
                </g>
            </g>
            <g id="g-root-tx_accommod_hx4q6o1tta1hc-fill" transform="matrix(1,0,0,1,65,608)">
                <g id="tx_accommod_hx4q6o1tta1hc-fill">
                    <g>
                        <g>
                            <g transform="matrix(1,0,0,1,18.78,28.2)">
                                <text x="0px" y="0px" style="font-family:'ArialMT', 'Arial', sans-serif;font-size:15px;fill:rgb(44,44,44);">Accommodates diverse call</text>
                            </g>
                            <g transform="matrix(1,0,0,1,16.62,46.2)">
                                <g transform="matrix(15,0,0,15,35.8594,0)">
                                </g>
                                <g transform="matrix(15,0,0,15,40.0269,0)">
                                </g>
                                <text x="0px" y="0px" style="font-family:'ArialMT', 'Arial', sans-serif;font-size:15px;fill:rgb(44,44,44);">identiﬁcation needs globally<tspan x="182.344px " y="0px ">.</tspan></text>
                            </g>
                        </g>
                    </g>
                </g>
            </g>
            <g id="g-root-tx_seamless_mfg4nk1tte96y-fill" transform="matrix(1,0,0,1,425,608)">
                <g id="tx_seamless_mfg4nk1tte96y-fill">
                    <g>
                        <g>
                            <g transform="matrix(1,0,0,1,11.98,28.2)">
                                <text x="0px" y="0px" style="font-family:'ArialMT', 'Arial', sans-serif;font-size:15px;fill:rgb(44,44,44);">Seamless integration with</text>
                            </g>
                            <g transform="matrix(1,0,0,1,13.32,46.2)">
                                <text x="0px" y="0px" style="font-family:'ArialMT', 'Arial', sans-serif;font-size:15px;fill:rgb(44,44,44);">predictive dialer systems.</text>
                            </g>
                        </g>
                    </g>
                </g>
            </g>
            <g id="g-root-tx_carrierg_4njn2o1tt79qc-fill" transform="matrix(1,0,0,1,86,302)">
                <g id="tx_carrierg_4njn2o1tt79qc-fill">
                    <g>
                        <g>
                            <g transform="matrix(1,0,0,1,11.96,34)">
                                <text x="0px" y="0px" style="font-family:'Arial-BoldMT', 'Arial', sans-serif;font-weight:700;font-size:20px;fill:rgb(44,44,44);">Carrier-Grade</text>
                            </g>
                            <g transform="matrix(1,0,0,1,41.96,58)">
                                <text x="0px" y="0px" style="font-family:'Arial-BoldMT', 'Arial', sans-serif;font-weight:700;font-size:20px;fill:rgb(44,44,44);">Routes</text>
                            </g>
                        </g>
                    </g>
                </g>
            </g>
            <g id="g-root-tx_realtime_1hgb89c1ttbfgt-fill" transform="matrix(1,0,0,1,98,770)">
                <g id="tx_realtime_1hgb89c1ttbfgt-fill">
                    <g>
                        <g>
                            <g transform="matrix(1,0,0,1,13.15,34)">
                                <g transform="matrix(20,0,0,20,130.801,0)">
                                </g>
                                <g transform="matrix(20,0,0,20,137.271,0)">
                                </g>
                                <g transform="matrix(20,0,0,20,143.742,0)">
                                </g>
                                <text x="0px" y="0px" style="font-family:'Arial-BoldMT', 'Arial', sans-serif;font-weight:700;font-size:20px;fill:rgb(44,44,44);">Real-T<tspan x="60.762px 66.318px " y="0px 0px ">im</tspan>e T<tspan x="111.895px 119.678px " y="0px 0px ">ra</tspan>ﬃc</text>
                            </g>
                            <g transform="matrix(1,0,0,1,42.33,58)">
                                <text x="0px" y="0px" style="font-family:'Arial-BoldMT', 'Arial', sans-serif;font-weight:700;font-size:20px;fill:rgb(44,44,44);">Monitoring</text>
                            </g>
                        </g>
                    </g>
                </g>
            </g>
            <g id="g-root-tx_dedicate_1hfor681ttfnk7-fill" transform="matrix(1,0,0,1,410,770)">
                <g id="tx_dedicate_1hfor681ttfnk7-fill">
                    <g>
                        <g>
                            <g transform="matrix(1,0,0,1,12.51,34)">
                                <text x="0px" y="0px" style="font-family:'Arial-BoldMT', 'Arial', sans-serif;font-weight:700;font-size:20px;fill:rgb(44,44,44);">Dedicated <tspan x="100.4px 114.844px " y="0px 0px ">Ac</tspan>count</text>
                            </g>
                            <g transform="matrix(1,0,0,1,61.58,58)">
                                <text x="0px" y="0px" style="font-family:'Arial-BoldMT', 'Arial', sans-serif;font-weight:700;font-size:20px;fill:rgb(44,44,44);">Support</text>
                            </g>
                        </g>
                    </g>
                </g>
            </g>
            <g id="g-root-tx_provides_dik68g1ttbh1q-fill" transform="matrix(1,0,0,1,68,830)">
                <g id="tx_provides_dik68g1ttbh1q-fill">
                    <g>
                        <g>
                            <g transform="matrix(1,0,0,1,12.16,28.2)">
                                <text x="0px" y="0px" style="font-family:'ArialMT', 'Arial', sans-serif;font-size:15px;fill:rgb(44,44,44);">Provides instant insights into call</text>
                            </g>
                            <g transform="matrix(1,0,0,1,71.33,46.2)">
                                <g transform="matrix(15,0,0,15,17.5049,0)">
                                </g>
                                <g transform="matrix(15,0,0,15,21.5389,0)">
                                </g>
                                <g transform="matrix(15,0,0,15,25.573,0)">
                                </g>
                                <text x="0px" y="0px" style="font-family:'ArialMT', 'Arial', sans-serif;font-size:15px;fill:rgb(44,44,44);">traﬃc patterns.</text>
                            </g>
                        </g>
                    </g>
                </g>
            </g>
            <g id="g-root-tx_personal_92qo401ttfmrk-fill" transform="matrix(1,0,0,1,392,830)">
                <g id="tx_personal_92qo401ttfmrk-fill">
                    <g>
                        <g>
                            <g transform="matrix(1,0,0,1,18.65,28.2)">
                                <text x="0px" y="0px" style="font-family:'ArialMT', 'Arial', sans-serif;font-size:15px;fill:rgb(44,44,44);">Personalized support ensures</text>
                            </g>
                            <g transform="matrix(1,0,0,1,15.37,46.2)">
                                <text x="0px" y="0px" style="font-family:'ArialMT', 'Arial', sans-serif;font-size:15px;fill:rgb(44,44,44);">smooth account management.</text>
                            </g>
                        </g>
                    </g>
                </g>
            </g>
            <g id="g-root-cp_5_shape-5_vbqxe81tjsphn-stroke" transform="matrix(1,0,0,1,314.303,104)">
                <g id="cp_5_shape-5_vbqxe81tjsphn-stroke">
                    <g>
                        <path d="M15.697,160L15.697,316M27.697,316L27.697,160M15.697,160L15.697,28.191L11.017,28.191C10.237,28.191 9.747,27.341 10.137,26.661L20.86,10.448C21.256,9.849 22.136,9.851 22.53,10.451L33.177,26.661C33.577,27.341 33.087,28.191 32.297,28.191L27.697,28.191L27.697,160" style="fill:none;stroke:rgb(44,44,44);stroke-width:2px;"/>
                    </g>
                </g>
            </g>
            <g id="g-root-cp_1_shape-1_1lpvzio1tt77d1-stroke" transform="matrix(1,0,0,1,32,103.816)">
                <g id="cp_1_shape-1_1lpvzio1tt77d1-stroke">
                    <g>
                        <path d="M10,160.184C10,140.301 26.118,124.321 46,124.321L172,124.321C213.07,124.321 238,94.191 238,54.851L238,28.191L233.32,28.191C232.54,28.191 232.05,27.341 232.44,26.661L243.163,10.448C243.559,9.849 244.439,9.851 244.833,10.451L255.48,26.661C255.88,27.341 255.39,28.191 254.6,28.191L250,28.191L250,160.184M250,316.184C250,336.066 233.882,352.191 214,352.191L46,352.191C26.118,352.191 10,336.081 10,316.199L10,316.184M250,316.184L250,160.184M10,160.184L10,316.184" style="fill:none;stroke:rgb(44,44,44);stroke-width:2px;"/>
                    </g>
                </g>
            </g>
            <g id="g-root-cp_3_shape-3_18efh5c1tt78xz-stroke" transform="matrix(1,0,0,1,284.303,104)">
                <g id="cp_3_shape-3_18efh5c1tt78xz-stroke">
                    <g>
                        <path d="M15.697,160L15.697,316M27.697,316L27.697,160M15.697,160L15.697,28.191L11.017,28.191C10.237,28.191 9.747,27.341 10.137,26.661L20.86,10.448C21.256,9.849 22.136,9.851 22.53,10.451L33.177,26.661C33.577,27.341 33.087,28.191 32.297,28.191L27.697,28.191L27.697,160" style="fill:none;stroke:rgb(44,44,44);stroke-width:2px;"/>
                    </g>
                </g>
            </g>
            <g id="g-root-cp_3_shape-3_1_qnrxqo1tt785d-stroke" transform="matrix(1,0,0,1,32,410)">
                <g id="cp_3_shape-3_1_qnrxqo1tt785d-stroke">
                    <g>
                        <path d="M268,10C268,46 244,64.321 214,64.321L46,64.321C26.118,64.321 10,80.423 10,100.306M280,100.306L280,10" style="fill:none;stroke:rgb(44,44,44);stroke-width:2px;"/>
                    </g>
                </g>
            </g>
            <g id="g-root-cp_5_shape-5_1_4haw7k1tt77d7-stroke" transform="matrix(1,0,0,1,320,410)">
                <g id="cp_5_shape-5_1_4haw7k1tt77d7-stroke">
                    <g>
                        <path d="M10,10L10,232M22,232L22,10" style="fill:none;stroke:rgb(44,44,44);stroke-width:2px;"/>
                    </g>
                </g>
            </g>
            <g id="g-root-cp_3_shape-3_2_1lr4xow1tt79j9-stroke" transform="matrix(1,0,0,1,32,500)">
                <g id="cp_3_shape-3_2_1lr4xow1tt79j9-stroke">
                    <g>
                        <path d="M280,141.979L280,10M10,10L10,142M280,142.008C280,161.89 263.882,178.008 244,178.008L46,178.008C26.118,178.008 10,161.905 10,142.023L10,142.008" style="fill:none;stroke:rgb(44,44,44);stroke-width:2px;"/>
                    </g>
                </g>
            </g>
            <g id="g-root-cp_5_shape-5_2_zknw5s1tt78r3-stroke" transform="matrix(1,0,0,1,32,632)">
                <g id="cp_5_shape-5_2_zknw5s1tt78r3-stroke">
                    <g>
                        <path d="M298,10C298,45.878 274,64.137 244,64.137L46,64.137C26.118,64.137 10,80.185 10,100M310,100L310,10" style="fill:none;stroke:rgb(44,44,44);stroke-width:2px;"/>
                    </g>
                </g>
            </g>
            <g id="g-root-cp_5_shape-5_3_hu0cr41tt77yh-stroke" transform="matrix(1,0,0,1,32,722)">
                <g id="cp_5_shape-5_3_hu0cr41tt77yh-stroke">
                    <g>
                        <path d="M310,142L310,10M10,10L10,142M310,142C310,161.882 293.882,178.008 274,178.008L46,178.008C26.118,178.008 10,161.882 10,142" style="fill:none;stroke:rgb(44,44,44);stroke-width:2px;"/>
                    </g>
                </g>
            </g>
            <g id="g-root-cp_2_shape-2_3ctcg1tt775v-stroke" transform="matrix(1,0,0,1,404.378,103.816)">
                <g id="cp_2_shape-2_3ctcg1tt775v-stroke">
                    <g>
                        <path d="M255.622,160.184C255.622,140.301 239.505,124.321 219.623,124.321L93.622,124.321C52.552,124.321 27.622,94.191 27.622,54.851L27.622,28.191L32.302,28.191C33.082,28.191 33.572,27.341 33.182,26.661L22.459,10.448C22.063,9.849 21.184,9.851 20.79,10.451L10.142,26.661C9.742,27.341 10.232,28.191 11.022,28.191L15.622,28.191L15.622,160.184M15.622,316.184C15.622,336.066 31.74,352.184 51.622,352.184L219.623,352.183C239.505,352.183 255.622,336.081 255.622,316.199L255.622,316.184M15.622,316.184L15.622,160.184M255.622,160.184L255.622,316.184" style="fill:none;stroke:rgb(44,44,44);stroke-width:2px;"/>
                    </g>
                </g>
            </g>
            <g id="g-root-cp_4_shape-4_1lt0cy81tt78jp-stroke" transform="matrix(1,0,0,1,374.383,104)">
                <g id="cp_4_shape-4_1lt0cy81tt78jp-stroke">
                    <g>
                        <path d="M27.622,160L27.622,316M15.622,316L15.622,160M27.622,160L27.622,28.191L32.302,28.191C33.082,28.191 33.572,27.341 33.182,26.661L22.459,10.448C22.063,9.849 21.184,9.851 20.79,10.451L10.142,26.661C9.742,27.341 10.232,28.191 11.022,28.191L15.622,28.191L15.622,160" style="fill:none;stroke:rgb(44,44,44);stroke-width:2px;"/>
                    </g>
                </g>
            </g>
            <g id="g-root-cp_6_shape-6_18i6bo01tt76yv-stroke" transform="matrix(1,0,0,1,344.383,104)">
                <g id="cp_6_shape-6_18i6bo01tt76yv-stroke">
                    <g>
                        <path d="M27.622,160L27.622,316M15.622,316L15.622,160M27.622,160L27.622,28.191L32.302,28.191C33.082,28.191 33.572,27.341 33.182,26.661L22.459,10.448C22.063,9.849 21.184,9.851 20.79,10.451L10.142,26.661C9.742,27.341 10.232,28.191 11.022,28.191L15.622,28.191L15.622,160" style="fill:none;stroke:rgb(44,44,44);stroke-width:2px;"/>
                    </g>
                </g>
            </g>
            <g id="g-root-cp_4_shape-4_1_qqwb681tt79c1-stroke" transform="matrix(1,0,0,1,380,410)">
                <g id="cp_4_shape-4_1_qqwb681tt79c1-stroke">
                    <g>
                        <path d="M22,10C22,46 46,64.321 76,64.321L244,64.321C263.882,64.321 280,80.423 280,100.306M10,100.306L10,10" style="fill:none;stroke:rgb(44,44,44);stroke-width:2px;"/>
                    </g>
                </g>
            </g>
            <g id="g-root-cp_4_shape-4_2_dg29w01tt77r7-stroke" transform="matrix(1,0,0,1,380,500)">
                <g id="cp_4_shape-4_2_dg29w01tt77r7-stroke">
                    <g>
                        <path d="M10,142L10,10M280,10L280,142M10,142C10,161.882 26.118,178.008 46,178.008L244,178.008C263.882,178.008 280,161.898 280,142.016L280,142" style="fill:none;stroke:rgb(44,44,44);stroke-width:2px;"/>
                    </g>
                </g>
            </g>
            <g id="g-root-cp_6_shape-6_1_1qa2t8w1tt79xp-stroke" transform="matrix(1,0,0,1,350,410)">
                <g id="cp_6_shape-6_1_1qa2t8w1tt79xp-stroke">
                    <g>
                        <path d="M22,10L22,232M10,232L10,10" style="fill:none;stroke:rgb(44,44,44);stroke-width:2px;"/>
                    </g>
                </g>
            </g>
            <g id="g-root-cp_6_shape-6_2_1cz8ryo1tt78cv-stroke" transform="matrix(1,0,0,1,350,632)">
                <g id="cp_6_shape-6_2_1cz8ryo1tt78cv-stroke">
                    <g>
                        <path d="M22,10C22,46 46,64.321 76,64.321L274,64.321C293.882,64.321 310,80.423 310,100.306M10,100.306L10,10" style="fill:none;stroke:rgb(44,44,44);stroke-width:2px;"/>
                    </g>
                </g>
            </g>
            <g id="g-root-cp_6_shape-6_3_143lrps1tt79xd-stroke" transform="matrix(1,0,0,1,350,722)">
                <g id="cp_6_shape-6_3_143lrps1tt79xd-stroke">
                    <g>
                        <path d="M10,142L10,10M310,10L310,142M10,142C10,161.882 26.118,178.008 46,178.008L274,178.008C293.882,178.008 310,161.898 310,142.016L310,142" style="fill:none;stroke:rgb(44,44,44);stroke-width:2px;"/>
                    </g>
                </g>
            </g>
            <g id="g-root-ic_ante_1hgb89c1tta22x-stroke" transform="matrix(1,0,0,1,143,488)">
                <g id="ic_ante_1hgb89c1tta22x-stroke">
                    <g>
                        <path d="M25.2,42.2C21,39.4 18,34.4 18,28.8C18,20 25.2,12.8 34,12.8C42.8,12.8 50,20 50,28.8C50,34.4 47.2,39.2 42.8,42.2M34,41.2C37.314,41.2 40,38.514 40,35.2C40,31.886 37.314,29.2 34,29.2C30.686,29.2 28,31.886 28,35.2C28,38.514 30.686,41.2 34,41.2ZM27.6,25.2C28.8,17 34,12.8 34,12.8M40.4,25.2C39.2,17 34,12.8 34,12.8M49.344,24.2L18.719,24.2M23,34.2L18.961,34.2M49.07,34.2L45,34.2M32,40.87L28,55.2M36,40.87L40,55.2M18.1,45C9.3,36.2 9.3,22 18.1,13.2M49.9,13.2C58.7,22 58.7,36.2 49.9,45" style="fill:none;stroke:rgb(44,44,44);stroke-width:2px;"/>
                    </g>
                </g>
            </g>
            <g id="g-root-ic_toy_1qeg4uo1tte9s3-stroke" transform="matrix(1,0,0,1,491,488)">
                <g id="ic_toy_1qeg4uo1tte9s3-stroke">
                    <g>
                        <path d="M42.413,24.5C42.413,27.9 39.813,30.5 36.413,30.5L22.413,30.5C19.013,30.5 16.413,27.9 16.413,24.5L16.413,17.5C16.413,14.1 19.013,11.5 22.413,11.5L36.413,11.5C39.813,11.5 42.413,14.1 42.413,17.5L42.413,24.5ZM24.413,19.5L24.413,22.5M34.413,19.5L34.413,22.5M21.413,44.5C21.413,46.1 20.013,47.5 18.413,47.5C16.813,47.5 15.413,46.1 15.413,44.5L15.413,38.5C15.413,36.9 16.813,35.5 18.413,35.5C20.013,35.5 21.413,36.9 21.413,38.5L21.413,44.5ZM26.413,30.5C22.413,32.5 21.413,37.5 21.413,37.5L21.413,38.361M42.213,36.1C41.813,35.7 41.013,35.5 40.413,35.5C38.813,35.5 37.413,36.9 37.413,38.5M32.413,30.5C36.413,32.5 37.413,37.5 37.413,37.5L37.413,38.468M21.413,43.5C21.413,43.5 24.413,41.5 29.413,41.5L30.413,41.5M44.087,54.708C43.687,54.708 43.287,55.108 43.287,55.508C43.287,55.908 43.687,56.308 44.087,56.308M44.087,54.708C44.487,54.708 44.887,55.108 44.887,55.508C44.887,55.908 44.487,56.308 44.087,56.308M39.887,50.508C42.287,48.108 46.087,48.108 48.287,50.508M35.587,46.307C40.187,41.707 47.787,41.707 52.587,46.307" style="fill:none;stroke:rgb(44,44,44);stroke-width:2px;"/>
                    </g>
                </g>
            </g>
            <g id="g-root-ic_airp_qv9ms01ttcv0t-stroke" transform="matrix(1,0,0,1,506,242)">
                <g id="ic_airp_qv9ms01ttcv0t-stroke">
                    <g>
                        <path d="M46,40.857L46,52.857C46,54.751 44.465,56.286 42.571,56.286L15.143,56.286C13.249,56.286 11.714,54.751 11.714,52.857L11.714,35.714C11.714,33.821 13.249,32.286 15.143,32.286L25.429,32.286M35.714,56.286L35.714,40.857M22,56.286L22,32.286M55.463,16.411L52.034,15.246C51.539,15.077 50.992,15.26 50.697,15.691L48.194,19.566L34.48,12.709C32.285,11.415 29.628,11.169 27.233,12.038C24.839,12.907 22.957,14.8 22.103,17.2C21.868,17.822 21.909,18.515 22.217,19.104C22.525,19.693 23.069,20.123 23.714,20.286L32.663,23.166L33.554,23.474L35.234,29.234C35.344,29.642 35.654,29.965 36.057,30.091L40.103,31.394C40.523,31.531 40.984,31.44 41.32,31.153C41.656,30.866 41.818,30.425 41.749,29.989L40.857,25.703L41.44,25.703L50.183,28.549C51.375,28.96 52.676,28.332 53.097,27.143L56.183,17.646C56.253,17.118 55.956,16.61 55.463,16.411Z" style="fill:none;stroke:rgb(44,44,44);stroke-width:2px;"/>
                    </g>
                </g>
            </g>
            <g id="g-root-ic_sign_958kgg1tt77ye-stroke" transform="matrix(1,0,0,1,128,242)">
                <g id="ic_sign_958kgg1tt77ye-stroke">
                    <g>
                        <path d="M24,33L20,57M28,11L26,21M44,33L48,57M40,11L42,21M34,49L34,57M34,35L34,41M34,11L34,13M18.86,29.836C18.94,29.354 19.357,29 19.846,29L48.152,29C48.641,29 49.058,29.354 49.138,29.836L50.862,40.164C50.942,40.646 51.359,41 51.848,41L56,41C56.552,41 57,40.552 57,40L57,22C57,21.448 56.552,21 56,21L12,21C11.448,21 11,21.448 11,22L11,40C11,40.552 11.448,41 12,41L16.154,41C16.643,41 17.06,40.646 17.14,40.164L18.86,29.836Z" style="fill:none;stroke:rgb(44,44,44);stroke-width:2px;"/>
                    </g>
                </g>
            </g>
            <g id="g-root-ic_wifi_8z34g1ttbhmw-stroke" transform="matrix(1,0,0,1,158,710)">
                <g id="ic_wifi_8z34g1ttbhmw-stroke">
                    <g>
                        <path d="M19.984,38.866C19.81,40.764 18.931,42.527 17.522,43.81M24.01,38.866C24.184,40.764 25.063,42.527 26.472,43.81M43.984,38.866C43.81,40.764 42.931,42.527 41.522,43.81M48.01,38.866C48.184,40.764 49.063,42.527 50.472,43.81M11.732,43.81L56.268,43.81M16.092,43.81L13.558,55.666M51.908,43.81L54.442,55.666M14.998,25.866L28.998,25.866C28.998,25.866 30.998,25.866 30.998,27.866L30.998,36.866C30.998,36.866 30.998,38.866 28.998,38.866L14.998,38.866C14.998,38.866 12.998,38.866 12.998,36.866L12.998,27.866C12.998,27.866 12.998,25.866 14.998,25.866M52.996,38.866L38.996,38.866C38.996,38.866 36.996,38.866 36.996,36.866L36.996,27.866C36.996,27.866 36.996,25.866 38.996,25.866L52.996,25.866C52.996,25.866 54.996,25.866 54.996,27.866L54.996,36.866C54.996,36.866 54.996,38.866 52.996,38.866M42,14.696C37.334,10.922 30.666,10.922 26,14.696M29.33,19.516C32.053,17.316 35.941,17.316 38.664,19.516M19.108,49.236L24.886,49.236M21.998,56.134L21.998,49.236M43.108,49.236L48.886,49.236M45.998,56.134L45.998,49.236" style="fill:none;stroke:rgb(44,44,44);stroke-width:2px;"/>
                    </g>
                </g>
            </g>
            <g id="g-root-ic_smok_hzmmj41ttfnd6-stroke" transform="matrix(1,0,0,1,476,710)">
                <g id="ic_smok_hzmmj41ttfnd6-stroke">
                    <g>
                        <path d="M43.24,50.76C40.493,52.555 37.281,53.508 34,53.5C26.359,53.5 19.657,48.402 17.617,41.038C15.577,33.674 18.701,25.854 25.254,21.923C31.806,17.991 40.176,18.915 45.714,24.18C51.251,29.445 52.596,37.758 49,44.5M18.5,43.5L15,43.5C12.791,43.5 11,41.709 11,39.5L11,33.5C11,31.291 12.791,29.5 15,29.5L18.5,29.5M49.5,43.5L53,43.5C55.209,43.5 57,41.709 57,39.5L57,33.5C57,31.291 55.209,29.5 53,29.5L49.5,29.5M52.98,29.5C52.98,19.007 44.473,10.5 33.98,10.5C23.487,10.5 14.98,19.007 14.98,29.5M24.84,41.5C26.433,45.138 30.028,47.488 34,47.488C37.972,47.488 41.567,45.138 43.16,41.5M25,33C25.276,33 25.5,33.224 25.5,33.5C25.5,33.776 25.276,34 25,34C24.724,34 24.5,33.776 24.5,33.5C24.5,33.224 24.724,33 25,33M43,33C43.276,33 43.5,33.224 43.5,33.5C43.5,33.776 43.276,34 43,34C42.724,34 42.5,33.776 42.5,33.5C42.5,33.224 42.724,33 43,33M38.74,46.3L48.42,56C48.822,56.404 49.377,56.618 49.946,56.587C50.515,56.557 51.044,56.285 51.4,55.84L52.66,54.26C53.001,53.824 53.145,53.267 53.06,52.72C52.981,52.17 52.677,51.677 52.22,51.36L41.58,44" style="fill:none;stroke:rgb(44,44,44);stroke-width:2px;"/>
                    </g>
                </g>
            </g>
        </g>
    </g>
</svg>
