<?xml version="1.0" encoding="UTF-8" standalone="no"?>
<!DOCTYPE svg PUBLIC "-//W3C//DTD SVG 1.1//EN" "http://www.w3.org/Graphics/SVG/1.1/DTD/svg11.dtd">
<svg width="100%" height="100%" viewBox="0 0 708 846" version="1.1" xmlns="http://www.w3.org/2000/svg" xmlns:xlink="http://www.w3.org/1999/xlink" xml:space="preserve" xmlns:serif="http://www.serif.com/" style="fill-rule:evenodd;clip-rule:evenodd;stroke-linecap:round;stroke-linejoin:round;">
    <g id="items" transform="matrix(1.11084,0,0,1.11084,-39.2643,-55.5396)">
        <g id="blend">
            <g id="g-root-cp_1_shape-1_zisnch1mlndoq-fill" transform="matrix(1,0,0,1,35.5,55.8164)">
                <g id="cp_1_shape-1_zisnch1mlndoq-fill">
                    <g>
                        <path d="M214,316.184L46,316.183C26.118,316.183 10,300.081 10,280.199L10,280.184L250,280.184C250,300.066 233.882,316.184 214,316.184ZM254.6,28.375L250,28.375L250,160.184L10,160.184C10,140.302 26.118,124.505 46,124.505L172,124.505C213.07,124.505 238,94.374 238,55.034L238,28.374L233.32,28.374C232.54,28.374 232.05,27.524 232.44,26.844L243.163,10.632C243.559,10.033 244.439,10.034 244.833,10.635L255.48,26.844C255.88,27.525 255.39,28.375 254.6,28.375ZM250,160.184L250,280.184L10,280.184L10,160.184L250,160.184Z" style="fill:rgb(251,103,98);"/>
                    </g>
                </g>
            </g>
            <g id="g-root-cp_3_shape-3_4golkh1mlneh0-fill" transform="matrix(1,0,0,1,35,326)">
                <g id="cp_3_shape-3_4golkh1mlneh0-fill">
                    <g>
                        <path d="M214,64.321C244,64.321 268,46 268,10L280,10L280,100.306L10,100.306C10,80.423 26.118,64.321 46,64.321L214,64.321Z" style="fill:rgb(255,231,17);"/>
                    </g>
                </g>
            </g>
            <g id="g-root-cp_3_shape-3_1_13zv3n51mlnf2m-fill" transform="matrix(1,0,0,1,287.303,56)">
                <g id="cp_3_shape-3_1_13zv3n51mlnf2m-fill">
                    <g>
                        <path d="M27.697,280L15.697,280L15.697,160L27.697,160L27.697,280ZM32.297,28.191L27.697,28.191L27.697,160L15.697,160L15.697,28.191L11.017,28.191C10.237,28.191 9.747,27.341 10.137,26.661L20.86,10.448C21.256,9.849 22.136,9.851 22.53,10.451L33.177,26.661C33.577,27.341 33.087,28.191 32.297,28.191Z" style="fill:rgb(255,231,17);"/>
                    </g>
                </g>
            </g>
            <g id="g-root-cp_5_shape-5_hte2411mlnf28-fill" transform="matrix(1,0,0,1,317.303,56)">
                <g id="cp_5_shape-5_hte2411mlnf28-fill">
                    <g>
                        <path d="M27.697,280L15.697,280L15.697,160L27.697,160L27.697,280ZM32.297,28.191L27.697,28.191L27.697,160L15.697,160L15.697,28.191L11.017,28.191C10.237,28.191 9.747,27.341 10.137,26.661L20.86,10.448C21.256,9.849 22.136,9.851 22.53,10.451L33.177,26.661C33.577,27.341 33.087,28.191 32.297,28.191Z" style="fill:rgb(26,195,251);"/>
                    </g>
                </g>
            </g>
            <g id="g-root-cp_2_shape-2_1hckk6p1mlnfnu-fill" transform="matrix(1,0,0,1,407.878,55.8164)">
                <g id="cp_2_shape-2_1hckk6p1mlnfnu-fill">
                    <g>
                        <path d="M51.622,316.184L219.622,316.184C239.504,316.184 255.622,300.081 255.622,280.199L255.622,280.184L15.622,280.184C15.622,300.066 31.74,316.184 51.622,316.184ZM11.022,28.375L15.622,28.375L15.622,160.184L255.622,160.184C255.622,140.302 239.505,124.505 219.623,124.505L93.622,124.505C52.552,124.505 27.622,94.374 27.622,55.034L27.622,28.374L32.302,28.374C33.082,28.374 33.572,27.524 33.182,26.844L22.459,10.632C22.063,10.033 21.184,10.034 20.79,10.635L10.142,26.844C9.742,27.525 10.232,28.375 11.022,28.375ZM15.622,160.184L15.622,280.184L255.622,280.184L255.622,160.184L15.622,160.184Z" style="fill:rgb(247,148,56);"/>
                    </g>
                </g>
            </g>
            <g id="g-root-cp_4_shape-4_qqa0j51mlnfnw-fill" transform="matrix(1,0,0,1,383,326)">
                <g id="cp_4_shape-4_qqa0j51mlnfnw-fill">
                    <g>
                        <path d="M76,64.321C46,64.321 22,46 22,10L10,10L10,100.306L280,100.306C280,80.423 263.882,64.321 244,64.321L76,64.321Z" style="fill:rgb(67,221,147);"/>
                    </g>
                </g>
            </g>
            <g id="g-root-cp_4_shape-4_1_8zmh4h1mlneva-fill" transform="matrix(1,0,0,1,377.383,56)">
                <g id="cp_4_shape-4_1_8zmh4h1mlneva-fill">
                    <g>
                        <path d="M15.623,280L27.623,280L27.623,160L15.623,160L15.623,280ZM11.022,28.191L15.622,28.191L15.622,160L27.622,160L27.622,28.191L32.302,28.191C33.082,28.191 33.572,27.341 33.182,26.661L22.459,10.448C22.063,9.849 21.184,9.851 20.79,10.451L10.142,26.661C9.742,27.341 10.232,28.191 11.022,28.191Z" style="fill:rgb(67,221,147);"/>
                    </g>
                </g>
            </g>
            <g id="g-root-cp_6_shape-6_1hefzg11mlneo8-fill" transform="matrix(1,0,0,1,347.383,56)">
                <g id="cp_6_shape-6_1hefzg11mlneo8-fill">
                    <g>
                        <path d="M15.623,280L27.623,280L27.623,160L15.623,160L15.623,280ZM11.022,28.191L15.622,28.191L15.622,160L27.622,160L27.622,28.191L32.302,28.191C33.082,28.191 33.572,27.341 33.182,26.661L22.459,10.448C22.063,9.849 21.184,9.851 20.79,10.451L10.142,26.661C9.742,27.341 10.232,28.191 11.022,28.191Z" style="fill:rgb(135,105,253);"/>
                    </g>
                </g>
            </g>
            <g id="g-root-cp_3_shape-3_2_qs5fsh1mlneoa-fill" transform="matrix(1,0,0,1,35,416)">
                <g id="cp_3_shape-3_2_qs5fsh1mlneoa-fill">
                    <g>
                        <path d="M280,10L280,129.98L10,129.98L10,10L280,10ZM244,166.008L46,166.008C26.118,166.008 10,149.906 10,130.023L10,130.008L280,130.008C280,149.89 263.882,166.008 244,166.008Z" style="fill:rgb(255,231,17);"/>
                    </g>
                </g>
            </g>
            <g id="g-root-cp_5_shape-5_1_91hwdt1mlndvo-fill" transform="matrix(1,0,0,1,323,326)">
                <g id="cp_5_shape-5_1_91hwdt1mlndvo-fill">
                    <g>
                        <rect x="10" y="10" width="12" height="210" style="fill:rgb(26,195,251);"/>
                    </g>
                </g>
            </g>
            <g id="g-root-cp_5_shape-5_2_1lvifqp1mlng26-fill" transform="matrix(1,0,0,1,35,536)">
                <g id="cp_5_shape-5_2_1lvifqp1mlng26-fill">
                    <g>
                        <path d="M244,64.137C274,64.137 298,45.878 298,10L310,10L310,100L10,100C10,80.185 26.118,64.137 46,64.137L244,64.137Z" style="fill:rgb(26,195,251);"/>
                    </g>
                </g>
            </g>
            <g id="g-root-cp_4_shape-4_2_zp1e7l1mlng1s-fill" transform="matrix(1,0,0,1,383,416)">
                <g id="cp_4_shape-4_2_zp1e7l1mlng1s-fill">
                    <g>
                        <path d="M10,10L10,130L280,130L280,10L10,10ZM46,166L244,166C263.882,166 280,149.898 280,130.016L280,130L10,130C10,149.882 26.118,166 46,166Z" style="fill:rgb(67,221,147);"/>
                    </g>
                </g>
            </g>
            <g id="g-root-cp_6_shape-6_1_me7cxd1mlnegy-fill" transform="matrix(1,0,0,1,353,326)">
                <g id="cp_6_shape-6_1_me7cxd1mlnegy-fill">
                    <g>
                        <rect x="10" y="10" width="12" height="210" style="fill:rgb(135,105,253);"/>
                    </g>
                </g>
            </g>
            <g id="g-root-cp_6_shape-6_2_7qbe91mlndos-fill" transform="matrix(1,0,0,1,353,536)">
                <g id="cp_6_shape-6_2_7qbe91mlndos-fill">
                    <g>
                        <path d="M76,64.321C46,64.321 22,46 22,10L10,10L10,100.306L310,100.306C310,80.423 293.882,64.321 274,64.321L76,64.321Z" style="fill:rgb(135,105,253);"/>
                    </g>
                </g>
            </g>
            <g id="g-root-cp_5_shape-5_3_1hhkcvl1mlnfuu-fill" transform="matrix(1,0,0,1,35,626)">
                <g id="cp_5_shape-5_3_1hhkcvl1mlnfuu-fill">
                    <g>
                        <path d="M310,10L310,130L10,130L10,10L310,10ZM274,166.008L46,166.008C26.118,166.008 10,149.882 10,130L310,130C310,149.882 293.882,166.008 274,166.008Z" style="fill:rgb(26,195,251);"/>
                    </g>
                </g>
            </g>
            <g id="g-root-cp_6_shape-6_3_146qbld1mlnea0-fill" transform="matrix(1,0,0,1,353,626)">
                <g id="cp_6_shape-6_3_146qbld1mlnea0-fill">
                    <g>
                        <path d="M10,10L10,130L310,130L310,10L10,10ZM46,166L274,166C293.882,166 310,149.898 310,130.016L310,130L10,130C10,149.882 26.118,166 46,166Z" style="fill:rgb(135,105,253);"/>
                    </g>
                </g>
            </g>
            <g id="g-root-tx__zs5rn51mloum8-fill">
            </g>
            <g id="g-root-tx_ispsinte_18k1xdd1mlq96y-fill" transform="matrix(1,0,0,1,98,464)">
                <g id="tx_ispsinte_18k1xdd1mlq96y-fill">
                    <g>
                        <g>
                            <g transform="matrix(1,0,0,1,11.95,34)">
                                <text x="0px" y="0px" style="font-family:'Arial-BoldMT', 'Arial', sans-serif;font-weight:700;font-size:20px;fill:rgb(44,44,44);">ISPs &amp; Internet</text>
                            </g>
                            <g transform="matrix(1,0,0,1,32.8,58)">
                                <text x="0px" y="0px" style="font-family:'Arial-BoldMT', 'Arial', sans-serif;font-weight:700;font-size:20px;fill:rgb(44,44,44);">T<tspan x="10.732px 21.855px " y="0px 0px ">el</tspan>ephony</text>
                            </g>
                        </g>
                    </g>
                </g>
            </g>
            <g id="g-root-tx_manageds_4j6hwx1mlrnr9-fill" transform="matrix(1,0,0,1,434,464)">
                <g id="tx_manageds_4j6hwx1mlrnr9-fill">
                    <g>
                        <g>
                            <g transform="matrix(1,0,0,1,13.58,34)">
                                <text x="0px" y="0px" style="font-family:'Arial-BoldMT', 'Arial', sans-serif;font-weight:700;font-size:20px;fill:rgb(44,44,44);">Managed Service</text>
                            </g>
                            <g transform="matrix(1,0,0,1,48.45,58)">
                                <text x="0px" y="0px" style="font-family:'Arial-BoldMT', 'Arial', sans-serif;font-weight:700;font-size:20px;fill:rgb(44,44,44);">Providers</text>
                            </g>
                        </g>
                    </g>
                </g>
            </g>
            <g id="g-root-tx__73ub51mlq8eb-fill">
            </g>
            <g id="g-root-tx__v3g11mlotfo-fill">
            </g>
            <g id="g-root-tx__zn5yy91mlrlza-fill">
            </g>
            <g id="g-root-tx_voipwhol_94m9td1mlosg7-fill" transform="matrix(1,0,0,1,455,254)">
                <g id="tx_voipwhol_94m9td1mlosg7-fill">
                    <g>
                        <g>
                            <g transform="matrix(1,0,0,1,15.14,34)">
                                <text x="0px" y="0px" style="font-family:'Arial-BoldMT', 'Arial', sans-serif;font-weight:700;font-size:20px;fill:rgb(44,44,44);">V<tspan x="11.855px 24.072px 29.629px 42.607px 48.164px " y="0px 0px 0px 0px 0px ">oIP W</tspan>holesale</text>
                            </g>
                            <g transform="matrix(1,0,0,1,42.46,58)">
                                <text x="0px" y="0px" style="font-family:'Arial-BoldMT', 'Arial', sans-serif;font-weight:700;font-size:20px;fill:rgb(44,44,44);">Providers</text>
                            </g>
                        </g>
                    </g>
                </g>
            </g>
            <g transform="matrix(1,0,0,1,88.26,288)">
                <g id="g-root-tx_telecomc_13ym5gx1mlorur-fill">
                    <g id="tx_telecomc_13ym5gx1mlorur-fill">
                        <g>
                            <g>
                                <text x="0px" y="0px" style="font-family:'Arial-BoldMT', 'Arial', sans-serif;font-weight:700;font-size:20px;fill:rgb(44,44,44);">T<tspan x="10.732px 21.855px " y="0px 0px ">el</tspan>ecom Carriers</text>
                            </g>
                        </g>
                    </g>
                </g>
            </g>
            <g transform="matrix(1,0,0,1,117.99,708)">
                <g id="g-root-tx_corporat_1cy008h1mlt0y0-fill">
                    <g id="tx_corporat_1cy008h1mlt0y0-fill">
                        <g>
                            <g>
                                <text x="0px" y="0px" style="font-family:'Arial-BoldMT', 'Arial', sans-serif;font-weight:700;font-size:20px;fill:rgb(44,44,44);">Corporate T<tspan x="111.855px 122.979px " y="0px 0px ">el</tspan>cos</text>
                            </g>
                        </g>
                    </g>
                </g>
            </g>
            <g id="g-root-tx_techinfr_1hkj51mlugaz-fill" transform="matrix(1,0,0,1,407,674)">
                <g id="tx_techinfr_1hkj51mlugaz-fill">
                    <g>
                        <g>
                            <g transform="matrix(1,0,0,1,17.18,34)">
                                <text x="0px" y="0px" style="font-family:'Arial-BoldMT', 'Arial', sans-serif;font-weight:700;font-size:20px;fill:rgb(44,44,44);">T<tspan x="10.732px 21.855px " y="0px 0px ">ec</tspan>h Infrastructure</text>
                            </g>
                            <g transform="matrix(1,0,0,1,60.45,58)">
                                <text x="0px" y="0px" style="font-family:'Arial-BoldMT', 'Arial', sans-serif;font-weight:700;font-size:20px;fill:rgb(44,44,44);">Providers</text>
                            </g>
                        </g>
                    </g>
                </g>
            </g>
            <g id="g-root-tx__hvvygh1mlt1q9-fill">
            </g>
            <g id="g-root-tx__v5h1kh1mluej0-fill">
            </g>
            <g id="g-root-cp_1_shape-1_zisnch1mlndoq-stroke" transform="matrix(1,0,0,1,35.5,55.8164)">
                <g id="cp_1_shape-1_zisnch1mlndoq-stroke">
                    <g>
                        <path d="M10,160.184C10,140.301 26.118,124.321 46,124.321L172,124.321C213.07,124.321 238,94.191 238,54.851L238,28.191L233.32,28.191C232.54,28.191 232.05,27.341 232.44,26.661L243.163,10.448C243.559,9.849 244.439,9.851 244.833,10.451L255.48,26.661C255.88,27.341 255.39,28.191 254.6,28.191L250,28.191L250,160.184M250,280.184C250,300.066 233.882,316.191 214,316.191L46,316.191C26.118,316.191 10,300.081 10,280.199L10,280.184M250,280.184L250,160.184M10,160.184L10,280.184" style="fill:none;stroke:rgb(44,44,44);stroke-width:2px;"/>
                    </g>
                </g>
            </g>
            <g id="g-root-cp_3_shape-3_4golkh1mlneh0-stroke" transform="matrix(1,0,0,1,35,326)">
                <g id="cp_3_shape-3_4golkh1mlneh0-stroke">
                    <g>
                        <path d="M268,10C268,46 244,64.321 214,64.321L46,64.321C26.118,64.321 10,80.423 10,100.306M280,100.306L280,10" style="fill:none;stroke:rgb(44,44,44);stroke-width:2px;"/>
                    </g>
                </g>
            </g>
            <g id="g-root-cp_3_shape-3_1_13zv3n51mlnf2m-stroke" transform="matrix(1,0,0,1,287.303,56)">
                <g id="cp_3_shape-3_1_13zv3n51mlnf2m-stroke">
                    <g>
                        <path d="M15.697,160L15.697,280M27.697,280L27.697,160M15.697,160L15.697,28.191L11.017,28.191C10.237,28.191 9.747,27.341 10.137,26.661L20.86,10.448C21.256,9.849 22.136,9.851 22.53,10.451L33.177,26.661C33.577,27.341 33.087,28.191 32.297,28.191L27.697,28.191L27.697,160" style="fill:none;stroke:rgb(44,44,44);stroke-width:2px;"/>
                    </g>
                </g>
            </g>
            <g id="g-root-cp_5_shape-5_hte2411mlnf28-stroke" transform="matrix(1,0,0,1,317.303,56)">
                <g id="cp_5_shape-5_hte2411mlnf28-stroke">
                    <g>
                        <path d="M15.697,160L15.697,280M27.697,280L27.697,160M15.697,160L15.697,28.191L11.017,28.191C10.237,28.191 9.747,27.341 10.137,26.661L20.86,10.448C21.256,9.849 22.136,9.851 22.53,10.451L33.177,26.661C33.577,27.341 33.087,28.191 32.297,28.191L27.697,28.191L27.697,160" style="fill:none;stroke:rgb(44,44,44);stroke-width:2px;"/>
                    </g>
                </g>
            </g>
            <g id="g-root-cp_2_shape-2_1hckk6p1mlnfnu-stroke" transform="matrix(1,0,0,1,407.878,55.8164)">
                <g id="cp_2_shape-2_1hckk6p1mlnfnu-stroke">
                    <g>
                        <path d="M255.622,160.184C255.622,140.301 239.505,124.321 219.623,124.321L93.622,124.321C52.552,124.321 27.622,94.191 27.622,54.851L27.622,28.191L32.302,28.191C33.082,28.191 33.572,27.341 33.182,26.661L22.459,10.448C22.063,9.849 21.184,9.851 20.79,10.451L10.142,26.661C9.742,27.341 10.232,28.191 11.022,28.191L15.622,28.191L15.622,160.184M15.622,280.184C15.622,300.066 31.74,316.184 51.622,316.184L219.623,316.183C239.505,316.183 255.622,300.081 255.622,280.199L255.622,280.184M15.622,280.184L15.622,160.184M255.622,160.184L255.622,280.184" style="fill:none;stroke:rgb(44,44,44);stroke-width:2px;"/>
                    </g>
                </g>
            </g>
            <g id="g-root-cp_4_shape-4_qqa0j51mlnfnw-stroke" transform="matrix(1,0,0,1,383,326)">
                <g id="cp_4_shape-4_qqa0j51mlnfnw-stroke">
                    <g>
                        <path d="M22,10C22,46 46,64.321 76,64.321L244,64.321C263.882,64.321 280,80.423 280,100.306M10,100.306L10,10" style="fill:none;stroke:rgb(44,44,44);stroke-width:2px;"/>
                    </g>
                </g>
            </g>
            <g id="g-root-cp_4_shape-4_1_8zmh4h1mlneva-stroke" transform="matrix(1,0,0,1,377.383,56)">
                <g id="cp_4_shape-4_1_8zmh4h1mlneva-stroke">
                    <g>
                        <path d="M27.622,160L27.622,280M15.622,280L15.622,160M27.622,160L27.622,28.191L32.302,28.191C33.082,28.191 33.572,27.341 33.182,26.661L22.459,10.448C22.063,9.849 21.184,9.851 20.79,10.451L10.142,26.661C9.742,27.341 10.232,28.191 11.022,28.191L15.622,28.191L15.622,160" style="fill:none;stroke:rgb(44,44,44);stroke-width:2px;"/>
                    </g>
                </g>
            </g>
            <g id="g-root-cp_6_shape-6_1hefzg11mlneo8-stroke" transform="matrix(1,0,0,1,347.383,56)">
                <g id="cp_6_shape-6_1hefzg11mlneo8-stroke">
                    <g>
                        <path d="M27.622,160L27.622,280M15.622,280L15.622,160M27.622,160L27.622,28.191L32.302,28.191C33.082,28.191 33.572,27.341 33.182,26.661L22.459,10.448C22.063,9.849 21.184,9.851 20.79,10.451L10.142,26.661C9.742,27.341 10.232,28.191 11.022,28.191L15.622,28.191L15.622,160" style="fill:none;stroke:rgb(44,44,44);stroke-width:2px;"/>
                    </g>
                </g>
            </g>
            <g id="g-root-cp_3_shape-3_2_qs5fsh1mlneoa-stroke" transform="matrix(1,0,0,1,35,416)">
                <g id="cp_3_shape-3_2_qs5fsh1mlneoa-stroke">
                    <g>
                        <path d="M280,129.98L280,10M10,10L10,130M280,130.008C280,149.89 263.882,166.008 244,166.008L46,166.008C26.118,166.008 10,149.906 10,130.023L10,130.008" style="fill:none;stroke:rgb(44,44,44);stroke-width:2px;"/>
                    </g>
                </g>
            </g>
            <g id="g-root-cp_5_shape-5_1_91hwdt1mlndvo-stroke" transform="matrix(1,0,0,1,323,326)">
                <g id="cp_5_shape-5_1_91hwdt1mlndvo-stroke">
                    <g>
                        <path d="M10,10L10,220M22,220L22,10" style="fill:none;stroke:rgb(44,44,44);stroke-width:2px;"/>
                    </g>
                </g>
            </g>
            <g id="g-root-cp_5_shape-5_2_1lvifqp1mlng26-stroke" transform="matrix(1,0,0,1,35,536)">
                <g id="cp_5_shape-5_2_1lvifqp1mlng26-stroke">
                    <g>
                        <path d="M298,10C298,45.878 274,64.137 244,64.137L46,64.137C26.118,64.137 10,80.185 10,100M310,100L310,10" style="fill:none;stroke:rgb(44,44,44);stroke-width:2px;"/>
                    </g>
                </g>
            </g>
            <g id="g-root-cp_4_shape-4_2_zp1e7l1mlng1s-stroke" transform="matrix(1,0,0,1,383,416)">
                <g id="cp_4_shape-4_2_zp1e7l1mlng1s-stroke">
                    <g>
                        <path d="M10,130L10,10M280,10L280,130M10,130C10,149.882 26.118,166.008 46,166.008L244,166.008C263.882,166.008 280,149.898 280,130.016L280,130" style="fill:none;stroke:rgb(44,44,44);stroke-width:2px;"/>
                    </g>
                </g>
            </g>
            <g id="g-root-cp_6_shape-6_1_me7cxd1mlnegy-stroke" transform="matrix(1,0,0,1,353,326)">
                <g id="cp_6_shape-6_1_me7cxd1mlnegy-stroke">
                    <g>
                        <path d="M22,10L22,220M10,220L10,10" style="fill:none;stroke:rgb(44,44,44);stroke-width:2px;"/>
                    </g>
                </g>
            </g>
            <g id="g-root-cp_6_shape-6_2_7qbe91mlndos-stroke" transform="matrix(1,0,0,1,353,536)">
                <g id="cp_6_shape-6_2_7qbe91mlndos-stroke">
                    <g>
                        <path d="M22,10C22,46 46,64.321 76,64.321L274,64.321C293.882,64.321 310,80.423 310,100.306M10,100.306L10,10" style="fill:none;stroke:rgb(44,44,44);stroke-width:2px;"/>
                    </g>
                </g>
            </g>
            <g id="g-root-cp_5_shape-5_3_1hhkcvl1mlnfuu-stroke" transform="matrix(1,0,0,1,35,626)">
                <g id="cp_5_shape-5_3_1hhkcvl1mlnfuu-stroke">
                    <g>
                        <path d="M310,130L310,10M10,10L10,130M310,130C310,149.882 293.882,166.008 274,166.008L46,166.008C26.118,166.008 10,149.882 10,130" style="fill:none;stroke:rgb(44,44,44);stroke-width:2px;"/>
                    </g>
                </g>
            </g>
            <g id="g-root-cp_6_shape-6_3_146qbld1mlnea0-stroke" transform="matrix(1,0,0,1,353,626)">
                <g id="cp_6_shape-6_3_146qbld1mlnea0-stroke">
                    <g>
                        <path d="M10,130L10,10M310,10L310,130M10,130C10,149.882 26.118,166.008 46,166.008L274,166.008C293.882,166.008 310,149.898 310,130.016L310,130" style="fill:none;stroke:rgb(44,44,44);stroke-width:2px;"/>
                    </g>
                </g>
            </g>
            <g id="g-root-ic_conn_zqacdt1mlq8zw-stroke" transform="matrix(1,0,0,1,146,404)">
                <g id="ic_conn_zqacdt1mlq8zw-stroke">
                    <g>
                        <path d="M11.52,44.642C11.402,44.95 11.443,45.295 11.63,45.567C11.816,45.838 12.125,46 12.454,46L25.6,46C25.929,46 26.237,45.838 26.423,45.567C26.61,45.296 26.651,44.951 26.534,44.644L19.042,25L11.52,44.642ZM19.042,25L19,22M11.602,45.524L23.14,35.762M26.454,45.504L14.926,35.748M16.36,32L21.708,32M15,20C15,17.791 16.791,16 19,16C21.209,16 23,17.791 23,20M11,20C11,15.582 14.582,12 19,12C23.418,12 27,15.582 27,20M53,40L53,45C53,45.552 52.552,46 52,46L42,46C41.448,46 41,45.552 41,45L41,40M37.082,37L47.062,27.876L56.958,37M19,46L19,54C19,55.105 19.895,56 21,56L45,56C46.105,56 47,55.105 47,54L47,46" style="fill:none;stroke:rgb(44,44,44);stroke-width:2px;"/>
                    </g>
                </g>
            </g>
            <g id="g-root-ic_pick_18folrl1mlot8l-stroke" transform="matrix(1,0,0,1,131.5,194)">
                <g id="ic_pick_18folrl1mlot8l-stroke">
                    <g>
                        <path d="M47.164,39.562C49.216,39.734 50.793,41.453 50.788,43.512C50.783,45.572 49.197,47.282 47.144,47.444M54.378,56.744C52.974,54.025 50.234,52.254 47.178,52.092M27.802,41.8C27.801,45.497 30.799,48.495 34.496,48.495C38.193,48.495 41.191,45.497 41.19,41.8C41.191,38.103 38.193,35.105 34.496,35.105C30.799,35.105 27.801,38.103 27.802,41.8M24.234,57C25.782,52.745 29.795,49.887 34.322,49.815C38.85,49.743 42.952,52.472 44.634,56.676M20.836,39.562C18.784,39.734 17.207,41.453 17.212,43.512C17.217,45.572 18.803,47.282 20.856,47.444M13.622,56.744C15.026,54.025 17.766,52.254 20.822,52.092M30.232,20.156C30.232,22.477 32.113,24.358 34.434,24.358C36.755,24.358 38.636,22.477 38.636,20.156C38.636,17.835 36.755,15.954 34.434,15.954C32.113,15.954 30.232,17.835 30.232,20.156M30.482,21.588L23.872,27.67L27.124,32.39M38.386,21.588L44.998,27.67L41.744,32.39M34.434,15.954L34.434,11" style="fill:none;stroke:rgb(44,44,44);stroke-width:2px;"/>
                    </g>
                </g>
            </g>
            <g id="g-root-ic_sear_58f1t1mlrmrz-stroke" transform="matrix(1,0,0,1,494,404)">
                <g id="ic_sear_58f1t1mlrmrz-stroke">
                    <g>
                        <path d="M33.5,46.1C42.005,46.1 48.9,39.205 48.9,30.7C48.9,22.195 42.005,15.3 33.5,15.3C24.995,15.3 18.1,22.195 18.1,30.7C18.1,39.205 24.995,46.1 33.5,46.1ZM55.5,52.7L44.5,41.5M11.5,31.7L23.1,31.7L25.1,27.7L30.1,37.7L34.1,20.7L38.1,39.7L43.1,31.7L56.5,31.7" style="fill:none;stroke:rgb(44,44,44);stroke-width:2px;"/>
                    </g>
                </g>
            </g>
            <g id="g-root-ic_pack_1lqin1t1mlq87d-stroke" transform="matrix(1,0,0,1,509.5,194)">
                <g id="ic_pack_1lqin1t1mlq87d-stroke">
                    <g>
                        <path d="M30,33L38,33M30,29L38,29M20,20L20,36C20,36.552 20.448,37 21,37L47,37C47.552,37 48,36.552 48,36L48,20M48,20L20,20C20,20 20,11 34,11C47,11 48,20 48,20ZM12,45L24,45C24,45 25,45 25,46L25,56C25,56 25,57 24,57L12,57C12,57 11,57 11,56L11,46C11,46 11,45 12,45M18,45L18,48M44,45L56,45C56,45 57,45 57,46L57,56C57,56 57,57 56,57L44,57C44,57 43,57 43,56L43,46C43,46 43,45 44,45M50,45L50,48M26,25L42,25L42,37L26,37L26,25ZM34,51L34,41M29,51L39,51" style="fill:none;stroke:rgb(44,44,44);stroke-width:2px;"/>
                    </g>
                </g>
            </g>
            <g id="g-root-ic_1_1448f8x1mlt0qy-stroke" transform="matrix(1,0,0,1,161,614)">
                <g id="ic_1_1448f8x1mlt0qy-stroke">
                    <g>
                        <path d="M16.722,38.896C16.722,41.378 18.734,43.39 21.216,43.39C23.698,43.39 25.71,41.378 25.71,38.896C25.71,36.414 23.698,34.402 21.216,34.402C18.734,34.402 16.722,36.414 16.722,38.896M28.618,50.838C27.505,47.744 24.584,45.669 21.295,45.636C18.007,45.603 15.045,47.619 13.87,50.69M41.862,38.896C41.862,41.378 43.874,43.39 46.356,43.39C48.838,43.39 50.85,41.378 50.85,38.896C50.85,36.414 48.838,34.402 46.356,34.402C43.874,34.402 41.862,36.414 41.862,38.896M53.458,50.12C52.251,47.642 49.853,45.96 47.112,45.668C46.405,45.612 45.694,45.647 44.996,45.772M12,54.622L56,54.622M47.848,54.622L34.876,54.622L33.148,46.838C33.083,46.542 33.155,46.232 33.345,45.996C33.534,45.76 33.821,45.622 34.124,45.622L44.244,45.622C45.181,45.622 45.993,46.273 46.196,47.188L47.848,54.622ZM33,13.378L33,21.378M29,27.378L30,21.378L36,21.378L37,27.378L29,27.378ZM39.388,50.122C39.388,50.536 39.724,50.872 40.138,50.872C40.552,50.872 40.888,50.536 40.888,50.122C40.888,49.708 40.552,49.372 40.138,49.372C39.724,49.372 39.388,49.708 39.388,50.122M43.15,35.75C45.124,37.888 47.944,39.04 50.85,38.896M24.422,35.75C22.448,37.888 19.628,39.04 16.722,38.896" style="fill:none;stroke:rgb(44,44,44);stroke-width:2px;"/>
                    </g>
                </g>
            </g>
            <g id="g-root-ic_hand_3czsh1mlufb9-stroke" transform="matrix(1,0,0,1,479,614)">
                <g id="ic_hand_3czsh1mlufb9-stroke">
                    <g>
                        <path d="M11,57L11,37M11,41L25,41C28.314,41 31,43.686 31,47L43,47C46.314,47 49,49.686 49,53L11,53L11,41ZM31,47L25,47M38.5,25.5C38.224,25.5 38,25.724 38,26C38,26.276 38.224,26.5 38.5,26.5C38.776,26.5 39,26.276 39,26C39,25.724 38.776,25.5 38.5,25.5M57,26C57,23.239 54.761,21 52,21L36,21C33.239,21 31,23.239 31,26C31,28.761 33.239,31 36,31L52,31C54.761,31 57,28.761 57,26ZM38.5,35.5C38.224,35.5 38,35.724 38,36C38,36.276 38.224,36.5 38.5,36.5C38.776,36.5 39,36.276 39,36C39,35.724 38.776,35.5 38.5,35.5M57,36C57,33.239 54.761,31 52,31L36,31C33.239,31 31,33.239 31,36C31,38.761 33.239,41 36,41L52,41C54.761,41 57,38.761 57,36ZM38.5,15.5C38.224,15.5 38,15.724 38,16C38,16.276 38.224,16.5 38.5,16.5C38.776,16.5 39,16.276 39,16C39,15.724 38.776,15.5 38.5,15.5M57,16C57,13.239 54.761,11 52,11L36,11C33.239,11 31,13.239 31,16C31,18.761 33.239,21 36,21L52,21C54.761,21 57,18.761 57,16Z" style="fill:none;stroke:rgb(44,44,44);stroke-width:2px;"/>
                    </g>
                </g>
            </g>
        </g>
    </g>
</svg>
