<?xml version="1.0" encoding="UTF-8" standalone="no"?>
<!DOCTYPE svg PUBLIC "-//W3C//DTD SVG 1.1//EN" "http://www.w3.org/Graphics/SVG/1.1/DTD/svg11.dtd">
<svg width="100%" height="100%" viewBox="0 0 588 586" version="1.1" xmlns="http://www.w3.org/2000/svg" xmlns:xlink="http://www.w3.org/1999/xlink" xml:space="preserve" xmlns:serif="http://www.serif.com/" style="fill-rule:evenodd;clip-rule:evenodd;stroke-linecap:round;stroke-linejoin:round;">
    <g id="items" transform="matrix(1.07145,0,0,1.07145,-21.0056,-42.2916)">
        <g id="blend">
            <g id="g-root-sy_-1_cu_qwioc11m228ln-fill" transform="matrix(1,0,0,1,14,62)">
                <g id="sy_-1_cu_qwioc11m228ln-fill">
                    <g>
                        <path d="M10,490L10,418L82.5,418L82.5,490L10,490ZM34,394L10,418L82.5,418L106,394L34,394ZM34,394L34,322L106,322L106,394L34,394ZM58,298L34,322L106,322L130,298L58,298ZM58,298L58,226L130,226L130,298L58,298ZM82,202L58,226L130,226L154,202L82,202ZM82,202L82,130L154,130L154,202L82,202ZM106,106L82,130L154,130L178,106L106,106ZM106,106L106,34L178,34L178,106L106,106ZM130,10L106,34L178,34L202,10L130,10Z" style="fill:url(#_Linear1);"/>
                    </g>
                </g>
            </g>
            <g id="g-root-sy_-1_cu_1_8jap1m23n64-fill" transform="matrix(1,0,0,1,362,62)">
                <g id="sy_-1_cu_1_8jap1m23n64-fill">
                    <g>
                        <path d="M202,490L202,418L130.5,418L130.5,490L202,490ZM202,418L178,394L106,394L130.5,418L202,418ZM178,322L178,394L106,394L106,322L178,322ZM178,322L154,298L82,298L106,322L178,322ZM154,226L154,298L82,298L82,226L154,226ZM154,226L130,202L58,202L82,226L154,226ZM130,130L130,202L58,202L58,130L130,130ZM130,130L106,106L34,106L58,130L130,130ZM106,34L106,106L34,106L34,34L106,34ZM106,34L82,10L10,10L34,34L106,34Z" style="fill:url(#_Linear2);"/>
                    </g>
                </g>
            </g>
            <g id="g-root-sy_1_cu_18f21m91m23mz1-fill" transform="matrix(1,0,0,1,86.4998,446)">
                <g id="sy_1_cu_18f21m91m23mz1-fill">
                    <g>
                        <path d="M10,106L10,34L406,34L406,106L10,106ZM381.5,10L406,34L10,34L33.5,10L381.5,10Z" style="fill:url(#_Linear3);"/>
                    </g>
                </g>
            </g>
            <g id="g-root-sy_2_cu_v3lj8x1m23ojy-fill" transform="matrix(1,0,0,1,110,350)">
                <g id="sy_2_cu_v3lj8x1m23ojy-fill">
                    <g>
                        <path d="M10,106L10,34L358,34L358,106L10,106ZM334,10L358,34L10,34L34,10L334,10Z" style="fill:url(#_Linear4);"/>
                    </g>
                </g>
            </g>
            <g id="g-root-sy_3_cu_hsrhyp1m23mz3-fill" transform="matrix(1,0,0,1,134,254)">
                <g id="sy_3_cu_hsrhyp1m23mz3-fill">
                    <g>
                        <path d="M10,34L10,106L310,106L310,34L10,34ZM286,10L310,34L10,34L34,10L286,10Z" style="fill:url(#_Linear5);"/>
                    </g>
                </g>
            </g>
            <g id="g-root-sy_4_cu_8x4hpt1m23ojk-fill" transform="matrix(1,0,0,1,158,158)">
                <g id="sy_4_cu_8x4hpt1m23ojk-fill">
                    <g>
                        <path d="M10,106L10,34L262,34L262,106L10,106ZM238,10L262,34L10,34L34,10L238,10Z" style="fill:url(#_Linear6);"/>
                    </g>
                </g>
            </g>
            <g id="g-root-sy_5_cu_1lrri5t1m23nk9-fill" transform="matrix(1,0,0,1,182,62)">
                <g id="sy_5_cu_1lrri5t1m23nk9-fill">
                    <g>
                        <path d="M10,106L10,34L214,34L214,106L10,106ZM190,10L214,34L10,34L34,10L190,10Z" style="fill:url(#_Linear7);"/>
                    </g>
                </g>
            </g>
            <g transform="matrix(1,0,0,1,208.57,144)">
                <g id="g-root-tx_monitoro_6ha5t1m23or3-fill">
                    <g id="tx_monitoro_6ha5t1m23or3-fill">
                        <g>
                            <g>
                                <text x="0px" y="0px" style="font-family:'ArialMT', 'Arial', sans-serif;font-size:20px;fill:rgb(244,244,244);">Monitor &amp; Optimize</text>
                            </g>
                        </g>
                    </g>
                </g>
            </g>
            <g transform="matrix(1,0,0,1,202.06,240)">
                <g id="g-root-tx_billinga_zoeu291m23nye-fill">
                    <g id="tx_billinga_zoeu291m23nye-fill">
                        <g>
                            <g>
                                <text x="0px" y="0px" style="font-family:'ArialMT', 'Arial', sans-serif;font-size:20px;fill:rgb(244,244,244);">Billing and Reporting</text>
                            </g>
                        </g>
                    </g>
                </g>
            </g>
            <g transform="matrix(1,0,0,1,194.13,336)">
                <g id="g-root-tx_voicecal_1uqivu91m23n65-fill">
                    <g id="tx_voicecal_1uqivu91m23n65-fill">
                        <g>
                            <g>
                                <text x="0px" y="0px" style="font-family:'ArialMT', 'Arial', sans-serif;font-size:20px;fill:rgb(244,244,244);">V<tspan x="12.236px 23.359px " y="0px 0px ">oi</tspan>ce Call <tspan x="94.131px 104.131px 115.254px " y="0px 0px 0px ">Ter</tspan>mination</text>
                            </g>
                        </g>
                    </g>
                </g>
            </g>
            <g transform="matrix(1,0,0,1,178.02,432)">
                <g id="g-root-tx_callrout_18i6f1t1m23o5g-fill">
                    <g id="tx_callrout_18i6f1t1m23o5g-fill">
                        <g>
                            <g>
                                <g transform="matrix(20,0,0,20,151.191,0)">
                                </g>
                                <g transform="matrix(20,0,0,20,156.748,0)">
                                </g>
                                <text x="0px" y="0px" style="font-family:'ArialMT', 'Arial', sans-serif;font-size:20px;fill:rgb(244,244,244);">Call Routing Conﬁguration</text>
                            </g>
                        </g>
                    </g>
                </g>
            </g>
            <g transform="matrix(1,0,0,1,206.04,528)">
                <g id="g-root-tx_useracco_detf3l1m23mrn-fill">
                    <g id="tx_useracco_detf3l1m23mrn-fill">
                        <g>
                            <g>
                                <text x="0px" y="0px" style="font-family:'ArialMT', 'Arial', sans-serif;font-size:20px;fill:rgb(244,244,244);">User <tspan x="46.68px 60.02px " y="0px 0px ">Ac</tspan>count Setup</text>
                            </g>
                        </g>
                    </g>
                </g>
            </g>
            <g id="g-root-sy_-1_cu_qwioc11m228ln-stroke" transform="matrix(1,0,0,1,14,62)">
                <g id="sy_-1_cu_qwioc11m228ln-stroke">
                    <g>
                        <path d="M10,490L10,418L82.5,418L82.5,490L10,490ZM10,418L34,394L106,394L82.5,418L10,418ZM34,394L34,322L106,322L106,394L34,394ZM34,322L58,298L130,298L106,322L34,322ZM58,298L58,226L130,226L130,298L58,298ZM58,226L82,202L154,202L130,226L58,226ZM82,202L82,130L154,130L154,202L82,202ZM82,130L106,106L178,106L154,130L82,130ZM106,106L106,34L178,34L178,106L106,106ZM106,34L130,10L202,10L178,34L106,34Z" style="fill:none;stroke:rgb(244,244,244);stroke-width:2px;"/>
                    </g>
                </g>
            </g>
            <g id="g-root-sy_-1_cu_1_8jap1m23n64-stroke" transform="matrix(1,0,0,1,362,62)">
                <g id="sy_-1_cu_1_8jap1m23n64-stroke">
                    <g>
                        <path d="M202,418L202,490L130.5,490L130.5,418L202,418ZM202,418L178,394L106,394L130.5,418L202,418ZM178,322L178,394L106,394L106,322L178,322ZM178,322L154,298L82,298L106,322L178,322ZM154,226L154,298L82,298L82,226L154,226ZM154,226L130,202L58,202L82,226L154,226ZM130,130L130,202L58,202L58,130L130,130ZM130,130L106,106L34,106L58,130L130,130ZM106,106L106,34L34,34L34,106L106,106ZM106,34L82,10L10,10L34,34L106,34Z" style="fill:none;stroke:rgb(244,244,244);stroke-width:2px;"/>
                    </g>
                </g>
            </g>
            <g id="g-root-sy_1_cu_18f21m91m23mz1-stroke" transform="matrix(1,0,0,1,86.4998,446)">
                <g id="sy_1_cu_18f21m91m23mz1-stroke">
                    <g>
                        <path d="M10,34L10,106L406,106L406,34L10,34ZM406,34L381.5,10L33.5,10L10,34L406,34Z" style="fill:none;stroke:rgb(244,244,244);stroke-width:2px;"/>
                    </g>
                </g>
            </g>
            <g id="g-root-sy_2_cu_v3lj8x1m23ojy-stroke" transform="matrix(1,0,0,1,110,350)">
                <g id="sy_2_cu_v3lj8x1m23ojy-stroke">
                    <g>
                        <path d="M10,34L10,106L358,106L358,34L10,34ZM358,34L334,10L34,10L10,34L358,34Z" style="fill:none;stroke:rgb(244,244,244);stroke-width:2px;"/>
                    </g>
                </g>
            </g>
            <g id="g-root-sy_3_cu_hsrhyp1m23mz3-stroke" transform="matrix(1,0,0,1,134,254)">
                <g id="sy_3_cu_hsrhyp1m23mz3-stroke">
                    <g>
                        <path d="M10,106L10,34L310,34L310,106L10,106ZM310,34L286,10L34,10L10,34L310,34Z" style="fill:none;stroke:rgb(244,244,244);stroke-width:2px;"/>
                    </g>
                </g>
            </g>
            <g id="g-root-sy_4_cu_8x4hpt1m23ojk-stroke" transform="matrix(1,0,0,1,158,158)">
                <g id="sy_4_cu_8x4hpt1m23ojk-stroke">
                    <g>
                        <path d="M10,34L10,106L262,106L262,34L10,34ZM262,34L238,10L34,10L10,34L262,34Z" style="fill:none;stroke:rgb(244,244,244);stroke-width:2px;"/>
                    </g>
                </g>
            </g>
            <g id="g-root-sy_5_cu_1lrri5t1m23nk9-stroke" transform="matrix(1,0,0,1,182,62)">
                <g id="sy_5_cu_1lrri5t1m23nk9-stroke">
                    <g>
                        <path d="M10,34L10,106L214,106L214,34L10,34ZM214,34L190,10L34,10L10,34L214,34Z" style="fill:none;stroke:rgb(244,244,244);stroke-width:2px;"/>
                    </g>
                </g>
            </g>
            <g id="g-root-ic_moni_18lxj1t1m1msxt-stroke" transform="matrix(1,0,0,1,494,482)">
                <g id="ic_moni_18lxj1t1m1msxt-stroke">
                    <g>
                        <path d="M39,57L51,57M45,57L45,51M35,33L55,33C55,33 57,33 57,35L57,49C57,49 57,51 55,51L35,51C35,51 33,51 33,49L33,35C33,35 33,33 35,33M31.364,29.384C33.736,29.649 36.13,29.13 38.18,27.906C38.422,27.762 38.589,27.52 38.638,27.244C38.687,26.967 38.613,26.682 38.436,26.464C37.62,25.502 37.052,24.226 36.802,20.53C36.324,13.48 31.57,11 27.484,11C23.398,11 18.644,13.48 18.168,20.53C17.918,24.224 17.35,25.502 16.534,26.464C16.357,26.682 16.283,26.967 16.332,27.244C16.381,27.52 16.548,27.762 16.79,27.906C18.838,29.128 21.23,29.647 23.6,29.384M31.364,29.384L31.364,28.09C31.362,27.71 31.52,27.347 31.8,27.09C32.841,26.242 33.403,24.939 33.304,23.6L33.304,19.728C31.024,19.336 28.959,18.14 27.484,16.358C26.01,18.141 23.946,19.336 21.666,19.728L21.666,23.6C21.569,24.937 22.131,26.237 23.17,27.084C23.45,27.341 23.608,27.704 23.606,28.084L23.606,30.702C23.601,31.297 23.229,31.827 22.672,32.034C17.354,34.004 13.446,35.406 12.434,37.434C11.57,39.168 11.081,41.064 11,43L29,43" style="fill:none;stroke:rgb(244,244,244);stroke-width:2px;"/>
                    </g>
                </g>
            </g>
            <g id="g-root-ic_48px_1hd71dd1m1o6py-stroke" transform="matrix(1,0,0,1,122,98)">
                <g id="ic_48px_1hd71dd1m1o6py-stroke">
                    <g>
                        <path d="M15.072,30.179C15.072,24.482 17.789,19.696 23.011,19.696C28.233,19.696 30.949,24.482 30.949,30.179L30.949,37.273C30.949,42.97 28.105,47.882 23.011,47.882C17.916,47.882 15.072,42.97 15.072,37.273L15.072,30.179ZM53.693,20.121L40.379,20.121L38.988,33.144C39.817,32.315 42.353,30.657 45.865,30.657C49.971,30.657 53.813,33.447 53.427,40.052C53.028,46.894 48.912,47.904 45.529,47.904C41.945,47.904 38.405,45.361 38.073,40.565" style="fill:none;stroke:rgb(244,244,244);stroke-width:2px;"/>
                    </g>
                </g>
            </g>
            <g id="g-root-ic_wave_145hacx1m23pc8-stroke" transform="matrix(1,0,0,1,398,98)">
                <g id="ic_wave_145hacx1m23pc8-stroke">
                    <g>
                        <path d="M15,12L53,12C53,12 57,12 57,16L57,52C57,52 57,56 53,56L15,56C15,56 11,56 11,52L11,16C11,16 11,12 15,12M11,22L57,22M18,16.5C18.276,16.5 18.5,16.724 18.5,17C18.5,17.276 18.276,17.5 18,17.5C17.724,17.5 17.5,17.276 17.5,17C17.5,16.724 17.724,16.5 18,16.5M24,16.5C24.276,16.5 24.5,16.724 24.5,17C24.5,17.276 24.276,17.5 24,17.5C23.724,17.5 23.5,17.276 23.5,17C23.5,16.724 23.724,16.5 24,16.5M30,16.5C30.276,16.5 30.5,16.724 30.5,17C30.5,17.276 30.276,17.5 30,17.5C29.724,17.5 29.5,17.276 29.5,17C29.5,16.724 29.724,16.5 30,16.5M11,39L57,39M22,22L22,56M22,36L24.93,30.142C25.875,28.25 27.817,27.063 29.932,27.083C32.047,27.103 33.965,28.328 34.874,30.238L35.66,31.886C36.529,33.711 38.323,34.917 40.341,35.033C42.359,35.148 44.279,34.154 45.35,32.44C46.357,30.829 48.12,29.846 50.02,29.839C51.919,29.831 53.69,30.799 54.71,32.402L57,36M22,48.186L25.282,44.904C25.943,44.243 26.869,43.917 27.799,44.019C28.728,44.121 29.562,44.639 30.064,45.428L32.522,49.29C33.075,50.159 34.025,50.695 35.055,50.718C36.084,50.741 37.057,50.248 37.648,49.404L39.33,47.004C39.922,46.156 40.901,45.662 41.935,45.689C42.969,45.716 43.921,46.26 44.468,47.138L44.556,47.278C45.102,48.151 46.047,48.694 47.076,48.725C48.105,48.757 49.082,48.273 49.68,47.436C50.235,46.659 51.119,46.184 52.073,46.148C53.027,46.113 53.944,46.521 54.556,47.254L57,50.186" style="fill:none;stroke:rgb(244,244,244);stroke-width:2px;"/>
                    </g>
                </g>
            </g>
            <g id="g-root-ic_48px_18gxn751m1ilu7-stroke" transform="matrix(1,0,0,1,98,194)">
                <g id="ic_48px_18gxn751m1ilu7-stroke">
                    <g>
                        <path d="M15.072,30.179C15.072,24.482 17.789,19.696 23.011,19.696C28.233,19.696 30.949,24.482 30.949,30.179L30.949,37.273C30.949,42.97 28.105,47.882 23.011,47.882C17.916,47.882 15.072,42.97 15.072,37.273L15.072,30.179ZM49.91,47.979L49.91,19.551L36.295,39.738L55.315,39.738" style="fill:none;stroke:rgb(244,244,244);stroke-width:2px;"/>
                    </g>
                </g>
            </g>
            <g id="g-root-ic_text_1cvi3zl1m1zhmv-stroke" transform="matrix(1,0,0,1,422,194)">
                <g id="ic_text_1cvi3zl1m1zhmv-stroke">
                    <g>
                        <path d="M43.5,11.5C45.7,11.5 47.5,13.3 47.5,15.5L47.5,20.7L11.5,20.7L11.5,15.5C11.5,13.3 13.3,11.5 15.5,11.5L43.5,11.5ZM23.5,20.7L23.5,44.3L15.5,44.3C13.3,44.3 11.5,42.5 11.5,40.3L11.5,20.7L23.5,20.7ZM11.5,32.7L23.5,32.7M28.5,44.3L23.5,44.3M23.5,32.7L28.5,32.7M56.5,54.5C56.5,55.7 55.7,56.5 54.5,56.5L36.5,56.5C35.3,56.5 34.5,55.7 34.5,54.5L34.5,32.5C34.5,31.3 35.3,30.5 36.5,30.5L47.7,30.5C48.3,30.5 48.7,30.7 49.1,31.1L55.9,37.9C56.3,38.3 56.5,38.7 56.5,39.3L56.5,54.5ZM44.5,42.5L49.5,42.5M41.5,48.5L49.5,48.5M35.5,20.7L35.5,23.7M47.5,20.7L47.5,23.7" style="fill:none;stroke:rgb(244,244,244);stroke-width:2px;"/>
                    </g>
                </g>
            </g>
            <g id="g-root-ic_48px_1hfp0vl1m1y137-stroke" transform="matrix(1,0,0,1,74,290)">
                <g id="ic_48px_1hfp0vl1m1y137-stroke">
                    <g>
                        <path d="M15.072,30.179C15.072,24.482 17.789,19.695 23.011,19.695C28.233,19.695 30.949,24.482 30.949,30.179L30.949,37.273C30.949,42.969 28.105,47.882 23.011,47.882C17.916,47.882 15.072,42.969 15.072,37.273L15.072,30.179ZM37.121,27.068C37.002,24.659 38.483,19.71 45.065,19.71C51.648,19.71 52.656,24.597 52.428,27.357C52.177,30.4 50.272,33.508 42.201,33.508C49.714,33.508 53.126,35.562 53.126,41.125C53.126,45.933 48.876,47.89 44.992,47.89C42.201,47.866 36.62,46.287 36.62,40.162" style="fill:none;stroke:rgb(244,244,244);stroke-width:2px;"/>
                    </g>
                </g>
            </g>
            <g id="g-root-ic_1_v8li9d1m1pl38-stroke" transform="matrix(1,0,0,1,446,290)">
                <g id="ic_1_v8li9d1m1pl38-stroke">
                    <g>
                        <path d="M33,23C33,29.627 38.373,35 45,35C51.627,35 57,29.627 57,23C57,16.373 51.627,11 45,11C38.373,11 33,16.373 33,23ZM49.242,18.758L40.758,27.242M49.242,27.242L40.758,18.758M31.732,56.638C26.932,51.824 28.634,48.074 31.24,45.468L32.922,43.786C34.597,42.112 37.311,42.112 38.986,43.786L46.266,51.066C46.859,51.66 47.116,52.511 46.949,53.334C46.783,54.157 46.215,54.841 45.438,55.158C36.118,58.967 25.422,56.814 18.302,49.694C11.182,42.574 9.029,31.878 12.838,22.558C13.155,21.781 13.839,21.213 14.662,21.047C15.485,20.88 16.336,21.137 16.93,21.73L24.21,29.01C25.884,30.685 25.884,33.399 24.21,35.074L22.528,36.756C19.928,39.356 16.172,41.064 11.358,36.264" style="fill:none;stroke:rgb(244,244,244);stroke-width:2px;"/>
                    </g>
                </g>
            </g>
            <g id="g-root-ic_48px_zs5y291m1lfcw-stroke" transform="matrix(1,0,0,1,50,386)">
                <g id="ic_48px_zs5y291m1lfcw-stroke">
                    <g>
                        <path d="M15.072,30.179C15.072,24.482 17.789,19.695 23.011,19.695C28.233,19.695 30.949,24.482 30.949,30.179L30.949,37.273C30.949,42.969 28.105,47.882 23.011,47.882C17.916,47.882 15.072,42.969 15.072,37.273L15.072,30.179ZM36.832,27.515C36.832,22.895 40.056,19.695 44.438,19.695C51.707,19.695 54.186,26.789 49.421,33.098L37.33,47.417L53.951,47.417" style="fill:none;stroke:rgb(244,244,244);stroke-width:2px;"/>
                    </g>
                </g>
            </g>
            <g id="g-root-ic_1_qn5tip1m1le6f-stroke" transform="matrix(1,0,0,1,470,386)">
                <g id="ic_1_qn5tip1m1le6f-stroke">
                    <g>
                        <path d="M33.032,19.02L33.032,11.02L41.032,11.02M33.032,11.02L45.032,22.02L45.032,34.966M57.032,19.02L57.032,11.02L49.032,11.02M57.032,11.02L48.662,18.654M31.764,56.658C26.964,51.846 28.666,48.094 31.27,45.488L32.952,43.806C34.628,42.132 37.342,42.132 39.018,43.806L46.296,51.086C46.89,51.679 47.148,52.531 46.982,53.354C46.815,54.177 46.248,54.862 45.47,55.178C36.15,58.987 25.454,56.834 18.334,49.714C11.214,42.594 9.061,31.898 12.87,22.578C13.186,21.8 13.871,21.233 14.694,21.066C15.517,20.9 16.369,21.158 16.962,21.752L24.244,29.034C25.918,30.709 25.918,33.423 24.244,35.098L22.56,36.78C19.96,39.38 16.204,41.088 11.392,36.288" style="fill:none;stroke:rgb(244,244,244);stroke-width:2px;"/>
                    </g>
                </g>
            </g>
            <g id="g-root-ic_48px_1448lo11m1o83m-stroke" transform="matrix(1,0,0,1,26,482)">
                <g id="ic_48px_1448lo11m1o83m-stroke">
                    <g>
                        <path d="M37.842,23.377L46.297,20.184L46.297,47.951M15.072,30.179C15.072,24.482 17.789,19.695 23.011,19.695C28.233,19.695 30.949,24.482 30.949,30.179L30.949,37.273C30.949,42.969 28.105,47.882 23.011,47.882C17.916,47.882 15.072,42.969 15.072,37.273L15.072,30.179Z" style="fill:none;stroke:rgb(244,244,244);stroke-width:2px;"/>
                    </g>
                </g>
            </g>
        </g>
    </g>
    <defs>
        <linearGradient id="_Linear1" x1="0" y1="0" x2="1" y2="0" gradientUnits="userSpaceOnUse" gradientTransform="matrix(10,490,-490,10,0,0)"><stop offset="0" style="stop-color:rgb(149,149,149);stop-opacity:1"/><stop offset="1" style="stop-color:rgb(127,127,127);stop-opacity:1"/></linearGradient>
        <linearGradient id="_Linear2" x1="0" y1="0" x2="1" y2="0" gradientUnits="userSpaceOnUse" gradientTransform="matrix(10,490,-490,10,0,0)"><stop offset="0" style="stop-color:rgb(149,149,149);stop-opacity:1"/><stop offset="1" style="stop-color:rgb(127,127,127);stop-opacity:1"/></linearGradient>
        <linearGradient id="_Linear3" x1="0" y1="0" x2="1" y2="0" gradientUnits="userSpaceOnUse" gradientTransform="matrix(10,106,-106,10,-1.77636e-15,0)"><stop offset="0" style="stop-color:rgb(78,136,230);stop-opacity:1"/><stop offset="1" style="stop-color:rgb(79,126,202);stop-opacity:1"/></linearGradient>
        <linearGradient id="_Linear4" x1="0" y1="0" x2="1" y2="0" gradientUnits="userSpaceOnUse" gradientTransform="matrix(10,106,-106,10,0,0)"><stop offset="0" style="stop-color:rgb(59,196,130);stop-opacity:1"/><stop offset="1" style="stop-color:rgb(68,152,112);stop-opacity:1"/></linearGradient>
        <linearGradient id="_Linear5" x1="0" y1="0" x2="1" y2="0" gradientUnits="userSpaceOnUse" gradientTransform="matrix(10,106,-106,10,0,0)"><stop offset="0" style="stop-color:rgb(145,187,57);stop-opacity:1"/><stop offset="1" style="stop-color:rgb(125,152,68);stop-opacity:1"/></linearGradient>
        <linearGradient id="_Linear6" x1="0" y1="0" x2="1" y2="0" gradientUnits="userSpaceOnUse" gradientTransform="matrix(10,106,-106,10,0,0)"><stop offset="0" style="stop-color:rgb(221,201,22);stop-opacity:1"/><stop offset="1" style="stop-color:rgb(169,156,44);stop-opacity:1"/></linearGradient>
        <linearGradient id="_Linear7" x1="0" y1="0" x2="1" y2="0" gradientUnits="userSpaceOnUse" gradientTransform="matrix(10,106,-106,10,0,0)"><stop offset="0" style="stop-color:rgb(220,131,49);stop-opacity:1"/><stop offset="1" style="stop-color:rgb(176,114,57);stop-opacity:1"/></linearGradient>
    </defs>
</svg>
