<?xml version="1.0" encoding="UTF-8" standalone="no"?>
<!DOCTYPE svg PUBLIC "-//W3C//DTD SVG 1.1//EN" "http://www.w3.org/Graphics/SVG/1.1/DTD/svg11.dtd">
<svg width="100%" height="100%" viewBox="0 0 600 636" version="1.1" xmlns="http://www.w3.org/2000/svg" xmlns:xlink="http://www.w3.org/1999/xlink" xml:space="preserve" xmlns:serif="http://www.serif.com/" style="fill-rule:evenodd;clip-rule:evenodd;stroke-linecap:round;stroke-linejoin:round;">
    <g id="items" transform="matrix(1.23421,0,0,1.23421,-71.2634,-125.963)">
        <g id="blend">
            <g id="g-root-cp_1_sign-1_w5io1mlhs7b-fill" transform="matrix(1,0,0,1,53,146)">
                <g id="cp_1_sign-1_w5io1mlhs7b-fill">
                    <g>
                        <path d="M10,52L28,10L28,94L10,52ZM28,10L225,10L225,94L28,94L28,10Z" style="fill:rgb(79,145,252);"/>
                    </g>
                </g>
            </g>
            <g id="g-root-cp_3_sign-3_1hbco341mlhr7l-fill" transform="matrix(1,0,0,1,65,242)">
                <g id="cp_3_sign-3_1hbco341mlhr7l-fill">
                    <g>
                        <path d="M10,52L28,10L28,94L10,52ZM28,10L213,10L213,94L28,94L28,10Z" style="fill:rgb(166,218,55);"/>
                    </g>
                </g>
            </g>
            <g id="g-root-cp_5_sign-5_13zw5ps1mlhssj-fill" transform="matrix(1,0,0,1,65,338)">
                <g id="cp_5_sign-5_13zw5ps1mlhssj-fill">
                    <g>
                        <path d="M10,52L28,10L28,94L10,52ZM28,10L213,10L213,94L28,94L28,10Z" style="fill:rgb(135,105,253);"/>
                    </g>
                </g>
            </g>
            <g id="g-root-cp_pole_g-pole_htf46o1mlhs0d-fill" transform="matrix(1,0,0,1,266,122)">
                <g id="cp_pole_g-pole_htf46o1mlhs0d-fill">
                    <g>
                        <path d="M31,346L13,346L13,460L31,460L31,459.897L24.55,459.88C24.55,459.88 25.3,453.89 17.74,452.78C25.63,449.53 28.41,454.56 28.41,454.56C28.41,454.56 27.994,447.986 31,442.2L31,346ZM13,22L31,22L31,346L13,346L13,22Z" style="fill:rgb(171,171,171);"/>
                    </g>
                </g>
                <g id="cp_pole_g-pole_htf46o1mlhs0d-fill1" serif:id="cp_pole_g-pole_htf46o1mlhs0d-fill">
                    <g>
                        <rect x="10" y="10" width="24" height="12" style="fill:rgb(171,171,171);"/>
                    </g>
                </g>
            </g>
            <g id="g-root-cp_pole_plant_1uo24mo1mlhrsw-fill" transform="matrix(1,0,0,1,234,547)">
                <g id="cp_pole_plant_1uo24mo1mlhrsw-fill">
                    <g>
                        <path d="M60.393,29.56C60.393,29.56 57.613,24.53 49.723,27.78C54.516,28.484 57.019,30.471 56.533,35.008L10,35.008C10,35.008 17.976,46.521 54.183,46.521C90.39,46.521 97.76,35.008 97.76,35.008L71.483,35.008C68.788,30.384 74.815,23.86 80.883,26.67C78.883,23.56 72.993,22.89 68.553,26C66.693,20.52 67.443,13.77 70.613,10C59.453,14.7 60.393,29.56 60.393,29.56Z" style="fill:rgb(145,187,57);"/>
                    </g>
                </g>
            </g>
            <g id="g-root-cp_2_sign-2_141rkz41mlhrsy-fill" transform="matrix(1,0,0,1,288,182)">
                <g id="cp_2_sign-2_141rkz41mlhrsy-fill">
                    <g>
                        <path d="M10,10L231,10L231,94L10,94L10,10ZM249,52L231,10L231,94L249,52Z" style="fill:rgb(67,221,147);"/>
                    </g>
                </g>
            </g>
            <g id="g-root-cp_4_sign-4_dfh1bk1mlhrt0-fill" transform="matrix(1,0,0,1,288,278)">
                <g id="cp_4_sign-4_dfh1bk1mlhrt0-fill">
                    <g>
                        <path d="M10,10L207,10L207,94L10,94L10,10ZM225,52L207,10L207,94L225,52Z" style="fill:rgb(26,195,251);"/>
                    </g>
                </g>
            </g>
            <g id="g-root-cp_6_sign-6_1q9hkog1mlhtzi-fill" transform="matrix(1,0,0,1,288,374)">
                <g id="cp_6_sign-6_1q9hkog1mlhtzi-fill">
                    <g>
                        <path d="M10,10L231,10L231,94L10,94L10,10ZM249,52L231,10L231,94L249,52Z" style="fill:rgb(247,148,56);"/>
                    </g>
                </g>
            </g>
            <g id="g-root-tx_carrierg_m8m5801mlklxm-fill" transform="matrix(1,0,0,1,125,164)">
                <g id="tx_carrierg_m8m5801mlklxm-fill">
                    <g>
                        <g>
                            <g transform="matrix(1,0,0,1,21.98,34)">
                                <text x="0px" y="0px" style="font-family:'ArialMT', 'Arial', sans-serif;font-size:20px;fill:rgb(44,44,44);">Carrier-Grade</text>
                            </g>
                            <g transform="matrix(1,0,0,1,24.33,58)">
                                <text x="0px" y="0px" style="font-family:'ArialMT', 'Arial', sans-serif;font-size:20px;fill:rgb(44,44,44);">Performance</text>
                            </g>
                        </g>
                    </g>
                </g>
            </g>
            <g id="g-root-tx_maximize_18jgicw1mlotfs-fill" transform="matrix(1,0,0,1,299,200)">
                <g id="tx_maximize_18jgicw1mlotfs-fill">
                    <g>
                        <g>
                            <g transform="matrix(1,0,0,1,12,34)">
                                <g transform="matrix(20,0,0,20,132.256,0)">
                                </g>
                                <g transform="matrix(20,0,0,20,137.812,0)">
                                </g>
                                <text x="0px" y="0px" style="font-family:'ArialMT', 'Arial', sans-serif;font-size:20px;fill:rgb(44,44,44);">Maximized Proﬁt</text>
                            </g>
                            <g transform="matrix(1,0,0,1,12,58)">
                                <text x="0px" y="0px" style="font-family:'ArialMT', 'Arial', sans-serif;font-size:20px;fill:rgb(44,44,44);">Margins</text>
                            </g>
                        </g>
                    </g>
                </g>
            </g>
            <g id="g-root-tx_fastflex_4hc4q81mlm1ok-fill" transform="matrix(1,0,0,1,137,260)">
                <g id="tx_fastflex_4hc4q81mlm1ok-fill">
                    <g>
                        <g>
                            <g transform="matrix(1,0,0,1,12.63,34)">
                                <text x="0px" y="0px" style="font-family:'ArialMT', 'Arial', sans-serif;font-size:20px;fill:rgb(44,44,44);">Fast, Flexible</text>
                            </g>
                            <g transform="matrix(1,0,0,1,76.7,58)">
                                <text x="0px" y="0px" style="font-family:'ArialMT', 'Arial', sans-serif;font-size:20px;fill:rgb(44,44,44);">Setup</text>
                            </g>
                        </g>
                    </g>
                </g>
            </g>
            <g id="g-root-tx_globalre_1cvj5yo1mlrm6i-fill" transform="matrix(1,0,0,1,299,296)">
                <g id="tx_globalre_1cvj5yo1mlrm6i-fill">
                    <g>
                        <g>
                            <g transform="matrix(1,0,0,1,12,34)">
                                <text x="0px" y="0px" style="font-family:'ArialMT', 'Arial', sans-serif;font-size:20px;fill:rgb(44,44,44);">Global Reach,</text>
                            </g>
                            <g transform="matrix(1,0,0,1,12,58)">
                                <text x="0px" y="0px" style="font-family:'ArialMT', 'Arial', sans-serif;font-size:20px;fill:rgb(44,44,44);">Local Support</text>
                            </g>
                        </g>
                    </g>
                </g>
            </g>
            <g id="g-root-tx_datadriv_1ursz5c1mlnf2m-fill" transform="matrix(1,0,0,1,137,356)">
                <g id="tx_datadriv_1ursz5c1mlnf2m-fill">
                    <g>
                        <g>
                            <g transform="matrix(1,0,0,1,25.02,34)">
                                <text x="0px" y="0px" style="font-family:'ArialMT', 'Arial', sans-serif;font-size:20px;fill:rgb(44,44,44);">Data-Driven</text>
                            </g>
                            <g transform="matrix(1,0,0,1,14.52,58)">
                                <text x="0px" y="0px" style="font-family:'ArialMT', 'Arial', sans-serif;font-size:20px;fill:rgb(44,44,44);">Optimization</text>
                            </g>
                        </g>
                    </g>
                </g>
            </g>
            <g id="g-root-tx_expertsu_18nttyo1mlrmrw-fill" transform="matrix(1,0,0,1,299,392)">
                <g id="tx_expertsu_18nttyo1mlrmrw-fill">
                    <g>
                        <g>
                            <g transform="matrix(1,0,0,1,12,34)">
                                <text x="0px" y="0px" style="font-family:'ArialMT', 'Arial', sans-serif;font-size:20px;fill:rgb(44,44,44);">Expert Support,</text>
                            </g>
                            <g transform="matrix(1,0,0,1,12,58)">
                                <text x="0px" y="0px" style="font-family:'ArialMT', 'Arial', sans-serif;font-size:20px;fill:rgb(44,44,44);">Always On</text>
                            </g>
                        </g>
                    </g>
                </g>
            </g>
            <g id="g-root-cp_1_sign-1_w5io1mlhs7b-stroke" transform="matrix(1,0,0,1,53,146)">
                <g id="cp_1_sign-1_w5io1mlhs7b-stroke">
                    <g>
                        <path d="M28,10L225,10M225,94L28,94M28,94L10,52L28,10" style="fill:none;stroke:rgb(44,44,44);stroke-width:2px;"/>
                    </g>
                </g>
            </g>
            <g id="g-root-cp_3_sign-3_1hbco341mlhr7l-stroke" transform="matrix(1,0,0,1,65,242)">
                <g id="cp_3_sign-3_1hbco341mlhr7l-stroke">
                    <g>
                        <path d="M28,10L213,10M213,94L28,94M28,94L10,52L28,10" style="fill:none;stroke:rgb(44,44,44);stroke-width:2px;"/>
                    </g>
                </g>
            </g>
            <g id="g-root-cp_5_sign-5_13zw5ps1mlhssj-stroke" transform="matrix(1,0,0,1,65,338)">
                <g id="cp_5_sign-5_13zw5ps1mlhssj-stroke">
                    <g>
                        <path d="M28,10L213,10M213,94L28,94M28,94L10,52L28,10" style="fill:none;stroke:rgb(44,44,44);stroke-width:2px;"/>
                    </g>
                </g>
            </g>
            <g id="g-root-cp_pole_g-pole_htf46o1mlhs0d-stroke" transform="matrix(1,0,0,1,266,122)">
                <g id="cp_pole_g-pole_htf46o1mlhs0d-stroke">
                    <g>
                        <path d="M31,442L31,346M13,459L13,346M31,346L31,22M13,346L13,22" style="fill:none;stroke:rgb(44,44,44);stroke-width:2px;"/>
                    </g>
                </g>
                <g id="cp_pole_g-pole_htf46o1mlhs0d-stroke1" serif:id="cp_pole_g-pole_htf46o1mlhs0d-stroke">
                    <g>
                        <rect x="10" y="10" width="24" height="12" style="fill:none;stroke:rgb(44,44,44);stroke-width:2px;"/>
                    </g>
                </g>
            </g>
            <g id="g-root-cp_pole_plant_1uo24mo1mlhrsw-stroke" transform="matrix(1,0,0,1,234,547)">
                <g id="cp_pole_plant_1uo24mo1mlhrsw-stroke">
                    <g>
                        <path d="M56.55,34.88C56.55,34.88 57.3,28.89 49.74,27.78C57.63,24.53 60.41,29.56 60.41,29.56C60.41,29.56 59.47,14.7 70.63,10C67.46,13.77 66.71,20.52 68.57,26C73.01,22.89 78.9,23.56 80.9,26.67C76.68,24.44 69.89,28.468 71,34.918M71,34.918L98,34.918M10,34.918L56.5,34.918" style="fill:none;stroke:rgb(44,44,44);stroke-width:2px;"/>
                    </g>
                </g>
            </g>
            <g id="g-root-cp_2_sign-2_141rkz41mlhrsy-stroke" transform="matrix(1,0,0,1,288,182)">
                <g id="cp_2_sign-2_141rkz41mlhrsy-stroke">
                    <g>
                        <path d="M231,94L10,94M10,10L231,10M231,10L249,52L231,94" style="fill:none;stroke:rgb(44,44,44);stroke-width:2px;"/>
                    </g>
                </g>
            </g>
            <g id="g-root-cp_4_sign-4_dfh1bk1mlhrt0-stroke" transform="matrix(1,0,0,1,288,278)">
                <g id="cp_4_sign-4_dfh1bk1mlhrt0-stroke">
                    <g>
                        <path d="M207,94L10,94M10,10L207,10M207,10L225,52L207,94" style="fill:none;stroke:rgb(44,44,44);stroke-width:2px;"/>
                    </g>
                </g>
            </g>
            <g id="g-root-cp_6_sign-6_1q9hkog1mlhtzi-stroke" transform="matrix(1,0,0,1,288,374)">
                <g id="cp_6_sign-6_1q9hkog1mlhtzi-stroke">
                    <g>
                        <path d="M231,94L10,94M10,10L231,10M231,10L249,52L231,94" style="fill:none;stroke:rgb(44,44,44);stroke-width:2px;"/>
                    </g>
                </g>
            </g>
            <g id="g-root-ic_plan_4lpgc01mlhrm1-stroke" transform="matrix(1,0,0,1,77,170)">
                <g id="ic_plan_4lpgc01mlhrm1-stroke">
                    <g>
                        <path d="M13.75,45.25L42.25,45.25M22.75,22.75L33.25,22.75M16.445,45.25L26.5,21.25L28,17.5L29.5,21.25L39.578,45.25M24.497,26.029L34.853,34L16.759,44.5M31.504,26.025L21.161,34L39.264,44.5M31.494,15.078C32.846,13.19 35.279,12.415 37.474,13.173M24.507,15.078C23.154,13.19 20.721,12.415 18.526,13.173M28,14.5L28,10.75" style="fill:none;stroke:rgb(44,44,44);stroke-width:2px;"/>
                    </g>
                </g>
            </g>
            <g id="g-root-ic_grap_8duk01mlndhr-stroke" transform="matrix(1,0,0,1,467,206)">
                <g id="ic_grap_8duk01mlndhr-stroke">
                    <g>
                        <path d="M44.875,20.575L29.725,33.325L25.525,28.375L11.125,39.775M14.875,44.275L14.875,36.801M14.875,32.125L14.875,18.775M22.375,24.775L22.375,11.125M29.875,25.375L29.875,15.775M37.375,15.775L37.375,11.125M22.375,38.575L22.375,30.906M29.875,40.375L29.875,33.227M37.375,44.875L37.375,26.875M38.125,20.575L44.875,20.575L44.875,26.875" style="fill:none;stroke:rgb(44,44,44);stroke-width:2px;"/>
                    </g>
                </g>
            </g>
            <g id="g-root-ic_cont_qqb2ls1mlkk5n-stroke" transform="matrix(1,0,0,1,89,266)">
                <g id="ic_cont_qqb2ls1mlkk5n-stroke">
                    <g>
                        <path d="M11.125,41.575C11.125,32.275 18.658,24.775 28,24.775C37.342,24.775 44.875,32.275 44.875,41.575M28,44.275C29.243,44.275 30.25,43.268 30.25,42.025C30.25,40.782 29.243,39.775 28,39.775C26.757,39.775 25.75,40.782 25.75,42.025C25.75,43.268 26.757,44.275 28,44.275ZM23.725,30.325L27.175,39.925M32.275,30.325L31.525,32.425M38.8,35.875L36.55,37.225M17.2,35.875L19.45,37.225M40.3,44.125L38.05,43.825M15.7,44.125L17.95,43.825M17.2,11.725L20.593,20.297M16,18.925L20.5,20.425L22.9,16.225" style="fill:none;stroke:rgb(44,44,44);stroke-width:2px;"/>
                    </g>
                </g>
            </g>
            <g id="g-root-ic_up_18lbxm81mlosg1-stroke" transform="matrix(1,0,0,1,443,302)">
                <g id="ic_up_18lbxm81mlosg1-stroke">
                    <g>
                        <path d="M18.073,24.343C18.077,17.264 23.515,11.375 30.571,10.807C37.627,10.238 43.937,15.182 45.074,22.169C46.21,29.156 41.793,35.845 34.921,37.543M31.661,10.75C28.619,13.569 26.682,17.382 26.2,21.502M31.661,10.75C35.411,14.258 37.473,19.206 37.324,24.339C37.344,27.067 36.788,29.769 35.692,32.268M18.847,19.813L44.472,19.813M31.906,28.872L44.476,28.872M29.411,39.193C30.247,39.193 30.925,39.871 30.925,40.706C30.925,41.542 30.247,42.22 29.411,42.22L28.404,42.22C28.955,42.203 29.473,42.487 29.754,42.962C30.035,43.437 30.035,44.028 29.754,44.503C29.473,44.978 28.955,45.263 28.404,45.245L21.85,45.245C17.815,45.245 18.823,43.228 10.75,43.228L10.75,34.15L13.777,34.15C18.048,33.908 21.376,30.356 21.341,26.078C21.341,24.484 24.369,24.279 24.369,27.308C24.214,29.28 23.876,31.232 23.359,33.14L31.429,33.14C32.265,33.14 32.942,33.818 32.942,34.654C32.942,35.49 32.265,36.167 31.429,36.167L30.421,36.167C30.973,36.15 31.49,36.435 31.771,36.91C32.052,37.385 32.052,37.976 31.771,38.451C31.49,38.926 30.973,39.21 30.421,39.193L29.411,39.193" style="fill:none;stroke:rgb(44,44,44);stroke-width:2px;"/>
                    </g>
                </g>
            </g>
            <g id="g-root-ic_grap_1hdukfk1mllzph-stroke" transform="matrix(1,0,0,1,89,362)">
                <g id="ic_grap_1hdukfk1mllzph-stroke">
                    <g>
                        <path d="M13.735,25.165C13.675,24.667 13.645,24.166 13.645,23.665C13.639,18.257 17.476,13.608 22.787,12.589C28.099,11.57 33.384,14.469 35.38,19.495M32.875,31.63L36.13,34.885M44.5,40.285C45.102,40.846 45.35,41.691 45.146,42.488C44.943,43.285 44.32,43.908 43.523,44.111C42.726,44.315 41.881,44.067 41.32,43.465L35.5,37.63C35.216,37.348 35.056,36.965 35.056,36.565C35.056,36.165 35.216,35.782 35.5,35.5L36.565,34.435C36.847,34.151 37.23,33.991 37.63,33.991C38.03,33.991 38.413,34.151 38.695,34.435L44.5,40.285ZM37.015,11.875L43.015,11.875L43.015,17.875M36.16,24.34C35.856,29.441 32.158,33.698 27.15,34.712C22.141,35.726 17.078,33.241 14.815,28.66M43,11.875L29.65,25.24C29.065,25.822 28.12,25.822 27.535,25.24L23.95,21.64C23.365,21.058 22.42,21.058 21.835,21.64L10.825,32.65" style="fill:none;stroke:rgb(44,44,44);stroke-width:2px;"/>
                    </g>
                </g>
            </g>
            <g id="g-root-ic_serv_1uo24mo1mlrlzf-stroke" transform="matrix(1,0,0,1,467,398)">
                <g id="ic_serv_1uo24mo1mlrlzf-stroke">
                    <g>
                        <path d="M11.5,23.502L16,30.252L21.25,24.252M16.048,30.157C14.645,22.529 19.388,15.117 26.902,13.195C34.416,11.273 42.135,15.497 44.568,22.861C47.001,30.226 43.316,38.216 36.136,41.148C28.956,44.08 20.731,40.952 17.314,33.99M25.75,33.25L34.75,33.25M37.75,36.25C36.093,36.25 34.75,34.907 34.75,33.25C34.75,31.593 36.093,30.25 37.75,30.25M22.75,30.25C24.407,30.25 25.75,31.593 25.75,33.25C25.75,34.907 24.407,36.25 22.75,36.25M23.757,21.25C24.05,20.356 24.883,19.752 25.824,19.75C26.402,19.75 26.956,19.981 27.365,20.391C27.773,20.8 28.002,21.356 28,21.934C28.001,22.46 27.792,22.964 27.42,23.335L23.5,27.25L28,27.25M35.503,27.241L35.503,25.741M35.5,25.741L35.5,19.75C33.136,20.915 31.471,23.139 31.02,25.735L35.5,25.735" style="fill:none;stroke:rgb(44,44,44);stroke-width:2px;"/>
                    </g>
                </g>
            </g>
        </g>
    </g>
</svg>
