<?xml version="1.0" encoding="UTF-8" standalone="no"?>
<!DOCTYPE svg PUBLIC "-//W3C//DTD SVG 1.1//EN" "http://www.w3.org/Graphics/SVG/1.1/DTD/svg11.dtd">
<svg width="100%" height="100%" viewBox="0 0 576 827" version="1.1" xmlns="http://www.w3.org/2000/svg" xmlns:xlink="http://www.w3.org/1999/xlink" xml:space="preserve" xmlns:serif="http://www.serif.com/" style="fill-rule:evenodd;clip-rule:evenodd;stroke-linecap:round;stroke-linejoin:round;">
    <g id="items" transform="matrix(1.09117,0,0,1.09117,-26.2576,-49.8394)">
        <g id="blend">
            <g id="g-root-cp_9_text-9_1lxdosw1mc0f0s-fill" transform="matrix(1,0,0,1,50,134)">
                <g id="cp_9_text-9_1lxdosw1mc0f0s-fill">
                    <g>
                        <rect x="10" y="10" width="228" height="108" style="fill:rgb(183,183,183);"/>
                    </g>
                </g>
            </g>
            <g id="g-root-cp_9_stick-9_18lx6fk1mc0glq-fill" transform="matrix(1,0,0,1,272,242)">
                <g id="cp_9_stick-9_18lx6fk1mc0glq-fill">
                    <g>
                        <rect x="10" y="10" width="5.997" height="468" style="fill:rgb(183,183,183);"/>
                    </g>
                </g>
            </g>
            <g id="g-root-cp_7_text-7_qv9n0w1mc0ft4-fill" transform="matrix(1,0,0,1,44,242)">
                <g id="cp_7_text-7_qv9n0w1mc0ft4-fill">
                    <g>
                        <rect x="10" y="10" width="228" height="108" style="fill:rgb(247,148,56);"/>
                    </g>
                </g>
            </g>
            <g id="g-root-cp_7_stick-7_94m3m81mc0f0i-fill" transform="matrix(1,0,0,1,266,350)">
                <g id="cp_7_stick-7_94m3m81mc0f0i-fill">
                    <g>
                        <rect x="10" y="10" width="5.997" height="360" style="fill:rgb(247,148,56);"/>
                    </g>
                </g>
            </g>
            <g id="g-root-cp_5_text-5_8z3dc1mc0ft8-fill" transform="matrix(1,0,0,1,38,350)">
                <g id="cp_5_text-5_8z3dc1mc0ft8-fill">
                    <g>
                        <rect x="10" y="10" width="228" height="108" style="fill:rgb(243,102,187);"/>
                    </g>
                </g>
            </g>
            <g id="g-root-cp_5_stick-5_1lymmz41mc0h72-fill" transform="matrix(1,0,0,1,260,458)">
                <g id="cp_5_stick-5_1lymmz41mc0h72-fill">
                    <g>
                        <rect x="10" y="10" width="5.997" height="252" style="fill:rgb(243,102,187);"/>
                    </g>
                </g>
            </g>
            <g id="g-root-cp_3_text-3_1d3m3tc1mc0fls-fill" transform="matrix(1,0,0,1,32,458)">
                <g id="cp_3_text-3_1d3m3tc1mc0fls-fill">
                    <g>
                        <rect x="10" y="10" width="228" height="108" style="fill:rgb(26,195,251);"/>
                    </g>
                </g>
            </g>
            <g id="g-root-cp_3_stick-3_zs5lg01mc0h6q-fill" transform="matrix(1,0,0,1,254,566)">
                <g id="cp_3_stick-3_zs5lg01mc0h6q-fill">
                    <g>
                        <rect x="10" y="10" width="5.997" height="144" style="fill:rgb(26,195,251);"/>
                    </g>
                </g>
            </g>
            <g id="g-root-cp_1_text-1_qwil741mc0hzg-fill" transform="matrix(1,0,0,1,26,566)">
                <g id="cp_1_text-1_qwil741mc0hzg-fill">
                    <g>
                        <rect x="10" y="10" width="228" height="108" style="fill:rgb(67,221,147);"/>
                    </g>
                </g>
            </g>
            <g id="g-root-cp_1_stick-1_dboyj41mc1uz2-fill" transform="matrix(1,0,0,1,247.997,650)">
                <g id="cp_1_stick-1_dboyj41mc1uz2-fill">
                    <g>
                        <rect x="10.003" y="10" width="5.997" height="60" style="fill:rgb(67,221,147);"/>
                    </g>
                </g>
            </g>
            <g id="g-root-cp_10_text-10_4g1ya81mc1wjk-fill" transform="matrix(1,0,0,1,278,50)">
                <g id="cp_10_text-10_4g1ya81mc1wjk-fill">
                    <g>
                        <rect x="10" y="10" width="228" height="132" style="fill:rgb(203,104,249);"/>
                    </g>
                </g>
            </g>
            <g id="g-root-cp_10_stick-10_1q6byz41mc1urm-fill" transform="matrix(1,0,0,1,278.003,182)">
                <g id="cp_10_stick-10_1q6byz41mc1urm-fill">
                    <g>
                        <rect x="10" y="10" width="5.997" height="528" style="fill:rgb(203,104,249);"/>
                    </g>
                </g>
            </g>
            <g id="g-root-cp_8_text-8_1cuvgls1mc1wck-fill" transform="matrix(1,0,0,1,284,182)">
                <g id="cp_8_text-8_1cuvgls1mc1wck-fill">
                    <g>
                        <rect x="10" y="10" width="228" height="108" style="fill:rgb(255,231,17);"/>
                    </g>
                </g>
            </g>
            <g id="g-root-cp_8_stick-8_zk1fbk1mc1urq-fill" transform="matrix(1,0,0,1,284.003,290)">
                <g id="cp_8_stick-8_zk1fbk1mc1urq-fill">
                    <g>
                        <rect x="10" y="10" width="5.997" height="420" style="fill:rgb(255,231,17);"/>
                    </g>
                </g>
            </g>
            <g id="g-root-cp_6_text-6_v47x741mc1vk0-fill" transform="matrix(1,0,0,1,290,290)">
                <g id="cp_6_text-6_v47x741mc1vk0-fill">
                    <g>
                        <rect x="10" y="10" width="228" height="108" style="fill:rgb(251,103,98);"/>
                    </g>
                </g>
            </g>
            <g id="g-root-cp_6_stick-6_htdvww1mc1tz6-fill" transform="matrix(1,0,0,1,290.003,398)">
                <g id="cp_6_stick-6_htdvww1mc1tz6-fill">
                    <g>
                        <rect x="10" y="10" width="5.997" height="312" style="fill:rgb(251,103,98);"/>
                    </g>
                </g>
            </g>
            <g id="g-root-cp_4_text-4_4hxdjk1mc1vk4-fill" transform="matrix(1,0,0,1,296,398)">
                <g id="cp_4_text-4_4hxdjk1mc1vk4-fill">
                    <g>
                        <rect x="10" y="10" width="228" height="132" style="fill:rgb(135,105,253);"/>
                    </g>
                </g>
            </g>
            <g id="g-root-cp_4_stick-4_1unef9s1mc1w5q-fill" transform="matrix(1,0,0,1,296.003,530)">
                <g id="cp_4_stick-4_1unef9s1mc1w5q-fill">
                    <g>
                        <rect x="10" y="10" width="5.997" height="180" style="fill:rgb(135,105,253);"/>
                    </g>
                </g>
            </g>
            <g id="g-root-cp_2_text-2_1lsdw401mc1ukg-fill" transform="matrix(1,0,0,1,302,530)">
                <g id="cp_2_text-2_1lsdw401mc1ukg-fill">
                    <g>
                        <rect x="10" y="10" width="228" height="132" style="fill:rgb(166,218,55);"/>
                    </g>
                </g>
            </g>
            <g id="g-root-cp_2_stick-2_1cwqvv41mc1vd6-fill" transform="matrix(1,0,0,1,302.003,613)">
                <g id="cp_2_stick-2_1cwqvv41mc1vd6-fill">
                    <g>
                        <rect x="10" y="10" width="5.997" height="97" style="fill:rgb(166,218,55);"/>
                    </g>
                </g>
            </g>
            <g id="g-root-cp_0_g-0_zlwukw1mc1tsc-fill" transform="matrix(1,0,0,1,248,710)">
                <g id="cp_0_g-0_zlwukw1mc1tsc-fill">
                    <g>
                        <path d="M30,58L40.001,82.001L50.001,58L30,58Z" style="fill:rgb(232,232,232);"/>
                    </g>
                </g>
                <g id="cp_0_g-0_zlwukw1mc1tsc-fill1" serif:id="cp_0_g-0_zlwukw1mc1tsc-fill">
                    <g>
                        <path d="M70.001,10L10,10L30,57.999L50.001,57.999L70.001,10Z" style="fill:rgb(232,232,232);"/>
                    </g>
                </g>
            </g>
            <g id="g-root-tx_secureca_qv9q6o1mbnuh9-fill" transform="matrix(1,0,0,1,350,302)">
                <g id="tx_secureca_qv9q6o1mbnuh9-fill">
                    <g>
                        <g>
                            <g transform="matrix(1,0,0,1,12,34)">
                                <text x="0px" y="0px" style="font-family:'Arial-BoldMT', 'Arial', sans-serif;font-weight:700;font-size:20px;fill:rgb(44,44,44);">Secure Call</text>
                            </g>
                            <g transform="matrix(1,0,0,1,12,58)">
                                <text x="0px" y="0px" style="font-family:'Arial-BoldMT', 'Arial', sans-serif;font-weight:700;font-size:20px;fill:rgb(44,44,44);">Authentication</text>
                            </g>
                        </g>
                    </g>
                </g>
            </g>
            <g id="g-root-tx__23vf41mc39qk-fill">
            </g>
            <g id="g-root-tx_dynamicr_1qeg53k1mc38r2-fill" transform="matrix(1,0,0,1,74,362)">
                <g id="tx_dynamicr_1qeg53k1mc38r2-fill">
                    <g>
                        <g>
                            <g transform="matrix(1,0,0,1,61.98,34)">
                                <text x="0px" y="0px" style="font-family:'Arial-BoldMT', 'Arial', sans-serif;font-weight:700;font-size:20px;fill:rgb(44,44,44);">Dynamic</text>
                            </g>
                            <g transform="matrix(1,0,0,1,14.63,58)">
                                <text x="0px" y="0px" style="font-family:'Arial-BoldMT', 'Arial', sans-serif;font-weight:700;font-size:20px;fill:rgb(44,44,44);">Routing Rules</text>
                            </g>
                        </g>
                    </g>
                </g>
            </g>
            <g id="g-root-tx__qn5k281mbnuo3-fill">
            </g>
            <g id="g-root-tx__1uuw7gw1mbnrwm-fill">
            </g>
            <g id="g-root-tx_automati_13zuxg01mc385n-fill" transform="matrix(1,0,0,1,104,254)">
                <g id="tx_automati_13zuxg01mc385n-fill">
                    <g>
                        <g>
                            <g transform="matrix(1,0,0,1,23.18,34)">
                                <text x="0px" y="0px" style="font-family:'Arial-BoldMT', 'Arial', sans-serif;font-weight:700;font-size:20px;fill:rgb(44,44,44);">Automatic</text>
                            </g>
                            <g transform="matrix(1,0,0,1,44.78,58)">
                                <text x="0px" y="0px" style="font-family:'Arial-BoldMT', 'Arial', sans-serif;font-weight:700;font-size:20px;fill:rgb(44,44,44);">Failover</text>
                            </g>
                        </g>
                    </g>
                </g>
            </g>
            <g id="g-root-tx__1ulj3681mbi7m7-fill">
            </g>
            <g id="g-root-tx_carrieri_mcbumo1mbp88w-fill" transform="matrix(1,0,0,1,356,410)">
                <g id="tx_carrieri_mcbumo1mbp88w-fill">
                    <g>
                        <g>
                            <g transform="matrix(1,0,0,1,12,34)">
                                <text x="0px" y="0px" style="font-family:'Arial-BoldMT', 'Arial', sans-serif;font-weight:700;font-size:20px;fill:rgb(44,44,44);">Carrier</text>
                            </g>
                            <g transform="matrix(1,0,0,1,12,58)">
                                <text x="0px" y="0px" style="font-family:'Arial-BoldMT', 'Arial', sans-serif;font-weight:700;font-size:20px;fill:rgb(44,44,44);">Interconnect</text>
                            </g>
                            <g transform="matrix(1,0,0,1,12,82)">
                                <text x="0px" y="0px" style="font-family:'Arial-BoldMT', 'Arial', sans-serif;font-weight:700;font-size:20px;fill:rgb(44,44,44);">Management</text>
                            </g>
                        </g>
                    </g>
                </g>
            </g>
            <g id="g-root-tx_customiz_1ut0s7k1mbmfii-fill" transform="matrix(1,0,0,1,344,194)">
                <g id="tx_customiz_1ut0s7k1mbmfii-fill">
                    <g>
                        <g>
                            <g transform="matrix(1,0,0,1,12,34)">
                                <text x="0px" y="0px" style="font-family:'Arial-BoldMT', 'Arial', sans-serif;font-weight:700;font-size:20px;fill:rgb(44,44,44);">Customizable</text>
                            </g>
                            <g transform="matrix(1,0,0,1,12,58)">
                                <text x="0px" y="0px" style="font-family:'Arial-BoldMT', 'Arial', sans-serif;font-weight:700;font-size:20px;fill:rgb(44,44,44);">Rate Plans</text>
                            </g>
                        </g>
                    </g>
                </g>
            </g>
            <g id="g-root-tx_multipro_1hit80g1mbi6m9-fill" transform="matrix(1,0,0,1,56,470)">
                <g id="tx_multipro_1hit80g1mbi6m9-fill">
                    <g>
                        <g>
                            <g transform="matrix(1,0,0,1,22.07,34)">
                                <text x="0px" y="0px" style="font-family:'Arial-BoldMT', 'Arial', sans-serif;font-weight:700;font-size:20px;fill:rgb(44,44,44);">Multi-Protocol</text>
                            </g>
                            <g transform="matrix(1,0,0,1,80.12,58)">
                                <text x="0px" y="0px" style="font-family:'Arial-BoldMT', 'Arial', sans-serif;font-weight:700;font-size:20px;fill:rgb(44,44,44);">Support</text>
                            </g>
                        </g>
                    </g>
                </g>
            </g>
            <g id="g-root-tx__1hgbbo01mbp6gx-fill">
            </g>
            <g id="g-root-tx__hsrhzk1mbjkzm-fill">
            </g>
            <g id="g-root-tx__v7yrps1mc1tkx-fill">
            </g>
            <g id="g-root-tx__qvw79s1mbl0js-fill">
            </g>
            <g id="g-root-tx_realtime_1cymea81mbqlmr-fill" transform="matrix(1,0,0,1,362,542)">
                <g id="tx_realtime_1cymea81mbqlmr-fill">
                    <g>
                        <g>
                            <g transform="matrix(1,0,0,1,12,34)">
                                <text x="0px" y="0px" style="font-family:'Arial-BoldMT', 'Arial', sans-serif;font-weight:700;font-size:20px;fill:rgb(44,44,44);">Real-T<tspan x="60.762px 66.318px " y="0px 0px ">im</tspan>e</text>
                            </g>
                            <g transform="matrix(1,0,0,1,12,58)">
                                <g transform="matrix(20,0,0,20,30.0195,0)">
                                </g>
                                <g transform="matrix(20,0,0,20,36.4902,0)">
                                </g>
                                <g transform="matrix(20,0,0,20,42.9608,0)">
                                </g>
                                <text x="0px" y="0px" style="font-family:'Arial-BoldMT', 'Arial', sans-serif;font-weight:700;font-size:20px;fill:rgb(44,44,44);">T<tspan x="11.113px 18.896px " y="0px 0px ">ra</tspan>ﬃc</text>
                            </g>
                            <g transform="matrix(1,0,0,1,12,82)">
                                <text x="0px" y="0px" style="font-family:'Arial-BoldMT', 'Arial', sans-serif;font-weight:700;font-size:20px;fill:rgb(44,44,44);">Monitoring</text>
                            </g>
                        </g>
                    </g>
                </g>
            </g>
            <g id="g-root-tx_leastcos_qvw79s1mbjn5w-fill" transform="matrix(1,0,0,1,86,578)">
                <g id="tx_leastcos_qvw79s1mbjn5w-fill">
                    <g>
                        <g>
                            <g transform="matrix(1,0,0,1,20.28,34)">
                                <text x="0px" y="0px" style="font-family:'Arial-BoldMT', 'Arial', sans-serif;font-weight:700;font-size:20px;fill:rgb(44,44,44);">Least Cost</text>
                            </g>
                            <g transform="matrix(1,0,0,1,45.98,58)">
                                <text x="0px" y="0px" style="font-family:'Arial-BoldMT', 'Arial', sans-serif;font-weight:700;font-size:20px;fill:rgb(44,44,44);">Routing</text>
                            </g>
                        </g>
                    </g>
                </g>
            </g>
            <g id="g-root-tx_frauddet_1lu9bdc1mc1tkw-fill" transform="matrix(1,0,0,1,62,146)">
                <g id="tx_frauddet_1lu9bdc1mc1tkw-fill">
                    <g>
                        <g>
                            <g transform="matrix(1,0,0,1,21.8,34)">
                                <text x="0px" y="0px" style="font-family:'Arial-BoldMT', 'Arial', sans-serif;font-weight:700;font-size:20px;fill:rgb(44,44,44);">Fraud Detection</text>
                            </g>
                            <g transform="matrix(1,0,0,1,48.62,58)">
                                <text x="0px" y="0px" style="font-family:'Arial-BoldMT', 'Arial', sans-serif;font-weight:700;font-size:20px;fill:rgb(44,44,44);">&amp; Prevention</text>
                            </g>
                        </g>
                    </g>
                </g>
            </g>
            <g id="g-root-tx__18efkk01mbl1j9-fill">
            </g>
            <g id="g-root-tx__qteaxc1mbqn0k-fill">
            </g>
            <g id="g-root-tx_cloudoro_dj6qq81mbkzyn-fill" transform="matrix(1,0,0,1,338,62)">
                <g id="tx_cloudoro_dj6qq81mbkzyn-fill">
                    <g>
                        <g>
                            <g transform="matrix(1,0,0,1,12,34)">
                                <text x="0px" y="0px" style="font-family:'Arial-BoldMT', 'Arial', sans-serif;font-weight:700;font-size:20px;fill:rgb(44,44,44);">Cloud or On-</text>
                            </g>
                            <g transform="matrix(1,0,0,1,12,58)">
                                <text x="0px" y="0px" style="font-family:'Arial-BoldMT', 'Arial', sans-serif;font-weight:700;font-size:20px;fill:rgb(44,44,44);">Premise</text>
                            </g>
                            <g transform="matrix(1,0,0,1,12,82)">
                                <text x="0px" y="0px" style="font-family:'Arial-BoldMT', 'Arial', sans-serif;font-weight:700;font-size:20px;fill:rgb(44,44,44);">Deployment</text>
                            </g>
                        </g>
                    </g>
                </g>
            </g>
            <g id="g-root-cp_9_text-9_1lxdosw1mc0f0s-stroke" transform="matrix(1,0,0,1,50,134)">
                <g id="cp_9_text-9_1lxdosw1mc0f0s-stroke">
                    <g>
                        <path d="M10,118L10,10L238,10L238,118" style="fill:none;stroke:rgb(44,44,44);stroke-width:2px;"/>
                    </g>
                </g>
            </g>
            <g id="g-root-cp_9_stick-9_18lx6fk1mc0glq-stroke" transform="matrix(1,0,0,1,272,242)">
                <g id="cp_9_stick-9_18lx6fk1mc0glq-stroke">
                    <g>
                        <path d="M15.997,478L15.997,10" style="fill:none;stroke:rgb(44,44,44);stroke-width:2px;"/>
                    </g>
                </g>
            </g>
            <g id="g-root-cp_7_text-7_qv9n0w1mc0ft4-stroke" transform="matrix(1,0,0,1,44,242)">
                <g id="cp_7_text-7_qv9n0w1mc0ft4-stroke">
                    <g>
                        <path d="M10,118L10,10L238,10L238,118" style="fill:none;stroke:rgb(44,44,44);stroke-width:2px;"/>
                    </g>
                </g>
            </g>
            <g id="g-root-cp_7_stick-7_94m3m81mc0f0i-stroke" transform="matrix(1,0,0,1,266,350)">
                <g id="cp_7_stick-7_94m3m81mc0f0i-stroke">
                    <g>
                        <path d="M15.997,370L15.997,10" style="fill:none;stroke:rgb(44,44,44);stroke-width:2px;"/>
                    </g>
                </g>
            </g>
            <g id="g-root-cp_5_text-5_8z3dc1mc0ft8-stroke" transform="matrix(1,0,0,1,38,350)">
                <g id="cp_5_text-5_8z3dc1mc0ft8-stroke">
                    <g>
                        <path d="M10,118L10,10L238,10L238,118" style="fill:none;stroke:rgb(44,44,44);stroke-width:2px;"/>
                    </g>
                </g>
            </g>
            <g id="g-root-cp_5_stick-5_1lymmz41mc0h72-stroke" transform="matrix(1,0,0,1,260,458)">
                <g id="cp_5_stick-5_1lymmz41mc0h72-stroke">
                    <g>
                        <path d="M15.997,262L15.997,10" style="fill:none;stroke:rgb(44,44,44);stroke-width:2px;"/>
                    </g>
                </g>
            </g>
            <g id="g-root-cp_3_text-3_1d3m3tc1mc0fls-stroke" transform="matrix(1,0,0,1,32,458)">
                <g id="cp_3_text-3_1d3m3tc1mc0fls-stroke">
                    <g>
                        <path d="M10,118L10,10L238,10L238,118" style="fill:none;stroke:rgb(44,44,44);stroke-width:2px;"/>
                    </g>
                </g>
            </g>
            <g id="g-root-cp_3_stick-3_zs5lg01mc0h6q-stroke" transform="matrix(1,0,0,1,254,566)">
                <g id="cp_3_stick-3_zs5lg01mc0h6q-stroke">
                    <g>
                        <path d="M15.997,154L15.997,10" style="fill:none;stroke:rgb(44,44,44);stroke-width:2px;"/>
                    </g>
                </g>
            </g>
            <g id="g-root-cp_1_text-1_qwil741mc0hzg-stroke" transform="matrix(1,0,0,1,26,566)">
                <g id="cp_1_text-1_qwil741mc0hzg-stroke">
                    <g>
                        <path d="M238,118L238,10L10,10L10,118L232.5,118" style="fill:none;stroke:rgb(44,44,44);stroke-width:2px;"/>
                    </g>
                </g>
            </g>
            <g id="g-root-cp_1_stick-1_dboyj41mc1uz2-stroke" transform="matrix(1,0,0,1,247.997,650)">
                <g id="cp_1_stick-1_dboyj41mc1uz2-stroke">
                    <g>
                        <path d="M16,70L16,10M10,70L10,33" style="fill:none;stroke:rgb(44,44,44);stroke-width:2px;"/>
                    </g>
                </g>
            </g>
            <g id="g-root-cp_10_text-10_4g1ya81mc1wjk-stroke" transform="matrix(1,0,0,1,278,50)">
                <g id="cp_10_text-10_4g1ya81mc1wjk-stroke">
                    <g>
                        <path d="M238,142L238,10L10,10L10,142" style="fill:none;stroke:rgb(44,44,44);stroke-width:2px;"/>
                    </g>
                </g>
            </g>
            <g id="g-root-cp_10_stick-10_1q6byz41mc1urm-stroke" transform="matrix(1,0,0,1,278.003,182)">
                <g id="cp_10_stick-10_1q6byz41mc1urm-stroke">
                    <g>
                        <path d="M10.001,538L10.001,10" style="fill:none;stroke:rgb(44,44,44);stroke-width:2px;"/>
                    </g>
                </g>
            </g>
            <g id="g-root-cp_8_text-8_1cuvgls1mc1wck-stroke" transform="matrix(1,0,0,1,284,182)">
                <g id="cp_8_text-8_1cuvgls1mc1wck-stroke">
                    <g>
                        <path d="M238,118L238,10L10,10L10,118" style="fill:none;stroke:rgb(44,44,44);stroke-width:2px;"/>
                    </g>
                </g>
            </g>
            <g id="g-root-cp_8_stick-8_zk1fbk1mc1urq-stroke" transform="matrix(1,0,0,1,284.003,290)">
                <g id="cp_8_stick-8_zk1fbk1mc1urq-stroke">
                    <g>
                        <path d="M10.001,430L10.001,10" style="fill:none;stroke:rgb(44,44,44);stroke-width:2px;"/>
                    </g>
                </g>
            </g>
            <g id="g-root-cp_6_text-6_v47x741mc1vk0-stroke" transform="matrix(1,0,0,1,290,290)">
                <g id="cp_6_text-6_v47x741mc1vk0-stroke">
                    <g>
                        <path d="M238,118L238,10L10,10L10,118" style="fill:none;stroke:rgb(44,44,44);stroke-width:2px;"/>
                    </g>
                </g>
            </g>
            <g id="g-root-cp_6_stick-6_htdvww1mc1tz6-stroke" transform="matrix(1,0,0,1,290.003,398)">
                <g id="cp_6_stick-6_htdvww1mc1tz6-stroke">
                    <g>
                        <path d="M10.001,322L10.001,10" style="fill:none;stroke:rgb(44,44,44);stroke-width:2px;"/>
                    </g>
                </g>
            </g>
            <g id="g-root-cp_4_text-4_4hxdjk1mc1vk4-stroke" transform="matrix(1,0,0,1,296,398)">
                <g id="cp_4_text-4_4hxdjk1mc1vk4-stroke">
                    <g>
                        <path d="M238,142L238,10L10,10L10,142" style="fill:none;stroke:rgb(44,44,44);stroke-width:2px;"/>
                    </g>
                </g>
            </g>
            <g id="g-root-cp_4_stick-4_1unef9s1mc1w5q-stroke" transform="matrix(1,0,0,1,296.003,530)">
                <g id="cp_4_stick-4_1unef9s1mc1w5q-stroke">
                    <g>
                        <path d="M10.001,190L10.001,10" style="fill:none;stroke:rgb(44,44,44);stroke-width:2px;"/>
                    </g>
                </g>
            </g>
            <g id="g-root-cp_2_text-2_1lsdw401mc1ukg-stroke" transform="matrix(1,0,0,1,302,530)">
                <g id="cp_2_text-2_1lsdw401mc1ukg-stroke">
                    <g>
                        <path d="M10,142L10,10L238,10L238,142L15.5,142" style="fill:none;stroke:rgb(44,44,44);stroke-width:2px;"/>
                    </g>
                </g>
            </g>
            <g id="g-root-cp_2_stick-2_1cwqvv41mc1vd6-stroke" transform="matrix(1,0,0,1,302.003,613)">
                <g id="cp_2_stick-2_1cwqvv41mc1vd6-stroke">
                    <g>
                        <path d="M10.001,107L10.001,10M15.997,107L15.997,58" style="fill:none;stroke:rgb(44,44,44);stroke-width:2px;"/>
                    </g>
                </g>
            </g>
            <g id="g-root-cp_0_g-0_zlwukw1mc1tsc-stroke" transform="matrix(1,0,0,1,248,710)">
                <g id="cp_0_g-0_zlwukw1mc1tsc-stroke">
                    <g>
                        <path d="M30,58L40.001,82.001L50.001,58L30,58Z" style="fill:none;stroke:rgb(44,44,44);stroke-width:2px;"/>
                    </g>
                </g>
                <g id="cp_0_g-0_zlwukw1mc1tsc-stroke1" serif:id="cp_0_g-0_zlwukw1mc1tsc-stroke">
                    <g>
                        <path d="M70.001,10L10,10L30,57.999L50.001,57.999L70.001,10Z" style="fill:none;stroke:rgb(44,44,44);stroke-width:2px;"/>
                    </g>
                </g>
            </g>
            <g id="g-root-ic_1_v2z26o1mbp79r-stroke" transform="matrix(1,0,0,1,302,302)">
                <g id="ic_1_v2z26o1mbp79r-stroke">
                    <g>
                        <path d="M26.299,44.978C22.699,41.368 23.976,38.556 25.93,36.601L27.192,35.34C28.447,34.084 30.484,34.084 31.74,35.34L37.2,40.8C37.644,41.245 37.837,41.883 37.712,42.501C37.587,43.118 37.162,43.631 36.578,43.869C29.588,46.725 21.566,45.11 16.227,39.77C10.887,34.431 9.272,26.409 12.129,19.418C12.366,18.835 12.879,18.41 13.496,18.285C14.114,18.16 14.752,18.353 15.198,18.798L20.657,24.258C21.913,25.513 21.913,27.55 20.657,28.805L19.396,30.067C17.446,32.017 14.629,33.298 11.019,29.698M33.25,16.751L43.75,16.751C43.75,16.751 45.25,16.751 45.25,18.251L45.25,27.25C45.25,27.25 45.25,28.75 43.75,28.75L33.25,28.75C33.25,28.75 31.75,28.75 31.75,27.25L31.75,18.251C31.75,18.251 31.75,16.751 33.25,16.751M36.625,22.845C36.625,23.88 37.464,24.72 38.5,24.72C39.536,24.72 40.375,23.88 40.375,22.845C40.375,21.809 39.536,20.97 38.5,20.97C37.464,20.97 36.625,21.809 36.625,22.845M42.25,14.5C42.25,12.429 40.571,10.75 38.5,10.75C36.429,10.75 34.75,12.429 34.75,14.5L34.75,16.75L42.25,16.75L42.25,14.5Z" style="fill:none;stroke:rgb(44,44,44);stroke-width:2px;"/>
                    </g>
                </g>
            </g>
            <g id="g-root-ic_west_hsrhzk1mbi7ls-stroke" transform="matrix(1,0,0,1,218,362)">
                <g id="ic_west_hsrhzk1mbi7ls-stroke">
                    <g>
                        <path d="M17.642,21.297C17.642,26.888 22.176,31.422 27.767,31.422C33.359,31.422 37.892,26.888 37.892,21.297C37.892,15.705 33.359,11.172 27.767,11.172C22.176,11.172 17.642,15.705 17.642,21.297M32.525,21.319L23.303,16.943L27.679,26.165L28.816,22.456L32.525,21.319ZM27.679,11.216L27.679,12.989M27.679,29.649L27.679,31.422M37.893,21.319L36.12,21.319M19.415,21.319L17.643,21.319M18.906,44.875L18.906,35.875L24.906,44.875L24.906,35.875M28.094,35.875L29.527,44.473C29.565,44.705 29.766,44.875 30.001,44.875C30.206,44.875 30.389,44.745 30.455,44.551L32.345,39.052C32.382,38.946 32.482,38.875 32.594,38.875C32.706,38.875 32.806,38.946 32.842,39.052L34.732,44.551C34.799,44.745 34.981,44.875 35.187,44.875C35.422,44.875 35.622,44.705 35.661,44.473L37.094,35.875" style="fill:none;stroke:rgb(44,44,44);stroke-width:2px;"/>
                    </g>
                </g>
            </g>
            <g id="g-root-ic_arch_18gxdqo1mc39jh-stroke" transform="matrix(1,0,0,1,224,254)">
                <g id="ic_arch_18gxdqo1mc39jh-stroke">
                    <g>
                        <path d="M22.15,26.5C19.3,31.75 23.05,37 27.85,37C31.6,37 34.6,34 34.6,30.25C34.6,26.5 31.6,23.5 27.85,23.5L27.271,23.5M29.5,21.1L27.25,23.5L28.75,26.5M28,17.261C29.695,17.261 31.068,15.888 31.068,14.193C31.068,12.499 29.695,11.125 28,11.125C26.305,11.125 24.932,12.499 24.932,14.193C24.932,15.888 26.305,17.261 28,17.261ZM14.193,28.614C15.888,28.614 17.261,27.24 17.261,25.545C17.261,23.851 15.888,22.477 14.193,22.477C12.499,22.477 11.125,23.851 11.125,25.545C11.125,27.24 12.499,28.614 14.193,28.614ZM41.807,28.614C43.501,28.614 44.875,27.24 44.875,25.545C44.875,23.851 43.501,22.477 41.807,22.477C40.112,22.477 38.739,23.851 38.739,25.545C38.739,27.24 40.112,28.614 41.807,28.614ZM18.028,44.875C19.723,44.875 21.097,43.501 21.097,41.807C21.097,40.112 19.723,38.739 18.028,38.739C16.334,38.739 14.96,40.112 14.96,41.807C14.96,43.501 16.334,44.875 18.028,44.875ZM37.972,44.875C39.666,44.875 41.04,43.501 41.04,41.807C41.04,40.112 39.666,38.739 37.972,38.739C36.277,38.739 34.903,40.112 34.903,41.807C34.903,43.501 36.277,44.875 37.972,44.875ZM16.592,23.629L25.573,16.059M39.355,23.707L30.433,16.059M14.793,28.557L17.283,38.828M41.061,28.527L38.571,38.799M21.097,41.807L34.903,41.807" style="fill:none;stroke:rgb(44,44,44);stroke-width:2px;"/>
                    </g>
                </g>
            </g>
            <g id="g-root-ic_serv_dik9n41mbp81u-stroke" transform="matrix(1,0,0,1,308,410)">
                <g id="ic_serv_dik9n41mbp81u-stroke">
                    <g>
                        <path d="M28.075,29.875L28.075,44.875M18.625,37.375L21.614,37.375C22.611,37.375 23.275,37.975 23.275,38.875L23.275,44.875M37.375,37.375L34.482,37.375C33.518,37.375 32.875,37.975 32.875,38.875L32.875,44.875M33.625,26.875C33.625,28.525 32.275,29.875 30.625,29.875L25.225,29.875C23.575,29.875 22.375,28.525 22.375,27.025L22.375,13.975C22.375,12.325 23.725,11.125 25.225,11.125L30.775,11.125C32.425,11.125 33.625,12.475 33.625,13.975L33.625,26.875ZM18.625,38.425C18.625,39.325 18.025,39.925 17.125,39.925L12.625,39.925C11.725,39.925 11.125,39.325 11.125,38.425L11.125,30.175C11.125,29.275 11.725,28.675 12.625,28.675L17.125,28.675C18.025,28.675 18.625,29.275 18.625,30.175L18.625,38.425ZM44.875,38.425C44.875,39.325 44.275,39.925 43.375,39.925L38.875,39.925C37.975,39.925 37.375,39.325 37.375,38.425L37.375,30.175C37.375,29.275 37.975,28.675 38.875,28.675L43.375,28.675C44.275,28.675 44.875,29.275 44.875,30.175L44.875,38.425ZM28.075,26.679C28.806,26.679 29.398,26.086 29.398,25.355C29.398,24.625 28.806,24.032 28.075,24.032C27.344,24.032 26.752,24.625 26.752,25.355C26.752,26.086 27.344,26.679 28.075,26.679Z" style="fill:none;stroke:rgb(44,44,44);stroke-width:2px;"/>
                    </g>
                </g>
            </g>
            <g id="g-root-ic_tran_m9tya81mbjmdf-stroke" transform="matrix(1,0,0,1,212,470)">
                <g id="ic_tran_m9tya81mbjmdf-stroke">
                    <g>
                        <path d="M13.797,16.747L25.75,16.747M19.75,13.747L19.75,16.747M23.5,16.75C22.288,21.122 18.872,24.538 14.5,25.75M16,16.75C17.212,21.122 20.628,24.538 25,25.75M31.75,42.25L35.548,32.124C35.658,31.831 35.938,31.638 36.25,31.638C36.562,31.638 36.842,31.831 36.952,32.124L40.75,42.25M32.875,39.247L39.643,39.247M12.25,10.747L27.25,10.747C27.25,10.747 28.75,10.747 28.75,12.247L28.75,27.247C28.75,27.247 28.75,28.747 27.25,28.747L12.25,28.747C12.25,28.747 10.75,28.747 10.75,27.247L10.75,12.247C10.75,12.247 10.75,10.747 12.25,10.747M32.5,27.25L43.75,27.25C44.578,27.25 45.25,27.922 45.25,28.75L45.25,43.75C45.25,44.578 44.578,45.25 43.75,45.25L28.75,45.25C27.922,45.25 27.25,44.578 27.25,43.75L27.25,32.5M19,44.497L22,41.497L19,38.497M13,34C13,38.142 16.358,41.5 20.5,41.5L22,41.5M37,11.497L34,14.497L37,17.497M43,22C43,17.858 39.642,14.5 35.5,14.5L34,14.5" style="fill:none;stroke:rgb(44,44,44);stroke-width:2px;"/>
                    </g>
                </g>
            </g>
            <g id="g-root-ic_meas_v4uhg01mbnsw4-stroke" transform="matrix(1,0,0,1,296,194)">
                <g id="ic_meas_v4uhg01mbnsw4-stroke">
                    <g>
                        <path d="M26.601,28.56C28.998,29.3 31.491,29.687 34,29.709C36.51,29.687 39.003,29.3 41.401,28.559L41.401,28.56C41.484,28.971 45.192,39.838 45.192,39.838C45.351,40.3 45.162,40.811 44.742,41.059C41.457,42.875 37.753,43.795 34,43.727C30.247,43.798 26.542,42.88 23.257,41.065C22.836,40.817 22.647,40.306 22.807,39.844C22.807,39.844 26.515,28.971 26.598,28.56L26.601,28.56ZM26.596,28.56C26.596,28.56 28.044,24.751 28.15,24.25C30.039,24.871 32.012,25.196 34,25.215C35.988,25.196 37.961,24.871 39.85,24.25L39.85,24.25L41.397,28.56M30.879,35.401L29.465,43.328M37.123,35.401L38.536,43.326M18.25,18.25L44.125,18.25C44.746,18.25 45.25,17.746 45.25,17.125L45.25,11.875C45.25,11.254 44.746,10.75 44.125,10.75L18.25,10.75M10.75,16.75L10.75,44.125C10.75,44.746 11.254,45.25 11.875,45.25L17.125,45.25C17.746,45.25 18.25,44.746 18.25,44.125L18.25,10.75L10.75,16.75ZM15.25,26.5L18.25,26.5M15.25,35.5L18.25,35.5M26.5,18.25L26.5,15.25M35.5,18.25L35.5,15.25" style="fill:none;stroke:rgb(44,44,44);stroke-width:2px;"/>
                    </g>
                </g>
            </g>
            <g id="g-root-ic_assi_mfg8281mbqm19-stroke" transform="matrix(1,0,0,1,314,542)">
                <g id="ic_assi_mfg8281mbqm19-stroke">
                    <g>
                        <path d="M35.265,37.525L20.715,37.525C19.665,37.525 18.915,36.775 18.915,35.725L18.915,33.775C18.915,33.325 19.065,32.725 19.515,32.425L21.015,31.225L34.965,31.225L36.465,32.425C36.915,32.725 37.065,33.325 37.065,33.775L37.065,35.725C37.065,36.775 36.315,37.525 35.265,37.525ZM21.09,31.225L21.69,26.425C21.84,25.525 22.59,24.925 23.49,24.925L32.49,24.925C33.39,24.925 34.14,25.525 34.29,26.425L34.89,31.225M33.39,37.525L33.39,40.225M22.59,37.525L22.59,40.225M11.125,44.725L16.525,26.725C16.934,25.336 16.107,24.775 15.025,24.775L11.125,24.775M44.855,44.725L39.455,26.725C39.046,25.336 39.873,24.775 40.955,24.775L44.855,24.775M20.275,11.125C16.375,11.575 13.225,14.575 12.925,18.475M35.705,11.125C39.605,11.575 42.755,14.575 43.055,18.475M16.975,19.525C17.275,17.275 19.075,15.475 21.325,15.175M39.005,19.525C38.705,17.275 36.905,15.475 34.655,15.175" style="fill:none;stroke:rgb(44,44,44);stroke-width:2px;"/>
                    </g>
                </g>
            </g>
            <g id="g-root-ic_1_1ur59sg1mc1u6i-stroke" transform="matrix(1,0,0,1,230,146)">
                <g id="ic_1_1ur59sg1mc1u6i-stroke">
                    <g>
                        <path d="M18.957,21.388L21.85,12.25C22.073,11.623 22.563,11.128 23.186,10.896C23.81,10.664 24.504,10.721 25.083,11.05L26.883,12.079C27.574,12.474 28.423,12.474 29.115,12.079L30.918,11.05C31.496,10.72 32.191,10.663 32.815,10.894C33.44,11.126 33.93,11.622 34.153,12.25L37.043,21.4M13,20.335C22.879,22.531 33.121,22.531 43,20.335M19.885,18.451C25.272,19.159 30.728,19.159 36.115,18.451M20.602,30.435C21.265,34.401 25.92,36.982 28,36.982C30.081,36.982 34.735,34.401 35.398,30.435M26.5,31.732L29.5,31.732M17.208,40.29L14.482,41.189C12.646,41.838 11.25,43.351 10.75,45.232M38.8,40.29L41.526,41.189C43.358,41.84 44.752,43.352 45.25,45.232M37,45.232L37.969,44.341C38.262,44.048 38.262,43.573 37.969,43.281L36.987,42.297C36.816,42.126 36.738,41.885 36.777,41.647C36.815,41.409 36.965,41.205 37.18,41.097L41.067,39.147C41.308,39.026 41.467,38.785 41.481,38.515C41.495,38.245 41.363,37.988 41.135,37.843L36.25,34.732C34.735,39.277 32.243,40.989 28,45.232C23.757,40.989 21.265,39.277 19.75,34.732L14.865,37.849C14.637,37.994 14.505,38.251 14.519,38.521C14.533,38.791 14.692,39.032 14.934,39.153L18.82,41.103C19.035,41.211 19.185,41.415 19.223,41.653C19.262,41.891 19.184,42.132 19.014,42.302L18.031,43.286C17.738,43.579 17.738,44.054 18.031,44.347L19,45.232M25.761,43.045L27.357,40.383C27.492,40.156 27.736,40.018 28,40.018C28.264,40.018 28.508,40.156 28.643,40.383L30.24,43.045M20.61,21.586C19.632,22.904 19.45,24.651 20.135,26.142C20.819,27.634 22.261,28.635 23.898,28.754C25.535,28.873 27.107,28.091 28,26.715C28.893,28.091 30.465,28.873 32.102,28.754C33.739,28.635 35.181,27.634 35.865,26.142C36.55,24.651 36.368,22.904 35.39,21.586" style="fill:none;stroke:rgb(44,44,44);stroke-width:2px;"/>
                    </g>
                </g>
            </g>
            <g id="g-root-ic_stra_4hazm81mbkzye-stroke" transform="matrix(1,0,0,1,206,578)">
                <g id="ic_stra_4hazm81mbkzye-stroke">
                    <g>
                        <path d="M37.75,12.25L42.25,12.25C43.078,12.25 43.75,12.922 43.75,13.75L43.75,42.25C43.75,43.078 43.078,43.75 42.25,43.75L31.75,43.75M27.25,45.25L27.25,37.75L21.25,37.75L21.25,28.75L25.75,28.75L25.75,21.25L30.25,21.25L30.25,10.75M25.75,15.25L30.25,10.75L34.703,15.25M16.75,12.25L16.75,19.75M12.25,24.25L21.25,24.25L21.25,18.25M24.25,33.25L31.75,33.25L31.75,39.25M16.75,28.75L16.75,40.75L22.75,40.75L22.75,43.75L13.75,43.75C12.922,43.75 12.25,43.078 12.25,42.25L12.25,13.75C12.25,12.922 12.922,12.25 13.75,12.25L22.75,12.25M36.25,43.75L36.25,30.25L39.25,30.25M43.75,39.25L40.75,39.25M43.75,34.75L40.75,34.75M43.75,25.75L30.25,25.75L30.25,28.75M34.75,25.75L34.75,18.25L39.25,18.25L39.25,21.25" style="fill:none;stroke:rgb(44,44,44);stroke-width:2px;"/>
                    </g>
                </g>
            </g>
            <g id="g-root-ic_sky_18efkk01mbmex5-stroke" transform="matrix(1,0,0,1,290,62)">
                <g id="ic_sky_18efkk01mbmex5-stroke">
                    <g>
                        <path d="M29.8,17.599C30.104,16.718 29.939,15.744 29.363,15.012C28.786,14.28 27.877,13.892 26.95,13.981C26.195,11.819 23.99,10.518 21.732,10.902C19.475,11.285 17.824,13.242 17.826,15.532C15.443,15.533 13.511,17.465 13.511,19.848C13.511,22.23 15.443,24.162 17.826,24.163L28,24.163C29.586,24.157 30.974,23.094 31.393,21.565C31.813,20.035 31.161,18.413 29.8,17.599ZM40.75,37.414L40.75,45.163L31.75,45.163L31.75,37.414M29.5,39.163L36.25,33.913L43,39.163M10.75,45.163L45.25,45.163M20.5,28.663L22.75,26.413L25,28.663M25,40.663L22.75,42.913L20.5,40.663M22.75,26.413L22.75,30.163M22.75,39.163L22.75,42.913M22.75,33.163L22.75,36.163" style="fill:none;stroke:rgb(44,44,44);stroke-width:2px;"/>
                    </g>
                </g>
            </g>
        </g>
    </g>
</svg>
