<?xml version="1.0" encoding="UTF-8" standalone="no"?>
<!DOCTYPE svg PUBLIC "-//W3C//DTD SVG 1.1//EN" "http://www.w3.org/Graphics/SVG/1.1/DTD/svg11.dtd">
<svg width="100%" height="100%" viewBox="0 0 588 586" version="1.1" xmlns="http://www.w3.org/2000/svg" xmlns:xlink="http://www.w3.org/1999/xlink" xml:space="preserve" xmlns:serif="http://www.serif.com/" style="fill-rule:evenodd;clip-rule:evenodd;stroke-linecap:round;stroke-linejoin:round;">
    <g id="items" transform="matrix(1.05468,0,0,1.05468,-16.0769,-37.0612)">
        <g id="blend">
            <g id="g-root-sy_-1_cu_4l2sr51mbnuof-fill" transform="matrix(1,0,0,1,14,62)">
                <g id="sy_-1_cu_4l2sr51mbnuof-fill">
                    <g>
                        <path d="M10,490L10,418L82.5,418L82.5,490L10,490ZM34,394L10,418L82.5,418L106,394L34,394ZM34,394L34,322L106,322L106,394L34,394ZM58,298L34,322L106,322L130,298L58,298ZM58,298L58,226L130,226L130,298L58,298ZM82,202L58,226L130,226L154,202L82,202ZM82,202L82,130L154,130L154,202L82,202ZM106,106L82,130L154,130L178,106L106,106ZM106,106L106,34L178,34L178,106L106,106ZM130,10L106,34L178,34L202,10L130,10Z" style="fill:url(#_Linear1);"/>
                    </g>
                </g>
            </g>
            <g id="g-root-sy_-1_cu_1_18kpa1d1mbns3s-fill" transform="matrix(1,0,0,1,362,62)">
                <g id="sy_-1_cu_1_18kpa1d1mbns3s-fill">
                    <g>
                        <path d="M202,490L202,418L130.5,418L130.5,490L202,490ZM202,418L178,394L106,394L130.5,418L202,418ZM178,322L178,394L106,394L106,322L178,322ZM178,322L154,298L82,298L106,322L178,322ZM154,226L154,298L82,298L82,226L154,226ZM154,226L130,202L58,202L82,226L154,226ZM130,130L130,202L58,202L58,130L130,130ZM130,130L106,106L34,106L58,130L130,130ZM106,34L106,106L34,106L34,34L106,34ZM106,34L82,10L10,10L34,34L106,34Z" style="fill:url(#_Linear2);"/>
                    </g>
                </g>
            </g>
            <g id="g-root-sy_1_cu_dil89d1mbnsw1-fill" transform="matrix(1,0,0,1,86.4998,446)">
                <g id="sy_1_cu_dil89d1mbnsw1-fill">
                    <g>
                        <path d="M10,106L10,34L406,34L406,106L10,106ZM381.5,10L406,34L10,34L33.5,10L381.5,10Z" style="fill:url(#_Linear3);"/>
                    </g>
                </g>
            </g>
            <g id="g-root-sy_2_cu_1lxeqkx1mbnsoy-fill" transform="matrix(1,0,0,1,110,350)">
                <g id="sy_2_cu_1lxeqkx1mbnsoy-fill">
                    <g>
                        <path d="M10,106L10,34L358,34L358,106L10,106ZM334,10L358,34L10,34L34,10L334,10Z" style="fill:url(#_Linear4);"/>
                    </g>
                </g>
            </g>
            <g id="g-root-sy_3_cu_zqxp1t1mbnrwr-fill" transform="matrix(1,0,0,1,134,254)">
                <g id="sy_3_cu_zqxp1t1mbnrwr-fill">
                    <g>
                        <path d="M10,34L10,106L310,106L310,34L10,34ZM286,10L310,34L10,34L34,10L286,10Z" style="fill:url(#_Linear5);"/>
                    </g>
                </g>
            </g>
            <g id="g-root-sy_4_cu_4otn9t1mbnsp0-fill" transform="matrix(1,0,0,1,158,158)">
                <g id="sy_4_cu_4otn9t1mbnsp0-fill">
                    <g>
                        <path d="M10,106L10,34L262,34L262,106L10,106ZM238,10L262,34L10,34L34,10L238,10Z" style="fill:url(#_Linear6);"/>
                    </g>
                </g>
            </g>
            <g id="g-root-sy_5_cu_1hiu6mp1mbnuvh-fill" transform="matrix(1,0,0,1,182,62)">
                <g id="sy_5_cu_1hiu6mp1mbnuvh-fill">
                    <g>
                        <path d="M10,106L10,34L214,34L214,106L10,106ZM190,10L214,34L10,34L34,10L190,10Z" style="fill:url(#_Linear7);"/>
                    </g>
                </g>
            </g>
            <g transform="matrix(1,0,0,1,221.43,240)">
                <g id="g-root-tx_callterm_zn6uj51mbp822-fill">
                    <g id="tx_callterm_zn6uj51mbp822-fill">
                        <g>
                            <g>
                                <text x="0px" y="0px" style="font-family:'ArialMT', 'Arial', sans-serif;font-size:20px;fill:rgb(244,244,244);">Call <tspan x="39.648px 49.648px 60.771px " y="0px 0px 0px ">Ter</tspan>mination</text>
                            </g>
                        </g>
                    </g>
                </g>
            </g>
            <g transform="matrix(1,0,0,1,234.63,144)">
                <g id="g-root-tx_monitorb_1uqjuhd1mbp9fv-fill">
                    <g id="tx_monitorb_1uqjuhd1mbp9fv-fill">
                        <g>
                            <g>
                                <text x="0px" y="0px" style="font-family:'ArialMT', 'Arial', sans-serif;font-size:20px;fill:rgb(244,244,244);">Monitor &amp; Bill</text>
                            </g>
                        </g>
                    </g>
                </g>
            </g>
            <g transform="matrix(1,0,0,1,213.46,336)">
                <g id="g-root-tx_intellig_v64e8h1mbp6o9-fill">
                    <g id="tx_intellig_v64e8h1mbp6o9-fill">
                        <g>
                            <g>
                                <text x="0px" y="0px" style="font-family:'ArialMT', 'Arial', sans-serif;font-size:20px;fill:rgb(244,244,244);">Intelligent Routing</text>
                            </g>
                        </g>
                    </g>
                </g>
            </g>
            <g transform="matrix(1,0,0,1,190.16,432)">
                <g id="g-root-tx_authenti_24x751mbp8g8-fill">
                    <g id="tx_authenti_24x751mbp8g8-fill">
                        <g>
                            <g>
                                <text x="0px" y="0px" style="font-family:'ArialMT', 'Arial', sans-serif;font-size:20px;fill:rgb(244,244,244);">Authenticate &amp; V<tspan x="147.5px 158.623px " y="0px 0px ">al</tspan>idate</text>
                            </g>
                        </g>
                    </g>
                </g>
            </g>
            <g transform="matrix(1,0,0,1,216.63,528)">
                <g id="g-root-tx_ingestca_18f309d1mbp98v-fill">
                    <g id="tx_ingestca_18f309d1mbp98v-fill">
                        <g>
                            <g>
                                <g transform="matrix(20,0,0,20,128.945,0)">
                                </g>
                                <g transform="matrix(20,0,0,20,134.324,0)">
                                </g>
                                <g transform="matrix(20,0,0,20,139.703,0)">
                                </g>
                                <text x="0px" y="0px" style="font-family:'ArialMT', 'Arial', sans-serif;font-size:20px;fill:rgb(244,244,244);">Ingest Call <tspan x="99.688px 111.162px 117.822px " y="0px 0px 0px ">Tra</tspan>ﬃc</text>
                            </g>
                        </g>
                    </g>
                </g>
            </g>
            <g id="g-root-sy_-1_cu_4l2sr51mbnuof-stroke" transform="matrix(1,0,0,1,14,62)">
                <g id="sy_-1_cu_4l2sr51mbnuof-stroke">
                    <g>
                        <path d="M10,490L10,418L82.5,418L82.5,490L10,490ZM10,418L34,394L106,394L82.5,418L10,418ZM34,394L34,322L106,322L106,394L34,394ZM34,322L58,298L130,298L106,322L34,322ZM58,298L58,226L130,226L130,298L58,298ZM58,226L82,202L154,202L130,226L58,226ZM82,202L82,130L154,130L154,202L82,202ZM82,130L106,106L178,106L154,130L82,130ZM106,106L106,34L178,34L178,106L106,106ZM106,34L130,10L202,10L178,34L106,34Z" style="fill:none;stroke:rgb(244,244,244);stroke-width:2px;"/>
                    </g>
                </g>
            </g>
            <g id="g-root-sy_-1_cu_1_18kpa1d1mbns3s-stroke" transform="matrix(1,0,0,1,362,62)">
                <g id="sy_-1_cu_1_18kpa1d1mbns3s-stroke">
                    <g>
                        <path d="M202,418L202,490L130.5,490L130.5,418L202,418ZM202,418L178,394L106,394L130.5,418L202,418ZM178,322L178,394L106,394L106,322L178,322ZM178,322L154,298L82,298L106,322L178,322ZM154,226L154,298L82,298L82,226L154,226ZM154,226L130,202L58,202L82,226L154,226ZM130,130L130,202L58,202L58,130L130,130ZM130,130L106,106L34,106L58,130L130,130ZM106,106L106,34L34,34L34,106L106,106ZM106,34L82,10L10,10L34,34L106,34Z" style="fill:none;stroke:rgb(244,244,244);stroke-width:2px;"/>
                    </g>
                </g>
            </g>
            <g id="g-root-sy_1_cu_dil89d1mbnsw1-stroke" transform="matrix(1,0,0,1,86.4998,446)">
                <g id="sy_1_cu_dil89d1mbnsw1-stroke">
                    <g>
                        <path d="M10,34L10,106L406,106L406,34L10,34ZM406,34L381.5,10L33.5,10L10,34L406,34Z" style="fill:none;stroke:rgb(244,244,244);stroke-width:2px;"/>
                    </g>
                </g>
            </g>
            <g id="g-root-sy_2_cu_1lxeqkx1mbnsoy-stroke" transform="matrix(1,0,0,1,110,350)">
                <g id="sy_2_cu_1lxeqkx1mbnsoy-stroke">
                    <g>
                        <path d="M10,34L10,106L358,106L358,34L10,34ZM358,34L334,10L34,10L10,34L358,34Z" style="fill:none;stroke:rgb(244,244,244);stroke-width:2px;"/>
                    </g>
                </g>
            </g>
            <g id="g-root-sy_3_cu_zqxp1t1mbnrwr-stroke" transform="matrix(1,0,0,1,134,254)">
                <g id="sy_3_cu_zqxp1t1mbnrwr-stroke">
                    <g>
                        <path d="M10,106L10,34L310,34L310,106L10,106ZM310,34L286,10L34,10L10,34L310,34Z" style="fill:none;stroke:rgb(244,244,244);stroke-width:2px;"/>
                    </g>
                </g>
            </g>
            <g id="g-root-sy_4_cu_4otn9t1mbnsp0-stroke" transform="matrix(1,0,0,1,158,158)">
                <g id="sy_4_cu_4otn9t1mbnsp0-stroke">
                    <g>
                        <path d="M10,34L10,106L262,106L262,34L10,34ZM262,34L238,10L34,10L10,34L262,34Z" style="fill:none;stroke:rgb(244,244,244);stroke-width:2px;"/>
                    </g>
                </g>
            </g>
            <g id="g-root-sy_5_cu_1hiu6mp1mbnuvh-stroke" transform="matrix(1,0,0,1,182,62)">
                <g id="sy_5_cu_1hiu6mp1mbnuvh-stroke">
                    <g>
                        <path d="M10,34L10,106L214,106L214,34L10,34ZM214,34L190,10L34,10L10,34L214,34Z" style="fill:none;stroke:rgb(244,244,244);stroke-width:2px;"/>
                    </g>
                </g>
            </g>
            <g id="g-root-ic_bill_dhyr691mbp9fw-stroke" transform="matrix(1,0,0,1,398,98)">
                <g id="ic_bill_dhyr691mbp9fw-stroke">
                    <g>
                        <path d="M49.138,11L17.256,11C13.942,11 11.256,13.686 11.256,17L11.256,55.978L15.344,51.888L19.434,55.978L24.034,51.378L29.144,56.488M43.966,36.044L43.966,16.172M25.6,22.484L20.966,22.484C19.49,22.475 18.218,23.52 17.939,24.969C17.66,26.418 18.454,27.861 19.828,28.4L24.54,30.284C25.895,30.835 26.671,32.267 26.394,33.703C26.116,35.139 24.863,36.179 23.4,36.186L18.758,36.186M22.184,38.47L22.184,36.186M22.184,22.486L22.184,20.2M31.778,23.374L37.402,23.374M31.778,28.96L37.402,28.96M31.778,34.878L37.402,34.878M56.434,48.42C56.848,48.959 56.848,49.709 56.434,50.248C54.882,52.282 50.622,57 44.478,57C38.334,57 34.078,52.28 32.522,50.246C32.108,49.708 32.108,48.958 32.522,48.42C34.074,46.386 38.334,41.666 44.478,41.666C50.622,41.666 54.884,46.388 56.434,48.42ZM44.478,45.82C46.419,45.82 47.992,47.393 47.992,49.334C47.992,51.275 46.419,52.848 44.478,52.848C42.537,52.848 40.964,51.275 40.964,49.334C40.964,47.393 42.537,45.82 44.478,45.82M43.966,16.172C43.964,14.751 44.547,13.391 45.578,12.413C46.609,11.435 47.997,10.924 49.416,11C52.228,11.249 54.367,13.633 54.31,16.456L54.31,22.972C54.31,24.077 53.415,24.972 52.31,24.972L44.478,24.972" style="fill:none;stroke:rgb(244,244,244);stroke-width:2px;"/>
                    </g>
                </g>
            </g>
            <g id="g-root-ic_48px_4nkp3l1mbtgjz-stroke" transform="matrix(1,0,0,1,98,194)">
                <g id="ic_48px_4nkp3l1mbtgjz-stroke">
                    <g>
                        <path d="M15.072,30.179C15.072,24.482 17.789,19.696 23.011,19.696C28.233,19.696 30.949,24.482 30.949,30.179L30.949,37.273C30.949,42.97 28.105,47.882 23.011,47.882C17.916,47.882 15.072,42.97 15.072,37.273L15.072,30.179ZM49.91,47.979L49.91,19.551L36.295,39.738L55.315,39.738" style="fill:none;stroke:rgb(244,244,244);stroke-width:2px;"/>
                    </g>
                </g>
            </g>
            <g id="g-root-ic_1_145ic5t1mbi70o-stroke" transform="matrix(1,0,0,1,494,482)">
                <g id="ic_1_145ic5t1mbi70o-stroke">
                    <g>
                        <path d="M33.032,19.02L33.032,11.02L41.032,11.02M33.032,11.02L45.032,22.02L45.032,34.966M57.032,19.02L57.032,11.02L49.032,11.02M57.032,11.02L48.662,18.654M31.764,56.658C26.964,51.846 28.666,48.094 31.27,45.488L32.952,43.806C34.628,42.132 37.342,42.132 39.018,43.806L46.296,51.086C46.89,51.679 47.148,52.531 46.982,53.354C46.815,54.177 46.248,54.862 45.47,55.178C36.15,58.987 25.454,56.834 18.334,49.714C11.214,42.594 9.061,31.898 12.87,22.578C13.186,21.8 13.871,21.233 14.694,21.066C15.517,20.9 16.369,21.158 16.962,21.752L24.244,29.034C25.918,30.709 25.918,33.423 24.244,35.098L22.56,36.78C19.96,39.38 16.204,41.088 11.392,36.288" style="fill:none;stroke:rgb(244,244,244);stroke-width:2px;"/>
                    </g>
                </g>
            </g>
            <g id="g-root-ic_48px_40cgh1mc0ft1-stroke" transform="matrix(1,0,0,1,74,290)">
                <g id="ic_48px_40cgh1mc0ft1-stroke">
                    <g>
                        <path d="M15.072,30.179C15.072,24.482 17.789,19.695 23.011,19.695C28.233,19.695 30.949,24.482 30.949,30.179L30.949,37.273C30.949,42.969 28.105,47.882 23.011,47.882C17.916,47.882 15.072,42.969 15.072,37.273L15.072,30.179ZM37.121,27.068C37.002,24.659 38.483,19.71 45.065,19.71C51.648,19.71 52.656,24.597 52.428,27.357C52.177,30.4 50.272,33.508 42.201,33.508C49.714,33.508 53.126,35.562 53.126,41.125C53.126,45.933 48.876,47.89 44.992,47.89C42.201,47.866 36.62,46.287 36.62,40.162" style="fill:none;stroke:rgb(244,244,244);stroke-width:2px;"/>
                    </g>
                </g>
            </g>
            <g id="g-root-ic_dest_4lp9u91mbz0n8-stroke" transform="matrix(1,0,0,1,446,290)">
                <g id="ic_dest_4lp9u91mbz0n8-stroke">
                    <g>
                        <path d="M21.18,24C26.802,24 31.358,28.558 31.356,34.18C31.356,38.844 24.344,48.036 21.956,51.026C21.766,51.265 21.478,51.404 21.173,51.404C20.868,51.404 20.58,51.265 20.39,51.026C18.012,48.034 11,38.844 11,34.18C10.998,28.557 15.557,23.998 21.18,24ZM25,34.18C25,36.288 23.291,37.998 21.183,37.998C19.074,37.998 17.365,36.29 17.364,34.181C17.363,32.073 19.072,30.363 21.18,30.362C22.193,30.361 23.165,30.763 23.882,31.479C24.598,32.195 25.001,33.167 25,34.18ZM21.18,56L37,56C38.105,56 39,55.105 39,54L39,40C39,38.895 39.895,38 41,38L49,38M49,12C53.418,12 57,15.582 57,20C57,23.564 51.8,30.48 49.784,33.028C49.594,33.268 49.306,33.407 49,33.407C48.694,33.407 48.406,33.268 48.216,33.028C46.2,30.482 41,23.564 41,20C41,15.582 44.582,12 49,12ZM46,20C46,21.657 47.343,23 49,23C50.657,23 52,21.657 52,20C52,18.343 50.657,17 49,17C47.343,17 46,18.343 46,20Z" style="fill:none;stroke:rgb(244,244,244);stroke-width:2px;"/>
                    </g>
                </g>
            </g>
            <g id="g-root-ic_48px_8do291mbqnet-stroke" transform="matrix(1,0,0,1,122,98)">
                <g id="ic_48px_8do291mbqnet-stroke">
                    <g>
                        <path d="M15.072,30.179C15.072,24.482 17.789,19.696 23.011,19.696C28.233,19.696 30.949,24.482 30.949,30.179L30.949,37.273C30.949,42.97 28.105,47.882 23.011,47.882C17.916,47.882 15.072,42.97 15.072,37.273L15.072,30.179ZM53.693,20.121L40.379,20.121L38.988,33.144C39.817,32.315 42.353,30.657 45.865,30.657C49.971,30.657 53.813,33.447 53.427,40.052C53.028,46.894 48.912,47.904 45.529,47.904C41.945,47.904 38.405,45.361 38.073,40.565" style="fill:none;stroke:rgb(244,244,244);stroke-width:2px;"/>
                    </g>
                </g>
            </g>
            <g id="g-root-ic_48px_1cy0vtd1mc38r3-stroke" transform="matrix(1,0,0,1,50,386)">
                <g id="ic_48px_1cy0vtd1mc38r3-stroke">
                    <g>
                        <path d="M15.072,30.179C15.072,24.482 17.789,19.695 23.011,19.695C28.233,19.695 30.949,24.482 30.949,30.179L30.949,37.273C30.949,42.969 28.105,47.882 23.011,47.882C17.916,47.882 15.072,42.969 15.072,37.273L15.072,30.179ZM36.832,27.515C36.832,22.895 40.056,19.695 44.438,19.695C51.707,19.695 54.186,26.789 49.421,33.098L37.33,47.417L53.951,47.417" style="fill:none;stroke:rgb(244,244,244);stroke-width:2px;"/>
                    </g>
                </g>
            </g>
            <g id="g-root-ic_1_4l2sr51mc1ukm-stroke" transform="matrix(1,0,0,1,470,386)">
                <g id="ic_1_4l2sr51mc1ukm-stroke">
                    <g>
                        <path d="M29,37L13,37C11.895,37 11,36.105 11,35L11,21C11,19.895 11.895,19 13,19L55,19C56.105,19 57,19.895 57,21L57,31.042M19,24L19,32M22.346,25.806L15.656,30.194M22.328,30.22L15.672,25.78M31,24L31,32M34.346,25.806L27.656,30.194M34.328,30.22L27.672,25.78M33,45C33,51.627 38.373,57 45,57C51.627,57 57,51.627 57,45C57,38.373 51.627,33 45,33C38.373,33 33,38.373 33,45ZM50.348,41.512L44.538,49.258C44.277,49.605 43.878,49.822 43.445,49.853C43.012,49.885 42.586,49.726 42.278,49.42L39.278,46.42" style="fill:none;stroke:rgb(244,244,244);stroke-width:2px;"/>
                    </g>
                </g>
            </g>
            <g id="g-root-ic_48px_mczdht1mbjkll-stroke" transform="matrix(1,0,0,1,26,482)">
                <g id="ic_48px_mczdht1mbjkll-stroke">
                    <g>
                        <path d="M37.842,23.377L46.297,20.184L46.297,47.951M15.072,30.179C15.072,24.482 17.789,19.695 23.011,19.695C28.233,19.695 30.949,24.482 30.949,30.179L30.949,37.273C30.949,42.969 28.105,47.882 23.011,47.882C17.916,47.882 15.072,42.969 15.072,37.273L15.072,30.179Z" style="fill:none;stroke:rgb(244,244,244);stroke-width:2px;"/>
                    </g>
                </g>
            </g>
            <g id="g-root-ic_1_dj7pch1mbs2di-stroke" transform="matrix(1,0,0,1,422,194)">
                <g id="ic_1_dj7pch1mbs2di-stroke">
                    <g>
                        <path d="M33,23C33,29.627 38.373,35 45,35C51.627,35 57,29.627 57,23C57,16.373 51.627,11 45,11C38.373,11 33,16.373 33,23ZM49.242,18.758L40.758,27.242M49.242,27.242L40.758,18.758M31.732,56.638C26.932,51.824 28.634,48.074 31.24,45.468L32.922,43.786C34.597,42.112 37.311,42.112 38.986,43.786L46.266,51.066C46.859,51.66 47.116,52.511 46.949,53.334C46.783,54.157 46.215,54.841 45.438,55.158C36.118,58.967 25.422,56.814 18.302,49.694C11.182,42.574 9.029,31.878 12.838,22.558C13.155,21.781 13.839,21.213 14.662,21.047C15.485,20.88 16.336,21.137 16.93,21.73L24.21,29.01C25.884,30.685 25.884,33.399 24.21,35.074L22.528,36.756C19.928,39.356 16.172,41.064 11.358,36.264" style="fill:none;stroke:rgb(244,244,244);stroke-width:2px;"/>
                    </g>
                </g>
            </g>
        </g>
    </g>
    <defs>
        <linearGradient id="_Linear1" x1="0" y1="0" x2="1" y2="0" gradientUnits="userSpaceOnUse" gradientTransform="matrix(10,490,-490,10,0,0)"><stop offset="0" style="stop-color:rgb(149,149,149);stop-opacity:1"/><stop offset="1" style="stop-color:rgb(127,127,127);stop-opacity:1"/></linearGradient>
        <linearGradient id="_Linear2" x1="0" y1="0" x2="1" y2="0" gradientUnits="userSpaceOnUse" gradientTransform="matrix(10,490,-490,10,0,0)"><stop offset="0" style="stop-color:rgb(149,149,149);stop-opacity:1"/><stop offset="1" style="stop-color:rgb(127,127,127);stop-opacity:1"/></linearGradient>
        <linearGradient id="_Linear3" x1="0" y1="0" x2="1" y2="0" gradientUnits="userSpaceOnUse" gradientTransform="matrix(10,106,-106,10,-1.77636e-15,0)"><stop offset="0" style="stop-color:rgb(78,136,230);stop-opacity:1"/><stop offset="1" style="stop-color:rgb(79,126,202);stop-opacity:1"/></linearGradient>
        <linearGradient id="_Linear4" x1="0" y1="0" x2="1" y2="0" gradientUnits="userSpaceOnUse" gradientTransform="matrix(10,106,-106,10,0,0)"><stop offset="0" style="stop-color:rgb(59,196,130);stop-opacity:1"/><stop offset="1" style="stop-color:rgb(68,152,112);stop-opacity:1"/></linearGradient>
        <linearGradient id="_Linear5" x1="0" y1="0" x2="1" y2="0" gradientUnits="userSpaceOnUse" gradientTransform="matrix(10,106,-106,10,0,0)"><stop offset="0" style="stop-color:rgb(145,187,57);stop-opacity:1"/><stop offset="1" style="stop-color:rgb(125,152,68);stop-opacity:1"/></linearGradient>
        <linearGradient id="_Linear6" x1="0" y1="0" x2="1" y2="0" gradientUnits="userSpaceOnUse" gradientTransform="matrix(10,106,-106,10,0,0)"><stop offset="0" style="stop-color:rgb(31,169,215);stop-opacity:1"/><stop offset="1" style="stop-color:rgb(49,135,163);stop-opacity:1"/></linearGradient>
        <linearGradient id="_Linear7" x1="0" y1="0" x2="1" y2="0" gradientUnits="userSpaceOnUse" gradientTransform="matrix(10,106,-106,10,0,0)"><stop offset="0" style="stop-color:rgb(221,201,22);stop-opacity:1"/><stop offset="1" style="stop-color:rgb(169,156,44);stop-opacity:1"/></linearGradient>
    </defs>
</svg>
