<?xml version="1.0" encoding="UTF-8" standalone="no"?>
<!DOCTYPE svg PUBLIC "-//W3C//DTD SVG 1.1//EN" "http://www.w3.org/Graphics/SVG/1.1/DTD/svg11.dtd">
<svg width="100%" height="100%" viewBox="0 0 600 588" version="1.1" xmlns="http://www.w3.org/2000/svg" xmlns:xlink="http://www.w3.org/1999/xlink" xml:space="preserve" xmlns:serif="http://www.serif.com/" style="fill-rule:evenodd;clip-rule:evenodd;stroke-linecap:round;stroke-linejoin:round;">
    <g id="items" transform="matrix(1.2498,0,0,1.2498,-74.9387,-124.621)">
        <g id="blend">
            <g id="g-root-cp_1_sign-1_zlx76p1mlrmrm-fill" transform="matrix(1,0,0,1,77,146)">
                <g id="cp_1_sign-1_zlx76p1mlrmrm-fill">
                    <g>
                        <path d="M10,52L28,10L28,94L10,52ZM28,10L225,10L225,94L28,94L28,10Z" style="fill:rgb(67,221,147);"/>
                    </g>
                </g>
            </g>
            <g id="g-root-cp_3_sign-3_dfg5nl1mlrlzg-fill" transform="matrix(1,0,0,1,53,242)">
                <g id="cp_3_sign-3_dfg5nl1mlrlzg-fill">
                    <g>
                        <path d="M10,40L28,10L28,70L10,40ZM28,10L249,10L249,70L28,70L28,10Z" style="fill:rgb(247,148,56);"/>
                    </g>
                </g>
            </g>
            <g id="g-root-cp_5_sign-5_8zmnj51mlrmrq-fill" transform="matrix(1,0,0,1,113,314)">
                <g id="cp_5_sign-5_8zmnj51mlrmrq-fill">
                    <g>
                        <path d="M10,52L28,10L28,94L10,52ZM28,10L189,10L189,94L28,94L28,10Z" style="fill:rgb(251,103,98);"/>
                    </g>
                </g>
            </g>
            <g id="g-root-cp_pole_g-pole_1qa363l1mlrls0-fill" transform="matrix(1,0,0,1,290,122)">
                <g id="cp_pole_g-pole_1qa363l1mlrls0-fill">
                    <g>
                        <path d="M31,298L13,298L13,412L31,412L31,411.897L24.55,411.88C24.55,411.88 25.3,405.89 17.74,404.78C25.63,401.53 28.41,406.56 28.41,406.56C28.41,406.56 27.994,399.986 31,394.2L31,298ZM13,22L31,22L31,298L13,298L13,22Z" style="fill:rgb(171,171,171);"/>
                    </g>
                </g>
                <g id="cp_pole_g-pole_1qa363l1mlrls0-fill1" serif:id="cp_pole_g-pole_1qa363l1mlrls0-fill">
                    <g>
                        <rect x="10" y="10" width="24" height="12" style="fill:rgb(171,171,171);"/>
                    </g>
                </g>
            </g>
            <g id="g-root-cp_pole_plant_1ur5me91mlrn5v-fill" transform="matrix(1,0,0,1,258,499)">
                <g id="cp_pole_plant_1ur5me91mlrn5v-fill">
                    <g>
                        <path d="M60.393,29.56C60.393,29.56 57.613,24.53 49.723,27.78C54.516,28.484 57.019,30.471 56.533,35.008L10,35.008C10,35.008 17.976,46.521 54.183,46.521C90.39,46.521 97.76,35.008 97.76,35.008L71.483,35.008C68.788,30.384 74.815,23.86 80.883,26.67C78.883,23.56 72.993,22.89 68.553,26C66.693,20.52 67.443,13.77 70.613,10C59.453,14.7 60.393,29.56 60.393,29.56Z" style="fill:rgb(145,187,57);"/>
                    </g>
                </g>
            </g>
            <g id="g-root-cp_2_sign-2_1lvim5d1mlrnyl-fill" transform="matrix(1,0,0,1,312,182)">
                <g id="cp_2_sign-2_1lvim5d1mlrnyl-fill">
                    <g>
                        <path d="M10,10L171,10L171,94L10,94L10,10ZM189,52L171,10L171,94L189,52Z" style="fill:rgb(79,145,252);"/>
                    </g>
                </g>
            </g>
            <g id="g-root-cp_4_sign-4_18kokv51mlrmdr-fill" transform="matrix(1,0,0,1,312,278)">
                <g id="cp_4_sign-4_18kokv51mlrmdr-fill">
                    <g>
                        <path d="M10,10L195,10L195,70L10,70L10,10ZM213,40L195,10L195,70L213,40Z" style="fill:rgb(255,231,17);"/>
                    </g>
                </g>
            </g>
            <g id="g-root-cp_6_sign-6_zp1km91mlrny9-fill" transform="matrix(1,0,0,1,312,350)">
                <g id="cp_6_sign-6_zp1km91mlrny9-fill">
                    <g>
                        <path d="M10,10L207,10L207,70L10,70L10,10ZM225,40L207,10L207,70L225,40Z" style="fill:rgb(166,218,55);"/>
                    </g>
                </g>
            </g>
            <g id="g-root-tx_profitma_4loko11mlszye-fill" transform="matrix(1,0,0,1,149,164)">
                <g id="tx_profitma_4loko11mlszye-fill">
                    <g>
                        <g>
                            <g transform="matrix(1,0,0,1,91.77,34)">
                                <g transform="matrix(20,0,0,20,31.123,0)">
                                </g>
                                <g transform="matrix(20,0,0,20,36.6797,0)">
                                </g>
                                <text x="0px" y="0px" style="font-family:'ArialMT', 'Arial', sans-serif;font-size:20px;fill:rgb(44,44,44);">Proﬁt</text>
                            </g>
                            <g transform="matrix(1,0,0,1,19.8,58)">
                                <text x="0px" y="0px" style="font-family:'ArialMT', 'Arial', sans-serif;font-size:20px;fill:rgb(44,44,44);">Maximization</text>
                            </g>
                        </g>
                    </g>
                </g>
            </g>
            <g id="g-root-tx_scalable_mcyl5t1mlxa8c-fill" transform="matrix(1,0,0,1,323,200)">
                <g id="tx_scalable_mcyl5t1mlxa8c-fill">
                    <g>
                        <g>
                            <g transform="matrix(1,0,0,1,12,34)">
                                <text x="0px" y="0px" style="font-family:'ArialMT', 'Arial', sans-serif;font-size:20px;fill:rgb(44,44,44);">Scalable</text>
                            </g>
                            <g transform="matrix(1,0,0,1,12,58)">
                                <text x="0px" y="0px" style="font-family:'ArialMT', 'Arial', sans-serif;font-size:20px;fill:rgb(44,44,44);">Networks</text>
                            </g>
                        </g>
                    </g>
                </g>
            </g>
            <g transform="matrix(1,0,0,1,146,294)">
                <g id="g-root-tx_easyinte_1czvlwh1mlugaw-fill">
                    <g id="tx_easyinte_1czvlwh1mlugaw-fill">
                        <g>
                            <g>
                                <text x="0px" y="0px" style="font-family:'ArialMT', 'Arial', sans-serif;font-size:20px;fill:rgb(44,44,44);">Easy Integration</text>
                            </g>
                        </g>
                    </g>
                </g>
            </g>
            <g transform="matrix(1,0,0,1,335,330)">
                <g id="g-root-tx_selfserv_hx531d1mlyoee-fill">
                    <g id="tx_selfserv_hx531d1mlyoee-fill">
                        <g>
                            <g>
                                <text x="0px" y="0px" style="font-family:'ArialMT', 'Arial', sans-serif;font-size:20px;fill:rgb(44,44,44);">Self-Service</text>
                            </g>
                        </g>
                    </g>
                </g>
            </g>
            <g id="g-root-tx_enhanced_zof3j51mlvv9m-fill" transform="matrix(1,0,0,1,185,332)">
                <g id="tx_enhanced_zof3j51mlvv9m-fill">
                    <g>
                        <g>
                            <g transform="matrix(1,0,0,1,16.28,34)">
                                <text x="0px" y="0px" style="font-family:'ArialMT', 'Arial', sans-serif;font-size:20px;fill:rgb(44,44,44);">Enhanced</text>
                            </g>
                            <g transform="matrix(1,0,0,1,32.35,58)">
                                <text x="0px" y="0px" style="font-family:'ArialMT', 'Arial', sans-serif;font-size:20px;fill:rgb(44,44,44);">Security</text>
                            </g>
                        </g>
                    </g>
                </g>
            </g>
            <g transform="matrix(1,0,0,1,335,402)">
                <g id="g-root-tx_247suppo_v7z4bl1mm03d4-fill">
                    <g id="tx_247suppo_v7z4bl1mm03d4-fill">
                        <g>
                            <g>
                                <text x="0px" y="0px" style="font-family:'ArialMT', 'Arial', sans-serif;font-size:20px;fill:rgb(44,44,44);">24/7 Support</text>
                            </g>
                        </g>
                    </g>
                </g>
            </g>
            <g id="g-root-cp_1_sign-1_zlx76p1mlrmrm-stroke" transform="matrix(1,0,0,1,77,146)">
                <g id="cp_1_sign-1_zlx76p1mlrmrm-stroke">
                    <g>
                        <path d="M28,10L225,10M225,94L28,94M28,94L10,52L28,10" style="fill:none;stroke:rgb(44,44,44);stroke-width:2px;"/>
                    </g>
                </g>
            </g>
            <g id="g-root-cp_3_sign-3_dfg5nl1mlrlzg-stroke" transform="matrix(1,0,0,1,53,242)">
                <g id="cp_3_sign-3_dfg5nl1mlrlzg-stroke">
                    <g>
                        <path d="M28,10L249,10M249,70L28,70M28,70L10,40L28,10" style="fill:none;stroke:rgb(44,44,44);stroke-width:2px;"/>
                    </g>
                </g>
            </g>
            <g id="g-root-cp_5_sign-5_8zmnj51mlrmrq-stroke" transform="matrix(1,0,0,1,113,314)">
                <g id="cp_5_sign-5_8zmnj51mlrmrq-stroke">
                    <g>
                        <path d="M28,10L189,10M189,94L28,94M28,94L10,52L28,10" style="fill:none;stroke:rgb(44,44,44);stroke-width:2px;"/>
                    </g>
                </g>
            </g>
            <g id="g-root-cp_pole_g-pole_1qa363l1mlrls0-stroke" transform="matrix(1,0,0,1,290,122)">
                <g id="cp_pole_g-pole_1qa363l1mlrls0-stroke">
                    <g>
                        <path d="M31,394L31,298M13,411L13,298M31,298L31,22M13,298L13,22" style="fill:none;stroke:rgb(44,44,44);stroke-width:2px;"/>
                    </g>
                </g>
                <g id="cp_pole_g-pole_1qa363l1mlrls0-stroke1" serif:id="cp_pole_g-pole_1qa363l1mlrls0-stroke">
                    <g>
                        <rect x="10" y="10" width="24" height="12" style="fill:none;stroke:rgb(44,44,44);stroke-width:2px;"/>
                    </g>
                </g>
            </g>
            <g id="g-root-cp_pole_plant_1ur5me91mlrn5v-stroke" transform="matrix(1,0,0,1,258,499)">
                <g id="cp_pole_plant_1ur5me91mlrn5v-stroke">
                    <g>
                        <path d="M56.55,34.88C56.55,34.88 57.3,28.89 49.74,27.78C57.63,24.53 60.41,29.56 60.41,29.56C60.41,29.56 59.47,14.7 70.63,10C67.46,13.77 66.71,20.52 68.57,26C73.01,22.89 78.9,23.56 80.9,26.67C76.68,24.44 69.89,28.468 71,34.918M71,34.918L98,34.918M10,34.918L56.5,34.918" style="fill:none;stroke:rgb(44,44,44);stroke-width:2px;"/>
                    </g>
                </g>
            </g>
            <g id="g-root-cp_2_sign-2_1lvim5d1mlrnyl-stroke" transform="matrix(1,0,0,1,312,182)">
                <g id="cp_2_sign-2_1lvim5d1mlrnyl-stroke">
                    <g>
                        <path d="M171,94L10,94M10,10L171,10M171,10L189,52L171,94" style="fill:none;stroke:rgb(44,44,44);stroke-width:2px;"/>
                    </g>
                </g>
            </g>
            <g id="g-root-cp_4_sign-4_18kokv51mlrmdr-stroke" transform="matrix(1,0,0,1,312,278)">
                <g id="cp_4_sign-4_18kokv51mlrmdr-stroke">
                    <g>
                        <path d="M195,70L10,70M10,10L195,10M195,10L213,40L195,70" style="fill:none;stroke:rgb(44,44,44);stroke-width:2px;"/>
                    </g>
                </g>
            </g>
            <g id="g-root-cp_6_sign-6_zp1km91mlrny9-stroke" transform="matrix(1,0,0,1,312,350)">
                <g id="cp_6_sign-6_zp1km91mlrny9-stroke">
                    <g>
                        <path d="M207,70L10,70M10,10L207,10M207,10L225,40L207,70" style="fill:none;stroke:rgb(44,44,44);stroke-width:2px;"/>
                    </g>
                </g>
            </g>
            <g id="g-root-ic_grap_vb3hr51mlrmz0-stroke" transform="matrix(1,0,0,1,101,170)">
                <g id="ic_grap_vb3hr51mlrmz0-stroke">
                    <g>
                        <path d="M44.875,20.575L29.725,33.325L25.525,28.375L11.125,39.775M14.875,44.275L14.875,36.801M14.875,32.125L14.875,18.775M22.375,24.775L22.375,11.125M29.875,25.375L29.875,15.775M37.375,15.775L37.375,11.125M22.375,38.575L22.375,30.906M29.875,40.375L29.875,33.227M37.375,44.875L37.375,26.875M38.125,20.575L44.875,20.575L44.875,26.875" style="fill:none;stroke:rgb(44,44,44);stroke-width:2px;"/>
                    </g>
                </g>
            </g>
            <g id="g-root-ic_1_14640wx1mlvthn-stroke" transform="matrix(1,0,0,1,431,206)">
                <g id="ic_1_14640wx1mlvthn-stroke">
                    <g>
                        <path d="M14.761,36.949L11.5,45.25M16,45.25L17.34,37.75M41.239,36.949L44.5,45.25M40,45.25L38.661,37.75M31.498,28.549L36.91,32.878M19.09,32.878L24.501,28.549M16.466,31.777L15.745,24.203M25.147,38.668L19.461,36.015M36.538,36.016L30.853,38.668M40.251,24.25L39.534,31.769M30.773,14.893L38.061,17.893M17.938,17.893L25.228,14.892M13.75,34.75C13.75,36.407 15.093,37.75 16.75,37.75C18.407,37.75 19.75,36.407 19.75,34.75C19.75,33.093 18.407,31.75 16.75,31.75C15.093,31.75 13.75,33.093 13.75,34.75ZM25,13.75C25,15.407 26.343,16.75 28,16.75C29.657,16.75 31,15.407 31,13.75C31,12.093 29.657,10.75 28,10.75C26.343,10.75 25,12.093 25,13.75ZM11.5,20.5C11.5,22.571 13.179,24.25 15.25,24.25C17.321,24.25 19,22.571 19,20.5C19,18.429 17.321,16.75 15.25,16.75C13.179,16.75 11.5,18.429 11.5,20.5ZM36.25,34.75C36.25,36.407 37.593,37.75 39.25,37.75C40.907,37.75 42.25,36.407 42.25,34.75C42.25,33.093 40.907,31.75 39.25,31.75C37.593,31.75 36.25,33.093 36.25,34.75ZM37,20.5C37,22.571 38.679,24.25 40.75,24.25C42.821,24.25 44.5,22.571 44.5,20.5C44.5,18.429 42.821,16.75 40.75,16.75C38.679,16.75 37,18.429 37,20.5ZM23.823,24.079L16.75,21.25M39.25,21.25L32.175,24.081M28,16.75L28,21.25M29.661,29.932L31.75,45.25M24.25,45.25L26.34,29.932M23.5,25.75C23.5,28.235 25.515,30.25 28,30.25C30.485,30.25 32.5,28.235 32.5,25.75C32.5,23.265 30.485,21.25 28,21.25C25.515,21.25 23.5,23.265 23.5,25.75Z" style="fill:none;stroke:rgb(44,44,44);stroke-width:2px;"/>
                    </g>
                </g>
            </g>
            <g id="g-root-ic_plan_dikj351mlt0jz-stroke" transform="matrix(1,0,0,1,77,254)">
                <g id="ic_plan_dikj351mlt0jz-stroke">
                    <g>
                        <path d="M19,25.75L16,25.75L16,11.5C16,11.086 16.336,10.75 16.75,10.75L31.75,10.75C32.164,10.75 32.5,11.086 32.5,11.5L32.5,25.75L24.25,25.75M28,25.75L28,30.25C30.485,30.25 32.5,32.265 32.5,34.75L32.5,35.5L28,35.5L28,44.5C28,44.914 27.664,45.25 27.25,45.25L11.5,45.25C11.086,45.25 10.75,44.914 10.75,44.5L10.75,26.5C10.75,26.086 11.086,25.75 11.5,25.75L16,25.75M28,38.5L44.5,38.5C44.914,38.5 45.25,38.164 45.25,37.75L45.25,28C42.351,28 40,25.649 40,22.75L44.5,22.75C44.914,22.75 45.25,22.414 45.25,22L45.25,17.5C45.25,17.086 44.914,16.75 44.5,16.75L32.5,16.75M10.75,36.25L18.25,36.25L18.25,45.25L11.5,45.25C11.086,45.25 10.75,44.914 10.75,44.5L10.75,36.25ZM10.75,39.25L18.25,39.25M10.75,42.25L18.25,42.25" style="fill:none;stroke:rgb(44,44,44);stroke-width:2px;"/>
                    </g>
                </g>
            </g>
            <g id="g-root-ic_sett_18n6h7l1mlx899-stroke" transform="matrix(1,0,0,1,455,290)">
                <g id="ic_sett_18n6h7l1mlx899-stroke">
                    <g>
                        <path d="M34.469,20.453C34.47,21.644 35.435,22.609 36.625,22.609C37.815,22.609 38.781,21.644 38.781,20.454C38.781,19.263 37.815,18.298 36.625,18.298C35.435,18.298 34.47,19.263 34.47,20.454L34.469,20.453ZM38.457,12.112L39.1,14.2C39.318,14.919 40.054,15.346 40.786,15.18L42.904,14.688C43.727,14.502 44.576,14.875 44.996,15.606C45.416,16.338 45.311,17.259 44.736,17.876L43.254,19.474C42.742,20.026 42.742,20.879 43.253,21.431L44.736,23.029C45.311,23.647 45.416,24.567 44.996,25.299C44.576,26.031 43.727,26.404 42.904,26.218L40.786,25.727C40.054,25.559 39.316,25.987 39.1,26.707L38.464,28.795C38.221,29.603 37.477,30.157 36.633,30.157C35.788,30.157 35.044,29.603 34.801,28.795L34.165,26.707C33.949,25.987 33.211,25.559 32.479,25.728L30.361,26.218C29.538,26.404 28.689,26.031 28.269,25.299C27.849,24.567 27.954,23.647 28.529,23.029L30.011,21.431C30.523,20.879 30.523,20.026 30.011,19.474L28.529,17.876C27.954,17.259 27.849,16.338 28.269,15.606C28.689,14.875 29.538,14.502 30.361,14.688L32.479,15.18C33.209,15.342 33.94,14.915 34.158,14.2L34.793,12.112C35.037,11.304 35.781,10.75 36.625,10.75C37.469,10.75 38.213,11.304 38.457,12.112ZM21.25,45.25L22,36.25L25.75,36.25L25.75,31C25.75,26.858 22.392,23.5 18.25,23.5C14.108,23.5 10.75,26.858 10.75,31L10.75,36.25L14.5,36.25L15.25,45.25L21.25,45.25ZM13,16C13,18.899 15.351,21.25 18.25,21.25C21.149,21.25 23.5,18.899 23.5,16C23.5,13.101 21.149,10.75 18.25,10.75C15.351,10.75 13,13.101 13,16Z" style="fill:none;stroke:rgb(44,44,44);stroke-width:2px;"/>
                    </g>
                </g>
            </g>
            <g id="g-root-ic_key_1hhkja91mlueix-stroke" transform="matrix(1,0,0,1,137,338)">
                <g id="ic_key_1hhkja91mlueix-stroke">
                    <g>
                        <path d="M12.25,15.663L12.25,27.118C12.34,34.872 17.265,41.743 24.578,44.32L26.26,44.941C27.383,45.354 28.617,45.354 29.74,44.941L31.422,44.32C38.735,41.743 43.66,34.872 43.75,27.118L43.75,15.663C43.747,14.743 43.196,13.913 42.349,13.554C37.805,11.657 32.923,10.703 28,10.75C23.077,10.703 18.195,11.657 13.651,13.554C12.804,13.913 12.253,14.743 12.25,15.663ZM37.75,18.25L34.75,18.25L28.219,24.781C25.578,23.589 22.462,24.455 20.814,26.838C19.167,29.222 19.459,32.443 21.508,34.492C23.557,36.541 26.778,36.833 29.162,35.186C31.545,33.538 32.411,30.422 31.219,27.781L37.75,21.25L37.75,18.25ZM23.875,30.25C23.875,31.286 24.714,32.125 25.75,32.125C26.786,32.125 27.625,31.286 27.625,30.25C27.625,29.214 26.786,28.375 25.75,28.375C24.714,28.375 23.875,29.214 23.875,30.25Z" style="fill:none;stroke:rgb(44,44,44);stroke-width:2px;"/>
                    </g>
                </g>
            </g>
            <g id="g-root-ic_2_dj70691mlynf3-stroke" transform="matrix(1,0,0,1,467,362)">
                <g id="ic_2_dj70691mlynf3-stroke">
                    <g>
                        <path d="M18.25,25.75L25.748,25.75L25.75,16.75M24.297,40.681C17.996,40.061 12.765,35.549 11.226,29.408C9.688,23.267 12.174,16.822 17.439,13.305C22.703,9.788 29.609,9.959 34.693,13.731C39.778,17.503 41.943,24.063 40.103,30.121M45.25,45.25L45.25,33.25C41.108,33.25 37.75,36.608 37.75,40.75L37.75,42.25L45.25,42.25M35.5,45.25L27.25,45.25L32.5,40.617C33.979,39.312 35.11,38.398 34.674,36.25C34.287,34.366 32.537,33.079 30.623,33.273C28.709,33.466 27.252,35.076 27.25,37" style="fill:none;stroke:rgb(44,44,44);stroke-width:2px;"/>
                    </g>
                </g>
            </g>
        </g>
    </g>
</svg>
