<?xml version="1.0" encoding="UTF-8" standalone="no"?>
<!DOCTYPE svg PUBLIC "-//W3C//DTD SVG 1.1//EN" "http://www.w3.org/Graphics/SVG/1.1/DTD/svg11.dtd">
<svg width="100%" height="100%" viewBox="0 0 576 755" version="1.1" xmlns="http://www.w3.org/2000/svg" xmlns:xlink="http://www.w3.org/1999/xlink" xml:space="preserve" xmlns:serif="http://www.serif.com/" style="fill-rule:evenodd;clip-rule:evenodd;stroke-linecap:round;stroke-linejoin:round;">
    <g id="items" transform="matrix(1.09739,0,0,1.09739,-28.0496,-51.9838)">
        <g id="blend">
            <g id="g-root-cp_9_text-9_1cz9qwh1pxii2q-fill" transform="matrix(1,0,0,1,50,86)">
                <g id="cp_9_text-9_1cz9qwh1pxii2q-fill">
                    <g>
                        <rect x="10" y="10" width="228" height="84" style="fill:rgb(135,105,253);"/>
                    </g>
                </g>
            </g>
            <g id="g-root-cp_9_stick-9_dhc7011pxiivg-fill" transform="matrix(1,0,0,1,272,170)">
                <g id="cp_9_stick-9_dhc7011pxiivg-fill">
                    <g>
                        <rect x="10" y="10" width="5.997" height="468" style="fill:rgb(135,105,253);"/>
                    </g>
                </g>
            </g>
            <g id="g-root-cp_7_text-7_1lw5pbl1pxiioe-fill" transform="matrix(1,0,0,1,44,170)">
                <g id="cp_7_text-7_1lw5pbl1pxiioe-fill">
                    <g>
                        <rect x="10" y="10" width="228" height="108" style="fill:rgb(26,195,251);"/>
                    </g>
                </g>
            </g>
            <g id="g-root-cp_7_stick-7_145i5wx1pxihvs-fill" transform="matrix(1,0,0,1,266,278)">
                <g id="cp_7_stick-7_145i5wx1pxihvs-fill">
                    <g>
                        <rect x="10" y="10" width="5.997" height="360" style="fill:rgb(26,195,251);"/>
                    </g>
                </g>
            </g>
            <g id="g-root-cp_5_text-5_qu1njl1pxijgq-fill" transform="matrix(1,0,0,1,38,278)">
                <g id="cp_5_text-5_qu1njl1pxijgq-fill">
                    <g>
                        <rect x="10" y="10" width="228" height="108" style="fill:rgb(251,103,98);"/>
                    </g>
                </g>
            </g>
            <g id="g-root-cp_5_stick-5_93e44x1pxiio4-fill" transform="matrix(1,0,0,1,260,386)">
                <g id="cp_5_stick-5_93e44x1pxiio4-fill">
                    <g>
                        <rect x="10" y="10" width="5.997" height="252" style="fill:rgb(251,103,98);"/>
                    </g>
                </g>
            </g>
            <g id="g-root-cp_3_text-3_1hi7mgh1pxiih2-fill" transform="matrix(1,0,0,1,32,386)">
                <g id="cp_3_text-3_1hi7mgh1pxiih2-fill">
                    <g>
                        <rect x="10" y="10" width="228" height="108" style="fill:rgb(247,148,56);"/>
                    </g>
                </g>
            </g>
            <g id="g-root-cp_3_stick-3_146r4351pxik20-fill" transform="matrix(1,0,0,1,254,494)">
                <g id="cp_3_stick-3_146r4351pxik20-fill">
                    <g>
                        <rect x="10" y="10" width="5.997" height="144" style="fill:rgb(247,148,56);"/>
                    </g>
                </g>
            </g>
            <g id="g-root-cp_1_text-1_mg3koh1pxij9e-fill" transform="matrix(1,0,0,1,26,494)">
                <g id="cp_1_text-1_mg3koh1pxij9e-fill">
                    <g>
                        <rect x="10" y="10" width="228" height="108" style="fill:rgb(255,231,17);"/>
                    </g>
                </g>
            </g>
            <g id="g-root-cp_1_stick-1_94n2b51pxikuc-fill" transform="matrix(1,0,0,1,247.997,578)">
                <g id="cp_1_stick-1_94n2b51pxikuc-fill">
                    <g>
                        <rect x="10.003" y="10" width="5.997" height="60" style="fill:rgb(255,231,17);"/>
                    </g>
                </g>
            </g>
            <g id="g-root-cp_10_text-10_1lza2r51pxijv2-fill" transform="matrix(1,0,0,1,278,50)">
                <g id="cp_10_text-10_1lza2r51pxijv2-fill">
                    <g>
                        <rect x="10" y="10" width="228" height="132" style="fill:rgb(183,183,183);"/>
                    </g>
                </g>
            </g>
            <g id="g-root-cp_10_stick-10_13ymxyp1pxjxmw-fill" transform="matrix(1,0,0,1,278.003,182)">
                <g id="cp_10_stick-10_13ymxyp1pxjxmw-fill">
                    <g>
                        <rect x="10" y="10" width="5.997" height="456" style="fill:rgb(183,183,183);"/>
                    </g>
                </g>
            </g>
            <g id="g-root-cp_8_text-8_qn6fld1pxjz7u-fill" transform="matrix(1,0,0,1,284,182)">
                <g id="cp_8_text-8_qn6fld1pxjz7u-fill">
                    <g>
                        <rect x="10" y="10" width="228" height="84" style="fill:rgb(166,218,55);"/>
                    </g>
                </g>
            </g>
            <g id="g-root-cp_8_stick-8_dcceb51pxjxn0-fill" transform="matrix(1,0,0,1,284.003,266)">
                <g id="cp_8_stick-8_dcceb51pxjxn0-fill">
                    <g>
                        <rect x="10" y="10" width="5.997" height="372" style="fill:rgb(166,218,55);"/>
                    </g>
                </g>
            </g>
            <g id="g-root-cp_6_text-6_vvxt1pxjz7y-fill" transform="matrix(1,0,0,1,290,266)">
                <g id="cp_6_text-6_vvxt1pxjz7y-fill">
                    <g>
                        <rect x="10" y="10" width="228" height="108" style="fill:rgb(243,102,187);"/>
                    </g>
                </g>
            </g>
            <g id="g-root-cp_6_stick-6_1q6zer51pxjxfk-fill" transform="matrix(1,0,0,1,290.003,374)">
                <g id="cp_6_stick-6_1q6zer51pxjxfk-fill">
                    <g>
                        <rect x="10" y="10" width="5.997" height="264" style="fill:rgb(243,102,187);"/>
                    </g>
                </g>
            </g>
            <g id="g-root-cp_4_text-4_1cviwdt1pxjz0i-fill" transform="matrix(1,0,0,1,296,374)">
                <g id="cp_4_text-4_1cviwdt1pxjz0i-fill">
                    <g>
                        <rect x="10" y="10" width="228" height="132" style="fill:rgb(203,104,249);"/>
                    </g>
                </g>
            </g>
            <g id="g-root-cp_4_stick-4_zkov3l1pxjxfo-fill" transform="matrix(1,0,0,1,296.003,506)">
                <g id="cp_4_stick-4_zkov3l1pxjxfo-fill">
                    <g>
                        <rect x="10" y="10" width="5.997" height="132" style="fill:rgb(203,104,249);"/>
                    </g>
                </g>
            </g>
            <g id="g-root-cp_2_text-2_m98cq91pxjz0m-fill" transform="matrix(1,0,0,1,302,506)">
                <g id="cp_2_text-2_m98cq91pxjz0m-fill">
                    <g>
                        <rect x="10" y="10" width="228" height="84" style="fill:rgb(67,221,147);"/>
                    </g>
                </g>
            </g>
            <g id="g-root-cp_2_stick-2_8yebg11pxjxfs-fill" transform="matrix(1,0,0,1,302.003,589)">
                <g id="cp_2_stick-2_8yebg11pxjxfs-fill">
                    <g>
                        <rect x="10" y="10" width="5.997" height="49" style="fill:rgb(67,221,147);"/>
                    </g>
                </g>
            </g>
            <g id="g-root-cp_0_g-0_1uo1v1t1pxjytm-fill" transform="matrix(1,0,0,1,248,638)">
                <g id="cp_0_g-0_1uo1v1t1pxjytm-fill">
                    <g>
                        <path d="M30,58L40.001,82.001L50.001,58L30,58Z" style="fill:rgb(232,232,232);"/>
                    </g>
                </g>
                <g id="cp_0_g-0_1uo1v1t1pxjytm-fill1" serif:id="cp_0_g-0_1uo1v1t1pxjytm-fill">
                    <g>
                        <path d="M70.001,10L10,10L30,57.999L50.001,57.999L70.001,10Z" style="fill:rgb(232,232,232);"/>
                    </g>
                </g>
            </g>
            <g id="g-root-tx_multipro_14309kh1pxmrrg-fill" transform="matrix(1,0,0,1,62,290)">
                <g id="tx_multipro_14309kh1pxmrrg-fill">
                    <g>
                        <g>
                            <g transform="matrix(1,0,0,1,22.07,34)">
                                <text x="0px" y="0px" style="font-family:'Arial-BoldMT', 'Arial', sans-serif;font-weight:700;font-size:20px;fill:rgb(44,44,44);">Multi-Protocol</text>
                            </g>
                            <g transform="matrix(1,0,0,1,80.12,58)">
                                <text x="0px" y="0px" style="font-family:'Arial-BoldMT', 'Arial', sans-serif;font-weight:700;font-size:20px;fill:rgb(44,44,44);">Support</text>
                            </g>
                        </g>
                    </g>
                </g>
            </g>
            <g id="g-root-tx__18n76gh1pxxz49-fill">
            </g>
            <g id="g-root-tx__18mkm7l1pxlblu-fill">
            </g>
            <g transform="matrix(1,0,0,1,356,228)">
                <g id="g-root-tx_multilev_dj7pf51pxy0w8-fill">
                    <g id="tx_multilev_dj7pf51pxy0w8-fill">
                        <g>
                            <g>
                                <text x="0px" y="0px" style="font-family:'Arial-BoldMT', 'Arial', sans-serif;font-weight:700;font-size:20px;fill:rgb(44,44,44);">Multi-Level IVR</text>
                            </g>
                        </g>
                    </g>
                </g>
            </g>
            <g id="g-root-tx_fraudpre_1qbzdrl1pxcxz7-fill" transform="matrix(1,0,0,1,350,278)">
                <g id="tx_fraudpre_1qbzdrl1pxcxz7-fill">
                    <g>
                        <g>
                            <g transform="matrix(1,0,0,1,12,34)">
                                <text x="0px" y="0px" style="font-family:'Arial-BoldMT', 'Arial', sans-serif;font-weight:700;font-size:20px;fill:rgb(44,44,44);">Fraud</text>
                            </g>
                            <g transform="matrix(1,0,0,1,12,58)">
                                <text x="0px" y="0px" style="font-family:'Arial-BoldMT', 'Arial', sans-serif;font-weight:700;font-size:20px;fill:rgb(44,44,44);">Prevention</text>
                            </g>
                        </g>
                    </g>
                </g>
            </g>
            <g id="g-root-tx__1ur68hd1pxmqrp-fill">
            </g>
            <g id="g-root-tx__meustt1pxcwec-fill">
            </g>
            <g id="g-root-tx_dynamicr_1cwruk11pxo5cf-fill" transform="matrix(1,0,0,1,68,398)">
                <g id="tx_dynamicr_1cwruk11pxo5cf-fill">
                    <g>
                        <g>
                            <g transform="matrix(1,0,0,1,61.98,34)">
                                <text x="0px" y="0px" style="font-family:'Arial-BoldMT', 'Arial', sans-serif;font-weight:700;font-size:20px;fill:rgb(44,44,44);">Dynamic</text>
                            </g>
                            <g transform="matrix(1,0,0,1,14.63,58)">
                                <text x="0px" y="0px" style="font-family:'Arial-BoldMT', 'Arial', sans-serif;font-weight:700;font-size:20px;fill:rgb(44,44,44);">Routing Rules</text>
                            </g>
                        </g>
                    </g>
                </g>
            </g>
            <g id="g-root-tx_realtime_hyenap1pxlcll-fill" transform="matrix(1,0,0,1,104,182)">
                <g id="tx_realtime_hyenap1pxlcll-fill">
                    <g>
                        <g>
                            <g transform="matrix(1,0,0,1,22.68,34)">
                                <text x="0px" y="0px" style="font-family:'Arial-BoldMT', 'Arial', sans-serif;font-weight:700;font-size:20px;fill:rgb(44,44,44);">Real-T<tspan x="60.762px 66.318px " y="0px 0px ">im</tspan>e</text>
                            </g>
                            <g transform="matrix(1,0,0,1,17.63,58)">
                                <text x="0px" y="0px" style="font-family:'Arial-BoldMT', 'Arial', sans-serif;font-weight:700;font-size:20px;fill:rgb(44,44,44);">Monitoring</text>
                            </g>
                        </g>
                    </g>
                </g>
            </g>
            <g id="g-root-tx__m8lysx1pxxyiu-fill">
            </g>
            <g id="g-root-tx_enduserm_hx5vg11pxebk6-fill" transform="matrix(1,0,0,1,356,386)">
                <g id="tx_enduserm_hx5vg11pxebk6-fill">
                    <g>
                        <g>
                            <g transform="matrix(1,0,0,1,12,34)">
                                <text x="0px" y="0px" style="font-family:'Arial-BoldMT', 'Arial', sans-serif;font-weight:700;font-size:20px;fill:rgb(44,44,44);">End-User</text>
                            </g>
                            <g transform="matrix(1,0,0,1,12,58)">
                                <text x="0px" y="0px" style="font-family:'Arial-BoldMT', 'Arial', sans-serif;font-weight:700;font-size:20px;fill:rgb(44,44,44);">Management</text>
                            </g>
                            <g transform="matrix(1,0,0,1,12,82)">
                                <text x="0px" y="0px" style="font-family:'Arial-BoldMT', 'Arial', sans-serif;font-weight:700;font-size:20px;fill:rgb(44,44,44);">Portal</text>
                            </g>
                        </g>
                    </g>
                </g>
            </g>
            <g id="g-root-tx__409dd1pxo5c0-fill">
            </g>
            <g id="g-root-tx__1d0ive91pxecxz-fill">
            </g>
            <g id="g-root-tx__v7zqep1pxjymn-fill">
            </g>
            <g id="g-root-tx_prepaidp_v5hx811pxwlqi-fill" transform="matrix(1,0,0,1,38,506)">
                <g id="tx_prepaidp_v5hx811pxwlqi-fill">
                    <g>
                        <g>
                            <g transform="matrix(1,0,0,1,87.25,34)">
                                <text x="0px" y="0px" style="font-family:'Arial-BoldMT', 'Arial', sans-serif;font-weight:700;font-size:20px;fill:rgb(44,44,44);">Prepaid/</text>
                            </g>
                            <g transform="matrix(1,0,0,1,22.82,58)">
                                <text x="0px" y="0px" style="font-family:'Arial-BoldMT', 'Arial', sans-serif;font-weight:700;font-size:20px;fill:rgb(44,44,44);">Postpaid Billing</text>
                            </g>
                        </g>
                    </g>
                </g>
            </g>
            <g transform="matrix(1,0,0,1,78.6,132)">
                <g id="g-root-tx_globalco_4mqgh1pxjx8u-fill">
                    <g id="tx_globalco_4mqgh1pxjx8u-fill">
                        <g>
                            <g>
                                <text x="0px" y="0px" style="font-family:'Arial-BoldMT', 'Arial', sans-serif;font-weight:700;font-size:20px;fill:rgb(44,44,44);">Global Coverage</text>
                            </g>
                        </g>
                    </g>
                </g>
            </g>
            <g id="g-root-tx_dedicate_1q5qjqp1pxy03p-fill" transform="matrix(1,0,0,1,338,62)">
                <g id="tx_dedicate_1q5qjqp1pxy03p-fill">
                    <g>
                        <g>
                            <g transform="matrix(1,0,0,1,12,34)">
                                <text x="0px" y="0px" style="font-family:'Arial-BoldMT', 'Arial', sans-serif;font-weight:700;font-size:20px;fill:rgb(44,44,44);">Dedicated</text>
                            </g>
                            <g transform="matrix(1,0,0,1,12,58)">
                                <text x="0px" y="0px" style="font-family:'Arial-BoldMT', 'Arial', sans-serif;font-weight:700;font-size:20px;fill:rgb(44,44,44);">T<tspan x="10.732px 21.855px " y="0px 0px ">ec</tspan>hnical</text>
                            </g>
                            <g transform="matrix(1,0,0,1,12,82)">
                                <text x="0px" y="0px" style="font-family:'Arial-BoldMT', 'Arial', sans-serif;font-weight:700;font-size:20px;fill:rgb(44,44,44);">Support</text>
                            </g>
                        </g>
                    </g>
                </g>
            </g>
            <g transform="matrix(1,0,0,1,374,552)">
                <g id="g-root-tx_highcall_1hhlbox1pxscn5-fill">
                    <g id="tx_highcall_1hhlbox1pxscn5-fill">
                        <g>
                            <g>
                                <text x="0px" y="0px" style="font-family:'Arial-BoldMT', 'Arial', sans-serif;font-weight:700;font-size:20px;fill:rgb(44,44,44);">High Call Quality</text>
                            </g>
                        </g>
                    </g>
                </g>
            </g>
            <g id="g-root-tx__1ltnw4x1pxwkqr-fill">
            </g>
            <g id="g-root-tx__hznrsh1pxsdfu-fill">
            </g>
            <g id="g-root-cp_9_text-9_1cz9qwh1pxii2q-stroke" transform="matrix(1,0,0,1,50,86)">
                <g id="cp_9_text-9_1cz9qwh1pxii2q-stroke">
                    <g>
                        <path d="M10,94L10,10L238,10L238,94" style="fill:none;stroke:rgb(44,44,44);stroke-width:2px;"/>
                    </g>
                </g>
            </g>
            <g id="g-root-cp_9_stick-9_dhc7011pxiivg-stroke" transform="matrix(1,0,0,1,272,170)">
                <g id="cp_9_stick-9_dhc7011pxiivg-stroke">
                    <g>
                        <path d="M15.997,478L15.997,10" style="fill:none;stroke:rgb(44,44,44);stroke-width:2px;"/>
                    </g>
                </g>
            </g>
            <g id="g-root-cp_7_text-7_1lw5pbl1pxiioe-stroke" transform="matrix(1,0,0,1,44,170)">
                <g id="cp_7_text-7_1lw5pbl1pxiioe-stroke">
                    <g>
                        <path d="M10,118L10,10L238,10L238,118" style="fill:none;stroke:rgb(44,44,44);stroke-width:2px;"/>
                    </g>
                </g>
            </g>
            <g id="g-root-cp_7_stick-7_145i5wx1pxihvs-stroke" transform="matrix(1,0,0,1,266,278)">
                <g id="cp_7_stick-7_145i5wx1pxihvs-stroke">
                    <g>
                        <path d="M15.997,370L15.997,10" style="fill:none;stroke:rgb(44,44,44);stroke-width:2px;"/>
                    </g>
                </g>
            </g>
            <g id="g-root-cp_5_text-5_qu1njl1pxijgq-stroke" transform="matrix(1,0,0,1,38,278)">
                <g id="cp_5_text-5_qu1njl1pxijgq-stroke">
                    <g>
                        <path d="M10,118L10,10L238,10L238,118" style="fill:none;stroke:rgb(44,44,44);stroke-width:2px;"/>
                    </g>
                </g>
            </g>
            <g id="g-root-cp_5_stick-5_93e44x1pxiio4-stroke" transform="matrix(1,0,0,1,260,386)">
                <g id="cp_5_stick-5_93e44x1pxiio4-stroke">
                    <g>
                        <path d="M15.997,262L15.997,10" style="fill:none;stroke:rgb(44,44,44);stroke-width:2px;"/>
                    </g>
                </g>
            </g>
            <g id="g-root-cp_3_text-3_1hi7mgh1pxiih2-stroke" transform="matrix(1,0,0,1,32,386)">
                <g id="cp_3_text-3_1hi7mgh1pxiih2-stroke">
                    <g>
                        <path d="M10,118L10,10L238,10L238,118" style="fill:none;stroke:rgb(44,44,44);stroke-width:2px;"/>
                    </g>
                </g>
            </g>
            <g id="g-root-cp_3_stick-3_146r4351pxik20-stroke" transform="matrix(1,0,0,1,254,494)">
                <g id="cp_3_stick-3_146r4351pxik20-stroke">
                    <g>
                        <path d="M15.997,154L15.997,10" style="fill:none;stroke:rgb(44,44,44);stroke-width:2px;"/>
                    </g>
                </g>
            </g>
            <g id="g-root-cp_1_text-1_mg3koh1pxij9e-stroke" transform="matrix(1,0,0,1,26,494)">
                <g id="cp_1_text-1_mg3koh1pxij9e-stroke">
                    <g>
                        <path d="M238,118L238,10L10,10L10,118L232.5,118" style="fill:none;stroke:rgb(44,44,44);stroke-width:2px;"/>
                    </g>
                </g>
            </g>
            <g id="g-root-cp_1_stick-1_94n2b51pxikuc-stroke" transform="matrix(1,0,0,1,247.997,578)">
                <g id="cp_1_stick-1_94n2b51pxikuc-stroke">
                    <g>
                        <path d="M16,70L16,10M10,70L10,33" style="fill:none;stroke:rgb(44,44,44);stroke-width:2px;"/>
                    </g>
                </g>
            </g>
            <g id="g-root-cp_10_text-10_1lza2r51pxijv2-stroke" transform="matrix(1,0,0,1,278,50)">
                <g id="cp_10_text-10_1lza2r51pxijv2-stroke">
                    <g>
                        <path d="M238,142L238,10L10,10L10,142" style="fill:none;stroke:rgb(44,44,44);stroke-width:2px;"/>
                    </g>
                </g>
            </g>
            <g id="g-root-cp_10_stick-10_13ymxyp1pxjxmw-stroke" transform="matrix(1,0,0,1,278.003,182)">
                <g id="cp_10_stick-10_13ymxyp1pxjxmw-stroke">
                    <g>
                        <path d="M10.001,466L10.001,10" style="fill:none;stroke:rgb(44,44,44);stroke-width:2px;"/>
                    </g>
                </g>
            </g>
            <g id="g-root-cp_8_text-8_qn6fld1pxjz7u-stroke" transform="matrix(1,0,0,1,284,182)">
                <g id="cp_8_text-8_qn6fld1pxjz7u-stroke">
                    <g>
                        <path d="M238,94L238,10L10,10L10,94" style="fill:none;stroke:rgb(44,44,44);stroke-width:2px;"/>
                    </g>
                </g>
            </g>
            <g id="g-root-cp_8_stick-8_dcceb51pxjxn0-stroke" transform="matrix(1,0,0,1,284.003,266)">
                <g id="cp_8_stick-8_dcceb51pxjxn0-stroke">
                    <g>
                        <path d="M10.001,382L10.001,10" style="fill:none;stroke:rgb(44,44,44);stroke-width:2px;"/>
                    </g>
                </g>
            </g>
            <g id="g-root-cp_6_text-6_vvxt1pxjz7y-stroke" transform="matrix(1,0,0,1,290,266)">
                <g id="cp_6_text-6_vvxt1pxjz7y-stroke">
                    <g>
                        <path d="M238,118L238,10L10,10L10,118" style="fill:none;stroke:rgb(44,44,44);stroke-width:2px;"/>
                    </g>
                </g>
            </g>
            <g id="g-root-cp_6_stick-6_1q6zer51pxjxfk-stroke" transform="matrix(1,0,0,1,290.003,374)">
                <g id="cp_6_stick-6_1q6zer51pxjxfk-stroke">
                    <g>
                        <path d="M10.001,274L10.001,10" style="fill:none;stroke:rgb(44,44,44);stroke-width:2px;"/>
                    </g>
                </g>
            </g>
            <g id="g-root-cp_4_text-4_1cviwdt1pxjz0i-stroke" transform="matrix(1,0,0,1,296,374)">
                <g id="cp_4_text-4_1cviwdt1pxjz0i-stroke">
                    <g>
                        <path d="M238,142L238,10L10,10L10,142" style="fill:none;stroke:rgb(44,44,44);stroke-width:2px;"/>
                    </g>
                </g>
            </g>
            <g id="g-root-cp_4_stick-4_zkov3l1pxjxfo-stroke" transform="matrix(1,0,0,1,296.003,506)">
                <g id="cp_4_stick-4_zkov3l1pxjxfo-stroke">
                    <g>
                        <path d="M10.001,142L10.001,10" style="fill:none;stroke:rgb(44,44,44);stroke-width:2px;"/>
                    </g>
                </g>
            </g>
            <g id="g-root-cp_2_text-2_m98cq91pxjz0m-stroke" transform="matrix(1,0,0,1,302,506)">
                <g id="cp_2_text-2_m98cq91pxjz0m-stroke">
                    <g>
                        <path d="M10,94L10,10L238,10L238,94L15.5,94" style="fill:none;stroke:rgb(44,44,44);stroke-width:2px;"/>
                    </g>
                </g>
            </g>
            <g id="g-root-cp_2_stick-2_8yebg11pxjxfs-stroke" transform="matrix(1,0,0,1,302.003,589)">
                <g id="cp_2_stick-2_8yebg11pxjxfs-stroke">
                    <g>
                        <path d="M10.001,59L10.001,10M15.997,59L15.997,10" style="fill:none;stroke:rgb(44,44,44);stroke-width:2px;"/>
                    </g>
                </g>
            </g>
            <g id="g-root-cp_0_g-0_1uo1v1t1pxjytm-stroke" transform="matrix(1,0,0,1,248,638)">
                <g id="cp_0_g-0_1uo1v1t1pxjytm-stroke">
                    <g>
                        <path d="M30,58L40.001,82.001L50.001,58L30,58Z" style="fill:none;stroke:rgb(44,44,44);stroke-width:2px;"/>
                    </g>
                </g>
                <g id="cp_0_g-0_1uo1v1t1pxjytm-stroke1" serif:id="cp_0_g-0_1uo1v1t1pxjytm-stroke">
                    <g>
                        <path d="M70.001,10L10,10L30,57.999L50.001,57.999L70.001,10Z" style="fill:none;stroke:rgb(44,44,44);stroke-width:2px;"/>
                    </g>
                </g>
            </g>
            <g id="g-root-ic_exch_qtf6gh1pxmscm-stroke" transform="matrix(1,0,0,1,218,290)">
                <g id="ic_exch_qtf6gh1pxmscm-stroke">
                    <g>
                        <path d="M19.75,44.5L22.75,41.5L19.75,38.5M11.5,23.469C11.497,24.718 12.501,25.736 13.75,25.75L27.25,25.75C28.499,25.735 29.503,24.717 29.5,23.469L29.5,14.5C29.5,13.257 28.493,12.25 27.25,12.25L13.75,12.25C12.507,12.25 11.5,13.257 11.5,14.5L11.5,23.469ZM11.5,21.25L29.5,21.25M16.75,28.75L24.25,28.75M20.5,25.75L20.5,28.75M31,27.25C31,26.422 31.672,25.75 32.5,25.75L41.5,25.75C42.328,25.75 43,26.422 43,27.25L43,43.75C43,44.578 42.328,45.25 41.5,45.25L32.5,45.25C31.672,45.25 31,44.578 31,43.75L31,27.25ZM13.75,34C13.75,38.142 17.108,41.5 21.25,41.5L22.75,41.5M37.75,11.5L34.75,14.5L37.75,17.5M43.75,22C43.75,17.858 40.392,14.5 36.25,14.5L34.75,14.5M31,39.25L43,39.25M37,41.875C36.793,41.875 36.625,42.043 36.625,42.25C36.625,42.457 36.793,42.625 37,42.625C37.207,42.625 37.375,42.457 37.375,42.25C37.375,42.043 37.207,41.875 37,41.875" style="fill:none;stroke:rgb(44,44,44);stroke-width:2px;"/>
                    </g>
                </g>
            </g>
            <g id="g-root-ic_1_i0wmsx1pxxz4a-stroke" transform="matrix(1,0,0,1,296,194)">
                <g id="ic_1_i0wmsx1pxxz4a-stroke">
                    <g>
                        <path d="M33.274,10.765L45.274,10.765M33.274,16.765L45.274,16.765M33.274,22.765L45.274,22.765M28.774,10.765L30.274,10.765M28.774,16.765L30.274,16.765M28.774,22.765L30.274,22.765M26.323,44.994C22.723,41.384 24,38.571 25.952,36.616L27.214,35.355C28.471,34.099 30.507,34.099 31.763,35.354L37.222,40.814C37.668,41.259 37.861,41.898 37.736,42.515C37.612,43.133 37.186,43.646 36.602,43.883C29.612,46.74 21.59,45.125 16.251,39.785C10.911,34.446 9.296,26.424 12.153,19.434C12.39,18.85 12.903,18.424 13.521,18.3C14.138,18.175 14.777,18.368 15.222,18.814L20.683,24.276C21.939,25.531 21.939,27.568 20.683,28.824L19.42,30.085C17.47,32.035 14.653,33.316 11.044,29.716" style="fill:none;stroke:rgb(44,44,44);stroke-width:2px;"/>
                    </g>
                </g>
            </g>
            <g id="g-root-ic_play_4otk6p1pxld6r-stroke" transform="matrix(1,0,0,1,224,182)">
                <g id="ic_play_4otk6p1pxld6r-stroke">
                    <g>
                        <path d="M12.25,10.75L43.75,10.75C43.75,10.75 45.25,10.75 45.25,12.25L45.25,43.75C45.25,43.75 45.25,45.25 43.75,45.25L12.25,45.25C12.25,45.25 10.75,45.25 10.75,43.75L10.75,12.25C10.75,12.25 10.75,10.75 12.25,10.75M14.5,26.506L17.5,22.006L21.25,30.25L27.25,15.25L32.5,28.756L37.75,21.25L41.5,25.756M14.5,40L41.5,40M36.25,37.75L36.25,42.25M10.75,34.75L44.5,34.75" style="fill:none;stroke:rgb(44,44,44);stroke-width:2px;"/>
                    </g>
                </g>
            </g>
            <g id="g-root-ic_1_v7d9bl1pxo6pt-stroke" transform="matrix(1,0,0,1,212,398)">
                <g id="ic_1_v7d9bl1pxo6pt-stroke">
                    <g>
                        <path d="M13.75,10.75L42.25,10.75C42.25,10.75 45.25,10.75 45.25,13.75L45.25,42.25C45.25,42.25 45.25,45.25 42.25,45.25L13.75,45.25C13.75,45.25 10.75,45.25 10.75,42.25L10.75,13.75C10.75,13.75 10.75,10.75 13.75,10.75M10.75,22L15.994,22M10.75,36.25L18.25,36.25M34,10.75L34,17.5M35.5,26.5L35.5,33.25M22,10.75L22,17.5M18.25,36.25C18.25,38.321 19.929,40 22,40C24.071,40 25.75,38.321 25.75,36.25C25.75,34.179 24.071,32.5 22,32.5C19.929,32.5 18.25,34.179 18.25,36.25M37,26.5L22,26.5L15.994,22L22,17.5L37,17.5L37,26.5ZM32.125,33.25L38.125,33.25L38.125,39.25L32.125,39.25L32.125,33.25ZM25.75,36.25L32.125,36.25M38.125,36.25L45.25,36.25M35.5,39.25L35.5,45.25M22,26.5L22,32.5M22,40L22,45.25M37,22L45.25,22" style="fill:none;stroke:rgb(44,44,44);stroke-width:2px;"/>
                    </g>
                </g>
            </g>
            <g id="g-root-ic_sett_hz1apd1pxeakg-stroke" transform="matrix(1,0,0,1,308,386)">
                <g id="ic_sett_hz1apd1pxeakg-stroke">
                    <g>
                        <path d="M34.469,35.548C34.47,36.738 35.435,37.704 36.625,37.704C37.815,37.704 38.781,36.738 38.781,35.548C38.781,34.358 37.815,33.393 36.625,33.393C35.435,33.393 34.47,34.358 34.47,35.548L34.469,35.548ZM38.457,27.206L39.092,29.295C39.309,30.013 40.047,30.441 40.779,30.273L42.897,29.782C43.72,29.596 44.568,29.969 44.989,30.701C45.409,31.433 45.303,32.353 44.728,32.971L43.246,34.569C42.739,35.12 42.739,35.967 43.246,36.518L44.728,38.116C45.303,38.734 45.409,39.654 44.989,40.386C44.568,41.118 43.72,41.491 42.897,41.305L40.779,40.814C40.047,40.651 39.314,41.082 39.1,41.8L38.464,43.888C38.221,44.696 37.477,45.25 36.633,45.25C35.788,45.25 35.044,44.696 34.801,43.888L34.158,41.8C33.941,41.081 33.203,40.653 32.472,40.822L30.354,41.313C29.53,41.498 28.682,41.125 28.261,40.394C27.841,39.662 27.947,38.741 28.522,38.124L30.004,36.526C30.511,35.975 30.511,35.127 30.004,34.576L28.522,32.978C27.947,32.361 27.841,31.44 28.261,30.708C28.682,29.977 29.53,29.604 30.354,29.789L32.472,30.28C33.203,30.449 33.941,30.021 34.158,29.302L34.793,27.214C35.035,26.405 35.778,25.85 36.622,25.848C37.466,25.847 38.212,26.399 38.457,27.206ZM25.75,34.75L10.75,34.75C10.77,33.036 11.127,31.343 11.8,29.767C12.535,28.296 15.608,27.276 19.466,25.848C20.509,25.461 20.338,22.738 19.876,22.23C18.385,20.618 17.654,18.446 17.866,16.261C17.732,14.871 18.182,13.488 19.109,12.443C20.035,11.398 21.354,10.784 22.75,10.75C24.146,10.784 25.465,11.398 26.391,12.443C27.318,13.488 27.768,14.871 27.634,16.261C27.848,18.445 27.118,20.617 25.63,22.23C25.168,22.738 24.997,25.461 26.039,25.848C26.721,26.099 27.376,26.338 28,26.57" style="fill:none;stroke:rgb(44,44,44);stroke-width:2px;"/>
                    </g>
                </g>
            </g>
            <g id="g-root-ic_clip_90way91pxwjyk-stroke" transform="matrix(1,0,0,1,206,506)">
                <g id="ic_clip_90way91pxwjyk-stroke">
                    <g>
                        <path d="M40.375,22.225L40.375,17.725C40.375,16.525 39.325,15.475 38.125,15.475L32.225,15.475M19.475,15.625L13.375,15.625C12.175,15.625 11.125,16.675 11.125,17.875L11.125,42.625C11.125,43.825 12.175,44.875 13.375,44.875L27.625,44.875M31.675,17.125C31.525,17.575 31.075,17.875 30.625,17.875L21.025,17.875C20.575,17.875 20.125,17.575 19.975,17.125L18.475,12.625C18.325,12.325 18.475,11.875 18.625,11.575C18.775,11.275 19.225,11.125 19.525,11.125L32.125,11.125C32.425,11.125 32.875,11.275 33.025,11.575C33.175,11.875 33.325,12.175 33.175,12.625L31.675,17.125ZM44.875,26.725L32.125,26.725L32.125,44.725L44.875,44.725L44.875,26.725ZM32.125,32.725L44.875,32.725M32.125,38.725L44.875,38.725" style="fill:none;stroke:rgb(44,44,44);stroke-width:2px;"/>
                    </g>
                </g>
            </g>
            <g id="g-root-ic_shar_1urspkh1pxjwu8-stroke" transform="matrix(1,0,0,1,230,98)">
                <g id="ic_shar_1urspkh1pxjwu8-stroke">
                    <g>
                        <path d="M25.75,42.235C17.551,41.834 11.035,35.203 10.777,26.998C10.519,18.793 16.607,11.766 24.764,10.852C32.922,9.937 40.414,15.442 41.98,23.5M10.99,23.755L19.315,23.755C20.413,23.762 21.462,24.21 22.225,25L23.725,26.5C25.273,28.036 25.346,30.516 23.89,32.14L22,34.24C21.345,35.008 20.997,35.991 21.025,37L21.025,41.305M37.81,15.55L29.875,15.55C28.177,15.55 26.8,16.927 26.8,18.625C26.8,20.323 28.177,21.7 29.875,21.7L30.46,21.7C31.829,21.693 33.111,22.368 33.88,23.5L35.98,26.65M27.25,37.375C27.25,39.239 28.761,40.75 30.625,40.75C32.489,40.75 34,39.239 34,37.375C34,35.511 32.489,34 30.625,34C28.761,34 27.25,35.511 27.25,37.375M38.5,41.875C38.5,43.739 40.011,45.25 41.875,45.25C43.739,45.25 45.25,43.739 45.25,41.875C45.25,40.011 43.739,38.5 41.875,38.5C40.011,38.5 38.5,40.011 38.5,41.875M38.5,30.625C38.5,32.489 40.011,34 41.875,34C43.739,34 45.25,32.489 45.25,30.625C45.25,28.761 43.739,27.25 41.875,27.25C40.011,27.25 38.5,28.761 38.5,30.625M33.505,35.635L38.995,32.35M33.76,38.635L38.74,40.615" style="fill:none;stroke:rgb(44,44,44);stroke-width:2px;"/>
                    </g>
                </g>
            </g>
            <g id="g-root-ic_talk_1qeha411pxsd8r-stroke" transform="matrix(1,0,0,1,314,518)">
                <g id="ic_talk_1qeha411pxsd8r-stroke">
                    <g>
                        <path d="M42.625,38.125L26.875,38.125L17.875,44.875L17.875,38.125L13.375,38.125C12.132,38.125 11.125,37.118 11.125,35.875L11.125,13.375C11.125,12.132 12.132,11.125 13.375,11.125L42.625,11.125C43.868,11.125 44.875,12.132 44.875,13.375L44.875,35.875C44.875,37.118 43.868,38.125 42.625,38.125ZM37.707,30.05C37.232,25.045 33.028,21.22 28,21.22C22.972,21.22 18.768,25.045 18.294,30.051M34.663,30.05C34.246,26.688 31.389,24.162 28,24.162C24.611,24.162 21.754,26.688 21.337,30.05M24.361,30.05C24.758,28.361 26.265,27.167 28,27.167C29.735,27.167 31.242,28.361 31.639,30.051M40.707,30.05C40.258,23.363 34.703,18.167 28,18.167C21.297,18.167 15.742,23.363 15.294,30.05" style="fill:none;stroke:rgb(44,44,44);stroke-width:2px;"/>
                    </g>
                </g>
            </g>
            <g id="g-root-ic_smok_1lrsgvl1pxxz4f-stroke" transform="matrix(1,0,0,1,290,62)">
                <g id="ic_smok_1lrsgvl1pxxz4f-stroke">
                    <g>
                        <path d="M34.93,40.57C32.87,41.916 30.461,42.631 28,42.625C22.269,42.625 17.242,38.801 15.713,33.278C14.183,27.755 16.526,21.89 21.44,18.942C26.354,15.993 32.632,16.686 36.785,20.635C40.939,24.584 41.947,30.818 39.25,35.875M16.375,35.125L13.75,35.125C12.093,35.125 10.75,33.782 10.75,32.125L10.75,27.625C10.75,25.968 12.093,24.625 13.75,24.625L16.375,24.625M39.625,35.125L42.25,35.125C43.907,35.125 45.25,33.782 45.25,32.125L45.25,27.625C45.25,25.968 43.907,24.625 42.25,24.625L39.625,24.625M42.235,24.625C42.235,16.755 35.855,10.375 27.985,10.375C20.115,10.375 13.735,16.755 13.735,24.625M21.13,33.625C22.325,36.353 25.021,38.116 28,38.116C30.979,38.116 33.675,36.353 34.87,33.625M21.25,27.25C21.457,27.25 21.625,27.418 21.625,27.625C21.625,27.832 21.457,28 21.25,28C21.043,28 20.875,27.832 20.875,27.625C20.875,27.418 21.043,27.25 21.25,27.25M34.75,27.25C34.957,27.25 35.125,27.418 35.125,27.625C35.125,27.832 34.957,28 34.75,28C34.543,28 34.375,27.832 34.375,27.625C34.375,27.418 34.543,27.25 34.75,27.25M31.555,37.225L38.815,44.5C39.116,44.803 39.533,44.963 39.959,44.94C40.386,44.918 40.783,44.714 41.05,44.38L41.995,43.195C42.25,42.868 42.359,42.45 42.295,42.04C42.236,41.627 42.008,41.258 41.665,41.02L33.685,35.5" style="fill:none;stroke:rgb(44,44,44);stroke-width:2px;"/>
                    </g>
                </g>
            </g>
            <g id="g-root-ic_key_1ly1awh1pxcwzx-stroke" transform="matrix(1,0,0,1,302,278)">
                <g id="ic_key_1ly1awh1pxcwzx-stroke">
                    <g>
                        <path d="M12.25,15.663L12.25,27.118C12.34,34.872 17.265,41.743 24.578,44.32L26.26,44.941C27.383,45.354 28.617,45.354 29.74,44.941L31.422,44.32C38.735,41.743 43.66,34.872 43.75,27.118L43.75,15.663C43.747,14.743 43.196,13.913 42.349,13.554C37.805,11.657 32.923,10.703 28,10.75C23.077,10.703 18.195,11.657 13.651,13.554C12.804,13.913 12.253,14.743 12.25,15.663ZM37.75,18.25L34.75,18.25L28.219,24.781C25.578,23.589 22.462,24.455 20.814,26.838C19.167,29.222 19.459,32.443 21.508,34.492C23.557,36.541 26.778,36.833 29.162,35.186C31.545,33.538 32.411,30.422 31.219,27.781L37.75,21.25L37.75,18.25ZM23.875,30.25C23.875,31.286 24.714,32.125 25.75,32.125C26.786,32.125 27.625,31.286 27.625,30.25C27.625,29.214 26.786,28.375 25.75,28.375C24.714,28.375 23.875,29.214 23.875,30.25Z" style="fill:none;stroke:rgb(44,44,44);stroke-width:2px;"/>
                    </g>
                </g>
            </g>
        </g>
    </g>
</svg>
