<?xml version="1.0" encoding="UTF-8" standalone="no"?>
<!DOCTYPE svg PUBLIC "-//W3C//DTD SVG 1.1//EN" "http://www.w3.org/Graphics/SVG/1.1/DTD/svg11.dtd">
<svg width="100%" height="100%" viewBox="0 0 708 846" version="1.1" xmlns="http://www.w3.org/2000/svg" xmlns:xlink="http://www.w3.org/1999/xlink" xml:space="preserve" xmlns:serif="http://www.serif.com/" style="fill-rule:evenodd;clip-rule:evenodd;stroke-linecap:round;stroke-linejoin:round;">
    <g id="items" transform="matrix(1.10121,0,0,1.10121,-35.8528,-47.4092)">
        <g id="blend">
            <g id="g-root-cp_1_shape-1_m98m9t1mm0366-fill" transform="matrix(1,0,0,1,35.5,55.8164)">
                <g id="cp_1_shape-1_m98m9t1mm0366-fill">
                    <g>
                        <path d="M214,316.184L46,316.183C26.118,316.183 10,300.081 10,280.199L10,280.184L250,280.184C250,300.066 233.882,316.184 214,316.184ZM254.6,28.375L250,28.375L250,160.184L10,160.184C10,140.302 26.118,124.505 46,124.505L172,124.505C213.07,124.505 238,94.374 238,55.034L238,28.374L233.32,28.374C232.54,28.374 232.05,27.524 232.44,26.844L243.163,10.632C243.559,10.033 244.439,10.034 244.833,10.635L255.48,26.844C255.88,27.525 255.39,28.375 254.6,28.375ZM250,160.184L250,280.184L10,280.184L10,160.184L250,160.184Z" style="fill:rgb(67,221,147);"/>
                    </g>
                </g>
            </g>
            <g id="g-root-cp_3_shape-3_4il2v51mm02dk-fill" transform="matrix(1,0,0,1,35,326)">
                <g id="cp_3_shape-3_4il2v51mm02dk-fill">
                    <g>
                        <path d="M214,64.321C244,64.321 268,46 268,10L280,10L280,100.306L10,100.306C10,80.423 26.118,64.321 46,64.321L214,64.321Z" style="fill:rgb(255,231,17);"/>
                    </g>
                </g>
            </g>
            <g id="g-root-cp_3_shape-3_1_1q8v3k11mm00lm-fill" transform="matrix(1,0,0,1,287.303,56)">
                <g id="cp_3_shape-3_1_1q8v3k11mm00lm-fill">
                    <g>
                        <path d="M27.697,280L15.697,280L15.697,160L27.697,160L27.697,280ZM32.297,28.191L27.697,28.191L27.697,160L15.697,160L15.697,28.191L11.017,28.191C10.237,28.191 9.747,27.341 10.137,26.661L20.86,10.448C21.256,9.849 22.136,9.851 22.53,10.451L33.177,26.661C33.577,27.341 33.087,28.191 32.297,28.191Z" style="fill:rgb(255,231,17);"/>
                    </g>
                </g>
            </g>
            <g id="g-root-cp_5_shape-5_18hl3291mm02ys-fill" transform="matrix(1,0,0,1,317.303,56)">
                <g id="cp_5_shape-5_18hl3291mm02ys-fill">
                    <g>
                        <path d="M27.697,280L15.697,280L15.697,160L27.697,160L27.697,280ZM32.297,28.191L27.697,28.191L27.697,160L15.697,160L15.697,28.191L11.017,28.191C10.237,28.191 9.747,27.341 10.137,26.661L20.86,10.448C21.256,9.849 22.136,9.851 22.53,10.451L33.177,26.661C33.577,27.341 33.087,28.191 32.297,28.191Z" style="fill:rgb(251,103,98);"/>
                    </g>
                </g>
            </g>
            <g id="g-root-cp_2_shape-2_v6r1s11mm01dy-fill" transform="matrix(1,0,0,1,407.878,55.8164)">
                <g id="cp_2_shape-2_v6r1s11mm01dy-fill">
                    <g>
                        <path d="M51.622,316.184L219.622,316.184C239.504,316.184 255.622,300.081 255.622,280.199L255.622,280.184L15.622,280.184C15.622,300.066 31.74,316.184 51.622,316.184ZM11.022,28.375L15.622,28.375L15.622,160.184L255.622,160.184C255.622,140.302 239.505,124.505 219.623,124.505L93.622,124.505C52.552,124.505 27.622,94.374 27.622,55.034L27.622,28.374L32.302,28.374C33.082,28.374 33.572,27.524 33.182,26.844L22.459,10.632C22.063,10.033 21.184,10.034 20.79,10.635L10.142,26.844C9.742,27.525 10.232,28.375 11.022,28.375ZM15.622,160.184L15.622,280.184L255.622,280.184L255.622,160.184L15.622,160.184Z" style="fill:rgb(166,218,55);"/>
                    </g>
                </g>
            </g>
            <g id="g-root-cp_4_shape-4_hvajep1mm02yw-fill" transform="matrix(1,0,0,1,383,326)">
                <g id="cp_4_shape-4_hvajep1mm02yw-fill">
                    <g>
                        <path d="M76,64.321C46,64.321 22,46 22,10L10,10L10,100.306L280,100.306C280,80.423 263.882,64.321 244,64.321L76,64.321Z" style="fill:rgb(247,148,56);"/>
                    </g>
                </g>
            </g>
            <g id="g-root-cp_4_shape-4_1_4kgi4h1mm01e2-fill" transform="matrix(1,0,0,1,377.383,56)">
                <g id="cp_4_shape-4_1_4kgi4h1mm01e2-fill">
                    <g>
                        <path d="M15.623,280L27.623,280L27.623,160L15.623,160L15.623,280ZM11.022,28.191L15.622,28.191L15.622,160L27.622,160L27.622,28.191L32.302,28.191C33.082,28.191 33.572,27.341 33.182,26.661L22.459,10.448C22.063,9.849 21.184,9.851 20.79,10.451L10.142,26.661C9.742,27.341 10.232,28.191 11.022,28.191Z" style="fill:rgb(247,148,56);"/>
                    </g>
                </g>
            </g>
            <g id="g-root-cp_6_shape-6_1qa41q91mm02rw-fill" transform="matrix(1,0,0,1,347.383,56)">
                <g id="cp_6_shape-6_1qa41q91mm02rw-fill">
                    <g>
                        <path d="M15.623,280L27.623,280L27.623,160L15.623,160L15.623,280ZM11.022,28.191L15.622,28.191L15.622,160L27.622,160L27.622,28.191L32.302,28.191C33.082,28.191 33.572,27.341 33.182,26.661L22.459,10.448C22.063,9.849 21.184,9.851 20.79,10.451L10.142,26.661C9.742,27.341 10.232,28.191 11.022,28.191Z" style="fill:rgb(243,102,187);"/>
                    </g>
                </g>
            </g>
            <g id="g-root-cp_3_shape-3_2_1lux0ox1mm00ee-fill" transform="matrix(1,0,0,1,35,416)">
                <g id="cp_3_shape-3_2_1lux0ox1mm00ee-fill">
                    <g>
                        <path d="M280,10L280,129.98L10,129.98L10,10L280,10ZM244,166.008L46,166.008C26.118,166.008 10,149.906 10,130.023L10,130.008L280,130.008C280,149.89 263.882,166.008 244,166.008Z" style="fill:rgb(255,231,17);"/>
                    </g>
                </g>
            </g>
            <g id="g-root-cp_5_shape-5_1_143n0751mm02rk-fill" transform="matrix(1,0,0,1,323,326)">
                <g id="cp_5_shape-5_1_143n0751mm02rk-fill">
                    <g>
                        <rect x="10" y="10" width="12" height="210" style="fill:rgb(251,103,98);"/>
                    </g>
                </g>
            </g>
            <g id="g-root-cp_5_shape-5_2_qssywx1mm016q-fill" transform="matrix(1,0,0,1,35,536)">
                <g id="cp_5_shape-5_2_qssywx1mm016q-fill">
                    <g>
                        <path d="M244,64.137C274,64.137 298,45.878 298,10L310,10L310,100L10,100C10,80.185 26.118,64.137 46,64.137L244,64.137Z" style="fill:rgb(251,103,98);"/>
                    </g>
                </g>
            </g>
            <g id="g-root-cp_4_shape-4_2_dhcgjl1mm02ro-fill" transform="matrix(1,0,0,1,383,416)">
                <g id="cp_4_shape-4_2_dhcgjl1mm02ro-fill">
                    <g>
                        <path d="M10,10L10,130L280,130L280,10L10,10ZM46,166L244,166C263.882,166 280,149.898 280,130.016L280,130L10,130C10,149.882 26.118,166 46,166Z" style="fill:rgb(247,148,56);"/>
                    </g>
                </g>
            </g>
            <g id="g-root-cp_6_shape-6_1_6if9d1mm016u-fill" transform="matrix(1,0,0,1,353,326)">
                <g id="cp_6_shape-6_1_6if9d1mm016u-fill">
                    <g>
                        <rect x="10" y="10" width="12" height="210" style="fill:rgb(243,102,187);"/>
                    </g>
                </g>
            </g>
            <g id="g-root-cp_6_shape-6_2_1ursz411mm01s0-fill" transform="matrix(1,0,0,1,353,536)">
                <g id="cp_6_shape-6_2_1ursz411mm01s0-fill">
                    <g>
                        <path d="M76,64.321C46,64.321 22,46 22,10L10,10L10,100.306L310,100.306C310,80.423 293.882,64.321 274,64.321L76,64.321Z" style="fill:rgb(243,102,187);"/>
                    </g>
                </g>
            </g>
            <g id="g-root-cp_5_shape-5_3_18lbxkx1mm00zu-fill" transform="matrix(1,0,0,1,35,626)">
                <g id="cp_5_shape-5_3_18lbxkx1mm00zu-fill">
                    <g>
                        <path d="M310,10L310,130L10,130L10,10L310,10ZM274,166.008L46,166.008C26.118,166.008 10,149.882 10,130L310,130C310,149.882 293.882,166.008 274,166.008Z" style="fill:rgb(251,103,98);"/>
                    </g>
                </g>
            </g>
            <g id="g-root-cp_6_shape-6_3_v9vf7l1mm02ks-fill" transform="matrix(1,0,0,1,353,626)">
                <g id="cp_6_shape-6_3_v9vf7l1mm02ks-fill">
                    <g>
                        <path d="M10,10L10,130L310,130L310,10L10,10ZM46,166L274,166C293.882,166 310,149.898 310,130.016L310,130L10,130C10,149.882 26.118,166 46,166Z" style="fill:rgb(243,102,187);"/>
                    </g>
                </g>
            </g>
            <g id="g-root-tx__91iyf51mm1gy4-fill">
            </g>
            <g id="g-root-tx__qvxcch1mm02dc-fill">
            </g>
            <g id="g-root-tx_business_18jgibl1mm2tjf-fill" transform="matrix(1,0,0,1,98,464)">
                <g id="tx_business_18jgibl1mm2tjf-fill">
                    <g>
                        <g>
                            <g transform="matrix(1,0,0,1,14.67,34)">
                                <text x="0px" y="0px" style="font-family:'Arial-BoldMT', 'Arial', sans-serif;font-weight:700;font-size:20px;fill:rgb(44,44,44);">Business V<tspan x="106.338px 118.555px " y="0px 0px ">oI</tspan>P</text>
                            </g>
                            <g transform="matrix(1,0,0,1,36.46,58)">
                                <text x="0px" y="0px" style="font-family:'Arial-BoldMT', 'Arial', sans-serif;font-weight:700;font-size:20px;fill:rgb(44,44,44);">Providers</text>
                            </g>
                        </g>
                    </g>
                </g>
            </g>
            <g id="g-root-tx__18hl6811mlhrls-fill">
            </g>
            <g id="g-root-tx_resident_1luajlt1mm1hqb-fill" transform="matrix(1,0,0,1,473,254)">
                <g id="tx_resident_1luajlt1mm1hqb-fill">
                    <g>
                        <g>
                            <g transform="matrix(1,0,0,1,17.25,34)">
                                <text x="0px" y="0px" style="font-family:'Arial-BoldMT', 'Arial', sans-serif;font-weight:700;font-size:20px;fill:rgb(44,44,44);">Residential</text>
                            </g>
                            <g transform="matrix(1,0,0,1,24.45,58)">
                                <text x="0px" y="0px" style="font-family:'Arial-BoldMT', 'Arial', sans-serif;font-weight:700;font-size:20px;fill:rgb(44,44,44);">Providers</text>
                            </g>
                        </g>
                    </g>
                </g>
            </g>
            <g id="g-root-tx__5vy691mm2vwk-fill">
            </g>
            <g transform="matrix(1,0,0,1,99.87,288)">
                <g id="g-root-tx_voiprese_1ly1e4h1mm01l3-fill">
                    <g id="tx_voiprese_1ly1e4h1mm01l3-fill">
                        <g>
                            <g>
                                <text x="0px" y="0px" style="font-family:'Arial-BoldMT', 'Arial', sans-serif;font-weight:700;font-size:20px;fill:rgb(44,44,44);">V<tspan x="11.855px 24.072px 29.629px 42.607px 48.164px " y="0px 0px 0px 0px 0px ">oIP R</tspan>esellers</text>
                            </g>
                        </g>
                    </g>
                </g>
            </g>
            <g id="g-root-tx_enterpri_1lw620x1mlt1xh-fill" transform="matrix(1,0,0,1,107,674)">
                <g id="tx_enterpri_1lw620x1mlt1xh-fill">
                    <g>
                        <g>
                            <g transform="matrix(1,0,0,1,41.85,34)">
                                <text x="0px" y="0px" style="font-family:'Arial-BoldMT', 'Arial', sans-serif;font-weight:700;font-size:20px;fill:rgb(44,44,44);">Enterprise</text>
                            </g>
                            <g transform="matrix(1,0,0,1,16.8,58)">
                                <text x="0px" y="0px" style="font-family:'Arial-BoldMT', 'Arial', sans-serif;font-weight:700;font-size:20px;fill:rgb(44,44,44);">Communication</text>
                            </g>
                        </g>
                    </g>
                </g>
            </g>
            <g id="g-root-tx_internat_143n3cx1mlufig-fill" transform="matrix(1,0,0,1,407,674)">
                <g id="tx_internat_143n3cx1mlufig-fill">
                    <g>
                        <g>
                            <g transform="matrix(1,0,0,1,12.65,34)">
                                <text x="0px" y="0px" style="font-family:'Arial-BoldMT', 'Arial', sans-serif;font-weight:700;font-size:20px;fill:rgb(44,44,44);">International Calling</text>
                            </g>
                            <g transform="matrix(1,0,0,1,64.75,58)">
                                <text x="0px" y="0px" style="font-family:'Arial-BoldMT', 'Arial', sans-serif;font-weight:700;font-size:20px;fill:rgb(44,44,44);">Services</text>
                            </g>
                        </g>
                    </g>
                </g>
            </g>
            <g id="g-root-tx__hz1h351mlt0cm-fill">
            </g>
            <g id="g-root-tx__7rgld1mlug3l-fill">
            </g>
            <g transform="matrix(1,0,0,1,442.36,498)">
                <g id="g-root-tx_telecomo_8xs7291mlhte7-fill">
                    <g id="tx_telecomo_8xs7291mlhte7-fill">
                        <g>
                            <g>
                                <text x="0px" y="0px" style="font-family:'Arial-BoldMT', 'Arial', sans-serif;font-weight:700;font-size:20px;fill:rgb(44,44,44);">T<tspan x="10.732px 21.855px " y="0px 0px ">el</tspan>ecom Operators</text>
                            </g>
                        </g>
                    </g>
                </g>
            </g>
            <g id="g-root-cp_1_shape-1_m98m9t1mm0366-stroke" transform="matrix(1,0,0,1,35.5,55.8164)">
                <g id="cp_1_shape-1_m98m9t1mm0366-stroke">
                    <g>
                        <path d="M10,160.184C10,140.301 26.118,124.321 46,124.321L172,124.321C213.07,124.321 238,94.191 238,54.851L238,28.191L233.32,28.191C232.54,28.191 232.05,27.341 232.44,26.661L243.163,10.448C243.559,9.849 244.439,9.851 244.833,10.451L255.48,26.661C255.88,27.341 255.39,28.191 254.6,28.191L250,28.191L250,160.184M250,280.184C250,300.066 233.882,316.191 214,316.191L46,316.191C26.118,316.191 10,300.081 10,280.199L10,280.184M250,280.184L250,160.184M10,160.184L10,280.184" style="fill:none;stroke:rgb(44,44,44);stroke-width:2px;"/>
                    </g>
                </g>
            </g>
            <g id="g-root-cp_3_shape-3_4il2v51mm02dk-stroke" transform="matrix(1,0,0,1,35,326)">
                <g id="cp_3_shape-3_4il2v51mm02dk-stroke">
                    <g>
                        <path d="M268,10C268,46 244,64.321 214,64.321L46,64.321C26.118,64.321 10,80.423 10,100.306M280,100.306L280,10" style="fill:none;stroke:rgb(44,44,44);stroke-width:2px;"/>
                    </g>
                </g>
            </g>
            <g id="g-root-cp_3_shape-3_1_1q8v3k11mm00lm-stroke" transform="matrix(1,0,0,1,287.303,56)">
                <g id="cp_3_shape-3_1_1q8v3k11mm00lm-stroke">
                    <g>
                        <path d="M15.697,160L15.697,280M27.697,280L27.697,160M15.697,160L15.697,28.191L11.017,28.191C10.237,28.191 9.747,27.341 10.137,26.661L20.86,10.448C21.256,9.849 22.136,9.851 22.53,10.451L33.177,26.661C33.577,27.341 33.087,28.191 32.297,28.191L27.697,28.191L27.697,160" style="fill:none;stroke:rgb(44,44,44);stroke-width:2px;"/>
                    </g>
                </g>
            </g>
            <g id="g-root-cp_5_shape-5_18hl3291mm02ys-stroke" transform="matrix(1,0,0,1,317.303,56)">
                <g id="cp_5_shape-5_18hl3291mm02ys-stroke">
                    <g>
                        <path d="M15.697,160L15.697,280M27.697,280L27.697,160M15.697,160L15.697,28.191L11.017,28.191C10.237,28.191 9.747,27.341 10.137,26.661L20.86,10.448C21.256,9.849 22.136,9.851 22.53,10.451L33.177,26.661C33.577,27.341 33.087,28.191 32.297,28.191L27.697,28.191L27.697,160" style="fill:none;stroke:rgb(44,44,44);stroke-width:2px;"/>
                    </g>
                </g>
            </g>
            <g id="g-root-cp_2_shape-2_v6r1s11mm01dy-stroke" transform="matrix(1,0,0,1,407.878,55.8164)">
                <g id="cp_2_shape-2_v6r1s11mm01dy-stroke">
                    <g>
                        <path d="M255.622,160.184C255.622,140.301 239.505,124.321 219.623,124.321L93.622,124.321C52.552,124.321 27.622,94.191 27.622,54.851L27.622,28.191L32.302,28.191C33.082,28.191 33.572,27.341 33.182,26.661L22.459,10.448C22.063,9.849 21.184,9.851 20.79,10.451L10.142,26.661C9.742,27.341 10.232,28.191 11.022,28.191L15.622,28.191L15.622,160.184M15.622,280.184C15.622,300.066 31.74,316.184 51.622,316.184L219.623,316.183C239.505,316.183 255.622,300.081 255.622,280.199L255.622,280.184M15.622,280.184L15.622,160.184M255.622,160.184L255.622,280.184" style="fill:none;stroke:rgb(44,44,44);stroke-width:2px;"/>
                    </g>
                </g>
            </g>
            <g id="g-root-cp_4_shape-4_hvajep1mm02yw-stroke" transform="matrix(1,0,0,1,383,326)">
                <g id="cp_4_shape-4_hvajep1mm02yw-stroke">
                    <g>
                        <path d="M22,10C22,46 46,64.321 76,64.321L244,64.321C263.882,64.321 280,80.423 280,100.306M10,100.306L10,10" style="fill:none;stroke:rgb(44,44,44);stroke-width:2px;"/>
                    </g>
                </g>
            </g>
            <g id="g-root-cp_4_shape-4_1_4kgi4h1mm01e2-stroke" transform="matrix(1,0,0,1,377.383,56)">
                <g id="cp_4_shape-4_1_4kgi4h1mm01e2-stroke">
                    <g>
                        <path d="M27.622,160L27.622,280M15.622,280L15.622,160M27.622,160L27.622,28.191L32.302,28.191C33.082,28.191 33.572,27.341 33.182,26.661L22.459,10.448C22.063,9.849 21.184,9.851 20.79,10.451L10.142,26.661C9.742,27.341 10.232,28.191 11.022,28.191L15.622,28.191L15.622,160" style="fill:none;stroke:rgb(44,44,44);stroke-width:2px;"/>
                    </g>
                </g>
            </g>
            <g id="g-root-cp_6_shape-6_1qa41q91mm02rw-stroke" transform="matrix(1,0,0,1,347.383,56)">
                <g id="cp_6_shape-6_1qa41q91mm02rw-stroke">
                    <g>
                        <path d="M27.622,160L27.622,280M15.622,280L15.622,160M27.622,160L27.622,28.191L32.302,28.191C33.082,28.191 33.572,27.341 33.182,26.661L22.459,10.448C22.063,9.849 21.184,9.851 20.79,10.451L10.142,26.661C9.742,27.341 10.232,28.191 11.022,28.191L15.622,28.191L15.622,160" style="fill:none;stroke:rgb(44,44,44);stroke-width:2px;"/>
                    </g>
                </g>
            </g>
            <g id="g-root-cp_3_shape-3_2_1lux0ox1mm00ee-stroke" transform="matrix(1,0,0,1,35,416)">
                <g id="cp_3_shape-3_2_1lux0ox1mm00ee-stroke">
                    <g>
                        <path d="M280,129.98L280,10M10,10L10,130M280,130.008C280,149.89 263.882,166.008 244,166.008L46,166.008C26.118,166.008 10,149.906 10,130.023L10,130.008" style="fill:none;stroke:rgb(44,44,44);stroke-width:2px;"/>
                    </g>
                </g>
            </g>
            <g id="g-root-cp_5_shape-5_1_143n0751mm02rk-stroke" transform="matrix(1,0,0,1,323,326)">
                <g id="cp_5_shape-5_1_143n0751mm02rk-stroke">
                    <g>
                        <path d="M10,10L10,220M22,220L22,10" style="fill:none;stroke:rgb(44,44,44);stroke-width:2px;"/>
                    </g>
                </g>
            </g>
            <g id="g-root-cp_5_shape-5_2_qssywx1mm016q-stroke" transform="matrix(1,0,0,1,35,536)">
                <g id="cp_5_shape-5_2_qssywx1mm016q-stroke">
                    <g>
                        <path d="M298,10C298,45.878 274,64.137 244,64.137L46,64.137C26.118,64.137 10,80.185 10,100M310,100L310,10" style="fill:none;stroke:rgb(44,44,44);stroke-width:2px;"/>
                    </g>
                </g>
            </g>
            <g id="g-root-cp_4_shape-4_2_dhcgjl1mm02ro-stroke" transform="matrix(1,0,0,1,383,416)">
                <g id="cp_4_shape-4_2_dhcgjl1mm02ro-stroke">
                    <g>
                        <path d="M10,130L10,10M280,10L280,130M10,130C10,149.882 26.118,166.008 46,166.008L244,166.008C263.882,166.008 280,149.898 280,130.016L280,130" style="fill:none;stroke:rgb(44,44,44);stroke-width:2px;"/>
                    </g>
                </g>
            </g>
            <g id="g-root-cp_6_shape-6_1_6if9d1mm016u-stroke" transform="matrix(1,0,0,1,353,326)">
                <g id="cp_6_shape-6_1_6if9d1mm016u-stroke">
                    <g>
                        <path d="M22,10L22,220M10,220L10,10" style="fill:none;stroke:rgb(44,44,44);stroke-width:2px;"/>
                    </g>
                </g>
            </g>
            <g id="g-root-cp_6_shape-6_2_1ursz411mm01s0-stroke" transform="matrix(1,0,0,1,353,536)">
                <g id="cp_6_shape-6_2_1ursz411mm01s0-stroke">
                    <g>
                        <path d="M22,10C22,46 46,64.321 76,64.321L274,64.321C293.882,64.321 310,80.423 310,100.306M10,100.306L10,10" style="fill:none;stroke:rgb(44,44,44);stroke-width:2px;"/>
                    </g>
                </g>
            </g>
            <g id="g-root-cp_5_shape-5_3_18lbxkx1mm00zu-stroke" transform="matrix(1,0,0,1,35,626)">
                <g id="cp_5_shape-5_3_18lbxkx1mm00zu-stroke">
                    <g>
                        <path d="M310,130L310,10M10,10L10,130M310,130C310,149.882 293.882,166.008 274,166.008L46,166.008C26.118,166.008 10,149.882 10,130" style="fill:none;stroke:rgb(44,44,44);stroke-width:2px;"/>
                    </g>
                </g>
            </g>
            <g id="g-root-cp_6_shape-6_3_v9vf7l1mm02ks-stroke" transform="matrix(1,0,0,1,353,626)">
                <g id="cp_6_shape-6_3_v9vf7l1mm02ks-stroke">
                    <g>
                        <path d="M10,130L10,10M310,10L310,130M10,130C10,149.882 26.118,166.008 46,166.008L274,166.008C293.882,166.008 310,149.898 310,130.016L310,130" style="fill:none;stroke:rgb(44,44,44);stroke-width:2px;"/>
                    </g>
                </g>
            </g>
            <g id="g-root-ic_mobi_v9vf7l1mm2u4l-stroke" transform="matrix(1,0,0,1,146,404)">
                <g id="ic_mobi_v9vf7l1mm2u4l-stroke">
                    <g>
                        <path d="M55,37L45,37C43.895,37 43,37.895 43,39L43,55C43,56.105 43.895,57 45,57L55,57C56.105,57 57,56.105 57,55L57,39C57,37.895 56.105,37 55,37ZM11,41C11,37.817 12.264,34.765 14.515,32.515C16.765,30.264 19.817,29 23,29C26.183,29 29.235,30.264 31.485,32.515C33.736,34.765 35,37.817 35,41L11,41ZM23,26C27.142,26 30.5,22.642 30.5,18.5C30.5,14.358 27.142,11 23,11C18.858,11 15.5,14.358 15.5,18.5C15.5,22.642 18.858,26 23,26ZM42,26C46.142,26 49.5,22.642 49.5,18.5C49.5,14.358 46.142,11 42,11C37.858,11 34.5,14.358 34.5,18.5C34.5,22.642 37.858,26 42,26ZM50.926,32.98C49.094,30.941 46.619,29.592 43.913,29.155C41.208,28.719 38.434,29.221 36.054,30.58M50,52.5C49.724,52.5 49.5,52.276 49.5,52C49.5,51.724 49.724,51.5 50,51.5M50,52.5C50.276,52.5 50.5,52.276 50.5,52C50.5,51.724 50.276,51.5 50,51.5" style="fill:none;stroke:rgb(44,44,44);stroke-width:2px;"/>
                    </g>
                </g>
            </g>
            <g id="g-root-ic_moni_4ju4751mlht6p-stroke" transform="matrix(1,0,0,1,494,404)">
                <g id="ic_moni_4ju4751mlht6p-stroke">
                    <g>
                        <path d="M20.732,50.168L48.056,50.168M22.558,50.612L22.558,56.098M45.786,50.5L45.786,56.098M26.998,33.224L40.998,33.224C40.998,33.224 42.998,33.224 42.998,35.224L42.998,43.224C42.998,43.224 42.998,45.224 40.998,45.224L26.998,45.224C26.998,45.224 24.998,45.224 24.998,43.224L24.998,35.224C24.998,35.224 24.998,33.224 26.998,33.224M31.956,45.224C31.776,47.127 30.885,48.892 29.462,50.168M36.038,45.224C36.218,47.127 37.109,48.892 38.532,50.168M18.15,22.744C18.015,24.462 17.271,26.076 16.052,27.294M21.58,22.744C21.715,24.462 22.459,26.076 23.678,27.294M45.414,22.744C45.279,24.462 44.535,26.076 43.316,27.294M48.844,22.744C48.979,24.462 49.723,26.076 50.942,27.294M11.998,27.294L56.268,27.294M13.822,27.738L13.822,36.224M53.998,27.628L53.998,36.224M40.998,11.902L53.262,11.902C53.262,11.902 55.262,11.902 55.262,13.902L55.262,20.744C55.262,20.744 55.262,22.744 53.262,22.744L40.998,22.744C40.998,22.744 38.998,22.744 38.998,20.744L38.998,13.902C38.998,13.902 38.998,11.902 40.998,11.902M13.732,11.902L25.996,11.902C25.996,11.902 27.996,11.902 27.996,13.902L27.996,20.744C27.996,20.744 27.996,22.744 25.996,22.744L13.732,22.744C13.732,22.744 11.732,22.744 11.732,20.744L11.732,13.902C11.732,13.902 11.732,11.902 13.732,11.902" style="fill:none;stroke:rgb(44,44,44);stroke-width:2px;"/>
                    </g>
                </g>
            </g>
            <g id="g-root-ic_call_1d0iym91mm1hj9-stroke" transform="matrix(1,0,0,1,509.5,194)">
                <g id="ic_call_1d0iym91mm1hj9-stroke">
                    <g>
                        <path d="M57,27L39,11L21,27M51,21.668L51,39C51,40.105 50.105,41 49,41L29,41C27.895,41 27,40.105 27,39L27,21.668M21,43L21,55C21,55 21,57 19,57L13,57C13,57 11,57 11,55L11,43C11,43 11,41 13,41L19,41C19,41 21,41 21,43M18.676,36.028C17.155,34.659 14.845,34.659 13.324,36.028M21,32.756C18.077,30.416 13.923,30.416 11,32.756M16,52C16.276,52 16.5,52.224 16.5,52.5C16.5,52.776 16.276,53 16,53C15.724,53 15.5,52.776 15.5,52.5C15.5,52.224 15.724,52 16,52M40.498,36.846C39.723,36.319 39.243,35.457 39.202,34.521C39.16,33.584 39.563,32.684 40.288,32.09L41.004,31.374C41.347,31.031 41.811,30.838 42.296,30.838C42.781,30.838 43.245,31.031 43.588,31.374L46.686,34.474C46.939,34.727 47.049,35.089 46.978,35.44C46.907,35.79 46.665,36.081 46.334,36.216C42.366,37.832 37.815,36.913 34.785,33.883C31.756,30.853 30.837,26.302 32.454,22.334C32.589,22.003 32.88,21.761 33.23,21.69C33.581,21.619 33.943,21.729 34.196,21.982L37.296,25.082C37.639,25.424 37.831,25.889 37.831,26.373C37.831,26.857 37.639,27.322 37.296,27.664L36.58,28.382C35.986,29.107 35.086,29.51 34.149,29.468C33.213,29.427 32.351,28.947 31.824,28.172" style="fill:none;stroke:rgb(44,44,44);stroke-width:2px;"/>
                    </g>
                </g>
            </g>
            <g id="g-root-ic_meet_1hi7z5t1mlt0y7-stroke" transform="matrix(1,0,0,1,161,614)">
                <g id="ic_meet_1hi7z5t1mlt0y7-stroke">
                    <g>
                        <path d="M29.5,15.5C29.5,17.985 31.515,20 34,20C36.485,20 38.5,17.985 38.5,15.5C38.5,13.015 36.485,11 34,11C31.515,11 29.5,13.015 29.5,15.5M43,29C41.933,24.903 38.234,22.043 34,22.043C29.766,22.043 26.067,24.903 25,29L43,29ZM15.5,43.5C15.5,45.985 17.515,48 20,48C22.485,48 24.5,45.985 24.5,43.5C24.5,41.015 22.485,39 20,39C17.515,39 15.5,41.015 15.5,43.5M29,57C27.933,52.903 24.234,50.043 20,50.043C15.766,50.043 12.067,52.903 11,57L29,57ZM43.5,43.5C43.5,45.985 45.515,48 48,48C50.485,48 52.5,45.985 52.5,43.5C52.5,41.015 50.485,39 48,39C45.515,39 43.5,41.015 43.5,43.5M57,57C55.933,52.903 52.234,50.043 48,50.043C43.766,50.043 40.067,52.903 39,57L57,57ZM40,47.84C36.151,49.397 31.849,49.397 28,47.84M43,19.78C47.97,23.159 50.627,29.037 49.88,35M25,19.78C20.03,23.159 17.373,29.037 18.12,35" style="fill:none;stroke:rgb(44,44,44);stroke-width:2px;"/>
                    </g>
                </g>
            </g>
            <g id="g-root-ic_pick_1qf3uf51mm02yx-stroke" transform="matrix(1,0,0,1,131.5,194)">
                <g id="ic_pick_1qf3uf51mm02yx-stroke">
                    <g>
                        <path d="M47.164,39.562C49.216,39.734 50.793,41.453 50.788,43.512C50.783,45.572 49.197,47.282 47.144,47.444M54.378,56.744C52.974,54.025 50.234,52.254 47.178,52.092M27.802,41.8C27.801,45.497 30.799,48.495 34.496,48.495C38.193,48.495 41.191,45.497 41.19,41.8C41.191,38.103 38.193,35.105 34.496,35.105C30.799,35.105 27.801,38.103 27.802,41.8M24.234,57C25.782,52.745 29.795,49.887 34.322,49.815C38.85,49.743 42.952,52.472 44.634,56.676M20.836,39.562C18.784,39.734 17.207,41.453 17.212,43.512C17.217,45.572 18.803,47.282 20.856,47.444M13.622,56.744C15.026,54.025 17.766,52.254 20.822,52.092M30.232,20.156C30.232,22.477 32.113,24.358 34.434,24.358C36.755,24.358 38.636,22.477 38.636,20.156C38.636,17.835 36.755,15.954 34.434,15.954C32.113,15.954 30.232,17.835 30.232,20.156M30.482,21.588L23.872,27.67L27.124,32.39M38.386,21.588L44.998,27.67L41.744,32.39M34.434,15.954L34.434,11" style="fill:none;stroke:rgb(44,44,44);stroke-width:2px;"/>
                    </g>
                </g>
            </g>
            <g id="g-root-ic_user_zqxyo11mlugp6-stroke" transform="matrix(1,0,0,1,479,614)">
                <g id="ic_user_zqxyo11mlugp6-stroke">
                    <g>
                        <path d="M13.796,45L34.03,45M15.024,21L52.992,21M34,33L11.022,33M32.756,56.968C21.148,56.326 11.845,47.123 11.077,35.523C10.309,23.923 18.317,13.574 29.739,11.406C41.16,9.239 52.403,15.935 55.938,27.01M32.538,11.052C20.538,24.052 20.756,40.968 32.756,56.968M35.46,11.052C39.692,15.475 42.588,21.003 43.816,27M57,57C57,51.477 52.523,47 47,47C41.477,47 37,51.477 37,57L57,57ZM41,38.002C41,41.316 43.686,44.002 47,44.002C50.314,44.002 53,41.316 53,38.002C53,34.688 50.314,32.002 47,32.002C43.686,32.002 41,34.688 41,38.002Z" style="fill:none;stroke:rgb(44,44,44);stroke-width:2px;"/>
                    </g>
                </g>
            </g>
        </g>
    </g>
</svg>
