<?xml version="1.0" encoding="UTF-8" standalone="no"?>
<!DOCTYPE svg PUBLIC "-//W3C//DTD SVG 1.1//EN" "http://www.w3.org/Graphics/SVG/1.1/DTD/svg11.dtd">
<svg width="100%" height="100%" viewBox="0 0 576 784" version="1.1" xmlns="http://www.w3.org/2000/svg" xmlns:xlink="http://www.w3.org/1999/xlink" xml:space="preserve" xmlns:serif="http://www.serif.com/" style="fill-rule:evenodd;clip-rule:evenodd;stroke-linecap:round;stroke-linejoin:round;">
    <g id="items" transform="matrix(1.07658,0,0,1.07658,-22.0556,-60.3175)">
        <g id="blend">
            <g id="g-root-cp_5_text-5_140ipn61qrfy0w-fill" transform="matrix(1,0,0,1,50,98)">
                <g id="cp_5_text-5_140ipn61qrfy0w-fill">
                    <g>
                        <rect x="10" y="10" width="228" height="156" style="fill:rgb(247,148,56);"/>
                    </g>
                </g>
            </g>
            <g id="g-root-cp_5_stick-5_qpoocy1qrfwg2-fill" transform="matrix(1,0,0,1,266,254)">
                <g id="cp_5_stick-5_qpoocy1qrfwg2-fill">
                    <g>
                        <rect x="10" y="10" width="12" height="396" style="fill:rgb(247,148,56);"/>
                    </g>
                </g>
            </g>
            <g id="g-root-cp_3_text-3_hu1o421qrfx8s-fill" transform="matrix(1,0,0,1,38,254)">
                <g id="cp_3_text-3_hu1o421qrfx8s-fill">
                    <g>
                        <rect x="10" y="10" width="228" height="180" style="fill:rgb(26,195,251);"/>
                    </g>
                </g>
            </g>
            <g id="g-root-cp_3_stick-3_3e4pe1qrfwg6-fill" transform="matrix(1,0,0,1,254,434)">
                <g id="cp_3_stick-3_3e4pe1qrfwg6-fill">
                    <g>
                        <rect x="10" y="10" width="12" height="216" style="fill:rgb(26,195,251);"/>
                    </g>
                </g>
            </g>
            <g id="g-root-cp_1_text-1_1uoook21qrfx1c-fill" transform="matrix(1,0,0,1,26,434)">
                <g id="cp_1_text-1_1uoook21qrfx1c-fill">
                    <g>
                        <rect x="10" y="10" width="228" height="180" style="fill:rgb(67,221,147);"/>
                    </g>
                </g>
            </g>
            <g id="g-root-cp_1_stick-1_1hdun9u1qrfvgi-fill" transform="matrix(1,0,0,1,242,518)">
                <g id="cp_1_stick-1_1hdun9u1qrfvgi-fill">
                    <g>
                        <rect x="10" y="10" width="12" height="132" style="fill:rgb(67,221,147);"/>
                    </g>
                </g>
            </g>
            <g id="g-root-cp_6_text-6_v6r4nm1qrfxu4-fill" transform="matrix(1,0,0,1,278,146)">
                <g id="cp_6_text-6_v6r4nm1qrfxu4-fill">
                    <g>
                        <rect x="10" y="10" width="228" height="156" style="fill:rgb(251,103,98);"/>
                    </g>
                </g>
            </g>
            <g id="g-root-cp_6_stick-6_dg3l8y1qrfx1i-fill" transform="matrix(1,0,0,1,278,302)">
                <g id="cp_6_stick-6_dg3l8y1qrfx1i-fill">
                    <g>
                        <rect x="10" y="10" width="12" height="348" style="fill:rgb(251,103,98);"/>
                    </g>
                </g>
            </g>
            <g id="g-root-cp_4_text-4_90a34i1qrfxts-fill" transform="matrix(1,0,0,1,290,302)">
                <g id="cp_4_text-4_90a34i1qrfxts-fill">
                    <g>
                        <rect x="10" y="10" width="228" height="156" style="fill:rgb(255,231,17);"/>
                    </g>
                </g>
            </g>
            <g id="g-root-cp_4_stick-4_1uqk3te1qrfw1u-fill" transform="matrix(1,0,0,1,290,458)">
                <g id="cp_4_stick-4_1uqk3te1qrfw1u-fill">
                    <g>
                        <rect x="10" y="10" width="12" height="192" style="fill:rgb(255,231,17);"/>
                    </g>
                </g>
            </g>
            <g id="g-root-cp_2_text-2_1lux3ki1qrfwuk-fill" transform="matrix(1,0,0,1,302,458)">
                <g id="cp_2_text-2_1lux3ki1qrfwuk-fill">
                    <g>
                        <rect x="10" y="10" width="228" height="144" style="fill:rgb(166,218,55);"/>
                    </g>
                </g>
            </g>
            <g id="g-root-cp_2_stick-2_1449k5u1qrfw1y-fill" transform="matrix(1,0,0,1,302,542)">
                <g id="cp_2_stick-2_1449k5u1qrfw1y-fill">
                    <g>
                        <rect x="10" y="10" width="12" height="108" style="fill:rgb(166,218,55);"/>
                    </g>
                </g>
            </g>
            <g id="g-root-cp_0_g-0_qst1si1qrfxmw-fill" transform="matrix(1,0,0,1,242,650)">
                <g id="cp_0_g-0_qst1si1qrfxmw-fill">
                    <g>
                        <path d="M33.994,61L46.01,86L58.005,61L33.994,61Z" style="fill:rgb(232,232,232);"/>
                    </g>
                </g>
                <g id="cp_0_g-0_qst1si1qrfxmw-fill1" serif:id="cp_0_g-0_qst1si1qrfxmw-fill">
                    <g>
                        <path d="M82,10L10,10L34,61L58.001,61L82,10Z" style="fill:rgb(232,232,232);"/>
                    </g>
                </g>
            </g>
            <g id="g-root-tx_wideinte_1hgz0pe1qrha19-fill" transform="matrix(1,0,0,1,86,266)">
                <g id="tx_wideinte_1hgz0pe1qrha19-fill">
                    <g>
                        <g>
                            <g transform="matrix(1,0,0,1,83.13,34)">
                                <text x="0px" y="0px" style="font-family:'Arial-BoldMT', 'Arial', sans-serif;font-weight:700;font-size:20px;fill:rgb(44,44,44);">W<tspan x="18.701px 24.258px " y="0px 0px ">id</tspan>e</text>
                            </g>
                            <g transform="matrix(1,0,0,1,13.57,58)">
                                <text x="0px" y="0px" style="font-family:'Arial-BoldMT', 'Arial', sans-serif;font-weight:700;font-size:20px;fill:rgb(44,44,44);">International</text>
                            </g>
                            <g transform="matrix(1,0,0,1,43.03,82)">
                                <text x="0px" y="0px" style="font-family:'Arial-BoldMT', 'Arial', sans-serif;font-weight:700;font-size:20px;fill:rgb(44,44,44);">Coverage</text>
                            </g>
                        </g>
                    </g>
                </g>
            </g>
            <g id="g-root-tx_detailed_5w11u1qrk5ql-fill" transform="matrix(1,0,0,1,338,218)">
                <g id="tx_detailed_5w11u1qrk5ql-fill">
                    <g>
                        <g>
                            <g transform="matrix(1,0,0,1,12,28.2)">
                                <text x="0px" y="0px" style="font-family:'ArialMT', 'Arial', sans-serif;font-size:15px;fill:rgb(44,44,44);">Detailed insights for</text>
                            </g>
                            <g transform="matrix(1,0,0,1,12,46.2)">
                                <text x="0px" y="0px" style="font-family:'ArialMT', 'Arial', sans-serif;font-size:15px;fill:rgb(44,44,44);">informed decision-</text>
                            </g>
                            <g transform="matrix(1,0,0,1,12,64.2)">
                                <text x="0px" y="0px" style="font-family:'ArialMT', 'Arial', sans-serif;font-size:15px;fill:rgb(44,44,44);">making and</text>
                            </g>
                            <g transform="matrix(1,0,0,1,12,82.2)">
                                <text x="0px" y="0px" style="font-family:'ArialMT', 'Arial', sans-serif;font-size:15px;fill:rgb(44,44,44);">performance tracking.</text>
                            </g>
                        </g>
                    </g>
                </g>
            </g>
            <g id="g-root-tx_extensiv_meuyxe1qrhati-fill" transform="matrix(1,0,0,1,50,350)">
                <g id="tx_extensiv_meuyxe1qrhati-fill">
                    <g>
                        <g>
                            <g transform="matrix(1,0,0,1,14.92,28.2)">
                                <text x="0px" y="0px" style="font-family:'ArialMT', 'Arial', sans-serif;font-size:15px;fill:rgb(44,44,44);">Extensive global reach</text>
                            </g>
                            <g transform="matrix(1,0,0,1,57.92,46.2)">
                                <text x="0px" y="0px" style="font-family:'ArialMT', 'Arial', sans-serif;font-size:15px;fill:rgb(44,44,44);">for international</text>
                            </g>
                            <g transform="matrix(1,0,0,1,59.7,64.2)">
                                <text x="0px" y="0px" style="font-family:'ArialMT', 'Arial', sans-serif;font-size:15px;fill:rgb(44,44,44);">communication</text>
                            </g>
                            <g transform="matrix(1,0,0,1,119.65,82.2)">
                                <text x="0px" y="0px" style="font-family:'ArialMT', 'Arial', sans-serif;font-size:15px;fill:rgb(44,44,44);">needs.</text>
                            </g>
                        </g>
                    </g>
                </g>
            </g>
            <g id="g-root-tx_tailored_zntkya1qrliby-fill" transform="matrix(1,0,0,1,350,374)">
                <g id="tx_tailored_zntkya1qrliby-fill">
                    <g>
                        <g>
                            <g transform="matrix(1,0,0,1,12,28.2)">
                                <text x="0px" y="0px" style="font-family:'ArialMT', 'Arial', sans-serif;font-size:15px;fill:rgb(44,44,44);">T<tspan x="7.5px 15.842px " y="0px 0px ">ai</tspan>lored routing</text>
                            </g>
                            <g transform="matrix(1,0,0,1,12,46.2)">
                                <text x="0px" y="0px" style="font-family:'ArialMT', 'Arial', sans-serif;font-size:15px;fill:rgb(44,44,44);">solutions to meet</text>
                            </g>
                            <g transform="matrix(1,0,0,1,12,64.2)">
                                <g transform="matrix(15,0,0,15,35.0171,0)">
                                </g>
                                <g transform="matrix(15,0,0,15,39.1846,0)">
                                </g>
                                <text x="0px" y="0px" style="font-family:'ArialMT', 'Arial', sans-serif;font-size:15px;fill:rgb(44,44,44);">speciﬁc business</text>
                            </g>
                            <g transform="matrix(1,0,0,1,12,82.2)">
                                <text x="0px" y="0px" style="font-family:'ArialMT', 'Arial', sans-serif;font-size:15px;fill:rgb(44,44,44);">requirements.</text>
                            </g>
                        </g>
                    </g>
                </g>
            </g>
            <g id="g-root-tx_robustan_zntkya1qrk4xw-fill" transform="matrix(1,0,0,1,338,158)">
                <g id="tx_robustan_zntkya1qrk4xw-fill">
                    <g>
                        <g>
                            <g transform="matrix(1,0,0,1,12,34)">
                                <text x="0px" y="0px" style="font-family:'Arial-BoldMT', 'Arial', sans-serif;font-weight:700;font-size:20px;fill:rgb(44,44,44);">Robust <tspan x="73.691px 88.135px " y="0px 0px ">An</tspan>alytics</text>
                            </g>
                            <g transform="matrix(1,0,0,1,12,58)">
                                <text x="0px" y="0px" style="font-family:'Arial-BoldMT', 'Arial', sans-serif;font-weight:700;font-size:20px;fill:rgb(44,44,44);">&amp; Reporting</text>
                            </g>
                        </g>
                    </g>
                </g>
            </g>
            <g id="g-root-tx_competit_1uoook21qriolm-fill" transform="matrix(1,0,0,1,74,446)">
                <g id="tx_competit_1uoook21qriolm-fill">
                    <g>
                        <g>
                            <g transform="matrix(1,0,0,1,19.33,34)">
                                <text x="0px" y="0px" style="font-family:'Arial-BoldMT', 'Arial', sans-serif;font-weight:700;font-size:20px;fill:rgb(44,44,44);">Competitive</text>
                            </g>
                            <g transform="matrix(1,0,0,1,64.13,58)">
                                <text x="0px" y="0px" style="font-family:'Arial-BoldMT', 'Arial', sans-serif;font-weight:700;font-size:20px;fill:rgb(44,44,44);">Pricing</text>
                            </g>
                        </g>
                    </g>
                </g>
            </g>
            <g id="g-root-tx_advanced_hz1gsy1qrfxfx-fill" transform="matrix(1,0,0,1,74,170)">
                <g id="tx_advanced_hz1gsy1qrfxfx-fill">
                    <g>
                        <g>
                            <g transform="matrix(1,0,0,1,29.62,28.2)">
                                <text x="0px" y="0px" style="font-family:'ArialMT', 'Arial', sans-serif;font-size:15px;fill:rgb(44,44,44);">Advanced security</text>
                            </g>
                            <g transform="matrix(1,0,0,1,69.03,46.2)">
                                <text x="0px" y="0px" style="font-family:'ArialMT', 'Arial', sans-serif;font-size:15px;fill:rgb(44,44,44);">measures to</text>
                            </g>
                            <g transform="matrix(1,0,0,1,31.78,64.2)">
                                <text x="0px" y="0px" style="font-family:'ArialMT', 'Arial', sans-serif;font-size:15px;fill:rgb(44,44,44);">safeguard against</text>
                            </g>
                            <g transform="matrix(1,0,0,1,16.65,82.2)">
                                <text x="0px" y="0px" style="font-family:'ArialMT', 'Arial', sans-serif;font-size:15px;fill:rgb(44,44,44);">fraudulent activities.</text>
                            </g>
                        </g>
                    </g>
                </g>
            </g>
            <g id="g-root-tx_exceptio_dkgwuq1qrliq2-fill" transform="matrix(1,0,0,1,362,470)">
                <g id="tx_exceptio_dkgwuq1qrliq2-fill">
                    <g>
                        <g>
                            <g transform="matrix(1,0,0,1,12,34)">
                                <text x="0px" y="0px" style="font-family:'Arial-BoldMT', 'Arial', sans-serif;font-weight:700;font-size:20px;fill:rgb(44,44,44);">Exceptional Call</text>
                            </g>
                            <g transform="matrix(1,0,0,1,12,58)">
                                <text x="0px" y="0px" style="font-family:'Arial-BoldMT', 'Arial', sans-serif;font-weight:700;font-size:20px;fill:rgb(44,44,44);">Quality</text>
                            </g>
                        </g>
                    </g>
                </g>
            </g>
            <g id="g-root-tx_costeffe_qqxmj61qriq6k-fill" transform="matrix(1,0,0,1,50,506)">
                <g id="tx_costeffe_qqxmj61qriq6k-fill">
                    <g>
                        <g>
                            <g transform="matrix(1,0,0,1,59.22,31.2)">
                                <g transform="matrix(15,0,0,15,44.1797,0)">
                                </g>
                                <g transform="matrix(15,0,0,15,48.186,0)">
                                </g>
                                <text x="0px" y="0px" style="font-family:'ArialMT', 'Arial', sans-serif;font-size:15px;fill:rgb(44,44,44);">Cost-eﬀective</text>
                            </g>
                            <g transform="matrix(1,0,0,1,13.8,49.2)">
                                <text x="0px" y="0px" style="font-family:'ArialMT', 'Arial', sans-serif;font-size:15px;fill:rgb(44,44,44);">solutions for budget-</text>
                            </g>
                            <g transform="matrix(1,0,0,1,83.5,67.2)">
                                <text x="0px" y="0px" style="font-family:'ArialMT', 'Arial', sans-serif;font-size:15px;fill:rgb(44,44,44);">conscious</text>
                            </g>
                            <g transform="matrix(1,0,0,1,47.7,85.2)">
                                <text x="0px" y="0px" style="font-family:'ArialMT', 'Arial', sans-serif;font-size:15px;fill:rgb(44,44,44);">communication</text>
                            </g>
                            <g transform="matrix(1,0,0,1,107.65,103.2)">
                                <text x="0px" y="0px" style="font-family:'ArialMT', 'Arial', sans-serif;font-size:15px;fill:rgb(44,44,44);">needs.</text>
                            </g>
                        </g>
                    </g>
                </g>
            </g>
            <g id="g-root-tx_comprehe_18lc0gi1qrfxfw-fill" transform="matrix(1,0,0,1,62,110)">
                <g id="tx_comprehe_18lc0gi1qrfxfw-fill">
                    <g>
                        <g>
                            <g transform="matrix(1,0,0,1,23.55,34)">
                                <text x="0px" y="0px" style="font-family:'Arial-BoldMT', 'Arial', sans-serif;font-weight:700;font-size:20px;fill:rgb(44,44,44);">Comprehensive</text>
                            </g>
                            <g transform="matrix(1,0,0,1,14.42,58)">
                                <text x="0px" y="0px" style="font-family:'Arial-BoldMT', 'Arial', sans-serif;font-weight:700;font-size:20px;fill:rgb(44,44,44);">Fraud Protection</text>
                            </g>
                        </g>
                    </g>
                </g>
            </g>
            <g id="g-root-tx_superior_13ynadu1qrmwas-fill" transform="matrix(1,0,0,1,362,530)">
                <g id="tx_superior_13ynadu1qrmwas-fill">
                    <g>
                        <g>
                            <g transform="matrix(1,0,0,1,12,31.2)">
                                <text x="0px" y="0px" style="font-family:'ArialMT', 'Arial', sans-serif;font-size:15px;fill:rgb(44,44,44);">Superior audio clarity</text>
                            </g>
                            <g transform="matrix(1,0,0,1,12,49.2)">
                                <text x="0px" y="0px" style="font-family:'ArialMT', 'Arial', sans-serif;font-size:15px;fill:rgb(44,44,44);">for professional and</text>
                            </g>
                            <g transform="matrix(1,0,0,1,12,67.2)">
                                <text x="0px" y="0px" style="font-family:'ArialMT', 'Arial', sans-serif;font-size:15px;fill:rgb(44,44,44);">reliable calls.</text>
                            </g>
                        </g>
                    </g>
                </g>
            </g>
            <g id="g-root-tx_customiz_4n2vm1qrlhqd-fill" transform="matrix(1,0,0,1,350,314)">
                <g id="tx_customiz_4n2vm1qrlhqd-fill">
                    <g>
                        <g>
                            <g transform="matrix(1,0,0,1,12,34)">
                                <text x="0px" y="0px" style="font-family:'Arial-BoldMT', 'Arial', sans-serif;font-weight:700;font-size:20px;fill:rgb(44,44,44);">Customizable</text>
                            </g>
                            <g transform="matrix(1,0,0,1,12,58)">
                                <text x="0px" y="0px" style="font-family:'Arial-BoldMT', 'Arial', sans-serif;font-weight:700;font-size:20px;fill:rgb(44,44,44);">Routing Options</text>
                            </g>
                        </g>
                    </g>
                </g>
            </g>
            <g id="g-root-cp_5_text-5_140ipn61qrfy0w-stroke" transform="matrix(1,0,0,1,50,98)">
                <g id="cp_5_text-5_140ipn61qrfy0w-stroke">
                    <g>
                        <path d="M10,166L10,10L238,10L238,166" style="fill:none;stroke:rgb(44,44,44);stroke-width:2px;"/>
                    </g>
                </g>
            </g>
            <g id="g-root-cp_5_stick-5_qpoocy1qrfwg2-stroke" transform="matrix(1,0,0,1,266,254)">
                <g id="cp_5_stick-5_qpoocy1qrfwg2-stroke">
                    <g>
                        <path d="M21.996,406L21.996,10" style="fill:none;stroke:rgb(44,44,44);stroke-width:2px;"/>
                    </g>
                </g>
            </g>
            <g id="g-root-cp_3_text-3_hu1o421qrfx8s-stroke" transform="matrix(1,0,0,1,38,254)">
                <g id="cp_3_text-3_hu1o421qrfx8s-stroke">
                    <g>
                        <path d="M10,190L10,10L238,10L238,190" style="fill:none;stroke:rgb(44,44,44);stroke-width:2px;"/>
                    </g>
                </g>
            </g>
            <g id="g-root-cp_3_stick-3_3e4pe1qrfwg6-stroke" transform="matrix(1,0,0,1,254,434)">
                <g id="cp_3_stick-3_3e4pe1qrfwg6-stroke">
                    <g>
                        <path d="M21.996,226L21.996,10" style="fill:none;stroke:rgb(44,44,44);stroke-width:2px;"/>
                    </g>
                </g>
            </g>
            <g id="g-root-cp_1_text-1_1uoook21qrfx1c-stroke" transform="matrix(1,0,0,1,26,434)">
                <g id="cp_1_text-1_1uoook21qrfx1c-stroke">
                    <g>
                        <path d="M238,190L238,10L10,10L10,190L226,190" style="fill:none;stroke:rgb(44,44,44);stroke-width:2px;"/>
                    </g>
                </g>
            </g>
            <g id="g-root-cp_1_stick-1_1hdun9u1qrfvgi-stroke" transform="matrix(1,0,0,1,242,518)">
                <g id="cp_1_stick-1_1hdun9u1qrfvgi-stroke">
                    <g>
                        <path d="M21.996,142L21.996,10M10,142L10,106" style="fill:none;stroke:rgb(44,44,44);stroke-width:2px;"/>
                    </g>
                </g>
            </g>
            <g id="g-root-cp_6_text-6_v6r4nm1qrfxu4-stroke" transform="matrix(1,0,0,1,278,146)">
                <g id="cp_6_text-6_v6r4nm1qrfxu4-stroke">
                    <g>
                        <path d="M238,166L238,10L10,10L10,166" style="fill:none;stroke:rgb(44,44,44);stroke-width:2px;"/>
                    </g>
                </g>
            </g>
            <g id="g-root-cp_6_stick-6_dg3l8y1qrfx1i-stroke" transform="matrix(1,0,0,1,278,302)">
                <g id="cp_6_stick-6_dg3l8y1qrfx1i-stroke">
                    <g>
                        <path d="M10.004,358L10.004,10" style="fill:none;stroke:rgb(44,44,44);stroke-width:2px;"/>
                    </g>
                </g>
            </g>
            <g id="g-root-cp_4_text-4_90a34i1qrfxts-stroke" transform="matrix(1,0,0,1,290,302)">
                <g id="cp_4_text-4_90a34i1qrfxts-stroke">
                    <g>
                        <path d="M238,166L238,10L10,10L10,166" style="fill:none;stroke:rgb(44,44,44);stroke-width:2px;"/>
                    </g>
                </g>
            </g>
            <g id="g-root-cp_4_stick-4_1uqk3te1qrfw1u-stroke" transform="matrix(1,0,0,1,290,458)">
                <g id="cp_4_stick-4_1uqk3te1qrfw1u-stroke">
                    <g>
                        <path d="M10.004,202L10.004,10" style="fill:none;stroke:rgb(44,44,44);stroke-width:2px;"/>
                    </g>
                </g>
            </g>
            <g id="g-root-cp_2_text-2_1lux3ki1qrfwuk-stroke" transform="matrix(1,0,0,1,302,458)">
                <g id="cp_2_text-2_1lux3ki1qrfwuk-stroke">
                    <g>
                        <path d="M10,154L10,10L238,10L238,154L22,154" style="fill:none;stroke:rgb(44,44,44);stroke-width:2px;"/>
                    </g>
                </g>
            </g>
            <g id="g-root-cp_2_stick-2_1449k5u1qrfw1y-stroke" transform="matrix(1,0,0,1,302,542)">
                <g id="cp_2_stick-2_1449k5u1qrfw1y-stroke">
                    <g>
                        <path d="M10.004,118L10.004,10M22,118L22,70" style="fill:none;stroke:rgb(44,44,44);stroke-width:2px;"/>
                    </g>
                </g>
            </g>
            <g id="g-root-cp_0_g-0_qst1si1qrfxmw-stroke" transform="matrix(1,0,0,1,242,650)">
                <g id="cp_0_g-0_qst1si1qrfxmw-stroke">
                    <g>
                        <path d="M33.994,61L46.01,86L58.005,61L33.994,61Z" style="fill:none;stroke:rgb(44,44,44);stroke-width:2px;"/>
                    </g>
                </g>
                <g id="cp_0_g-0_qst1si1qrfxmw-stroke1" serif:id="cp_0_g-0_qst1si1qrfxmw-stroke">
                    <g>
                        <path d="M82,10L10,10L34,61L58.001,61L82,10Z" style="fill:none;stroke:rgb(44,44,44);stroke-width:2px;"/>
                    </g>
                </g>
            </g>
            <g id="g-root-ic_netw_1ly1h021qrhbf3-stroke" transform="matrix(1,0,0,1,218,266)">
                <g id="ic_netw_1ly1h021qrhbf3-stroke">
                    <g>
                        <path d="M10.804,27.997C10.804,37.524 18.527,45.247 28.054,45.247C37.581,45.247 45.304,37.524 45.304,27.997C45.304,18.47 37.581,10.747 28.054,10.747C18.527,10.747 10.804,18.47 10.804,27.997L10.804,27.997ZM19.804,21.622C19.804,23.486 21.315,24.997 23.179,24.997C25.043,24.997 26.554,23.486 26.554,21.622C26.554,19.758 25.043,18.247 23.179,18.247C21.315,18.247 19.804,19.758 19.804,21.622L19.804,21.622ZM29.554,36.622C29.554,37.658 30.393,38.497 31.429,38.497C32.465,38.497 33.304,37.658 33.304,36.622C33.304,35.586 32.465,34.747 31.429,34.747C30.393,34.747 29.554,35.586 29.554,36.622L29.554,36.622ZM35.554,25.372C35.554,26.822 36.729,27.997 38.179,27.997C39.629,27.997 40.804,26.822 40.804,25.372C40.804,23.922 39.629,22.747 38.179,22.747C36.729,22.747 35.554,23.922 35.554,25.372ZM26.554,21.25C29.907,21.378 33.102,22.709 35.554,25M38.702,27.946L39.302,28.747C39.302,28.747 41.552,31.747 41.552,38.497M35.288,12.333L35.554,13C36.64,16.216 37.148,19.6 37.054,22.993M36.304,27.25C36.116,30.348 35,33.317 33.1,35.772M30.532,38.269L30.304,38.5C30.304,38.5 26.554,42.25 18.304,42.25M28.054,10.75C26.002,12.945 24.352,15.484 23.179,18.25M21.427,24.508L21.304,25C20.487,29.057 21.013,33.269 22.804,37C25.354,42.109 31.804,44.5 31.804,44.5L32.364,44.709M19.804,21.622C19.804,21.622 14.05,22.035 11.142,24.581M11.224,31.798L11.554,31.747C11.554,31.747 21.876,30.16 30.265,35.152" style="fill:none;stroke:rgb(44,44,44);stroke-width:2px;"/>
                    </g>
                </g>
            </g>
            <g id="g-root-ic_1_4lpj6a1qrlj47-stroke" transform="matrix(1,0,0,1,302,314)">
                <g id="ic_1_4lpj6a1qrlj47-stroke">
                    <g>
                        <path d="M13.75,10.75L42.25,10.75C42.25,10.75 45.25,10.75 45.25,13.75L45.25,42.25C45.25,42.25 45.25,45.25 42.25,45.25L13.75,45.25C13.75,45.25 10.75,45.25 10.75,42.25L10.75,13.75C10.75,13.75 10.75,10.75 13.75,10.75M10.75,22L15.994,22M10.75,36.25L18.25,36.25M34,10.75L34,17.5M35.5,26.5L35.5,33.25M22,10.75L22,17.5M18.25,36.25C18.25,38.321 19.929,40 22,40C24.071,40 25.75,38.321 25.75,36.25C25.75,34.179 24.071,32.5 22,32.5C19.929,32.5 18.25,34.179 18.25,36.25M37,26.5L22,26.5L15.994,22L22,17.5L37,17.5L37,26.5ZM32.125,33.25L38.125,33.25L38.125,39.25L32.125,39.25L32.125,33.25ZM25.75,36.25L32.125,36.25M38.125,36.25L45.25,36.25M35.5,39.25L35.5,45.25M22,26.5L22,32.5M22,40L22,45.25M37,22L45.25,22" style="fill:none;stroke:rgb(44,44,44);stroke-width:2px;"/>
                    </g>
                </g>
            </g>
            <g id="g-root-ic_yuan_1luamhe1qrirkd-stroke" transform="matrix(1,0,0,1,206,446)">
                <g id="ic_yuan_1luamhe1qrirkd-stroke">
                    <g>
                        <path d="M36.25,17.5C36.25,18.743 37.257,19.75 38.5,19.75C39.743,19.75 40.75,18.743 40.75,17.5C40.75,16.257 39.743,15.25 38.5,15.25C37.257,15.25 36.25,16.257 36.25,17.5ZM27.673,24.084L26.083,25.675C25.303,26.428 24.99,27.544 25.265,28.593C25.539,29.641 26.359,30.461 27.407,30.735C28.456,31.01 29.572,30.697 30.325,29.917L31.917,28.327M26.083,29.917L22.37,33.63M22.902,29.917L26.083,33.098M11.281,28.969C10.941,29.309 10.75,29.769 10.75,30.25C10.75,30.731 10.941,31.191 11.281,31.531L24.469,44.719C24.809,45.059 25.269,45.25 25.75,45.25C26.231,45.25 26.691,45.059 27.031,44.719L44.189,27.56C44.869,26.881 45.25,25.96 45.25,25L45.25,12.25C45.25,11.422 44.578,10.75 43.75,10.75L31,10.75C30.04,10.75 29.119,11.131 28.44,11.81L11.281,28.969Z" style="fill:none;stroke:rgb(44,44,44);stroke-width:2px;"/>
                    </g>
                </g>
            </g>
            <g id="g-root-ic_grap_145iic21qrk35y-stroke" transform="matrix(1,0,0,1,290,158)">
                <g id="ic_grap_145iic21qrk35y-stroke">
                    <g>
                        <path d="M30.25,20.5C30.25,23.399 32.601,25.75 35.5,25.75C38.399,25.75 40.75,23.399 40.75,20.5C40.75,17.601 38.399,15.25 35.5,15.25C32.601,15.25 30.25,17.601 30.25,20.5M15.25,40.75L18.55,36.126C18.667,35.961 18.846,35.851 19.045,35.82C19.244,35.789 19.447,35.84 19.609,35.96L21.4,37.3C21.731,37.549 22.201,37.481 22.45,37.15L26.5,31.75M36.626,15.371L35.5,20.5L40.711,19.862M32.5,30.25L40,30.25C40,30.25 40.75,30.25 40.75,31L40.75,40C40.75,40 40.75,40.75 40,40.75L32.5,40.75C32.5,40.75 31.75,40.75 31.75,40L31.75,31C31.75,31 31.75,30.25 32.5,30.25M34.75,34.75L37.75,34.75M34.75,37.75L36.25,37.75M16,15.25L23.5,15.25C23.5,15.25 24.25,15.25 24.25,16L24.25,25C24.25,25 24.25,25.75 23.5,25.75L16,25.75C16,25.75 15.25,25.75 15.25,25L15.25,16C15.25,16 15.25,15.25 16,15.25M18.25,18.25L21.25,18.25M18.25,21.25L19.75,21.25M12.25,10.75L43.75,10.75C43.75,10.75 45.25,10.75 45.25,12.25L45.25,43.75C45.25,43.75 45.25,45.25 43.75,45.25L12.25,45.25C12.25,45.25 10.75,45.25 10.75,43.75L10.75,12.25C10.75,12.25 10.75,10.75 12.25,10.75" style="fill:none;stroke:rgb(44,44,44);stroke-width:2px;"/>
                    </g>
                </g>
            </g>
            <g id="g-root-ic_lock_1ly1h021qrfy12-stroke" transform="matrix(1,0,0,1,230,110)">
                <g id="ic_lock_1ly1h021qrfy12-stroke">
                    <g>
                        <path d="M29.144,36.622L14.034,36.622C12.302,36.62 10.9,35.217 10.9,33.486L10.9,13.887C10.9,12.155 12.302,10.752 14.034,10.75L37.553,10.75C39.285,10.751 40.689,12.155 40.689,13.887L40.688,23.39M10.897,16.875L40.688,16.875M10.897,29.887L29.144,29.887M10.897,23.39L40.688,23.39M23.065,16.875L23.065,36.622M31.789,16.875L31.789,27.404M32.254,36.328C32.254,35.096 33.253,34.097 34.485,34.097L42.873,34.097C44.103,34.099 45.1,35.097 45.1,36.328L45.1,43.02C45.1,44.25 44.103,45.248 42.872,45.25L34.485,45.25C33.253,45.25 32.254,44.251 32.254,43.02L32.254,36.328ZM38.678,27.4C36.264,27.45 34.347,29.447 34.396,31.861L34.396,34.093L42.961,34.093L42.961,31.865C43.012,29.45 41.094,27.45 38.678,27.4L38.678,27.4ZM38.678,38.112C38.02,38.085 37.41,38.461 37.14,39.062C36.869,39.663 36.99,40.369 37.447,40.844C37.904,41.32 38.604,41.471 39.216,41.224C39.827,40.978 40.228,40.385 40.228,39.726C40.246,38.852 39.552,38.13 38.678,38.112" style="fill:none;stroke:rgb(44,44,44);stroke-width:2px;"/>
                    </g>
                </g>
            </g>
            <g id="g-root-ic_ring_4gpqhe1qrmx3h-stroke" transform="matrix(1,0,0,1,314,470)">
                <g id="ic_ring_4gpqhe1qrmx3h-stroke">
                    <g>
                        <path d="M26.278,44.974C22.678,41.365 23.955,38.551 25.909,36.597L27.171,35.335C28.426,34.079 30.463,34.079 31.718,35.335L37.177,40.795C37.623,41.24 37.816,41.879 37.691,42.496C37.567,43.113 37.141,43.627 36.557,43.864C29.567,46.721 21.545,45.106 16.206,39.766C10.866,34.426 9.251,26.404 12.108,19.414C12.345,18.831 12.858,18.405 13.476,18.28C14.093,18.156 14.732,18.349 15.177,18.795L20.64,24.25C21.895,25.506 21.895,27.542 20.64,28.798L19.378,30.06C17.428,32.009 14.61,33.291 11.001,29.691M27.979,10.75C37.506,10.75 45.229,18.473 45.229,28M27.979,16.75C34.192,16.75 39.229,21.787 39.229,28M27.979,22.75C30.878,22.75 33.229,25.101 33.229,28" style="fill:none;stroke:rgb(44,44,44);stroke-width:2px;"/>
                    </g>
                </g>
            </g>
        </g>
    </g>
</svg>
