<?xml version="1.0" encoding="UTF-8" standalone="no"?>
<!DOCTYPE svg PUBLIC "-//W3C//DTD SVG 1.1//EN" "http://www.w3.org/Graphics/SVG/1.1/DTD/svg11.dtd">
<svg width="100%" height="100%" viewBox="0 0 576 566" version="1.1" xmlns="http://www.w3.org/2000/svg" xmlns:xlink="http://www.w3.org/1999/xlink" xml:space="preserve" xmlns:serif="http://www.serif.com/" style="fill-rule:evenodd;clip-rule:evenodd;stroke-linecap:round;stroke-linejoin:round;">
    <g id="items" transform="matrix(1.09904,0,0,1.09904,-23.0272,-39.4137)">
        <g id="blend">
            <g id="g-root-cp_7_text-7_1q7lmfn1pdrril-fill" transform="matrix(1,0,0,1,50,50)">
                <g id="cp_7_text-7_1q7lmfn1pdrril-fill">
                    <g>
                        <rect x="10" y="10" width="228" height="108" style="fill:rgb(243,102,187);"/>
                    </g>
                </g>
            </g>
            <g id="g-root-cp_7_stick-7_v5hknn1pdrsav-fill" transform="matrix(1,0,0,1,268,158)">
                <g id="cp_7_stick-7_v5hknn1pdrsav-fill">
                    <g>
                        <rect x="10" y="10" width="10" height="288" style="fill:rgb(243,102,187);"/>
                    </g>
                </g>
            </g>
            <g id="g-root-cp_5_text-5_4j71031pdrsax-fill" transform="matrix(1,0,0,1,40,158)">
                <g id="cp_5_text-5_4j71031pdrsax-fill">
                    <g>
                        <rect x="10" y="10" width="228" height="84" style="fill:rgb(247,148,56);"/>
                    </g>
                </g>
            </g>
            <g id="g-root-cp_5_stick-5_1q9h1oz1pdrqiz-fill" transform="matrix(1,0,0,1,258,242)">
                <g id="cp_5_stick-5_1q9h1oz1pdrqiz-fill">
                    <g>
                        <rect x="10" y="10" width="10" height="204" style="fill:rgb(247,148,56);"/>
                    </g>
                </g>
            </g>
            <g id="g-root-cp_3_text-3_18i71771pdrsw5-fill" transform="matrix(1,0,0,1,30,242)">
                <g id="cp_3_text-3_18i71771pdrsw5-fill">
                    <g>
                        <rect x="10" y="10" width="228" height="84" style="fill:rgb(166,218,55);"/>
                    </g>
                </g>
            </g>
            <g id="g-root-cp_3_stick-3_hvwhjn1pdrsw7-fill" transform="matrix(1,0,0,1,248,326)">
                <g id="cp_3_stick-3_hvwhjn1pdrsw7-fill">
                    <g>
                        <rect x="10" y="10" width="10" height="120" style="fill:rgb(166,218,55);"/>
                    </g>
                </g>
            </g>
            <g id="g-root-cp_1_text-1_4l2g9f1pdrrbd-fill" transform="matrix(1,0,0,1,20,326)">
                <g id="cp_1_text-1_4l2g9f1pdrrbd-fill">
                    <g>
                        <rect x="10" y="10" width="228" height="84" style="fill:rgb(79,145,252);"/>
                    </g>
                </g>
            </g>
            <g id="g-root-cp_1_stick-1_1luwhqr1pdrthf-fill" transform="matrix(1,0,0,1,237.996,410)">
                <g id="cp_1_stick-1_1luwhqr1pdrthf-fill">
                    <g>
                        <rect x="10.004" y="10" width="10" height="36" style="fill:rgb(79,145,252);"/>
                    </g>
                </g>
            </g>
            <g id="g-root-cp_6_text-6_zofg7n1pdrsp9-fill" transform="matrix(1,0,0,1,278,122)">
                <g id="cp_6_text-6_zofg7n1pdrsp9-fill">
                    <g>
                        <rect x="10" y="10" width="228" height="84" style="fill:rgb(251,103,98);"/>
                    </g>
                </g>
            </g>
            <g id="g-root-cp_6_stick-6_hxrwsz1pdrrwn-fill" transform="matrix(1,0,0,1,278,206)">
                <g id="cp_6_stick-6_hxrwsz1pdrrwn-fill">
                    <g>
                        <rect x="10" y="10" width="10" height="240" style="fill:rgb(251,103,98);"/>
                    </g>
                </g>
            </g>
            <g id="g-root-cp_4_text-4_dhyeoj1pdrsox-fill" transform="matrix(1,0,0,1,288,206)">
                <g id="cp_4_text-4_dhyeoj1pdrsox-fill">
                    <g>
                        <rect x="10" y="10" width="228" height="84" style="fill:rgb(255,231,17);"/>
                    </g>
                </g>
            </g>
            <g id="g-root-cp_4_stick-4_1qclf4j1pdrrpn-fill" transform="matrix(1,0,0,1,288,290)">
                <g id="cp_4_stick-4_1qclf4j1pdrrpn-fill">
                    <g>
                        <rect x="10" y="10" width="10" height="156" style="fill:rgb(255,231,17);"/>
                    </g>
                </g>
            </g>
            <g id="g-root-cp_2_text-2_1d14wr71pdrtal-fill" transform="matrix(1,0,0,1,298,290)">
                <g id="cp_2_text-2_1d14wr71pdrtal-fill">
                    <g>
                        <rect x="10" y="10" width="228" height="108" style="fill:rgb(26,195,251);"/>
                    </g>
                </g>
            </g>
            <g id="g-root-cp_2_stick-2_vahdcj1pdrshz-fill" transform="matrix(1,0,0,1,298,374)">
                <g id="cp_2_stick-2_vahdcj1pdrshz-fill">
                    <g>
                        <rect x="10" y="10" width="10" height="72" style="fill:rgb(26,195,251);"/>
                    </g>
                </g>
            </g>
            <g id="g-root-cp_0_g-0_hznc2b1pdrqx5-fill" transform="matrix(1,0,0,1,238,446)">
                <g id="cp_0_g-0_hznc2b1pdrqx5-fill">
                    <g>
                        <path d="M33.336,62L45.002,88L56.663,62L33.336,62Z" style="fill:rgb(232,232,232);"/>
                    </g>
                </g>
                <g id="cp_0_g-0_hznc2b1pdrqx5-fill1" serif:id="cp_0_g-0_hznc2b1pdrqx5-fill">
                    <g>
                        <path d="M80,10L10,10L33.333,62L56.668,62L80,10Z" style="fill:rgb(232,232,232);"/>
                    </g>
                </g>
            </g>
            <g id="g-root-tx__meud3n1pdt7gh-fill">
            </g>
            <g transform="matrix(1,0,0,1,360,252)">
                <g id="g-root-tx_callcent_1hi7d1v1pdxczw-fill">
                    <g id="tx_callcent_1hi7d1v1pdxczw-fill">
                        <g>
                            <g>
                                <text x="0px" y="0px" style="font-family:'Arial-BoldMT', 'Arial', sans-serif;font-weight:700;font-size:20px;fill:rgb(44,44,44);">Call Centers</text>
                            </g>
                        </g>
                    </g>
                </g>
            </g>
            <g id="g-root-tx_financia_vccslv1pdrrid-fill" transform="matrix(1,0,0,1,122,62)">
                <g id="tx_financia_vccslv1pdrrid-fill">
                    <g>
                        <g>
                            <g transform="matrix(1,0,0,1,22.87,34)">
                                <text x="0px" y="0px" style="font-family:'Arial-BoldMT', 'Arial', sans-serif;font-weight:700;font-size:20px;fill:rgb(44,44,44);">Financial</text>
                            </g>
                            <g transform="matrix(1,0,0,1,26.47,58)">
                                <text x="0px" y="0px" style="font-family:'Arial-BoldMT', 'Arial', sans-serif;font-weight:700;font-size:20px;fill:rgb(44,44,44);">Services</text>
                            </g>
                        </g>
                    </g>
                </g>
            </g>
            <g transform="matrix(1,0,0,1,108.88,288)">
                <g id="g-root-tx_hospital_zofg7n1pduk97-fill">
                    <g id="tx_hospital_zofg7n1pduk97-fill">
                        <g>
                            <g>
                                <text x="0px" y="0px" style="font-family:'Arial-BoldMT', 'Arial', sans-serif;font-weight:700;font-size:20px;fill:rgb(44,44,44);">Hospitality</text>
                            </g>
                        </g>
                    </g>
                </g>
            </g>
            <g id="g-root-tx__mg3b9v1pdxds5-fill">
            </g>
            <g id="g-root-tx__1ursg5v1pduln0-fill">
            </g>
            <g id="g-root-tx__1i3mb1pdxd6q-fill">
            </g>
            <g id="g-root-tx_corporat_4loxcj1pdyscv-fill" transform="matrix(1,0,0,1,358,302)">
                <g id="tx_corporat_4loxcj1pdyscv-fill">
                    <g>
                        <g>
                            <g transform="matrix(1,0,0,1,12,34)">
                                <text x="0px" y="0px" style="font-family:'Arial-BoldMT', 'Arial', sans-serif;font-weight:700;font-size:20px;fill:rgb(44,44,44);">Corporate</text>
                            </g>
                            <g transform="matrix(1,0,0,1,12,58)">
                                <text x="0px" y="0px" style="font-family:'Arial-BoldMT', 'Arial', sans-serif;font-weight:700;font-size:20px;fill:rgb(44,44,44);">Enterprises</text>
                            </g>
                        </g>
                    </g>
                </g>
            </g>
            <g transform="matrix(1,0,0,1,350,168)">
                <g id="g-root-tx_techstar_v2zob71pdxfk9-fill">
                    <g id="tx_techstar_v2zob71pdxfk9-fill">
                        <g>
                            <g>
                                <text x="0px" y="0px" style="font-family:'Arial-BoldMT', 'Arial', sans-serif;font-weight:700;font-size:20px;fill:rgb(44,44,44);">T<tspan x="10.732px 21.855px " y="0px 0px ">ec</tspan>h Startups</text>
                            </g>
                        </g>
                    </g>
                </g>
            </g>
            <g transform="matrix(1,0,0,1,106.78,372)">
                <g id="g-root-tx_educatio_1uoo2qb1pdvyme-fill">
                    <g id="tx_educatio_1uoo2qb1pdvyme-fill">
                        <g>
                            <g>
                                <text x="0px" y="0px" style="font-family:'Arial-BoldMT', 'Arial', sans-serif;font-weight:700;font-size:20px;fill:rgb(44,44,44);">Education</text>
                            </g>
                        </g>
                    </g>
                </g>
            </g>
            <g id="g-root-tx__v6qitv1pdvzf3-fill">
            </g>
            <g transform="matrix(1,0,0,1,164.32,204)">
                <g id="g-root-tx_retail_1qclf4j1pdt5vk-fill">
                    <g id="tx_retail_1qclf4j1pdt5vk-fill">
                        <g>
                            <g>
                                <text x="0px" y="0px" style="font-family:'Arial-BoldMT', 'Arial', sans-serif;font-weight:700;font-size:20px;fill:rgb(44,44,44);">Retail</text>
                            </g>
                        </g>
                    </g>
                </g>
            </g>
            <g id="g-root-tx__18koxjn1pdysy0-fill">
            </g>
            <g id="g-root-tx__1hapo0j1pdt53i-fill">
            </g>
            <g id="g-root-cp_7_text-7_1q7lmfn1pdrril-stroke" transform="matrix(1,0,0,1,50,50)">
                <g id="cp_7_text-7_1q7lmfn1pdrril-stroke">
                    <g>
                        <path d="M10,118L10,10L238,10L238,118" style="fill:none;stroke:rgb(44,44,44);stroke-width:2px;"/>
                    </g>
                </g>
            </g>
            <g id="g-root-cp_7_stick-7_v5hknn1pdrsav-stroke" transform="matrix(1,0,0,1,268,158)">
                <g id="cp_7_stick-7_v5hknn1pdrsav-stroke">
                    <g>
                        <path d="M19.996,298L19.996,10" style="fill:none;stroke:rgb(44,44,44);stroke-width:2px;"/>
                    </g>
                </g>
            </g>
            <g id="g-root-cp_5_text-5_4j71031pdrsax-stroke" transform="matrix(1,0,0,1,40,158)">
                <g id="cp_5_text-5_4j71031pdrsax-stroke">
                    <g>
                        <path d="M10,94L10,10L238,10L238,94" style="fill:none;stroke:rgb(44,44,44);stroke-width:2px;"/>
                    </g>
                </g>
            </g>
            <g id="g-root-cp_5_stick-5_1q9h1oz1pdrqiz-stroke" transform="matrix(1,0,0,1,258,242)">
                <g id="cp_5_stick-5_1q9h1oz1pdrqiz-stroke">
                    <g>
                        <path d="M19.996,214L19.996,10" style="fill:none;stroke:rgb(44,44,44);stroke-width:2px;"/>
                    </g>
                </g>
            </g>
            <g id="g-root-cp_3_text-3_18i71771pdrsw5-stroke" transform="matrix(1,0,0,1,30,242)">
                <g id="cp_3_text-3_18i71771pdrsw5-stroke">
                    <g>
                        <path d="M10,94L10,10L238,10L238,94" style="fill:none;stroke:rgb(44,44,44);stroke-width:2px;"/>
                    </g>
                </g>
            </g>
            <g id="g-root-cp_3_stick-3_hvwhjn1pdrsw7-stroke" transform="matrix(1,0,0,1,248,326)">
                <g id="cp_3_stick-3_hvwhjn1pdrsw7-stroke">
                    <g>
                        <path d="M19.996,130L19.996,10" style="fill:none;stroke:rgb(44,44,44);stroke-width:2px;"/>
                    </g>
                </g>
            </g>
            <g id="g-root-cp_1_text-1_4l2g9f1pdrrbd-stroke" transform="matrix(1,0,0,1,20,326)">
                <g id="cp_1_text-1_4l2g9f1pdrrbd-stroke">
                    <g>
                        <path d="M238,94L238,10L10,10L10,94L228,94" style="fill:none;stroke:rgb(44,44,44);stroke-width:2px;"/>
                    </g>
                </g>
            </g>
            <g id="g-root-cp_1_stick-1_1luwhqr1pdrthf-stroke" transform="matrix(1,0,0,1,237.996,410)">
                <g id="cp_1_stick-1_1luwhqr1pdrthf-stroke">
                    <g>
                        <path d="M20,46L20,10M10,46L10.004,10" style="fill:none;stroke:rgb(44,44,44);stroke-width:2px;"/>
                    </g>
                </g>
            </g>
            <g id="g-root-cp_6_text-6_zofg7n1pdrsp9-stroke" transform="matrix(1,0,0,1,278,122)">
                <g id="cp_6_text-6_zofg7n1pdrsp9-stroke">
                    <g>
                        <path d="M238,94L238,10L10,10L10,94" style="fill:none;stroke:rgb(44,44,44);stroke-width:2px;"/>
                    </g>
                </g>
            </g>
            <g id="g-root-cp_6_stick-6_hxrwsz1pdrrwn-stroke" transform="matrix(1,0,0,1,278,206)">
                <g id="cp_6_stick-6_hxrwsz1pdrrwn-stroke">
                    <g>
                        <path d="M10.004,250L10.004,10" style="fill:none;stroke:rgb(44,44,44);stroke-width:2px;"/>
                    </g>
                </g>
            </g>
            <g id="g-root-cp_4_text-4_dhyeoj1pdrsox-stroke" transform="matrix(1,0,0,1,288,206)">
                <g id="cp_4_text-4_dhyeoj1pdrsox-stroke">
                    <g>
                        <path d="M238,94L238,10L10,10L10,94" style="fill:none;stroke:rgb(44,44,44);stroke-width:2px;"/>
                    </g>
                </g>
            </g>
            <g id="g-root-cp_4_stick-4_1qclf4j1pdrrpn-stroke" transform="matrix(1,0,0,1,288,290)">
                <g id="cp_4_stick-4_1qclf4j1pdrrpn-stroke">
                    <g>
                        <path d="M10.004,166L10.004,10" style="fill:none;stroke:rgb(44,44,44);stroke-width:2px;"/>
                    </g>
                </g>
            </g>
            <g id="g-root-cp_2_text-2_1d14wr71pdrtal-stroke" transform="matrix(1,0,0,1,298,290)">
                <g id="cp_2_text-2_1d14wr71pdrtal-stroke">
                    <g>
                        <path d="M10,118L10,10L238,10L238,118L19,118" style="fill:none;stroke:rgb(44,44,44);stroke-width:2px;"/>
                    </g>
                </g>
            </g>
            <g id="g-root-cp_2_stick-2_vahdcj1pdrshz-stroke" transform="matrix(1,0,0,1,298,374)">
                <g id="cp_2_stick-2_vahdcj1pdrshz-stroke">
                    <g>
                        <path d="M10.004,82L10.004,10M20,82L20,34" style="fill:none;stroke:rgb(44,44,44);stroke-width:2px;"/>
                    </g>
                </g>
            </g>
            <g id="g-root-cp_0_g-0_hznc2b1pdrqx5-stroke" transform="matrix(1,0,0,1,238,446)">
                <g id="cp_0_g-0_hznc2b1pdrqx5-stroke">
                    <g>
                        <path d="M33.336,62L45.002,88L56.663,62L33.336,62Z" style="fill:none;stroke:rgb(44,44,44);stroke-width:2px;"/>
                    </g>
                </g>
                <g id="cp_0_g-0_hznc2b1pdrqx5-stroke1" serif:id="cp_0_g-0_hznc2b1pdrqx5-stroke">
                    <g>
                        <path d="M80,10L10,10L33.333,62L56.668,62L80,10Z" style="fill:none;stroke:rgb(44,44,44);stroke-width:2px;"/>
                    </g>
                </g>
            </g>
            <g id="g-root-ic_hote_qunv831pduk25-stroke" transform="matrix(1,0,0,1,210,254)">
                <g id="ic_hote_qunv831pduk25-stroke">
                    <g>
                        <path d="M15.25,15.25L15.25,16C15.25,18.071 16.929,19.75 19,19.75C21.071,19.75 22.75,18.071 22.75,16L22.75,15.25M22.75,15.25L15.25,15.25L15.25,12.025C15.246,11.708 15.445,11.424 15.745,11.32C17.848,10.555 20.152,10.555 22.255,11.32C22.555,11.424 22.754,11.708 22.75,12.025L22.75,15.25ZM26.5,30.25L12.25,30.25C11.422,30.25 10.75,30.922 10.75,31.75L10.75,45.25M41.5,30.25L43.75,30.25C44.578,30.25 45.25,30.922 45.25,31.75L45.25,45.25M22.75,34C21.922,34 21.25,34.672 21.25,35.5L21.25,37L18.25,37L18.25,35.5C18.25,34.672 17.578,34 16.75,34C15.922,34 15.25,34.672 15.25,35.5L15.25,42.25C15.25,43.078 15.922,43.75 16.75,43.75C17.578,43.75 18.25,43.078 18.25,42.25L18.25,40L21.25,40L21.25,42.25C21.25,43.078 21.922,43.75 22.75,43.75C23.578,43.75 24.25,43.078 24.25,42.25L24.25,35.5C24.25,34.672 23.578,34 22.75,34ZM31.75,14.5C31.75,16.571 33.429,18.25 35.5,18.25C37.571,18.25 39.25,16.571 39.25,14.5C39.25,12.429 37.571,10.75 35.5,10.75C33.429,10.75 31.75,12.429 31.75,14.5M37.75,43.75L38.5,33.25L40,33.25C40.828,33.25 41.5,32.578 41.5,31.75L41.5,27.25C41.5,23.936 38.814,21.25 35.5,21.25C32.186,21.25 29.5,23.936 29.5,27.25L29.5,31.75C29.5,32.578 30.172,33.25 31,33.25L32.5,33.25L33.25,43.75C33.25,44.578 33.922,45.25 34.75,45.25L36.25,45.25C37.078,45.25 37.75,44.578 37.75,43.75ZM13.195,27.25C13.885,24.609 16.271,22.767 19,22.767C21.729,22.767 24.115,24.609 24.805,27.25" style="fill:none;stroke:rgb(44,44,44);stroke-width:2px;"/>
                    </g>
                </g>
            </g>
            <g id="g-root-ic_1_m8lm8j1pdt5vr-stroke" transform="matrix(1,0,0,1,230,62)">
                <g id="ic_1_m8lm8j1pdt5vr-stroke">
                    <g>
                        <path d="M13.756,39.15L13.756,27.15M12.256,39.15L19.756,39.15M10.756,45.15L45.256,45.15M10.756,42.15L45.256,42.15M12.256,27.15L19.756,27.15M24.256,39.15L31.756,39.15M24.256,27.15L31.756,27.15M18.256,39.15L18.256,27.15M25.756,39.15L25.756,27.15M30.256,39.15L30.256,27.15M36.256,39.15L43.756,39.15M36.256,27.15L43.756,27.15M37.756,39.15L37.756,27.15M42.256,39.15L42.256,27.15M12.475,22.807C12.222,23.004 12.121,23.34 12.225,23.643C12.329,23.946 12.615,24.15 12.935,24.15L43.085,24.15C43.406,24.15 43.691,23.947 43.796,23.645C43.901,23.342 43.801,23.006 43.549,22.808L28.515,11.011C28.243,10.799 27.862,10.799 27.59,11.011L12.475,22.807Z" style="fill:none;stroke:rgb(44,44,44);stroke-width:2px;"/>
                    </g>
                </g>
            </g>
            <g id="g-root-ic_flas_7quhf1pdys5d-stroke" transform="matrix(1,0,0,1,310,302)">
                <g id="ic_flas_7quhf1pdys5d-stroke">
                    <g>
                        <path d="M35.875,22.351C35.875,24.629 37.722,26.476 40,26.476C42.278,26.476 44.125,24.629 44.125,22.351C44.125,20.073 42.278,18.226 40,18.226C37.722,18.226 35.875,20.073 35.875,22.351ZM45.25,33.226C45.25,30.327 42.899,27.976 40,27.976C37.101,27.976 34.75,30.327 34.75,33.226L34.75,37.726L37.125,37.726L37.75,45.226L42.25,45.226L42.876,37.726L45.25,37.726L45.25,33.226ZM11.875,22.351C11.875,24.629 13.722,26.476 16,26.476C18.278,26.476 20.125,24.629 20.125,22.351C20.125,20.073 18.278,18.226 16,18.226C13.722,18.226 11.875,20.073 11.875,22.351ZM21.25,33.226C21.25,30.327 18.899,27.976 16,27.976C13.101,27.976 10.75,30.327 10.75,33.226L10.75,37.726L13.125,37.726L13.75,45.226L18.25,45.226L18.876,37.726L21.25,37.726L21.25,33.226ZM23.5,21.228L25.75,21.228L25.75,27.227L33.07,17.965C33.26,17.743 33.304,17.43 33.181,17.164C33.059,16.898 32.793,16.727 32.5,16.728L30.25,16.728L30.25,10.727L22.931,19.989C22.74,20.211 22.696,20.524 22.818,20.79C22.941,21.057 23.207,21.227 23.5,21.228Z" style="fill:none;stroke:rgb(44,44,44);stroke-width:2px;"/>
                    </g>
                </g>
            </g>
            <g id="g-root-ic_2_1luwhqr1pdvyfc-stroke" transform="matrix(1,0,0,1,200,338)">
                <g id="ic_2_1luwhqr1pdvyfc-stroke">
                    <g>
                        <path d="M25.774,34.75L12.274,34.75C11.446,34.75 10.774,34.078 10.774,33.25L10.774,12.25C10.774,11.422 11.446,10.75 12.274,10.75L42.274,10.75C43.102,10.75 43.774,11.422 43.774,12.25L43.774,31.75M16.744,16.75L27.976,27.982M27.976,23.18L27.976,27.982L23.174,27.982M16.744,21.552L16.744,16.75L21.546,16.75M45.226,45.25L45.226,41.248C45.224,38.487 42.986,36.25 40.225,36.25L37.726,36.25L37.726,29.5C37.726,28.257 36.719,27.25 35.476,27.25C34.233,27.25 33.226,28.257 33.226,29.5L33.226,40L31.3,38.379C30.637,37.582 29.455,37.474 28.659,38.137C27.862,38.8 27.754,39.982 28.417,40.779L32.128,45.25" style="fill:none;stroke:rgb(44,44,44);stroke-width:2px;"/>
                    </g>
                </g>
            </g>
            <g id="g-root-ic_bask_1ly0v6b1pdt822-stroke" transform="matrix(1,0,0,1,220,170)">
                <g id="ic_bask_1ly0v6b1pdt822-stroke">
                    <g>
                        <path d="M16.75,31.755L16.75,22.331M39.25,22.334L39.25,31.755M42.664,11.584C42.411,11.074 41.892,10.751 41.323,10.75L14.677,10.75C14.109,10.75 13.59,11.071 13.336,11.58L10.75,16.75L45.25,16.75L42.664,11.584ZM45.25,18.25C45.313,20.059 44.234,21.713 42.554,22.385C40.874,23.057 38.952,22.603 37.75,21.25C36.765,22.916 35.044,24.013 33.118,24.202C31.192,24.392 29.291,23.651 28,22.209C26.709,23.65 24.808,24.391 22.882,24.201C20.956,24.012 19.235,22.916 18.25,21.25C17.047,22.601 15.127,23.054 13.447,22.382C11.767,21.71 10.689,20.058 10.75,18.25L10.75,16.75L45.25,16.75L45.25,18.25ZM18.25,21.254L18.25,16.754L19.75,10.755M28,22.222L28,10.755M37.75,21.254L37.75,16.754L36.25,10.755M43.566,33.419C43.612,32.996 43.477,32.572 43.192,32.254C42.907,31.936 42.501,31.754 42.075,31.755L13.926,31.755C13.499,31.754 13.093,31.936 12.808,32.254C12.523,32.572 12.388,32.996 12.435,33.419L13.602,43.92C13.688,44.681 14.334,45.254 15.1,45.25L40.915,45.25C41.679,45.25 42.321,44.676 42.406,43.917L43.566,33.419ZM31.715,37.75C31.968,37.748 32.206,37.867 32.357,38.07C32.504,38.267 32.54,38.526 32.453,38.757L30.742,41.757C30.623,42.058 30.33,42.254 30.006,42.25L25.963,42.25C25.656,42.254 25.374,42.078 25.243,41.8L23.563,38.8C23.46,38.569 23.485,38.3 23.629,38.092C23.779,37.879 24.024,37.753 24.285,37.755L31.715,37.75ZM25,37.745L26.5,35.495M31,37.745L29.5,35.495" style="fill:none;stroke:rgb(44,44,44);stroke-width:2px;"/>
                    </g>
                </g>
            </g>
            <g id="g-root-ic_idea_hu12ab1pdxczn-stroke" transform="matrix(1,0,0,1,290,134)">
                <g id="ic_idea_hu12ab1pdxczn-stroke">
                    <g>
                        <path d="M29.95,38.125L25.45,38.125M43.504,31.438C43.809,31.715 43.988,32.104 43.999,32.516C44.009,32.928 43.851,33.327 43.561,33.619C41.219,35.964 35.212,41.119 27.7,41.119C20.615,41.119 14.65,35.767 12.427,33.487C11.873,32.921 11.855,32.022 12.385,31.433C14.57,28.997 20.57,23.125 27.7,23.125C33.687,23.125 40.802,28.994 43.504,31.438ZM27.7,19.375L27.7,14.875M21.7,19.375L20.95,16.375M17.95,21.625L16.45,19.375M14.95,24.625L12.7,22.375M33.7,19.375L34.45,16.375M37.45,21.625L38.95,19.375M40.45,24.625L42.7,22.375M31.45,29.875C31.458,28.109 30.233,26.578 28.509,26.197C26.785,25.816 25.029,26.689 24.292,28.294C23.555,29.898 24.038,31.799 25.45,32.859L25.45,35.125L29.95,35.125L29.95,32.859C30.892,32.155 31.447,31.05 31.45,29.875L31.45,29.875ZM18.7,32.125C18.7,37.096 22.729,41.125 27.7,41.125C32.671,41.125 36.7,37.096 36.7,32.125C36.7,27.154 32.671,23.125 27.7,23.125C22.729,23.125 18.7,27.154 18.7,32.125Z" style="fill:none;stroke:rgb(44,44,44);stroke-width:2px;"/>
                    </g>
                </g>
            </g>
            <g id="g-root-ic_cog_1hjgb831pdxf5y-stroke" transform="matrix(1,0,0,1,300,218)">
                <g id="ic_cog_1hjgb831pdxf5y-stroke">
                    <g>
                        <path d="M22.6,27.618C22.6,24.635 25.018,22.218 28,22.218C30.982,22.218 33.4,24.635 33.4,27.618M16.705,33.085L16.687,33.085C13.672,33.756 11.528,36.431 11.528,39.52L11.528,40.824C11.528,41.406 11.759,41.965 12.171,42.377C12.583,42.789 13.142,43.02 13.725,43.02L19.215,43.02C20.428,43.02 21.412,42.037 21.412,40.824C21.412,39.611 22.395,38.627 23.608,38.627L32.392,38.627C33.605,38.627 34.588,39.611 34.588,40.824C34.588,42.037 35.572,43.02 36.786,43.02L42.276,43.02C42.858,43.02 43.417,42.789 43.829,42.377C44.241,41.965 44.472,41.406 44.472,40.824L44.472,39.52C44.471,36.432 42.327,33.759 39.313,33.088L39.295,33.088C31.834,31.643 24.166,31.642 16.705,33.085ZM42.324,30.637C42.532,29.645 42.638,28.633 42.638,27.619C42.638,27.024 42.602,26.429 42.529,25.839C42.446,25.123 41.871,24.565 41.154,24.504L39.042,24.331C38.819,23.568 38.518,22.831 38.141,22.131L39.508,20.521C39.962,20 39.995,19.235 39.586,18.677C38.822,17.689 37.935,16.802 36.946,16.038C36.389,15.628 35.622,15.661 35.103,16.117L33.493,17.482C32.793,17.107 32.056,16.806 31.294,16.582L31.12,14.472C31.059,13.754 30.501,13.178 29.785,13.095C28.603,12.95 27.409,12.95 26.227,13.095C25.511,13.178 24.953,13.754 24.892,14.472L24.712,16.576C23.95,16.8 23.213,17.101 22.513,17.476L20.904,16.111C20.382,15.657 19.616,15.626 19.06,16.038C18.071,16.802 17.184,17.689 16.42,18.677C16.011,19.235 16.044,20 16.498,20.521L17.865,22.131C17.488,22.831 17.187,23.568 16.965,24.331L14.852,24.504C14.135,24.565 13.56,25.123 13.477,25.839C13.404,26.429 13.368,27.024 13.368,27.619C13.368,28.633 13.474,29.645 13.682,30.637" style="fill:none;stroke:rgb(44,44,44);stroke-width:2px;"/>
                    </g>
                </g>
            </g>
        </g>
    </g>
</svg>
