<?xml version="1.0" encoding="UTF-8" standalone="no"?>
<!DOCTYPE svg PUBLIC "-//W3C//DTD SVG 1.1//EN" "http://www.w3.org/Graphics/SVG/1.1/DTD/svg11.dtd">
<svg width="100%" height="100%" viewBox="0 0 588 586" version="1.1" xmlns="http://www.w3.org/2000/svg" xmlns:xlink="http://www.w3.org/1999/xlink" xml:space="preserve" xmlns:serif="http://www.serif.com/" style="fill-rule:evenodd;clip-rule:evenodd;stroke-linecap:round;stroke-linejoin:round;">
    <g id="items" transform="matrix(1.06566,0,0,1.06566,-19.304,-40.4859)">
        <g id="blend">
            <g id="g-root-sy_-1_cu_1hhkssj1o9tfkd-fill" transform="matrix(1,0,0,1,14,62)">
                <g id="sy_-1_cu_1hhkssj1o9tfkd-fill">
                    <g>
                        <path d="M10,490L10,418L82.5,418L82.5,490L10,490ZM34,394L10,418L82.5,418L106,394L34,394ZM34,394L34,322L106,322L106,394L34,394ZM58,298L34,322L106,322L130,298L58,298ZM58,298L58,226L130,226L130,298L58,298ZM82,202L58,226L130,226L154,202L82,202ZM82,202L82,130L154,130L154,202L82,202ZM106,106L82,130L154,130L178,106L106,106ZM106,106L106,34L178,34L178,106L106,106ZM130,10L106,34L178,34L202,10L130,10Z" style="fill:url(#_Linear1);"/>
                    </g>
                </g>
            </g>
            <g id="g-root-sy_-1_cu_1_zqx9dv1o9terq-fill" transform="matrix(1,0,0,1,362,62)">
                <g id="sy_-1_cu_1_zqx9dv1o9terq-fill">
                    <g>
                        <path d="M202,490L202,418L130.5,418L130.5,490L202,490ZM202,418L178,394L106,394L130.5,418L202,418ZM178,322L178,394L106,394L106,322L178,322ZM178,322L154,298L82,298L106,322L178,322ZM154,226L154,298L82,298L82,226L154,226ZM154,226L130,202L58,202L82,226L154,226ZM130,130L130,202L58,202L58,130L130,130ZM130,130L106,106L34,106L58,130L130,130ZM106,34L106,106L34,106L34,34L106,34ZM106,34L82,10L10,10L34,34L106,34Z" style="fill:url(#_Linear2);"/>
                    </g>
                </g>
            </g>
            <g id="g-root-sy_1_cu_mg383n1o9td6v-fill" transform="matrix(1,0,0,1,86.4998,446)">
                <g id="sy_1_cu_mg383n1o9td6v-fill">
                    <g>
                        <path d="M10,106L10,34L406,34L406,106L10,106ZM381.5,10L406,34L10,34L33.5,10L381.5,10Z" style="fill:url(#_Linear3);"/>
                    </g>
                </g>
            </g>
            <g id="g-root-sy_2_cu_4ot7lv1o9tfk0-fill" transform="matrix(1,0,0,1,110,350)">
                <g id="sy_2_cu_4ot7lv1o9tfk0-fill">
                    <g>
                        <path d="M10,106L10,34L358,34L358,106L10,106ZM334,10L358,34L10,34L34,10L334,10Z" style="fill:url(#_Linear4);"/>
                    </g>
                </g>
            </g>
            <g id="g-root-sy_3_cu_1hjg81v1o9tekp-fill" transform="matrix(1,0,0,1,134,254)">
                <g id="sy_3_cu_1hjg81v1o9tekp-fill">
                    <g>
                        <path d="M10,34L10,106L310,106L310,34L10,34ZM286,10L310,34L10,34L34,10L286,10Z" style="fill:url(#_Linear5);"/>
                    </g>
                </g>
            </g>
            <g id="g-root-sy_4_cu_zit39f1o9usci-fill" transform="matrix(1,0,0,1,158,158)">
                <g id="sy_4_cu_zit39f1o9usci-fill">
                    <g>
                        <path d="M10,106L10,34L262,34L262,106L10,106ZM238,10L262,34L10,34L34,10L238,10Z" style="fill:url(#_Linear6);"/>
                    </g>
                </g>
            </g>
            <g id="g-root-sy_5_cu_m7ckw31o9utxf-fill" transform="matrix(1,0,0,1,182,62)">
                <g id="sy_5_cu_m7ckw31o9utxf-fill">
                    <g>
                        <path d="M10,106L10,34L214,34L214,106L10,106ZM190,10L214,34L10,34L34,10L190,10Z" style="fill:url(#_Linear7);"/>
                    </g>
                </g>
            </g>
            <g transform="matrix(1,0,0,1,225.99,144)">
                <g id="g-root-tx_recordsh_znsvyb1o9urrd-fill">
                    <g id="tx_recordsh_znsvyb1o9urrd-fill">
                        <g>
                            <g>
                                <text x="0px" y="0px" style="font-family:'ArialMT', 'Arial', sans-serif;font-size:20px;fill:rgb(244,244,244);">Record &amp; Share</text>
                            </g>
                        </g>
                    </g>
                </g>
            </g>
            <g transform="matrix(1,0,0,1,195.91,240)">
                <g id="g-root-tx_collabor_4jtewz1o9utjc-fill">
                    <g id="tx_collabor_4jtewz1o9utjc-fill">
                        <g>
                            <g>
                                <text x="0px" y="0px" style="font-family:'ArialMT', 'Arial', sans-serif;font-size:20px;fill:rgb(244,244,244);">Collaborate Real-T<tspan x="167.109px 171.553px " y="0px 0px ">im</tspan>e</text>
                            </g>
                        </g>
                    </g>
                </g>
            </g>
            <g transform="matrix(1,0,0,1,236.16,336)">
                <g id="g-root-tx_joinmeet_v63ykj1o9utjb-fill">
                    <g id="tx_joinmeet_v63ykj1o9utjb-fill">
                        <g>
                            <g>
                                <text x="0px" y="0px" style="font-family:'ArialMT', 'Arial', sans-serif;font-size:20px;fill:rgb(244,244,244);">Join Meeting</text>
                            </g>
                        </g>
                    </g>
                </g>
            </g>
            <g transform="matrix(1,0,0,1,214.46,432)">
                <g id="g-root-tx_schedule_2qymb1o9us5i-fill">
                    <g id="tx_schedule_2qymb1o9us5i-fill">
                        <g>
                            <g>
                                <text x="0px" y="0px" style="font-family:'ArialMT', 'Arial', sans-serif;font-size:20px;fill:rgb(244,244,244);">Schedule Meeting</text>
                            </g>
                        </g>
                    </g>
                </g>
            </g>
            <g transform="matrix(1,0,0,1,225.41,528)">
                <g id="g-root-tx_setupacc_13zvjk31o9utqd-fill">
                    <g id="tx_setupacc_13zvjk31o9utqd-fill">
                        <g>
                            <g>
                                <text x="0px" y="0px" style="font-family:'ArialMT', 'Arial', sans-serif;font-size:20px;fill:rgb(244,244,244);">Set Up <tspan x="65.596px 78.936px " y="0px 0px ">Ac</tspan>count</text>
                            </g>
                        </g>
                    </g>
                </g>
            </g>
            <g id="g-root-sy_-1_cu_1hhkssj1o9tfkd-stroke" transform="matrix(1,0,0,1,14,62)">
                <g id="sy_-1_cu_1hhkssj1o9tfkd-stroke">
                    <g>
                        <path d="M10,490L10,418L82.5,418L82.5,490L10,490ZM10,418L34,394L106,394L82.5,418L10,418ZM34,394L34,322L106,322L106,394L34,394ZM34,322L58,298L130,298L106,322L34,322ZM58,298L58,226L130,226L130,298L58,298ZM58,226L82,202L154,202L130,226L58,226ZM82,202L82,130L154,130L154,202L82,202ZM82,130L106,106L178,106L154,130L82,130ZM106,106L106,34L178,34L178,106L106,106ZM106,34L130,10L202,10L178,34L106,34Z" style="fill:none;stroke:rgb(244,244,244);stroke-width:2px;"/>
                    </g>
                </g>
            </g>
            <g id="g-root-sy_-1_cu_1_zqx9dv1o9terq-stroke" transform="matrix(1,0,0,1,362,62)">
                <g id="sy_-1_cu_1_zqx9dv1o9terq-stroke">
                    <g>
                        <path d="M202,418L202,490L130.5,490L130.5,418L202,418ZM202,418L178,394L106,394L130.5,418L202,418ZM178,322L178,394L106,394L106,322L178,322ZM178,322L154,298L82,298L106,322L178,322ZM154,226L154,298L82,298L82,226L154,226ZM154,226L130,202L58,202L82,226L154,226ZM130,130L130,202L58,202L58,130L130,130ZM130,130L106,106L34,106L58,130L130,130ZM106,106L106,34L34,34L34,106L106,106ZM106,34L82,10L10,10L34,34L106,34Z" style="fill:none;stroke:rgb(244,244,244);stroke-width:2px;"/>
                    </g>
                </g>
            </g>
            <g id="g-root-sy_1_cu_mg383n1o9td6v-stroke" transform="matrix(1,0,0,1,86.4998,446)">
                <g id="sy_1_cu_mg383n1o9td6v-stroke">
                    <g>
                        <path d="M10,34L10,106L406,106L406,34L10,34ZM406,34L381.5,10L33.5,10L10,34L406,34Z" style="fill:none;stroke:rgb(244,244,244);stroke-width:2px;"/>
                    </g>
                </g>
            </g>
            <g id="g-root-sy_2_cu_4ot7lv1o9tfk0-stroke" transform="matrix(1,0,0,1,110,350)">
                <g id="sy_2_cu_4ot7lv1o9tfk0-stroke">
                    <g>
                        <path d="M10,34L10,106L358,106L358,34L10,34ZM358,34L334,10L34,10L10,34L358,34Z" style="fill:none;stroke:rgb(244,244,244);stroke-width:2px;"/>
                    </g>
                </g>
            </g>
            <g id="g-root-sy_3_cu_1hjg81v1o9tekp-stroke" transform="matrix(1,0,0,1,134,254)">
                <g id="sy_3_cu_1hjg81v1o9tekp-stroke">
                    <g>
                        <path d="M10,106L10,34L310,34L310,106L10,106ZM310,34L286,10L34,10L10,34L310,34Z" style="fill:none;stroke:rgb(244,244,244);stroke-width:2px;"/>
                    </g>
                </g>
            </g>
            <g id="g-root-sy_4_cu_zit39f1o9usci-stroke" transform="matrix(1,0,0,1,158,158)">
                <g id="sy_4_cu_zit39f1o9usci-stroke">
                    <g>
                        <path d="M10,34L10,106L262,106L262,34L10,34ZM262,34L238,10L34,10L10,34L262,34Z" style="fill:none;stroke:rgb(244,244,244);stroke-width:2px;"/>
                    </g>
                </g>
            </g>
            <g id="g-root-sy_5_cu_m7ckw31o9utxf-stroke" transform="matrix(1,0,0,1,182,62)">
                <g id="sy_5_cu_m7ckw31o9utxf-stroke">
                    <g>
                        <path d="M10,34L10,106L214,106L214,34L10,34ZM214,34L190,10L34,10L10,34L214,34Z" style="fill:none;stroke:rgb(244,244,244);stroke-width:2px;"/>
                    </g>
                </g>
            </g>
            <g id="g-root-ic_48px_1lr5n7n1o9z0n5-stroke" transform="matrix(1,0,0,1,122,98)">
                <g id="ic_48px_1lr5n7n1o9z0n5-stroke">
                    <g>
                        <path d="M15.072,30.179C15.072,24.482 17.789,19.696 23.011,19.696C28.233,19.696 30.949,24.482 30.949,30.179L30.949,37.273C30.949,42.97 28.105,47.882 23.011,47.882C17.916,47.882 15.072,42.97 15.072,37.273L15.072,30.179ZM53.693,20.121L40.379,20.121L38.988,33.144C39.817,32.315 42.353,30.657 45.865,30.657C49.971,30.657 53.813,33.447 53.427,40.052C53.028,46.894 48.912,47.904 45.529,47.904C41.945,47.904 38.405,45.361 38.073,40.565" style="fill:none;stroke:rgb(244,244,244);stroke-width:2px;"/>
                    </g>
                </g>
            </g>
            <g id="g-root-ic_squa_1ur5vwj1o9ut56-stroke" transform="matrix(1,0,0,1,398,98)">
                <g id="ic_squa_1ur5vwj1o9ut56-stroke">
                    <g>
                        <path d="M39,43L21,43L21,25L39,25L39,32L47,27L47,41L39,36L39,43ZM17,11L51,11C51,11 57,11 57,17L57,51C57,51 57,57 51,57L17,57C17,57 11,57 11,51L11,17C11,17 11,11 17,11" style="fill:none;stroke:rgb(244,244,244);stroke-width:2px;"/>
                    </g>
                </g>
            </g>
            <g id="g-root-ic_48px_1q9h4ub1o9kxsb-stroke" transform="matrix(1,0,0,1,98,194)">
                <g id="ic_48px_1q9h4ub1o9kxsb-stroke">
                    <g>
                        <path d="M15.072,30.179C15.072,24.482 17.789,19.696 23.011,19.696C28.233,19.696 30.949,24.482 30.949,30.179L30.949,37.273C30.949,42.97 28.105,47.882 23.011,47.882C17.916,47.882 15.072,42.97 15.072,37.273L15.072,30.179ZM49.91,47.979L49.91,19.551L36.295,39.738L55.315,39.738" style="fill:none;stroke:rgb(244,244,244);stroke-width:2px;"/>
                    </g>
                </g>
            </g>
            <g id="g-root-ic_chat_4lp0hv1o9fbig-stroke" transform="matrix(1,0,0,1,422,194)">
                <g id="ic_chat_4lp0hv1o9fbig-stroke">
                    <g>
                        <path d="M37,43L52,43M37,47L47,47M39,35C38.906,32.586 39.824,30.241 41.533,28.533C43.241,26.824 45.586,25.906 48,26C50.414,25.906 52.759,26.824 54.467,28.533C56.176,30.241 57.094,32.586 57,35L39,35ZM42,17C42,20.314 44.686,23 48,23C51.314,23 54,20.314 54,17C54,13.686 51.314,11 48,11C44.686,11 42,13.686 42,17ZM53.942,16.166C52.882,16.726 51.699,17.012 50.5,17C47.626,17.001 45.004,15.359 43.75,12.772M11,57C10.906,54.586 11.824,52.241 13.533,50.533C15.241,48.824 17.586,47.906 20,48C22.414,47.906 24.759,48.824 26.467,50.533C28.176,52.241 29.094,54.586 29,57L11,57ZM14,39C14,42.314 16.686,45 20,45C23.314,45 26,42.314 26,39C26,35.686 23.314,33 20,33C16.686,33 14,35.686 14,39ZM25.946,38.2C24.899,38.738 23.736,39.013 22.558,39C19.666,39 17.031,37.338 15.786,34.728M35,39C33.895,39 33,39.895 33,41L33,51C33,52.105 33.895,53 35,53L38,53L38,57L43,53L55,53C56.105,53 57,52.105 57,51L57,41C57,39.895 56.105,39 55,39L35,39ZM30,15L15,15M25,19L15,19M33,11C34.105,11 35,11.895 35,13L35,23C35,24.105 34.105,25 33,25L30,25L30,30L25,25L13,25C11.895,25 11,24.105 11,23L11,13C11,11.895 11.895,11 13,11L33,11Z" style="fill:none;stroke:rgb(244,244,244);stroke-width:2px;"/>
                    </g>
                </g>
            </g>
            <g id="g-root-ic_48px_1hgyi0z1o9md53-stroke" transform="matrix(1,0,0,1,74,290)">
                <g id="ic_48px_1hgyi0z1o9md53-stroke">
                    <g>
                        <path d="M15.072,30.179C15.072,24.482 17.789,19.695 23.011,19.695C28.233,19.695 30.949,24.482 30.949,30.179L30.949,37.273C30.949,42.969 28.105,47.882 23.011,47.882C17.916,47.882 15.072,42.969 15.072,37.273L15.072,30.179ZM37.121,27.068C37.002,24.659 38.483,19.71 45.065,19.71C51.648,19.71 52.656,24.597 52.428,27.357C52.177,30.4 50.272,33.508 42.201,33.508C49.714,33.508 53.126,35.562 53.126,41.125C53.126,45.933 48.876,47.89 44.992,47.89C42.201,47.866 36.62,46.287 36.62,40.162" style="fill:none;stroke:rgb(244,244,244);stroke-width:2px;"/>
                    </g>
                </g>
            </g>
            <g id="g-root-ic_lapt_i0wddv1o9kzk5-stroke" transform="matrix(1,0,0,1,446,290)">
                <g id="ic_lapt_i0wddv1o9kzk5-stroke">
                    <g>
                        <path d="M11,56C11.019,54.143 11.403,52.309 12.13,50.6C12.93,49 16.256,47.9 20.436,46.352C21.566,45.934 21.38,42.984 20.88,42.432C19.268,40.685 18.478,38.334 18.71,35.968C18.566,34.463 19.054,32.965 20.057,31.833C21.06,30.702 22.488,30.038 24,30C25.512,30.037 26.941,30.702 27.944,31.834C28.947,32.966 29.435,34.464 29.29,35.97C29.522,38.336 28.732,40.687 27.12,42.434C26.62,42.986 26.434,45.936 27.564,46.354C31.744,47.902 35.072,49.008 35.87,50.602C36.596,52.31 36.98,54.144 37,56L11,56ZM35.5,19.5C35.5,21.433 37.067,23 39,23C40.933,23 42.5,21.433 42.5,19.5C42.5,17.567 40.933,16 39,16C37.067,16 35.5,17.567 35.5,19.5ZM46,30C45.184,26.8 42.302,24.561 39,24.561C35.698,24.561 32.816,26.8 32,30M53,34L53,14C53,12.895 52.105,12 51,12L25,12C23.895,12 23,12.895 23,14L23,25M34,34L57,34C57,36.209 55.209,38 53,38L34,38" style="fill:none;stroke:rgb(244,244,244);stroke-width:2px;"/>
                    </g>
                </g>
            </g>
            <g id="g-root-ic_48px_dcc81v1o9ql8h-stroke" transform="matrix(1,0,0,1,50,386)">
                <g id="ic_48px_dcc81v1o9ql8h-stroke">
                    <g>
                        <path d="M15.072,30.179C15.072,24.482 17.789,19.695 23.011,19.695C28.233,19.695 30.949,24.482 30.949,30.179L30.949,37.273C30.949,42.969 28.105,47.882 23.011,47.882C17.916,47.882 15.072,42.969 15.072,37.273L15.072,30.179ZM36.832,27.515C36.832,22.895 40.056,19.695 44.438,19.695C51.707,19.695 54.186,26.789 49.421,33.098L37.33,47.417L53.951,47.417" style="fill:none;stroke:rgb(244,244,244);stroke-width:2px;"/>
                    </g>
                </g>
            </g>
            <g id="g-root-ic_mark_qqx3ur1o9ntaa-stroke" transform="matrix(1,0,0,1,470,386)">
                <g id="ic_mark_qqx3ur1o9ntaa-stroke">
                    <g>
                        <path d="M54.8,56.988L42.638,44.826L40.066,38.012L46.88,40.584L57,50.696M39,49.01L13,49.01C11.895,49.01 11,48.115 11,47.01L11,17.01C11,15.905 11.895,15.01 13,15.01L49,15.01C50.105,15.01 51,15.905 51,17.01L51,37.01M21.002,11.012L21.002,18.012M41.002,11.012L41.002,18.012M11.002,23.012L51.002,23.012M21.002,29.012L17.002,33.012M21.002,33.012L17.002,29.012M33.002,29.012L29.002,33.012M33.002,33.012L29.002,29.012M45.002,29.012L41.002,33.012M45.002,33.012L41.002,29.012M21.002,39.012L17.002,43.012M21.002,43.012L17.002,39.012" style="fill:none;stroke:rgb(244,244,244);stroke-width:2px;"/>
                    </g>
                </g>
            </g>
            <g id="g-root-ic_add_1q6crer1o9tfr8-stroke" transform="matrix(1,0,0,1,494,482)">
                <g id="ic_add_1q6crer1o9tfr8-stroke">
                    <g>
                        <path d="M13.429,16.857L54.571,16.857C54.571,16.857 56.286,16.857 56.286,18.571L56.286,46C56.286,46 56.286,47.714 54.571,47.714L13.429,47.714C13.429,47.714 11.714,47.714 11.714,46L11.714,18.571C11.714,18.571 11.714,16.857 13.429,16.857M30.571,47.714L27.143,56.286M37.429,47.714L40.857,56.286M23.714,56.286L44.286,56.286M42.571,32.286L25.429,32.286M34,23.714L34,40.857" style="fill:none;stroke:rgb(244,244,244);stroke-width:2px;"/>
                    </g>
                </g>
            </g>
            <g id="g-root-ic_48px_8xro3n1o9ut54-stroke" transform="matrix(1,0,0,1,26,482)">
                <g id="ic_48px_8xro3n1o9ut54-stroke">
                    <g>
                        <path d="M37.842,23.377L46.297,20.184L46.297,47.951M15.072,30.179C15.072,24.482 17.789,19.695 23.011,19.695C28.233,19.695 30.949,24.482 30.949,30.179L30.949,37.273C30.949,42.969 28.105,47.882 23.011,47.882C17.916,47.882 15.072,42.969 15.072,37.273L15.072,30.179Z" style="fill:none;stroke:rgb(244,244,244);stroke-width:2px;"/>
                    </g>
                </g>
            </g>
        </g>
    </g>
    <defs>
        <linearGradient id="_Linear1" x1="0" y1="0" x2="1" y2="0" gradientUnits="userSpaceOnUse" gradientTransform="matrix(10,490,-490,10,0,0)"><stop offset="0" style="stop-color:rgb(149,149,149);stop-opacity:1"/><stop offset="1" style="stop-color:rgb(127,127,127);stop-opacity:1"/></linearGradient>
        <linearGradient id="_Linear2" x1="0" y1="0" x2="1" y2="0" gradientUnits="userSpaceOnUse" gradientTransform="matrix(10,490,-490,10,0,0)"><stop offset="0" style="stop-color:rgb(149,149,149);stop-opacity:1"/><stop offset="1" style="stop-color:rgb(127,127,127);stop-opacity:1"/></linearGradient>
        <linearGradient id="_Linear3" x1="0" y1="0" x2="1" y2="0" gradientUnits="userSpaceOnUse" gradientTransform="matrix(10,106,-106,10,-1.77636e-15,0)"><stop offset="0" style="stop-color:rgb(78,136,230);stop-opacity:1"/><stop offset="1" style="stop-color:rgb(79,126,202);stop-opacity:1"/></linearGradient>
        <linearGradient id="_Linear4" x1="0" y1="0" x2="1" y2="0" gradientUnits="userSpaceOnUse" gradientTransform="matrix(10,106,-106,10,0,0)"><stop offset="0" style="stop-color:rgb(31,169,215);stop-opacity:1"/><stop offset="1" style="stop-color:rgb(49,135,163);stop-opacity:1"/></linearGradient>
        <linearGradient id="_Linear5" x1="0" y1="0" x2="1" y2="0" gradientUnits="userSpaceOnUse" gradientTransform="matrix(10,106,-106,10,0,0)"><stop offset="0" style="stop-color:rgb(59,196,130);stop-opacity:1"/><stop offset="1" style="stop-color:rgb(68,152,112);stop-opacity:1"/></linearGradient>
        <linearGradient id="_Linear6" x1="0" y1="0" x2="1" y2="0" gradientUnits="userSpaceOnUse" gradientTransform="matrix(10,106,-106,10,0,0)"><stop offset="0" style="stop-color:rgb(145,187,57);stop-opacity:1"/><stop offset="1" style="stop-color:rgb(125,152,68);stop-opacity:1"/></linearGradient>
        <linearGradient id="_Linear7" x1="0" y1="0" x2="1" y2="0" gradientUnits="userSpaceOnUse" gradientTransform="matrix(10,106,-106,10,0,0)"><stop offset="0" style="stop-color:rgb(221,201,22);stop-opacity:1"/><stop offset="1" style="stop-color:rgb(169,156,44);stop-opacity:1"/></linearGradient>
    </defs>
</svg>
