<?xml version="1.0" encoding="UTF-8" standalone="no"?>
<!DOCTYPE svg PUBLIC "-//W3C//DTD SVG 1.1//EN" "http://www.w3.org/Graphics/SVG/1.1/DTD/svg11.dtd">
<svg width="100%" height="100%" viewBox="0 0 618 636" version="1.1" xmlns="http://www.w3.org/2000/svg" xmlns:xlink="http://www.w3.org/1999/xlink" xml:space="preserve" xmlns:serif="http://www.serif.com/" style="fill-rule:evenodd;clip-rule:evenodd;stroke-linecap:round;stroke-linejoin:round;">
    <g id="items" transform="matrix(1.22198,0,0,1.22198,-68.5912,-120.525)">
        <g id="blend">
            <g id="g-root-cp_1_sign-1_v4vmib1lrkg0f-fill" transform="matrix(1,0,0,1,50,146)">
                <g id="cp_1_sign-1_v4vmib1lrkg0f-fill">
                    <g>
                        <path d="M10,52L28,10L28,94L10,52ZM28,10L249,10L249,94L28,94L28,10Z" style="fill:rgb(67,221,147);"/>
                    </g>
                </g>
            </g>
            <g id="g-root-cp_3_sign-3_m9v3cj1lrkef5-fill" transform="matrix(1,0,0,1,98,242)">
                <g id="cp_3_sign-3_m9v3cj1lrkef5-fill">
                    <g>
                        <path d="M10,52L28,10L28,94L10,52ZM28,10L201,10L201,94L28,94L28,10Z" style="fill:rgb(26,195,251);"/>
                    </g>
                </g>
            </g>
            <g id="g-root-cp_5_sign-5_8yekz71lrkg03-fill" transform="matrix(1,0,0,1,50,338)">
                <g id="cp_5_sign-5_8yekz71lrkg03-fill">
                    <g>
                        <path d="M10,52L28,10L28,94L10,52ZM28,10L249,10L249,94L28,94L28,10Z" style="fill:rgb(135,105,253);"/>
                    </g>
                </g>
            </g>
            <g id="g-root-cp_pole_g-pole_1lt1lf71lrkf0t-fill" transform="matrix(1,0,0,1,287,122)">
                <g id="cp_pole_g-pole_1lt1lf71lrkf0t-fill">
                    <g>
                        <path d="M31,346L13,346L13,460L31,460L31,459.897L24.55,459.88C24.55,459.88 25.3,453.89 17.74,452.78C25.63,449.53 28.41,454.56 28.41,454.56C28.41,454.56 27.994,447.986 31,442.2L31,346ZM13,22L31,22L31,346L13,346L13,22Z" style="fill:rgb(171,171,171);"/>
                    </g>
                </g>
                <g id="cp_pole_g-pole_1lt1lf71lrkf0t-fill1" serif:id="cp_pole_g-pole_1lt1lf71lrkf0t-fill">
                    <g>
                        <rect x="10" y="10" width="24" height="12" style="fill:rgb(171,171,171);"/>
                    </g>
                </g>
            </g>
            <g id="g-root-cp_pole_plant_142e20j1lrke88-fill" transform="matrix(1,0,0,1,255,547)">
                <g id="cp_pole_plant_142e20j1lrke88-fill">
                    <g>
                        <path d="M60.393,29.56C60.393,29.56 57.613,24.53 49.723,27.78C54.516,28.484 57.019,30.471 56.533,35.008L10,35.008C10,35.008 17.976,46.521 54.183,46.521C90.39,46.521 97.76,35.008 97.76,35.008L71.483,35.008C68.788,30.384 74.815,23.86 80.883,26.67C78.883,23.56 72.993,22.89 68.553,26C66.693,20.52 67.443,13.77 70.613,10C59.453,14.7 60.393,29.56 60.393,29.56Z" style="fill:rgb(145,187,57);"/>
                    </g>
                </g>
            </g>
            <g id="g-root-cp_2_sign-2_mbqilv1lrkdfm-fill" transform="matrix(1,0,0,1,309,182)">
                <g id="cp_2_sign-2_mbqilv1lrkdfm-fill">
                    <g>
                        <path d="M10,10L231,10L231,94L10,94L10,10ZM249,52L231,10L231,94L249,52Z" style="fill:rgb(79,145,252);"/>
                    </g>
                </g>
            </g>
            <g id="g-root-cp_4_sign-4_90a08j1lrkf0k-fill" transform="matrix(1,0,0,1,309,278)">
                <g id="cp_4_sign-4_90a08j1lrkf0k-fill">
                    <g>
                        <path d="M10,10L195,10L195,94L10,94L10,10ZM213,52L195,10L195,94L213,52Z" style="fill:rgb(166,218,55);"/>
                    </g>
                </g>
            </g>
            <g id="g-root-cp_6_sign-6_1upxjub1lrkgee-fill" transform="matrix(1,0,0,1,309,374)">
                <g id="cp_6_sign-6_1upxjub1lrkgee-fill">
                    <g>
                        <path d="M10,10L207,10L207,94L10,94L10,10ZM225,52L207,10L207,94L225,52Z" style="fill:rgb(255,231,17);"/>
                    </g>
                </g>
            </g>
            <g id="g-root-tx_affordab_mczgs31lrlszm-fill" transform="matrix(1,0,0,1,122,164)">
                <g id="tx_affordab_mczgs31lrlszm-fill">
                    <g>
                        <g>
                            <g transform="matrix(1,0,0,1,70.18,34)">
                                <g transform="matrix(20,0,0,20,13.3398,0)">
                                </g>
                                <g transform="matrix(20,0,0,20,18.6816,0)">
                                </g>
                                <text x="0px" y="0px" style="font-family:'ArialMT', 'Arial', sans-serif;font-size:20px;fill:rgb(44,44,44);">Aﬀordable</text>
                            </g>
                            <g transform="matrix(1,0,0,1,22.35,58)">
                                <text x="0px" y="0px" style="font-family:'ArialMT', 'Arial', sans-serif;font-size:20px;fill:rgb(44,44,44);">Communication</text>
                            </g>
                        </g>
                    </g>
                </g>
            </g>
            <g id="g-root-tx_scalable_1qbczw31lrq0w0-fill" transform="matrix(1,0,0,1,320,200)">
                <g id="tx_scalable_1qbczw31lrq0w0-fill">
                    <g>
                        <g>
                            <g transform="matrix(1,0,0,1,12,34)">
                                <text x="0px" y="0px" style="font-family:'ArialMT', 'Arial', sans-serif;font-size:20px;fill:rgb(44,44,44);">Scalable for <tspan x="110.068px 123.408px " y="0px 0px ">An</tspan>y</text>
                            </g>
                            <g transform="matrix(1,0,0,1,12,58)">
                                <text x="0px" y="0px" style="font-family:'ArialMT', 'Arial', sans-serif;font-size:20px;fill:rgb(44,44,44);">Size</text>
                            </g>
                        </g>
                    </g>
                </g>
            </g>
            <g id="g-root-tx_seamless_2rkqb1lrn8ck-fill" transform="matrix(1,0,0,1,170,260)">
                <g id="tx_seamless_2rkqb1lrn8ck-fill">
                    <g>
                        <g>
                            <g transform="matrix(1,0,0,1,29,34)">
                                <text x="0px" y="0px" style="font-family:'ArialMT', 'Arial', sans-serif;font-size:20px;fill:rgb(44,44,44);">Seamless</text>
                            </g>
                            <g transform="matrix(1,0,0,1,20,58)">
                                <text x="0px" y="0px" style="font-family:'ArialMT', 'Arial', sans-serif;font-size:20px;fill:rgb(44,44,44);">Integration</text>
                            </g>
                        </g>
                    </g>
                </g>
            </g>
            <g id="g-root-tx_enhanced_4j7jxv1lrrh1m-fill" transform="matrix(1,0,0,1,320,296)">
                <g id="tx_enhanced_4j7jxv1lrrh1m-fill">
                    <g>
                        <g>
                            <g transform="matrix(1,0,0,1,12,34)">
                                <text x="0px" y="0px" style="font-family:'ArialMT', 'Arial', sans-serif;font-size:20px;fill:rgb(44,44,44);">Enhanced</text>
                            </g>
                            <g transform="matrix(1,0,0,1,12,58)">
                                <text x="0px" y="0px" style="font-family:'ArialMT', 'Arial', sans-serif;font-size:20px;fill:rgb(44,44,44);">Productivity</text>
                            </g>
                        </g>
                    </g>
                </g>
            </g>
            <g id="g-root-tx_securepr_hvajeb1lrolja-fill" transform="matrix(1,0,0,1,122,356)">
                <g id="tx_securepr_hvajeb1lrolja-fill">
                    <g>
                        <g>
                            <g transform="matrix(1,0,0,1,18.62,34)">
                                <text x="0px" y="0px" style="font-family:'ArialMT', 'Arial', sans-serif;font-size:20px;fill:rgb(44,44,44);">Secure &amp; Private</text>
                            </g>
                            <g transform="matrix(1,0,0,1,81.32,58)">
                                <text x="0px" y="0px" style="font-family:'ArialMT', 'Arial', sans-serif;font-size:20px;fill:rgb(44,44,44);">Meetings</text>
                            </g>
                        </g>
                    </g>
                </g>
            </g>
            <g id="g-root-tx_userfrie_m8m56b1lrsttw-fill" transform="matrix(1,0,0,1,320,392)">
                <g id="tx_userfrie_m8m56b1lrsttw-fill">
                    <g>
                        <g>
                            <g transform="matrix(1,0,0,1,12,34)">
                                <text x="0px" y="0px" style="font-family:'ArialMT', 'Arial', sans-serif;font-size:20px;fill:rgb(44,44,44);">User-Friendly</text>
                            </g>
                            <g transform="matrix(1,0,0,1,12,58)">
                                <text x="0px" y="0px" style="font-family:'ArialMT', 'Arial', sans-serif;font-size:20px;fill:rgb(44,44,44);">Interface</text>
                            </g>
                        </g>
                    </g>
                </g>
            </g>
            <g id="g-root-cp_1_sign-1_v4vmib1lrkg0f-stroke" transform="matrix(1,0,0,1,50,146)">
                <g id="cp_1_sign-1_v4vmib1lrkg0f-stroke">
                    <g>
                        <path d="M28,10L249,10M249,94L28,94M28,94L10,52L28,10" style="fill:none;stroke:rgb(44,44,44);stroke-width:2px;"/>
                    </g>
                </g>
            </g>
            <g id="g-root-cp_3_sign-3_m9v3cj1lrkef5-stroke" transform="matrix(1,0,0,1,98,242)">
                <g id="cp_3_sign-3_m9v3cj1lrkef5-stroke">
                    <g>
                        <path d="M28,10L201,10M201,94L28,94M28,94L10,52L28,10" style="fill:none;stroke:rgb(44,44,44);stroke-width:2px;"/>
                    </g>
                </g>
            </g>
            <g id="g-root-cp_5_sign-5_8yekz71lrkg03-stroke" transform="matrix(1,0,0,1,50,338)">
                <g id="cp_5_sign-5_8yekz71lrkg03-stroke">
                    <g>
                        <path d="M28,10L249,10M249,94L28,94M28,94L10,52L28,10" style="fill:none;stroke:rgb(44,44,44);stroke-width:2px;"/>
                    </g>
                </g>
            </g>
            <g id="g-root-cp_pole_g-pole_1lt1lf71lrkf0t-stroke" transform="matrix(1,0,0,1,287,122)">
                <g id="cp_pole_g-pole_1lt1lf71lrkf0t-stroke">
                    <g>
                        <path d="M31,442L31,346M13,459L13,346M31,346L31,22M13,346L13,22" style="fill:none;stroke:rgb(44,44,44);stroke-width:2px;"/>
                    </g>
                </g>
                <g id="cp_pole_g-pole_1lt1lf71lrkf0t-stroke1" serif:id="cp_pole_g-pole_1lt1lf71lrkf0t-stroke">
                    <g>
                        <rect x="10" y="10" width="24" height="12" style="fill:none;stroke:rgb(44,44,44);stroke-width:2px;"/>
                    </g>
                </g>
            </g>
            <g id="g-root-cp_pole_plant_142e20j1lrke88-stroke" transform="matrix(1,0,0,1,255,547)">
                <g id="cp_pole_plant_142e20j1lrke88-stroke">
                    <g>
                        <path d="M56.55,34.88C56.55,34.88 57.3,28.89 49.74,27.78C57.63,24.53 60.41,29.56 60.41,29.56C60.41,29.56 59.47,14.7 70.63,10C67.46,13.77 66.71,20.52 68.57,26C73.01,22.89 78.9,23.56 80.9,26.67C76.68,24.44 69.89,28.468 71,34.918M71,34.918L98,34.918M10,34.918L56.5,34.918" style="fill:none;stroke:rgb(44,44,44);stroke-width:2px;"/>
                    </g>
                </g>
            </g>
            <g id="g-root-cp_2_sign-2_mbqilv1lrkdfm-stroke" transform="matrix(1,0,0,1,309,182)">
                <g id="cp_2_sign-2_mbqilv1lrkdfm-stroke">
                    <g>
                        <path d="M231,94L10,94M10,10L231,10M231,10L249,52L231,94" style="fill:none;stroke:rgb(44,44,44);stroke-width:2px;"/>
                    </g>
                </g>
            </g>
            <g id="g-root-cp_4_sign-4_90a08j1lrkf0k-stroke" transform="matrix(1,0,0,1,309,278)">
                <g id="cp_4_sign-4_90a08j1lrkf0k-stroke">
                    <g>
                        <path d="M195,94L10,94M10,10L195,10M195,10L213,52L195,94" style="fill:none;stroke:rgb(44,44,44);stroke-width:2px;"/>
                    </g>
                </g>
            </g>
            <g id="g-root-cp_6_sign-6_1upxjub1lrkgee-stroke" transform="matrix(1,0,0,1,309,374)">
                <g id="cp_6_sign-6_1upxjub1lrkgee-stroke">
                    <g>
                        <path d="M207,94L10,94M10,10L207,10M207,10L225,52L207,94" style="fill:none;stroke:rgb(44,44,44);stroke-width:2px;"/>
                    </g>
                </g>
            </g>
            <g id="g-root-ic_appr_mczgs31lrkflt-stroke" transform="matrix(1,0,0,1,74,170)">
                <g id="ic_appr_mczgs31lrkflt-stroke">
                    <g>
                        <path d="M45.25,37.75C45.25,41.892 41.892,45.25 37.75,45.25C33.608,45.25 30.25,41.892 30.25,37.75C30.25,33.608 33.608,30.25 37.75,30.25M34.75,37.75L37.18,39.573C37.499,39.812 37.95,39.759 38.206,39.452L45.25,31M10.756,18.25C10.756,22.392 14.114,25.75 18.256,25.75C22.398,25.75 25.756,22.392 25.756,18.25C25.756,14.108 22.398,10.75 18.256,10.75C14.114,10.75 10.756,14.108 10.756,18.25L10.756,18.25ZM18.256,21.25L18.256,22.75M18.256,13.75L18.256,15.25M15.25,21.25L19.75,21.25C20.578,21.25 21.25,20.578 21.25,19.75C21.25,18.922 20.578,18.25 19.75,18.25L16.75,18.25C15.922,18.25 15.25,17.578 15.25,16.75C15.25,15.922 15.922,15.25 16.75,15.25L21.25,15.25M28,43.75C19.302,43.75 12.25,36.698 12.25,28M28,12.25C36.698,12.25 43.75,19.302 43.75,28" style="fill:none;stroke:rgb(44,44,44);stroke-width:2px;"/>
                    </g>
                </g>
            </g>
            <g id="g-root-ic_1_qs6htf1lrom4v-stroke" transform="matrix(1,0,0,1,488,206)">
                <g id="ic_1_qs6htf1lrom4v-stroke">
                    <g>
                        <path d="M44.714,11.286L33.143,11.286L33.143,22.857L22.857,22.857L22.857,33.143L11.286,33.143L11.286,44.714L44.714,44.714L44.714,11.286Z" style="fill:none;stroke:rgb(44,44,44);stroke-width:2px;"/>
                    </g>
                </g>
            </g>
            <g id="g-root-ic_plan_145ifg31lrlssj-stroke" transform="matrix(1,0,0,1,122,266)">
                <g id="ic_plan_145ifg31lrlssj-stroke">
                    <g>
                        <path d="M19,25.75L16,25.75L16,11.5C16,11.086 16.336,10.75 16.75,10.75L31.75,10.75C32.164,10.75 32.5,11.086 32.5,11.5L32.5,25.75L24.25,25.75M28,25.75L28,30.25C30.485,30.25 32.5,32.265 32.5,34.75L32.5,35.5L28,35.5L28,44.5C28,44.914 27.664,45.25 27.25,45.25L11.5,45.25C11.086,45.25 10.75,44.914 10.75,44.5L10.75,26.5C10.75,26.086 11.086,25.75 11.5,25.75L16,25.75M28,38.5L44.5,38.5C44.914,38.5 45.25,38.164 45.25,37.75L45.25,28C42.351,28 40,25.649 40,22.75L44.5,22.75C44.914,22.75 45.25,22.414 45.25,22L45.25,17.5C45.25,17.086 44.914,16.75 44.5,16.75L32.5,16.75M10.75,36.25L18.25,36.25L18.25,45.25L11.5,45.25C11.086,45.25 10.75,44.914 10.75,44.5L10.75,36.25ZM10.75,39.25L18.25,39.25M10.75,42.25L18.25,42.25" style="fill:none;stroke:rgb(44,44,44);stroke-width:2px;"/>
                    </g>
                </g>
            </g>
            <g id="g-root-ic_cont_92rwkz1lrq0w1-stroke" transform="matrix(1,0,0,1,452,302)">
                <g id="ic_cont_92rwkz1lrq0w1-stroke">
                    <g>
                        <path d="M11.125,41.575C11.125,32.275 18.658,24.775 28,24.775C37.342,24.775 44.875,32.275 44.875,41.575M28,44.275C29.243,44.275 30.25,43.268 30.25,42.025C30.25,40.782 29.243,39.775 28,39.775C26.757,39.775 25.75,40.782 25.75,42.025C25.75,43.268 26.757,44.275 28,44.275ZM23.725,30.325L27.175,39.925M32.275,30.325L31.525,32.425M38.8,35.875L36.55,37.225M17.2,35.875L19.45,37.225M40.3,44.125L38.05,43.825M15.7,44.125L17.95,43.825M17.2,11.725L20.593,20.297M16,18.925L20.5,20.425L22.9,16.225" style="fill:none;stroke:rgb(44,44,44);stroke-width:2px;"/>
                    </g>
                </g>
            </g>
            <g id="g-root-ic_pers_mb41ir1lrn7d9-stroke" transform="matrix(1,0,0,1,74,362)">
                <g id="ic_pers_mb41ir1lrn7d9-stroke">
                    <g>
                        <path d="M17.071,17.071C17.071,20.267 19.662,22.857 22.857,22.857C26.053,22.857 28.643,20.267 28.643,17.071C28.643,13.876 26.053,11.286 22.857,11.286C19.662,11.286 17.071,13.876 17.071,17.071M25.429,26.997C21.993,26.204 18.384,27.024 15.629,29.223C12.873,31.423 11.274,34.76 11.286,38.286L11.286,42.143L25.429,42.143M37.437,44.637C37.155,44.739 36.845,44.739 36.563,44.637C32.175,42.899 29.291,38.66 29.286,33.94L29.286,30.571C29.263,30.224 29.391,29.883 29.637,29.637C29.883,29.391 30.224,29.263 30.571,29.286L43.429,29.286C43.776,29.263 44.117,29.391 44.363,29.637C44.609,29.883 44.737,30.224 44.714,30.571L44.714,33.94C44.709,38.66 41.825,42.899 37.437,44.637Z" style="fill:none;stroke:rgb(44,44,44);stroke-width:2px;"/>
                    </g>
                </g>
            </g>
            <g id="g-root-ic_1_mbqilv1lrrguj-stroke" transform="matrix(1,0,0,1,464,398)">
                <g id="ic_1_mbqilv1lrrguj-stroke">
                    <g>
                        <path d="M27.25,34.75C27.25,39.721 31.279,43.75 36.25,43.75C41.221,43.75 45.25,39.721 45.25,34.75C45.25,29.779 41.221,25.75 36.25,25.75C31.279,25.75 27.25,29.779 27.25,34.75M38.5,38.65C37.108,39.454 35.392,39.454 34,38.65M36.25,25.75C37.493,25.75 38.5,26.757 38.5,28C38.5,29.243 37.493,30.25 36.25,30.25M40.188,32.5C40.498,32.5 40.75,32.752 40.75,33.063M39.625,33.063C39.625,32.752 39.877,32.5 40.188,32.5M40.188,33.625C39.877,33.625 39.625,33.373 39.625,33.063M40.75,33.063C40.75,33.373 40.498,33.625 40.188,33.625M32.313,32.5C32.623,32.5 32.875,32.752 32.875,33.063M31.75,33.063C31.75,32.752 32.002,32.5 32.313,32.5M32.313,33.625C32.002,33.625 31.75,33.373 31.75,33.063M32.875,33.063C32.875,33.373 32.623,33.625 32.313,33.625M23.875,37.75L13.75,37.75C12.093,37.75 10.75,36.407 10.75,34.75L10.75,15.25C10.75,13.593 12.093,12.25 13.75,12.25L36.25,12.25C37.907,12.25 39.25,13.593 39.25,15.25L39.25,22.75M10.75,19.75L39.25,19.75M16,15.625C16.207,15.625 16.375,15.793 16.375,16C16.375,16.207 16.207,16.375 16,16.375C15.793,16.375 15.625,16.207 15.625,16C15.625,15.793 15.793,15.625 16,15.625M20.5,15.625C20.707,15.625 20.875,15.793 20.875,16C20.875,16.207 20.707,16.375 20.5,16.375C20.293,16.375 20.125,16.207 20.125,16C20.125,15.793 20.293,15.625 20.5,15.625M25,15.625C25.207,15.625 25.375,15.793 25.375,16C25.375,16.207 25.207,16.375 25,16.375C24.793,16.375 24.625,16.207 24.625,16C24.625,15.793 24.793,15.625 25,15.625" style="fill:none;stroke:rgb(44,44,44);stroke-width:2px;"/>
                    </g>
                </g>
            </g>
        </g>
    </g>
</svg>
