<?xml version="1.0" encoding="UTF-8" standalone="no"?>
<!DOCTYPE svg PUBLIC "-//W3C//DTD SVG 1.1//EN" "http://www.w3.org/Graphics/SVG/1.1/DTD/svg11.dtd">
<svg width="100%" height="100%" viewBox="0 0 576 731" version="1.1" xmlns="http://www.w3.org/2000/svg" xmlns:xlink="http://www.w3.org/1999/xlink" xml:space="preserve" xmlns:serif="http://www.serif.com/" style="fill-rule:evenodd;clip-rule:evenodd;stroke-linecap:round;stroke-linejoin:round;">
    <g id="items" transform="matrix(1.10909,0,0,1.10909,-31.4189,-50.2374)">
        <g id="blend">
            <g id="g-root-cp_9_text-9_1hf2q371n5we0y-fill" transform="matrix(1,0,0,1,50,86)">
                <g id="cp_9_text-9_1hf2q371n5we0y-fill">
                    <g>
                        <rect x="10" y="10" width="228" height="84" style="fill:rgb(183,183,183);"/>
                    </g>
                </g>
            </g>
            <g id="g-root-cp_9_stick-9_1lw56dv1n5wfes-fill" transform="matrix(1,0,0,1,272,170)">
                <g id="cp_9_stick-9_1lw56dv1n5wfes-fill">
                    <g>
                        <rect x="10" y="10" width="5.997" height="444" style="fill:rgb(183,183,183);"/>
                    </g>
                </g>
            </g>
            <g id="g-root-cp_7_text-7_zpo4ur1n5wemm-fill" transform="matrix(1,0,0,1,44,170)">
                <g id="cp_7_text-7_zpo4ur1n5wemm-fill">
                    <g>
                        <rect x="10" y="10" width="228" height="84" style="fill:rgb(247,148,56);"/>
                    </g>
                </g>
            </g>
            <g id="g-root-cp_7_stick-7_hye4cz1n5wgzs-fill" transform="matrix(1,0,0,1,266,254)">
                <g id="cp_7_stick-7_hye4cz1n5wgzs-fill">
                    <g>
                        <rect x="10" y="10" width="5.997" height="360" style="fill:rgb(247,148,56);"/>
                    </g>
                </g>
            </g>
            <g id="g-root-cp_5_text-5_7qkyb1n5wg76-fill" transform="matrix(1,0,0,1,38,254)">
                <g id="cp_5_text-5_7qkyb1n5wg76-fill">
                    <g>
                        <rect x="10" y="10" width="228" height="108" style="fill:rgb(243,102,187);"/>
                    </g>
                </g>
            </g>
            <g id="g-root-cp_5_stick-5_1d2dleb1n5wf7w-fill" transform="matrix(1,0,0,1,260,362)">
                <g id="cp_5_stick-5_1d2dleb1n5wf7w-fill">
                    <g>
                        <rect x="10" y="10" width="5.997" height="252" style="fill:rgb(243,102,187);"/>
                    </g>
                </g>
            </g>
            <g id="g-root-cp_3_text-3_vbq1zn1n5wefa-fill" transform="matrix(1,0,0,1,32,362)">
                <g id="cp_3_text-3_vbq1zn1n5wefa-fill">
                    <g>
                        <rect x="10" y="10" width="228" height="108" style="fill:rgb(26,195,251);"/>
                    </g>
                </g>
            </g>
            <g id="g-root-cp_3_stick-3_i09jmb1n5wg08-fill" transform="matrix(1,0,0,1,254,470)">
                <g id="cp_3_stick-3_i09jmb1n5wg08-fill">
                    <g>
                        <rect x="10" y="10" width="5.997" height="144" style="fill:rgb(26,195,251);"/>
                    </g>
                </g>
            </g>
            <g id="g-root-cp_1_text-1_4pfic31n5wefe-fill" transform="matrix(1,0,0,1,26,470)">
                <g id="cp_1_text-1_4pfic31n5wefe-fill">
                    <g>
                        <rect x="10" y="10" width="228" height="108" style="fill:rgb(67,221,147);"/>
                    </g>
                </g>
            </g>
            <g id="g-root-cp_1_stick-1_1lz9jtf1n5wglg-fill" transform="matrix(1,0,0,1,247.997,554)">
                <g id="cp_1_stick-1_1lz9jtf1n5wglg-fill">
                    <g>
                        <rect x="10.003" y="10" width="5.997" height="60" style="fill:rgb(67,221,147);"/>
                    </g>
                </g>
            </g>
            <g id="g-root-cp_10_text-10_ziswwj1n5xudq-fill" transform="matrix(1,0,0,1,278,50)">
                <g id="cp_10_text-10_ziswwj1n5xudq-fill">
                    <g>
                        <rect x="10" y="10" width="228" height="84" style="fill:rgb(183,183,183);"/>
                    </g>
                </g>
            </g>
            <g id="g-root-cp_10_stick-10_dcbvdf1n5xudc-fill" transform="matrix(1,0,0,1,278.003,134)">
                <g id="cp_10_stick-10_dcbvdf1n5xudc-fill">
                    <g>
                        <rect x="10" y="10" width="5.997" height="480" style="fill:rgb(183,183,183);"/>
                    </g>
                </g>
            </g>
            <g id="g-root-cp_8_text-8_1hu371n5xssi-fill" transform="matrix(1,0,0,1,284,134)">
                <g id="cp_8_text-8_1hu371n5xssi-fill">
                    <g>
                        <rect x="10" y="10" width="228" height="108" style="fill:rgb(255,231,17);"/>
                    </g>
                </g>
            </g>
            <g id="g-root-cp_8_stick-8_1lr5doz1n5xu6c-fill" transform="matrix(1,0,0,1,284.003,242)">
                <g id="cp_8_stick-8_1lr5doz1n5xu6c-fill">
                    <g>
                        <rect x="10" y="10" width="5.997" height="372" style="fill:rgb(255,231,17);"/>
                    </g>
                </g>
            </g>
            <g id="g-root-cp_6_text-6_18gbcer1n5xsli-fill" transform="matrix(1,0,0,1,290,242)">
                <g id="cp_6_text-6_18gbcer1n5xsli-fill">
                    <g>
                        <rect x="10" y="10" width="228" height="108" style="fill:rgb(251,103,98);"/>
                    </g>
                </g>
            </g>
            <g id="g-root-cp_6_stick-6_v4uu1f1n5xu6g-fill" transform="matrix(1,0,0,1,290.003,350)">
                <g id="cp_6_stick-6_v4uu1f1n5xu6g-fill">
                    <g>
                        <rect x="10" y="10" width="5.997" height="264" style="fill:rgb(251,103,98);"/>
                    </g>
                </g>
            </g>
            <g id="g-root-cp_4_text-4_hu0sr71n5xslm-fill" transform="matrix(1,0,0,1,296,350)">
                <g id="cp_4_text-4_hu0sr71n5xslm-fill">
                    <g>
                        <rect x="10" y="10" width="228" height="108" style="fill:rgb(135,105,253);"/>
                    </g>
                </g>
            </g>
            <g id="g-root-cp_4_stick-4_2qs9f1n5xuys-fill" transform="matrix(1,0,0,1,296.003,458)">
                <g id="cp_4_stick-4_2qs9f1n5xuys-fill">
                    <g>
                        <rect x="10" y="10" width="5.997" height="156" style="fill:rgb(135,105,253);"/>
                    </g>
                </g>
            </g>
            <g id="g-root-cp_2_text-2_1lt0syb1n5xt6u-fill" transform="matrix(1,0,0,1,302,458)">
                <g id="cp_2_text-2_1lt0syb1n5xt6u-fill">
                    <g>
                        <rect x="10" y="10" width="228" height="108" style="fill:rgb(166,218,55);"/>
                    </g>
                </g>
            </g>
            <g id="g-root-cp_2_stick-2_18hkakz1n5xurs-fill" transform="matrix(1,0,0,1,302.003,541)">
                <g id="cp_2_stick-2_18hkakz1n5xurs-fill">
                    <g>
                        <rect x="10" y="10" width="5.997" height="73" style="fill:rgb(166,218,55);"/>
                    </g>
                </g>
            </g>
            <g id="g-root-cp_0_g-0_v6q9ar1n5xt6y-fill" transform="matrix(1,0,0,1,248,614)">
                <g id="cp_0_g-0_v6q9ar1n5xt6y-fill">
                    <g>
                        <path d="M30,58L40.001,82.001L50.001,58L30,58Z" style="fill:rgb(232,232,232);"/>
                    </g>
                </g>
                <g id="cp_0_g-0_v6q9ar1n5xt6y-fill1" serif:id="cp_0_g-0_v6q9ar1n5xt6y-fill">
                    <g>
                        <path d="M70.001,10L10,10L30,57.999L50.001,57.999L70.001,10Z" style="fill:rgb(232,232,232);"/>
                    </g>
                </g>
            </g>
            <g transform="matrix(1,0,0,1,350,96)">
                <g id="g-root-tx_247suppo_m7yys31n60nwk-fill">
                    <g id="tx_247suppo_m7yys31n60nwk-fill">
                        <g>
                            <g>
                                <text x="0px" y="0px" style="font-family:'Arial-BoldMT', 'Arial', sans-serif;font-weight:700;font-size:20px;fill:rgb(44,44,44);">24/7 Support</text>
                            </g>
                        </g>
                    </g>
                </g>
            </g>
            <g id="g-root-tx_recordin_qwj4431n5ie4q-fill" transform="matrix(1,0,0,1,86,266)">
                <g id="tx_recordin_qwj4431n5ie4q-fill">
                    <g>
                        <g>
                            <g transform="matrix(1,0,0,1,18.22,34)">
                                <text x="0px" y="0px" style="font-family:'Arial-BoldMT', 'Arial', sans-serif;font-weight:700;font-size:20px;fill:rgb(44,44,44);">Recording &amp;</text>
                            </g>
                            <g transform="matrix(1,0,0,1,46.15,58)">
                                <text x="0px" y="0px" style="font-family:'Arial-BoldMT', 'Arial', sans-serif;font-weight:700;font-size:20px;fill:rgb(44,44,44);">Playback</text>
                            </g>
                        </g>
                    </g>
                </g>
            </g>
            <g id="g-root-tx_customiz_18mk9lf1n5gy6i-fill" transform="matrix(1,0,0,1,350,254)">
                <g id="tx_customiz_18mk9lf1n5gy6i-fill">
                    <g>
                        <g>
                            <g transform="matrix(1,0,0,1,12,34)">
                                <text x="0px" y="0px" style="font-family:'Arial-BoldMT', 'Arial', sans-serif;font-weight:700;font-size:20px;fill:rgb(44,44,44);">Customizable</text>
                            </g>
                            <g transform="matrix(1,0,0,1,12,58)">
                                <text x="0px" y="0px" style="font-family:'Arial-BoldMT', 'Arial', sans-serif;font-weight:700;font-size:20px;fill:rgb(44,44,44);">Branding</text>
                            </g>
                        </g>
                    </g>
                </g>
            </g>
            <g id="g-root-tx__1lqizrn1n5jqx7-fill">
            </g>
            <g id="g-root-tx__1qf389f1n5gxzf-fill">
            </g>
            <g id="g-root-tx_realtime_144v91v1n5v092-fill" transform="matrix(1,0,0,1,56,374)">
                <g id="tx_realtime_144v91v1n5v092-fill">
                    <g>
                        <g>
                            <g transform="matrix(1,0,0,1,58.68,34)">
                                <text x="0px" y="0px" style="font-family:'Arial-BoldMT', 'Arial', sans-serif;font-weight:700;font-size:20px;fill:rgb(44,44,44);">Real-T<tspan x="60.762px 66.318px " y="0px 0px ">im</tspan>e</text>
                            </g>
                            <g transform="matrix(1,0,0,1,14.87,58)">
                                <text x="0px" y="0px" style="font-family:'Arial-BoldMT', 'Arial', sans-serif;font-weight:700;font-size:20px;fill:rgb(44,44,44);">Screen Sharing</text>
                            </g>
                        </g>
                    </g>
                </g>
            </g>
            <g id="g-root-tx__93docz1n621a8-fill">
            </g>
            <g id="g-root-tx__1upwrdf1n5z7ya-fill">
            </g>
            <g id="g-root-tx_virtualm_146qrgz1n5iccl-fill" transform="matrix(1,0,0,1,356,362)">
                <g id="tx_virtualm_146qrgz1n5iccl-fill">
                    <g>
                        <g>
                            <g transform="matrix(1,0,0,1,12,34)">
                                <text x="0px" y="0px" style="font-family:'Arial-BoldMT', 'Arial', sans-serif;font-weight:700;font-size:20px;fill:rgb(44,44,44);">V<tspan x="12.979px 18.535px " y="0px 0px ">ir</tspan>tual Meeting</text>
                            </g>
                            <g transform="matrix(1,0,0,1,12,58)">
                                <text x="0px" y="0px" style="font-family:'Arial-BoldMT', 'Arial', sans-serif;font-weight:700;font-size:20px;fill:rgb(44,44,44);">Rooms</text>
                            </g>
                        </g>
                    </g>
                </g>
            </g>
            <g id="g-root-tx__4ot4er1n5v01z-fill">
            </g>
            <g id="g-root-tx__8zpg31n5idxi-fill">
            </g>
            <g id="g-root-tx_hdvideoa_1hgy8ib1n5xurl-fill" transform="matrix(1,0,0,1,62,482)">
                <g id="tx_hdvideoa_1hgy8ib1n5xurl-fill">
                    <g>
                        <g>
                            <g transform="matrix(1,0,0,1,38.08,34)">
                                <text x="0px" y="0px" style="font-family:'Arial-BoldMT', 'Arial', sans-serif;font-weight:700;font-size:20px;fill:rgb(44,44,44);">HD V<tspan x="47.422px 52.979px " y="0px 0px ">id</tspan>eo &amp;</text>
                            </g>
                            <g transform="matrix(1,0,0,1,19.53,58)">
                                <text x="0px" y="0px" style="font-family:'Arial-BoldMT', 'Arial', sans-serif;font-weight:700;font-size:20px;fill:rgb(44,44,44);">Audio Quality</text>
                            </g>
                        </g>
                    </g>
                </g>
            </g>
            <g transform="matrix(1,0,0,1,87.6,216)">
                <g id="g-root-tx_oneclick_141qsgj1n5z8y1-fill">
                    <g id="tx_oneclick_141qsgj1n5z8y1-fill">
                        <g>
                            <g>
                                <text x="0px" y="0px" style="font-family:'Arial-BoldMT', 'Arial', sans-serif;font-weight:700;font-size:20px;fill:rgb(44,44,44);">One-Click Join</text>
                            </g>
                        </g>
                    </g>
                </g>
            </g>
            <g id="g-root-tx__1lt0w431n60nid-fill">
            </g>
            <g id="g-root-tx_multidev_zqas9f1n5jtog-fill" transform="matrix(1,0,0,1,362,470)">
                <g id="tx_multidev_zqas9f1n5jtog-fill">
                    <g>
                        <g>
                            <g transform="matrix(1,0,0,1,12,34)">
                                <text x="0px" y="0px" style="font-family:'Arial-BoldMT', 'Arial', sans-serif;font-weight:700;font-size:20px;fill:rgb(44,44,44);">Multi-Device</text>
                            </g>
                            <g transform="matrix(1,0,0,1,12,58)">
                                <text x="0px" y="0px" style="font-family:'Arial-BoldMT', 'Arial', sans-serif;font-weight:700;font-size:20px;fill:rgb(44,44,44);">Support</text>
                            </g>
                        </g>
                    </g>
                </g>
            </g>
            <g id="g-root-tx__djtnkj1n5xt6q-fill">
            </g>
            <g id="g-root-tx_interact_1urs9sj1n620hz-fill" transform="matrix(1,0,0,1,344,146)">
                <g id="tx_interact_1urs9sj1n620hz-fill">
                    <g>
                        <g>
                            <g transform="matrix(1,0,0,1,12,34)">
                                <text x="0px" y="0px" style="font-family:'Arial-BoldMT', 'Arial', sans-serif;font-weight:700;font-size:20px;fill:rgb(44,44,44);">Interactive</text>
                            </g>
                            <g transform="matrix(1,0,0,1,12,58)">
                                <text x="0px" y="0px" style="font-family:'Arial-BoldMT', 'Arial', sans-serif;font-weight:700;font-size:20px;fill:rgb(44,44,44);">Whiteboard</text>
                            </g>
                        </g>
                    </g>
                </g>
            </g>
            <g id="g-root-tx__1uua9ar1n5jrwh-fill">
            </g>
            <g id="g-root-tx__1qbyoib1n5xtl3-fill">
            </g>
            <g transform="matrix(1,0,0,1,97.97,132)">
                <g id="g-root-tx_globalac_v7z7gz1n5xvd2-fill">
                    <g id="tx_globalac_v7z7gz1n5xvd2-fill">
                        <g>
                            <g>
                                <text x="0px" y="0px" style="font-family:'Arial-BoldMT', 'Arial', sans-serif;font-weight:700;font-size:20px;fill:rgb(44,44,44);">Global <tspan x="67.041px 81.484px " y="0px 0px ">Ac</tspan>cess</text>
                            </g>
                        </g>
                    </g>
                </g>
            </g>
            <g id="g-root-cp_9_text-9_1hf2q371n5we0y-stroke" transform="matrix(1,0,0,1,50,86)">
                <g id="cp_9_text-9_1hf2q371n5we0y-stroke">
                    <g>
                        <path d="M10,94L10,10L238,10L238,94" style="fill:none;stroke:rgb(44,44,44);stroke-width:2px;"/>
                    </g>
                </g>
            </g>
            <g id="g-root-cp_9_stick-9_1lw56dv1n5wfes-stroke" transform="matrix(1,0,0,1,272,170)">
                <g id="cp_9_stick-9_1lw56dv1n5wfes-stroke">
                    <g>
                        <path d="M15.997,454L15.997,10" style="fill:none;stroke:rgb(44,44,44);stroke-width:2px;"/>
                    </g>
                </g>
            </g>
            <g id="g-root-cp_7_text-7_zpo4ur1n5wemm-stroke" transform="matrix(1,0,0,1,44,170)">
                <g id="cp_7_text-7_zpo4ur1n5wemm-stroke">
                    <g>
                        <path d="M10,94L10,10L238,10L238,94" style="fill:none;stroke:rgb(44,44,44);stroke-width:2px;"/>
                    </g>
                </g>
            </g>
            <g id="g-root-cp_7_stick-7_hye4cz1n5wgzs-stroke" transform="matrix(1,0,0,1,266,254)">
                <g id="cp_7_stick-7_hye4cz1n5wgzs-stroke">
                    <g>
                        <path d="M15.997,370L15.997,10" style="fill:none;stroke:rgb(44,44,44);stroke-width:2px;"/>
                    </g>
                </g>
            </g>
            <g id="g-root-cp_5_text-5_7qkyb1n5wg76-stroke" transform="matrix(1,0,0,1,38,254)">
                <g id="cp_5_text-5_7qkyb1n5wg76-stroke">
                    <g>
                        <path d="M10,118L10,10L238,10L238,118" style="fill:none;stroke:rgb(44,44,44);stroke-width:2px;"/>
                    </g>
                </g>
            </g>
            <g id="g-root-cp_5_stick-5_1d2dleb1n5wf7w-stroke" transform="matrix(1,0,0,1,260,362)">
                <g id="cp_5_stick-5_1d2dleb1n5wf7w-stroke">
                    <g>
                        <path d="M15.997,262L15.997,10" style="fill:none;stroke:rgb(44,44,44);stroke-width:2px;"/>
                    </g>
                </g>
            </g>
            <g id="g-root-cp_3_text-3_vbq1zn1n5wefa-stroke" transform="matrix(1,0,0,1,32,362)">
                <g id="cp_3_text-3_vbq1zn1n5wefa-stroke">
                    <g>
                        <path d="M10,118L10,10L238,10L238,118" style="fill:none;stroke:rgb(44,44,44);stroke-width:2px;"/>
                    </g>
                </g>
            </g>
            <g id="g-root-cp_3_stick-3_i09jmb1n5wg08-stroke" transform="matrix(1,0,0,1,254,470)">
                <g id="cp_3_stick-3_i09jmb1n5wg08-stroke">
                    <g>
                        <path d="M15.997,154L15.997,10" style="fill:none;stroke:rgb(44,44,44);stroke-width:2px;"/>
                    </g>
                </g>
            </g>
            <g id="g-root-cp_1_text-1_4pfic31n5wefe-stroke" transform="matrix(1,0,0,1,26,470)">
                <g id="cp_1_text-1_4pfic31n5wefe-stroke">
                    <g>
                        <path d="M238,118L238,10L10,10L10,118L232.5,118" style="fill:none;stroke:rgb(44,44,44);stroke-width:2px;"/>
                    </g>
                </g>
            </g>
            <g id="g-root-cp_1_stick-1_1lz9jtf1n5wglg-stroke" transform="matrix(1,0,0,1,247.997,554)">
                <g id="cp_1_stick-1_1lz9jtf1n5wglg-stroke">
                    <g>
                        <path d="M16,70L16,10M10,70L10,33" style="fill:none;stroke:rgb(44,44,44);stroke-width:2px;"/>
                    </g>
                </g>
            </g>
            <g id="g-root-cp_10_text-10_ziswwj1n5xudq-stroke" transform="matrix(1,0,0,1,278,50)">
                <g id="cp_10_text-10_ziswwj1n5xudq-stroke">
                    <g>
                        <path d="M238,94L238,10L10,10L10,94" style="fill:none;stroke:rgb(44,44,44);stroke-width:2px;"/>
                    </g>
                </g>
            </g>
            <g id="g-root-cp_10_stick-10_dcbvdf1n5xudc-stroke" transform="matrix(1,0,0,1,278.003,134)">
                <g id="cp_10_stick-10_dcbvdf1n5xudc-stroke">
                    <g>
                        <path d="M10.001,490L10.001,10" style="fill:none;stroke:rgb(44,44,44);stroke-width:2px;"/>
                    </g>
                </g>
            </g>
            <g id="g-root-cp_8_text-8_1hu371n5xssi-stroke" transform="matrix(1,0,0,1,284,134)">
                <g id="cp_8_text-8_1hu371n5xssi-stroke">
                    <g>
                        <path d="M238,118L238,10L10,10L10,118" style="fill:none;stroke:rgb(44,44,44);stroke-width:2px;"/>
                    </g>
                </g>
            </g>
            <g id="g-root-cp_8_stick-8_1lr5doz1n5xu6c-stroke" transform="matrix(1,0,0,1,284.003,242)">
                <g id="cp_8_stick-8_1lr5doz1n5xu6c-stroke">
                    <g>
                        <path d="M10.001,382L10.001,10" style="fill:none;stroke:rgb(44,44,44);stroke-width:2px;"/>
                    </g>
                </g>
            </g>
            <g id="g-root-cp_6_text-6_18gbcer1n5xsli-stroke" transform="matrix(1,0,0,1,290,242)">
                <g id="cp_6_text-6_18gbcer1n5xsli-stroke">
                    <g>
                        <path d="M238,118L238,10L10,10L10,118" style="fill:none;stroke:rgb(44,44,44);stroke-width:2px;"/>
                    </g>
                </g>
            </g>
            <g id="g-root-cp_6_stick-6_v4uu1f1n5xu6g-stroke" transform="matrix(1,0,0,1,290.003,350)">
                <g id="cp_6_stick-6_v4uu1f1n5xu6g-stroke">
                    <g>
                        <path d="M10.001,274L10.001,10" style="fill:none;stroke:rgb(44,44,44);stroke-width:2px;"/>
                    </g>
                </g>
            </g>
            <g id="g-root-cp_4_text-4_hu0sr71n5xslm-stroke" transform="matrix(1,0,0,1,296,350)">
                <g id="cp_4_text-4_hu0sr71n5xslm-stroke">
                    <g>
                        <path d="M238,118L238,10L10,10L10,118" style="fill:none;stroke:rgb(44,44,44);stroke-width:2px;"/>
                    </g>
                </g>
            </g>
            <g id="g-root-cp_4_stick-4_2qs9f1n5xuys-stroke" transform="matrix(1,0,0,1,296.003,458)">
                <g id="cp_4_stick-4_2qs9f1n5xuys-stroke">
                    <g>
                        <path d="M10.001,166L10.001,10" style="fill:none;stroke:rgb(44,44,44);stroke-width:2px;"/>
                    </g>
                </g>
            </g>
            <g id="g-root-cp_2_text-2_1lt0syb1n5xt6u-stroke" transform="matrix(1,0,0,1,302,458)">
                <g id="cp_2_text-2_1lt0syb1n5xt6u-stroke">
                    <g>
                        <path d="M10,118L10,10L238,10L238,118L15.5,118" style="fill:none;stroke:rgb(44,44,44);stroke-width:2px;"/>
                    </g>
                </g>
            </g>
            <g id="g-root-cp_2_stick-2_18hkakz1n5xurs-stroke" transform="matrix(1,0,0,1,302.003,541)">
                <g id="cp_2_stick-2_18hkakz1n5xurs-stroke">
                    <g>
                        <path d="M10.001,83L10.001,10M15.997,83L15.997,34" style="fill:none;stroke:rgb(44,44,44);stroke-width:2px;"/>
                    </g>
                </g>
            </g>
            <g id="g-root-cp_0_g-0_v6q9ar1n5xt6y-stroke" transform="matrix(1,0,0,1,248,614)">
                <g id="cp_0_g-0_v6q9ar1n5xt6y-stroke">
                    <g>
                        <path d="M30,58L40.001,82.001L50.001,58L30,58Z" style="fill:none;stroke:rgb(44,44,44);stroke-width:2px;"/>
                    </g>
                </g>
                <g id="cp_0_g-0_v6q9ar1n5xt6y-stroke1" serif:id="cp_0_g-0_v6q9ar1n5xt6y-stroke">
                    <g>
                        <path d="M70.001,10L10,10L30,57.999L50.001,57.999L70.001,10Z" style="fill:none;stroke:rgb(44,44,44);stroke-width:2px;"/>
                    </g>
                </g>
            </g>
            <g id="g-root-ic_meet_qoexzn1n5jrpg-stroke" transform="matrix(1,0,0,1,218,266)">
                <g id="ic_meet_qoexzn1n5jrpg-stroke">
                    <g>
                        <path d="M36.1,14.92C37.127,14.92 37.96,15.753 37.96,16.78L37.96,39.28C37.964,39.776 37.77,40.253 37.421,40.605C37.071,40.957 36.596,41.155 36.1,41.155L12.625,41.155C12.114,41.155 11.626,40.948 11.272,40.58C10.918,40.212 10.73,39.715 10.75,39.205L10.75,22.39L18.25,14.89L36.1,14.92ZM18.805,22.54L29.5,22.54C29.914,22.54 30.25,22.876 30.25,23.29L30.25,32.62C30.25,33.034 29.914,33.37 29.5,33.37L18.805,33.37L18.805,22.54ZM31.165,28.63C30.969,28.48 30.855,28.247 30.855,28C30.855,27.753 30.969,27.52 31.165,27.37L44.035,18.145C44.277,17.989 44.588,17.989 44.83,18.145C45.088,18.271 45.251,18.533 45.25,18.82L45.25,37.24C45.251,37.527 45.088,37.789 44.83,37.915C44.588,38.071 44.277,38.071 44.035,37.915L31.165,28.63ZM10.75,22.585L18.805,22.585L18.805,14.92M10.75,33.37L18.805,33.37L18.805,41.08" style="fill:none;stroke:rgb(44,44,44);stroke-width:2px;"/>
                    </g>
                </g>
            </g>
            <g id="g-root-ic_blac_v2zl3n1n5idc4-stroke" transform="matrix(1,0,0,1,302,254)">
                <g id="ic_blac_v2zl3n1n5idc4-stroke">
                    <g>
                        <path d="M17.067,22.75L12.382,22.75L13.654,16.75L18.154,16.75C21.077,16.75 21.777,18.27 21.777,19.407C21.782,21.016 20.734,22.75 17.067,22.75ZM29.067,22.75L24.382,22.75L25.654,16.75L30.154,16.75C33.077,16.75 33.777,18.27 33.777,19.407C33.783,21.016 32.734,22.75 29.067,22.75ZM40.534,27.25L35.849,27.25L37.121,21.25L41.621,21.25C44.545,21.25 45.244,22.769 45.244,23.907C45.25,25.516 44.2,27.25 40.534,27.25ZM39.034,36.25L34.349,36.25L35.621,30.25L40.121,30.25C43.045,30.25 43.744,31.769 43.744,32.907C43.75,34.516 42.7,36.25 39.034,36.25ZM15.567,31.75L10.882,31.75L12.154,25.75L16.654,25.75C19.577,25.75 20.277,27.269 20.277,28.407C20.282,30.016 19.234,31.75 15.567,31.75ZM27.567,31.75L22.882,31.75L24.154,25.75L28.654,25.75C31.577,25.75 32.277,27.269 32.277,28.407C32.283,30.016 31.234,31.75 27.567,31.75ZM26.067,40.75L21.382,40.75L22.654,34.75L27.154,34.75C30.077,34.75 30.777,36.27 30.777,37.407C30.782,39.016 29.734,40.75 26.067,40.75Z" style="fill:none;stroke:rgb(44,44,44);stroke-width:2px;"/>
                    </g>
                </g>
            </g>
            <g id="g-root-ic_serv_hvwb6b1n60lxi-stroke" transform="matrix(1,0,0,1,290,62)">
                <g id="ic_serv_hvwb6b1n60lxi-stroke">
                    <g>
                        <path d="M11.5,23.502L16,30.252L21.25,24.252M16.048,30.157C14.645,22.529 19.388,15.117 26.902,13.195C34.416,11.273 42.135,15.497 44.568,22.861C47.001,30.226 43.316,38.216 36.136,41.148C28.956,44.08 20.731,40.952 17.314,33.99M25.75,33.25L34.75,33.25M37.75,36.25C36.093,36.25 34.75,34.907 34.75,33.25C34.75,31.593 36.093,30.25 37.75,30.25M22.75,30.25C24.407,30.25 25.75,31.593 25.75,33.25C25.75,34.907 24.407,36.25 22.75,36.25M23.757,21.25C24.05,20.356 24.883,19.752 25.824,19.75C26.402,19.75 26.956,19.981 27.365,20.391C27.773,20.8 28.002,21.356 28,21.934C28.001,22.46 27.792,22.964 27.42,23.335L23.5,27.25L28,27.25M35.503,27.241L35.503,25.741M35.5,25.741L35.5,19.75C33.136,20.915 31.471,23.139 31.02,25.735L35.5,25.735" style="fill:none;stroke:rgb(44,44,44);stroke-width:2px;"/>
                    </g>
                </g>
            </g>
            <g id="g-root-ic_acce_v9umqb1n5xudc-stroke" transform="matrix(1,0,0,1,230,98)">
                <g id="ic_acce_v9umqb1n5xudc-stroke">
                    <g>
                        <path d="M28,38.817C33.974,38.817 38.817,33.974 38.817,28C38.817,22.026 33.974,17.183 28,17.183C22.026,17.183 17.183,22.026 17.183,28C17.183,33.974 22.026,38.817 28,38.817ZM17.801,31.709L38.199,31.709M17.801,24.446L38.199,24.446M25.682,17.438C24.909,20.369 24.446,23.608 24.446,26.848C24.446,31.013 25.219,35.024 26.609,38.726M30.318,17.438C31.091,20.369 31.554,23.608 31.554,26.848C31.554,31.013 30.781,35.024 29.391,38.726M43.348,16.012L42.584,19.83L38.919,19.066M11.125,28.076C11.125,18.761 18.608,11.278 27.924,11.278C34.185,11.278 39.683,14.79 42.584,19.83M17.081,40.752C14.637,38.614 12.805,35.865 11.889,32.658M25.327,44.722C23.8,44.417 22.273,43.959 20.899,43.348M33.269,43.959C32.352,44.264 31.436,44.417 30.367,44.57M39.53,40.294C38.766,40.904 38.003,41.515 37.239,42.126M43.348,34.796C43.042,35.407 42.737,36.018 42.431,36.629M44.875,28.687C44.875,29.298 44.875,29.757 44.722,30.215" style="fill:none;stroke:rgb(44,44,44);stroke-width:2px;"/>
                    </g>
                </g>
            </g>
            <g id="g-root-ic_arro_zs64cz1n5v1fs-stroke" transform="matrix(1,0,0,1,212,374)">
                <g id="ic_arro_zs64cz1n5v1fs-stroke">
                    <g>
                        <path d="M45.25,13L45.25,21.969C45.253,23.218 44.249,24.236 43,24.25L29.5,24.25C28.251,24.235 27.247,23.217 27.25,21.969L27.25,13C27.25,11.757 28.257,10.75 29.5,10.75L43,10.75C44.243,10.75 45.25,11.757 45.25,13ZM45.25,19.75L27.25,19.75M40,27.25L32.5,27.25M36.25,24.25L36.25,27.25M28.75,31L28.75,39.968C28.753,41.218 27.749,42.236 26.5,42.25L13,42.25C11.751,42.235 10.747,41.217 10.75,39.968L10.75,31C10.75,29.757 11.757,28.75 13,28.75L26.5,28.75C27.743,28.75 28.75,29.757 28.75,31ZM28.75,37.75L10.75,37.75M23.5,45.25L16,45.25M19.75,42.25L19.75,45.25M13.75,22.75L13.75,18.625C13.749,15.518 16.268,12.999 19.375,13L22,13M16.75,19.75L13.75,22.75L10.75,19.75M19.75,10.75L22,13L19.75,15.25" style="fill:none;stroke:rgb(44,44,44);stroke-width:2px;"/>
                    </g>
                </g>
            </g>
            <g id="g-root-ic_even_vccpeb1n5ifbb-stroke" transform="matrix(1,0,0,1,308,362)">
                <g id="ic_even_vccpeb1n5ifbb-stroke">
                    <g>
                        <path d="M19.435,20.527C20.73,20.527 21.779,19.477 21.779,18.182C21.779,16.888 20.73,15.838 19.435,15.838C18.14,15.838 17.09,16.888 17.09,18.182C17.09,19.477 18.14,20.527 19.435,20.527ZM19.435,33.565C20.73,33.565 21.779,32.516 21.779,31.221C21.779,29.926 20.73,28.876 19.435,28.876C18.14,28.876 17.09,29.926 17.09,31.221C17.09,32.516 18.14,33.565 19.435,33.565ZM37.872,34.963C39.739,34.963 41.252,33.45 41.252,31.583C41.252,29.716 39.739,28.203 37.872,28.203C36.005,28.203 34.492,29.716 34.492,31.583C34.492,33.45 36.005,34.963 37.872,34.963ZM35.527,20.527C36.822,20.527 37.872,19.477 37.872,18.182C37.872,16.888 36.822,15.838 35.527,15.838C34.233,15.838 33.183,16.888 33.183,18.182C33.183,19.477 34.233,20.527 35.527,20.527ZM23.537,24.63C23.537,23.542 23.105,22.498 22.336,21.729C21.566,20.959 20.523,20.527 19.435,20.527C18.347,20.527 17.303,20.959 16.534,21.729C15.764,22.498 15.332,23.542 15.332,24.63M23.537,37.668C23.537,36.58 23.105,35.536 22.336,34.767C21.566,33.998 20.523,33.565 19.435,33.565C18.347,33.565 17.303,33.998 16.534,34.767C15.764,35.536 15.332,36.58 15.332,37.668M44.133,44.409C44.133,42.748 43.473,41.155 42.299,39.981C41.125,38.807 39.532,38.147 37.872,38.147C36.211,38.147 34.619,38.807 33.445,39.981C32.27,41.155 31.611,42.748 31.611,44.409M38.428,21.729C37.659,20.959 36.615,20.527 35.527,20.527C34.439,20.527 33.396,20.959 32.626,21.729C31.857,22.498 31.425,23.542 31.425,24.63M42.833,24.089L42.833,13.091C42.833,12.263 42.162,11.591 41.333,11.591L13.367,11.591C12.539,11.591 11.867,12.263 11.867,13.091L11.867,36.168C11.867,36.997 12.539,37.668 13.367,37.668L29.461,37.668M27.35,11.591L27.35,37.668M11.867,24.63L34.684,24.63" style="fill:none;stroke:rgb(44,44,44);stroke-width:2px;"/>
                    </g>
                </g>
            </g>
            <g id="g-root-ic_2_qs5pcj1n5z9j7-stroke" transform="matrix(1,0,0,1,224,182)">
                <g id="ic_2_qs5pcj1n5z9j7-stroke">
                    <g>
                        <path d="M33.583,28.904C33.583,31.263 35.495,33.176 37.853,33.176C40.212,33.176 42.124,31.263 42.124,28.904C42.124,26.546 40.212,24.633 37.853,24.633C35.495,24.633 33.583,26.546 33.583,28.904M45.25,41.716C44.918,39.411 43.53,37.392 41.497,36.256C39.464,35.12 37.018,34.997 34.881,35.923M43.333,45.166L29.628,45.166C28.221,45.168 26.994,44.213 26.65,42.85L25.168,36.926C25.111,36.696 25.163,36.452 25.309,36.266C25.456,36.079 25.681,35.971 25.918,35.972L33.7,35.972C34.404,35.973 35.017,36.452 35.188,37.135L37.197,45.173M41.962,17.35C39.827,15.728 36.873,15.728 34.738,17.35M44.866,13.318C41.004,10.423 35.696,10.423 31.834,13.318M13.876,15.105C13.876,17.463 15.788,19.376 18.147,19.376C20.505,19.376 22.417,17.463 22.417,15.105C22.417,12.746 20.505,10.833 18.147,10.833C15.788,10.833 13.876,12.746 13.876,15.105M10.75,27.916C11.082,25.611 12.47,23.592 14.503,22.456C16.536,21.32 18.982,21.197 21.119,22.123M12.667,31.366L26.372,31.366C27.779,31.368 29.006,30.413 29.35,29.05L30.832,23.127C30.889,22.896 30.837,22.652 30.691,22.466C30.544,22.279 30.319,22.171 30.082,22.173L22.3,22.173C21.596,22.173 20.983,22.652 20.812,23.335L18.801,31.366M30.181,40.76C30.181,41.184 30.524,41.527 30.948,41.527C31.371,41.527 31.714,41.184 31.714,40.76C31.714,40.337 31.371,39.994 30.948,39.994C30.524,39.994 30.181,40.337 30.181,40.76M24.382,26.765C24.382,27.189 24.725,27.532 25.148,27.532C25.572,27.532 25.915,27.189 25.915,26.765C25.915,26.342 25.572,25.999 25.148,25.999C24.725,25.999 24.382,26.342 24.382,26.765M35.272,25.555C36.075,28.167 39.117,28.946 42.124,28.946M20.728,11.71C19.926,14.26 16.884,15.01 13.876,15.01" style="fill:none;stroke:rgb(44,44,44);stroke-width:2px;"/>
                    </g>
                </g>
            </g>
            <g id="g-root-ic_forw_18n6nir1n5xukj-stroke" transform="matrix(1,0,0,1,206,482)">
                <g id="ic_forw_18n6nir1n5xukj-stroke">
                    <g>
                        <path d="M31.75,33.25L31.75,40.774L36.25,37L31.75,33.25ZM27.25,37C27.25,41.556 30.944,45.25 35.5,45.25C40.056,45.25 43.75,41.556 43.75,37C43.75,32.444 40.056,28.75 35.5,28.75C30.944,28.75 27.25,32.444 27.25,37L27.25,37ZM26.5,30.25L12.25,30.25C11.422,30.25 10.75,29.578 10.75,28.75L10.75,12.25C10.75,11.422 11.422,10.75 12.25,10.75L31.75,10.75C32.578,10.75 33.25,11.422 33.25,12.25L33.25,24.943M45.25,26.323C45.25,26.843 44.98,27.325 44.538,27.598C44.096,27.871 43.544,27.896 43.079,27.664L37.079,24.664C36.571,24.41 36.25,23.891 36.25,23.323L36.25,17.677C36.25,17.109 36.571,16.59 37.079,16.336L43.079,13.336C43.544,13.104 44.096,13.129 44.538,13.402C44.98,13.675 45.25,14.157 45.25,14.677L45.25,26.323ZM37,33.25L40.75,37.012L37,40.774" style="fill:none;stroke:rgb(44,44,44);stroke-width:2px;"/>
                    </g>
                </g>
            </g>
            <g id="g-root-ic_exch_hrj2qb1n5l5oq-stroke" transform="matrix(1,0,0,1,314,470)">
                <g id="ic_exch_hrj2qb1n5l5oq-stroke">
                    <g>
                        <path d="M19.75,44.5L22.75,41.5L19.75,38.5M11.5,23.469C11.497,24.718 12.501,25.736 13.75,25.75L27.25,25.75C28.499,25.735 29.503,24.717 29.5,23.469L29.5,14.5C29.5,13.257 28.493,12.25 27.25,12.25L13.75,12.25C12.507,12.25 11.5,13.257 11.5,14.5L11.5,23.469ZM11.5,21.25L29.5,21.25M16.75,28.75L24.25,28.75M20.5,25.75L20.5,28.75M31,27.25C31,26.422 31.672,25.75 32.5,25.75L41.5,25.75C42.328,25.75 43,26.422 43,27.25L43,43.75C43,44.578 42.328,45.25 41.5,45.25L32.5,45.25C31.672,45.25 31,44.578 31,43.75L31,27.25ZM13.75,34C13.75,38.142 17.108,41.5 21.25,41.5L22.75,41.5M37.75,11.5L34.75,14.5L37.75,17.5M43.75,22C43.75,17.858 40.392,14.5 36.25,14.5L34.75,14.5M31,39.25L43,39.25M37,41.875C36.793,41.875 36.625,42.043 36.625,42.25C36.625,42.457 36.793,42.625 37,42.625C37.207,42.625 37.375,42.457 37.375,42.25C37.375,42.043 37.207,41.875 37,41.875" style="fill:none;stroke:rgb(44,44,44);stroke-width:2px;"/>
                    </g>
                </g>
            </g>
            <g id="g-root-ic_1_18mk6fn1n621vt-stroke" transform="matrix(1,0,0,1,296,146)">
                <g id="ic_1_18mk6fn1n621vt-stroke">
                    <g>
                        <path d="M15.041,31.672C15.041,33.533 16.551,35.042 18.412,35.042C20.273,35.042 21.782,33.533 21.782,31.672C21.782,29.811 20.273,28.302 18.412,28.302C16.551,28.302 15.041,29.811 15.041,31.672M23.964,40.629C23.128,38.308 20.938,36.751 18.472,36.727C16.005,36.702 13.784,38.214 12.903,40.518M33.897,31.672C33.897,33.533 35.406,35.042 37.267,35.042C39.128,35.042 40.638,33.533 40.638,31.672C40.638,29.811 39.128,28.302 37.267,28.302C35.406,28.302 33.897,29.811 33.897,31.672M42.593,40.09C41.688,38.231 39.89,36.97 37.834,36.751C37.304,36.709 36.771,36.735 36.247,36.829M11.5,43.466L44.5,43.466M38.386,43.466L28.657,43.466L27.361,37.629C27.312,37.407 27.366,37.174 27.508,36.997C27.651,36.82 27.866,36.717 28.093,36.716L35.683,36.716C36.386,36.717 36.994,37.205 37.147,37.891L38.386,43.466ZM27.25,12.534L27.25,18.534M24.25,23.034L25,18.534L29.5,18.534L30.25,23.034L24.25,23.034ZM32.041,40.091C32.041,40.402 32.293,40.654 32.603,40.654C32.914,40.654 33.166,40.402 33.166,40.091C33.166,39.781 32.914,39.529 32.603,39.529C32.293,39.529 32.041,39.781 32.041,40.091M34.863,29.313C36.343,30.916 38.458,31.78 40.638,31.672M20.817,29.313C19.336,30.916 17.221,31.78 15.041,31.672" style="fill:none;stroke:rgb(44,44,44);stroke-width:2px;"/>
                    </g>
                </g>
            </g>
        </g>
    </g>
</svg>
