<?xml version="1.0" encoding="UTF-8" standalone="no"?>
<!DOCTYPE svg PUBLIC "-//W3C//DTD SVG 1.1//EN" "http://www.w3.org/Graphics/SVG/1.1/DTD/svg11.dtd">
<svg width="100%" height="100%" viewBox="0 0 618 708" version="1.1" xmlns="http://www.w3.org/2000/svg" xmlns:xlink="http://www.w3.org/1999/xlink" xml:space="preserve" xmlns:serif="http://www.serif.com/" style="fill-rule:evenodd;clip-rule:evenodd;stroke-linecap:round;stroke-linejoin:round;">
    <g id="items" transform="matrix(1.22665,0,0,1.22665,-70.0363,-143.101)">
        <g id="blend">
            <g id="g-root-cp_1_sign-1_mbq92v1pt1qm-fill" transform="matrix(1,0,0,1,110,194)">
                <g id="cp_1_sign-1_mbq92v1pt1qm-fill">
                    <g>
                        <path d="M10,52L28,10L28,94L10,52ZM28,10L189,10L189,94L28,94L28,10Z" style="fill:rgb(79,145,252);"/>
                    </g>
                </g>
            </g>
            <g id="g-root-cp_3_sign-3_dgppx31pt05c-fill" transform="matrix(1,0,0,1,50,290)">
                <g id="cp_3_sign-3_dgppx31pt05c-fill">
                    <g>
                        <path d="M10,52L28,10L28,94L10,52ZM28,10L249,10L249,94L28,94L28,10Z" style="fill:rgb(166,218,55);"/>
                    </g>
                </g>
            </g>
            <g id="g-root-cp_5_sign-5_1qaq99z1pt2bu-fill" transform="matrix(1,0,0,1,86,386)">
                <g id="cp_5_sign-5_1qaq99z1pt2bu-fill">
                    <g>
                        <path d="M10,52L28,10L28,94L10,52ZM28,10L213,10L213,94L28,94L28,10Z" style="fill:rgb(247,148,56);"/>
                    </g>
                </g>
            </g>
            <g id="g-root-cp_pole_g-pole_1czw7zr1pt0r0-fill" transform="matrix(1,0,0,1,287,170)">
                <g id="cp_pole_g-pole_1czw7zr1pt0r0-fill">
                    <g>
                        <path d="M31,346L13,346L13,460L31,460L31,459.897L24.55,459.88C24.55,459.88 25.3,453.89 17.74,452.78C25.63,449.53 28.41,454.56 28.41,454.56C28.41,454.56 27.994,447.986 31,442.2L31,346ZM13,22L31,22L31,346L13,346L13,22Z" style="fill:rgb(171,171,171);"/>
                    </g>
                </g>
                <g id="cp_pole_g-pole_1czw7zr1pt0r0-fill1" serif:id="cp_pole_g-pole_1czw7zr1pt0r0-fill">
                    <g>
                        <rect x="10" y="10" width="24" height="12" style="fill:rgb(171,171,171);"/>
                    </g>
                </g>
            </g>
            <g id="g-root-cp_pole_plant_zofpmf1pt2bz-fill" transform="matrix(1,0,0,1,255,595)">
                <g id="cp_pole_plant_zofpmf1pt2bz-fill">
                    <g>
                        <path d="M60.393,29.56C60.393,29.56 57.613,24.53 49.723,27.78C54.516,28.484 57.019,30.471 56.533,35.008L10,35.008C10,35.008 17.976,46.521 54.183,46.521C90.39,46.521 97.76,35.008 97.76,35.008L71.483,35.008C68.788,30.384 74.815,23.86 80.883,26.67C78.883,23.56 72.993,22.89 68.553,26C66.693,20.52 67.443,13.77 70.613,10C59.453,14.7 60.393,29.56 60.393,29.56Z" style="fill:rgb(145,187,57);"/>
                    </g>
                </g>
            </g>
            <g id="g-root-cp_2_sign-2_hxs67r1pt1jd-fill" transform="matrix(1,0,0,1,309,230)">
                <g id="cp_2_sign-2_hxs67r1pt1jd-fill">
                    <g>
                        <path d="M10,10L183,10L183,94L10,94L10,10ZM201,52L183,10L183,94L201,52Z" style="fill:rgb(67,221,147);"/>
                    </g>
                </g>
            </g>
            <g id="g-root-cp_4_sign-4_4my4xj1pszyj-fill" transform="matrix(1,0,0,1,309,326)">
                <g id="cp_4_sign-4_4my4xj1pszyj-fill">
                    <g>
                        <path d="M10,10L195,10L195,94L10,94L10,10ZM213,52L195,10L195,94L213,52Z" style="fill:rgb(26,195,251);"/>
                    </g>
                </g>
            </g>
            <g id="g-root-cp_6_sign-6_1qclojb1pt1cd-fill" transform="matrix(1,0,0,1,309,422)">
                <g id="cp_6_sign-6_1qclojb1pt1cd-fill">
                    <g>
                        <path d="M10,10L231,10L231,94L10,94L10,10ZM249,52L231,10L231,94L249,52Z" style="fill:rgb(243,102,187);"/>
                    </g>
                </g>
            </g>
            <g id="g-root-tx_allinone_1cuwfav1pvsw1-fill" transform="matrix(1,0,0,1,182,212)">
                <g id="tx_allinone_1cuwfav1pvsw1-fill">
                    <g>
                        <g>
                            <g transform="matrix(1,0,0,1,18.82,34)">
                                <text x="0px" y="0px" style="font-family:'ArialMT', 'Arial', sans-serif;font-size:20px;fill:rgb(44,44,44);">All-in-One</text>
                            </g>
                            <g transform="matrix(1,0,0,1,30.32,58)">
                                <text x="0px" y="0px" style="font-family:'ArialMT', 'Arial', sans-serif;font-size:20px;fill:rgb(44,44,44);">Provider</text>
                            </g>
                        </g>
                    </g>
                </g>
            </g>
            <g id="g-root-tx_seamless_qp1uuv1q1eyv-fill" transform="matrix(1,0,0,1,320,248)">
                <g id="tx_seamless_qp1uuv1q1eyv-fill">
                    <g>
                        <g>
                            <g transform="matrix(1,0,0,1,12,34)">
                                <text x="0px" y="0px" style="font-family:'ArialMT', 'Arial', sans-serif;font-size:20px;fill:rgb(44,44,44);">Seamless</text>
                            </g>
                            <g transform="matrix(1,0,0,1,12,58)">
                                <text x="0px" y="0px" style="font-family:'ArialMT', 'Arial', sans-serif;font-size:20px;fill:rgb(44,44,44);">Integration</text>
                            </g>
                        </g>
                    </g>
                </g>
            </g>
            <g id="g-root-tx_scalable_zmkad31px897-fill" transform="matrix(1,0,0,1,122,308)">
                <g id="tx_scalable_zmkad31px897-fill">
                    <g>
                        <g>
                            <g transform="matrix(1,0,0,1,19.68,34)">
                                <text x="0px" y="0px" style="font-family:'ArialMT', 'Arial', sans-serif;font-size:20px;fill:rgb(44,44,44);">Scalable for <tspan x="110.068px 123.408px " y="0px 0px ">An</tspan>y</text>
                            </g>
                            <g transform="matrix(1,0,0,1,40.95,58)">
                                <text x="0px" y="0px" style="font-family:'ArialMT', 'Arial', sans-serif;font-size:20px;fill:rgb(44,44,44);">Business Size</text>
                            </g>
                        </g>
                    </g>
                </g>
            </g>
            <g id="g-root-tx_transpar_92rn1z1q2u4h-fill" transform="matrix(1,0,0,1,320,344)">
                <g id="tx_transpar_92rn1z1q2u4h-fill">
                    <g>
                        <g>
                            <g transform="matrix(1,0,0,1,12,34)">
                                <text x="0px" y="0px" style="font-family:'ArialMT', 'Arial', sans-serif;font-size:20px;fill:rgb(44,44,44);">T<tspan x="11.475px 18.135px " y="0px 0px ">ra</tspan>nsparent</text>
                            </g>
                            <g transform="matrix(1,0,0,1,12,58)">
                                <text x="0px" y="0px" style="font-family:'ArialMT', 'Arial', sans-serif;font-size:20px;fill:rgb(44,44,44);">Pricing</text>
                            </g>
                        </g>
                    </g>
                </g>
            </g>
            <g id="g-root-tx_quickpro_v9v5o71pymtp-fill" transform="matrix(1,0,0,1,158,404)">
                <g id="tx_quickpro_v9v5o71pymtp-fill">
                    <g>
                        <g>
                            <g transform="matrix(1,0,0,1,77.73,34)">
                                <text x="0px" y="0px" style="font-family:'ArialMT', 'Arial', sans-serif;font-size:20px;fill:rgb(44,44,44);">Quick</text>
                            </g>
                            <g transform="matrix(1,0,0,1,18.2,58)">
                                <text x="0px" y="0px" style="font-family:'ArialMT', 'Arial', sans-serif;font-size:20px;fill:rgb(44,44,44);">Provisioning</text>
                            </g>
                        </g>
                    </g>
                </g>
            </g>
            <g id="g-root-tx_dedicate_1ly14l31q5p8j-fill" transform="matrix(1,0,0,1,320,440)">
                <g id="tx_dedicate_1ly14l31q5p8j-fill">
                    <g>
                        <g>
                            <g transform="matrix(1,0,0,1,12,34)">
                                <text x="0px" y="0px" style="font-family:'ArialMT', 'Arial', sans-serif;font-size:20px;fill:rgb(44,44,44);">Dedicated</text>
                            </g>
                            <g transform="matrix(1,0,0,1,12,58)">
                                <text x="0px" y="0px" style="font-family:'ArialMT', 'Arial', sans-serif;font-size:20px;fill:rgb(44,44,44);">Account Support</text>
                            </g>
                        </g>
                    </g>
                </g>
            </g>
            <g id="g-root-cp_1_sign-1_mbq92v1pt1qm-stroke" transform="matrix(1,0,0,1,110,194)">
                <g id="cp_1_sign-1_mbq92v1pt1qm-stroke">
                    <g>
                        <path d="M28,10L189,10M189,94L28,94M28,94L10,52L28,10" style="fill:none;stroke:rgb(44,44,44);stroke-width:2px;"/>
                    </g>
                </g>
            </g>
            <g id="g-root-cp_3_sign-3_dgppx31pt05c-stroke" transform="matrix(1,0,0,1,50,290)">
                <g id="cp_3_sign-3_dgppx31pt05c-stroke">
                    <g>
                        <path d="M28,10L249,10M249,94L28,94M28,94L10,52L28,10" style="fill:none;stroke:rgb(44,44,44);stroke-width:2px;"/>
                    </g>
                </g>
            </g>
            <g id="g-root-cp_5_sign-5_1qaq99z1pt2bu-stroke" transform="matrix(1,0,0,1,86,386)">
                <g id="cp_5_sign-5_1qaq99z1pt2bu-stroke">
                    <g>
                        <path d="M28,10L213,10M213,94L28,94M28,94L10,52L28,10" style="fill:none;stroke:rgb(44,44,44);stroke-width:2px;"/>
                    </g>
                </g>
            </g>
            <g id="g-root-cp_pole_g-pole_1czw7zr1pt0r0-stroke" transform="matrix(1,0,0,1,287,170)">
                <g id="cp_pole_g-pole_1czw7zr1pt0r0-stroke">
                    <g>
                        <path d="M31,442L31,346M13,459L13,346M31,346L31,22M13,346L13,22" style="fill:none;stroke:rgb(44,44,44);stroke-width:2px;"/>
                    </g>
                </g>
                <g id="cp_pole_g-pole_1czw7zr1pt0r0-stroke1" serif:id="cp_pole_g-pole_1czw7zr1pt0r0-stroke">
                    <g>
                        <rect x="10" y="10" width="24" height="12" style="fill:none;stroke:rgb(44,44,44);stroke-width:2px;"/>
                    </g>
                </g>
            </g>
            <g id="g-root-cp_pole_plant_zofpmf1pt2bz-stroke" transform="matrix(1,0,0,1,255,595)">
                <g id="cp_pole_plant_zofpmf1pt2bz-stroke">
                    <g>
                        <path d="M56.55,34.88C56.55,34.88 57.3,28.89 49.74,27.78C57.63,24.53 60.41,29.56 60.41,29.56C60.41,29.56 59.47,14.7 70.63,10C67.46,13.77 66.71,20.52 68.57,26C73.01,22.89 78.9,23.56 80.9,26.67C76.68,24.44 69.89,28.468 71,34.918M71,34.918L98,34.918M10,34.918L56.5,34.918" style="fill:none;stroke:rgb(44,44,44);stroke-width:2px;"/>
                    </g>
                </g>
            </g>
            <g id="g-root-cp_2_sign-2_hxs67r1pt1jd-stroke" transform="matrix(1,0,0,1,309,230)">
                <g id="cp_2_sign-2_hxs67r1pt1jd-stroke">
                    <g>
                        <path d="M183,94L10,94M10,10L183,10M183,10L201,52L183,94" style="fill:none;stroke:rgb(44,44,44);stroke-width:2px;"/>
                    </g>
                </g>
            </g>
            <g id="g-root-cp_4_sign-4_4my4xj1pszyj-stroke" transform="matrix(1,0,0,1,309,326)">
                <g id="cp_4_sign-4_4my4xj1pszyj-stroke">
                    <g>
                        <path d="M195,94L10,94M10,10L195,10M195,10L213,52L195,94" style="fill:none;stroke:rgb(44,44,44);stroke-width:2px;"/>
                    </g>
                </g>
            </g>
            <g id="g-root-cp_6_sign-6_1qclojb1pt1cd-stroke" transform="matrix(1,0,0,1,309,422)">
                <g id="cp_6_sign-6_1qclojb1pt1cd-stroke">
                    <g>
                        <path d="M231,94L10,94M10,10L231,10M231,10L249,52L231,94" style="fill:none;stroke:rgb(44,44,44);stroke-width:2px;"/>
                    </g>
                </g>
            </g>
            <g id="g-root-ic_1_dju3cn1pt1c0-stroke" transform="matrix(1,0,0,1,134,218)">
                <g id="ic_1_dju3cn1pt1c0-stroke">
                    <g>
                        <path d="M23.875,32.5C26.36,32.5 28.375,30.485 28.375,28C28.375,25.515 26.36,23.5 23.875,23.5C21.39,23.5 19.375,25.515 19.375,28C19.375,30.485 21.39,32.5 23.875,32.5ZM19.375,28L11.125,28M27.039,24.836L40.375,11.5M35.125,11.5L40.375,11.5L40.375,16M28.375,28L44.875,28M41.125,24.25L44.875,28L41.125,31.75M27.039,31.164L40.375,44.5M35.125,44.5L40.375,44.5L40.375,40" style="fill:none;stroke:rgb(44,44,44);stroke-width:2px;"/>
                    </g>
                </g>
            </g>
            <g id="g-root-ic_puzz_18mkm7r1pyneu-stroke" transform="matrix(1,0,0,1,440,254)">
                <g id="ic_puzz_18mkm7r1pyneu-stroke">
                    <g>
                        <path d="M11.5,31.75L16,31.75C16,31.75 16.75,31.75 16.75,32.5L16.75,43C16.75,43 16.75,43.75 16,43.75L11.5,43.75C11.5,43.75 10.75,43.75 10.75,43L10.75,32.5C10.75,32.5 10.75,31.75 11.5,31.75M16.75,41.594C32.5,46.844 27.25,46.844 45.25,37.844C44.214,36.449 42.416,35.85 40.75,36.344L34.275,38.395M16.75,33.25L21.25,33.25C24.779,33.25 27.25,36.25 28,36.25L33.25,36.25C34.75,36.25 34.75,39.25 33.25,39.25L25,39.25M36.356,27.1C35.185,25.928 35.185,24.028 36.357,22.857C37.528,21.685 39.428,21.685 40.6,22.857C40.893,23.147 41.122,23.496 41.272,23.881C41.364,24.117 41.569,24.291 41.818,24.342C42.066,24.394 42.323,24.317 42.502,24.138L44.843,21.796C45.429,21.21 45.429,20.261 44.843,19.675L42.444,17.275C43.847,16.895 44.777,15.562 44.648,14.114C44.519,12.665 43.369,11.517 41.92,11.391C40.471,11.264 39.14,12.195 38.762,13.6L36.363,11.2C35.777,10.614 34.827,10.614 34.242,11.2L32.067,13.374C31.907,13.533 31.828,13.755 31.85,13.98C31.873,14.204 31.995,14.406 32.183,14.53C33.197,15.202 33.705,16.419 33.469,17.612C33.233,18.805 32.301,19.738 31.108,19.974C29.915,20.209 28.697,19.702 28.026,18.688C27.901,18.5 27.699,18.378 27.475,18.355C27.251,18.332 27.028,18.412 26.869,18.571L24.69,20.735C24.104,21.321 24.104,22.271 24.69,22.857L33.175,31.342C33.761,31.928 34.71,31.928 35.296,31.342L37.637,28.999C37.816,28.82 37.893,28.563 37.841,28.315C37.79,28.068 37.617,27.863 37.381,27.77C36.997,27.621 36.648,27.392 36.356,27.1Z" style="fill:none;stroke:rgb(44,44,44);stroke-width:2px;"/>
                    </g>
                </g>
            </g>
            <g id="g-root-ic_spli_1lrsdpz1pvthm-stroke" transform="matrix(1,0,0,1,74,314)">
                <g id="ic_spli_1lrsdpz1pvthm-stroke">
                    <g>
                        <path d="M24.539,18.25C24.247,18.25 23.978,18.094 23.833,17.84C23.688,17.586 23.69,17.274 23.839,17.023L27.298,11.15C27.445,10.903 27.712,10.75 28,10.75C28.288,10.75 28.555,10.903 28.702,11.15L32.161,17.023C32.31,17.274 32.312,17.586 32.167,17.84C32.022,18.094 31.753,18.25 31.461,18.25L24.539,18.25ZM18.411,24.536C18.513,24.288 18.475,24.003 18.31,23.791C18.145,23.578 17.879,23.47 17.612,23.508L11.395,24.382C11.13,24.418 10.904,24.593 10.803,24.84C10.701,25.087 10.739,25.37 10.902,25.582L14.679,30.597C14.84,30.812 15.105,30.924 15.373,30.89C15.64,30.857 15.869,30.682 15.972,30.433L17.191,27.489L18.411,24.536ZM17.259,27.418C23.761,30.111 28,36.456 28,43.494L28,45.25M37.59,24.536C37.487,24.288 37.525,24.003 37.69,23.791C37.855,23.578 38.121,23.47 38.387,23.508L44.605,24.382C44.87,24.418 45.096,24.593 45.197,24.84C45.299,25.087 45.261,25.37 45.098,25.582L41.322,30.597C41.16,30.812 40.895,30.924 40.627,30.89C40.36,30.857 40.131,30.682 40.029,30.433L38.809,27.489L37.59,24.536ZM38.742,27.418C32.239,30.111 28,36.456 28,43.494L28,45.25M28,18.25L28,44.5" style="fill:none;stroke:rgb(44,44,44);stroke-width:2px;"/>
                    </g>
                </g>
            </g>
            <g id="g-root-ic_70_1lseut31q1gco-stroke" transform="matrix(1,0,0,1,452,350)">
                <g id="ic_70_1lseut31q1gco-stroke">
                    <g>
                        <path d="M30.25,29.5C30.25,30.743 29.243,31.75 28,31.75C26.757,31.75 25.75,30.743 25.75,29.5L25.75,26.5C25.75,25.257 26.757,24.25 28,24.25C29.243,24.25 30.25,25.257 30.25,26.5L30.25,29.5ZM34,31.75L39.25,25M33.625,25.75C33.832,25.75 34,25.918 34,26.125C34,26.332 33.832,26.5 33.625,26.5C33.418,26.5 33.25,26.332 33.25,26.125C33.25,25.918 33.418,25.75 33.625,25.75M39.625,30.25C39.832,30.25 40,30.418 40,30.625C40,30.832 39.832,31 39.625,31C39.418,31 39.25,30.832 39.25,30.625C39.25,30.418 39.418,30.25 39.625,30.25M18.714,24.25L22,24.25C22.26,24.25 22.502,24.385 22.638,24.606C22.775,24.827 22.787,25.104 22.671,25.336L19.464,31.75M45.25,28C45.245,25.539 43.739,23.331 41.449,22.429C42.436,20.173 41.94,17.543 40.198,15.802C38.457,14.06 35.827,13.564 33.571,14.551C32.673,12.259 30.462,10.751 28,10.751C25.538,10.751 23.327,12.259 22.429,14.551C20.173,13.564 17.543,14.06 15.802,15.802C14.06,17.543 13.564,20.173 14.551,22.429C12.259,23.327 10.751,25.538 10.751,28C10.751,30.462 12.259,32.673 14.551,33.571C13.564,35.827 14.06,38.457 15.802,40.198C17.543,41.94 20.173,42.436 22.429,41.449C23.327,43.741 25.538,45.249 28,45.249C30.462,45.249 32.673,43.741 33.571,41.449C35.827,42.436 38.457,41.94 40.198,40.198C41.94,38.457 42.436,35.827 41.449,33.571C43.739,32.669 45.245,30.461 45.25,28Z" style="fill:none;stroke:rgb(44,44,44);stroke-width:2px;"/>
                    </g>
                </g>
            </g>
            <g id="g-root-ic_1_1qaq99z1px79g-stroke" transform="matrix(1,0,0,1,110,410)">
                <g id="ic_1_1qaq99z1px79g-stroke">
                    <g>
                        <path d="M11.286,36.46C11.283,37.127 11.649,37.74 12.237,38.054C12.815,38.401 13.536,38.401 14.114,38.054L27.177,29.569C27.695,29.238 28.008,28.666 28.008,28.051C28.008,27.437 27.695,26.865 27.177,26.534L14.114,17.997C13.536,17.651 12.815,17.651 12.237,17.997C11.649,18.311 11.283,18.925 11.286,19.591L11.286,36.46ZM28,36.46C27.997,37.127 28.364,37.74 28.951,38.054C29.529,38.401 30.251,38.401 30.829,38.054L43.891,29.569C44.409,29.238 44.723,28.666 44.723,28.051C44.723,27.437 44.409,26.865 43.891,26.534L30.829,17.997C30.251,17.651 29.529,17.651 28.951,17.997C28.38,18.303 28.016,18.892 28,19.54L28,36.46Z" style="fill:none;stroke:rgb(44,44,44);stroke-width:2px;"/>
                    </g>
                </g>
            </g>
            <g id="g-root-ic_hand_qvalpz1q2txe-stroke" transform="matrix(1,0,0,1,488,446)">
                <g id="ic_hand_qvalpz1q2txe-stroke">
                    <g>
                        <path d="M32.042,15.987C32.042,18.841 34.356,21.155 37.21,21.155C40.064,21.155 42.378,18.841 42.377,15.987C42.378,13.132 40.064,10.818 37.21,10.818C34.356,10.818 32.042,13.132 32.042,15.987M45.25,29.106C44.032,25.765 40.856,23.541 37.3,23.541C33.744,23.541 30.568,25.765 29.35,29.105M33.209,12.55C34.972,15.828 38.887,16.23 42.006,16.23M10.75,43.51L20.568,45.1C22.612,45.385 24.692,44.965 26.465,43.911L36.745,37.8C38.181,36.942 38.651,35.084 37.795,33.647C36.938,32.211 35.08,31.741 33.643,32.597L25.615,37.37M10.75,35.627L14.919,33.148C16.462,32.23 18.243,31.79 20.036,31.883L24.187,32.099C24.96,32.103 25.698,32.422 26.23,32.984C26.761,33.546 27.039,34.3 27,35.073C26.928,36.498 25.805,37.646 24.382,37.75L19.081,37.726" style="fill:none;stroke:rgb(44,44,44);stroke-width:2px;"/>
                    </g>
                </g>
            </g>
        </g>
    </g>
</svg>
