<?xml version="1.0" encoding="UTF-8" standalone="no"?>
<!DOCTYPE svg PUBLIC "-//W3C//DTD SVG 1.1//EN" "http://www.w3.org/Graphics/SVG/1.1/DTD/svg11.dtd">
<svg width="100%" height="100%" viewBox="0 0 702 954" version="1.1" xmlns="http://www.w3.org/2000/svg" xmlns:xlink="http://www.w3.org/1999/xlink" xml:space="preserve" xmlns:serif="http://www.serif.com/" style="fill-rule:evenodd;clip-rule:evenodd;stroke-linecap:round;stroke-linejoin:round;">
    <g id="items" transform="matrix(1.09222,0,0,1.09222,-32.3708,-68.6429)">
        <g id="blend">
            <g id="g-root-cp_5_shape-5_908ryv1pufif-fill" transform="matrix(1,0,0,1,314.303,104)">
                <g id="cp_5_shape-5_908ryv1pufif-fill">
                    <g>
                        <path d="M27.697,292L15.697,292L15.697,160L27.697,160L27.697,292ZM32.297,28.191L27.697,28.191L27.697,160L15.697,160L15.697,28.191L11.017,28.191C10.237,28.191 9.747,27.341 10.137,26.661L20.86,10.448C21.256,9.849 22.136,9.851 22.53,10.451L33.177,26.661C33.577,27.341 33.087,28.191 32.297,28.191Z" style="fill:rgb(26,195,251);"/>
                    </g>
                </g>
            </g>
            <g id="g-root-cp_1_shape-1_1qapajb1pueip-fill" transform="matrix(1,0,0,1,32,103.816)">
                <g id="cp_1_shape-1_1qapajb1pueip-fill">
                    <g>
                        <path d="M214,328.184L46,328.183C26.118,328.183 10,312.081 10,292.199L10,292.184L250,292.184C250,312.066 233.882,328.184 214,328.184ZM254.6,28.375L250,28.375L250,160.184L10,160.184C10,140.302 26.118,124.505 46,124.505L172,124.505C213.07,124.505 238,94.374 238,55.034L238,28.374L233.32,28.374C232.54,28.374 232.05,27.524 232.44,26.844L243.163,10.632C243.559,10.033 244.439,10.034 244.833,10.635L255.48,26.844C255.88,27.525 255.39,28.375 254.6,28.375ZM250,160.184L250,292.184L10,292.184L10,160.184L250,160.184Z" style="fill:rgb(251,103,98);"/>
                    </g>
                </g>
            </g>
            <g id="g-root-cp_3_shape-3_143lrx31pugwb-fill" transform="matrix(1,0,0,1,284.303,104)">
                <g id="cp_3_shape-3_143lrx31pugwb-fill">
                    <g>
                        <path d="M27.697,292L15.697,292L15.697,160L27.697,160L27.697,292ZM32.297,28.191L27.697,28.191L27.697,160L15.697,160L15.697,28.191L11.017,28.191C10.237,28.191 9.747,27.341 10.137,26.661L20.86,10.448C21.256,9.849 22.136,9.851 22.53,10.451L33.177,26.661C33.577,27.341 33.087,28.191 32.297,28.191Z" style="fill:rgb(247,148,56);"/>
                    </g>
                </g>
            </g>
            <g id="g-root-cp_3_shape-3_1_qsrqmv1pufbh-fill" transform="matrix(1,0,0,1,32,386)">
                <g id="cp_3_shape-3_1_qsrqmv1pufbh-fill">
                    <g>
                        <path d="M214,64.321C244,64.321 268,46 268,10L280,10L280,100.306L10,100.306C10,80.423 26.118,64.321 46,64.321L214,64.321Z" style="fill:rgb(247,148,56);"/>
                    </g>
                </g>
            </g>
            <g id="g-root-cp_5_shape-5_1_dhb89j1pugwf-fill" transform="matrix(1,0,0,1,320,386)">
                <g id="cp_5_shape-5_1_dhb89j1pugwf-fill">
                    <g>
                        <rect x="10" y="10" width="12" height="222" style="fill:rgb(26,195,251);"/>
                    </g>
                </g>
            </g>
            <g id="g-root-cp_3_shape-3_2_9247871pueix-fill" transform="matrix(1,0,0,1,32,476)">
                <g id="cp_3_shape-3_2_9247871pueix-fill">
                    <g>
                        <path d="M280,10L280,141.979L10,141.979L10,10L280,10ZM244,178.008L46,178.008C26.118,178.008 10,161.905 10,142.023L10,142.008L280,142.008C280,161.89 263.882,178.008 244,178.008Z" style="fill:rgb(247,148,56);"/>
                    </g>
                </g>
            </g>
            <g id="g-root-cp_5_shape-5_2_1urrqtz1pufwr-fill" transform="matrix(1,0,0,1,32,608)">
                <g id="cp_5_shape-5_2_1urrqtz1pufwr-fill">
                    <g>
                        <path d="M244,64.137C274,64.137 298,45.878 298,10L310,10L310,100L10,100C10,80.185 26.118,64.137 46,64.137L244,64.137Z" style="fill:rgb(26,195,251);"/>
                    </g>
                </g>
            </g>
            <g id="g-root-cp_5_shape-5_3_1hgxpjr1puebx-fill" transform="matrix(1,0,0,1,32,698)">
                <g id="cp_5_shape-5_3_1hgxpjr1puebx-fill">
                    <g>
                        <path d="M310,10L310,142L10,142L10,10L310,10ZM274,178.008L46,178.008C26.118,178.008 10,161.882 10,142L310,142C310,161.882 293.882,178.008 274,178.008Z" style="fill:rgb(26,195,251);"/>
                    </g>
                </g>
            </g>
            <g id="g-root-cp_2_shape-2_145h76f1pufwv-fill" transform="matrix(1,0,0,1,404.378,103.816)">
                <g id="cp_2_shape-2_145h76f1pufwv-fill">
                    <g>
                        <path d="M51.622,340.184L219.622,340.184C239.504,340.184 255.622,324.081 255.622,304.199L255.622,304.184L15.622,304.184C15.622,324.066 31.74,340.184 51.622,340.184ZM11.022,28.375L15.622,28.375L15.622,160.184L255.622,160.184C255.622,140.302 239.505,124.505 219.623,124.505L93.622,124.505C52.552,124.505 27.622,94.374 27.622,55.034L27.622,28.374L32.302,28.374C33.082,28.374 33.572,27.524 33.182,26.844L22.459,10.632C22.063,10.033 21.184,10.034 20.79,10.635L10.142,26.844C9.742,27.525 10.232,28.375 11.022,28.375ZM15.622,160.184L15.622,304.184L255.622,304.184L255.622,160.184L15.622,160.184Z" style="fill:rgb(67,221,147);"/>
                    </g>
                </g>
            </g>
            <g id="g-root-cp_4_shape-4_metnrr1puf49-fill" transform="matrix(1,0,0,1,374.383,104)">
                <g id="cp_4_shape-4_metnrr1puf49-fill">
                    <g>
                        <path d="M15.623,304L27.623,304L27.623,160L15.623,160L15.623,304ZM11.022,28.191L15.622,28.191L15.622,160L27.622,160L27.622,28.191L32.302,28.191C33.082,28.191 33.572,27.341 33.182,26.661L22.459,10.448C22.063,9.849 21.184,9.851 20.79,10.451L10.142,26.661C9.742,27.341 10.232,28.191 11.022,28.191Z" style="fill:rgb(203,104,249);"/>
                    </g>
                </g>
            </g>
            <g id="g-root-cp_6_shape-6_93d5ef1pugp7-fill" transform="matrix(1,0,0,1,344.383,104)">
                <g id="cp_6_shape-6_93d5ef1pugp7-fill">
                    <g>
                        <path d="M15.623,304L27.623,304L27.623,160L15.623,160L15.623,304ZM11.022,28.191L15.622,28.191L15.622,160L27.622,160L27.622,28.191L32.302,28.191C33.082,28.191 33.572,27.341 33.182,26.661L22.459,10.448C22.063,9.849 21.184,9.851 20.79,10.451L10.142,26.661C9.742,27.341 10.232,28.191 11.022,28.191Z" style="fill:rgb(166,218,55);"/>
                    </g>
                </g>
            </g>
            <g id="g-root-cp_4_shape-4_1_1utn63b1puex9-fill" transform="matrix(1,0,0,1,380,398)">
                <g id="cp_4_shape-4_1_1utn63b1puex9-fill">
                    <g>
                        <path d="M76,64.321C46,64.321 22,46 22,10L10,10L10,100.306L280,100.306C280,80.423 263.882,64.321 244,64.321L76,64.321Z" style="fill:rgb(203,104,249);"/>
                    </g>
                </g>
            </g>
            <g id="g-root-cp_4_shape-4_2_1hi6npz1pugi7-fill" transform="matrix(1,0,0,1,380,488)">
                <g id="cp_4_shape-4_2_1hi6npz1pugi7-fill">
                    <g>
                        <path d="M10,10L10,142L280,142L280,10L10,10ZM46,178L244,178C263.882,178 280,161.898 280,142.016L280,142L10,142C10,161.882 26.118,178 46,178Z" style="fill:rgb(203,104,249);"/>
                    </g>
                </g>
            </g>
            <g id="g-root-cp_6_shape-6_1_18n64k71puewx-fill" transform="matrix(1,0,0,1,350,398)">
                <g id="cp_6_shape-6_1_18n64k71puewx-fill">
                    <g>
                        <rect x="10" y="10" width="12" height="222" style="fill:rgb(166,218,55);"/>
                    </g>
                </g>
            </g>
            <g id="g-root-cp_6_shape-6_2_zrj4bb1pufpn-fill" transform="matrix(1,0,0,1,350,620)">
                <g id="cp_6_shape-6_2_zrj4bb1pufpn-fill">
                    <g>
                        <path d="M76,64.321C46,64.321 22,46 22,10L10,10L10,100.306L310,100.306C310,80.423 293.882,64.321 274,64.321L76,64.321Z" style="fill:rgb(166,218,55);"/>
                    </g>
                </g>
            </g>
            <g id="g-root-cp_6_shape-6_3_i0vkwn1puex1-fill" transform="matrix(1,0,0,1,350,710)">
                <g id="cp_6_shape-6_3_i0vkwn1puex1-fill">
                    <g>
                        <path d="M10,10L10,118L310,118L310,10L10,10ZM46,154L274,154C293.882,154 310,137.898 310,118.016L310,118L10,118C10,137.882 26.118,154 46,154Z" style="fill:rgb(166,218,55);"/>
                    </g>
                </g>
            </g>
            <g id="g-root-tx_enhancin_1umry531pvuo9-fill" transform="matrix(1,0,0,1,62,338)">
                <g id="tx_enhancin_1umry531pvuo9-fill">
                    <g>
                        <g>
                            <g transform="matrix(1,0,0,1,26.9,31.2)">
                                <text x="0px" y="0px" style="font-family:'ArialMT', 'Arial', sans-serif;font-size:15px;fill:rgb(44,44,44);">Enhancing call center</text>
                            </g>
                            <g transform="matrix(1,0,0,1,16.42,49.2)">
                                <g transform="matrix(15,0,0,15,8.34229,0)">
                                </g>
                                <g transform="matrix(15,0,0,15,12.3763,0)">
                                </g>
                                <g transform="matrix(15,0,0,15,16.4104,0)">
                                </g>
                                <text x="0px" y="0px" style="font-family:'ArialMT', 'Arial', sans-serif;font-size:15px;fill:rgb(44,44,44);">eﬃciency with advanced</text>
                            </g>
                            <g transform="matrix(1,0,0,1,25.53,67.2)">
                                <text x="0px" y="0px" style="font-family:'ArialMT', 'Arial', sans-serif;font-size:15px;fill:rgb(44,44,44);">communication tools.</text>
                            </g>
                        </g>
                    </g>
                </g>
            </g>
            <g id="g-root-tx_improvin_13zuxef1q1gy3-fill" transform="matrix(1,0,0,1,452,338)">
                <g id="tx_improvin_13zuxef1q1gy3-fill">
                    <g>
                        <g>
                            <g transform="matrix(1,0,0,1,15.9,28.2)">
                                <text x="0px" y="0px" style="font-family:'ArialMT', 'Arial', sans-serif;font-size:15px;fill:rgb(44,44,44);">Improving healthcare</text>
                            </g>
                            <g transform="matrix(1,0,0,1,18.1,46.2)">
                                <text x="0px" y="0px" style="font-family:'ArialMT', 'Arial', sans-serif;font-size:15px;fill:rgb(44,44,44);">communication with</text>
                            </g>
                            <g transform="matrix(1,0,0,1,23.42,64.2)">
                                <text x="0px" y="0px" style="font-family:'ArialMT', 'Arial', sans-serif;font-size:15px;fill:rgb(44,44,44);">secure and reliable</text>
                            </g>
                            <g transform="matrix(1,0,0,1,54.72,82.2)">
                                <text x="0px" y="0px" style="font-family:'ArialMT', 'Arial', sans-serif;font-size:15px;fill:rgb(44,44,44);">numbers.</text>
                            </g>
                        </g>
                    </g>
                </g>
            </g>
            <g transform="matrix(1,0,0,1,491.03,336)">
                <g id="g-root-tx_healthca_hriglz1q1hxe-fill">
                    <g id="tx_healthca_hriglz1q1hxe-fill">
                        <g>
                            <g>
                                <text x="0px" y="0px" style="font-family:'Arial-BoldMT', 'Arial', sans-serif;font-weight:700;font-size:20px;fill:rgb(44,44,44);">Healthcare</text>
                            </g>
                        </g>
                    </g>
                </g>
            </g>
            <g transform="matrix(1,0,0,1,107.2,336)">
                <g id="g-root-tx_callcent_18efhcn1pvvnk-fill">
                    <g id="tx_callcent_18efhcn1pvvnk-fill">
                        <g>
                            <g>
                                <text x="0px" y="0px" style="font-family:'Arial-BoldMT', 'Arial', sans-serif;font-weight:700;font-size:20px;fill:rgb(44,44,44);">Call Centers</text>
                            </g>
                        </g>
                    </g>
                </g>
            </g>
            <g transform="matrix(1,0,0,1,80.64,558)">
                <g id="g-root-tx_governme_4map3r1px7nw-fill">
                    <g id="tx_governme_4map3r1px7nw-fill">
                        <g>
                            <g>
                                <text x="0px" y="0px" style="font-family:'Arial-BoldMT', 'Arial', sans-serif;font-weight:700;font-size:20px;fill:rgb(44,44,44);">Government Services</text>
                            </g>
                        </g>
                    </g>
                </g>
            </g>
            <g transform="matrix(1,0,0,1,430.31,570)">
                <g id="g-root-tx_ecommerc_zk1f9z1q2v49-fill">
                    <g id="tx_ecommerc_zk1f9z1q2v49-fill">
                        <g>
                            <g>
                                <text x="0px" y="0px" style="font-family:'Arial-BoldMT', 'Arial', sans-serif;font-weight:700;font-size:20px;fill:rgb(44,44,44);">E-commerce &amp; Retail</text>
                            </g>
                        </g>
                    </g>
                </g>
            </g>
            <g id="g-root-tx_streamli_metnrr1px7gt-fill" transform="matrix(1,0,0,1,59,560)">
                <g id="tx_streamli_metnrr1px7gt-fill">
                    <g>
                        <g>
                            <g transform="matrix(1,0,0,1,32.64,31.2)">
                                <text x="0px" y="0px" style="font-family:'ArialMT', 'Arial', sans-serif;font-size:15px;fill:rgb(44,44,44);">Streamlining government</text>
                            </g>
                            <g transform="matrix(1,0,0,1,16.71,49.2)">
                                <g transform="matrix(15,0,0,15,98.3643,0)">
                                </g>
                                <g transform="matrix(15,0,0,15,102.398,0)">
                                </g>
                                <g transform="matrix(15,0,0,15,106.432,0)">
                                </g>
                                <text x="0px" y="0px" style="font-family:'ArialMT', 'Arial', sans-serif;font-size:15px;fill:rgb(44,44,44);">services with eﬃcient number</text>
                            </g>
                            <g transform="matrix(1,0,0,1,83.64,67.2)">
                                <text x="0px" y="0px" style="font-family:'ArialMT', 'Arial', sans-serif;font-size:15px;fill:rgb(44,44,44);">solutions.</text>
                            </g>
                        </g>
                    </g>
                </g>
            </g>
            <g id="g-root-tx_boosting_4hxdhz1q2vwi-fill" transform="matrix(1,0,0,1,419,572)">
                <g id="tx_boosting_4hxdhz1q2vwi-fill">
                    <g>
                        <g>
                            <g transform="matrix(1,0,0,1,16.49,31.2)">
                                <text x="0px" y="0px" style="font-family:'ArialMT', 'Arial', sans-serif;font-size:15px;fill:rgb(44,44,44);">Boosting e-commerce and</text>
                            </g>
                            <g transform="matrix(1,0,0,1,37.69,49.2)">
                                <text x="0px" y="0px" style="font-family:'ArialMT', 'Arial', sans-serif;font-size:15px;fill:rgb(44,44,44);">retail with seamless</text>
                            </g>
                            <g transform="matrix(1,0,0,1,50.01,67.2)">
                                <text x="0px" y="0px" style="font-family:'ArialMT', 'Arial', sans-serif;font-size:15px;fill:rgb(44,44,44);">communication.</text>
                            </g>
                        </g>
                    </g>
                </g>
            </g>
            <g id="g-root-tx_enhancin_1lvi9hz1q48p5-fill" transform="matrix(1,0,0,1,386,794)">
                <g id="tx_enhancin_1lvi9hz1q48p5-fill">
                    <g>
                        <g>
                            <g transform="matrix(1,0,0,1,16.49,28.2)">
                                <text x="0px" y="0px" style="font-family:'ArialMT', 'Arial', sans-serif;font-size:15px;fill:rgb(44,44,44);">Enhancing travel and hospitality</text>
                            </g>
                            <g transform="matrix(1,0,0,1,19.21,46.2)">
                                <text x="0px" y="0px" style="font-family:'ArialMT', 'Arial', sans-serif;font-size:15px;fill:rgb(44,44,44);">services with reliable numbers.</text>
                            </g>
                        </g>
                    </g>
                </g>
            </g>
            <g transform="matrix(1,0,0,1,100.81,780)">
                <g id="g-root-tx_financei_1cu8zh31q00lf-fill">
                    <g id="tx_financei_1cu8zh31q00lf-fill">
                        <g>
                            <g>
                                <text x="0px" y="0px" style="font-family:'Arial-BoldMT', 'Arial', sans-serif;font-weight:700;font-size:20px;fill:rgb(44,44,44);">Finance &amp; Insurance</text>
                            </g>
                        </g>
                    </g>
                </g>
            </g>
            <g transform="matrix(1,0,0,1,422.21,792)">
                <g id="g-root-tx_travelho_mcbrfb1q483k-fill">
                    <g id="tx_travelho_mcbrfb1q483k-fill">
                        <g>
                            <g>
                                <text x="0px" y="0px" style="font-family:'Arial-BoldMT', 'Arial', sans-serif;font-weight:700;font-size:20px;fill:rgb(44,44,44);">T<tspan x="11.113px 18.896px " y="0px 0px ">ra</tspan>vel &amp; Hospitality</text>
                            </g>
                        </g>
                    </g>
                </g>
            </g>
            <g id="g-root-tx_securing_dcbfkn1q01e4-fill" transform="matrix(1,0,0,1,68,782)">
                <g id="tx_securing_dcbfkn1q01e4-fill">
                    <g>
                        <g>
                            <g transform="matrix(1,0,0,1,14.23,31.2)">
                                <g transform="matrix(15,0,0,15,63.3691,0)">
                                </g>
                                <g transform="matrix(15,0,0,15,67.5366,0)">
                                </g>
                                <text x="0px" y="0px" style="font-family:'ArialMT', 'Arial', sans-serif;font-size:15px;fill:rgb(44,44,44);">Securing ﬁnancial and insurance</text>
                            </g>
                            <g transform="matrix(1,0,0,1,30.83,49.2)">
                                <text x="0px" y="0px" style="font-family:'ArialMT', 'Arial', sans-serif;font-size:15px;fill:rgb(44,44,44);">communication with robust</text>
                            </g>
                            <g transform="matrix(1,0,0,1,90.72,67.2)">
                                <text x="0px" y="0px" style="font-family:'ArialMT', 'Arial', sans-serif;font-size:15px;fill:rgb(44,44,44);">numbers.</text>
                            </g>
                        </g>
                    </g>
                </g>
            </g>
            <g id="g-root-cp_5_shape-5_908ryv1pufif-stroke" transform="matrix(1,0,0,1,314.303,104)">
                <g id="cp_5_shape-5_908ryv1pufif-stroke">
                    <g>
                        <path d="M15.697,160L15.697,292M27.697,292L27.697,160M15.697,160L15.697,28.191L11.017,28.191C10.237,28.191 9.747,27.341 10.137,26.661L20.86,10.448C21.256,9.849 22.136,9.851 22.53,10.451L33.177,26.661C33.577,27.341 33.087,28.191 32.297,28.191L27.697,28.191L27.697,160" style="fill:none;stroke:rgb(44,44,44);stroke-width:2px;"/>
                    </g>
                </g>
            </g>
            <g id="g-root-cp_1_shape-1_1qapajb1pueip-stroke" transform="matrix(1,0,0,1,32,103.816)">
                <g id="cp_1_shape-1_1qapajb1pueip-stroke">
                    <g>
                        <path d="M10,160.184C10,140.301 26.118,124.321 46,124.321L172,124.321C213.07,124.321 238,94.191 238,54.851L238,28.191L233.32,28.191C232.54,28.191 232.05,27.341 232.44,26.661L243.163,10.448C243.559,9.849 244.439,9.851 244.833,10.451L255.48,26.661C255.88,27.341 255.39,28.191 254.6,28.191L250,28.191L250,160.184M250,292.184C250,312.066 233.882,328.191 214,328.191L46,328.191C26.118,328.191 10,312.081 10,292.199L10,292.184M250,292.184L250,160.184M10,160.184L10,292.184" style="fill:none;stroke:rgb(44,44,44);stroke-width:2px;"/>
                    </g>
                </g>
            </g>
            <g id="g-root-cp_3_shape-3_143lrx31pugwb-stroke" transform="matrix(1,0,0,1,284.303,104)">
                <g id="cp_3_shape-3_143lrx31pugwb-stroke">
                    <g>
                        <path d="M15.697,160L15.697,292M27.697,292L27.697,160M15.697,160L15.697,28.191L11.017,28.191C10.237,28.191 9.747,27.341 10.137,26.661L20.86,10.448C21.256,9.849 22.136,9.851 22.53,10.451L33.177,26.661C33.577,27.341 33.087,28.191 32.297,28.191L27.697,28.191L27.697,160" style="fill:none;stroke:rgb(44,44,44);stroke-width:2px;"/>
                    </g>
                </g>
            </g>
            <g id="g-root-cp_3_shape-3_1_qsrqmv1pufbh-stroke" transform="matrix(1,0,0,1,32,386)">
                <g id="cp_3_shape-3_1_qsrqmv1pufbh-stroke">
                    <g>
                        <path d="M268,10C268,46 244,64.321 214,64.321L46,64.321C26.118,64.321 10,80.423 10,100.306M280,100.306L280,10" style="fill:none;stroke:rgb(44,44,44);stroke-width:2px;"/>
                    </g>
                </g>
            </g>
            <g id="g-root-cp_5_shape-5_1_dhb89j1pugwf-stroke" transform="matrix(1,0,0,1,320,386)">
                <g id="cp_5_shape-5_1_dhb89j1pugwf-stroke">
                    <g>
                        <path d="M10,10L10,232M22,232L22,10" style="fill:none;stroke:rgb(44,44,44);stroke-width:2px;"/>
                    </g>
                </g>
            </g>
            <g id="g-root-cp_3_shape-3_2_9247871pueix-stroke" transform="matrix(1,0,0,1,32,476)">
                <g id="cp_3_shape-3_2_9247871pueix-stroke">
                    <g>
                        <path d="M280,141.979L280,10M10,10L10,142M280,142.008C280,161.89 263.882,178.008 244,178.008L46,178.008C26.118,178.008 10,161.905 10,142.023L10,142.008" style="fill:none;stroke:rgb(44,44,44);stroke-width:2px;"/>
                    </g>
                </g>
            </g>
            <g id="g-root-cp_5_shape-5_2_1urrqtz1pufwr-stroke" transform="matrix(1,0,0,1,32,608)">
                <g id="cp_5_shape-5_2_1urrqtz1pufwr-stroke">
                    <g>
                        <path d="M298,10C298,45.878 274,64.137 244,64.137L46,64.137C26.118,64.137 10,80.185 10,100M310,100L310,10" style="fill:none;stroke:rgb(44,44,44);stroke-width:2px;"/>
                    </g>
                </g>
            </g>
            <g id="g-root-cp_5_shape-5_3_1hgxpjr1puebx-stroke" transform="matrix(1,0,0,1,32,698)">
                <g id="cp_5_shape-5_3_1hgxpjr1puebx-stroke">
                    <g>
                        <path d="M310,142L310,10M10,10L10,142M310,142C310,161.882 293.882,178.008 274,178.008L46,178.008C26.118,178.008 10,161.882 10,142" style="fill:none;stroke:rgb(44,44,44);stroke-width:2px;"/>
                    </g>
                </g>
            </g>
            <g id="g-root-cp_2_shape-2_145h76f1pufwv-stroke" transform="matrix(1,0,0,1,404.378,103.816)">
                <g id="cp_2_shape-2_145h76f1pufwv-stroke">
                    <g>
                        <path d="M255.622,160.184C255.622,140.301 239.505,124.321 219.623,124.321L93.622,124.321C52.552,124.321 27.622,94.191 27.622,54.851L27.622,28.191L32.302,28.191C33.082,28.191 33.572,27.341 33.182,26.661L22.459,10.448C22.063,9.849 21.184,9.851 20.79,10.451L10.142,26.661C9.742,27.341 10.232,28.191 11.022,28.191L15.622,28.191L15.622,160.184M15.622,304.184C15.622,324.066 31.74,340.184 51.622,340.184L219.623,340.183C239.505,340.183 255.622,324.081 255.622,304.199L255.622,304.184M15.622,304.184L15.622,160.184M255.622,160.184L255.622,304.184" style="fill:none;stroke:rgb(44,44,44);stroke-width:2px;"/>
                    </g>
                </g>
            </g>
            <g id="g-root-cp_4_shape-4_metnrr1puf49-stroke" transform="matrix(1,0,0,1,374.383,104)">
                <g id="cp_4_shape-4_metnrr1puf49-stroke">
                    <g>
                        <path d="M27.622,160L27.622,304M15.622,304L15.622,160M27.622,160L27.622,28.191L32.302,28.191C33.082,28.191 33.572,27.341 33.182,26.661L22.459,10.448C22.063,9.849 21.184,9.851 20.79,10.451L10.142,26.661C9.742,27.341 10.232,28.191 11.022,28.191L15.622,28.191L15.622,160" style="fill:none;stroke:rgb(44,44,44);stroke-width:2px;"/>
                    </g>
                </g>
            </g>
            <g id="g-root-cp_6_shape-6_93d5ef1pugp7-stroke" transform="matrix(1,0,0,1,344.383,104)">
                <g id="cp_6_shape-6_93d5ef1pugp7-stroke">
                    <g>
                        <path d="M27.622,160L27.622,304M15.622,304L15.622,160M27.622,160L27.622,28.191L32.302,28.191C33.082,28.191 33.572,27.341 33.182,26.661L22.459,10.448C22.063,9.849 21.184,9.851 20.79,10.451L10.142,26.661C9.742,27.341 10.232,28.191 11.022,28.191L15.622,28.191L15.622,160" style="fill:none;stroke:rgb(44,44,44);stroke-width:2px;"/>
                    </g>
                </g>
            </g>
            <g id="g-root-cp_4_shape-4_1_1utn63b1puex9-stroke" transform="matrix(1,0,0,1,380,398)">
                <g id="cp_4_shape-4_1_1utn63b1puex9-stroke">
                    <g>
                        <path d="M22,10C22,46 46,64.321 76,64.321L244,64.321C263.882,64.321 280,80.423 280,100.306M10,100.306L10,10" style="fill:none;stroke:rgb(44,44,44);stroke-width:2px;"/>
                    </g>
                </g>
            </g>
            <g id="g-root-cp_4_shape-4_2_1hi6npz1pugi7-stroke" transform="matrix(1,0,0,1,380,488)">
                <g id="cp_4_shape-4_2_1hi6npz1pugi7-stroke">
                    <g>
                        <path d="M10,142L10,10M280,10L280,142M10,142C10,161.882 26.118,178.008 46,178.008L244,178.008C263.882,178.008 280,161.898 280,142.016L280,142" style="fill:none;stroke:rgb(44,44,44);stroke-width:2px;"/>
                    </g>
                </g>
            </g>
            <g id="g-root-cp_6_shape-6_1_18n64k71puewx-stroke" transform="matrix(1,0,0,1,350,398)">
                <g id="cp_6_shape-6_1_18n64k71puewx-stroke">
                    <g>
                        <path d="M22,10L22,232M10,232L10,10" style="fill:none;stroke:rgb(44,44,44);stroke-width:2px;"/>
                    </g>
                </g>
            </g>
            <g id="g-root-cp_6_shape-6_2_zrj4bb1pufpn-stroke" transform="matrix(1,0,0,1,350,620)">
                <g id="cp_6_shape-6_2_zrj4bb1pufpn-stroke">
                    <g>
                        <path d="M22,10C22,46 46,64.321 76,64.321L274,64.321C293.882,64.321 310,80.423 310,100.306M10,100.306L10,10" style="fill:none;stroke:rgb(44,44,44);stroke-width:2px;"/>
                    </g>
                </g>
            </g>
            <g id="g-root-cp_6_shape-6_3_i0vkwn1puex1-stroke" transform="matrix(1,0,0,1,350,710)">
                <g id="cp_6_shape-6_3_i0vkwn1puex1-stroke">
                    <g>
                        <path d="M10,118L10,10M310,10L310,118M10,118C10,137.882 26.118,154.008 46,154.008L274,154.008C293.882,154.008 310,137.898 310,118.016L310,118" style="fill:none;stroke:rgb(44,44,44);stroke-width:2px;"/>
                    </g>
                </g>
            </g>
            <g id="g-root-ic_pick_zknwd31pvvgi-stroke" transform="matrix(1,0,0,1,128,242)">
                <g id="ic_pick_zknwd31pvvgi-stroke">
                    <g>
                        <path d="M47.164,39.562C49.216,39.734 50.793,41.453 50.788,43.512C50.783,45.572 49.197,47.282 47.144,47.444M54.378,56.744C52.974,54.025 50.234,52.254 47.178,52.092M27.802,41.8C27.801,45.497 30.799,48.495 34.496,48.495C38.193,48.495 41.191,45.497 41.19,41.8C41.191,38.103 38.193,35.105 34.496,35.105C30.799,35.105 27.801,38.103 27.802,41.8M24.234,57C25.782,52.745 29.795,49.887 34.322,49.815C38.85,49.743 42.952,52.472 44.634,56.676M20.836,39.562C18.784,39.734 17.207,41.453 17.212,43.512C17.217,45.572 18.803,47.282 20.856,47.444M13.622,56.744C15.026,54.025 17.766,52.254 20.822,52.092M30.232,20.156C30.232,22.477 32.113,24.358 34.434,24.358C36.755,24.358 38.636,22.477 38.636,20.156C38.636,17.835 36.755,15.954 34.434,15.954C32.113,15.954 30.232,17.835 30.232,20.156M30.482,21.588L23.872,27.67L27.124,32.39M38.386,21.588L44.998,27.67L41.744,32.39M34.434,15.954L34.434,11" style="fill:none;stroke:rgb(44,44,44);stroke-width:2px;"/>
                    </g>
                </g>
            </g>
            <g id="g-root-ic_1_1d2d5lj1px9mu-stroke" transform="matrix(1,0,0,1,143,464)">
                <g id="ic_1_1d2d5lj1px9mu-stroke">
                    <g>
                        <path d="M33,19L33,11M33,11L40,11C40.552,11 41,11.448 41,12L41,14C41,14.552 40.552,15 40,15L33,15L33,11ZM11,57L57,57M15,51L25,51L25,57L13,57L13,53C13,51.895 13.895,51 15,51ZM41,51L51,51C52.105,51 53,51.895 53,53L53,57L41,57L41,51ZM26,41L40,41C40.552,41 41,41.448 41,42L41,57L25,57L25,42C25,41.448 25.448,41 26,41ZM33,41L33,57M15,51L15,35L51,35L51,51M13,31L53,31L53,33C53,34.105 52.105,35 51,35L15,35C13.895,35 13,34.105 13,33L13,31ZM53,31L54.83,27.342C55.08,26.84 55.052,26.245 54.758,25.768C54.463,25.291 53.943,25.001 53.382,25L43,25L42.328,24C40.248,20.882 36.748,19.009 33,19.009C29.252,19.009 25.752,20.882 23.672,24L23,25L12.618,25C12.057,25.001 11.537,25.291 11.242,25.768C10.948,26.245 10.92,26.84 11.17,27.342L13,31" style="fill:none;stroke:rgb(44,44,44);stroke-width:2px;"/>
                    </g>
                </g>
            </g>
            <g id="g-root-ic_cart_1cwqvtj1q2vpf-stroke" transform="matrix(1,0,0,1,491,476)">
                <g id="ic_cart_1cwqvtj1q2vpf-stroke">
                    <g>
                        <path d="M39,55C39,56.105 39.895,57 41,57C42.105,57 43,56.105 43,55C43,53.895 42.105,53 41,53C39.895,53 39,53.895 39,55ZM47,55C47,56.105 47.895,57 49,57C50.105,57 51,56.105 51,55C51,53.895 50.105,53 49,53C47.895,53 47,53.895 47,55ZM57,31L52.2,48.268C52.08,48.701 51.685,49 51.236,49L39.72,49C39.29,49 38.908,48.724 38.772,48.316L35.438,38.316C35.336,38.011 35.388,37.675 35.576,37.415C35.764,37.154 36.066,37 36.388,37L55.334,37M31.364,29.384C33.736,29.649 36.13,29.13 38.18,27.906C38.422,27.762 38.589,27.52 38.638,27.244C38.687,26.967 38.613,26.682 38.436,26.464C37.62,25.502 37.052,24.226 36.802,20.53C36.324,13.48 31.57,11 27.484,11C23.398,11 18.644,13.48 18.168,20.53C17.918,24.224 17.35,25.502 16.534,26.464C16.357,26.682 16.283,26.967 16.332,27.244C16.381,27.52 16.548,27.762 16.79,27.906C18.838,29.128 21.23,29.647 23.6,29.384M35.036,33.06C34.176,32.734 33.26,32.396 32.298,32.04C31.741,31.833 31.369,31.303 31.364,30.708L31.364,28.09C31.362,27.71 31.52,27.347 31.8,27.09C32.841,26.242 33.403,24.939 33.304,23.6L33.304,19.728C31.024,19.336 28.959,18.14 27.484,16.358C26.01,18.141 23.946,19.336 21.666,19.728L21.666,23.6C21.569,24.937 22.131,26.237 23.17,27.084C23.45,27.341 23.608,27.704 23.606,28.084L23.606,30.702C23.601,31.297 23.229,31.827 22.672,32.034C17.354,34.004 13.446,35.406 12.434,37.434C11.57,39.168 11.081,41.064 11,43L33,43" style="fill:none;stroke:rgb(44,44,44);stroke-width:2px;"/>
                    </g>
                </g>
            </g>
            <g id="g-root-ic_mess_htdvvb1q02ry-stroke" transform="matrix(1,0,0,1,158,686)">
                <g id="ic_mess_htdvvb1q02ry-stroke">
                    <g>
                        <path d="M44.542,24.938L44.542,26.938M44.542,14.938L44.542,16.938M40.542,24.938L46.542,24.938C47.647,24.938 48.542,24.043 48.542,22.938C48.542,21.833 47.647,20.938 46.542,20.938L42.542,20.938C41.437,20.938 40.542,20.043 40.542,18.938C40.542,17.833 41.437,16.938 42.542,16.938L48.542,16.938M56.542,28.938C56.542,30.043 55.647,30.938 54.542,30.938L43.542,30.938L36.542,36.938L36.542,30.938L34.542,30.938C33.437,30.938 32.542,30.043 32.542,28.938L32.542,12.938C32.542,11.833 33.437,10.938 34.542,10.938L54.542,10.938C55.647,10.938 56.542,11.833 56.542,12.938L56.542,28.938ZM33.542,56.938L26.542,53.938L26.542,49.938C26.542,49.938 28.274,49.238 28.274,44.938C29.64,44.938 30.16,40.938 28.258,40.938C29.08,39.778 29.397,38.335 29.138,36.938C28.156,32.938 18.476,32.938 17.496,36.938C13.364,36.078 16.652,40.362 16.652,40.938C14.688,40.938 14.688,44.938 16.652,44.938C16.652,49.238 18.542,49.938 18.542,49.938L18.542,53.938L11.542,56.938" style="fill:none;stroke:rgb(44,44,44);stroke-width:2px;"/>
                    </g>
                </g>
            </g>
            <g id="g-root-ic_beep_1lwr7o71q4av7-stroke" transform="matrix(1,0,0,1,476,698)">
                <g id="ic_beep_1lwr7o71q4av7-stroke">
                    <g>
                        <path d="M47,21L21,21L21,19C21,16.791 22.791,15 25,15L43,15C45.209,15 47,16.791 47,19L47,21ZM47.002,21L47.002,57M21.002,21L21.002,57M51.042,40L56.958,40M51.002,32.626L56.292,30.252M51.002,47.292L56.292,49.668M16.958,40L11.042,40M17.002,32.626L11.708,30.252M17.002,47.292L11.708,49.668M37,15L37,12C37,11.448 36.552,11 36,11L32,11C31.448,11 31,11.448 31,12L31,15M29.542,29.5C29.542,31.985 31.557,34 34.042,34C36.527,34 38.542,31.985 38.542,29.5C38.542,27.015 36.527,25 34.042,25C31.557,25 29.542,27.015 29.542,29.5ZM34.042,36C30.728,36 28.042,38.686 28.042,42L28.042,47L31.042,47L32.042,56L36.042,56L37.042,47L40.042,47L40.042,42C40.042,38.686 37.356,36 34.042,36Z" style="fill:none;stroke:rgb(44,44,44);stroke-width:2px;"/>
                    </g>
                </g>
            </g>
            <g id="g-root-ic_1_ddkdqv1q1gy4-stroke" transform="matrix(1,0,0,1,506,242)">
                <g id="ic_1_ddkdqv1q1gy4-stroke">
                    <g>
                        <path d="M15.905,47.04L11.89,52.791C11.709,53.144 11.624,53.538 11.644,53.934C11.664,54.33 11.788,54.714 12.003,55.047C12.206,55.372 12.489,55.64 12.824,55.825C13.16,56.011 13.537,56.108 13.92,56.107L38.19,56.107C38.573,56.108 38.95,56.011 39.286,55.825C39.621,55.64 39.904,55.372 40.107,55.047C40.305,54.704 40.409,54.315 40.409,53.919C40.409,53.523 40.305,53.134 40.107,52.791L36.205,47.04M36.205,39.087L36.205,47.04L15.905,47.04L15.905,35.762C15.905,35.164 16.142,34.59 16.565,34.167C16.988,33.744 17.562,33.506 18.16,33.506L23.918,33.506M39.077,33.546L28.236,36.644L29.785,27.351L29.785,14.961C29.785,14.14 30.111,13.352 30.692,12.771C31.273,12.19 32.061,11.864 32.882,11.864L53.016,11.864C53.838,11.864 54.626,12.19 55.207,12.771C55.787,13.352 56.114,14.14 56.114,14.961L56.114,30.449C56.114,31.27 55.787,32.058 55.207,32.639C54.626,33.22 53.838,33.546 53.016,33.546L39.077,33.546ZM45.717,15.66L40.667,15.66L40.667,19.948L36.378,19.948L36.378,24.998L40.667,24.998L40.667,29.286L45.717,29.286L45.717,24.998L50.005,24.998L50.005,19.948L45.717,19.948L45.717,15.66Z" style="fill:none;stroke:rgb(44,44,44);stroke-width:2px;"/>
                    </g>
                </g>
            </g>
        </g>
    </g>
</svg>
