<?xml version="1.0" encoding="UTF-8" standalone="no"?>
<!DOCTYPE svg PUBLIC "-//W3C//DTD SVG 1.1//EN" "http://www.w3.org/Graphics/SVG/1.1/DTD/svg11.dtd">
<svg width="100%" height="100%" viewBox="0 0 576 712" version="1.1" xmlns="http://www.w3.org/2000/svg" xmlns:xlink="http://www.w3.org/1999/xlink" xml:space="preserve" xmlns:serif="http://www.serif.com/" style="fill-rule:evenodd;clip-rule:evenodd;stroke-linecap:round;stroke-linejoin:round;">
    <g id="items" transform="matrix(1.1033,0,0,1.1033,-29.7512,-59.8749)">
        <g id="blend">
            <g id="g-root-cp_5_text-5_hz1ao71zu0hy-fill" transform="matrix(1,0,0,1,50,122)">
                <g id="cp_5_text-5_hz1ao71zu0hy-fill">
                    <g>
                        <rect x="10" y="10" width="228" height="156" style="fill:rgb(255,231,17);"/>
                    </g>
                </g>
            </g>
            <g id="g-root-cp_5_stick-5_8dr9j1ztzpc-fill" transform="matrix(1,0,0,1,266,278)">
                <g id="cp_5_stick-5_8dr9j1ztzpc-fill">
                    <g>
                        <rect x="10" y="10" width="12" height="300" style="fill:rgb(255,231,17);"/>
                    </g>
                </g>
            </g>
            <g id="g-root-cp_3_text-3_18n79l31ztzia-fill" transform="matrix(1,0,0,1,38,278)">
                <g id="cp_3_text-3_18n79l31ztzia-fill">
                    <g>
                        <rect x="10" y="10" width="228" height="144" style="fill:rgb(26,195,251);"/>
                    </g>
                </g>
            </g>
            <g id="g-root-cp_3_stick-3_mg3qyv1zu1vw-fill" transform="matrix(1,0,0,1,254,422)">
                <g id="cp_3_stick-3_mg3qyv1zu1vw-fill">
                    <g>
                        <rect x="10" y="10" width="12" height="156" style="fill:rgb(26,195,251);"/>
                    </g>
                </g>
            </g>
            <g id="g-root-cp_1_text-1_1uux9af1zu1ou-fill" transform="matrix(1,0,0,1,26,422)">
                <g id="cp_1_text-1_1uux9af1zu1ou-fill">
                    <g>
                        <rect x="10" y="10" width="228" height="120" style="fill:rgb(67,221,147);"/>
                    </g>
                </g>
            </g>
            <g id="g-root-cp_1_stick-1_18egmdj1zvg8w-fill" transform="matrix(1,0,0,1,242,506)">
                <g id="cp_1_stick-1_18egmdj1zvg8w-fill">
                    <g>
                        <rect x="10" y="10" width="12" height="72" style="fill:rgb(67,221,147);"/>
                    </g>
                </g>
            </g>
            <g id="g-root-cp_6_text-6_m7zkuf1zvfgq-fill" transform="matrix(1,0,0,1,278,98)">
                <g id="cp_6_text-6_m7zkuf1zvfgq-fill">
                    <g>
                        <rect x="10" y="10" width="228" height="144" style="fill:rgb(247,148,56);"/>
                    </g>
                </g>
            </g>
            <g id="g-root-cp_6_stick-6_1umt35z1zvf9o-fill" transform="matrix(1,0,0,1,278,242)">
                <g id="cp_6_stick-6_1umt35z1zvf9o-fill">
                    <g>
                        <rect x="10" y="10" width="12" height="336" style="fill:rgb(247,148,56);"/>
                    </g>
                </g>
            </g>
            <g id="g-root-cp_4_text-4_1hbcksn1zvgum-fill" transform="matrix(1,0,0,1,290,242)">
                <g id="cp_4_text-4_1hbcksn1zvgum-fill">
                    <g>
                        <rect x="10" y="10" width="228" height="156" style="fill:rgb(135,105,253);"/>
                    </g>
                </g>
            </g>
            <g id="g-root-cp_4_stick-4_m9v03r1zveh4-fill" transform="matrix(1,0,0,1,290,398)">
                <g id="cp_4_stick-4_m9v03r1zveh4-fill">
                    <g>
                        <rect x="10" y="10" width="12" height="180" style="fill:rgb(135,105,253);"/>
                    </g>
                </g>
            </g>
            <g id="g-root-cp_2_text-2_4ikzlz1zvgua-fill" transform="matrix(1,0,0,1,302,398)">
                <g id="cp_2_text-2_4ikzlz1zvgua-fill">
                    <g>
                        <rect x="10" y="10" width="228" height="132" style="fill:rgb(166,218,55);"/>
                    </g>
                </g>
            </g>
            <g id="g-root-cp_2_stick-2_1hd801z1zvfv0-fill" transform="matrix(1,0,0,1,302,482)">
                <g id="cp_2_stick-2_1hd801z1zvfv0-fill">
                    <g>
                        <rect x="10" y="10" width="12" height="96" style="fill:rgb(166,218,55);"/>
                    </g>
                </g>
            </g>
            <g id="g-root-cp_0_g-0_qqxgef1zvfv2-fill" transform="matrix(1,0,0,1,242,578)">
                <g id="cp_0_g-0_qqxgef1zvfv2-fill">
                    <g>
                        <path d="M33.994,61L46.01,86L58.005,61L33.994,61Z" style="fill:rgb(232,232,232);"/>
                    </g>
                </g>
                <g id="cp_0_g-0_qqxgef1zvfv2-fill1" serif:id="cp_0_g-0_qqxgef1zvfv2-fill">
                    <g>
                        <path d="M82,10L10,10L34,61L58.001,61L82,10Z" style="fill:rgb(232,232,232);"/>
                    </g>
                </g>
            </g>
            <g id="g-root-tx_failover_14150lj202gau-fill" transform="matrix(1,0,0,1,350,254)">
                <g id="tx_failover_14150lj202gau-fill">
                    <g>
                        <g>
                            <g transform="matrix(1,0,0,1,12,34)">
                                <text x="0px" y="0px" style="font-family:'Arial-BoldMT', 'Arial', sans-serif;font-weight:700;font-size:20px;fill:rgb(44,44,44);">Failover</text>
                            </g>
                            <g transform="matrix(1,0,0,1,12,58)">
                                <text x="0px" y="0px" style="font-family:'Arial-BoldMT', 'Arial', sans-serif;font-weight:700;font-size:20px;fill:rgb(44,44,44);">Reliability</text>
                            </g>
                        </g>
                    </g>
                </g>
            </g>
            <g id="g-root-tx_smartman_1ly1avb1zwsn9-fill" transform="matrix(1,0,0,1,74,290)">
                <g id="tx_smartman_1ly1avb1zwsn9-fill">
                    <g>
                        <g>
                            <g transform="matrix(1,0,0,1,85.08,34)">
                                <text x="0px" y="0px" style="font-family:'Arial-BoldMT', 'Arial', sans-serif;font-weight:700;font-size:20px;fill:rgb(44,44,44);">Smart</text>
                            </g>
                            <g transform="matrix(1,0,0,1,21.53,58)">
                                <text x="0px" y="0px" style="font-family:'Arial-BoldMT', 'Arial', sans-serif;font-weight:700;font-size:20px;fill:rgb(44,44,44);">Management</text>
                            </g>
                        </g>
                    </g>
                </g>
            </g>
            <g id="g-root-tx_robustfa_1q9hhdz202fbj-fill" transform="matrix(1,0,0,1,350,314)">
                <g id="tx_robustfa_1q9hhdz202fbj-fill">
                    <g>
                        <g>
                            <g transform="matrix(1,0,0,1,12,28.2)">
                                <text x="0px" y="0px" style="font-family:'ArialMT', 'Arial', sans-serif;font-size:15px;fill:rgb(44,44,44);">Robust failover</text>
                            </g>
                            <g transform="matrix(1,0,0,1,12,46.2)">
                                <text x="0px" y="0px" style="font-family:'ArialMT', 'Arial', sans-serif;font-size:15px;fill:rgb(44,44,44);">system ensuring</text>
                            </g>
                            <g transform="matrix(1,0,0,1,12,64.2)">
                                <text x="0px" y="0px" style="font-family:'ArialMT', 'Arial', sans-serif;font-size:15px;fill:rgb(44,44,44);">uninterrupted service</text>
                            </g>
                            <g transform="matrix(1,0,0,1,12,82.2)">
                                <text x="0px" y="0px" style="font-family:'ArialMT', 'Arial', sans-serif;font-size:15px;fill:rgb(44,44,44);">reliability<tspan x="57.239px " y="0px ">.</tspan></text>
                            </g>
                        </g>
                    </g>
                </g>
            </g>
            <g id="g-root-tx_intuitiv_i0a8uf1zwu86-fill" transform="matrix(1,0,0,1,50,350)">
                <g id="tx_intuitiv_i0a8uf1zwu86-fill">
                    <g>
                        <g>
                            <g transform="matrix(1,0,0,1,13.67,31.2)">
                                <text x="0px" y="0px" style="font-family:'ArialMT', 'Arial', sans-serif;font-size:15px;fill:rgb(44,44,44);">Intuitive dashboard for</text>
                            </g>
                            <g transform="matrix(1,0,0,1,55.75,49.2)">
                                <g transform="matrix(15,0,0,15,8.34229,0)">
                                </g>
                                <g transform="matrix(15,0,0,15,12.3763,0)">
                                </g>
                                <g transform="matrix(15,0,0,15,16.4104,0)">
                                </g>
                                <text x="0px" y="0px" style="font-family:'ArialMT', 'Arial', sans-serif;font-size:15px;fill:rgb(44,44,44);">eﬃcient number</text>
                            </g>
                            <g transform="matrix(1,0,0,1,71.63,67.2)">
                                <text x="0px" y="0px" style="font-family:'ArialMT', 'Arial', sans-serif;font-size:15px;fill:rgb(44,44,44);">management.</text>
                            </g>
                        </g>
                    </g>
                </g>
            </g>
            <g id="g-root-tx_affordab_v9vbyf1zvg97-fill" transform="matrix(1,0,0,1,86,194)">
                <g id="tx_affordab_v9vbyf1zvg97-fill">
                    <g>
                        <g>
                            <g transform="matrix(1,0,0,1,26.2,28.2)">
                                <g transform="matrix(15,0,0,15,10.0049,0)">
                                </g>
                                <g transform="matrix(15,0,0,15,14.0112,0)">
                                </g>
                                <text x="0px" y="0px" style="font-family:'ArialMT', 'Arial', sans-serif;font-size:15px;fill:rgb(44,44,44);">Aﬀordable billing</text>
                            </g>
                            <g transform="matrix(1,0,0,1,18.87,46.2)">
                                <text x="0px" y="0px" style="font-family:'ArialMT', 'Arial', sans-serif;font-size:15px;fill:rgb(44,44,44);">options tailored to</text>
                            </g>
                            <g transform="matrix(1,0,0,1,28.45,64.2)">
                                <text x="0px" y="0px" style="font-family:'ArialMT', 'Arial', sans-serif;font-size:15px;fill:rgb(44,44,44);">diverse business</text>
                            </g>
                            <g transform="matrix(1,0,0,1,95.65,82.2)">
                                <text x="0px" y="0px" style="font-family:'ArialMT', 'Arial', sans-serif;font-size:15px;fill:rgb(44,44,44);">needs.</text>
                            </g>
                        </g>
                    </g>
                </g>
            </g>
            <g id="g-root-tx_roundthe_deugxz2012x0-fill" transform="matrix(1,0,0,1,338,170)">
                <g id="tx_roundthe_deugxz2012x0-fill">
                    <g>
                        <g>
                            <g transform="matrix(1,0,0,1,12,31.2)">
                                <text x="0px" y="0px" style="font-family:'ArialMT', 'Arial', sans-serif;font-size:15px;fill:rgb(44,44,44);">Round-the-clock</text>
                            </g>
                            <g transform="matrix(1,0,0,1,12,49.2)">
                                <text x="0px" y="0px" style="font-family:'ArialMT', 'Arial', sans-serif;font-size:15px;fill:rgb(44,44,44);">support team for</text>
                            </g>
                            <g transform="matrix(1,0,0,1,12,67.2)">
                                <text x="0px" y="0px" style="font-family:'ArialMT', 'Arial', sans-serif;font-size:15px;fill:rgb(44,44,44);">immediate assistance.</text>
                            </g>
                        </g>
                    </g>
                </g>
            </g>
            <g id="g-root-tx_costeffe_925c931zve2q-fill" transform="matrix(1,0,0,1,86,134)">
                <g id="tx_costeffe_925c931zve2q-fill">
                    <g>
                        <g>
                            <g transform="matrix(1,0,0,1,11.5,34)">
                                <g transform="matrix(20,0,0,20,64.4434,0)">
                                </g>
                                <g transform="matrix(20,0,0,20,70.8594,0)">
                                </g>
                                <text x="0px" y="0px" style="font-family:'Arial-BoldMT', 'Arial', sans-serif;font-weight:700;font-size:20px;fill:rgb(44,44,44);">Cost-Eﬀective</text>
                            </g>
                            <g transform="matrix(1,0,0,1,89.63,58)">
                                <text x="0px" y="0px" style="font-family:'Arial-BoldMT', 'Arial', sans-serif;font-weight:700;font-size:20px;fill:rgb(44,44,44);">Plans</text>
                            </g>
                        </g>
                    </g>
                </g>
            </g>
            <g id="g-root-tx_dedicate_250ef2012bv-fill" transform="matrix(1,0,0,1,338,110)">
                <g id="tx_dedicate_250ef2012bv-fill">
                    <g>
                        <g>
                            <g transform="matrix(1,0,0,1,12,34)">
                                <text x="0px" y="0px" style="font-family:'Arial-BoldMT', 'Arial', sans-serif;font-weight:700;font-size:20px;fill:rgb(44,44,44);">Dedicated</text>
                            </g>
                            <g transform="matrix(1,0,0,1,12,58)">
                                <text x="0px" y="0px" style="font-family:'Arial-BoldMT', 'Arial', sans-serif;font-weight:700;font-size:20px;fill:rgb(44,44,44);">Support</text>
                            </g>
                        </g>
                    </g>
                </g>
            </g>
            <g transform="matrix(1,0,0,1,374,444)">
                <g id="g-root-tx_hdvoiceq_qrjxhj203u9t-fill">
                    <g id="tx_hdvoiceq_qrjxhj203u9t-fill">
                        <g>
                            <g>
                                <text x="0px" y="0px" style="font-family:'Arial-BoldMT', 'Arial', sans-serif;font-weight:700;font-size:20px;fill:rgb(44,44,44);">HD V<tspan x="46.299px 58.516px " y="0px 0px ">oi</tspan>ce Quality</text>
                            </g>
                        </g>
                    </g>
                </g>
            </g>
            <g transform="matrix(1,0,0,1,73.97,468)">
                <g id="g-root-tx_globalac_4otqh31zy96w-fill">
                    <g id="tx_globalac_4otqh31zy96w-fill">
                        <g>
                            <g>
                                <text x="0px" y="0px" style="font-family:'Arial-BoldMT', 'Arial', sans-serif;font-weight:700;font-size:20px;fill:rgb(44,44,44);">Global <tspan x="67.041px 81.484px " y="0px 0px ">Ac</tspan>cess</text>
                            </g>
                        </g>
                    </g>
                </g>
            </g>
            <g id="g-root-tx_superior_1luwxfr203vnm-fill" transform="matrix(1,0,0,1,362,446)">
                <g id="tx_superior_1luwxfr203vnm-fill">
                    <g>
                        <g>
                            <g transform="matrix(1,0,0,1,12,28.2)">
                                <text x="0px" y="0px" style="font-family:'ArialMT', 'Arial', sans-serif;font-size:15px;fill:rgb(44,44,44);">Superior voice clarity</text>
                            </g>
                            <g transform="matrix(1,0,0,1,12,46.2)">
                                <text x="0px" y="0px" style="font-family:'ArialMT', 'Arial', sans-serif;font-size:15px;fill:rgb(44,44,44);">for enhanced</text>
                            </g>
                            <g transform="matrix(1,0,0,1,12,64.2)">
                                <text x="0px" y="0px" style="font-family:'ArialMT', 'Arial', sans-serif;font-size:15px;fill:rgb(44,44,44);">communication</text>
                            </g>
                            <g transform="matrix(1,0,0,1,12,82.2)">
                                <text x="0px" y="0px" style="font-family:'ArialMT', 'Arial', sans-serif;font-size:15px;fill:rgb(44,44,44);">experience.</text>
                            </g>
                        </g>
                    </g>
                </g>
            </g>
            <g id="g-root-tx_worldwid_hrjlmv1zzoch-fill" transform="matrix(1,0,0,1,38,470)">
                <g id="tx_worldwid_hrjlmv1zzoch-fill">
                    <g>
                        <g>
                            <g transform="matrix(1,0,0,1,21.63,31.2)">
                                <text x="0px" y="0px" style="font-family:'ArialMT', 'Arial', sans-serif;font-size:15px;fill:rgb(44,44,44);">W<tspan x="13.887px 22.229px " y="0px 0px ">or</tspan>ldwide DID &amp; <tspan x="117.817px 126.98px " y="0px 0px ">TF</tspan>N</text>
                            </g>
                            <g transform="matrix(1,0,0,1,16.37,49.2)">
                                <text x="0px" y="0px" style="font-family:'ArialMT', 'Arial', sans-serif;font-size:15px;fill:rgb(44,44,44);">number availability for</text>
                            </g>
                            <g transform="matrix(1,0,0,1,12.77,67.2)">
                                <text x="0px" y="0px" style="font-family:'ArialMT', 'Arial', sans-serif;font-size:15px;fill:rgb(44,44,44);">seamless connectivity<tspan x="144.778px " y="0px ">.</tspan></text>
                            </g>
                        </g>
                    </g>
                </g>
            </g>
            <g id="g-root-cp_5_text-5_hz1ao71zu0hy-stroke" transform="matrix(1,0,0,1,50,122)">
                <g id="cp_5_text-5_hz1ao71zu0hy-stroke">
                    <g>
                        <path d="M10,166L10,10L238,10L238,166" style="fill:none;stroke:rgb(44,44,44);stroke-width:2px;"/>
                    </g>
                </g>
            </g>
            <g id="g-root-cp_5_stick-5_8dr9j1ztzpc-stroke" transform="matrix(1,0,0,1,266,278)">
                <g id="cp_5_stick-5_8dr9j1ztzpc-stroke">
                    <g>
                        <path d="M21.996,310L21.996,10" style="fill:none;stroke:rgb(44,44,44);stroke-width:2px;"/>
                    </g>
                </g>
            </g>
            <g id="g-root-cp_3_text-3_18n79l31ztzia-stroke" transform="matrix(1,0,0,1,38,278)">
                <g id="cp_3_text-3_18n79l31ztzia-stroke">
                    <g>
                        <path d="M10,154L10,10L238,10L238,154" style="fill:none;stroke:rgb(44,44,44);stroke-width:2px;"/>
                    </g>
                </g>
            </g>
            <g id="g-root-cp_3_stick-3_mg3qyv1zu1vw-stroke" transform="matrix(1,0,0,1,254,422)">
                <g id="cp_3_stick-3_mg3qyv1zu1vw-stroke">
                    <g>
                        <path d="M21.996,166L21.996,10" style="fill:none;stroke:rgb(44,44,44);stroke-width:2px;"/>
                    </g>
                </g>
            </g>
            <g id="g-root-cp_1_text-1_1uux9af1zu1ou-stroke" transform="matrix(1,0,0,1,26,422)">
                <g id="cp_1_text-1_1uux9af1zu1ou-stroke">
                    <g>
                        <path d="M238,130L238,10L10,10L10,130L226,130" style="fill:none;stroke:rgb(44,44,44);stroke-width:2px;"/>
                    </g>
                </g>
            </g>
            <g id="g-root-cp_1_stick-1_18egmdj1zvg8w-stroke" transform="matrix(1,0,0,1,242,506)">
                <g id="cp_1_stick-1_18egmdj1zvg8w-stroke">
                    <g>
                        <path d="M21.996,82L21.996,10M10,82L10,46" style="fill:none;stroke:rgb(44,44,44);stroke-width:2px;"/>
                    </g>
                </g>
            </g>
            <g id="g-root-cp_6_text-6_m7zkuf1zvfgq-stroke" transform="matrix(1,0,0,1,278,98)">
                <g id="cp_6_text-6_m7zkuf1zvfgq-stroke">
                    <g>
                        <path d="M238,154L238,10L10,10L10,154" style="fill:none;stroke:rgb(44,44,44);stroke-width:2px;"/>
                    </g>
                </g>
            </g>
            <g id="g-root-cp_6_stick-6_1umt35z1zvf9o-stroke" transform="matrix(1,0,0,1,278,242)">
                <g id="cp_6_stick-6_1umt35z1zvf9o-stroke">
                    <g>
                        <path d="M10.004,346L10.004,10" style="fill:none;stroke:rgb(44,44,44);stroke-width:2px;"/>
                    </g>
                </g>
            </g>
            <g id="g-root-cp_4_text-4_1hbcksn1zvgum-stroke" transform="matrix(1,0,0,1,290,242)">
                <g id="cp_4_text-4_1hbcksn1zvgum-stroke">
                    <g>
                        <path d="M238,166L238,10L10,10L10,166" style="fill:none;stroke:rgb(44,44,44);stroke-width:2px;"/>
                    </g>
                </g>
            </g>
            <g id="g-root-cp_4_stick-4_m9v03r1zveh4-stroke" transform="matrix(1,0,0,1,290,398)">
                <g id="cp_4_stick-4_m9v03r1zveh4-stroke">
                    <g>
                        <path d="M10.004,190L10.004,10" style="fill:none;stroke:rgb(44,44,44);stroke-width:2px;"/>
                    </g>
                </g>
            </g>
            <g id="g-root-cp_2_text-2_4ikzlz1zvgua-stroke" transform="matrix(1,0,0,1,302,398)">
                <g id="cp_2_text-2_4ikzlz1zvgua-stroke">
                    <g>
                        <path d="M10,142L10,10L238,10L238,142L22,142" style="fill:none;stroke:rgb(44,44,44);stroke-width:2px;"/>
                    </g>
                </g>
            </g>
            <g id="g-root-cp_2_stick-2_1hd801z1zvfv0-stroke" transform="matrix(1,0,0,1,302,482)">
                <g id="cp_2_stick-2_1hd801z1zvfv0-stroke">
                    <g>
                        <path d="M10.004,106L10.004,10M22,106L22,58" style="fill:none;stroke:rgb(44,44,44);stroke-width:2px;"/>
                    </g>
                </g>
            </g>
            <g id="g-root-cp_0_g-0_qqxgef1zvfv2-stroke" transform="matrix(1,0,0,1,242,578)">
                <g id="cp_0_g-0_qqxgef1zvfv2-stroke">
                    <g>
                        <path d="M33.994,61L46.01,86L58.005,61L33.994,61Z" style="fill:none;stroke:rgb(44,44,44);stroke-width:2px;"/>
                    </g>
                </g>
                <g id="cp_0_g-0_qqxgef1zvfv2-stroke1" serif:id="cp_0_g-0_qqxgef1zvfv2-stroke">
                    <g>
                        <path d="M82,10L10,10L34,61L58.001,61L82,10Z" style="fill:none;stroke:rgb(44,44,44);stroke-width:2px;"/>
                    </g>
                </g>
            </g>
            <g id="g-root-ic_grap_13yn4931zy7tb-stroke" transform="matrix(1,0,0,1,218,290)">
                <g id="ic_grap_13yn4931zy7tb-stroke">
                    <g>
                        <path d="M30.25,20.5C30.25,23.399 32.601,25.75 35.5,25.75C38.399,25.75 40.75,23.399 40.75,20.5C40.75,17.601 38.399,15.25 35.5,15.25C32.601,15.25 30.25,17.601 30.25,20.5M15.25,40.75L18.55,36.126C18.667,35.961 18.846,35.851 19.045,35.82C19.244,35.789 19.447,35.84 19.609,35.96L21.4,37.3C21.731,37.549 22.201,37.481 22.45,37.15L26.5,31.75M36.626,15.371L35.5,20.5L40.711,19.862M32.5,30.25L40,30.25C40,30.25 40.75,30.25 40.75,31L40.75,40C40.75,40 40.75,40.75 40,40.75L32.5,40.75C32.5,40.75 31.75,40.75 31.75,40L31.75,31C31.75,31 31.75,30.25 32.5,30.25M34.75,34.75L37.75,34.75M34.75,37.75L36.25,37.75M16,15.25L23.5,15.25C23.5,15.25 24.25,15.25 24.25,16L24.25,25C24.25,25 24.25,25.75 23.5,25.75L16,25.75C16,25.75 15.25,25.75 15.25,25L15.25,16C15.25,16 15.25,15.25 16,15.25M18.25,18.25L21.25,18.25M18.25,21.25L19.75,21.25M12.25,10.75L43.75,10.75C43.75,10.75 45.25,10.75 45.25,12.25L45.25,43.75C45.25,43.75 45.25,45.25 43.75,45.25L12.25,45.25C12.25,45.25 10.75,45.25 10.75,43.75L10.75,12.25C10.75,12.25 10.75,10.75 12.25,10.75" style="fill:none;stroke:rgb(44,44,44);stroke-width:2px;"/>
                    </g>
                </g>
            </g>
            <g id="g-root-ic_brid_1430fuv202fb4-stroke" transform="matrix(1,0,0,1,302,254)">
                <g id="ic_brid_1430fuv202fb4-stroke">
                    <g>
                        <path d="M29.5,31.11L34.75,35.619M25,31.11L19.75,35.619M19.75,35.619L19.75,17.619L13.75,17.619L13.75,35.619M40.75,35.619L40.75,17.619L34.75,17.619L34.75,35.619M34.75,22.119L19.75,22.119M19.75,26.619L34.75,26.619M10.75,44.619L10.75,36.369C10.75,35.954 11.086,35.619 11.5,35.619L19.75,35.619L19.75,44.113M45.25,44.619L45.25,36.369C45.25,35.954 44.914,35.619 44.5,35.619L34.75,35.619L34.75,44.539M16.75,32.618L16.75,28.119M16.75,22.119L16.75,20.619M13.75,25.119L19.75,25.119M37.75,32.618L37.75,28.119M37.75,22.119L37.75,20.619M34.75,25.119L40.75,25.119M22.75,22.119L22.75,26.619M27.25,22.119L27.25,26.619M31.75,22.119L31.75,26.619M13.75,17.619L16.054,11.854C16.168,11.57 16.444,11.383 16.75,11.383C17.056,11.383 17.332,11.57 17.446,11.854L19.75,17.619M34.75,17.619L37.054,11.854C37.168,11.57 37.444,11.383 37.75,11.383C38.056,11.383 38.332,11.57 38.446,11.854L40.75,17.619M40.75,25.11L45.25,29.61M13.75,25.11L10.75,28.11M45.25,44.619C42.986,44.51 40.885,43.413 39.501,41.619C38.116,43.413 36.013,44.51 33.75,44.619C31.486,44.51 29.384,43.413 28,41.619C26.616,43.413 24.514,44.51 22.251,44.619C19.987,44.51 17.884,43.413 16.5,41.619C15.115,43.413 13.014,44.51 10.75,44.619" style="fill:none;stroke:rgb(44,44,44);stroke-width:2px;"/>
                    </g>
                </g>
            </g>
            <g id="g-root-ic_soun_hxschz203u2r-stroke" transform="matrix(1,0,0,1,314,410)">
                <g id="ic_soun_hxschz203u2r-stroke">
                    <g>
                        <path d="M28,11.5L28,44.5M22,16L22,43M16,22L16,37M11.5,28L11.5,31M34,16L34,43M40,22L40,37M44.5,28L44.5,31" style="fill:none;stroke:rgb(44,44,44);stroke-width:2px;"/>
                    </g>
                </g>
            </g>
            <g id="g-root-ic_netw_1cvj2o71zzmki-stroke" transform="matrix(1,0,0,1,206,434)">
                <g id="ic_netw_1cvj2o71zzmki-stroke">
                    <g>
                        <path d="M10.804,27.997C10.804,37.524 18.527,45.247 28.054,45.247C37.581,45.247 45.304,37.524 45.304,27.997C45.304,18.47 37.581,10.747 28.054,10.747C18.527,10.747 10.804,18.47 10.804,27.997L10.804,27.997ZM19.804,21.622C19.804,23.486 21.315,24.997 23.179,24.997C25.043,24.997 26.554,23.486 26.554,21.622C26.554,19.758 25.043,18.247 23.179,18.247C21.315,18.247 19.804,19.758 19.804,21.622L19.804,21.622ZM29.554,36.622C29.554,37.658 30.393,38.497 31.429,38.497C32.465,38.497 33.304,37.658 33.304,36.622C33.304,35.586 32.465,34.747 31.429,34.747C30.393,34.747 29.554,35.586 29.554,36.622L29.554,36.622ZM35.554,25.372C35.554,26.822 36.729,27.997 38.179,27.997C39.629,27.997 40.804,26.822 40.804,25.372C40.804,23.922 39.629,22.747 38.179,22.747C36.729,22.747 35.554,23.922 35.554,25.372ZM26.554,21.25C29.907,21.378 33.102,22.709 35.554,25M38.702,27.946L39.302,28.747C39.302,28.747 41.552,31.747 41.552,38.497M35.288,12.333L35.554,13C36.64,16.216 37.148,19.6 37.054,22.993M36.304,27.25C36.116,30.348 35,33.317 33.1,35.772M30.532,38.269L30.304,38.5C30.304,38.5 26.554,42.25 18.304,42.25M28.054,10.75C26.002,12.945 24.352,15.484 23.179,18.25M21.427,24.508L21.304,25C20.487,29.057 21.013,33.269 22.804,37C25.354,42.109 31.804,44.5 31.804,44.5L32.364,44.709M19.804,21.622C19.804,21.622 14.05,22.035 11.142,24.581M11.224,31.798L11.554,31.747C11.554,31.747 21.876,30.16 30.265,35.152" style="fill:none;stroke:rgb(44,44,44);stroke-width:2px;"/>
                    </g>
                </g>
            </g>
            <g id="g-root-ic_smok_1cyng3r2010ct-stroke" transform="matrix(1,0,0,1,290,110)">
                <g id="ic_smok_1cyng3r2010ct-stroke">
                    <g>
                        <path d="M34.93,40.57C32.87,41.916 30.461,42.631 28,42.625C22.269,42.625 17.242,38.801 15.713,33.278C14.183,27.755 16.526,21.89 21.44,18.942C26.354,15.993 32.632,16.686 36.785,20.635C40.939,24.584 41.947,30.818 39.25,35.875M16.375,35.125L13.75,35.125C12.093,35.125 10.75,33.782 10.75,32.125L10.75,27.625C10.75,25.968 12.093,24.625 13.75,24.625L16.375,24.625M39.625,35.125L42.25,35.125C43.907,35.125 45.25,33.782 45.25,32.125L45.25,27.625C45.25,25.968 43.907,24.625 42.25,24.625L39.625,24.625M42.235,24.625C42.235,16.755 35.855,10.375 27.985,10.375C20.115,10.375 13.735,16.755 13.735,24.625M21.13,33.625C22.325,36.353 25.021,38.116 28,38.116C30.979,38.116 33.675,36.353 34.87,33.625M21.25,27.25C21.457,27.25 21.625,27.418 21.625,27.625C21.625,27.832 21.457,28 21.25,28C21.043,28 20.875,27.832 20.875,27.625C20.875,27.418 21.043,27.25 21.25,27.25M34.75,27.25C34.957,27.25 35.125,27.418 35.125,27.625C35.125,27.832 34.957,28 34.75,28C34.543,28 34.375,27.832 34.375,27.625C34.375,27.418 34.543,27.25 34.75,27.25M31.555,37.225L38.815,44.5C39.116,44.803 39.533,44.963 39.959,44.94C40.386,44.918 40.783,44.714 41.05,44.38L41.995,43.195C42.25,42.868 42.359,42.45 42.295,42.04C42.236,41.627 42.008,41.258 41.665,41.02L33.685,35.5" style="fill:none;stroke:rgb(44,44,44);stroke-width:2px;"/>
                    </g>
                </g>
            </g>
            <g id="g-root-ic_expe_7ra6f1zvh1g-stroke" transform="matrix(1,0,0,1,230,134)">
                <g id="ic_expe_7ra6f1zvh1g-stroke">
                    <g>
                        <path d="M10.75,29.5L45.25,41.5M45.25,24.25C45.25,23.836 44.914,23.5 44.5,23.5L40.75,23.5L40.75,19.75C40.75,19.336 40.414,19 40,19L35.5,19C35.086,19 34.75,19.336 34.75,19.75L34.75,23.5L31,23.5C30.586,23.5 30.25,23.836 30.25,24.25L30.25,28.75C30.25,29.164 30.586,29.5 31,29.5L34.75,29.5L34.75,33.25C34.75,33.664 35.086,34 35.5,34L40,34C40.414,34 40.75,33.664 40.75,33.25L40.75,29.5L44.5,29.5C44.914,29.5 45.25,29.164 45.25,28.75L45.25,24.25ZM10.75,20.5C10.75,24.642 14.108,28 18.25,28C22.392,28 25.75,24.642 25.75,20.5C25.75,16.358 22.392,13 18.25,13C14.108,13 10.75,16.358 10.75,20.5ZM18.25,23.5L18.25,25M18.25,16L18.25,17.5M15.25,23.5L19.75,23.5C20.578,23.5 21.25,22.828 21.25,22C21.25,21.172 20.578,20.5 19.75,20.5L16.75,20.5C15.922,20.5 15.25,19.828 15.25,19C15.25,18.172 15.922,17.5 16.75,17.5L21.25,17.5M27.417,35.826C27.559,35.649 27.773,35.547 28,35.547C28.227,35.547 28.441,35.649 28.584,35.826L33.383,41.778C33.566,42.002 33.603,42.312 33.478,42.573C33.353,42.834 33.089,43 32.8,43L23.2,43C22.911,43 22.647,42.834 22.522,42.573C22.397,42.312 22.434,42.002 22.617,41.778L27.417,35.826Z" style="fill:none;stroke:rgb(44,44,44);stroke-width:2px;"/>
                    </g>
                </g>
            </g>
        </g>
    </g>
</svg>
