<?xml version="1.0" encoding="UTF-8" standalone="no"?>
<!DOCTYPE svg PUBLIC "-//W3C//DTD SVG 1.1//EN" "http://www.w3.org/Graphics/SVG/1.1/DTD/svg11.dtd">
<svg width="100%" height="100%" viewBox="0 0 600 636" version="1.1" xmlns="http://www.w3.org/2000/svg" xmlns:xlink="http://www.w3.org/1999/xlink" xml:space="preserve" xmlns:serif="http://www.serif.com/" style="fill-rule:evenodd;clip-rule:evenodd;stroke-linecap:round;stroke-linejoin:round;">
    <g id="items" transform="matrix(1.20306,0,0,1.20306,-65.9184,-113.663)">
        <g id="blend">
            <g id="g-root-cp_1_sign-1_1hckwtm209iit-fill" transform="matrix(1,0,0,1,113,146)">
                <g id="cp_1_sign-1_1hckwtm209iit-fill">
                    <g>
                        <path d="M10,52L28,10L28,94L10,52ZM28,10L189,10L189,94L28,94L28,10Z" style="fill:rgb(79,145,252);"/>
                    </g>
                </g>
            </g>
            <g id="g-root-cp_3_sign-3_qqad62209iiv-fill" transform="matrix(1,0,0,1,53,242)">
                <g id="cp_3_sign-3_qqad62209iiv-fill">
                    <g>
                        <path d="M10,40L28,10L28,70L10,40ZM28,10L249,10L249,70L28,70L28,10Z" style="fill:rgb(26,195,251);"/>
                    </g>
                </g>
            </g>
            <g id="g-root-cp_5_sign-5_3ztii209iix-fill" transform="matrix(1,0,0,1,89,314)">
                <g id="cp_5_sign-5_3ztii209iix-fill">
                    <g>
                        <path d="M10,52L28,10L28,94L10,52ZM28,10L213,10L213,94L28,94L28,10Z" style="fill:rgb(243,102,187);"/>
                    </g>
                </g>
            </g>
            <g id="g-root-cp_pole_g-pole_1lu9u7e209gqz-fill" transform="matrix(1,0,0,1,290,122)">
                <g id="cp_pole_g-pole_1lu9u7e209gqz-fill">
                    <g>
                        <path d="M31,346L13,346L13,460L31,460L31,459.897L24.55,459.88C24.55,459.88 25.3,453.89 17.74,452.78C25.63,449.53 28.41,454.56 28.41,454.56C28.41,454.56 27.994,447.986 31,442.2L31,346ZM13,22L31,22L31,346L13,346L13,22Z" style="fill:rgb(171,171,171);"/>
                    </g>
                </g>
                <g id="cp_pole_g-pole_1lu9u7e209gqz-fill1" serif:id="cp_pole_g-pole_1lu9u7e209gqz-fill">
                    <g>
                        <rect x="10" y="10" width="24" height="12" style="fill:rgb(171,171,171);"/>
                    </g>
                </g>
            </g>
            <g id="g-root-cp_pole_plant_18itbu2209iby-fill" transform="matrix(1,0,0,1,258,547)">
                <g id="cp_pole_plant_18itbu2209iby-fill">
                    <g>
                        <path d="M60.393,29.56C60.393,29.56 57.613,24.53 49.723,27.78C54.516,28.484 57.019,30.471 56.533,35.008L10,35.008C10,35.008 17.976,46.521 54.183,46.521C90.39,46.521 97.76,35.008 97.76,35.008L71.483,35.008C68.788,30.384 74.815,23.86 80.883,26.67C78.883,23.56 72.993,22.89 68.553,26C66.693,20.52 67.443,13.77 70.613,10C59.453,14.7 60.393,29.56 60.393,29.56Z" style="fill:rgb(145,187,57);"/>
                    </g>
                </g>
            </g>
            <g id="g-root-cp_2_sign-2_znssoa209gqo-fill" transform="matrix(1,0,0,1,312,182)">
                <g id="cp_2_sign-2_znssoa209gqo-fill">
                    <g>
                        <path d="M10,10L207,10L207,94L10,94L10,10ZM225,52L207,10L207,94L225,52Z" style="fill:rgb(67,221,147);"/>
                    </g>
                </g>
            </g>
            <g id="g-root-cp_4_sign-4_qs5sfe209hje-fill" transform="matrix(1,0,0,1,312,278)">
                <g id="cp_4_sign-4_qs5sfe209hje-fill">
                    <g>
                        <path d="M10,10L207,10L207,94L10,94L10,10ZM225,52L207,10L207,94L225,52Z" style="fill:rgb(166,218,55);"/>
                    </g>
                </g>
            </g>
            <g id="g-root-cp_6_sign-6_dhbr56209fyk-fill" transform="matrix(1,0,0,1,312,374)">
                <g id="cp_6_sign-6_dhbr56209fyk-fill">
                    <g>
                        <path d="M10,10L183,10L183,94L10,94L10,10ZM201,52L183,10L183,94L201,52Z" style="fill:rgb(255,231,17);"/>
                    </g>
                </g>
            </g>
            <g id="g-root-tx_tailored_1lxe7my20avbc-fill" transform="matrix(1,0,0,1,185,164)">
                <g id="tx_tailored_1lxe7my20avbc-fill">
                    <g>
                        <g>
                            <g transform="matrix(1,0,0,1,32.67,34)">
                                <text x="0px" y="0px" style="font-family:'ArialMT', 'Arial', sans-serif;font-size:20px;fill:rgb(44,44,44);">T<tspan x="10px 21.123px " y="0px 0px ">ai</tspan>lored</text>
                            </g>
                            <g transform="matrix(1,0,0,1,20.63,58)">
                                <text x="0px" y="0px" style="font-family:'ArialMT', 'Arial', sans-serif;font-size:20px;fill:rgb(44,44,44);">Solutions</text>
                            </g>
                        </g>
                    </g>
                </g>
            </g>
            <g id="g-root-tx_futurere_1lt0z6y1zu1om-fill" transform="matrix(1,0,0,1,323,200)">
                <g id="tx_futurere_1lt0z6y1zu1om-fill">
                    <g>
                        <g>
                            <g transform="matrix(1,0,0,1,12,34)">
                                <text x="0px" y="0px" style="font-family:'ArialMT', 'Arial', sans-serif;font-size:20px;fill:rgb(44,44,44);">Future-Ready</text>
                            </g>
                            <g transform="matrix(1,0,0,1,12,58)">
                                <text x="0px" y="0px" style="font-family:'ArialMT', 'Arial', sans-serif;font-size:20px;fill:rgb(44,44,44);">Architecture</text>
                            </g>
                        </g>
                    </g>
                </g>
            </g>
            <g transform="matrix(1,0,0,1,143.2,294)">
                <g id="g-root-tx_reliable_hrizhm20dnuq-fill">
                    <g id="tx_reliable_hrizhm20dnuq-fill">
                        <g>
                            <g>
                                <text x="0px" y="0px" style="font-family:'ArialMT', 'Arial', sans-serif;font-size:20px;fill:rgb(44,44,44);">Reliable Support</text>
                            </g>
                        </g>
                    </g>
                </g>
            </g>
            <g id="g-root-tx_costeffi_mcyuju1zvevc-fill" transform="matrix(1,0,0,1,323,296)">
                <g id="tx_costeffi_mcyuju1zvevc-fill">
                    <g>
                        <g>
                            <g transform="matrix(1,0,0,1,12,34)">
                                <g transform="matrix(20,0,0,20,61.123,0)">
                                </g>
                                <g transform="matrix(20,0,0,20,66.5018,0)">
                                </g>
                                <g transform="matrix(20,0,0,20,71.8805,0)">
                                </g>
                                <text x="0px" y="0px" style="font-family:'ArialMT', 'Arial', sans-serif;font-size:20px;fill:rgb(44,44,44);">Cost-Eﬃcient</text>
                            </g>
                            <g transform="matrix(1,0,0,1,12,58)">
                                <text x="0px" y="0px" style="font-family:'ArialMT', 'Arial', sans-serif;font-size:20px;fill:rgb(44,44,44);">Development</text>
                            </g>
                        </g>
                    </g>
                </g>
            </g>
            <g id="g-root-tx_proventr_m8liy21zslj8-fill" transform="matrix(1,0,0,1,161,332)">
                <g id="tx_proventr_m8liy21zslj8-fill">
                    <g>
                        <g>
                            <g transform="matrix(1,0,0,1,12.28,34)">
                                <text x="0px" y="0px" style="font-family:'ArialMT', 'Arial', sans-serif;font-size:20px;fill:rgb(44,44,44);">Proven <tspan x="68.564px 80.039px 86.699px " y="0px 0px 0px ">Tra</tspan>ck</text>
                            </g>
                            <g transform="matrix(1,0,0,1,65.33,58)">
                                <text x="0px" y="0px" style="font-family:'ArialMT', 'Arial', sans-serif;font-size:20px;fill:rgb(44,44,44);">Record</text>
                            </g>
                        </g>
                    </g>
                </g>
            </g>
            <g id="g-root-tx_fastissu_1hi79re1zwsn6-fill" transform="matrix(1,0,0,1,323,392)">
                <g id="tx_fastissu_1hi79re1zwsn6-fill">
                    <g>
                        <g>
                            <g transform="matrix(1,0,0,1,12,34)">
                                <text x="0px" y="0px" style="font-family:'ArialMT', 'Arial', sans-serif;font-size:20px;fill:rgb(44,44,44);">Fast Issue</text>
                            </g>
                            <g transform="matrix(1,0,0,1,12,58)">
                                <text x="0px" y="0px" style="font-family:'ArialMT', 'Arial', sans-serif;font-size:20px;fill:rgb(44,44,44);">Resolution</text>
                            </g>
                        </g>
                    </g>
                </g>
            </g>
            <g id="g-root-cp_1_sign-1_1hckwtm209iit-stroke" transform="matrix(1,0,0,1,113,146)">
                <g id="cp_1_sign-1_1hckwtm209iit-stroke">
                    <g>
                        <path d="M28,10L189,10M189,94L28,94M28,94L10,52L28,10" style="fill:none;stroke:rgb(44,44,44);stroke-width:2px;"/>
                    </g>
                </g>
            </g>
            <g id="g-root-cp_3_sign-3_qqad62209iiv-stroke" transform="matrix(1,0,0,1,53,242)">
                <g id="cp_3_sign-3_qqad62209iiv-stroke">
                    <g>
                        <path d="M28,10L249,10M249,70L28,70M28,70L10,40L28,10" style="fill:none;stroke:rgb(44,44,44);stroke-width:2px;"/>
                    </g>
                </g>
            </g>
            <g id="g-root-cp_5_sign-5_3ztii209iix-stroke" transform="matrix(1,0,0,1,89,314)">
                <g id="cp_5_sign-5_3ztii209iix-stroke">
                    <g>
                        <path d="M28,10L213,10M213,94L28,94M28,94L10,52L28,10" style="fill:none;stroke:rgb(44,44,44);stroke-width:2px;"/>
                    </g>
                </g>
            </g>
            <g id="g-root-cp_pole_g-pole_1lu9u7e209gqz-stroke" transform="matrix(1,0,0,1,290,122)">
                <g id="cp_pole_g-pole_1lu9u7e209gqz-stroke">
                    <g>
                        <path d="M31,442L31,346M13,459L13,346M31,346L31,22M13,346L13,22" style="fill:none;stroke:rgb(44,44,44);stroke-width:2px;"/>
                    </g>
                </g>
                <g id="cp_pole_g-pole_1lu9u7e209gqz-stroke1" serif:id="cp_pole_g-pole_1lu9u7e209gqz-stroke">
                    <g>
                        <rect x="10" y="10" width="24" height="12" style="fill:none;stroke:rgb(44,44,44);stroke-width:2px;"/>
                    </g>
                </g>
            </g>
            <g id="g-root-cp_pole_plant_18itbu2209iby-stroke" transform="matrix(1,0,0,1,258,547)">
                <g id="cp_pole_plant_18itbu2209iby-stroke">
                    <g>
                        <path d="M56.55,34.88C56.55,34.88 57.3,28.89 49.74,27.78C57.63,24.53 60.41,29.56 60.41,29.56C60.41,29.56 59.47,14.7 70.63,10C67.46,13.77 66.71,20.52 68.57,26C73.01,22.89 78.9,23.56 80.9,26.67C76.68,24.44 69.89,28.468 71,34.918M71,34.918L98,34.918M10,34.918L56.5,34.918" style="fill:none;stroke:rgb(44,44,44);stroke-width:2px;"/>
                    </g>
                </g>
            </g>
            <g id="g-root-cp_2_sign-2_znssoa209gqo-stroke" transform="matrix(1,0,0,1,312,182)">
                <g id="cp_2_sign-2_znssoa209gqo-stroke">
                    <g>
                        <path d="M207,94L10,94M10,10L207,10M207,10L225,52L207,94" style="fill:none;stroke:rgb(44,44,44);stroke-width:2px;"/>
                    </g>
                </g>
            </g>
            <g id="g-root-cp_4_sign-4_qs5sfe209hje-stroke" transform="matrix(1,0,0,1,312,278)">
                <g id="cp_4_sign-4_qs5sfe209hje-stroke">
                    <g>
                        <path d="M207,94L10,94M10,10L207,10M207,10L225,52L207,94" style="fill:none;stroke:rgb(44,44,44);stroke-width:2px;"/>
                    </g>
                </g>
            </g>
            <g id="g-root-cp_6_sign-6_dhbr56209fyk-stroke" transform="matrix(1,0,0,1,312,374)">
                <g id="cp_6_sign-6_dhbr56209fyk-stroke">
                    <g>
                        <path d="M183,94L10,94M10,10L183,10M183,10L201,52L183,94" style="fill:none;stroke:rgb(44,44,44);stroke-width:2px;"/>
                    </g>
                </g>
            </g>
            <g id="g-root-ic_1_qu17oq209gjr-stroke" transform="matrix(1,0,0,1,137,170)">
                <g id="ic_1_qu17oq209gjr-stroke">
                    <g>
                        <path d="M34.315,12.355L40.75,14.5L37,25L38.5,44.5C38.513,44.697 38.442,44.891 38.305,45.033C38.168,45.176 37.978,45.255 37.78,45.25L31.78,45.25C31.314,45.223 30.877,45.013 30.565,44.665L28,41.5L25.465,44.665C25.151,45.01 24.716,45.22 24.25,45.25L18.25,45.25C18.049,45.259 17.853,45.182 17.71,45.04C17.568,44.897 17.491,44.701 17.5,44.5L19,25L15.25,14.5L21.685,12.355M28,32.5L28,41.5M31,10.75C30.505,16.75 30.25,25 28,32.5C25.75,25 25.495,16.75 25,10.75M31,10.75C33.055,10.75 34.855,12.55 35.95,14.635C36.131,14.974 36.028,15.394 35.71,15.61L34,16.75L35.245,18.625C35.379,18.862 35.379,19.153 35.245,19.39C33.22,23.38 32.35,30.325 28,32.5C23.635,30.325 22.78,23.38 20.71,19.39C20.567,19.155 20.567,18.86 20.71,18.625L22,16.75L20.29,15.61C19.972,15.394 19.869,14.974 20.05,14.635C21.13,12.55 22.945,10.75 25,10.75L31,10.75ZM21.25,37.75L23.5,37.75M32.5,37.75L34.75,37.75M15.25,14.5C13.165,23.5 11.305,37.75 10.765,40.87C10.699,41.23 10.902,41.584 11.245,41.71L14.5,42.85C14.695,42.94 14.92,42.94 15.115,42.85C15.308,42.742 15.444,42.556 15.49,42.34L19,25M40.75,14.5C42.835,23.5 44.695,37.75 45.25,40.87C45.316,41.23 45.113,41.584 44.77,41.71L41.5,42.85C41.305,42.94 41.08,42.94 40.885,42.85C40.692,42.742 40.556,42.556 40.51,42.34L37,25" style="fill:none;stroke:rgb(44,44,44);stroke-width:2px;"/>
                    </g>
                </g>
            </g>
            <g id="g-root-ic_2_1414hm21zslc5-stroke" transform="matrix(1,0,0,1,467,206)">
                <g id="ic_2_1414hm21zslc5-stroke">
                    <g>
                        <path d="M45.272,45.182C39.739,43.905 34.076,43.276 28.398,43.307C22.719,43.276 17.056,43.905 11.523,45.182M38.478,23.568L38.478,17.568M30.977,36.318L24.977,36.318C24.149,36.318 23.477,36.989 23.477,37.818L23.477,43.2M42.978,44.522L42.978,29.568C42.978,28.739 42.306,28.068 41.478,28.068L32.478,28.068C31.649,28.068 30.977,28.739 30.977,29.568L30.977,43.126M33.978,23.568L39.978,23.568L39.978,28.068L33.978,28.068L33.978,23.568ZM21.911,28.55C18.185,29.483 14.277,27.947 12.183,24.726C10.088,21.505 10.269,17.311 12.633,14.282C14.996,11.254 19.022,10.059 22.655,11.309C26.287,12.558 28.727,15.976 28.728,19.818C28.742,23.952 25.926,27.561 21.911,28.55M11.931,15.319L14.102,15.319C15.345,15.319 16.353,16.326 16.353,17.569L16.353,18.619C16.353,19.369 16.727,20.069 17.35,20.487L18.787,21.445C19.373,21.834 19.725,22.491 19.725,23.194C19.725,23.897 19.373,24.554 18.787,24.943L14.995,27.475M27.525,15.319L26.474,15.319C25.695,15.32 24.972,15.725 24.563,16.388C24.154,17.051 24.117,17.879 24.466,18.576C25.105,19.857 25.252,19.926 25.65,20.157L28.5,21.864M34.728,31.818L39.228,31.818M34.728,35.568L39.228,35.568M34.728,39.318L39.228,39.318" style="fill:none;stroke:rgb(44,44,44);stroke-width:2px;"/>
                    </g>
                </g>
            </g>
            <g id="g-root-ic_shar_dkg4kq20auip-stroke" transform="matrix(1,0,0,1,77,254)">
                <g id="ic_shar_dkg4kq20auip-stroke">
                    <g>
                        <path d="M15.25,44.5L12.25,40.72C11.283,39.528 10.754,38.04 10.75,36.505L10.75,28.75C10.75,27.507 11.757,26.5 13,26.5C14.243,26.5 15.25,27.507 15.25,28.75L15.25,34.57M22,44.29L22,39.79C22.001,38.459 21.604,37.159 20.86,36.055L19.15,33.49C18.856,32.986 18.366,32.627 17.797,32.499C17.228,32.371 16.631,32.486 16.15,32.815C15.283,33.414 14.995,34.562 15.475,35.5L17.5,38.875M40.75,44.5L43.75,40.72C44.717,39.528 45.246,38.04 45.25,36.505L45.25,28.75C45.25,27.507 44.243,26.5 43,26.5C41.757,26.5 40.75,27.507 40.75,28.75L40.75,34.585M34,44.29L34,39.79C33.999,38.459 34.396,37.159 35.14,36.055L36.85,33.49C37.144,32.986 37.634,32.627 38.203,32.499C38.772,32.371 39.369,32.486 39.85,32.815C40.717,33.414 41.005,34.562 40.525,35.5L38.5,38.875M24.25,15.25C24.25,17.321 25.929,19 28,19C30.071,19 31.75,17.321 31.75,15.25C31.75,13.179 30.071,11.5 28,11.5C25.929,11.5 24.25,13.179 24.25,15.25M22.84,20.41L25.345,17.905M33.16,20.41L30.655,17.905M19,22C19,23.243 20.007,24.25 21.25,24.25C22.493,24.25 23.5,23.243 23.5,22C23.5,20.757 22.493,19.75 21.25,19.75C20.007,19.75 19,20.757 19,22M32.5,22C32.5,23.243 33.507,24.25 34.75,24.25C35.993,24.25 37,23.243 37,22C37,20.757 35.993,19.75 34.75,19.75C33.507,19.75 32.5,20.757 32.5,22" style="fill:none;stroke:rgb(44,44,44);stroke-width:2px;"/>
                    </g>
                </g>
            </g>
            <g id="g-root-ic_appr_909e0a1zu0wf-stroke" transform="matrix(1,0,0,1,467,302)">
                <g id="ic_appr_909e0a1zu0wf-stroke">
                    <g>
                        <path d="M45.25,37.75C45.25,41.892 41.892,45.25 37.75,45.25C33.608,45.25 30.25,41.892 30.25,37.75C30.25,33.608 33.608,30.25 37.75,30.25M34.75,37.75L37.18,39.573C37.499,39.812 37.95,39.759 38.206,39.452L45.25,31M10.756,18.25C10.756,22.392 14.114,25.75 18.256,25.75C22.398,25.75 25.756,22.392 25.756,18.25C25.756,14.108 22.398,10.75 18.256,10.75C14.114,10.75 10.756,14.108 10.756,18.25L10.756,18.25ZM18.256,21.25L18.256,22.75M18.256,13.75L18.256,15.25M15.25,21.25L19.75,21.25C20.578,21.25 21.25,20.578 21.25,19.75C21.25,18.922 20.578,18.25 19.75,18.25L16.75,18.25C15.922,18.25 15.25,17.578 15.25,16.75C15.25,15.922 15.922,15.25 16.75,15.25L21.25,15.25M28,43.75C19.302,43.75 12.25,36.698 12.25,28M28,12.25C36.698,12.25 43.75,19.302 43.75,28" style="fill:none;stroke:rgb(44,44,44);stroke-width:2px;"/>
                    </g>
                </g>
            </g>
            <g id="g-root-ic_chec_13z8z6y20dq17-stroke" transform="matrix(1,0,0,1,113,338)">
                <g id="ic_chec_13z8z6y20dq17-stroke">
                    <g>
                        <path d="M33.736,15.207L26.611,24.206L22.861,20.457M14.669,30.63C12.313,29.758 10.749,27.512 10.75,25L10.75,21.25C10.75,20.422 11.422,19.75 12.25,19.75L15.326,19.75M41.33,30.63C43.687,29.758 45.251,27.512 45.25,25L45.25,21.25C45.25,20.422 44.578,19.75 43.75,19.75L40.673,19.75M41.473,12.288C41.483,11.883 41.33,11.492 41.047,11.203C40.765,10.913 40.377,10.75 39.973,10.75L16.027,10.75C15.623,10.75 15.235,10.913 14.953,11.203C14.67,11.492 14.517,11.883 14.527,12.288C15.048,33.609 26.456,27.517 26.456,35.5C26.374,40.123 24.457,41.838 21.172,42.182C20.369,42.266 19.759,42.943 19.759,43.75C19.759,44.578 20.431,45.25 21.259,45.25L34.741,45.25C35.569,45.25 36.241,44.578 36.241,43.75C36.241,42.943 35.631,42.266 34.828,42.182C31.543,41.838 29.626,40.123 29.544,35.5C29.544,27.517 40.952,33.609 41.473,12.288Z" style="fill:none;stroke:rgb(44,44,44);stroke-width:2px;"/>
                    </g>
                </g>
            </g>
            <g id="g-root-ic_flas_145ht7u1zveo9-stroke" transform="matrix(1,0,0,1,443,398)">
                <g id="ic_flas_145ht7u1zveo9-stroke">
                    <g>
                        <path d="M18.312,35.661C17.94,35.484 17.671,35.675 17.712,36.085L18.72,45.182L28.3,40.948C28.678,40.782 28.695,40.474 28.339,40.267L24.505,38.034L38.155,20.411C38.409,20.084 38.277,19.812 37.864,19.812L31.129,19.812L36.718,11.442C36.946,11.1 36.796,10.818 36.383,10.818L30.383,10.818C29.928,10.843 29.514,11.089 29.272,11.476L21.745,25.161C21.637,25.293 21.623,25.478 21.71,25.625C21.797,25.771 21.966,25.848 22.133,25.818L27.383,25.818L21.415,37.127L18.312,35.661Z" style="fill:none;stroke:rgb(44,44,44);stroke-width:2px;"/>
                    </g>
                </g>
            </g>
        </g>
    </g>
</svg>
