<?xml version="1.0" encoding="UTF-8" standalone="no"?>
<!DOCTYPE svg PUBLIC "-//W3C//DTD SVG 1.1//EN" "http://www.w3.org/Graphics/SVG/1.1/DTD/svg11.dtd">
<svg width="100%" height="100%" viewBox="0 0 702 882" version="1.1" xmlns="http://www.w3.org/2000/svg" xmlns:xlink="http://www.w3.org/1999/xlink" xml:space="preserve" xmlns:serif="http://www.serif.com/" style="fill-rule:evenodd;clip-rule:evenodd;stroke-linecap:round;stroke-linejoin:round;">
    <g id="items" transform="matrix(1.09013,0,0,1.09013,-31.6351,-40.2795)">
        <g id="blend">
            <g id="g-root-cp_5_shape-5_mcbxoa47qrd2-fill" transform="matrix(1,0,0,1,314.303,56)">
                <g id="cp_5_shape-5_mcbxoa47qrd2-fill">
                    <g>
                        <path d="M27.697,292L15.697,292L15.697,160L27.697,160L27.697,292ZM32.297,28.191L27.697,28.191L27.697,160L15.697,160L15.697,28.191L11.017,28.191C10.237,28.191 9.747,27.341 10.137,26.661L20.86,10.448C21.256,9.849 22.136,9.851 22.53,10.451L33.177,26.661C33.577,27.341 33.087,28.191 32.297,28.191Z" style="fill:rgb(203,104,249);"/>
                    </g>
                </g>
            </g>
            <g id="g-root-cp_1_shape-1_1usee6247qtc0-fill" transform="matrix(1,0,0,1,32,55.8164)">
                <g id="cp_1_shape-1_1usee6247qtc0-fill">
                    <g>
                        <path d="M214,328.184L46,328.183C26.118,328.183 10,312.081 10,292.199L10,292.184L250,292.184C250,312.066 233.882,328.184 214,328.184ZM254.6,28.375L250,28.375L250,160.184L10,160.184C10,140.302 26.118,124.505 46,124.505L172,124.505C213.07,124.505 238,94.374 238,55.034L238,28.374L233.32,28.374C232.54,28.374 232.05,27.524 232.44,26.844L243.163,10.632C243.559,10.033 244.439,10.034 244.833,10.635L255.48,26.844C255.88,27.525 255.39,28.375 254.6,28.375ZM250,160.184L250,292.184L10,292.184L10,160.184L250,160.184Z" style="fill:rgb(251,103,98);"/>
                    </g>
                </g>
            </g>
            <g id="g-root-cp_3_shape-3_1lymt6i47qt4y-fill" transform="matrix(1,0,0,1,284.303,56)">
                <g id="cp_3_shape-3_1lymt6i47qt4y-fill">
                    <g>
                        <path d="M27.697,292L15.697,292L15.697,160L27.697,160L27.697,292ZM32.297,28.191L27.697,28.191L27.697,160L15.697,160L15.697,28.191L11.017,28.191C10.237,28.191 9.747,27.341 10.137,26.661L20.86,10.448C21.256,9.849 22.136,9.851 22.53,10.451L33.177,26.661C33.577,27.341 33.087,28.191 32.297,28.191Z" style="fill:rgb(255,231,17);"/>
                    </g>
                </g>
            </g>
            <g id="g-root-cp_3_shape-3_1_4g24hm47s7pg-fill" transform="matrix(1,0,0,1,32,338)">
                <g id="cp_3_shape-3_1_4g24hm47s7pg-fill">
                    <g>
                        <path d="M214,64.321C244,64.321 268,46 268,10L280,10L280,100.306L10,100.306C10,80.423 26.118,64.321 46,64.321L214,64.321Z" style="fill:rgb(255,231,17);"/>
                    </g>
                </g>
            </g>
            <g id="g-root-cp_5_shape-5_1_zk1liy47s5xi-fill" transform="matrix(1,0,0,1,320,338)">
                <g id="cp_5_shape-5_1_zk1liy47s5xi-fill">
                    <g>
                        <rect x="10" y="10" width="12" height="222" style="fill:rgb(203,104,249);"/>
                    </g>
                </g>
            </g>
            <g id="g-root-cp_3_shape-3_2_4hxjqy47s6ps-fill" transform="matrix(1,0,0,1,32,428)">
                <g id="cp_3_shape-3_2_4hxjqy47s6ps-fill">
                    <g>
                        <path d="M280,10L280,141.979L10,141.979L10,10L280,10ZM244,178.008L46,178.008C26.118,178.008 10,161.905 10,142.023L10,142.008L280,142.008C280,161.89 263.882,178.008 244,178.008Z" style="fill:rgb(255,231,17);"/>
                    </g>
                </g>
            </g>
            <g id="g-root-cp_5_shape-5_2_1cwr22i47s6iq-fill" transform="matrix(1,0,0,1,32,560)">
                <g id="cp_5_shape-5_2_1cwr22i47s6iq-fill">
                    <g>
                        <path d="M244,64.137C274,64.137 298,45.878 298,10L310,10L310,100L10,100C10,80.185 26.118,64.137 46,64.137L244,64.137Z" style="fill:rgb(203,104,249);"/>
                    </g>
                </g>
            </g>
            <g id="g-root-cp_5_shape-5_3_magiey47s6is-fill" transform="matrix(1,0,0,1,32,650)">
                <g id="cp_5_shape-5_3_magiey47s6is-fill">
                    <g>
                        <path d="M310,10L310,118L10,118L10,10L310,10ZM274,154.008L46,154.008C26.118,154.008 10,137.882 10,118L310,118C310,137.882 293.882,154.008 274,154.008Z" style="fill:rgb(203,104,249);"/>
                    </g>
                </g>
            </g>
            <g id="g-root-cp_2_shape-2_1upa0qi47s6bq-fill" transform="matrix(1,0,0,1,404.378,55.8164)">
                <g id="cp_2_shape-2_1upa0qi47s6bq-fill">
                    <g>
                        <path d="M51.622,328.184L219.622,328.184C239.504,328.184 255.622,312.081 255.622,292.199L255.622,292.184L15.622,292.184C15.622,312.066 31.74,328.184 51.622,328.184ZM11.022,28.375L15.622,28.375L15.622,160.184L255.622,160.184C255.622,140.302 239.505,124.505 219.623,124.505L93.622,124.505C52.552,124.505 27.622,94.374 27.622,55.034L27.622,28.374L32.302,28.374C33.082,28.374 33.572,27.524 33.182,26.844L22.459,10.632C22.063,10.033 21.184,10.034 20.79,10.635L10.142,26.844C9.742,27.525 10.232,28.375 11.022,28.375ZM15.622,160.184L15.622,292.184L255.622,292.184L255.622,160.184L15.622,160.184Z" style="fill:rgb(67,221,147);"/>
                    </g>
                </g>
            </g>
            <g id="g-root-cp_4_shape-4_142zh2y47s6bs-fill" transform="matrix(1,0,0,1,374.383,56)">
                <g id="cp_4_shape-4_142zh2y47s6bs-fill">
                    <g>
                        <path d="M15.623,292L27.623,292L27.623,160L15.623,160L15.623,292ZM11.022,28.191L15.622,28.191L15.622,160L27.622,160L27.622,28.191L32.302,28.191C33.082,28.191 33.572,27.341 33.182,26.661L22.459,10.448C22.063,9.849 21.184,9.851 20.79,10.451L10.142,26.661C9.742,27.341 10.232,28.191 11.022,28.191Z" style="fill:rgb(247,148,56);"/>
                    </g>
                </g>
            </g>
            <g id="g-root-cp_6_shape-6_mcbxoa47s5j6-fill" transform="matrix(1,0,0,1,344.383,56)">
                <g id="cp_6_shape-6_mcbxoa47s5j6-fill">
                    <g>
                        <path d="M15.623,292L27.623,292L27.623,160L15.623,160L15.623,292ZM11.022,28.191L15.622,28.191L15.622,160L27.622,160L27.622,28.191L32.302,28.191C33.082,28.191 33.572,27.341 33.182,26.661L22.459,10.448C22.063,9.849 21.184,9.851 20.79,10.451L10.142,26.661C9.742,27.341 10.232,28.191 11.022,28.191Z" style="fill:rgb(26,195,251);"/>
                    </g>
                </g>
            </g>
            <g id="g-root-cp_4_shape-4_1_58f2247s7ws-fill" transform="matrix(1,0,0,1,380,338)">
                <g id="cp_4_shape-4_1_58f2247s7ws-fill">
                    <g>
                        <path d="M76,64.321C46,64.321 22,46 22,10L10,10L10,100.306L280,100.306C280,80.423 263.882,64.321 244,64.321L76,64.321Z" style="fill:rgb(247,148,56);"/>
                    </g>
                </g>
            </g>
            <g id="g-root-cp_4_shape-4_2_1lvifqy47s64u-fill" transform="matrix(1,0,0,1,380,428)">
                <g id="cp_4_shape-4_2_1lvifqy47s64u-fill">
                    <g>
                        <path d="M10,10L10,142L280,142L280,10L10,10ZM46,178L244,178C263.882,178 280,161.898 280,142.016L280,142L10,142C10,161.882 26.118,178 46,178Z" style="fill:rgb(247,148,56);"/>
                    </g>
                </g>
            </g>
            <g id="g-root-cp_6_shape-6_1_1hfoxmi47s6x4-fill" transform="matrix(1,0,0,1,350,338)">
                <g id="cp_6_shape-6_1_1hfoxmi47s6x4-fill">
                    <g>
                        <rect x="10" y="10" width="12" height="222" style="fill:rgb(26,195,251);"/>
                    </g>
                </g>
            </g>
            <g id="g-root-cp_6_shape-6_2_zp1e7u47s64i-fill" transform="matrix(1,0,0,1,350,560)">
                <g id="cp_6_shape-6_2_zp1e7u47s64i-fill">
                    <g>
                        <path d="M76,64.321C46,64.321 22,46 22,10L10,10L10,100.306L310,100.306C310,80.423 293.882,64.321 274,64.321L76,64.321Z" style="fill:rgb(26,195,251);"/>
                    </g>
                </g>
            </g>
            <g id="g-root-cp_6_shape-6_3_mdkvui47s7pg-fill" transform="matrix(1,0,0,1,350,650)">
                <g id="cp_6_shape-6_3_mdkvui47s7pg-fill">
                    <g>
                        <path d="M10,10L10,142L310,142L310,10L10,10ZM46,178L274,178C293.882,178 310,161.898 310,142.016L310,142L10,142C10,161.882 26.118,178 46,178Z" style="fill:rgb(26,195,251);"/>
                    </g>
                </g>
            </g>
            <g id="g-root-tx_securehe_4njwoq47wdmy-fill" transform="matrix(1,0,0,1,440,290)">
                <g id="tx_securehe_4njwoq47wdmy-fill">
                    <g>
                        <g>
                            <g transform="matrix(1,0,0,1,38.29,31.2)">
                                <text x="0px" y="0px" style="font-family:'ArialMT', 'Arial', sans-serif;font-size:15px;fill:rgb(44,44,44);">Secure healthcare</text>
                            </g>
                            <g transform="matrix(1,0,0,1,15.96,49.2)">
                                <text x="0px" y="0px" style="font-family:'ArialMT', 'Arial', sans-serif;font-size:15px;fill:rgb(44,44,44);">communication systems</text>
                            </g>
                            <g transform="matrix(1,0,0,1,45.43,67.2)">
                                <text x="0px" y="0px" style="font-family:'ArialMT', 'Arial', sans-serif;font-size:15px;fill:rgb(44,44,44);">for patient care.</text>
                            </g>
                        </g>
                    </g>
                </g>
            </g>
            <g id="g-root-tx_efficien_1uu9tfe47s6io-fill" transform="matrix(1,0,0,1,68,290)">
                <g id="tx_efficien_1uu9tfe47s6io-fill">
                    <g>
                        <g>
                            <g transform="matrix(1,0,0,1,28.78,31.2)">
                                <g transform="matrix(15,0,0,15,10.0049,0)">
                                </g>
                                <g transform="matrix(15,0,0,15,14.0389,0)">
                                </g>
                                <g transform="matrix(15,0,0,15,18.073,0)">
                                </g>
                                <text x="0px" y="0px" style="font-family:'ArialMT', 'Arial', sans-serif;font-size:15px;fill:rgb(44,44,44);">Eﬃcient call center</text>
                            </g>
                            <g transform="matrix(1,0,0,1,15.72,49.2)">
                                <text x="0px" y="0px" style="font-family:'ArialMT', 'Arial', sans-serif;font-size:15px;fill:rgb(44,44,44);">solutions for enhanced</text>
                            </g>
                            <g transform="matrix(1,0,0,1,32.82,67.2)">
                                <text x="0px" y="0px" style="font-family:'ArialMT', 'Arial', sans-serif;font-size:15px;fill:rgb(44,44,44);">customer service.</text>
                            </g>
                        </g>
                    </g>
                </g>
            </g>
            <g id="g-root-tx_comprehe_8x4ny2483fgg-fill" transform="matrix(1,0,0,1,398,734)">
                <g id="tx_comprehe_8x4ny2483fgg-fill">
                    <g>
                        <g>
                            <g transform="matrix(1,0,0,1,22.88,31.2)">
                                <text x="0px" y="0px" style="font-family:'ArialMT', 'Arial', sans-serif;font-size:15px;fill:rgb(44,44,44);">Comprehensive enterprise</text>
                            </g>
                            <g transform="matrix(1,0,0,1,14.94,49.2)">
                                <text x="0px" y="0px" style="font-family:'ArialMT', 'Arial', sans-serif;font-size:15px;fill:rgb(44,44,44);">communication for business</text>
                            </g>
                            <g transform="matrix(1,0,0,1,76.84,67.2)">
                                <g transform="matrix(15,0,0,15,8.34229,0)">
                                </g>
                                <g transform="matrix(15,0,0,15,12.3763,0)">
                                </g>
                                <g transform="matrix(15,0,0,15,16.4104,0)">
                                </g>
                                <text x="0px" y="0px" style="font-family:'ArialMT', 'Arial', sans-serif;font-size:15px;fill:rgb(44,44,44);">eﬃciency<tspan x="61.04px " y="0px ">.</tspan></text>
                            </g>
                        </g>
                    </g>
                </g>
            </g>
            <g transform="matrix(1,0,0,1,491.03,288)">
                <g id="g-root-tx_healthca_8zmkai47wfm1-fill">
                    <g id="tx_healthca_8zmkai47wfm1-fill">
                        <g>
                            <g>
                                <text x="0px" y="0px" style="font-family:'Arial-BoldMT', 'Arial', sans-serif;font-weight:700;font-size:20px;fill:rgb(44,44,44);">Healthcare</text>
                            </g>
                        </g>
                    </g>
                </g>
            </g>
            <g transform="matrix(1,0,0,1,93.48,510)">
                <g id="g-root-tx_financeb_zoex4q47v022-fill">
                    <g id="tx_financeb_zoex4q47v022-fill">
                        <g>
                            <g>
                                <text x="0px" y="0px" style="font-family:'Arial-BoldMT', 'Arial', sans-serif;font-weight:700;font-size:20px;fill:rgb(44,44,44);">Finance &amp; Banking</text>
                            </g>
                        </g>
                    </g>
                </g>
            </g>
            <g transform="matrix(1,0,0,1,428.97,510)">
                <g id="g-root-tx_retailec_1lxdy6247z6kk-fill">
                    <g id="tx_retailec_1lxdy6247z6kk-fill">
                        <g>
                            <g>
                                <text x="0px" y="0px" style="font-family:'Arial-BoldMT', 'Arial', sans-serif;font-weight:700;font-size:20px;fill:rgb(44,44,44);">Retail &amp; E-Commerce</text>
                            </g>
                        </g>
                    </g>
                </g>
            </g>
            <g id="g-root-tx_robustfi_metu0q47v0n7-fill" transform="matrix(1,0,0,1,71,512)">
                <g id="tx_robustfi_metu0q47v0n7-fill">
                    <g>
                        <g>
                            <g transform="matrix(1,0,0,1,50.52,31.2)">
                                <g transform="matrix(15,0,0,15,51.6943,0)">
                                </g>
                                <g transform="matrix(15,0,0,15,55.8618,0)">
                                </g>
                                <text x="0px" y="0px" style="font-family:'ArialMT', 'Arial', sans-serif;font-size:15px;fill:rgb(44,44,44);">Robust ﬁnancial</text>
                            </g>
                            <g transform="matrix(1,0,0,1,16.49,49.2)">
                                <text x="0px" y="0px" style="font-family:'ArialMT', 'Arial', sans-serif;font-size:15px;fill:rgb(44,44,44);">communication for secure</text>
                            </g>
                            <g transform="matrix(1,0,0,1,60.64,67.2)">
                                <text x="0px" y="0px" style="font-family:'ArialMT', 'Arial', sans-serif;font-size:15px;fill:rgb(44,44,44);">transactions.</text>
                            </g>
                        </g>
                    </g>
                </g>
            </g>
            <g id="g-root-tx_scalable_8vvpru480mit-fill" transform="matrix(1,0,0,1,407,512)">
                <g id="tx_scalable_8vvpru480mit-fill">
                    <g>
                        <g>
                            <g transform="matrix(1,0,0,1,16.06,31.2)">
                                <text x="0px" y="0px" style="font-family:'ArialMT', 'Arial', sans-serif;font-size:15px;fill:rgb(44,44,44);">Scalable retail communication</text>
                            </g>
                            <g transform="matrix(1,0,0,1,40.06,49.2)">
                                <text x="0px" y="0px" style="font-family:'ArialMT', 'Arial', sans-serif;font-size:15px;fill:rgb(44,44,44);">for seamless customer</text>
                            </g>
                            <g transform="matrix(1,0,0,1,75.61,67.2)">
                                <text x="0px" y="0px" style="font-family:'ArialMT', 'Arial', sans-serif;font-size:15px;fill:rgb(44,44,44);">interactions.</text>
                            </g>
                        </g>
                    </g>
                </g>
            </g>
            <g transform="matrix(1,0,0,1,107.2,288)">
                <g id="g-root-tx_callcent_vb3bcq47s55b-fill">
                    <g id="tx_callcent_vb3bcq47s55b-fill">
                        <g>
                            <g>
                                <text x="0px" y="0px" style="font-family:'Arial-BoldMT', 'Arial', sans-serif;font-weight:700;font-size:20px;fill:rgb(44,44,44);">Call Centers</text>
                            </g>
                        </g>
                    </g>
                </g>
            </g>
            <g transform="matrix(1,0,0,1,104.21,732)">
                <g id="g-root-tx_travelho_140hkqi47z66l-fill">
                    <g id="tx_travelho_140hkqi47z66l-fill">
                        <g>
                            <g>
                                <text x="0px" y="0px" style="font-family:'Arial-BoldMT', 'Arial', sans-serif;font-weight:700;font-size:20px;fill:rgb(44,44,44);">T<tspan x="11.113px 18.896px " y="0px 0px ">ra</tspan>vel &amp; Hospitality</text>
                            </g>
                        </g>
                    </g>
                </g>
            </g>
            <g transform="matrix(1,0,0,1,458.72,732)">
                <g id="g-root-tx_enterpri_1d2zw3e4820av-fill">
                    <g id="tx_enterpri_1d2zw3e4820av-fill">
                        <g>
                            <g>
                                <text x="0px" y="0px" style="font-family:'Arial-BoldMT', 'Arial', sans-serif;font-weight:700;font-size:20px;fill:rgb(44,44,44);">Enterprises</text>
                            </g>
                        </g>
                    </g>
                </g>
            </g>
            <g id="g-root-tx_reliable_v6pzqy47z5zi-fill" transform="matrix(1,0,0,1,62,734)">
                <g id="tx_reliable_v6pzqy47z5zi-fill">
                    <g>
                        <g>
                            <g transform="matrix(1,0,0,1,16.4,28.2)">
                                <text x="0px" y="0px" style="font-family:'ArialMT', 'Arial', sans-serif;font-size:15px;fill:rgb(44,44,44);">Reliable travel communication for</text>
                            </g>
                            <g transform="matrix(1,0,0,1,31.07,46.2)">
                                <text x="0px" y="0px" style="font-family:'ArialMT', 'Arial', sans-serif;font-size:15px;fill:rgb(44,44,44);">enhanced guest experiences.</text>
                            </g>
                        </g>
                    </g>
                </g>
            </g>
            <g id="g-root-cp_5_shape-5_mcbxoa47qrd2-stroke" transform="matrix(1,0,0,1,314.303,56)">
                <g id="cp_5_shape-5_mcbxoa47qrd2-stroke">
                    <g>
                        <path d="M15.697,160L15.697,292M27.697,292L27.697,160M15.697,160L15.697,28.191L11.017,28.191C10.237,28.191 9.747,27.341 10.137,26.661L20.86,10.448C21.256,9.849 22.136,9.851 22.53,10.451L33.177,26.661C33.577,27.341 33.087,28.191 32.297,28.191L27.697,28.191L27.697,160" style="fill:none;stroke:rgb(44,44,44);stroke-width:2px;"/>
                    </g>
                </g>
            </g>
            <g id="g-root-cp_1_shape-1_1usee6247qtc0-stroke" transform="matrix(1,0,0,1,32,55.8164)">
                <g id="cp_1_shape-1_1usee6247qtc0-stroke">
                    <g>
                        <path d="M10,160.184C10,140.301 26.118,124.321 46,124.321L172,124.321C213.07,124.321 238,94.191 238,54.851L238,28.191L233.32,28.191C232.54,28.191 232.05,27.341 232.44,26.661L243.163,10.448C243.559,9.849 244.439,9.851 244.833,10.451L255.48,26.661C255.88,27.341 255.39,28.191 254.6,28.191L250,28.191L250,160.184M250,292.184C250,312.066 233.882,328.191 214,328.191L46,328.191C26.118,328.191 10,312.081 10,292.199L10,292.184M250,292.184L250,160.184M10,160.184L10,292.184" style="fill:none;stroke:rgb(44,44,44);stroke-width:2px;"/>
                    </g>
                </g>
            </g>
            <g id="g-root-cp_3_shape-3_1lymt6i47qt4y-stroke" transform="matrix(1,0,0,1,284.303,56)">
                <g id="cp_3_shape-3_1lymt6i47qt4y-stroke">
                    <g>
                        <path d="M15.697,160L15.697,292M27.697,292L27.697,160M15.697,160L15.697,28.191L11.017,28.191C10.237,28.191 9.747,27.341 10.137,26.661L20.86,10.448C21.256,9.849 22.136,9.851 22.53,10.451L33.177,26.661C33.577,27.341 33.087,28.191 32.297,28.191L27.697,28.191L27.697,160" style="fill:none;stroke:rgb(44,44,44);stroke-width:2px;"/>
                    </g>
                </g>
            </g>
            <g id="g-root-cp_3_shape-3_1_4g24hm47s7pg-stroke" transform="matrix(1,0,0,1,32,338)">
                <g id="cp_3_shape-3_1_4g24hm47s7pg-stroke">
                    <g>
                        <path d="M268,10C268,46 244,64.321 214,64.321L46,64.321C26.118,64.321 10,80.423 10,100.306M280,100.306L280,10" style="fill:none;stroke:rgb(44,44,44);stroke-width:2px;"/>
                    </g>
                </g>
            </g>
            <g id="g-root-cp_5_shape-5_1_zk1liy47s5xi-stroke" transform="matrix(1,0,0,1,320,338)">
                <g id="cp_5_shape-5_1_zk1liy47s5xi-stroke">
                    <g>
                        <path d="M10,10L10,232M22,232L22,10" style="fill:none;stroke:rgb(44,44,44);stroke-width:2px;"/>
                    </g>
                </g>
            </g>
            <g id="g-root-cp_3_shape-3_2_4hxjqy47s6ps-stroke" transform="matrix(1,0,0,1,32,428)">
                <g id="cp_3_shape-3_2_4hxjqy47s6ps-stroke">
                    <g>
                        <path d="M280,141.979L280,10M10,10L10,142M280,142.008C280,161.89 263.882,178.008 244,178.008L46,178.008C26.118,178.008 10,161.905 10,142.023L10,142.008" style="fill:none;stroke:rgb(44,44,44);stroke-width:2px;"/>
                    </g>
                </g>
            </g>
            <g id="g-root-cp_5_shape-5_2_1cwr22i47s6iq-stroke" transform="matrix(1,0,0,1,32,560)">
                <g id="cp_5_shape-5_2_1cwr22i47s6iq-stroke">
                    <g>
                        <path d="M298,10C298,45.878 274,64.137 244,64.137L46,64.137C26.118,64.137 10,80.185 10,100M310,100L310,10" style="fill:none;stroke:rgb(44,44,44);stroke-width:2px;"/>
                    </g>
                </g>
            </g>
            <g id="g-root-cp_5_shape-5_3_magiey47s6is-stroke" transform="matrix(1,0,0,1,32,650)">
                <g id="cp_5_shape-5_3_magiey47s6is-stroke">
                    <g>
                        <path d="M310,118L310,10M10,10L10,118M310,118C310,137.882 293.882,154.008 274,154.008L46,154.008C26.118,154.008 10,137.882 10,118" style="fill:none;stroke:rgb(44,44,44);stroke-width:2px;"/>
                    </g>
                </g>
            </g>
            <g id="g-root-cp_2_shape-2_1upa0qi47s6bq-stroke" transform="matrix(1,0,0,1,404.378,55.8164)">
                <g id="cp_2_shape-2_1upa0qi47s6bq-stroke">
                    <g>
                        <path d="M255.622,160.184C255.622,140.301 239.505,124.321 219.623,124.321L93.622,124.321C52.552,124.321 27.622,94.191 27.622,54.851L27.622,28.191L32.302,28.191C33.082,28.191 33.572,27.341 33.182,26.661L22.459,10.448C22.063,9.849 21.184,9.851 20.79,10.451L10.142,26.661C9.742,27.341 10.232,28.191 11.022,28.191L15.622,28.191L15.622,160.184M15.622,292.184C15.622,312.066 31.74,328.184 51.622,328.184L219.623,328.183C239.505,328.183 255.622,312.081 255.622,292.199L255.622,292.184M15.622,292.184L15.622,160.184M255.622,160.184L255.622,292.184" style="fill:none;stroke:rgb(44,44,44);stroke-width:2px;"/>
                    </g>
                </g>
            </g>
            <g id="g-root-cp_4_shape-4_142zh2y47s6bs-stroke" transform="matrix(1,0,0,1,374.383,56)">
                <g id="cp_4_shape-4_142zh2y47s6bs-stroke">
                    <g>
                        <path d="M27.622,160L27.622,292M15.622,292L15.622,160M27.622,160L27.622,28.191L32.302,28.191C33.082,28.191 33.572,27.341 33.182,26.661L22.459,10.448C22.063,9.849 21.184,9.851 20.79,10.451L10.142,26.661C9.742,27.341 10.232,28.191 11.022,28.191L15.622,28.191L15.622,160" style="fill:none;stroke:rgb(44,44,44);stroke-width:2px;"/>
                    </g>
                </g>
            </g>
            <g id="g-root-cp_6_shape-6_mcbxoa47s5j6-stroke" transform="matrix(1,0,0,1,344.383,56)">
                <g id="cp_6_shape-6_mcbxoa47s5j6-stroke">
                    <g>
                        <path d="M27.622,160L27.622,292M15.622,292L15.622,160M27.622,160L27.622,28.191L32.302,28.191C33.082,28.191 33.572,27.341 33.182,26.661L22.459,10.448C22.063,9.849 21.184,9.851 20.79,10.451L10.142,26.661C9.742,27.341 10.232,28.191 11.022,28.191L15.622,28.191L15.622,160" style="fill:none;stroke:rgb(44,44,44);stroke-width:2px;"/>
                    </g>
                </g>
            </g>
            <g id="g-root-cp_4_shape-4_1_58f2247s7ws-stroke" transform="matrix(1,0,0,1,380,338)">
                <g id="cp_4_shape-4_1_58f2247s7ws-stroke">
                    <g>
                        <path d="M22,10C22,46 46,64.321 76,64.321L244,64.321C263.882,64.321 280,80.423 280,100.306M10,100.306L10,10" style="fill:none;stroke:rgb(44,44,44);stroke-width:2px;"/>
                    </g>
                </g>
            </g>
            <g id="g-root-cp_4_shape-4_2_1lvifqy47s64u-stroke" transform="matrix(1,0,0,1,380,428)">
                <g id="cp_4_shape-4_2_1lvifqy47s64u-stroke">
                    <g>
                        <path d="M10,142L10,10M280,10L280,142M10,142C10,161.882 26.118,178.008 46,178.008L244,178.008C263.882,178.008 280,161.898 280,142.016L280,142" style="fill:none;stroke:rgb(44,44,44);stroke-width:2px;"/>
                    </g>
                </g>
            </g>
            <g id="g-root-cp_6_shape-6_1_1hfoxmi47s6x4-stroke" transform="matrix(1,0,0,1,350,338)">
                <g id="cp_6_shape-6_1_1hfoxmi47s6x4-stroke">
                    <g>
                        <path d="M22,10L22,232M10,232L10,10" style="fill:none;stroke:rgb(44,44,44);stroke-width:2px;"/>
                    </g>
                </g>
            </g>
            <g id="g-root-cp_6_shape-6_2_zp1e7u47s64i-stroke" transform="matrix(1,0,0,1,350,560)">
                <g id="cp_6_shape-6_2_zp1e7u47s64i-stroke">
                    <g>
                        <path d="M22,10C22,46 46,64.321 76,64.321L274,64.321C293.882,64.321 310,80.423 310,100.306M10,100.306L10,10" style="fill:none;stroke:rgb(44,44,44);stroke-width:2px;"/>
                    </g>
                </g>
            </g>
            <g id="g-root-cp_6_shape-6_3_mdkvui47s7pg-stroke" transform="matrix(1,0,0,1,350,650)">
                <g id="cp_6_shape-6_3_mdkvui47s7pg-stroke">
                    <g>
                        <path d="M10,142L10,10M310,10L310,142M10,142C10,161.882 26.118,178.008 46,178.008L274,178.008C293.882,178.008 310,161.898 310,142.016L310,142" style="fill:none;stroke:rgb(44,44,44);stroke-width:2px;"/>
                    </g>
                </g>
            </g>
            <g id="g-root-ic_cart_zlamuy480mxa-stroke" transform="matrix(1,0,0,1,491,416)">
                <g id="ic_cart_zlamuy480mxa-stroke">
                    <g>
                        <path d="M11,41C11,34.373 16.373,29 23,29C29.627,29 35,34.373 35,41L11,41ZM15.5,18.5C15.5,22.642 18.858,26 23,26C27.142,26 30.5,22.642 30.5,18.5C30.5,14.358 27.142,11 23,11C18.858,11 15.5,14.358 15.5,18.5M34.5,18.5C34.5,22.642 37.858,26 42,26C46.142,26 49.5,22.642 49.5,18.5C49.5,14.358 46.142,11 42,11C37.858,11 34.5,14.358 34.5,18.5M52.38,34.98C49.062,29.252 41.734,27.293 36,30.6M49,55C49,56.105 49.895,57 51,57C52.105,57 53,56.105 53,55C53,53.895 52.105,53 51,53C49.895,53 49,53.895 49,55M40,55C40,56.105 40.895,57 42,57C43.105,57 44,56.105 44,55C44,53.895 43.105,53 42,53C40.895,53 40,53.895 40,55M57,34L52.22,48.32C52.084,48.724 51.706,48.997 51.28,49L42,49C41.553,49.007 41.158,48.711 41.04,48.28L38.64,41.28C38.552,40.978 38.611,40.652 38.8,40.4C38.989,40.148 39.285,40 39.6,40L55,40" style="fill:none;stroke:rgb(44,44,44);stroke-width:2px;"/>
                    </g>
                </g>
            </g>
            <g id="g-root-ic_doct_dcboze47xrt7-stroke" transform="matrix(1,0,0,1,506,194)">
                <g id="ic_doct_dcboze47xrt7-stroke">
                    <g>
                        <path d="M43.8,19.15C46.2,16.75 50,16.75 52.2,19.15M39.5,14.95C44.1,10.35 51.7,10.35 56.5,14.95M48,25.15C47.558,25.15 47.2,24.792 47.2,24.35C47.2,23.908 47.558,23.55 48,23.55M48,25.15C48.442,25.15 48.8,24.792 48.8,24.35C48.8,23.908 48.442,23.55 48,23.55M16.9,51.5L22.9,51.5M19.9,48.5L19.9,54.5M38.3,25.092C36.486,25.697 34.671,26.1 32.655,26.1C27.414,26.1 22.575,23.681 19.35,19.851M28.1,35.3C33.733,35.3 38.3,30.733 38.3,25.1C38.3,19.467 33.733,14.9 28.1,14.9C22.467,14.9 17.9,19.467 17.9,25.1C17.9,30.733 22.467,35.3 28.1,35.3ZM28.1,39.9L28.1,56.1M11.5,56.5C11.5,47.3 18.9,39.9 28.1,39.9C37.3,39.9 44.7,47.3 44.7,56.5" style="fill:none;stroke:rgb(44,44,44);stroke-width:2px;"/>
                    </g>
                </g>
            </g>
            <g id="g-root-ic_head_qwirei47s83l-stroke" transform="matrix(1,0,0,1,128,194)">
                <g id="ic_head_qwirei47s83l-stroke">
                    <g>
                        <path d="M51.906,35.044C51.031,39.444 48.293,43.25 44.4,45.48L44.4,57M24.4,57L24.4,50.046C20.4,50.068 18.364,49.78 16.962,48.376C15.162,46.576 15.336,39 15.336,39C15.336,39 13.63,39.064 12.336,39.012C11.884,38.99 11.467,38.765 11.2,38.4C11.018,38.007 10.949,37.57 11,37.14C10.756,33.926 15.278,28.414 15.278,26.812C15.278,16.75 24.78,11 33.4,11C42.789,10.897 50.807,17.752 52.166,27.042M30.082,31.042C30.082,34.615 32.979,37.512 36.552,37.512C40.125,37.512 43.022,34.615 43.022,31.042C43.022,27.469 40.125,24.572 36.552,24.572C32.979,24.572 30.082,27.469 30.082,31.042M33.822,36.908L31.702,40.2C30.966,41.344 29.699,42.036 28.338,42.036L26.522,42.036M41.634,27.042L55.022,27.042C56.127,27.042 57.022,27.937 57.022,29.042L57.022,33.042C57.022,34.147 56.127,35.042 55.022,35.042L41.634,35.042M22.022,42.042C22.022,43.285 23.029,44.292 24.272,44.292C25.515,44.292 26.522,43.285 26.522,42.042C26.522,40.799 25.515,39.792 24.272,39.792C23.029,39.792 22.022,40.799 22.022,42.042M43.022,31.042L52.172,31.042" style="fill:none;stroke:rgb(44,44,44);stroke-width:2px;"/>
                    </g>
                </g>
            </g>
            <g id="g-root-ic_bell_mcbxoa47z8y7-stroke" transform="matrix(1,0,0,1,158,638)">
                <g id="ic_bell_mcbxoa47z8y7-stroke">
                    <g>
                        <path d="M33,39L33,38C33,32.477 28.523,28 23,28C17.477,28 13,32.477 13,38L13,39M30,17C30.023,17.333 30.023,17.667 30,18C30,21.866 26.866,25 23,25C19.134,25 16,21.866 16,18C16,17.724 15.97,17.266 16,17M12,39L56,39C56,39 57,39 57,40L57,56C57,56 57,57 56,57L12,57C12,57 11,57 11,56L11,40C11,40 11,39 12,39M41,39C41,35.686 43.686,33 47,33C50.314,33 53,35.686 53,39L41,39ZM30,17C25.429,15.666 20.571,15.666 16,17L16,13C16,11.895 16.895,11 18,11L28,11C29.105,11 30,11.895 30,13L30,17ZM23.5,31.5C23.5,31.776 23.276,32 23,32C22.724,32 22.5,31.776 22.5,31.5C22.5,31.224 22.724,31 23,31C23.276,31 23.5,31.224 23.5,31.5M23.5,36C23.5,36.276 23.276,36.5 23,36.5C22.724,36.5 22.5,36.276 22.5,36C22.5,35.724 22.724,35.5 23,35.5C23.276,35.5 23.5,35.724 23.5,36M45,29L49,29M47,29L47,33M31,53L31,45M39,53L39,45M31,49L39,49" style="fill:none;stroke:rgb(44,44,44);stroke-width:2px;"/>
                    </g>
                </g>
            </g>
            <g id="g-root-ic_1_1lt0mka483gn5-stroke" transform="matrix(1,0,0,1,476,638)">
                <g id="ic_1_1lt0mka483gn5-stroke">
                    <g>
                        <path d="M16.722,38.896C16.722,41.378 18.734,43.39 21.216,43.39C23.698,43.39 25.71,41.378 25.71,38.896C25.71,36.414 23.698,34.402 21.216,34.402C18.734,34.402 16.722,36.414 16.722,38.896M28.618,50.838C27.505,47.744 24.584,45.669 21.295,45.636C18.007,45.603 15.045,47.619 13.87,50.69M41.862,38.896C41.862,41.378 43.874,43.39 46.356,43.39C48.838,43.39 50.85,41.378 50.85,38.896C50.85,36.414 48.838,34.402 46.356,34.402C43.874,34.402 41.862,36.414 41.862,38.896M53.458,50.12C52.251,47.642 49.853,45.96 47.112,45.668C46.405,45.612 45.694,45.647 44.996,45.772M12,54.622L56,54.622M47.848,54.622L34.876,54.622L33.148,46.838C33.083,46.542 33.155,46.232 33.345,45.996C33.534,45.76 33.821,45.622 34.124,45.622L44.244,45.622C45.181,45.622 45.993,46.273 46.196,47.188L47.848,54.622ZM33,13.378L33,21.378M29,27.378L30,21.378L36,21.378L37,27.378L29,27.378ZM39.388,50.122C39.388,50.536 39.724,50.872 40.138,50.872C40.552,50.872 40.888,50.536 40.888,50.122C40.888,49.708 40.552,49.372 40.138,49.372C39.724,49.372 39.388,49.708 39.388,50.122M43.15,35.75C45.124,37.888 47.944,39.04 50.85,38.896M24.422,35.75C22.448,37.888 19.628,39.04 16.722,38.896" style="fill:none;stroke:rgb(44,44,44);stroke-width:2px;"/>
                    </g>
                </g>
            </g>
            <g id="g-root-ic_card_vbpsfu47v18s-stroke" transform="matrix(1,0,0,1,143,416)">
                <g id="ic_card_vbpsfu47v18s-stroke">
                    <g>
                        <path d="M33,45L57,45M45,51L51,51M35,39L55,39C55,39 57,39 57,41L57,55C57,55 57,57 55,57L35,57C35,57 33,57 33,55L33,41C33,41 33,39 35,39M35.2,28.2C34.083,26.363 33.527,24.24 33.6,22.092L33.6,19.6C33.6,14.85 29.75,11 25,11C20.25,11 16.4,14.85 16.4,19.6L16.4,22.092C16.473,24.24 15.917,26.363 14.8,28.2M16.4,21.012C19.702,21.01 22.841,19.573 25,17.074C27.159,19.574 30.297,21.011 33.6,21.012M32.574,20.968C32.377,25.007 29.045,28.181 25.001,28.181C20.957,28.181 17.625,25.007 17.428,20.968M27,45L11,45C10.999,39.998 13.667,35.375 17.998,32.873C22.33,30.371 27.668,30.371 32,32.872" style="fill:none;stroke:rgb(44,44,44);stroke-width:2px;"/>
                    </g>
                </g>
            </g>
        </g>
    </g>
</svg>
