<?xml version="1.0" encoding="UTF-8" standalone="no"?>
<!DOCTYPE svg PUBLIC "-//W3C//DTD SVG 1.1//EN" "http://www.w3.org/Graphics/SVG/1.1/DTD/svg11.dtd">
<svg width="100%" height="100%" viewBox="0 0 576 724" version="1.1" xmlns="http://www.w3.org/2000/svg" xmlns:xlink="http://www.w3.org/1999/xlink" xml:space="preserve" xmlns:serif="http://www.serif.com/" style="fill-rule:evenodd;clip-rule:evenodd;stroke-linecap:round;stroke-linejoin:round;">
    <g id="items" transform="matrix(1.10327,0,0,1.10327,-30.7421,-63.4823)">
        <g id="blend">
            <g id="g-root-cp_5_text-5_1qegnwq3xu0p8-fill" transform="matrix(1,0,0,1,50,110)">
                <g id="cp_5_text-5_1qegnwq3xu0p8-fill">
                    <g>
                        <rect x="10" y="10" width="228" height="144" style="fill:rgb(247,148,56);"/>
                    </g>
                </g>
            </g>
            <g id="g-root-cp_5_stick-5_1d3mmmi3xtz4e-fill" transform="matrix(1,0,0,1,266,254)">
                <g id="cp_5_stick-5_1d3mmmi3xtz4e-fill">
                    <g>
                        <rect x="10" y="10" width="12" height="336" style="fill:rgb(247,148,56);"/>
                    </g>
                </g>
            </g>
            <g id="g-root-cp_3_text-3_147zmdm3xu0ow-fill" transform="matrix(1,0,0,1,38,254)">
                <g id="cp_3_text-3_147zmdm3xu0ow-fill">
                    <g>
                        <rect x="10" y="10" width="228" height="120" style="fill:rgb(26,195,251);"/>
                    </g>
                </g>
            </g>
            <g id="g-root-cp_3_stick-3_qn5zpm3xvdoi-fill" transform="matrix(1,0,0,1,254,374)">
                <g id="cp_3_stick-3_qn5zpm3xvdoi-fill">
                    <g>
                        <rect x="10" y="10" width="12" height="216" style="fill:rgb(26,195,251);"/>
                    </g>
                </g>
            </g>
            <g id="g-root-cp_1_text-1_dbphca3xvf9g-fill" transform="matrix(1,0,0,1,26,374)">
                <g id="cp_1_text-1_dbphca3xvf9g-fill">
                    <g>
                        <rect x="10" y="10" width="228" height="180" style="fill:rgb(67,221,147);"/>
                    </g>
                </g>
            </g>
            <g id="g-root-cp_1_stick-1_vg223xvdom-fill" transform="matrix(1,0,0,1,242,458)">
                <g id="cp_1_stick-1_vg223xvdom-fill">
                    <g>
                        <rect x="10" y="10" width="12" height="132" style="fill:rgb(67,221,147);"/>
                    </g>
                </g>
            </g>
            <g id="g-root-cp_6_text-6_1um5zwq3xve9s-fill" transform="matrix(1,0,0,1,278,98)">
                <g id="cp_6_text-6_1um5zwq3xve9s-fill">
                    <g>
                        <rect x="10" y="10" width="228" height="156" style="fill:rgb(251,103,98);"/>
                    </g>
                </g>
            </g>
            <g id="g-root-cp_6_stick-6_1haphje3xvfuq-fill" transform="matrix(1,0,0,1,278,254)">
                <g id="cp_6_stick-6_1haphje3xvfuq-fill">
                    <g>
                        <rect x="10" y="10" width="12" height="336" style="fill:rgb(251,103,98);"/>
                    </g>
                </g>
            </g>
            <g id="g-root-cp_4_text-4_13zvg963xve9w-fill" transform="matrix(1,0,0,1,290,254)">
                <g id="cp_4_text-4_13zvg963xve9w-fill">
                    <g>
                        <rect x="10" y="10" width="228" height="144" style="fill:rgb(255,231,17);"/>
                    </g>
                </g>
            </g>
            <g id="g-root-cp_4_stick-4_hteeq23xvdhq-fill" transform="matrix(1,0,0,1,290,398)">
                <g id="cp_4_stick-4_hteeq23xvdhq-fill">
                    <g>
                        <rect x="10" y="10" width="12" height="192" style="fill:rgb(255,231,17);"/>
                    </g>
                </g>
            </g>
            <g id="g-root-cp_2_text-2_ddkwlm3xvea0-fill" transform="matrix(1,0,0,1,302,398)">
                <g id="cp_2_text-2_ddkwlm3xvea0-fill">
                    <g>
                        <rect x="10" y="10" width="228" height="144" style="fill:rgb(166,218,55);"/>
                    </g>
                </g>
            </g>
            <g id="g-root-cp_2_stick-2_24e8a3xvfuy-fill" transform="matrix(1,0,0,1,302,482)">
                <g id="cp_2_stick-2_24e8a3xvfuy-fill">
                    <g>
                        <rect x="10" y="10" width="12" height="108" style="fill:rgb(166,218,55);"/>
                    </g>
                </g>
            </g>
            <g id="g-root-cp_0_g-0_1lseex63xve30-fill" transform="matrix(1,0,0,1,242,590)">
                <g id="cp_0_g-0_1lseex63xve30-fill">
                    <g>
                        <path d="M33.994,61L46.01,86L58.005,61L33.994,61Z" style="fill:rgb(232,232,232);"/>
                    </g>
                </g>
                <g id="cp_0_g-0_1lseex63xve30-fill1" serif:id="cp_0_g-0_1lseex63xve30-fill">
                    <g>
                        <path d="M82,10L10,10L34,61L58.001,61L82,10Z" style="fill:rgb(232,232,232);"/>
                    </g>
                </g>
            </g>
            <g transform="matrix(1,0,0,1,62.98,300)">
                <g id="g-root-tx_fastdepl_djtngq3xwt8u-fill">
                    <g id="tx_fastdepl_djtngq3xwt8u-fill">
                        <g>
                            <g>
                                <text x="0px" y="0px" style="font-family:'Arial-BoldMT', 'Arial', sans-serif;font-weight:700;font-size:20px;fill:rgb(44,44,44);">Fast Deployment</text>
                            </g>
                        </g>
                    </g>
                </g>
            </g>
            <g id="g-root-tx_247techs_1hegf7u3y6nep-fill" transform="matrix(1,0,0,1,350,266)">
                <g id="tx_247techs_1hegf7u3y6nep-fill">
                    <g>
                        <g>
                            <g transform="matrix(1,0,0,1,12,34)">
                                <text x="0px" y="0px" style="font-family:'Arial-BoldMT', 'Arial', sans-serif;font-weight:700;font-size:20px;fill:rgb(44,44,44);">24/7 T<tspan x="55.215px 66.338px " y="0px 0px ">ec</tspan>h</text>
                            </g>
                            <g transform="matrix(1,0,0,1,12,58)">
                                <text x="0px" y="0px" style="font-family:'Arial-BoldMT', 'Arial', sans-serif;font-weight:700;font-size:20px;fill:rgb(44,44,44);">Support</text>
                            </g>
                        </g>
                    </g>
                </g>
            </g>
            <g id="g-root-tx_rapiddep_vccm4q3xwt1r-fill" transform="matrix(1,0,0,1,50,302)">
                <g id="tx_rapiddep_vccm4q3xwt1r-fill">
                    <g>
                        <g>
                            <g transform="matrix(1,0,0,1,21.45,31.2)">
                                <text x="0px" y="0px" style="font-family:'ArialMT', 'Arial', sans-serif;font-size:15px;fill:rgb(44,44,44);">Rapid deployment for</text>
                            </g>
                            <g transform="matrix(1,0,0,1,78.2,49.2)">
                                <text x="0px" y="0px" style="font-family:'ArialMT', 'Arial', sans-serif;font-size:15px;fill:rgb(44,44,44);">quick project</text>
                            </g>
                            <g transform="matrix(1,0,0,1,55.4,67.2)">
                                <text x="0px" y="0px" style="font-family:'ArialMT', 'Arial', sans-serif;font-size:15px;fill:rgb(44,44,44);">implementation.</text>
                            </g>
                        </g>
                    </g>
                </g>
            </g>
            <g id="g-root-tx_roundthe_v9usy23y6lmq-fill" transform="matrix(1,0,0,1,350,326)">
                <g id="tx_roundthe_v9usy23y6lmq-fill">
                    <g>
                        <g>
                            <g transform="matrix(1,0,0,1,12,31.2)">
                                <text x="0px" y="0px" style="font-family:'ArialMT', 'Arial', sans-serif;font-size:15px;fill:rgb(44,44,44);">Round-the-clock</text>
                            </g>
                            <g transform="matrix(1,0,0,1,12,49.2)">
                                <text x="0px" y="0px" style="font-family:'ArialMT', 'Arial', sans-serif;font-size:15px;fill:rgb(44,44,44);">support for</text>
                            </g>
                            <g transform="matrix(1,0,0,1,12,67.2)">
                                <text x="0px" y="0px" style="font-family:'ArialMT', 'Arial', sans-serif;font-size:15px;fill:rgb(44,44,44);">uninterrupted service.</text>
                            </g>
                        </g>
                    </g>
                </g>
            </g>
            <g id="g-root-tx_complete_1cz9b0q3y11j7-fill" transform="matrix(1,0,0,1,338,170)">
                <g id="tx_complete_1cz9b0q3y11j7-fill">
                    <g>
                        <g>
                            <g transform="matrix(1,0,0,1,12,28.2)">
                                <text x="0px" y="0px" style="font-family:'ArialMT', 'Arial', sans-serif;font-size:15px;fill:rgb(44,44,44);">Complete</text>
                            </g>
                            <g transform="matrix(1,0,0,1,12,46.2)">
                                <text x="0px" y="0px" style="font-family:'ArialMT', 'Arial', sans-serif;font-size:15px;fill:rgb(44,44,44);">management for</text>
                            </g>
                            <g transform="matrix(1,0,0,1,12,64.2)">
                                <text x="0px" y="0px" style="font-family:'ArialMT', 'Arial', sans-serif;font-size:15px;fill:rgb(44,44,44);">hassle-free</text>
                            </g>
                            <g transform="matrix(1,0,0,1,12,82.2)">
                                <text x="0px" y="0px" style="font-family:'ArialMT', 'Arial', sans-serif;font-size:15px;fill:rgb(44,44,44);">operations.</text>
                            </g>
                        </g>
                    </g>
                </g>
            </g>
            <g id="g-root-tx_freeswit_1lwrqiy3xy877-fill" transform="matrix(1,0,0,1,74,386)">
                <g id="tx_freeswit_1lwrqiy3xy877-fill">
                    <g>
                        <g>
                            <g transform="matrix(1,0,0,1,13.85,34)">
                                <text x="0px" y="0px" style="font-family:'Arial-BoldMT', 'Arial', sans-serif;font-weight:700;font-size:20px;fill:rgb(44,44,44);">FreeSWITCH</text>
                            </g>
                            <g transform="matrix(1,0,0,1,49.97,58)">
                                <g transform="matrix(20,0,0,20,45.5664,0)">
                                </g>
                                <g transform="matrix(20,0,0,20,52.2266,0)">
                                </g>
                                <text x="0px" y="0px" style="font-family:'Arial-BoldMT', 'Arial', sans-serif;font-weight:700;font-size:20px;fill:rgb(44,44,44);">Certiﬁed</text>
                            </g>
                            <g transform="matrix(1,0,0,1,27.32,82)">
                                <text x="0px" y="0px" style="font-family:'Arial-BoldMT', 'Arial', sans-serif;font-weight:700;font-size:20px;fill:rgb(44,44,44);">Developers</text>
                            </g>
                        </g>
                    </g>
                </g>
            </g>
            <g id="g-root-tx_extensiv_18itbt63xveo9-fill" transform="matrix(1,0,0,1,98,182)">
                <g id="tx_extensiv_18itbt63xveo9-fill">
                    <g>
                        <g>
                            <g transform="matrix(1,0,0,1,19.82,31.2)">
                                <text x="0px" y="0px" style="font-family:'ArialMT', 'Arial', sans-serif;font-size:15px;fill:rgb(44,44,44);">Extensive global</text>
                            </g>
                            <g transform="matrix(1,0,0,1,15.87,49.2)">
                                <text x="0px" y="0px" style="font-family:'ArialMT', 'Arial', sans-serif;font-size:15px;fill:rgb(44,44,44);">expertise in V<tspan x="90.051px 98.394px " y="0px 0px ">oI</tspan>P</text>
                            </g>
                            <g transform="matrix(1,0,0,1,51.32,67.2)">
                                <text x="0px" y="0px" style="font-family:'ArialMT', 'Arial', sans-serif;font-size:15px;fill:rgb(44,44,44);">technology<tspan x="71.44px " y="0px ">.</tspan></text>
                            </g>
                        </g>
                    </g>
                </g>
            </g>
            <g id="g-root-tx_fullyman_v6qccq3y11qa-fill" transform="matrix(1,0,0,1,338,110)">
                <g id="tx_fullyman_v6qccq3y11qa-fill">
                    <g>
                        <g>
                            <g transform="matrix(1,0,0,1,12,34)">
                                <text x="0px" y="0px" style="font-family:'Arial-BoldMT', 'Arial', sans-serif;font-weight:700;font-size:20px;fill:rgb(44,44,44);">Fully Managed</text>
                            </g>
                            <g transform="matrix(1,0,0,1,12,58)">
                                <text x="0px" y="0px" style="font-family:'Arial-BoldMT', 'Arial', sans-serif;font-weight:700;font-size:20px;fill:rgb(44,44,44);">Services</text>
                            </g>
                        </g>
                    </g>
                </g>
            </g>
            <g id="g-root-tx_custommo_74d8q3xpqth-fill" transform="matrix(1,0,0,1,362,410)">
                <g id="tx_custommo_74d8q3xpqth-fill">
                    <g>
                        <g>
                            <g transform="matrix(1,0,0,1,12,34)">
                                <text x="0px" y="0px" style="font-family:'Arial-BoldMT', 'Arial', sans-serif;font-weight:700;font-size:20px;fill:rgb(44,44,44);">Custom</text>
                            </g>
                            <g transform="matrix(1,0,0,1,12,58)">
                                <text x="0px" y="0px" style="font-family:'Arial-BoldMT', 'Arial', sans-serif;font-weight:700;font-size:20px;fill:rgb(44,44,44);">Modules &amp; <tspan x="105.928px 120.371px " y="0px 0px ">AP</tspan>Is</text>
                            </g>
                        </g>
                    </g>
                </g>
            </g>
            <g id="g-root-tx_certifie_4o6n7u3xy879-fill" transform="matrix(1,0,0,1,62,470)">
                <g id="tx_certifie_4o6n7u3xy879-fill">
                    <g>
                        <g>
                            <g transform="matrix(1,0,0,1,29.98,28.2)">
                                <g transform="matrix(15,0,0,15,31.6699,0)">
                                </g>
                                <g transform="matrix(15,0,0,15,35.8374,0)">
                                </g>
                                <text x="0px" y="0px" style="font-family:'ArialMT', 'Arial', sans-serif;font-size:15px;fill:rgb(44,44,44);">Certiﬁed experts</text>
                            </g>
                            <g transform="matrix(1,0,0,1,20.98,46.2)">
                                <text x="0px" y="0px" style="font-family:'ArialMT', 'Arial', sans-serif;font-size:15px;fill:rgb(44,44,44);">ensure top-quality</text>
                            </g>
                            <g transform="matrix(1,0,0,1,55.77,64.2)">
                                <text x="0px" y="0px" style="font-family:'ArialMT', 'Arial', sans-serif;font-size:15px;fill:rgb(44,44,44);">FreeSWITCH</text>
                            </g>
                            <g transform="matrix(1,0,0,1,49.7,82.2)">
                                <text x="0px" y="0px" style="font-family:'ArialMT', 'Arial', sans-serif;font-size:15px;fill:rgb(44,44,44);">development.</text>
                            </g>
                        </g>
                    </g>
                </g>
            </g>
            <g id="g-root-tx_globalvo_8zmtqi3xve2o-fill" transform="matrix(1,0,0,1,98,122)">
                <g id="tx_globalvo_8zmtqi3xve2o-fill">
                    <g>
                        <g>
                            <g transform="matrix(1,0,0,1,22.93,34)">
                                <text x="0px" y="0px" style="font-family:'Arial-BoldMT', 'Arial', sans-serif;font-weight:700;font-size:20px;fill:rgb(44,44,44);">Global V<tspan x="79.639px 91.855px " y="0px 0px ">oI</tspan>P</text>
                            </g>
                            <g transform="matrix(1,0,0,1,43.57,58)">
                                <text x="0px" y="0px" style="font-family:'Arial-BoldMT', 'Arial', sans-serif;font-weight:700;font-size:20px;fill:rgb(44,44,44);">Expertise</text>
                            </g>
                        </g>
                    </g>
                </g>
            </g>
            <g id="g-root-tx_tailored_zqavbe3xprf2-fill" transform="matrix(1,0,0,1,362,470)">
                <g id="tx_tailored_zqavbe3xprf2-fill">
                    <g>
                        <g>
                            <g transform="matrix(1,0,0,1,12,31.2)">
                                <text x="0px" y="0px" style="font-family:'ArialMT', 'Arial', sans-serif;font-size:15px;fill:rgb(44,44,44);">T<tspan x="7.5px 15.842px " y="0px 0px ">ai</tspan>lored modules and</text>
                            </g>
                            <g transform="matrix(1,0,0,1,12,49.2)">
                                <text x="0px" y="0px" style="font-family:'ArialMT', 'Arial', sans-serif;font-size:15px;fill:rgb(44,44,44);">APIs for unique</text>
                            </g>
                            <g transform="matrix(1,0,0,1,12,67.2)">
                                <text x="0px" y="0px" style="font-family:'ArialMT', 'Arial', sans-serif;font-size:15px;fill:rgb(44,44,44);">solutions.</text>
                            </g>
                        </g>
                    </g>
                </g>
            </g>
            <g id="g-root-cp_5_text-5_1qegnwq3xu0p8-stroke" transform="matrix(1,0,0,1,50,110)">
                <g id="cp_5_text-5_1qegnwq3xu0p8-stroke">
                    <g>
                        <path d="M10,154L10,10L238,10L238,154" style="fill:none;stroke:rgb(44,44,44);stroke-width:2px;"/>
                    </g>
                </g>
            </g>
            <g id="g-root-cp_5_stick-5_1d3mmmi3xtz4e-stroke" transform="matrix(1,0,0,1,266,254)">
                <g id="cp_5_stick-5_1d3mmmi3xtz4e-stroke">
                    <g>
                        <path d="M21.996,346L21.996,10" style="fill:none;stroke:rgb(44,44,44);stroke-width:2px;"/>
                    </g>
                </g>
            </g>
            <g id="g-root-cp_3_text-3_147zmdm3xu0ow-stroke" transform="matrix(1,0,0,1,38,254)">
                <g id="cp_3_text-3_147zmdm3xu0ow-stroke">
                    <g>
                        <path d="M10,130L10,10L238,10L238,130" style="fill:none;stroke:rgb(44,44,44);stroke-width:2px;"/>
                    </g>
                </g>
            </g>
            <g id="g-root-cp_3_stick-3_qn5zpm3xvdoi-stroke" transform="matrix(1,0,0,1,254,374)">
                <g id="cp_3_stick-3_qn5zpm3xvdoi-stroke">
                    <g>
                        <path d="M21.996,226L21.996,10" style="fill:none;stroke:rgb(44,44,44);stroke-width:2px;"/>
                    </g>
                </g>
            </g>
            <g id="g-root-cp_1_text-1_dbphca3xvf9g-stroke" transform="matrix(1,0,0,1,26,374)">
                <g id="cp_1_text-1_dbphca3xvf9g-stroke">
                    <g>
                        <path d="M238,190L238,10L10,10L10,190L226,190" style="fill:none;stroke:rgb(44,44,44);stroke-width:2px;"/>
                    </g>
                </g>
            </g>
            <g id="g-root-cp_1_stick-1_vg223xvdom-stroke" transform="matrix(1,0,0,1,242,458)">
                <g id="cp_1_stick-1_vg223xvdom-stroke">
                    <g>
                        <path d="M21.996,142L21.996,10M10,142L10,106" style="fill:none;stroke:rgb(44,44,44);stroke-width:2px;"/>
                    </g>
                </g>
            </g>
            <g id="g-root-cp_6_text-6_1um5zwq3xve9s-stroke" transform="matrix(1,0,0,1,278,98)">
                <g id="cp_6_text-6_1um5zwq3xve9s-stroke">
                    <g>
                        <path d="M238,166L238,10L10,10L10,166" style="fill:none;stroke:rgb(44,44,44);stroke-width:2px;"/>
                    </g>
                </g>
            </g>
            <g id="g-root-cp_6_stick-6_1haphje3xvfuq-stroke" transform="matrix(1,0,0,1,278,254)">
                <g id="cp_6_stick-6_1haphje3xvfuq-stroke">
                    <g>
                        <path d="M10.004,346L10.004,10" style="fill:none;stroke:rgb(44,44,44);stroke-width:2px;"/>
                    </g>
                </g>
            </g>
            <g id="g-root-cp_4_text-4_13zvg963xve9w-stroke" transform="matrix(1,0,0,1,290,254)">
                <g id="cp_4_text-4_13zvg963xve9w-stroke">
                    <g>
                        <path d="M238,154L238,10L10,10L10,154" style="fill:none;stroke:rgb(44,44,44);stroke-width:2px;"/>
                    </g>
                </g>
            </g>
            <g id="g-root-cp_4_stick-4_hteeq23xvdhq-stroke" transform="matrix(1,0,0,1,290,398)">
                <g id="cp_4_stick-4_hteeq23xvdhq-stroke">
                    <g>
                        <path d="M10.004,202L10.004,10" style="fill:none;stroke:rgb(44,44,44);stroke-width:2px;"/>
                    </g>
                </g>
            </g>
            <g id="g-root-cp_2_text-2_ddkwlm3xvea0-stroke" transform="matrix(1,0,0,1,302,398)">
                <g id="cp_2_text-2_ddkwlm3xvea0-stroke">
                    <g>
                        <path d="M10,154L10,10L238,10L238,154L22,154" style="fill:none;stroke:rgb(44,44,44);stroke-width:2px;"/>
                    </g>
                </g>
            </g>
            <g id="g-root-cp_2_stick-2_24e8a3xvfuy-stroke" transform="matrix(1,0,0,1,302,482)">
                <g id="cp_2_stick-2_24e8a3xvfuy-stroke">
                    <g>
                        <path d="M10.004,118L10.004,10M22,118L22,70" style="fill:none;stroke:rgb(44,44,44);stroke-width:2px;"/>
                    </g>
                </g>
            </g>
            <g id="g-root-cp_0_g-0_1lseex63xve30-stroke" transform="matrix(1,0,0,1,242,590)">
                <g id="cp_0_g-0_1lseex63xve30-stroke">
                    <g>
                        <path d="M33.994,61L46.01,86L58.005,61L33.994,61Z" style="fill:none;stroke:rgb(44,44,44);stroke-width:2px;"/>
                    </g>
                </g>
                <g id="cp_0_g-0_1lseex63xve30-stroke1" serif:id="cp_0_g-0_1lseex63xve30-stroke">
                    <g>
                        <path d="M82,10L10,10L34,61L58.001,61L82,10Z" style="fill:none;stroke:rgb(44,44,44);stroke-width:2px;"/>
                    </g>
                </g>
            </g>
            <g id="g-root-ic_box_8yyy3xy8eg-stroke" transform="matrix(1,0,0,1,218,266)">
                <g id="ic_box_8yyy3xy8eg-stroke">
                    <g>
                        <path d="M11.5,37.191L28,41.691M28,41.691L44.5,37.191M11.5,37.191L19.74,35.032M11.5,44.032L11.5,37.378M44.5,37.378L44.5,44.032M28,44.782L28,41.691M33.25,19.093C33.25,21.993 32.376,29.593 28,29.593C23.625,29.593 22.75,22 22.75,19.093C22.75,13.843 28,11.218 28,11.218C28,11.218 33.25,13.843 33.25,19.093ZM25.941,18.906C25.94,20.043 26.862,20.965 28,20.965C29.138,20.965 30.06,20.043 30.06,18.906C30.06,17.768 29.138,16.846 28,16.846C26.862,16.846 25.94,17.768 25.941,18.906M24.525,28.242L23.313,28.849C22.627,29.213 21.999,29.676 21.449,30.223C21.18,30.512 20.764,30.611 20.394,30.474C20.024,30.337 19.772,29.992 19.754,29.598C19.49,27.289 20.782,25.083 22.924,24.183M31.476,28.242L32.688,28.849C33.373,29.213 34.001,29.676 34.55,30.223C34.82,30.512 35.236,30.611 35.606,30.474C35.976,30.337 36.228,29.992 36.245,29.598C36.51,27.289 35.218,25.083 33.076,24.183M44.5,37.191L36.26,35.032M30.1,34.01C30.1,35.17 29.16,37.975 28,37.975C26.84,37.975 25.9,35.17 25.9,34.01C25.9,32.851 26.84,31.911 28,31.911C29.16,31.911 30.1,32.851 30.1,34.01Z" style="fill:none;stroke:rgb(44,44,44);stroke-width:2px;"/>
                    </g>
                </g>
            </g>
            <g id="g-root-ic_24_1ut1b0q3y6m8b-stroke" transform="matrix(1,0,0,1,302,266)">
                <g id="ic_24_1ut1b0q3y6m8b-stroke">
                    <g>
                        <path d="M28.418,43.688C29.699,44.512 31.223,44.874 32.738,44.712C34.252,44.55 35.666,43.875 36.744,42.798L37.682,41.86C38.099,41.439 38.332,40.87 38.332,40.278C38.332,39.686 38.099,39.118 37.682,38.697L33.729,34.769C33.313,34.354 32.749,34.121 32.161,34.121C31.573,34.121 31.009,34.354 30.592,34.769C30.171,35.186 29.603,35.419 29.011,35.419C28.419,35.419 27.851,35.186 27.43,34.769L21.13,28.469C20.713,28.048 20.48,27.48 20.48,26.888C20.48,26.296 20.713,25.728 21.13,25.307C21.545,24.89 21.778,24.326 21.778,23.738C21.778,23.15 21.545,22.586 21.13,22.17L17.325,18.217C16.904,17.8 16.336,17.567 15.744,17.567C15.152,17.567 14.584,17.8 14.163,18.217L13.224,19.156C12.128,20.218 11.43,21.624 11.246,23.139C11.061,24.654 11.402,26.187 12.211,27.481C16.519,33.877 22.022,39.38 28.418,43.688ZM43.323,18.982L36.74,18.982C36.376,18.982 36.082,18.687 36.082,18.324C36.082,18.164 36.14,18.01 36.244,17.891L42.231,11.048C42.35,10.913 42.52,10.836 42.7,10.836C43.044,10.836 43.323,11.115 43.323,11.458L43.323,18.982ZM43.323,18.982L45.133,18.982M43.323,18.982L43.323,21.697M33.54,21.697L26.299,21.697L26.299,20.154C26.299,19.075 26.937,18.099 27.926,17.666L31.955,15.904C32.917,15.482 33.54,14.531 33.54,13.481C33.54,12.02 32.355,10.836 30.895,10.836L29.014,10.836C27.832,10.836 26.826,11.591 26.453,12.646" style="fill:none;stroke:rgb(44,44,44);stroke-width:2px;"/>
                    </g>
                </g>
            </g>
            <g id="g-root-ic_hono_zs64963xy6fa-stroke" transform="matrix(1,0,0,1,206,386)">
                <g id="ic_hono_zs64963xy6fa-stroke">
                    <g>
                        <path d="M42.025,20.275L42.025,13.225C42.025,12.025 41.125,11.125 39.925,11.125L13.225,11.125C12.025,11.125 11.125,12.025 11.125,13.225L11.125,33.775C11.125,34.975 12.025,35.875 13.225,35.875L30.625,35.875M23.125,35.875L22.075,42.025M29.275,42.025L20.425,42.025M25.558,18.925C24.658,20.125 24.508,22.375 25.558,23.275C26.608,24.175 28.408,25.075 29.908,23.275C31.558,21.175 32.308,18.025 30.208,15.175C30.058,18.325 27.808,16.075 25.558,18.925ZM24.859,21.977C23.359,21.977 18.208,28.375 18.208,28.375M27.297,24.227C27.297,27.227 21.208,31.825 21.208,31.825M42.891,36.438L43.941,44.083C44.091,44.983 43.041,45.583 42.291,44.983L39.741,42.433L37.191,44.983C36.591,45.583 35.391,44.983 35.541,44.083L36.591,36.438M39.742,37.483C36.843,37.483 34.492,35.132 34.492,32.233C34.492,29.333 36.843,26.983 39.742,26.983C42.642,26.983 44.992,29.333 44.992,32.233C44.992,35.132 42.642,37.483 39.742,37.483ZM39.742,34.161C38.677,34.161 37.814,33.298 37.814,32.233C37.814,31.168 38.677,30.304 39.742,30.304C40.807,30.304 41.671,31.168 41.671,32.233C41.671,33.298 40.807,34.161 39.742,34.161Z" style="fill:none;stroke:rgb(44,44,44);stroke-width:2px;"/>
                    </g>
                </g>
            </g>
            <g id="g-root-ic_team_6hpu23y10r0-stroke" transform="matrix(1,0,0,1,290,110)">
                <g id="ic_team_6hpu23y10r0-stroke">
                    <g>
                        <path d="M35.125,17.125C35.125,18.989 36.636,20.5 38.5,20.5C40.364,20.5 41.875,18.989 41.875,17.125C41.875,15.261 40.364,13.75 38.5,13.75C36.636,13.75 35.125,15.261 35.125,17.125M45.25,27.25C44.722,25.182 43.274,23.471 41.322,22.608C39.37,21.745 37.13,21.825 35.245,22.825M14.125,17.125C14.125,18.989 15.636,20.5 17.5,20.5C19.364,20.5 20.875,18.989 20.875,17.125C20.875,15.261 19.364,13.75 17.5,13.75C15.636,13.75 14.125,15.261 14.125,17.125M10.75,27.25C11.278,25.182 12.726,23.471 14.678,22.608C16.63,21.745 18.87,21.825 20.755,22.825M28.75,41.5C28.75,42.743 29.757,43.75 31,43.75C32.243,43.75 33.25,42.743 33.25,41.5C33.25,40.257 32.243,39.25 31,39.25C29.757,39.25 28.75,40.257 28.75,41.5M18.25,43C18.25,44.243 19.257,45.25 20.5,45.25C21.743,45.25 22.75,44.243 22.75,43C22.75,41.757 21.743,40.75 20.5,40.75C19.257,40.75 18.25,41.757 18.25,43M22.75,43L22.75,34.375C22.724,33.682 23.177,33.062 23.845,32.875L31.345,30.73C31.807,30.6 32.302,30.699 32.679,30.995C33.056,31.292 33.268,31.751 33.25,32.23L33.25,41.5M36.25,31C36.25,26.444 32.556,22.75 28,22.75C23.444,22.75 19.75,26.444 19.75,31M23.71,13.15C25.226,14.724 27.315,15.616 29.5,15.625C30.599,15.625 31.686,15.401 32.695,14.965M23.035,15.625C23.035,18.317 25.218,20.5 27.91,20.5C30.602,20.5 32.785,18.317 32.785,15.625C32.785,12.933 30.602,10.75 27.91,10.75C25.218,10.75 23.035,12.933 23.035,15.625" style="fill:none;stroke:rgb(44,44,44);stroke-width:2px;"/>
                    </g>
                </g>
            </g>
            <g id="g-root-ic_2_1utnv9m3xpssv-stroke" transform="matrix(1,0,0,1,314,410)">
                <g id="ic_2_1utnv9m3xpssv-stroke">
                    <g>
                        <path d="M10.75,33.616L10.75,45.25M30.25,45.25L30.25,33.616M29.8,32.776C30.063,32.979 30.226,33.285 30.25,33.616C30.25,35.167 25.885,36.424 20.5,36.424C15.115,36.424 10.75,35.167 10.75,33.616C10.75,33.166 11.124,32.734 11.788,32.355M30.25,38.692C30.25,40.243 25.869,41.5 20.464,41.5C15.463,41.5 11.338,40.423 10.75,39.034M19.384,18.246L18.729,13.635L15.371,11.422L12.763,14.482L13.606,20.41L14.787,21.586L13.98,23.046L15.396,33.006M27.037,33.571L27.037,29.161L26.034,27.829L27.037,26.498L27.037,20.511L24.025,17.849L21.011,20.511L21.011,26.498L22.016,27.829L21.011,29.161L21.011,33.915M26.086,12.318C26.086,11.451 26.789,10.749 27.655,10.75L43.682,10.75C44.548,10.75 45.25,11.452 45.25,12.318L45.25,32.89C45.25,33.756 44.548,34.457 43.682,34.457L35.668,34.458M31.375,15.105L37.651,15.105M31.375,19.093L41.026,19.093M31.375,23.081L41.026,23.081M31.375,27.07L41.026,27.07" style="fill:none;stroke:rgb(44,44,44);stroke-width:2px;"/>
                    </g>
                </g>
            </g>
            <g id="g-root-ic_netw_4loqve3xvd3e-stroke" transform="matrix(1,0,0,1,230,122)">
                <g id="ic_netw_4loqve3xvd3e-stroke">
                    <g>
                        <path d="M10.804,27.997C10.804,37.524 18.527,45.247 28.054,45.247C37.581,45.247 45.304,37.524 45.304,27.997C45.304,18.47 37.581,10.747 28.054,10.747C18.527,10.747 10.804,18.47 10.804,27.997L10.804,27.997ZM19.804,21.622C19.804,23.486 21.315,24.997 23.179,24.997C25.043,24.997 26.554,23.486 26.554,21.622C26.554,19.758 25.043,18.247 23.179,18.247C21.315,18.247 19.804,19.758 19.804,21.622L19.804,21.622ZM29.554,36.622C29.554,37.658 30.393,38.497 31.429,38.497C32.465,38.497 33.304,37.658 33.304,36.622C33.304,35.586 32.465,34.747 31.429,34.747C30.393,34.747 29.554,35.586 29.554,36.622L29.554,36.622ZM35.554,25.372C35.554,26.822 36.729,27.997 38.179,27.997C39.629,27.997 40.804,26.822 40.804,25.372C40.804,23.922 39.629,22.747 38.179,22.747C36.729,22.747 35.554,23.922 35.554,25.372ZM26.554,21.25C29.907,21.378 33.102,22.709 35.554,25M38.702,27.946L39.302,28.747C39.302,28.747 41.552,31.747 41.552,38.497M35.288,12.333L35.554,13C36.64,16.216 37.148,19.6 37.054,22.993M36.304,27.25C36.116,30.348 35,33.317 33.1,35.772M30.532,38.269L30.304,38.5C30.304,38.5 26.554,42.25 18.304,42.25M28.054,10.75C26.002,12.945 24.352,15.484 23.179,18.25M21.427,24.508L21.304,25C20.487,29.057 21.013,33.269 22.804,37C25.354,42.109 31.804,44.5 31.804,44.5L32.364,44.709M19.804,21.622C19.804,21.622 14.05,22.035 11.142,24.581M11.224,31.798L11.554,31.747C11.554,31.747 21.876,30.16 30.265,35.152" style="fill:none;stroke:rgb(44,44,44);stroke-width:2px;"/>
                    </g>
                </g>
            </g>
        </g>
    </g>
</svg>
