<?xml version="1.0" encoding="UTF-8" standalone="no"?>
<!DOCTYPE svg PUBLIC "-//W3C//DTD SVG 1.1//EN" "http://www.w3.org/Graphics/SVG/1.1/DTD/svg11.dtd">
<svg width="100%" height="100%" viewBox="0 0 576 542" version="1.1" xmlns="http://www.w3.org/2000/svg" xmlns:xlink="http://www.w3.org/1999/xlink" xml:space="preserve" xmlns:serif="http://www.serif.com/" style="fill-rule:evenodd;clip-rule:evenodd;stroke-linecap:round;stroke-linejoin:round;">
    <g id="items" transform="matrix(1.12618,0,0,1.12618,-36.3398,-51.8351)">
        <g id="blend">
            <g id="g-root-cp_5_text-5_i09a6b14kks91-fill" transform="matrix(1,0,0,1,50,62)">
                <g id="cp_5_text-5_i09a6b14kks91-fill">
                    <g>
                        <rect x="10" y="10" width="228" height="108" style="fill:rgb(247,148,56);"/>
                    </g>
                </g>
            </g>
            <g id="g-root-cp_5_stick-5_1uu9tj714kkufj-fill" transform="matrix(1,0,0,1,266,170)">
                <g id="cp_5_stick-5_1uu9tj714kkufj-fill">
                    <g>
                        <rect x="10" y="10" width="12" height="252" style="fill:rgb(247,148,56);"/>
                    </g>
                </g>
            </g>
            <g id="g-root-cp_3_text-3_1qegber14kkv7t-fill" transform="matrix(1,0,0,1,38,170)">
                <g id="cp_3_text-3_1qegber14kkv7t-fill">
                    <g>
                        <rect x="10" y="10" width="228" height="108" style="fill:rgb(26,195,251);"/>
                    </g>
                </g>
            </g>
            <g id="g-root-cp_3_stick-3_18nss0314kkuf7-fill" transform="matrix(1,0,0,1,254,278)">
                <g id="cp_3_stick-3_18nss0314kkuf7-fill">
                    <g>
                        <rect x="10" y="10" width="12" height="144" style="fill:rgb(26,195,251);"/>
                    </g>
                </g>
            </g>
            <g id="g-root-cp_1_text-1_v2z5c314km7et-fill" transform="matrix(1,0,0,1,26,278)">
                <g id="cp_1_text-1_v2z5c314km7et-fill">
                    <g>
                        <rect x="10" y="10" width="228" height="108" style="fill:rgb(67,221,147);"/>
                    </g>
                </g>
            </g>
            <g id="g-root-cp_1_stick-1_8vvmpv14km9sf-fill" transform="matrix(1,0,0,1,242,362)">
                <g id="cp_1_stick-1_8vvmpv14km9sf-fill">
                    <g>
                        <rect x="10" y="10" width="12" height="60" style="fill:rgb(67,221,147);"/>
                    </g>
                </g>
            </g>
            <g id="g-root-cp_6_text-6_v3k314km875-fill" transform="matrix(1,0,0,1,278,50)">
                <g id="cp_6_text-6_v3k314km875-fill">
                    <g>
                        <rect x="10" y="10" width="228" height="108" style="fill:rgb(243,102,187);"/>
                    </g>
                </g>
            </g>
            <g id="g-root-cp_6_stick-6_1lqin5v14km9kz-fill" transform="matrix(1,0,0,1,278,158)">
                <g id="cp_6_stick-6_1lqin5v14km9kz-fill">
                    <g>
                        <rect x="10" y="10" width="12" height="264" style="fill:rgb(243,102,187);"/>
                    </g>
                </g>
            </g>
            <g id="g-root-cp_4_text-4_18folvn14km805-fill" transform="matrix(1,0,0,1,290,158)">
                <g id="cp_4_text-4_18folvn14km805-fill">
                    <g>
                        <rect x="10" y="10" width="228" height="132" style="fill:rgb(255,231,17);"/>
                    </g>
                </g>
            </g>
            <g id="g-root-cp_4_stick-4_v483ib14km9l3-fill" transform="matrix(1,0,0,1,290,290)">
                <g id="cp_4_stick-4_v483ib14km9l3-fill">
                    <g>
                        <rect x="10" y="10" width="12" height="132" style="fill:rgb(255,231,17);"/>
                    </g>
                </g>
            </g>
            <g id="g-root-cp_2_text-2_ddkk3n14km8sh-fill" transform="matrix(1,0,0,1,302,290)">
                <g id="cp_2_text-2_ddkk3n14km8sh-fill">
                    <g>
                        <rect x="10" y="10" width="228" height="84" style="fill:rgb(166,218,55);"/>
                    </g>
                </g>
            </g>
            <g id="g-root-cp_2_stick-2_2qitf14km77n-fill" transform="matrix(1,0,0,1,302,374)">
                <g id="cp_2_stick-2_2qitf14km77n-fill">
                    <g>
                        <rect x="10" y="10" width="12" height="48" style="fill:rgb(166,218,55);"/>
                    </g>
                </g>
            </g>
            <g id="g-root-cp_0_g-0_1lse2f714km8lh-fill" transform="matrix(1,0,0,1,242,422)">
                <g id="cp_0_g-0_1lse2f714km8lh-fill">
                    <g>
                        <path d="M33.994,61L46.01,86L58.005,61L33.994,61Z" style="fill:rgb(232,232,232);"/>
                    </g>
                </g>
                <g id="cp_0_g-0_1lse2f714km8lh-fill1" serif:id="cp_0_g-0_1lse2f714km8lh-fill">
                    <g>
                        <path d="M82,10L10,10L34,61L58.001,61L82,10Z" style="fill:rgb(232,232,232);"/>
                    </g>
                </g>
            </g>
            <g id="g-root-tx_247techs_zk1lmr14knmys-fill" transform="matrix(1,0,0,1,110,182)">
                <g id="tx_247techs_zk1lmr14knmys-fill">
                    <g>
                        <g>
                            <g transform="matrix(1,0,0,1,13.3,34)">
                                <text x="0px" y="0px" style="font-family:'Arial-BoldMT', 'Arial', sans-serif;font-weight:700;font-size:20px;fill:rgb(44,44,44);">24/7 T<tspan x="55.215px 66.338px " y="0px 0px ">ec</tspan>h</text>
                            </g>
                            <g transform="matrix(1,0,0,1,32.12,58)">
                                <text x="0px" y="0px" style="font-family:'Arial-BoldMT', 'Arial', sans-serif;font-weight:700;font-size:20px;fill:rgb(44,44,44);">Support</text>
                            </g>
                        </g>
                    </g>
                </g>
            </g>
            <g id="g-root-tx__1lqin5v14kqeir-fill">
            </g>
            <g id="g-root-tx__v7yy0z14km7lu-fill">
            </g>
            <g id="g-root-tx_highqual_1utncg314kqgp1-fill" transform="matrix(1,0,0,1,350,170)">
                <g id="tx_highqual_1utncg314kqgp1-fill">
                    <g>
                        <g>
                            <g transform="matrix(1,0,0,1,12,34)">
                                <text x="0px" y="0px" style="font-family:'Arial-BoldMT', 'Arial', sans-serif;font-weight:700;font-size:20px;fill:rgb(44,44,44);">High-Quality</text>
                            </g>
                            <g transform="matrix(1,0,0,1,12,58)">
                                <text x="0px" y="0px" style="font-family:'Arial-BoldMT', 'Arial', sans-serif;font-weight:700;font-size:20px;fill:rgb(44,44,44);">Call</text>
                            </g>
                            <g transform="matrix(1,0,0,1,12,82)">
                                <text x="0px" y="0px" style="font-family:'Arial-BoldMT', 'Arial', sans-serif;font-weight:700;font-size:20px;fill:rgb(44,44,44);">Management</text>
                            </g>
                        </g>
                    </g>
                </g>
            </g>
            <g id="g-root-tx__1ltn0lf14kno5h-fill">
            </g>
            <g id="g-root-tx__1q5po7714krua6-fill">
            </g>
            <g id="g-root-tx_userfrie_18n6awz14kp2iy-fill" transform="matrix(1,0,0,1,338,62)">
                <g id="tx_userfrie_18n6awz14kp2iy-fill">
                    <g>
                        <g>
                            <g transform="matrix(1,0,0,1,12,34)">
                                <text x="0px" y="0px" style="font-family:'Arial-BoldMT', 'Arial', sans-serif;font-weight:700;font-size:20px;fill:rgb(44,44,44);">User-Friendly</text>
                            </g>
                            <g transform="matrix(1,0,0,1,12,58)">
                                <text x="0px" y="0px" style="font-family:'Arial-BoldMT', 'Arial', sans-serif;font-weight:700;font-size:20px;fill:rgb(44,44,44);">Interface</text>
                            </g>
                        </g>
                    </g>
                </g>
            </g>
            <g id="g-root-tx_customiz_13z8mo314kp2q7-fill" transform="matrix(1,0,0,1,74,290)">
                <g id="tx_customiz_13z8mo314kp2q7-fill">
                    <g>
                        <g>
                            <g transform="matrix(1,0,0,1,20.97,34)">
                                <text x="0px" y="0px" style="font-family:'Arial-BoldMT', 'Arial', sans-serif;font-weight:700;font-size:20px;fill:rgb(44,44,44);">Customized</text>
                            </g>
                            <g transform="matrix(1,0,0,1,75.67,58)">
                                <text x="0px" y="0px" style="font-family:'Arial-BoldMT', 'Arial', sans-serif;font-weight:700;font-size:20px;fill:rgb(44,44,44);">Setup</text>
                            </g>
                        </g>
                    </g>
                </g>
            </g>
            <g transform="matrix(1,0,0,1,374,336)">
                <g id="g-root-tx_secureho_hz0c0314krv28-fill">
                    <g id="tx_secureho_hz0c0314krv28-fill">
                        <g>
                            <g>
                                <text x="0px" y="0px" style="font-family:'Arial-BoldMT', 'Arial', sans-serif;font-weight:700;font-size:20px;fill:rgb(44,44,44);">Secure Hosting</text>
                            </g>
                        </g>
                    </g>
                </g>
            </g>
            <g id="g-root-tx__1cwr26b14kp0xs-fill">
            </g>
            <g id="g-root-tx__qvwaf714krvnt-fill">
            </g>
            <g id="g-root-tx_seamless_3zgzn14km9dt-fill" transform="matrix(1,0,0,1,98,74)">
                <g id="tx_seamless_3zgzn14km9dt-fill">
                    <g>
                        <g>
                            <g transform="matrix(1,0,0,1,40.23,34)">
                                <text x="0px" y="0px" style="font-family:'Arial-BoldMT', 'Arial', sans-serif;font-weight:700;font-size:20px;fill:rgb(44,44,44);">Seamless</text>
                            </g>
                            <g transform="matrix(1,0,0,1,19.4,58)">
                                <text x="0px" y="0px" style="font-family:'Arial-BoldMT', 'Arial', sans-serif;font-weight:700;font-size:20px;fill:rgb(44,44,44);">Integrations</text>
                            </g>
                        </g>
                    </g>
                </g>
            </g>
            <g id="g-root-cp_5_text-5_i09a6b14kks91-stroke" transform="matrix(1,0,0,1,50,62)">
                <g id="cp_5_text-5_i09a6b14kks91-stroke">
                    <g>
                        <path d="M10,118L10,10L238,10L238,118" style="fill:none;stroke:rgb(44,44,44);stroke-width:2px;"/>
                    </g>
                </g>
            </g>
            <g id="g-root-cp_5_stick-5_1uu9tj714kkufj-stroke" transform="matrix(1,0,0,1,266,170)">
                <g id="cp_5_stick-5_1uu9tj714kkufj-stroke">
                    <g>
                        <path d="M21.996,262L21.996,10" style="fill:none;stroke:rgb(44,44,44);stroke-width:2px;"/>
                    </g>
                </g>
            </g>
            <g id="g-root-cp_3_text-3_1qegber14kkv7t-stroke" transform="matrix(1,0,0,1,38,170)">
                <g id="cp_3_text-3_1qegber14kkv7t-stroke">
                    <g>
                        <path d="M10,118L10,10L238,10L238,118" style="fill:none;stroke:rgb(44,44,44);stroke-width:2px;"/>
                    </g>
                </g>
            </g>
            <g id="g-root-cp_3_stick-3_18nss0314kkuf7-stroke" transform="matrix(1,0,0,1,254,278)">
                <g id="cp_3_stick-3_18nss0314kkuf7-stroke">
                    <g>
                        <path d="M21.996,154L21.996,10" style="fill:none;stroke:rgb(44,44,44);stroke-width:2px;"/>
                    </g>
                </g>
            </g>
            <g id="g-root-cp_1_text-1_v2z5c314km7et-stroke" transform="matrix(1,0,0,1,26,278)">
                <g id="cp_1_text-1_v2z5c314km7et-stroke">
                    <g>
                        <path d="M238,118L238,10L10,10L10,118L226,118" style="fill:none;stroke:rgb(44,44,44);stroke-width:2px;"/>
                    </g>
                </g>
            </g>
            <g id="g-root-cp_1_stick-1_8vvmpv14km9sf-stroke" transform="matrix(1,0,0,1,242,362)">
                <g id="cp_1_stick-1_8vvmpv14km9sf-stroke">
                    <g>
                        <path d="M21.996,70L21.996,10M10,70L10,34" style="fill:none;stroke:rgb(44,44,44);stroke-width:2px;"/>
                    </g>
                </g>
            </g>
            <g id="g-root-cp_6_text-6_v3k314km875-stroke" transform="matrix(1,0,0,1,278,50)">
                <g id="cp_6_text-6_v3k314km875-stroke">
                    <g>
                        <path d="M238,118L238,10L10,10L10,118" style="fill:none;stroke:rgb(44,44,44);stroke-width:2px;"/>
                    </g>
                </g>
            </g>
            <g id="g-root-cp_6_stick-6_1lqin5v14km9kz-stroke" transform="matrix(1,0,0,1,278,158)">
                <g id="cp_6_stick-6_1lqin5v14km9kz-stroke">
                    <g>
                        <path d="M10.004,274L10.004,10" style="fill:none;stroke:rgb(44,44,44);stroke-width:2px;"/>
                    </g>
                </g>
            </g>
            <g id="g-root-cp_4_text-4_18folvn14km805-stroke" transform="matrix(1,0,0,1,290,158)">
                <g id="cp_4_text-4_18folvn14km805-stroke">
                    <g>
                        <path d="M238,142L238,10L10,10L10,142" style="fill:none;stroke:rgb(44,44,44);stroke-width:2px;"/>
                    </g>
                </g>
            </g>
            <g id="g-root-cp_4_stick-4_v483ib14km9l3-stroke" transform="matrix(1,0,0,1,290,290)">
                <g id="cp_4_stick-4_v483ib14km9l3-stroke">
                    <g>
                        <path d="M10.004,142L10.004,10" style="fill:none;stroke:rgb(44,44,44);stroke-width:2px;"/>
                    </g>
                </g>
            </g>
            <g id="g-root-cp_2_text-2_ddkk3n14km8sh-stroke" transform="matrix(1,0,0,1,302,290)">
                <g id="cp_2_text-2_ddkk3n14km8sh-stroke">
                    <g>
                        <path d="M10,94L10,10L238,10L238,94L22,94" style="fill:none;stroke:rgb(44,44,44);stroke-width:2px;"/>
                    </g>
                </g>
            </g>
            <g id="g-root-cp_2_stick-2_2qitf14km77n-stroke" transform="matrix(1,0,0,1,302,374)">
                <g id="cp_2_stick-2_2qitf14km77n-stroke">
                    <g>
                        <path d="M10.004,58L10.004,10M22,58L22,10" style="fill:none;stroke:rgb(44,44,44);stroke-width:2px;"/>
                    </g>
                </g>
            </g>
            <g id="g-root-cp_0_g-0_1lse2f714km8lh-stroke" transform="matrix(1,0,0,1,242,422)">
                <g id="cp_0_g-0_1lse2f714km8lh-stroke">
                    <g>
                        <path d="M33.994,61L46.01,86L58.005,61L33.994,61Z" style="fill:none;stroke:rgb(44,44,44);stroke-width:2px;"/>
                    </g>
                </g>
                <g id="cp_0_g-0_1lse2f714km8lh-stroke1" serif:id="cp_0_g-0_1lse2f714km8lh-stroke">
                    <g>
                        <path d="M82,10L10,10L34,61L58.001,61L82,10Z" style="fill:none;stroke:rgb(44,44,44);stroke-width:2px;"/>
                    </g>
                </g>
            </g>
            <g id="g-root-ic_24_hwifnn14knmkm-stroke" transform="matrix(1,0,0,1,218,182)">
                <g id="ic_24_hwifnn14knmkm-stroke">
                    <g>
                        <path d="M37.132,21.533L29.057,21.533C28.611,21.533 28.25,21.171 28.25,20.726C28.25,20.53 28.321,20.341 28.449,20.194L35.793,11.801C35.938,11.636 36.148,11.54 36.368,11.54C36.79,11.54 37.132,11.882 37.132,12.304L37.132,21.533ZM37.132,21.533L39.352,21.533M37.132,21.533L37.132,24.863M25.53,24.863L16.648,24.863L16.648,22.971C16.648,21.647 17.432,20.45 18.644,19.919L23.586,17.757C24.767,17.24 25.53,16.074 25.53,14.785C25.53,12.993 24.078,11.54 22.286,11.54L19.979,11.54C18.529,11.54 17.295,12.467 16.838,13.761M39.643,41.755C41.157,41.427 42.514,40.59 43.488,39.384C44.461,38.178 44.992,36.675 44.993,35.125L44.993,33.774C44.99,33.172 44.749,32.595 44.323,32.169C43.897,31.743 43.32,31.502 42.718,31.499L37.048,31.517C36.449,31.518 35.876,31.756 35.453,32.179C35.03,32.602 34.792,33.176 34.79,33.774C34.787,34.376 34.546,34.953 34.12,35.379C33.694,35.805 33.118,36.046 32.515,36.049L23.45,36.049C22.848,36.046 22.271,35.805 21.845,35.379C21.419,34.953 21.178,34.376 21.175,33.774C21.174,33.176 20.936,32.602 20.513,32.179C20.09,31.756 19.516,31.518 18.918,31.517L13.337,31.41C12.734,31.413 12.158,31.654 11.732,32.08C11.306,32.506 11.065,33.083 11.062,33.685L11.062,35.036C11.038,36.589 11.547,38.103 12.504,39.326C13.462,40.549 14.81,41.406 16.323,41.755C24.024,43.257 31.942,43.257 39.643,41.755Z" style="fill:none;stroke:rgb(44,44,44);stroke-width:2px;"/>
                    </g>
                </g>
            </g>
            <g id="g-root-ic_team_8x4kw314krua7-stroke" transform="matrix(1,0,0,1,302,170)">
                <g id="ic_team_8x4kw314krua7-stroke">
                    <g>
                        <path d="M35.125,17.125C35.125,18.989 36.636,20.5 38.5,20.5C40.364,20.5 41.875,18.989 41.875,17.125C41.875,15.261 40.364,13.75 38.5,13.75C36.636,13.75 35.125,15.261 35.125,17.125M45.25,27.25C44.722,25.182 43.274,23.471 41.322,22.608C39.37,21.745 37.13,21.825 35.245,22.825M14.125,17.125C14.125,18.989 15.636,20.5 17.5,20.5C19.364,20.5 20.875,18.989 20.875,17.125C20.875,15.261 19.364,13.75 17.5,13.75C15.636,13.75 14.125,15.261 14.125,17.125M10.75,27.25C11.278,25.182 12.726,23.471 14.678,22.608C16.63,21.745 18.87,21.825 20.755,22.825M28.75,41.5C28.75,42.743 29.757,43.75 31,43.75C32.243,43.75 33.25,42.743 33.25,41.5C33.25,40.257 32.243,39.25 31,39.25C29.757,39.25 28.75,40.257 28.75,41.5M18.25,43C18.25,44.243 19.257,45.25 20.5,45.25C21.743,45.25 22.75,44.243 22.75,43C22.75,41.757 21.743,40.75 20.5,40.75C19.257,40.75 18.25,41.757 18.25,43M22.75,43L22.75,34.375C22.724,33.682 23.177,33.062 23.845,32.875L31.345,30.73C31.807,30.6 32.302,30.699 32.679,30.995C33.056,31.292 33.268,31.751 33.25,32.23L33.25,41.5M36.25,31C36.25,26.444 32.556,22.75 28,22.75C23.444,22.75 19.75,26.444 19.75,31M23.71,13.15C25.226,14.724 27.315,15.616 29.5,15.625C30.599,15.625 31.686,15.401 32.695,14.965M23.035,15.625C23.035,18.317 25.218,20.5 27.91,20.5C30.602,20.5 32.785,18.317 32.785,15.625C32.785,12.933 30.602,10.75 27.91,10.75C25.218,10.75 23.035,12.933 23.035,15.625" style="fill:none;stroke:rgb(44,44,44);stroke-width:2px;"/>
                    </g>
                </g>
            </g>
            <g id="g-root-ic_1_8z005f14kp2ip-stroke" transform="matrix(1,0,0,1,206,290)">
                <g id="ic_1_8z005f14kp2ip-stroke">
                    <g>
                        <path d="M34.315,12.355L40.75,14.5L37,25L38.5,44.5C38.513,44.697 38.442,44.891 38.305,45.033C38.168,45.176 37.978,45.255 37.78,45.25L31.78,45.25C31.314,45.223 30.877,45.013 30.565,44.665L28,41.5L25.465,44.665C25.151,45.01 24.716,45.22 24.25,45.25L18.25,45.25C18.049,45.259 17.853,45.182 17.71,45.04C17.568,44.897 17.491,44.701 17.5,44.5L19,25L15.25,14.5L21.685,12.355M28,32.5L28,41.5M31,10.75C30.505,16.75 30.25,25 28,32.5C25.75,25 25.495,16.75 25,10.75M31,10.75C33.055,10.75 34.855,12.55 35.95,14.635C36.131,14.974 36.028,15.394 35.71,15.61L34,16.75L35.245,18.625C35.379,18.862 35.379,19.153 35.245,19.39C33.22,23.38 32.35,30.325 28,32.5C23.635,30.325 22.78,23.38 20.71,19.39C20.567,19.155 20.567,18.86 20.71,18.625L22,16.75L20.29,15.61C19.972,15.394 19.869,14.974 20.05,14.635C21.13,12.55 22.945,10.75 25,10.75L31,10.75ZM21.25,37.75L23.5,37.75M32.5,37.75L34.75,37.75M15.25,14.5C13.165,23.5 11.305,37.75 10.765,40.87C10.699,41.23 10.902,41.584 11.245,41.71L14.5,42.85C14.695,42.94 14.92,42.94 15.115,42.85C15.308,42.742 15.444,42.556 15.49,42.34L19,25M40.75,14.5C42.835,23.5 44.695,37.75 45.25,40.87C45.316,41.23 45.113,41.584 44.77,41.71L41.5,42.85C41.305,42.94 41.08,42.94 40.885,42.85C40.692,42.742 40.556,42.556 40.51,42.34L37,25" style="fill:none;stroke:rgb(44,44,44);stroke-width:2px;"/>
                    </g>
                </g>
            </g>
            <g id="g-root-ic_2_4hxjur14kqeis-stroke" transform="matrix(1,0,0,1,290,62)">
                <g id="ic_2_4hxjur14kqeis-stroke">
                    <g>
                        <path d="M45.25,28L27.25,28M39.25,34L45.25,28L39.25,22M24.25,13.75L35.5,13.75C35.914,13.75 36.25,14.086 36.25,14.5L36.25,18.25M36.25,37.75L36.25,41.5C36.25,41.914 35.914,42.25 35.5,42.25L24.25,42.25M10.75,41.834C10.75,42.186 10.995,42.491 11.338,42.567L23.338,45.232C23.56,45.281 23.792,45.227 23.969,45.085C24.147,44.942 24.25,44.727 24.25,44.5L24.25,11.5C24.25,11.273 24.147,11.058 23.969,10.915C23.792,10.773 23.56,10.719 23.338,10.768L11.338,13.435C10.995,13.511 10.75,13.815 10.75,14.167L10.75,41.834ZM16.75,28C16.75,29.243 17.757,30.25 19,30.25C20.243,30.25 21.25,29.243 21.25,28C21.25,26.757 20.243,25.75 19,25.75C17.757,25.75 16.75,26.757 16.75,28Z" style="fill:none;stroke:rgb(44,44,44);stroke-width:2px;"/>
                    </g>
                </g>
            </g>
            <g id="g-root-ic_lock_9lqrn14krvnu-stroke" transform="matrix(1,0,0,1,314,302)">
                <g id="ic_lock_9lqrn14krvnu-stroke">
                    <g>
                        <path d="M10.783,16.751C10.783,20.065 17.163,22.752 25.033,22.752C32.903,22.752 39.283,20.065 39.283,16.751C39.283,13.438 32.903,10.752 25.033,10.752C17.163,10.752 10.783,13.438 10.783,16.751ZM26.532,28.719C26.036,28.741 25.539,28.752 25.032,28.752C17.163,28.752 10.782,26.067 10.782,22.752M26.532,35.468C26.036,35.491 25.539,35.501 25.032,35.501C17.163,35.501 10.782,32.817 10.782,29.502M39.282,23.502L39.282,16.751M10.782,16.75L10.782,36.25C10.782,39.565 17.163,42.25 25.032,42.25C25.539,42.25 26.039,42.24 26.532,42.217M45.282,43.75C45.282,44.578 44.61,45.25 43.782,45.25L33.282,45.25C32.453,45.25 31.782,44.578 31.782,43.75L31.782,34.75C31.782,33.922 32.453,33.25 33.282,33.25L43.782,33.25C44.61,33.25 45.282,33.922 45.282,34.75L45.282,43.75ZM36.657,39.346C36.657,40.382 37.496,41.221 38.532,41.221C39.567,41.221 40.407,40.382 40.407,39.346C40.407,38.31 39.567,37.471 38.532,37.471C37.496,37.471 36.657,38.31 36.657,39.346ZM42.282,31C42.282,28.929 40.603,27.25 38.532,27.25C36.46,27.25 34.782,28.929 34.782,31L34.782,33.25L42.282,33.25L42.282,31Z" style="fill:none;stroke:rgb(44,44,44);stroke-width:2px;"/>
                    </g>
                </g>
            </g>
            <g id="g-root-ic_plan_1ur5g3n14km87f-stroke" transform="matrix(1,0,0,1,230,74)">
                <g id="ic_plan_1ur5g3n14km87f-stroke">
                    <g>
                        <path d="M19,25.75L16,25.75L16,11.5C16,11.086 16.336,10.75 16.75,10.75L31.75,10.75C32.164,10.75 32.5,11.086 32.5,11.5L32.5,25.75L24.25,25.75M28,25.75L28,30.25C30.485,30.25 32.5,32.265 32.5,34.75L32.5,35.5L28,35.5L28,44.5C28,44.914 27.664,45.25 27.25,45.25L11.5,45.25C11.086,45.25 10.75,44.914 10.75,44.5L10.75,26.5C10.75,26.086 11.086,25.75 11.5,25.75L16,25.75M28,38.5L44.5,38.5C44.914,38.5 45.25,38.164 45.25,37.75L45.25,28C42.351,28 40,25.649 40,22.75L44.5,22.75C44.914,22.75 45.25,22.414 45.25,22L45.25,17.5C45.25,17.086 44.914,16.75 44.5,16.75L32.5,16.75M10.75,36.25L18.25,36.25L18.25,45.25L11.5,45.25C11.086,45.25 10.75,44.914 10.75,44.5L10.75,36.25ZM10.75,39.25L18.25,39.25M10.75,42.25L18.25,42.25" style="fill:none;stroke:rgb(44,44,44);stroke-width:2px;"/>
                    </g>
                </g>
            </g>
        </g>
    </g>
</svg>
