<?xml version="1.0" encoding="UTF-8" standalone="no"?>
<!DOCTYPE svg PUBLIC "-//W3C//DTD SVG 1.1//EN" "http://www.w3.org/Graphics/SVG/1.1/DTD/svg11.dtd">
<svg width="100%" height="100%" viewBox="0 0 588 586" version="1.1" xmlns="http://www.w3.org/2000/svg" xmlns:xlink="http://www.w3.org/1999/xlink" xml:space="preserve" xmlns:serif="http://www.serif.com/" style="fill-rule:evenodd;clip-rule:evenodd;stroke-linecap:round;stroke-linejoin:round;">
    <g id="items" transform="matrix(1.05009,0,0,1.05009,-14.7274,-43.6291)">
        <g id="blend">
            <g id="g-root-sy_-1_cu_qns47o140lo90-fill" transform="matrix(1,0,0,1,14,62)">
                <g id="sy_-1_cu_qns47o140lo90-fill">
                    <g>
                        <path d="M10,490L10,418L82.5,418L82.5,490L10,490ZM34,394L10,418L82.5,418L106,394L34,394ZM34,394L34,322L106,322L106,394L34,394ZM58,298L34,322L106,322L130,298L58,298ZM58,298L58,226L130,226L130,298L58,298ZM82,202L58,226L130,226L154,202L82,202ZM82,202L82,130L154,130L154,202L82,202ZM106,106L82,130L154,130L178,106L106,106ZM106,106L106,34L178,34L178,106L106,106ZM130,10L106,34L178,34L202,10L130,10Z" style="fill:url(#_Linear1);"/>
                    </g>
                </g>
            </g>
            <g id="g-root-sy_-1_cu_1_1q7l3dg140llot-fill" transform="matrix(1,0,0,1,362,62)">
                <g id="sy_-1_cu_1_1q7l3dg140llot-fill">
                    <g>
                        <path d="M202,490L202,418L130.5,418L130.5,490L202,490ZM202,418L178,394L106,394L130.5,418L202,418ZM178,322L178,394L106,394L106,322L178,322ZM178,322L154,298L82,298L106,322L178,322ZM154,226L154,298L82,298L82,226L154,226ZM154,226L130,202L58,202L82,226L154,226ZM130,130L130,202L58,202L58,130L130,130ZM130,130L106,106L34,106L58,130L130,130ZM106,34L106,106L34,106L34,34L106,34ZM106,34L82,10L10,10L34,34L106,34Z" style="fill:url(#_Linear2);"/>
                    </g>
                </g>
            </g>
            <g id="g-root-sy_1_cu_18gb2vo140lo1y-fill" transform="matrix(1,0,0,1,86.4998,446)">
                <g id="sy_1_cu_18gb2vo140lo1y-fill">
                    <g>
                        <path d="M10,106L10,34L406,34L406,106L10,106ZM381.5,10L406,34L10,34L33.5,10L381.5,10Z" style="fill:url(#_Linear3);"/>
                    </g>
                </g>
            </g>
            <g id="g-root-sy_2_cu_v5h1lg140lmh3-fill" transform="matrix(1,0,0,1,110,350)">
                <g id="sy_2_cu_v5h1lg140lmh3-fill">
                    <g>
                        <path d="M10,106L10,34L358,34L358,106L10,106ZM334,10L358,34L10,34L34,10L334,10Z" style="fill:url(#_Linear4);"/>
                    </g>
                </g>
            </g>
            <g id="g-root-sy_3_cu_hu0j84140lo20-fill" transform="matrix(1,0,0,1,134,254)">
                <g id="sy_3_cu_hu0j84140lo20-fill">
                    <g>
                        <path d="M10,34L10,106L310,106L310,34L10,34ZM286,10L310,34L10,34L34,10L286,10Z" style="fill:url(#_Linear5);"/>
                    </g>
                </g>
            </g>
            <g id="g-root-sy_4_cu_4j6hxw140lmh5-fill" transform="matrix(1,0,0,1,158,158)">
                <g id="sy_4_cu_4j6hxw140lmh5-fill">
                    <g>
                        <path d="M10,106L10,34L262,34L262,106L10,106ZM238,10L262,34L10,34L34,10L238,10Z" style="fill:url(#_Linear6);"/>
                    </g>
                </g>
            </g>
            <g id="g-root-sy_5_cu_1q8u1jo140lnuy-fill" transform="matrix(1,0,0,1,182,62)">
                <g id="sy_5_cu_1q8u1jo140lnuy-fill">
                    <g>
                        <path d="M10,106L10,34L214,34L214,106L10,106ZM190,10L214,34L10,34L34,10L190,10Z" style="fill:url(#_Linear7);"/>
                    </g>
                </g>
            </g>
            <g id="g-root-tx_realtime_1hgxvtg140lmo7-fill" transform="matrix(1,0,0,1,170,194)">
                <g id="tx_realtime_1hgxvtg140lmo7-fill">
                    <g>
                        <g>
                            <g transform="matrix(1,0,0,1,17.53,34)">
                                <text x="0px" y="0px" style="font-family:'ArialMT', 'Arial', sans-serif;font-size:20px;fill:rgb(244,244,244);">Real-T<tspan x="59.268px 63.711px " y="0px 0px ">im</tspan>e Monitoring &amp;</text>
                            </g>
                            <g transform="matrix(1,0,0,1,86.67,58)">
                                <text x="0px" y="0px" style="font-family:'ArialMT', 'Arial', sans-serif;font-size:20px;fill:rgb(244,244,244);">Reports</text>
                            </g>
                        </g>
                    </g>
                </g>
            </g>
            <g id="g-root-tx_supporto_dj6tsk140lo94-fill" transform="matrix(1,0,0,1,224,98)">
                <g id="tx_supporto_dj6tsk140lo94-fill">
                    <g>
                        <g>
                            <g transform="matrix(1,0,0,1,26.01,34)">
                                <text x="0px" y="0px" style="font-family:'ArialMT', 'Arial', sans-serif;font-size:20px;fill:rgb(244,244,244);">Support &amp;</text>
                            </g>
                            <g transform="matrix(1,0,0,1,13.26,58)">
                                <text x="0px" y="0px" style="font-family:'ArialMT', 'Arial', sans-serif;font-size:20px;fill:rgb(244,244,244);">Optimization</text>
                            </g>
                        </g>
                    </g>
                </g>
            </g>
            <g transform="matrix(1,0,0,1,209.96,336)">
                <g id="g-root-tx_featurei_dhxvmc140lm32-fill">
                    <g id="tx_featurei_dhxvmc140lm32-fill">
                        <g>
                            <g>
                                <text x="0px" y="0px" style="font-family:'ArialMT', 'Arial', sans-serif;font-size:20px;fill:rgb(244,244,244);">Feature Integration</text>
                            </g>
                        </g>
                    </g>
                </g>
            </g>
            <g transform="matrix(1,0,0,1,157.52,432)">
                <g id="g-root-tx_userexte_1cz8yfo140log5-fill">
                    <g id="tx_userexte_1cz8yfo140log5-fill">
                        <g>
                            <g>
                                <text x="0px" y="0px" style="font-family:'ArialMT', 'Arial', sans-serif;font-size:20px;fill:rgb(244,244,244);">User &amp; Extension Management</text>
                            </g>
                        </g>
                    </g>
                </g>
            </g>
            <g transform="matrix(1,0,0,1,197.19,528)">
                <g id="g-root-tx_setupcon_908y8k140lnv0-fill">
                    <g id="tx_setupcon_908y8k140lnv0-fill">
                        <g>
                            <g>
                                <g transform="matrix(20,0,0,20,113.408,0)">
                                </g>
                                <g transform="matrix(20,0,0,20,118.965,0)">
                                </g>
                                <text x="0px" y="0px" style="font-family:'ArialMT', 'Arial', sans-serif;font-size:20px;fill:rgb(244,244,244);">Setup &amp; Conﬁguration</text>
                            </g>
                        </g>
                    </g>
                </g>
            </g>
            <g id="g-root-sy_-1_cu_qns47o140lo90-stroke" transform="matrix(1,0,0,1,14,62)">
                <g id="sy_-1_cu_qns47o140lo90-stroke">
                    <g>
                        <path d="M10,490L10,418L82.5,418L82.5,490L10,490ZM10,418L34,394L106,394L82.5,418L10,418ZM34,394L34,322L106,322L106,394L34,394ZM34,322L58,298L130,298L106,322L34,322ZM58,298L58,226L130,226L130,298L58,298ZM58,226L82,202L154,202L130,226L58,226ZM82,202L82,130L154,130L154,202L82,202ZM82,130L106,106L178,106L154,130L82,130ZM106,106L106,34L178,34L178,106L106,106ZM106,34L130,10L202,10L178,34L106,34Z" style="fill:none;stroke:rgb(244,244,244);stroke-width:2px;"/>
                    </g>
                </g>
            </g>
            <g id="g-root-sy_-1_cu_1_1q7l3dg140llot-stroke" transform="matrix(1,0,0,1,362,62)">
                <g id="sy_-1_cu_1_1q7l3dg140llot-stroke">
                    <g>
                        <path d="M202,418L202,490L130.5,490L130.5,418L202,418ZM202,418L178,394L106,394L130.5,418L202,418ZM178,322L178,394L106,394L106,322L178,322ZM178,322L154,298L82,298L106,322L178,322ZM154,226L154,298L82,298L82,226L154,226ZM154,226L130,202L58,202L82,226L154,226ZM130,130L130,202L58,202L58,130L130,130ZM130,130L106,106L34,106L58,130L130,130ZM106,106L106,34L34,34L34,106L106,106ZM106,34L82,10L10,10L34,34L106,34Z" style="fill:none;stroke:rgb(244,244,244);stroke-width:2px;"/>
                    </g>
                </g>
            </g>
            <g id="g-root-sy_1_cu_18gb2vo140lo1y-stroke" transform="matrix(1,0,0,1,86.4998,446)">
                <g id="sy_1_cu_18gb2vo140lo1y-stroke">
                    <g>
                        <path d="M10,34L10,106L406,106L406,34L10,34ZM406,34L381.5,10L33.5,10L10,34L406,34Z" style="fill:none;stroke:rgb(244,244,244);stroke-width:2px;"/>
                    </g>
                </g>
            </g>
            <g id="g-root-sy_2_cu_v5h1lg140lmh3-stroke" transform="matrix(1,0,0,1,110,350)">
                <g id="sy_2_cu_v5h1lg140lmh3-stroke">
                    <g>
                        <path d="M10,34L10,106L358,106L358,34L10,34ZM358,34L334,10L34,10L10,34L358,34Z" style="fill:none;stroke:rgb(244,244,244);stroke-width:2px;"/>
                    </g>
                </g>
            </g>
            <g id="g-root-sy_3_cu_hu0j84140lo20-stroke" transform="matrix(1,0,0,1,134,254)">
                <g id="sy_3_cu_hu0j84140lo20-stroke">
                    <g>
                        <path d="M10,106L10,34L310,34L310,106L10,106ZM310,34L286,10L34,10L10,34L310,34Z" style="fill:none;stroke:rgb(244,244,244);stroke-width:2px;"/>
                    </g>
                </g>
            </g>
            <g id="g-root-sy_4_cu_4j6hxw140lmh5-stroke" transform="matrix(1,0,0,1,158,158)">
                <g id="sy_4_cu_4j6hxw140lmh5-stroke">
                    <g>
                        <path d="M10,34L10,106L262,106L262,34L10,34ZM262,34L238,10L34,10L10,34L262,34Z" style="fill:none;stroke:rgb(244,244,244);stroke-width:2px;"/>
                    </g>
                </g>
            </g>
            <g id="g-root-sy_5_cu_1q8u1jo140lnuy-stroke" transform="matrix(1,0,0,1,182,62)">
                <g id="sy_5_cu_1q8u1jo140lnuy-stroke">
                    <g>
                        <path d="M10,34L10,106L214,106L214,34L10,34ZM214,34L190,10L34,10L10,34L214,34Z" style="fill:none;stroke:rgb(244,244,244);stroke-width:2px;"/>
                    </g>
                </g>
            </g>
            <g id="g-root-ic_sett_1ly0c44140lo21-stroke" transform="matrix(1,0,0,1,398,98)">
                <g id="ic_sett_1ly0c44140lo21-stroke">
                    <g>
                        <path d="M44.5,45.75C44.5,47.131 45.619,48.25 47,48.25C48.381,48.25 49.5,47.131 49.5,45.75C49.5,44.369 48.381,43.25 47,43.25C45.619,43.25 44.5,44.369 44.5,45.75ZM49.124,36.078L49.86,38.5C50.112,39.334 50.967,39.83 51.816,39.634L54.27,39.066C55.226,38.847 56.212,39.278 56.702,40.128C57.191,40.977 57.069,42.047 56.4,42.764L54.684,44.614C54.09,45.255 54.09,46.245 54.684,46.886L56.4,48.736C57.067,49.452 57.189,50.52 56.701,51.368C56.214,52.217 55.231,52.649 54.276,52.434L51.822,51.866C50.973,51.67 50.118,52.166 49.866,53L49.13,55.422C48.848,56.359 47.985,57.001 47.006,57.001C46.027,57.001 45.164,56.359 44.882,55.422L44.14,53C43.888,52.166 43.033,51.67 42.184,51.866L39.73,52.434C38.774,52.653 37.788,52.222 37.298,51.372C36.809,50.523 36.931,49.453 37.6,48.736L39.316,46.886C39.91,46.245 39.91,45.255 39.316,44.614L37.6,42.764C36.933,42.048 36.811,40.98 37.299,40.132C37.786,39.283 38.769,38.851 39.724,39.066L42.178,39.634C43.027,39.83 43.882,39.334 44.134,38.5L44.87,36.078C45.149,35.136 46.014,34.489 46.997,34.489C47.98,34.489 48.845,35.136 49.124,36.078ZM31,41L11,41C11,36.025 14.07,31.566 18.718,29.79C23.366,28.015 28.627,29.292 31.944,33M15.5,18.5C15.5,22.642 18.858,26 23,26C27.142,26 30.5,22.642 30.5,18.5C30.5,14.358 27.142,11 23,11C18.858,11 15.5,14.358 15.5,18.5ZM34.5,18.5C34.5,22.642 37.858,26 42,26C46.142,26 49.5,22.642 49.5,18.5C49.5,14.358 46.142,11 42,11C37.858,11 34.5,14.358 34.5,18.5ZM48.94,31.21C45.127,28.506 40.09,28.262 36.034,30.586" style="fill:none;stroke:rgb(244,244,244);stroke-width:2px;"/>
                    </g>
                </g>
            </g>
            <g id="g-root-ic_48px_znsg2c140smj0-stroke" transform="matrix(1,0,0,1,98,194)">
                <g id="ic_48px_znsg2c140smj0-stroke">
                    <g>
                        <path d="M15.072,30.179C15.072,24.482 17.789,19.696 23.011,19.696C28.233,19.696 30.949,24.482 30.949,30.179L30.949,37.273C30.949,42.97 28.105,47.882 23.011,47.882C17.916,47.882 15.072,42.97 15.072,37.273L15.072,30.179ZM49.91,47.979L49.91,19.551L36.295,39.738L55.315,39.738" style="fill:none;stroke:rgb(244,244,244);stroke-width:2px;"/>
                    </g>
                </g>
            </g>
            <g id="g-root-ic_wave_94m9uc140r9jj-stroke" transform="matrix(1,0,0,1,422,194)">
                <g id="ic_wave_94m9uc140r9jj-stroke">
                    <g>
                        <path d="M15,12L53,12C53,12 57,12 57,16L57,52C57,52 57,56 53,56L15,56C15,56 11,56 11,52L11,16C11,16 11,12 15,12M11,22L57,22M18,16.5C18.276,16.5 18.5,16.724 18.5,17C18.5,17.276 18.276,17.5 18,17.5C17.724,17.5 17.5,17.276 17.5,17C17.5,16.724 17.724,16.5 18,16.5M24,16.5C24.276,16.5 24.5,16.724 24.5,17C24.5,17.276 24.276,17.5 24,17.5C23.724,17.5 23.5,17.276 23.5,17C23.5,16.724 23.724,16.5 24,16.5M30,16.5C30.276,16.5 30.5,16.724 30.5,17C30.5,17.276 30.276,17.5 30,17.5C29.724,17.5 29.5,17.276 29.5,17C29.5,16.724 29.724,16.5 30,16.5M11,39L57,39M22,22L22,56M22,36L24.93,30.142C25.875,28.25 27.817,27.063 29.932,27.083C32.047,27.103 33.965,28.328 34.874,30.238L35.66,31.886C36.529,33.711 38.323,34.917 40.341,35.033C42.359,35.148 44.279,34.154 45.35,32.44C46.357,30.829 48.12,29.846 50.02,29.839C51.919,29.831 53.69,30.799 54.71,32.402L57,36M22,48.186L25.282,44.904C25.943,44.243 26.869,43.917 27.799,44.019C28.728,44.121 29.562,44.639 30.064,45.428L32.522,49.29C33.075,50.159 34.025,50.695 35.055,50.718C36.084,50.741 37.057,50.248 37.648,49.404L39.33,47.004C39.922,46.156 40.901,45.662 41.935,45.689C42.969,45.716 43.921,46.26 44.468,47.138L44.556,47.278C45.102,48.151 46.047,48.694 47.076,48.725C48.105,48.757 49.082,48.273 49.68,47.436C50.235,46.659 51.119,46.184 52.073,46.148C53.027,46.113 53.944,46.521 54.556,47.254L57,50.186" style="fill:none;stroke:rgb(244,244,244);stroke-width:2px;"/>
                    </g>
                </g>
            </g>
            <g id="g-root-ic_48px_1um5qhg140ln2j-stroke" transform="matrix(1,0,0,1,74,290)">
                <g id="ic_48px_1um5qhg140ln2j-stroke">
                    <g>
                        <path d="M15.072,30.179C15.072,24.482 17.789,19.695 23.011,19.695C28.233,19.695 30.949,24.482 30.949,30.179L30.949,37.273C30.949,42.969 28.105,47.882 23.011,47.882C17.916,47.882 15.072,42.969 15.072,37.273L15.072,30.179ZM37.121,27.068C37.002,24.659 38.483,19.71 45.065,19.71C51.648,19.71 52.656,24.597 52.428,27.357C52.177,30.4 50.272,33.508 42.201,33.508C49.714,33.508 53.126,35.562 53.126,41.125C53.126,45.933 48.876,47.89 44.992,47.89C42.201,47.866 36.62,46.287 36.62,40.162" style="fill:none;stroke:rgb(244,244,244);stroke-width:2px;"/>
                    </g>
                </g>
            </g>
            <g id="g-root-ic_pers_mg2yj8140905n-stroke" transform="matrix(1,0,0,1,494,482)">
                <g id="ic_pers_mg2yj8140905n-stroke">
                    <g>
                        <path d="M24.25,29.35L24.25,23.35M13.25,35.15L35.25,35.15M37.05,56.35C35.25,51.15 30.25,47.35 24.45,47.35C18.65,47.35 13.45,51.15 11.65,56.35M16.05,37.35C16.25,41.75 19.85,45.35 24.25,45.35C28.85,45.35 32.45,41.75 32.45,37.15L32.45,33.55C32.45,28.95 28.85,25.35 24.25,25.35C19.85,25.35 16.25,28.95 16.05,33.35L16.05,37.35ZM44.35,23.65C50.977,23.65 56.35,20.964 56.35,17.65C56.35,14.336 50.977,11.65 44.35,11.65C37.723,11.65 32.35,14.336 32.35,17.65C32.35,20.964 37.723,23.65 44.35,23.65ZM39.95,32.25C41.35,32.45 42.75,32.65 44.35,32.65C50.95,32.65 56.35,30.05 56.35,26.65L56.35,17.65M32.35,17.65L32.35,22.05M39.95,41.25C41.35,41.45 42.75,41.65 44.35,41.65C50.95,41.65 56.35,39.05 56.35,35.65L56.35,26.65" style="fill:none;stroke:rgb(244,244,244);stroke-width:2px;"/>
                    </g>
                </g>
            </g>
            <g id="g-root-ic_48px_146qbmc140pvd5-stroke" transform="matrix(1,0,0,1,122,98)">
                <g id="ic_48px_146qbmc140pvd5-stroke">
                    <g>
                        <path d="M15.072,30.179C15.072,24.482 17.789,19.696 23.011,19.696C28.233,19.696 30.949,24.482 30.949,30.179L30.949,37.273C30.949,42.97 28.105,47.882 23.011,47.882C17.916,47.882 15.072,42.97 15.072,37.273L15.072,30.179ZM53.693,20.121L40.379,20.121L38.988,33.144C39.817,32.315 42.353,30.657 45.865,30.657C49.971,30.657 53.813,33.447 53.427,40.052C53.028,46.894 48.912,47.904 45.529,47.904C41.945,47.904 38.405,45.361 38.073,40.565" style="fill:none;stroke:rgb(244,244,244);stroke-width:2px;"/>
                    </g>
                </g>
            </g>
            <g id="g-root-ic_48px_1lt0pqs1408zy9-stroke" transform="matrix(1,0,0,1,50,386)">
                <g id="ic_48px_1lt0pqs1408zy9-stroke">
                    <g>
                        <path d="M15.072,30.179C15.072,24.482 17.789,19.695 23.011,19.695C28.233,19.695 30.949,24.482 30.949,30.179L30.949,37.273C30.949,42.969 28.105,47.882 23.011,47.882C17.916,47.882 15.072,42.969 15.072,37.273L15.072,30.179ZM36.832,27.515C36.832,22.895 40.056,19.695 44.438,19.695C51.707,19.695 54.186,26.789 49.421,33.098L37.33,47.417L53.951,47.417" style="fill:none;stroke:rgb(244,244,244);stroke-width:2px;"/>
                    </g>
                </g>
            </g>
            <g id="g-root-ic_uplo_142d36c140r9qn-stroke" transform="matrix(1,0,0,1,470,386)">
                <g id="ic_uplo_142d36c140r9qn-stroke">
                    <g>
                        <path d="M37,47C37,52.523 41.477,57 47,57C52.523,57 57,52.523 57,47C57,41.477 52.523,37 47,37C41.477,37 37,41.477 37,47ZM47,43L47,51M43,47L47,43L51,47M11,41C11,34.373 16.373,29 23,29C29.627,29 35,34.373 35,41L11,41ZM15.5,18.5C15.5,22.642 18.858,26 23,26C27.142,26 30.5,22.642 30.5,18.5C30.5,14.358 27.142,11 23,11C18.858,11 15.5,14.358 15.5,18.5ZM34.5,18.5C34.5,22.642 37.858,26 42,26C46.142,26 49.5,22.642 49.5,18.5C49.5,14.358 46.142,11 42,11C37.858,11 34.5,14.358 34.5,18.5ZM48.94,31.21C45.111,28.493 40.05,28.259 35.986,30.61" style="fill:none;stroke:rgb(244,244,244);stroke-width:2px;"/>
                    </g>
                </g>
            </g>
            <g id="g-root-ic_48px_4njzv8140adql-stroke" transform="matrix(1,0,0,1,26,482)">
                <g id="ic_48px_4njzv8140adql-stroke">
                    <g>
                        <path d="M37.842,23.377L46.297,20.184L46.297,47.951M15.072,30.179C15.072,24.482 17.789,19.695 23.011,19.695C28.233,19.695 30.949,24.482 30.949,30.179L30.949,37.273C30.949,42.969 28.105,47.882 23.011,47.882C17.916,47.882 15.072,42.969 15.072,37.273L15.072,30.179Z" style="fill:none;stroke:rgb(244,244,244);stroke-width:2px;"/>
                    </g>
                </g>
            </g>
            <g id="g-root-ic_3_hte250140u1vl-stroke" transform="matrix(1,0,0,1,446,290)">
                <g id="ic_3_hte250140u1vl-stroke">
                    <g>
                        <path d="M14,21.636L20,21.636C21.2,21.636 22,20.836 22,19.636L22,13.536C22,12.336 21.2,11.536 20,11.536L14,11.536C12.8,11.536 12,12.336 12,13.536L12,19.636C12,20.636 12.8,21.636 14,21.636ZM48,21.636L54,21.636C55.2,21.636 56,20.836 56,19.636L56,13.536C56,12.336 55.2,11.536 54,11.536L48,11.536C46.8,11.536 46,12.336 46,13.536L46,19.636C46,20.636 46.8,21.636 48,21.636ZM22.038,17.05L25.961,17.05M41.9,17.05L45.987,17.05M32.6,17.05L34.6,17.05M13.092,26.188L14.234,27.83M53.691,26.188L52.549,27.83M23.332,40.917L24.474,42.559M43.451,40.917L42.309,42.559M18.023,33.281L19.165,34.923M48.76,33.281L47.618,34.923M28.8,33.5C31.4,30.9 35.8,30.9 38.4,33.5M24.3,28.9C29.5,23.7 37.7,23.7 42.9,28.9M33.6,38.3C33.379,38.3 33.2,38.121 33.2,37.9C33.2,37.679 33.379,37.5 33.6,37.5M33.6,38.3C33.821,38.3 34,38.121 34,37.9C34,37.679 33.821,37.5 33.6,37.5M30.6,56.473L36.6,56.473C37.8,56.473 38.6,55.673 38.6,54.473L38.6,48.373C38.6,47.173 37.8,46.373 36.6,46.373L30.6,46.373C29.4,46.373 28.6,47.173 28.6,48.373L28.6,54.473C28.6,55.473 29.4,56.473 30.6,56.473Z" style="fill:none;stroke:rgb(244,244,244);stroke-width:2px;"/>
                    </g>
                </g>
            </g>
        </g>
    </g>
    <defs>
        <linearGradient id="_Linear1" x1="0" y1="0" x2="1" y2="0" gradientUnits="userSpaceOnUse" gradientTransform="matrix(10,490,-490,10,0,0)"><stop offset="0" style="stop-color:rgb(149,149,149);stop-opacity:1"/><stop offset="1" style="stop-color:rgb(127,127,127);stop-opacity:1"/></linearGradient>
        <linearGradient id="_Linear2" x1="0" y1="0" x2="1" y2="0" gradientUnits="userSpaceOnUse" gradientTransform="matrix(10,490,-490,10,0,0)"><stop offset="0" style="stop-color:rgb(149,149,149);stop-opacity:1"/><stop offset="1" style="stop-color:rgb(127,127,127);stop-opacity:1"/></linearGradient>
        <linearGradient id="_Linear3" x1="0" y1="0" x2="1" y2="0" gradientUnits="userSpaceOnUse" gradientTransform="matrix(10,106,-106,10,-1.77636e-15,0)"><stop offset="0" style="stop-color:rgb(78,136,230);stop-opacity:1"/><stop offset="1" style="stop-color:rgb(79,126,202);stop-opacity:1"/></linearGradient>
        <linearGradient id="_Linear4" x1="0" y1="0" x2="1" y2="0" gradientUnits="userSpaceOnUse" gradientTransform="matrix(10,106,-106,10,0,0)"><stop offset="0" style="stop-color:rgb(59,196,130);stop-opacity:1"/><stop offset="1" style="stop-color:rgb(68,152,112);stop-opacity:1"/></linearGradient>
        <linearGradient id="_Linear5" x1="0" y1="0" x2="1" y2="0" gradientUnits="userSpaceOnUse" gradientTransform="matrix(10,106,-106,10,0,0)"><stop offset="0" style="stop-color:rgb(145,187,57);stop-opacity:1"/><stop offset="1" style="stop-color:rgb(125,152,68);stop-opacity:1"/></linearGradient>
        <linearGradient id="_Linear6" x1="0" y1="0" x2="1" y2="0" gradientUnits="userSpaceOnUse" gradientTransform="matrix(10,106,-106,10,0,0)"><stop offset="0" style="stop-color:rgb(31,169,215);stop-opacity:1"/><stop offset="1" style="stop-color:rgb(49,135,163);stop-opacity:1"/></linearGradient>
        <linearGradient id="_Linear7" x1="0" y1="0" x2="1" y2="0" gradientUnits="userSpaceOnUse" gradientTransform="matrix(10,106,-106,10,0,0)"><stop offset="0" style="stop-color:rgb(221,201,22);stop-opacity:1"/><stop offset="1" style="stop-color:rgb(169,156,44);stop-opacity:1"/></linearGradient>
    </defs>
</svg>
