<?xml version="1.0" encoding="UTF-8" standalone="no"?>
<!DOCTYPE svg PUBLIC "-//W3C//DTD SVG 1.1//EN" "http://www.w3.org/Graphics/SVG/1.1/DTD/svg11.dtd">
<svg width="100%" height="100%" viewBox="0 0 576 683" version="1.1" xmlns="http://www.w3.org/2000/svg" xmlns:xlink="http://www.w3.org/1999/xlink" xml:space="preserve" xmlns:serif="http://www.serif.com/" style="fill-rule:evenodd;clip-rule:evenodd;stroke-linecap:round;stroke-linejoin:round;">
    <g id="items" transform="matrix(1.0975,0,0,1.0975,-28.0801,-44.5152)">
        <g id="blend">
            <g id="g-root-cp_9_text-9_zpo4tw16i9kw5-fill" transform="matrix(1,0,0,1,50,62)">
                <g id="cp_9_text-9_zpo4tw16i9kw5-fill">
                    <g>
                        <rect x="10" y="10" width="228" height="84" style="fill:rgb(135,105,253);"/>
                    </g>
                </g>
            </g>
            <g id="g-root-cp_9_stick-9_93dl6c16i9kw7-fill" transform="matrix(1,0,0,1,272,146)">
                <g id="cp_9_stick-9_93dl6c16i9kw7-fill">
                    <g>
                        <rect x="10" y="10" width="5.997" height="420" style="fill:rgb(135,105,253);"/>
                    </g>
                </g>
            </g>
            <g id="g-root-cp_7_text-7_1utnlv816i9j49-fill" transform="matrix(1,0,0,1,44,146)">
                <g id="cp_7_text-7_1utnlv816i9j49-fill">
                    <g>
                        <rect x="10" y="10" width="228" height="108" style="fill:rgb(203,104,249);"/>
                    </g>
                </g>
            </g>
            <g id="g-root-cp_7_stick-7_147d27o16i9j4b-fill" transform="matrix(1,0,0,1,266,254)">
                <g id="cp_7_stick-7_147d27o16i9j4b-fill">
                    <g>
                        <rect x="10" y="10" width="5.997" height="312" style="fill:rgb(203,104,249);"/>
                    </g>
                </g>
            </g>
            <g id="g-root-cp_5_text-5_mg31pw16i9lhh-fill" transform="matrix(1,0,0,1,38,254)">
                <g id="cp_5_text-5_mg31pw16i9lhh-fill">
                    <g>
                        <rect x="10" y="10" width="228" height="108" style="fill:rgb(247,148,56);"/>
                    </g>
                </g>
            </g>
            <g id="g-root-cp_5_stick-5_9m06s16i9kpb-fill" transform="matrix(1,0,0,1,260,362)">
                <g id="cp_5_stick-5_9m06s16i9kpb-fill">
                    <g>
                        <rect x="10" y="10" width="5.997" height="204" style="fill:rgb(247,148,56);"/>
                    </g>
                </g>
            </g>
            <g id="g-root-cp_3_text-3_1q5pxmc16iaxhd-fill" transform="matrix(1,0,0,1,32,362)">
                <g id="cp_3_text-3_1q5pxmc16iaxhd-fill">
                    <g>
                        <rect x="10" y="10" width="228" height="84" style="fill:rgb(26,195,251);"/>
                    </g>
                </g>
            </g>
            <g id="g-root-cp_3_stick-3_1cu9f9016iaz2b-fill" transform="matrix(1,0,0,1,254,446)">
                <g id="cp_3_stick-3_1cu9f9016iaz2b-fill">
                    <g>
                        <rect x="10" y="10" width="5.997" height="120" style="fill:rgb(26,195,251);"/>
                    </g>
                </g>
            </g>
            <g id="g-root-cp_1_text-1_zjfdys16iaxhh-fill" transform="matrix(1,0,0,1,26,446)">
                <g id="cp_1_text-1_zjfdys16iaxhh-fill">
                    <g>
                        <rect x="10" y="10" width="228" height="84" style="fill:rgb(251,103,98);"/>
                    </g>
                </g>
            </g>
            <g id="g-root-cp_1_stick-1_dcbvck16iazv3-fill" transform="matrix(1,0,0,1,247.997,529)">
                <g id="cp_1_stick-1_dcbvck16iazv3-fill">
                    <g>
                        <rect x="10.003" y="11" width="5.997" height="36" style="fill:rgb(251,103,98);"/>
                    </g>
                </g>
            </g>
            <g id="g-root-cp_10_text-10_8x4ub816iaxhl-fill" transform="matrix(1,0,0,1,278,50)">
                <g id="cp_10_text-10_8x4ub816iaxhl-fill">
                    <g>
                        <rect x="10" y="10" width="228" height="108" style="fill:rgb(183,183,183);"/>
                    </g>
                </g>
            </g>
            <g id="g-root-cp_10_stick-10_1q6yvsk16iaznn-fill" transform="matrix(1,0,0,1,278.003,158)">
                <g id="cp_10_stick-10_1q6yvsk16iaznn-fill">
                    <g>
                        <rect x="10" y="10" width="5.997" height="408" style="fill:rgb(183,183,183);"/>
                    </g>
                </g>
            </g>
            <g id="g-root-cp_8_text-8_1cw4uic16iay2t-fill" transform="matrix(1,0,0,1,284,158)">
                <g id="cp_8_text-8_1cw4uic16iay2t-fill">
                    <g>
                        <rect x="10" y="10" width="228" height="108" style="fill:rgb(166,218,55);"/>
                    </g>
                </g>
            </g>
            <g id="g-root-cp_8_stick-8_zkoc5016iaznr-fill" transform="matrix(1,0,0,1,284.003,266)">
                <g id="cp_8_stick-8_zkoc5016iaznr-fill">
                    <g>
                        <rect x="10" y="10" width="5.997" height="300" style="fill:rgb(166,218,55);"/>
                    </g>
                </g>
            </g>
            <g id="g-root-cp_6_text-6_v5hb3o16iaxa9-fill" transform="matrix(1,0,0,1,290,266)">
                <g id="cp_6_text-6_v5hb3o16iaxa9-fill">
                    <g>
                        <rect x="10" y="10" width="228" height="84" style="fill:rgb(243,102,187);"/>
                    </g>
                </g>
            </g>
            <g id="g-root-cp_6_stick-6_8ydshg16iaznv-fill" transform="matrix(1,0,0,1,290.003,350)">
                <g id="cp_6_stick-6_8ydshg16iaznv-fill">
                    <g>
                        <rect x="10" y="10" width="5.997" height="216" style="fill:rgb(243,102,187);"/>
                    </g>
                </g>
            </g>
            <g id="g-root-cp_4_text-4_4j6rg416iaxad-fill" transform="matrix(1,0,0,1,296,350)">
                <g id="cp_4_text-4_4j6rg416iaxad-fill">
                    <g>
                        <rect x="10" y="10" width="228" height="84" style="fill:rgb(255,231,17);"/>
                    </g>
                </g>
            </g>
            <g id="g-root-cp_4_stick-4_1cy09ro16iax3b-fill" transform="matrix(1,0,0,1,296.003,434)">
                <g id="cp_4_stick-4_1cy09ro16iax3b-fill">
                    <g>
                        <rect x="10" y="10" width="5.997" height="132" style="fill:rgb(255,231,17);"/>
                    </g>
                </g>
            </g>
            <g id="g-root-cp_2_text-2_zmjrec16iayo9-fill" transform="matrix(1,0,0,1,302,434)">
                <g id="cp_2_text-2_zmjrec16iayo9-fill">
                    <g>
                        <rect x="10" y="10" width="228" height="84" style="fill:rgb(67,221,147);"/>
                    </g>
                </g>
            </g>
            <g id="g-root-cp_2_stick-2_mbpq4416iax3f-fill" transform="matrix(1,0,0,1,302.003,517)">
                <g id="cp_2_stick-2_mbpq4416iax3f-fill">
                    <g>
                        <rect x="10" y="10" width="5.997" height="49" style="fill:rgb(67,221,147);"/>
                    </g>
                </g>
            </g>
            <g id="g-root-cp_0_g-0_9097qs16iayod-fill" transform="matrix(1,0,0,1,248,566)">
                <g id="cp_0_g-0_9097qs16iayod-fill">
                    <g>
                        <path d="M30,58L40.001,82.001L50.001,58L30,58Z" style="fill:rgb(232,232,232);"/>
                    </g>
                </g>
                <g id="cp_0_g-0_9097qs16iayod-fill1" serif:id="cp_0_g-0_9097qs16iayod-fill">
                    <g>
                        <path d="M70.001,10L10,10L30,57.999L50.001,57.999L70.001,10Z" style="fill:rgb(232,232,232);"/>
                    </g>
                </g>
            </g>
            <g id="g-root-tx_bankingf_qp1bw416ids0f-fill" transform="matrix(1,0,0,1,110,266)">
                <g id="tx_bankingf_qp1bw416ids0f-fill">
                    <g>
                        <g>
                            <g transform="matrix(1,0,0,1,12.57,34)">
                                <text x="0px" y="0px" style="font-family:'Arial-BoldMT', 'Arial', sans-serif;font-weight:700;font-size:20px;fill:rgb(44,44,44);">Banking &amp;</text>
                            </g>
                            <g transform="matrix(1,0,0,1,33.37,58)">
                                <text x="0px" y="0px" style="font-family:'Arial-BoldMT', 'Arial', sans-serif;font-weight:700;font-size:20px;fill:rgb(44,44,44);">Finance</text>
                            </g>
                        </g>
                    </g>
                </g>
            </g>
            <g id="g-root-tx__24b5g16ii03o-fill">
            </g>
            <g id="g-root-tx__dg2pv816icc1x-fill">
            </g>
            <g transform="matrix(1,0,0,1,362,312)">
                <g id="g-root-tx_retail_1uua2yc16ihyby-fill">
                    <g id="tx_retail_1uua2yc16ihyby-fill">
                        <g>
                            <g>
                                <text x="0px" y="0px" style="font-family:'Arial-BoldMT', 'Arial', sans-serif;font-weight:700;font-size:20px;fill:rgb(44,44,44);">Retail</text>
                            </g>
                        </g>
                    </g>
                </g>
            </g>
            <g id="g-root-tx__1uo1c3816idslk-fill">
            </g>
            <g id="g-root-tx__147zjas16ihybz-fill">
            </g>
            <g id="g-root-tx_travelho_13zvd6c16ihyir-fill" transform="matrix(1,0,0,1,344,170)">
                <g id="tx_travelho_13zvd6c16ihyir-fill">
                    <g>
                        <g>
                            <g transform="matrix(1,0,0,1,12,34)">
                                <text x="0px" y="0px" style="font-family:'Arial-BoldMT', 'Arial', sans-serif;font-weight:700;font-size:20px;fill:rgb(44,44,44);">T<tspan x="11.113px 18.896px " y="0px 0px ">ra</tspan>vel &amp;</text>
                            </g>
                            <g transform="matrix(1,0,0,1,12,58)">
                                <text x="0px" y="0px" style="font-family:'Arial-BoldMT', 'Arial', sans-serif;font-weight:700;font-size:20px;fill:rgb(44,44,44);">Hospitality</text>
                            </g>
                        </g>
                    </g>
                </g>
            </g>
            <g transform="matrix(1,0,0,1,120.92,408)">
                <g id="g-root-tx_itsaas_94mjck16idssi-fill">
                    <g id="tx_itsaas_94mjck16idssi-fill">
                        <g>
                            <g>
                                <text x="0px" y="0px" style="font-family:'Arial-BoldMT', 'Arial', sans-serif;font-weight:700;font-size:20px;fill:rgb(44,44,44);">IT &amp; SaaS</text>
                            </g>
                        </g>
                    </g>
                </g>
            </g>
            <g id="g-root-tx_corporat_1uont6c16icc1w-fill" transform="matrix(1,0,0,1,104,158)">
                <g id="tx_corporat_1uont6c16icc1w-fill">
                    <g>
                        <g>
                            <g transform="matrix(1,0,0,1,26.52,34)">
                                <text x="0px" y="0px" style="font-family:'Arial-BoldMT', 'Arial', sans-serif;font-weight:700;font-size:20px;fill:rgb(44,44,44);">Corporate</text>
                            </g>
                            <g transform="matrix(1,0,0,1,13.45,58)">
                                <text x="0px" y="0px" style="font-family:'Arial-BoldMT', 'Arial', sans-serif;font-weight:700;font-size:20px;fill:rgb(44,44,44);">Enterprises</text>
                            </g>
                        </g>
                    </g>
                </g>
            </g>
            <g transform="matrix(1,0,0,1,368,396)">
                <g id="g-root-tx_educatio_1448os416ijeh5-fill">
                    <g id="tx_educatio_1448os416ijeh5-fill">
                        <g>
                            <g>
                                <text x="0px" y="0px" style="font-family:'Arial-BoldMT', 'Arial', sans-serif;font-weight:700;font-size:20px;fill:rgb(44,44,44);">Education</text>
                            </g>
                        </g>
                    </g>
                </g>
            </g>
            <g id="g-root-tx__v2zer816if6dn-fill">
            </g>
            <g id="g-root-tx__924n0416ijf9e-fill">
            </g>
            <g id="g-root-tx__zn68hg16igmbl-fill">
            </g>
            <g transform="matrix(1,0,0,1,92.4,492)">
                <g id="g-root-tx_callcent_1lw56d016if4sl-fill">
                    <g id="tx_callcent_1lw56d016if4sl-fill">
                        <g>
                            <g>
                                <text x="0px" y="0px" style="font-family:'Arial-BoldMT', 'Arial', sans-serif;font-weight:700;font-size:20px;fill:rgb(44,44,44);">Call Centers</text>
                            </g>
                        </g>
                    </g>
                </g>
            </g>
            <g id="g-root-tx__1hgy5bo16iaxhm-fill">
            </g>
            <g id="g-root-tx_governme_4jt8j816igkxs-fill" transform="matrix(1,0,0,1,338,62)">
                <g id="tx_governme_4jt8j816igkxs-fill">
                    <g>
                        <g>
                            <g transform="matrix(1,0,0,1,12,34)">
                                <text x="0px" y="0px" style="font-family:'Arial-BoldMT', 'Arial', sans-serif;font-weight:700;font-size:20px;fill:rgb(44,44,44);">Government</text>
                            </g>
                            <g transform="matrix(1,0,0,1,12,58)">
                                <text x="0px" y="0px" style="font-family:'Arial-BoldMT', 'Arial', sans-serif;font-weight:700;font-size:20px;fill:rgb(44,44,44);">Agencies</text>
                            </g>
                        </g>
                    </g>
                </g>
            </g>
            <g transform="matrix(1,0,0,1,374,480)">
                <g id="g-root-tx_healthca_3d9bo16ikt1g-fill">
                    <g id="tx_healthca_3d9bo16ikt1g-fill">
                        <g>
                            <g>
                                <text x="0px" y="0px" style="font-family:'Arial-BoldMT', 'Arial', sans-serif;font-weight:700;font-size:20px;fill:rgb(44,44,44);">Healthcare</text>
                            </g>
                        </g>
                    </g>
                </g>
            </g>
            <g id="g-root-tx__92r43816if766-fill">
            </g>
            <g id="g-root-tx__zmjrec16iktn1-fill">
            </g>
            <g transform="matrix(1,0,0,1,93.87,108)">
                <g id="g-root-tx_manufact_mcyoac16iaz9l-fill">
                    <g id="tx_manufact_mcyoac16iaz9l-fill">
                        <g>
                            <g>
                                <text x="0px" y="0px" style="font-family:'Arial-BoldMT', 'Arial', sans-serif;font-weight:700;font-size:20px;fill:rgb(44,44,44);">Manufacturing</text>
                            </g>
                        </g>
                    </g>
                </g>
            </g>
            <g id="g-root-cp_9_text-9_zpo4tw16i9kw5-stroke" transform="matrix(1,0,0,1,50,62)">
                <g id="cp_9_text-9_zpo4tw16i9kw5-stroke">
                    <g>
                        <path d="M10,94L10,10L238,10L238,94" style="fill:none;stroke:rgb(44,44,44);stroke-width:2px;"/>
                    </g>
                </g>
            </g>
            <g id="g-root-cp_9_stick-9_93dl6c16i9kw7-stroke" transform="matrix(1,0,0,1,272,146)">
                <g id="cp_9_stick-9_93dl6c16i9kw7-stroke">
                    <g>
                        <path d="M15.997,430L15.997,10" style="fill:none;stroke:rgb(44,44,44);stroke-width:2px;"/>
                    </g>
                </g>
            </g>
            <g id="g-root-cp_7_text-7_1utnlv816i9j49-stroke" transform="matrix(1,0,0,1,44,146)">
                <g id="cp_7_text-7_1utnlv816i9j49-stroke">
                    <g>
                        <path d="M10,118L10,10L238,10L238,118" style="fill:none;stroke:rgb(44,44,44);stroke-width:2px;"/>
                    </g>
                </g>
            </g>
            <g id="g-root-cp_7_stick-7_147d27o16i9j4b-stroke" transform="matrix(1,0,0,1,266,254)">
                <g id="cp_7_stick-7_147d27o16i9j4b-stroke">
                    <g>
                        <path d="M15.997,322L15.997,10" style="fill:none;stroke:rgb(44,44,44);stroke-width:2px;"/>
                    </g>
                </g>
            </g>
            <g id="g-root-cp_5_text-5_mg31pw16i9lhh-stroke" transform="matrix(1,0,0,1,38,254)">
                <g id="cp_5_text-5_mg31pw16i9lhh-stroke">
                    <g>
                        <path d="M10,118L10,10L238,10L238,118" style="fill:none;stroke:rgb(44,44,44);stroke-width:2px;"/>
                    </g>
                </g>
            </g>
            <g id="g-root-cp_5_stick-5_9m06s16i9kpb-stroke" transform="matrix(1,0,0,1,260,362)">
                <g id="cp_5_stick-5_9m06s16i9kpb-stroke">
                    <g>
                        <path d="M15.997,214L15.997,10" style="fill:none;stroke:rgb(44,44,44);stroke-width:2px;"/>
                    </g>
                </g>
            </g>
            <g id="g-root-cp_3_text-3_1q5pxmc16iaxhd-stroke" transform="matrix(1,0,0,1,32,362)">
                <g id="cp_3_text-3_1q5pxmc16iaxhd-stroke">
                    <g>
                        <path d="M10,94L10,10L238,10L238,94" style="fill:none;stroke:rgb(44,44,44);stroke-width:2px;"/>
                    </g>
                </g>
            </g>
            <g id="g-root-cp_3_stick-3_1cu9f9016iaz2b-stroke" transform="matrix(1,0,0,1,254,446)">
                <g id="cp_3_stick-3_1cu9f9016iaz2b-stroke">
                    <g>
                        <path d="M15.997,130L15.997,10" style="fill:none;stroke:rgb(44,44,44);stroke-width:2px;"/>
                    </g>
                </g>
            </g>
            <g id="g-root-cp_1_text-1_zjfdys16iaxhh-stroke" transform="matrix(1,0,0,1,26,446)">
                <g id="cp_1_text-1_zjfdys16iaxhh-stroke">
                    <g>
                        <path d="M238,94L238,10L10,10L10,94L232.5,94" style="fill:none;stroke:rgb(44,44,44);stroke-width:2px;"/>
                    </g>
                </g>
            </g>
            <g id="g-root-cp_1_stick-1_dcbvck16iazv3-stroke" transform="matrix(1,0,0,1,247.997,529)">
                <g id="cp_1_stick-1_dcbvck16iazv3-stroke">
                    <g>
                        <path d="M16,47L16,11M10,47L10,10" style="fill:none;stroke:rgb(44,44,44);stroke-width:2px;"/>
                    </g>
                </g>
            </g>
            <g id="g-root-cp_10_text-10_8x4ub816iaxhl-stroke" transform="matrix(1,0,0,1,278,50)">
                <g id="cp_10_text-10_8x4ub816iaxhl-stroke">
                    <g>
                        <path d="M238,118L238,10L10,10L10,118" style="fill:none;stroke:rgb(44,44,44);stroke-width:2px;"/>
                    </g>
                </g>
            </g>
            <g id="g-root-cp_10_stick-10_1q6yvsk16iaznn-stroke" transform="matrix(1,0,0,1,278.003,158)">
                <g id="cp_10_stick-10_1q6yvsk16iaznn-stroke">
                    <g>
                        <path d="M10.001,418L10.001,10" style="fill:none;stroke:rgb(44,44,44);stroke-width:2px;"/>
                    </g>
                </g>
            </g>
            <g id="g-root-cp_8_text-8_1cw4uic16iay2t-stroke" transform="matrix(1,0,0,1,284,158)">
                <g id="cp_8_text-8_1cw4uic16iay2t-stroke">
                    <g>
                        <path d="M238,118L238,10L10,10L10,118" style="fill:none;stroke:rgb(44,44,44);stroke-width:2px;"/>
                    </g>
                </g>
            </g>
            <g id="g-root-cp_8_stick-8_zkoc5016iaznr-stroke" transform="matrix(1,0,0,1,284.003,266)">
                <g id="cp_8_stick-8_zkoc5016iaznr-stroke">
                    <g>
                        <path d="M10.001,310L10.001,10" style="fill:none;stroke:rgb(44,44,44);stroke-width:2px;"/>
                    </g>
                </g>
            </g>
            <g id="g-root-cp_6_text-6_v5hb3o16iaxa9-stroke" transform="matrix(1,0,0,1,290,266)">
                <g id="cp_6_text-6_v5hb3o16iaxa9-stroke">
                    <g>
                        <path d="M238,94L238,10L10,10L10,94" style="fill:none;stroke:rgb(44,44,44);stroke-width:2px;"/>
                    </g>
                </g>
            </g>
            <g id="g-root-cp_6_stick-6_8ydshg16iaznv-stroke" transform="matrix(1,0,0,1,290.003,350)">
                <g id="cp_6_stick-6_8ydshg16iaznv-stroke">
                    <g>
                        <path d="M10.001,226L10.001,10" style="fill:none;stroke:rgb(44,44,44);stroke-width:2px;"/>
                    </g>
                </g>
            </g>
            <g id="g-root-cp_4_text-4_4j6rg416iaxad-stroke" transform="matrix(1,0,0,1,296,350)">
                <g id="cp_4_text-4_4j6rg416iaxad-stroke">
                    <g>
                        <path d="M238,94L238,10L10,10L10,94" style="fill:none;stroke:rgb(44,44,44);stroke-width:2px;"/>
                    </g>
                </g>
            </g>
            <g id="g-root-cp_4_stick-4_1cy09ro16iax3b-stroke" transform="matrix(1,0,0,1,296.003,434)">
                <g id="cp_4_stick-4_1cy09ro16iax3b-stroke">
                    <g>
                        <path d="M10.001,142L10.001,10" style="fill:none;stroke:rgb(44,44,44);stroke-width:2px;"/>
                    </g>
                </g>
            </g>
            <g id="g-root-cp_2_text-2_zmjrec16iayo9-stroke" transform="matrix(1,0,0,1,302,434)">
                <g id="cp_2_text-2_zmjrec16iayo9-stroke">
                    <g>
                        <path d="M10,94L10,10L238,10L238,94L15.5,94" style="fill:none;stroke:rgb(44,44,44);stroke-width:2px;"/>
                    </g>
                </g>
            </g>
            <g id="g-root-cp_2_stick-2_mbpq4416iax3f-stroke" transform="matrix(1,0,0,1,302.003,517)">
                <g id="cp_2_stick-2_mbpq4416iax3f-stroke">
                    <g>
                        <path d="M10.001,59L10.001,10M15.997,59L15.997,10" style="fill:none;stroke:rgb(44,44,44);stroke-width:2px;"/>
                    </g>
                </g>
            </g>
            <g id="g-root-cp_0_g-0_9097qs16iayod-stroke" transform="matrix(1,0,0,1,248,566)">
                <g id="cp_0_g-0_9097qs16iayod-stroke">
                    <g>
                        <path d="M30,58L40.001,82.001L50.001,58L30,58Z" style="fill:none;stroke:rgb(44,44,44);stroke-width:2px;"/>
                    </g>
                </g>
                <g id="cp_0_g-0_9097qs16iayod-stroke1" serif:id="cp_0_g-0_9097qs16iayod-stroke">
                    <g>
                        <path d="M70.001,10L10,10L30,57.999L50.001,57.999L70.001,10Z" style="fill:none;stroke:rgb(44,44,44);stroke-width:2px;"/>
                    </g>
                </g>
            </g>
            <g id="g-root-ic_mess_zmjrec16idq81-stroke" transform="matrix(1,0,0,1,218,266)">
                <g id="ic_mess_zmjrec16idq81-stroke">
                    <g>
                        <path d="M35.907,21.203L35.907,22.703M35.907,13.704L35.907,15.204M32.907,21.203L37.407,21.203C38.235,21.203 38.907,20.532 38.907,19.703C38.907,18.875 38.235,18.203 37.407,18.203L34.407,18.203C33.578,18.203 32.907,17.532 32.907,16.703C32.907,15.875 33.578,15.204 34.407,15.204L38.907,15.204M44.907,24.203C44.907,25.032 44.235,25.703 43.407,25.703L35.157,25.703L29.907,30.203L29.907,25.703L28.407,25.703C27.578,25.703 26.907,25.032 26.907,24.203L26.907,12.204C26.907,11.375 27.578,10.704 28.407,10.704L43.407,10.704C44.235,10.704 44.907,11.375 44.907,12.204L44.907,24.203ZM27.657,45.203L22.407,42.953L22.407,39.953C22.407,39.953 23.706,39.428 23.706,36.203C24.73,36.203 25.12,33.203 23.694,33.203C24.31,32.334 24.548,31.252 24.354,30.204C23.617,27.203 16.357,27.203 15.622,30.203C12.523,29.558 14.989,32.772 14.989,33.203C13.516,33.203 13.516,36.203 14.989,36.203C14.989,39.428 16.407,39.953 16.407,39.953L16.407,42.953L11.157,45.203" style="fill:none;stroke:rgb(44,44,44);stroke-width:2px;"/>
                    </g>
                </g>
            </g>
            <g id="g-root-ic_bari_1uljfqs16ijf2g-stroke" transform="matrix(1,0,0,1,302,278)">
                <g id="ic_bari_1uljfqs16ijf2g-stroke">
                    <g>
                        <path d="M10.75,45.25L10.75,39.25C10.75,38.422 11.422,37.75 12.25,37.75L43.75,37.75C44.578,37.75 45.25,38.422 45.25,39.25L45.25,45.25M12.25,37.75L12.25,36.25C12.25,35.422 12.922,34.75 13.75,34.75L25.75,34.75C26.578,34.75 27.25,35.422 27.25,36.25L27.25,37.75M13.75,34.75L13.75,27.25C13.75,26.422 14.422,25.75 15.25,25.75L22.285,25.75C23.009,25.735 23.64,26.24 23.785,26.95L25.405,34.75M16.75,25.75L16.75,22.75M14.5,19.75L19,19.75C19,19.75 19.75,19.75 19.75,20.5L19.75,22C19.75,22 19.75,22.75 19,22.75L14.5,22.75C14.5,22.75 13.75,22.75 13.75,22L13.75,20.5C13.75,20.5 13.75,19.75 14.5,19.75M17.5,28.75L20.5,28.75M31.375,15.625C31.375,18.317 33.558,20.5 36.25,20.5C38.942,20.5 41.125,18.317 41.125,15.625C41.125,12.933 38.942,10.75 36.25,10.75C33.558,10.75 31.375,12.933 31.375,15.625M28,15.25L40.99,15.25M31.75,23.95L31.75,33.25M40.75,23.95L40.75,33.25M34.75,31.75L37.75,31.75M45.25,33.25L45.25,31.75C45.25,26.779 41.221,22.75 36.25,22.75C31.279,22.75 27.25,26.779 27.25,31.75M39.865,23.5C39.546,25.246 38.025,26.514 36.25,26.514C34.475,26.514 32.954,25.246 32.635,23.5" style="fill:none;stroke:rgb(44,44,44);stroke-width:2px;"/>
                    </g>
                </g>
            </g>
            <g id="g-root-ic_bell_v63s6s16ihybp-stroke" transform="matrix(1,0,0,1,296,170)">
                <g id="ic_bell_v63s6s16ihybp-stroke">
                    <g>
                        <path d="M27.25,31.75L27.25,31C27.25,26.858 23.892,23.5 19.75,23.5C15.608,23.5 12.25,26.858 12.25,31L12.25,31.75M25,15.25C25.017,15.5 25.017,15.75 25,16C25,18.899 22.649,21.25 19.75,21.25C16.851,21.25 14.5,18.899 14.5,16C14.5,15.793 14.477,15.45 14.5,15.25M11.5,31.75L44.5,31.75C44.5,31.75 45.25,31.75 45.25,32.5L45.25,44.5C45.25,44.5 45.25,45.25 44.5,45.25L11.5,45.25C11.5,45.25 10.75,45.25 10.75,44.5L10.75,32.5C10.75,32.5 10.75,31.75 11.5,31.75M33.25,31.75C33.25,29.265 35.265,27.25 37.75,27.25C40.235,27.25 42.25,29.265 42.25,31.75L33.25,31.75ZM25,15.25C21.572,14.25 17.929,14.25 14.5,15.25L14.5,12.25C14.5,11.422 15.172,10.75 16,10.75L23.5,10.75C24.328,10.75 25,11.422 25,12.25L25,15.25ZM20.125,26.125C20.125,26.332 19.957,26.5 19.75,26.5C19.543,26.5 19.375,26.332 19.375,26.125C19.375,25.918 19.543,25.75 19.75,25.75C19.957,25.75 20.125,25.918 20.125,26.125M20.125,29.5C20.125,29.707 19.957,29.875 19.75,29.875C19.543,29.875 19.375,29.707 19.375,29.5C19.375,29.293 19.543,29.125 19.75,29.125C19.957,29.125 20.125,29.293 20.125,29.5M36.25,24.25L39.25,24.25M37.75,24.25L37.75,27.25M25.75,42.25L25.75,36.25M31.75,42.25L31.75,36.25M25.75,39.25L31.75,39.25" style="fill:none;stroke:rgb(44,44,44);stroke-width:2px;"/>
                    </g>
                </g>
            </g>
            <g id="g-root-ic_even_1cz97xw16iccni-stroke" transform="matrix(1,0,0,1,224,158)">
                <g id="ic_even_1cz97xw16iccni-stroke">
                    <g>
                        <path d="M19.435,20.527C20.73,20.527 21.779,19.477 21.779,18.182C21.779,16.888 20.73,15.838 19.435,15.838C18.14,15.838 17.09,16.888 17.09,18.182C17.09,19.477 18.14,20.527 19.435,20.527ZM19.435,33.565C20.73,33.565 21.779,32.516 21.779,31.221C21.779,29.926 20.73,28.876 19.435,28.876C18.14,28.876 17.09,29.926 17.09,31.221C17.09,32.516 18.14,33.565 19.435,33.565ZM37.872,34.963C39.739,34.963 41.252,33.45 41.252,31.583C41.252,29.716 39.739,28.203 37.872,28.203C36.005,28.203 34.492,29.716 34.492,31.583C34.492,33.45 36.005,34.963 37.872,34.963ZM35.527,20.527C36.822,20.527 37.872,19.477 37.872,18.182C37.872,16.888 36.822,15.838 35.527,15.838C34.233,15.838 33.183,16.888 33.183,18.182C33.183,19.477 34.233,20.527 35.527,20.527ZM23.537,24.63C23.537,23.542 23.105,22.498 22.336,21.729C21.566,20.959 20.523,20.527 19.435,20.527C18.347,20.527 17.303,20.959 16.534,21.729C15.764,22.498 15.332,23.542 15.332,24.63M23.537,37.668C23.537,36.58 23.105,35.536 22.336,34.767C21.566,33.998 20.523,33.565 19.435,33.565C18.347,33.565 17.303,33.998 16.534,34.767C15.764,35.536 15.332,36.58 15.332,37.668M44.133,44.409C44.133,42.748 43.473,41.155 42.299,39.981C41.125,38.807 39.532,38.147 37.872,38.147C36.211,38.147 34.619,38.807 33.445,39.981C32.27,41.155 31.611,42.748 31.611,44.409M38.428,21.729C37.659,20.959 36.615,20.527 35.527,20.527C34.439,20.527 33.396,20.959 32.626,21.729C31.857,22.498 31.425,23.542 31.425,24.63M42.833,24.089L42.833,13.091C42.833,12.263 42.162,11.591 41.333,11.591L13.367,11.591C12.539,11.591 11.867,12.263 11.867,13.091L11.867,36.168C11.867,36.997 12.539,37.668 13.367,37.668L29.461,37.668M27.35,11.591L27.35,37.668M11.867,24.63L34.684,24.63" style="fill:none;stroke:rgb(44,44,44);stroke-width:2px;"/>
                    </g>
                </g>
            </g>
            <g id="g-root-ic_2_4gov3o16if6do-stroke" transform="matrix(1,0,0,1,212,374)">
                <g id="ic_2_4gov3o16if6do-stroke">
                    <g>
                        <path d="M28.75,44.875C33.721,44.875 37.75,40.846 37.75,35.875C37.75,30.904 33.721,26.875 28.75,26.875C23.78,26.875 19.75,30.904 19.75,35.875C19.75,40.846 23.78,44.875 28.75,44.875ZM28.75,40.375L28.75,36.625C28.75,36.175 28.45,35.875 28,35.875L26.5,35.875M26.5,40.375L31,40.375M42.038,31.975C43.68,30.625 44.875,28.525 44.875,26.275C44.875,22.225 41.59,18.925 37.558,18.925C36.064,18.925 34.571,19.375 33.376,20.275C32.331,15.025 27.851,11.125 22.325,11.125C16.202,11.125 11.125,16.225 11.125,22.375C11.125,26.125 13.066,29.575 15.904,31.675M28.223,32.944C28.952,32.944 29.543,32.353 29.543,31.624C29.543,30.895 28.952,30.304 28.223,30.304C27.494,30.304 26.903,30.895 26.903,31.624C26.903,32.353 27.494,32.944 28.223,32.944Z" style="fill:none;stroke:rgb(44,44,44);stroke-width:2px;"/>
                    </g>
                </g>
            </g>
            <g id="g-root-ic_woma_146441g16ijdhf-stroke" transform="matrix(1,0,0,1,308,362)">
                <g id="ic_woma_146441g16ijdhf-stroke">
                    <g>
                        <path d="M22.867,40.713C25.129,40.952 27.4,40.35 29.245,39.021C28.281,38.056 27.618,37.45 27.364,33.71C26.986,28.136 23.227,26.176 19.997,26.176C16.768,26.176 13.008,28.136 12.631,33.71C12.378,37.45 11.714,38.05 10.75,39.021C12.606,40.356 14.891,40.958 17.164,40.711M28.012,44.5C26.731,43.97 25.216,43.429 23.57,42.82C23.126,42.655 22.831,42.232 22.831,41.758L22.831,39.688C22.831,39.37 22.964,39.066 23.199,38.851C24.054,38.072 24.538,36.966 24.531,35.809L24.531,32.976C22.757,32.703 21.145,31.791 19.998,30.412C18.85,31.791 17.238,32.703 15.464,32.976L15.464,35.809C15.457,36.966 15.94,38.072 16.795,38.851C17.03,39.066 17.164,39.37 17.164,39.688L17.164,41.758C17.164,42.232 16.868,42.656 16.423,42.82C14.773,43.429 13.264,43.97 11.983,44.5M29.125,17.125C29.125,18.575 30.3,19.75 31.75,19.75C33.2,19.75 34.375,18.575 34.375,17.125C34.375,15.675 33.2,14.5 31.75,14.5C30.3,14.5 29.125,15.675 29.125,17.125L29.125,17.125ZM37,25C36.388,22.6 34.227,20.921 31.75,20.921C29.273,20.921 27.112,22.6 26.5,25M42.25,28L42.25,13C42.25,12.172 41.578,11.5 40.75,11.5L21.25,11.5C20.422,11.5 19.75,12.172 19.75,13L19.75,22.75M29.5,28L45.25,28C45.25,29.657 43.907,31 42.25,31L29.5,31" style="fill:none;stroke:rgb(44,44,44);stroke-width:2px;"/>
                    </g>
                </g>
            </g>
            <g id="g-root-ic_3_5v5o416igjyi-stroke" transform="matrix(1,0,0,1,290,62)">
                <g id="ic_3_5v5o416igjyi-stroke">
                    <g>
                        <path d="M28,45.25L27.25,37.75L43.75,37.75L43,45.25M25.75,37.75L45.25,37.75M31.75,25C31.75,27.071 33.429,28.75 35.5,28.75C37.571,28.75 39.25,27.071 39.25,25C39.25,22.929 37.571,21.25 35.5,21.25C33.429,21.25 31.75,22.929 31.75,25M29.887,34C31.139,32.125 33.245,30.999 35.5,30.999C37.755,30.999 39.861,32.125 41.113,34M31.75,45.25L31.75,42.25L39.25,42.25L39.25,45.25M29.5,13.75C29.5,12.093 28.157,10.75 26.5,10.75L13.75,10.75C12.093,10.75 10.75,12.093 10.75,13.75L10.75,21.25C10.75,22.907 12.093,24.25 13.75,24.25L18.25,24.25L24.25,28.75L24.25,24.25L26.5,24.25C28.157,24.25 29.5,22.907 29.5,21.25L29.5,13.75Z" style="fill:none;stroke:rgb(44,44,44);stroke-width:2px;"/>
                    </g>
                </g>
            </g>
            <g id="g-root-ic_pick_146ql4k16if5e7-stroke" transform="matrix(1,0,0,1,206,458)">
                <g id="ic_pick_146ql4k16if5e7-stroke">
                    <g>
                        <path d="M37.873,32.172C39.412,32.3 40.595,33.589 40.591,35.134C40.587,36.679 39.398,37.962 37.858,38.083M43.284,45.058C42.231,43.019 40.175,41.691 37.883,41.569M23.352,33.85C23.351,36.623 25.599,38.871 28.372,38.871C31.145,38.871 33.393,36.623 33.392,33.85C33.393,31.077 31.145,28.829 28.372,28.829C25.599,28.829 23.351,31.077 23.351,33.85M20.676,45.25C21.837,42.059 24.846,39.915 28.242,39.861C31.637,39.807 34.714,41.854 35.976,45.007M18.127,32.172C16.588,32.3 15.405,33.589 15.409,35.134C15.413,36.679 16.602,37.962 18.142,38.083M12.717,45.058C13.769,43.019 15.825,41.691 18.117,41.569M25.174,17.617C25.174,19.358 26.585,20.769 28.326,20.769C30.066,20.769 31.477,19.358 31.477,17.617C31.477,15.876 30.066,14.466 28.326,14.466C26.585,14.466 25.174,15.876 25.174,17.617M25.362,18.691L20.404,23.253L22.843,26.793M31.289,18.691L36.249,23.253L33.808,26.793M28.326,14.466L28.326,10.75" style="fill:none;stroke:rgb(44,44,44);stroke-width:2px;"/>
                    </g>
                </g>
            </g>
            <g id="g-root-ic_chat_1uqj8fo16ikrv2-stroke" transform="matrix(1,0,0,1,314,446)">
                <g id="ic_chat_1uqj8fo16ikrv2-stroke">
                    <g>
                        <path d="M19.432,34.695L11.304,37.527L13.873,28.736L13.873,13.921C13.873,13.24 14.143,12.586 14.625,12.105C15.107,11.623 15.76,11.352 16.441,11.352L36.598,11.352C37.28,11.352 37.933,11.623 38.415,12.105C38.896,12.586 39.167,13.24 39.167,13.921L39.167,27.319M20.945,27.28C20.945,25.877 21.502,24.531 22.494,23.539C23.487,22.546 24.833,21.989 26.236,21.989C27.639,21.989 28.985,22.546 29.977,23.539C30.97,24.531 31.527,25.877 31.527,27.28L20.945,27.28ZM26.236,21.989C27.985,21.989 29.404,20.571 29.404,18.821C29.404,17.072 27.985,15.654 26.236,15.654C24.486,15.654 23.068,17.072 23.068,18.821C23.068,20.571 24.486,21.989 26.236,21.989ZM37.327,31.042L24.188,31.042C23.327,31.042 22.629,31.74 22.629,32.601L22.629,43.513C22.629,44.374 23.327,45.072 24.188,45.072L37.327,45.072C38.188,45.072 38.886,44.374 38.886,43.513L38.886,32.601C38.886,31.74 38.188,31.042 37.327,31.042ZM38.886,40.394L44.069,42.337C44.187,42.382 44.314,42.397 44.439,42.381C44.564,42.365 44.683,42.32 44.786,42.248C44.89,42.176 44.974,42.081 45.033,41.969C45.091,41.858 45.122,41.734 45.122,41.608L45.122,34.504C45.122,34.378 45.091,34.254 45.033,34.142C44.974,34.031 44.889,33.936 44.786,33.864C44.683,33.793 44.563,33.747 44.438,33.732C44.314,33.717 44.187,33.732 44.069,33.776L38.886,35.719L38.886,40.394ZM28.974,34.006L32.357,34.006L32.357,36.365L34.808,36.365L34.808,39.748L32.357,39.748L32.357,42.107L28.974,42.107L28.974,39.748L26.707,39.748L26.707,36.365L28.974,36.365L28.974,34.006Z" style="fill:none;stroke:rgb(44,44,44);stroke-width:2px;"/>
                    </g>
                </g>
            </g>
            <g id="g-root-ic_user_meu3jo16iay9v-stroke" transform="matrix(1,0,0,1,230,74)">
                <g id="ic_user_meu3jo16iay9v-stroke">
                    <g>
                        <path d="M34.429,15.143C34.429,17.273 36.155,19 38.286,19C40.416,19 42.143,17.273 42.143,15.143C42.143,13.013 40.416,11.286 38.286,11.286C36.155,11.286 34.429,13.013 34.429,15.143M32.371,25.429C33.657,22.086 37.514,20.543 40.857,22.086C43.171,23.114 44.714,25.429 44.714,28M11.286,21.571L21.571,21.571L21.571,31.857L11.286,31.857L11.286,21.571ZM11.286,44.714L38.286,44.714C41.886,44.714 44.714,41.886 44.714,38.286C44.714,34.686 41.886,31.857 38.286,31.857L11.286,31.857M11.543,38.286C11.543,38.57 11.773,38.8 12.057,38.8C12.341,38.8 12.571,38.57 12.571,38.286C12.571,38.002 12.341,37.771 12.057,37.771C11.773,37.771 11.543,38.002 11.543,38.286M24.4,38.286C24.4,38.57 24.63,38.8 24.914,38.8C25.198,38.8 25.429,38.57 25.429,38.286C25.429,38.002 25.198,37.771 24.914,37.771C24.63,37.771 24.4,38.002 24.4,38.286M37.257,38.286C37.257,38.57 37.487,38.8 37.771,38.8C38.055,38.8 38.286,38.57 38.286,38.286C38.286,38.002 38.055,37.771 37.771,37.771C37.487,37.771 37.257,38.002 37.257,38.286" style="fill:none;stroke:rgb(44,44,44);stroke-width:2px;"/>
                    </g>
                </g>
            </g>
        </g>
    </g>
</svg>
