<?xml version="1.0" encoding="UTF-8" standalone="no"?>
<!DOCTYPE svg PUBLIC "-//W3C//DTD SVG 1.1//EN" "http://www.w3.org/Graphics/SVG/1.1/DTD/svg11.dtd">
<svg width="100%" height="100%" viewBox="0 0 618 636" version="1.1" xmlns="http://www.w3.org/2000/svg" xmlns:xlink="http://www.w3.org/1999/xlink" xml:space="preserve" xmlns:serif="http://www.serif.com/" style="fill-rule:evenodd;clip-rule:evenodd;stroke-linecap:round;stroke-linejoin:round;">
    <g id="items" transform="matrix(1.21994,0,0,1.21994,-67.9622,-119.786)">
        <g id="blend">
            <g id="g-root-cp_1_sign-1_144v5sk186nz7p-fill" transform="matrix(1,0,0,1,50,146)">
                <g id="cp_1_sign-1_144v5sk186nz7p-fill">
                    <g>
                        <path d="M10,52L28,10L28,94L10,52ZM28,10L249,10L249,94L28,94L28,10Z" style="fill:rgb(67,221,147);"/>
                    </g>
                </g>
            </g>
            <g id="g-root-cp_3_sign-3_hye49g186nyfj-fill" transform="matrix(1,0,0,1,62,242)">
                <g id="cp_3_sign-3_hye49g186nyfj-fill">
                    <g>
                        <path d="M10,52L28,10L28,94L10,52ZM28,10L237,10L237,94L28,94L28,10Z" style="fill:rgb(247,148,56);"/>
                    </g>
                </g>
            </g>
            <g id="g-root-cp_5_sign-5_7qkus186nxmx-fill" transform="matrix(1,0,0,1,62,338)">
                <g id="cp_5_sign-5_7qkus186nxmx-fill">
                    <g>
                        <path d="M10,52L28,10L28,94L10,52ZM28,10L237,10L237,94L28,94L28,10Z" style="fill:rgb(251,103,98);"/>
                    </g>
                </g>
            </g>
            <g id="g-root-cp_pole_g-pole_1hhkmc4186nzsz-fill" transform="matrix(1,0,0,1,287,122)">
                <g id="cp_pole_g-pole_1hhkmc4186nzsz-fill">
                    <g>
                        <path d="M31,346L13,346L13,460L31,460L31,459.897L24.55,459.88C24.55,459.88 25.3,453.89 17.74,452.78C25.63,449.53 28.41,454.56 28.41,454.56C28.41,454.56 27.994,447.986 31,442.2L31,346ZM13,22L31,22L31,346L13,346L13,22Z" style="fill:rgb(171,171,171);"/>
                    </g>
                </g>
                <g id="cp_pole_g-pole_1hhkmc4186nzsz-fill1" serif:id="cp_pole_g-pole_1hhkmc4186nzsz-fill">
                    <g>
                        <rect x="10" y="10" width="24" height="12" style="fill:rgb(171,171,171);"/>
                    </g>
                </g>
            </g>
            <g id="g-root-cp_pole_plant_146ql1w186ny86-fill" transform="matrix(1,0,0,1,255,547)">
                <g id="cp_pole_plant_146ql1w186ny86-fill">
                    <g>
                        <path d="M60.393,29.56C60.393,29.56 57.613,24.53 49.723,27.78C54.516,28.484 57.019,30.471 56.533,35.008L10,35.008C10,35.008 17.976,46.521 54.183,46.521C90.39,46.521 97.76,35.008 97.76,35.008L71.483,35.008C68.788,30.384 74.815,23.86 80.883,26.67C78.883,23.56 72.993,22.89 68.553,26C66.693,20.52 67.443,13.77 70.613,10C59.453,14.7 60.393,29.56 60.393,29.56Z" style="fill:rgb(145,187,57);"/>
                    </g>
                </g>
            </g>
            <g id="g-root-cp_2_sign-2_qva2ok186nzt4-fill" transform="matrix(1,0,0,1,309,182)">
                <g id="cp_2_sign-2_qva2ok186nzt4-fill">
                    <g>
                        <path d="M10,10L207,10L207,94L10,94L10,10ZM225,52L207,10L207,94L225,52Z" style="fill:rgb(79,145,252);"/>
                    </g>
                </g>
            </g>
            <g id="g-root-cp_4_sign-4_94mj9w186nz0i-fill" transform="matrix(1,0,0,1,309,278)">
                <g id="cp_4_sign-4_94mj9w186nz0i-fill">
                    <g>
                        <path d="M10,10L231,10L231,94L10,94L10,10ZM249,52L231,10L231,94L249,52Z" style="fill:rgb(166,218,55);"/>
                    </g>
                </g>
            </g>
            <g id="g-root-cp_6_sign-6_1uua2vo186o0ec-fill" transform="matrix(1,0,0,1,309,374)">
                <g id="cp_6_sign-6_1uua2vo186o0ec-fill">
                    <g>
                        <path d="M10,10L231,10L231,94L10,94L10,10ZM249,52L231,10L231,94L249,52Z" style="fill:rgb(255,231,17);"/>
                    </g>
                </g>
            </g>
            <g id="g-root-tx_scalable_vb3nys1862w3k-fill" transform="matrix(1,0,0,1,122,164)">
                <g id="tx_scalable_vb3nys1862w3k-fill">
                    <g>
                        <g>
                            <g transform="matrix(1,0,0,1,88.32,34)">
                                <text x="0px" y="0px" style="font-family:'ArialMT', 'Arial', sans-serif;font-size:20px;fill:rgb(44,44,44);">Scalable</text>
                            </g>
                            <g transform="matrix(1,0,0,1,22.35,58)">
                                <text x="0px" y="0px" style="font-family:'ArialMT', 'Arial', sans-serif;font-size:20px;fill:rgb(44,44,44);">Communication</text>
                            </g>
                        </g>
                    </g>
                </g>
            </g>
            <g id="g-root-tx_costeffi_4nk650186ny11-fill" transform="matrix(1,0,0,1,320,200)">
                <g id="tx_costeffi_4nk650186ny11-fill">
                    <g>
                        <g>
                            <g transform="matrix(1,0,0,1,12,34)">
                                <g transform="matrix(20,0,0,20,61.123,0)">
                                </g>
                                <g transform="matrix(20,0,0,20,66.5018,0)">
                                </g>
                                <g transform="matrix(20,0,0,20,71.8805,0)">
                                </g>
                                <text x="0px" y="0px" style="font-family:'ArialMT', 'Arial', sans-serif;font-size:20px;fill:rgb(44,44,44);">Cost-Eﬃcient</text>
                            </g>
                            <g transform="matrix(1,0,0,1,12,58)">
                                <text x="0px" y="0px" style="font-family:'ArialMT', 'Arial', sans-serif;font-size:20px;fill:rgb(44,44,44);">Operations</text>
                            </g>
                        </g>
                    </g>
                </g>
            </g>
            <g id="g-root-tx_centrali_4hxwd01865oga-fill" transform="matrix(1,0,0,1,134,260)">
                <g id="tx_centrali_4hxwd01865oga-fill">
                    <g>
                        <g>
                            <g transform="matrix(1,0,0,1,13.53,34)">
                                <text x="0px" y="0px" style="font-family:'ArialMT', 'Arial', sans-serif;font-size:20px;fill:rgb(44,44,44);">Centralized Call</text>
                            </g>
                            <g transform="matrix(1,0,0,1,34.15,58)">
                                <text x="0px" y="0px" style="font-family:'ArialMT', 'Arial', sans-serif;font-size:20px;fill:rgb(44,44,44);">Management</text>
                            </g>
                        </g>
                    </g>
                </g>
            </g>
            <g id="g-root-tx_improved_18nt7o41862wb3-fill" transform="matrix(1,0,0,1,320,296)">
                <g id="tx_improved_18nt7o41862wb3-fill">
                    <g>
                        <g>
                            <g transform="matrix(1,0,0,1,12,34)">
                                <text x="0px" y="0px" style="font-family:'ArialMT', 'Arial', sans-serif;font-size:20px;fill:rgb(44,44,44);">Improved <tspan x="87.822px 101.162px " y="0px 0px ">Ag</tspan>ent</text>
                            </g>
                            <g transform="matrix(1,0,0,1,12,58)">
                                <text x="0px" y="0px" style="font-family:'ArialMT', 'Arial', sans-serif;font-size:20px;fill:rgb(44,44,44);">Productivity</text>
                            </g>
                        </g>
                    </g>
                </g>
            </g>
            <g id="g-root-tx_robustse_qs5ses186e4ub-fill" transform="matrix(1,0,0,1,134,356)">
                <g id="tx_robustse_qs5ses186e4ub-fill">
                    <g>
                        <g>
                            <g transform="matrix(1,0,0,1,12.53,34)">
                                <text x="0px" y="0px" style="font-family:'ArialMT', 'Arial', sans-serif;font-size:20px;fill:rgb(44,44,44);">Robust Security</text>
                            </g>
                            <g transform="matrix(1,0,0,1,69.98,58)">
                                <text x="0px" y="0px" style="font-family:'ArialMT', 'Arial', sans-serif;font-size:20px;fill:rgb(44,44,44);">&amp; Privacy</text>
                            </g>
                        </g>
                    </g>
                </g>
            </g>
            <g id="g-root-tx_bettercu_1hitqtw1864c21-fill" transform="matrix(1,0,0,1,320,392)">
                <g id="tx_bettercu_1hitqtw1864c21-fill">
                    <g>
                        <g>
                            <g transform="matrix(1,0,0,1,12,34)">
                                <text x="0px" y="0px" style="font-family:'ArialMT', 'Arial', sans-serif;font-size:20px;fill:rgb(44,44,44);">Better Customer</text>
                            </g>
                            <g transform="matrix(1,0,0,1,12,58)">
                                <text x="0px" y="0px" style="font-family:'ArialMT', 'Arial', sans-serif;font-size:20px;fill:rgb(44,44,44);">Experience</text>
                            </g>
                        </g>
                    </g>
                </g>
            </g>
            <g id="g-root-cp_1_sign-1_144v5sk186nz7p-stroke" transform="matrix(1,0,0,1,50,146)">
                <g id="cp_1_sign-1_144v5sk186nz7p-stroke">
                    <g>
                        <path d="M28,10L249,10M249,94L28,94M28,94L10,52L28,10" style="fill:none;stroke:rgb(44,44,44);stroke-width:2px;"/>
                    </g>
                </g>
            </g>
            <g id="g-root-cp_3_sign-3_hye49g186nyfj-stroke" transform="matrix(1,0,0,1,62,242)">
                <g id="cp_3_sign-3_hye49g186nyfj-stroke">
                    <g>
                        <path d="M28,10L237,10M237,94L28,94M28,94L10,52L28,10" style="fill:none;stroke:rgb(44,44,44);stroke-width:2px;"/>
                    </g>
                </g>
            </g>
            <g id="g-root-cp_5_sign-5_7qkus186nxmx-stroke" transform="matrix(1,0,0,1,62,338)">
                <g id="cp_5_sign-5_7qkus186nxmx-stroke">
                    <g>
                        <path d="M28,10L237,10M237,94L28,94M28,94L10,52L28,10" style="fill:none;stroke:rgb(44,44,44);stroke-width:2px;"/>
                    </g>
                </g>
            </g>
            <g id="g-root-cp_pole_g-pole_1hhkmc4186nzsz-stroke" transform="matrix(1,0,0,1,287,122)">
                <g id="cp_pole_g-pole_1hhkmc4186nzsz-stroke">
                    <g>
                        <path d="M31,442L31,346M13,459L13,346M31,346L31,22M13,346L13,22" style="fill:none;stroke:rgb(44,44,44);stroke-width:2px;"/>
                    </g>
                </g>
                <g id="cp_pole_g-pole_1hhkmc4186nzsz-stroke1" serif:id="cp_pole_g-pole_1hhkmc4186nzsz-stroke">
                    <g>
                        <rect x="10" y="10" width="24" height="12" style="fill:none;stroke:rgb(44,44,44);stroke-width:2px;"/>
                    </g>
                </g>
            </g>
            <g id="g-root-cp_pole_plant_146ql1w186ny86-stroke" transform="matrix(1,0,0,1,255,547)">
                <g id="cp_pole_plant_146ql1w186ny86-stroke">
                    <g>
                        <path d="M56.55,34.88C56.55,34.88 57.3,28.89 49.74,27.78C57.63,24.53 60.41,29.56 60.41,29.56C60.41,29.56 59.47,14.7 70.63,10C67.46,13.77 66.71,20.52 68.57,26C73.01,22.89 78.9,23.56 80.9,26.67C76.68,24.44 69.89,28.468 71,34.918M71,34.918L98,34.918M10,34.918L56.5,34.918" style="fill:none;stroke:rgb(44,44,44);stroke-width:2px;"/>
                    </g>
                </g>
            </g>
            <g id="g-root-cp_2_sign-2_qva2ok186nzt4-stroke" transform="matrix(1,0,0,1,309,182)">
                <g id="cp_2_sign-2_qva2ok186nzt4-stroke">
                    <g>
                        <path d="M207,94L10,94M10,10L207,10M207,10L225,52L207,94" style="fill:none;stroke:rgb(44,44,44);stroke-width:2px;"/>
                    </g>
                </g>
            </g>
            <g id="g-root-cp_4_sign-4_94mj9w186nz0i-stroke" transform="matrix(1,0,0,1,309,278)">
                <g id="cp_4_sign-4_94mj9w186nz0i-stroke">
                    <g>
                        <path d="M231,94L10,94M10,10L231,10M231,10L249,52L231,94" style="fill:none;stroke:rgb(44,44,44);stroke-width:2px;"/>
                    </g>
                </g>
            </g>
            <g id="g-root-cp_6_sign-6_1uua2vo186o0ec-stroke" transform="matrix(1,0,0,1,309,374)">
                <g id="cp_6_sign-6_1uua2vo186o0ec-stroke">
                    <g>
                        <path d="M231,94L10,94M10,10L231,10M231,10L249,52L231,94" style="fill:none;stroke:rgb(44,44,44);stroke-width:2px;"/>
                    </g>
                </g>
            </g>
            <g id="g-root-ic_3_dbphck1862xvr-stroke" transform="matrix(1,0,0,1,74,170)">
                <g id="ic_3_dbphck1862xvr-stroke">
                    <g>
                        <path d="M37,19C36.33,14.604 32.55,11.357 28.103,11.357C23.656,11.357 19.876,14.604 19.206,19L19.206,19C14.945,19 11.491,22.454 11.491,26.714C11.491,30.975 14.945,34.429 19.206,34.429C20.167,34.438 21.12,34.254 22.009,33.889C23.464,35.851 25.762,37.009 28.206,37.009C30.649,37.009 32.948,35.851 34.403,33.889C35.292,34.254 36.245,34.438 37.206,34.429C41.466,34.429 44.92,30.975 44.92,26.714C44.92,22.454 41.466,19 37.206,19L37,19ZM24.143,26.714L28,30.571L28,44.714M28,30.571L31.857,26.714" style="fill:none;stroke:rgb(44,44,44);stroke-width:2px;"/>
                    </g>
                </g>
            </g>
            <g id="g-root-ic_decr_4mxp1w186e684-stroke" transform="matrix(1,0,0,1,464,206)">
                <g id="ic_decr_4mxp1w186e684-stroke">
                    <g>
                        <path d="M22.461,32.61C18.767,28.993 17.623,23.504 19.564,18.713C21.505,13.922 26.146,10.777 31.315,10.75C36.484,10.723 41.158,13.82 43.148,18.591C45.139,23.361 44.051,28.862 40.396,32.516M32.131,28.651L32.131,30.349M32.131,16.75L32.131,18.452M29.583,26.101C29.583,27.509 30.724,28.651 32.133,28.651C33.541,28.651 34.683,27.509 34.683,26.101C34.683,24.693 33.541,23.551 32.133,23.551C30.724,23.551 29.583,22.409 29.583,21.001C29.583,19.593 30.724,18.451 32.133,18.451C33.541,18.451 34.683,19.593 34.683,21.001M11.881,28.75L24.435,39.91C24.981,40.395 25.797,40.416 26.368,39.959L31.869,35.56C32.45,35.095 33.285,35.127 33.829,35.635L44.131,45.25M38.131,45.25L44.131,45.25L44.131,39.285" style="fill:none;stroke:rgb(44,44,44);stroke-width:2px;"/>
                    </g>
                </g>
            </g>
            <g id="g-root-ic_1_zs649g1862xhd-stroke" transform="matrix(1,0,0,1,86,266)">
                <g id="ic_1_zs649g1862xhd-stroke">
                    <g>
                        <path d="M27.274,16.765L27.274,10.765L33.274,10.765M27.274,10.765L36.274,19.015L36.274,28.724M45.274,16.765L45.274,10.765L39.274,10.765M45.274,10.765L38.996,16.49M26.323,44.994C22.723,41.384 24,38.571 25.952,36.616L27.214,35.355C28.471,34.099 30.507,34.099 31.763,35.354L37.222,40.814C37.668,41.259 37.861,41.898 37.736,42.515C37.612,43.133 37.186,43.646 36.602,43.883C29.612,46.74 21.59,45.125 16.251,39.785C10.911,34.446 9.296,26.424 12.153,19.434C12.39,18.85 12.903,18.424 13.521,18.3C14.138,18.175 14.777,18.368 15.222,18.814L20.683,24.276C21.939,25.531 21.939,27.568 20.683,28.824L19.42,30.085C17.47,32.035 14.653,33.316 11.044,29.716" style="fill:none;stroke:rgb(44,44,44);stroke-width:2px;"/>
                    </g>
                </g>
            </g>
            <g id="g-root-ic_chec_zqx638186nzeu-stroke" transform="matrix(1,0,0,1,488,302)">
                <g id="ic_chec_zqx638186nzeu-stroke">
                    <g>
                        <path d="M45.25,19.75C45.25,24.721 41.221,28.75 36.25,28.75C31.279,28.75 27.25,24.721 27.25,19.75C27.25,14.779 31.279,10.75 36.25,10.75M45.25,13L37.045,21.203C36.834,21.415 36.548,21.533 36.25,21.533C35.952,21.533 35.666,21.415 35.455,21.204L32.875,18.625M18.25,26.5L18.25,31M21.25,45.25L22,36.25L25.75,36.25L25.75,31C25.75,26.858 22.392,23.5 18.25,23.5C14.108,23.5 10.75,26.858 10.75,31L10.75,36.25L14.5,36.25L15.25,45.25L21.25,45.25ZM13.726,13.335C15.369,15.038 17.634,16 20.001,16C21.187,16 22.361,15.759 23.451,15.291M13,16C13,18.899 15.351,21.25 18.25,21.25C21.149,21.25 23.5,18.899 23.5,16C23.5,13.101 21.149,10.75 18.25,10.75C15.351,10.75 13,13.101 13,16Z" style="fill:none;stroke:rgb(44,44,44);stroke-width:2px;"/>
                    </g>
                </g>
            </g>
            <g id="g-root-ic_pers_zlawb81865pu3-stroke" transform="matrix(1,0,0,1,86,362)">
                <g id="ic_pers_zlawb81865pu3-stroke">
                    <g>
                        <path d="M17.071,17.071C17.071,20.267 19.662,22.857 22.857,22.857C26.053,22.857 28.643,20.267 28.643,17.071C28.643,13.876 26.053,11.286 22.857,11.286C19.662,11.286 17.071,13.876 17.071,17.071M25.429,26.997C21.993,26.204 18.384,27.024 15.629,29.223C12.873,31.423 11.274,34.76 11.286,38.286L11.286,42.143L25.429,42.143M37.437,44.637C37.155,44.739 36.845,44.739 36.563,44.637C32.175,42.899 29.291,38.66 29.286,33.94L29.286,30.571C29.263,30.224 29.391,29.883 29.637,29.637C29.883,29.391 30.224,29.263 30.571,29.286L43.429,29.286C43.776,29.263 44.117,29.391 44.363,29.637C44.609,29.883 44.737,30.224 44.714,30.571L44.714,33.94C44.709,38.66 41.825,42.899 37.437,44.637Z" style="fill:none;stroke:rgb(44,44,44);stroke-width:2px;"/>
                    </g>
                </g>
            </g>
            <g id="g-root-ic_2_13zvjf81864ao0-stroke" transform="matrix(1,0,0,1,488,398)">
                <g id="ic_2_13zvjf81864ao0-stroke">
                    <g>
                        <path d="M25.375,16.375C17.575,16.375 11.125,22.825 11.125,30.625C11.125,38.425 17.575,44.875 25.375,44.875C33.175,44.875 39.625,38.425 39.625,30.625M18.025,34.975C19.375,37.825 22.075,39.625 25.375,39.625C28.675,39.625 31.375,37.825 32.725,34.975M37.375,26.125C41.517,26.125 44.875,22.767 44.875,18.625C44.875,14.483 41.517,11.125 37.375,11.125C33.233,11.125 29.875,14.483 29.875,18.625C29.875,22.767 33.233,26.125 37.375,26.125ZM37.375,15.625L37.375,21.625M34.375,18.625L40.375,18.625M19.75,29.125C19.439,29.125 19.188,28.873 19.188,28.563C19.188,28.252 19.439,28 19.75,28M19.75,29.125C20.061,29.125 20.313,28.873 20.313,28.563C20.313,28.252 20.061,28 19.75,28M31,29.125C30.689,29.125 30.438,28.873 30.438,28.563C30.438,28.252 30.689,28 31,28M31,29.125C31.311,29.125 31.563,28.873 31.563,28.563C31.563,28.252 31.311,28 31,28" style="fill:none;stroke:rgb(44,44,44);stroke-width:2px;"/>
                    </g>
                </g>
            </g>
        </g>
    </g>
</svg>
