<?xml version="1.0" encoding="UTF-8" standalone="no"?>
<!DOCTYPE svg PUBLIC "-//W3C//DTD SVG 1.1//EN" "http://www.w3.org/Graphics/SVG/1.1/DTD/svg11.dtd">
<svg width="100%" height="100%" viewBox="0 0 612 612" version="1.1" xmlns="http://www.w3.org/2000/svg" xmlns:xlink="http://www.w3.org/1999/xlink" xml:space="preserve" xmlns:serif="http://www.serif.com/" style="fill-rule:evenodd;clip-rule:evenodd;stroke-linecap:round;stroke-linejoin:round;">
    <g id="items" transform="matrix(1.12422,0,0,1.12422,-38.0729,-39.7452)">
        <g id="blend">
            <g id="g-root-cp_3_shape-3_mcyunz1ig4p36-fill" transform="matrix(1,0,0,1,284.303,56)">
                <g id="cp_3_shape-3_mcyunz1ig4p36-fill">
                    <g>
                        <path d="M27.697,280L15.697,280L15.697,160L27.697,160L27.697,280ZM32.297,28.191L27.697,28.191L27.697,160L15.697,160L15.697,28.191L11.017,28.191C10.237,28.191 9.747,27.341 10.137,26.661L20.86,10.448C21.256,9.849 22.136,9.851 22.53,10.451L33.177,26.661C33.577,27.341 33.087,28.191 32.297,28.191Z" style="fill:rgb(26,195,251);"/>
                    </g>
                </g>
            </g>
            <g id="g-root-cp_3_shape-3_1_dhbuf31ig4pvw-fill" transform="matrix(1,0,0,1,32,326)">
                <g id="cp_3_shape-3_1_dhbuf31ig4pvw-fill">
                    <g>
                        <path d="M268,10.099C267.956,46.034 243.972,64.321 214,64.321L46,64.321C26.118,64.321 10,80.423 10,100.306L539,100.306C539,80.423 522.882,64.321 503,64.321L335,64.321C305.027,64.321 280.045,46.033 280,10.097M280,10L268,10L280,10Z" style="fill:rgb(26,195,251);"/>
                    </g>
                </g>
            </g>
            <g id="g-root-cp_1_shape-1_5vc1r1ig4rgu-fill" transform="matrix(1,0,0,1,32.5,55.8164)">
                <g id="cp_1_shape-1_5vc1r1ig4rgu-fill">
                    <g>
                        <path d="M214,316.184L46,316.183C26.118,316.183 10,300.081 10,280.199L10,280.184L250,280.184C250,300.066 233.882,316.184 214,316.184ZM254.6,28.375L250,28.375L250,160.184L10,160.184C10,140.302 26.118,124.505 46,124.505L172,124.505C213.07,124.505 238,94.374 238,55.034L238,28.374L233.32,28.374C232.54,28.374 232.05,27.524 232.44,26.844L243.163,10.632C243.559,10.033 244.439,10.034 244.833,10.635L255.48,26.844C255.88,27.525 255.39,28.375 254.6,28.375ZM250,160.184L250,280.184L10,280.184L10,160.184L250,160.184Z" style="fill:rgb(67,221,147);"/>
                    </g>
                </g>
            </g>
            <g id="g-root-cp_2_shape-2_1hgbum71ig4qh4-fill" transform="matrix(1,0,0,1,314.878,55.8164)">
                <g id="cp_2_shape-2_1hgbum71ig4qh4-fill">
                    <g>
                        <path d="M51.622,316.184L219.622,316.184C239.504,316.184 255.622,300.081 255.622,280.199L255.622,280.184L15.622,280.184C15.622,300.066 31.74,316.184 51.622,316.184ZM11.022,28.375L15.622,28.375L15.622,160.184L255.622,160.184C255.622,140.302 239.505,124.505 219.623,124.505L93.622,124.505C52.552,124.505 27.622,94.374 27.622,55.034L27.622,28.374L32.302,28.374C33.082,28.374 33.572,27.524 33.182,26.844L22.459,10.632C22.063,10.033 21.184,10.034 20.79,10.635L10.142,26.844C9.742,27.525 10.232,28.375 11.022,28.375ZM15.622,160.184L15.622,280.184L255.622,280.184L255.622,160.184L15.622,160.184Z" style="fill:rgb(166,218,55);"/>
                    </g>
                </g>
            </g>
            <g id="g-root-cp_3_shape-3_2_144vc8v1ig4s22-fill" transform="matrix(1,0,0,1,32,416)">
                <g id="cp_3_shape-3_2_144vc8v1ig4s22-fill">
                    <g>
                        <path d="M539,10L539,105.984L10,105.984L10,10L539,10ZM503,142.008L46,142.008C26.118,142.008 10,125.906 10,106.023L10,106.008L539,106.008C539,125.89 522.882,142.008 503,142.008Z" style="fill:rgb(26,195,251);"/>
                    </g>
                </g>
            </g>
            <g id="g-root-tx_freeswit_1ut1b5r1ig4r2d-fill" transform="matrix(1,0,0,1,86.5,254)">
                <g id="tx_freeswit_1ut1b5r1ig4r2d-fill">
                    <g>
                        <g>
                            <g transform="matrix(1,0,0,1,17.5,34)">
                                <text x="0px" y="0px" style="font-family:'Arial-BoldMT', 'Arial', sans-serif;font-weight:700;font-size:20px;fill:rgb(44,44,44);">FreeSWITCH</text>
                            </g>
                            <g transform="matrix(1,0,0,1,15.38,58)">
                                <text x="0px" y="0px" style="font-family:'Arial-BoldMT', 'Arial', sans-serif;font-weight:700;font-size:20px;fill:rgb(44,44,44);">Development</text>
                            </g>
                        </g>
                    </g>
                </g>
            </g>
            <g id="g-root-tx_asterisk_1upwxq71ig641s-fill" transform="matrix(1,0,0,1,374,254)">
                <g id="tx_asterisk_1upwxq71ig641s-fill">
                    <g>
                        <g>
                            <g transform="matrix(1,0,0,1,38.58,34)">
                                <text x="0px" y="0px" style="font-family:'Arial-BoldMT', 'Arial', sans-serif;font-weight:700;font-size:20px;fill:rgb(44,44,44);">Asterisk</text>
                            </g>
                            <g transform="matrix(1,0,0,1,16.8,58)">
                                <text x="0px" y="0px" style="font-family:'Arial-BoldMT', 'Arial', sans-serif;font-weight:700;font-size:20px;fill:rgb(44,44,44);">Development</text>
                            </g>
                        </g>
                    </g>
                </g>
            </g>
            <g id="g-root-tx__qvwq7z1ig4phi-fill">
            </g>
            <g id="g-root-tx__qs5vpb1ig65mp-fill">
            </g>
            <g transform="matrix(1,0,0,1,199.11,498)">
                <g id="g-root-tx_opensips_1q880cf1ig7j7n-fill">
                    <g id="tx_opensips_1q880cf1ig7j7n-fill">
                        <g>
                            <g>
                                <text x="0px" y="0px" style="font-family:'Arial-BoldMT', 'Arial', sans-serif;font-weight:700;font-size:20px;fill:rgb(44,44,44);">OpenSIPS Development</text>
                            </g>
                        </g>
                    </g>
                </g>
            </g>
            <g id="g-root-tx__qqagfz1ig7k0c-fill">
            </g>
            <g id="g-root-cp_3_shape-3_mcyunz1ig4p36-stroke" transform="matrix(1,0,0,1,284.303,56)">
                <g id="cp_3_shape-3_mcyunz1ig4p36-stroke">
                    <g>
                        <path d="M15.697,160L15.697,280M27.697,280L27.697,160M15.697,160L15.697,28.191L11.017,28.191C10.237,28.191 9.747,27.341 10.137,26.661L20.86,10.448C21.256,9.849 22.136,9.851 22.53,10.451L33.177,26.661C33.577,27.341 33.087,28.191 32.297,28.191L27.697,28.191L27.697,160" style="fill:none;stroke:rgb(44,44,44);stroke-width:2px;"/>
                    </g>
                </g>
            </g>
            <g id="g-root-cp_3_shape-3_1_dhbuf31ig4pvw-stroke" transform="matrix(1,0,0,1,32,326)">
                <g id="cp_3_shape-3_1_dhbuf31ig4pvw-stroke">
                    <g>
                        <path d="M268,10C268,46 244,64.321 214,64.321L46,64.321C26.118,64.321 10,80.423 10,100.306M280,10C280,46 304,64.321 334,64.321L503,64.321C522.882,64.321 539,80.423 539,100.306" style="fill:none;stroke:rgb(44,44,44);stroke-width:2px;"/>
                    </g>
                </g>
            </g>
            <g id="g-root-cp_1_shape-1_5vc1r1ig4rgu-stroke" transform="matrix(1,0,0,1,32.5,55.8164)">
                <g id="cp_1_shape-1_5vc1r1ig4rgu-stroke">
                    <g>
                        <path d="M10,160.184C10,140.301 26.118,124.321 46,124.321L172,124.321C213.07,124.321 238,94.191 238,54.851L238,28.191L233.32,28.191C232.54,28.191 232.05,27.341 232.44,26.661L243.163,10.448C243.559,9.849 244.439,9.851 244.833,10.451L255.48,26.661C255.88,27.341 255.39,28.191 254.6,28.191L250,28.191L250,160.184M250,280.184C250,300.066 233.882,316.191 214,316.191L46,316.191C26.118,316.191 10,300.081 10,280.199L10,280.184M250,280.184L250,160.184M10,160.184L10,280.184" style="fill:none;stroke:rgb(44,44,44);stroke-width:2px;"/>
                    </g>
                </g>
            </g>
            <g id="g-root-cp_2_shape-2_1hgbum71ig4qh4-stroke" transform="matrix(1,0,0,1,314.878,55.8164)">
                <g id="cp_2_shape-2_1hgbum71ig4qh4-stroke">
                    <g>
                        <path d="M255.622,160.184C255.622,140.301 239.505,124.321 219.623,124.321L93.622,124.321C52.552,124.321 27.622,94.191 27.622,54.851L27.622,28.191L32.302,28.191C33.082,28.191 33.572,27.341 33.182,26.661L22.459,10.448C22.063,9.849 21.184,9.851 20.79,10.451L10.142,26.661C9.742,27.341 10.232,28.191 11.022,28.191L15.622,28.191L15.622,160.184M15.622,280.184C15.622,300.066 31.74,316.184 51.622,316.184L219.623,316.183C239.505,316.183 255.622,300.081 255.622,280.199L255.622,280.184M15.622,280.184L15.622,160.184M255.622,160.184L255.622,280.184" style="fill:none;stroke:rgb(44,44,44);stroke-width:2px;"/>
                    </g>
                </g>
            </g>
            <g id="g-root-cp_3_shape-3_2_144vc8v1ig4s22-stroke" transform="matrix(1,0,0,1,32,416)">
                <g id="cp_3_shape-3_2_144vc8v1ig4s22-stroke">
                    <g>
                        <path d="M539,105.984L539,10M10,10L10,106M539,106.008C539,125.89 522.882,142.008 503,142.008L46,142.008C26.118,142.008 10,125.906 10,106.023L10,106.008" style="fill:none;stroke:rgb(44,44,44);stroke-width:2px;"/>
                    </g>
                </g>
            </g>
            <g id="g-root-ic_code_9m6kf1ig4phj-stroke" transform="matrix(1,0,0,1,128.5,194)">
                <g id="ic_code_9m6kf1ig4phj-stroke">
                    <g>
                        <path d="M54,37.578C53.838,48.463 44.885,57.157 34,57C23.115,57.157 14.162,48.463 14,37.578C14,23.266 31.894,18.156 31.894,11C31.894,11 41.368,14.066 39.264,20.2C36.728,27.586 35.052,33.488 41.368,33.488C47.684,33.488 46.632,25.312 46.632,25.312C51.289,27.594 54.173,32.395 54,37.578ZM25.578,48.822C25.718,53.372 29.448,56.988 34,56.988C38.552,56.988 42.282,53.372 42.422,48.822C42.422,41.66 30.842,44.734 30.842,35.534C27.74,39.303 25.898,43.951 25.578,48.822Z" style="fill:none;stroke:rgb(44,44,44);stroke-width:2px;"/>
                    </g>
                </g>
            </g>
            <g id="g-root-ic_auto_18koudb1ig65fm-stroke" transform="matrix(1,0,0,1,416.5,194)">
                <g id="ic_auto_18koudb1ig65fm-stroke">
                    <g>
                        <path d="M30.86,23.26L45,56L57,56L38.4,12.94C38.163,12.366 37.601,11.994 36.98,12L24.98,12M11.34,44.16L16.36,53.08C17.378,54.884 19.289,56 21.36,56C22.436,56.002 23.491,55.696 24.4,55.12L39,46L21,46M14.32,46C12.486,46 11,44.514 11,42.68C11.004,42.226 11.099,41.777 11.28,41.36L23.6,12.92C23.838,12.357 24.389,11.992 25,11.992C25.611,11.992 26.162,12.357 26.4,12.92L30.86,23.26L21,46L14.32,46Z" style="fill:none;stroke:rgb(44,44,44);stroke-width:2px;"/>
                    </g>
                </g>
            </g>
            <g id="g-root-ic_xspl_3zwsf1ig7k0d-stroke" transform="matrix(1,0,0,1,272,404)">
                <g id="ic_xspl_3zwsf1ig7k0d-stroke">
                    <g>
                        <path d="M12,11L56,11C56,11 57,11 57,12L57,56C57,56 57,57 56,57L12,57C12,57 11,57 11,56L11,12C11,12 11,11 12,11M49,27.848C49.001,27.358 48.647,26.94 48.164,26.86L20.164,22.2C19.875,22.152 19.58,22.233 19.356,22.421C19.132,22.61 19.002,22.887 19,23.18L19,37.152C18.999,37.642 19.353,38.06 19.836,38.14L39,41.34L39,47L43.858,42.142L47.836,42.806C48.126,42.854 48.422,42.772 48.646,42.583C48.871,42.393 49,42.114 49,41.82L49,27.848Z" style="fill:none;stroke:rgb(44,44,44);stroke-width:2px;"/>
                    </g>
                </g>
            </g>
        </g>
    </g>
</svg>
