<?xml version="1.0" encoding="UTF-8" standalone="no"?>
<!DOCTYPE svg PUBLIC "-//W3C//DTD SVG 1.1//EN" "http://www.w3.org/Graphics/SVG/1.1/DTD/svg11.dtd">
<svg width="100%" height="100%" viewBox="0 0 588 478" version="1.1" xmlns="http://www.w3.org/2000/svg" xmlns:xlink="http://www.w3.org/1999/xlink" xml:space="preserve" xmlns:serif="http://www.serif.com/" style="fill-rule:evenodd;clip-rule:evenodd;stroke-linecap:round;stroke-linejoin:round;">
    <g id="items" transform="matrix(1.20017,0,0,1.20017,-64.4812,-51.2022)">
        <g id="blend">
            <g id="g-root-cp_1_g-1_dcbir31iftgjp-fill" transform="matrix(1,0,0,1,50,277.615)">
                <g id="cp_1_g-1_dcbir31iftgjp-fill">
                    <g>
                        <path d="M76,142C112.451,142 142,112.451 142,76C142,39.549 112.451,10 76,10C39.549,10 10,39.549 10,76C10,112.451 39.549,142 76,142ZM81.98,37.939C81.504,38.683 81.992,40.031 82.871,40.031L110.65,40.031C111.141,40.031 111.539,40.432 111.539,40.925L111.539,71.069C111.539,71.954 110.198,72.445 109.458,71.966C108.35,71.248 107.031,70.831 105.615,70.831C101.69,70.831 98.508,74.033 98.508,77.981C98.508,81.93 101.69,85.131 105.615,85.131C107.031,85.131 108.35,84.715 109.458,83.997C110.198,83.518 111.539,84.009 111.539,84.894L111.539,114.029C111.539,114.523 111.141,114.923 110.65,114.923L82.871,114.923C81.992,114.923 81.504,113.575 81.98,112.831C82.694,111.716 83.108,110.389 83.108,108.965C83.108,105.016 79.926,101.815 76,101.815C72.075,101.815 68.892,105.016 68.892,108.965C68.892,110.389 69.306,111.716 70.02,112.831C70.496,113.575 70.008,114.923 69.129,114.923L41.35,114.923C40.859,114.923 40.462,114.523 40.462,114.029L40.462,84.894C40.462,84.009 41.802,83.518 42.542,83.997C43.65,84.715 44.969,85.131 46.385,85.131C50.31,85.131 53.492,81.93 53.492,77.981C53.492,74.033 50.31,70.831 46.385,70.831C44.969,70.831 43.65,71.248 42.542,71.966C41.802,72.445 40.462,71.954 40.462,71.069L40.462,40.925C40.462,40.432 40.859,40.031 41.35,40.031L69.129,40.031C70.008,40.031 70.496,38.683 70.02,37.939C69.306,36.824 68.892,35.497 68.892,34.073C68.892,30.124 72.075,26.923 76,26.923C79.926,26.923 83.108,30.124 83.108,34.073C83.108,35.497 82.694,36.824 81.98,37.939Z" style="fill:rgb(255,231,17);"/>
                    </g>
                </g>
            </g>
            <g id="g-root-cp_2_g-2_1lqijzj1iftjii-fill" transform="matrix(1,0,0,1,218,62)">
                <g id="cp_2_g-2_1lqijzj1iftjii-fill">
                    <g>
                        <path d="M76,142C112.451,142 142,112.451 142,76C142,39.549 112.451,10 76,10C39.549,10 10,39.549 10,76C10,112.451 39.549,142 76,142ZM81.98,37.939C81.504,38.683 81.992,40.031 82.871,40.031L110.65,40.031C111.141,40.031 111.538,40.432 111.538,40.925L111.538,71.069C111.538,71.954 110.198,72.445 109.458,71.966C108.35,71.248 107.031,70.831 105.615,70.831C101.69,70.831 98.508,74.033 98.508,77.981C98.508,81.93 101.69,85.131 105.615,85.131C107.031,85.131 108.35,84.715 109.458,83.997C110.198,83.518 111.538,84.009 111.538,84.894L111.538,114.029C111.538,114.523 111.141,114.923 110.65,114.923L82.871,114.923C81.992,114.923 81.504,113.575 81.98,112.831C82.694,111.716 83.108,110.389 83.108,108.965C83.108,105.016 79.925,101.815 76,101.815C72.075,101.815 68.892,105.016 68.892,108.965C68.892,110.389 69.306,111.716 70.02,112.831C70.496,113.575 70.008,114.923 69.129,114.923L41.35,114.923C40.859,114.923 40.462,114.523 40.462,114.029L40.462,84.894C40.462,84.009 41.802,83.518 42.542,83.997C43.65,84.715 44.969,85.131 46.385,85.131C50.31,85.131 53.492,81.93 53.492,77.981C53.492,74.033 50.31,70.831 46.385,70.831C44.969,70.831 43.65,71.248 42.542,71.966C41.802,72.445 40.462,71.954 40.462,71.069L40.462,40.925C40.462,40.432 40.859,40.031 41.35,40.031L69.129,40.031C70.008,40.031 70.496,38.683 70.02,37.939C69.306,36.824 68.892,35.497 68.892,34.073C68.892,30.124 72.075,26.923 76,26.923C79.925,26.923 83.108,30.124 83.108,34.073C83.108,35.497 82.694,36.824 81.98,37.939Z" style="fill:rgb(247,148,56);"/>
                    </g>
                </g>
            </g>
            <g id="g-root-cp_3_g-3_v480bz1iftjim-fill" transform="matrix(1,0,0,1,386,277.615)">
                <g id="cp_3_g-3_v480bz1iftjim-fill">
                    <g>
                        <path d="M76,142C112.451,142 142,112.451 142,76C142,39.549 112.451,10 76,10C39.549,10 10,39.549 10,76C10,112.451 39.549,142 76,142ZM81.98,37.939C81.504,38.683 81.992,40.031 82.871,40.031L110.65,40.031C111.141,40.031 111.539,40.432 111.539,40.925L111.539,71.069C111.539,71.954 110.198,72.445 109.459,71.966C108.351,71.248 107.031,70.832 105.616,70.832C101.69,70.832 98.508,74.033 98.508,77.982C98.508,81.93 101.69,85.132 105.616,85.132C107.031,85.132 108.351,84.715 109.459,83.997C110.198,83.518 111.539,84.009 111.539,84.894L111.539,114.029C111.539,114.523 111.141,114.923 110.65,114.923L82.871,114.923C81.992,114.923 81.504,113.575 81.98,112.831C82.694,111.716 83.108,110.389 83.108,108.965C83.108,105.016 79.926,101.815 76,101.815C72.075,101.815 68.892,105.016 68.892,108.965C68.892,110.389 69.306,111.716 70.02,112.831C70.496,113.575 70.008,114.923 69.129,114.923L41.35,114.923C40.859,114.923 40.462,114.523 40.462,114.029L40.462,84.894C40.462,84.009 41.802,83.518 42.542,83.997C43.65,84.715 44.969,85.132 46.385,85.132C50.31,85.132 53.492,81.93 53.492,77.982C53.492,74.033 50.31,70.832 46.385,70.832C44.969,70.832 43.65,71.248 42.542,71.966C41.802,72.445 40.462,71.954 40.462,71.069L40.462,40.925C40.462,40.432 40.859,40.031 41.35,40.031L69.129,40.031C70.008,40.031 70.496,38.683 70.02,37.939C69.306,36.824 68.892,35.497 68.892,34.073C68.892,30.124 72.075,26.923 76,26.923C79.926,26.923 83.108,30.124 83.108,34.073C83.108,35.497 82.694,36.824 81.98,37.939Z" style="fill:rgb(251,103,98);"/>
                    </g>
                </g>
            </g>
            <g id="g-root-tx_advanced_1hckh4f1iftjb8-fill" transform="matrix(1,0,0,1,62,62)">
                <g id="tx_advanced_1hckh4f1iftjb8-fill">
                    <g>
                        <g>
                            <g transform="matrix(1,0,0,1,16.97,34)">
                                <text x="0px" y="0px" style="font-family:'Arial-BoldMT', 'Arial', sans-serif;font-weight:700;font-size:20px;fill:rgb(255,231,17);">Advanced</text>
                            </g>
                            <g transform="matrix(1,0,0,1,30.17,58)">
                                <text x="0px" y="0px" style="font-family:'Arial-BoldMT', 'Arial', sans-serif;font-weight:700;font-size:20px;fill:rgb(255,231,17);">Dialers</text>
                            </g>
                        </g>
                    </g>
                </g>
            </g>
            <g id="g-root-tx_intellig_1qd7a271ifuvb6-fill" transform="matrix(1,0,0,1,380,62)">
                <g id="tx_intellig_1qd7a271ifuvb6-fill">
                    <g>
                        <g>
                            <g transform="matrix(1,0,0,1,14.47,34)">
                                <text x="0px" y="0px" style="font-family:'Arial-BoldMT', 'Arial', sans-serif;font-weight:700;font-size:20px;fill:rgb(251,103,98);">Intelligent Call</text>
                            </g>
                            <g transform="matrix(1,0,0,1,44.5,58)">
                                <text x="0px" y="0px" style="font-family:'Arial-BoldMT', 'Arial', sans-serif;font-weight:700;font-size:20px;fill:rgb(251,103,98);">Routing</text>
                            </g>
                        </g>
                    </g>
                </g>
            </g>
            <g id="g-root-tx_improvea_hv9eb31iftgy5-fill" transform="matrix(1,0,0,1,50,122)">
                <g id="tx_improvea_hv9eb31iftgy5-fill">
                    <g>
                        <g>
                            <g transform="matrix(1,0,0,1,26.34,31.2)">
                                <text x="0px" y="0px" style="font-family:'ArialMT', 'Arial', sans-serif;font-size:15px;fill:rgb(44,44,44);">Improve agent</text>
                            </g>
                            <g transform="matrix(1,0,0,1,14.59,49.2)">
                                <g transform="matrix(15,0,0,15,8.34229,0)">
                                </g>
                                <g transform="matrix(15,0,0,15,12.3763,0)">
                                </g>
                                <g transform="matrix(15,0,0,15,16.4104,0)">
                                </g>
                                <text x="0px" y="0px" style="font-family:'ArialMT', 'Arial', sans-serif;font-size:15px;fill:rgb(44,44,44);">eﬃciency and call</text>
                            </g>
                            <g transform="matrix(1,0,0,1,32.44,67.2)">
                                <text x="0px" y="0px" style="font-family:'ArialMT', 'Arial', sans-serif;font-size:15px;fill:rgb(44,44,44);">connectivity<tspan x="77.256px " y="0px ">.</tspan></text>
                            </g>
                        </g>
                    </g>
                </g>
            </g>
            <g id="g-root-tx_directca_zqwqen1ifuvb7-fill" transform="matrix(1,0,0,1,374,122)">
                <g id="tx_directca_zqwqen1ifuvb7-fill">
                    <g>
                        <g>
                            <g transform="matrix(1,0,0,1,12.87,28.2)">
                                <text x="0px" y="0px" style="font-family:'ArialMT', 'Arial', sans-serif;font-size:15px;fill:rgb(44,44,44);">Direct calls to the best</text>
                            </g>
                            <g transform="matrix(1,0,0,1,41.5,46.2)">
                                <text x="0px" y="0px" style="font-family:'ArialMT', 'Arial', sans-serif;font-size:15px;fill:rgb(44,44,44);">agent quickly<tspan x="86.44px " y="0px ">.</tspan></text>
                            </g>
                        </g>
                    </g>
                </g>
            </g>
            <g id="g-root-tx_hostedpb_5ut2n1ifuvpc-fill" transform="matrix(1,0,0,1,224,290)">
                <g id="tx_hostedpb_5ut2n1ifuvpc-fill">
                    <g>
                        <g>
                            <g transform="matrix(1,0,0,1,13.61,34)">
                                <text x="0px" y="0px" style="font-family:'Arial-BoldMT', 'Arial', sans-serif;font-weight:700;font-size:20px;fill:rgb(247,148,56);">Hosted PBX</text>
                            </g>
                            <g transform="matrix(1,0,0,1,28.63,58)">
                                <text x="0px" y="0px" style="font-family:'Arial-BoldMT', 'Arial', sans-serif;font-weight:700;font-size:20px;fill:rgb(247,148,56);">Systems</text>
                            </g>
                        </g>
                    </g>
                </g>
            </g>
            <g id="g-root-tx_cloudbas_mdksrz1ifuxvt-fill" transform="matrix(1,0,0,1,212,350)">
                <g id="tx_cloudbas_mdksrz1ifuxvt-fill">
                    <g>
                        <g>
                            <g transform="matrix(1,0,0,1,15.75,31.2)">
                                <text x="0px" y="0px" style="font-family:'ArialMT', 'Arial', sans-serif;font-size:15px;fill:rgb(44,44,44);">Cloud-based phone</text>
                            </g>
                            <g transform="matrix(1,0,0,1,18.92,49.2)">
                                <g transform="matrix(15,0,0,15,73.3447,0)">
                                </g>
                                <g transform="matrix(15,0,0,15,77.5122,0)">
                                </g>
                                <text x="0px" y="0px" style="font-family:'ArialMT', 'Arial', sans-serif;font-size:15px;fill:rgb(44,44,44);">system for ﬂexible</text>
                            </g>
                            <g transform="matrix(1,0,0,1,26.02,67.2)">
                                <text x="0px" y="0px" style="font-family:'ArialMT', 'Arial', sans-serif;font-size:15px;fill:rgb(44,44,44);">communication.</text>
                            </g>
                        </g>
                    </g>
                </g>
            </g>
            <g id="g-root-cp_1_g-1_dcbir31iftgjp-stroke" transform="matrix(1,0,0,1,50,277.615)">
                <g id="cp_1_g-1_dcbir31iftgjp-stroke">
                    <g>
                        <path d="M76,142C112.451,142 142,112.451 142,76C142,39.549 112.451,10 76,10C39.549,10 10,39.549 10,76C10,112.451 39.549,142 76,142ZM81.98,37.939C81.504,38.683 81.992,40.031 82.871,40.031L110.65,40.031C111.141,40.031 111.539,40.432 111.539,40.925L111.539,71.069C111.539,71.954 110.198,72.445 109.458,71.966C108.35,71.248 107.031,70.831 105.615,70.831C101.69,70.831 98.508,74.033 98.508,77.981C98.508,81.93 101.69,85.131 105.615,85.131C107.031,85.131 108.35,84.715 109.458,83.997C110.198,83.518 111.539,84.009 111.539,84.894L111.539,114.029C111.539,114.523 111.141,114.923 110.65,114.923L82.871,114.923C81.992,114.923 81.504,113.575 81.98,112.831C82.694,111.716 83.108,110.389 83.108,108.965C83.108,105.016 79.926,101.815 76,101.815C72.075,101.815 68.892,105.016 68.892,108.965C68.892,110.389 69.306,111.716 70.02,112.831C70.496,113.575 70.008,114.923 69.129,114.923L41.35,114.923C40.859,114.923 40.462,114.523 40.462,114.029L40.462,84.894C40.462,84.009 41.802,83.518 42.542,83.997C43.65,84.715 44.969,85.131 46.385,85.131C50.31,85.131 53.492,81.93 53.492,77.981C53.492,74.033 50.31,70.831 46.385,70.831C44.969,70.831 43.65,71.248 42.542,71.966C41.802,72.445 40.462,71.954 40.462,71.069L40.462,40.925C40.462,40.432 40.859,40.031 41.35,40.031L69.129,40.031C70.008,40.031 70.496,38.683 70.02,37.939C69.306,36.824 68.892,35.497 68.892,34.073C68.892,30.124 72.075,26.923 76,26.923C79.926,26.923 83.108,30.124 83.108,34.073C83.108,35.497 82.694,36.824 81.98,37.939Z" style="fill:none;stroke:rgb(44,44,44);stroke-width:2px;"/>
                    </g>
                </g>
            </g>
            <g id="g-root-cp_1_Subtract-with-terminator_1q6c23z1iftiq7-stroke" transform="matrix(1,0,0,1,113.796,206.796)">
                <g id="cp_1_Subtract-with-terminator_1q6c23z1iftiq7-stroke">
                    <g>
                        <path d="M12.388,14.775L12.388,80.704" style="fill:none;stroke:rgb(44,44,44);stroke-width:2px;"/>
                    </g>
                </g>
                <g id="cp_1_Subtract-with-terminator_1q6c23z1iftiq7-stroke1" serif:id="cp_1_Subtract-with-terminator_1q6c23z1iftiq7-stroke">
                    <g>
                        <path d="M10,12.388C10,13.706 11.07,14.775 12.388,14.775C13.706,14.775 14.776,13.706 14.776,12.388C14.776,11.07 13.706,10 12.388,10C11.07,10 10,11.07 10,12.388Z" style="fill:none;stroke:rgb(44,44,44);stroke-width:2px;"/>
                    </g>
                </g>
            </g>
            <g id="g-root-cp_2_g-2_1lqijzj1iftjii-stroke" transform="matrix(1,0,0,1,218,62)">
                <g id="cp_2_g-2_1lqijzj1iftjii-stroke">
                    <g>
                        <path d="M76,142C112.451,142 142,112.451 142,76C142,39.549 112.451,10 76,10C39.549,10 10,39.549 10,76C10,112.451 39.549,142 76,142ZM81.98,37.939C81.504,38.683 81.992,40.031 82.871,40.031L110.65,40.031C111.141,40.031 111.538,40.432 111.538,40.925L111.538,71.069C111.538,71.954 110.198,72.445 109.458,71.966C108.35,71.248 107.031,70.831 105.615,70.831C101.69,70.831 98.508,74.033 98.508,77.981C98.508,81.93 101.69,85.131 105.615,85.131C107.031,85.131 108.35,84.715 109.458,83.997C110.198,83.518 111.538,84.009 111.538,84.894L111.538,114.029C111.538,114.523 111.141,114.923 110.65,114.923L82.871,114.923C81.992,114.923 81.504,113.575 81.98,112.831C82.694,111.716 83.108,110.389 83.108,108.965C83.108,105.016 79.925,101.815 76,101.815C72.075,101.815 68.892,105.016 68.892,108.965C68.892,110.389 69.306,111.716 70.02,112.831C70.496,113.575 70.008,114.923 69.129,114.923L41.35,114.923C40.859,114.923 40.462,114.523 40.462,114.029L40.462,84.894C40.462,84.009 41.802,83.518 42.542,83.997C43.65,84.715 44.969,85.131 46.385,85.131C50.31,85.131 53.492,81.93 53.492,77.981C53.492,74.033 50.31,70.831 46.385,70.831C44.969,70.831 43.65,71.248 42.542,71.966C41.802,72.445 40.462,71.954 40.462,71.069L40.462,40.925C40.462,40.432 40.859,40.031 41.35,40.031L69.129,40.031C70.008,40.031 70.496,38.683 70.02,37.939C69.306,36.824 68.892,35.497 68.892,34.073C68.892,30.124 72.075,26.923 76,26.923C79.925,26.923 83.108,30.124 83.108,34.073C83.108,35.497 82.694,36.824 81.98,37.939Z" style="fill:none;stroke:rgb(44,44,44);stroke-width:2px;"/>
                    </g>
                </g>
            </g>
            <g id="g-root-cp_2_Subtract-with-terminator_1_18foipb1ifthxo-stroke" transform="matrix(1,0,0,1,281.797,193.797)">
                <g id="cp_2_Subtract-with-terminator_1_18foipb1ifthxo-stroke">
                    <g>
                        <path d="M12.391,77.203L12.391,10M10,79.593C10,80.913 11.071,81.984 12.391,81.984C13.71,81.984 14.782,80.913 14.782,79.593C14.782,78.274 13.71,77.203 12.391,77.203C11.071,77.203 10,78.274 10,79.593Z" style="fill:none;stroke:rgb(247,148,56);stroke-width:2px;"/>
                    </g>
                </g>
            </g>
            <g id="g-root-cp_3_g-3_v480bz1iftjim-stroke" transform="matrix(1,0,0,1,386,277.615)">
                <g id="cp_3_g-3_v480bz1iftjim-stroke">
                    <g>
                        <path d="M76,142C112.451,142 142,112.451 142,76C142,39.549 112.451,10 76,10C39.549,10 10,39.549 10,76C10,112.451 39.549,142 76,142ZM81.98,37.939C81.504,38.683 81.992,40.031 82.871,40.031L110.65,40.031C111.141,40.031 111.539,40.432 111.539,40.925L111.539,71.069C111.539,71.954 110.198,72.445 109.459,71.966C108.351,71.248 107.031,70.832 105.616,70.832C101.69,70.832 98.508,74.033 98.508,77.982C98.508,81.93 101.69,85.132 105.616,85.132C107.031,85.132 108.351,84.715 109.459,83.997C110.198,83.518 111.539,84.009 111.539,84.894L111.539,114.029C111.539,114.523 111.141,114.923 110.65,114.923L82.871,114.923C81.992,114.923 81.504,113.575 81.98,112.831C82.694,111.716 83.108,110.389 83.108,108.965C83.108,105.016 79.926,101.815 76,101.815C72.075,101.815 68.892,105.016 68.892,108.965C68.892,110.389 69.306,111.716 70.02,112.831C70.496,113.575 70.008,114.923 69.129,114.923L41.35,114.923C40.859,114.923 40.462,114.523 40.462,114.029L40.462,84.894C40.462,84.009 41.802,83.518 42.542,83.997C43.65,84.715 44.969,85.132 46.385,85.132C50.31,85.132 53.492,81.93 53.492,77.982C53.492,74.033 50.31,70.832 46.385,70.832C44.969,70.832 43.65,71.248 42.542,71.966C41.802,72.445 40.462,71.954 40.462,71.069L40.462,40.925C40.462,40.432 40.859,40.031 41.35,40.031L69.129,40.031C70.008,40.031 70.496,38.683 70.02,37.939C69.306,36.824 68.892,35.497 68.892,34.073C68.892,30.124 72.075,26.923 76,26.923C79.926,26.923 83.108,30.124 83.108,34.073C83.108,35.497 82.694,36.824 81.98,37.939Z" style="fill:none;stroke:rgb(44,44,44);stroke-width:2px;"/>
                    </g>
                </g>
            </g>
            <g id="g-root-cp_3_Subtract-with-terminator_2_m97h671ifthxc-stroke" transform="matrix(1,0,0,1,449.797,182.797)">
                <g id="cp_3_Subtract-with-terminator_2_m97h671ifthxc-stroke">
                    <g>
                        <path d="M12.391,14.703L12.391,104.703" style="fill:none;stroke:rgb(44,44,44);stroke-width:2px;"/>
                    </g>
                </g>
                <g id="cp_3_Subtract-with-terminator_2_m97h671ifthxc-stroke1" serif:id="cp_3_Subtract-with-terminator_2_m97h671ifthxc-stroke">
                    <g>
                        <path d="M10,12.391C10,13.71 11.071,14.781 12.391,14.781C13.71,14.781 14.781,13.71 14.781,12.391C14.781,11.071 13.71,10 12.391,10C11.071,10 10,11.071 10,12.391Z" style="fill:none;stroke:rgb(44,44,44);stroke-width:2px;"/>
                    </g>
                </g>
            </g>
            <g id="g-root-ic_driv_hrijsf1ifux3b-stroke" transform="matrix(1,0,0,1,266,110)">
                <g id="ic_driv_hrijsf1ifux3b-stroke">
                    <g>
                        <path d="M38.726,31.709C38.726,31.709 45.25,30.871 45.25,24.25C45.252,22.214 44.425,20.265 42.959,18.852C41.493,17.44 39.514,16.685 37.48,16.762C35.436,12.428 30.713,10.032 26.008,10.942C21.303,11.852 17.814,15.836 17.533,20.62C15.874,20.271 14.146,20.689 12.83,21.757C11.514,22.825 10.75,24.43 10.75,26.125C10.75,31.839 16.503,31.741 16.503,31.741M42.25,41.5C42.25,43.571 40.571,45.25 38.5,45.25L17.5,45.25C15.429,45.25 13.75,43.571 13.75,41.5L13.75,37.75L42.25,37.75L42.25,41.5ZM13.75,37.75L17.25,30.112C17.668,29.315 18.476,28.797 19.375,28.75L35.5,28.75C36.412,28.803 37.245,29.283 37.75,30.045L42.25,37.75L13.75,37.75ZM32.5,42.25L37,42.25" style="fill:none;stroke:rgb(247,148,56);stroke-width:2px;"/>
                    </g>
                </g>
            </g>
            <g id="g-root-ic_1_1lu9ei71ifthja-stroke" transform="matrix(1,0,0,1,98,326)">
                <g id="ic_1_1lu9ei71ifthja-stroke">
                    <g>
                        <path d="M26.323,44.994C22.723,41.384 24,38.571 25.952,36.616L27.214,35.355C28.471,34.099 30.507,34.099 31.763,35.354L37.222,40.814C37.668,41.259 37.861,41.898 37.736,42.515C37.612,43.133 37.186,43.646 36.602,43.883C29.612,46.74 21.59,45.125 16.251,39.785C10.911,34.446 9.296,26.424 12.153,19.434C12.39,18.85 12.903,18.424 13.521,18.3C14.138,18.175 14.777,18.368 15.222,18.814L20.683,24.276C21.939,25.531 21.939,27.568 20.683,28.824L19.42,30.085C17.47,32.035 14.653,33.316 11.044,29.716M34.774,15.265L39.274,10.765L43.774,15.265M39.274,10.765L39.274,21.985L33.274,28.015M41.558,24.25L45.274,28.015" style="fill:none;stroke:rgb(255,231,17);stroke-width:2px;"/>
                    </g>
                </g>
            </g>
            <g id="g-root-ic_conn_1uu9qcv1ifuwp0-stroke" transform="matrix(1,0,0,1,434,326)">
                <g id="ic_conn_1uu9qcv1ifuwp0-stroke">
                    <g>
                        <path d="M36.25,28.75L43.75,28.75C43.75,28.75 45.25,28.75 45.25,30.25L45.25,43.75C45.25,43.75 45.25,45.25 43.75,45.25L36.25,45.25C36.25,45.25 34.75,45.25 34.75,43.75L34.75,30.25C34.75,30.25 34.75,28.75 36.25,28.75M34.75,31.75L45.25,31.75M34.75,42.25L45.25,42.25M24.25,18.25L24.25,23.5C24.242,23.911 23.911,24.242 23.5,24.25L14.5,24.25C14.089,24.242 13.758,23.911 13.75,23.5L13.75,18.25M10.75,17.5L19,10.75L27.25,17.5M28.75,41.5C27.53,41.43 26.324,41.198 25.165,40.81M21.58,38.935C20.615,38.204 19.748,37.352 19,36.4M16.93,32.92C16.489,31.773 16.201,30.572 16.075,29.35M29.5,14.5C30.726,14.513 31.945,14.679 33.13,14.995M36.775,16.63C37.799,17.296 38.732,18.093 39.55,19M41.77,22.375C42.275,23.488 42.628,24.663 42.82,25.87" style="fill:none;stroke:rgb(251,103,98);stroke-width:2px;"/>
                    </g>
                </g>
            </g>
        </g>
    </g>
</svg>
