<?xml version="1.0" encoding="UTF-8" standalone="no"?>
<!DOCTYPE svg PUBLIC "-//W3C//DTD SVG 1.1//EN" "http://www.w3.org/Graphics/SVG/1.1/DTD/svg11.dtd">
<svg width="100%" height="100%" viewBox="0 0 648 357" version="1.1" xmlns="http://www.w3.org/2000/svg" xmlns:xlink="http://www.w3.org/1999/xlink" xml:space="preserve" xmlns:serif="http://www.serif.com/" style="fill-rule:evenodd;clip-rule:evenodd;stroke-linecap:round;stroke-linejoin:round;">
    <g id="items" transform="matrix(1.05823,0,0,1.05823,-18.9037,-99.3854)">
        <g id="blend">
            <g id="g-root-sy_0_cu_4jtl731k3sfez-fill" transform="matrix(1,0,0,1,283.894,347.411)">
                <g id="sy_0_cu_4jtl731k3sfez-fill">
                    <g>
                        <path d="M39.436,68.532C41.183,72.624 46.395,75.589 52.566,75.589C58.736,75.589 63.948,72.624 65.696,68.532C61.852,69.56 57.358,70.159 52.566,70.159C47.773,70.159 43.28,69.56 39.436,68.532ZM26.855,59.329C27.803,65.388 38.946,70.159 52.566,70.159C66.185,70.159 77.338,65.378 78.277,59.329C72.236,61.046 62.97,62.144 52.566,62.144C42.161,62.144 32.885,61.046 26.855,59.329ZM14.843,10C11.747,13.583 10,16.718 10,18.345C10,19.493 10.879,20.591 12.476,21.619C14.573,22.956 15.272,25.661 14.034,27.817C13.275,29.135 12.876,30.233 12.876,30.981C12.876,32.139 13.834,33.247 15.572,34.265C17.728,35.523 18.577,38.258 17.339,40.434C16.66,41.622 16.3,42.62 16.3,43.299C16.3,44.347 17.159,45.345 18.717,46.273C20.844,47.531 21.453,50.286 20.314,52.472C19.855,53.36 19.606,54.099 19.606,54.628C19.606,58.78 34.363,62.144 52.556,62.144C70.748,62.144 85.506,58.78 85.506,54.628C85.506,54.099 85.266,53.36 84.797,52.472C83.659,50.286 84.278,47.531 86.395,46.273C87.952,45.355 88.811,44.347 88.811,43.299C88.811,42.62 88.452,41.632 87.772,40.434C86.534,38.268 87.383,35.533 89.54,34.265C91.287,33.247 92.236,32.139 92.236,30.981C92.236,30.233 91.836,29.135 91.078,27.817C89.839,25.661 90.538,22.946 92.635,21.619C94.243,20.601 95.111,19.493 95.111,18.345C95.111,16.718 93.344,13.583 90.249,10C83.14,13.094 68.931,15.21 52.546,15.21C36.161,15.21 21.952,13.094 14.843,10Z" style="fill:rgb(232,232,232);"/>
                    </g>
                </g>
            </g>
            <g id="g-root-sy_5_cu_1q9h4sv1k3sgss-fill" transform="matrix(1,0,0,1,249.755,277.599)">
                <g id="sy_5_cu_1q9h4sv1k3sgss-fill">
                    <g>
                        <path d="M17.579,17.127C14.933,14.871 12.406,12.495 10,10L162.48,10C160.013,12.555 157.417,14.991 154.701,17.287C138.815,30.732 129.729,50.515 129.2,71.277C129.16,72.844 128.83,74.381 128.142,75.779C127.423,77.236 126.354,78.893 124.976,79.542C118.097,82.796 103.459,85.042 86.604,85.042C69.75,85.042 55.172,82.806 48.282,79.562C47.374,79.133 46.585,78.344 45.956,77.476C44.688,75.749 44.079,73.633 44.009,71.487C43.34,50.475 33.654,30.802 17.579,17.127Z" style="fill:rgb(247,148,56);"/>
                    </g>
                </g>
            </g>
            <g id="g-root-sy_4_cu_zn6l5b1k3sgsu-fill" transform="matrix(1,0,0,1,326.35,187.795)">
                <g id="sy_4_cu_zn6l5b1k3sgsu-fill">
                    <g>
                        <path d="M115.65,26.19C115.65,54.798 104.308,80.74 85.885,99.805L10,99.815L10.01,10.01L114.432,10L114.422,10.02C115.231,15.29 115.65,20.69 115.65,26.19Z" style="fill:rgb(255,231,17);"/>
                    </g>
                </g>
            </g>
            <g id="g-root-sy_3_cu_4l2jdb1k3shl4-fill" transform="matrix(1,0,0,1,220,187.775)">
                <g id="sy_3_cu_4l2jdb1k3shl4-fill">
                    <g>
                        <path d="M10.02,24.074C10.12,19.303 10.54,14.612 11.248,10.01L116.39,10L116.38,99.805L39.765,99.805C20.894,80.271 9.451,53.51 10.02,24.074Z" style="fill:rgb(166,218,55);"/>
                    </g>
                </g>
            </g>
            <g id="g-root-sy_2_cu_1czw1ov1k3she2-fill" transform="matrix(1,0,0,1,326.38,98)">
                <g id="sy_2_cu_1czw1ov1k3she2-fill">
                    <g>
                        <path d="M10.01,10C62.89,10.18 106.654,49.058 114.422,99.795L10,99.805L10.01,10Z" style="fill:rgb(67,221,147);"/>
                    </g>
                </g>
            </g>
            <g id="g-root-sy_1_cu_mdli1b1k3she4-fill" transform="matrix(1,0,0,1,221.238,98)">
                <g id="sy_1_cu_mdli1b1k3she4-fill">
                    <g>
                        <path d="M113.254,10L115.131,10L115.141,99.785L10,99.785C17.768,49.577 61.163,10.729 113.254,10Z" style="fill:rgb(26,195,251);"/>
                    </g>
                </g>
            </g>
            <g transform="matrix(1,0,0,1,69.3,240)">
                <g id="g-root-tx_bulksms_147devj1k3wnil-fill">
                    <g id="tx_bulksms_147devj1k3wnil-fill">
                        <g>
                            <g>
                                <text x="0px" y="0px" style="font-family:'ArialMT', 'Arial', sans-serif;font-size:20px;fill:rgb(44,44,44);">Bulk SMS</text>
                            </g>
                        </g>
                    </g>
                </g>
            </g>
            <g transform="matrix(1,0,0,1,518,240)">
                <g id="g-root-tx_otps_18eg9sf1k3y3gv-fill">
                    <g id="tx_otps_18eg9sf1k3y3gv-fill">
                        <g>
                            <g>
                                <text x="0px" y="0px" style="font-family:'ArialMT', 'Arial', sans-serif;font-size:20px;fill:rgb(44,44,44);">OTPs</text>
                            </g>
                        </g>
                    </g>
                </g>
            </g>
            <g id="g-root-tx_didtfnnu_8x56z31k3y1vk-fill" transform="matrix(1,0,0,1,506,86)">
                <g id="tx_didtfnnu_8x56z31k3y1vk-fill">
                    <g>
                        <g>
                            <g transform="matrix(1,0,0,1,12,34)">
                                <text x="0px" y="0px" style="font-family:'ArialMT', 'Arial', sans-serif;font-size:20px;fill:rgb(44,44,44);">DID &amp; <tspan x="58.535px 70.752px " y="0px 0px ">TF</tspan>N</text>
                            </g>
                            <g transform="matrix(1,0,0,1,12,58)">
                                <text x="0px" y="0px" style="font-family:'ArialMT', 'Arial', sans-serif;font-size:20px;fill:rgb(44,44,44);">Numbers</text>
                            </g>
                        </g>
                    </g>
                </g>
            </g>
            <g id="g-root-tx_highqual_9mcun1k3wp3i-fill" transform="matrix(1,0,0,1,26,302)">
                <g id="tx_highqual_9mcun1k3wp3i-fill">
                    <g>
                        <g>
                            <g transform="matrix(1,0,0,1,19.65,34)">
                                <text x="0px" y="0px" style="font-family:'ArialMT', 'Arial', sans-serif;font-size:20px;fill:rgb(44,44,44);">High-Quality</text>
                            </g>
                            <g transform="matrix(1,0,0,1,18.43,58)">
                                <text x="0px" y="0px" style="font-family:'ArialMT', 'Arial', sans-serif;font-size:20px;fill:rgb(44,44,44);">Connectivity</text>
                            </g>
                        </g>
                    </g>
                </g>
            </g>
            <g transform="matrix(1,0,0,1,35.42,132)">
                <g id="g-root-tx_voipminu_hz0y331k3wohw-fill">
                    <g id="tx_voipminu_hz0y331k3wohw-fill">
                        <g>
                            <g>
                                <text x="0px" y="0px" style="font-family:'ArialMT', 'Arial', sans-serif;font-size:20px;fill:rgb(44,44,44);">V<tspan x="12.236px 23.359px 28.916px 41.895px 47.451px " y="0px 0px 0px 0px 0px ">oIP M</tspan>inutes</text>
                            </g>
                        </g>
                    </g>
                </g>
            </g>
            <g id="g-root-sy_0_cu_4jtl731k3sfez-stroke" transform="matrix(1,0,0,1,283.894,347.411)">
                <g id="sy_0_cu_4jtl731k3sfez-stroke">
                    <g>
                        <path d="M39.436,68.532C41.183,72.624 46.395,75.589 52.566,75.589C58.736,75.589 63.948,72.624 65.696,68.532C61.852,69.56 57.358,70.159 52.566,70.159C47.773,70.159 43.28,69.56 39.436,68.532ZM26.855,59.329C27.803,65.388 38.946,70.159 52.566,70.159C66.185,70.159 77.338,65.378 78.277,59.329C72.236,61.046 62.97,62.144 52.566,62.144C42.161,62.144 32.885,61.046 26.855,59.329ZM14.843,10C11.747,13.583 10,16.718 10,18.345C10,19.493 10.879,20.591 12.476,21.619C14.573,22.956 15.272,25.661 14.034,27.817C13.275,29.135 12.876,30.233 12.876,30.981C12.876,32.139 13.834,33.247 15.572,34.265C17.728,35.523 18.577,38.258 17.339,40.434C16.66,41.622 16.3,42.62 16.3,43.299C16.3,44.347 17.159,45.345 18.717,46.273C20.844,47.531 21.453,50.286 20.314,52.472C19.855,53.36 19.606,54.099 19.606,54.628C19.606,58.78 34.363,62.144 52.556,62.144C70.748,62.144 85.506,58.78 85.506,54.628C85.506,54.099 85.266,53.36 84.797,52.472C83.659,50.286 84.278,47.531 86.395,46.273C87.952,45.355 88.811,44.347 88.811,43.299C88.811,42.62 88.452,41.632 87.772,40.434C86.534,38.268 87.383,35.533 89.54,34.265C91.287,33.247 92.236,32.139 92.236,30.981C92.236,30.233 91.836,29.135 91.078,27.817C89.839,25.661 90.538,22.946 92.635,21.619C94.243,20.601 95.111,19.493 95.111,18.345C95.111,16.718 93.344,13.583 90.249,10C83.14,13.094 68.931,15.21 52.546,15.21C36.161,15.21 21.952,13.094 14.843,10ZM16.3,43.299C16.3,47.87 32.536,51.573 52.566,51.573C72.595,51.573 88.831,47.87 88.831,43.299M12.876,30.991C12.876,35.992 30.649,40.045 52.566,40.045C74.483,40.045 92.256,35.992 92.256,30.991M10,18.344C10,23.705 29.061,28.057 52.566,28.057C76.07,28.057 95.131,23.705 95.131,18.344" style="fill:none;stroke:rgb(44,44,44);stroke-width:2px;"/>
                    </g>
                </g>
            </g>
            <g id="g-root-sy_5_cu_1q9h4sv1k3sgss-stroke" transform="matrix(1,0,0,1,249.755,277.599)">
                <g id="sy_5_cu_1q9h4sv1k3sgss-stroke">
                    <g>
                        <path d="M10,10C12.406,12.495 14.933,14.871 17.579,17.127C33.654,30.802 43.34,50.475 44.009,71.487C44.079,73.633 44.688,75.749 45.956,77.476C46.585,78.344 47.374,79.133 48.282,79.562C55.172,82.806 69.75,85.042 86.604,85.042C103.459,85.042 118.097,82.796 124.976,79.542C126.354,78.893 127.423,77.236 128.142,75.779C128.831,74.381 129.16,72.844 129.2,71.277C129.729,50.515 138.815,30.732 154.701,17.287C157.417,14.991 160.013,12.555 162.48,10L10,10Z" style="fill:none;stroke:rgb(44,44,44);stroke-width:2px;"/>
                    </g>
                </g>
            </g>
            <g id="g-root-sy_5_line_1cy0mfj1k3sidp-stroke" transform="matrix(1,0,0,1,158,314)">
                <g id="sy_5_line_1cy0mfj1k3sidp-stroke">
                    <g>
                        <path d="M10,22L100,22L110.59,11.41" style="fill:none;stroke:rgb(44,44,44);stroke-width:2px;"/>
                        <path d="M110.9,20.21L110.9,11.11L101.7,11.11" style="fill:none;stroke:rgb(44,44,44);stroke-width:2px;"/>
                    </g>
                </g>
            </g>
            <g id="g-root-sy_4_cu_zn6l5b1k3sgsu-stroke" transform="matrix(1,0,0,1,326.35,187.795)">
                <g id="sy_4_cu_zn6l5b1k3sgsu-stroke">
                    <g>
                        <path d="M10.01,10.01L114.432,10L114.422,10.02M10.01,10.01L114.422,10.02M10.01,10.01L10,99.815L85.885,99.805C104.308,80.74 115.65,54.798 115.65,26.19C115.65,20.69 115.231,15.29 114.422,10.02" style="fill:none;stroke:rgb(44,44,44);stroke-width:2px;"/>
                    </g>
                </g>
            </g>
            <g id="g-root-sy_4_line_mbq2rz1k3sidr-stroke" transform="matrix(1,0,0,1,446,218)">
                <g id="sy_4_line_mbq2rz1k3sidr-stroke">
                    <g>
                        <path d="M58,10L12,10" style="fill:none;stroke:rgb(44,44,44);stroke-width:2px;"/>
                        <path d="M18,3.5L11.5,10L18,16.5" style="fill:none;stroke:rgb(44,44,44);stroke-width:2px;"/>
                    </g>
                </g>
            </g>
            <g id="g-root-sy_3_cu_4l2jdb1k3shl4-stroke" transform="matrix(1,0,0,1,220,187.775)">
                <g id="sy_3_cu_4l2jdb1k3shl4-stroke">
                    <g>
                        <path d="M116.38,99.805L116.39,10L11.248,10.01C10.54,14.612 10.12,19.303 10.02,24.074C9.451,53.51 20.894,80.271 39.765,99.805L116.38,99.805Z" style="fill:none;stroke:rgb(44,44,44);stroke-width:2px;"/>
                    </g>
                </g>
            </g>
            <g id="g-root-sy_3_line_1qbck271k3sft5-stroke" transform="matrix(1,0,0,1,158,218)">
                <g id="sy_3_line_1qbck271k3sft5-stroke">
                    <g>
                        <path d="M10,10L56.5,10" style="fill:none;stroke:rgb(44,44,44);stroke-width:2px;"/>
                        <path d="M50.5,16.5L57,10L50.5,3.5" style="fill:none;stroke:rgb(44,44,44);stroke-width:2px;"/>
                    </g>
                </g>
            </g>
            <g id="g-root-sy_2_cu_1czw1ov1k3she2-stroke" transform="matrix(1,0,0,1,326.38,98)">
                <g id="sy_2_cu_1czw1ov1k3she2-stroke">
                    <g>
                        <path d="M10,99.805L114.422,99.795C106.654,49.058 62.89,10.18 10.01,10L10,99.805Z" style="fill:none;stroke:rgb(44,44,44);stroke-width:2px;"/>
                    </g>
                </g>
            </g>
            <g id="g-root-sy_2_line_zp20en1k3sft7-stroke" transform="matrix(1,0,0,1,410,110)">
                <g id="sy_2_line_zp20en1k3sft7-stroke">
                    <g>
                        <path d="M94,10L22,10L11.41,20.59" style="fill:none;stroke:rgb(44,44,44);stroke-width:2px;"/>
                        <path d="M11.11,11.7L11.11,20.9L20.21,20.9" style="fill:none;stroke:rgb(44,44,44);stroke-width:2px;"/>
                    </g>
                </g>
            </g>
            <g id="g-root-sy_1_cu_mdli1b1k3she4-stroke" transform="matrix(1,0,0,1,221.238,98)">
                <g id="sy_1_cu_mdli1b1k3she4-stroke">
                    <g>
                        <path d="M115.141,99.785L10,99.785C17.768,49.577 61.163,10.729 113.254,10L115.131,10L115.141,99.785Z" style="fill:none;stroke:rgb(44,44,44);stroke-width:2px;"/>
                    </g>
                </g>
            </g>
            <g id="g-root-sy_1_line_hxrzwv1k3si6d-stroke" transform="matrix(1,0,0,1,158,110)">
                <g id="sy_1_line_hxrzwv1k3si6d-stroke">
                    <g>
                        <path d="M10,10L82,10L92.59,20.59" style="fill:none;stroke:rgb(44,44,44);stroke-width:2px;"/>
                        <path d="M83.7,20.9L92.9,20.9L92.9,11.7" style="fill:none;stroke:rgb(44,44,44);stroke-width:2px;"/>
                    </g>
                </g>
            </g>
            <g id="g-root-ic_911_dcyp3j1k3wnpf-stroke" transform="matrix(1,0,0,1,350,134)">
                <g id="ic_911_dcyp3j1k3wnpf-stroke">
                    <g>
                        <path d="M26.612,21.196C27.466,22.202 28.971,22.331 29.983,21.484L32.457,19.164C33.365,18.209 33.333,16.7 32.386,15.784L30.974,14.275C29.849,12.988 27.986,12.643 26.474,13.443C20.428,17.001 15.247,21.856 11.305,27.66C10.412,29.115 10.635,30.994 11.845,32.2L13.26,33.709C14.112,34.715 15.616,34.845 16.629,34L19.102,31.681C20.012,30.727 19.982,29.217 19.035,28.3L18.177,27.383C20.438,24.75 22.977,22.369 25.75,20.281L26.612,21.196ZM30.25,43L36.25,43M30.25,36.25L32.235,34.265C32.404,34.095 32.635,33.999 32.875,34C33.082,34 33.25,34.168 33.25,34.375L33.25,43M39.25,43L45.25,43M39.25,36.25L41.235,34.265C41.404,34.095 41.635,33.999 41.875,34C42.082,34 42.25,34.168 42.25,34.375L42.25,43M21.25,37C21.25,38.657 22.593,40 24.25,40C25.907,40 27.25,38.657 27.25,37C27.25,35.343 25.907,34 24.25,34C22.593,34 21.25,35.343 21.25,37ZM27.25,37L27.25,39.25C27.25,41.321 25.571,43 23.5,43L22.75,43" style="fill:none;stroke:rgb(44,44,44);stroke-width:2px;"/>
                    </g>
                </g>
            </g>
            <g id="g-root-ic_4_1cy0mfj1k3twjk-stroke" transform="matrix(1,0,0,1,260,212)">
                <g id="ic_4_1cy0mfj1k3twjk-stroke">
                    <g>
                        <path d="M45.25,32.518L45.25,35.5C45.25,37.157 43.907,38.5 42.25,38.5L26.5,38.5L17.5,45.25L17.5,38.5L13.75,38.5C12.093,38.5 10.75,37.157 10.75,35.5L10.75,32.518M19,19.768L15.25,19.768C14.007,19.768 13,20.775 13,22.018C13,23.261 14.007,24.268 15.25,24.268L16.75,24.268C17.993,24.268 19,25.275 19,26.518C19,27.761 17.993,28.768 16.75,28.768L13,28.768M43,19.768L39.25,19.768C38.007,19.768 37,20.775 37,22.018C37,23.261 38.007,24.268 39.25,24.268L40.75,24.268C41.993,24.268 43,25.275 43,26.518C43,27.761 41.993,28.768 40.75,28.768L37,28.768M23.5,28.768L23.5,22.018C23.5,20.775 24.507,19.768 25.75,19.768C26.993,19.768 28,20.775 28,22.018C28,20.775 29.007,19.768 30.25,19.768C31.493,19.768 32.5,20.775 32.5,22.018L32.5,28.768M10.75,16L10.75,13.75C10.75,12.093 12.093,10.75 13.75,10.75L42.25,10.75C43.907,10.75 45.25,12.093 45.25,13.75L45.25,16" style="fill:none;stroke:rgb(44,44,44);stroke-width:2px;"/>
                    </g>
                </g>
            </g>
            <g id="g-root-ic_type_14491fz1k3v9qa-stroke" transform="matrix(1,0,0,1,357,212)">
                <g id="ic_type_14491fz1k3v9qa-stroke">
                    <g>
                        <path d="M13.75,19.75L42.25,19.75C42.25,19.75 45.25,19.75 45.25,22.75L45.25,34.75C45.25,34.75 45.25,37.75 42.25,37.75L13.75,37.75C13.75,37.75 10.75,37.75 10.75,34.75L10.75,22.75C10.75,22.75 10.75,19.75 13.75,19.75M25.002,25.75L31.002,31.75M31.002,25.75L25.002,31.75M15.252,25.75L21.251,31.75M21.251,25.75L15.252,31.75M34.751,31.75L40.751,31.75" style="fill:none;stroke:rgb(44,44,44);stroke-width:2px;"/>
                    </g>
                </g>
            </g>
            <g id="g-root-ic_1_djtx1r1k3sh73-stroke" transform="matrix(1,0,0,1,266,134)">
                <g id="ic_1_djtx1r1k3sh73-stroke">
                    <g>
                        <path d="M27.25,19.746C27.25,24.716 31.279,28.745 36.25,28.745C41.221,28.745 45.25,24.716 45.25,19.746C45.25,14.775 41.221,10.746 36.25,10.746C31.279,10.746 27.25,14.775 27.25,19.746L27.25,19.746ZM39.25,19.746L36.25,19.746L36.25,15.246M26.299,44.974C22.699,41.364 23.976,38.55 25.93,36.597L27.192,35.335C28.447,34.079 30.484,34.079 31.74,35.335L37.2,40.795C37.644,41.24 37.837,41.879 37.712,42.496C37.587,43.113 37.162,43.627 36.578,43.864C29.588,46.721 21.566,45.106 16.227,39.766C10.887,34.426 9.272,26.404 12.129,19.414C12.366,18.831 12.879,18.405 13.496,18.281C14.114,18.156 14.752,18.348 15.198,18.793L20.661,24.25C21.916,25.506 21.916,27.542 20.661,28.798L19.399,30.06C17.449,32.009 14.632,33.291 11.022,29.691" style="fill:none;stroke:rgb(44,44,44);stroke-width:2px;"/>
                    </g>
                </g>
            </g>
            <g id="g-root-ic_1_98jz1k3v9qh-stroke" transform="matrix(1,0,0,1,308,296)">
                <g id="ic_1_98jz1k3v9qh-stroke">
                    <g>
                        <path d="M28.075,20.575L21.325,32.575L34.825,32.575L28.075,20.575ZM28.075,20.575C29.732,20.575 31.075,19.232 31.075,17.575C31.075,15.918 29.732,14.575 28.075,14.575C26.418,14.575 25.075,15.918 25.075,17.575C25.075,19.232 26.418,20.575 28.075,20.575ZM41.875,44.875C43.532,44.875 44.875,43.532 44.875,41.875C44.875,40.218 43.532,38.875 41.875,38.875C40.218,38.875 38.875,40.218 38.875,41.875C38.875,43.532 40.218,44.875 41.875,44.875ZM14.125,44.875C15.782,44.875 17.125,43.532 17.125,41.875C17.125,40.218 15.782,38.875 14.125,38.875C12.468,38.875 11.125,40.218 11.125,41.875C11.125,43.532 12.468,44.875 14.125,44.875ZM37.075,13.975C39.025,15.925 39.025,19.225 37.075,21.175M40.075,11.125C43.675,14.725 43.675,20.425 40.075,24.025M18.925,13.975C16.975,15.925 16.975,19.225 18.925,21.175M15.925,11.125C12.325,14.725 12.325,20.425 15.925,24.025M28.075,37.825L28.075,41.875M17.125,41.875L38.875,41.875" style="fill:none;stroke:rgb(44,44,44);stroke-width:2px;"/>
                    </g>
                </g>
            </g>
        </g>
    </g>
</svg>
