<?xml version="1.0" encoding="UTF-8" standalone="no"?>
<!DOCTYPE svg PUBLIC "-//W3C//DTD SVG 1.1//EN" "http://www.w3.org/Graphics/SVG/1.1/DTD/svg11.dtd">
<svg width="100%" height="100%" viewBox="0 0 576 755" version="1.1" xmlns="http://www.w3.org/2000/svg" xmlns:xlink="http://www.w3.org/1999/xlink" xml:space="preserve" xmlns:serif="http://www.serif.com/" style="fill-rule:evenodd;clip-rule:evenodd;stroke-linecap:round;stroke-linejoin:round;">
    <g id="items" transform="matrix(1.11723,0,0,1.11723,-33.7631,-78.5345)">
        <g id="blend">
            <g id="g-root-cp_9_text-9_hs65zp15o7z7k-fill" transform="matrix(1,0,0,1,50,134)">
                <g id="cp_9_text-9_hs65zp15o7z7k-fill">
                    <g>
                        <rect x="10" y="10" width="228" height="84" style="fill:rgb(26,195,251);"/>
                    </g>
                </g>
            </g>
            <g id="g-root-cp_9_stick-9_1umt6fp15o7y8a-fill" transform="matrix(1,0,0,1,272,218)">
                <g id="cp_9_stick-9_1umt6fp15o7y8a-fill">
                    <g>
                        <rect x="10" y="10" width="5.997" height="420" style="fill:rgb(26,195,251);"/>
                    </g>
                </g>
            </g>
            <g id="g-root-cp_7_text-7_1cw5n1115o7xfo-fill" transform="matrix(1,0,0,1,44,218)">
                <g id="cp_7_text-7_1cw5n1115o7xfo-fill">
                    <g>
                        <rect x="10" y="10" width="228" height="108" style="fill:rgb(67,221,147);"/>
                    </g>
                </g>
            </g>
            <g id="g-root-cp_7_stick-7_m9v3dh15o7xfq-fill" transform="matrix(1,0,0,1,266,326)">
                <g id="cp_7_stick-7_m9v3dh15o7xfq-fill">
                    <g>
                        <rect x="10" y="10" width="5.997" height="312" style="fill:rgb(67,221,147);"/>
                    </g>
                </g>
            </g>
            <g id="g-root-cp_5_text-5_8yel0515o7z0o-fill" transform="matrix(1,0,0,1,38,326)">
                <g id="cp_5_text-5_8yel0515o7z0o-fill">
                    <g>
                        <rect x="10" y="10" width="228" height="84" style="fill:rgb(203,104,249);"/>
                    </g>
                </g>
            </g>
            <g id="g-root-cp_5_stick-5_1q8v3kl15o7y0y-fill" transform="matrix(1,0,0,1,260,410)">
                <g id="cp_5_stick-5_1q8v3kl15o7y0y-fill">
                    <g>
                        <rect x="10" y="10" width="5.997" height="228" style="fill:rgb(203,104,249);"/>
                    </g>
                </g>
            </g>
            <g id="g-root-cp_3_text-3_1cxel7915o7zlw-fill" transform="matrix(1,0,0,1,32,410)">
                <g id="cp_3_text-3_1cxel7915o7zlw-fill">
                    <g>
                        <rect x="10" y="10" width="228" height="108" style="fill:rgb(251,103,98);"/>
                    </g>
                </g>
            </g>
            <g id="g-root-cp_3_stick-3_zmkjx115o7y12-fill" transform="matrix(1,0,0,1,254,518)">
                <g id="cp_3_stick-3_zmkjx115o7y12-fill">
                    <g>
                        <rect x="10" y="10" width="5.997" height="120" style="fill:rgb(251,103,98);"/>
                    </g>
                </g>
            </g>
            <g id="g-root-cp_1_text-1_mb41jp15o7zm0-fill" transform="matrix(1,0,0,1,26,518)">
                <g id="cp_1_text-1_mb41jp15o7zm0-fill">
                    <g>
                        <rect x="10" y="10" width="228" height="84" style="fill:rgb(221,201,22);"/>
                    </g>
                </g>
            </g>
            <g id="g-root-cp_1_stick-1_4kgi5115o7yte-fill" transform="matrix(1,0,0,1,247.997,601)">
                <g id="cp_1_stick-1_4kgi5115o7yte-fill">
                    <g>
                        <rect x="10.003" y="11" width="5.997" height="36" style="fill:rgb(255,231,17);"/>
                    </g>
                </g>
            </g>
            <g id="g-root-cp_10_text-10_1qa41qt15o8078-fill" transform="matrix(1,0,0,1,278,98)">
                <g id="cp_10_text-10_1qa41qt15o8078-fill">
                    <g>
                        <rect x="10" y="10" width="228" height="108" style="fill:rgb(183,183,183);"/>
                    </g>
                </g>
            </g>
            <g id="g-root-cp_10_stick-10_1cza0gl15o7yme-fill" transform="matrix(1,0,0,1,278.003,206)">
                <g id="cp_10_stick-10_1cza0gl15o7yme-fill">
                    <g>
                        <rect x="10" y="10" width="5.997" height="432" style="fill:rgb(183,183,183);"/>
                    </g>
                </g>
            </g>
            <g id="g-root-cp_8_text-8_v8mh1x15o7xts-fill" transform="matrix(1,0,0,1,284,206)">
                <g id="cp_8_text-8_v8mh1x15o7xts-fill">
                    <g>
                        <rect x="10" y="10" width="228" height="84" style="fill:rgb(166,218,55);"/>
                    </g>
                </g>
            </g>
            <g id="g-root-cp_8_stick-8_hx5yol15o7zeq-fill" transform="matrix(1,0,0,1,284.003,290)">
                <g id="cp_8_stick-8_hx5yol15o7zeq-fill">
                    <g>
                        <rect x="10" y="10" width="5.997" height="348" style="fill:rgb(166,218,55);"/>
                    </g>
                </g>
            </g>
            <g id="g-root-cp_6_text-6_4mbxed15o7xtw-fill" transform="matrix(1,0,0,1,290,290)">
                <g id="cp_6_text-6_4mbxed15o7xtw-fill">
                    <g>
                        <rect x="10" y="10" width="228" height="132" style="fill:rgb(135,105,253);"/>
                    </g>
                </g>
            </g>
            <g id="g-root-cp_6_stick-6_1qbzh0515o7z7q-fill" transform="matrix(1,0,0,1,290.003,422)">
                <g id="cp_6_stick-6_1qbzh0515o7z7q-fill">
                    <g>
                        <rect x="10" y="10" width="5.997" height="216" style="fill:rgb(135,105,253);"/>
                    </g>
                </g>
            </g>
            <g id="g-root-cp_4_text-4_1d15fpx15o7xmw-fill" transform="matrix(1,0,0,1,296,422)">
                <g id="cp_4_text-4_1d15fpx15o7xmw-fill">
                    <g>
                        <rect x="10" y="10" width="228" height="84" style="fill:rgb(243,102,187);"/>
                    </g>
                </g>
            </g>
            <g id="g-root-cp_4_stick-4_zpoxcl15o7z7u-fill" transform="matrix(1,0,0,1,296.003,506)">
                <g id="cp_4_stick-4_zpoxcl15o7z7u-fill">
                    <g>
                        <rect x="10" y="10" width="5.997" height="132" style="fill:rgb(243,102,187);"/>
                    </g>
                </g>
            </g>
            <g id="g-root-cp_2_text-2_meuw2d15o7xn0-fill" transform="matrix(1,0,0,1,302,506)">
                <g id="cp_2_text-2_meuw2d15o7xn0-fill">
                    <g>
                        <rect x="10" y="10" width="228" height="84" style="fill:rgb(247,148,56);"/>
                    </g>
                </g>
            </g>
            <g id="g-root-cp_2_stick-2_93edp115o7z7y-fill" transform="matrix(1,0,0,1,302.003,589)">
                <g id="cp_2_stick-2_93edp115o7z7y-fill">
                    <g>
                        <rect x="10" y="10" width="5.997" height="49" style="fill:rgb(247,148,56);"/>
                    </g>
                </g>
            </g>
            <g id="g-root-cp_0_g-0_8duj915o7xmo-fill" transform="matrix(1,0,0,1,248,638)">
                <g id="cp_0_g-0_8duj915o7xmo-fill">
                    <g>
                        <path d="M30,58L40.001,82.001L50.001,58L30,58Z" style="fill:rgb(232,232,232);"/>
                    </g>
                </g>
                <g id="cp_0_g-0_8duj915o7xmo-fill1" serif:id="cp_0_g-0_8duj915o7xmo-fill">
                    <g>
                        <path d="M70.001,10L10,10L30,57.999L50.001,57.999L70.001,10Z" style="fill:rgb(232,232,232);"/>
                    </g>
                </g>
            </g>
            <g id="g-root-ic_moni_qn6p5h15oos8w-fill" transform="matrix(1,0,0,1,296,218)">
                <g id="ic_moni_qn6p5h15oos8w-fill">
                    <g>
                        <path d="M43.195,31.915L40.135,31.915L40.135,35.575C40.135,36.031 39.766,36.4 39.31,36.4L13.81,36.4C13.366,36.392 13.008,36.034 13,35.59L13,17.005C13,16.549 13.369,16.18 13.825,16.18L22.255,16.18L22.255,14.68C22.262,14.17 22.348,13.664 22.51,13.18L13.825,13.18C11.713,13.18 10,14.893 10,17.005L10,35.59C10.008,37.697 11.718,39.4 13.825,39.4L23.35,39.4C23.09,40.933 22.557,42.406 21.775,43.75L18.475,43.75C17.854,43.75 17.35,44.254 17.35,44.875C17.35,45.496 17.854,46 18.475,46L34.735,46C35.356,46 35.86,45.496 35.86,44.875C35.86,44.254 35.356,43.75 34.735,43.75L31.435,43.75C30.649,42.407 30.11,40.934 29.845,39.4L39.37,39.4C41.482,39.4 43.195,37.687 43.195,35.575L43.195,31.915ZM42.79,11.5L27.37,11.5C26.513,11.5 25.692,11.842 25.09,12.451C24.487,13.059 24.152,13.883 24.16,14.74L24.16,26.845C24.16,27.695 24.499,28.51 25.101,29.11C25.704,29.709 26.52,30.044 27.37,30.04L42.79,30.04C43.64,30.044 44.456,29.709 45.059,29.11C45.661,28.51 46,27.695 46,26.845L46,14.74C46.008,13.883 45.673,13.059 45.07,12.451C44.468,11.842 43.647,11.5 42.79,11.5ZM34.48,21.25L34.48,16.75L38.08,16.75L38.08,21.25L34.48,21.25ZM38.08,23.5L38.08,27.76L34.48,27.76L34.48,23.5L38.08,23.5ZM32.23,16.765L32.23,21.265L26.41,21.265L26.41,16.765L32.23,16.765ZM40.33,16.765L43.75,16.765L43.75,21.265L40.33,21.265L40.33,16.765ZM26.41,26.845L26.41,23.5L32.23,23.5L32.23,27.76L27.37,27.76C26.857,27.761 26.434,27.358 26.41,26.845ZM42.79,27.76L40.33,27.76L40.33,23.5L43.75,23.5L43.75,26.815C43.754,27.072 43.655,27.32 43.474,27.504C43.294,27.687 43.047,27.79 42.79,27.79L42.79,27.76Z" style="fill:rgb(244,244,244);"/>
                    </g>
                </g>
            </g>
            <g id="g-root-ic_1_1lto5p115oc749-fill" transform="matrix(1,0,0,1,314,518)">
                <g id="ic_1_1lto5p115oc749-fill">
                    <g>
                        <path d="M26.02,17.335C26.638,17.586 27.346,17.445 27.82,16.975L28.675,16.135L33.625,20.635L33.625,27.265C33.625,28.301 34.464,29.14 35.5,29.14C36.536,29.14 37.375,28.301 37.375,27.265L37.375,19.765C37.375,19.234 37.152,18.728 36.76,18.37L31.33,13.48L31.96,12.835C32.446,12.365 32.595,11.645 32.337,11.02C32.079,10.395 31.466,9.991 30.79,10L26.65,10C26.21,10 25.788,10.176 25.478,10.489C25.168,10.801 24.996,11.225 25,11.665L25,15.805C24.998,16.475 25.401,17.079 26.02,17.335L26.02,17.335ZM44.35,10L40.21,10C39.541,9.997 38.936,10.399 38.679,11.018C38.423,11.636 38.565,12.348 39.04,12.82L39.58,13.36L38.08,14.71C37.705,15.041 37.48,15.51 37.454,16.009C37.429,16.509 37.606,16.997 37.945,17.365C38.643,18.13 39.828,18.19 40.6,17.5L42.235,16L43.18,16.945C43.648,17.416 44.353,17.56 44.969,17.311C45.584,17.063 45.991,16.469 46,15.805L46,11.665C46.004,11.225 45.832,10.801 45.522,10.489C45.212,10.176 44.79,10 44.35,10ZM33.235,33.655C31.409,31.84 28.461,31.84 26.635,33.655L25.405,34.9C23.429,36.541 22.63,39.208 23.38,41.665C21.363,40.808 19.53,39.57 17.98,38.02C16.425,36.469 15.187,34.63 14.335,32.605C16.784,33.36 19.448,32.567 21.085,30.595L22.33,29.35C24.145,27.524 24.145,24.576 22.33,22.75L19.75,19.75C19,19 15.025,16.24 13.915,16.45C12.824,16.682 11.919,17.441 11.5,18.475C9.255,23.974 9.575,30.187 12.373,35.427C15.171,40.666 20.156,44.387 25.975,45.58C29.846,46.365 33.863,45.995 37.525,44.515C38.569,44.095 39.331,43.179 39.555,42.076C39.778,40.974 39.433,39.833 38.635,39.04L33.235,33.655Z" style="fill:rgb(244,244,244);"/>
                    </g>
                </g>
            </g>
            <g id="g-root-ic_head_v3mod115oj6rm-fill" transform="matrix(1,0,0,1,206,530)">
                <g id="ic_head_v3mod115oj6rm-fill">
                    <g>
                        <path d="M43.525,22.18L42.46,22.18C41.11,15.137 34.932,10.056 27.76,10.09C20.695,10.09 13.405,14.83 13.405,22.705C13.136,23.392 12.8,24.05 12.4,24.67C11.35,26.5 10.15,28.615 10.285,30.37L10.285,30.55C10.255,31.011 10.377,31.469 10.63,31.855C11.026,32.412 11.657,32.755 12.34,32.785L13.45,32.785C13.45,34.75 13.735,38.035 14.95,39.265C16.165,40.495 17.635,40.765 20.05,40.765L20.05,44.725C20.05,45.346 20.554,45.85 21.175,45.85C21.796,45.85 22.3,45.346 22.3,44.725L22.3,39.7C22.3,39.079 21.796,38.575 21.175,38.575C18.37,38.575 17.245,38.38 16.555,37.69C15.865,37 15.655,34.06 15.7,31.69C15.71,31.381 15.59,31.082 15.37,30.865C15.143,30.631 14.826,30.505 14.5,30.52C14.5,30.52 13.375,30.52 12.505,30.52C12.512,30.415 12.512,30.31 12.505,30.205C12.794,28.619 13.424,27.114 14.35,25.795C15,24.904 15.44,23.879 15.64,22.795C15.64,16.285 21.79,12.385 27.745,12.385C33.686,12.276 38.878,16.376 40.15,22.18L35.065,22.18C35.692,23.035 36.09,24.037 36.22,25.09L41.5,25.09C41.914,25.09 42.25,25.426 42.25,25.84C42.25,26.254 41.914,26.59 41.5,26.59L36.22,26.59C36.087,27.642 35.69,28.643 35.065,29.5L39.895,29.5C39.148,31.997 37.466,34.109 35.2,35.395C34.865,35.599 34.66,35.963 34.66,36.355L34.66,44.77C34.66,45.391 35.164,45.895 35.785,45.895C36.406,45.895 36.91,45.391 36.91,44.77L36.91,37C39.58,35.278 41.483,32.591 42.22,29.5L43.525,29.5C44.112,29.5 44.676,29.266 45.09,28.849C45.503,28.432 45.734,27.867 45.73,27.28L45.73,24.385C45.73,23.167 44.743,22.18 43.525,22.18ZM29.86,21.13C27.843,21.098 26.029,22.355 25.351,24.255C24.672,26.155 25.279,28.276 26.86,29.53L25.36,31.915C25.035,32.43 24.469,32.741 23.86,32.74L23.02,32.74C22.503,31.766 21.39,31.27 20.32,31.536C19.251,31.802 18.5,32.763 18.5,33.865C18.5,34.967 19.251,35.928 20.32,36.194C21.39,36.46 22.503,35.964 23.02,34.99L23.875,34.99C25.249,34.993 26.529,34.291 27.265,33.13L28.975,30.475C29.266,30.535 29.563,30.566 29.86,30.565C31.609,30.664 33.269,29.787 34.173,28.286C35.077,26.786 35.077,24.909 34.173,23.409C33.269,21.908 31.609,21.031 29.86,21.13Z" style="fill:rgb(244,244,244);"/>
                    </g>
                </g>
            </g>
            <g id="g-root-ic_1_1cvj5xx15oc6bl-fill" transform="matrix(1,0,0,1,224,230)">
                <g id="ic_1_1cvj5xx15oc6bl-fill">
                    <g>
                        <path d="M22.075,27.88C25.745,27.875 28.847,25.158 29.335,21.52C29.357,21.31 29.287,21.1 29.143,20.945C29,20.79 28.796,20.705 28.585,20.71L22.075,20.71L22.075,14.005C22.08,13.797 21.996,13.596 21.845,13.453C21.693,13.31 21.488,13.238 21.28,13.255C17.579,13.659 14.771,16.777 14.755,20.5C14.818,24.526 18.05,27.784 22.075,27.88ZM29.23,37.57L29.23,34C29.207,33.665 29.207,33.33 29.23,32.995C25.858,30.255 21.242,29.618 17.254,31.342C13.266,33.067 10.568,36.866 10.255,41.2C10.242,41.405 10.316,41.606 10.459,41.755C10.601,41.903 10.799,41.985 11.005,41.98L27.505,41.98C27.22,41.53 27.059,41.012 27.04,40.48C27.03,39.127 27.927,37.935 29.23,37.57ZM25.825,17.71L31.63,17.71L32.38,16.87C32.063,13.426 29.38,10.674 25.945,10.27C25.73,10.24 25.512,10.303 25.346,10.443C25.18,10.584 25.081,10.788 25.075,11.005L25.075,17.005C25.099,17.402 25.428,17.711 25.825,17.71ZM45.025,39.7C44.225,39.701 43.565,39.074 43.525,38.275L43.525,34C43.525,30.653 40.812,27.94 37.465,27.94C34.118,27.94 31.405,30.653 31.405,34L31.405,38.275C31.365,39.074 30.705,39.701 29.905,39.7C29.511,39.708 29.193,40.026 29.185,40.42C29.193,40.812 29.513,41.125 29.905,41.125L44.905,41.125C45.184,41.166 45.461,41.039 45.614,40.802C45.767,40.565 45.767,40.26 45.614,40.023C45.461,39.786 45.184,39.659 44.905,39.7L45.025,39.7ZM34.795,43C34.795,44.516 36.024,45.745 37.54,45.745C39.056,45.745 40.285,44.516 40.285,43L34.795,43Z" style="fill:rgb(244,244,244);"/>
                    </g>
                </g>
            </g>
            <g id="g-root-ic_news_1uoolp115orn5v-fill" transform="matrix(1,0,0,1,302,302)">
                <g id="ic_news_1uoolp115orn5v-fill">
                    <g>
                        <path d="M22,18.625L16,18.625C15.586,18.625 15.25,18.961 15.25,19.375L15.25,23.875C15.25,24.289 15.586,24.625 16,24.625L22,24.625L22,18.625ZM16,29.125L19,29.125C19,29.125 19.75,29.125 19.75,29.875L19.75,34.375C19.75,34.375 19.75,35.125 19,35.125L16,35.125C16,35.125 15.25,35.125 15.25,34.375L15.25,29.875C15.25,29.875 15.25,29.125 16,29.125M27.325,30.745C26.247,30.731 25.2,30.385 24.325,29.755C24.318,29.795 24.318,29.835 24.325,29.875L24.325,34.375C24.325,34.789 24.661,35.125 25.075,35.125L28.075,35.125C28.489,35.125 28.825,34.789 28.825,34.375L28.825,30.745L27.325,30.745ZM31,30.745L31,38.5C31,38.914 30.664,39.25 30.25,39.25L13.75,39.25C13.336,39.25 13,38.914 13,38.5L13,15.25C13,14.836 13.336,14.5 13.75,14.5L22.465,14.5C23.101,13.237 24.396,12.442 25.81,12.445L28.105,12.445L28.105,11.5C28.095,10.986 28.192,10.475 28.39,10L14.5,10C12.015,10 10,12.015 10,14.5L10,41.5C10,43.985 12.015,46 14.5,46L29.5,46C31.985,46 34,43.985 34,41.5L34,30.745L31,30.745ZM44.575,10L31.78,10C31.387,9.995 31.01,10.154 30.74,10.439C30.469,10.723 30.33,11.108 30.355,11.5L30.355,23.605C30.355,24.226 29.851,24.73 29.23,24.73C28.609,24.73 28.105,24.226 28.105,23.605L28.105,14.695L25.81,14.695C24.982,14.695 24.31,15.367 24.31,16.195L24.31,25.465C24.31,27.122 25.653,28.465 27.31,28.465L43.15,28.465C44.724,28.465 46,27.189 46,25.615L46,11.5C46.025,11.108 45.886,10.723 45.615,10.439C45.345,10.154 44.968,9.995 44.575,10ZM34.24,14.5C34.24,14.086 34.576,13.75 34.99,13.75L42.07,13.75C42.484,13.75 42.82,14.086 42.82,14.5L42.82,16.945C42.82,17.359 42.484,17.695 42.07,17.695L34.99,17.695C34.576,17.695 34.24,17.359 34.24,16.945L34.24,14.5ZM40.315,25.75L34.615,25.75C34.204,25.742 33.873,25.411 33.865,25C33.865,24.586 34.201,24.25 34.615,24.25L40.315,24.25C40.729,24.25 41.065,24.586 41.065,25C41.027,25.387 40.704,25.684 40.315,25.69L40.315,25.75ZM42.445,22.195L34.615,22.195C34.204,22.187 33.873,21.856 33.865,21.445C33.865,21.031 34.201,20.695 34.615,20.695L42.445,20.695C42.859,20.695 43.195,21.031 43.195,21.445C43.164,21.836 42.837,22.136 42.445,22.135L42.445,22.195Z" style="fill:rgb(244,244,244);"/>
                    </g>
                </g>
            </g>
            <g id="g-root-ic_refr_1cvj5xx15om0hx-fill" transform="matrix(1,0,0,1,290,110)">
                <g id="ic_refr_1cvj5xx15om0hx-fill">
                    <g>
                        <path d="M13.765,19.18L39.265,19.18C41.33,19.172 43,17.495 43,15.43L43,13.93C42.992,11.862 41.318,10.188 39.25,10.18L13.75,10.18C11.682,10.188 10.008,11.862 10,13.93L10,15.43C10,16.427 10.397,17.383 11.104,18.087C11.81,18.791 12.768,19.184 13.765,19.18ZM15.475,14.68C15.475,13.999 15.886,13.386 16.516,13.126C17.145,12.867 17.869,13.014 18.348,13.497C18.828,13.981 18.968,14.706 18.703,15.333C18.438,15.961 17.821,16.366 17.14,16.36C16.696,16.36 16.27,16.183 15.957,15.867C15.645,15.552 15.471,15.124 15.475,14.68ZM21.265,14.68C21.265,13.752 22.017,13 22.945,13C23.873,13 24.625,13.752 24.625,14.68C24.625,15.608 23.873,16.36 22.945,16.36C22.017,16.36 21.265,15.608 21.265,14.68ZM35.5,24.43C37.76,24.431 39.971,25.093 41.86,26.335C42.086,26.484 42.376,26.497 42.614,26.369C42.852,26.24 43.001,25.991 43,25.72L43,24.445C43,22.371 41.323,20.688 39.25,20.68L13.75,20.68C11.679,20.68 10,22.359 10,24.43L10,25.93C9.996,26.926 10.39,27.882 11.094,28.586C11.798,29.29 12.754,29.684 13.75,29.68L25.405,29.68C25.644,29.679 25.868,29.561 26.005,29.365C28.183,26.278 31.722,24.439 35.5,24.43ZM24.595,25.18C24.595,25.862 24.182,26.477 23.551,26.735C22.919,26.993 22.194,26.844 21.716,26.357C21.238,25.87 21.102,25.143 21.372,24.516C21.641,23.889 22.263,23.488 22.945,23.5C23.867,23.508 24.61,24.258 24.61,25.18L24.595,25.18ZM18.805,25.18C18.805,25.861 18.394,26.474 17.764,26.734C17.135,26.993 16.411,26.846 15.932,26.363C15.452,25.879 15.312,25.154 15.577,24.527C15.842,23.899 16.459,23.494 17.14,23.5C18.068,23.5 18.82,24.252 18.82,25.18L18.805,25.18ZM13.765,40.18L23.62,40.18C23.86,40.181 24.086,40.068 24.228,39.876C24.37,39.683 24.412,39.434 24.34,39.205C23.675,36.888 23.759,34.421 24.58,32.155C24.652,31.926 24.61,31.677 24.468,31.484C24.326,31.292 24.1,31.179 23.86,31.18L13.765,31.18C12.768,31.176 11.81,31.569 11.104,32.273C10.397,32.977 10,33.933 10,34.93L10,36.43C9.996,37.428 10.392,38.387 11.099,39.091C11.807,39.796 12.767,40.188 13.765,40.18ZM15.475,35.68C15.475,34.999 15.886,34.386 16.516,34.126C17.145,33.867 17.869,34.014 18.348,34.497C18.828,34.981 18.968,35.706 18.703,36.333C18.438,36.961 17.821,37.366 17.14,37.36C16.696,37.36 16.27,37.183 15.957,36.867C15.645,36.552 15.471,36.124 15.475,35.68ZM42.76,29.26C42.614,29.403 42.381,29.403 42.235,29.26C40.475,27.588 38.138,26.658 35.71,26.665C31.248,26.675 27.385,29.766 26.398,34.117C25.41,38.469 27.561,42.925 31.582,44.859C35.603,46.793 40.427,45.692 43.21,42.205C43.728,41.566 43.634,40.629 43,40.105C42.353,39.594 41.415,39.702 40.9,40.345C39.219,42.456 36.419,43.328 33.836,42.544C31.253,41.76 29.411,39.48 29.186,36.79C28.962,34.1 30.402,31.546 32.82,30.345C35.237,29.145 38.142,29.541 40.15,31.345C40.228,31.412 40.273,31.512 40.27,31.615C40.271,31.715 40.233,31.812 40.165,31.885L38.02,34C37.81,34.214 37.748,34.533 37.862,34.811C37.976,35.088 38.245,35.271 38.545,35.275L45.235,35.275C45.649,35.275 45.985,34.939 45.985,34.525L45.985,27.85C45.99,27.542 45.805,27.262 45.52,27.145C45.241,27.037 44.924,27.101 44.71,27.31L43.945,28.075L42.76,29.26Z" style="fill:rgb(244,244,244);"/>
                    </g>
                </g>
            </g>
            <g id="g-root-ic_orde_me8i5115o7zly-fill" transform="matrix(1,0,0,1,308,434)">
                <g id="ic_orde_me8i5115o7zly-fill">
                    <g>
                        <path d="M17.245,33.295C18.073,33.295 18.745,32.623 18.745,31.795L18.745,28.69C18.745,27.862 18.073,27.19 17.245,27.19C16.417,27.19 15.745,27.862 15.745,28.69L15.745,31.795C15.745,32.623 16.417,33.295 17.245,33.295ZM20.62,39.19L19.495,39.19C19.081,39.19 18.745,38.854 18.745,38.44L18.745,37.315C18.745,36.487 18.073,35.815 17.245,35.815C16.417,35.815 15.745,36.487 15.745,37.315L15.745,38.5C15.745,40.571 17.424,42.25 19.495,42.25L20.62,42.25C21.448,42.25 22.12,41.578 22.12,40.75C22.12,39.922 21.448,39.25 20.62,39.25L20.62,39.19ZM29.245,39.19L26.095,39.19C25.267,39.19 24.595,39.862 24.595,40.69C24.595,41.518 25.267,42.19 26.095,42.19L29.245,42.19C30.073,42.19 30.745,41.518 30.745,40.69C30.745,39.862 30.073,39.19 29.245,39.19ZM42.655,25.765L35.905,25.765C35.005,25.757 34.139,26.109 33.499,26.743C32.86,27.377 32.5,28.24 32.5,29.14L32.5,42.64C32.504,43.538 32.865,44.397 33.504,45.027C34.143,45.658 35.007,46.008 35.905,46L42.655,46C44.501,45.984 45.992,44.486 46,42.64L46,29.14C46,27.288 44.507,25.781 42.655,25.765ZM35.905,28L42.655,28C43.276,28 43.78,28.504 43.78,29.125L43.78,40.69L34.78,40.69L34.78,29.14C34.78,28.516 35.281,28.008 35.905,28ZM28.48,22.735C28.48,22.318 28.147,21.978 27.73,21.97L11.095,21.97C10.893,21.97 10.7,22.051 10.559,22.195C10.418,22.339 10.341,22.534 10.345,22.735C10.319,22.923 10.393,23.111 10.54,23.23C12.288,24.469 14.399,25.092 16.54,25L22.345,25C24.461,25.077 26.543,24.455 28.27,23.23C28.428,23.118 28.51,22.926 28.48,22.735ZM12.61,20.38L26.215,20.38C26.425,20.372 26.59,20.2 26.59,19.99C26.586,16.669 24.312,13.782 21.085,13C21.032,12.984 20.988,12.946 20.965,12.895C20.935,12.85 20.935,12.79 20.965,12.745C21.06,12.522 21.111,12.283 21.115,12.04C21.032,11.161 20.295,10.49 19.413,10.49C18.53,10.49 17.793,11.161 17.71,12.04C17.714,12.283 17.765,12.522 17.86,12.745C17.875,12.794 17.875,12.846 17.86,12.895C17.834,12.949 17.784,12.988 17.725,13C14.5,13.783 12.231,16.672 12.235,19.99C12.235,20.2 12.4,20.372 12.61,20.38L12.61,20.38ZM15.22,15.88C16.126,14.968 17.306,14.378 18.58,14.2C18.727,14.179 18.877,14.218 18.996,14.308C19.114,14.398 19.191,14.532 19.21,14.68C19.255,14.99 19.04,15.279 18.73,15.325C17.694,15.465 16.734,15.946 16,16.69C15.895,16.801 15.748,16.862 15.595,16.855C15.45,16.858 15.31,16.804 15.205,16.705C14.992,16.475 14.999,16.117 15.22,15.895L15.22,15.88Z" style="fill:rgb(244,244,244);"/>
                    </g>
                </g>
            </g>
            <g id="g-root-ic_head_hznv1115odlak-fill" transform="matrix(1,0,0,1,218,338)">
                <g id="ic_head_hznv1115odlak-fill">
                    <g>
                        <path d="M28,10C18.059,10 10,18.059 10,28L10,39.25C10,40.907 11.343,42.25 13,42.25C14.657,42.25 16,40.907 16,39.25L16,32.5C16.009,30.964 14.857,29.669 13.33,29.5C13.146,29.478 13.006,29.325 13,29.14L13,28C13,19.716 19.716,13 28,13C36.284,13 43,19.716 43,28L43,29.14C43.001,29.331 42.859,29.492 42.67,29.515C41.149,29.683 39.998,30.97 40,32.5L40,39.25C40,40.907 41.343,42.25 43,42.25C44.657,42.25 46,40.907 46,39.25L46,28C46,18.059 37.941,10 28,10ZM36.25,22L22.75,22C21.507,22 20.5,23.007 20.5,24.25L20.5,24.625C20.5,24.832 20.332,25 20.125,25L19.75,25C18.507,25 17.5,26.007 17.5,27.25L17.5,31C17.5,32.243 18.507,33.25 19.75,33.25L20.125,33.25C20.332,33.25 20.5,33.418 20.5,33.625L20.5,43.75C20.5,44.993 21.507,46 22.75,46L36.25,46C37.493,46 38.5,44.993 38.5,43.75L38.5,24.25C38.5,23.007 37.493,22 36.25,22ZM34.75,26.5L34.75,38.5C34.75,39.328 34.078,40 33.25,40L25.75,40C24.922,40 24.25,39.328 24.25,38.5L24.25,26.5C24.25,25.672 24.922,25 25.75,25L33.25,25C34.078,25 34.75,25.672 34.75,26.5ZM28.75,29.5C28.75,30.328 29.422,31 30.25,31C31.078,31 31.75,30.328 31.75,29.5C31.75,28.672 31.078,28 30.25,28C29.422,28 28.75,28.672 28.75,29.5M28.75,35.5C28.75,36.328 29.422,37 30.25,37C31.078,37 31.75,36.328 31.75,35.5C31.75,34.672 31.078,34 30.25,34C29.422,34 28.75,34.672 28.75,35.5" style="fill:rgb(244,244,244);"/>
                    </g>
                </g>
            </g>
            <g id="g-root-ic_hi_hvx0id15ogetj-fill" transform="matrix(1,0,0,1,212,422)">
                <g id="ic_hi_hvx0id15ogetj-fill">
                    <g>
                        <path d="M45.25,40L42.625,40C42.418,40 42.25,39.832 42.25,39.625L42.25,33.25C42.25,32.422 41.578,31.75 40.75,31.75C39.922,31.75 39.25,32.422 39.25,33.25L39.25,39.625C39.25,39.832 39.082,40 38.875,40L17.125,40C16.918,40 16.75,39.832 16.75,39.625L16.75,23.755C16.75,23.2 17.2,22.75 17.755,22.75L21.25,22.75C22.078,22.75 22.75,22.078 22.75,21.25C22.75,20.422 22.078,19.75 21.25,19.75L17.755,19.75C15.547,19.758 13.758,21.547 13.75,23.755L13.75,39.625C13.75,39.832 13.582,40 13.375,40L10.75,40C10.336,40 10,40.336 10,40.75C10,43.649 12.351,46 15.25,46L40.75,46C43.649,46 46,43.649 46,40.75C46,40.336 45.664,40 45.25,40ZM25.75,31C25.859,30.998 25.967,30.973 26.065,30.925L31.15,28.51C31.259,28.459 31.386,28.459 31.495,28.51C35.114,30.48 39.577,29.991 42.683,27.284C45.789,24.576 46.883,20.222 45.425,16.368C43.967,12.514 40.266,9.974 36.145,10C33.55,9.999 31.065,11.044 29.25,12.899C27.435,14.753 26.444,17.261 26.5,19.855C26.453,21.462 26.793,23.056 27.49,24.505C27.541,24.614 27.541,24.741 27.49,24.85L25.075,29.935C24.941,30.218 25.001,30.556 25.225,30.775C25.36,30.921 25.551,31.002 25.75,31ZM35.5,19.375C35.707,19.375 35.875,19.207 35.875,19L35.875,17.5C35.875,16.879 36.379,16.375 37,16.375C37.621,16.375 38.125,16.879 38.125,17.5L38.125,22.75C38.125,23.371 37.621,23.875 37,23.875C36.379,23.875 35.875,23.371 35.875,22.75L35.875,22C35.875,21.793 35.707,21.625 35.5,21.625L34,21.625C33.793,21.625 33.625,21.793 33.625,22L33.625,22.75C33.625,23.371 33.121,23.875 32.5,23.875C31.879,23.875 31.375,23.371 31.375,22.75L31.375,17.5C31.375,16.879 31.879,16.375 32.5,16.375C33.121,16.375 33.625,16.879 33.625,17.5L33.625,19C33.625,19.207 33.793,19.375 34,19.375L35.5,19.375ZM41.875,22.75C41.875,23.371 41.371,23.875 40.75,23.875C40.129,23.875 39.625,23.371 39.625,22.75L39.625,17.5C39.625,16.879 40.129,16.375 40.75,16.375C41.371,16.375 41.875,16.879 41.875,17.5L41.875,22.75Z" style="fill:rgb(244,244,244);"/>
                    </g>
                </g>
            </g>
            <g id="g-root-tx_voicemai_qpolhx15ogf0l-fill" transform="matrix(1,0,0,1,80,422)">
                <g id="tx_voicemai_qpolhx15ogf0l-fill">
                    <g>
                        <g>
                            <g transform="matrix(1,0,0,1,16.22,34)">
                                <text x="0px" y="0px" style="font-family:'Arial-BoldMT', 'Arial', sans-serif;font-weight:700;font-size:20px;fill:rgb(44,44,44);">V<tspan x="11.855px 24.072px " y="0px 0px ">oi</tspan>cemail to</text>
                            </g>
                            <g transform="matrix(1,0,0,1,78.13,58)">
                                <text x="0px" y="0px" style="font-family:'Arial-BoldMT', 'Arial', sans-serif;font-weight:700;font-size:20px;fill:rgb(44,44,44);">Email</text>
                            </g>
                        </g>
                    </g>
                </g>
            </g>
            <g transform="matrix(1,0,0,1,75.42,180)">
                <g id="g-root-tx_hdvoiceq_959syd15o7y8c-fill">
                    <g id="tx_hdvoiceq_959syd15o7y8c-fill">
                        <g>
                            <g>
                                <text x="0px" y="0px" style="font-family:'Arial-BoldMT', 'Arial', sans-serif;font-weight:700;font-size:20px;fill:rgb(44,44,44);">HD V<tspan x="46.299px 58.516px " y="0px 0px ">oi</tspan>ce Quality</text>
                            </g>
                        </g>
                    </g>
                </g>
            </g>
            <g id="g-root-tx__8x5mtx15ormru-fill">
            </g>
            <g id="g-root-tx__1lxex1x15odjpn-fill">
            </g>
            <g id="g-root-tx__13yn7it15o9e6l-fill">
            </g>
            <g id="g-root-tx__1cy12ad15oge1a-fill">
            </g>
            <g id="g-root-tx__1luams515o7zt1-fill">
            </g>
            <g id="g-root-tx_disaster_18egpn915olz43-fill" transform="matrix(1,0,0,1,338,110)">
                <g id="tx_disaster_18egpn915olz43-fill">
                    <g>
                        <g>
                            <g transform="matrix(1,0,0,1,12,34)">
                                <text x="0px" y="0px" style="font-family:'Arial-BoldMT', 'Arial', sans-serif;font-weight:700;font-size:20px;fill:rgb(44,44,44);">Disaster</text>
                            </g>
                            <g transform="matrix(1,0,0,1,12,58)">
                                <text x="0px" y="0px" style="font-family:'Arial-BoldMT', 'Arial', sans-serif;font-weight:700;font-size:20px;fill:rgb(44,44,44);">Recovery</text>
                            </g>
                        </g>
                    </g>
                </g>
            </g>
            <g transform="matrix(1,0,0,1,65.95,564)">
                <g id="g-root-tx_autoatte_147duqd15ohse8-fill">
                    <g id="tx_autoatte_147duqd15ohse8-fill">
                        <g>
                            <g>
                                <text x="0px" y="0px" style="font-family:'Arial-BoldMT', 'Arial', sans-serif;font-weight:700;font-size:20px;fill:rgb(44,44,44);">Auto <tspan x="50.352px 64.795px " y="0px 0px ">At</tspan>tendant</text>
                            </g>
                        </g>
                    </g>
                </g>
            </g>
            <g transform="matrix(1,0,0,1,82.98,372)">
                <g id="g-root-tx_callreco_144vydx15odjwq-fill">
                    <g id="tx_callreco_144vydx15odjwq-fill">
                        <g>
                            <g>
                                <text x="0px" y="0px" style="font-family:'Arial-BoldMT', 'Arial', sans-serif;font-weight:700;font-size:20px;fill:rgb(44,44,44);">Call Recording</text>
                            </g>
                        </g>
                    </g>
                </g>
            </g>
            <g id="g-root-tx__8wj5qt15olzws-fill">
            </g>
            <g id="g-root-tx_mobileex_qwjtg515oq7lt-fill" transform="matrix(1,0,0,1,350,302)">
                <g id="tx_mobileex_qwjtg515oq7lt-fill">
                    <g>
                        <g>
                            <g transform="matrix(1,0,0,1,12,34)">
                                <text x="0px" y="0px" style="font-family:'Arial-BoldMT', 'Arial', sans-serif;font-weight:700;font-size:20px;fill:rgb(44,44,44);">Mobile</text>
                            </g>
                            <g transform="matrix(1,0,0,1,12,58)">
                                <text x="0px" y="0px" style="font-family:'Arial-BoldMT', 'Arial', sans-serif;font-weight:700;font-size:20px;fill:rgb(44,44,44);">Extension</text>
                            </g>
                            <g transform="matrix(1,0,0,1,12,82)">
                                <text x="0px" y="0px" style="font-family:'Arial-BoldMT', 'Arial', sans-serif;font-weight:700;font-size:20px;fill:rgb(44,44,44);">Support</text>
                            </g>
                        </g>
                    </g>
                </g>
            </g>
            <g id="g-root-tx_realtime_zqxvit15oas5r-fill" transform="matrix(1,0,0,1,68,230)">
                <g id="tx_realtime_zqxvit15oas5r-fill">
                    <g>
                        <g>
                            <g transform="matrix(1,0,0,1,19.33,34)">
                                <text x="0px" y="0px" style="font-family:'Arial-BoldMT', 'Arial', sans-serif;font-weight:700;font-size:20px;fill:rgb(44,44,44);">Real-T<tspan x="60.762px 66.318px " y="0px 0px ">im</tspan>e Call</text>
                            </g>
                            <g transform="matrix(1,0,0,1,68.85,58)">
                                <text x="0px" y="0px" style="font-family:'Arial-BoldMT', 'Arial', sans-serif;font-weight:700;font-size:20px;fill:rgb(44,44,44);">Analytics</text>
                            </g>
                        </g>
                    </g>
                </g>
            </g>
            <g id="g-root-tx__v3079x15oc6io-fill">
            </g>
            <g transform="matrix(1,0,0,1,374,552)">
                <g id="g-root-tx_callrout_1lxf07p15oaqz3-fill">
                    <g id="tx_callrout_1lxf07p15oaqz3-fill">
                        <g>
                            <g>
                                <text x="0px" y="0px" style="font-family:'Arial-BoldMT', 'Arial', sans-serif;font-weight:700;font-size:20px;fill:rgb(44,44,44);">Call Routing</text>
                            </g>
                        </g>
                    </g>
                </g>
            </g>
            <g id="g-root-tx__9msph15ohtz5-fill">
            </g>
            <g id="g-root-tx__1cuws0l15oc7ig-fill">
            </g>
            <g id="g-root-tx__4ottqt15ondvz-fill">
            </g>
            <g transform="matrix(1,0,0,1,356,252)">
                <g id="g-root-tx_crminteg_dileqd15one32-fill">
                    <g id="tx_crminteg_dileqd15one32-fill">
                        <g>
                            <g>
                                <text x="0px" y="0px" style="font-family:'Arial-BoldMT', 'Arial', sans-serif;font-weight:700;font-size:20px;fill:rgb(44,44,44);">CRM Integration</text>
                            </g>
                        </g>
                    </g>
                </g>
            </g>
            <g transform="matrix(1,0,0,1,368,468)">
                <g id="g-root-tx_multilev_qp27kl15o7zf0-fill">
                    <g id="tx_multilev_qp27kl15o7zf0-fill">
                        <g>
                            <g>
                                <text x="0px" y="0px" style="font-family:'Arial-BoldMT', 'Arial', sans-serif;font-weight:700;font-size:20px;fill:rgb(44,44,44);">Multi-level IVR</text>
                            </g>
                        </g>
                    </g>
                </g>
            </g>
            <g id="g-root-cp_9_text-9_hs65zp15o7z7k-stroke" transform="matrix(1,0,0,1,50,134)">
                <g id="cp_9_text-9_hs65zp15o7z7k-stroke">
                    <g>
                        <path d="M10,94L10,10L238,10L238,94" style="fill:none;stroke:rgb(44,44,44);stroke-width:2px;"/>
                    </g>
                </g>
            </g>
            <g id="g-root-cp_9_stick-9_1umt6fp15o7y8a-stroke" transform="matrix(1,0,0,1,272,218)">
                <g id="cp_9_stick-9_1umt6fp15o7y8a-stroke">
                    <g>
                        <path d="M15.997,430L15.997,10" style="fill:none;stroke:rgb(44,44,44);stroke-width:2px;"/>
                    </g>
                </g>
            </g>
            <g id="g-root-cp_7_text-7_1cw5n1115o7xfo-stroke" transform="matrix(1,0,0,1,44,218)">
                <g id="cp_7_text-7_1cw5n1115o7xfo-stroke">
                    <g>
                        <path d="M10,118L10,10L238,10L238,118" style="fill:none;stroke:rgb(44,44,44);stroke-width:2px;"/>
                    </g>
                </g>
            </g>
            <g id="g-root-cp_7_stick-7_m9v3dh15o7xfq-stroke" transform="matrix(1,0,0,1,266,326)">
                <g id="cp_7_stick-7_m9v3dh15o7xfq-stroke">
                    <g>
                        <path d="M15.997,322L15.997,10" style="fill:none;stroke:rgb(44,44,44);stroke-width:2px;"/>
                    </g>
                </g>
            </g>
            <g id="g-root-cp_5_text-5_8yel0515o7z0o-stroke" transform="matrix(1,0,0,1,38,326)">
                <g id="cp_5_text-5_8yel0515o7z0o-stroke">
                    <g>
                        <path d="M10,94L10,10L238,10L238,94" style="fill:none;stroke:rgb(44,44,44);stroke-width:2px;"/>
                    </g>
                </g>
            </g>
            <g id="g-root-cp_5_stick-5_1q8v3kl15o7y0y-stroke" transform="matrix(1,0,0,1,260,410)">
                <g id="cp_5_stick-5_1q8v3kl15o7y0y-stroke">
                    <g>
                        <path d="M15.997,238L15.997,10" style="fill:none;stroke:rgb(44,44,44);stroke-width:2px;"/>
                    </g>
                </g>
            </g>
            <g id="g-root-cp_3_text-3_1cxel7915o7zlw-stroke" transform="matrix(1,0,0,1,32,410)">
                <g id="cp_3_text-3_1cxel7915o7zlw-stroke">
                    <g>
                        <path d="M10,118L10,10L238,10L238,118" style="fill:none;stroke:rgb(44,44,44);stroke-width:2px;"/>
                    </g>
                </g>
            </g>
            <g id="g-root-cp_3_stick-3_zmkjx115o7y12-stroke" transform="matrix(1,0,0,1,254,518)">
                <g id="cp_3_stick-3_zmkjx115o7y12-stroke">
                    <g>
                        <path d="M15.997,130L15.997,10" style="fill:none;stroke:rgb(44,44,44);stroke-width:2px;"/>
                    </g>
                </g>
            </g>
            <g id="g-root-cp_1_text-1_mb41jp15o7zm0-stroke" transform="matrix(1,0,0,1,26,518)">
                <g id="cp_1_text-1_mb41jp15o7zm0-stroke">
                    <g>
                        <path d="M238,94L238,10L10,10L10,94L232.5,94" style="fill:none;stroke:rgb(44,44,44);stroke-width:2px;"/>
                    </g>
                </g>
            </g>
            <g id="g-root-cp_1_stick-1_4kgi5115o7yte-stroke" transform="matrix(1,0,0,1,247.997,601)">
                <g id="cp_1_stick-1_4kgi5115o7yte-stroke">
                    <g>
                        <path d="M16,47L16,11M10,47L10,10" style="fill:none;stroke:rgb(44,44,44);stroke-width:2px;"/>
                    </g>
                </g>
            </g>
            <g id="g-root-cp_10_text-10_1qa41qt15o8078-stroke" transform="matrix(1,0,0,1,278,98)">
                <g id="cp_10_text-10_1qa41qt15o8078-stroke">
                    <g>
                        <path d="M238,118L238,10L10,10L10,118" style="fill:none;stroke:rgb(44,44,44);stroke-width:2px;"/>
                    </g>
                </g>
            </g>
            <g id="g-root-cp_10_stick-10_1cza0gl15o7yme-stroke" transform="matrix(1,0,0,1,278.003,206)">
                <g id="cp_10_stick-10_1cza0gl15o7yme-stroke">
                    <g>
                        <path d="M10.001,442L10.001,10" style="fill:none;stroke:rgb(44,44,44);stroke-width:2px;"/>
                    </g>
                </g>
            </g>
            <g id="g-root-cp_8_text-8_v8mh1x15o7xts-stroke" transform="matrix(1,0,0,1,284,206)">
                <g id="cp_8_text-8_v8mh1x15o7xts-stroke">
                    <g>
                        <path d="M238,94L238,10L10,10L10,94" style="fill:none;stroke:rgb(44,44,44);stroke-width:2px;"/>
                    </g>
                </g>
            </g>
            <g id="g-root-cp_8_stick-8_hx5yol15o7zeq-stroke" transform="matrix(1,0,0,1,284.003,290)">
                <g id="cp_8_stick-8_hx5yol15o7zeq-stroke">
                    <g>
                        <path d="M10.001,358L10.001,10" style="fill:none;stroke:rgb(44,44,44);stroke-width:2px;"/>
                    </g>
                </g>
            </g>
            <g id="g-root-cp_6_text-6_4mbxed15o7xtw-stroke" transform="matrix(1,0,0,1,290,290)">
                <g id="cp_6_text-6_4mbxed15o7xtw-stroke">
                    <g>
                        <path d="M238,142L238,10L10,10L10,142" style="fill:none;stroke:rgb(44,44,44);stroke-width:2px;"/>
                    </g>
                </g>
            </g>
            <g id="g-root-cp_6_stick-6_1qbzh0515o7z7q-stroke" transform="matrix(1,0,0,1,290.003,422)">
                <g id="cp_6_stick-6_1qbzh0515o7z7q-stroke">
                    <g>
                        <path d="M10.001,226L10.001,10" style="fill:none;stroke:rgb(44,44,44);stroke-width:2px;"/>
                    </g>
                </g>
            </g>
            <g id="g-root-cp_4_text-4_1d15fpx15o7xmw-stroke" transform="matrix(1,0,0,1,296,422)">
                <g id="cp_4_text-4_1d15fpx15o7xmw-stroke">
                    <g>
                        <path d="M238,94L238,10L10,10L10,94" style="fill:none;stroke:rgb(44,44,44);stroke-width:2px;"/>
                    </g>
                </g>
            </g>
            <g id="g-root-cp_4_stick-4_zpoxcl15o7z7u-stroke" transform="matrix(1,0,0,1,296.003,506)">
                <g id="cp_4_stick-4_zpoxcl15o7z7u-stroke">
                    <g>
                        <path d="M10.001,142L10.001,10" style="fill:none;stroke:rgb(44,44,44);stroke-width:2px;"/>
                    </g>
                </g>
            </g>
            <g id="g-root-cp_2_text-2_meuw2d15o7xn0-stroke" transform="matrix(1,0,0,1,302,506)">
                <g id="cp_2_text-2_meuw2d15o7xn0-stroke">
                    <g>
                        <path d="M10,94L10,10L238,10L238,94L15.5,94" style="fill:none;stroke:rgb(44,44,44);stroke-width:2px;"/>
                    </g>
                </g>
            </g>
            <g id="g-root-cp_2_stick-2_93edp115o7z7y-stroke" transform="matrix(1,0,0,1,302.003,589)">
                <g id="cp_2_stick-2_93edp115o7z7y-stroke">
                    <g>
                        <path d="M10.001,59L10.001,10M15.997,59L15.997,10" style="fill:none;stroke:rgb(44,44,44);stroke-width:2px;"/>
                    </g>
                </g>
            </g>
            <g id="g-root-cp_0_g-0_8duj915o7xmo-stroke" transform="matrix(1,0,0,1,248,638)">
                <g id="cp_0_g-0_8duj915o7xmo-stroke">
                    <g>
                        <path d="M30,58L40.001,82.001L50.001,58L30,58Z" style="fill:none;stroke:rgb(44,44,44);stroke-width:2px;"/>
                    </g>
                </g>
                <g id="cp_0_g-0_8duj915o7xmo-stroke1" serif:id="cp_0_g-0_8duj915o7xmo-stroke">
                    <g>
                        <path d="M70.001,10L10,10L30,57.999L50.001,57.999L70.001,10Z" style="fill:none;stroke:rgb(44,44,44);stroke-width:2px;"/>
                    </g>
                </g>
            </g>
            <g id="g-root-ic_equa_1iml115o9clq-stroke" transform="matrix(1,0,0,1,230,146)">
                <g id="ic_equa_1iml115o9clq-stroke">
                    <g>
                        <path d="M12.571,24.143L12.571,31.857M20.286,17.714L20.286,38.286M28,11.286L28,44.714M35.714,17.714L35.714,38.286M43.429,24.143L43.429,31.857" style="fill:none;stroke:white;stroke-width:2px;"/>
                    </g>
                </g>
            </g>
        </g>
    </g>
</svg>
