<?xml version="1.0" encoding="UTF-8" standalone="no"?>
<!DOCTYPE svg PUBLIC "-//W3C//DTD SVG 1.1//EN" "http://www.w3.org/Graphics/SVG/1.1/DTD/svg11.dtd">
<svg width="100%" height="100%" viewBox="0 0 618 636" version="1.1" xmlns="http://www.w3.org/2000/svg" xmlns:xlink="http://www.w3.org/1999/xlink" xml:space="preserve" xmlns:serif="http://www.serif.com/" style="fill-rule:evenodd;clip-rule:evenodd;stroke-linecap:round;stroke-linejoin:round;">
    <g id="items" transform="matrix(1.21935,0,0,1.21935,-67.7779,-119.57)">
        <g id="blend">
            <g id="g-root-cp_1_sign-1_908y9y168ifb8-fill" transform="matrix(1,0,0,1,50,146)">
                <g id="cp_1_sign-1_908y9y168ifb8-fill">
                    <g>
                        <path d="M10,52L28,10L28,94L10,52ZM28,10L249,10L249,94L28,94L28,10Z" style="fill:url(#_Linear1);"/>
                    </g>
                </g>
            </g>
            <g id="g-root-cp_3_sign-3_1luvypy168ieby-fill" transform="matrix(1,0,0,1,74,242)">
                <g id="cp_3_sign-3_1luvypy168ieby-fill">
                    <g>
                        <path d="M10,64L28,10L28,118L10,64ZM28,10L225,10L225,118L28,118L28,10Z" style="fill:url(#_Linear2);"/>
                    </g>
                </g>
            </g>
            <g id="g-root-cp_5_sign-5_1czvfk6168icqo-fill" transform="matrix(1,0,0,1,50,362)">
                <g id="cp_5_sign-5_1czvfk6168icqo-fill">
                    <g>
                        <path d="M10,52L28,10L28,94L10,52ZM28,10L249,10L249,94L28,94L28,10Z" style="fill:url(#_Linear3);"/>
                    </g>
                </g>
            </g>
            <g id="g-root-cp_pole_g-pole_qsrwxy168if4a-fill" transform="matrix(1,0,0,1,287,122)">
                <g id="cp_pole_g-pole_qsrwxy168if4a-fill">
                    <g>
                        <path d="M31,346L13,346L13,460L31,460L31,459.897L24.55,459.88C24.55,459.88 25.3,453.89 17.74,452.78C25.63,449.53 28.41,454.56 28.41,454.56C28.41,454.56 27.994,447.986 31,442.2L31,346ZM13,22L31,22L31,346L13,346L13,22Z" style="fill:url(#_Linear4);"/>
                    </g>
                </g>
                <g id="cp_pole_g-pole_qsrwxy168if4a-fill1" serif:id="cp_pole_g-pole_qsrwxy168if4a-fill">
                    <g>
                        <rect x="10" y="10" width="24" height="12" style="fill:url(#_Linear5);"/>
                    </g>
                </g>
            </g>
            <g id="g-root-cp_pole_plant_mdkvwm168icqt-fill" transform="matrix(1,0,0,1,255,547)">
                <g id="cp_pole_plant_mdkvwm168icqt-fill">
                    <g>
                        <path d="M60.393,29.56C60.393,29.56 57.613,24.53 49.723,27.78C54.516,28.484 57.019,30.471 56.533,35.008L10,35.008C10,35.008 17.976,46.521 54.183,46.521C90.39,46.521 97.76,35.008 97.76,35.008L71.483,35.008C68.788,30.384 74.815,23.86 80.883,26.67C78.883,23.56 72.993,22.89 68.553,26C66.693,20.52 67.443,13.77 70.613,10C59.453,14.7 60.393,29.56 60.393,29.56Z" style="fill:url(#_Linear6);"/>
                    </g>
                </g>
            </g>
            <g id="g-root-cp_2_sign-2_924dja168iebr-fill" transform="matrix(1,0,0,1,309,182)">
                <g id="cp_2_sign-2_924dja168iebr-fill">
                    <g>
                        <path d="M10,10L231,10L231,94L10,94L10,10ZM249,52L231,10L231,94L249,52Z" style="fill:url(#_Linear7);"/>
                    </g>
                </g>
            </g>
            <g id="g-root-cp_4_sign-4_1usee86168icjt-fill" transform="matrix(1,0,0,1,309,278)">
                <g id="cp_4_sign-4_1usee86168icjt-fill">
                    <g>
                        <path d="M10,10L207,10L207,118L10,118L10,10ZM225,64L207,10L207,118L225,64Z" style="fill:url(#_Linear8);"/>
                    </g>
                </g>
            </g>
            <g id="g-root-cp_6_sign-6_1hgxvuu168ie4r-fill" transform="matrix(1,0,0,1,309,398)">
                <g id="cp_6_sign-6_1hgxvuu168ie4r-fill">
                    <g>
                        <path d="M10,10L231,10L231,70L10,70L10,10ZM249,40L231,10L231,70L249,40Z" style="fill:url(#_Linear9);"/>
                    </g>
                </g>
            </g>
            <g id="g-root-tx_costeffi_zko2o6168l7uv-fill" transform="matrix(1,0,0,1,122,164)">
                <g id="tx_costeffi_zko2o6168l7uv-fill">
                    <g>
                        <g>
                            <g transform="matrix(1,0,0,1,45.22,34)">
                                <g transform="matrix(20,0,0,20,61.123,0)">
                                </g>
                                <g transform="matrix(20,0,0,20,66.5018,0)">
                                </g>
                                <g transform="matrix(20,0,0,20,71.8805,0)">
                                </g>
                                <text x="0px" y="0px" style="font-family:'ArialMT', 'Arial', sans-serif;font-size:20px;fill:rgb(244,244,244);">Cost-Eﬃcient</text>
                            </g>
                            <g transform="matrix(1,0,0,1,22.35,58)">
                                <text x="0px" y="0px" style="font-family:'ArialMT', 'Arial', sans-serif;font-size:20px;fill:rgb(244,244,244);">Communication</text>
                            </g>
                        </g>
                    </g>
                </g>
            </g>
            <g id="g-root-tx_scalable_hsro9216874lh-fill" transform="matrix(1,0,0,1,320,200)">
                <g id="tx_scalable_hsro9216874lh-fill">
                    <g>
                        <g>
                            <g transform="matrix(1,0,0,1,12,34)">
                                <text x="0px" y="0px" style="font-family:'ArialMT', 'Arial', sans-serif;font-size:20px;fill:rgb(244,244,244);">Scalable as <tspan x="108.594px 120.098px 131.221px " y="0px 0px 0px ">You</tspan></text>
                            </g>
                            <g transform="matrix(1,0,0,1,12,58)">
                                <text x="0px" y="0px" style="font-family:'ArialMT', 'Arial', sans-serif;font-size:20px;fill:rgb(244,244,244);">Grow</text>
                            </g>
                        </g>
                    </g>
                </g>
            </g>
            <g id="g-root-tx_quickset_1hefzie168mn7l-fill" transform="matrix(1,0,0,1,146,260)">
                <g id="tx_quickset_1hefzie168mn7l-fill">
                    <g>
                        <g>
                            <g transform="matrix(1,0,0,1,16.07,34)">
                                <text x="0px" y="0px" style="font-family:'ArialMT', 'Arial', sans-serif;font-size:20px;fill:rgb(244,244,244);">Quick Setup &amp;</text>
                            </g>
                            <g transform="matrix(1,0,0,1,99.63,58)">
                                <text x="0px" y="0px" style="font-family:'ArialMT', 'Arial', sans-serif;font-size:20px;fill:rgb(244,244,244);">Zero</text>
                            </g>
                            <g transform="matrix(1,0,0,1,24.53,82)">
                                <text x="0px" y="0px" style="font-family:'ArialMT', 'Arial', sans-serif;font-size:20px;fill:rgb(244,244,244);">Maintenance</text>
                            </g>
                        </g>
                    </g>
                </g>
            </g>
            <g id="g-root-tx_enhanced_zp1hfq168fk06-fill" transform="matrix(1,0,0,1,320,296)">
                <g id="tx_enhanced_zp1hfq168fk06-fill">
                    <g>
                        <g>
                            <g transform="matrix(1,0,0,1,12,34)">
                                <text x="0px" y="0px" style="font-family:'ArialMT', 'Arial', sans-serif;font-size:20px;fill:rgb(244,244,244);">Enhanced</text>
                            </g>
                            <g transform="matrix(1,0,0,1,12,58)">
                                <text x="0px" y="0px" style="font-family:'ArialMT', 'Arial', sans-serif;font-size:20px;fill:rgb(244,244,244);">Remote</text>
                            </g>
                            <g transform="matrix(1,0,0,1,12,82)">
                                <text x="0px" y="0px" style="font-family:'ArialMT', 'Arial', sans-serif;font-size:20px;fill:rgb(244,244,244);">Collaboration</text>
                            </g>
                        </g>
                    </g>
                </g>
            </g>
            <g id="g-root-tx_professi_18koeiu168pds3-fill" transform="matrix(1,0,0,1,122,380)">
                <g id="tx_professi_18koeiu168pds3-fill">
                    <g>
                        <g>
                            <g transform="matrix(1,0,0,1,52.38,34)">
                                <text x="0px" y="0px" style="font-family:'ArialMT', 'Arial', sans-serif;font-size:20px;fill:rgb(244,244,244);">Professional</text>
                            </g>
                            <g transform="matrix(1,0,0,1,22.38,58)">
                                <text x="0px" y="0px" style="font-family:'ArialMT', 'Arial', sans-serif;font-size:20px;fill:rgb(244,244,244);">Business Image</text>
                            </g>
                        </g>
                    </g>
                </g>
            </g>
            <g transform="matrix(1,0,0,1,332,450)">
                <g id="g-root-tx_reliable_18jfjie168mkg1-fill">
                    <g id="tx_reliable_18jfjie168mkg1-fill">
                        <g>
                            <g>
                                <text x="0px" y="0px" style="font-family:'ArialMT', 'Arial', sans-serif;font-size:20px;fill:rgb(244,244,244);">Reliable Support</text>
                            </g>
                        </g>
                    </g>
                </g>
            </g>
            <g id="g-root-cp_1_sign-1_908y9y168ifb8-stroke" transform="matrix(1,0,0,1,50,146)">
                <g id="cp_1_sign-1_908y9y168ifb8-stroke">
                    <g>
                        <path d="M28,10L249,10M249,94L28,94M28,94L10,52L28,10" style="fill:none;stroke:rgb(244,244,244);stroke-width:2px;"/>
                    </g>
                </g>
            </g>
            <g id="g-root-cp_3_sign-3_1luvypy168ieby-stroke" transform="matrix(1,0,0,1,74,242)">
                <g id="cp_3_sign-3_1luvypy168ieby-stroke">
                    <g>
                        <path d="M28,10L225,10M225,118L28,118M28,118L10,64L28,10" style="fill:none;stroke:rgb(244,244,244);stroke-width:2px;"/>
                    </g>
                </g>
            </g>
            <g id="g-root-cp_5_sign-5_1czvfk6168icqo-stroke" transform="matrix(1,0,0,1,50,362)">
                <g id="cp_5_sign-5_1czvfk6168icqo-stroke">
                    <g>
                        <path d="M28,10L249,10M249,94L28,94M28,94L10,52L28,10" style="fill:none;stroke:rgb(244,244,244);stroke-width:2px;"/>
                    </g>
                </g>
            </g>
            <g id="g-root-cp_pole_g-pole_qsrwxy168if4a-stroke" transform="matrix(1,0,0,1,287,122)">
                <g id="cp_pole_g-pole_qsrwxy168if4a-stroke">
                    <g>
                        <path d="M31,442L31,346M13,459L13,346M31,346L31,22M13,346L13,22" style="fill:none;stroke:rgb(244,244,244);stroke-width:2px;"/>
                    </g>
                </g>
                <g id="cp_pole_g-pole_qsrwxy168if4a-stroke1" serif:id="cp_pole_g-pole_qsrwxy168if4a-stroke">
                    <g>
                        <rect x="10" y="10" width="24" height="12" style="fill:none;stroke:rgb(244,244,244);stroke-width:2px;"/>
                    </g>
                </g>
            </g>
            <g id="g-root-cp_pole_plant_mdkvwm168icqt-stroke" transform="matrix(1,0,0,1,255,547)">
                <g id="cp_pole_plant_mdkvwm168icqt-stroke">
                    <g>
                        <path d="M56.55,34.88C56.55,34.88 57.3,28.89 49.74,27.78C57.63,24.53 60.41,29.56 60.41,29.56C60.41,29.56 59.47,14.7 70.63,10C67.46,13.77 66.71,20.52 68.57,26C73.01,22.89 78.9,23.56 80.9,26.67C76.68,24.44 69.89,28.468 71,34.918M71,34.918L98,34.918M10,34.918L56.5,34.918" style="fill:none;stroke:rgb(244,244,244);stroke-width:2px;"/>
                    </g>
                </g>
            </g>
            <g id="g-root-cp_2_sign-2_924dja168iebr-stroke" transform="matrix(1,0,0,1,309,182)">
                <g id="cp_2_sign-2_924dja168iebr-stroke">
                    <g>
                        <path d="M231,94L10,94M10,10L231,10M231,10L249,52L231,94" style="fill:none;stroke:rgb(244,244,244);stroke-width:2px;"/>
                    </g>
                </g>
            </g>
            <g id="g-root-cp_4_sign-4_1usee86168icjt-stroke" transform="matrix(1,0,0,1,309,278)">
                <g id="cp_4_sign-4_1usee86168icjt-stroke">
                    <g>
                        <path d="M207,118L10,118M10,10L207,10M207,10L225,64L207,118" style="fill:none;stroke:rgb(244,244,244);stroke-width:2px;"/>
                    </g>
                </g>
            </g>
            <g id="g-root-cp_6_sign-6_1hgxvuu168ie4r-stroke" transform="matrix(1,0,0,1,309,398)">
                <g id="cp_6_sign-6_1hgxvuu168ie4r-stroke">
                    <g>
                        <path d="M231,70L10,70M10,10L231,10M231,10L249,40L231,70" style="fill:none;stroke:rgb(244,244,244);stroke-width:2px;"/>
                    </g>
                </g>
            </g>
            <g id="g-root-ic_decr_1utncee168iepy-stroke" transform="matrix(1,0,0,1,74,170)">
                <g id="ic_decr_1utncee168iepy-stroke">
                    <g>
                        <path d="M44.875,27.55C39.775,12.25 38.725,11.5 35.575,11.5L35.575,15.85L28.225,19.6C27.475,19.9 27.025,20.65 27.025,21.55L27.025,22.3C27.025,24.7 28.975,26.65 31.375,26.65L33.475,26.65L33.475,34.9M33.475,31.9L44.125,25.6M15.925,21.55C16.525,22.45 17.575,22.9 18.625,22.9C20.275,22.9 21.625,21.85 21.625,20.65C21.625,19.45 20.275,18.4 18.625,18.4C16.975,18.4 15.625,17.35 15.625,16.15C15.625,14.95 16.975,13.9 18.625,13.9C19.675,13.9 20.875,14.35 21.325,15.25M18.625,22.9L18.625,24.4M18.625,12.25L18.625,13.906M35.274,44.499L25.525,34.75C25.075,34.3 24.325,34.3 23.875,34.75L21.025,37.6C20.575,38.05 19.825,38.05 19.375,37.6L11.125,29.35M29.575,44.5L35.275,44.5L35.275,38.8" style="fill:none;stroke:rgb(244,244,244);stroke-width:2px;"/>
                    </g>
                </g>
            </g>
            <g id="g-root-ic_3_94m9vq168pdl0-stroke" transform="matrix(1,0,0,1,488,206)">
                <g id="ic_3_94m9vq168pdl0-stroke">
                    <g>
                        <path d="M37,19C36.33,14.604 32.55,11.357 28.103,11.357C23.656,11.357 19.876,14.604 19.206,19L19.206,19C14.945,19 11.491,22.454 11.491,26.714C11.491,30.975 14.945,34.429 19.206,34.429C20.167,34.438 21.12,34.254 22.009,33.889C23.464,35.851 25.762,37.009 28.206,37.009C30.649,37.009 32.948,35.851 34.403,33.889C35.292,34.254 36.245,34.438 37.206,34.429C41.466,34.429 44.92,30.975 44.92,26.714C44.92,22.454 41.466,19 37.206,19L37,19ZM24.143,26.714L28,30.571L28,44.714M28,30.571L31.857,26.714" style="fill:none;stroke:rgb(244,244,244);stroke-width:2px;"/>
                    </g>
                </g>
            </g>
            <g id="g-root-ic_quar_1q8u1l2168l6v4-stroke" transform="matrix(1,0,0,1,98,278)">
                <g id="ic_quar_1q8u1l2168l6v4-stroke">
                    <g>
                        <path d="M25.787,10.752L28.787,10.752M27.287,10.752L27.287,15.252M39.287,15.252L41.537,17.501M40.412,16.376L37.5,19.289M16.788,30.252L19.788,30.252M19.788,22.752L22.037,25.002M27.287,40.751L27.287,37.751M19.788,37.751L22.037,35.501M34.787,37.751L32.537,35.501M34.787,22.752L32.537,25.002M27.287,30.25L42.287,30.25C42.264,21.976 35.562,15.274 27.288,15.25L27.287,30.25Z" style="fill:none;stroke:rgb(244,244,244);stroke-width:2px;"/>
                    </g>
                </g>
            </g>
            <g id="g-root-ic_2_142d37q16875s6-stroke" transform="matrix(1,0,0,1,464,314)">
                <g id="ic_2_142d37q16875s6-stroke">
                    <g>
                        <path d="M24.543,35.478L14.193,35.478C13.593,35.478 13.143,35.028 12.993,34.578L11.193,28.128C10.893,27.378 11.643,26.478 12.393,26.478L20.943,26.478C21.543,26.478 21.993,26.928 22.143,27.378L24.543,35.478ZM28.293,35.478L24.543,35.478M34.109,22.975C36.594,22.975 38.609,20.96 38.609,18.475C38.609,15.99 36.594,13.975 34.109,13.975C31.624,13.975 29.609,15.99 29.609,18.475C29.609,20.96 31.624,22.975 34.109,22.975ZM28.109,28.225C29.459,26.425 31.709,25.225 34.109,25.225C35.118,25.225 36.1,25.437 37,25.817M41.121,36.378C43.192,36.378 44.871,34.699 44.871,32.628C44.871,30.557 43.192,28.878 41.121,28.878C39.05,28.878 37.371,30.557 37.371,32.628C37.371,34.699 39.05,36.378 41.121,36.378ZM44.582,34.082C43.832,37.682 42.198,39.978 39.198,41.928C36.348,43.878 32.598,43.128 31.998,40.428C31.248,37.728 32.413,34.682 37.363,32.582" style="fill:none;stroke:rgb(244,244,244);stroke-width:2px;"/>
                    </g>
                </g>
            </g>
            <g id="g-root-ic_1_5uw7a168mn7m-stroke" transform="matrix(1,0,0,1,74,386)">
                <g id="ic_1_5uw7a168mn7m-stroke">
                    <g>
                        <path d="M45.217,12.25L38.627,16.75L30.045,16.75C26.854,16.75 24.195,21.94 22.424,24.25M34.538,21.25L30.058,26.84C29.278,27.62 29.278,28.885 30.058,29.665C30.838,30.445 32.103,30.445 32.883,29.665L39.001,24.25L40.584,24.25C42.4,24.25 45.25,21.664 45.25,21.664M32.134,24.25L13.75,24.25C12.093,24.25 10.75,25.593 10.75,27.25L10.75,40.75C10.75,42.407 12.093,43.75 13.75,43.75L34.75,43.75C36.407,43.75 37.75,42.407 37.75,40.75L37.75,25.359M21.625,31.375C21.625,32.825 22.8,34 24.25,34C25.7,34 26.875,32.825 26.875,31.375C26.875,29.925 25.7,28.75 24.25,28.75C22.8,28.75 21.625,29.925 21.625,31.375M29.5,39.25C28.888,36.85 26.727,35.171 24.25,35.171C21.773,35.171 19.612,36.85 19,39.25" style="fill:none;stroke:rgb(244,244,244);stroke-width:2px;"/>
                    </g>
                </g>
            </g>
            <g id="g-root-ic_phon_1lwrh52168fm6n-stroke" transform="matrix(1,0,0,1,488,410)">
                <g id="ic_phon_1lwrh52168fm6n-stroke">
                    <g>
                        <path d="M18.4,30.4C19.252,29.546 19.252,28.163 18.4,27.308L16.073,24.99C15.22,24.136 13.836,24.136 12.982,24.99L11.71,26.261C10.607,27.362 10.434,29.088 11.296,30.386C15.039,36.021 19.869,40.851 25.504,44.595C26.803,45.454 28.526,45.282 29.629,44.182L30.901,42.91C31.755,42.057 31.755,40.673 30.901,39.82L30.901,39.82L28.582,37.501C27.729,36.648 26.345,36.648 25.492,37.501L25.492,37.501L24.72,38.275C22.129,36.143 19.752,33.765 17.62,31.174L18.4,30.4ZM26.673,27.952L25.923,27.952C24.283,27.948 22.957,26.618 22.957,24.979L22.957,22.008C22.957,20.366 24.288,19.035 25.93,19.035L26.68,19.035C27.091,19.039 27.423,19.373 27.423,19.785L27.423,27.217C27.414,27.625 27.081,27.952 26.673,27.952ZM42.277,27.952L41.527,27.952C41.116,27.952 40.781,27.621 40.777,27.209L40.777,19.777C40.777,19.363 41.113,19.027 41.527,19.027L42.277,19.027C43.067,19.027 43.824,19.341 44.382,19.9C44.94,20.46 45.252,21.218 45.25,22.008L45.25,24.979C45.25,26.621 43.919,27.952 42.277,27.952ZM25.93,19.035C25.929,14.52 29.589,10.86 34.103,10.861C38.618,10.86 42.278,14.52 42.277,19.035M37.077,31.668L39.306,31.668C40.947,31.668 42.278,30.336 42.277,28.695L42.277,27.952M31.131,18.292C31.133,16.781 32.269,15.512 33.771,15.343C35.272,15.174 36.662,16.158 37.001,17.631C37.34,19.103 36.52,20.596 35.095,21.1C34.501,21.31 34.103,21.872 34.103,22.503L34.103,22.75M34.12,26.173C33.801,26.172 33.542,26.43 33.541,26.749C33.54,27.069 33.799,27.328 34.118,27.328C34.437,27.328 34.696,27.07 34.696,26.751C34.696,26.432 34.438,26.174 34.12,26.173" style="fill:none;stroke:rgb(244,244,244);stroke-width:2px;"/>
                    </g>
                </g>
            </g>
        </g>
    </g>
    <defs>
        <linearGradient id="_Linear1" x1="0" y1="0" x2="1" y2="0" gradientUnits="userSpaceOnUse" gradientTransform="matrix(10,94,-94,10,0,0)"><stop offset="0" style="stop-color:rgb(59,196,130);stop-opacity:1"/><stop offset="1" style="stop-color:rgb(68,152,112);stop-opacity:1"/></linearGradient>
        <linearGradient id="_Linear2" x1="0" y1="0" x2="1" y2="0" gradientUnits="userSpaceOnUse" gradientTransform="matrix(10,118,-118,10,0,0)"><stop offset="0" style="stop-color:rgb(145,187,57);stop-opacity:1"/><stop offset="1" style="stop-color:rgb(125,152,68);stop-opacity:1"/></linearGradient>
        <linearGradient id="_Linear3" x1="0" y1="0" x2="1" y2="0" gradientUnits="userSpaceOnUse" gradientTransform="matrix(10,94,-94,10,0,0)"><stop offset="0" style="stop-color:rgb(127,100,233);stop-opacity:1"/><stop offset="1" style="stop-color:rgb(119,97,207);stop-opacity:1"/></linearGradient>
        <linearGradient id="_Linear4" x1="0" y1="0" x2="1" y2="0" gradientUnits="userSpaceOnUse" gradientTransform="matrix(13,460,-460,13,0,0)"><stop offset="0" style="stop-color:rgb(149,149,149);stop-opacity:1"/><stop offset="1" style="stop-color:rgb(127,127,127);stop-opacity:1"/></linearGradient>
        <linearGradient id="_Linear5" x1="0" y1="0" x2="1" y2="0" gradientUnits="userSpaceOnUse" gradientTransform="matrix(10,22,-22,10,0,0)"><stop offset="0" style="stop-color:rgb(149,149,149);stop-opacity:1"/><stop offset="1" style="stop-color:rgb(127,127,127);stop-opacity:1"/></linearGradient>
        <linearGradient id="_Linear6" x1="0" y1="0" x2="1" y2="0" gradientUnits="userSpaceOnUse" gradientTransform="matrix(10,46.5205,-46.5205,10,0,0)"><stop offset="0" style="stop-color:rgb(145,187,57);stop-opacity:1"/><stop offset="1" style="stop-color:rgb(125,152,68);stop-opacity:1"/></linearGradient>
        <linearGradient id="_Linear7" x1="0" y1="0" x2="1" y2="0" gradientUnits="userSpaceOnUse" gradientTransform="matrix(10,94,-94,10,0,0)"><stop offset="0" style="stop-color:rgb(78,136,230);stop-opacity:1"/><stop offset="1" style="stop-color:rgb(79,126,202);stop-opacity:1"/></linearGradient>
        <linearGradient id="_Linear8" x1="0" y1="0" x2="1" y2="0" gradientUnits="userSpaceOnUse" gradientTransform="matrix(10,118,-118,10,0,0)"><stop offset="0" style="stop-color:rgb(31,169,215);stop-opacity:1"/><stop offset="1" style="stop-color:rgb(49,135,163);stop-opacity:1"/></linearGradient>
        <linearGradient id="_Linear9" x1="0" y1="0" x2="1" y2="0" gradientUnits="userSpaceOnUse" gradientTransform="matrix(10,70,-70,10,0,0)"><stop offset="0" style="stop-color:rgb(220,131,49);stop-opacity:1"/><stop offset="1" style="stop-color:rgb(176,114,57);stop-opacity:1"/></linearGradient>
    </defs>
</svg>
