<?xml version="1.0" encoding="UTF-8" standalone="no"?>
<!DOCTYPE svg PUBLIC "-//W3C//DTD SVG 1.1//EN" "http://www.w3.org/Graphics/SVG/1.1/DTD/svg11.dtd">
<svg width="100%" height="100%" viewBox="0 0 576 683" version="1.1" xmlns="http://www.w3.org/2000/svg" xmlns:xlink="http://www.w3.org/1999/xlink" xml:space="preserve" xmlns:serif="http://www.serif.com/" style="fill-rule:evenodd;clip-rule:evenodd;stroke-linecap:round;stroke-linejoin:round;">
    <g id="items" transform="matrix(1.10372,0,0,1.10372,-29.872,-56.34)">
        <g id="blend">
            <g id="g-root-cp_9_text-9_1uo15s7186gwsg-fill" transform="matrix(1,0,0,1,50,62)">
                <g id="cp_9_text-9_1uo15s7186gwsg-fill">
                    <g>
                        <rect x="10" y="10" width="228" height="84" style="fill:rgb(135,105,253);"/>
                    </g>
                </g>
            </g>
            <g id="g-root-cp_9_stick-9_dfg2h3186gwsi-fill" transform="matrix(1,0,0,1,272,146)">
                <g id="cp_9_stick-9_dfg2h3186gwsi-fill">
                    <g>
                        <rect x="10" y="10" width="5.997" height="420" style="fill:rgb(135,105,253);"/>
                    </g>
                </g>
            </g>
            <g id="g-root-cp_7_text-7_1ltn3pj186gzr8-fill" transform="matrix(1,0,0,1,44,146)">
                <g id="cp_7_text-7_1ltn3pj186gzr8-fill">
                    <g>
                        <rect x="10" y="10" width="228" height="108" style="fill:rgb(26,195,251);"/>
                    </g>
                </g>
            </g>
            <g id="g-root-cp_7_stick-7_zn626f186gyz2-fill" transform="matrix(1,0,0,1,266,254)">
                <g id="cp_7_stick-7_zn626f186gyz2-fill">
                    <g>
                        <rect x="10" y="10" width="5.997" height="312" style="fill:rgb(26,195,251);"/>
                    </g>
                </g>
            </g>
            <g id="g-root-cp_5_text-5_qs5j0n186gxds-fill" transform="matrix(1,0,0,1,38,254)">
                <g id="cp_5_text-5_qs5j0n186gxds-fill">
                    <g>
                        <rect x="10" y="10" width="228" height="108" style="fill:rgb(203,104,249);"/>
                    </g>
                </g>
            </g>
            <g id="g-root-cp_5_stick-5_5uzd3186gxdu-fill" transform="matrix(1,0,0,1,260,362)">
                <g id="cp_5_stick-5_5uzd3186gxdu-fill">
                    <g>
                        <rect x="10" y="10" width="5.997" height="204" style="fill:rgb(203,104,249);"/>
                    </g>
                </g>
            </g>
            <g id="g-root-cp_3_text-3_1lviiyv186gyro-fill" transform="matrix(1,0,0,1,32,362)">
                <g id="cp_3_text-3_1lviiyv186gyro-fill">
                    <g>
                        <rect x="10" y="10" width="228" height="84" style="fill:rgb(255,231,17);"/>
                    </g>
                </g>
            </g>
            <g id="g-root-cp_3_stick-3_zp1hfr186gxzi-fill" transform="matrix(1,0,0,1,254,446)">
                <g id="cp_3_stick-3_zp1hfr186gxzi-fill">
                    <g>
                        <rect x="10" y="10" width="5.997" height="120" style="fill:rgb(255,231,17);"/>
                    </g>
                </g>
            </g>
            <g id="g-root-cp_1_text-1_qteh6v186gzk0-fill" transform="matrix(1,0,0,1,26,446)">
                <g id="cp_1_text-1_qteh6v186gzk0-fill">
                    <g>
                        <rect x="10" y="10" width="228" height="84" style="fill:rgb(251,103,98);"/>
                    </g>
                </g>
            </g>
            <g id="g-root-cp_1_stick-1_dikfwn186gxz6-fill" transform="matrix(1,0,0,1,247.997,529)">
                <g id="cp_1_stick-1_dikfwn186gxz6-fill">
                    <g>
                        <rect x="10.003" y="11" width="5.997" height="36" style="fill:rgb(251,103,98);"/>
                    </g>
                </g>
            </g>
            <g id="g-root-cp_10_text-10_1qd7gcn186gwzw-fill" transform="matrix(1,0,0,1,278,74)">
                <g id="cp_10_text-10_1qd7gcn186gwzw-fill">
                    <g>
                        <rect x="10" y="10" width="228" height="108" style="fill:rgb(183,183,183);"/>
                    </g>
                </g>
            </g>
            <g id="g-root-cp_10_stick-10_1d1qxzb186gyku-fill" transform="matrix(1,0,0,1,278.003,182)">
                <g id="cp_10_stick-10_1d1qxzb186gyku-fill">
                    <g>
                        <rect x="10" y="10" width="5.997" height="384" style="fill:rgb(183,183,183);"/>
                    </g>
                </g>
            </g>
            <g id="g-root-cp_8_text-8_146qetj186gwzk-fill" transform="matrix(1,0,0,1,284,182)">
                <g id="cp_8_text-8_146qetj186gwzk-fill">
                    <g>
                        <rect x="10" y="10" width="228" height="84" style="fill:rgb(166,218,55);"/>
                    </g>
                </g>
            </g>
            <g id="g-root-cp_8_stick-8_qv9wg7186gyki-fill" transform="matrix(1,0,0,1,284.003,266)">
                <g id="cp_8_stick-8_qv9wg7186gyki-fill">
                    <g>
                        <rect x="10" y="10" width="5.997" height="300" style="fill:rgb(166,218,55);"/>
                    </g>
                </g>
            </g>
            <g id="g-root-cp_6_text-6_hzmw7b186gzd8-fill" transform="matrix(1,0,0,1,290,266)">
                <g id="cp_6_text-6_hzmw7b186gzd8-fill">
                    <g>
                        <rect x="10" y="10" width="228" height="84" style="fill:rgb(243,102,187);"/>
                    </g>
                </g>
            </g>
            <g id="g-root-cp_6_stick-6_1qegeiv186gz66-fill" transform="matrix(1,0,0,1,290.003,350)">
                <g id="cp_6_stick-6_1qegeiv186gz66-fill">
                    <g>
                        <rect x="10" y="10" width="5.997" height="216" style="fill:rgb(243,102,187);"/>
                    </g>
                </g>
            </g>
            <g id="g-root-cp_4_text-4_18nsv47186gydk-fill" transform="matrix(1,0,0,1,296,350)">
                <g id="cp_4_text-4_18nsv47186gydk-fill">
                    <g>
                        <rect x="10" y="10" width="228" height="84" style="fill:rgb(247,148,56);"/>
                    </g>
                </g>
            </g>
            <g id="g-root-cp_4_stick-4_v2z8g7186ibd6-fill" transform="matrix(1,0,0,1,296.003,434)">
                <g id="cp_4_stick-4_v2z8g7186ibd6-fill">
                    <g>
                        <rect x="10" y="10" width="5.997" height="132" style="fill:rgb(247,148,56);"/>
                    </g>
                </g>
            </g>
            <g id="g-root-cp_2_text-2_qn5qbr186ic5g-fill" transform="matrix(1,0,0,1,302,434)">
                <g id="cp_2_text-2_qn5qbr186ic5g-fill">
                    <g>
                        <rect x="10" y="10" width="228" height="84" style="fill:rgb(67,221,147);"/>
                    </g>
                </g>
            </g>
            <g id="g-root-cp_2_stick-2_4goosn186ibda-fill" transform="matrix(1,0,0,1,302.003,517)">
                <g id="cp_2_stick-2_4goosn186ibda-fill">
                    <g>
                        <rect x="10" y="10" width="5.997" height="49" style="fill:rgb(67,221,147);"/>
                    </g>
                </g>
            </g>
            <g id="g-root-cp_0_g-0_1lqiq9z186idjc-fill" transform="matrix(1,0,0,1,248,566)">
                <g id="cp_0_g-0_1lqiq9z186idjc-fill">
                    <g>
                        <path d="M30,58L40.001,82.001L50.001,58L30,58Z" style="fill:rgb(232,232,232);"/>
                    </g>
                </g>
                <g id="cp_0_g-0_1lqiq9z186idjc-fill1" serif:id="cp_0_g-0_1lqiq9z186idjc-fill">
                    <g>
                        <path d="M70.001,10L10,10L30,57.999L50.001,57.999L70.001,10Z" style="fill:rgb(232,232,232);"/>
                    </g>
                </g>
            </g>
            <g id="g-root-tx__8zmkcn186ibrh-fill">
            </g>
            <g id="g-root-tx_financia_958u4n186l79m-fill" transform="matrix(1,0,0,1,110,266)">
                <g id="tx_financia_958u4n186l79m-fill">
                    <g>
                        <g>
                            <g transform="matrix(1,0,0,1,22.87,34)">
                                <text x="0px" y="0px" style="font-family:'Arial-BoldMT', 'Arial', sans-serif;font-weight:700;font-size:20px;fill:rgb(44,44,44);">Financial</text>
                            </g>
                            <g transform="matrix(1,0,0,1,26.47,58)">
                                <text x="0px" y="0px" style="font-family:'Arial-BoldMT', 'Arial', sans-serif;font-weight:700;font-size:20px;fill:rgb(44,44,44);">Services</text>
                            </g>
                        </g>
                    </g>
                </g>
            </g>
            <g id="g-root-tx_corporat_1cy03gn186jsw7-fill" transform="matrix(1,0,0,1,104,158)">
                <g id="tx_corporat_1cy03gn186jsw7-fill">
                    <g>
                        <g>
                            <g transform="matrix(1,0,0,1,26.52,34)">
                                <text x="0px" y="0px" style="font-family:'Arial-BoldMT', 'Arial', sans-serif;font-weight:700;font-size:20px;fill:rgb(44,44,44);">Corporate</text>
                            </g>
                            <g transform="matrix(1,0,0,1,13.45,58)">
                                <text x="0px" y="0px" style="font-family:'Arial-BoldMT', 'Arial', sans-serif;font-weight:700;font-size:20px;fill:rgb(44,44,44);">Enterprises</text>
                            </g>
                        </g>
                    </g>
                </g>
            </g>
            <g transform="matrix(1,0,0,1,362,312)">
                <g id="g-root-tx_ecommerc_zko8zr186bdhd-fill">
                    <g id="tx_ecommerc_zko8zr186bdhd-fill">
                        <g>
                            <g>
                                <text x="0px" y="0px" style="font-family:'Arial-BoldMT', 'Arial', sans-serif;font-weight:700;font-size:20px;fill:rgb(44,44,44);">E-commerce</text>
                            </g>
                        </g>
                    </g>
                </g>
            </g>
            <g id="g-root-tx__1lrrog7186mjuz-fill">
            </g>
            <g id="g-root-tx__18jfmo7186bd36-fill">
            </g>
            <g id="g-root-tx_governme_8vvszr18674zv-fill" transform="matrix(1,0,0,1,338,86)">
                <g id="tx_governme_8vvszr18674zv-fill">
                    <g>
                        <g>
                            <g transform="matrix(1,0,0,1,12,34)">
                                <text x="0px" y="0px" style="font-family:'Arial-BoldMT', 'Arial', sans-serif;font-weight:700;font-size:20px;fill:rgb(44,44,44);">Government</text>
                            </g>
                            <g transform="matrix(1,0,0,1,12,58)">
                                <text x="0px" y="0px" style="font-family:'Arial-BoldMT', 'Arial', sans-serif;font-weight:700;font-size:20px;fill:rgb(44,44,44);">Agencies</text>
                            </g>
                        </g>
                    </g>
                </g>
            </g>
            <g transform="matrix(1,0,0,1,82.03,408)">
                <g id="g-root-tx_techstar_1qapk07186nxmt-fill">
                    <g id="tx_techstar_1qapk07186nxmt-fill">
                        <g>
                            <g>
                                <text x="0px" y="0px" style="font-family:'Arial-BoldMT', 'Arial', sans-serif;font-weight:700;font-size:20px;fill:rgb(44,44,44);">T<tspan x="10.732px 21.855px " y="0px 0px ">ec</tspan>h Startups</text>
                            </g>
                        </g>
                    </g>
                </g>
            </g>
            <g id="g-root-tx__quniiv1868jrb-fill">
            </g>
            <g id="g-root-tx__90viiv186jrbc-fill">
            </g>
            <g transform="matrix(1,0,0,1,368,396)">
                <g id="g-root-tx_educatio_7qhs7186cr2k-fill">
                    <g id="tx_educatio_7qhs7186cr2k-fill">
                        <g>
                            <g>
                                <text x="0px" y="0px" style="font-family:'Arial-BoldMT', 'Arial', sans-serif;font-weight:700;font-size:20px;fill:rgb(44,44,44);">Education</text>
                            </g>
                        </g>
                    </g>
                </g>
            </g>
            <g id="g-root-tx__1qdtxfr186ny1a-fill">
            </g>
            <g id="g-root-tx__vbpytj186cpal-fill">
            </g>
            <g transform="matrix(1,0,0,1,92.4,492)">
                <g id="g-root-tx_callcent_141qpaf1864bgg-fill">
                    <g id="tx_callcent_141qpaf1864bgg-fill">
                        <g>
                            <g>
                                <text x="0px" y="0px" style="font-family:'Arial-BoldMT', 'Arial', sans-serif;font-weight:700;font-size:20px;fill:rgb(44,44,44);">Call Centers</text>
                            </g>
                        </g>
                    </g>
                </g>
            </g>
            <g transform="matrix(1,0,0,1,120.8,108)">
                <g id="g-root-tx_legalfir_1cwr5af186idcc-fill">
                    <g id="tx_legalfir_1cwr5af186idcc-fill">
                        <g>
                            <g>
                                <text x="0px" y="0px" style="font-family:'Arial-BoldMT', 'Arial', sans-serif;font-weight:700;font-size:20px;fill:rgb(44,44,44);">Legal Firms</text>
                            </g>
                        </g>
                    </g>
                </g>
            </g>
            <g transform="matrix(1,0,0,1,356,228)">
                <g id="g-root-tx_hospital_zof3if1868jye-fill">
                    <g id="tx_hospital_zof3if1868jye-fill">
                        <g>
                            <g>
                                <text x="0px" y="0px" style="font-family:'Arial-BoldMT', 'Arial', sans-serif;font-weight:700;font-size:20px;fill:rgb(44,44,44);">Hospitality</text>
                            </g>
                        </g>
                    </g>
                </g>
            </g>
            <g transform="matrix(1,0,0,1,374,480)">
                <g id="g-root-tx_healthca_8wia2v186fimn-fill">
                    <g id="tx_healthca_8wia2v186fimn-fill">
                        <g>
                            <g>
                                <text x="0px" y="0px" style="font-family:'Arial-BoldMT', 'Arial', sans-serif;font-weight:700;font-size:20px;fill:rgb(44,44,44);">Healthcare</text>
                            </g>
                        </g>
                    </g>
                </g>
            </g>
            <g id="g-root-tx__1hgbl3b1864aa1-fill">
            </g>
            <g id="g-root-tx__1cxdpjb186fi80-fill">
            </g>
            <g id="g-root-tx__1hckqkn18673t0-fill">
            </g>
            <g id="g-root-cp_9_text-9_1uo15s7186gwsg-stroke" transform="matrix(1,0,0,1,50,62)">
                <g id="cp_9_text-9_1uo15s7186gwsg-stroke">
                    <g>
                        <path d="M10,94L10,10L238,10L238,94" style="fill:none;stroke:rgb(44,44,44);stroke-width:2px;"/>
                    </g>
                </g>
            </g>
            <g id="g-root-cp_9_stick-9_dfg2h3186gwsi-stroke" transform="matrix(1,0,0,1,272,146)">
                <g id="cp_9_stick-9_dfg2h3186gwsi-stroke">
                    <g>
                        <path d="M15.997,430L15.997,10" style="fill:none;stroke:rgb(44,44,44);stroke-width:2px;"/>
                    </g>
                </g>
            </g>
            <g id="g-root-cp_7_text-7_1ltn3pj186gzr8-stroke" transform="matrix(1,0,0,1,44,146)">
                <g id="cp_7_text-7_1ltn3pj186gzr8-stroke">
                    <g>
                        <path d="M10,118L10,10L238,10L238,118" style="fill:none;stroke:rgb(44,44,44);stroke-width:2px;"/>
                    </g>
                </g>
            </g>
            <g id="g-root-cp_7_stick-7_zn626f186gyz2-stroke" transform="matrix(1,0,0,1,266,254)">
                <g id="cp_7_stick-7_zn626f186gyz2-stroke">
                    <g>
                        <path d="M15.997,322L15.997,10" style="fill:none;stroke:rgb(44,44,44);stroke-width:2px;"/>
                    </g>
                </g>
            </g>
            <g id="g-root-cp_5_text-5_qs5j0n186gxds-stroke" transform="matrix(1,0,0,1,38,254)">
                <g id="cp_5_text-5_qs5j0n186gxds-stroke">
                    <g>
                        <path d="M10,118L10,10L238,10L238,118" style="fill:none;stroke:rgb(44,44,44);stroke-width:2px;"/>
                    </g>
                </g>
            </g>
            <g id="g-root-cp_5_stick-5_5uzd3186gxdu-stroke" transform="matrix(1,0,0,1,260,362)">
                <g id="cp_5_stick-5_5uzd3186gxdu-stroke">
                    <g>
                        <path d="M15.997,214L15.997,10" style="fill:none;stroke:rgb(44,44,44);stroke-width:2px;"/>
                    </g>
                </g>
            </g>
            <g id="g-root-cp_3_text-3_1lviiyv186gyro-stroke" transform="matrix(1,0,0,1,32,362)">
                <g id="cp_3_text-3_1lviiyv186gyro-stroke">
                    <g>
                        <path d="M10,94L10,10L238,10L238,94" style="fill:none;stroke:rgb(44,44,44);stroke-width:2px;"/>
                    </g>
                </g>
            </g>
            <g id="g-root-cp_3_stick-3_zp1hfr186gxzi-stroke" transform="matrix(1,0,0,1,254,446)">
                <g id="cp_3_stick-3_zp1hfr186gxzi-stroke">
                    <g>
                        <path d="M15.997,130L15.997,10" style="fill:none;stroke:rgb(44,44,44);stroke-width:2px;"/>
                    </g>
                </g>
            </g>
            <g id="g-root-cp_1_text-1_qteh6v186gzk0-stroke" transform="matrix(1,0,0,1,26,446)">
                <g id="cp_1_text-1_qteh6v186gzk0-stroke">
                    <g>
                        <path d="M238,94L238,10L10,10L10,94L232.5,94" style="fill:none;stroke:rgb(44,44,44);stroke-width:2px;"/>
                    </g>
                </g>
            </g>
            <g id="g-root-cp_1_stick-1_dikfwn186gxz6-stroke" transform="matrix(1,0,0,1,247.997,529)">
                <g id="cp_1_stick-1_dikfwn186gxz6-stroke">
                    <g>
                        <path d="M16,47L16,11M10,47L10,10" style="fill:none;stroke:rgb(44,44,44);stroke-width:2px;"/>
                    </g>
                </g>
            </g>
            <g id="g-root-cp_10_text-10_1qd7gcn186gwzw-stroke" transform="matrix(1,0,0,1,278,74)">
                <g id="cp_10_text-10_1qd7gcn186gwzw-stroke">
                    <g>
                        <path d="M238,118L238,10L10,10L10,118" style="fill:none;stroke:rgb(44,44,44);stroke-width:2px;"/>
                    </g>
                </g>
            </g>
            <g id="g-root-cp_10_stick-10_1d1qxzb186gyku-stroke" transform="matrix(1,0,0,1,278.003,182)">
                <g id="cp_10_stick-10_1d1qxzb186gyku-stroke">
                    <g>
                        <path d="M10.001,394L10.001,10" style="fill:none;stroke:rgb(44,44,44);stroke-width:2px;"/>
                    </g>
                </g>
            </g>
            <g id="g-root-cp_8_text-8_146qetj186gwzk-stroke" transform="matrix(1,0,0,1,284,182)">
                <g id="cp_8_text-8_146qetj186gwzk-stroke">
                    <g>
                        <path d="M238,94L238,10L10,10L10,94" style="fill:none;stroke:rgb(44,44,44);stroke-width:2px;"/>
                    </g>
                </g>
            </g>
            <g id="g-root-cp_8_stick-8_qv9wg7186gyki-stroke" transform="matrix(1,0,0,1,284.003,266)">
                <g id="cp_8_stick-8_qv9wg7186gyki-stroke">
                    <g>
                        <path d="M10.001,310L10.001,10" style="fill:none;stroke:rgb(44,44,44);stroke-width:2px;"/>
                    </g>
                </g>
            </g>
            <g id="g-root-cp_6_text-6_hzmw7b186gzd8-stroke" transform="matrix(1,0,0,1,290,266)">
                <g id="cp_6_text-6_hzmw7b186gzd8-stroke">
                    <g>
                        <path d="M238,94L238,10L10,10L10,94" style="fill:none;stroke:rgb(44,44,44);stroke-width:2px;"/>
                    </g>
                </g>
            </g>
            <g id="g-root-cp_6_stick-6_1qegeiv186gz66-stroke" transform="matrix(1,0,0,1,290.003,350)">
                <g id="cp_6_stick-6_1qegeiv186gz66-stroke">
                    <g>
                        <path d="M10.001,226L10.001,10" style="fill:none;stroke:rgb(44,44,44);stroke-width:2px;"/>
                    </g>
                </g>
            </g>
            <g id="g-root-cp_4_text-4_18nsv47186gydk-stroke" transform="matrix(1,0,0,1,296,350)">
                <g id="cp_4_text-4_18nsv47186gydk-stroke">
                    <g>
                        <path d="M238,94L238,10L10,10L10,94" style="fill:none;stroke:rgb(44,44,44);stroke-width:2px;"/>
                    </g>
                </g>
            </g>
            <g id="g-root-cp_4_stick-4_v2z8g7186ibd6-stroke" transform="matrix(1,0,0,1,296.003,434)">
                <g id="cp_4_stick-4_v2z8g7186ibd6-stroke">
                    <g>
                        <path d="M10.001,142L10.001,10" style="fill:none;stroke:rgb(44,44,44);stroke-width:2px;"/>
                    </g>
                </g>
            </g>
            <g id="g-root-cp_2_text-2_qn5qbr186ic5g-stroke" transform="matrix(1,0,0,1,302,434)">
                <g id="cp_2_text-2_qn5qbr186ic5g-stroke">
                    <g>
                        <path d="M10,94L10,10L238,10L238,94L15.5,94" style="fill:none;stroke:rgb(44,44,44);stroke-width:2px;"/>
                    </g>
                </g>
            </g>
            <g id="g-root-cp_2_stick-2_4goosn186ibda-stroke" transform="matrix(1,0,0,1,302.003,517)">
                <g id="cp_2_stick-2_4goosn186ibda-stroke">
                    <g>
                        <path d="M10.001,59L10.001,10M15.997,59L15.997,10" style="fill:none;stroke:rgb(44,44,44);stroke-width:2px;"/>
                    </g>
                </g>
            </g>
            <g id="g-root-cp_0_g-0_1lqiq9z186idjc-stroke" transform="matrix(1,0,0,1,248,566)">
                <g id="cp_0_g-0_1lqiq9z186idjc-stroke">
                    <g>
                        <path d="M30,58L40.001,82.001L50.001,58L30,58Z" style="fill:none;stroke:rgb(44,44,44);stroke-width:2px;"/>
                    </g>
                </g>
                <g id="cp_0_g-0_1lqiq9z186idjc-stroke1" serif:id="cp_0_g-0_1lqiq9z186idjc-stroke">
                    <g>
                        <path d="M70.001,10L10,10L30,57.999L50.001,57.999L70.001,10Z" style="fill:none;stroke:rgb(44,44,44);stroke-width:2px;"/>
                    </g>
                </g>
            </g>
            <g id="g-root-ic_card_1cy03gn186mjnw-stroke" transform="matrix(1,0,0,1,218,266)">
                <g id="ic_card_1cy03gn186mjnw-stroke">
                    <g>
                        <path d="M27.25,36.25L45.25,36.25M36.25,40.75L40.75,40.75M28.75,31.75L43.75,31.75C43.75,31.75 45.25,31.75 45.25,33.25L45.25,43.75C45.25,43.75 45.25,45.25 43.75,45.25L28.75,45.25C28.75,45.25 27.25,45.25 27.25,43.75L27.25,33.25C27.25,33.25 27.25,31.75 28.75,31.75M28.9,23.65C28.062,22.273 27.645,20.68 27.7,19.069L27.7,17.2C27.7,13.638 24.812,10.75 21.25,10.75C17.688,10.75 14.8,13.638 14.8,17.2L14.8,19.069C14.855,20.68 14.438,22.273 13.6,23.65M14.8,18.259C17.277,18.257 19.631,17.18 21.25,15.306C22.869,17.18 25.223,18.258 27.7,18.259M26.93,18.226C26.783,21.255 24.284,23.636 21.251,23.636C18.218,23.636 15.719,21.255 15.571,18.226M22.75,36.25L10.75,36.25C10.749,32.498 12.75,29.031 15.999,27.155C19.248,25.278 23.251,25.278 26.5,27.154" style="fill:none;stroke:rgb(44,44,44);stroke-width:2px;"/>
                    </g>
                </g>
            </g>
            <g id="g-root-ic_exch_93di13186bcw3-stroke" transform="matrix(1,0,0,1,302,278)">
                <g id="ic_exch_93di13186bcw3-stroke">
                    <g>
                        <path d="M19.375,44.125L22.375,41.125L19.375,38.125M32.125,25.375L41.125,25.375C41.125,25.375 42.625,25.375 42.625,26.875L42.625,43.375C42.625,43.375 42.625,44.875 41.125,44.875L32.125,44.875C32.125,44.875 30.625,44.875 30.625,43.375L30.625,26.875C30.625,26.875 30.625,25.375 32.125,25.375M13.375,33.625C13.375,37.767 16.733,41.125 20.875,41.125L22.375,41.125M37.375,11.125L34.375,14.125L37.375,17.125M43.375,21.625C43.375,17.483 40.017,14.125 35.875,14.125L34.375,14.125M30.625,38.875L42.625,38.875M36.625,41.5C36.418,41.5 36.25,41.668 36.25,41.875C36.25,42.082 36.418,42.25 36.625,42.25C36.832,42.25 37,42.082 37,41.875C37,41.668 36.832,41.5 36.625,41.5M20.125,25.375C20.125,26.203 20.797,26.875 21.625,26.875C22.453,26.875 23.125,26.203 23.125,25.375C23.125,24.547 22.453,23.875 21.625,23.875C20.797,23.875 20.125,24.547 20.125,25.375M14.125,25.375C14.125,26.203 14.797,26.875 15.625,26.875C16.453,26.875 17.125,26.203 17.125,25.375C17.125,24.547 16.453,23.875 15.625,23.875C14.797,23.875 14.125,24.547 14.125,25.375M26.125,11.125L22.375,22.375L14.875,22.375L12.625,14.875L24.876,14.875" style="fill:none;stroke:rgb(44,44,44);stroke-width:2px;"/>
                    </g>
                </g>
            </g>
            <g id="g-root-ic_work_18it5l318673lx-stroke" transform="matrix(1,0,0,1,290,86)">
                <g id="ic_work_18it5l318673lx-stroke">
                    <g>
                        <path d="M39.625,37.375C41.696,37.375 43.375,35.696 43.375,33.625C43.375,31.554 41.696,29.875 39.625,29.875C37.554,29.875 35.875,31.554 35.875,33.625C35.875,35.696 37.554,37.375 39.625,37.375ZM44.875,44.875C44.875,42.025 42.475,39.625 39.625,39.625C36.775,39.625 34.375,42.025 34.375,44.875M29.125,37.375C31.196,37.375 32.875,35.696 32.875,33.625C32.875,31.554 31.196,29.875 29.125,29.875C27.054,29.875 25.375,31.554 25.375,33.625C25.375,35.696 27.054,37.375 29.125,37.375ZM34.375,44.875C34.375,42.025 31.975,39.625 29.125,39.625C26.275,39.625 23.875,42.025 23.875,44.875M18.475,44.725L11.125,44.725M12.625,44.725L12.625,12.639C12.625,11.73 13.225,11.125 14.125,11.125L31.375,11.125C32.275,11.125 32.875,11.73 32.875,12.639L32.875,25.957M17.575,17.425L28.075,17.425M17.575,23.425L28.075,23.425M17.575,29.425L21.475,29.425M17.575,35.425L20.575,35.425" style="fill:none;stroke:rgb(44,44,44);stroke-width:2px;"/>
                    </g>
                </g>
            </g>
            <g id="g-root-ic_inte_9lx1j186cq2u-stroke" transform="matrix(1,0,0,1,308,362)">
                <g id="ic_inte_9lx1j186cq2u-stroke">
                    <g>
                        <path d="M24.522,26.5L24.522,28.234M27.159,23.977C23.293,22.524 18.981,24.468 17.511,28.327M26.272,16C27.451,16.001 28.617,15.763 29.701,15.3C29.415,13.082 27.748,11.294 25.556,10.853C23.365,10.411 21.136,11.416 20.014,13.35C21.655,15.044 23.913,16.001 26.272,16ZM19.272,16C19.272,18.899 21.622,21.25 24.522,21.25C27.421,21.25 29.772,18.899 29.772,16C29.772,13.101 27.421,10.75 24.522,10.75C21.622,10.75 19.272,13.101 19.272,16M32.093,29.824C32.093,33.01 34.675,35.593 37.861,35.593C41.047,35.593 43.629,33.01 43.628,29.824C43.629,26.638 41.047,24.055 37.861,24.055C34.675,24.055 32.093,26.638 32.093,29.824M30.52,45.031C30.482,42.383 31.873,39.92 34.16,38.585C36.447,37.25 39.276,37.25 41.563,38.585C43.85,39.92 45.241,42.383 45.203,45.031M27.159,39.774L11.572,39.774C11.307,39.773 11.06,39.637 10.918,39.413C10.776,39.189 10.759,38.908 10.873,38.668L13.586,32.981C13.843,32.444 14.386,32.102 14.982,32.101L28.482,32.101M12.607,39.837L12.607,45.25M33.148,26.5C37.01,30.362 41.398,29.824 43.63,29.824M37.861,42.388L37.861,40.332" style="fill:none;stroke:rgb(44,44,44);stroke-width:2px;"/>
                    </g>
                </g>
            </g>
            <g id="g-root-ic_verd_142zkav186id5a-stroke" transform="matrix(1,0,0,1,230,74)">
                <g id="ic_verd_142zkav186id5a-stroke">
                    <g>
                        <path d="M13.195,34.375C13.195,36.653 15.042,38.5 17.32,38.5C19.598,38.5 21.445,36.653 21.445,34.375C21.445,32.097 19.598,30.25 17.32,30.25C15.042,30.25 13.195,32.097 13.195,34.375ZM23.889,45.25C23.195,42.18 20.467,40 17.319,40C14.172,40 11.444,42.18 10.75,45.25M34.555,34.375C34.555,36.653 36.402,38.5 38.68,38.5C40.958,38.5 42.805,36.653 42.805,34.375C42.805,32.097 40.958,30.25 38.68,30.25C36.402,30.25 34.555,32.097 34.555,34.375ZM45.25,45.25C44.556,42.18 41.828,40 38.681,40C35.533,40 32.805,42.18 32.112,45.25M34.75,13.75L37.75,13.75C38.578,13.75 39.25,14.422 39.25,15.25L39.25,25.75C39.25,26.578 38.578,27.25 37.75,27.25L31.75,27.25L27.25,31.75L27.25,27.25L16.75,27.25C15.922,27.25 15.25,26.578 15.25,25.75L15.25,15.25C15.25,14.422 15.922,13.75 16.75,13.75L20.5,13.75M27.834,17.863L22,23.696M29.425,13.09L32.608,16.272L29.427,19.455L26.244,16.272L29.425,13.09ZM32.606,16.272C32.899,15.979 33.374,15.979 33.667,16.272L34.728,17.332C34.869,17.473 34.948,17.664 34.948,17.863C34.948,18.062 34.869,18.253 34.728,18.394L31.546,21.576C31.253,21.868 30.778,21.868 30.485,21.576L29.425,20.515C29.132,20.222 29.132,19.747 29.425,19.455M29.425,13.09C29.718,12.797 29.718,12.322 29.425,12.03L28.365,10.969C28.072,10.676 27.597,10.676 27.304,10.969L24.121,14.15C23.828,14.443 23.828,14.918 24.121,15.211L25.181,16.272C25.474,16.564 25.949,16.564 26.242,16.272" style="fill:none;stroke:rgb(44,44,44);stroke-width:2px;"/>
                    </g>
                </g>
            </g>
            <g id="g-root-ic_bell_147cz2f1868kcg-stroke" transform="matrix(1,0,0,1,296,194)">
                <g id="ic_bell_147cz2f1868kcg-stroke">
                    <g>
                        <path d="M27.25,31.75L27.25,31C27.25,26.858 23.892,23.5 19.75,23.5C15.608,23.5 12.25,26.858 12.25,31L12.25,31.75M25,15.25C25.017,15.5 25.017,15.75 25,16C25,18.899 22.649,21.25 19.75,21.25C16.851,21.25 14.5,18.899 14.5,16C14.5,15.793 14.477,15.45 14.5,15.25M11.5,31.75L44.5,31.75C44.5,31.75 45.25,31.75 45.25,32.5L45.25,44.5C45.25,44.5 45.25,45.25 44.5,45.25L11.5,45.25C11.5,45.25 10.75,45.25 10.75,44.5L10.75,32.5C10.75,32.5 10.75,31.75 11.5,31.75M33.25,31.75C33.25,29.265 35.265,27.25 37.75,27.25C40.235,27.25 42.25,29.265 42.25,31.75L33.25,31.75ZM25,15.25C21.572,14.25 17.929,14.25 14.5,15.25L14.5,12.25C14.5,11.422 15.172,10.75 16,10.75L23.5,10.75C24.328,10.75 25,11.422 25,12.25L25,15.25ZM20.125,26.125C20.125,26.332 19.957,26.5 19.75,26.5C19.543,26.5 19.375,26.332 19.375,26.125C19.375,25.918 19.543,25.75 19.75,25.75C19.957,25.75 20.125,25.918 20.125,26.125M20.125,29.5C20.125,29.707 19.957,29.875 19.75,29.875C19.543,29.875 19.375,29.707 19.375,29.5C19.375,29.293 19.543,29.125 19.75,29.125C19.957,29.125 20.125,29.293 20.125,29.5M36.25,24.25L39.25,24.25M37.75,24.25L37.75,27.25M25.75,42.25L25.75,36.25M31.75,42.25L31.75,36.25M25.75,39.25L31.75,39.25" style="fill:none;stroke:rgb(44,44,44);stroke-width:2px;"/>
                    </g>
                </g>
            </g>
            <g id="g-root-ic_24_dkfybr1864av6-stroke" transform="matrix(1,0,0,1,206,458)">
                <g id="ic_24_dkfybr1864av6-stroke">
                    <g>
                        <path d="M10.75,45.25L10.75,31.75C10.75,30.922 11.422,30.25 12.25,30.25L43.75,30.25C44.578,30.25 45.25,30.922 45.25,31.75L45.25,45.25M18.25,37C18.25,35.757 19.257,34.75 20.5,34.75C21.743,34.75 22.75,35.757 22.75,37C22.736,37.736 22.471,38.445 22,39.01L18.25,43.75L22.75,43.75M29.5,40.75L25,40.75C25,39.25 25,34.75 29.5,34.75L29.5,43.75M34,34.75L34,43.75M34,38.5L37,38.5C37.828,38.5 38.5,39.172 38.5,40L38.5,43.75M37.75,30.25L37.75,26.5M34.75,22.75L40.75,22.75C40.75,22.75 41.5,22.75 41.5,23.5L41.5,25.75C41.5,25.75 41.5,26.5 40.75,26.5L34.75,26.5C34.75,26.5 34,26.5 34,25.75L34,23.5C34,23.5 34,22.75 34.75,22.75M15.25,15.25L15.25,16C15.25,18.071 16.929,19.75 19,19.75C21.071,19.75 22.75,18.071 22.75,16L22.75,15.25M22.75,15.25L15.25,15.25L15.25,12.025C15.246,11.708 15.445,11.424 15.745,11.32C17.848,10.555 20.152,10.555 22.255,11.32C22.555,11.424 22.754,11.708 22.75,12.025L22.75,15.25ZM13.195,27.25C13.885,24.609 16.271,22.767 19,22.767C21.729,22.767 24.115,24.609 24.805,27.25" style="fill:none;stroke:rgb(44,44,44);stroke-width:2px;"/>
                    </g>
                </g>
            </g>
            <g id="g-root-ic_buil_v7z4av186fitl-stroke" transform="matrix(1,0,0,1,314,446)">
                <g id="ic_buil_v7z4av186fitl-stroke">
                    <g>
                        <path d="M15.25,16.75C15.25,20.064 17.936,22.75 21.25,22.75C24.564,22.75 27.25,20.064 27.25,16.75C27.25,13.436 24.564,10.75 21.25,10.75C17.936,10.75 15.25,13.436 15.25,16.75ZM15.25,30.25L27.25,30.25M15.25,25.75L27.25,25.75M15.25,34.75L21.25,34.75M15.25,39.25L21.25,39.25M21.25,13.75L21.25,19.75M24.25,16.75L18.25,16.75M24.25,44.5C24.25,44.914 24.586,45.25 25,45.25L44.5,45.25C44.914,45.25 45.25,44.914 45.25,44.5L45.25,34.75C45.25,33.922 44.578,33.25 43.75,33.25L25.75,33.25C24.922,33.25 24.25,33.922 24.25,34.75L24.25,44.5ZM12.25,19C11.422,19 10.75,19.672 10.75,20.5L10.75,44.5C10.75,44.914 11.086,45.25 11.5,45.25L21.25,45.25M31.75,30.25L31.75,20.5C31.75,19.672 31.078,19 30.25,19M33.25,42.25L36.25,42.25L36.25,45.25L33.25,45.25L33.25,42.25ZM27.25,39.25L28.75,39.25M28.75,36.25L27.25,36.25M31.75,39.25L33.25,39.25M33.25,36.25L31.75,36.25M36.25,39.25L37.75,39.25M37.75,36.25L36.25,36.25M40.75,39.25L42.25,39.25M42.25,36.25L40.75,36.25" style="fill:none;stroke:rgb(44,44,44);stroke-width:2px;"/>
                    </g>
                </g>
            </g>
            <g id="g-root-ic_1_1448ih3186jsp5-stroke" transform="matrix(1,0,0,1,224,158)">
                <g id="ic_1_1448ih3186jsp5-stroke">
                    <g>
                        <path d="M24.25,20.5C24.25,20.086 23.914,19.75 23.5,19.75L11.5,19.75C11.086,19.75 10.75,20.086 10.75,20.5L10.75,44.5C10.75,44.914 11.086,45.25 11.5,45.25L24.25,45.25L24.25,20.5ZM12.25,19.75L12.25,16C12.25,15.586 12.586,15.25 13,15.25L22,15.25C22.414,15.25 22.75,15.586 22.75,16L22.75,19.75M16.75,15.25L16.75,10.75M45.25,44.5C45.25,44.914 44.914,45.25 44.5,45.25L34.75,45.25L34.75,25C34.75,24.586 35.086,24.25 35.5,24.25L44.5,24.25C44.914,24.25 45.25,24.586 45.25,25L45.25,44.5ZM36.25,24.25L36.25,22C36.25,21.586 36.586,21.25 37,21.25L43,21.25C43.414,21.25 43.75,21.586 43.75,22L43.75,24.25M24.25,28.75L34.75,28.75M24.25,45.25L34.75,45.25M13.75,24.25L21.25,24.25M13.75,28.75L21.25,28.75M13.75,33.25L21.25,33.25M37.75,28.75L42.25,28.75M37.75,33.25L42.25,33.25M13.75,37.75L21.25,37.75M37.75,37.75L42.25,37.75M27.25,33.25L31.75,33.25M27.25,37.75L31.75,37.75M18.25,45.25L18.25,41.5C18.25,41.086 17.914,40.75 17.5,40.75L16,40.75C15.586,40.75 15.25,41.086 15.25,41.5L15.25,45.25M39.25,45.25L39.25,41.5C39.25,41.086 39.586,40.75 40,40.75L41.5,40.75C41.914,40.75 42.25,41.086 42.25,41.5L42.25,45.25" style="fill:none;stroke:rgb(44,44,44);stroke-width:2px;"/>
                    </g>
                </g>
            </g>
            <g id="g-root-ic_1_m7ysg71862w3r-stroke" transform="matrix(1,0,0,1,212,374)">
                <g id="ic_1_m7ysg71862w3r-stroke">
                    <g>
                        <path d="M15.041,31.672C15.041,33.533 16.551,35.042 18.412,35.042C20.273,35.042 21.782,33.533 21.782,31.672C21.782,29.811 20.273,28.302 18.412,28.302C16.551,28.302 15.041,29.811 15.041,31.672M23.964,40.629C23.128,38.308 20.938,36.751 18.472,36.727C16.005,36.702 13.784,38.214 12.903,40.518M33.897,31.672C33.897,33.533 35.406,35.042 37.267,35.042C39.128,35.042 40.638,33.533 40.638,31.672C40.638,29.811 39.128,28.302 37.267,28.302C35.406,28.302 33.897,29.811 33.897,31.672M42.593,40.09C41.688,38.231 39.89,36.97 37.834,36.751C37.304,36.709 36.771,36.735 36.247,36.829M11.5,43.466L44.5,43.466M38.386,43.466L28.657,43.466L27.361,37.629C27.312,37.407 27.366,37.174 27.508,36.997C27.651,36.82 27.866,36.717 28.093,36.716L35.683,36.716C36.386,36.717 36.994,37.205 37.147,37.891L38.386,43.466ZM27.25,12.534L27.25,18.534M24.25,23.034L25,18.534L29.5,18.534L30.25,23.034L24.25,23.034ZM32.041,40.091C32.041,40.402 32.293,40.654 32.603,40.654C32.914,40.654 33.166,40.402 33.166,40.091C33.166,39.781 32.914,39.529 32.603,39.529C32.293,39.529 32.041,39.781 32.041,40.091M34.863,29.313C36.343,30.916 38.458,31.78 40.638,31.672M20.817,29.313C19.336,30.916 17.221,31.78 15.041,31.672" style="fill:none;stroke:rgb(44,44,44);stroke-width:2px;"/>
                    </g>
                </g>
            </g>
        </g>
    </g>
</svg>
