<?xml version="1.0" encoding="UTF-8" standalone="no"?>
<!DOCTYPE svg PUBLIC "-//W3C//DTD SVG 1.1//EN" "http://www.w3.org/Graphics/SVG/1.1/DTD/svg11.dtd">
<svg width="100%" height="100%" viewBox="0 0 588 586" version="1.1" xmlns="http://www.w3.org/2000/svg" xmlns:xlink="http://www.w3.org/1999/xlink" xml:space="preserve" xmlns:serif="http://www.serif.com/" style="fill-rule:evenodd;clip-rule:evenodd;stroke-linecap:round;stroke-linejoin:round;">
    <g id="items" transform="matrix(1.06945,0,0,1.06945,-20.4188,-41.669)">
        <g id="blend">
            <g id="g-root-sy_-1_cu_v2zl5i15oc6bo-fill" transform="matrix(1,0,0,1,14,62)">
                <g id="sy_-1_cu_v2zl5i15oc6bo-fill">
                    <g>
                        <path d="M10,490L10,418L82.5,418L82.5,490L10,490ZM34,394L10,418L82.5,418L106,394L34,394ZM34,394L34,322L106,322L106,394L34,394ZM58,298L34,322L106,322L130,298L58,298ZM58,298L58,226L130,226L130,298L58,298ZM82,202L58,226L130,226L154,202L82,202ZM82,202L82,130L154,130L154,202L82,202ZM106,106L82,130L154,130L178,106L106,106ZM106,106L106,34L178,34L178,106L106,106ZM130,10L106,34L178,34L202,10L130,10Z" style="fill:url(#_Linear1);"/>
                    </g>
                </g>
            </g>
            <g id="g-root-sy_-1_cu_1_1cvijti15oc64l-fill" transform="matrix(1,0,0,1,362,62)">
                <g id="sy_-1_cu_1_1cvijti15oc64l-fill">
                    <g>
                        <path d="M202,490L202,418L130.5,418L130.5,490L202,490ZM202,418L178,394L106,394L130.5,418L202,418ZM178,322L178,394L106,394L106,322L178,322ZM178,322L154,298L82,298L106,322L178,322ZM154,226L154,298L82,298L82,226L154,226ZM154,226L130,202L58,202L82,226L154,226ZM130,130L130,202L58,202L58,130L130,130ZM130,130L106,106L34,106L58,130L130,130ZM106,34L106,106L34,106L34,34L106,34ZM106,34L82,10L10,10L34,34L106,34Z" style="fill:url(#_Linear2);"/>
                    </g>
                </g>
            </g>
            <g id="g-root-sy_1_cu_qp1iae15oc5ce-fill" transform="matrix(1,0,0,1,86.4998,446)">
                <g id="sy_1_cu_qp1iae15oc5ce-fill">
                    <g>
                        <path d="M10,106L10,34L406,34L406,106L10,106ZM381.5,10L406,34L10,34L33.5,10L381.5,10Z" style="fill:url(#_Linear3);"/>
                    </g>
                </g>
            </g>
            <g id="g-root-sy_2_cu_2qymu15oc5cf-fill" transform="matrix(1,0,0,1,110,350)">
                <g id="sy_2_cu_2qymu15oc5cf-fill">
                    <g>
                        <path d="M10,106L10,34L358,34L358,106L10,106ZM334,10L358,34L10,34L34,10L334,10Z" style="fill:url(#_Linear4);"/>
                    </g>
                </g>
            </g>
            <g id="g-root-sy_3_cu_1q880d215oc6ps-fill" transform="matrix(1,0,0,1,134,254)">
                <g id="sy_3_cu_1q880d215oc6ps-fill">
                    <g>
                        <path d="M10,34L10,106L310,106L310,34L10,34ZM286,10L310,34L10,34L34,10L286,10Z" style="fill:url(#_Linear5);"/>
                    </g>
                </g>
            </g>
            <g id="g-root-sy_4_cu_141qyty15oc5xl-fill" transform="matrix(1,0,0,1,158,158)">
                <g id="sy_4_cu_141qyty15oc5xl-fill">
                    <g>
                        <path d="M10,106L10,34L262,34L262,106L10,106ZM238,10L262,34L10,34L34,10L238,10Z" style="fill:url(#_Linear6);"/>
                    </g>
                </g>
            </g>
            <g id="g-root-sy_5_cu_mb3ffa15oc54y-fill" transform="matrix(1,0,0,1,182,62)">
                <g id="sy_5_cu_mb3ffa15oc54y-fill">
                    <g>
                        <path d="M10,106L10,34L214,34L214,106L10,106ZM190,10L214,34L10,34L34,10L190,10Z" style="fill:url(#_Linear7);"/>
                    </g>
                </g>
            </g>
            <g transform="matrix(1,0,0,1,208.57,240)">
                <g id="g-root-tx_monitoro_94mpqu15oc64n-fill">
                    <g id="tx_monitoro_94mpqu15oc64n-fill">
                        <g>
                            <g>
                                <text x="0px" y="0px" style="font-family:'ArialMT', 'Arial', sans-serif;font-size:20px;fill:rgb(244,244,244);">Monitor &amp; Optimize</text>
                            </g>
                        </g>
                    </g>
                </g>
            </g>
            <g transform="matrix(1,0,0,1,219.77,144)">
                <g id="g-root-tx_scaleasn_147zpp215oc7ig-fill">
                    <g id="tx_scaleasn_147zpp215oc7ig-fill">
                        <g>
                            <g>
                                <text x="0px" y="0px" style="font-family:'ArialMT', 'Arial', sans-serif;font-size:20px;fill:rgb(244,244,244);">Scale as Needed</text>
                            </g>
                        </g>
                    </g>
                </g>
            </g>
            <g transform="matrix(1,0,0,1,197.86,336)">
                <g id="g-root-tx_makemana_1hhkst215oc6xa-fill">
                    <g id="tx_makemana_1hhkst215oc6xa-fill">
                        <g>
                            <g>
                                <text x="0px" y="0px" style="font-family:'ArialMT', 'Arial', sans-serif;font-size:20px;fill:rgb(244,244,244);">Make &amp; Manage Calls</text>
                            </g>
                        </g>
                    </g>
                </g>
            </g>
            <g transform="matrix(1,0,0,1,208.03,432)">
                <g id="g-root-tx_configur_me7suu15oc5jh-fill">
                    <g id="tx_configur_me7suu15oc5jh-fill">
                        <g>
                            <g>
                                <g transform="matrix(20,0,0,20,36.6895,0)">
                                </g>
                                <g transform="matrix(20,0,0,20,42.2461,0)">
                                </g>
                                <text x="0px" y="0px" style="font-family:'ArialMT', 'Arial', sans-serif;font-size:20px;fill:rgb(244,244,244);">Conﬁgure Call Flow</text>
                            </g>
                        </g>
                    </g>
                </g>
            </g>
            <g transform="matrix(1,0,0,1,229.46,528)">
                <g id="g-root-tx_connectt_dhbufq15oc4xw-fill">
                    <g id="tx_connectt_dhbufq15oc4xw-fill">
                        <g>
                            <g>
                                <text x="0px" y="0px" style="font-family:'ArialMT', 'Arial', sans-serif;font-size:20px;fill:rgb(244,244,244);">Connect <tspan x="79.688px 89.688px 100.811px " y="0px 0px 0px ">Tea</tspan>m</text>
                            </g>
                        </g>
                    </g>
                </g>
            </g>
            <g id="g-root-sy_-1_cu_v2zl5i15oc6bo-stroke" transform="matrix(1,0,0,1,14,62)">
                <g id="sy_-1_cu_v2zl5i15oc6bo-stroke">
                    <g>
                        <path d="M10,490L10,418L82.5,418L82.5,490L10,490ZM10,418L34,394L106,394L82.5,418L10,418ZM34,394L34,322L106,322L106,394L34,394ZM34,322L58,298L130,298L106,322L34,322ZM58,298L58,226L130,226L130,298L58,298ZM58,226L82,202L154,202L130,226L58,226ZM82,202L82,130L154,130L154,202L82,202ZM82,130L106,106L178,106L154,130L82,130ZM106,106L106,34L178,34L178,106L106,106ZM106,34L130,10L202,10L178,34L106,34Z" style="fill:none;stroke:rgb(244,244,244);stroke-width:2px;"/>
                    </g>
                </g>
            </g>
            <g id="g-root-sy_-1_cu_1_1cvijti15oc64l-stroke" transform="matrix(1,0,0,1,362,62)">
                <g id="sy_-1_cu_1_1cvijti15oc64l-stroke">
                    <g>
                        <path d="M202,418L202,490L130.5,490L130.5,418L202,418ZM202,418L178,394L106,394L130.5,418L202,418ZM178,322L178,394L106,394L106,322L178,322ZM178,322L154,298L82,298L106,322L178,322ZM154,226L154,298L82,298L82,226L154,226ZM154,226L130,202L58,202L82,226L154,226ZM130,130L130,202L58,202L58,130L130,130ZM130,130L106,106L34,106L58,130L130,130ZM106,106L106,34L34,34L34,106L106,106ZM106,34L82,10L10,10L34,34L106,34Z" style="fill:none;stroke:rgb(244,244,244);stroke-width:2px;"/>
                    </g>
                </g>
            </g>
            <g id="g-root-sy_1_cu_qp1iae15oc5ce-stroke" transform="matrix(1,0,0,1,86.4998,446)">
                <g id="sy_1_cu_qp1iae15oc5ce-stroke">
                    <g>
                        <path d="M10,34L10,106L406,106L406,34L10,34ZM406,34L381.5,10L33.5,10L10,34L406,34Z" style="fill:none;stroke:rgb(244,244,244);stroke-width:2px;"/>
                    </g>
                </g>
            </g>
            <g id="g-root-sy_2_cu_2qymu15oc5cf-stroke" transform="matrix(1,0,0,1,110,350)">
                <g id="sy_2_cu_2qymu15oc5cf-stroke">
                    <g>
                        <path d="M10,34L10,106L358,106L358,34L10,34ZM358,34L334,10L34,10L10,34L358,34Z" style="fill:none;stroke:rgb(244,244,244);stroke-width:2px;"/>
                    </g>
                </g>
            </g>
            <g id="g-root-sy_3_cu_1q880d215oc6ps-stroke" transform="matrix(1,0,0,1,134,254)">
                <g id="sy_3_cu_1q880d215oc6ps-stroke">
                    <g>
                        <path d="M10,106L10,34L310,34L310,106L10,106ZM310,34L286,10L34,10L10,34L310,34Z" style="fill:none;stroke:rgb(244,244,244);stroke-width:2px;"/>
                    </g>
                </g>
            </g>
            <g id="g-root-sy_4_cu_141qyty15oc5xl-stroke" transform="matrix(1,0,0,1,158,158)">
                <g id="sy_4_cu_141qyty15oc5xl-stroke">
                    <g>
                        <path d="M10,34L10,106L262,106L262,34L10,34ZM262,34L238,10L34,10L10,34L262,34Z" style="fill:none;stroke:rgb(244,244,244);stroke-width:2px;"/>
                    </g>
                </g>
            </g>
            <g id="g-root-sy_5_cu_mb3ffa15oc54y-stroke" transform="matrix(1,0,0,1,182,62)">
                <g id="sy_5_cu_mb3ffa15oc54y-stroke">
                    <g>
                        <path d="M10,34L10,106L214,106L214,34L10,34ZM214,34L190,10L34,10L10,34L214,34Z" style="fill:none;stroke:rgb(244,244,244);stroke-width:2px;"/>
                    </g>
                </g>
            </g>
            <g id="g-root-ic_3_vjdi15odki1-stroke" transform="matrix(1,0,0,1,398,98)">
                <g id="ic_3_vjdi15odki1-stroke">
                    <g>
                        <path d="M46,22C45.106,16.139 40.066,11.809 34.137,11.809C28.208,11.809 23.168,16.139 22.274,22C16.594,22 11.989,26.605 11.989,32.286C11.989,37.966 16.594,42.571 22.274,42.571C23.556,42.584 24.827,42.339 26.011,41.851C27.951,44.468 31.017,46.012 34.274,46.012C37.532,46.012 40.597,44.468 42.537,41.851C43.722,42.339 44.993,42.584 46.274,42.571C51.955,42.571 56.56,37.966 56.56,32.286C56.56,26.605 51.955,22 46.274,22L46,22ZM28.857,32.286L34,37.429L34,56.286M34,37.429L39.143,32.286" style="fill:none;stroke:rgb(244,244,244);stroke-width:2px;"/>
                    </g>
                </g>
            </g>
            <g id="g-root-ic_48px_qvwq8m15oj764-stroke" transform="matrix(1,0,0,1,98,194)">
                <g id="ic_48px_qvwq8m15oj764-stroke">
                    <g>
                        <path d="M15.072,30.179C15.072,24.482 17.789,19.696 23.011,19.696C28.233,19.696 30.949,24.482 30.949,30.179L30.949,37.273C30.949,42.97 28.105,47.882 23.011,47.882C17.916,47.882 15.072,42.97 15.072,37.273L15.072,30.179ZM49.91,47.979L49.91,19.551L36.295,39.738L55.315,39.738" style="fill:none;stroke:rgb(244,244,244);stroke-width:2px;"/>
                    </g>
                </g>
            </g>
            <g id="g-root-ic_grap_18f2kly15ohrm3-stroke" transform="matrix(1,0,0,1,422,194)">
                <g id="ic_grap_18f2kly15ohrm3-stroke">
                    <g>
                        <path d="M14.98,30.22C14.9,29.556 14.86,28.888 14.86,28.22C14.852,21.009 19.968,14.81 27.05,13.451C34.131,12.093 41.179,15.958 43.84,22.66M40.5,38.84L44.84,43.18M56,50.38C56.803,51.128 57.133,52.254 56.862,53.317C56.59,54.38 55.76,55.21 54.697,55.482C53.634,55.753 52.508,55.423 51.76,54.62L44,46.84C43.621,46.464 43.408,45.953 43.408,45.42C43.408,44.887 43.621,44.376 44,44L45.42,42.58C45.796,42.201 46.307,41.988 46.84,41.988C47.373,41.988 47.884,42.201 48.26,42.58L56,50.38ZM46.02,12.5L54.02,12.5L54.02,20.5M44.88,29.12C44.475,35.921 39.544,41.598 32.866,42.949C26.188,44.301 19.437,40.988 16.42,34.88M54,12.5L36.2,30.32C35.42,31.095 34.16,31.095 33.38,30.32L28.6,25.52C27.82,24.745 26.56,24.745 25.78,25.52L11.1,40.2" style="fill:none;stroke:rgb(244,244,244);stroke-width:2px;"/>
                    </g>
                </g>
            </g>
            <g id="g-root-ic_48px_1q880d215one9y-stroke" transform="matrix(1,0,0,1,74,290)">
                <g id="ic_48px_1q880d215one9y-stroke">
                    <g>
                        <path d="M15.072,30.179C15.072,24.482 17.789,19.695 23.011,19.695C28.233,19.695 30.949,24.482 30.949,30.179L30.949,37.273C30.949,42.969 28.105,47.882 23.011,47.882C17.916,47.882 15.072,42.969 15.072,37.273L15.072,30.179ZM37.121,27.068C37.002,24.659 38.483,19.71 45.065,19.71C51.648,19.71 52.656,24.597 52.428,27.357C52.177,30.4 50.272,33.508 42.201,33.508C49.714,33.508 53.126,35.562 53.126,41.125C53.126,45.933 48.876,47.89 44.992,47.89C42.201,47.866 36.62,46.287 36.62,40.162" style="fill:none;stroke:rgb(244,244,244);stroke-width:2px;"/>
                    </g>
                </g>
            </g>
            <g id="g-root-ic_five_mg3b9y15o6l1d-stroke" transform="matrix(1,0,0,1,494,482)">
                <g id="ic_five_mg3b9y15o6l1d-stroke">
                    <g>
                        <path d="M13,26C13,28.761 15.239,31 18,31C20.761,31 23,28.761 23,26C23,23.239 20.761,21 18,21C15.239,21 13,23.239 13,26M45,26C45,28.761 47.239,31 50,31C52.761,31 55,28.761 55,26C55,23.239 52.761,21 50,21C47.239,21 45,23.239 45,26M43,57L43,40.944C37.867,40.47 33.501,37.004 31.876,32.112L30.154,26.95C29.874,26.112 29.977,25.193 30.437,24.438C30.897,23.683 31.667,23.169 32.54,23.034C34.036,22.85 35.449,23.761 35.898,25.2L37.57,30.214C38.522,33.068 41.191,34.995 44.2,35L52.988,35C55.197,35 56.988,36.791 56.988,39L56.988,57M30.838,29L30.438,30.214C29.484,33.077 26.802,35.006 23.784,35L15.004,35C12.795,35 11.004,36.791 11.004,39L11.004,57M25,57L25,40.944C28.543,40.616 31.797,38.849 34,36.054M33,11L33,15M40.828,15.172L38,18M25.172,15.172L28,18" style="fill:none;stroke:rgb(244,244,244);stroke-width:2px;"/>
                    </g>
                </g>
            </g>
            <g id="g-root-ic_48px_1upagnq15oeyve-stroke" transform="matrix(1,0,0,1,122,98)">
                <g id="ic_48px_1upagnq15oeyve-stroke">
                    <g>
                        <path d="M15.072,30.179C15.072,24.482 17.789,19.696 23.011,19.696C28.233,19.696 30.949,24.482 30.949,30.179L30.949,37.273C30.949,42.97 28.105,47.882 23.011,47.882C17.916,47.882 15.072,42.97 15.072,37.273L15.072,30.179ZM53.693,20.121L40.379,20.121L38.988,33.144C39.817,32.315 42.353,30.657 45.865,30.657C49.971,30.657 53.813,33.447 53.427,40.052C53.028,46.894 48.912,47.904 45.529,47.904C41.945,47.904 38.405,45.361 38.073,40.565" style="fill:none;stroke:rgb(244,244,244);stroke-width:2px;"/>
                    </g>
                </g>
            </g>
            <g id="g-root-ic_48px_qssct215ornk0-stroke" transform="matrix(1,0,0,1,50,386)">
                <g id="ic_48px_qssct215ornk0-stroke">
                    <g>
                        <path d="M15.072,30.179C15.072,24.482 17.789,19.695 23.011,19.695C28.233,19.695 30.949,24.482 30.949,30.179L30.949,37.273C30.949,42.969 28.105,47.882 23.011,47.882C17.916,47.882 15.072,42.969 15.072,37.273L15.072,30.179ZM36.832,27.515C36.832,22.895 40.056,19.695 44.438,19.695C51.707,19.695 54.186,26.789 49.421,33.098L37.33,47.417L53.951,47.417" style="fill:none;stroke:rgb(244,244,244);stroke-width:2px;"/>
                    </g>
                </g>
            </g>
            <g id="g-root-ic_1_4hxzo615oq6tj-stroke" transform="matrix(1,0,0,1,470,386)">
                <g id="ic_1_4hxzo615oq6tj-stroke">
                    <g>
                        <path d="M29,42L25,46L25,38L24,38C16.829,37.979 11.021,32.171 11,25C11,17.85 16.85,11 24,11L40,11C47.15,11 53,17.85 53,25C53.002,26.717 52.662,28.416 52,30M33,46.5C33,48.985 35.015,51 37.5,51C39.985,51 42,48.985 42,46.5C42,44.015 39.985,42 37.5,42C35.015,42 33,44.015 33,46.5ZM48,52.5C48,54.985 50.015,57 52.5,57C54.985,57 57,54.985 57,52.5C57,50.015 54.985,48 52.5,48C50.015,48 48,50.015 48,52.5ZM48,37.5C48,39.985 50.015,42 52.5,42C54.985,42 57,39.985 57,37.5C57,35.015 54.985,33 52.5,33C50.015,33 48,35.015 48,37.5ZM41.35,44.19L48.65,39.81M41.676,48.17L48.324,50.83" style="fill:none;stroke:rgb(244,244,244);stroke-width:2px;"/>
                    </g>
                </g>
            </g>
            <g id="g-root-ic_48px_4gp4nq15oaqyy-stroke" transform="matrix(1,0,0,1,26,482)">
                <g id="ic_48px_4gp4nq15oaqyy-stroke">
                    <g>
                        <path d="M37.842,23.377L46.297,20.184L46.297,47.951M15.072,30.179C15.072,24.482 17.789,19.695 23.011,19.695C28.233,19.695 30.949,24.482 30.949,30.179L30.949,37.273C30.949,42.969 28.105,47.882 23.011,47.882C17.916,47.882 15.072,42.969 15.072,37.273L15.072,30.179Z" style="fill:none;stroke:rgb(244,244,244);stroke-width:2px;"/>
                    </g>
                </g>
            </g>
            <g id="g-root-ic_1_qn631215om1ad-stroke" transform="matrix(1,0,0,1,446,290)">
                <g id="ic_1_qn631215om1ad-stroke">
                    <g>
                        <path d="M41,49L15,49M28,52.5C28.276,52.5 28.5,52.724 28.5,53C28.5,53.276 28.276,53.5 28,53.5C27.724,53.5 27.5,53.276 27.5,53C27.5,52.724 27.724,52.5 28,52.5M41,41L41,53C41,55.209 39.209,57 37,57L19,57C16.791,57 15,55.209 15,53L15,15C15,12.791 16.791,11 19,11L30,11M29,23C29,29.627 34.373,35 41,35C47.627,35 53,29.627 53,23C53,16.373 47.627,11 41,11C34.373,11 29,16.373 29,23ZM46.348,19.512L40.548,27.258C40.287,27.605 39.888,27.823 39.454,27.854C39.02,27.885 38.594,27.727 38.286,27.42L35.286,24.42" style="fill:none;stroke:rgb(244,244,244);stroke-width:2px;"/>
                    </g>
                </g>
            </g>
        </g>
    </g>
    <defs>
        <linearGradient id="_Linear1" x1="0" y1="0" x2="1" y2="0" gradientUnits="userSpaceOnUse" gradientTransform="matrix(10,490,-490,10,0,0)"><stop offset="0" style="stop-color:rgb(149,149,149);stop-opacity:1"/><stop offset="1" style="stop-color:rgb(127,127,127);stop-opacity:1"/></linearGradient>
        <linearGradient id="_Linear2" x1="0" y1="0" x2="1" y2="0" gradientUnits="userSpaceOnUse" gradientTransform="matrix(10,490,-490,10,0,0)"><stop offset="0" style="stop-color:rgb(149,149,149);stop-opacity:1"/><stop offset="1" style="stop-color:rgb(127,127,127);stop-opacity:1"/></linearGradient>
        <linearGradient id="_Linear3" x1="0" y1="0" x2="1" y2="0" gradientUnits="userSpaceOnUse" gradientTransform="matrix(10,106,-106,10,-1.77636e-15,0)"><stop offset="0" style="stop-color:rgb(78,136,230);stop-opacity:1"/><stop offset="1" style="stop-color:rgb(79,126,202);stop-opacity:1"/></linearGradient>
        <linearGradient id="_Linear4" x1="0" y1="0" x2="1" y2="0" gradientUnits="userSpaceOnUse" gradientTransform="matrix(10,106,-106,10,0,0)"><stop offset="0" style="stop-color:rgb(59,196,130);stop-opacity:1"/><stop offset="1" style="stop-color:rgb(68,152,112);stop-opacity:1"/></linearGradient>
        <linearGradient id="_Linear5" x1="0" y1="0" x2="1" y2="0" gradientUnits="userSpaceOnUse" gradientTransform="matrix(10,106,-106,10,0,0)"><stop offset="0" style="stop-color:rgb(145,187,57);stop-opacity:1"/><stop offset="1" style="stop-color:rgb(125,152,68);stop-opacity:1"/></linearGradient>
        <linearGradient id="_Linear6" x1="0" y1="0" x2="1" y2="0" gradientUnits="userSpaceOnUse" gradientTransform="matrix(10,106,-106,10,0,0)"><stop offset="0" style="stop-color:rgb(221,201,22);stop-opacity:1"/><stop offset="1" style="stop-color:rgb(169,156,44);stop-opacity:1"/></linearGradient>
        <linearGradient id="_Linear7" x1="0" y1="0" x2="1" y2="0" gradientUnits="userSpaceOnUse" gradientTransform="matrix(10,106,-106,10,0,0)"><stop offset="0" style="stop-color:rgb(220,131,49);stop-opacity:1"/><stop offset="1" style="stop-color:rgb(176,114,57);stop-opacity:1"/></linearGradient>
    </defs>
</svg>
