<?xml version="1.0" encoding="UTF-8" standalone="no"?>
<!DOCTYPE svg PUBLIC "-//W3C//DTD SVG 1.1//EN" "http://www.w3.org/Graphics/SVG/1.1/DTD/svg11.dtd">
<svg width="100%" height="100%" viewBox="0 0 588 586" version="1.1" xmlns="http://www.w3.org/2000/svg" xmlns:xlink="http://www.w3.org/1999/xlink" xml:space="preserve" xmlns:serif="http://www.serif.com/" style="fill-rule:evenodd;clip-rule:evenodd;stroke-linecap:round;stroke-linejoin:round;">
    <g id="items" transform="matrix(1.05848,0,0,1.05848,-17.1917,-38.2443)">
        <g id="blend">
            <g id="g-root-sy_-1_cu_8yztpw1pxtslo-fill" transform="matrix(1,0,0,1,14,62)">
                <g id="sy_-1_cu_8yztpw1pxtslo-fill">
                    <g>
                        <path d="M10,490L10,418L82.5,418L82.5,490L10,490ZM34,394L10,418L82.5,418L106,394L34,394ZM34,394L34,322L106,322L106,394L34,394ZM58,298L34,322L106,322L130,298L58,298ZM58,298L58,226L130,226L130,298L58,298ZM82,202L58,226L130,226L154,202L82,202ZM82,202L82,130L154,130L154,202L82,202ZM106,106L82,130L154,130L178,106L106,106ZM106,106L106,34L178,34L178,106L106,106ZM130,10L106,34L178,34L202,10L130,10Z" style="fill:url(#_Linear1);"/>
                    </g>
                </g>
            </g>
            <g id="g-root-sy_-1_cu_1_142zar81pxtqtp-fill" transform="matrix(1,0,0,1,362,62)">
                <g id="sy_-1_cu_1_142zar81pxtqtp-fill">
                    <g>
                        <path d="M202,490L202,418L130.5,418L130.5,490L202,490ZM202,418L178,394L106,394L130.5,418L202,418ZM178,322L178,394L106,394L106,322L178,322ZM178,322L154,298L82,298L106,322L178,322ZM154,226L154,298L82,298L82,226L154,226ZM154,226L130,202L58,202L82,226L154,226ZM130,130L130,202L58,202L58,130L130,130ZM130,130L106,106L34,106L58,130L130,130ZM106,34L106,106L34,106L34,34L106,34ZM106,34L82,10L10,10L34,34L106,34Z" style="fill:url(#_Linear2);"/>
                    </g>
                </g>
            </g>
            <g id="g-root-sy_1_cu_qrisdw1pxtsem-fill" transform="matrix(1,0,0,1,86.4998,446)">
                <g id="sy_1_cu_qrisdw1pxtsem-fill">
                    <g>
                        <path d="M10,106L10,34L406,34L406,106L10,106ZM381.5,10L406,34L10,34L33.5,10L381.5,10Z" style="fill:url(#_Linear3);"/>
                    </g>
                </g>
            </g>
            <g id="g-root-sy_2_cu_588qc1pxtsen-fill" transform="matrix(1,0,0,1,110,350)">
                <g id="sy_2_cu_588qc1pxtsen-fill">
                    <g>
                        <path d="M10,106L10,34L358,34L358,106L10,106ZM334,10L358,34L10,34L34,10L334,10Z" style="fill:url(#_Linear4);"/>
                    </g>
                </g>
            </g>
            <g id="g-root-sy_3_cu_1qbbrjo1pxtqm8-fill" transform="matrix(1,0,0,1,134,254)">
                <g id="sy_3_cu_1qbbrjo1pxtqm8-fill">
                    <g>
                        <path d="M10,34L10,106L310,106L310,34L10,34ZM286,10L310,34L10,34L34,10L286,10Z" style="fill:url(#_Linear5);"/>
                    </g>
                </g>
            </g>
            <g id="g-root-sy_4_cu_1czv96c1pxts75-fill" transform="matrix(1,0,0,1,158,158)">
                <g id="sy_4_cu_1czv96c1pxts75-fill">
                    <g>
                        <path d="M10,106L10,34L262,34L262,106L10,106ZM238,10L262,34L10,34L34,10L238,10Z" style="fill:url(#_Linear6);"/>
                    </g>
                </g>
            </g>
            <g id="g-root-sy_5_cu_qte7n81pxtrey-fill" transform="matrix(1,0,0,1,182,62)">
                <g id="sy_5_cu_qte7n81pxtrey-fill">
                    <g>
                        <path d="M10,106L10,34L214,34L214,106L10,106ZM190,10L214,34L10,34L34,10L190,10Z" style="fill:url(#_Linear7);"/>
                    </g>
                </g>
            </g>
            <g transform="matrix(1,0,0,1,222.8,240)">
                <g id="g-root-tx_enablefe_1haoylw1pxv5e7-fill">
                    <g id="tx_enablefe_1haoylw1pxv5e7-fill">
                        <g>
                            <g>
                                <text x="0px" y="0px" style="font-family:'ArialMT', 'Arial', sans-serif;font-size:20px;fill:rgb(244,244,244);">Enable Features</text>
                            </g>
                        </g>
                    </g>
                </g>
            </g>
            <g id="g-root-tx_monitora_hsrepg1pxv6yo-fill" transform="matrix(1,0,0,1,224,98)">
                <g id="tx_monitora_hsrepg1pxv6yo-fill">
                    <g>
                        <g>
                            <g transform="matrix(1,0,0,1,13.77,34)">
                                <text x="0px" y="0px" style="font-family:'ArialMT', 'Arial', sans-serif;font-size:20px;fill:rgb(244,244,244);">Monitor and</text>
                            </g>
                            <g transform="matrix(1,0,0,1,31.45,58)">
                                <text x="0px" y="0px" style="font-family:'ArialMT', 'Arial', sans-serif;font-size:20px;fill:rgb(244,244,244);">Manage</text>
                            </g>
                        </g>
                    </g>
                </g>
            </g>
            <g transform="matrix(1,0,0,1,217.65,336)">
                <g id="g-root-tx_defineca_vcc3781pxtrt2-fill">
                    <g id="tx_defineca_vcc3781pxtrt2-fill">
                        <g>
                            <g>
                                <g transform="matrix(20,0,0,20,25.5664,0)">
                                </g>
                                <g transform="matrix(20,0,0,20,31.123,0)">
                                </g>
                                <text x="0px" y="0px" style="font-family:'ArialMT', 'Arial', sans-serif;font-size:20px;fill:rgb(244,244,244);">Deﬁne Call Flows</text>
                            </g>
                        </g>
                    </g>
                </g>
            </g>
            <g transform="matrix(1,0,0,1,219.68,432)">
                <g id="g-root-tx_connectd_1qeg4z81pxtr0t-fill">
                    <g id="tx_connectd_1qeg4z81pxtr0t-fill">
                        <g>
                            <g>
                                <text x="0px" y="0px" style="font-family:'ArialMT', 'Arial', sans-serif;font-size:20px;fill:rgb(244,244,244);">Connect Devices</text>
                            </g>
                        </g>
                    </g>
                </g>
            </g>
            <g transform="matrix(1,0,0,1,186.8,528)">
                <g id="g-root-tx_setupand_1463o6s1pxts04-fill">
                    <g id="tx_setupand_1463o6s1pxts04-fill">
                        <g>
                            <g>
                                <g transform="matrix(20,0,0,20,133.438,0)">
                                </g>
                                <g transform="matrix(20,0,0,20,138.994,0)">
                                </g>
                                <text x="0px" y="0px" style="font-family:'ArialMT', 'Arial', sans-serif;font-size:20px;fill:rgb(244,244,244);">Setup and Conﬁguration</text>
                            </g>
                        </g>
                    </g>
                </g>
            </g>
            <g id="g-root-sy_-1_cu_8yztpw1pxtslo-stroke" transform="matrix(1,0,0,1,14,62)">
                <g id="sy_-1_cu_8yztpw1pxtslo-stroke">
                    <g>
                        <path d="M10,490L10,418L82.5,418L82.5,490L10,490ZM10,418L34,394L106,394L82.5,418L10,418ZM34,394L34,322L106,322L106,394L34,394ZM34,322L58,298L130,298L106,322L34,322ZM58,298L58,226L130,226L130,298L58,298ZM58,226L82,202L154,202L130,226L58,226ZM82,202L82,130L154,130L154,202L82,202ZM82,130L106,106L178,106L154,130L82,130ZM106,106L106,34L178,34L178,106L106,106ZM106,34L130,10L202,10L178,34L106,34Z" style="fill:none;stroke:rgb(244,244,244);stroke-width:2px;"/>
                    </g>
                </g>
            </g>
            <g id="g-root-sy_-1_cu_1_142zar81pxtqtp-stroke" transform="matrix(1,0,0,1,362,62)">
                <g id="sy_-1_cu_1_142zar81pxtqtp-stroke">
                    <g>
                        <path d="M202,418L202,490L130.5,490L130.5,418L202,418ZM202,418L178,394L106,394L130.5,418L202,418ZM178,322L178,394L106,394L106,322L178,322ZM178,322L154,298L82,298L106,322L178,322ZM154,226L154,298L82,298L82,226L154,226ZM154,226L130,202L58,202L82,226L154,226ZM130,130L130,202L58,202L58,130L130,130ZM130,130L106,106L34,106L58,130L130,130ZM106,106L106,34L34,34L34,106L106,106ZM106,34L82,10L10,10L34,34L106,34Z" style="fill:none;stroke:rgb(244,244,244);stroke-width:2px;"/>
                    </g>
                </g>
            </g>
            <g id="g-root-sy_1_cu_qrisdw1pxtsem-stroke" transform="matrix(1,0,0,1,86.4998,446)">
                <g id="sy_1_cu_qrisdw1pxtsem-stroke">
                    <g>
                        <path d="M10,34L10,106L406,106L406,34L10,34ZM406,34L381.5,10L33.5,10L10,34L406,34Z" style="fill:none;stroke:rgb(244,244,244);stroke-width:2px;"/>
                    </g>
                </g>
            </g>
            <g id="g-root-sy_2_cu_588qc1pxtsen-stroke" transform="matrix(1,0,0,1,110,350)">
                <g id="sy_2_cu_588qc1pxtsen-stroke">
                    <g>
                        <path d="M10,34L10,106L358,106L358,34L10,34ZM358,34L334,10L34,10L10,34L358,34Z" style="fill:none;stroke:rgb(244,244,244);stroke-width:2px;"/>
                    </g>
                </g>
            </g>
            <g id="g-root-sy_3_cu_1qbbrjo1pxtqm8-stroke" transform="matrix(1,0,0,1,134,254)">
                <g id="sy_3_cu_1qbbrjo1pxtqm8-stroke">
                    <g>
                        <path d="M10,106L10,34L310,34L310,106L10,106ZM310,34L286,10L34,10L10,34L310,34Z" style="fill:none;stroke:rgb(244,244,244);stroke-width:2px;"/>
                    </g>
                </g>
            </g>
            <g id="g-root-sy_4_cu_1czv96c1pxts75-stroke" transform="matrix(1,0,0,1,158,158)">
                <g id="sy_4_cu_1czv96c1pxts75-stroke">
                    <g>
                        <path d="M10,34L10,106L262,106L262,34L10,34ZM262,34L238,10L34,10L10,34L262,34Z" style="fill:none;stroke:rgb(244,244,244);stroke-width:2px;"/>
                    </g>
                </g>
            </g>
            <g id="g-root-sy_5_cu_qte7n81pxtrey-stroke" transform="matrix(1,0,0,1,182,62)">
                <g id="sy_5_cu_qte7n81pxtrey-stroke">
                    <g>
                        <path d="M10,34L10,106L214,106L214,34L10,34ZM214,34L190,10L34,10L10,34L214,34Z" style="fill:none;stroke:rgb(244,244,244);stroke-width:2px;"/>
                    </g>
                </g>
            </g>
            <g id="g-root-ic_acti_1cwqvqs1pxv56p-stroke" transform="matrix(1,0,0,1,398,98)">
                <g id="ic_acti_1cwqvqs1pxv56p-stroke">
                    <g>
                        <path d="M20.286,11.714L47.714,11.714C47.714,11.714 51.143,11.714 51.143,15.143L51.143,42.571C51.143,42.571 51.143,46 47.714,46L20.286,46C20.286,46 16.857,46 16.857,42.571L16.857,15.143C16.857,15.143 16.857,11.714 20.286,11.714M25.429,28.857C25.429,33.591 29.266,37.429 34,37.429C38.734,37.429 42.571,33.591 42.571,28.857C42.571,24.123 38.734,20.286 34,20.286C29.266,20.286 25.429,24.123 25.429,28.857M39.143,46L39.143,56.286M28.857,46L28.857,56.286M23.714,56.286L44.286,56.286" style="fill:none;stroke:rgb(244,244,244);stroke-width:2px;"/>
                    </g>
                </g>
            </g>
            <g id="g-root-ic_48px_5usz81pxh3wq-stroke" transform="matrix(1,0,0,1,98,194)">
                <g id="ic_48px_5usz81pxh3wq-stroke">
                    <g>
                        <path d="M15.072,30.179C15.072,24.482 17.789,19.696 23.011,19.696C28.233,19.696 30.949,24.482 30.949,30.179L30.949,37.273C30.949,42.97 28.105,47.882 23.011,47.882C17.916,47.882 15.072,42.97 15.072,37.273L15.072,30.179ZM49.91,47.979L49.91,19.551L36.295,39.738L55.315,39.738" style="fill:none;stroke:rgb(244,244,244);stroke-width:2px;"/>
                    </g>
                </g>
            </g>
            <g id="g-root-ic_3_m97h2s1pxecqo-stroke" transform="matrix(1,0,0,1,422,194)">
                <g id="ic_3_m97h2s1pxecqo-stroke">
                    <g>
                        <path d="M40.857,32.286L54.571,32.286C54.571,32.286 56.286,32.286 56.286,34L56.286,54.571C56.286,54.571 56.286,56.286 54.571,56.286L40.857,56.286C40.857,56.286 39.143,56.286 39.143,54.571L39.143,34C39.143,34 39.143,32.286 40.857,32.286M40.857,11.714L54.571,11.714C54.571,11.714 56.286,11.714 56.286,13.429L56.286,20.32C56.286,20.32 56.286,22.034 54.571,22.034L40.857,22.034C40.857,22.034 39.143,22.034 39.143,20.32L39.143,13.429C39.143,13.429 39.143,11.714 40.857,11.714M13.429,11.714L27.143,11.714C27.143,11.714 28.857,11.714 28.857,13.429L28.857,34C28.857,34 28.857,35.714 27.143,35.714L13.429,35.714C13.429,35.714 11.714,35.714 11.714,34L11.714,13.429C11.714,13.429 11.714,11.714 13.429,11.714M13.429,45.966L27.143,45.966C27.143,45.966 28.857,45.966 28.857,47.68L28.857,54.571C28.857,54.571 28.857,56.286 27.143,56.286L13.429,56.286C13.429,56.286 11.714,56.286 11.714,54.571L11.714,47.68C11.714,47.68 11.714,45.966 13.429,45.966" style="fill:none;stroke:rgb(244,244,244);stroke-width:2px;"/>
                    </g>
                </g>
            </g>
            <g id="g-root-ic_48px_1ulj31w1pxjz0m-stroke" transform="matrix(1,0,0,1,74,290)">
                <g id="ic_48px_1ulj31w1pxjz0m-stroke">
                    <g>
                        <path d="M15.072,30.179C15.072,24.482 17.789,19.695 23.011,19.695C28.233,19.695 30.949,24.482 30.949,30.179L30.949,37.273C30.949,42.969 28.105,47.882 23.011,47.882C17.916,47.882 15.072,42.969 15.072,37.273L15.072,30.179ZM37.121,27.068C37.002,24.659 38.483,19.71 45.065,19.71C51.648,19.71 52.656,24.597 52.428,27.357C52.177,30.4 50.272,33.508 42.201,33.508C49.714,33.508 53.126,35.562 53.126,41.125C53.126,45.933 48.876,47.89 44.992,47.89C42.201,47.866 36.62,46.287 36.62,40.162" style="fill:none;stroke:rgb(244,244,244);stroke-width:2px;"/>
                    </g>
                </g>
            </g>
            <g id="g-root-ic_2_1lsdz5g1pxii9w-stroke" transform="matrix(1,0,0,1,446,290)">
                <g id="ic_2_1lsdz5g1pxii9w-stroke">
                    <g>
                        <path d="M41.5,35C41.5,37.761 43.739,40 46.5,40C49.261,40 51.5,37.761 51.5,35C51.5,32.239 49.261,30 46.5,30C43.739,30 41.5,32.239 41.5,35M41.5,52C41.5,54.761 43.739,57 46.5,57C49.261,57 51.5,54.761 51.5,52C51.5,49.239 49.261,47 46.5,47C43.739,47 41.5,49.239 41.5,52M28.5,23L28.5,48C28.5,50.209 30.291,52 32.5,52L41.5,52M28.5,35L41.5,35M40.5,17C40.5,20.314 37.814,23 34.5,23L22.5,23C19.186,23 16.5,20.314 16.5,17C16.5,13.686 19.186,11 22.5,11L34.5,11C37.814,11 40.5,13.686 40.5,17Z" style="fill:none;stroke:rgb(244,244,244);stroke-width:2px;"/>
                    </g>
                </g>
            </g>
            <g id="g-root-ic_48px_1hf2ddg1pxcvtb-stroke" transform="matrix(1,0,0,1,122,98)">
                <g id="ic_48px_1hf2ddg1pxcvtb-stroke">
                    <g>
                        <path d="M15.072,30.179C15.072,24.482 17.789,19.696 23.011,19.696C28.233,19.696 30.949,24.482 30.949,30.179L30.949,37.273C30.949,42.97 28.105,47.882 23.011,47.882C17.916,47.882 15.072,42.97 15.072,37.273L15.072,30.179ZM53.693,20.121L40.379,20.121L38.988,33.144C39.817,32.315 42.353,30.657 45.865,30.657C49.971,30.657 53.813,33.447 53.427,40.052C53.028,46.894 48.912,47.904 45.529,47.904C41.945,47.904 38.405,45.361 38.073,40.565" style="fill:none;stroke:rgb(244,244,244);stroke-width:2px;"/>
                    </g>
                </g>
            </g>
            <g id="g-root-ic_48px_hzmptg1pxjwne-stroke" transform="matrix(1,0,0,1,50,386)">
                <g id="ic_48px_hzmptg1pxjwne-stroke">
                    <g>
                        <path d="M15.072,30.179C15.072,24.482 17.789,19.695 23.011,19.695C28.233,19.695 30.949,24.482 30.949,30.179L30.949,37.273C30.949,42.969 28.105,47.882 23.011,47.882C17.916,47.882 15.072,42.969 15.072,37.273L15.072,30.179ZM36.832,27.515C36.832,22.895 40.056,19.695 44.438,19.695C51.707,19.695 54.186,26.789 49.421,33.098L37.33,47.417L53.951,47.417" style="fill:none;stroke:rgb(244,244,244);stroke-width:2px;"/>
                    </g>
                </g>
            </g>
            <g id="g-root-ic_exch_1czvcc41pxjxmo-stroke" transform="matrix(1,0,0,1,470,386)">
                <g id="ic_exch_1czvcc41pxjxmo-stroke">
                    <g>
                        <path d="M47,37L47,41.5C47.001,45.643 43.643,49.001 39.5,49L36,49M43,41L47,37L51,41M39,52L36,49L39,46M47.738,31C51.319,30.519 53.993,27.467 54,23.854C54.027,21.943 53.274,20.104 51.916,18.759C50.558,17.415 48.711,16.682 46.8,16.728C45.24,13.261 41.801,11.023 38,11C32.784,11.066 28.525,15.189 28.29,20.4C26.73,20.087 25.112,20.497 23.89,21.515C22.668,22.534 21.973,24.051 22,25.642C21.987,27.103 22.577,28.505 23.629,29.518C24.681,30.532 26.104,31.068 27.564,31L47.738,31ZM16,37L26,37C27.105,37 28,37.895 28,39L28,55C28,56.105 27.105,57 26,57L16,57C14.895,57 14,56.105 14,55L14,39C14,37.895 14.895,37 16,37ZM21,51.5C20.724,51.5 20.5,51.724 20.5,52C20.5,52.276 20.724,52.5 21,52.5C21.276,52.5 21.5,52.276 21.5,52C21.5,51.724 21.276,51.5 21,51.5" style="fill:none;stroke:rgb(244,244,244);stroke-width:2px;"/>
                    </g>
                </g>
            </g>
            <g id="g-root-ic_1_1q8tyd01pxldl7-stroke" transform="matrix(1,0,0,1,494,482)">
                <g id="ic_1_1q8tyd01pxldl7-stroke">
                    <g>
                        <path d="M42.624,44.062C42.624,45.65 43.912,46.938 45.5,46.938C47.088,46.938 48.376,45.65 48.376,44.062C48.376,42.474 47.088,41.186 45.5,41.186C43.912,41.186 42.624,42.474 42.624,44.062ZM47.942,32.94L48.79,35.724C49.078,36.684 50.063,37.256 51.04,37.03L53.862,36.376C54.96,36.129 56.091,36.625 56.651,37.601C57.212,38.577 57.071,39.804 56.304,40.628L54.328,42.756C53.652,43.491 53.652,44.621 54.328,45.356L56.302,47.486C57.069,48.31 57.21,49.537 56.649,50.513C56.089,51.489 54.958,51.985 53.86,51.738L51.038,51.084C50.062,50.866 49.084,51.441 48.8,52.4L47.952,55.184C47.628,56.262 46.636,57 45.51,57C44.384,57 43.392,56.262 43.068,55.184L42.21,52.4C41.922,51.44 40.937,50.868 39.96,51.094L37.138,51.748C36.04,51.995 34.909,51.499 34.349,50.523C33.788,49.547 33.929,48.32 34.696,47.496L36.67,45.366C37.346,44.631 37.346,43.501 36.67,42.766L34.696,40.636C33.929,39.812 33.788,38.585 34.349,37.609C34.909,36.633 36.04,36.137 37.138,36.384L39.96,37.038C40.937,37.263 41.921,36.692 42.21,35.732L43.058,32.948C43.38,31.87 44.372,31.13 45.497,31.128C46.623,31.126 47.616,31.863 47.942,32.94ZM21,51L27,51M27.002,41L27.002,51M16.5,50C16.224,50 16,50.224 16,50.5C16,50.776 16.224,51 16.5,51C16.776,51 17,50.776 17,50.5C17,50.224 16.776,50 16.5,50M11.5,50C11.224,50 11,50.224 11,50.5C11,50.776 11.224,51 11.5,51C11.776,51 12,50.776 12,50.5C12,50.224 11.776,50 11.5,50M18.5,35.5C18.224,35.5 18,35.724 18,36C18,36.276 18.224,36.5 18.5,36.5C18.776,36.5 19,36.276 19,36C19,35.724 18.776,35.5 18.5,35.5M23.5,35.5C23.224,35.5 23,35.724 23,36C23,36.276 23.224,36.5 23.5,36.5C23.776,36.5 24,36.276 24,36C24,35.724 23.776,35.5 23.5,35.5M35,31L16,31C13.239,31 11,33.239 11,36C11,38.761 13.239,41 16,41L29,41M18.5,25.5C18.224,25.5 18,25.724 18,26C18,26.276 18.224,26.5 18.5,26.5C18.776,26.5 19,26.276 19,26C19,25.724 18.776,25.5 18.5,25.5M23.5,25.5C23.224,25.5 23,25.724 23,26C23,26.276 23.224,26.5 23.5,26.5C23.776,26.5 24,26.276 24,26C24,25.724 23.776,25.5 23.5,25.5M45,26C45,23.239 42.761,21 40,21L16,21C13.239,21 11,23.239 11,26C11,28.761 13.239,31 16,31L35,31M18.5,15.5C18.224,15.5 18,15.724 18,16C18,16.276 18.224,16.5 18.5,16.5C18.776,16.5 19,16.276 19,16C19,15.724 18.776,15.5 18.5,15.5M23.5,15.5C23.224,15.5 23,15.724 23,16C23,16.276 23.224,16.5 23.5,16.5C23.776,16.5 24,16.276 24,16C24,15.724 23.776,15.5 23.5,15.5M45,16C45,13.239 42.761,11 40,11L16,11C13.239,11 11,13.239 11,16C11,18.761 13.239,21 16,21L40,21C42.761,21 45,18.761 45,16Z" style="fill:none;stroke:rgb(244,244,244);stroke-width:2px;"/>
                    </g>
                </g>
            </g>
            <g id="g-root-ic_48px_924ab81pxlclh-stroke" transform="matrix(1,0,0,1,26,482)">
                <g id="ic_48px_924ab81pxlclh-stroke">
                    <g>
                        <path d="M37.842,23.377L46.297,20.184L46.297,47.951M15.072,30.179C15.072,24.482 17.789,19.695 23.011,19.695C28.233,19.695 30.949,24.482 30.949,30.179L30.949,37.273C30.949,42.969 28.105,47.882 23.011,47.882C17.916,47.882 15.072,42.969 15.072,37.273L15.072,30.179Z" style="fill:none;stroke:rgb(244,244,244);stroke-width:2px;"/>
                    </g>
                </g>
            </g>
        </g>
    </g>
    <defs>
        <linearGradient id="_Linear1" x1="0" y1="0" x2="1" y2="0" gradientUnits="userSpaceOnUse" gradientTransform="matrix(10,490,-490,10,0,0)"><stop offset="0" style="stop-color:rgb(149,149,149);stop-opacity:1"/><stop offset="1" style="stop-color:rgb(127,127,127);stop-opacity:1"/></linearGradient>
        <linearGradient id="_Linear2" x1="0" y1="0" x2="1" y2="0" gradientUnits="userSpaceOnUse" gradientTransform="matrix(10,490,-490,10,0,0)"><stop offset="0" style="stop-color:rgb(149,149,149);stop-opacity:1"/><stop offset="1" style="stop-color:rgb(127,127,127);stop-opacity:1"/></linearGradient>
        <linearGradient id="_Linear3" x1="0" y1="0" x2="1" y2="0" gradientUnits="userSpaceOnUse" gradientTransform="matrix(10,106,-106,10,-1.77636e-15,0)"><stop offset="0" style="stop-color:rgb(78,136,230);stop-opacity:1"/><stop offset="1" style="stop-color:rgb(79,126,202);stop-opacity:1"/></linearGradient>
        <linearGradient id="_Linear4" x1="0" y1="0" x2="1" y2="0" gradientUnits="userSpaceOnUse" gradientTransform="matrix(10,106,-106,10,0,0)"><stop offset="0" style="stop-color:rgb(59,196,130);stop-opacity:1"/><stop offset="1" style="stop-color:rgb(68,152,112);stop-opacity:1"/></linearGradient>
        <linearGradient id="_Linear5" x1="0" y1="0" x2="1" y2="0" gradientUnits="userSpaceOnUse" gradientTransform="matrix(10,106,-106,10,0,0)"><stop offset="0" style="stop-color:rgb(145,187,57);stop-opacity:1"/><stop offset="1" style="stop-color:rgb(125,152,68);stop-opacity:1"/></linearGradient>
        <linearGradient id="_Linear6" x1="0" y1="0" x2="1" y2="0" gradientUnits="userSpaceOnUse" gradientTransform="matrix(10,106,-106,10,0,0)"><stop offset="0" style="stop-color:rgb(31,169,215);stop-opacity:1"/><stop offset="1" style="stop-color:rgb(49,135,163);stop-opacity:1"/></linearGradient>
        <linearGradient id="_Linear7" x1="0" y1="0" x2="1" y2="0" gradientUnits="userSpaceOnUse" gradientTransform="matrix(10,106,-106,10,0,0)"><stop offset="0" style="stop-color:rgb(185,92,227);stop-opacity:1"/><stop offset="1" style="stop-color:rgb(163,84,199);stop-opacity:1"/></linearGradient>
    </defs>
</svg>
