<?xml version="1.0" encoding="UTF-8" standalone="no"?>
<!DOCTYPE svg PUBLIC "-//W3C//DTD SVG 1.1//EN" "http://www.w3.org/Graphics/SVG/1.1/DTD/svg11.dtd">
<svg width="100%" height="100%" viewBox="0 0 600 588" version="1.1" xmlns="http://www.w3.org/2000/svg" xmlns:xlink="http://www.w3.org/1999/xlink" xml:space="preserve" xmlns:serif="http://www.serif.com/" style="fill-rule:evenodd;clip-rule:evenodd;stroke-linecap:round;stroke-linejoin:round;">
    <g id="items" transform="matrix(1.27409,0,0,1.27409,-82.2269,-119.562)">
        <g id="blend">
            <g id="g-root-cp_1_sign-1_9408is1pxxzwl-fill" transform="matrix(1,0,0,1,59,122)">
                <g id="cp_1_sign-1_9408is1pxxzwl-fill">
                    <g>
                        <path d="M10,40L28,10L28,70L10,40ZM28,10L213,10L213,70L28,70L28,10Z" style="fill:rgb(67,221,147);"/>
                    </g>
                </g>
            </g>
            <g id="g-root-cp_3_sign-3_1uua97o1pxxy4n-fill" transform="matrix(1,0,0,1,83,194)">
                <g id="cp_3_sign-3_1uua97o1pxxy4n-fill">
                    <g>
                        <path d="M10,52L28,10L28,94L10,52ZM28,10L189,10L189,94L28,94L28,10Z" style="fill:rgb(247,148,56);"/>
                    </g>
                </g>
            </g>
            <g id="g-root-cp_5_sign-5_1d308pw1pxy0ht-fill" transform="matrix(1,0,0,1,59,290)">
                <g id="cp_5_sign-5_1d308pw1pxy0ht-fill">
                    <g>
                        <path d="M10,52L28,10L28,94L10,52ZM28,10L213,10L213,94L28,94L28,10Z" style="fill:rgb(255,231,17);"/>
                    </g>
                </g>
            </g>
            <g id="g-root-cp_pole_g-pole_qwj76s1pxxzpn-fill" transform="matrix(1,0,0,1,260,98)">
                <g id="cp_pole_g-pole_qwj76s1pxxzpn-fill">
                    <g>
                        <path d="M31,322L13,322L13,436L31,436L31,435.897L24.55,435.88C24.55,435.88 25.3,429.89 17.74,428.78C25.63,425.53 28.41,430.56 28.41,430.56C28.41,430.56 27.994,423.986 31,418.2L31,322ZM13,22L31,22L31,322L13,322L13,22Z" style="fill:rgb(171,171,171);"/>
                    </g>
                </g>
                <g id="cp_pole_g-pole_qwj76s1pxxzpn-fill1" serif:id="cp_pole_g-pole_qwj76s1pxxzpn-fill">
                    <g>
                        <rect x="10" y="10" width="24" height="12" style="fill:rgb(171,171,171);"/>
                    </g>
                </g>
            </g>
            <g id="g-root-cp_pole_plant_8vw5k41pxcwee-fill" transform="matrix(1,0,0,1,228,499)">
                <g id="cp_pole_plant_8vw5k41pxcwee-fill">
                    <g>
                        <path d="M60.393,29.56C60.393,29.56 57.613,24.53 49.723,27.78C54.516,28.484 57.019,30.471 56.533,35.008L10,35.008C10,35.008 17.976,46.521 54.183,46.521C90.39,46.521 97.76,35.008 97.76,35.008L71.483,35.008C68.788,30.384 74.815,23.86 80.883,26.67C78.883,23.56 72.993,22.89 68.553,26C66.693,20.52 67.443,13.77 70.613,10C59.453,14.7 60.393,29.56 60.393,29.56Z" style="fill:rgb(145,187,57);"/>
                    </g>
                </g>
            </g>
            <g id="g-root-cp_2_sign-2_1uljp5w1pxcxs8-fill" transform="matrix(1,0,0,1,282,158)">
                <g id="cp_2_sign-2_1uljp5w1pxcxs8-fill">
                    <g>
                        <path d="M10,10L171,10L171,70L10,70L10,10ZM189,40L171,10L171,70L189,40Z" style="fill:rgb(79,145,252);"/>
                    </g>
                </g>
            </g>
            <g id="g-root-cp_4_sign-4_1q5q71g1pxcyki-fill" transform="matrix(1,0,0,1,282,230)">
                <g id="cp_4_sign-4_1q5q71g1pxcyki-fill">
                    <g>
                        <path d="M10,10L183,10L183,118L10,118L10,10ZM201,64L183,10L183,118L201,64Z" style="fill:rgb(26,195,251);"/>
                    </g>
                </g>
            </g>
            <g id="g-root-cp_6_sign-6_1cuw5r81pxcwzo-fill" transform="matrix(1,0,0,1,282,350)">
                <g id="cp_6_sign-6_1cuw5r81pxcwzo-fill">
                    <g>
                        <path d="M10,10L231,10L231,70L10,70L10,10ZM249,40L231,10L231,70L249,40Z" style="fill:rgb(166,218,55);"/>
                    </g>
                </g>
            </g>
            <g transform="matrix(1,0,0,1,142.98,174)">
                <g id="g-root-tx_costsavi_1cz9hd01pxh4hx-fill">
                    <g id="tx_costsavi_1cz9hd01pxh4hx-fill">
                        <g>
                            <g>
                                <text x="0px" y="0px" style="font-family:'ArialMT', 'Arial', sans-serif;font-size:20px;fill:rgb(44,44,44);">Cost Savings</text>
                            </g>
                        </g>
                    </g>
                </g>
            </g>
            <g transform="matrix(1,0,0,1,305,210)">
                <g id="g-root-tx_scalabil_1qbcgtg1pxmps4-fill">
                    <g id="tx_scalabil_1qbcgtg1pxmps4-fill">
                        <g>
                            <g>
                                <text x="0px" y="0px" style="font-family:'ArialMT', 'Arial', sans-serif;font-size:20px;fill:rgb(44,44,44);">Scalability</text>
                            </g>
                        </g>
                    </g>
                </g>
            </g>
            <g id="g-root-tx_business_14300101pxjz7z-fill" transform="matrix(1,0,0,1,155,212)">
                <g id="tx_business_14300101pxjz7z-fill">
                    <g>
                        <g>
                            <g transform="matrix(1,0,0,1,23.03,34)">
                                <text x="0px" y="0px" style="font-family:'ArialMT', 'Arial', sans-serif;font-size:20px;fill:rgb(44,44,44);">Business</text>
                            </g>
                            <g transform="matrix(1,0,0,1,14.15,58)">
                                <text x="0px" y="0px" style="font-family:'ArialMT', 'Arial', sans-serif;font-size:20px;fill:rgb(44,44,44);">Continuity</text>
                            </g>
                        </g>
                    </g>
                </g>
            </g>
            <g id="g-root-tx_remotewo_1czvyg41pxo4qu-fill" transform="matrix(1,0,0,1,293,248)">
                <g id="tx_remotewo_1czvyg41pxo4qu-fill">
                    <g>
                        <g>
                            <g transform="matrix(1,0,0,1,12,34)">
                                <text x="0px" y="0px" style="font-family:'ArialMT', 'Arial', sans-serif;font-size:20px;fill:rgb(44,44,44);">Remote</text>
                            </g>
                            <g transform="matrix(1,0,0,1,12,58)">
                                <text x="0px" y="0px" style="font-family:'ArialMT', 'Arial', sans-serif;font-size:20px;fill:rgb(44,44,44);">W<tspan x="18.516px 29.639px " y="0px 0px ">or</tspan>kforce</text>
                            </g>
                            <g transform="matrix(1,0,0,1,12,82)">
                                <text x="0px" y="0px" style="font-family:'ArialMT', 'Arial', sans-serif;font-size:20px;fill:rgb(44,44,44);">Friendly</text>
                            </g>
                        </g>
                    </g>
                </g>
            </g>
            <g id="g-root-tx_enhanced_90vy901pxlde2-fill" transform="matrix(1,0,0,1,131,308)">
                <g id="tx_enhanced_90vy901pxlde2-fill">
                    <g>
                        <g>
                            <g transform="matrix(1,0,0,1,40.28,34)">
                                <text x="0px" y="0px" style="font-family:'ArialMT', 'Arial', sans-serif;font-size:20px;fill:rgb(44,44,44);">Enhanced</text>
                            </g>
                            <g transform="matrix(1,0,0,1,22.63,58)">
                                <text x="0px" y="0px" style="font-family:'ArialMT', 'Arial', sans-serif;font-size:20px;fill:rgb(44,44,44);">Productivity</text>
                            </g>
                        </g>
                    </g>
                </g>
            </g>
            <g transform="matrix(1,0,0,1,305,402)">
                <g id="g-root-tx_reliable_v8lxyc1pxpkhs-fill">
                    <g id="tx_reliable_v8lxyc1pxpkhs-fill">
                        <g>
                            <g>
                                <text x="0px" y="0px" style="font-family:'ArialMT', 'Arial', sans-serif;font-size:20px;fill:rgb(44,44,44);">Reliable Support</text>
                            </g>
                        </g>
                    </g>
                </g>
            </g>
            <g id="g-root-cp_1_sign-1_9408is1pxxzwl-stroke" transform="matrix(1,0,0,1,59,122)">
                <g id="cp_1_sign-1_9408is1pxxzwl-stroke">
                    <g>
                        <path d="M28,10L213,10M213,70L28,70M28,70L10,40L28,10" style="fill:none;stroke:rgb(44,44,44);stroke-width:2px;"/>
                    </g>
                </g>
            </g>
            <g id="g-root-cp_3_sign-3_1uua97o1pxxy4n-stroke" transform="matrix(1,0,0,1,83,194)">
                <g id="cp_3_sign-3_1uua97o1pxxy4n-stroke">
                    <g>
                        <path d="M28,10L189,10M189,94L28,94M28,94L10,52L28,10" style="fill:none;stroke:rgb(44,44,44);stroke-width:2px;"/>
                    </g>
                </g>
            </g>
            <g id="g-root-cp_5_sign-5_1d308pw1pxy0ht-stroke" transform="matrix(1,0,0,1,59,290)">
                <g id="cp_5_sign-5_1d308pw1pxy0ht-stroke">
                    <g>
                        <path d="M28,10L213,10M213,94L28,94M28,94L10,52L28,10" style="fill:none;stroke:rgb(44,44,44);stroke-width:2px;"/>
                    </g>
                </g>
            </g>
            <g id="g-root-cp_pole_g-pole_qwj76s1pxxzpn-stroke" transform="matrix(1,0,0,1,260,98)">
                <g id="cp_pole_g-pole_qwj76s1pxxzpn-stroke">
                    <g>
                        <path d="M31,418L31,322M13,435L13,322M31,322L31,22M13,322L13,22" style="fill:none;stroke:rgb(44,44,44);stroke-width:2px;"/>
                    </g>
                </g>
                <g id="cp_pole_g-pole_qwj76s1pxxzpn-stroke1" serif:id="cp_pole_g-pole_qwj76s1pxxzpn-stroke">
                    <g>
                        <rect x="10" y="10" width="24" height="12" style="fill:none;stroke:rgb(44,44,44);stroke-width:2px;"/>
                    </g>
                </g>
            </g>
            <g id="g-root-cp_pole_plant_8vw5k41pxcwee-stroke" transform="matrix(1,0,0,1,228,499)">
                <g id="cp_pole_plant_8vw5k41pxcwee-stroke">
                    <g>
                        <path d="M56.55,34.88C56.55,34.88 57.3,28.89 49.74,27.78C57.63,24.53 60.41,29.56 60.41,29.56C60.41,29.56 59.47,14.7 70.63,10C67.46,13.77 66.71,20.52 68.57,26C73.01,22.89 78.9,23.56 80.9,26.67C76.68,24.44 69.89,28.468 71,34.918M71,34.918L98,34.918M10,34.918L56.5,34.918" style="fill:none;stroke:rgb(44,44,44);stroke-width:2px;"/>
                    </g>
                </g>
            </g>
            <g id="g-root-cp_2_sign-2_1uljp5w1pxcxs8-stroke" transform="matrix(1,0,0,1,282,158)">
                <g id="cp_2_sign-2_1uljp5w1pxcxs8-stroke">
                    <g>
                        <path d="M171,70L10,70M10,10L171,10M171,10L189,40L171,70" style="fill:none;stroke:rgb(44,44,44);stroke-width:2px;"/>
                    </g>
                </g>
            </g>
            <g id="g-root-cp_4_sign-4_1q5q71g1pxcyki-stroke" transform="matrix(1,0,0,1,282,230)">
                <g id="cp_4_sign-4_1q5q71g1pxcyki-stroke">
                    <g>
                        <path d="M183,118L10,118M10,10L183,10M183,10L201,64L183,118" style="fill:none;stroke:rgb(44,44,44);stroke-width:2px;"/>
                    </g>
                </g>
            </g>
            <g id="g-root-cp_6_sign-6_1cuw5r81pxcwzo-stroke" transform="matrix(1,0,0,1,282,350)">
                <g id="cp_6_sign-6_1cuw5r81pxcwzo-stroke">
                    <g>
                        <path d="M231,70L10,70M10,10L231,10M231,10L249,40L231,70" style="fill:none;stroke:rgb(44,44,44);stroke-width:2px;"/>
                    </g>
                </g>
            </g>
            <g id="g-root-ic_1_1lrs46c1pxcxlb-stroke" transform="matrix(1,0,0,1,83,134)">
                <g id="ic_1_1lrs46c1pxcxlb-stroke">
                    <g>
                        <path d="M13.756,39.15L13.756,27.15M12.256,39.15L19.756,39.15M10.756,45.15L45.256,45.15M10.756,42.15L45.256,42.15M12.256,27.15L19.756,27.15M24.256,39.15L31.756,39.15M24.256,27.15L31.756,27.15M18.256,39.15L18.256,27.15M25.756,39.15L25.756,27.15M30.256,39.15L30.256,27.15M36.256,39.15L43.756,39.15M36.256,27.15L43.756,27.15M37.756,39.15L37.756,27.15M42.256,39.15L42.256,27.15M12.475,22.807C12.222,23.004 12.121,23.34 12.225,23.643C12.329,23.946 12.615,24.15 12.935,24.15L43.085,24.15C43.406,24.15 43.691,23.947 43.796,23.645C43.901,23.342 43.801,23.006 43.549,22.808L28.515,11.011C28.243,10.799 27.862,10.799 27.59,11.011L12.475,22.807Z" style="fill:none;stroke:rgb(44,44,44);stroke-width:2px;"/>
                    </g>
                </g>
            </g>
            <g id="g-root-ic_ladd_mdlesk1pxldz7-stroke" transform="matrix(1,0,0,1,401,170)">
                <g id="ic_ladd_mdlesk1pxldz7-stroke">
                    <g>
                        <path d="M15.274,42.968C14.862,44.164 13.567,44.809 12.364,44.418C11.162,44.027 10.494,42.744 10.864,41.535L21.25,12.354C21.495,11.552 22.154,10.945 22.973,10.766C23.792,10.587 24.643,10.864 25.2,11.491C25.757,12.117 25.933,12.995 25.66,13.788L15.274,42.968ZM34.75,43.647C34.505,44.448 33.846,45.055 33.027,45.234C32.208,45.413 31.357,45.136 30.8,44.509C30.243,43.883 30.067,43.005 30.34,42.213L40.726,13.033C40.971,12.231 41.63,11.625 42.449,11.446C43.268,11.267 44.119,11.544 44.676,12.17C45.233,12.796 45.409,13.675 45.136,14.467L34.75,43.647ZM16.852,38.541L31.135,39.964M18.997,32.514L33.251,34.02M21.143,26.487L35.398,27.993M23.261,20.538L37.545,21.964M25.422,14.472L39.681,15.97" style="fill:none;stroke:rgb(44,44,44);stroke-width:2px;"/>
                    </g>
                </g>
            </g>
            <g id="g-root-ic_shie_1hgbxno1pxh5vq-stroke" transform="matrix(1,0,0,1,107,218)">
                <g id="ic_shie_1hgbxno1pxh5vq-stroke">
                    <g>
                        <path d="M28.912,44.205C28.329,44.434 27.678,44.434 27.087,44.205C17.727,40.592 11.55,31.593 11.535,21.553L11.535,14.157C11.535,12.761 12.673,11.623 14.069,11.623L41.93,11.623C43.327,11.623 44.464,12.761 44.464,14.157L44.464,21.553C44.457,31.586 38.273,40.585 28.912,44.198L28.912,44.205ZM21.855,27.73C25.367,24.219 30.927,24.219 34.146,27.73M18.47,23.019C23.628,17.861 32.15,17.861 37.532,23.019M26.089,32.868C26.089,33.922 26.944,34.777 27.998,34.777C29.053,34.777 29.908,33.922 29.908,32.868C29.908,31.813 29.053,30.958 27.998,30.958C26.944,30.958 26.089,31.813 26.089,32.868" style="fill:none;stroke:rgb(44,44,44);stroke-width:2px;"/>
                    </g>
                </g>
            </g>
            <g id="g-root-ic_1_qtewx01pxmqkt-stroke" transform="matrix(1,0,0,1,413,266)">
                <g id="ic_1_qtewx01pxmqkt-stroke">
                    <g>
                        <path d="M13.825,27.616L32.27,27.616C32.27,27.616 35.345,27.616 35.345,30.691L35.345,41.451C35.345,41.451 35.345,44.526 32.27,44.526L13.825,44.526C13.825,44.526 10.75,44.526 10.75,41.451L10.75,30.691C10.75,30.691 10.75,27.616 13.825,27.616M10.75,33.765L21.428,33.765M24.667,33.765L35.345,33.765M27.66,27.616L18.436,27.616L18.991,24.942C19.196,24.287 19.824,23.859 20.508,23.908L25.588,23.908C26.272,23.859 26.9,24.287 27.105,24.942L27.66,27.616ZM39.004,30.411C43.458,28.678 46.013,23.986 45.051,19.305C44.09,14.624 39.893,11.318 35.117,11.481C30.341,11.644 26.378,15.227 25.738,19.963M44.306,17.076L42.45,17.076C40.953,17.188 39.763,18.378 39.651,19.875L39.651,22.483C39.651,23.119 38.716,23.612 38.227,24.063L36.216,25.912M33.223,11.73C33.223,11.73 34.856,13.017 35.453,13.477C36.462,14.254 36.659,15.697 35.896,16.716L34.489,18.591C34.049,19.176 33.36,19.52 32.628,19.52L31.265,19.52C30.647,19.519 30.053,19.764 29.616,20.202L29.034,20.785M22.196,32.227L23.899,32.227C23.899,32.227 24.667,32.227 24.667,32.995L24.667,36.07C24.667,36.07 24.667,36.838 23.899,36.838L22.196,36.838C22.196,36.838 21.428,36.838 21.428,36.07L21.428,32.995C21.428,32.995 21.428,32.227 22.196,32.227" style="fill:none;stroke:rgb(44,44,44);stroke-width:2px;"/>
                    </g>
                </g>
            </g>
            <g id="g-root-ic_2_144vfac1pxjy88-stroke" transform="matrix(1,0,0,1,83,314)">
                <g id="ic_2_144vfac1pxjy88-stroke">
                    <g>
                        <path d="M24.25,28.002C24.25,30.073 25.929,31.752 28,31.752C30.071,31.752 31.75,30.073 31.75,28.002C31.75,25.93 30.071,24.252 28,24.252C25.929,24.252 24.25,25.93 24.25,28.002ZM16,28.002C16,34.629 21.373,40.001 28,40.001C34.627,40.001 40,34.629 40,28.002C40,21.374 34.627,16.001 28,16.001C21.373,16.001 16,21.374 16,28.002ZM28,16.001L28,10.752M36.486,19.516L40.198,15.804M40,28.002L45.25,28.002M36.486,36.487L40.198,40.2M28,40.001L28,45.251M19.515,36.487L15.802,40.2M16,28.002L10.75,28.002M19.515,19.516L15.802,15.804" style="fill:none;stroke:rgb(44,44,44);stroke-width:2px;"/>
                    </g>
                </g>
            </g>
            <g id="g-root-ic_2_6hw6c1pxo74f-stroke" transform="matrix(1,0,0,1,461,362)">
                <g id="ic_2_6hw6c1pxo74f-stroke">
                    <g>
                        <path d="M27.637,28.75L18.869,19.6C17.292,18.021 16.9,15.61 17.897,13.614C18.643,12.122 20.06,11.08 21.705,10.812C23.351,10.545 25.025,11.085 26.205,12.264L27.637,13.696L29.068,12.264C30.247,11.085 31.921,10.545 33.567,10.812C35.213,11.08 36.63,12.122 37.375,13.614C38.372,15.611 37.979,18.022 36.4,19.6L27.637,28.75ZM18.835,31.6L18.835,26.92C18.835,26.077 18.151,25.393 17.308,25.393C16.464,25.393 15.78,26.076 15.78,26.92L15.78,36.85L13.3,34.861C12.957,34.587 12.514,34.469 12.08,34.537C11.646,34.604 11.261,34.851 11.017,35.216C10.668,35.743 10.668,36.427 11.017,36.953L14.734,42.529C15.867,44.227 17.772,45.248 19.813,45.25L22.785,45.25C24.168,45.25 25.495,44.701 26.473,43.723C27.451,42.745 28,41.418 28,40.035L28,31.75M19.726,24.34C19.183,24.589 18.835,25.132 18.835,25.729L18.835,30.927M21.89,31.532L21.89,27.231M24.89,31.532L24.89,30.979M37.165,31.6L37.165,26.92C37.165,26.077 37.849,25.393 38.692,25.393C39.536,25.393 40.22,26.076 40.221,26.92L40.22,36.85L42.7,34.861C43.043,34.587 43.486,34.469 43.92,34.537C44.354,34.604 44.739,34.851 44.983,35.216L44.983,35.216C45.332,35.743 45.332,36.427 44.983,36.953L41.266,42.529C40.133,44.227 38.228,45.248 36.187,45.25L33.216,45.25C31.832,45.25 30.505,44.701 29.527,43.723C28.549,42.745 28,41.418 28,40.035L28,31.75M36.274,24.34C36.817,24.589 37.165,25.132 37.165,25.729L37.165,30.927M34.11,31.532L34.11,27.231M31.11,31.532L31.11,30.979" style="fill:none;stroke:rgb(44,44,44);stroke-width:2px;"/>
                    </g>
                </g>
            </g>
        </g>
    </g>
</svg>
