<?xml version="1.0" encoding="UTF-8" standalone="no"?>
<!DOCTYPE svg PUBLIC "-//W3C//DTD SVG 1.1//EN" "http://www.w3.org/Graphics/SVG/1.1/DTD/svg11.dtd">
<svg width="100%" height="100%" viewBox="0 0 576 755" version="1.1" xmlns="http://www.w3.org/2000/svg" xmlns:xlink="http://www.w3.org/1999/xlink" xml:space="preserve" xmlns:serif="http://www.serif.com/" style="fill-rule:evenodd;clip-rule:evenodd;stroke-linecap:round;stroke-linejoin:round;">
    <g id="items" transform="matrix(1.08389,0,0,1.08389,-24.16,-45.22)">
        <g id="blend">
            <g id="g-root-cp_9_text-9_18efx1w1pdysr3-fill" transform="matrix(1,0,0,1,50,62)">
                <g id="cp_9_text-9_18efx1w1pdysr3-fill">
                    <g>
                        <rect x="10" y="10" width="228" height="108" style="fill:rgb(135,105,253);"/>
                    </g>
                </g>
            </g>
            <g id="g-root-cp_9_stick-9_8wid5g1pdyubl-fill" transform="matrix(1,0,0,1,272,170)">
                <g id="cp_9_stick-9_8wid5g1pdyubl-fill">
                    <g>
                        <rect x="10" y="10" width="5.997" height="468" style="fill:rgb(135,105,253);"/>
                    </g>
                </g>
            </g>
            <g id="g-root-cp_7_text-7_1umsduc1pdysjn-fill" transform="matrix(1,0,0,1,44,170)">
                <g id="cp_7_text-7_1umsduc1pdysjn-fill">
                    <g>
                        <rect x="10" y="10" width="228" height="108" style="fill:rgb(243,102,187);"/>
                    </g>
                </g>
            </g>
            <g id="g-root-cp_7_stick-7_1hbbvh01pdyu4l-fill" transform="matrix(1,0,0,1,266,278)">
                <g id="cp_7_stick-7_1hbbvh01pdyu4l-fill">
                    <g>
                        <rect x="10" y="10" width="5.997" height="360" style="fill:rgb(243,102,187);"/>
                    </g>
                </g>
            </g>
            <g id="g-root-cp_5_text-5_v4utxw1pdytcf-fill" transform="matrix(1,0,0,1,38,278)">
                <g id="cp_5_text-5_v4utxw1pdytcf-fill">
                    <g>
                        <rect x="10" y="10" width="228" height="108" style="fill:rgb(247,148,56);"/>
                    </g>
                </g>
            </g>
            <g id="g-root-cp_5_stick-5_de7aj81pdysjt-fill" transform="matrix(1,0,0,1,260,386)">
                <g id="cp_5_stick-5_de7aj81pdysjt-fill">
                    <g>
                        <rect x="10" y="10" width="5.997" height="252" style="fill:rgb(247,148,56);"/>
                    </g>
                </g>
            </g>
            <g id="g-root-cp_3_text-3_1uont3o1pdyrk3-fill" transform="matrix(1,0,0,1,32,386)">
                <g id="cp_3_text-3_1uont3o1pdyrk3-fill">
                    <g>
                        <rect x="10" y="10" width="228" height="108" style="fill:rgb(26,195,251);"/>
                    </g>
                </g>
            </g>
            <g id="g-root-cp_3_stick-3_1hd7aqc1pdyt51-fill" transform="matrix(1,0,0,1,254,494)">
                <g id="cp_3_stick-3_1hd7aqc1pdyt51-fill">
                    <g>
                        <rect x="10" y="10" width="5.997" height="144" style="fill:rgb(26,195,251);"/>
                    </g>
                </g>
            </g>
            <g id="g-root-cp_1_text-1_142d9g41pdyrk7-fill" transform="matrix(1,0,0,1,26,494)">
                <g id="cp_1_text-1_142d9g41pdyrk7-fill">
                    <g>
                        <rect x="10" y="10" width="228" height="108" style="fill:rgb(67,221,147);"/>
                    </g>
                </g>
            </g>
            <g id="g-root-cp_1_stick-1_qqwr2s1pdyt55-fill" transform="matrix(1,0,0,1,247.997,578)">
                <g id="cp_1_stick-1_qqwr2s1pdyt55-fill">
                    <g>
                        <rect x="10.003" y="10" width="5.997" height="60" style="fill:rgb(67,221,147);"/>
                    </g>
                </g>
            </g>
            <g id="g-root-cp_10_text-10_dg2psk1pdyrkb-fill" transform="matrix(1,0,0,1,278,74)">
                <g id="cp_10_text-10_dg2psk1pdyrkb-fill">
                    <g>
                        <rect x="10" y="10" width="228" height="132" style="fill:rgb(183,183,183);"/>
                    </g>
                </g>
            </g>
            <g id="g-root-cp_10_stick-10_1upwr9w1pdytqd-fill" transform="matrix(1,0,0,1,278.003,206)">
                <g id="cp_10_stick-10_1upwr9w1pdytqd-fill">
                    <g>
                        <rect x="10" y="10" width="5.997" height="432" style="fill:rgb(183,183,183);"/>
                    </g>
                </g>
            </g>
            <g id="g-root-cp_8_text-8_1hf2pzo1pdys5j-fill" transform="matrix(1,0,0,1,284,206)">
                <g id="cp_8_text-8_1hf2pzo1pdys5j-fill">
                    <g>
                        <rect x="10" y="10" width="228" height="108" style="fill:rgb(203,104,249);"/>
                    </g>
                </g>
            </g>
            <g id="g-root-cp_8_stick-8_143m7mc1pdytqh-fill" transform="matrix(1,0,0,1,284.003,314)">
                <g id="cp_8_stick-8_143m7mc1pdytqh-fill">
                    <g>
                        <rect x="10" y="10" width="5.997" height="324" style="fill:rgb(203,104,249);"/>
                    </g>
                </g>
            </g>
            <g id="g-root-cp_6_text-6_zof6l01pdyrcz-fill" transform="matrix(1,0,0,1,290,314)">
                <g id="cp_6_text-6_zof6l01pdyrcz-fill">
                    <g>
                        <rect x="10" y="10" width="228" height="108" style="fill:rgb(251,103,98);"/>
                    </g>
                </g>
            </g>
            <g id="g-root-cp_6_stick-6_dhbnys1pdytql-fill" transform="matrix(1,0,0,1,290.003,422)">
                <g id="cp_6_stick-6_dhbnys1pdytql-fill">
                    <g>
                        <rect x="10" y="10" width="5.997" height="216" style="fill:rgb(251,103,98);"/>
                    </g>
                </g>
            </g>
            <g id="g-root-cp_4_text-4_6hmok1pdys5r-fill" transform="matrix(1,0,0,1,296,422)">
                <g id="cp_4_text-4_6hmok1pdys5r-fill">
                    <g>
                        <rect x="10" y="10" width="228" height="84" style="fill:rgb(255,231,17);"/>
                    </g>
                </g>
            </g>
            <g id="g-root-cp_4_stick-4_1qbyoes1pdytj5-fill" transform="matrix(1,0,0,1,296.003,506)">
                <g id="cp_4_stick-4_1qbyoes1pdytj5-fill">
                    <g>
                        <rect x="10" y="10" width="5.997" height="132" style="fill:rgb(255,231,17);"/>
                    </g>
                </g>
            </g>
            <g id="g-root-cp_2_text-2_1hgbo5w1pdyubv-fill" transform="matrix(1,0,0,1,302,506)">
                <g id="cp_2_text-2_1hgbo5w1pdyubv-fill">
                    <g>
                        <rect x="10" y="10" width="228" height="84" style="fill:rgb(166,218,55);"/>
                    </g>
                </g>
            </g>
            <g id="g-root-cp_2_stick-2_145hmvo1pdysr1-fill" transform="matrix(1,0,0,1,302.003,589)">
                <g id="cp_2_stick-2_145hmvo1pdysr1-fill">
                    <g>
                        <rect x="10" y="10" width="5.997" height="49" style="fill:rgb(166,218,55);"/>
                    </g>
                </g>
            </g>
            <g id="g-root-cp_0_g-0_meu3h01pdyryf-fill" transform="matrix(1,0,0,1,248,638)">
                <g id="cp_0_g-0_meu3h01pdyryf-fill">
                    <g>
                        <path d="M30,58L40.001,82.001L50.001,58L30,58Z" style="fill:rgb(232,232,232);"/>
                    </g>
                </g>
                <g id="cp_0_g-0_meu3h01pdyryf-fill1" serif:id="cp_0_g-0_meu3h01pdyryf-fill">
                    <g>
                        <path d="M70.001,10L10,10L30,57.999L50.001,57.999L70.001,10Z" style="fill:rgb(232,232,232);"/>
                    </g>
                </g>
            </g>
            <g id="g-root-tx__detus41pdkqo6-fill">
            </g>
            <g id="g-root-tx_voicemai_7qo0k1pdf4sh-fill" transform="matrix(1,0,0,1,86,290)">
                <g id="tx_voicemai_7qo0k1pdf4sh-fill">
                    <g>
                        <g>
                            <g transform="matrix(1,0,0,1,16.22,34)">
                                <text x="0px" y="0px" style="font-family:'Arial-BoldMT', 'Arial', sans-serif;font-weight:700;font-size:20px;fill:rgb(44,44,44);">V<tspan x="11.855px 24.072px " y="0px 0px ">oi</tspan>cemail to</text>
                            </g>
                            <g transform="matrix(1,0,0,1,78.13,58)">
                                <text x="0px" y="0px" style="font-family:'Arial-BoldMT', 'Arial', sans-serif;font-weight:700;font-size:20px;fill:rgb(44,44,44);">Email</text>
                            </g>
                        </g>
                    </g>
                </g>
            </g>
            <g id="g-root-tx_callreco_i0w3ro1pdkrgo-fill" transform="matrix(1,0,0,1,350,326)">
                <g id="tx_callreco_i0w3ro1pdkrgo-fill">
                    <g>
                        <g>
                            <g transform="matrix(1,0,0,1,12,34)">
                                <text x="0px" y="0px" style="font-family:'Arial-BoldMT', 'Arial', sans-serif;font-weight:700;font-size:20px;fill:rgb(44,44,44);">Call Recording &amp;</text>
                            </g>
                            <g transform="matrix(1,0,0,1,12,58)">
                                <text x="0px" y="0px" style="font-family:'Arial-BoldMT', 'Arial', sans-serif;font-weight:700;font-size:20px;fill:rgb(44,44,44);">Monitoring</text>
                            </g>
                        </g>
                    </g>
                </g>
            </g>
            <g id="g-root-tx__vb3nys1pdf66a-fill">
            </g>
            <g id="g-root-tx_securere_147d2501pdyrrf-fill" transform="matrix(1,0,0,1,74,74)">
                <g id="tx_securere_147d2501pdyrrf-fill">
                    <g>
                        <g>
                            <g transform="matrix(1,0,0,1,14.58,34)">
                                <text x="0px" y="0px" style="font-family:'Arial-BoldMT', 'Arial', sans-serif;font-weight:700;font-size:20px;fill:rgb(44,44,44);">Secure Remote</text>
                            </g>
                            <g transform="matrix(1,0,0,1,86.4,58)">
                                <text x="0px" y="0px" style="font-family:'Arial-BoldMT', 'Arial', sans-serif;font-weight:700;font-size:20px;fill:rgb(44,44,44);">Access</text>
                            </g>
                        </g>
                    </g>
                </g>
            </g>
            <g id="g-root-tx_multiten_1lxe7mc1pdgjk4-fill" transform="matrix(1,0,0,1,80,398)">
                <g id="tx_multiten_1lxe7mc1pdgjk4-fill">
                    <g>
                        <g>
                            <g transform="matrix(1,0,0,1,11.83,34)">
                                <text x="0px" y="0px" style="font-family:'Arial-BoldMT', 'Arial', sans-serif;font-weight:700;font-size:20px;fill:rgb(44,44,44);">Multi-T<tspan x="64.043px 75.166px " y="0px 0px ">en</tspan>ant</text>
                            </g>
                            <g transform="matrix(1,0,0,1,16.63,58)">
                                <text x="0px" y="0px" style="font-family:'Arial-BoldMT', 'Arial', sans-serif;font-weight:700;font-size:20px;fill:rgb(44,44,44);">Architecture</text>
                            </g>
                        </g>
                    </g>
                </g>
            </g>
            <g id="g-root-tx__me7pjo1pddrf3-fill">
            </g>
            <g id="g-root-tx__1cuvzf81pdm495-fill">
            </g>
            <g id="g-root-tx_integrat_1hbyfpw1pdks91-fill" transform="matrix(1,0,0,1,344,218)">
                <g id="tx_integrat_1hbyfpw1pdks91-fill">
                    <g>
                        <g>
                            <g transform="matrix(1,0,0,1,12,34)">
                                <text x="0px" y="0px" style="font-family:'Arial-BoldMT', 'Arial', sans-serif;font-weight:700;font-size:20px;fill:rgb(44,44,44);">Integration with</text>
                            </g>
                            <g transform="matrix(1,0,0,1,12,58)">
                                <text x="0px" y="0px" style="font-family:'Arial-BoldMT', 'Arial', sans-serif;font-weight:700;font-size:20px;fill:rgb(44,44,44);">CRMs</text>
                            </g>
                        </g>
                    </g>
                </g>
            </g>
            <g transform="matrix(1,0,0,1,368,468)">
                <g id="g-root-tx_autoatte_1hgy8es1pdm51n-fill">
                    <g id="tx_autoatte_1hgy8es1pdm51n-fill">
                        <g>
                            <g>
                                <text x="0px" y="0px" style="font-family:'Arial-BoldMT', 'Arial', sans-serif;font-weight:700;font-size:20px;fill:rgb(44,44,44);">Auto <tspan x="50.352px 64.795px " y="0px 0px ">At</tspan>tendant</text>
                            </g>
                        </g>
                    </g>
                </g>
            </g>
            <g id="g-root-tx__mfgnpw1pdgkct-fill">
            </g>
            <g id="g-root-tx__9405ck1pdm490-fill">
            </g>
            <g id="g-root-tx__1q9gv841pdjcaz-fill">
            </g>
            <g id="g-root-tx_customca_90vrx01pdhyx3-fill" transform="matrix(1,0,0,1,74,506)">
                <g id="tx_customca_90vrx01pdhyx3-fill">
                    <g>
                        <g>
                            <g transform="matrix(1,0,0,1,19,34)">
                                <text x="0px" y="0px" style="font-family:'Arial-BoldMT', 'Arial', sans-serif;font-weight:700;font-size:20px;fill:rgb(44,44,44);">Custom Call</text>
                            </g>
                            <g transform="matrix(1,0,0,1,57.98,58)">
                                <text x="0px" y="0px" style="font-family:'Arial-BoldMT', 'Arial', sans-serif;font-weight:700;font-size:20px;fill:rgb(44,44,44);">Routing</text>
                            </g>
                        </g>
                    </g>
                </g>
            </g>
            <g id="g-root-tx_advanced_6hpuc1pddp8m-fill" transform="matrix(1,0,0,1,80,182)">
                <g id="tx_advanced_6hpuc1pddp8m-fill">
                    <g>
                        <g>
                            <g transform="matrix(1,0,0,1,11.57,34)">
                                <text x="0px" y="0px" style="font-family:'Arial-BoldMT', 'Arial', sans-serif;font-weight:700;font-size:20px;fill:rgb(44,44,44);">Advanced Call</text>
                            </g>
                            <g transform="matrix(1,0,0,1,56.85,58)">
                                <text x="0px" y="0px" style="font-family:'Arial-BoldMT', 'Arial', sans-serif;font-weight:700;font-size:20px;fill:rgb(44,44,44);">Analytics</text>
                            </g>
                        </g>
                    </g>
                </g>
            </g>
            <g transform="matrix(1,0,0,1,374,552)">
                <g id="g-root-tx_hdvoiceq_dg2syc1pdnjly-fill">
                    <g id="tx_hdvoiceq_dg2syc1pdnjly-fill">
                        <g>
                            <g>
                                <text x="0px" y="0px" style="font-family:'Arial-BoldMT', 'Arial', sans-serif;font-weight:700;font-size:20px;fill:rgb(44,44,44);">HD V<tspan x="46.299px 58.516px " y="0px 0px ">oi</tspan>ce Quality</text>
                            </g>
                        </g>
                    </g>
                </g>
            </g>
            <g id="g-root-tx__144v8yc1pdhx54-fill">
            </g>
            <g id="g-root-tx__znssno1pdnlsf-fill">
            </g>
            <g id="g-root-tx__9m0441pdytcc-fill">
            </g>
            <g id="g-root-tx_quickins_qqad5g1pdjbpe-fill" transform="matrix(1,0,0,1,338,86)">
                <g id="tx_quickins_qqad5g1pdjbpe-fill">
                    <g>
                        <g>
                            <g transform="matrix(1,0,0,1,12,34)">
                                <text x="0px" y="0px" style="font-family:'Arial-BoldMT', 'Arial', sans-serif;font-weight:700;font-size:20px;fill:rgb(44,44,44);">Quick</text>
                            </g>
                            <g transform="matrix(1,0,0,1,12,58)">
                                <text x="0px" y="0px" style="font-family:'Arial-BoldMT', 'Arial', sans-serif;font-weight:700;font-size:20px;fill:rgb(44,44,44);">Installation &amp;</text>
                            </g>
                            <g transform="matrix(1,0,0,1,12,82)">
                                <text x="0px" y="0px" style="font-family:'Arial-BoldMT', 'Arial', sans-serif;font-weight:700;font-size:20px;fill:rgb(44,44,44);">Setup</text>
                            </g>
                        </g>
                    </g>
                </g>
            </g>
            <g id="g-root-cp_9_text-9_18efx1w1pdysr3-stroke" transform="matrix(1,0,0,1,50,62)">
                <g id="cp_9_text-9_18efx1w1pdysr3-stroke">
                    <g>
                        <path d="M10,118L10,10L238,10L238,118" style="fill:none;stroke:rgb(44,44,44);stroke-width:2px;"/>
                    </g>
                </g>
            </g>
            <g id="g-root-cp_9_stick-9_8wid5g1pdyubl-stroke" transform="matrix(1,0,0,1,272,170)">
                <g id="cp_9_stick-9_8wid5g1pdyubl-stroke">
                    <g>
                        <path d="M15.997,478L15.997,10" style="fill:none;stroke:rgb(44,44,44);stroke-width:2px;"/>
                    </g>
                </g>
            </g>
            <g id="g-root-cp_7_text-7_1umsduc1pdysjn-stroke" transform="matrix(1,0,0,1,44,170)">
                <g id="cp_7_text-7_1umsduc1pdysjn-stroke">
                    <g>
                        <path d="M10,118L10,10L238,10L238,118" style="fill:none;stroke:rgb(44,44,44);stroke-width:2px;"/>
                    </g>
                </g>
            </g>
            <g id="g-root-cp_7_stick-7_1hbbvh01pdyu4l-stroke" transform="matrix(1,0,0,1,266,278)">
                <g id="cp_7_stick-7_1hbbvh01pdyu4l-stroke">
                    <g>
                        <path d="M15.997,370L15.997,10" style="fill:none;stroke:rgb(44,44,44);stroke-width:2px;"/>
                    </g>
                </g>
            </g>
            <g id="g-root-cp_5_text-5_v4utxw1pdytcf-stroke" transform="matrix(1,0,0,1,38,278)">
                <g id="cp_5_text-5_v4utxw1pdytcf-stroke">
                    <g>
                        <path d="M10,118L10,10L238,10L238,118" style="fill:none;stroke:rgb(44,44,44);stroke-width:2px;"/>
                    </g>
                </g>
            </g>
            <g id="g-root-cp_5_stick-5_de7aj81pdysjt-stroke" transform="matrix(1,0,0,1,260,386)">
                <g id="cp_5_stick-5_de7aj81pdysjt-stroke">
                    <g>
                        <path d="M15.997,262L15.997,10" style="fill:none;stroke:rgb(44,44,44);stroke-width:2px;"/>
                    </g>
                </g>
            </g>
            <g id="g-root-cp_3_text-3_1uont3o1pdyrk3-stroke" transform="matrix(1,0,0,1,32,386)">
                <g id="cp_3_text-3_1uont3o1pdyrk3-stroke">
                    <g>
                        <path d="M10,118L10,10L238,10L238,118" style="fill:none;stroke:rgb(44,44,44);stroke-width:2px;"/>
                    </g>
                </g>
            </g>
            <g id="g-root-cp_3_stick-3_1hd7aqc1pdyt51-stroke" transform="matrix(1,0,0,1,254,494)">
                <g id="cp_3_stick-3_1hd7aqc1pdyt51-stroke">
                    <g>
                        <path d="M15.997,154L15.997,10" style="fill:none;stroke:rgb(44,44,44);stroke-width:2px;"/>
                    </g>
                </g>
            </g>
            <g id="g-root-cp_1_text-1_142d9g41pdyrk7-stroke" transform="matrix(1,0,0,1,26,494)">
                <g id="cp_1_text-1_142d9g41pdyrk7-stroke">
                    <g>
                        <path d="M238,118L238,10L10,10L10,118L232.5,118" style="fill:none;stroke:rgb(44,44,44);stroke-width:2px;"/>
                    </g>
                </g>
            </g>
            <g id="g-root-cp_1_stick-1_qqwr2s1pdyt55-stroke" transform="matrix(1,0,0,1,247.997,578)">
                <g id="cp_1_stick-1_qqwr2s1pdyt55-stroke">
                    <g>
                        <path d="M16,70L16,10M10,70L10,33" style="fill:none;stroke:rgb(44,44,44);stroke-width:2px;"/>
                    </g>
                </g>
            </g>
            <g id="g-root-cp_10_text-10_dg2psk1pdyrkb-stroke" transform="matrix(1,0,0,1,278,74)">
                <g id="cp_10_text-10_dg2psk1pdyrkb-stroke">
                    <g>
                        <path d="M238,142L238,10L10,10L10,142" style="fill:none;stroke:rgb(44,44,44);stroke-width:2px;"/>
                    </g>
                </g>
            </g>
            <g id="g-root-cp_10_stick-10_1upwr9w1pdytqd-stroke" transform="matrix(1,0,0,1,278.003,206)">
                <g id="cp_10_stick-10_1upwr9w1pdytqd-stroke">
                    <g>
                        <path d="M10.001,442L10.001,10" style="fill:none;stroke:rgb(44,44,44);stroke-width:2px;"/>
                    </g>
                </g>
            </g>
            <g id="g-root-cp_8_text-8_1hf2pzo1pdys5j-stroke" transform="matrix(1,0,0,1,284,206)">
                <g id="cp_8_text-8_1hf2pzo1pdys5j-stroke">
                    <g>
                        <path d="M238,118L238,10L10,10L10,118" style="fill:none;stroke:rgb(44,44,44);stroke-width:2px;"/>
                    </g>
                </g>
            </g>
            <g id="g-root-cp_8_stick-8_143m7mc1pdytqh-stroke" transform="matrix(1,0,0,1,284.003,314)">
                <g id="cp_8_stick-8_143m7mc1pdytqh-stroke">
                    <g>
                        <path d="M10.001,334L10.001,10" style="fill:none;stroke:rgb(44,44,44);stroke-width:2px;"/>
                    </g>
                </g>
            </g>
            <g id="g-root-cp_6_text-6_zof6l01pdyrcz-stroke" transform="matrix(1,0,0,1,290,314)">
                <g id="cp_6_text-6_zof6l01pdyrcz-stroke">
                    <g>
                        <path d="M238,118L238,10L10,10L10,118" style="fill:none;stroke:rgb(44,44,44);stroke-width:2px;"/>
                    </g>
                </g>
            </g>
            <g id="g-root-cp_6_stick-6_dhbnys1pdytql-stroke" transform="matrix(1,0,0,1,290.003,422)">
                <g id="cp_6_stick-6_dhbnys1pdytql-stroke">
                    <g>
                        <path d="M10.001,226L10.001,10" style="fill:none;stroke:rgb(44,44,44);stroke-width:2px;"/>
                    </g>
                </g>
            </g>
            <g id="g-root-cp_4_text-4_6hmok1pdys5r-stroke" transform="matrix(1,0,0,1,296,422)">
                <g id="cp_4_text-4_6hmok1pdys5r-stroke">
                    <g>
                        <path d="M238,94L238,10L10,10L10,94" style="fill:none;stroke:rgb(44,44,44);stroke-width:2px;"/>
                    </g>
                </g>
            </g>
            <g id="g-root-cp_4_stick-4_1qbyoes1pdytj5-stroke" transform="matrix(1,0,0,1,296.003,506)">
                <g id="cp_4_stick-4_1qbyoes1pdytj5-stroke">
                    <g>
                        <path d="M10.001,142L10.001,10" style="fill:none;stroke:rgb(44,44,44);stroke-width:2px;"/>
                    </g>
                </g>
            </g>
            <g id="g-root-cp_2_text-2_1hgbo5w1pdyubv-stroke" transform="matrix(1,0,0,1,302,506)">
                <g id="cp_2_text-2_1hgbo5w1pdyubv-stroke">
                    <g>
                        <path d="M10,94L10,10L238,10L238,94L15.5,94" style="fill:none;stroke:rgb(44,44,44);stroke-width:2px;"/>
                    </g>
                </g>
            </g>
            <g id="g-root-cp_2_stick-2_145hmvo1pdysr1-stroke" transform="matrix(1,0,0,1,302.003,589)">
                <g id="cp_2_stick-2_145hmvo1pdysr1-stroke">
                    <g>
                        <path d="M10.001,59L10.001,10M15.997,59L15.997,10" style="fill:none;stroke:rgb(44,44,44);stroke-width:2px;"/>
                    </g>
                </g>
            </g>
            <g id="g-root-cp_0_g-0_meu3h01pdyryf-stroke" transform="matrix(1,0,0,1,248,638)">
                <g id="cp_0_g-0_meu3h01pdyryf-stroke">
                    <g>
                        <path d="M30,58L40.001,82.001L50.001,58L30,58Z" style="fill:none;stroke:rgb(44,44,44);stroke-width:2px;"/>
                    </g>
                </g>
                <g id="cp_0_g-0_meu3h01pdyryf-stroke1" serif:id="cp_0_g-0_meu3h01pdyryf-stroke">
                    <g>
                        <path d="M70.001,10L10,10L30,57.999L50.001,57.999L70.001,10Z" style="fill:none;stroke:rgb(44,44,44);stroke-width:2px;"/>
                    </g>
                </g>
            </g>
            <g id="g-root-ic_mail_1uuwn4k1pdf3m3-stroke" transform="matrix(1,0,0,1,218,290)">
                <g id="ic_mail_1uuwn4k1pdf3m3-stroke">
                    <g>
                        <path d="M30.618,44.902C26.017,40.291 27.651,36.696 30.147,34.2L31.759,32.587C33.364,30.982 35.965,30.982 37.57,32.587L44.547,39.563C45.116,40.132 45.362,40.948 45.202,41.737C45.043,42.526 44.498,43.182 43.753,43.485C34.824,47.123 24.583,45.055 17.765,38.237C10.947,31.42 8.878,21.18 12.516,12.25C12.818,11.504 13.474,10.959 14.262,10.799C15.051,10.639 15.867,10.885 16.437,11.454L23.413,18.43C25.018,20.035 25.018,22.636 23.413,24.241L21.801,25.854C19.3,28.349 15.709,29.983 11.098,25.383" style="fill:none;stroke:rgb(44,44,44);stroke-width:2px;"/>
                    </g>
                </g>
            </g>
            <g id="g-root-ic_stat_m8lfro1pdm496-stroke" transform="matrix(1,0,0,1,302,326)">
                <g id="ic_stat_m8lfro1pdm496-stroke">
                    <g>
                        <path d="M14.5,22.75L41.5,22.75C41.5,22.75 44.5,22.75 44.5,25.75L44.5,42.25C44.5,42.25 44.5,45.25 41.5,45.25L14.5,45.25C14.5,45.25 11.5,45.25 11.5,42.25L11.5,25.75C11.5,25.75 11.5,22.75 14.5,22.75M38.5,22.75L38.5,15.25M38.5,10.75L38.5,12.25M41.5,15.25L43,15.25M34,15.25L35.5,15.25M26.5,27.25L26.5,31.75M30.25,27.25L18.25,27.25C17.007,27.25 16,28.257 16,29.5C16,30.743 17.007,31.75 18.25,31.75L30.25,31.75C31.493,31.75 32.5,30.743 32.5,29.5C32.5,28.257 31.493,27.25 30.25,27.25ZM37,29.5C37,30.743 38.007,31.75 39.25,31.75C40.493,31.75 41.5,30.743 41.5,29.5C41.5,28.257 40.493,27.25 39.25,27.25C38.007,27.25 37,28.257 37,29.5M16,36.25L16,40.75M22,36.25L22,40.75M28,36.25L28,40.75M34,36.25L34,40.75M40,36.25L40,40.75" style="fill:none;stroke:rgb(44,44,44);stroke-width:2px;"/>
                    </g>
                </g>
            </g>
            <g id="g-root-ic_buil_1hjg4r81pdgiku-stroke" transform="matrix(1,0,0,1,212,398)">
                <g id="ic_buil_1hjg4r81pdgiku-stroke">
                    <g>
                        <path d="M16.675,15.625L16.675,17.125M21.925,15.625L21.925,17.125M27.175,15.625L27.175,17.125M16.675,22L16.675,23.5M21.925,22L21.925,23.5M27.175,22L27.175,23.5M11.125,44.875L11.125,12.625C11.125,11.725 11.725,11.125 12.625,11.125L31.375,11.125C32.275,11.125 32.875,11.725 32.875,12.625L32.875,23.5M34.375,44.875L34.375,39.175C34.375,37.975 33.325,36.925 32.125,36.925C30.925,36.925 29.875,37.975 29.875,39.175L29.875,44.875M44.725,44.875L11.125,44.875M20.875,44.875L20.875,32.5L43.375,32.5L43.375,44.875M44.875,28L19.375,28L19.375,32.5L44.875,32.5L44.875,28ZM25.375,37.675L25.375,38.425M38.875,37.675L38.875,38.425" style="fill:none;stroke:rgb(44,44,44);stroke-width:2px;"/>
                    </g>
                </g>
            </g>
            <g id="g-root-ic_onli_1cy0cus1pdkr9r-stroke" transform="matrix(1,0,0,1,296,218)">
                <g id="ic_onli_1cy0cus1pdkr9r-stroke">
                    <g>
                        <path d="M33.567,34.944C33.566,36.209 34.592,37.234 35.857,37.234C37.122,37.234 38.147,36.209 38.147,34.944C38.147,33.678 37.122,32.653 35.857,32.653C34.592,32.653 33.566,33.678 33.566,34.944M37.802,26.083L38.478,28.3C38.707,29.065 39.49,29.52 40.268,29.341L42.519,28.819C43.394,28.62 44.296,29.014 44.744,29.792C45.192,30.57 45.08,31.549 44.468,32.206L42.895,33.903C42.352,34.49 42.352,35.396 42.895,35.983L44.468,37.679C45.08,38.336 45.192,39.315 44.744,40.093C44.296,40.871 43.394,41.266 42.519,41.067L40.269,40.546C39.491,40.367 38.708,40.821 38.478,41.585L37.802,43.804C37.543,44.662 36.753,45.248 35.857,45.248C34.961,45.248 34.171,44.662 33.911,43.804L33.235,41.585C33.005,40.821 32.222,40.367 31.444,40.546L29.194,41.067C28.318,41.268 27.413,40.874 26.965,40.095C26.517,39.316 26.63,38.336 27.244,37.679L28.818,35.983C29.361,35.396 29.361,34.49 28.818,33.903L27.25,32.2C26.636,31.544 26.523,30.563 26.971,29.785C27.419,29.006 28.324,28.611 29.2,28.813L31.45,29.335C32.224,29.511 33.003,29.059 33.235,28.3L33.911,26.083C34.169,25.224 34.96,24.635 35.857,24.635C36.754,24.635 37.545,25.224 37.802,26.083ZM22.275,45.108L23.419,38.236M18.838,45.108L29.527,45.108M23.451,38.236L15.4,38.236C12.871,38.234 10.822,36.184 10.822,33.655L10.822,15.331C10.822,12.802 12.871,10.752 15.4,10.75L40.6,10.75C43.13,10.75 45.181,12.801 45.181,15.331L45.181,24.11M22.846,17.105L19.591,21.445C19.392,21.71 19.087,21.876 18.757,21.899C18.426,21.923 18.101,21.802 17.866,21.568L16.099,19.801M22.846,25.885L19.591,30.224C19.392,30.49 19.088,30.657 18.757,30.68C18.425,30.704 18.1,30.583 17.866,30.348L16.099,28.582M29.527,18.766L37.925,18.766" style="fill:none;stroke:rgb(44,44,44);stroke-width:2px;"/>
                    </g>
                </g>
            </g>
            <g id="g-root-ic_5_18n6nf81pdm4ul-stroke" transform="matrix(1,0,0,1,308,434)">
                <g id="ic_5_18n6nf81pdm4ul-stroke">
                    <g>
                        <path d="M19,29.286L21.571,29.286C21.571,29.286 24.143,29.286 24.143,31.857L24.143,42.143C24.143,42.143 24.143,44.714 21.571,44.714L19,44.714C19,44.714 16.429,44.714 16.429,42.143L16.429,31.857C16.429,31.857 16.429,29.286 19,29.286M34.429,29.286L37,29.286C37,29.286 39.571,29.286 39.571,31.857L39.571,42.143C39.571,42.143 39.571,44.714 37,44.714L34.429,44.714C34.429,44.714 31.857,44.714 31.857,42.143L31.857,31.857C31.857,31.857 31.857,29.286 34.429,29.286M11.286,34.429L11.286,28C11.286,18.769 18.769,11.286 28,11.286C37.231,11.286 44.714,18.769 44.714,28L44.714,34.429" style="fill:none;stroke:rgb(44,44,44);stroke-width:2px;"/>
                    </g>
                </g>
            </g>
            <g id="g-root-ic_merg_92r76c1pdhxxd-stroke" transform="matrix(1,0,0,1,206,506)">
                <g id="ic_merg_92r76c1pdhxxd-stroke">
                    <g>
                        <path d="M28,31.285C28,38.998 21.748,45.25 14.035,45.25M41.965,45.25C34.252,45.25 28,38.998 28,31.285M28,31.285L28,10.75M18.143,20.607L28,10.75L37.856,20.607" style="fill:none;stroke:rgb(44,44,44);stroke-width:2px;"/>
                    </g>
                </g>
            </g>
            <g id="g-root-ic_comp_v3lyxg1pddp1p-stroke" transform="matrix(1,0,0,1,230,74)">
                <g id="ic_comp_v3lyxg1pddp1p-stroke">
                    <g>
                        <path d="M37,37C37,37.71 36.424,38.286 35.714,38.286L12.571,38.286C11.861,38.286 11.286,37.71 11.286,37L11.286,20.286C11.286,19.576 11.861,19 12.571,19L22.857,19M24.143,38.286L24.143,44.714M19,44.714L29.286,44.714M30.571,20.286L43.429,20.286C43.429,20.286 44.714,20.286 44.714,21.571L44.714,29.286C44.714,29.286 44.714,30.571 43.429,30.571L30.571,30.571C30.571,30.571 29.286,30.571 29.286,29.286L29.286,21.571C29.286,21.571 29.286,20.286 30.571,20.286M32.371,14.166C33.418,12.005 35.821,10.855 38.16,11.397C40.5,11.939 42.153,14.027 42.143,16.429L42.143,20.286M16.429,28.643C16.429,28.998 16.716,29.286 17.071,29.286C17.426,29.286 17.714,28.998 17.714,28.643C17.714,28.288 17.426,28 17.071,28C16.716,28 16.429,28.288 16.429,28.643M22.857,28.643C22.857,28.998 23.145,29.286 23.5,29.286C23.855,29.286 24.143,28.998 24.143,28.643C24.143,28.288 23.855,28 23.5,28C23.145,28 22.857,28.288 22.857,28.643" style="fill:none;stroke:rgb(44,44,44);stroke-width:2px;"/>
                    </g>
                </g>
            </g>
            <g id="g-root-ic_hori_1qdu6tw1pddoug-stroke" transform="matrix(1,0,0,1,224,182)">
                <g id="ic_hori_1qdu6tw1pddoug-stroke">
                    <g>
                        <path d="M10.75,10.75L10.75,44.5C10.75,44.914 11.086,45.25 11.5,45.25L45.25,45.25M10.75,34.75L37.75,34.75C38.578,34.75 39.25,35.422 39.25,36.25L39.25,39.25C39.25,40.078 38.578,40.75 37.75,40.75L10.75,40.75M10.75,24.25L28.75,24.25C29.578,24.25 30.25,24.922 30.25,25.75L30.25,28.75C30.25,29.578 29.578,30.25 28.75,30.25L10.75,30.25M10.75,13.75L28.75,13.75C29.578,13.75 30.25,14.422 30.25,15.25L30.25,18.25C30.25,19.078 29.578,19.75 28.75,19.75L10.75,19.75" style="fill:none;stroke:rgb(44,44,44);stroke-width:2px;"/>
                    </g>
                </g>
            </g>
            <g id="g-root-ic_3_4mb7ys1pdnjew-stroke" transform="matrix(1,0,0,1,314,518)">
                <g id="ic_3_4mb7ys1pdnjew-stroke">
                    <g>
                        <path d="M16.749,23.226L16.749,28.275M20.499,21.964L20.499,29.536M24.248,20.701L24.248,30.799M39.249,23.226L39.249,28.275M35.499,21.964L35.499,29.536M31.748,20.701L31.748,30.799M27.998,16.915L27.998,34.585M12.249,13L43.749,13C43.749,13 45.249,13 45.249,14.5L45.249,37C45.249,37 45.249,38.5 43.749,38.5L12.249,38.5C12.249,38.5 10.749,38.5 10.749,37L10.749,14.5C10.749,14.5 10.749,13 12.249,13M25.748,38.5L30.248,38.5L30.248,43L25.748,43L25.748,38.5ZM20.499,43L35.499,43" style="fill:none;stroke:rgb(44,44,44);stroke-width:2px;"/>
                    </g>
                </g>
            </g>
            <g id="g-root-ic_1_mbpt781pdjdvw-stroke" transform="matrix(1,0,0,1,290,86)">
                <g id="ic_1_mbpt781pdjdvw-stroke">
                    <g>
                        <path d="M23.762,36.514L36.512,23.764C38.463,21.814 41.463,21.814 43.412,23.764C45.363,25.714 45.363,28.714 43.412,30.664L30.662,43.414C28.713,45.364 25.713,45.364 23.762,43.414C21.812,41.464 21.812,38.464 23.762,36.514ZM27.213,40.264C27.047,40.264 26.912,40.13 26.912,39.964C26.912,39.799 27.047,39.664 27.213,39.664M27.213,40.264C27.378,40.264 27.513,40.13 27.513,39.964C27.513,39.799 27.378,39.664 27.213,39.664M39.963,27.514C39.797,27.514 39.662,27.38 39.662,27.214C39.662,27.049 39.797,26.914 39.963,26.914M39.963,27.514C40.128,27.514 40.262,27.38 40.262,27.214C40.262,27.049 40.128,26.914 39.963,26.914M34.089,26.197C35.139,26.797 35.739,27.997 35.739,29.347C35.739,31.447 34.089,33.097 31.989,33.097C30.639,33.097 29.589,32.497 28.839,31.447M13.923,33.214C13.323,33.214 12.573,32.914 12.123,32.464C11.073,31.414 11.073,29.764 12.123,28.864L21.723,19.264C20.973,17.164 21.423,14.764 23.073,13.114C24.873,11.314 27.315,10.972 29.565,11.872L26.673,14.764C25.773,15.664 25.773,17.014 26.673,17.914C27.573,18.814 28.923,18.814 29.823,17.914L32.72,15.018C33.77,17.268 33.273,19.714 31.473,21.514C29.823,23.164 27.423,23.614 25.323,22.864L15.723,32.464C15.273,32.914 14.673,33.214 13.923,33.214Z" style="fill:none;stroke:rgb(44,44,44);stroke-width:2px;"/>
                    </g>
                </g>
            </g>
        </g>
    </g>
</svg>
