<?xml version="1.0" encoding="UTF-8" standalone="no"?>
<!DOCTYPE svg PUBLIC "-//W3C//DTD SVG 1.1//EN" "http://www.w3.org/Graphics/SVG/1.1/DTD/svg11.dtd">
<svg width="100%" height="100%" viewBox="0 0 342 480" version="1.1" xmlns="http://www.w3.org/2000/svg" xmlns:xlink="http://www.w3.org/1999/xlink" xml:space="preserve" xmlns:serif="http://www.serif.com/" style="fill-rule:evenodd;clip-rule:evenodd;stroke-linecap:round;stroke-linejoin:round;">
    <g id="blend" transform="matrix(0.574685,0,0,0.574685,5.05943,-49.7648)">
        <g id="items">
            <g id="blend1" serif:id="blend">
                <g id="g-root-cp_1_g-1_142dm714ht53c-fill" transform="matrix(1,0,0,1,61.9922,86)">
                    <g id="cp_1_g-1_142dm714ht53c-fill">
                        <g>
                            <path d="M57.998,21.88C77.708,21.88 93.718,37.56 93.988,57L441.988,57C441.718,31 420.338,10 393.998,10L57.998,10C44.738,10 32.738,15.31 24.058,23.91C15.478,32.39 10.148,44.08 10.008,57L22.008,57C22.278,37.56 38.288,21.88 57.998,21.88ZM22.008,57L10.008,57L10.008,58L22.008,58L22.008,57ZM442.008,57L94.01,57L94.01,58L442.008,58L442.008,57ZM93.99,58C93.99,58.17 94,58.33 94,58.5C94,78.17 77.88,94.12 58,94.12C38.12,94.12 22,78.17 22,58.5C22,58.33 22.01,58.17 22.01,58L10.01,58C10.01,58.17 10,58.33 10,58.5C10,84.73 31.49,106 58,106L394,106C407.26,106 419.26,100.69 427.94,92.09C436.63,83.5 442,71.63 442,58.5C442,58.33 441.99,58.17 441.99,58L93.99,58Z" style="fill:rgb(255,231,17);"/>
                        </g>
                    </g>
                </g>
                <g id="g-root-cp_2_g-2_909kf14ht5vm-fill" transform="matrix(1,0,0,1,61.9922,206)">
                    <g id="cp_2_g-2_909kf14ht5vm-fill">
                        <g>
                            <path d="M57.998,21.88C77.708,21.88 93.718,37.56 93.988,57L441.988,57C441.718,31 420.338,10 393.998,10L57.998,10C44.738,10 32.738,15.31 24.058,23.91C15.478,32.39 10.148,44.08 10.008,57L22.008,57C22.278,37.56 38.288,21.88 57.998,21.88ZM22.008,57L10.008,57L10.008,58L22.008,58L22.008,57ZM442.008,57L94.01,57L94.01,58L442.008,58L442.008,57ZM93.99,58C93.99,58.17 94,58.33 94,58.5C94,78.17 77.88,94.12 58,94.12C38.12,94.12 22,78.17 22,58.5C22,58.33 22.01,58.17 22.01,58L10.01,58C10.01,58.17 10,58.33 10,58.5C10,84.73 31.49,106 58,106L394,106C407.26,106 419.26,100.69 427.94,92.09C436.63,83.5 442,71.63 442,58.5C442,58.33 441.99,58.17 441.99,58L93.99,58Z" style="fill:rgb(247,148,56);"/>
                        </g>
                    </g>
                </g>
                <g id="g-root-cp_3_g-3_1hf32ql4ht5ok-fill" transform="matrix(1,0,0,1,61.9922,326)">
                    <g id="cp_3_g-3_1hf32ql4ht5ok-fill">
                        <g>
                            <path d="M57.998,21.88C77.708,21.88 93.718,37.56 93.988,57L441.988,57C441.718,31 420.338,10 393.998,10L57.998,10C44.738,10 32.738,15.31 24.058,23.91C15.478,32.39 10.148,44.08 10.008,57L22.008,57C22.278,37.56 38.288,21.88 57.998,21.88ZM22.008,57L10.008,57L10.008,58L22.008,58L22.008,57ZM442.008,57L94.01,57L94.01,58L442.008,58L442.008,57ZM93.99,58C93.99,58.17 94,58.33 94,58.5C94,78.17 77.88,94.12 58,94.12C38.12,94.12 22,78.17 22,58.5C22,58.33 22.01,58.17 22.01,58L10.01,58C10.01,58.17 10,58.33 10,58.5C10,84.73 31.49,106 58,106L394,106C407.26,106 419.26,100.69 427.94,92.09C436.63,83.5 442,71.63 442,58.5C442,58.33 441.99,58.17 441.99,58L93.99,58Z" style="fill:rgb(251,103,98);"/>
                        </g>
                    </g>
                </g>
                <g id="g-root-cp_4_g-4_hx5iu54ht6ha-fill" transform="matrix(1,0,0,1,61.9922,446)">
                    <g id="cp_4_g-4_hx5iu54ht6ha-fill">
                        <g>
                            <path d="M57.998,21.88C77.708,21.88 93.718,37.56 93.988,57L441.988,57C441.718,31 420.338,10 393.998,10L57.998,10C44.738,10 32.738,15.31 24.058,23.91C15.478,32.39 10.148,44.08 10.008,57L22.008,57C22.278,37.56 38.288,21.88 57.998,21.88ZM22.008,57L10.008,57L10.008,58L22.008,58L22.008,57ZM442.008,57L94.01,57L94.01,58L442.008,58L442.008,57ZM93.99,58C93.99,58.17 94,58.33 94,58.5C94,78.17 77.88,94.12 58,94.12C38.12,94.12 22,78.17 22,58.5C22,58.33 22.01,58.17 22.01,58L10.01,58C10.01,58.17 10,58.33 10,58.5C10,84.73 31.49,106 58,106L394,106C407.26,106 419.26,100.69 427.94,92.09C436.63,83.5 442,71.63 442,58.5C442,58.33 441.99,58.17 441.99,58L93.99,58Z" style="fill:rgb(243,102,187);"/>
                        </g>
                    </g>
                </g>
                <g id="g-root-cp_5_g-5_6hzfh4ht5oo-fill" transform="matrix(1,0,0,1,61.9922,566)">
                    <g id="cp_5_g-5_6hzfh4ht5oo-fill">
                        <g>
                            <path d="M57.998,21.88C77.708,21.88 93.718,37.56 93.988,57L441.988,57C441.718,31 420.338,10 393.998,10L57.998,10C44.738,10 32.738,15.31 24.058,23.91C15.478,32.39 10.148,44.08 10.008,57L22.008,57C22.278,37.56 38.288,21.88 57.998,21.88ZM22.008,57L10.008,57L10.008,58L22.008,58L22.008,57ZM442.008,57L94.01,57L94.01,58L442.008,58L442.008,57ZM93.99,58C93.99,58.17 94,58.33 94,58.5C94,78.17 77.88,94.12 58,94.12C38.12,94.12 22,78.17 22,58.5C22,58.33 22.01,58.17 22.01,58L10.01,58C10.01,58.17 10,58.33 10,58.5C10,84.73 31.49,106 58,106L394,106C407.26,106 419.26,100.69 427.94,92.09C436.63,83.5 442,71.63 442,58.5C442,58.33 441.99,58.17 441.99,58L93.99,58Z" style="fill:rgb(203,104,249);"/>
                        </g>
                    </g>
                </g>
                <g id="g-root-cp_6_g-6_18lbhr14ht5hm-fill" transform="matrix(1,0,0,1,61.9922,686)">
                    <g id="cp_6_g-6_18lbhr14ht5hm-fill">
                        <g>
                            <path d="M57.998,21.88C77.708,21.88 93.718,37.56 93.988,57L441.988,57C441.718,31 420.338,10 393.998,10L57.998,10C44.738,10 32.738,15.31 24.058,23.91C15.478,32.39 10.148,44.08 10.008,57L22.008,57C22.278,37.56 38.288,21.88 57.998,21.88ZM22.008,57L10.008,57L10.008,58L22.008,58L22.008,57ZM442.008,57L94.01,57L94.01,58L442.008,58L442.008,57ZM93.99,58C93.99,58.17 94,58.33 94,58.5C94,78.17 77.88,94.12 58,94.12C38.12,94.12 22,78.17 22,58.5C22,58.33 22.01,58.17 22.01,58L10.01,58C10.01,58.17 10,58.33 10,58.5C10,84.73 31.49,106 58,106L394,106C407.26,106 419.26,100.69 427.94,92.09C436.63,83.5 442,71.63 442,58.5C442,58.33 441.99,58.17 441.99,58L93.99,58Z" style="fill:rgb(135,105,253);"/>
                        </g>
                    </g>
                </g>
                <g id="g-root-cp_7_g-7_dj7fz14ht69w-fill" transform="matrix(1,0,0,1,61.9922,806)">
                    <g id="cp_7_g-7_dj7fz14ht69w-fill">
                        <g>
                            <path d="M57.998,21.88C77.708,21.88 93.718,37.56 93.988,57L441.988,57C441.718,31 420.338,10 393.998,10L57.998,10C44.738,10 32.738,15.31 24.058,23.91C15.478,32.39 10.148,44.08 10.008,57L22.008,57C22.278,37.56 38.288,21.88 57.998,21.88ZM22.008,57L10.008,57L10.008,58L22.008,58L22.008,57ZM442.008,57L94.01,57L94.01,58L442.008,58L442.008,57ZM93.99,58C93.99,58.17 94,58.33 94,58.5C94,78.17 77.88,94.12 58,94.12C38.12,94.12 22,78.17 22,58.5C22,58.33 22.01,58.17 22.01,58L10.01,58C10.01,58.17 10,58.33 10,58.5C10,84.73 31.49,106 58,106L394,106C407.26,106 419.26,100.69 427.94,92.09C436.63,83.5 442,71.63 442,58.5C442,58.33 441.99,58.17 441.99,58L93.99,58Z" style="fill:rgb(79,145,252);"/>
                        </g>
                    </g>
                </g>
                <g transform="matrix(1,0,0,1,170,252)">
                    <g id="g-root-tx_healthca_me7z4t4hum0y-fill">
                        <g id="tx_healthca_me7z4t4hum0y-fill">
                            <g>
                                <g>
                                    <text x="0px" y="0px" style="font-family:'Arial-BoldMT', 'Arial', sans-serif;font-weight:700;font-size:20px;fill:rgb(44,44,44);">Healthcare</text>
                                </g>
                            </g>
                        </g>
                    </g>
                </g>
                <g id="g-root-tx_managing_dkge594hultv-fill" transform="matrix(1,0,0,1,158,254)">
                    <g id="tx_managing_dkge594hultv-fill">
                        <g>
                            <g>
                                <g transform="matrix(1,0,0,1,12,28.2)">
                                    <text x="0px" y="0px" style="font-family:'ArialMT', 'Arial', sans-serif;font-size:15px;fill:rgb(44,44,44);">Managing appointments and patient</text>
                                </g>
                                <g transform="matrix(1,0,0,1,12,46.2)">
                                    <g>
                                        <text x="0px" y="0px" style="font-family:'ArialMT', 'Arial', sans-serif;font-size:15px;fill:rgb(44,44,44);">information eﬃciently</text>
                                        <g transform="matrix(1,0,0,1,139.409,0)">
                                            <text x="0px" y="0px" style="font-family:'ArialMT', 'Arial', sans-serif;font-size:15px;fill:rgb(44,44,44);">.</text>
                                        </g>
                                    </g>
                                </g>
                            </g>
                        </g>
                    </g>
                </g>
                <g transform="matrix(1,0,0,1,170,372)">
                    <g id="g-root-tx_bankingf_8wipwd4hxcst-fill">
                        <g id="tx_bankingf_8wipwd4hxcst-fill">
                            <g>
                                <g>
                                    <text x="0px" y="0px" style="font-family:'Arial-BoldMT', 'Arial', sans-serif;font-weight:700;font-size:20px;fill:rgb(44,44,44);">Banking &amp; Finance</text>
                                </g>
                            </g>
                        </g>
                    </g>
                </g>
                <g id="g-root-tx_enhancin_dhc3vh4hrthh-fill" transform="matrix(1,0,0,1,158,854)">
                    <g id="tx_enhancin_dhc3vh4hrthh-fill">
                        <g>
                            <g>
                                <g transform="matrix(1,0,0,1,12,28.2)">
                                    <text x="0px" y="0px" style="font-family:'ArialMT', 'Arial', sans-serif;font-size:15px;fill:rgb(44,44,44);">Enhancing guest experience through</text>
                                </g>
                                <g transform="matrix(1,0,0,1,12,46.2)">
                                    <text x="0px" y="0px" style="font-family:'ArialMT', 'Arial', sans-serif;font-size:15px;fill:rgb(44,44,44);">automated services.</text>
                                </g>
                            </g>
                        </g>
                    </g>
                </g>
                <g id="g-root-tx_facilita_18eg9st4hul8g-fill" transform="matrix(1,0,0,1,158,134)">
                    <g id="tx_facilita_18eg9st4hul8g-fill">
                        <g>
                            <g>
                                <g transform="matrix(1,0,0,1,12,28.2)">
                                    <text x="0px" y="0px" style="font-family:'ArialMT', 'Arial', sans-serif;font-size:15px;fill:rgb(44,44,44);">Facilitating customer service and order</text>
                                </g>
                                <g transform="matrix(1,0,0,1,12,46.2)">
                                    <text x="0px" y="0px" style="font-family:'ArialMT', 'Arial', sans-serif;font-size:15px;fill:rgb(44,44,44);">management.</text>
                                </g>
                            </g>
                        </g>
                    </g>
                </g>
                <g transform="matrix(1,0,0,1,170,492)">
                    <g id="g-root-tx_educatio_1q6crdp4hysco-fill">
                        <g id="tx_educatio_1q6crdp4hysco-fill">
                            <g>
                                <g>
                                    <text x="0px" y="0px" style="font-family:'Arial-BoldMT', 'Arial', sans-serif;font-weight:700;font-size:20px;fill:rgb(44,44,44);">Education</text>
                                </g>
                            </g>
                        </g>
                    </g>
                </g>
                <g id="g-root-tx_providin_1q886n14hyrcx-fill" transform="matrix(1,0,0,1,158,494)">
                    <g id="tx_providin_1q886n14hyrcx-fill">
                        <g>
                            <g>
                                <g transform="matrix(1,0,0,1,12,28.2)">
                                    <text x="0px" y="0px" style="font-family:'ArialMT', 'Arial', sans-serif;font-size:15px;fill:rgb(44,44,44);">Providing information and managing student</text>
                                </g>
                                <g transform="matrix(1,0,0,1,12,46.2)">
                                    <text x="0px" y="0px" style="font-family:'ArialMT', 'Arial', sans-serif;font-size:15px;fill:rgb(44,44,44);">communications.</text>
                                </g>
                            </g>
                        </g>
                    </g>
                </g>
                <g transform="matrix(1,0,0,1,170,132)">
                    <g id="g-root-tx_ecommerc_959d3x4ht5an-fill">
                        <g id="tx_ecommerc_959d3x4ht5an-fill">
                            <g>
                                <g>
                                    <text x="0px" y="0px" style="font-family:'Arial-BoldMT', 'Arial', sans-serif;font-weight:700;font-size:20px;fill:rgb(44,44,44);">E-commerce</text>
                                </g>
                            </g>
                        </g>
                    </g>
                </g>
                <g transform="matrix(1,0,0,1,170,612)">
                    <g id="g-root-tx_enterpri_403314ia0i6-fill">
                        <g id="tx_enterpri_403314ia0i6-fill">
                            <g>
                                <g>
                                    <text x="0px" y="0px" style="font-family:'Arial-BoldMT', 'Arial', sans-serif;font-weight:700;font-size:20px;fill:rgb(44,44,44);">Enterprises</text>
                                </g>
                            </g>
                        </g>
                    </g>
                </g>
                <g id="g-root-tx_streamli_dgpjml4ia13b-fill" transform="matrix(1,0,0,1,158,614)">
                    <g id="tx_streamli_dgpjml4ia13b-fill">
                        <g>
                            <g>
                                <g transform="matrix(1,0,0,1,12,28.2)">
                                    <text x="0px" y="0px" style="font-family:'ArialMT', 'Arial', sans-serif;font-size:15px;fill:rgb(44,44,44);">Streamlining internal and external</text>
                                </g>
                                <g transform="matrix(1,0,0,1,12,46.2)">
                                    <g>
                                        <text x="0px" y="0px" style="font-family:'ArialMT', 'Arial', sans-serif;font-size:15px;fill:rgb(44,44,44);">communications eﬀectively</text>
                                        <g transform="matrix(1,0,0,1,177.803,0)">
                                            <text x="0px" y="0px" style="font-family:'ArialMT', 'Arial', sans-serif;font-size:15px;fill:rgb(44,44,44);">.</text>
                                        </g>
                                    </g>
                                </g>
                            </g>
                        </g>
                    </g>
                </g>
                <g transform="matrix(1,0,0,1,170,732)">
                    <g id="g-root-tx_logistic_74jod4hoxz5-fill">
                        <g id="tx_logistic_74jod4hoxz5-fill">
                            <g>
                                <g>
                                    <text x="0px" y="0px" style="font-family:'Arial-BoldMT', 'Arial', sans-serif;font-weight:700;font-size:20px;fill:rgb(44,44,44);">Logistics</text>
                                </g>
                            </g>
                        </g>
                    </g>
                </g>
                <g id="g-root-tx_optimisi_1qeh0nx4hoxky-fill" transform="matrix(1,0,0,1,158,734)">
                    <g id="tx_optimisi_1qeh0nx4hoxky-fill">
                        <g>
                            <g>
                                <g transform="matrix(1,0,0,1,12,28.2)">
                                    <text x="0px" y="0px" style="font-family:'ArialMT', 'Arial', sans-serif;font-size:15px;fill:rgb(44,44,44);">Optimising delivery schedules and tracking</text>
                                </g>
                                <g transform="matrix(1,0,0,1,12,46.2)">
                                    <text x="0px" y="0px" style="font-family:'ArialMT', 'Arial', sans-serif;font-size:15px;fill:rgb(44,44,44);">shipments.</text>
                                </g>
                            </g>
                        </g>
                    </g>
                </g>
                <g transform="matrix(1,0,0,1,170,852)">
                    <g id="g-root-tx_hospital_909nkt4hrs3o-fill">
                        <g id="tx_hospital_909nkt4hrs3o-fill">
                            <g>
                                <g>
                                    <text x="0px" y="0px" style="font-family:'Arial-BoldMT', 'Arial', sans-serif;font-weight:700;font-size:20px;fill:rgb(44,44,44);">Hospitality</text>
                                </g>
                            </g>
                        </g>
                    </g>
                </g>
                <g id="g-root-tx_securely_8xro2l4hxeyu-fill" transform="matrix(1,0,0,1,158,374)">
                    <g id="tx_securely_8xro2l4hxeyu-fill">
                        <g>
                            <g>
                                <g transform="matrix(1,0,0,1,12,28.2)">
                                    <text x="0px" y="0px" style="font-family:'ArialMT', 'Arial', sans-serif;font-size:15px;fill:rgb(44,44,44);">Securely handling transactions and customer</text>
                                </g>
                                <g transform="matrix(1,0,0,1,12,46.2)">
                                    <text x="0px" y="0px" style="font-family:'ArialMT', 'Arial', sans-serif;font-size:15px;fill:rgb(44,44,44);">inquiries.</text>
                                </g>
                            </g>
                        </g>
                    </g>
                </g>
                <g id="g-root-cp_1_g-1_142dm714ht53c-stroke" transform="matrix(1,0,0,1,61.9922,86)">
                    <g id="cp_1_g-1_142dm714ht53c-stroke">
                        <g>
                            <path d="M93.988,57C93.718,37.56 77.708,21.88 57.998,21.88C38.288,21.88 22.278,37.56 22.008,57M441.988,57C441.718,31 420.338,10 393.998,10L57.998,10C44.738,10 32.738,15.31 24.058,23.91C15.478,32.39 10.148,44.08 10.008,57M22.008,57L22.008,58M10.008,58L10.008,57M442.008,57L442.008,58M94.008,58L94.008,57M93.99,58C93.99,58.17 94,58.33 94,58.5C94,78.17 77.88,94.12 58,94.12C38.12,94.12 22,78.17 22,58.5C22,58.33 22.01,58.17 22.01,58M10.01,58C10.01,58.17 10,58.33 10,58.5C10,84.73 31.49,106 58,106L394,106C407.26,106 419.26,100.69 427.94,92.09C436.63,83.5 442,71.63 442,58.5C442,58.33 441.99,58.17 441.99,58" style="fill:none;stroke:rgb(44,44,44);stroke-width:2px;"/>
                        </g>
                    </g>
                </g>
                <g id="g-root-cp_2_g-2_909kf14ht5vm-stroke" transform="matrix(1,0,0,1,61.9922,206)">
                    <g id="cp_2_g-2_909kf14ht5vm-stroke">
                        <g>
                            <path d="M93.988,57C93.718,37.56 77.708,21.88 57.998,21.88C38.288,21.88 22.278,37.56 22.008,57M441.988,57C441.718,31 420.338,10 393.998,10L57.998,10C44.738,10 32.738,15.31 24.058,23.91C15.478,32.39 10.148,44.08 10.008,57M22.008,57L22.008,58M10.008,58L10.008,57M442.008,57L442.008,58M94.008,58L94.008,57M93.99,58C93.99,58.17 94,58.33 94,58.5C94,78.17 77.88,94.12 58,94.12C38.12,94.12 22,78.17 22,58.5C22,58.33 22.01,58.17 22.01,58M10.01,58C10.01,58.17 10,58.33 10,58.5C10,84.73 31.49,106 58,106L394,106C407.26,106 419.26,100.69 427.94,92.09C436.63,83.5 442,71.63 442,58.5C442,58.33 441.99,58.17 441.99,58" style="fill:none;stroke:rgb(44,44,44);stroke-width:2px;"/>
                        </g>
                    </g>
                </g>
                <g id="g-root-cp_3_g-3_1hf32ql4ht5ok-stroke" transform="matrix(1,0,0,1,61.9922,326)">
                    <g id="cp_3_g-3_1hf32ql4ht5ok-stroke">
                        <g>
                            <path d="M93.988,57C93.718,37.56 77.708,21.88 57.998,21.88C38.288,21.88 22.278,37.56 22.008,57M441.988,57C441.718,31 420.338,10 393.998,10L57.998,10C44.738,10 32.738,15.31 24.058,23.91C15.478,32.39 10.148,44.08 10.008,57M22.008,57L22.008,58M10.008,58L10.008,57M442.008,57L442.008,58M94.008,58L94.008,57M93.99,58C93.99,58.17 94,58.33 94,58.5C94,78.17 77.88,94.12 58,94.12C38.12,94.12 22,78.17 22,58.5C22,58.33 22.01,58.17 22.01,58M10.01,58C10.01,58.17 10,58.33 10,58.5C10,84.73 31.49,106 58,106L394,106C407.26,106 419.26,100.69 427.94,92.09C436.63,83.5 442,71.63 442,58.5C442,58.33 441.99,58.17 441.99,58" style="fill:none;stroke:rgb(44,44,44);stroke-width:2px;"/>
                        </g>
                    </g>
                </g>
                <g id="g-root-cp_4_g-4_hx5iu54ht6ha-stroke" transform="matrix(1,0,0,1,61.9922,446)">
                    <g id="cp_4_g-4_hx5iu54ht6ha-stroke">
                        <g>
                            <path d="M93.988,57C93.718,37.56 77.708,21.88 57.998,21.88C38.288,21.88 22.278,37.56 22.008,57M441.988,57C441.718,31 420.338,10 393.998,10L57.998,10C44.738,10 32.738,15.31 24.058,23.91C15.478,32.39 10.148,44.08 10.008,57M22.008,57L22.008,58M10.008,58L10.008,57M442.008,57L442.008,58M94.008,58L94.008,57M93.99,58C93.99,58.17 94,58.33 94,58.5C94,78.17 77.88,94.12 58,94.12C38.12,94.12 22,78.17 22,58.5C22,58.33 22.01,58.17 22.01,58M10.01,58C10.01,58.17 10,58.33 10,58.5C10,84.73 31.49,106 58,106L394,106C407.26,106 419.26,100.69 427.94,92.09C436.63,83.5 442,71.63 442,58.5C442,58.33 441.99,58.17 441.99,58" style="fill:none;stroke:rgb(44,44,44);stroke-width:2px;"/>
                        </g>
                    </g>
                </g>
                <g id="g-root-cp_5_g-5_6hzfh4ht5oo-stroke" transform="matrix(1,0,0,1,61.9922,566)">
                    <g id="cp_5_g-5_6hzfh4ht5oo-stroke">
                        <g>
                            <path d="M93.988,57C93.718,37.56 77.708,21.88 57.998,21.88C38.288,21.88 22.278,37.56 22.008,57M441.988,57C441.718,31 420.338,10 393.998,10L57.998,10C44.738,10 32.738,15.31 24.058,23.91C15.478,32.39 10.148,44.08 10.008,57M22.008,57L22.008,58M10.008,58L10.008,57M442.008,57L442.008,58M94.008,58L94.008,57M93.99,58C93.99,58.17 94,58.33 94,58.5C94,78.17 77.88,94.12 58,94.12C38.12,94.12 22,78.17 22,58.5C22,58.33 22.01,58.17 22.01,58M10.01,58C10.01,58.17 10,58.33 10,58.5C10,84.73 31.49,106 58,106L394,106C407.26,106 419.26,100.69 427.94,92.09C436.63,83.5 442,71.63 442,58.5C442,58.33 441.99,58.17 441.99,58" style="fill:none;stroke:rgb(44,44,44);stroke-width:2px;"/>
                        </g>
                    </g>
                </g>
                <g id="g-root-cp_6_g-6_18lbhr14ht5hm-stroke" transform="matrix(1,0,0,1,61.9922,686)">
                    <g id="cp_6_g-6_18lbhr14ht5hm-stroke">
                        <g>
                            <path d="M93.988,57C93.718,37.56 77.708,21.88 57.998,21.88C38.288,21.88 22.278,37.56 22.008,57M441.988,57C441.718,31 420.338,10 393.998,10L57.998,10C44.738,10 32.738,15.31 24.058,23.91C15.478,32.39 10.148,44.08 10.008,57M22.008,57L22.008,58M10.008,58L10.008,57M442.008,57L442.008,58M94.008,58L94.008,57M93.99,58C93.99,58.17 94,58.33 94,58.5C94,78.17 77.88,94.12 58,94.12C38.12,94.12 22,78.17 22,58.5C22,58.33 22.01,58.17 22.01,58M10.01,58C10.01,58.17 10,58.33 10,58.5C10,84.73 31.49,106 58,106L394,106C407.26,106 419.26,100.69 427.94,92.09C436.63,83.5 442,71.63 442,58.5C442,58.33 441.99,58.17 441.99,58" style="fill:none;stroke:rgb(44,44,44);stroke-width:2px;"/>
                        </g>
                    </g>
                </g>
                <g id="g-root-cp_7_g-7_dj7fz14ht69w-stroke" transform="matrix(1,0,0,1,61.9922,806)">
                    <g id="cp_7_g-7_dj7fz14ht69w-stroke">
                        <g>
                            <path d="M93.988,57C93.718,37.56 77.708,21.88 57.998,21.88C38.288,21.88 22.278,37.56 22.008,57M441.988,57C441.718,31 420.338,10 393.998,10L57.998,10C44.738,10 32.738,15.31 24.058,23.91C15.478,32.39 10.148,44.08 10.008,57M22.008,57L22.008,58M10.008,58L10.008,57M442.008,57L442.008,58M94.008,58L94.008,57M93.99,58C93.99,58.17 94,58.33 94,58.5C94,78.17 77.88,94.12 58,94.12C38.12,94.12 22,78.17 22,58.5C22,58.33 22.01,58.17 22.01,58M10.01,58C10.01,58.17 10,58.33 10,58.5C10,84.73 31.49,106 58,106L394,106C407.26,106 419.26,100.69 427.94,92.09C436.63,83.5 442,71.63 442,58.5C442,58.33 441.99,58.17 441.99,58" style="fill:none;stroke:rgb(44,44,44);stroke-width:2px;"/>
                        </g>
                    </g>
                </g>
                <g id="g-root-ic_beat_v2zrfh4hw078-stroke" transform="matrix(1,0,0,1,86,230)">
                    <g id="ic_beat_v2zrfh4hw078-stroke">
                        <g>
                            <path d="M11,38.23L22.5,38.23C22.815,38.23 23.111,38.082 23.3,37.83L25.152,35.362C25.347,35.102 25.655,34.953 25.979,34.962C26.304,34.971 26.604,35.136 26.784,35.406L29.044,38.806C29.242,39.102 29.582,39.271 29.938,39.249C30.294,39.226 30.611,39.017 30.77,38.698L33.85,32.538C34.034,32.169 34.426,31.951 34.837,31.989C35.247,32.027 35.593,32.314 35.706,32.71L38.294,41.768C38.407,42.165 38.752,42.451 39.162,42.49C39.573,42.528 39.965,42.311 40.15,41.942L41.724,38.794C41.893,38.455 42.239,38.24 42.618,38.24L57,38.24M52.51,34.228C54.055,31.168 54.906,27.805 55,24.378C55,9 36.368,7.8 34,23.2C31.632,7.8 13,9 13,25.56C13.038,28.54 13.657,31.485 14.822,34.228M19.46,42.228C23.423,47.336 28.112,51.836 33.378,55.586C33.744,55.846 34.239,55.83 34.588,55.546C39.391,51.602 43.739,47.135 47.552,42.228" style="fill:none;stroke:rgb(247,148,56);stroke-width:2px;"/>
                        </g>
                    </g>
                </g>
                <g id="g-root-ic_incr_qqamql4hxerr-stroke" transform="matrix(1,0,0,1,86,350)">
                    <g id="ic_incr_qqamql4hxerr-stroke">
                        <g>
                            <path d="M39.008,33L55.008,33C55.008,33 56.008,33 56.008,34L56.008,38C56.008,38 56.008,39 55.008,39L39.008,39C39.008,39 38.008,39 38.008,38L38.008,34C38.008,34 38.008,33 39.008,33M37.008,39L53.008,39C53.008,39 54.008,39 54.008,40L54.008,44C54.008,44 54.008,45 53.008,45L37.008,45C37.008,45 36.008,45 36.008,44L36.008,40C36.008,40 36.008,39 37.008,39M39.008,45L55.008,45C55.008,45 56.008,45 56.008,46L56.008,50C56.008,50 56.008,51 55.008,51L39.008,51C39.008,51 38.008,51 38.008,50L38.008,46C38.008,46 38.008,45 39.008,45M37.008,51L53.008,51C53.008,51 54.008,51 54.008,52L54.008,56C54.008,56 54.008,57 53.008,57L37.008,57C37.008,57 36.008,57 36.008,56L36.008,52C36.008,52 36.008,51 37.008,51M13.008,45L29.008,45C29.008,45 30.008,45 30.008,46L30.008,50C30.008,50 30.008,51 29.008,51L13.008,51C13.008,51 12.008,51 12.008,50L12.008,46C12.008,46 12.008,45 13.008,45M15.008,51L31.008,51C31.008,51 32.008,51 32.008,52L32.008,56C32.008,56 32.008,57 31.008,57L15.008,57C15.008,57 14.008,57 14.008,56L14.008,52C14.008,52 14.008,51 15.008,51M13,37L29.742,20.266C30.462,19.549 31.605,19.485 32.4,20.118L39.558,25.844C40.375,26.494 41.554,26.407 42.266,25.644L56,11M42.008,11L56.008,11L56.008,24" style="fill:none;stroke:rgb(251,103,98);stroke-width:2px;"/>
                        </g>
                    </g>
                </g>
                <g id="g-root-ic_grad_1upamxp4hysqq-stroke" transform="matrix(1,0,0,1,86,470)">
                    <g id="ic_grad_1upamxp4hysqq-stroke">
                        <g>
                            <path d="M35.3,32.9C28.5,12.5 27.1,11.5 22.9,11.5L22.9,17.3L13.1,22.3C12.1,22.7 11.5,23.7 11.5,24.9L11.5,25.9C11.5,29.1 14.1,31.7 17.3,31.7L20.1,31.7L20.1,45.7M20.1,38.7L34.447,30.35M56.5,43.1L56.5,47.5M50.5,46.062L50.5,53.5C50.5,53.5 47.5,56.5 43.1,56.5C38.7,56.5 35.5,53.5 35.5,53.5L35.5,46.062M29.5,43.1L43.1,49.1L56.5,43.1L43.1,37.1L29.5,43.1Z" style="fill:none;stroke:rgb(243,102,187);stroke-width:2px;"/>
                        </g>
                    </g>
                </g>
                <g id="g-root-ic_line_dikyvx4ia03k-stroke" transform="matrix(1,0,0,1,86,590)">
                    <g id="ic_line_dikyvx4ia03k-stroke">
                        <g>
                            <path d="M19.858,33.946C19.858,41.678 26.126,47.946 33.858,47.946C41.59,47.946 47.858,41.678 47.858,33.946C47.858,26.214 41.59,19.946 33.858,19.946C26.126,19.946 19.858,26.214 19.858,33.946ZM23.858,37.946L25.304,35.778C25.61,35.319 26.23,35.194 26.69,35.5L28.11,36.446C28.537,36.728 29.109,36.642 29.434,36.246L33.156,31.776C33.336,31.56 33.599,31.43 33.879,31.417C34.16,31.405 34.433,31.511 34.632,31.71L37.084,34.162C37.283,34.36 37.556,34.466 37.836,34.453C38.116,34.44 38.378,34.31 38.558,34.094L42.858,28.936M56.124,37.11C56.627,37.047 57.004,36.617 57,36.11L57,31.882C57.004,31.375 56.627,30.945 56.124,30.882L51.622,30.32C51.163,28.115 50.291,26.017 49.052,24.136L51.842,20.546C52.151,20.148 52.116,19.583 51.76,19.226L48.76,16.226C48.403,15.87 47.838,15.835 47.44,16.144L43.85,18.944C41.969,17.705 39.871,16.832 37.666,16.372L37.11,11.876C37.047,11.373 36.617,10.996 36.11,11L31.882,11C31.375,10.996 30.945,11.373 30.882,11.876L30.32,16.376C28.118,16.837 26.023,17.71 24.144,18.948L20.554,16.158C20.156,15.849 19.591,15.884 19.234,16.24L16.234,19.24C15.878,19.597 15.843,20.162 16.152,20.56L18.952,24.16C17.713,26.041 16.841,28.139 16.382,30.344L11.88,30.906C11.377,30.969 11,31.399 11.004,31.906L11.004,36.142C11,36.649 11.377,37.079 11.88,37.142L16.382,37.704C16.841,39.909 17.713,42.007 18.952,43.888L16.158,47.446C15.849,47.844 15.884,48.409 16.24,48.766L19.24,51.766C19.597,52.122 20.162,52.157 20.56,51.848L24.16,49.058C26.041,50.297 28.139,51.17 30.344,51.63L30.906,56.13C30.969,56.633 31.399,57.01 31.906,57.006L36.142,57.006C36.649,57.01 37.079,56.633 37.142,56.13L37.704,51.63C39.909,51.17 42.007,50.297 43.888,49.058L47.478,51.848C47.876,52.157 48.441,52.122 48.798,51.766L51.798,48.766C52.154,48.409 52.189,47.844 51.88,47.446L49.09,43.856C50.329,41.975 51.201,39.877 51.66,37.672L56.124,37.11Z" style="fill:none;stroke:rgb(203,104,249);stroke-width:2px;"/>
                        </g>
                    </g>
                </g>
                <g id="g-root-ic_cart_1umsql94huk95-stroke" transform="matrix(1,0,0,1,86,110)">
                    <g id="ic_cart_1umsql94huk95-stroke">
                        <g>
                            <path d="M39,55C39,56.105 39.895,57 41,57C42.105,57 43,56.105 43,55C43,53.895 42.105,53 41,53C39.895,53 39,53.895 39,55ZM47,55C47,56.105 47.895,57 49,57C50.105,57 51,56.105 51,55C51,53.895 50.105,53 49,53C47.895,53 47,53.895 47,55ZM57,31L52.2,48.268C52.08,48.701 51.685,49 51.236,49L39.72,49C39.29,49 38.908,48.724 38.772,48.316L35.438,38.316C35.336,38.011 35.388,37.675 35.576,37.415C35.764,37.154 36.066,37 36.388,37L55.334,37M16.5,19.5C16.5,24.194 20.306,28 25,28C29.694,28 33.5,24.194 33.5,19.5C33.5,14.806 29.694,11 25,11C20.306,11 16.5,14.806 16.5,19.5ZM31,45L11,45C11,39.88 13.795,35.168 18.289,32.713C22.782,30.258 28.258,30.453 32.566,33.22" style="fill:none;stroke:rgb(255,231,17);stroke-width:2px;"/>
                        </g>
                    </g>
                </g>
                <g id="g-root-ic_truc_qwjgrh4hoydn-stroke" transform="matrix(1,0,0,1,86,710)">
                    <g id="ic_truc_qwjgrh4hoydn-stroke">
                        <g>
                            <path d="M34.572,54.858C34.571,56.041 33.611,57 32.428,57L13.142,57C11.959,56.999 11.001,56.041 11,54.858L11,49.5C11,42.991 16.277,37.714 22.786,37.714C29.295,37.714 34.572,42.991 34.572,49.5L34.572,54.858ZM18.286,45C18.286,45.276 18.51,45.5 18.786,45.5C19.062,45.5 19.286,45.276 19.286,45C19.286,44.724 19.062,44.5 18.786,44.5C18.51,44.5 18.286,44.724 18.286,45M26.286,44.988C26.286,45.264 26.51,45.488 26.786,45.488C27.062,45.488 27.286,45.264 27.286,44.988C27.286,44.712 27.062,44.488 26.786,44.488C26.51,44.488 26.286,44.712 26.286,44.988M22.786,37.714L22.786,33.428M19.572,30.214C19.572,31.989 21.011,33.428 22.786,33.428C24.561,33.428 26,31.989 26,30.214C26,28.439 24.561,27 22.786,27C21.011,27 19.572,28.439 19.572,30.214M11,51.63L34.572,51.63M38,21L38,13C38,11.895 38.895,11 40,11L55,11C56.105,11 57,11.895 57,13L57,27L53,27M38,25L38,14L34,14C30.686,14 28,16.686 28,20L28,25C28,26.105 28.895,27 30,27L35,27M28,21L36,21C37.105,21 38,20.105 38,19M35,28C35,29.657 36.343,31 38,31C39.657,31 41,29.657 41,28C41,26.343 39.657,25 38,25C36.343,25 35,26.343 35,28M47,28C47,29.657 48.343,31 50,31C51.657,31 53,29.657 53,28C53,26.343 51.657,25 50,25C48.343,25 47,26.343 47,28M41.006,27L47.006,27" style="fill:none;stroke:rgb(135,105,253);stroke-width:2px;"/>
                        </g>
                    </g>
                </g>
                <g id="g-root-ic_1_18lbkwt4hrrpi-stroke" transform="matrix(1,0,0,1,86,830)">
                    <g id="ic_1_18lbkwt4hrrpi-stroke">
                        <g>
                            <path d="M33,47L39,47C43.418,47 47,50.582 47,55L11,55M11,39L25,39C29.418,39 33,42.582 33,47L24,47M11,37L11,57M53,14.88L53,11M43,43L43,17.78C42.998,17.322 43.313,16.923 43.76,16.82L55.76,14.32C56.059,14.238 56.379,14.305 56.62,14.5C56.861,14.687 57.002,14.975 57,15.28L57,47L48,47M31,36L31,25C31,23.895 31.895,23 33,23L43,23M47,21L53,21M47,25L53,25M47,29L53,29M35,28L39,28M35,32L39,32" style="fill:none;stroke:rgb(79,145,252);stroke-width:2px;"/>
                        </g>
                    </g>
                </g>
            </g>
        </g>
    </g>
</svg>
