<?xml version="1.0" encoding="UTF-8" standalone="no"?>
<!DOCTYPE svg PUBLIC "-//W3C//DTD SVG 1.1//EN" "http://www.w3.org/Graphics/SVG/1.1/DTD/svg11.dtd">
<svg width="100%" height="100%" viewBox="0 0 576 662" version="1.1" xmlns="http://www.w3.org/2000/svg" xmlns:xlink="http://www.w3.org/1999/xlink" xml:space="preserve" xmlns:serif="http://www.serif.com/" style="fill-rule:evenodd;clip-rule:evenodd;stroke-linecap:round;stroke-linejoin:round;">
    <g id="items" transform="matrix(1.09696,0,0,1.09696,-27.924,-42.3537)">
        <g id="blend">
            <g id="g-root-cp_5_text-5_1ur68jw5vwt8i-fill" transform="matrix(1,0,0,1,50,62)">
                <g id="cp_5_text-5_1ur68jw5vwt8i-fill">
                    <g>
                        <rect x="10" y="10" width="228" height="144" style="fill:rgb(203,104,249);"/>
                    </g>
                </g>
            </g>
            <g id="g-root-cp_5_stick-5_144vowc5vwt8k-fill" transform="matrix(1,0,0,1,266,206)">
                <g id="cp_5_stick-5_144vowc5vwt8k-fill">
                    <g>
                        <rect x="10" y="10" width="12" height="336" style="fill:rgb(203,104,249);"/>
                    </g>
                </g>
            </g>
            <g id="g-root-cp_3_text-3_qu1nm45vwrnq-fill" transform="matrix(1,0,0,1,38,206)">
                <g id="cp_3_text-3_qu1nm45vwrnq-fill">
                    <g>
                        <rect x="10" y="10" width="228" height="144" style="fill:rgb(251,103,98);"/>
                    </g>
                </g>
            </g>
            <g id="g-root-cp_3_stick-3_dil58s5vwt8o-fill" transform="matrix(1,0,0,1,254,350)">
                <g id="cp_3_stick-3_dil58s5vwt8o-fill">
                    <g>
                        <rect x="10" y="10" width="12" height="192" style="fill:rgb(251,103,98);"/>
                    </g>
                </g>
            </g>
            <g id="g-root-cp_1_text-1_93e47g5vwqv6-fill" transform="matrix(1,0,0,1,26,350)">
                <g id="cp_1_text-1_93e47g5vwqv6-fill">
                    <g>
                        <rect x="10" y="10" width="228" height="156" style="fill:rgb(255,231,17);"/>
                    </g>
                </g>
            </g>
            <g id="g-root-cp_1_stick-1_146r45o5vws90-fill" transform="matrix(1,0,0,1,242,434)">
                <g id="cp_1_stick-1_146r45o5vws90-fill">
                    <g>
                        <rect x="10" y="10" width="12" height="108" style="fill:rgb(255,231,17);"/>
                    </g>
                </g>
            </g>
            <g id="g-root-cp_6_text-6_dkgki45vws92-fill" transform="matrix(1,0,0,1,278,50)">
                <g id="cp_6_text-6_dkgki45vws92-fill">
                    <g>
                        <rect x="10" y="10" width="228" height="156" style="fill:rgb(135,105,253);"/>
                    </g>
                </g>
            </g>
            <g id="g-root-cp_6_stick-6_1lza2to5vws20-fill" transform="matrix(1,0,0,1,278,206)">
                <g id="cp_6_stick-6_1lza2to5vws20-fill">
                    <g>
                        <rect x="10" y="10" width="12" height="336" style="fill:rgb(135,105,253);"/>
                    </g>
                </g>
            </g>
            <g id="g-root-cp_4_text-4_18egg5o5vy51m-fill" transform="matrix(1,0,0,1,290,206)">
                <g id="cp_4_text-4_18egg5o5vy51m-fill">
                    <g>
                        <rect x="10" y="10" width="228" height="144" style="fill:rgb(243,102,187);"/>
                    </g>
                </g>
            </g>
            <g id="g-root-cp_4_stick-4_v2zxsc5vy6mk-fill" transform="matrix(1,0,0,1,290,350)">
                <g id="cp_4_stick-4_v2zxsc5vy6mk-fill">
                    <g>
                        <rect x="10" y="10" width="12" height="192" style="fill:rgb(243,102,187);"/>
                    </g>
                </g>
            </g>
            <g id="g-root-cp_2_text-2_hs5wi45vy51q-fill" transform="matrix(1,0,0,1,302,350)">
                <g id="cp_2_text-2_hs5wi45vy51q-fill">
                    <g>
                        <rect x="10" y="10" width="228" height="144" style="fill:rgb(247,148,56);"/>
                    </g>
                </g>
            </g>
            <g id="g-root-cp_2_stick-2_1umswy45vy4u8-fill" transform="matrix(1,0,0,1,302,434)">
                <g id="cp_2_stick-2_1umswy45vy4u8-fill">
                    <g>
                        <rect x="10" y="10" width="12" height="108" style="fill:rgb(247,148,56);"/>
                    </g>
                </g>
            </g>
            <g id="g-root-cp_0_g-0_hteuoc5vy77u-fill" transform="matrix(1,0,0,1,242,542)">
                <g id="cp_0_g-0_hteuoc5vy77u-fill">
                    <g>
                        <path d="M33.994,61L46.01,86L58.005,61L33.994,61Z" style="fill:rgb(232,232,232);"/>
                    </g>
                </g>
                <g id="cp_0_g-0_hteuoc5vy77u-fill1" serif:id="cp_0_g-0_hteuoc5vy77u-fill">
                    <g>
                        <path d="M82,10L10,10L34,61L58.001,61L82,10Z" style="fill:rgb(232,232,232);"/>
                    </g>
                </g>
            </g>
            <g id="g-root-tx_multilin_qqat3g5w2cqy-fill" transform="matrix(1,0,0,1,350,218)">
                <g id="tx_multilin_qqat3g5w2cqy-fill">
                    <g>
                        <g>
                            <g transform="matrix(1,0,0,1,12,34)">
                                <text x="0px" y="0px" style="font-family:'Arial-BoldMT', 'Arial', sans-serif;font-weight:700;font-size:20px;fill:rgb(44,44,44);">Multilingual</text>
                            </g>
                            <g transform="matrix(1,0,0,1,12,58)">
                                <text x="0px" y="0px" style="font-family:'Arial-BoldMT', 'Arial', sans-serif;font-weight:700;font-size:20px;fill:rgb(44,44,44);">Options</text>
                            </g>
                        </g>
                    </g>
                </g>
            </g>
            <g id="g-root-tx_seamless_qp1ux85vzjt6-fill" transform="matrix(1,0,0,1,50,278)">
                <g id="tx_seamless_qp1ux85vzjt6-fill">
                    <g>
                        <g>
                            <g transform="matrix(1,0,0,1,23.48,31.2)">
                                <text x="0px" y="0px" style="font-family:'ArialMT', 'Arial', sans-serif;font-size:15px;fill:rgb(44,44,44);">Seamless integration</text>
                            </g>
                            <g transform="matrix(1,0,0,1,44.4,49.2)">
                                <text x="0px" y="0px" style="font-family:'ArialMT', 'Arial', sans-serif;font-size:15px;fill:rgb(44,44,44);">with CRM and <tspan x="97.537px 107.542px " y="0px 0px ">AP</tspan>I</text>
                            </g>
                            <g transform="matrix(1,0,0,1,103.7,67.2)">
                                <text x="0px" y="0px" style="font-family:'ArialMT', 'Arial', sans-serif;font-size:15px;fill:rgb(44,44,44);">systems.</text>
                            </g>
                        </g>
                    </g>
                </g>
            </g>
            <g id="g-root-tx_supportf_1hduax85w2ewz-fill" transform="matrix(1,0,0,1,350,278)">
                <g id="tx_supportf_1hduax85w2ewz-fill">
                    <g>
                        <g>
                            <g transform="matrix(1,0,0,1,12,31.2)">
                                <text x="0px" y="0px" style="font-family:'ArialMT', 'Arial', sans-serif;font-size:15px;fill:rgb(44,44,44);">Support for multiple</text>
                            </g>
                            <g transform="matrix(1,0,0,1,12,49.2)">
                                <text x="0px" y="0px" style="font-family:'ArialMT', 'Arial', sans-serif;font-size:15px;fill:rgb(44,44,44);">languages to cater to</text>
                            </g>
                            <g transform="matrix(1,0,0,1,12,67.2)">
                                <text x="0px" y="0px" style="font-family:'ArialMT', 'Arial', sans-serif;font-size:15px;fill:rgb(44,44,44);">diverse audiences.</text>
                            </g>
                        </g>
                    </g>
                </g>
            </g>
            <g id="g-root-tx_realtime_hva9xo5vy686-fill" transform="matrix(1,0,0,1,74,74)">
                <g id="tx_realtime_hva9xo5vy686-fill">
                    <g>
                        <g>
                            <g transform="matrix(1,0,0,1,19.33,34)">
                                <text x="0px" y="0px" style="font-family:'Arial-BoldMT', 'Arial', sans-serif;font-weight:700;font-size:20px;fill:rgb(44,44,44);">Real-T<tspan x="60.762px 66.318px " y="0px 0px ">im</tspan>e Call</text>
                            </g>
                            <g transform="matrix(1,0,0,1,68.85,58)">
                                <text x="0px" y="0px" style="font-family:'Arial-BoldMT', 'Arial', sans-serif;font-weight:700;font-size:20px;fill:rgb(44,44,44);">Analytics</text>
                            </g>
                        </g>
                    </g>
                </g>
            </g>
            <g id="g-root-tx_customiv_146r45o5vzjt0-fill" transform="matrix(1,0,0,1,74,362)">
                <g id="tx_customiv_146r45o5vzjt0-fill">
                    <g>
                        <g>
                            <g transform="matrix(1,0,0,1,21.65,34)">
                                <text x="0px" y="0px" style="font-family:'Arial-BoldMT', 'Arial', sans-serif;font-weight:700;font-size:20px;fill:rgb(44,44,44);">Custom IVR</text>
                            </g>
                            <g transform="matrix(1,0,0,1,65.98,58)">
                                <text x="0px" y="0px" style="font-family:'Arial-BoldMT', 'Arial', sans-serif;font-weight:700;font-size:20px;fill:rgb(44,44,44);">Design</text>
                            </g>
                        </g>
                    </g>
                </g>
            </g>
            <g id="g-root-tx_crmapiin_4gpe4s5vzksh-fill" transform="matrix(1,0,0,1,98,218)">
                <g id="tx_crmapiin_4gpe4s5vzksh-fill">
                    <g>
                        <g>
                            <g transform="matrix(1,0,0,1,17.33,34)">
                                <text x="0px" y="0px" style="font-family:'Arial-BoldMT', 'Arial', sans-serif;font-weight:700;font-size:20px;fill:rgb(44,44,44);">CRM &amp; <tspan x="70.361px 84.805px " y="0px 0px ">AP</tspan>I</text>
                            </g>
                            <g transform="matrix(1,0,0,1,17.67,58)">
                                <text x="0px" y="0px" style="font-family:'Arial-BoldMT', 'Arial', sans-serif;font-weight:700;font-size:20px;fill:rgb(44,44,44);">Integration</text>
                            </g>
                        </g>
                    </g>
                </g>
            </g>
            <g id="g-root-tx_scalable_1qd85os5w0xz4-fill" transform="matrix(1,0,0,1,338,122)">
                <g id="tx_scalable_1qd85os5w0xz4-fill">
                    <g>
                        <g>
                            <g transform="matrix(1,0,0,1,12,28.2)">
                                <text x="0px" y="0px" style="font-family:'ArialMT', 'Arial', sans-serif;font-size:15px;fill:rgb(44,44,44);">Scalable and</text>
                            </g>
                            <g transform="matrix(1,0,0,1,12,46.2)">
                                <text x="0px" y="0px" style="font-family:'ArialMT', 'Arial', sans-serif;font-size:15px;fill:rgb(44,44,44);">accessible cloud-</text>
                            </g>
                            <g transform="matrix(1,0,0,1,12,64.2)">
                                <text x="0px" y="0px" style="font-family:'ArialMT', 'Arial', sans-serif;font-size:15px;fill:rgb(44,44,44);">based deployment</text>
                            </g>
                            <g transform="matrix(1,0,0,1,12,82.2)">
                                <text x="0px" y="0px" style="font-family:'ArialMT', 'Arial', sans-serif;font-size:15px;fill:rgb(44,44,44);">solutions.</text>
                            </g>
                        </g>
                    </g>
                </g>
            </g>
            <g id="g-root-tx_multilev_1lqjfm45w3r45-fill" transform="matrix(1,0,0,1,362,362)">
                <g id="tx_multilev_1lqjfm45w3r45-fill">
                    <g>
                        <g>
                            <g transform="matrix(1,0,0,1,12,34)">
                                <text x="0px" y="0px" style="font-family:'Arial-BoldMT', 'Arial', sans-serif;font-weight:700;font-size:20px;fill:rgb(44,44,44);">Multi-Level</text>
                            </g>
                            <g transform="matrix(1,0,0,1,12,58)">
                                <text x="0px" y="0px" style="font-family:'Arial-BoldMT', 'Arial', sans-serif;font-weight:700;font-size:20px;fill:rgb(44,44,44);">Menu Support</text>
                            </g>
                        </g>
                    </g>
                </g>
            </g>
            <g id="g-root-tx_tailored_18ntkgc5vzl6t-fill" transform="matrix(1,0,0,1,38,422)">
                <g id="tx_tailored_18ntkgc5vzl6t-fill">
                    <g>
                        <g>
                            <g transform="matrix(1,0,0,1,18.83,28.2)">
                                <text x="0px" y="0px" style="font-family:'ArialMT', 'Arial', sans-serif;font-size:15px;fill:rgb(44,44,44);">T<tspan x="7.5px 15.842px " y="0px 0px ">ai</tspan>lored IVR solutions</text>
                            </g>
                            <g transform="matrix(1,0,0,1,49.13,46.2)">
                                <g transform="matrix(15,0,0,15,96.709,0)">
                                </g>
                                <g transform="matrix(15,0,0,15,100.876,0)">
                                </g>
                                <text x="0px" y="0px" style="font-family:'ArialMT', 'Arial', sans-serif;font-size:15px;fill:rgb(44,44,44);">to match speciﬁc</text>
                            </g>
                            <g transform="matrix(1,0,0,1,104.18,64.2)">
                                <text x="0px" y="0px" style="font-family:'ArialMT', 'Arial', sans-serif;font-size:15px;fill:rgb(44,44,44);">business</text>
                            </g>
                            <g transform="matrix(1,0,0,1,71.77,82.2)">
                                <text x="0px" y="0px" style="font-family:'ArialMT', 'Arial', sans-serif;font-size:15px;fill:rgb(44,44,44);">requirements.</text>
                            </g>
                        </g>
                    </g>
                </g>
            </g>
            <g id="g-root-tx_immediat_1hegs0c5vy6tr-fill" transform="matrix(1,0,0,1,62,134)">
                <g id="tx_immediat_1hegs0c5vy6tr-fill">
                    <g>
                        <g>
                            <g transform="matrix(1,0,0,1,36.15,31.2)">
                                <text x="0px" y="0px" style="font-family:'ArialMT', 'Arial', sans-serif;font-size:15px;fill:rgb(44,44,44);">Immediate insights</text>
                            </g>
                            <g transform="matrix(1,0,0,1,22.18,49.2)">
                                <text x="0px" y="0px" style="font-family:'ArialMT', 'Arial', sans-serif;font-size:15px;fill:rgb(44,44,44);">into call performance</text>
                            </g>
                            <g transform="matrix(1,0,0,1,89.12,67.2)">
                                <text x="0px" y="0px" style="font-family:'ArialMT', 'Arial', sans-serif;font-size:15px;fill:rgb(44,44,44);">and trends.</text>
                            </g>
                        </g>
                    </g>
                </g>
            </g>
            <g id="g-root-tx_efficien_1cw5djg5w3u2u-fill" transform="matrix(1,0,0,1,362,422)">
                <g id="tx_efficien_1cw5djg5w3u2u-fill">
                    <g>
                        <g>
                            <g transform="matrix(1,0,0,1,12,31.2)">
                                <g transform="matrix(15,0,0,15,10.0049,0)">
                                </g>
                                <g transform="matrix(15,0,0,15,14.0389,0)">
                                </g>
                                <g transform="matrix(15,0,0,15,18.073,0)">
                                </g>
                                <text x="0px" y="0px" style="font-family:'ArialMT', 'Arial', sans-serif;font-size:15px;fill:rgb(44,44,44);">Eﬃcient navigation</text>
                            </g>
                            <g transform="matrix(1,0,0,1,12,49.2)">
                                <text x="0px" y="0px" style="font-family:'ArialMT', 'Arial', sans-serif;font-size:15px;fill:rgb(44,44,44);">with multi-level menu</text>
                            </g>
                            <g transform="matrix(1,0,0,1,12,67.2)">
                                <text x="0px" y="0px" style="font-family:'ArialMT', 'Arial', sans-serif;font-size:15px;fill:rgb(44,44,44);">options.</text>
                            </g>
                        </g>
                    </g>
                </g>
            </g>
            <g id="g-root-tx_cloudbas_144vowc5w0y6n-fill" transform="matrix(1,0,0,1,338,62)">
                <g id="tx_cloudbas_144vowc5w0y6n-fill">
                    <g>
                        <g>
                            <g transform="matrix(1,0,0,1,12,34)">
                                <text x="0px" y="0px" style="font-family:'Arial-BoldMT', 'Arial', sans-serif;font-weight:700;font-size:20px;fill:rgb(44,44,44);">Cloud-Based</text>
                            </g>
                            <g transform="matrix(1,0,0,1,12,58)">
                                <text x="0px" y="0px" style="font-family:'Arial-BoldMT', 'Arial', sans-serif;font-weight:700;font-size:20px;fill:rgb(44,44,44);">Deployment</text>
                            </g>
                        </g>
                    </g>
                </g>
            </g>
            <g id="g-root-cp_5_text-5_1ur68jw5vwt8i-stroke" transform="matrix(1,0,0,1,50,62)">
                <g id="cp_5_text-5_1ur68jw5vwt8i-stroke">
                    <g>
                        <path d="M10,154L10,10L238,10L238,154" style="fill:none;stroke:rgb(44,44,44);stroke-width:2px;"/>
                    </g>
                </g>
            </g>
            <g id="g-root-cp_5_stick-5_144vowc5vwt8k-stroke" transform="matrix(1,0,0,1,266,206)">
                <g id="cp_5_stick-5_144vowc5vwt8k-stroke">
                    <g>
                        <path d="M21.996,346L21.996,10" style="fill:none;stroke:rgb(44,44,44);stroke-width:2px;"/>
                    </g>
                </g>
            </g>
            <g id="g-root-cp_3_text-3_qu1nm45vwrnq-stroke" transform="matrix(1,0,0,1,38,206)">
                <g id="cp_3_text-3_qu1nm45vwrnq-stroke">
                    <g>
                        <path d="M10,154L10,10L238,10L238,154" style="fill:none;stroke:rgb(44,44,44);stroke-width:2px;"/>
                    </g>
                </g>
            </g>
            <g id="g-root-cp_3_stick-3_dil58s5vwt8o-stroke" transform="matrix(1,0,0,1,254,350)">
                <g id="cp_3_stick-3_dil58s5vwt8o-stroke">
                    <g>
                        <path d="M21.996,202L21.996,10" style="fill:none;stroke:rgb(44,44,44);stroke-width:2px;"/>
                    </g>
                </g>
            </g>
            <g id="g-root-cp_1_text-1_93e47g5vwqv6-stroke" transform="matrix(1,0,0,1,26,350)">
                <g id="cp_1_text-1_93e47g5vwqv6-stroke">
                    <g>
                        <path d="M238,166L238,10L10,10L10,166L226,166" style="fill:none;stroke:rgb(44,44,44);stroke-width:2px;"/>
                    </g>
                </g>
            </g>
            <g id="g-root-cp_1_stick-1_146r45o5vws90-stroke" transform="matrix(1,0,0,1,242,434)">
                <g id="cp_1_stick-1_146r45o5vws90-stroke">
                    <g>
                        <path d="M21.996,118L21.996,10M10,118L10,82" style="fill:none;stroke:rgb(44,44,44);stroke-width:2px;"/>
                    </g>
                </g>
            </g>
            <g id="g-root-cp_6_text-6_dkgki45vws92-stroke" transform="matrix(1,0,0,1,278,50)">
                <g id="cp_6_text-6_dkgki45vws92-stroke">
                    <g>
                        <path d="M238,166L238,10L10,10L10,166" style="fill:none;stroke:rgb(44,44,44);stroke-width:2px;"/>
                    </g>
                </g>
            </g>
            <g id="g-root-cp_6_stick-6_1lza2to5vws20-stroke" transform="matrix(1,0,0,1,278,206)">
                <g id="cp_6_stick-6_1lza2to5vws20-stroke">
                    <g>
                        <path d="M10.004,346L10.004,10" style="fill:none;stroke:rgb(44,44,44);stroke-width:2px;"/>
                    </g>
                </g>
            </g>
            <g id="g-root-cp_4_text-4_18egg5o5vy51m-stroke" transform="matrix(1,0,0,1,290,206)">
                <g id="cp_4_text-4_18egg5o5vy51m-stroke">
                    <g>
                        <path d="M238,154L238,10L10,10L10,154" style="fill:none;stroke:rgb(44,44,44);stroke-width:2px;"/>
                    </g>
                </g>
            </g>
            <g id="g-root-cp_4_stick-4_v2zxsc5vy6mk-stroke" transform="matrix(1,0,0,1,290,350)">
                <g id="cp_4_stick-4_v2zxsc5vy6mk-stroke">
                    <g>
                        <path d="M10.004,202L10.004,10" style="fill:none;stroke:rgb(44,44,44);stroke-width:2px;"/>
                    </g>
                </g>
            </g>
            <g id="g-root-cp_2_text-2_hs5wi45vy51q-stroke" transform="matrix(1,0,0,1,302,350)">
                <g id="cp_2_text-2_hs5wi45vy51q-stroke">
                    <g>
                        <path d="M10,154L10,10L238,10L238,154L22,154" style="fill:none;stroke:rgb(44,44,44);stroke-width:2px;"/>
                    </g>
                </g>
            </g>
            <g id="g-root-cp_2_stick-2_1umswy45vy4u8-stroke" transform="matrix(1,0,0,1,302,434)">
                <g id="cp_2_stick-2_1umswy45vy4u8-stroke">
                    <g>
                        <path d="M10.004,118L10.004,10M22,118L22,70" style="fill:none;stroke:rgb(44,44,44);stroke-width:2px;"/>
                    </g>
                </g>
            </g>
            <g id="g-root-cp_0_g-0_hteuoc5vy77u-stroke" transform="matrix(1,0,0,1,242,542)">
                <g id="cp_0_g-0_hteuoc5vy77u-stroke">
                    <g>
                        <path d="M33.994,61L46.01,86L58.005,61L33.994,61Z" style="fill:none;stroke:rgb(44,44,44);stroke-width:2px;"/>
                    </g>
                </g>
                <g id="cp_0_g-0_hteuoc5vy77u-stroke1" serif:id="cp_0_g-0_hteuoc5vy77u-stroke">
                    <g>
                        <path d="M82,10L10,10L34,61L58.001,61L82,10Z" style="fill:none;stroke:rgb(44,44,44);stroke-width:2px;"/>
                    </g>
                </g>
            </g>
            <g id="g-root-ic_1_hx5p705vy58g-stroke" transform="matrix(1,0,0,1,230,74)">
                <g id="ic_1_hx5p705vy58g-stroke">
                    <g>
                        <path d="M22.75,28.417C26.731,28.412 29.979,25.23 30.066,21.25L22.75,21.25L22.75,13.75C18.7,13.751 15.417,17.034 15.417,21.084C15.417,25.133 18.7,28.416 22.75,28.417ZM28.018,32.216C24.299,30.399 19.905,30.627 16.394,32.82C12.883,35.013 10.749,38.86 10.75,43L26.5,43M33.065,18.25C33.065,18.193 33.082,18.14 33.082,18.084C33.082,14.034 29.8,10.751 25.75,10.75L25.75,18.25L33.065,18.25ZM45.25,40.75C43.907,39.42 43.105,37.638 43,35.751L43,33.25C43,29.936 40.314,27.25 37,27.25C33.686,27.25 31,29.936 31,33.25L31,35.751C30.895,37.638 30.093,39.42 28.75,40.75L45.25,40.75ZM35.07,43.75C35.294,44.632 36.088,45.25 36.999,45.25C37.909,45.25 38.703,44.632 38.927,43.75" style="fill:none;stroke:rgb(44,44,44);stroke-width:2px;"/>
                    </g>
                </g>
            </g>
            <g id="g-root-ic_chat_597m45w2ex0-stroke" transform="matrix(1,0,0,1,302,218)">
                <g id="ic_chat_597m45w2ex0-stroke">
                    <g>
                        <path d="M30.25,34.75L41.5,34.75M30.25,37.75L37.75,37.75M31.75,28.75C31.68,26.939 32.368,25.181 33.65,23.9C34.931,22.618 36.689,21.93 38.5,22C40.311,21.93 42.069,22.618 43.35,23.9C44.632,25.181 45.32,26.939 45.25,28.75L31.75,28.75ZM34,15.25C34,17.735 36.015,19.75 38.5,19.75C40.985,19.75 43,17.735 43,15.25C43,12.765 40.985,10.75 38.5,10.75C36.015,10.75 34,12.765 34,15.25ZM42.957,14.624C42.161,15.044 41.274,15.259 40.375,15.25C38.219,15.251 36.253,14.019 35.313,12.079M10.75,45.25C10.68,43.439 11.368,41.681 12.65,40.4C13.931,39.118 15.689,38.43 17.5,38.5C19.311,38.43 21.069,39.118 22.35,40.4C23.632,41.681 24.32,43.439 24.25,45.25L10.75,45.25ZM13,31.75C13,34.235 15.015,36.25 17.5,36.25C19.985,36.25 22,34.235 22,31.75C22,29.265 19.985,27.25 17.5,27.25C15.015,27.25 13,29.265 13,31.75ZM21.959,31.15C21.174,31.554 20.302,31.76 19.418,31.75C17.249,31.75 15.273,30.504 14.339,28.546M28.75,31.75C27.922,31.75 27.25,32.422 27.25,33.25L27.25,40.75C27.25,41.578 27.922,42.25 28.75,42.25L31,42.25L31,45.25L34.75,42.25L43.75,42.25C44.578,42.25 45.25,41.578 45.25,40.75L45.25,33.25C45.25,32.422 44.578,31.75 43.75,31.75L28.75,31.75ZM25,13.75L13.75,13.75M21.25,16.75L13.75,16.75M27.25,10.75C28.078,10.75 28.75,11.422 28.75,12.25L28.75,19.75C28.75,20.578 28.078,21.25 27.25,21.25L25,21.25L25,25L21.25,21.25L12.25,21.25C11.422,21.25 10.75,20.578 10.75,19.75L10.75,12.25C10.75,11.422 11.422,10.75 12.25,10.75L27.25,10.75Z" style="fill:none;stroke:rgb(44,44,44);stroke-width:2px;"/>
                    </g>
                </g>
            </g>
            <g id="g-root-ic_robo_4gpe4s5w0y6e-stroke" transform="matrix(1,0,0,1,206,362)">
                <g id="ic_robo_4gpe4s5w0y6e-stroke">
                    <g>
                        <path d="M27.865,18.766L13.605,18.766C12.674,18.766 11.919,19.521 11.919,20.452L11.919,42.373C11.919,43.304 12.674,44.059 13.605,44.059L35.526,44.059C36.458,44.059 37.213,43.304 37.213,42.373L37.213,30.556M24.565,31.31C26.754,31.31 28.528,29.535 28.528,27.346C28.528,25.157 26.754,23.383 24.565,23.383C22.376,23.383 20.601,25.157 20.601,27.346C20.601,29.535 22.376,31.31 24.565,31.31ZM17.629,39.436C17.629,35.671 20.8,32.5 24.565,32.5C28.33,32.5 31.501,35.671 31.501,39.436M34.501,15.801L41.08,15.801C41.08,15.801 44.08,15.801 44.08,18.801L44.08,22.587C44.08,22.587 44.08,25.587 41.08,25.587L34.501,25.587C34.501,25.587 31.501,25.587 31.501,22.587L31.501,18.801C31.501,18.801 31.501,15.801 34.501,15.801M37.791,11.941L37.791,15.801M35.488,19.794L35.488,21.596M40.094,19.794L40.094,21.596" style="fill:none;stroke:rgb(44,44,44);stroke-width:2px;"/>
                    </g>
                </g>
            </g>
            <g id="g-root-ic_sky_qvalsc5w0yrt-stroke" transform="matrix(1,0,0,1,290,62)">
                <g id="ic_sky_qvalsc5w0yrt-stroke">
                    <g>
                        <path d="M29.8,17.599C30.104,16.718 29.939,15.744 29.363,15.012C28.786,14.28 27.877,13.892 26.95,13.981C26.195,11.819 23.99,10.518 21.732,10.902C19.475,11.285 17.824,13.242 17.826,15.532C15.443,15.533 13.511,17.465 13.511,19.848C13.511,22.23 15.443,24.162 17.826,24.163L28,24.163C29.586,24.157 30.974,23.094 31.393,21.565C31.813,20.035 31.161,18.413 29.8,17.599ZM40.75,37.414L40.75,45.163L31.75,45.163L31.75,37.414M29.5,39.163L36.25,33.913L43,39.163M10.75,45.163L45.25,45.163M20.5,28.663L22.75,26.413L25,28.663M25,40.663L22.75,42.913L20.5,40.663M22.75,26.413L22.75,30.163M22.75,39.163L22.75,42.913M22.75,33.163L22.75,36.163" style="fill:none;stroke:rgb(44,44,44);stroke-width:2px;"/>
                    </g>
                </g>
            </g>
            <g id="g-root-ic_head_8z0slo5w3shz-stroke" transform="matrix(1,0,0,1,314,362)">
                <g id="ic_head_8z0slo5w3shz-stroke">
                    <g>
                        <path d="M45.25,18.25C45.25,19.078 44.578,19.75 43.75,19.75L12.25,19.75C11.422,19.75 10.75,19.078 10.75,18.25L10.75,13.75C10.75,12.922 11.422,12.25 12.25,12.25L43.75,12.25C44.578,12.25 45.25,12.922 45.25,13.75L45.25,18.25ZM45.25,30.25C45.25,31.078 44.578,31.75 43.75,31.75L12.25,31.75C11.422,31.75 10.75,31.078 10.75,30.25L10.75,25.75C10.75,24.922 11.422,24.25 12.25,24.25L43.75,24.25C44.578,24.25 45.25,24.922 45.25,25.75L45.25,30.25ZM45.25,42.25C45.25,43.078 44.578,43.75 43.75,43.75L12.25,43.75C11.422,43.75 10.75,43.078 10.75,42.25L10.75,37.75C10.75,36.922 11.422,36.25 12.25,36.25L43.75,36.25C44.578,36.25 45.25,36.922 45.25,37.75L45.25,42.25Z" style="fill:none;stroke:rgb(44,44,44);stroke-width:2px;"/>
                    </g>
                </g>
            </g>
            <g id="g-root-ic_api_1uo1v4c5vzkeb-stroke" transform="matrix(1,0,0,1,218,218)">
                <g id="ic_api_1uo1v4c5vzkeb-stroke">
                    <g>
                        <path d="M43.632,45.25L43.632,36.784M42.013,36.784L45.25,36.784M42.013,45.25L45.25,45.25M33.112,45.25L33.112,41.638M33.112,41.638L35.541,41.638C36.881,41.638 37.967,40.551 37.967,39.211C37.967,37.871 36.881,36.784 35.541,36.784L33.112,36.784L33.112,41.638ZM21.784,45.25L22.698,38.784C22.869,37.631 23.858,36.778 25.023,36.778C26.187,36.778 27.176,37.631 27.348,38.784L28.261,45.25M22.21,42.043L27.834,42.043M38.875,34.632C39.564,33.243 40.069,31.77 40.375,30.25L43.75,30.25C44.578,30.25 45.25,29.578 45.25,28.75L45.25,27.25C45.25,26.422 44.578,25.75 43.75,25.75L40.38,25.75C40.074,24.23 39.569,22.756 38.88,21.367L41.258,18.985C41.844,18.399 41.844,17.45 41.258,16.864L39.136,14.742C38.55,14.156 37.601,14.156 37.015,14.742L34.63,17.125C33.242,16.435 31.77,15.931 30.25,15.625L30.25,12.25C30.25,11.422 29.578,10.75 28.75,10.75L27.25,10.75C26.422,10.75 25.75,11.422 25.75,12.25L25.75,15.622C24.23,15.928 22.757,16.432 21.369,17.122L18.984,14.742C18.398,14.156 17.448,14.156 16.862,14.742L14.74,16.864C14.154,17.45 14.154,18.399 14.74,18.985L17.125,21.369C16.436,22.757 15.931,24.23 15.625,25.75L12.25,25.75C11.422,25.75 10.75,26.422 10.75,27.25L10.75,28.75C10.75,29.578 11.422,30.25 12.25,30.25L15.619,30.25C15.925,31.77 16.43,33.243 17.119,34.632L14.734,37.016C14.148,37.602 14.148,38.552 14.734,39.137L16.857,41.258C17.442,41.844 18.392,41.844 18.978,41.258M24.172,33.561C21.832,31.95 20.751,29.046 21.468,26.297C22.185,23.548 24.546,21.543 27.375,21.28C30.203,21.017 32.894,22.553 34.105,25.122C35.316,27.692 34.789,30.745 32.786,32.759" style="fill:none;stroke:rgb(44,44,44);stroke-width:2px;"/>
                    </g>
                </g>
            </g>
        </g>
    </g>
</svg>
