<?xml version="1.0" encoding="UTF-8" standalone="no"?>
<!DOCTYPE svg PUBLIC "-//W3C//DTD SVG 1.1//EN" "http://www.w3.org/Graphics/SVG/1.1/DTD/svg11.dtd">
<svg width="100%" height="100%" viewBox="0 0 618 636" version="1.1" xmlns="http://www.w3.org/2000/svg" xmlns:xlink="http://www.w3.org/1999/xlink" xml:space="preserve" xmlns:serif="http://www.serif.com/" style="fill-rule:evenodd;clip-rule:evenodd;stroke-linecap:round;stroke-linejoin:round;">
    <g id="items" transform="matrix(1.21388,0,0,1.21388,-66.0886,-108.02)">
        <g id="blend">
            <g id="g-root-cp_1_sign-1_1hfp0sd6zqygx-fill" transform="matrix(1,0,0,1,98,122)">
                <g id="cp_1_sign-1_1hfp0sd6zqygx-fill">
                    <g>
                        <path d="M10,52L28,10L28,94L10,52ZM28,10L201,10L201,94L28,94L28,10Z" style="fill:rgb(79,145,252);"/>
                    </g>
                </g>
            </g>
            <g id="g-root-cp_3_sign-3_qteh4t6zqygz-fill" transform="matrix(1,0,0,1,86,218)">
                <g id="cp_3_sign-3_qteh4t6zqygz-fill">
                    <g>
                        <path d="M10,52L28,10L28,94L10,52ZM28,10L213,10L213,94L28,94L28,10Z" style="fill:rgb(166,218,55);"/>
                    </g>
                </g>
            </g>
            <g id="g-root-cp_5_sign-5_4mxflp6zqxot-fill" transform="matrix(1,0,0,1,50,314)">
                <g id="cp_5_sign-5_4mxflp6zqxot-fill">
                    <g>
                        <path d="M10,52L28,10L28,94L10,52ZM28,10L249,10L249,94L28,94L28,10Z" style="fill:rgb(26,195,251);"/>
                    </g>
                </g>
            </g>
            <g id="g-root-cp_pole_g-pole_1qckz7h6zqz2n-fill" transform="matrix(1,0,0,1,287,98)">
                <g id="cp_pole_g-pole_1qckz7h6zqz2n-fill">
                    <g>
                        <path d="M31,370L13,370L13,484L31,484L31,483.897L24.55,483.88C24.55,483.88 25.3,477.89 17.74,476.78C25.63,473.53 28.41,478.56 28.41,478.56C28.41,478.56 27.994,471.986 31,466.2L31,370ZM13,22L31,22L31,370L13,370L13,22Z" style="fill:rgb(171,171,171);"/>
                    </g>
                </g>
                <g id="cp_pole_g-pole_1qckz7h6zqz2n-fill1" serif:id="cp_pole_g-pole_1qckz7h6zqz2n-fill">
                    <g>
                        <rect x="10" y="10" width="24" height="12" style="fill:rgb(171,171,171);"/>
                    </g>
                </g>
            </g>
            <g id="g-root-cp_pole_plant_1hhkg1p6zqxhe-fill" transform="matrix(1,0,0,1,255,547)">
                <g id="cp_pole_plant_1hhkg1p6zqxhe-fill">
                    <g>
                        <path d="M60.393,29.56C60.393,29.56 57.613,24.53 49.723,27.78C54.516,28.484 57.019,30.471 56.533,35.008L10,35.008C10,35.008 17.976,46.521 54.183,46.521C90.39,46.521 97.76,35.008 97.76,35.008L71.483,35.008C68.788,30.384 74.815,23.86 80.883,26.67C78.883,23.56 72.993,22.89 68.553,26C66.693,20.52 67.443,13.77 70.613,10C59.453,14.7 60.393,29.56 60.393,29.56Z" style="fill:rgb(145,187,57);"/>
                    </g>
                </g>
            </g>
            <g id="g-root-cp_2_sign-2_1463xod6zqz2c-fill" transform="matrix(1,0,0,1,309,158)">
                <g id="cp_2_sign-2_1463xod6zqz2c-fill">
                    <g>
                        <path d="M10,10L231,10L231,94L10,94L10,10ZM249,52L231,10L231,94L249,52Z" style="fill:rgb(67,221,147);"/>
                    </g>
                </g>
            </g>
            <g id="g-root-cp_4_sign-4_vb3eil6zqwpa-fill" transform="matrix(1,0,0,1,309,254)">
                <g id="cp_4_sign-4_vb3eil6zqwpa-fill">
                    <g>
                        <path d="M10,10L195,10L195,118L10,118L10,10ZM213,64L195,10L195,118L213,64Z" style="fill:rgb(255,231,17);"/>
                    </g>
                </g>
            </g>
            <g id="g-root-cp_6_sign-6_djte0t6zqz2g-fill" transform="matrix(1,0,0,1,309,374)">
                <g id="cp_6_sign-6_djte0t6zqz2g-fill">
                    <g>
                        <path d="M10,10L207,10L207,94L10,94L10,10ZM225,52L207,10L207,94L225,52Z" style="fill:rgb(243,102,187);"/>
                    </g>
                </g>
            </g>
            <g id="g-root-tx_tailored_18mjwvx700rnm-fill" transform="matrix(1,0,0,1,170,140)">
                <g id="tx_tailored_18mjwvx700rnm-fill">
                    <g>
                        <g>
                            <g transform="matrix(1,0,0,1,44.67,34)">
                                <text x="0px" y="0px" style="font-family:'ArialMT', 'Arial', sans-serif;font-size:20px;fill:rgb(44,44,44);">T<tspan x="10px 21.123px " y="0px 0px ">ai</tspan>lored</text>
                            </g>
                            <g transform="matrix(1,0,0,1,18.52,58)">
                                <text x="0px" y="0px" style="font-family:'ArialMT', 'Arial', sans-serif;font-size:20px;fill:rgb(44,44,44);">Experience</text>
                            </g>
                        </g>
                    </g>
                </g>
            </g>
            <g id="g-root-tx_betterfi_1qegegt704yrs-fill" transform="matrix(1,0,0,1,320,176)">
                <g id="tx_betterfi_1qegegt704yrs-fill">
                    <g>
                        <g>
                            <g transform="matrix(1,0,0,1,12,34)">
                                <text x="0px" y="0px" style="font-family:'ArialMT', 'Arial', sans-serif;font-size:20px;fill:rgb(44,44,44);">Better First-Call</text>
                            </g>
                            <g transform="matrix(1,0,0,1,12,58)">
                                <text x="0px" y="0px" style="font-family:'ArialMT', 'Arial', sans-serif;font-size:20px;fill:rgb(44,44,44);">Resolution</text>
                            </g>
                        </g>
                    </g>
                </g>
            </g>
            <g id="g-root-tx_boostinp_qp15j1703j7o-fill" transform="matrix(1,0,0,1,158,236)">
                <g id="tx_boostinp_qp15j1703j7o-fill">
                    <g>
                        <g>
                            <g transform="matrix(1,0,0,1,54.98,34)">
                                <text x="0px" y="0px" style="font-family:'ArialMT', 'Arial', sans-serif;font-size:20px;fill:rgb(44,44,44);">Boost in</text>
                            </g>
                            <g transform="matrix(1,0,0,1,22.63,58)">
                                <text x="0px" y="0px" style="font-family:'ArialMT', 'Arial', sans-serif;font-size:20px;fill:rgb(44,44,44);">Productivity</text>
                            </g>
                        </g>
                    </g>
                </g>
            </g>
            <g id="g-root-tx_enhanced_1hgxyyl706epu-fill" transform="matrix(1,0,0,1,320,272)">
                <g id="tx_enhanced_1hgxyyl706epu-fill">
                    <g>
                        <g>
                            <g transform="matrix(1,0,0,1,12,34)">
                                <text x="0px" y="0px" style="font-family:'ArialMT', 'Arial', sans-serif;font-size:20px;fill:rgb(44,44,44);">Enhanced</text>
                            </g>
                            <g transform="matrix(1,0,0,1,12,58)">
                                <text x="0px" y="0px" style="font-family:'ArialMT', 'Arial', sans-serif;font-size:20px;fill:rgb(44,44,44);">Customer</text>
                            </g>
                            <g transform="matrix(1,0,0,1,12,82)">
                                <text x="0px" y="0px" style="font-family:'ArialMT', 'Arial', sans-serif;font-size:20px;fill:rgb(44,44,44);">Satisfaction</text>
                            </g>
                        </g>
                    </g>
                </g>
            </g>
            <g id="g-root-tx_reliable_8pj17050r2-fill" transform="matrix(1,0,0,1,122,332)">
                <g id="tx_reliable_8pj17050r2-fill">
                    <g>
                        <g>
                            <g transform="matrix(1,0,0,1,22.45,34)">
                                <text x="0px" y="0px" style="font-family:'ArialMT', 'Arial', sans-serif;font-size:20px;fill:rgb(44,44,44);">Reliable System</text>
                            </g>
                            <g transform="matrix(1,0,0,1,100.25,58)">
                                <text x="0px" y="0px" style="font-family:'ArialMT', 'Arial', sans-serif;font-size:20px;fill:rgb(44,44,44);">Uptime</text>
                            </g>
                        </g>
                    </g>
                </g>
            </g>
            <g id="g-root-tx_affordab_18n6h4t6zlatg-fill" transform="matrix(1,0,0,1,320,392)">
                <g id="tx_affordab_18n6h4t6zlatg-fill">
                    <g>
                        <g>
                            <g transform="matrix(1,0,0,1,12,34)">
                                <g transform="matrix(20,0,0,20,13.3398,0)">
                                </g>
                                <g transform="matrix(20,0,0,20,18.6816,0)">
                                </g>
                                <text x="0px" y="0px" style="font-family:'ArialMT', 'Arial', sans-serif;font-size:20px;fill:rgb(44,44,44);">Aﬀordable</text>
                            </g>
                            <g transform="matrix(1,0,0,1,12,58)">
                                <text x="0px" y="0px" style="font-family:'ArialMT', 'Arial', sans-serif;font-size:20px;fill:rgb(44,44,44);">Pricing Plans</text>
                            </g>
                        </g>
                    </g>
                </g>
            </g>
            <g id="g-root-cp_1_sign-1_1hfp0sd6zqygx-stroke" transform="matrix(1,0,0,1,98,122)">
                <g id="cp_1_sign-1_1hfp0sd6zqygx-stroke">
                    <g>
                        <path d="M28,10L201,10M201,94L28,94M28,94L10,52L28,10" style="fill:none;stroke:rgb(44,44,44);stroke-width:2px;"/>
                    </g>
                </g>
            </g>
            <g id="g-root-cp_3_sign-3_qteh4t6zqygz-stroke" transform="matrix(1,0,0,1,86,218)">
                <g id="cp_3_sign-3_qteh4t6zqygz-stroke">
                    <g>
                        <path d="M28,10L213,10M213,94L28,94M28,94L10,52L28,10" style="fill:none;stroke:rgb(44,44,44);stroke-width:2px;"/>
                    </g>
                </g>
            </g>
            <g id="g-root-cp_5_sign-5_4mxflp6zqxot-stroke" transform="matrix(1,0,0,1,50,314)">
                <g id="cp_5_sign-5_4mxflp6zqxot-stroke">
                    <g>
                        <path d="M28,10L249,10M249,94L28,94M28,94L10,52L28,10" style="fill:none;stroke:rgb(44,44,44);stroke-width:2px;"/>
                    </g>
                </g>
            </g>
            <g id="g-root-cp_pole_g-pole_1qckz7h6zqz2n-stroke" transform="matrix(1,0,0,1,287,98)">
                <g id="cp_pole_g-pole_1qckz7h6zqz2n-stroke">
                    <g>
                        <path d="M31,466L31,370M13,483L13,370M31,370L31,22M13,370L13,22" style="fill:none;stroke:rgb(44,44,44);stroke-width:2px;"/>
                    </g>
                </g>
                <g id="cp_pole_g-pole_1qckz7h6zqz2n-stroke1" serif:id="cp_pole_g-pole_1qckz7h6zqz2n-stroke">
                    <g>
                        <rect x="10" y="10" width="24" height="12" style="fill:none;stroke:rgb(44,44,44);stroke-width:2px;"/>
                    </g>
                </g>
            </g>
            <g id="g-root-cp_pole_plant_1hhkg1p6zqxhe-stroke" transform="matrix(1,0,0,1,255,547)">
                <g id="cp_pole_plant_1hhkg1p6zqxhe-stroke">
                    <g>
                        <path d="M56.55,34.88C56.55,34.88 57.3,28.89 49.74,27.78C57.63,24.53 60.41,29.56 60.41,29.56C60.41,29.56 59.47,14.7 70.63,10C67.46,13.77 66.71,20.52 68.57,26C73.01,22.89 78.9,23.56 80.9,26.67C76.68,24.44 69.89,28.468 71,34.918M71,34.918L98,34.918M10,34.918L56.5,34.918" style="fill:none;stroke:rgb(44,44,44);stroke-width:2px;"/>
                    </g>
                </g>
            </g>
            <g id="g-root-cp_2_sign-2_1463xod6zqz2c-stroke" transform="matrix(1,0,0,1,309,158)">
                <g id="cp_2_sign-2_1463xod6zqz2c-stroke">
                    <g>
                        <path d="M231,94L10,94M10,10L231,10M231,10L249,52L231,94" style="fill:none;stroke:rgb(44,44,44);stroke-width:2px;"/>
                    </g>
                </g>
            </g>
            <g id="g-root-cp_4_sign-4_vb3eil6zqwpa-stroke" transform="matrix(1,0,0,1,309,254)">
                <g id="cp_4_sign-4_vb3eil6zqwpa-stroke">
                    <g>
                        <path d="M195,118L10,118M10,10L195,10M195,10L213,64L195,118" style="fill:none;stroke:rgb(44,44,44);stroke-width:2px;"/>
                    </g>
                </g>
            </g>
            <g id="g-root-cp_6_sign-6_djte0t6zqz2g-stroke" transform="matrix(1,0,0,1,309,374)">
                <g id="cp_6_sign-6_djte0t6zqz2g-stroke">
                    <g>
                        <path d="M207,94L10,94M10,10L207,10M207,10L225,52L207,94" style="fill:none;stroke:rgb(44,44,44);stroke-width:2px;"/>
                    </g>
                </g>
            </g>
            <g id="g-root-ic_pers_dbp7wd6zscn7-stroke" transform="matrix(1,0,0,1,122,146)">
                <g id="ic_pers_dbp7wd6zscn7-stroke">
                    <g>
                        <path d="M11.875,22.375C11.875,24.653 13.722,26.5 16,26.5C18.278,26.5 20.125,24.653 20.125,22.375C20.125,20.097 18.278,18.25 16,18.25C13.722,18.25 11.875,20.097 11.875,22.375M21.25,33.25C21.25,30.351 18.899,28 16,28C13.101,28 10.75,30.351 10.75,33.25L10.75,37.75L13.125,37.75L13.75,45.25L18.25,45.25L18.876,37.75L21.25,37.75L21.25,33.25ZM36.635,37.75L24.25,37.75M25,10.75L34,10.75C34,10.75 34.75,10.75 34.75,11.5L34.75,23.5C34.75,23.5 34.75,24.25 34,24.25L25,24.25C25,24.25 24.25,24.25 24.25,23.5L24.25,11.5C24.25,11.5 24.25,10.75 25,10.75M28,13.75L31,13.75C31,13.75 31.75,13.75 31.75,14.5L31.75,20.5C31.75,20.5 31.75,21.25 31,21.25L28,21.25C28,21.25 27.25,21.25 27.25,20.5L27.25,14.5C27.25,14.5 27.25,13.75 28,13.75M45.25,41.876C45.26,41.973 45.228,42.069 45.162,42.141C45.097,42.212 45.003,42.252 44.907,42.25L36.595,42.25C36.498,42.252 36.405,42.212 36.339,42.141C36.274,42.069 36.242,41.973 36.251,41.877L37.087,32.126C37.109,31.917 37.284,31.756 37.495,31.753L44.005,31.753C44.216,31.756 44.391,31.917 44.413,32.126L45.25,41.876ZM42.25,25L43.75,22.75L37.75,22.75L39.25,25C38.422,25.248 37.855,26.01 37.855,26.875C37.855,27.74 38.422,28.502 39.25,28.75L42.25,28.75C43.078,28.502 43.645,27.74 43.645,26.875C43.645,26.01 43.078,25.248 42.25,25L42.25,25ZM40.75,28.75L40.75,31.75" style="fill:none;stroke:rgb(44,44,44);stroke-width:2px;"/>
                    </g>
                </g>
            </g>
            <g id="g-root-ic_1_4hxmwt704yz3-stroke" transform="matrix(1,0,0,1,488,182)">
                <g id="ic_1_4hxmwt704yz3-stroke">
                    <g>
                        <path d="M33.25,39.25L13.75,39.25M23.5,41.875C23.707,41.875 23.875,42.043 23.875,42.25C23.875,42.457 23.707,42.625 23.5,42.625C23.293,42.625 23.125,42.457 23.125,42.25C23.125,42.043 23.293,41.875 23.5,41.875M33.25,33.25L33.25,42.25C33.25,43.907 31.907,45.25 30.25,45.25L16.75,45.25C15.093,45.25 13.75,43.907 13.75,42.25L13.75,13.75C13.75,12.093 15.093,10.75 16.75,10.75L25,10.75M24.25,19.75C24.25,24.721 28.279,28.75 33.25,28.75C38.221,28.75 42.25,24.721 42.25,19.75C42.25,14.779 38.221,10.75 33.25,10.75C28.279,10.75 24.25,14.779 24.25,19.75ZM37.261,17.134L32.911,22.944C32.715,23.204 32.416,23.367 32.09,23.39C31.765,23.413 31.446,23.295 31.215,23.065L28.965,20.815" style="fill:none;stroke:rgb(44,44,44);stroke-width:2px;"/>
                    </g>
                </g>
            </g>
            <g id="g-root-ic_line_94mczh700sgb-stroke" transform="matrix(1,0,0,1,110,242)">
                <g id="ic_line_94mczh700sgb-stroke">
                    <g>
                        <path d="M17.393,27.959C17.394,33.758 22.095,38.46 27.894,38.46C33.692,38.46 38.394,33.758 38.394,27.96C38.394,22.161 33.692,17.46 27.894,17.46C22.095,17.46 17.394,22.161 17.394,27.96L17.393,27.959ZM20.393,30.959L21.478,29.334C21.708,28.989 22.173,28.896 22.517,29.125L23.583,29.834C23.903,30.046 24.332,29.981 24.576,29.685L27.367,26.332C27.502,26.17 27.699,26.072 27.91,26.063C28.12,26.054 28.325,26.133 28.474,26.282L30.313,28.122C30.462,28.27 30.667,28.349 30.877,28.339C31.087,28.33 31.284,28.232 31.419,28.07L34.644,24.202M44.593,30.333C44.971,30.285 45.253,29.963 45.25,29.583L45.25,26.411C45.253,26.031 44.971,25.709 44.593,25.661L41.216,25.24C40.872,23.586 40.218,22.013 39.289,20.602L41.382,17.91C41.613,17.611 41.587,17.187 41.32,16.92L39.07,14.669C38.803,14.403 38.378,14.376 38.08,14.608L35.387,16.708C33.977,15.779 32.403,15.124 30.749,14.779L30.333,11.407C30.285,11.029 29.963,10.747 29.583,10.75L26.411,10.75C26.031,10.747 25.709,11.029 25.661,11.407L25.24,14.782C23.588,15.128 22.017,15.783 20.608,16.711L17.916,14.618C17.617,14.387 17.193,14.413 16.926,14.68L14.676,16.93C14.409,17.197 14.382,17.622 14.614,17.92L16.714,20.62C15.785,22.031 15.131,23.604 14.787,25.258L11.41,25.68C11.032,25.727 10.75,26.049 10.753,26.43L10.753,29.607C10.75,29.987 11.032,30.309 11.41,30.357L14.787,30.778C15.131,32.432 15.785,34.005 16.714,35.416L14.618,38.084C14.387,38.383 14.413,38.807 14.68,39.075L16.93,41.325C17.197,41.591 17.622,41.618 17.92,41.386L20.62,39.293C22.031,40.223 23.604,40.877 25.258,41.222L25.68,44.597C25.727,44.975 26.049,45.257 26.43,45.255L29.607,45.255C29.987,45.257 30.309,44.975 30.357,44.597L30.778,41.222C32.432,40.877 34.005,40.223 35.416,39.293L38.109,41.386C38.407,41.618 38.831,41.591 39.098,41.325L41.348,39.075C41.615,38.807 41.642,38.383 41.41,38.084L39.318,35.392C40.247,33.981 40.901,32.408 41.245,30.754L44.593,30.333Z" style="fill:none;stroke:rgb(44,44,44);stroke-width:2px;"/>
                    </g>
                </g>
            </g>
            <g id="g-root-ic_2_hriq0t706cjl-stroke" transform="matrix(1,0,0,1,452,290)">
                <g id="ic_2_hriq0t706cjl-stroke">
                    <g>
                        <path d="M25.375,16.375C17.575,16.375 11.125,22.825 11.125,30.625C11.125,38.425 17.575,44.875 25.375,44.875C33.175,44.875 39.625,38.425 39.625,30.625M18.025,34.975C19.375,37.825 22.075,39.625 25.375,39.625C28.675,39.625 31.375,37.825 32.725,34.975M37.375,26.125C41.517,26.125 44.875,22.767 44.875,18.625C44.875,14.483 41.517,11.125 37.375,11.125C33.233,11.125 29.875,14.483 29.875,18.625C29.875,22.767 33.233,26.125 37.375,26.125ZM37.375,15.625L37.375,21.625M34.375,18.625L40.375,18.625M19.75,29.125C19.439,29.125 19.188,28.873 19.188,28.563C19.188,28.252 19.439,28 19.75,28M19.75,29.125C20.061,29.125 20.313,28.873 20.313,28.563C20.313,28.252 20.061,28 19.75,28M31,29.125C30.689,29.125 30.438,28.873 30.438,28.563C30.438,28.252 30.689,28 31,28M31,29.125C31.311,29.125 31.563,28.873 31.563,28.563C31.563,28.252 31.311,28 31,28" style="fill:none;stroke:rgb(44,44,44);stroke-width:2px;"/>
                    </g>
                </g>
            </g>
            <g id="g-root-ic_2_18gxn3x703m6d-stroke" transform="matrix(1,0,0,1,74,338)">
                <g id="ic_2_18gxn3x703m6d-stroke">
                    <g>
                        <path d="M19.927,27.994L28.006,27.994L33.882,35.338M37.184,40.478C37.184,41.715 38.187,42.718 39.424,42.718C40.661,42.718 41.664,41.715 41.663,40.478C41.664,39.242 40.661,38.239 39.424,38.239C38.187,38.239 37.184,39.242 37.184,40.478M11.673,23.82C12.141,21.966 12.921,20.206 13.98,18.615M17.568,14.752C19.06,13.555 20.754,12.633 22.57,12.031M27.763,11.131C29.674,11.115 31.574,11.413 33.388,12.012M38.05,14.46C39.585,15.599 40.92,16.986 42,18.563M44.218,23.35C44.745,25.188 44.959,27.102 44.849,29.011M43.718,34.158C43.061,35.86 42.107,37.431 40.9,38.8M34.275,43.666C29.076,45.741 23.186,45.105 18.551,41.967C13.915,38.829 11.136,33.598 11.131,28" style="fill:none;stroke:rgb(44,44,44);stroke-width:2px;"/>
                    </g>
                </g>
            </g>
            <g id="g-root-ic_cash_8cvnh706epv-stroke" transform="matrix(1,0,0,1,464,398)">
                <g id="ic_cash_8cvnh706epv-stroke">
                    <g>
                        <path d="M34.813,23.574L37.513,20.818C38.142,20.103 38.512,19.198 38.563,18.247L38.563,12.247C38.563,11.419 37.891,10.747 37.063,10.747L30.676,10.758C29.727,10.81 28.824,11.185 28.115,11.82L11.874,28.062C11.288,28.647 11.288,29.597 11.874,30.182L19.128,37.437C19.408,37.717 19.789,37.873 20.185,37.871C20.581,37.869 20.961,37.709 21.238,37.426L22.813,35.818M31.063,15.997C31.063,17.24 32.07,18.247 33.313,18.247C34.556,18.247 35.563,17.24 35.563,15.997C35.563,14.754 34.556,13.747 33.313,13.747C32.07,13.747 31.063,14.754 31.063,15.997L31.063,15.997ZM37.813,31.75L34.764,31.75C33.798,31.749 32.968,32.433 32.785,33.381C32.602,34.329 33.117,35.273 34.013,35.632L37.108,36.869C38.006,37.227 38.523,38.172 38.339,39.12C38.156,40.069 37.324,40.753 36.358,40.75L33.313,40.75M35.563,42.247L35.563,40.747M35.563,31.747L35.563,30.247M26.563,36.247C26.563,41.218 30.592,45.247 35.563,45.247C40.534,45.247 44.563,41.218 44.563,36.247C44.563,31.276 40.534,27.247 35.563,27.247C30.592,27.247 26.563,31.276 26.563,36.247L26.563,36.247Z" style="fill:none;stroke:rgb(44,44,44);stroke-width:2px;"/>
                    </g>
                </g>
            </g>
        </g>
    </g>
</svg>
