<?xml version="1.0" encoding="UTF-8" standalone="no"?>
<!DOCTYPE svg PUBLIC "-//W3C//DTD SVG 1.1//EN" "http://www.w3.org/Graphics/SVG/1.1/DTD/svg11.dtd">
<svg width="100%" height="100%" viewBox="0 0 588 586" version="1.1" xmlns="http://www.w3.org/2000/svg" xmlns:xlink="http://www.w3.org/1999/xlink" xml:space="preserve" xmlns:serif="http://www.serif.com/" style="fill-rule:evenodd;clip-rule:evenodd;stroke-linecap:round;stroke-linejoin:round;">
    <g id="items" transform="matrix(1.07304,0,0,1.07304,-21.475,-42.7898)">
        <g id="blend">
            <g id="g-root-sy_-1_cu_zit9il6zxy4p-fill" transform="matrix(1,0,0,1,14,62)">
                <g id="sy_-1_cu_zit9il6zxy4p-fill">
                    <g>
                        <path d="M10,490L10,418L82.5,418L82.5,490L10,490ZM34,394L10,418L82.5,418L106,394L34,394ZM34,394L34,322L106,322L106,394L34,394ZM58,298L34,322L106,322L130,298L58,298ZM58,298L58,226L130,226L130,298L58,298ZM82,202L58,226L130,226L154,202L82,202ZM82,202L82,130L154,130L154,202L82,202ZM106,106L82,130L154,130L178,106L106,106ZM106,106L106,34L178,34L178,106L106,106ZM130,10L106,34L178,34L202,10L130,10Z" style="fill:url(#_Linear1);"/>
                    </g>
                </g>
            </g>
            <g id="g-root-sy_-1_cu_1_8wipv16zxy4q-fill" transform="matrix(1,0,0,1,362,62)">
                <g id="sy_-1_cu_1_8wipv16zxy4q-fill">
                    <g>
                        <path d="M202,490L202,418L130.5,418L130.5,490L202,490ZM202,418L178,394L106,394L130.5,418L202,418ZM178,322L178,394L106,394L106,322L178,322ZM178,322L154,298L82,298L106,322L178,322ZM154,226L154,298L82,298L82,226L154,226ZM154,226L130,202L58,202L82,226L154,226ZM130,130L130,202L58,202L58,130L130,130ZM130,130L106,106L34,106L58,130L130,130ZM106,34L106,106L34,106L34,34L106,34ZM106,34L82,10L10,10L34,34L106,34Z" style="fill:url(#_Linear2);"/>
                    </g>
                </g>
            </g>
            <g id="g-root-sy_1_cu_1q6z8fh6zxx4z-fill" transform="matrix(1,0,0,1,86.4998,446)">
                <g id="sy_1_cu_1q6z8fh6zxx4z-fill">
                    <g>
                        <path d="M10,106L10,34L406,34L406,106L10,106ZM381.5,10L406,34L10,34L33.5,10L381.5,10Z" style="fill:url(#_Linear3);"/>
                    </g>
                </g>
            </g>
            <g id="g-root-sy_2_cu_13zvpt96zxzik-fill" transform="matrix(1,0,0,1,110,350)">
                <g id="sy_2_cu_13zvpt96zxzik-fill">
                    <g>
                        <path d="M10,106L10,34L358,34L358,106L10,106ZM334,10L358,34L10,34L34,10L334,10Z" style="fill:url(#_Linear4);"/>
                    </g>
                </g>
            </g>
            <g id="g-root-sy_3_cu_m986el6zxypx-fill" transform="matrix(1,0,0,1,134,254)">
                <g id="sy_3_cu_m986el6zxypx-fill">
                    <g>
                        <path d="M10,34L10,106L310,106L310,34L10,34ZM286,10L310,34L10,34L34,10L286,10Z" style="fill:url(#_Linear5);"/>
                    </g>
                </g>
            </g>
            <g id="g-root-sy_4_cu_2r4vh6zxxxq-fill" transform="matrix(1,0,0,1,158,158)">
                <g id="sy_4_cu_2r4vh6zxxxq-fill">
                    <g>
                        <path d="M10,106L10,34L262,34L262,106L10,106ZM238,10L262,34L10,34L34,10L238,10Z" style="fill:url(#_Linear6);"/>
                    </g>
                </g>
            </g>
            <g id="g-root-sy_5_cu_1lseoh96zxzbj-fill" transform="matrix(1,0,0,1,182,62)">
                <g id="sy_5_cu_1lseoh96zxzbj-fill">
                    <g>
                        <path d="M10,106L10,34L214,34L214,106L10,106ZM190,10L214,34L10,34L34,10L190,10Z" style="fill:url(#_Linear7);"/>
                    </g>
                </g>
            </g>
            <g transform="matrix(1,0,0,1,196.04,240)">
                <g id="g-root-tx_callisro_v9uzcd6zxxc4-fill">
                    <g id="tx_callisro_v9uzcd6zxxc4-fill">
                        <g>
                            <g>
                                <text x="0px" y="0px" style="font-family:'ArialMT', 'Arial', sans-serif;font-size:20px;fill:rgb(244,244,244);">Call Is Routed Smartly</text>
                            </g>
                        </g>
                    </g>
                </g>
            </g>
            <g id="g-root-tx_resoluti_1qd7zal6zxypx-fill" transform="matrix(1,0,0,1,218,98)">
                <g id="tx_resoluti_1qd7zal6zxypx-fill">
                    <g>
                        <g>
                            <g transform="matrix(1,0,0,1,14.74,34)">
                                <text x="0px" y="0px" style="font-family:'ArialMT', 'Arial', sans-serif;font-size:20px;fill:rgb(244,244,244);">Resolution or</text>
                            </g>
                            <g transform="matrix(1,0,0,1,44.83,58)">
                                <text x="0px" y="0px" style="font-family:'ArialMT', 'Arial', sans-serif;font-size:20px;fill:rgb(244,244,244);">Action</text>
                            </g>
                        </g>
                    </g>
                </g>
            </g>
            <g transform="matrix(1,0,0,1,216.68,336)">
                <g id="g-root-tx_inputisc_4lp0fh6zxybv-fill">
                    <g id="tx_inputisc_4lp0fh6zxybv-fill">
                        <g>
                            <g>
                                <text x="0px" y="0px" style="font-family:'ArialMT', 'Arial', sans-serif;font-size:20px;fill:rgb(244,244,244);">Input Is Collected</text>
                            </g>
                        </g>
                    </g>
                </g>
            </g>
            <g transform="matrix(1,0,0,1,208.64,432)">
                <g id="g-root-tx_ivrmenui_v7zk316zxybu-fill">
                    <g id="tx_ivrmenui_v7zk316zxybu-fill">
                        <g>
                            <g>
                                <text x="0px" y="0px" style="font-family:'ArialMT', 'Arial', sans-serif;font-size:20px;fill:rgb(244,244,244);">IVR Menu Is Played</text>
                            </g>
                        </g>
                    </g>
                </g>
            </g>
            <g transform="matrix(1,0,0,1,215.3,528)">
                <g id="g-root-tx_customer_4mk4t6zxwy1-fill">
                    <g id="tx_customer_4mk4t6zxwy1-fill">
                        <g>
                            <g>
                                <text x="0px" y="0px" style="font-family:'ArialMT', 'Arial', sans-serif;font-size:20px;fill:rgb(244,244,244);">Customer Calls In</text>
                            </g>
                        </g>
                    </g>
                </g>
            </g>
            <g id="g-root-sy_-1_cu_zit9il6zxy4p-stroke" transform="matrix(1,0,0,1,14,62)">
                <g id="sy_-1_cu_zit9il6zxy4p-stroke">
                    <g>
                        <path d="M10,490L10,418L82.5,418L82.5,490L10,490ZM10,418L34,394L106,394L82.5,418L10,418ZM34,394L34,322L106,322L106,394L34,394ZM34,322L58,298L130,298L106,322L34,322ZM58,298L58,226L130,226L130,298L58,298ZM58,226L82,202L154,202L130,226L58,226ZM82,202L82,130L154,130L154,202L82,202ZM82,130L106,106L178,106L154,130L82,130ZM106,106L106,34L178,34L178,106L106,106ZM106,34L130,10L202,10L178,34L106,34Z" style="fill:none;stroke:rgb(244,244,244);stroke-width:2px;"/>
                    </g>
                </g>
            </g>
            <g id="g-root-sy_-1_cu_1_8wipv16zxy4q-stroke" transform="matrix(1,0,0,1,362,62)">
                <g id="sy_-1_cu_1_8wipv16zxy4q-stroke">
                    <g>
                        <path d="M202,418L202,490L130.5,490L130.5,418L202,418ZM202,418L178,394L106,394L130.5,418L202,418ZM178,322L178,394L106,394L106,322L178,322ZM178,322L154,298L82,298L106,322L178,322ZM154,226L154,298L82,298L82,226L154,226ZM154,226L130,202L58,202L82,226L154,226ZM130,130L130,202L58,202L58,130L130,130ZM130,130L106,106L34,106L58,130L130,130ZM106,106L106,34L34,34L34,106L106,106ZM106,34L82,10L10,10L34,34L106,34Z" style="fill:none;stroke:rgb(244,244,244);stroke-width:2px;"/>
                    </g>
                </g>
            </g>
            <g id="g-root-sy_1_cu_1q6z8fh6zxx4z-stroke" transform="matrix(1,0,0,1,86.4998,446)">
                <g id="sy_1_cu_1q6z8fh6zxx4z-stroke">
                    <g>
                        <path d="M10,34L10,106L406,106L406,34L10,34ZM406,34L381.5,10L33.5,10L10,34L406,34Z" style="fill:none;stroke:rgb(244,244,244);stroke-width:2px;"/>
                    </g>
                </g>
            </g>
            <g id="g-root-sy_2_cu_13zvpt96zxzik-stroke" transform="matrix(1,0,0,1,110,350)">
                <g id="sy_2_cu_13zvpt96zxzik-stroke">
                    <g>
                        <path d="M10,34L10,106L358,106L358,34L10,34ZM358,34L334,10L34,10L10,34L358,34Z" style="fill:none;stroke:rgb(244,244,244);stroke-width:2px;"/>
                    </g>
                </g>
            </g>
            <g id="g-root-sy_3_cu_m986el6zxypx-stroke" transform="matrix(1,0,0,1,134,254)">
                <g id="sy_3_cu_m986el6zxypx-stroke">
                    <g>
                        <path d="M10,106L10,34L310,34L310,106L10,106ZM310,34L286,10L34,10L10,34L310,34Z" style="fill:none;stroke:rgb(244,244,244);stroke-width:2px;"/>
                    </g>
                </g>
            </g>
            <g id="g-root-sy_4_cu_2r4vh6zxxxq-stroke" transform="matrix(1,0,0,1,158,158)">
                <g id="sy_4_cu_2r4vh6zxxxq-stroke">
                    <g>
                        <path d="M10,34L10,106L262,106L262,34L10,34ZM262,34L238,10L34,10L10,34L262,34Z" style="fill:none;stroke:rgb(244,244,244);stroke-width:2px;"/>
                    </g>
                </g>
            </g>
            <g id="g-root-sy_5_cu_1lseoh96zxzbj-stroke" transform="matrix(1,0,0,1,182,62)">
                <g id="sy_5_cu_1lseoh96zxzbj-stroke">
                    <g>
                        <path d="M10,34L10,106L214,106L214,34L10,34ZM214,34L190,10L34,10L10,34L214,34Z" style="fill:none;stroke:rgb(244,244,244);stroke-width:2px;"/>
                    </g>
                </g>
            </g>
            <g id="g-root-ic_chec_zqxfn16zxypy-stroke" transform="matrix(1,0,0,1,398,98)">
                <g id="ic_chec_zqxfn16zxypy-stroke">
                    <g>
                        <path d="M21.18,51L15,51C13.895,51 13,50.105 13,49L13,13C13,11.895 13.895,11 15,11L53,11C54.105,11 55,11.895 55,13L55,49C55,50.105 54.105,51 53,51L45,51M21,19L47,19M21,25L47,25M21,31L38,31M24,48C24,52.971 28.029,57 33,57C37.971,57 42,52.971 42,48C42,43.029 37.971,39 33,39C28.029,39 24,43.029 24,48M29,48L32,51L37,45" style="fill:none;stroke:rgb(244,244,244);stroke-width:2px;"/>
                    </g>
                </g>
            </g>
            <g id="g-root-ic_48px_qwjdkd700sg9-stroke" transform="matrix(1,0,0,1,98,194)">
                <g id="ic_48px_qwjdkd700sg9-stroke">
                    <g>
                        <path d="M15.072,30.179C15.072,24.482 17.789,19.696 23.011,19.696C28.233,19.696 30.949,24.482 30.949,30.179L30.949,37.273C30.949,42.97 28.105,47.882 23.011,47.882C17.916,47.882 15.072,42.97 15.072,37.273L15.072,30.179ZM49.91,47.979L49.91,19.551L36.295,39.738L55.315,39.738" style="fill:none;stroke:rgb(244,244,244);stroke-width:2px;"/>
                    </g>
                </g>
            </g>
            <g id="g-root-ic_1_1cwro8d700rns-stroke" transform="matrix(1,0,0,1,422,194)">
                <g id="ic_1_1cwro8d700rns-stroke">
                    <g>
                        <path d="M33.032,19.02L33.032,11.02L41.032,11.02M33.032,11.02L45.032,22.02L45.032,34.966M57.032,19.02L57.032,11.02L49.032,11.02M57.032,11.02L48.662,18.654M31.764,56.658C26.964,51.846 28.666,48.094 31.27,45.488L32.952,43.806C34.628,42.132 37.342,42.132 39.018,43.806L46.296,51.086C46.89,51.679 47.148,52.531 46.982,53.354C46.815,54.177 46.248,54.862 45.47,55.178C36.15,58.987 25.454,56.834 18.334,49.714C11.214,42.594 9.061,31.898 12.87,22.578C13.186,21.8 13.871,21.233 14.694,21.066C15.517,20.9 16.369,21.158 16.962,21.752L24.244,29.034C25.918,30.709 25.918,33.423 24.244,35.098L22.56,36.78C19.96,39.38 16.204,41.088 11.392,36.288" style="fill:none;stroke:rgb(244,244,244);stroke-width:2px;"/>
                    </g>
                </g>
            </g>
            <g id="g-root-ic_48px_18f2qul703k7f-stroke" transform="matrix(1,0,0,1,74,290)">
                <g id="ic_48px_18f2qul703k7f-stroke">
                    <g>
                        <path d="M15.072,30.179C15.072,24.482 17.789,19.695 23.011,19.695C28.233,19.695 30.949,24.482 30.949,30.179L30.949,37.273C30.949,42.969 28.105,47.882 23.011,47.882C17.916,47.882 15.072,42.969 15.072,37.273L15.072,30.179ZM37.121,27.068C37.002,24.659 38.483,19.71 45.065,19.71C51.648,19.71 52.656,24.597 52.428,27.357C52.177,30.4 50.272,33.508 42.201,33.508C49.714,33.508 53.126,35.562 53.126,41.125C53.126,45.933 48.876,47.89 44.992,47.89C42.201,47.866 36.62,46.287 36.62,40.162" style="fill:none;stroke:rgb(244,244,244);stroke-width:2px;"/>
                    </g>
                </g>
            </g>
            <g id="g-root-ic_1_1qegxgt70251e-stroke" transform="matrix(1,0,0,1,446,290)">
                <g id="ic_1_1qegxgt70251e-stroke">
                    <g>
                        <path d="M55,57L55,55C55,51.686 52.314,49 49,49L43,49L43,38C43,36.343 41.657,35 40,35C38.343,35 37,36.343 37,38L37,55.2L34.68,52.3C33.669,50.998 31.811,50.723 30.466,51.677C29.121,52.631 28.765,54.475 29.66,55.86L30.38,57M25,57L17,57C14.791,57 13,55.209 13,53L13,15C13,12.791 14.791,11 17,11L45,11C47.209,11 49,12.791 49,15L49,45M27,49L17,49L17,17L45,17L45,32M22,23L24,23C24,23 25,23 25,24L25,26C25,26 25,27 24,27L22,27C22,27 21,27 21,26L21,24C21,24 21,23 22,23M30,23L32,23C32,23 33,23 33,24L33,26C33,26 33,27 32,27L30,27C30,27 29,27 29,26L29,24C29,24 29,23 30,23M38,23L40,23C40,23 41,23 41,24L41,26C41,26 41,27 40,27L38,27C38,27 37,27 37,26L37,24C37,24 37,23 38,23M22,31L24,31C24,31 25,31 25,32L25,34C25,34 25,35 24,35L22,35C22,35 21,35 21,34L21,32C21,32 21,31 22,31M30,31L32,31C32,31 33,31 33,32L33,34C33,34 33,35 32,35L30,35C30,35 29,35 29,34L29,32C29,32 29,31 30,31M22,39L24,39C24,39 25,39 25,40L25,42C25,42 25,43 24,43L22,43C22,43 21,43 21,42L21,40C21,40 21,39 22,39M30,39L32,39C32,39 33,39 33,40L33,42C33,42 33,43 32,43L30,43C30,43 29,43 29,42L29,40C29,40 29,39 30,39" style="fill:none;stroke:rgb(244,244,244);stroke-width:2px;"/>
                    </g>
                </g>
            </g>
            <g id="g-root-ic_48px_1lua3ql6zzbpr-stroke" transform="matrix(1,0,0,1,122,98)">
                <g id="ic_48px_1lua3ql6zzbpr-stroke">
                    <g>
                        <path d="M15.072,30.179C15.072,24.482 17.789,19.696 23.011,19.696C28.233,19.696 30.949,24.482 30.949,30.179L30.949,37.273C30.949,42.97 28.105,47.882 23.011,47.882C17.916,47.882 15.072,42.97 15.072,37.273L15.072,30.179ZM53.693,20.121L40.379,20.121L38.988,33.144C39.817,32.315 42.353,30.657 45.865,30.657C49.971,30.657 53.813,33.447 53.427,40.052C53.028,46.894 48.912,47.904 45.529,47.904C41.945,47.904 38.405,45.361 38.073,40.565" style="fill:none;stroke:rgb(244,244,244);stroke-width:2px;"/>
                    </g>
                </g>
            </g>
            <g id="g-root-ic_48px_m9unhp704yz1-stroke" transform="matrix(1,0,0,1,50,386)">
                <g id="ic_48px_m9unhp704yz1-stroke">
                    <g>
                        <path d="M15.072,30.179C15.072,24.482 17.789,19.695 23.011,19.695C28.233,19.695 30.949,24.482 30.949,30.179L30.949,37.273C30.949,42.969 28.105,47.882 23.011,47.882C17.916,47.882 15.072,42.969 15.072,37.273L15.072,30.179ZM36.832,27.515C36.832,22.895 40.056,19.695 44.438,19.695C51.707,19.695 54.186,26.789 49.421,33.098L37.33,47.417L53.951,47.417" style="fill:none;stroke:rgb(244,244,244);stroke-width:2px;"/>
                    </g>
                </g>
            </g>
            <g id="g-root-ic_choi_1qcli7h703jf0-stroke" transform="matrix(1,0,0,1,470,386)">
                <g id="ic_choi_1qcli7h703jf0-stroke">
                    <g>
                        <path d="M20.5,44.5L17.5,47.5L20.5,50.5M47.5,44.5L50.5,47.5L47.5,50.5M53.286,11.5L14.714,11.5C12.935,11.504 11.496,12.951 11.5,14.73L11.5,53.268C11.494,55.047 12.933,56.494 14.712,56.5L53.286,56.5C55.066,56.494 56.504,55.048 56.5,53.268L56.5,14.73C56.504,12.951 55.065,11.504 53.286,11.5ZM17.5,47.5L23.966,47.5M44.034,47.5L50.5,47.5M19.274,34.126L21.246,37.084C21.765,37.865 22.642,38.335 23.58,38.334L44.42,38.334C45.358,38.335 46.235,37.865 46.754,37.084L48.726,34.126M17.872,34.126L50.128,34.126M31.896,19.4C31.896,20.562 32.838,21.504 34,21.504C35.162,21.504 36.104,20.562 36.104,19.4C36.104,18.238 35.162,17.296 34,17.296C32.838,17.296 31.896,18.238 31.896,19.4M21.378,34.126C21.378,27.155 27.029,21.504 34,21.504C40.971,21.504 46.622,27.155 46.622,34.126" style="fill:none;stroke:rgb(244,244,244);stroke-width:2px;"/>
                    </g>
                </g>
            </g>
            <g id="g-root-ic_1_1d2dy0d7050jq-stroke" transform="matrix(1,0,0,1,494,482)">
                <g id="ic_1_1d2dy0d7050jq-stroke">
                    <g>
                        <path d="M33,22.994C33,29.621 38.373,34.994 45,34.994C51.627,34.994 57,29.621 57,22.994C57,16.367 51.627,10.994 45,10.994C38.373,10.994 33,16.367 33,22.994ZM49,22.994L45,22.994L45,16.994M31.732,56.632C26.932,51.818 28.634,48.066 31.24,45.462L32.922,43.78C34.597,42.106 37.311,42.106 38.986,43.78L46.266,51.06C46.859,51.654 47.116,52.505 46.949,53.328C46.783,54.151 46.215,54.835 45.438,55.152C36.118,58.961 25.422,56.808 18.302,49.688C11.182,42.568 9.029,31.872 12.838,22.552C13.155,21.775 13.839,21.207 14.662,21.041C15.485,20.874 16.336,21.131 16.93,21.724L24.214,29C25.888,30.675 25.888,33.389 24.214,35.064L22.532,36.746C19.932,39.346 16.176,41.054 11.362,36.254" style="fill:none;stroke:rgb(244,244,244);stroke-width:2px;"/>
                    </g>
                </g>
            </g>
            <g id="g-root-ic_48px_18jg2gd706djj-stroke" transform="matrix(1,0,0,1,26,482)">
                <g id="ic_48px_18jg2gd706djj-stroke">
                    <g>
                        <path d="M37.842,23.377L46.297,20.184L46.297,47.951M15.072,30.179C15.072,24.482 17.789,19.695 23.011,19.695C28.233,19.695 30.949,24.482 30.949,30.179L30.949,37.273C30.949,42.969 28.105,47.882 23.011,47.882C17.916,47.882 15.072,42.969 15.072,37.273L15.072,30.179Z" style="fill:none;stroke:rgb(244,244,244);stroke-width:2px;"/>
                    </g>
                </g>
            </g>
        </g>
    </g>
    <defs>
        <linearGradient id="_Linear1" x1="0" y1="0" x2="1" y2="0" gradientUnits="userSpaceOnUse" gradientTransform="matrix(10,490,-490,10,0,0)"><stop offset="0" style="stop-color:rgb(149,149,149);stop-opacity:1"/><stop offset="1" style="stop-color:rgb(127,127,127);stop-opacity:1"/></linearGradient>
        <linearGradient id="_Linear2" x1="0" y1="0" x2="1" y2="0" gradientUnits="userSpaceOnUse" gradientTransform="matrix(10,490,-490,10,0,0)"><stop offset="0" style="stop-color:rgb(149,149,149);stop-opacity:1"/><stop offset="1" style="stop-color:rgb(127,127,127);stop-opacity:1"/></linearGradient>
        <linearGradient id="_Linear3" x1="0" y1="0" x2="1" y2="0" gradientUnits="userSpaceOnUse" gradientTransform="matrix(10,106,-106,10,-1.77636e-15,0)"><stop offset="0" style="stop-color:rgb(78,136,230);stop-opacity:1"/><stop offset="1" style="stop-color:rgb(79,126,202);stop-opacity:1"/></linearGradient>
        <linearGradient id="_Linear4" x1="0" y1="0" x2="1" y2="0" gradientUnits="userSpaceOnUse" gradientTransform="matrix(10,106,-106,10,0,0)"><stop offset="0" style="stop-color:rgb(31,169,215);stop-opacity:1"/><stop offset="1" style="stop-color:rgb(49,135,163);stop-opacity:1"/></linearGradient>
        <linearGradient id="_Linear5" x1="0" y1="0" x2="1" y2="0" gradientUnits="userSpaceOnUse" gradientTransform="matrix(10,106,-106,10,0,0)"><stop offset="0" style="stop-color:rgb(59,196,130);stop-opacity:1"/><stop offset="1" style="stop-color:rgb(68,152,112);stop-opacity:1"/></linearGradient>
        <linearGradient id="_Linear6" x1="0" y1="0" x2="1" y2="0" gradientUnits="userSpaceOnUse" gradientTransform="matrix(10,106,-106,10,0,0)"><stop offset="0" style="stop-color:rgb(145,187,57);stop-opacity:1"/><stop offset="1" style="stop-color:rgb(125,152,68);stop-opacity:1"/></linearGradient>
        <linearGradient id="_Linear7" x1="0" y1="0" x2="1" y2="0" gradientUnits="userSpaceOnUse" gradientTransform="matrix(10,106,-106,10,0,0)"><stop offset="0" style="stop-color:rgb(221,201,22);stop-opacity:1"/><stop offset="1" style="stop-color:rgb(169,156,44);stop-opacity:1"/></linearGradient>
    </defs>
</svg>
