<?xml version="1.0" encoding="UTF-8" standalone="no"?>
<!DOCTYPE svg PUBLIC "-//W3C//DTD SVG 1.1//EN" "http://www.w3.org/Graphics/SVG/1.1/DTD/svg11.dtd">
<svg width="100%" height="100%" viewBox="0 0 702 894" version="1.1" xmlns="http://www.w3.org/2000/svg" xmlns:xlink="http://www.w3.org/1999/xlink" xml:space="preserve" xmlns:serif="http://www.serif.com/" style="fill-rule:evenodd;clip-rule:evenodd;stroke-linecap:round;stroke-linejoin:round;">
    <g id="items" transform="matrix(1.1053,0,0,1.1053,-36.9588,-58.3214)">
        <g id="blend">
            <g id="g-root-cp_5_shape-5_qteubz7jzz0p-fill" transform="matrix(1,0,0,1,314.303,68)">
                <g id="cp_5_shape-5_qteubz7jzz0p-fill">
                    <g>
                        <path d="M27.697,292L15.697,292L15.697,160L27.697,160L27.697,292ZM32.297,28.191L27.697,28.191L27.697,160L15.697,160L15.697,28.191L11.017,28.191C10.237,28.191 9.747,27.341 10.137,26.661L20.86,10.448C21.256,9.849 22.136,9.851 22.53,10.451L33.177,26.661C33.577,27.341 33.087,28.191 32.297,28.191Z" style="fill:rgb(247,148,56);"/>
                    </g>
                </g>
            </g>
            <g id="g-root-cp_1_shape-1_1lxebdb7jzx8r-fill" transform="matrix(1,0,0,1,32,67.8164)">
                <g id="cp_1_shape-1_1lxebdb7jzx8r-fill">
                    <g>
                        <path d="M214,328.184L46,328.183C26.118,328.183 10,312.081 10,292.199L10,292.184L250,292.184C250,312.066 233.882,328.184 214,328.184ZM254.6,28.375L250,28.375L250,160.184L10,160.184C10,140.302 26.118,124.505 46,124.505L172,124.505C213.07,124.505 238,94.374 238,55.034L238,28.374L233.32,28.374C232.54,28.374 232.05,27.524 232.44,26.844L243.163,10.632C243.559,10.033 244.439,10.034 244.833,10.635L255.48,26.844C255.88,27.525 255.39,28.375 254.6,28.375ZM250,160.184L250,292.184L10,292.184L10,160.184L250,160.184Z" style="fill:rgb(67,221,147);"/>
                    </g>
                </g>
            </g>
            <g id="g-root-cp_3_shape-3_18lxszz7jzytp-fill" transform="matrix(1,0,0,1,284.303,68)">
                <g id="cp_3_shape-3_18lxszz7jzytp-fill">
                    <g>
                        <path d="M27.697,292L15.697,292L15.697,160L27.697,160L27.697,292ZM32.297,28.191L27.697,28.191L27.697,160L15.697,160L15.697,28.191L11.017,28.191C10.237,28.191 9.747,27.341 10.137,26.661L20.86,10.448C21.256,9.849 22.136,9.851 22.53,10.451L33.177,26.661C33.577,27.341 33.087,28.191 32.297,28.191Z" style="fill:rgb(26,195,251);"/>
                    </g>
                </g>
            </g>
            <g id="g-root-cp_3_shape-3_1_qva9lb7jzy13-fill" transform="matrix(1,0,0,1,32,350)">
                <g id="cp_3_shape-3_1_qva9lb7jzy13-fill">
                    <g>
                        <path d="M214,64.321C244,64.321 268,46 268,10L280,10L280,100.306L10,100.306C10,80.423 26.118,64.321 46,64.321L214,64.321Z" style="fill:rgb(26,195,251);"/>
                    </g>
                </g>
            </g>
            <g id="g-root-cp_5_shape-5_1_djtr7z7jzzm1-fill" transform="matrix(1,0,0,1,320,350)">
                <g id="cp_5_shape-5_1_djtr7z7jzzm1-fill">
                    <g>
                        <rect x="10" y="10" width="12" height="222" style="fill:rgb(247,148,56);"/>
                    </g>
                </g>
            </g>
            <g id="g-root-cp_3_shape-3_2_8zpxr7jzy17-fill" transform="matrix(1,0,0,1,32,440)">
                <g id="cp_3_shape-3_2_8zpxr7jzy17-fill">
                    <g>
                        <path d="M280,10L280,141.979L10,141.979L10,10L280,10ZM244,178.008L46,178.008C26.118,178.008 10,161.905 10,142.023L10,142.008L280,142.008C280,161.89 263.882,178.008 244,178.008Z" style="fill:rgb(26,195,251);"/>
                    </g>
                </g>
            </g>
            <g id="g-root-cp_5_shape-5_2_1uua9sf7jzymd-fill" transform="matrix(1,0,0,1,32,572)">
                <g id="cp_5_shape-5_2_1uua9sf7jzymd-fill">
                    <g>
                        <path d="M244,64.137C274,64.137 298,45.878 298,10L310,10L310,100L10,100C10,80.185 26.118,64.137 46,64.137L244,64.137Z" style="fill:rgb(247,148,56);"/>
                    </g>
                </g>
            </g>
            <g id="g-root-cp_5_shape-5_3_18nt89b7jzxu7-fill" transform="matrix(1,0,0,1,32,662)">
                <g id="cp_5_shape-5_3_18nt89b7jzxu7-fill">
                    <g>
                        <path d="M310,10L310,118L10,118L10,10L310,10ZM274,154.008L46,154.008C26.118,154.008 10,137.882 10,118L310,118C310,137.882 293.882,154.008 274,154.008Z" style="fill:rgb(247,148,56);"/>
                    </g>
                </g>
            </g>
            <g id="g-root-cp_2_shape-2_qn63gv7k1bm1-fill" transform="matrix(1,0,0,1,404.378,67.8164)">
                <g id="cp_2_shape-2_qn63gv7k1bm1-fill">
                    <g>
                        <path d="M51.622,352.184L219.622,352.184C239.504,352.184 255.622,336.081 255.622,316.199L255.622,316.184L15.622,316.184C15.622,336.066 31.74,352.184 51.622,352.184ZM11.022,28.375L15.622,28.375L15.622,160.184L255.622,160.184C255.622,140.302 239.505,124.505 219.623,124.505L93.622,124.505C52.552,124.505 27.622,94.374 27.622,55.034L27.622,28.374L32.302,28.374C33.082,28.374 33.572,27.524 33.182,26.844L22.459,10.632C22.063,10.033 21.184,10.034 20.79,10.635L10.142,26.844C9.742,27.525 10.232,28.375 11.022,28.375ZM15.622,160.184L15.622,316.184L255.622,316.184L255.622,160.184L15.622,160.184Z" style="fill:rgb(166,218,55);"/>
                    </g>
                </g>
            </g>
            <g id="g-root-cp_4_shape-4_8vw2z37k1dz7-fill" transform="matrix(1,0,0,1,374.383,68)">
                <g id="cp_4_shape-4_8vw2z37k1dz7-fill">
                    <g>
                        <path d="M15.623,316L27.623,316L27.623,160L15.623,160L15.623,316ZM11.022,28.191L15.622,28.191L15.622,160L27.622,160L27.622,28.191L32.302,28.191C33.082,28.191 33.572,27.341 33.182,26.661L22.459,10.448C22.063,9.849 21.184,9.851 20.79,10.451L10.142,26.661C9.742,27.341 10.232,28.191 11.022,28.191Z" style="fill:rgb(255,231,17);"/>
                    </g>
                </g>
            </g>
            <g id="g-root-cp_6_shape-6_1um63nz7k1c79-fill" transform="matrix(1,0,0,1,344.383,68)">
                <g id="cp_6_shape-6_1um63nz7k1c79-fill">
                    <g>
                        <path d="M15.623,316L27.623,316L27.623,160L15.623,160L15.623,316ZM11.022,28.191L15.622,28.191L15.622,160L27.622,160L27.622,28.191L32.302,28.191C33.082,28.191 33.572,27.341 33.182,26.661L22.459,10.448C22.063,9.849 21.184,9.851 20.79,10.451L10.142,26.661C9.742,27.341 10.232,28.191 11.022,28.191Z" style="fill:rgb(203,104,249);"/>
                    </g>
                </g>
            </g>
            <g id="g-root-cp_4_shape-4_1_1haplan7k1ds7-fill" transform="matrix(1,0,0,1,380,374)">
                <g id="cp_4_shape-4_1_1haplan7k1ds7-fill">
                    <g>
                        <path d="M76,64.321C46,64.321 22,46 22,10L10,10L10,100.306L280,100.306C280,80.423 263.882,64.321 244,64.321L76,64.321Z" style="fill:rgb(255,231,17);"/>
                    </g>
                </g>
            </g>
            <g id="g-root-cp_4_shape-4_2_zk21vz7k1czl-fill" transform="matrix(1,0,0,1,380,464)">
                <g id="cp_4_shape-4_2_zk21vz7k1czl-fill">
                    <g>
                        <path d="M10,10L10,142L280,142L280,10L10,10ZM46,178L244,178C263.882,178 280,161.898 280,142.016L280,142L10,142C10,161.882 26.118,178 46,178Z" style="fill:rgb(255,231,17);"/>
                    </g>
                </g>
            </g>
            <g id="g-root-cp_6_shape-6_1_zk21vz7k1czn-fill" transform="matrix(1,0,0,1,350,374)">
                <g id="cp_6_shape-6_1_zk21vz7k1czn-fill">
                    <g>
                        <rect x="10" y="10" width="12" height="222" style="fill:rgb(203,104,249);"/>
                    </g>
                </g>
            </g>
            <g id="g-root-cp_6_shape-6_2_m980lr7k1bet-fill" transform="matrix(1,0,0,1,350,596)">
                <g id="cp_6_shape-6_2_m980lr7k1bet-fill">
                    <g>
                        <path d="M76,64.321C46,64.321 22,46 22,10L10,10L10,100.306L310,100.306C310,80.423 293.882,64.321 274,64.321L76,64.321Z" style="fill:rgb(203,104,249);"/>
                    </g>
                </g>
            </g>
            <g id="g-root-cp_6_shape-6_3_ddl0cv7k1c7j-fill" transform="matrix(1,0,0,1,350,686)">
                <g id="cp_6_shape-6_3_ddl0cv7k1c7j-fill">
                    <g>
                        <path d="M10,10L10,118L310,118L310,10L10,10ZM46,154L274,154C293.882,154 310,137.898 310,118.016L310,118L10,118C10,137.882 26.118,154 46,154Z" style="fill:rgb(203,104,249);"/>
                    </g>
                </g>
            </g>
            <g id="g-root-tx_efficien_4o6u4v7jkgll-fill" transform="matrix(1,0,0,1,452,326)">
                <g id="tx_efficien_4o6u4v7jkgll-fill">
                    <g>
                        <g>
                            <g transform="matrix(1,0,0,1,22.78,31.2)">
                                <g transform="matrix(15,0,0,15,10.0049,0)">
                                </g>
                                <g transform="matrix(15,0,0,15,14.0389,0)">
                                </g>
                                <g transform="matrix(15,0,0,15,18.073,0)">
                                </g>
                                <text x="0px" y="0px" style="font-family:'ArialMT', 'Arial', sans-serif;font-size:15px;fill:rgb(44,44,44);">Eﬃcient call center</text>
                            </g>
                            <g transform="matrix(1,0,0,1,15.4,49.2)">
                                <text x="0px" y="0px" style="font-family:'ArialMT', 'Arial', sans-serif;font-size:15px;fill:rgb(44,44,44);">services for business</text>
                            </g>
                            <g transform="matrix(1,0,0,1,48.67,67.2)">
                                <text x="0px" y="0px" style="font-family:'ArialMT', 'Arial', sans-serif;font-size:15px;fill:rgb(44,44,44);">operations.</text>
                            </g>
                        </g>
                    </g>
                </g>
            </g>
            <g id="g-root-tx_advanced_1hegftb7k1bsz-fill" transform="matrix(1,0,0,1,68,302)">
                <g id="tx_advanced_1hegftb7k1bsz-fill">
                    <g>
                        <g>
                            <g transform="matrix(1,0,0,1,30.23,31.2)">
                                <text x="0px" y="0px" style="font-family:'ArialMT', 'Arial', sans-serif;font-size:15px;fill:rgb(44,44,44);">Advanced telecom</text>
                            </g>
                            <g transform="matrix(1,0,0,1,16.27,49.2)">
                                <text x="0px" y="0px" style="font-family:'ArialMT', 'Arial', sans-serif;font-size:15px;fill:rgb(44,44,44);">solutions for seamless</text>
                            </g>
                            <g transform="matrix(1,0,0,1,38.02,67.2)">
                                <text x="0px" y="0px" style="font-family:'ArialMT', 'Arial', sans-serif;font-size:15px;fill:rgb(44,44,44);">communication.</text>
                            </g>
                        </g>
                    </g>
                </g>
            </g>
            <g id="g-root-tx_callcent_924wzz7jkhkw-fill" transform="matrix(1,0,0,1,458,266)">
                <g id="tx_callcent_924wzz7jkhkw-fill">
                    <g>
                        <g>
                            <g transform="matrix(1,0,0,1,15.66,34)">
                                <text x="0px" y="0px" style="font-family:'Arial-BoldMT', 'Arial', sans-serif;font-weight:700;font-size:20px;fill:rgb(44,44,44);">Call Centers &amp;</text>
                            </g>
                            <g transform="matrix(1,0,0,1,54.67,58)">
                                <text x="0px" y="0px" style="font-family:'Arial-BoldMT', 'Arial', sans-serif;font-weight:700;font-size:20px;fill:rgb(44,44,44);">BPOs</text>
                            </g>
                        </g>
                    </g>
                </g>
            </g>
            <g transform="matrix(1,0,0,1,128.03,522)">
                <g id="g-root-tx_healthca_1utnspb7k47ii-fill">
                    <g id="tx_healthca_1utnspb7k47ii-fill">
                        <g>
                            <g>
                                <text x="0px" y="0px" style="font-family:'Arial-BoldMT', 'Arial', sans-serif;font-weight:700;font-size:20px;fill:rgb(44,44,44);">Healthcare</text>
                            </g>
                        </g>
                    </g>
                </g>
            </g>
            <g id="g-root-tx_securehe_1uljmkv7k5l37-fill" transform="matrix(1,0,0,1,71,524)">
                <g id="tx_securehe_1uljmkv7k5l37-fill">
                    <g>
                        <g>
                            <g transform="matrix(1,0,0,1,44.3,31.2)">
                                <text x="0px" y="0px" style="font-family:'ArialMT', 'Arial', sans-serif;font-size:15px;fill:rgb(44,44,44);">Secure healthcare</text>
                            </g>
                            <g transform="matrix(1,0,0,1,15.72,49.2)">
                                <text x="0px" y="0px" style="font-family:'ArialMT', 'Arial', sans-serif;font-size:15px;fill:rgb(44,44,44);">communication for patient</text>
                            </g>
                            <g transform="matrix(1,0,0,1,87.72,67.2)">
                                <text x="0px" y="0px" style="font-family:'ArialMT', 'Arial', sans-serif;font-size:15px;fill:rgb(44,44,44);">care.</text>
                            </g>
                        </g>
                    </g>
                </g>
            </g>
            <g id="g-root-tx_scalable_91ifwv7jnbif-fill" transform="matrix(1,0,0,1,392,770)">
                <g id="tx_scalable_91ifwv7jnbif-fill">
                    <g>
                        <g>
                            <g transform="matrix(1,0,0,1,15.22,28.2)">
                                <text x="0px" y="0px" style="font-family:'ArialMT', 'Arial', sans-serif;font-size:15px;fill:rgb(44,44,44);">Scalable IT<tspan x="74.766px 78.933px " y="0px 0px "> s</tspan>olutions for cloud-</text>
                            </g>
                            <g transform="matrix(1,0,0,1,41.63,46.2)">
                                <text x="0px" y="0px" style="font-family:'ArialMT', 'Arial', sans-serif;font-size:15px;fill:rgb(44,44,44);">based communication.</text>
                            </g>
                        </g>
                    </g>
                </g>
            </g>
            <g id="g-root-tx_innovati_7quxb7jlxxg-fill" transform="matrix(1,0,0,1,419,548)">
                <g id="tx_innovati_7quxb7jlxxg-fill">
                    <g>
                        <g>
                            <g transform="matrix(1,0,0,1,29.29,31.2)">
                                <text x="0px" y="0px" style="font-family:'ArialMT', 'Arial', sans-serif;font-size:15px;fill:rgb(44,44,44);">Innovative educational</text>
                            </g>
                            <g transform="matrix(1,0,0,1,12.11,49.2)">
                                <text x="0px" y="0px" style="font-family:'ArialMT', 'Arial', sans-serif;font-size:15px;fill:rgb(44,44,44);">communication for learning</text>
                            </g>
                            <g transform="matrix(1,0,0,1,56.69,67.2)">
                                <text x="0px" y="0px" style="font-family:'ArialMT', 'Arial', sans-serif;font-size:15px;fill:rgb(44,44,44);">environments.</text>
                            </g>
                        </g>
                    </g>
                </g>
            </g>
            <g transform="matrix(1,0,0,1,90.43,300)">
                <g id="g-root-tx_telecomv_magyrz7k1dky-fill">
                    <g id="tx_telecomv_magyrz7k1dky-fill">
                        <g>
                            <g>
                                <text x="0px" y="0px" style="font-family:'Arial-BoldMT', 'Arial', sans-serif;font-weight:700;font-size:20px;fill:rgb(44,44,44);">T<tspan x="10.732px 21.855px " y="0px 0px ">el</tspan>ecom &amp; V<tspan x="117.07px 129.287px " y="0px 0px ">oI</tspan>P</text>
                            </g>
                        </g>
                    </g>
                </g>
            </g>
            <g transform="matrix(1,0,0,1,156.68,744)">
                <g id="g-root-tx_finance_147d91r7k5kwd-fill">
                    <g id="tx_finance_147d91r7k5kwd-fill">
                        <g>
                            <g>
                                <text x="0px" y="0px" style="font-family:'Arial-BoldMT', 'Arial', sans-serif;font-weight:700;font-size:20px;fill:rgb(44,44,44);">Finance</text>
                            </g>
                        </g>
                    </g>
                </g>
            </g>
            <g id="g-root-tx_reliable_95979r7k5lom-fill" transform="matrix(1,0,0,1,68,746)">
                <g id="tx_reliable_95979r7k5lom-fill">
                    <g>
                        <g>
                            <g transform="matrix(1,0,0,1,11.75,28.2)">
                                <g transform="matrix(15,0,0,15,58.3667,0)">
                                </g>
                                <g transform="matrix(15,0,0,15,62.5342,0)">
                                </g>
                                <text x="0px" y="0px" style="font-family:'ArialMT', 'Arial', sans-serif;font-size:15px;fill:rgb(44,44,44);">Reliable ﬁnancial communication</text>
                            </g>
                            <g transform="matrix(1,0,0,1,43.15,46.2)">
                                <text x="0px" y="0px" style="font-family:'ArialMT', 'Arial', sans-serif;font-size:15px;fill:rgb(44,44,44);">for secure transactions.</text>
                            </g>
                        </g>
                    </g>
                </g>
            </g>
            <g transform="matrix(1,0,0,1,422.16,768)">
                <g id="g-root-tx_itclouds_1cz9hxr7jn9xi-fill">
                    <g id="tx_itclouds_1cz9hxr7jn9xi-fill">
                        <g>
                            <g>
                                <text x="0px" y="0px" style="font-family:'Arial-BoldMT', 'Arial', sans-serif;font-weight:700;font-size:20px;fill:rgb(44,44,44);">IT &amp; Cloud Services</text>
                            </g>
                        </g>
                    </g>
                </g>
            </g>
            <g transform="matrix(1,0,0,1,480.39,546)">
                <g id="g-root-tx_educatio_1lw5gcv7jlx57-fill">
                    <g id="tx_educatio_1lw5gcv7jlx57-fill">
                        <g>
                            <g>
                                <text x="0px" y="0px" style="font-family:'Arial-BoldMT', 'Arial', sans-serif;font-weight:700;font-size:20px;fill:rgb(44,44,44);">Education</text>
                            </g>
                        </g>
                    </g>
                </g>
            </g>
            <g id="g-root-cp_5_shape-5_qteubz7jzz0p-stroke" transform="matrix(1,0,0,1,314.303,68)">
                <g id="cp_5_shape-5_qteubz7jzz0p-stroke">
                    <g>
                        <path d="M15.697,160L15.697,292M27.697,292L27.697,160M15.697,160L15.697,28.191L11.017,28.191C10.237,28.191 9.747,27.341 10.137,26.661L20.86,10.448C21.256,9.849 22.136,9.851 22.53,10.451L33.177,26.661C33.577,27.341 33.087,28.191 32.297,28.191L27.697,28.191L27.697,160" style="fill:none;stroke:rgb(44,44,44);stroke-width:2px;"/>
                    </g>
                </g>
            </g>
            <g id="g-root-cp_1_shape-1_1lxebdb7jzx8r-stroke" transform="matrix(1,0,0,1,32,67.8164)">
                <g id="cp_1_shape-1_1lxebdb7jzx8r-stroke">
                    <g>
                        <path d="M10,160.184C10,140.301 26.118,124.321 46,124.321L172,124.321C213.07,124.321 238,94.191 238,54.851L238,28.191L233.32,28.191C232.54,28.191 232.05,27.341 232.44,26.661L243.163,10.448C243.559,9.849 244.439,9.851 244.833,10.451L255.48,26.661C255.88,27.341 255.39,28.191 254.6,28.191L250,28.191L250,160.184M250,292.184C250,312.066 233.882,328.191 214,328.191L46,328.191C26.118,328.191 10,312.081 10,292.199L10,292.184M250,292.184L250,160.184M10,160.184L10,292.184" style="fill:none;stroke:rgb(44,44,44);stroke-width:2px;"/>
                    </g>
                </g>
            </g>
            <g id="g-root-cp_3_shape-3_18lxszz7jzytp-stroke" transform="matrix(1,0,0,1,284.303,68)">
                <g id="cp_3_shape-3_18lxszz7jzytp-stroke">
                    <g>
                        <path d="M15.697,160L15.697,292M27.697,292L27.697,160M15.697,160L15.697,28.191L11.017,28.191C10.237,28.191 9.747,27.341 10.137,26.661L20.86,10.448C21.256,9.849 22.136,9.851 22.53,10.451L33.177,26.661C33.577,27.341 33.087,28.191 32.297,28.191L27.697,28.191L27.697,160" style="fill:none;stroke:rgb(44,44,44);stroke-width:2px;"/>
                    </g>
                </g>
            </g>
            <g id="g-root-cp_3_shape-3_1_qva9lb7jzy13-stroke" transform="matrix(1,0,0,1,32,350)">
                <g id="cp_3_shape-3_1_qva9lb7jzy13-stroke">
                    <g>
                        <path d="M268,10C268,46 244,64.321 214,64.321L46,64.321C26.118,64.321 10,80.423 10,100.306M280,100.306L280,10" style="fill:none;stroke:rgb(44,44,44);stroke-width:2px;"/>
                    </g>
                </g>
            </g>
            <g id="g-root-cp_5_shape-5_1_djtr7z7jzzm1-stroke" transform="matrix(1,0,0,1,320,350)">
                <g id="cp_5_shape-5_1_djtr7z7jzzm1-stroke">
                    <g>
                        <path d="M10,10L10,232M22,232L22,10" style="fill:none;stroke:rgb(44,44,44);stroke-width:2px;"/>
                    </g>
                </g>
            </g>
            <g id="g-root-cp_3_shape-3_2_8zpxr7jzy17-stroke" transform="matrix(1,0,0,1,32,440)">
                <g id="cp_3_shape-3_2_8zpxr7jzy17-stroke">
                    <g>
                        <path d="M280,141.979L280,10M10,10L10,142M280,142.008C280,161.89 263.882,178.008 244,178.008L46,178.008C26.118,178.008 10,161.905 10,142.023L10,142.008" style="fill:none;stroke:rgb(44,44,44);stroke-width:2px;"/>
                    </g>
                </g>
            </g>
            <g id="g-root-cp_5_shape-5_2_1uua9sf7jzymd-stroke" transform="matrix(1,0,0,1,32,572)">
                <g id="cp_5_shape-5_2_1uua9sf7jzymd-stroke">
                    <g>
                        <path d="M298,10C298,45.878 274,64.137 244,64.137L46,64.137C26.118,64.137 10,80.185 10,100M310,100L310,10" style="fill:none;stroke:rgb(44,44,44);stroke-width:2px;"/>
                    </g>
                </g>
            </g>
            <g id="g-root-cp_5_shape-5_3_18nt89b7jzxu7-stroke" transform="matrix(1,0,0,1,32,662)">
                <g id="cp_5_shape-5_3_18nt89b7jzxu7-stroke">
                    <g>
                        <path d="M310,118L310,10M10,10L10,118M310,118C310,137.882 293.882,154.008 274,154.008L46,154.008C26.118,154.008 10,137.882 10,118" style="fill:none;stroke:rgb(44,44,44);stroke-width:2px;"/>
                    </g>
                </g>
            </g>
            <g id="g-root-cp_2_shape-2_qn63gv7k1bm1-stroke" transform="matrix(1,0,0,1,404.378,67.8164)">
                <g id="cp_2_shape-2_qn63gv7k1bm1-stroke">
                    <g>
                        <path d="M255.622,160.184C255.622,140.301 239.505,124.321 219.623,124.321L93.622,124.321C52.552,124.321 27.622,94.191 27.622,54.851L27.622,28.191L32.302,28.191C33.082,28.191 33.572,27.341 33.182,26.661L22.459,10.448C22.063,9.849 21.184,9.851 20.79,10.451L10.142,26.661C9.742,27.341 10.232,28.191 11.022,28.191L15.622,28.191L15.622,160.184M15.622,316.184C15.622,336.066 31.74,352.184 51.622,352.184L219.623,352.183C239.505,352.183 255.622,336.081 255.622,316.199L255.622,316.184M15.622,316.184L15.622,160.184M255.622,160.184L255.622,316.184" style="fill:none;stroke:rgb(44,44,44);stroke-width:2px;"/>
                    </g>
                </g>
            </g>
            <g id="g-root-cp_4_shape-4_8vw2z37k1dz7-stroke" transform="matrix(1,0,0,1,374.383,68)">
                <g id="cp_4_shape-4_8vw2z37k1dz7-stroke">
                    <g>
                        <path d="M27.622,160L27.622,316M15.622,316L15.622,160M27.622,160L27.622,28.191L32.302,28.191C33.082,28.191 33.572,27.341 33.182,26.661L22.459,10.448C22.063,9.849 21.184,9.851 20.79,10.451L10.142,26.661C9.742,27.341 10.232,28.191 11.022,28.191L15.622,28.191L15.622,160" style="fill:none;stroke:rgb(44,44,44);stroke-width:2px;"/>
                    </g>
                </g>
            </g>
            <g id="g-root-cp_6_shape-6_1um63nz7k1c79-stroke" transform="matrix(1,0,0,1,344.383,68)">
                <g id="cp_6_shape-6_1um63nz7k1c79-stroke">
                    <g>
                        <path d="M27.622,160L27.622,316M15.622,316L15.622,160M27.622,160L27.622,28.191L32.302,28.191C33.082,28.191 33.572,27.341 33.182,26.661L22.459,10.448C22.063,9.849 21.184,9.851 20.79,10.451L10.142,26.661C9.742,27.341 10.232,28.191 11.022,28.191L15.622,28.191L15.622,160" style="fill:none;stroke:rgb(44,44,44);stroke-width:2px;"/>
                    </g>
                </g>
            </g>
            <g id="g-root-cp_4_shape-4_1_1haplan7k1ds7-stroke" transform="matrix(1,0,0,1,380,374)">
                <g id="cp_4_shape-4_1_1haplan7k1ds7-stroke">
                    <g>
                        <path d="M22,10C22,46 46,64.321 76,64.321L244,64.321C263.882,64.321 280,80.423 280,100.306M10,100.306L10,10" style="fill:none;stroke:rgb(44,44,44);stroke-width:2px;"/>
                    </g>
                </g>
            </g>
            <g id="g-root-cp_4_shape-4_2_zk21vz7k1czl-stroke" transform="matrix(1,0,0,1,380,464)">
                <g id="cp_4_shape-4_2_zk21vz7k1czl-stroke">
                    <g>
                        <path d="M10,142L10,10M280,10L280,142M10,142C10,161.882 26.118,178.008 46,178.008L244,178.008C263.882,178.008 280,161.898 280,142.016L280,142" style="fill:none;stroke:rgb(44,44,44);stroke-width:2px;"/>
                    </g>
                </g>
            </g>
            <g id="g-root-cp_6_shape-6_1_zk21vz7k1czn-stroke" transform="matrix(1,0,0,1,350,374)">
                <g id="cp_6_shape-6_1_zk21vz7k1czn-stroke">
                    <g>
                        <path d="M22,10L22,232M10,232L10,10" style="fill:none;stroke:rgb(44,44,44);stroke-width:2px;"/>
                    </g>
                </g>
            </g>
            <g id="g-root-cp_6_shape-6_2_m980lr7k1bet-stroke" transform="matrix(1,0,0,1,350,596)">
                <g id="cp_6_shape-6_2_m980lr7k1bet-stroke">
                    <g>
                        <path d="M22,10C22,46 46,64.321 76,64.321L274,64.321C293.882,64.321 310,80.423 310,100.306M10,100.306L10,10" style="fill:none;stroke:rgb(44,44,44);stroke-width:2px;"/>
                    </g>
                </g>
            </g>
            <g id="g-root-cp_6_shape-6_3_ddl0cv7k1c7j-stroke" transform="matrix(1,0,0,1,350,686)">
                <g id="cp_6_shape-6_3_ddl0cv7k1c7j-stroke">
                    <g>
                        <path d="M10,118L10,10M310,10L310,118M10,118C10,137.882 26.118,154.008 46,154.008L274,154.008C293.882,154.008 310,137.898 310,118.016L310,118" style="fill:none;stroke:rgb(44,44,44);stroke-width:2px;"/>
                    </g>
                </g>
            </g>
            <g id="g-root-ic_stet_hss1e77k5kb0-stroke" transform="matrix(1,0,0,1,143,428)">
                <g id="ic_stet_hss1e77k5kb0-stroke">
                    <g>
                        <path d="M23.886,46.212C25.586,45.613 27.231,44.866 28.8,43.978M11,50C11,53.866 14.134,57 18,57C21.866,57 25,53.866 25,50C25,46.134 21.866,43 18,43C14.134,43 11,46.134 11,50M16,50C16,51.105 16.895,52 18,52C19.105,52 20,51.105 20,50C20,48.895 19.105,48 18,48C16.895,48 16,48.895 16,50M52.722,55.038L51.866,56.838L41.634,50.34C39.706,49.113 38.993,46.643 39.972,44.578L39.972,44.578C40.949,42.513 43.311,41.498 45.482,42.212L57,46L56.144,47.8M35.98,39.178C41.282,35.166 50,27.578 50,21.062C50,10.094 36.236,7.102 32,17.072C27.764,7.102 14,10.094 14,21.062C14,30.424 31.266,41.52 32,42C34.354,43.54 38.716,45.4 39.846,44.868" style="fill:none;stroke:rgb(44,44,44);stroke-width:2px;"/>
                    </g>
                </g>
            </g>
            <g id="g-root-ic_grad_mg3bpr7jlwy5-stroke" transform="matrix(1,0,0,1,491,452)">
                <g id="ic_grad_mg3bpr7jlwy5-stroke">
                    <g>
                        <path d="M35.3,32.9C28.5,12.5 27.1,11.5 22.9,11.5L22.9,17.3L13.1,22.3C12.1,22.7 11.5,23.7 11.5,24.9L11.5,25.9C11.5,29.1 14.1,31.7 17.3,31.7L20.1,31.7L20.1,45.7M20.1,38.7L34.447,30.35M56.5,43.1L56.5,47.5M50.5,46.062L50.5,53.5C50.5,53.5 47.5,56.5 43.1,56.5C38.7,56.5 35.5,53.5 35.5,53.5L35.5,46.062M29.5,43.1L43.1,49.1L56.5,43.1L43.1,37.1L29.5,43.1Z" style="fill:none;stroke:rgb(44,44,44);stroke-width:2px;"/>
                    </g>
                </g>
            </g>
            <g id="g-root-ic_2_vbqbyn7jkirm-stroke" transform="matrix(1,0,0,1,506,206)">
                <g id="ic_2_vbqbyn7jkirm-stroke">
                    <g>
                        <path d="M40,53.5L44,53.5C47.868,53.5 51,51.368 51,47.5L51,46.158M34,53.5C34,55.157 35.343,56.5 37,56.5C38.657,56.5 40,55.157 40,53.5C40,51.843 38.657,50.5 37,50.5C35.343,50.5 34,51.843 34,53.5ZM49,30.5C52.898,30.497 56.231,33.305 56.89,37.147C57.55,40.989 55.344,44.747 51.668,46.044C51.056,46.261 50.376,46.167 49.846,45.792C49.315,45.417 49,44.808 49,44.158L49,30.5ZM19,30.5C15.102,30.497 11.769,33.305 11.11,37.147C10.45,40.989 12.656,44.747 16.332,46.044C16.944,46.261 17.624,46.167 18.154,45.792C18.685,45.417 19,44.808 19,44.158L19,30.5ZM49,30.5L49,26.5C49,18.216 42.284,11.5 34,11.5C25.716,11.5 19,18.216 19,26.5L19,30.5" style="fill:none;stroke:rgb(44,44,44);stroke-width:2px;"/>
                    </g>
                </g>
            </g>
            <g id="g-root-ic_1_hwivwv7k1clo-stroke" transform="matrix(1,0,0,1,128,206)">
                <g id="ic_1_hwivwv7k1clo-stroke">
                    <g>
                        <path d="M33.032,19.02L33.032,11.02L41.032,11.02M33.032,11.02L45.032,22.02L45.032,34.966M57.032,19.02L57.032,11.02L49.032,11.02M57.032,11.02L48.662,18.654M31.764,56.658C26.964,51.846 28.666,48.094 31.27,45.488L32.952,43.806C34.628,42.132 37.342,42.132 39.018,43.806L46.296,51.086C46.89,51.679 47.148,52.531 46.982,53.354C46.815,54.177 46.248,54.862 45.47,55.178C36.15,58.987 25.454,56.834 18.334,49.714C11.214,42.594 9.061,31.898 12.87,22.578C13.186,21.8 13.871,21.233 14.694,21.066C15.517,20.9 16.369,21.158 16.962,21.752L24.244,29.034C25.918,30.709 25.918,33.423 24.244,35.098L22.56,36.78C19.96,39.38 16.204,41.088 11.392,36.288" style="fill:none;stroke:rgb(44,44,44);stroke-width:2px;"/>
                    </g>
                </g>
            </g>
            <g id="g-root-ic_shie_v3m5u77jki6n-stroke" transform="matrix(1,0,0,1,158,650)">
                <g id="ic_shie_v3m5u77jki6n-stroke">
                    <g>
                        <path d="M38,25L33.708,25C31.989,25.001 30.495,26.183 30.101,27.856C29.706,29.529 30.513,31.255 32.05,32.024L35.95,33.974C37.49,34.742 38.299,36.469 37.904,38.144C37.508,39.818 36.013,41.001 34.292,41L30,41M34,25.004L34,22.004M34,44.004L34,41.004M14,17.552L14,32.826C13.983,42.971 20.203,52.083 29.656,55.764L31.8,56.6C33.222,57.152 34.798,57.152 36.22,56.6L38.354,55.774C47.807,52.088 54.023,42.972 54,32.826L54,17.552C54.006,16.351 53.31,15.257 52.22,14.752C46.481,12.226 40.27,10.947 34,11C27.73,10.943 21.52,12.219 15.78,14.742C14.687,15.248 13.991,16.347 14,17.552Z" style="fill:none;stroke:rgb(44,44,44);stroke-width:2px;"/>
                    </g>
                </g>
            </g>
            <g id="g-root-ic_text_qu1ekv7jnbbc-stroke" transform="matrix(1,0,0,1,476,674)">
                <g id="ic_text_qu1ekv7jnbbc-stroke">
                    <g>
                        <path d="M51,37.812C54.14,36.36 56.109,33.172 56,29.714C55.962,27.155 54.885,24.722 53.016,22.973C51.147,21.225 48.648,20.312 46.092,20.444C43.813,15.857 39.121,12.969 34,13C27.021,12.906 21.174,18.258 20.65,25.218C18.566,24.76 16.387,25.26 14.712,26.58C13.037,27.901 12.041,29.903 12,32.036C11.834,35.153 13.95,37.932 17,38.6M44,55L24,55C22.895,55 22,54.105 22,53L22,33C22,31.895 22.895,31 24,31L44,31C45.105,31 46,31.895 46,33L46,53C46,54.105 45.105,55 44,55ZM28,37L40,37M28,43L40,43M28,49L32.5,49" style="fill:none;stroke:rgb(44,44,44);stroke-width:2px;"/>
                    </g>
                </g>
            </g>
        </g>
    </g>
</svg>
