<?xml version="1.0" encoding="UTF-8" standalone="no"?>
<!DOCTYPE svg PUBLIC "-//W3C//DTD SVG 1.1//EN" "http://www.w3.org/Graphics/SVG/1.1/DTD/svg11.dtd">
<svg width="100%" height="100%" viewBox="0 0 702 846" version="1.1" xmlns="http://www.w3.org/2000/svg" xmlns:xlink="http://www.w3.org/1999/xlink" xml:space="preserve" xmlns:serif="http://www.serif.com/" style="fill-rule:evenodd;clip-rule:evenodd;stroke-linecap:round;stroke-linejoin:round;">
    <g id="items" transform="matrix(1.10135,0,0,1.10135,-35.574,-49.0785)">
        <g id="blend">
            <g id="g-root-cp_5_shape-5_1i0xa5bw64p-fill" transform="matrix(1,0,0,1,314.303,68)">
                <g id="cp_5_shape-5_1i0xa5bw64p-fill">
                    <g>
                        <path d="M27.697,268L15.697,268L15.697,160L27.697,160L27.697,268ZM32.297,28.191L27.697,28.191L27.697,160L15.697,160L15.697,28.191L11.017,28.191C10.237,28.191 9.747,27.341 10.137,26.661L20.86,10.448C21.256,9.849 22.136,9.851 22.53,10.451L33.177,26.661C33.577,27.341 33.087,28.191 32.297,28.191Z" style="fill:rgb(251,103,98);"/>
                    </g>
                </g>
            </g>
            <g id="g-root-cp_1_shape-1_140i14e5bw6pv-fill" transform="matrix(1,0,0,1,32,67.8164)">
                <g id="cp_1_shape-1_140i14e5bw6pv-fill">
                    <g>
                        <path d="M214,304.184L46,304.183C26.118,304.183 10,288.081 10,268.199L10,268.184L250,268.184C250,288.066 233.882,304.184 214,304.184ZM254.6,28.375L250,28.375L250,160.184L10,160.184C10,140.302 26.118,124.505 46,124.505L172,124.505C213.07,124.505 238,94.374 238,55.034L238,28.374L233.32,28.374C232.54,28.374 232.05,27.524 232.44,26.844L243.163,10.632C243.559,10.033 244.439,10.034 244.833,10.635L255.48,26.844C255.88,27.525 255.39,28.375 254.6,28.375ZM250,160.184L250,268.184L10,268.184L10,160.184L250,160.184Z" style="fill:rgb(67,221,147);"/>
                    </g>
                </g>
            </g>
            <g id="g-root-cp_3_shape-3_hu0zla5bw5xp-fill" transform="matrix(1,0,0,1,284.303,68)">
                <g id="cp_3_shape-3_hu0zla5bw5xp-fill">
                    <g>
                        <path d="M27.697,268L15.697,268L15.697,160L27.697,160L27.697,268ZM32.297,28.191L27.697,28.191L27.697,160L15.697,160L15.697,28.191L11.017,28.191C10.237,28.191 9.747,27.341 10.137,26.661L20.86,10.448C21.256,9.849 22.136,9.851 22.53,10.451L33.177,26.661C33.577,27.341 33.087,28.191 32.297,28.191Z" style="fill:rgb(26,195,251);"/>
                    </g>
                </g>
            </g>
            <g id="g-root-cp_3_shape-3_1_3dg6m5bw553-fill" transform="matrix(1,0,0,1,32,326)">
                <g id="cp_3_shape-3_1_3dg6m5bw553-fill">
                    <g>
                        <path d="M214,64.321C244,64.321 268,46 268,10L280,10L280,100.306L10,100.306C10,80.423 26.118,64.321 46,64.321L214,64.321Z" style="fill:rgb(26,195,251);"/>
                    </g>
                </g>
            </g>
            <g id="g-root-cp_5_shape-5_1_1hd7hny5bw7b5-fill" transform="matrix(1,0,0,1,320,326)">
                <g id="cp_5_shape-5_1_1hd7hny5bw7b5-fill">
                    <g>
                        <rect x="10" y="10" width="12" height="198" style="fill:rgb(251,103,98);"/>
                    </g>
                </g>
            </g>
            <g id="g-root-cp_3_shape-3_2_v6qg4u5bw6iz-fill" transform="matrix(1,0,0,1,32,416)">
                <g id="cp_3_shape-3_2_v6qg4u5bw6iz-fill">
                    <g>
                        <path d="M280,10L280,117.982L10,117.982L10,10L280,10ZM244,154.008L46,154.008C26.118,154.008 10,137.906 10,118.023L10,118.008L280,118.008C280,137.89 263.882,154.008 244,154.008Z" style="fill:rgb(26,195,251);"/>
                    </g>
                </g>
            </g>
            <g id="g-root-cp_5_shape-5_2_hvweum5bw4y5-fill" transform="matrix(1,0,0,1,32,524)">
                <g id="cp_5_shape-5_2_hvweum5bw4y5-fill">
                    <g>
                        <path d="M244,64.137C274,64.137 298,45.878 298,10L310,10L310,100L10,100C10,80.185 26.118,64.137 46,64.137L244,64.137Z" style="fill:rgb(251,103,98);"/>
                    </g>
                </g>
            </g>
            <g id="g-root-cp_5_shape-5_3_4kfwha5bw6j3-fill" transform="matrix(1,0,0,1,32,614)">
                <g id="cp_5_shape-5_3_4kfwha5bw6j3-fill">
                    <g>
                        <path d="M310,10L310,118L10,118L10,10L310,10ZM274,154.008L46,154.008C26.118,154.008 10,137.882 10,118L310,118C310,137.882 293.882,154.008 274,154.008Z" style="fill:rgb(251,103,98);"/>
                    </g>
                </g>
            </g>
            <g id="g-root-cp_2_shape-2_1hf2wxa5bw6bl-fill" transform="matrix(1,0,0,1,404.378,67.8164)">
                <g id="cp_2_shape-2_1hf2wxa5bw6bl-fill">
                    <g>
                        <path d="M51.622,328.184L219.622,328.184C239.504,328.184 255.622,312.081 255.622,292.199L255.622,292.184L15.622,292.184C15.622,312.066 31.74,328.184 51.622,328.184ZM11.022,28.375L15.622,28.375L15.622,160.184L255.622,160.184C255.622,140.302 239.505,124.505 219.623,124.505L93.622,124.505C52.552,124.505 27.622,94.374 27.622,55.034L27.622,28.374L32.302,28.374C33.082,28.374 33.572,27.524 33.182,26.844L22.459,10.632C22.063,10.033 21.184,10.034 20.79,10.635L10.142,26.844C9.742,27.525 10.232,28.375 11.022,28.375ZM15.622,160.184L15.622,292.184L255.622,292.184L255.622,160.184L15.622,160.184Z" style="fill:rgb(166,218,55);"/>
                    </g>
                </g>
            </g>
            <g id="g-root-cp_4_shape-4_v8lve65bw5jf-fill" transform="matrix(1,0,0,1,374.383,68)">
                <g id="cp_4_shape-4_v8lve65bw5jf-fill">
                    <g>
                        <path d="M15.623,292L27.623,292L27.623,160L15.623,160L15.623,292ZM11.022,28.191L15.622,28.191L15.622,160L27.622,160L27.622,28.191L32.302,28.191C33.082,28.191 33.572,27.341 33.182,26.661L22.459,10.448C22.063,9.849 21.184,9.851 20.79,10.451L10.142,26.661C9.742,27.341 10.232,28.191 11.022,28.191Z" style="fill:rgb(135,105,253);"/>
                    </g>
                </g>
            </g>
            <g id="g-root-cp_6_shape-6_hx5d0u5bw74d-fill" transform="matrix(1,0,0,1,344.383,68)">
                <g id="cp_6_shape-6_hx5d0u5bw74d-fill">
                    <g>
                        <path d="M15.623,292L27.623,292L27.623,160L15.623,160L15.623,292ZM11.022,28.191L15.622,28.191L15.622,160L27.622,160L27.622,28.191L32.302,28.191C33.082,28.191 33.572,27.341 33.182,26.661L22.459,10.448C22.063,9.849 21.184,9.851 20.79,10.451L10.142,26.661C9.742,27.341 10.232,28.191 11.022,28.191Z" style="fill:rgb(247,148,56);"/>
                    </g>
                </g>
            </g>
            <g id="g-root-cp_4_shape-4_1_4mbbqm5bw5jj-fill" transform="matrix(1,0,0,1,380,350)">
                <g id="cp_4_shape-4_1_4mbbqm5bw5jj-fill">
                    <g>
                        <path d="M76,64.321C46,64.321 22,46 22,10L10,10L10,100.306L280,100.306C280,80.423 263.882,64.321 244,64.321L76,64.321Z" style="fill:rgb(135,105,253);"/>
                    </g>
                </g>
            </g>
            <g id="g-root-cp_4_shape-4_2_1ursdgu5bw6wx-fill" transform="matrix(1,0,0,1,380,440)">
                <g id="cp_4_shape-4_2_1ursdgu5bw6wx-fill">
                    <g>
                        <path d="M10,10L10,118L280,118L280,10L10,10ZM46,154L244,154C263.882,154 280,137.898 280,118.016L280,118L10,118C10,137.882 26.118,154 46,154Z" style="fill:rgb(135,105,253);"/>
                    </g>
                </g>
            </g>
            <g id="g-root-cp_6_shape-6_1_1hgyc6m5bw5c3-fill" transform="matrix(1,0,0,1,350,350)">
                <g id="cp_6_shape-6_1_1hgyc6m5bw5c3-fill">
                    <g>
                        <rect x="10" y="10" width="12" height="198" style="fill:rgb(247,148,56);"/>
                    </g>
                </g>
            </g>
            <g id="g-root-cp_6_shape-6_2_145htta5bw6x1-fill" transform="matrix(1,0,0,1,350,548)">
                <g id="cp_6_shape-6_2_145htta5bw6x1-fill">
                    <g>
                        <path d="M76,64.321C46,64.321 22,46 22,10L10,10L10,100.306L310,100.306C310,80.423 293.882,64.321 274,64.321L76,64.321Z" style="fill:rgb(247,148,56);"/>
                    </g>
                </g>
            </g>
            <g id="g-root-cp_6_shape-6_3_qunsj25bw5c7-fill" transform="matrix(1,0,0,1,350,638)">
                <g id="cp_6_shape-6_3_qunsj25bw5c7-fill">
                    <g>
                        <path d="M10,10L10,118L310,118L310,10L10,10ZM46,154L274,154C293.882,154 310,137.898 310,118.016L310,118L10,118C10,137.882 26.118,154 46,154Z" style="fill:rgb(247,148,56);"/>
                    </g>
                </g>
            </g>
            <g id="g-root-tx_ensuresc_1q880tq5c0emc-fill" transform="matrix(1,0,0,1,446,302)">
                <g id="tx_ensuresc_1q880tq5c0emc-fill">
                    <g>
                        <g>
                            <g transform="matrix(1,0,0,1,14.29,31.2)">
                                <text x="0px" y="0px" style="font-family:'ArialMT', 'Arial', sans-serif;font-size:15px;fill:rgb(44,44,44);">Ensures consistent and</text>
                            </g>
                            <g transform="matrix(1,0,0,1,27.61,49.2)">
                                <text x="0px" y="0px" style="font-family:'ArialMT', 'Arial', sans-serif;font-size:15px;fill:rgb(44,44,44);">dependable service</text>
                            </g>
                            <g transform="matrix(1,0,0,1,64.97,67.2)">
                                <text x="0px" y="0px" style="font-family:'ArialMT', 'Arial', sans-serif;font-size:15px;fill:rgb(44,44,44);">delivery<tspan x="50.574px " y="0px ">.</tspan></text>
                            </g>
                        </g>
                    </g>
                </g>
            </g>
            <g id="g-root-tx_easilyad_9m71q5bw7ib-fill" transform="matrix(1,0,0,1,62,302)">
                <g id="tx_easilyad_9m71q5bw7ib-fill">
                    <g>
                        <g>
                            <g transform="matrix(1,0,0,1,18.65,28.2)">
                                <text x="0px" y="0px" style="font-family:'ArialMT', 'Arial', sans-serif;font-size:15px;fill:rgb(44,44,44);">Easily adapts to growing</text>
                            </g>
                            <g transform="matrix(1,0,0,1,12.9,46.2)">
                                <text x="0px" y="0px" style="font-family:'ArialMT', 'Arial', sans-serif;font-size:15px;fill:rgb(44,44,44);">communication demands.</text>
                            </g>
                        </g>
                    </g>
                </g>
            </g>
            <g transform="matrix(1,0,0,1,495.55,300)">
                <g id="g-root-tx_reliabil_m980mm5c0e17-fill">
                    <g id="tx_reliabil_m980mm5c0e17-fill">
                        <g>
                            <g>
                                <text x="0px" y="0px" style="font-family:'Arial-BoldMT', 'Arial', sans-serif;font-weight:700;font-size:20px;fill:rgb(44,44,44);">Reliability</text>
                            </g>
                        </g>
                    </g>
                </g>
            </g>
            <g transform="matrix(1,0,0,1,78.13,498)">
                <g id="g-root-tx_callcent_1d14u265bxjid-fill">
                    <g id="tx_callcent_1d14u265bxjid-fill">
                        <g>
                            <g>
                                <text x="0px" y="0px" style="font-family:'Arial-BoldMT', 'Arial', sans-serif;font-weight:700;font-size:20px;fill:rgb(44,44,44);">Call Center Readiness</text>
                            </g>
                        </g>
                    </g>
                </g>
            </g>
            <g id="g-root-tx_optimize_93ds1a5bxl3a-fill" transform="matrix(1,0,0,1,71,500)">
                <g id="tx_optimize_93ds1a5bxl3a-fill">
                    <g>
                        <g>
                            <g transform="matrix(1,0,0,1,16.88,28.2)">
                                <g transform="matrix(15,0,0,15,101.704,0)">
                                </g>
                                <g transform="matrix(15,0,0,15,105.738,0)">
                                </g>
                                <g transform="matrix(15,0,0,15,109.772,0)">
                                </g>
                                <text x="0px" y="0px" style="font-family:'ArialMT', 'Arial', sans-serif;font-size:15px;fill:rgb(44,44,44);">Optimized for eﬃcient call</text>
                            </g>
                            <g transform="matrix(1,0,0,1,43.8,46.2)">
                                <text x="0px" y="0px" style="font-family:'ArialMT', 'Arial', sans-serif;font-size:15px;fill:rgb(44,44,44);">center operations.</text>
                            </g>
                        </g>
                    </g>
                </g>
            </g>
            <g transform="matrix(1,0,0,1,460.05,522)">
                <g id="g-root-tx_smartrou_1hjg8j25c0dty-fill">
                    <g id="tx_smartrou_1hjg8j25c0dty-fill">
                        <g>
                            <g>
                                <text x="0px" y="0px" style="font-family:'Arial-BoldMT', 'Arial', sans-serif;font-weight:700;font-size:20px;fill:rgb(44,44,44);">Smart Routing</text>
                            </g>
                        </g>
                    </g>
                </g>
            </g>
            <g id="g-root-tx_supports_18lxt0u5c1ts2-fill" transform="matrix(1,0,0,1,386,722)">
                <g id="tx_supports_18lxt0u5c1ts2-fill">
                    <g>
                        <g>
                            <g transform="matrix(1,0,0,1,15.13,28.2)">
                                <text x="0px" y="0px" style="font-family:'ArialMT', 'Arial', sans-serif;font-size:15px;fill:rgb(44,44,44);">Supports diverse media formats</text>
                            </g>
                            <g transform="matrix(1,0,0,1,22.27,46.2)">
                                <text x="0px" y="0px" style="font-family:'ArialMT', 'Arial', sans-serif;font-size:15px;fill:rgb(44,44,44);">for enhanced communication.</text>
                            </g>
                        </g>
                    </g>
                </g>
            </g>
            <g id="g-root-tx_intellig_hrj38u5c1t73-fill" transform="matrix(1,0,0,1,425,524)">
                <g id="tx_intellig_hrj38u5c1t73-fill">
                    <g>
                        <g>
                            <g transform="matrix(1,0,0,1,15.13,28.2)">
                                <text x="0px" y="0px" style="font-family:'ArialMT', 'Arial', sans-serif;font-size:15px;fill:rgb(44,44,44);">Intelligent call routing for</text>
                            </g>
                            <g transform="matrix(1,0,0,1,26.16,46.2)">
                                <text x="0px" y="0px" style="font-family:'ArialMT', 'Arial', sans-serif;font-size:15px;fill:rgb(44,44,44);">optimal performance.</text>
                            </g>
                        </g>
                    </g>
                </g>
            </g>
            <g transform="matrix(1,0,0,1,154.91,696)">
                <g id="g-root-tx_security_1hegfu65bz11c-fill">
                    <g id="tx_security_1hegfu65bz11c-fill">
                        <g>
                            <g>
                                <text x="0px" y="0px" style="font-family:'Arial-BoldMT', 'Arial', sans-serif;font-weight:700;font-size:20px;fill:rgb(44,44,44);">Security</text>
                            </g>
                        </g>
                    </g>
                </g>
            </g>
            <g id="g-root-tx_integrat_dhbuwe5byzgh-fill" transform="matrix(1,0,0,1,74,698)">
                <g id="tx_integrat_dhbuwe5byzgh-fill">
                    <g>
                        <g>
                            <g transform="matrix(1,0,0,1,13.43,28.2)">
                                <text x="0px" y="0px" style="font-family:'ArialMT', 'Arial', sans-serif;font-size:15px;fill:rgb(44,44,44);">Integrated security features for</text>
                            </g>
                            <g transform="matrix(1,0,0,1,63.47,46.2)">
                                <text x="0px" y="0px" style="font-family:'ArialMT', 'Arial', sans-serif;font-size:15px;fill:rgb(44,44,44);">data protection.</text>
                            </g>
                        </g>
                    </g>
                </g>
            </g>
            <g transform="matrix(1,0,0,1,426.72,720)">
                <g id="g-root-tx_mediacap_dikt2m5c1se9-fill">
                    <g id="tx_mediacap_dikt2m5c1se9-fill">
                        <g>
                            <g>
                                <text x="0px" y="0px" style="font-family:'Arial-BoldMT', 'Arial', sans-serif;font-weight:700;font-size:20px;fill:rgb(44,44,44);">Media Capabilities</text>
                            </g>
                        </g>
                    </g>
                </g>
            </g>
            <g transform="matrix(1,0,0,1,115.29,300)">
                <g id="g-root-tx_scalabil_vbq8tq5bw6q2-fill">
                    <g id="tx_scalabil_vbq8tq5bw6q2-fill">
                        <g>
                            <g>
                                <text x="0px" y="0px" style="font-family:'Arial-BoldMT', 'Arial', sans-serif;font-weight:700;font-size:20px;fill:rgb(44,44,44);">Scalability</text>
                            </g>
                        </g>
                    </g>
                </g>
            </g>
            <g id="g-root-cp_5_shape-5_1i0xa5bw64p-stroke" transform="matrix(1,0,0,1,314.303,68)">
                <g id="cp_5_shape-5_1i0xa5bw64p-stroke">
                    <g>
                        <path d="M15.697,160L15.697,268M27.697,268L27.697,160M15.697,160L15.697,28.191L11.017,28.191C10.237,28.191 9.747,27.341 10.137,26.661L20.86,10.448C21.256,9.849 22.136,9.851 22.53,10.451L33.177,26.661C33.577,27.341 33.087,28.191 32.297,28.191L27.697,28.191L27.697,160" style="fill:none;stroke:rgb(44,44,44);stroke-width:2px;"/>
                    </g>
                </g>
            </g>
            <g id="g-root-cp_1_shape-1_140i14e5bw6pv-stroke" transform="matrix(1,0,0,1,32,67.8164)">
                <g id="cp_1_shape-1_140i14e5bw6pv-stroke">
                    <g>
                        <path d="M10,160.184C10,140.301 26.118,124.321 46,124.321L172,124.321C213.07,124.321 238,94.191 238,54.851L238,28.191L233.32,28.191C232.54,28.191 232.05,27.341 232.44,26.661L243.163,10.448C243.559,9.849 244.439,9.851 244.833,10.451L255.48,26.661C255.88,27.341 255.39,28.191 254.6,28.191L250,28.191L250,160.184M250,268.184C250,288.066 233.882,304.191 214,304.191L46,304.191C26.118,304.191 10,288.081 10,268.199L10,268.184M250,268.184L250,160.184M10,160.184L10,268.184" style="fill:none;stroke:rgb(44,44,44);stroke-width:2px;"/>
                    </g>
                </g>
            </g>
            <g id="g-root-cp_3_shape-3_hu0zla5bw5xp-stroke" transform="matrix(1,0,0,1,284.303,68)">
                <g id="cp_3_shape-3_hu0zla5bw5xp-stroke">
                    <g>
                        <path d="M15.697,160L15.697,268M27.697,268L27.697,160M15.697,160L15.697,28.191L11.017,28.191C10.237,28.191 9.747,27.341 10.137,26.661L20.86,10.448C21.256,9.849 22.136,9.851 22.53,10.451L33.177,26.661C33.577,27.341 33.087,28.191 32.297,28.191L27.697,28.191L27.697,160" style="fill:none;stroke:rgb(44,44,44);stroke-width:2px;"/>
                    </g>
                </g>
            </g>
            <g id="g-root-cp_3_shape-3_1_3dg6m5bw553-stroke" transform="matrix(1,0,0,1,32,326)">
                <g id="cp_3_shape-3_1_3dg6m5bw553-stroke">
                    <g>
                        <path d="M268,10C268,46 244,64.321 214,64.321L46,64.321C26.118,64.321 10,80.423 10,100.306M280,100.306L280,10" style="fill:none;stroke:rgb(44,44,44);stroke-width:2px;"/>
                    </g>
                </g>
            </g>
            <g id="g-root-cp_5_shape-5_1_1hd7hny5bw7b5-stroke" transform="matrix(1,0,0,1,320,326)">
                <g id="cp_5_shape-5_1_1hd7hny5bw7b5-stroke">
                    <g>
                        <path d="M10,10L10,208M22,208L22,10" style="fill:none;stroke:rgb(44,44,44);stroke-width:2px;"/>
                    </g>
                </g>
            </g>
            <g id="g-root-cp_3_shape-3_2_v6qg4u5bw6iz-stroke" transform="matrix(1,0,0,1,32,416)">
                <g id="cp_3_shape-3_2_v6qg4u5bw6iz-stroke">
                    <g>
                        <path d="M280,117.982L280,10M10,10L10,118M280,118.008C280,137.89 263.882,154.008 244,154.008L46,154.008C26.118,154.008 10,137.906 10,118.023L10,118.008" style="fill:none;stroke:rgb(44,44,44);stroke-width:2px;"/>
                    </g>
                </g>
            </g>
            <g id="g-root-cp_5_shape-5_2_hvweum5bw4y5-stroke" transform="matrix(1,0,0,1,32,524)">
                <g id="cp_5_shape-5_2_hvweum5bw4y5-stroke">
                    <g>
                        <path d="M298,10C298,45.878 274,64.137 244,64.137L46,64.137C26.118,64.137 10,80.185 10,100M310,100L310,10" style="fill:none;stroke:rgb(44,44,44);stroke-width:2px;"/>
                    </g>
                </g>
            </g>
            <g id="g-root-cp_5_shape-5_3_4kfwha5bw6j3-stroke" transform="matrix(1,0,0,1,32,614)">
                <g id="cp_5_shape-5_3_4kfwha5bw6j3-stroke">
                    <g>
                        <path d="M310,118L310,10M10,10L10,118M310,118C310,137.882 293.882,154.008 274,154.008L46,154.008C26.118,154.008 10,137.882 10,118" style="fill:none;stroke:rgb(44,44,44);stroke-width:2px;"/>
                    </g>
                </g>
            </g>
            <g id="g-root-cp_2_shape-2_1hf2wxa5bw6bl-stroke" transform="matrix(1,0,0,1,404.378,67.8164)">
                <g id="cp_2_shape-2_1hf2wxa5bw6bl-stroke">
                    <g>
                        <path d="M255.622,160.184C255.622,140.301 239.505,124.321 219.623,124.321L93.622,124.321C52.552,124.321 27.622,94.191 27.622,54.851L27.622,28.191L32.302,28.191C33.082,28.191 33.572,27.341 33.182,26.661L22.459,10.448C22.063,9.849 21.184,9.851 20.79,10.451L10.142,26.661C9.742,27.341 10.232,28.191 11.022,28.191L15.622,28.191L15.622,160.184M15.622,292.184C15.622,312.066 31.74,328.184 51.622,328.184L219.623,328.183C239.505,328.183 255.622,312.081 255.622,292.199L255.622,292.184M15.622,292.184L15.622,160.184M255.622,160.184L255.622,292.184" style="fill:none;stroke:rgb(44,44,44);stroke-width:2px;"/>
                    </g>
                </g>
            </g>
            <g id="g-root-cp_4_shape-4_v8lve65bw5jf-stroke" transform="matrix(1,0,0,1,374.383,68)">
                <g id="cp_4_shape-4_v8lve65bw5jf-stroke">
                    <g>
                        <path d="M27.622,160L27.622,292M15.622,292L15.622,160M27.622,160L27.622,28.191L32.302,28.191C33.082,28.191 33.572,27.341 33.182,26.661L22.459,10.448C22.063,9.849 21.184,9.851 20.79,10.451L10.142,26.661C9.742,27.341 10.232,28.191 11.022,28.191L15.622,28.191L15.622,160" style="fill:none;stroke:rgb(44,44,44);stroke-width:2px;"/>
                    </g>
                </g>
            </g>
            <g id="g-root-cp_6_shape-6_hx5d0u5bw74d-stroke" transform="matrix(1,0,0,1,344.383,68)">
                <g id="cp_6_shape-6_hx5d0u5bw74d-stroke">
                    <g>
                        <path d="M27.622,160L27.622,292M15.622,292L15.622,160M27.622,160L27.622,28.191L32.302,28.191C33.082,28.191 33.572,27.341 33.182,26.661L22.459,10.448C22.063,9.849 21.184,9.851 20.79,10.451L10.142,26.661C9.742,27.341 10.232,28.191 11.022,28.191L15.622,28.191L15.622,160" style="fill:none;stroke:rgb(44,44,44);stroke-width:2px;"/>
                    </g>
                </g>
            </g>
            <g id="g-root-cp_4_shape-4_1_4mbbqm5bw5jj-stroke" transform="matrix(1,0,0,1,380,350)">
                <g id="cp_4_shape-4_1_4mbbqm5bw5jj-stroke">
                    <g>
                        <path d="M22,10C22,46 46,64.321 76,64.321L244,64.321C263.882,64.321 280,80.423 280,100.306M10,100.306L10,10" style="fill:none;stroke:rgb(44,44,44);stroke-width:2px;"/>
                    </g>
                </g>
            </g>
            <g id="g-root-cp_4_shape-4_2_1ursdgu5bw6wx-stroke" transform="matrix(1,0,0,1,380,440)">
                <g id="cp_4_shape-4_2_1ursdgu5bw6wx-stroke">
                    <g>
                        <path d="M10,118L10,10M280,10L280,118M10,118C10,137.882 26.118,154.008 46,154.008L244,154.008C263.882,154.008 280,137.898 280,118.016L280,118" style="fill:none;stroke:rgb(44,44,44);stroke-width:2px;"/>
                    </g>
                </g>
            </g>
            <g id="g-root-cp_6_shape-6_1_1hgyc6m5bw5c3-stroke" transform="matrix(1,0,0,1,350,350)">
                <g id="cp_6_shape-6_1_1hgyc6m5bw5c3-stroke">
                    <g>
                        <path d="M22,10L22,208M10,208L10,10" style="fill:none;stroke:rgb(44,44,44);stroke-width:2px;"/>
                    </g>
                </g>
            </g>
            <g id="g-root-cp_6_shape-6_2_145htta5bw6x1-stroke" transform="matrix(1,0,0,1,350,548)">
                <g id="cp_6_shape-6_2_145htta5bw6x1-stroke">
                    <g>
                        <path d="M22,10C22,46 46,64.321 76,64.321L274,64.321C293.882,64.321 310,80.423 310,100.306M10,100.306L10,10" style="fill:none;stroke:rgb(44,44,44);stroke-width:2px;"/>
                    </g>
                </g>
            </g>
            <g id="g-root-cp_6_shape-6_3_qunsj25bw5c7-stroke" transform="matrix(1,0,0,1,350,638)">
                <g id="cp_6_shape-6_3_qunsj25bw5c7-stroke">
                    <g>
                        <path d="M10,118L10,10M310,10L310,118M10,118C10,137.882 26.118,154.008 46,154.008L274,154.008C293.882,154.008 310,137.898 310,118.016L310,118" style="fill:none;stroke:rgb(44,44,44);stroke-width:2px;"/>
                    </g>
                </g>
            </g>
            <g id="g-root-ic_24_vbq8tq5bxk3z-stroke" transform="matrix(1,0,0,1,143,404)">
                <g id="ic_24_vbq8tq5bxk3z-stroke">
                    <g>
                        <path d="M11,57L11,39C11,37.895 11.895,37 13,37L55,37C56.105,37 57,37.895 57,39L57,57M21,46C21,44.343 22.343,43 24,43C25.657,43 27,44.343 27,46C26.981,46.981 26.628,47.926 26,48.68L21,55L27,55M36,51L30,51C30,49 30,43 36,43L36,55M42,43L42,55M42,48L46,48C47.105,48 48,48.895 48,50L48,55M47,37L47,32M43,27L51,27C51,27 52,27 52,28L52,31C52,31 52,32 51,32L43,32C43,32 42,32 42,31L42,28C42,28 42,27 43,27M17,17L17,18C17,20.761 19.239,23 22,23C24.761,23 27,20.761 27,18L27,17M27,17L17,17L17,12.7C16.994,12.277 17.26,11.898 17.66,11.76C20.464,10.741 23.536,10.741 26.34,11.76C26.74,11.898 27.006,12.277 27,12.7L27,17ZM14.26,33C15.18,29.479 18.361,27.023 22,27.023C25.639,27.023 28.82,29.479 29.74,33" style="fill:none;stroke:rgb(44,44,44);stroke-width:2px;"/>
                    </g>
                </g>
            </g>
            <g id="g-root-ic_2_18fp25q5c1s7c-stroke" transform="matrix(1,0,0,1,491,428)">
                <g id="ic_2_18fp25q5c1s7c-stroke">
                    <g>
                        <path d="M52.5,26.5C54.7,26.5 56.5,28.3 56.5,30.5L56.5,52.5C56.5,54.7 54.7,56.5 52.5,56.5L15.5,56.5C13.3,56.5 11.5,54.7 11.5,52.5L11.5,30.5C11.5,28.3 13.3,26.5 15.5,26.5L52.5,26.5ZM37,18.5L31,18.5L31,26.5L37,26.5L37,18.5ZM42,14.5C42,16.7 40.2,18.5 38,18.5L30,18.5C27.8,18.5 26,16.7 26,14.5L26,11.5L42,11.5L42,14.5ZM18,33.3C17.779,33.3 17.6,33.121 17.6,32.9C17.6,32.679 17.779,32.5 18,32.5M18,33.3C18.221,33.3 18.4,33.121 18.4,32.9C18.4,32.679 18.221,32.5 18,32.5M19,56.5L25,36.5M49,56.5L43,36.5M34,36.7L34,40.7M34,46.9L34,50.9" style="fill:none;stroke:rgb(44,44,44);stroke-width:2px;"/>
                    </g>
                </g>
            </g>
            <g id="g-root-ic_brid_dfgfn25c0du5-stroke" transform="matrix(1,0,0,1,506,206)">
                <g id="ic_brid_dfgfn25c0du5-stroke">
                    <g>
                        <path d="M57,54.94C51.98,55.98 48.88,50.94 48.88,50.94C47.313,53.444 44.593,54.992 41.64,55.06C38.715,54.914 36.034,53.384 34.42,50.94C32.853,53.444 30.133,54.992 27.18,55.06C24.276,54.911 21.614,53.398 20,50.98C20,50.98 16,56 11,55.02M57,46.94C51.98,47.98 48.88,42.94 48.88,42.94C47.313,45.444 44.593,46.992 41.64,47.06C38.715,46.914 36.034,45.384 34.42,42.94C32.853,45.444 30.133,46.992 27.18,47.06C24.276,46.911 21.614,45.398 20,42.98C20,42.98 16,48 11,47.02M50,39.16C50,35.294 53.134,32.16 57,32.16M11,32.16C14.866,32.16 18,35.294 18,39.16M16.74,35.16L51.26,35.16M55,32.46C55,32.46 53,13.16 44,13.16L24,13.16C15,13.16 13,32.46 13,32.46M49.28,15.9L42,35.16L34,13.16L27,35.16L18.72,15.9" style="fill:none;stroke:rgb(44,44,44);stroke-width:2px;"/>
                    </g>
                </g>
            </g>
            <g id="g-root-ic_grow_m7z2ge5bxl3g-stroke" transform="matrix(1,0,0,1,128,206)">
                <g id="ic_grow_m7z2ge5bxl3g-stroke">
                    <g>
                        <path d="M36.982,11C36.456,24.896 25.024,35 11,35M33,15L37,11L41,15M55.498,15.904C55.822,15.755 56.202,15.79 56.494,15.996C56.785,16.202 56.945,16.548 56.912,16.904C56.598,20.74 55.148,29.556 48.49,29.556C45.279,29.497 42.707,26.877 42.707,23.665C42.707,20.453 45.279,17.833 48.49,17.774C50.928,17.626 53.311,16.99 55.498,15.904ZM50.954,22.346C47.626,23.639 45.038,26.335 43.882,29.714C43.627,30.449 43.498,31.222 43.5,32L43.5,57M11,57L57,57M11.5,52C11.5,52 15.5,52 15.5,57C15.5,57 15.5,52 19.5,52M29.5,53C30.094,51.276 31.679,50.088 33.5,50M28.5,43.928C29.672,45.099 29.672,46.999 28.501,48.171C27.329,49.342 25.43,49.343 24.258,48.172C23.23,46.544 22.459,44.766 21.974,42.902C21.861,42.546 21.956,42.156 22.22,41.892C22.484,41.628 22.874,41.533 23.23,41.646C25.093,42.132 26.871,42.901 28.5,43.928L28.5,43.928ZM28.4,48.274C29.12,49.383 29.502,50.678 29.5,52L29.5,57M28.474,34.466C28.124,34.52 27.829,34.755 27.698,35.084C27.567,35.413 27.619,35.786 27.836,36.066C29.836,38.616 34.414,43.466 38.74,40.698C40.935,39.299 41.581,36.386 40.182,34.191C38.783,31.995 35.869,31.35 33.674,32.75C32.07,33.657 30.303,34.24 28.474,34.466L28.474,34.466ZM34.32,36.692C37.122,36.134 40.027,36.84 42.26,38.622C42.747,39.009 43.166,39.475 43.5,40" style="fill:none;stroke:rgb(44,44,44);stroke-width:2px;"/>
                    </g>
                </g>
            </g>
            <g id="g-root-ic_safe_18kouum5bz0ua-stroke" transform="matrix(1,0,0,1,158,602)">
                <g id="ic_safe_18kouum5bz0ua-stroke">
                    <g>
                        <path d="M15.008,11L53.008,11C53.008,11 57.008,11 57.008,15L57.008,51C57.008,51 57.008,55 53.008,55L15.008,55C15.008,55 11.008,55 11.008,51L11.008,15C11.008,15 11.008,11 15.008,11M15.008,55L15.008,57M53.008,55L53.008,57M17,43L17,45C17,47.209 18.791,49 21,49L47,49C49.209,49 51,47.209 51,45L51,21C51,18.791 49.209,17 47,17L21,17C18.791,17 17,18.791 17,21L17,23M17.008,29L17.008,37M15.008,23L19.008,23L19.008,29L15.008,29L15.008,23ZM15.008,37L19.008,37L19.008,43L15.008,43L15.008,37ZM26.008,33C26.008,37.971 30.037,42 35.008,42C39.979,42 44.008,37.971 44.008,33C44.008,28.029 39.979,24 35.008,24C30.037,24 26.008,28.029 26.008,33M30.008,33C30.008,35.761 32.247,38 35.008,38C37.769,38 40.008,35.761 40.008,33C40.008,30.239 37.769,28 35.008,28C32.247,28 30.008,30.239 30.008,33M35.008,24L35.008,28M28.644,26.636L31.472,29.466M26.008,33L30.008,33M28.644,39.364L31.472,36.536M35.008,42L35.008,38M41.372,39.366L38.544,36.536M44.008,33L40.008,33M41.372,26.636L38.544,29.466" style="fill:none;stroke:rgb(44,44,44);stroke-width:2px;"/>
                    </g>
                </g>
            </g>
            <g id="g-root-ic_play_4ot8325c1s77-stroke" transform="matrix(1,0,0,1,476,626)">
                <g id="ic_play_4ot8325c1s77-stroke">
                    <g>
                        <path d="M32.53,43.956C32.222,43.763 31.833,43.753 31.515,43.929C31.197,44.106 31,44.44 31,44.804L31,51.204C31,51.568 31.197,51.902 31.515,52.079C31.833,52.255 32.222,52.245 32.53,52.052L37.644,48.852C37.936,48.669 38.114,48.349 38.114,48.004C38.114,47.659 37.936,47.339 37.644,47.156L32.53,43.956ZM13,11L55,11C55,11 57,11 57,13L57,55C57,55 57,57 55,57L13,57C13,57 11,57 11,55L11,13C11,13 11,11 13,11M48,46L51,49L48,52M43,46L46,49L43,52M20,52L17,49L20,46M25,52L22,49L25,46M17,39L17,17L51,17L51,39L17,39Z" style="fill:none;stroke:rgb(44,44,44);stroke-width:2px;"/>
                    </g>
                </g>
            </g>
        </g>
    </g>
</svg>
