<?xml version="1.0" encoding="UTF-8" standalone="no"?>
<!DOCTYPE svg PUBLIC "-//W3C//DTD SVG 1.1//EN" "http://www.w3.org/Graphics/SVG/1.1/DTD/svg11.dtd">
<svg width="100%" height="100%" viewBox="0 0 600 515" version="1.1" xmlns="http://www.w3.org/2000/svg" xmlns:xlink="http://www.w3.org/1999/xlink" xml:space="preserve" xmlns:serif="http://www.serif.com/" style="fill-rule:evenodd;clip-rule:evenodd;stroke-linecap:round;stroke-linejoin:round;">
    <g id="items" transform="matrix(1,0,0,1,0,14)">
        <g id="blend">
            <g id="g-root-sy_-1_cu-1_1hhl5xa8nvimc-fill" transform="matrix(1,0,0,1,14,-9)">
                <g id="sy_-1_cu-1_1hhl5xa8nvimc-fill">
                    <g>
                        <path d="M286,10L562,130L550,154L22,154L10,130L286,10ZM562,490L10,490L22,466L550,466L562,490Z" style="fill:rgb(171,171,171);"/>
                    </g>
                </g>
            </g>
            <g id="g-root-sy_6_cu_1464njy8nvk79-fill" transform="matrix(1,0,0,1,374,291)">
                <g id="sy_6_cu_1464njy8nvk79-fill">
                    <g>
                        <rect x="10" y="10" width="168" height="156" style="fill:rgb(251,103,98);"/>
                    </g>
                </g>
            </g>
            <g id="g-root-sy_5_cu_qvam9q8nvime-fill" transform="matrix(1,0,0,1,206,291)">
                <g id="sy_5_cu_qvam9q8nvime-fill">
                    <g>
                        <rect x="10" y="10" width="168" height="156" style="fill:rgb(247,148,56);"/>
                    </g>
                </g>
            </g>
            <g id="g-root-sy_4_cu_dju3we8nvk7b-fill" transform="matrix(1,0,0,1,38,291)">
                <g id="sy_4_cu_dju3we8nvk7b-fill">
                    <g>
                        <rect x="10" y="10" width="168" height="156" style="fill:rgb(255,231,17);"/>
                    </g>
                </g>
            </g>
            <g id="g-root-sy_3_cu_94n2v28nvhts-fill" transform="matrix(1,0,0,1,374,135)">
                <g id="sy_3_cu_94n2v28nvhts-fill">
                    <g>
                        <rect x="10" y="10" width="168" height="156" style="fill:rgb(26,195,251);"/>
                    </g>
                </g>
            </g>
            <g id="g-root-sy_2_cu_902m68nvimh-fill" transform="matrix(1,0,0,1,206,135)">
                <g id="sy_2_cu_902m68nvimh-fill">
                    <g>
                        <rect x="10" y="10" width="168" height="156" style="fill:rgb(166,218,55);"/>
                    </g>
                </g>
            </g>
            <g id="g-root-sy_1_cu_1hjgl6m8nvhmq-fill" transform="matrix(1,0,0,1,38,135)">
                <g id="sy_1_cu_1hjgl6m8nvhmq-fill">
                    <g>
                        <rect x="10" y="10" width="168" height="156" style="fill:rgb(67,221,147);"/>
                    </g>
                </g>
            </g>
            <g transform="matrix(1,0,0,1,213.44,121)">
                <g id="g-root-tx_voiptech_1hhl9328nzqbp-fill">
                    <g id="tx_voiptech_1hhl9328nzqbp-fill">
                        <g>
                            <g>
                                <text x="0px" y="0px" style="font-family:'ArialMT', 'Arial', sans-serif;font-size:20px;fill:rgb(44,44,44);">V<tspan x="12.236px 23.359px " y="0px 0px ">oI</tspan>PT<tspan x="52.256px 63.379px " y="0px 0px ">ec</tspan>h Solutions</text>
                            </g>
                        </g>
                    </g>
                </g>
            </g>
            <g id="g-root-tx_smoothin_14802ta8nvj7n-fill" transform="matrix(1,0,0,1,50,207)">
                <g id="tx_smoothin_14802ta8nvj7n-fill">
                    <g>
                        <g>
                            <g transform="matrix(1,0,0,1,47.1,34)">
                                <text x="0px" y="0px" style="font-family:'ArialMT', 'Arial', sans-serif;font-size:20px;fill:rgb(44,44,44);">Smooth</text>
                            </g>
                            <g transform="matrix(1,0,0,1,15.72,58)">
                                <text x="0px" y="0px" style="font-family:'ArialMT', 'Arial', sans-serif;font-size:20px;fill:rgb(44,44,44);">Interoperability</text>
                            </g>
                        </g>
                    </g>
                </g>
            </g>
            <g id="g-root-tx_scalable_4g2xj28nwyks-fill" transform="matrix(1,0,0,1,230,207)">
                <g id="tx_scalable_4g2xj28nwyks-fill">
                    <g>
                        <g>
                            <g transform="matrix(1,0,0,1,32.15,34)">
                                <text x="0px" y="0px" style="font-family:'ArialMT', 'Arial', sans-serif;font-size:20px;fill:rgb(44,44,44);">Scalable</text>
                            </g>
                            <g transform="matrix(1,0,0,1,12.17,58)">
                                <text x="0px" y="0px" style="font-family:'ArialMT', 'Arial', sans-serif;font-size:20px;fill:rgb(44,44,44);">Performance</text>
                            </g>
                        </g>
                    </g>
                </g>
            </g>
            <g id="g-root-tx_advanced_8xruwu8nwwsu-fill" transform="matrix(1,0,0,1,404,207)">
                <g id="tx_advanced_8xruwu8nwwsu-fill">
                    <g>
                        <g>
                            <g transform="matrix(1,0,0,1,17.44,34)">
                                <text x="0px" y="0px" style="font-family:'ArialMT', 'Arial', sans-serif;font-size:20px;fill:rgb(44,44,44);">Advanced</text>
                            </g>
                            <g transform="matrix(1,0,0,1,27.29,58)">
                                <text x="0px" y="0px" style="font-family:'ArialMT', 'Arial', sans-serif;font-size:20px;fill:rgb(44,44,44);">Routing</text>
                            </g>
                        </g>
                    </g>
                </g>
            </g>
            <g id="g-root-tx_streamli_zk2eke8nwwst-fill" transform="matrix(1,0,0,1,62,363)">
                <g id="tx_streamli_zk2eke8nwwst-fill">
                    <g>
                        <g>
                            <g transform="matrix(1,0,0,1,14.64,34)">
                                <text x="0px" y="0px" style="font-family:'ArialMT', 'Arial', sans-serif;font-size:20px;fill:rgb(44,44,44);">Streamlines</text>
                            </g>
                            <g transform="matrix(1,0,0,1,25.92,58)">
                                <text x="0px" y="0px" style="font-family:'ArialMT', 'Arial', sans-serif;font-size:20px;fill:rgb(44,44,44);">Spending</text>
                            </g>
                        </g>
                    </g>
                </g>
            </g>
            <g id="g-root-tx_enhances_1414uv28nwy6n-fill" transform="matrix(1,0,0,1,212,363)">
                <g id="tx_enhances_1414uv28nwy6n-fill">
                    <g>
                        <g>
                            <g transform="matrix(1,0,0,1,44.63,34)">
                                <text x="0px" y="0px" style="font-family:'ArialMT', 'Arial', sans-serif;font-size:20px;fill:rgb(44,44,44);">Enhances</text>
                            </g>
                            <g transform="matrix(1,0,0,1,17.18,58)">
                                <text x="0px" y="0px" style="font-family:'ArialMT', 'Arial', sans-serif;font-size:20px;fill:rgb(44,44,44);">Communication</text>
                            </g>
                        </g>
                    </g>
                </g>
            </g>
            <g id="g-root-tx_flexible_8zna668nwvt4-fill" transform="matrix(1,0,0,1,386,363)">
                <g id="tx_flexible_8zna668nwvt4-fill">
                    <g>
                        <g>
                            <g transform="matrix(1,0,0,1,48,34)">
                                <text x="0px" y="0px" style="font-family:'ArialMT', 'Arial', sans-serif;font-size:20px;fill:rgb(44,44,44);">Flexible</text>
                            </g>
                            <g transform="matrix(1,0,0,1,16.87,58)">
                                <g transform="matrix(20,0,0,20,36.6895,0)">
                                </g>
                                <g transform="matrix(20,0,0,20,42.2461,0)">
                                </g>
                                <text x="0px" y="0px" style="font-family:'ArialMT', 'Arial', sans-serif;font-size:20px;fill:rgb(44,44,44);">Conﬁgurations</text>
                            </g>
                        </g>
                    </g>
                </g>
            </g>
            <g id="g-root-sy_-1_cu-1_1hhl5xa8nvimc-stroke" transform="matrix(1,0,0,1,14,-9)">
                <g id="sy_-1_cu-1_1hhl5xa8nvimc-stroke">
                    <g>
                        <path d="M286,10L562,130L550,154L22,154L10,130L286,10ZM562,490L10,490L22,466L550,466L562,490Z" style="fill:none;stroke:rgb(44,44,44);stroke-width:2px;"/>
                    </g>
                </g>
            </g>
            <g id="g-root-sy_6_cu_1464njy8nvk79-stroke" transform="matrix(1,0,0,1,374,291)">
                <g id="sy_6_cu_1464njy8nvk79-stroke">
                    <g>
                        <rect x="10" y="10" width="168" height="156" style="fill:none;stroke:rgb(44,44,44);stroke-width:2px;"/>
                    </g>
                </g>
            </g>
            <g id="g-root-sy_5_cu_qvam9q8nvime-stroke" transform="matrix(1,0,0,1,206,291)">
                <g id="sy_5_cu_qvam9q8nvime-stroke">
                    <g>
                        <rect x="10" y="10" width="168" height="156" style="fill:none;stroke:rgb(44,44,44);stroke-width:2px;"/>
                    </g>
                </g>
            </g>
            <g id="g-root-sy_4_cu_dju3we8nvk7b-stroke" transform="matrix(1,0,0,1,38,291)">
                <g id="sy_4_cu_dju3we8nvk7b-stroke">
                    <g>
                        <rect x="10" y="10" width="168" height="156" style="fill:none;stroke:rgb(44,44,44);stroke-width:2px;"/>
                    </g>
                </g>
            </g>
            <g id="g-root-sy_3_cu_94n2v28nvhts-stroke" transform="matrix(1,0,0,1,374,135)">
                <g id="sy_3_cu_94n2v28nvhts-stroke">
                    <g>
                        <rect x="10" y="10" width="168" height="156" style="fill:none;stroke:rgb(44,44,44);stroke-width:2px;"/>
                    </g>
                </g>
            </g>
            <g id="g-root-sy_2_cu_902m68nvimh-stroke" transform="matrix(1,0,0,1,206,135)">
                <g id="sy_2_cu_902m68nvimh-stroke">
                    <g>
                        <rect x="10" y="10" width="168" height="156" style="fill:none;stroke:rgb(44,44,44);stroke-width:2px;"/>
                    </g>
                </g>
            </g>
            <g id="g-root-sy_1_cu_1hjgl6m8nvhmq-stroke" transform="matrix(1,0,0,1,38,135)">
                <g id="sy_1_cu_1hjgl6m8nvhmq-stroke">
                    <g>
                        <rect x="10" y="10" width="168" height="156" style="fill:none;stroke:rgb(44,44,44);stroke-width:2px;"/>
                    </g>
                </g>
            </g>
            <g id="g-root-ic_cabi_1430a4e8nwx6x-stroke" transform="matrix(1,0,0,1,266,15)">
                <g id="ic_cabi_1430a4e8nwx6x-stroke">
                    <g>
                        <path d="M34,37L57,37M43,55C43,56.105 43.895,57 45,57L55,57C56.105,57 57,56.105 57,55L57,37L43,37L43,55ZM29,33L29,43C28.993,45.206 27.206,46.993 25,47L17,47M11,57L11,39C11,37.895 11.895,37 13,37L24,37M23,47L23,54L18,57M23,54L28,57M57,37L57,13C57,11.895 56.105,11 55,11L43,11L43,37M11,21L11,13C11,11.895 11.895,11 13,11L43,11L43,21M23,11L23,25M33,11L33,25M43,21L43,25L13,25C11.895,25 11,24.105 11,23L11,21M47,15L47,17M37,15L37,17M27,15L27,17M15,15L15,17M47,41L47,43" style="fill:none;stroke:rgb(44,44,44);stroke-width:2px;"/>
                    </g>
                </g>
            </g>
            <g id="g-root-ic_sync_1lqjg3i8nyaz1-stroke" transform="matrix(1,0,0,1,98,147)">
                <g id="ic_sync_1lqjg3i8nyaz1-stroke">
                    <g>
                        <path d="M49.5,22.5L49.5,20.5C49.5,18.291 47.709,16.5 45.5,16.5L35.5,16.5M40.046,21.046L35.5,16.5L40.046,11.954M17.5,45.5L17.5,47.5C17.5,49.709 19.291,51.5 21.5,51.5L31.5,51.5M26.954,46.954L31.5,51.5L26.954,56.046M42.5,29.5L53.5,29.5C53.5,29.5 56.5,29.5 56.5,32.5L56.5,53.5C56.5,53.5 56.5,56.5 53.5,56.5L42.5,56.5C42.5,56.5 39.5,56.5 39.5,53.5L39.5,32.5C39.5,32.5 39.5,29.5 42.5,29.5M56.5,48.5L39.5,48.5M45,39.28L47,41.28L51,37.28M12.914,11.5L27,11.5C28.105,11.5 29,12.395 29,13.5L29,33.5C29,34.605 28.105,35.5 27,35.5L22.5,35.5M22.5,38.928C22.501,39.272 22.329,39.594 22.042,39.784C21.757,39.972 21.396,40 21.086,39.856L12.086,35.684C11.727,35.515 11.499,35.153 11.5,34.756L11.5,12.52C11.499,12.175 11.671,11.853 11.958,11.662C12.244,11.477 12.606,11.453 12.914,11.6L21.914,15.772C22.273,15.941 22.502,16.303 22.5,16.7L22.5,38.928Z" style="fill:none;stroke:rgb(44,44,44);stroke-width:2px;"/>
                    </g>
                </g>
            </g>
            <g id="g-root-ic_grow_1lws6ym8nycjt-stroke" transform="matrix(1,0,0,1,266,147)">
                <g id="ic_grow_1lws6ym8nycjt-stroke">
                    <g>
                        <path d="M36.982,11C36.456,24.896 25.024,35 11,35M33,15L37,11L41,15M55.498,15.904C55.822,15.755 56.202,15.79 56.494,15.996C56.785,16.202 56.945,16.548 56.912,16.904C56.598,20.74 55.148,29.556 48.49,29.556C45.279,29.497 42.707,26.877 42.707,23.665C42.707,20.453 45.279,17.833 48.49,17.774C50.928,17.626 53.311,16.99 55.498,15.904ZM50.954,22.346C47.626,23.639 45.038,26.335 43.882,29.714C43.627,30.449 43.498,31.222 43.5,32L43.5,57M11,57L57,57M11.5,52C11.5,52 15.5,52 15.5,57C15.5,57 15.5,52 19.5,52M29.5,53C30.094,51.276 31.679,50.088 33.5,50M28.5,43.928C29.672,45.099 29.672,46.999 28.501,48.171C27.329,49.342 25.43,49.343 24.258,48.172C23.23,46.544 22.459,44.766 21.974,42.902C21.861,42.546 21.956,42.156 22.22,41.892C22.484,41.628 22.874,41.533 23.23,41.646C25.093,42.132 26.871,42.901 28.5,43.928L28.5,43.928ZM28.4,48.274C29.12,49.383 29.502,50.678 29.5,52L29.5,57M28.474,34.466C28.124,34.52 27.829,34.755 27.698,35.084C27.567,35.413 27.619,35.786 27.836,36.066C29.836,38.616 34.414,43.466 38.74,40.698C40.935,39.299 41.581,36.386 40.182,34.191C38.783,31.995 35.869,31.35 33.674,32.75C32.07,33.657 30.303,34.24 28.474,34.466L28.474,34.466ZM34.32,36.692C37.122,36.134 40.027,36.84 42.26,38.622C42.747,39.009 43.166,39.475 43.5,40" style="fill:none;stroke:rgb(44,44,44);stroke-width:2px;"/>
                    </g>
                </g>
            </g>
            <g id="g-root-ic_1_dl322m8nzrb5-stroke" transform="matrix(1,0,0,1,434,147)">
                <g id="ic_1_dl322m8nzrb5-stroke">
                    <g>
                        <path d="M15,11L53,11C53,11 57,11 57,15L57,53C57,53 57,57 53,57L15,57C15,57 11,57 11,53L11,15C11,15 11,11 15,11M11,26L17.992,26M11,45L21,45M42,11L42,20M44,32L44,41M26,11L26,20M21,45C21,47.761 23.239,50 26,50C28.761,50 31,47.761 31,45C31,42.239 28.761,40 26,40C23.239,40 21,42.239 21,45M46,32L26,32L17.992,26L26,20L46,20L46,32ZM39.5,41L47.5,41L47.5,49L39.5,49L39.5,41ZM31,45L39.5,45M47.5,45L57,45M44,49L44,57M26,32L26,40M26,50L26,57M46,26L57,26" style="fill:none;stroke:rgb(44,44,44);stroke-width:2px;"/>
                    </g>
                </g>
            </g>
            <g id="g-root-ic_1_hvwri68nzr45-stroke" transform="matrix(1,0,0,1,98,303)">
                <g id="ic_1_hvwri68nzr45-stroke">
                    <g>
                        <path d="M28.062,39.938C24.162,43.84 17.838,43.84 13.938,39.938L12,38L30,38L28.062,39.938ZM54.062,39.938C50.162,43.84 43.838,43.84 39.938,39.938L38,38L56,38L54.062,39.938ZM21,42.864C20.938,45.282 22.52,47.436 24.846,48.1L28.464,49.134M47,42.864C47.062,45.282 45.481,47.435 43.156,48.1L39.538,49.134M16.5,16.498C16.5,18.983 18.515,20.998 21,20.998C23.485,20.998 25.5,18.983 25.5,16.498C25.5,14.013 23.485,11.998 21,11.998C18.515,11.998 16.5,14.013 16.5,16.498ZM21,23C15,23 15,27.686 15,31L18,31L19,38L23,38L24,31L27,31C27,27.682 27,23 21,23ZM42.158,54.482L42.186,54.534C42.349,54.844 42.338,55.217 42.157,55.517C41.976,55.817 41.651,56 41.3,56L26.7,56C26.349,56.001 26.023,55.817 25.842,55.517C25.66,55.216 25.65,54.842 25.814,54.532L25.842,54.48L29.452,47.12C29.789,46.434 30.488,46 31.252,46.002L36.76,46.002C37.524,46 38.223,46.434 38.56,47.12L42.158,54.482ZM52,18L48.6,18C47.448,17.992 46.429,18.744 46.095,19.846C45.761,20.948 46.192,22.139 47.154,22.772L50.834,25.226C51.796,25.857 52.229,27.046 51.898,28.148C51.567,29.25 50.551,30.004 49.4,30L46,30M50,18.002L50,16.002M48,32.002L48,30.002" style="fill:none;stroke:rgb(44,44,44);stroke-width:2px;"/>
                    </g>
                </g>
            </g>
            <g id="g-root-ic_labo_1qbz7zy8o16h1-stroke" transform="matrix(1,0,0,1,266,303)">
                <g id="ic_labo_1qbz7zy8o16h1-stroke">
                    <g>
                        <path d="M11.732,12.352C19.002,12.352 24.648,17.978 24.552,25.138C25.5,27.49 27.438,29.004 28.416,31.644C28.547,32.001 28.501,32.398 28.294,32.716C28.193,32.87 28.055,32.997 27.894,33.086C27.735,33.174 27.556,33.22 27.374,33.22L24.552,33.22L24.552,37.858C24.552,39.086 24.082,40.266 23.246,41.138C22.424,42 21.285,42.49 20.094,42.494L17.864,42.494L17.864,48.414M37.996,48.542L34.95,48.542C32.146,48.543 29.873,46.27 29.873,43.466C29.873,40.662 32.146,38.389 34.95,38.39L37.996,38.39L37.996,48.542ZM37.996,48.542C43.952,48.542 49.776,50.306 54.732,53.61L56.268,54.634L56.268,32.3L54.732,33.324C49.775,36.627 43.952,38.39 37.996,38.39L37.996,48.542ZM37.996,48.542C37.993,51.228 39.094,53.797 41.04,55.648" style="fill:none;stroke:rgb(44,44,44);stroke-width:2px;"/>
                    </g>
                </g>
            </g>
            <g id="g-root-ic_open_de7xa68nvhfs-stroke" transform="matrix(1,0,0,1,434,303)">
                <g id="ic_open_de7xa68nvhfs-stroke">
                    <g>
                        <path d="M30.482,50.71C29.82,50.709 29.186,50.445 28.721,49.974C28.256,49.504 27.998,48.868 28.004,48.206C28.018,46.847 29.124,45.752 30.484,45.752L37.624,45.752C38.992,45.754 40.1,46.864 40.1,48.232L40.1,48.232C40.099,49.6 38.99,50.709 37.622,50.71L30.482,50.71ZM56.5,40.868L56.5,54.024C56.5,55.104 55.626,55.978 54.546,55.978L13.534,55.978C12.455,55.978 11.58,55.103 11.58,54.024L11.58,40.868M56.5,40.868L11.58,40.868M11.5,20.812L11.5,13.976C11.5,12.896 12.374,12.022 13.454,12.022L54.466,12.022C55.546,12.022 56.42,12.896 56.42,13.976L56.42,20.812M27.504,30.494C26.674,31.686 25.501,32.596 24.14,33.104L24.116,40.868L19.06,40.868L19.086,33.088C16.308,32.029 14.476,29.362 14.485,26.389C14.494,23.417 16.342,20.76 19.126,19.718L19.112,25.138L21.632,27.674L24.164,25.154L24.18,19.734C26.235,20.517 27.815,22.203 28.463,24.305C29.112,26.406 28.756,28.689 27.5,30.494L27.504,30.494ZM31.876,40.868L31.902,33.528L38.138,33.532L38.138,40.868L31.876,40.868ZM32.348,19.72L37.698,19.72L37.698,22.36C37.698,23.837 36.5,25.035 35.023,25.035C33.546,25.035 32.348,23.837 32.348,22.36L32.348,19.72ZM35.008,25.038L35.008,33.528M50.122,30.594C52.727,29.322 54.098,26.411 53.419,23.593C52.739,20.774 50.193,18.807 47.294,18.862C44.396,18.916 41.925,20.978 41.352,23.819C40.78,26.661 42.259,29.519 44.91,30.692L44.896,40.868L50.122,40.868L50.122,30.594ZM45.086,25.038C45.086,26.323 46.127,27.364 47.412,27.364C48.697,27.364 49.738,26.323 49.738,25.038C49.738,23.753 48.697,22.712 47.412,22.712C46.127,22.712 45.086,23.753 45.086,25.038" style="fill:none;stroke:rgb(44,44,44);stroke-width:2px;"/>
                    </g>
                </g>
            </g>
        </g>
    </g>
</svg>
