<?xml version="1.0" encoding="UTF-8" standalone="no"?>
<!DOCTYPE svg PUBLIC "-//W3C//DTD SVG 1.1//EN" "http://www.w3.org/Graphics/SVG/1.1/DTD/svg11.dtd">
<svg width="100%" height="100%" viewBox="0 0 702 906" version="1.1" xmlns="http://www.w3.org/2000/svg" xmlns:xlink="http://www.w3.org/1999/xlink" xml:space="preserve" xmlns:serif="http://www.serif.com/" style="fill-rule:evenodd;clip-rule:evenodd;stroke-linecap:round;stroke-linejoin:round;">
    <g id="items" transform="matrix(1.09436,0,0,1.09436,-33.1196,-46.8681)">
        <g id="blend">
            <g id="g-root-cp_5_shape-5_908sjg7tk3r9-fill" transform="matrix(1,0,0,1,314.303,68)">
                <g id="cp_5_shape-5_908sjg7tk3r9-fill">
                    <g>
                        <path d="M27.697,292L15.697,292L15.697,160L27.697,160L27.697,292ZM32.297,28.191L27.697,28.191L27.697,160L15.697,160L15.697,28.191L11.017,28.191C10.237,28.191 9.747,27.341 10.137,26.661L20.86,10.448C21.256,9.849 22.136,9.851 22.53,10.451L33.177,26.661C33.577,27.341 33.087,28.191 32.297,28.191Z" style="fill:rgb(251,103,98);"/>
                    </g>
                </g>
            </g>
            <g id="g-root-cp_1_shape-1_1hf2av07tk3k7-fill" transform="matrix(1,0,0,1,32,67.8164)">
                <g id="cp_1_shape-1_1hf2av07tk3k7-fill">
                    <g>
                        <path d="M214,328.184L46,328.183C26.118,328.183 10,312.081 10,292.199L10,292.184L250,292.184C250,312.066 233.882,328.184 214,328.184ZM254.6,28.375L250,28.375L250,160.184L10,160.184C10,140.302 26.118,124.505 46,124.505L172,124.505C213.07,124.505 238,94.374 238,55.034L238,28.374L233.32,28.374C232.54,28.374 232.05,27.524 232.44,26.844L243.163,10.632C243.559,10.033 244.439,10.034 244.833,10.635L255.48,26.844C255.88,27.525 255.39,28.375 254.6,28.375ZM250,160.184L250,292.184L10,292.184L10,160.184L250,160.184Z" style="fill:rgb(79,145,252);"/>
                    </g>
                </g>
            </g>
            <g id="g-root-cp_3_shape-3_qsrr7g7tk3k9-fill" transform="matrix(1,0,0,1,284.303,68)">
                <g id="cp_3_shape-3_qsrr7g7tk3k9-fill">
                    <g>
                        <path d="M27.697,292L15.697,292L15.697,160L27.697,160L27.697,292ZM32.297,28.191L27.697,28.191L27.697,160L15.697,160L15.697,28.191L11.017,28.191C10.237,28.191 9.747,27.341 10.137,26.661L20.86,10.448C21.256,9.849 22.136,9.851 22.53,10.451L33.177,26.661C33.577,27.341 33.087,28.191 32.297,28.191Z" style="fill:rgb(255,231,17);"/>
                    </g>
                </g>
            </g>
            <g id="g-root-cp_3_shape-3_1_9247ss7tk2rn-fill" transform="matrix(1,0,0,1,32,350)">
                <g id="cp_3_shape-3_1_9247ss7tk2rn-fill">
                    <g>
                        <path d="M214,64.321C244,64.321 268,46 268,10L280,10L280,100.306L10,100.306C10,80.423 26.118,64.321 46,64.321L214,64.321Z" style="fill:rgb(255,231,17);"/>
                    </g>
                </g>
            </g>
            <g id="g-root-cp_5_shape-5_1_1lw4r5o7tk4y5-fill" transform="matrix(1,0,0,1,320,350)">
                <g id="cp_5_shape-5_1_1lw4r5o7tk4y5-fill">
                    <g>
                        <rect x="10" y="10" width="12" height="198" style="fill:rgb(251,103,98);"/>
                    </g>
                </g>
            </g>
            <g id="g-root-cp_3_shape-3_2_18lapvg7tk3db-fill" transform="matrix(1,0,0,1,32,440)">
                <g id="cp_3_shape-3_2_18lapvg7tk3db-fill">
                    <g>
                        <path d="M280,10L280,117.982L10,117.982L10,10L280,10ZM244,154.008L46,154.008C26.118,154.008 10,137.906 10,118.023L10,118.008L280,118.008C280,137.89 263.882,154.008 244,154.008Z" style="fill:rgb(255,231,17);"/>
                    </g>
                </g>
            </g>
            <g id="g-root-cp_5_shape-5_2_zpnpmk7tk4xt-fill" transform="matrix(1,0,0,1,32,548)">
                <g id="cp_5_shape-5_2_zpnpmk7tk4xt-fill">
                    <g>
                        <path d="M244,64.137C274,64.137 298,45.878 298,10L310,10L310,100L10,100C10,80.185 26.118,64.137 46,64.137L244,64.137Z" style="fill:rgb(251,103,98);"/>
                    </g>
                </g>
            </g>
            <g id="g-root-cp_5_shape-5_3_metocc7tk3cz-fill" transform="matrix(1,0,0,1,32,638)">
                <g id="cp_5_shape-5_3_metocc7tk3cz-fill">
                    <g>
                        <path d="M310,10L310,118L10,118L10,10L310,10ZM274,154.008L46,154.008C26.118,154.008 10,137.882 10,118L310,118C310,137.882 293.882,154.008 274,154.008Z" style="fill:rgb(251,103,98);"/>
                    </g>
                </g>
            </g>
            <g id="g-root-cp_2_shape-2_1utn6nw7tk35x-fill" transform="matrix(1,0,0,1,404.378,67.8164)">
                <g id="cp_2_shape-2_1utn6nw7tk35x-fill">
                    <g>
                        <path d="M51.622,364.184L219.622,364.184C239.504,364.184 255.622,348.081 255.622,328.199L255.622,328.184L15.622,328.184C15.622,348.066 31.74,364.184 51.622,364.184ZM11.022,28.375L15.622,28.375L15.622,160.184L255.622,160.184C255.622,140.302 239.505,124.505 219.623,124.505L93.622,124.505C52.552,124.505 27.622,94.374 27.622,55.034L27.622,28.374L32.302,28.374C33.082,28.374 33.572,27.524 33.182,26.844L22.459,10.632C22.063,10.033 21.184,10.034 20.79,10.635L10.142,26.844C9.742,27.525 10.232,28.375 11.022,28.375ZM15.622,160.184L15.622,328.184L255.622,328.184L255.622,160.184L15.622,160.184Z" style="fill:rgb(26,195,251);"/>
                    </g>
                </g>
            </g>
            <g id="g-root-cp_4_shape-4_18n654s7tk2dr-fill" transform="matrix(1,0,0,1,374.383,68)">
                <g id="cp_4_shape-4_18n654s7tk2dr-fill">
                    <g>
                        <path d="M15.623,328L27.623,328L27.623,160L15.623,160L15.623,328ZM11.022,28.191L15.622,28.191L15.622,160L27.622,160L27.622,28.191L32.302,28.191C33.082,28.191 33.572,27.341 33.182,26.661L22.459,10.448C22.063,9.849 21.184,9.851 20.79,10.451L10.142,26.661C9.742,27.341 10.232,28.191 11.022,28.191Z" style="fill:rgb(247,148,56);"/>
                    </g>
                </g>
            </g>
            <g id="g-root-cp_6_shape-6_zrj4vw7tk3y9-fill" transform="matrix(1,0,0,1,344.383,68)">
                <g id="cp_6_shape-6_zrj4vw7tk3y9-fill">
                    <g>
                        <path d="M15.623,328L27.623,328L27.623,160L15.623,160L15.623,328ZM11.022,28.191L15.622,28.191L15.622,160L27.622,160L27.622,28.191L32.302,28.191C33.082,28.191 33.572,27.341 33.182,26.661L22.459,10.448C22.063,9.849 21.184,9.851 20.79,10.451L10.142,26.661C9.742,27.341 10.232,28.191 11.022,28.191Z" style="fill:rgb(243,102,187);"/>
                    </g>
                </g>
            </g>
            <g id="g-root-cp_4_shape-4_1_mgp3lo7tk2df-fill" transform="matrix(1,0,0,1,380,386)">
                <g id="cp_4_shape-4_1_mgp3lo7tk2df-fill">
                    <g>
                        <path d="M76,64.321C46,64.321 22,46 22,10L10,10L10,100.306L280,100.306C280,80.423 263.882,64.321 244,64.321L76,64.321Z" style="fill:rgb(247,148,56);"/>
                    </g>
                </g>
            </g>
            <g id="g-root-cp_4_shape-4_2_dl23cs7tk365-fill" transform="matrix(1,0,0,1,380,476)">
                <g id="cp_4_shape-4_2_dl23cs7tk365-fill">
                    <g>
                        <path d="M10,10L10,142L280,142L280,10L10,10ZM46,178L244,178C263.882,178 280,161.898 280,142.016L280,142L10,142C10,161.882 26.118,178 46,178Z" style="fill:rgb(247,148,56);"/>
                    </g>
                </g>
            </g>
            <g id="g-root-cp_6_shape-6_1_9lkzg7tk4r3-fill" transform="matrix(1,0,0,1,350,386)">
                <g id="cp_6_shape-6_1_9lkzg7tk4r3-fill">
                    <g>
                        <rect x="10" y="10" width="12" height="222" style="fill:rgb(243,102,187);"/>
                    </g>
                </g>
            </g>
            <g id="g-root-cp_6_shape-6_2_1q5pif07tlhj5-fill" transform="matrix(1,0,0,1,350,608)">
                <g id="cp_6_shape-6_2_1q5pif07tlhj5-fill">
                    <g>
                        <path d="M76,64.321C46,64.321 22,46 22,10L10,10L10,100.306L310,100.306C310,80.423 293.882,64.321 274,64.321L76,64.321Z" style="fill:rgb(243,102,187);"/>
                    </g>
                </g>
            </g>
            <g id="g-root-cp_6_shape-6_3_1ha2i647tlibv-fill" transform="matrix(1,0,0,1,350,698)">
                <g id="cp_6_shape-6_3_1ha2i647tlibv-fill">
                    <g>
                        <path d="M10,10L10,118L310,118L310,10L10,10ZM46,154L274,154C293.882,154 310,137.898 310,118.016L310,118L10,118C10,137.882 26.118,154 46,154Z" style="fill:rgb(243,102,187);"/>
                    </g>
                </g>
            </g>
            <g id="g-root-tx_improves_vb35oc7tr3m3-fill" transform="matrix(1,0,0,1,464,326)">
                <g id="tx_improves_vb35oc7tr3m3-fill">
                    <g>
                        <g>
                            <g transform="matrix(1,0,0,1,18.19,28.2)">
                                <text x="0px" y="0px" style="font-family:'ArialMT', 'Arial', sans-serif;font-size:15px;fill:rgb(44,44,44);">Improves patient</text>
                            </g>
                            <g transform="matrix(1,0,0,1,18.09,46.2)">
                                <text x="0px" y="0px" style="font-family:'ArialMT', 'Arial', sans-serif;font-size:15px;fill:rgb(44,44,44);">engagement and</text>
                            </g>
                            <g transform="matrix(1,0,0,1,13.41,64.2)">
                                <text x="0px" y="0px" style="font-family:'ArialMT', 'Arial', sans-serif;font-size:15px;fill:rgb(44,44,44);">healthcare service</text>
                            </g>
                            <g transform="matrix(1,0,0,1,46.97,82.2)">
                                <text x="0px" y="0px" style="font-family:'ArialMT', 'Arial', sans-serif;font-size:15px;fill:rgb(44,44,44);">delivery<tspan x="50.574px " y="0px ">.</tspan></text>
                            </g>
                        </g>
                    </g>
                </g>
            </g>
            <g id="g-root-tx_enhances_4j6c8s7tlgjz-fill" transform="matrix(1,0,0,1,62,302)">
                <g id="tx_enhances_4j6c8s7tlgjz-fill">
                    <g>
                        <g>
                            <g transform="matrix(1,0,0,1,12.5,31.2)">
                                <text x="0px" y="0px" style="font-family:'ArialMT', 'Arial', sans-serif;font-size:15px;fill:rgb(44,44,44);">Enhances sales strategies</text>
                            </g>
                            <g transform="matrix(1,0,0,1,51.65,49.2)">
                                <text x="0px" y="0px" style="font-family:'ArialMT', 'Arial', sans-serif;font-size:15px;fill:rgb(44,44,44);">and marketing</text>
                            </g>
                            <g transform="matrix(1,0,0,1,52.82,67.2)">
                                <g transform="matrix(15,0,0,15,8.34229,0)">
                                </g>
                                <g transform="matrix(15,0,0,15,12.3486,0)">
                                </g>
                                <text x="0px" y="0px" style="font-family:'ArialMT', 'Arial', sans-serif;font-size:15px;fill:rgb(44,44,44);">eﬀectiveness.</text>
                            </g>
                        </g>
                    </g>
                </g>
            </g>
            <g id="g-root-tx_healthca_1ut0pks7tr2te-fill" transform="matrix(1,0,0,1,464,266)">
                <g id="tx_healthca_1ut0pks7tr2te-fill">
                    <g>
                        <g>
                            <g transform="matrix(1,0,0,1,15.49,34)">
                                <text x="0px" y="0px" style="font-family:'Arial-BoldMT', 'Arial', sans-serif;font-weight:700;font-size:20px;fill:rgb(44,44,44);">Healthcare &amp;</text>
                            </g>
                            <g transform="matrix(1,0,0,1,32.94,58)">
                                <text x="0px" y="0px" style="font-family:'Arial-BoldMT', 'Arial', sans-serif;font-weight:700;font-size:20px;fill:rgb(44,44,44);">W<tspan x="18.516px 29.639px " y="0px 0px ">el</tspan>lness</text>
                            </g>
                        </g>
                    </g>
                </g>
            </g>
            <g id="g-root-tx_streamli_qun6gs7tvbpn-fill" transform="matrix(1,0,0,1,380,782)">
                <g id="tx_streamli_qun6gs7tvbpn-fill">
                    <g>
                        <g>
                            <g transform="matrix(1,0,0,1,44.65,28.2)">
                                <text x="0px" y="0px" style="font-family:'ArialMT', 'Arial', sans-serif;font-size:15px;fill:rgb(44,44,44);">Streamlines property lead</text>
                            </g>
                            <g transform="matrix(1,0,0,1,13.7,46.2)">
                                <text x="0px" y="0px" style="font-family:'ArialMT', 'Arial', sans-serif;font-size:15px;fill:rgb(44,44,44);">management and sales processes.</text>
                            </g>
                        </g>
                    </g>
                </g>
            </g>
            <g transform="matrix(1,0,0,1,83.9,522)">
                <g id="g-root-tx_educatio_v9u7i47tmxah-fill">
                    <g id="tx_educatio_v9u7i47tmxah-fill">
                        <g>
                            <g>
                                <text x="0px" y="0px" style="font-family:'Arial-BoldMT', 'Arial', sans-serif;font-weight:700;font-size:20px;fill:rgb(44,44,44);">Education &amp; T<tspan x="133.34px 141.123px " y="0px 0px ">ra</tspan>ining</text>
                            </g>
                        </g>
                    </g>
                </g>
            </g>
            <g id="g-root-tx_facilita_1qdtojg7tmvii-fill" transform="matrix(1,0,0,1,65,524)">
                <g id="tx_facilita_1qdtojg7tmvii-fill">
                    <g>
                        <g>
                            <g transform="matrix(1,0,0,1,16.51,28.2)">
                                <g transform="matrix(15,0,0,15,80.0317,0)">
                                </g>
                                <g transform="matrix(15,0,0,15,84.0381,0)">
                                </g>
                                <text x="0px" y="0px" style="font-family:'ArialMT', 'Arial', sans-serif;font-size:15px;fill:rgb(44,44,44);">Facilitates eﬀective learning</text>
                            </g>
                            <g transform="matrix(1,0,0,1,34.84,46.2)">
                                <text x="0px" y="0px" style="font-family:'ArialMT', 'Arial', sans-serif;font-size:15px;fill:rgb(44,44,44);">and training programs.</text>
                            </g>
                        </g>
                    </g>
                </g>
            </g>
            <g transform="matrix(1,0,0,1,443.18,558)">
                <g id="g-root-tx_financia_1413w587ttxc6-fill">
                    <g id="tx_financia_1413w587ttxc6-fill">
                        <g>
                            <g>
                                <text x="0px" y="0px" style="font-family:'Arial-BoldMT', 'Arial', sans-serif;font-weight:700;font-size:20px;fill:rgb(44,44,44);">Financial Services</text>
                            </g>
                        </g>
                    </g>
                </g>
            </g>
            <g transform="matrix(1,0,0,1,80,300)">
                <g id="g-root-tx_salesmar_18gax6k7tli4u-fill">
                    <g id="tx_salesmar_18gax6k7tli4u-fill">
                        <g>
                            <g>
                                <text x="0px" y="0px" style="font-family:'Arial-BoldMT', 'Arial', sans-serif;font-weight:700;font-size:20px;fill:rgb(44,44,44);">Sales &amp; Marketing</text>
                            </g>
                        </g>
                    </g>
                </g>
            </g>
            <g id="g-root-tx_optimize_3cu4c7ttyx3-fill" transform="matrix(1,0,0,1,419,560)">
                <g id="tx_optimize_3cu4c7ttyx3-fill">
                    <g>
                        <g>
                            <g transform="matrix(1,0,0,1,24.57,31.2)">
                                <g transform="matrix(15,0,0,15,70.8472,0)">
                                </g>
                                <g transform="matrix(15,0,0,15,75.0146,0)">
                                </g>
                                <text x="0px" y="0px" style="font-family:'ArialMT', 'Arial', sans-serif;font-size:15px;fill:rgb(44,44,44);">Optimizes ﬁnancial lead</text>
                            </g>
                            <g transform="matrix(1,0,0,1,12.07,49.2)">
                                <text x="0px" y="0px" style="font-family:'ArialMT', 'Arial', sans-serif;font-size:15px;fill:rgb(44,44,44);">management and customer</text>
                            </g>
                            <g transform="matrix(1,0,0,1,78.34,67.2)">
                                <text x="0px" y="0px" style="font-family:'ArialMT', 'Arial', sans-serif;font-size:15px;fill:rgb(44,44,44);">service.</text>
                            </g>
                        </g>
                    </g>
                </g>
            </g>
            <g transform="matrix(1,0,0,1,97.31,720)">
                <g id="g-root-tx_ecommerc_4ijv5o7tponi-fill">
                    <g id="tx_ecommerc_4ijv5o7tponi-fill">
                        <g>
                            <g>
                                <text x="0px" y="0px" style="font-family:'Arial-BoldMT', 'Arial', sans-serif;font-weight:700;font-size:20px;fill:rgb(44,44,44);">E-commerce &amp; Retail</text>
                            </g>
                        </g>
                    </g>
                </g>
            </g>
            <g id="g-root-tx_boostson_zlwv3w7tpq1b-fill" transform="matrix(1,0,0,1,80,722)">
                <g id="tx_boostson_zlwv3w7tpq1b-fill">
                    <g>
                        <g>
                            <g transform="matrix(1,0,0,1,12.38,28.2)">
                                <text x="0px" y="0px" style="font-family:'ArialMT', 'Arial', sans-serif;font-size:15px;fill:rgb(44,44,44);">Boosts online sales and retail</text>
                            </g>
                            <g transform="matrix(1,0,0,1,35.21,46.2)">
                                <text x="0px" y="0px" style="font-family:'ArialMT', 'Arial', sans-serif;font-size:15px;fill:rgb(44,44,44);">customer satisfaction.</text>
                            </g>
                        </g>
                    </g>
                </g>
            </g>
            <g transform="matrix(1,0,0,1,459.43,780)">
                <g id="g-root-tx_realesta_1qckqd87tvawy-fill">
                    <g id="tx_realesta_1qckqd87tvawy-fill">
                        <g>
                            <g>
                                <text x="0px" y="0px" style="font-family:'Arial-BoldMT', 'Arial', sans-serif;font-weight:700;font-size:20px;fill:rgb(44,44,44);">Real Estate</text>
                            </g>
                        </g>
                    </g>
                </g>
            </g>
            <g id="g-root-cp_5_shape-5_908sjg7tk3r9-stroke" transform="matrix(1,0,0,1,314.303,68)">
                <g id="cp_5_shape-5_908sjg7tk3r9-stroke">
                    <g>
                        <path d="M15.697,160L15.697,292M27.697,292L27.697,160M15.697,160L15.697,28.191L11.017,28.191C10.237,28.191 9.747,27.341 10.137,26.661L20.86,10.448C21.256,9.849 22.136,9.851 22.53,10.451L33.177,26.661C33.577,27.341 33.087,28.191 32.297,28.191L27.697,28.191L27.697,160" style="fill:none;stroke:rgb(44,44,44);stroke-width:2px;"/>
                    </g>
                </g>
            </g>
            <g id="g-root-cp_1_shape-1_1hf2av07tk3k7-stroke" transform="matrix(1,0,0,1,32,67.8164)">
                <g id="cp_1_shape-1_1hf2av07tk3k7-stroke">
                    <g>
                        <path d="M10,160.184C10,140.301 26.118,124.321 46,124.321L172,124.321C213.07,124.321 238,94.191 238,54.851L238,28.191L233.32,28.191C232.54,28.191 232.05,27.341 232.44,26.661L243.163,10.448C243.559,9.849 244.439,9.851 244.833,10.451L255.48,26.661C255.88,27.341 255.39,28.191 254.6,28.191L250,28.191L250,160.184M250,292.184C250,312.066 233.882,328.191 214,328.191L46,328.191C26.118,328.191 10,312.081 10,292.199L10,292.184M250,292.184L250,160.184M10,160.184L10,292.184" style="fill:none;stroke:rgb(44,44,44);stroke-width:2px;"/>
                    </g>
                </g>
            </g>
            <g id="g-root-cp_3_shape-3_qsrr7g7tk3k9-stroke" transform="matrix(1,0,0,1,284.303,68)">
                <g id="cp_3_shape-3_qsrr7g7tk3k9-stroke">
                    <g>
                        <path d="M15.697,160L15.697,292M27.697,292L27.697,160M15.697,160L15.697,28.191L11.017,28.191C10.237,28.191 9.747,27.341 10.137,26.661L20.86,10.448C21.256,9.849 22.136,9.851 22.53,10.451L33.177,26.661C33.577,27.341 33.087,28.191 32.297,28.191L27.697,28.191L27.697,160" style="fill:none;stroke:rgb(44,44,44);stroke-width:2px;"/>
                    </g>
                </g>
            </g>
            <g id="g-root-cp_3_shape-3_1_9247ss7tk2rn-stroke" transform="matrix(1,0,0,1,32,350)">
                <g id="cp_3_shape-3_1_9247ss7tk2rn-stroke">
                    <g>
                        <path d="M268,10C268,46 244,64.321 214,64.321L46,64.321C26.118,64.321 10,80.423 10,100.306M280,100.306L280,10" style="fill:none;stroke:rgb(44,44,44);stroke-width:2px;"/>
                    </g>
                </g>
            </g>
            <g id="g-root-cp_5_shape-5_1_1lw4r5o7tk4y5-stroke" transform="matrix(1,0,0,1,320,350)">
                <g id="cp_5_shape-5_1_1lw4r5o7tk4y5-stroke">
                    <g>
                        <path d="M10,10L10,208M22,208L22,10" style="fill:none;stroke:rgb(44,44,44);stroke-width:2px;"/>
                    </g>
                </g>
            </g>
            <g id="g-root-cp_3_shape-3_2_18lapvg7tk3db-stroke" transform="matrix(1,0,0,1,32,440)">
                <g id="cp_3_shape-3_2_18lapvg7tk3db-stroke">
                    <g>
                        <path d="M280,117.982L280,10M10,10L10,118M280,118.008C280,137.89 263.882,154.008 244,154.008L46,154.008C26.118,154.008 10,137.906 10,118.023L10,118.008" style="fill:none;stroke:rgb(44,44,44);stroke-width:2px;"/>
                    </g>
                </g>
            </g>
            <g id="g-root-cp_5_shape-5_2_zpnpmk7tk4xt-stroke" transform="matrix(1,0,0,1,32,548)">
                <g id="cp_5_shape-5_2_zpnpmk7tk4xt-stroke">
                    <g>
                        <path d="M298,10C298,45.878 274,64.137 244,64.137L46,64.137C26.118,64.137 10,80.185 10,100M310,100L310,10" style="fill:none;stroke:rgb(44,44,44);stroke-width:2px;"/>
                    </g>
                </g>
            </g>
            <g id="g-root-cp_5_shape-5_3_metocc7tk3cz-stroke" transform="matrix(1,0,0,1,32,638)">
                <g id="cp_5_shape-5_3_metocc7tk3cz-stroke">
                    <g>
                        <path d="M310,118L310,10M10,10L10,118M310,118C310,137.882 293.882,154.008 274,154.008L46,154.008C26.118,154.008 10,137.882 10,118" style="fill:none;stroke:rgb(44,44,44);stroke-width:2px;"/>
                    </g>
                </g>
            </g>
            <g id="g-root-cp_2_shape-2_1utn6nw7tk35x-stroke" transform="matrix(1,0,0,1,404.378,67.8164)">
                <g id="cp_2_shape-2_1utn6nw7tk35x-stroke">
                    <g>
                        <path d="M255.622,160.184C255.622,140.301 239.505,124.321 219.623,124.321L93.622,124.321C52.552,124.321 27.622,94.191 27.622,54.851L27.622,28.191L32.302,28.191C33.082,28.191 33.572,27.341 33.182,26.661L22.459,10.448C22.063,9.849 21.184,9.851 20.79,10.451L10.142,26.661C9.742,27.341 10.232,28.191 11.022,28.191L15.622,28.191L15.622,160.184M15.622,328.184C15.622,348.066 31.74,364.184 51.622,364.184L219.623,364.183C239.505,364.183 255.622,348.081 255.622,328.199L255.622,328.184M15.622,328.184L15.622,160.184M255.622,160.184L255.622,328.184" style="fill:none;stroke:rgb(44,44,44);stroke-width:2px;"/>
                    </g>
                </g>
            </g>
            <g id="g-root-cp_4_shape-4_18n654s7tk2dr-stroke" transform="matrix(1,0,0,1,374.383,68)">
                <g id="cp_4_shape-4_18n654s7tk2dr-stroke">
                    <g>
                        <path d="M27.622,160L27.622,328M15.622,328L15.622,160M27.622,160L27.622,28.191L32.302,28.191C33.082,28.191 33.572,27.341 33.182,26.661L22.459,10.448C22.063,9.849 21.184,9.851 20.79,10.451L10.142,26.661C9.742,27.341 10.232,28.191 11.022,28.191L15.622,28.191L15.622,160" style="fill:none;stroke:rgb(44,44,44);stroke-width:2px;"/>
                    </g>
                </g>
            </g>
            <g id="g-root-cp_6_shape-6_zrj4vw7tk3y9-stroke" transform="matrix(1,0,0,1,344.383,68)">
                <g id="cp_6_shape-6_zrj4vw7tk3y9-stroke">
                    <g>
                        <path d="M27.622,160L27.622,328M15.622,328L15.622,160M27.622,160L27.622,28.191L32.302,28.191C33.082,28.191 33.572,27.341 33.182,26.661L22.459,10.448C22.063,9.849 21.184,9.851 20.79,10.451L10.142,26.661C9.742,27.341 10.232,28.191 11.022,28.191L15.622,28.191L15.622,160" style="fill:none;stroke:rgb(44,44,44);stroke-width:2px;"/>
                    </g>
                </g>
            </g>
            <g id="g-root-cp_4_shape-4_1_mgp3lo7tk2df-stroke" transform="matrix(1,0,0,1,380,386)">
                <g id="cp_4_shape-4_1_mgp3lo7tk2df-stroke">
                    <g>
                        <path d="M22,10C22,46 46,64.321 76,64.321L244,64.321C263.882,64.321 280,80.423 280,100.306M10,100.306L10,10" style="fill:none;stroke:rgb(44,44,44);stroke-width:2px;"/>
                    </g>
                </g>
            </g>
            <g id="g-root-cp_4_shape-4_2_dl23cs7tk365-stroke" transform="matrix(1,0,0,1,380,476)">
                <g id="cp_4_shape-4_2_dl23cs7tk365-stroke">
                    <g>
                        <path d="M10,142L10,10M280,10L280,142M10,142C10,161.882 26.118,178.008 46,178.008L244,178.008C263.882,178.008 280,161.898 280,142.016L280,142" style="fill:none;stroke:rgb(44,44,44);stroke-width:2px;"/>
                    </g>
                </g>
            </g>
            <g id="g-root-cp_6_shape-6_1_9lkzg7tk4r3-stroke" transform="matrix(1,0,0,1,350,386)">
                <g id="cp_6_shape-6_1_9lkzg7tk4r3-stroke">
                    <g>
                        <path d="M22,10L22,232M10,232L10,10" style="fill:none;stroke:rgb(44,44,44);stroke-width:2px;"/>
                    </g>
                </g>
            </g>
            <g id="g-root-cp_6_shape-6_2_1q5pif07tlhj5-stroke" transform="matrix(1,0,0,1,350,608)">
                <g id="cp_6_shape-6_2_1q5pif07tlhj5-stroke">
                    <g>
                        <path d="M22,10C22,46 46,64.321 76,64.321L274,64.321C293.882,64.321 310,80.423 310,100.306M10,100.306L10,10" style="fill:none;stroke:rgb(44,44,44);stroke-width:2px;"/>
                    </g>
                </g>
            </g>
            <g id="g-root-cp_6_shape-6_3_1ha2i647tlibv-stroke" transform="matrix(1,0,0,1,350,698)">
                <g id="cp_6_shape-6_3_1ha2i647tlibv-stroke">
                    <g>
                        <path d="M10,118L10,10M310,10L310,118M10,118C10,137.882 26.118,154.008 46,154.008L274,154.008C293.882,154.008 310,137.898 310,118.016L310,118" style="fill:none;stroke:rgb(44,44,44);stroke-width:2px;"/>
                    </g>
                </g>
            </g>
            <g id="g-root-ic_trai_vbpmrg7tmwar-stroke" transform="matrix(1,0,0,1,143,428)">
                <g id="ic_trai_vbpmrg7tmwar-stroke">
                    <g>
                        <path d="M28.9,19.1C30.999,19.1 32.7,17.399 32.7,15.3C32.7,13.201 30.999,11.5 28.9,11.5C26.801,11.5 25.1,13.201 25.1,15.3C25.1,17.399 26.801,19.1 28.9,19.1ZM15.3,26.9C17.399,26.9 19.1,25.199 19.1,23.1C19.1,21.001 17.399,19.3 15.3,19.3C13.201,19.3 11.5,21.001 11.5,23.1C11.5,25.199 13.201,26.9 15.3,26.9ZM42.5,26.9C44.599,26.9 46.3,25.199 46.3,23.1C46.3,21.001 44.599,19.3 42.5,19.3C40.401,19.3 38.7,21.001 38.7,23.1C38.7,25.199 40.401,26.9 42.5,26.9ZM25.3,40.7L21.1,40.7C19.5,40.7 18.5,38.9 19.5,37.5L27.3,27.1C28.1,26.1 29.7,26.1 30.5,27.1L34.3,32.1M56.5,43.1L56.5,47.5M50.5,46.125L50.5,53.618C50.5,53.618 47.5,56.5 43.1,56.5C38.7,56.5 35.5,53.618 35.5,53.618L35.5,46.125M29.5,43.1L42.9,49.1L56.5,43.1L42.9,37.1L29.5,43.1Z" style="fill:none;stroke:rgb(44,44,44);stroke-width:2px;"/>
                    </g>
                </g>
            </g>
            <g id="g-root-ic_boar_1lymni47tr5s4-stroke" transform="matrix(1,0,0,1,506,206)">
                <g id="ic_boar_1lymni47tr5s4-stroke">
                    <g>
                        <path d="M18,28.086L50,28.086C50,28.086 54,28.086 54,32.086L54,46.086C54,46.086 54,50.086 50,50.086L18,50.086C18,50.086 14,50.086 14,46.086L14,32.086C14,32.086 14,28.086 18,28.086M23,28.086L32.588,18.5C33.369,17.719 34.635,17.719 35.416,18.5L45,28.086M32.002,44.086L32.002,34.086M32,34.086L33,34.086C34.657,34.086 36,35.429 36,37.086C36,38.743 34.657,40.086 33,40.086L32,40.086M28,34.086L26,34.086C24.895,34.086 24,34.981 24,36.086C24,39.086 28,39.086 28,42.086C28,43.191 27.105,44.086 26,44.086L24,44.086M40,44.086L40,36.086C40,34.981 40.895,34.086 42,34.086C43.105,34.086 44,34.981 44,36.086L44,44.086M40.002,40.086L44.002,40.086" style="fill:none;stroke:rgb(44,44,44);stroke-width:2px;"/>
                    </g>
                </g>
            </g>
            <g id="g-root-ic_cons_142cubg7tlhxc-stroke" transform="matrix(1,0,0,1,128,206)">
                <g id="ic_cons_142cubg7tlhxc-stroke">
                    <g>
                        <path d="M39.612,29.166L39.612,43.084C39.611,46.183 37.099,48.695 34,48.695C30.901,48.695 28.389,46.183 28.388,43.084L28.388,29.166L20.532,29.166L20.532,43.532C20.534,50.969 26.563,56.997 34,56.997C41.437,56.997 47.466,50.969 47.468,43.532L47.468,29.166L39.612,29.166ZM47.468,35.788L39.612,35.788M28.388,35.788L20.532,35.788M19.168,14.548C19.168,16.508 20.756,18.096 22.716,18.096C24.676,18.096 26.264,16.508 26.264,14.548C26.264,12.588 24.676,11 22.716,11C20.756,11 19.168,12.588 19.168,14.548M30.452,14.548C30.452,16.508 32.04,18.096 34,18.096C35.96,18.096 37.548,16.508 37.548,14.548C37.548,12.588 35.96,11 34,11C32.04,11 30.452,12.588 30.452,14.548M40.146,25.2C39.737,22.119 37.109,19.817 34,19.817C30.891,19.817 28.263,22.119 27.854,25.2M25.742,20.654C23.956,19.653 21.791,19.598 19.956,20.507C18.122,21.416 16.855,23.172 16.57,25.2M42.258,20.654C44.044,19.653 46.209,19.598 48.044,20.507C49.878,21.416 51.145,23.172 51.43,25.2M41.736,14.548C41.736,16.508 43.324,18.096 45.284,18.096C47.244,18.096 48.832,16.508 48.832,14.548C48.832,12.588 47.244,11 45.284,11C43.324,11 41.736,12.588 41.736,14.548" style="fill:none;stroke:rgb(44,44,44);stroke-width:2px;"/>
                    </g>
                </g>
            </g>
            <g id="g-root-ic_cart_4lsak7tpog0-stroke" transform="matrix(1,0,0,1,158,626)">
                <g id="ic_cart_4lsak7tpog0-stroke">
                    <g>
                        <path d="M11,41C11,34.373 16.373,29 23,29C29.627,29 35,34.373 35,41L11,41ZM15.5,18.5C15.5,22.642 18.858,26 23,26C27.142,26 30.5,22.642 30.5,18.5C30.5,14.358 27.142,11 23,11C18.858,11 15.5,14.358 15.5,18.5M34.5,18.5C34.5,22.642 37.858,26 42,26C46.142,26 49.5,22.642 49.5,18.5C49.5,14.358 46.142,11 42,11C37.858,11 34.5,14.358 34.5,18.5M52.38,34.98C49.062,29.252 41.734,27.293 36,30.6M49,55C49,56.105 49.895,57 51,57C52.105,57 53,56.105 53,55C53,53.895 52.105,53 51,53C49.895,53 49,53.895 49,55M40,55C40,56.105 40.895,57 42,57C43.105,57 44,56.105 44,55C44,53.895 43.105,53 42,53C40.895,53 40,53.895 40,55M57,34L52.22,48.32C52.084,48.724 51.706,48.997 51.28,49L42,49C41.553,49.007 41.158,48.711 41.04,48.28L38.64,41.28C38.552,40.978 38.611,40.652 38.8,40.4C38.989,40.148 39.285,40 39.6,40L55,40" style="fill:none;stroke:rgb(44,44,44);stroke-width:2px;"/>
                    </g>
                </g>
            </g>
            <g id="g-root-ic_home_1utn6nw7tvcas-stroke" transform="matrix(1,0,0,1,476,686)">
                <g id="ic_home_1utn6nw7tvcas-stroke">
                    <g>
                        <path d="M43,57L43,52C43,50.343 44.343,49 46,49C47.657,49 49,50.343 49,52L49,57M39,45.364L39,56C39,56.552 39.448,57 40,57L52,57C52.552,57 53,56.552 53,56L53,45.364M35,49L45.328,39.612C45.709,39.266 46.291,39.266 46.672,39.612L57,49M11,41C11,34.373 16.373,29 23,29C29.627,29 35,34.373 35,41L11,41ZM15.5,18.5C15.5,22.642 18.858,26 23,26C27.142,26 30.5,22.642 30.5,18.5C30.5,14.358 27.142,11 23,11C18.858,11 15.5,14.358 15.5,18.5ZM34.5,18.5C34.5,22.642 37.858,26 42,26C46.142,26 49.5,22.642 49.5,18.5C49.5,14.358 46.142,11 42,11C37.858,11 34.5,14.358 34.5,18.5ZM48.94,31.21C45.115,28.498 40.063,28.26 36,30.6" style="fill:none;stroke:rgb(44,44,44);stroke-width:2px;"/>
                    </g>
                </g>
            </g>
            <g id="g-root-ic_user_v7cb5o7ttx54-stroke" transform="matrix(1,0,0,1,491,464)">
                <g id="ic_user_v7cb5o7ttx54-stroke">
                    <g>
                        <path d="M17.9,34.1C20.5,36.7 23.9,38.5 27.9,38.5C29.9,38.5 31.9,38.1 33.5,37.3M25.3,46.5C29.939,46.5 33.7,42.739 33.7,38.1C33.7,33.461 29.939,29.7 25.3,29.7C20.661,29.7 16.9,33.461 16.9,38.1C16.9,42.739 20.661,46.5 25.3,46.5ZM25.3,48.5L25.3,56.5M39.1,56.5C36.3,51.7 31.1,48.5 25.3,48.5C19.5,48.5 14.3,51.7 11.5,56.5M23.5,23.7L23.5,21.7C23.5,20.5 24.3,19.7 25.5,19.7L28.5,19.7C29.7,19.7 30.5,20.5 30.5,21.7L30.5,24.7M53,24.5L53,30.5M38.5,28.5C37.3,28.5 36.5,27.7 36.5,26.5L36.5,17.5C36.5,16.3 37.3,15.5 38.5,15.5L41.5,15.5C42.7,15.5 43.5,16.3 43.5,17.5L43.5,26.5C43.5,27.7 42.7,28.5 41.5,28.5L38.5,28.5ZM40,28.5L40,32.5M40,11.5L40,15.5M51.5,24.5C50.3,24.5 49.5,23.7 49.5,22.5L49.5,13.5C49.5,12.3 50.3,11.5 51.5,11.5L54.5,11.5C55.7,11.5 56.5,12.3 56.5,13.5L56.5,22.5C56.5,23.7 55.7,24.5 54.5,24.5L51.5,24.5Z" style="fill:none;stroke:rgb(44,44,44);stroke-width:2px;"/>
                    </g>
                </g>
            </g>
        </g>
    </g>
</svg>
