<?xml version="1.0" encoding="UTF-8" standalone="no"?>
<!DOCTYPE svg PUBLIC "-//W3C//DTD SVG 1.1//EN" "http://www.w3.org/Graphics/SVG/1.1/DTD/svg11.dtd">
<svg width="100%" height="100%" viewBox="0 0 702 894" version="1.1" xmlns="http://www.w3.org/2000/svg" xmlns:xlink="http://www.w3.org/1999/xlink" xml:space="preserve" xmlns:serif="http://www.serif.com/" style="fill-rule:evenodd;clip-rule:evenodd;stroke-linecap:round;stroke-linejoin:round;">
    <g id="items" transform="matrix(1.11533,0,0,1.11533,-40.4797,-64.9249)">
        <g id="blend">
            <g id="g-root-cp_5_shape-5_qn63ho83tjpm-fill" transform="matrix(1,0,0,1,314.303,68)">
                <g id="cp_5_shape-5_qn63ho83tjpm-fill">
                    <g>
                        <path d="M27.697,292L15.697,292L15.697,160L27.697,160L27.697,292ZM32.297,28.191L27.697,28.191L27.697,160L15.697,160L15.697,28.191L11.017,28.191C10.237,28.191 9.747,27.341 10.137,26.661L20.86,10.448C21.256,9.849 22.136,9.851 22.53,10.451L33.177,26.661C33.577,27.341 33.087,28.191 32.297,28.191Z" style="fill:rgb(247,148,56);"/>
                    </g>
                </g>
            </g>
            <g id="g-root-cp_1_shape-1_dcc27g83ti4s-fill" transform="matrix(1,0,0,1,32,67.8164)">
                <g id="cp_1_shape-1_dcc27g83ti4s-fill">
                    <g>
                        <path d="M214,328.184L46,328.183C26.118,328.183 10,312.081 10,292.199L10,292.184L250,292.184C250,312.066 233.882,328.184 214,328.184ZM254.6,28.375L250,28.375L250,160.184L10,160.184C10,140.302 26.118,124.505 46,124.505L172,124.505C213.07,124.505 238,94.374 238,55.034L238,28.374L233.32,28.374C232.54,28.374 232.05,27.524 232.44,26.844L243.163,10.632C243.559,10.033 244.439,10.034 244.833,10.635L255.48,26.844C255.88,27.525 255.39,28.375 254.6,28.375ZM250,160.184L250,292.184L10,292.184L10,160.184L250,160.184Z" style="fill:rgb(67,221,147);"/>
                    </g>
                </g>
            </g>
            <g id="g-root-cp_3_shape-3_vju483tjpq-fill" transform="matrix(1,0,0,1,284.303,68)">
                <g id="cp_3_shape-3_vju483tjpq-fill">
                    <g>
                        <path d="M27.697,292L15.697,292L15.697,160L27.697,160L27.697,292ZM32.297,28.191L27.697,28.191L27.697,160L15.697,160L15.697,28.191L11.017,28.191C10.237,28.191 9.747,27.341 10.137,26.661L20.86,10.448C21.256,9.849 22.136,9.851 22.53,10.451L33.177,26.661C33.577,27.341 33.087,28.191 32.297,28.191Z" style="fill:rgb(26,195,251);"/>
                    </g>
                </g>
            </g>
            <g id="g-root-cp_3_shape-3_1_1cvika483tji8-fill" transform="matrix(1,0,0,1,32,350)">
                <g id="cp_3_shape-3_1_1cvika483tji8-fill">
                    <g>
                        <path d="M214,64.321C244,64.321 268,46 268,10L280,10L280,100.306L10,100.306C10,80.423 26.118,64.321 46,64.321L214,64.321Z" style="fill:rgb(26,195,251);"/>
                    </g>
                </g>
            </g>
            <g id="g-root-cp_5_shape-5_1_ddl0do83tkay-fill" transform="matrix(1,0,0,1,320,350)">
                <g id="cp_5_shape-5_1_ddl0do83tkay-fill">
                    <g>
                        <rect x="10" y="10" width="12" height="222" style="fill:rgb(247,148,56);"/>
                    </g>
                </g>
            </g>
            <g id="g-root-cp_3_shape-3_2_2qz3g83tiq4-fill" transform="matrix(1,0,0,1,32,440)">
                <g id="cp_3_shape-3_2_2qz3g83tiq4-fill">
                    <g>
                        <path d="M280,10L280,141.979L10,141.979L10,10L280,10ZM244,178.008L46,178.008C26.118,178.008 10,161.905 10,142.023L10,142.008L280,142.008C280,161.89 263.882,178.008 244,178.008Z" style="fill:rgb(26,195,251);"/>
                    </g>
                </g>
            </g>
            <g id="g-root-cp_5_shape-5_2_1lseip883tk3y-fill" transform="matrix(1,0,0,1,32,572)">
                <g id="cp_5_shape-5_2_1lseip883tk3y-fill">
                    <g>
                        <path d="M244,64.137C274,64.137 298,45.878 298,10L310,10L310,100L10,100C10,80.185 26.118,64.137 46,64.137L244,64.137Z" style="fill:rgb(247,148,56);"/>
                    </g>
                </g>
            </g>
            <g id="g-root-cp_5_shape-5_3_1cxdzjg83tiio-fill" transform="matrix(1,0,0,1,32,662)">
                <g id="cp_5_shape-5_3_1cxdzjg83tiio-fill">
                    <g>
                        <path d="M310,10L310,142L10,142L10,10L310,10ZM274,178.008L46,178.008C26.118,178.008 10,161.882 10,142L310,142C310,161.882 293.882,178.008 274,178.008Z" style="fill:rgb(247,148,56);"/>
                    </g>
                </g>
            </g>
            <g id="g-root-cp_2_shape-2_zlxh6483tk3m-fill" transform="matrix(1,0,0,1,404.378,67.8164)">
                <g id="cp_2_shape-2_zlxh6483tk3m-fill">
                    <g>
                        <path d="M51.622,328.184L219.622,328.184C239.504,328.184 255.622,312.081 255.622,292.199L255.622,292.184L15.622,292.184C15.622,312.066 31.74,328.184 51.622,328.184ZM11.022,28.375L15.622,28.375L15.622,160.184L255.622,160.184C255.622,140.302 239.505,124.505 219.623,124.505L93.622,124.505C52.552,124.505 27.622,94.374 27.622,55.034L27.622,28.374L32.302,28.374C33.082,28.374 33.572,27.524 33.182,26.844L22.459,10.632C22.063,10.033 21.184,10.034 20.79,10.635L10.142,26.844C9.742,27.525 10.232,28.375 11.022,28.375ZM15.622,160.184L15.622,292.184L255.622,292.184L255.622,160.184L15.622,160.184Z" style="fill:rgb(166,218,55);"/>
                    </g>
                </g>
            </g>
            <g id="g-root-cp_4_shape-4_8zmxik83tk3o-fill" transform="matrix(1,0,0,1,374.383,68)">
                <g id="cp_4_shape-4_8zmxik83tk3o-fill">
                    <g>
                        <path d="M15.623,292L27.623,292L27.623,160L15.623,160L15.623,292ZM11.022,28.191L15.622,28.191L15.622,160L27.622,160L27.622,28.191L32.302,28.191C33.082,28.191 33.572,27.341 33.182,26.661L22.459,10.448C22.063,9.849 21.184,9.851 20.79,10.451L10.142,26.661C9.742,27.341 10.232,28.191 11.022,28.191Z" style="fill:rgb(255,231,17);"/>
                    </g>
                </g>
            </g>
            <g id="g-root-cp_6_shape-6_1hegfu483tjwm-fill" transform="matrix(1,0,0,1,344.383,68)">
                <g id="cp_6_shape-6_1hegfu483tjwm-fill">
                    <g>
                        <path d="M15.623,292L27.623,292L27.623,160L15.623,160L15.623,292ZM11.022,28.191L15.622,28.191L15.622,160L27.622,160L27.622,28.191L32.302,28.191C33.082,28.191 33.572,27.341 33.182,26.661L22.459,10.448C22.063,9.849 21.184,9.851 20.79,10.451L10.142,26.661C9.742,27.341 10.232,28.191 11.022,28.191Z" style="fill:rgb(251,103,98);"/>
                    </g>
                </g>
            </g>
            <g id="g-root-cp_4_shape-4_1_143mejw83tibs-fill" transform="matrix(1,0,0,1,380,350)">
                <g id="cp_4_shape-4_1_143mejw83tibs-fill">
                    <g>
                        <path d="M76,64.321C46,64.321 22,46 22,10L10,10L10,100.306L280,100.306C280,80.423 263.882,64.321 244,64.321L76,64.321Z" style="fill:rgb(255,231,17);"/>
                    </g>
                </g>
            </g>
            <g id="g-root-cp_4_shape-4_2_qs5w6k83tjwq-fill" transform="matrix(1,0,0,1,380,440)">
                <g id="cp_4_shape-4_2_qs5w6k83tjwq-fill">
                    <g>
                        <path d="M10,10L10,118L280,118L280,10L10,10ZM46,154L244,154C263.882,154 280,137.898 280,118.016L280,118L10,118C10,137.882 26.118,154 46,154Z" style="fill:rgb(255,231,17);"/>
                    </g>
                </g>
            </g>
            <g id="g-root-cp_6_shape-6_1_dhbuwc83tibw-fill" transform="matrix(1,0,0,1,350,350)">
                <g id="cp_6_shape-6_1_dhbuwc83tibw-fill">
                    <g>
                        <rect x="10" y="10" width="12" height="198" style="fill:rgb(251,103,98);"/>
                    </g>
                </g>
            </g>
            <g id="g-root-cp_6_shape-6_2_91icrw83tj46-fill" transform="matrix(1,0,0,1,350,548)">
                <g id="cp_6_shape-6_2_91icrw83tj46-fill">
                    <g>
                        <path d="M76,64.321C46,64.321 22,46 22,10L10,10L10,100.306L310,100.306C310,80.423 293.882,64.321 274,64.321L76,64.321Z" style="fill:rgb(251,103,98);"/>
                    </g>
                </g>
            </g>
            <g id="g-root-cp_6_shape-6_3_1qbyvcc83ti4g-fill" transform="matrix(1,0,0,1,350,638)">
                <g id="cp_6_shape-6_3_1qbyvcc83ti4g-fill">
                    <g>
                        <path d="M10,10L10,118L310,118L310,10L10,10ZM46,154L274,154C293.882,154 310,137.898 310,118.016L310,118L10,118C10,137.882 26.118,154 46,154Z" style="fill:rgb(251,103,98);"/>
                    </g>
                </g>
            </g>
            <g id="g-root-tx_tailorsl_142dgdo844q2w-fill" transform="matrix(1,0,0,1,452,326)">
                <g id="tx_tailorsl_142dgdo844q2w-fill">
                    <g>
                        <g>
                            <g transform="matrix(1,0,0,1,12.07,28.2)">
                                <text x="0px" y="0px" style="font-family:'ArialMT', 'Arial', sans-serif;font-size:15px;fill:rgb(44,44,44);">T<tspan x="7.5px 15.842px " y="0px 0px ">ai</tspan>lors lead stages for</text>
                            </g>
                            <g transform="matrix(1,0,0,1,12.86,46.2)">
                                <text x="0px" y="0px" style="font-family:'ArialMT', 'Arial', sans-serif;font-size:15px;fill:rgb(44,44,44);">personalized tracking.</text>
                            </g>
                        </g>
                    </g>
                </g>
            </g>
            <g id="g-root-tx_automate_1lz9qng83tjb8-fill" transform="matrix(1,0,0,1,62,326)">
                <g id="tx_automate_1lz9qng83tjb8-fill">
                    <g>
                        <g>
                            <g transform="matrix(1,0,0,1,20.09,28.2)">
                                <text x="0px" y="0px" style="font-family:'ArialMT', 'Arial', sans-serif;font-size:15px;fill:rgb(44,44,44);">Automates lead capture</text>
                            </g>
                            <g transform="matrix(1,0,0,1,16.83,46.2)">
                                <text x="0px" y="0px" style="font-family:'ArialMT', 'Arial', sans-serif;font-size:15px;fill:rgb(44,44,44);">for seamless integration.</text>
                            </g>
                        </g>
                    </g>
                </g>
            </g>
            <g id="g-root-tx_customle_8ydzcc844ruv-fill" transform="matrix(1,0,0,1,464,266)">
                <g id="tx_customle_8ydzcc844ruv-fill">
                    <g>
                        <g>
                            <g transform="matrix(1,0,0,1,14.42,34)">
                                <text x="0px" y="0px" style="font-family:'Arial-BoldMT', 'Arial', sans-serif;font-weight:700;font-size:20px;fill:rgb(44,44,44);">Custom Lead</text>
                            </g>
                            <g transform="matrix(1,0,0,1,42.37,58)">
                                <text x="0px" y="0px" style="font-family:'Arial-BoldMT', 'Arial', sans-serif;font-weight:700;font-size:20px;fill:rgb(44,44,44);">Stages</text>
                            </g>
                        </g>
                    </g>
                </g>
            </g>
            <g id="g-root-tx_multicha_hrj38s83wcue-fill" transform="matrix(1,0,0,1,95,488)">
                <g id="tx_multicha_hrj38s83wcue-fill">
                    <g>
                        <g>
                            <g transform="matrix(1,0,0,1,15.78,34)">
                                <text x="0px" y="0px" style="font-family:'Arial-BoldMT', 'Arial', sans-serif;font-weight:700;font-size:20px;fill:rgb(44,44,44);">Multi-Channel</text>
                            </g>
                            <g transform="matrix(1,0,0,1,23.06,58)">
                                <text x="0px" y="0px" style="font-family:'Arial-BoldMT', 'Arial', sans-serif;font-weight:700;font-size:20px;fill:rgb(44,44,44);">Engagement</text>
                            </g>
                        </g>
                    </g>
                </g>
            </g>
            <g transform="matrix(1,0,0,1,449.21,522)">
                <g id="g-root-tx_activity_1qeguuk83pa84-fill">
                    <g id="tx_activity_1qeguuk83pa84-fill">
                        <g>
                            <g>
                                <text x="0px" y="0px" style="font-family:'Arial-BoldMT', 'Arial', sans-serif;font-weight:700;font-size:20px;fill:rgb(44,44,44);">Activity T<tspan x="89.658px 95.215px " y="0px 0px ">im</tspan>eline</text>
                            </g>
                        </g>
                    </g>
                </g>
            </g>
            <g id="g-root-tx_tracksle_13z963w83qq6d-fill" transform="matrix(1,0,0,1,425,524)">
                <g id="tx_tracksle_13z963w83qq6d-fill">
                    <g>
                        <g>
                            <g transform="matrix(1,0,0,1,16.88,28.2)">
                                <text x="0px" y="0px" style="font-family:'ArialMT', 'Arial', sans-serif;font-size:15px;fill:rgb(44,44,44);">T<tspan x="8.606px 13.601px " y="0px 0px ">ra</tspan>cks lead activities for</text>
                            </g>
                            <g transform="matrix(1,0,0,1,17.03,46.2)">
                                <text x="0px" y="0px" style="font-family:'ArialMT', 'Arial', sans-serif;font-size:15px;fill:rgb(44,44,44);">comprehensive insights.</text>
                            </g>
                        </g>
                    </g>
                </g>
            </g>
            <g id="g-root-tx_engagesl_zk21ws83wcnb-fill" transform="matrix(1,0,0,1,59,548)">
                <g id="tx_engagesl_zk21ws83wcnb-fill">
                    <g>
                        <g>
                            <g transform="matrix(1,0,0,1,15.68,28.2)">
                                <text x="0px" y="0px" style="font-family:'ArialMT', 'Arial', sans-serif;font-size:15px;fill:rgb(44,44,44);">Engages leads across multiple</text>
                            </g>
                            <g transform="matrix(1,0,0,1,49.57,46.2)">
                                <g transform="matrix(15,0,0,15,72.5537,0)">
                                </g>
                                <g transform="matrix(15,0,0,15,76.5601,0)">
                                </g>
                                <text x="0px" y="0px" style="font-family:'ArialMT', 'Arial', sans-serif;font-size:15px;fill:rgb(44,44,44);">channels eﬀectively<tspan x="129.47px " y="0px ">.</tspan></text>
                            </g>
                        </g>
                    </g>
                </g>
            </g>
            <g id="g-root-tx_leadcapt_18mka3w83tiq3-fill" transform="matrix(1,0,0,1,86,266)">
                <g id="tx_leadcapt_18mka3w83tiq3-fill">
                    <g>
                        <g>
                            <g transform="matrix(1,0,0,1,13.78,34)">
                                <text x="0px" y="0px" style="font-family:'Arial-BoldMT', 'Arial', sans-serif;font-weight:700;font-size:20px;fill:rgb(44,44,44);">Lead Capture</text>
                            </g>
                            <g transform="matrix(1,0,0,1,21.08,58)">
                                <text x="0px" y="0px" style="font-family:'Arial-BoldMT', 'Arial', sans-serif;font-weight:700;font-size:20px;fill:rgb(44,44,44);">Automation</text>
                            </g>
                        </g>
                    </g>
                </g>
            </g>
            <g transform="matrix(1,0,0,1,399.28,720)">
                <g id="g-root-tx_taggings_909hrg83s5j7-fill">
                    <g id="tx_taggings_909hrg83s5j7-fill">
                        <g>
                            <g>
                                <text x="0px" y="0px" style="font-family:'Arial-BoldMT', 'Arial', sans-serif;font-weight:700;font-size:20px;fill:rgb(44,44,44);">T<tspan x="10.732px 21.855px " y="0px 0px ">ag</tspan>ging &amp; Segmentation</text>
                            </g>
                        </g>
                    </g>
                </g>
            </g>
            <g id="g-root-tx_rolebase_18nt8a483xp1n-fill" transform="matrix(1,0,0,1,86,710)">
                <g id="tx_rolebase_18nt8a483xp1n-fill">
                    <g>
                        <g>
                            <g transform="matrix(1,0,0,1,16.29,34)">
                                <text x="0px" y="0px" style="font-family:'Arial-BoldMT', 'Arial', sans-serif;font-weight:700;font-size:20px;fill:rgb(44,44,44);">Role-Based <tspan x="114.844px 129.287px " y="0px 0px ">Ac</tspan>cess</text>
                            </g>
                            <g transform="matrix(1,0,0,1,70.54,58)">
                                <text x="0px" y="0px" style="font-family:'Arial-BoldMT', 'Arial', sans-serif;font-weight:700;font-size:20px;fill:rgb(44,44,44);">Control</text>
                            </g>
                        </g>
                    </g>
                </g>
            </g>
            <g id="g-root-tx_controls_1lqj3fw83z478-fill" transform="matrix(1,0,0,1,62,770)">
                <g id="tx_controls_1lqj3fw83z478-fill">
                    <g>
                        <g>
                            <g transform="matrix(1,0,0,1,13.11,28.2)">
                                <text x="0px" y="0px" style="font-family:'ArialMT', 'Arial', sans-serif;font-size:15px;fill:rgb(44,44,44);">Controls access based on roles for</text>
                            </g>
                            <g transform="matrix(1,0,0,1,101.03,46.2)">
                                <text x="0px" y="0px" style="font-family:'ArialMT', 'Arial', sans-serif;font-size:15px;fill:rgb(44,44,44);">security<tspan x="50.566px " y="0px ">.</tspan></text>
                            </g>
                        </g>
                    </g>
                </g>
            </g>
            <g id="g-root-tx_segments_1lwrxgs83s3k4-fill" transform="matrix(1,0,0,1,398,722)">
                <g id="tx_segments_1lwrxgs83s3k4-fill">
                    <g>
                        <g>
                            <g transform="matrix(1,0,0,1,12.98,28.2)">
                                <text x="0px" y="0px" style="font-family:'ArialMT', 'Arial', sans-serif;font-size:15px;fill:rgb(44,44,44);">Segments leads with tags for</text>
                            </g>
                            <g transform="matrix(1,0,0,1,53.88,46.2)">
                                <text x="0px" y="0px" style="font-family:'ArialMT', 'Arial', sans-serif;font-size:15px;fill:rgb(44,44,44);">targeted actions.</text>
                            </g>
                        </g>
                    </g>
                </g>
            </g>
            <g id="g-root-cp_5_shape-5_qn63ho83tjpm-stroke" transform="matrix(1,0,0,1,314.303,68)">
                <g id="cp_5_shape-5_qn63ho83tjpm-stroke">
                    <g>
                        <path d="M15.697,160L15.697,292M27.697,292L27.697,160M15.697,160L15.697,28.191L11.017,28.191C10.237,28.191 9.747,27.341 10.137,26.661L20.86,10.448C21.256,9.849 22.136,9.851 22.53,10.451L33.177,26.661C33.577,27.341 33.087,28.191 32.297,28.191L27.697,28.191L27.697,160" style="fill:none;stroke:rgb(44,44,44);stroke-width:2px;"/>
                    </g>
                </g>
            </g>
            <g id="g-root-cp_1_shape-1_dcc27g83ti4s-stroke" transform="matrix(1,0,0,1,32,67.8164)">
                <g id="cp_1_shape-1_dcc27g83ti4s-stroke">
                    <g>
                        <path d="M10,160.184C10,140.301 26.118,124.321 46,124.321L172,124.321C213.07,124.321 238,94.191 238,54.851L238,28.191L233.32,28.191C232.54,28.191 232.05,27.341 232.44,26.661L243.163,10.448C243.559,9.849 244.439,9.851 244.833,10.451L255.48,26.661C255.88,27.341 255.39,28.191 254.6,28.191L250,28.191L250,160.184M250,292.184C250,312.066 233.882,328.191 214,328.191L46,328.191C26.118,328.191 10,312.081 10,292.199L10,292.184M250,292.184L250,160.184M10,160.184L10,292.184" style="fill:none;stroke:rgb(44,44,44);stroke-width:2px;"/>
                    </g>
                </g>
            </g>
            <g id="g-root-cp_3_shape-3_vju483tjpq-stroke" transform="matrix(1,0,0,1,284.303,68)">
                <g id="cp_3_shape-3_vju483tjpq-stroke">
                    <g>
                        <path d="M15.697,160L15.697,292M27.697,292L27.697,160M15.697,160L15.697,28.191L11.017,28.191C10.237,28.191 9.747,27.341 10.137,26.661L20.86,10.448C21.256,9.849 22.136,9.851 22.53,10.451L33.177,26.661C33.577,27.341 33.087,28.191 32.297,28.191L27.697,28.191L27.697,160" style="fill:none;stroke:rgb(44,44,44);stroke-width:2px;"/>
                    </g>
                </g>
            </g>
            <g id="g-root-cp_3_shape-3_1_1cvika483tji8-stroke" transform="matrix(1,0,0,1,32,350)">
                <g id="cp_3_shape-3_1_1cvika483tji8-stroke">
                    <g>
                        <path d="M268,10C268,46 244,64.321 214,64.321L46,64.321C26.118,64.321 10,80.423 10,100.306M280,100.306L280,10" style="fill:none;stroke:rgb(44,44,44);stroke-width:2px;"/>
                    </g>
                </g>
            </g>
            <g id="g-root-cp_5_shape-5_1_ddl0do83tkay-stroke" transform="matrix(1,0,0,1,320,350)">
                <g id="cp_5_shape-5_1_ddl0do83tkay-stroke">
                    <g>
                        <path d="M10,10L10,232M22,232L22,10" style="fill:none;stroke:rgb(44,44,44);stroke-width:2px;"/>
                    </g>
                </g>
            </g>
            <g id="g-root-cp_3_shape-3_2_2qz3g83tiq4-stroke" transform="matrix(1,0,0,1,32,440)">
                <g id="cp_3_shape-3_2_2qz3g83tiq4-stroke">
                    <g>
                        <path d="M280,141.979L280,10M10,10L10,142M280,142.008C280,161.89 263.882,178.008 244,178.008L46,178.008C26.118,178.008 10,161.905 10,142.023L10,142.008" style="fill:none;stroke:rgb(44,44,44);stroke-width:2px;"/>
                    </g>
                </g>
            </g>
            <g id="g-root-cp_5_shape-5_2_1lseip883tk3y-stroke" transform="matrix(1,0,0,1,32,572)">
                <g id="cp_5_shape-5_2_1lseip883tk3y-stroke">
                    <g>
                        <path d="M298,10C298,45.878 274,64.137 244,64.137L46,64.137C26.118,64.137 10,80.185 10,100M310,100L310,10" style="fill:none;stroke:rgb(44,44,44);stroke-width:2px;"/>
                    </g>
                </g>
            </g>
            <g id="g-root-cp_5_shape-5_3_1cxdzjg83tiio-stroke" transform="matrix(1,0,0,1,32,662)">
                <g id="cp_5_shape-5_3_1cxdzjg83tiio-stroke">
                    <g>
                        <path d="M310,142L310,10M10,10L10,142M310,142C310,161.882 293.882,178.008 274,178.008L46,178.008C26.118,178.008 10,161.882 10,142" style="fill:none;stroke:rgb(44,44,44);stroke-width:2px;"/>
                    </g>
                </g>
            </g>
            <g id="g-root-cp_2_shape-2_zlxh6483tk3m-stroke" transform="matrix(1,0,0,1,404.378,67.8164)">
                <g id="cp_2_shape-2_zlxh6483tk3m-stroke">
                    <g>
                        <path d="M255.622,160.184C255.622,140.301 239.505,124.321 219.623,124.321L93.622,124.321C52.552,124.321 27.622,94.191 27.622,54.851L27.622,28.191L32.302,28.191C33.082,28.191 33.572,27.341 33.182,26.661L22.459,10.448C22.063,9.849 21.184,9.851 20.79,10.451L10.142,26.661C9.742,27.341 10.232,28.191 11.022,28.191L15.622,28.191L15.622,160.184M15.622,292.184C15.622,312.066 31.74,328.184 51.622,328.184L219.623,328.183C239.505,328.183 255.622,312.081 255.622,292.199L255.622,292.184M15.622,292.184L15.622,160.184M255.622,160.184L255.622,292.184" style="fill:none;stroke:rgb(44,44,44);stroke-width:2px;"/>
                    </g>
                </g>
            </g>
            <g id="g-root-cp_4_shape-4_8zmxik83tk3o-stroke" transform="matrix(1,0,0,1,374.383,68)">
                <g id="cp_4_shape-4_8zmxik83tk3o-stroke">
                    <g>
                        <path d="M27.622,160L27.622,292M15.622,292L15.622,160M27.622,160L27.622,28.191L32.302,28.191C33.082,28.191 33.572,27.341 33.182,26.661L22.459,10.448C22.063,9.849 21.184,9.851 20.79,10.451L10.142,26.661C9.742,27.341 10.232,28.191 11.022,28.191L15.622,28.191L15.622,160" style="fill:none;stroke:rgb(44,44,44);stroke-width:2px;"/>
                    </g>
                </g>
            </g>
            <g id="g-root-cp_6_shape-6_1hegfu483tjwm-stroke" transform="matrix(1,0,0,1,344.383,68)">
                <g id="cp_6_shape-6_1hegfu483tjwm-stroke">
                    <g>
                        <path d="M27.622,160L27.622,292M15.622,292L15.622,160M27.622,160L27.622,28.191L32.302,28.191C33.082,28.191 33.572,27.341 33.182,26.661L22.459,10.448C22.063,9.849 21.184,9.851 20.79,10.451L10.142,26.661C9.742,27.341 10.232,28.191 11.022,28.191L15.622,28.191L15.622,160" style="fill:none;stroke:rgb(44,44,44);stroke-width:2px;"/>
                    </g>
                </g>
            </g>
            <g id="g-root-cp_4_shape-4_1_143mejw83tibs-stroke" transform="matrix(1,0,0,1,380,350)">
                <g id="cp_4_shape-4_1_143mejw83tibs-stroke">
                    <g>
                        <path d="M22,10C22,46 46,64.321 76,64.321L244,64.321C263.882,64.321 280,80.423 280,100.306M10,100.306L10,10" style="fill:none;stroke:rgb(44,44,44);stroke-width:2px;"/>
                    </g>
                </g>
            </g>
            <g id="g-root-cp_4_shape-4_2_qs5w6k83tjwq-stroke" transform="matrix(1,0,0,1,380,440)">
                <g id="cp_4_shape-4_2_qs5w6k83tjwq-stroke">
                    <g>
                        <path d="M10,118L10,10M280,10L280,118M10,118C10,137.882 26.118,154.008 46,154.008L244,154.008C263.882,154.008 280,137.898 280,118.016L280,118" style="fill:none;stroke:rgb(44,44,44);stroke-width:2px;"/>
                    </g>
                </g>
            </g>
            <g id="g-root-cp_6_shape-6_1_dhbuwc83tibw-stroke" transform="matrix(1,0,0,1,350,350)">
                <g id="cp_6_shape-6_1_dhbuwc83tibw-stroke">
                    <g>
                        <path d="M22,10L22,208M10,208L10,10" style="fill:none;stroke:rgb(44,44,44);stroke-width:2px;"/>
                    </g>
                </g>
            </g>
            <g id="g-root-cp_6_shape-6_2_91icrw83tj46-stroke" transform="matrix(1,0,0,1,350,548)">
                <g id="cp_6_shape-6_2_91icrw83tj46-stroke">
                    <g>
                        <path d="M22,10C22,46 46,64.321 76,64.321L274,64.321C293.882,64.321 310,80.423 310,100.306M10,100.306L10,10" style="fill:none;stroke:rgb(44,44,44);stroke-width:2px;"/>
                    </g>
                </g>
            </g>
            <g id="g-root-cp_6_shape-6_3_1qbyvcc83ti4g-stroke" transform="matrix(1,0,0,1,350,638)">
                <g id="cp_6_shape-6_3_1qbyvcc83ti4g-stroke">
                    <g>
                        <path d="M10,118L10,10M310,10L310,118M10,118C10,137.882 26.118,154.008 46,154.008L274,154.008C293.882,154.008 310,137.898 310,118.016L310,118" style="fill:none;stroke:rgb(44,44,44);stroke-width:2px;"/>
                    </g>
                </g>
            </g>
            <g id="g-root-ic_2_qqagx883wcg8-stroke" transform="matrix(1,0,0,1,143,428)">
                <g id="ic_2_qqagx883wcg8-stroke">
                    <g>
                        <path d="M34.1,20.2C36.309,20.2 38.1,18.409 38.1,16.2C38.1,13.991 36.309,12.2 34.1,12.2C31.891,12.2 30.1,13.991 30.1,16.2C30.1,18.409 31.891,20.2 34.1,20.2ZM52.5,55.8C54.709,55.8 56.5,54.009 56.5,51.8C56.5,49.591 54.709,47.8 52.5,47.8C50.291,47.8 48.5,49.591 48.5,51.8C48.5,54.009 50.291,55.8 52.5,55.8ZM15.5,55.8C17.709,55.8 19.5,54.009 19.5,51.8C19.5,49.591 17.709,47.8 15.5,47.8C13.291,47.8 11.5,49.591 11.5,51.8C11.5,54.009 13.291,55.8 15.5,55.8ZM29.8,40.4C32.2,38 36,38 38.2,40.4M25.5,36.2C30.1,31.6 37.7,31.6 42.5,36.2M34,46.4C33.558,46.4 33.2,46.042 33.2,45.6C33.2,45.158 33.558,44.8 34,44.8M34,46.4C34.442,46.4 34.8,46.042 34.8,45.6C34.8,45.158 34.442,44.8 34,44.8M41.7,23C47.3,28 50.9,34.4 51.5,42.2M26.3,23C20.7,28 17.1,34.4 16.5,42.2M25.1,53.6C30.9,56 36.9,56.2 43.1,53.6" style="fill:none;stroke:rgb(44,44,44);stroke-width:2px;"/>
                    </g>
                </g>
            </g>
            <g id="g-root-ic_time_4hbm7g83qqz2-stroke" transform="matrix(1,0,0,1,491,428)">
                <g id="ic_time_4hbm7g83qqz2-stroke">
                    <g>
                        <path d="M28.248,44.73L15.122,44.73C12.864,44.73 11.033,42.9 11.032,40.642L11.032,15.088C11.033,12.83 12.864,11 15.122,11L45.786,11C48.044,11 49.874,12.83 49.874,15.088L49.874,28.376M11.032,18.984L49.874,18.984M11.032,35.95L29.89,35.95M11.032,27.48L49.874,27.48M26.898,18.984L26.898,44.73M38.272,18.984L38.272,28.376M44.702,57C51.476,57 56.968,51.508 56.968,44.734C56.968,37.96 51.476,32.468 44.702,32.468C37.928,32.468 32.436,37.96 32.436,44.734C32.436,51.508 37.928,57 44.702,57L44.702,57ZM51.426,44.738L44.702,44.738L44.702,37.738" style="fill:none;stroke:rgb(44,44,44);stroke-width:2px;"/>
                    </g>
                </g>
            </g>
            <g id="g-root-ic_asce_4mecs844rnt-stroke" transform="matrix(1,0,0,1,506,206)">
                <g id="ic_asce_4mecs844rnt-stroke">
                    <g>
                        <path d="M11,57L57,57M57,25L44,25C43.448,25 43,25.448 43,26L43,33L36,33C35.448,33 35,33.448 35,34L35,41L28,41C27.448,41 27,41.448 27,42L27,49L20,49C19.448,49 19,49.448 19,50L19,57M11,33L33,11M23,11L33,11L33,21" style="fill:none;stroke:rgb(44,44,44);stroke-width:2px;"/>
                    </g>
                </g>
            </g>
            <g id="g-root-ic_1_940ca483s2rx-stroke" transform="matrix(1,0,0,1,476,626)">
                <g id="ic_1_940ca483s2rx-stroke">
                    <g>
                        <path d="M57,55C57,56.105 56.105,57 55,57L13,57C11.895,57 11,56.105 11,55L11,13C11,11.895 11.895,11 13,11L55,11C56.105,11 57,11.895 57,13L57,55ZM11,35L57,35M25,57L17,57L17,40C17,39.448 17.448,39 18,39L24,39C24.552,39 25,39.448 25,40L25,57ZM37,19L43,19L43,35L37,35L37,19ZM48.568,35L42.324,16.812C42.145,16.29 42.424,15.721 42.946,15.542L46.73,14.242C47.252,14.063 47.821,14.342 48,14.864L54.912,35M37,35L29,35L29,18C29,17.448 29.448,17 30,17L36,17C36.552,17 37,17.448 37,18L37,35ZM33,57L25,57L25,40C25,39.448 25.448,39 26,39L32,39C32.552,39 33,39.448 33,40L33,57ZM51,57L45,57L45,40C45,39.448 45.448,39 46,39L50,39C50.552,39 51,39.448 51,40L51,57ZM45,57L39,57L39,42C39,41.448 39.448,41 40,41L44,41C44.552,41 45,41.448 45,42L45,57ZM21,45L21,51M29,45L29,51" style="fill:none;stroke:rgb(44,44,44);stroke-width:2px;"/>
                    </g>
                </g>
            </g>
            <g id="g-root-ic_netw_8wik3083ux3h-stroke" transform="matrix(1,0,0,1,128,206)">
                <g id="ic_netw_8wik3083ux3h-stroke">
                    <g>
                        <path d="M44,24.04L50.216,17.868M49,15C49,17.209 50.791,19 53,19C55.209,19 57,17.209 57,15C57,12.791 55.209,11 53,11C50.791,11 49,12.791 49,15ZM45.924,45.958L50.154,50.214M49.02,53C49.02,55.209 50.811,57 53.02,57C55.229,57 57.02,55.209 57.02,53C57.02,50.791 55.229,49 53.02,49C50.811,49 49.02,50.791 49.02,53ZM24,24.04L17.786,17.868M11,15C11,17.209 12.791,19 15,19C17.209,19 19,17.209 19,15C19,12.791 17.209,11 15,11C12.791,11 11,12.791 11,15ZM22.078,45.958L17.846,50.214M10.98,53C10.98,55.209 12.771,57 14.98,57C17.189,57 18.98,55.209 18.98,53C18.98,50.791 17.189,49 14.98,49C12.771,49 10.98,50.791 10.98,53ZM43,33L49,33M49,33C49,35.209 50.791,37 53,37C55.209,37 57,35.209 57,33C57,30.791 55.209,29 53,29C50.791,29 49,30.791 49,33ZM25,33L19,33M11,33C11,35.209 12.791,37 15,37C17.209,37 19,35.209 19,33C19,30.791 17.209,29 15,29C12.791,29 11,30.791 11,33ZM25.02,43C25.02,38.029 29.049,34 34.02,34C38.991,34 43.02,38.029 43.02,43L25.02,43ZM28.52,26.5C28.52,29.538 30.982,32 34.02,32C37.058,32 39.52,29.538 39.52,26.5C39.52,23.462 37.058,21 34.02,21C30.982,21 28.52,23.462 28.52,26.5Z" style="fill:none;stroke:rgb(44,44,44);stroke-width:2px;"/>
                    </g>
                </g>
            </g>
            <g id="g-root-ic_door_m8ljjg83z4zx-stroke" transform="matrix(1,0,0,1,158,650)">
                <g id="ic_door_m8ljjg83z4zx-stroke">
                    <g>
                        <path d="M39.52,28.084L52.52,28.084C52.52,28.084 55.52,28.084 55.52,31.084L55.52,53.084C55.52,53.084 55.52,56.084 52.52,56.084L39.52,56.084C39.52,56.084 36.52,56.084 36.52,53.084L36.52,31.084C36.52,31.084 36.52,28.084 39.52,28.084M41.59,35.73C41.59,36.144 41.926,36.48 42.34,36.48C42.754,36.48 43.09,36.144 43.09,35.73C43.09,35.316 42.754,34.98 42.34,34.98C41.926,34.98 41.59,35.316 41.59,35.73M48.59,35.73C48.59,36.144 48.926,36.48 49.34,36.48C49.754,36.48 50.09,36.144 50.09,35.73C50.09,35.316 49.754,34.98 49.34,34.98C48.926,34.98 48.59,35.316 48.59,35.73M41.59,42.23C41.59,42.644 41.926,42.98 42.34,42.98C42.754,42.98 43.09,42.644 43.09,42.23C43.09,41.816 42.754,41.48 42.34,41.48C41.926,41.48 41.59,41.816 41.59,42.23M48.59,42.23C48.59,42.644 48.926,42.98 49.34,42.98C49.754,42.98 50.09,42.644 50.09,42.23C50.09,41.816 49.754,41.48 49.34,41.48C48.926,41.48 48.59,41.816 48.59,42.23M41.59,48.73C41.59,49.144 41.926,49.48 42.34,49.48C42.754,49.48 43.09,49.144 43.09,48.73C43.09,48.316 42.754,47.98 42.34,47.98C41.926,47.98 41.59,48.316 41.59,48.73M48.59,48.73C48.59,49.144 48.926,49.48 49.34,49.48C49.754,49.48 50.09,49.144 50.09,48.73C50.09,48.316 49.754,47.98 49.34,47.98C48.926,47.98 48.59,48.316 48.59,48.73M12.48,12.908L26,20.416C26.583,20.635 26.97,21.193 26.972,21.816L26.972,54.584C26.972,55.08 26.727,55.544 26.318,55.824C25.909,56.104 25.388,56.164 24.926,55.984L13.03,48.854C12.694,48.685 12.482,48.342 12.48,47.966L12.48,12.908C12.48,12.356 12.928,11.908 13.48,11.908L35.48,11.908C37.137,11.908 38.48,13.251 38.48,14.908L38.48,22.232M22.502,33.772L22.502,37.772M26.98,48.358L31.496,48.358" style="fill:none;stroke:rgb(44,44,44);stroke-width:2px;"/>
                    </g>
                </g>
            </g>
        </g>
    </g>
</svg>
