<?xml version="1.0" encoding="UTF-8" standalone="no"?>
<!DOCTYPE svg PUBLIC "-//W3C//DTD SVG 1.1//EN" "http://www.w3.org/Graphics/SVG/1.1/DTD/svg11.dtd">
<svg width="100%" height="100%" viewBox="0 0 636 694" version="1.1" xmlns="http://www.w3.org/2000/svg" xmlns:xlink="http://www.w3.org/1999/xlink" xml:space="preserve" xmlns:serif="http://www.serif.com/" style="fill-rule:evenodd;clip-rule:evenodd;stroke-linecap:round;stroke-linejoin:round;">
    <g id="items" transform="matrix(1.07036,0,0,1.07036,-22.3758,-56.1755)">
        <g id="blend">
            <g id="g-root-sy_-1_cu_1uljmng4s16a1-fill" transform="matrix(1,0,0,1,14,74)">
                <g id="sy_-1_cu_1uljmng4s16a1-fill">
                    <g>
                        <path d="M10,514L10,586L82,586L82,514L10,514ZM34,490L10,514L82,514L106,490L34,490ZM34,490L34,418L106.5,418L106.5,490L34,490ZM58,394L34,418L106.5,418L130,394L58,394ZM58,394L58,322L130,322L130,394L58,394ZM82,298L58,322L130,322L154,298L82,298ZM82,298L82,226L154,226L154,298L82,298ZM106,202L82,226L154,226L178,202L106,202ZM106,202L106,130L178,130L178,202L106,202ZM130,106L106,130L178,130L202,106L130,106ZM130,106L130,34L202,34L202,106L130,106ZM154,10L130,34L202,34L226,10L154,10Z" style="fill:url(#_Linear1);"/>
                    </g>
                </g>
            </g>
            <g id="g-root-sy_-1_cu_1_zjfkvg4s172a-fill" transform="matrix(1,0,0,1,386,74)">
                <g id="sy_-1_cu_1_zjfkvg4s172a-fill">
                    <g>
                        <path d="M226,586L226,514L154.5,514L154.5,586L226,586ZM226,514L202,490L130,490L155,514L226,514ZM202,490L202,418L130.5,418L130.5,490L202,490ZM202,418L178,394L106,394L130.5,418L202,418ZM178,322L178,394L106,394L106,322L178,322ZM178,322L154,298L82,298L106,322L178,322ZM154,226L154,298L82,298L82,226L154,226ZM154,226L130,202L58,202L82,226L154,226ZM130,130L130,202L58,202L58,130L130,130ZM130,130L106,106L34,106L58,130L130,130ZM106,34L106,106L34,106L34,34L106,34ZM106,34L82,10L10,10L34,34L106,34Z" style="fill:url(#_Linear2);"/>
                    </g>
                </g>
            </g>
            <g id="g-root-sy_1_cu_m7z2i44s18n7-fill" transform="matrix(1,0,0,1,86,554)">
                <g id="sy_1_cu_m7z2i44s18n7-fill">
                    <g>
                        <path d="M10,106L10,34L454.5,34L454.5,106L10,106ZM430,10L455,34L10,34L34,10L430,10Z" style="fill:url(#_Linear3);"/>
                    </g>
                </g>
            </g>
            <g id="g-root-sy_2_cu_8x517w4s172c-fill" transform="matrix(1,0,0,1,110.5,458)">
                <g id="sy_2_cu_8x517w4s172c-fill">
                    <g>
                        <path d="M10,106L10,34L406,34L406,106L10,106ZM381.5,10L406,34L10,34L33.5,10L381.5,10Z" style="fill:url(#_Linear4);"/>
                    </g>
                </g>
            </g>
            <g id="g-root-sy_3_cu_1umskto4s18g5-fill" transform="matrix(1,0,0,1,134,362)">
                <g id="sy_3_cu_1umskto4s18g5-fill">
                    <g>
                        <path d="M10,106L10,34L358,34L358,106L10,106ZM334,10L358,34L10,34L34,10L334,10Z" style="fill:url(#_Linear5);"/>
                    </g>
                </g>
            </g>
            <g id="g-root-sy_4_cu_1hbyjjg4s16va-fill" transform="matrix(1,0,0,1,158,266)">
                <g id="sy_4_cu_1hbyjjg4s16va-fill">
                    <g>
                        <path d="M10,34L10,106L310,106L310,34L10,34ZM286,10L310,34L10,34L34,10L286,10Z" style="fill:url(#_Linear6);"/>
                    </g>
                </g>
            </g>
            <g id="g-root-sy_5_cu_140i1644s18g7-fill" transform="matrix(1,0,0,1,182,170)">
                <g id="sy_5_cu_140i1644s18g7-fill">
                    <g>
                        <path d="M10,106L10,34L262,34L262,106L10,106ZM238,10L262,34L10,34L34,10L238,10Z" style="fill:url(#_Linear7);"/>
                    </g>
                </g>
            </g>
            <g id="g-root-sy_6_cu_qpnzvw4s16vc-fill" transform="matrix(1,0,0,1,206,74)">
                <g id="sy_6_cu_qpnzvw4s16vc-fill">
                    <g>
                        <path d="M10,106L10,34L214,34L214,106L10,106ZM190,10L214,34L10,34L34,10L190,10Z" style="fill:url(#_Linear8);"/>
                    </g>
                </g>
            </g>
            <g id="g-root-tx_stronger_meuagc4s172f-fill" transform="matrix(1,0,0,1,236,110)">
                <g id="tx_stronger_meuagc4s172f-fill">
                    <g>
                        <g>
                            <g transform="matrix(1,0,0,1,14.72,34)">
                                <text x="0px" y="0px" style="font-family:'ArialMT', 'Arial', sans-serif;font-size:20px;fill:rgb(244,244,244);">Stronger Sales</text>
                            </g>
                            <g transform="matrix(1,0,0,1,27.1,58)">
                                <text x="0px" y="0px" style="font-family:'ArialMT', 'Arial', sans-serif;font-size:20px;fill:rgb(244,244,244);">Forecasting</text>
                            </g>
                        </g>
                    </g>
                </g>
            </g>
            <g transform="matrix(1,0,0,1,208.56,252)">
                <g id="g-root-tx_timesavi_1qbyve44s18na-fill">
                    <g id="tx_timesavi_1qbyve44s18na-fill">
                        <g>
                            <g>
                                <text x="0px" y="0px" style="font-family:'ArialMT', 'Arial', sans-serif;font-size:20px;fill:rgb(244,244,244);">T<tspan x="11.475px 15.918px " y="0px 0px ">im</tspan>e-Saving <tspan x="115.967px 129.307px " y="0px 0px ">Au</tspan>tomation</text>
                            </g>
                        </g>
                    </g>
                </g>
            </g>
            <g transform="matrix(1,0,0,1,193.22,348)">
                <g id="g-root-tx_highlyor_mcyv704s1825-fill">
                    <g id="tx_highlyor_mcyv704s1825-fill">
                        <g>
                            <g>
                                <g transform="matrix(20,0,0,20,205.264,0)">
                                </g>
                                <g transform="matrix(20,0,0,20,210.82,0)">
                                </g>
                                <text x="0px" y="0px" style="font-family:'ArialMT', 'Arial', sans-serif;font-size:20px;fill:rgb(244,244,244);">Highly Organized W<tspan x="177.48px 188.604px " y="0px 0px ">or</tspan>kﬂows</text>
                            </g>
                        </g>
                    </g>
                </g>
            </g>
            <g transform="matrix(1,0,0,1,201.87,444)">
                <g id="g-root-tx_betterte_1luwf3g4s179g-fill">
                    <g id="tx_betterte_1luwf3g4s179g-fill">
                        <g>
                            <g>
                                <text x="0px" y="0px" style="font-family:'ArialMT', 'Arial', sans-serif;font-size:20px;fill:rgb(244,244,244);">Better <tspan x="58.555px 68.555px 79.678px " y="0px 0px 0px ">Tea</tspan>m Collaboration</text>
                            </g>
                        </g>
                    </g>
                </g>
            </g>
            <g transform="matrix(1,0,0,1,180.95,540)">
                <g id="g-root-tx_higherle_hvwewc4s16ob-fill">
                    <g id="tx_higherle_hvwewc4s16ob-fill">
                        <g>
                            <g>
                                <text x="0px" y="0px" style="font-family:'ArialMT', 'Arial', sans-serif;font-size:20px;fill:rgb(244,244,244);">Higher Lead-to-Customer Ratio</text>
                            </g>
                        </g>
                    </g>
                </g>
            </g>
            <g transform="matrix(1,0,0,1,218.72,636)">
                <g id="g-root-tx_fasterre_1hdtyss4s15vm-fill">
                    <g id="tx_fasterre_1hdtyss4s15vm-fill">
                        <g>
                            <g>
                                <text x="0px" y="0px" style="font-family:'ArialMT', 'Arial', sans-serif;font-size:20px;fill:rgb(244,244,244);">Faster Response <tspan x="157.49px 168.965px 173.408px " y="0px 0px 0px ">Tim</tspan>e</text>
                            </g>
                        </g>
                    </g>
                </g>
            </g>
            <g id="g-root-sy_-1_cu_1uljmng4s16a1-stroke" transform="matrix(1,0,0,1,14,74)">
                <g id="sy_-1_cu_1uljmng4s16a1-stroke">
                    <g>
                        <path d="M10,586L10,514L82,514L82,586L10,586ZM10,514L34,490L106,490L82,514L10,514ZM34,490L34,418L106.5,418L106.5,490L34,490ZM34,418L58,394L130,394L106.5,418L34,418ZM58,394L58,322L130,322L130,394L58,394ZM58,322L82,298L154,298L130,322L58,322ZM82,298L82,226L154,226L154,298L82,298ZM82,226L106,202L178,202L154,226L82,226ZM106,202L106,130L178,130L178,202L106,202ZM106,130L130,106L202,106L178,130L106,130ZM130,106L130,34L202,34L202,106L130,106ZM130,34L154,10L226,10L202,34L130,34Z" style="fill:none;stroke:rgb(244,244,244);stroke-width:2px;"/>
                    </g>
                </g>
            </g>
            <g id="g-root-sy_-1_cu_1_zjfkvg4s172a-stroke" transform="matrix(1,0,0,1,386,74)">
                <g id="sy_-1_cu_1_zjfkvg4s172a-stroke">
                    <g>
                        <path d="M226,586L226,514L154.5,514L154.5,586L226,586ZM226,514L202,490L130,490L155,514L226,514ZM202,418L202,490L130.5,490L130.5,418L202,418ZM202,418L178,394L106,394L130.5,418L202,418ZM178,322L178,394L106,394L106,322L178,322ZM178,322L154,298L82,298L106,322L178,322ZM154,226L154,298L82,298L82,226L154,226ZM154,226L130,202L58,202L82,226L154,226ZM130,130L130,202L58,202L58,130L130,130ZM130,130L106,106L34,106L58,130L130,130ZM106,106L106,34L34,34L34,106L106,106ZM106,34L82,10L10,10L34,34L106,34Z" style="fill:none;stroke:rgb(244,244,244);stroke-width:2px;"/>
                    </g>
                </g>
            </g>
            <g id="g-root-sy_1_cu_m7z2i44s18n7-stroke" transform="matrix(1,0,0,1,86,554)">
                <g id="sy_1_cu_m7z2i44s18n7-stroke">
                    <g>
                        <path d="M10,34L10,106L454.5,106L454.5,34L10,34ZM455,34L430,10L34,10L10,34L455,34Z" style="fill:none;stroke:rgb(244,244,244);stroke-width:2px;"/>
                    </g>
                </g>
            </g>
            <g id="g-root-sy_2_cu_8x517w4s172c-stroke" transform="matrix(1,0,0,1,110.5,458)">
                <g id="sy_2_cu_8x517w4s172c-stroke">
                    <g>
                        <path d="M10,34L10,106L406,106L406,34L10,34ZM406,34L381.5,10L33.5,10L10,34L406,34Z" style="fill:none;stroke:rgb(244,244,244);stroke-width:2px;"/>
                    </g>
                </g>
            </g>
            <g id="g-root-sy_3_cu_1umskto4s18g5-stroke" transform="matrix(1,0,0,1,134,362)">
                <g id="sy_3_cu_1umskto4s18g5-stroke">
                    <g>
                        <path d="M10,34L10,106L358,106L358,34L10,34ZM358,34L334,10L34,10L10,34L358,34Z" style="fill:none;stroke:rgb(244,244,244);stroke-width:2px;"/>
                    </g>
                </g>
            </g>
            <g id="g-root-sy_4_cu_1hbyjjg4s16va-stroke" transform="matrix(1,0,0,1,158,266)">
                <g id="sy_4_cu_1hbyjjg4s16va-stroke">
                    <g>
                        <path d="M10,106L10,34L310,34L310,106L10,106ZM310,34L286,10L34,10L10,34L310,34Z" style="fill:none;stroke:rgb(244,244,244);stroke-width:2px;"/>
                    </g>
                </g>
            </g>
            <g id="g-root-sy_5_cu_140i1644s18g7-stroke" transform="matrix(1,0,0,1,182,170)">
                <g id="sy_5_cu_140i1644s18g7-stroke">
                    <g>
                        <path d="M10,34L10,106L262,106L262,34L10,34ZM262,34L238,10L34,10L10,34L262,34Z" style="fill:none;stroke:rgb(244,244,244);stroke-width:2px;"/>
                    </g>
                </g>
            </g>
            <g id="g-root-sy_6_cu_qpnzvw4s16vc-stroke" transform="matrix(1,0,0,1,206,74)">
                <g id="sy_6_cu_qpnzvw4s16vc-stroke">
                    <g>
                        <path d="M10,34L10,106L214,106L214,34L10,34ZM214,34L190,10L34,10L10,34L214,34Z" style="fill:none;stroke:rgb(244,244,244);stroke-width:2px;"/>
                    </g>
                </g>
            </g>
            <g id="g-root-ic_48px_146qs184s2nf1-stroke" transform="matrix(1,0,0,1,146,110)">
                <g id="ic_48px_146qs184s2nf1-stroke">
                    <g>
                        <path d="M15.072,30.179C15.072,24.482 17.789,19.696 23.011,19.696C28.233,19.696 30.949,24.482 30.949,30.179L30.949,37.273C30.949,42.97 28.105,47.882 23.011,47.882C17.916,47.882 15.072,42.97 15.072,37.273L15.072,30.179ZM50.418,19.665C41.584,19.665 37.369,25.383 37.037,34.143L37.037,38.359C37.037,43.89 40.109,47.444 45.231,47.882C50.057,48.069 53.06,44.281 53.276,38.792C53.414,35.307 51.645,30.415 46.214,29.871C41.455,29.396 37.736,32.558 37.037,35.977" style="fill:none;stroke:rgb(244,244,244);stroke-width:2px;"/>
                    </g>
                </g>
            </g>
            <g id="g-root-ic_grap_1hi7aek4s18g8-stroke" transform="matrix(1,0,0,1,422,110)">
                <g id="ic_grap_1hi7aek4s18g8-stroke">
                    <g>
                        <path d="M11.526,15.014L11.526,57L55.486,57M11.526,49.796L22.886,43.17L37.704,51.072L54.498,38.23M47.68,38.23L54.498,38.23L53.308,45.378M26.454,23.57L18.398,30.82L11.65,30.82M34.614,21.93C34.614,27.966 39.508,32.86 45.544,32.86C51.58,32.86 56.474,27.966 56.474,21.93C56.474,15.894 51.58,11 45.544,11C39.508,11 34.614,15.894 34.614,21.93M42.266,19.2C42.265,17.388 43.733,15.918 45.545,15.918C47.357,15.918 48.826,17.387 48.826,19.199C48.826,21.011 47.356,22.479 45.544,22.478L45.544,23.572M44.998,27.942C44.998,28.244 45.242,28.488 45.544,28.488C45.846,28.488 46.09,28.244 46.09,27.942C46.09,27.64 45.846,27.396 45.544,27.396C45.242,27.396 44.998,27.64 44.998,27.942" style="fill:none;stroke:rgb(244,244,244);stroke-width:2px;"/>
                    </g>
                </g>
            </g>
            <g id="g-root-ic_48px_i09qi44s5e6d-stroke" transform="matrix(1,0,0,1,122,206)">
                <g id="ic_48px_i09qi44s5e6d-stroke">
                    <g>
                        <path d="M15.072,30.179C15.072,24.482 17.789,19.696 23.011,19.696C28.233,19.696 30.949,24.482 30.949,30.179L30.949,37.273C30.949,42.97 28.105,47.882 23.011,47.882C17.916,47.882 15.072,42.97 15.072,37.273L15.072,30.179ZM53.693,20.121L40.379,20.121L38.988,33.144C39.817,32.315 42.353,30.657 45.865,30.657C49.971,30.657 53.813,33.447 53.427,40.052C53.028,46.894 48.912,47.904 45.529,47.904C41.945,47.904 38.405,45.361 38.073,40.565" style="fill:none;stroke:rgb(244,244,244);stroke-width:2px;"/>
                    </g>
                </g>
            </g>
            <g id="g-root-ic_time_dj7a7g4s3zep-stroke" transform="matrix(1,0,0,1,446,206)">
                <g id="ic_time_dj7a7g4s3zep-stroke">
                    <g>
                        <path d="M56.5,51.43C56.5,54.191 54.261,56.43 51.5,56.43L16.5,56.43C13.739,56.43 11.5,54.191 11.5,51.43C11.5,48.669 13.739,46.43 16.5,46.43L51.5,46.43C54.261,46.43 56.5,48.669 56.5,51.43ZM18,38.144L23.314,38.144C24.419,38.144 25.314,39.039 25.314,40.144L25.314,46.43L16,46.43L16,40.144C16,39.039 16.895,38.144 18,38.144ZM31.47,38.144L36.784,38.144C37.889,38.144 38.784,39.039 38.784,40.144L38.784,46.43L29.47,46.43L29.47,40.144C29.47,39.039 30.365,38.144 31.47,38.144ZM44.94,38.144L50.254,38.144C51.359,38.144 52.254,39.039 52.254,40.144L52.254,46.43L42.94,46.43L42.94,40.144C42.94,39.039 43.835,38.144 44.94,38.144ZM18,51.43C18,51.982 18.448,52.43 19,52.43C19.552,52.43 20,51.982 20,51.43C20,50.878 19.552,50.43 19,50.43C18.448,50.43 18,50.878 18,51.43M28,51.43C28,51.982 28.448,52.43 29,52.43C29.552,52.43 30,51.982 30,51.43C30,50.878 29.552,50.43 29,50.43C28.448,50.43 28,50.878 28,51.43M38.084,51.43C38.084,51.982 38.532,52.43 39.084,52.43C39.636,52.43 40.084,51.982 40.084,51.43C40.084,50.878 39.636,50.43 39.084,50.43C38.532,50.43 38.084,50.878 38.084,51.43M48.084,51.43C48.084,51.982 48.532,52.43 49.084,52.43C49.636,52.43 50.084,51.982 50.084,51.43C50.084,50.878 49.636,50.43 49.084,50.43C48.532,50.43 48.084,50.878 48.084,51.43M34,33.184C39.965,33.184 44.8,28.349 44.8,22.384C44.8,16.419 39.965,11.584 34,11.584C28.035,11.584 23.2,16.419 23.2,22.384C23.2,28.349 28.035,33.184 34,33.184ZM38.776,22.376L34,22.376L34,17.6" style="fill:none;stroke:rgb(244,244,244);stroke-width:2px;"/>
                    </g>
                </g>
            </g>
            <g id="g-root-ic_48px_145hx0s4s5fk0-stroke" transform="matrix(1,0,0,1,98,302)">
                <g id="ic_48px_145hx0s4s5fk0-stroke">
                    <g>
                        <path d="M15.072,30.179C15.072,24.482 17.789,19.696 23.011,19.696C28.233,19.696 30.949,24.482 30.949,30.179L30.949,37.273C30.949,42.97 28.105,47.882 23.011,47.882C17.916,47.882 15.072,42.97 15.072,37.273L15.072,30.179ZM49.91,47.979L49.91,19.551L36.295,39.738L55.315,39.738" style="fill:none;stroke:rgb(244,244,244);stroke-width:2px;"/>
                    </g>
                </g>
            </g>
            <g id="g-root-ic_desk_v2zlnw4s86pt-stroke" transform="matrix(1,0,0,1,470,302)">
                <g id="ic_desk_v2zlnw4s86pt-stroke">
                    <g>
                        <path d="M55.228,40.32C55.091,40.727 54.71,41.002 54.28,41.002L13.72,41.002C13.29,41.002 12.909,40.727 12.772,40.32L11.438,36.32C11.336,36.015 11.387,35.679 11.575,35.417C11.763,35.156 12.066,35.001 12.388,35.002L55.612,35.002C55.934,35.001 56.237,35.156 56.425,35.417C56.613,35.679 56.664,36.015 56.562,36.32L55.228,40.32ZM16,41.002L13,57.002M52,41.002L55,57.002M31.758,12.76C34.107,10.45 37.879,10.465 40.209,12.795C42.538,15.125 42.553,18.898 40.242,21.246L31.758,12.76ZM40.472,13C43.526,13 46.001,15.476 46,18.53L46,31M29,29L19,29C17.343,29 16,30.343 16,32C16,33.657 17.343,35 19,35L29,35L29,29ZM31,23.002L29,23.002M31,29.002L29,29.002M29,23L19,23C17.343,23 16,24.343 16,26C16,27.657 17.343,29 19,29L29,29L29,23ZM50,35L42,35C42,32.791 43.791,31 46,31C48.209,31 50,32.791 50,35Z" style="fill:none;stroke:rgb(244,244,244);stroke-width:2px;"/>
                    </g>
                </g>
            </g>
            <g id="g-root-ic_cont_18jg31o4rssul-stroke" transform="matrix(1,0,0,1,542,590)">
                <g id="ic_cont_18jg31o4rssul-stroke">
                    <g>
                        <path d="M11.5,52.1C11.5,39.7 21.545,29.7 34,29.7C46.455,29.7 56.5,39.7 56.5,52.1M34,55.7C35.657,55.7 37,54.357 37,52.7C37,51.043 35.657,49.7 34,49.7C32.343,49.7 31,51.043 31,52.7C31,54.357 32.343,55.7 34,55.7ZM28.3,37.1L32.9,49.9M39.7,37.1L38.7,39.9M48.4,44.5L45.4,46.3M19.6,44.5L22.6,46.3M50.4,55.5L47.4,55.1M17.6,55.5L20.6,55.1M19.6,12.3L24.124,23.729M18,21.9L24,23.9L27.2,18.3" style="fill:none;stroke:rgb(244,244,244);stroke-width:2px;"/>
                    </g>
                </g>
            </g>
            <g id="g-root-ic_48px_4hy3cc4s9o96-stroke" transform="matrix(1,0,0,1,74,398)">
                <g id="ic_48px_4hy3cc4s9o96-stroke">
                    <g>
                        <path d="M15.072,30.179C15.072,24.482 17.789,19.695 23.011,19.695C28.233,19.695 30.949,24.482 30.949,30.179L30.949,37.273C30.949,42.969 28.105,47.882 23.011,47.882C17.916,47.882 15.072,42.969 15.072,37.273L15.072,30.179ZM37.121,27.068C37.002,24.659 38.483,19.71 45.065,19.71C51.648,19.71 52.656,24.597 52.428,27.357C52.177,30.4 50.272,33.508 42.201,33.508C49.714,33.508 53.126,35.562 53.126,41.125C53.126,45.933 48.876,47.89 44.992,47.89C42.201,47.866 36.62,46.287 36.62,40.162" style="fill:none;stroke:rgb(244,244,244);stroke-width:2px;"/>
                    </g>
                </g>
            </g>
            <g id="g-root-ic_lock_de7koc4s86wx-stroke" transform="matrix(1,0,0,1,494,398)">
                <g id="ic_lock_de7koc4s86wx-stroke">
                    <g>
                        <path d="M41,15L39,15C37.895,15 37,15.895 37,17L37,25.744L42,29.492C42.608,29.982 42.973,30.712 43,31.492L43,37M51,37L51,30L53,27L53,16C53,12.21 49.2,12.33 49.2,14.466L49.2,14.232C49.2,13.078 48.264,12.142 47.11,12.142C45.956,12.142 45.02,13.078 45.02,14.232L45.02,13.338C45.016,12.336 44.283,11.487 43.292,11.338C42.717,11.253 42.133,11.423 41.693,11.802C41.253,12.182 41,12.735 41,13.316L41,21M15,27L15,29C15,30.105 15.895,31 17,31L25.744,31L29.492,26C29.982,25.392 30.712,25.027 31.492,25L37,25M37,17L30,17L27,15L16,15C12.2,15 12.322,18.8 14.458,18.8L14.232,18.8C13.078,18.8 12.142,19.736 12.142,20.89C12.142,22.044 13.078,22.98 14.232,22.98L13.338,22.98C12.336,22.984 11.487,23.717 11.338,24.708C11.253,25.282 11.422,25.864 11.8,26.304C12.178,26.743 12.728,26.998 13.308,27L21,27M27,53L29,53C30.105,53 31,52.105 31,51L31,42.256L26,38.508C25.392,38.018 25.027,37.288 25,36.508L25,31M17,31L17,38L15,41L15,52C15,55.79 18.8,55.67 18.8,53.534L18.8,53.76C18.8,54.914 19.736,55.85 20.89,55.85C22.044,55.85 22.98,54.914 22.98,53.76L22.98,54.654C22.984,55.656 23.717,56.505 24.708,56.654C25.28,56.738 25.861,56.571 26.301,56.195C26.74,55.819 26.995,55.271 27,54.692L27,47M53,41L53,39C53,37.895 52.105,37 51,37L42.256,37L38.508,42C38.018,42.608 37.288,42.973 36.508,43L31,43M31,51L38,51L41,53L52,53C55.79,53 55.67,49.2 53.534,49.2L53.76,49.2C54.914,49.2 55.85,48.264 55.85,47.11C55.85,45.956 54.914,45.02 53.76,45.02L54.654,45.02C55.656,45.016 56.505,44.283 56.654,43.292C56.739,42.717 56.569,42.133 56.19,41.693C55.81,41.253 55.257,41 54.676,41L47,41" style="fill:none;stroke:rgb(244,244,244);stroke-width:2px;"/>
                    </g>
                </g>
            </g>
            <g id="g-root-ic_48px_1uljsz04rrdok-stroke" transform="matrix(1,0,0,1,50,494)">
                <g id="ic_48px_1uljsz04rrdok-stroke">
                    <g>
                        <path d="M15.072,30.179C15.072,24.482 17.789,19.695 23.011,19.695C28.233,19.695 30.949,24.482 30.949,30.179L30.949,37.273C30.949,42.969 28.105,47.882 23.011,47.882C17.916,47.882 15.072,42.969 15.072,37.273L15.072,30.179ZM36.832,27.515C36.832,22.895 40.056,19.695 44.438,19.695C51.707,19.695 54.186,26.789 49.421,33.098L37.33,47.417L53.951,47.417" style="fill:none;stroke:rgb(244,244,244);stroke-width:2px;"/>
                    </g>
                </g>
            </g>
            <g id="g-root-ic_netw_4mxz704rojyj-stroke" transform="matrix(1,0,0,1,518,494)">
                <g id="ic_netw_4mxz704rojyj-stroke">
                    <g>
                        <path d="M39.02,25L34.728,25C33.009,25.001 31.515,26.183 31.121,27.856C30.726,29.529 31.533,31.255 33.07,32.024L36.97,33.976C38.507,34.745 39.314,36.471 38.919,38.144C38.525,39.817 37.031,40.999 35.312,41L31.02,41M35.02,25L35.02,22M35.02,44L35.02,41M44,24.04L50.216,17.868M49,15C49,17.209 50.791,19 53,19C55.209,19 57,17.209 57,15C57,12.791 55.209,11 53,11C50.791,11 49,12.791 49,15ZM45.924,45.958L50.154,50.214M49.02,53C49.02,55.209 50.811,57 53.02,57C55.229,57 57.02,55.209 57.02,53C57.02,50.791 55.229,49 53.02,49C50.811,49 49.02,50.791 49.02,53ZM24,24.04L17.786,17.868M11,15C11,17.209 12.791,19 15,19C17.209,19 19,17.209 19,15C19,12.791 17.209,11 15,11C12.791,11 11,12.791 11,15ZM22.078,45.958L17.846,50.214M10.98,53C10.98,55.209 12.771,57 14.98,57C17.189,57 18.98,55.209 18.98,53C18.98,50.791 17.189,49 14.98,49C12.771,49 10.98,50.791 10.98,53ZM43,33L49,33M49,33C49,35.209 50.791,37 53,37C55.209,37 57,35.209 57,33C57,30.791 55.209,29 53,29C50.791,29 49,30.791 49,33ZM25,33L19,33M11,33C11,35.209 12.791,37 15,37C17.209,37 19,35.209 19,33C19,30.791 17.209,29 15,29C12.791,29 11,30.791 11,33Z" style="fill:none;stroke:rgb(244,244,244);stroke-width:2px;"/>
                    </g>
                </g>
            </g>
            <g id="g-root-ic_48px_1qbz1po4ru61a-stroke" transform="matrix(1,0,0,1,26,590)">
                <g id="ic_48px_1qbz1po4ru61a-stroke">
                    <g>
                        <path d="M37.842,23.377L46.297,20.184L46.297,47.951M15.072,30.179C15.072,24.482 17.789,19.695 23.011,19.695C28.233,19.695 30.949,24.482 30.949,30.179L30.949,37.273C30.949,42.969 28.105,47.882 23.011,47.882C17.916,47.882 15.072,42.969 15.072,37.273L15.072,30.179Z" style="fill:none;stroke:rgb(244,244,244);stroke-width:2px;"/>
                    </g>
                </g>
            </g>
        </g>
    </g>
    <defs>
        <linearGradient id="_Linear1" x1="0" y1="0" x2="1" y2="0" gradientUnits="userSpaceOnUse" gradientTransform="matrix(10,586,-586,10,0,0)"><stop offset="0" style="stop-color:rgb(149,149,149);stop-opacity:1"/><stop offset="1" style="stop-color:rgb(127,127,127);stop-opacity:1"/></linearGradient>
        <linearGradient id="_Linear2" x1="0" y1="0" x2="1" y2="0" gradientUnits="userSpaceOnUse" gradientTransform="matrix(10,586,-586,10,0,0)"><stop offset="0" style="stop-color:rgb(149,149,149);stop-opacity:1"/><stop offset="1" style="stop-color:rgb(127,127,127);stop-opacity:1"/></linearGradient>
        <linearGradient id="_Linear3" x1="0" y1="0" x2="1" y2="0" gradientUnits="userSpaceOnUse" gradientTransform="matrix(10,106,-106,10,-1.77636e-15,0)"><stop offset="0" style="stop-color:rgb(78,136,230);stop-opacity:1"/><stop offset="1" style="stop-color:rgb(79,126,202);stop-opacity:1"/></linearGradient>
        <linearGradient id="_Linear4" x1="0" y1="0" x2="1" y2="0" gradientUnits="userSpaceOnUse" gradientTransform="matrix(10,106,-106,10,-1.77636e-15,0)"><stop offset="0" style="stop-color:rgb(59,196,130);stop-opacity:1"/><stop offset="1" style="stop-color:rgb(68,152,112);stop-opacity:1"/></linearGradient>
        <linearGradient id="_Linear5" x1="0" y1="0" x2="1" y2="0" gradientUnits="userSpaceOnUse" gradientTransform="matrix(10,106,-106,10,0,0)"><stop offset="0" style="stop-color:rgb(145,187,57);stop-opacity:1"/><stop offset="1" style="stop-color:rgb(125,152,68);stop-opacity:1"/></linearGradient>
        <linearGradient id="_Linear6" x1="0" y1="0" x2="1" y2="0" gradientUnits="userSpaceOnUse" gradientTransform="matrix(10,106,-106,10,0,0)"><stop offset="0" style="stop-color:rgb(31,169,215);stop-opacity:1"/><stop offset="1" style="stop-color:rgb(49,135,163);stop-opacity:1"/></linearGradient>
        <linearGradient id="_Linear7" x1="0" y1="0" x2="1" y2="0" gradientUnits="userSpaceOnUse" gradientTransform="matrix(10,106,-106,10,0,0)"><stop offset="0" style="stop-color:rgb(221,201,22);stop-opacity:1"/><stop offset="1" style="stop-color:rgb(169,156,44);stop-opacity:1"/></linearGradient>
        <linearGradient id="_Linear8" x1="0" y1="0" x2="1" y2="0" gradientUnits="userSpaceOnUse" gradientTransform="matrix(10,106,-106,10,0,0)"><stop offset="0" style="stop-color:rgb(220,131,49);stop-opacity:1"/><stop offset="1" style="stop-color:rgb(176,114,57);stop-opacity:1"/></linearGradient>
    </defs>
</svg>
