<?xml version="1.0" encoding="UTF-8" standalone="no"?>
<!DOCTYPE svg PUBLIC "-//W3C//DTD SVG 1.1//EN" "http://www.w3.org/Graphics/SVG/1.1/DTD/svg11.dtd">
<svg width="100%" height="100%" viewBox="0 0 588 586" version="1.1" xmlns="http://www.w3.org/2000/svg" xmlns:xlink="http://www.w3.org/1999/xlink" xml:space="preserve" xmlns:serif="http://www.serif.com/" style="fill-rule:evenodd;clip-rule:evenodd;stroke-linecap:round;stroke-linejoin:round;">
    <g id="items" transform="matrix(1.06346,0,0,1.06346,-18.6586,-35.801)">
        <g id="blend">
            <g id="g-root-sy_-1_cu_mcybly1mvsmxb-fill" transform="matrix(1,0,0,1,14,62)">
                <g id="sy_-1_cu_mcybly1mvsmxb-fill">
                    <g>
                        <path d="M10,490L10,418L82.5,418L82.5,490L10,490ZM34,394L10,418L82.5,418L106,394L34,394ZM34,394L34,322L106,322L106,394L34,394ZM58,298L34,322L106,322L130,298L58,298ZM58,298L58,226L130,226L130,298L58,298ZM82,202L58,226L130,226L154,202L82,202ZM82,202L82,130L154,130L154,202L82,202ZM106,106L82,130L154,130L178,106L106,106ZM106,106L106,34L178,34L178,106L106,106ZM130,10L106,34L178,34L202,10L130,10Z" style="fill:url(#_Linear1);"/>
                    </g>
                </g>
            </g>
            <g id="g-root-sy_-1_cu_1_1qbybt21mvsnig-fill" transform="matrix(1,0,0,1,362,62)">
                <g id="sy_-1_cu_1_1qbybt21mvsnig-fill">
                    <g>
                        <path d="M202,490L202,418L130.5,418L130.5,490L202,490ZM202,418L178,394L106,394L130.5,418L202,418ZM178,322L178,394L106,394L106,322L178,322ZM178,322L154,298L82,298L106,322L178,322ZM154,226L154,298L82,298L82,226L154,226ZM154,226L130,202L58,202L82,226L154,226ZM130,130L130,202L58,202L58,130L130,130ZM130,130L106,106L34,106L58,130L130,130ZM106,34L106,106L34,106L34,34L106,34ZM106,34L82,10L10,10L34,34L106,34Z" style="fill:url(#_Linear2);"/>
                    </g>
                </g>
            </g>
            <g id="g-root-sy_1_cu_18lasee1mvsmpt-fill" transform="matrix(1,0,0,1,86.4998,446)">
                <g id="sy_1_cu_18lasee1mvsmpt-fill">
                    <g>
                        <path d="M10,106L10,34L406,34L406,106L10,106ZM381.5,10L406,34L10,34L33.5,10L381.5,10Z" style="fill:url(#_Linear3);"/>
                    </g>
                </g>
            </g>
            <g id="g-root-sy_2_cu_vagr461mvsl4y-fill" transform="matrix(1,0,0,1,110,350)">
                <g id="sy_2_cu_vagr461mvsl4y-fill">
                    <g>
                        <path d="M10,106L10,34L358,34L358,106L10,106ZM334,10L358,34L10,34L34,10L334,10Z" style="fill:url(#_Linear4);"/>
                    </g>
                </g>
            </g>
            <g id="g-root-sy_3_cu_93d8hy1mvsnij-fill" transform="matrix(1,0,0,1,134,254)">
                <g id="sy_3_cu_93d8hy1mvsnij-fill">
                    <g>
                        <path d="M10,34L10,106L310,106L310,34L10,34ZM286,10L310,34L10,34L34,10L286,10Z" style="fill:url(#_Linear5);"/>
                    </g>
                </g>
            </g>
            <g id="g-root-sy_4_cu_1utn96u1mvslqk-fill" transform="matrix(1,0,0,1,158,158)">
                <g id="sy_4_cu_1utn96u1mvslqk-fill">
                    <g>
                        <path d="M10,106L10,34L262,34L262,106L10,106ZM238,10L262,34L10,34L34,10L238,10Z" style="fill:url(#_Linear6);"/>
                    </g>
                </g>
            </g>
            <g id="g-root-sy_5_cu_1hi6qti1mvsnbh-fill" transform="matrix(1,0,0,1,182,62)">
                <g id="sy_5_cu_1hi6qti1mvsnbh-fill">
                    <g>
                        <path d="M10,106L10,34L214,34L214,106L10,106ZM190,10L214,34L10,34L34,10L190,10Z" style="fill:url(#_Linear7);"/>
                    </g>
                </g>
            </g>
            <g transform="matrix(1,0,0,1,216.48,240)">
                <g id="g-root-tx_monitors_140hhl21mvu1he-fill">
                    <g id="tx_monitors_140hhl21mvu1he-fill">
                        <g>
                            <g>
                                <text x="0px" y="0px" style="font-family:'ArialMT', 'Arial', sans-serif;font-size:20px;fill:rgb(244,244,244);">Monitor Sessions</text>
                            </g>
                        </g>
                    </g>
                </g>
            </g>
            <g id="g-root-tx_generate_3cwna1mvtzwj-fill" transform="matrix(1,0,0,1,194,98)">
                <g id="tx_generate_3cwna1mvtzwj-fill">
                    <g>
                        <g>
                            <g transform="matrix(1,0,0,1,12.92,34)">
                                <text x="0px" y="0px" style="font-family:'ArialMT', 'Arial', sans-serif;font-size:20px;fill:rgb(244,244,244);">Generate Reports &amp;</text>
                            </g>
                            <g transform="matrix(1,0,0,1,85.55,58)">
                                <text x="0px" y="0px" style="font-family:'ArialMT', 'Arial', sans-serif;font-size:20px;fill:rgb(244,244,244);">Bill</text>
                            </g>
                        </g>
                    </g>
                </g>
            </g>
            <g transform="matrix(1,0,0,1,212.26,432)">
                <g id="g-root-tx_usermana_13ym2bq1mvu2h4-fill">
                    <g id="tx_usermana_13ym2bq1mvu2h4-fill">
                        <g>
                            <g>
                                <text x="0px" y="0px" style="font-family:'ArialMT', 'Arial', sans-serif;font-size:20px;fill:rgb(244,244,244);">User Management</text>
                            </g>
                        </g>
                    </g>
                </g>
            </g>
            <g transform="matrix(1,0,0,1,209.28,528)">
                <g id="g-root-tx_tenanton_9lnie1mvsnbj-fill">
                    <g id="tx_tenanton_9lnie1mvsnbj-fill">
                        <g>
                            <g>
                                <text x="0px" y="0px" style="font-family:'ArialMT', 'Arial', sans-serif;font-size:20px;fill:rgb(244,244,244);">T<tspan x="10px 21.123px " y="0px 0px ">en</tspan>ant Onboarding</text>
                            </g>
                        </g>
                    </g>
                </g>
            </g>
            <g transform="matrix(1,0,0,1,176.85,336)">
                <g id="g-root-tx_schedule_1hhdy1mvu0w9-fill">
                    <g id="tx_schedule_1hhdy1mvu0w9-fill">
                        <g>
                            <g>
                                <text x="0px" y="0px" style="font-family:'ArialMT', 'Arial', sans-serif;font-size:20px;fill:rgb(244,244,244);">Schedule &amp; Host Meetings</text>
                            </g>
                        </g>
                    </g>
                </g>
            </g>
            <g id="g-root-sy_-1_cu_mcybly1mvsmxb-stroke" transform="matrix(1,0,0,1,14,62)">
                <g id="sy_-1_cu_mcybly1mvsmxb-stroke">
                    <g>
                        <path d="M10,490L10,418L82.5,418L82.5,490L10,490ZM10,418L34,394L106,394L82.5,418L10,418ZM34,394L34,322L106,322L106,394L34,394ZM34,322L58,298L130,298L106,322L34,322ZM58,298L58,226L130,226L130,298L58,298ZM58,226L82,202L154,202L130,226L58,226ZM82,202L82,130L154,130L154,202L82,202ZM82,130L106,106L178,106L154,130L82,130ZM106,106L106,34L178,34L178,106L106,106ZM106,34L130,10L202,10L178,34L106,34Z" style="fill:none;stroke:rgb(244,244,244);stroke-width:2px;"/>
                    </g>
                </g>
            </g>
            <g id="g-root-sy_-1_cu_1_1qbybt21mvsnig-stroke" transform="matrix(1,0,0,1,362,62)">
                <g id="sy_-1_cu_1_1qbybt21mvsnig-stroke">
                    <g>
                        <path d="M202,418L202,490L130.5,490L130.5,418L202,418ZM202,418L178,394L106,394L130.5,418L202,418ZM178,322L178,394L106,394L106,322L178,322ZM178,322L154,298L82,298L106,322L178,322ZM154,226L154,298L82,298L82,226L154,226ZM154,226L130,202L58,202L82,226L154,226ZM130,130L130,202L58,202L58,130L130,130ZM130,130L106,106L34,106L58,130L130,130ZM106,106L106,34L34,34L34,106L106,106ZM106,34L82,10L10,10L34,34L106,34Z" style="fill:none;stroke:rgb(244,244,244);stroke-width:2px;"/>
                    </g>
                </g>
            </g>
            <g id="g-root-sy_1_cu_18lasee1mvsmpt-stroke" transform="matrix(1,0,0,1,86.4998,446)">
                <g id="sy_1_cu_18lasee1mvsmpt-stroke">
                    <g>
                        <path d="M10,34L10,106L406,106L406,34L10,34ZM406,34L381.5,10L33.5,10L10,34L406,34Z" style="fill:none;stroke:rgb(244,244,244);stroke-width:2px;"/>
                    </g>
                </g>
            </g>
            <g id="g-root-sy_2_cu_vagr461mvsl4y-stroke" transform="matrix(1,0,0,1,110,350)">
                <g id="sy_2_cu_vagr461mvsl4y-stroke">
                    <g>
                        <path d="M10,34L10,106L358,106L358,34L10,34ZM358,34L334,10L34,10L10,34L358,34Z" style="fill:none;stroke:rgb(244,244,244);stroke-width:2px;"/>
                    </g>
                </g>
            </g>
            <g id="g-root-sy_3_cu_93d8hy1mvsnij-stroke" transform="matrix(1,0,0,1,134,254)">
                <g id="sy_3_cu_93d8hy1mvsnij-stroke">
                    <g>
                        <path d="M10,106L10,34L310,34L310,106L10,106ZM310,34L286,10L34,10L10,34L310,34Z" style="fill:none;stroke:rgb(244,244,244);stroke-width:2px;"/>
                    </g>
                </g>
            </g>
            <g id="g-root-sy_4_cu_1utn96u1mvslqk-stroke" transform="matrix(1,0,0,1,158,158)">
                <g id="sy_4_cu_1utn96u1mvslqk-stroke">
                    <g>
                        <path d="M10,34L10,106L262,106L262,34L10,34ZM262,34L238,10L34,10L10,34L262,34Z" style="fill:none;stroke:rgb(244,244,244);stroke-width:2px;"/>
                    </g>
                </g>
            </g>
            <g id="g-root-sy_5_cu_1hi6qti1mvsnbh-stroke" transform="matrix(1,0,0,1,182,62)">
                <g id="sy_5_cu_1hi6qti1mvsnbh-stroke">
                    <g>
                        <path d="M10,34L10,106L214,106L214,34L10,34ZM214,34L190,10L34,10L10,34L214,34Z" style="fill:none;stroke:rgb(244,244,244);stroke-width:2px;"/>
                    </g>
                </g>
            </g>
            <g id="g-root-ic_bill_mb2wcm1mvu230-stroke" transform="matrix(1,0,0,1,398,98)">
                <g id="ic_bill_mb2wcm1mvu230-stroke">
                    <g>
                        <path d="M11.008,31C11.008,32.105 15.485,33 21.008,33C26.531,33 31.008,32.105 31.008,31C31.008,29.895 26.531,29 21.008,29C15.485,29 11.008,29.895 11.008,31ZM31,31L31,37C31,38.106 26.524,39 21,39C15.476,39 11,38.106 11,37L11,31M31,37L31,43C31,44.106 26.524,45 21,45C15.476,45 11,44.106 11,43L11,37M31,43L31,49C31,50.106 26.524,51 21,51C15.476,51 11,50.106 11,49L11,43M31,49L31,55C31,56.106 26.524,57 21,57C15.476,57 11,56.106 11,55L11,49M11,25L11,13C11,11.895 11.895,11 13,11L55,11C56.105,11 57,11.895 57,13L57,37C57,38.105 56.105,39 55,39L36,39M28,25C28.001,21.949 30.291,19.384 33.323,19.04C36.354,18.695 39.162,20.681 39.847,23.654C40.532,26.627 38.877,29.641 36,30.658M20,19.5C20.276,19.5 20.5,19.724 20.5,20C20.5,20.276 20.276,20.5 20,20.5C19.724,20.5 19.5,20.276 19.5,20C19.5,19.724 19.724,19.5 20,19.5M48,29.5C48.276,29.5 48.5,29.724 48.5,30C48.5,30.276 48.276,30.5 48,30.5C47.724,30.5 47.5,30.276 47.5,30C47.5,29.724 47.724,29.5 48,29.5M15,25L15,16C15,15.448 15.448,15 16,15L52,15C52.552,15 53,15.448 53,16L53,34C53,34.552 52.552,35 52,35L36,35" style="fill:none;stroke:rgb(244,244,244);stroke-width:2px;"/>
                    </g>
                </g>
            </g>
            <g id="g-root-ic_48px_18n6ati1mvheki-stroke" transform="matrix(1,0,0,1,98,194)">
                <g id="ic_48px_18n6ati1mvheki-stroke">
                    <g>
                        <path d="M15.072,30.179C15.072,24.482 17.789,19.696 23.011,19.696C28.233,19.696 30.949,24.482 30.949,30.179L30.949,37.273C30.949,42.97 28.105,47.882 23.011,47.882C17.916,47.882 15.072,42.97 15.072,37.273L15.072,30.179ZM49.91,47.979L49.91,19.551L36.295,39.738L55.315,39.738" style="fill:none;stroke:rgb(244,244,244);stroke-width:2px;"/>
                    </g>
                </g>
            </g>
            <g id="g-root-ic_vide_1cz8v9i1mvveh4-stroke" transform="matrix(1,0,0,1,422,194)">
                <g id="ic_vide_1cz8v9i1mvveh4-stroke">
                    <g>
                        <path d="M53.954,22.857L44.286,27.143L44.286,22C44.286,20.106 42.751,18.571 40.857,18.571L15.143,18.571C13.249,18.571 11.714,20.106 11.714,22L11.714,46C11.714,47.894 13.249,49.429 15.143,49.429L40.857,49.429C42.751,49.429 44.286,47.894 44.286,46L44.286,40.857L53.954,45.143C54.484,45.347 55.08,45.276 55.546,44.954C56.013,44.631 56.29,44.099 56.286,43.531L56.286,24.469C56.29,23.901 56.013,23.369 55.546,23.046C55.08,22.724 54.484,22.653 53.954,22.857Z" style="fill:none;stroke:rgb(244,244,244);stroke-width:2px;"/>
                    </g>
                </g>
            </g>
            <g id="g-root-ic_48px_i09a2u1mvk8hw-stroke" transform="matrix(1,0,0,1,74,290)">
                <g id="ic_48px_i09a2u1mvk8hw-stroke">
                    <g>
                        <path d="M15.072,30.179C15.072,24.482 17.789,19.695 23.011,19.695C28.233,19.695 30.949,24.482 30.949,30.179L30.949,37.273C30.949,42.969 28.105,47.882 23.011,47.882C17.916,47.882 15.072,42.969 15.072,37.273L15.072,30.179ZM37.121,27.068C37.002,24.659 38.483,19.71 45.065,19.71C51.648,19.71 52.656,24.597 52.428,27.357C52.177,30.4 50.272,33.508 42.201,33.508C49.714,33.508 53.126,35.562 53.126,41.125C53.126,45.933 48.876,47.89 44.992,47.89C42.201,47.866 36.62,46.287 36.62,40.162" style="fill:none;stroke:rgb(244,244,244);stroke-width:2px;"/>
                    </g>
                </g>
            </g>
            <g id="g-root-ic_1_13zv3nq1mvof0n-stroke" transform="matrix(1,0,0,1,494,482)">
                <g id="ic_1_13zv3nq1mvof0n-stroke">
                    <g>
                        <path d="M56.286,44.818C56.286,46.959 54.551,48.694 52.411,48.694M11.714,22.217L11.714,26.964M11.714,33.742L11.714,38.489M56.286,22.217L56.286,26.964M56.286,33.742L56.286,38.489M24.795,55.802C24.527,55.802 24.31,55.585 24.31,55.317C24.31,55.05 24.527,54.833 24.795,54.833M24.795,55.802C25.062,55.802 25.279,55.585 25.279,55.317C25.279,55.05 25.062,54.833 24.795,54.833M31.607,55.317L42.236,55.317M15.589,48.694C13.449,48.694 11.714,46.959 11.714,44.818M15.589,12.198C13.449,12.198 11.714,13.934 11.714,16.074M52.411,12.198C54.551,12.198 56.286,13.934 56.286,16.074M22.644,12.198L25.813,12.198M45.432,12.198L42.263,12.198M32.453,12.198L35.622,12.198M22.644,48.694L25.813,48.694M45.432,48.694L42.263,48.694M32.453,48.694L35.622,48.694M27.702,28.856L21.366,32.024L21.366,39.717L27.702,42.885L34.038,39.717L40.374,42.885L46.709,39.717L46.709,32.024L40.374,28.856M40.374,28.868L40.374,21.175L34.038,18.007L27.702,21.175L27.702,28.868M27.702,28.856L34.038,32.024L40.374,28.856M21.522,32.102L27.702,35.192L34.038,32.024L40.374,35.192L46.555,32.101M40.217,21.252L34.037,24.343L27.856,21.252M27.702,35.192L27.702,42.67M34.038,24.346L34.038,39.72M40.374,35.188L40.374,42.67" style="fill:none;stroke:rgb(244,244,244);stroke-width:2px;"/>
                    </g>
                </g>
            </g>
            <g id="g-root-ic_1_18lavk61mvisy3-stroke" transform="matrix(1,0,0,1,446,290)">
                <g id="ic_1_18lavk61mvisy3-stroke">
                    <g>
                        <path d="M19.25,24C19.25,24.414 19.586,24.75 20,24.75C20.414,24.75 20.75,24.414 20.75,24C20.75,23.586 20.414,23.25 20,23.25C19.586,23.25 19.25,23.586 19.25,24M27.25,24C27.25,24.414 27.586,24.75 28,24.75C28.414,24.75 28.75,24.414 28.75,24C28.75,23.586 28.414,23.25 28,23.25C27.586,23.25 27.25,23.586 27.25,24M19.25,31C19.25,31.414 19.586,31.75 20,31.75C20.414,31.75 20.75,31.414 20.75,31C20.75,30.586 20.414,30.25 20,30.25C19.586,30.25 19.25,30.586 19.25,31M19.25,38C19.25,38.414 19.586,38.75 20,38.75C20.414,38.75 20.75,38.414 20.75,38C20.75,37.586 20.414,37.25 20,37.25C19.586,37.25 19.25,37.586 19.25,38M27.25,31C27.25,31.414 27.586,31.75 28,31.75C28.414,31.75 28.75,31.414 28.75,31C28.75,30.586 28.414,30.25 28,30.25C27.586,30.25 27.25,30.586 27.25,31M35.25,24C35.25,24.414 35.586,24.75 36,24.75C36.414,24.75 36.75,24.414 36.75,24C36.75,23.586 36.414,23.25 36,23.25C35.586,23.25 35.25,23.586 35.25,24M26.5,44.5L14.5,44.5C12.843,44.5 11.5,43.157 11.5,41.5L11.5,17.5C11.5,15.843 12.843,14.5 14.5,14.5L41.5,14.5C43.157,14.5 44.5,15.843 44.5,17.5L44.5,26.5M20.5,17.5L20.5,11.5M35.5,17.5L35.5,11.5M32.5,44.5C32.5,51.127 37.873,56.5 44.5,56.5C51.127,56.5 56.5,51.127 56.5,44.5C56.5,37.873 51.127,32.5 44.5,32.5C37.873,32.5 32.5,37.873 32.5,44.5M49.804,44.5L44.5,44.5L44.5,39.198" style="fill:none;stroke:rgb(244,244,244);stroke-width:2px;"/>
                    </g>
                </g>
            </g>
            <g id="g-root-ic_48px_1qf2p8m1mvu22u-stroke" transform="matrix(1,0,0,1,122,98)">
                <g id="ic_48px_1qf2p8m1mvu22u-stroke">
                    <g>
                        <path d="M15.072,30.179C15.072,24.482 17.789,19.696 23.011,19.696C28.233,19.696 30.949,24.482 30.949,30.179L30.949,37.273C30.949,42.97 28.105,47.882 23.011,47.882C17.916,47.882 15.072,42.97 15.072,37.273L15.072,30.179ZM53.693,20.121L40.379,20.121L38.988,33.144C39.817,32.315 42.353,30.657 45.865,30.657C49.971,30.657 53.813,33.447 53.427,40.052C53.028,46.894 48.912,47.904 45.529,47.904C41.945,47.904 38.405,45.361 38.073,40.565" style="fill:none;stroke:rgb(244,244,244);stroke-width:2px;"/>
                    </g>
                </g>
            </g>
            <g id="g-root-ic_48px_zlx0sm1mvn0ni-stroke" transform="matrix(1,0,0,1,50,386)">
                <g id="ic_48px_zlx0sm1mvn0ni-stroke">
                    <g>
                        <path d="M15.072,30.179C15.072,24.482 17.789,19.695 23.011,19.695C28.233,19.695 30.949,24.482 30.949,30.179L30.949,37.273C30.949,42.969 28.105,47.882 23.011,47.882C17.916,47.882 15.072,42.969 15.072,37.273L15.072,30.179ZM36.832,27.515C36.832,22.895 40.056,19.695 44.438,19.695C51.707,19.695 54.186,26.789 49.421,33.098L37.33,47.417L53.951,47.417" style="fill:none;stroke:rgb(244,244,244);stroke-width:2px;"/>
                    </g>
                </g>
            </g>
            <g id="g-root-ic_mone_qs5ft21mvln2l-stroke" transform="matrix(1,0,0,1,470,386)">
                <g id="ic_mone_qs5ft21mvln2l-stroke">
                    <g>
                        <path d="M37,47C37,52.523 41.477,57 47,57C52.523,57 57,52.523 57,47C57,41.477 52.523,37 47,37C41.477,37 37,41.477 37,47ZM47,51L47,53M47,41L47,43M43,51L49,51C50.105,51 51,50.105 51,49C51,47.895 50.105,47 49,47L45,47C43.895,47 43,46.105 43,45C43,43.895 43.895,43 45,43L51,43M11,41C11,34.373 16.373,29 23,29C29.627,29 35,34.373 35,41L11,41ZM15.5,18.5C15.5,22.642 18.858,26 23,26C27.142,26 30.5,22.642 30.5,18.5C30.5,14.358 27.142,11 23,11C18.858,11 15.5,14.358 15.5,18.5ZM34.5,18.5C34.5,22.642 37.858,26 42,26C46.142,26 49.5,22.642 49.5,18.5C49.5,14.358 46.142,11 42,11C37.858,11 34.5,14.358 34.5,18.5ZM48.94,31.21C45.116,28.496 40.062,28.258 36,30.6" style="fill:none;stroke:rgb(244,244,244);stroke-width:2px;"/>
                    </g>
                </g>
            </g>
            <g id="g-root-ic_48px_mcbxom1mvps08-stroke" transform="matrix(1,0,0,1,26,482)">
                <g id="ic_48px_mcbxom1mvps08-stroke">
                    <g>
                        <path d="M37.842,23.377L46.297,20.184L46.297,47.951M15.072,30.179C15.072,24.482 17.789,19.695 23.011,19.695C28.233,19.695 30.949,24.482 30.949,30.179L30.949,37.273C30.949,42.969 28.105,47.882 23.011,47.882C17.916,47.882 15.072,42.969 15.072,37.273L15.072,30.179Z" style="fill:none;stroke:rgb(244,244,244);stroke-width:2px;"/>
                    </g>
                </g>
            </g>
        </g>
    </g>
    <defs>
        <linearGradient id="_Linear1" x1="0" y1="0" x2="1" y2="0" gradientUnits="userSpaceOnUse" gradientTransform="matrix(10,490,-490,10,0,0)"><stop offset="0" style="stop-color:rgb(149,149,149);stop-opacity:1"/><stop offset="1" style="stop-color:rgb(127,127,127);stop-opacity:1"/></linearGradient>
        <linearGradient id="_Linear2" x1="0" y1="0" x2="1" y2="0" gradientUnits="userSpaceOnUse" gradientTransform="matrix(10,490,-490,10,0,0)"><stop offset="0" style="stop-color:rgb(149,149,149);stop-opacity:1"/><stop offset="1" style="stop-color:rgb(127,127,127);stop-opacity:1"/></linearGradient>
        <linearGradient id="_Linear3" x1="0" y1="0" x2="1" y2="0" gradientUnits="userSpaceOnUse" gradientTransform="matrix(10,106,-106,10,-1.77636e-15,0)"><stop offset="0" style="stop-color:rgb(59,196,130);stop-opacity:1"/><stop offset="1" style="stop-color:rgb(68,152,112);stop-opacity:1"/></linearGradient>
        <linearGradient id="_Linear4" x1="0" y1="0" x2="1" y2="0" gradientUnits="userSpaceOnUse" gradientTransform="matrix(10,106,-106,10,0,0)"><stop offset="0" style="stop-color:rgb(78,136,230);stop-opacity:1"/><stop offset="1" style="stop-color:rgb(79,126,202);stop-opacity:1"/></linearGradient>
        <linearGradient id="_Linear5" x1="0" y1="0" x2="1" y2="0" gradientUnits="userSpaceOnUse" gradientTransform="matrix(10,106,-106,10,0,0)"><stop offset="0" style="stop-color:rgb(31,169,215);stop-opacity:1"/><stop offset="1" style="stop-color:rgb(49,135,163);stop-opacity:1"/></linearGradient>
        <linearGradient id="_Linear6" x1="0" y1="0" x2="1" y2="0" gradientUnits="userSpaceOnUse" gradientTransform="matrix(10,106,-106,10,0,0)"><stop offset="0" style="stop-color:rgb(185,92,227);stop-opacity:1"/><stop offset="1" style="stop-color:rgb(163,84,199);stop-opacity:1"/></linearGradient>
        <linearGradient id="_Linear7" x1="0" y1="0" x2="1" y2="0" gradientUnits="userSpaceOnUse" gradientTransform="matrix(10,106,-106,10,0,0)"><stop offset="0" style="stop-color:rgb(145,187,57);stop-opacity:1"/><stop offset="1" style="stop-color:rgb(125,152,68);stop-opacity:1"/></linearGradient>
    </defs>
</svg>
