<?xml version="1.0" encoding="UTF-8" standalone="no"?>
<!DOCTYPE svg PUBLIC "-//W3C//DTD SVG 1.1//EN" "http://www.w3.org/Graphics/SVG/1.1/DTD/svg11.dtd">
<svg width="100%" height="100%" viewBox="0 0 588 586" version="1.1" xmlns="http://www.w3.org/2000/svg" xmlns:xlink="http://www.w3.org/1999/xlink" xml:space="preserve" xmlns:serif="http://www.serif.com/" style="fill-rule:evenodd;clip-rule:evenodd;stroke-linecap:round;stroke-linejoin:round;">
    <g id="items" transform="matrix(1.05808,0,0,1.05808,-17.0744,-33.1198)">
        <g id="blend">
            <g id="g-root-sy_-1_cu_hss7as1ojm0ar-fill" transform="matrix(1,0,0,1,14,62)">
                <g id="sy_-1_cu_hss7as1ojm0ar-fill">
                    <g>
                        <path d="M10,490L10,418L82.5,418L82.5,490L10,490ZM34,394L10,418L82.5,418L106,394L34,394ZM34,394L34,322L106,322L106,394L34,394ZM58,298L34,322L106,322L130,298L58,298ZM58,298L58,226L130,226L130,298L58,298ZM82,202L58,226L130,226L154,202L82,202ZM82,202L82,130L154,130L154,202L82,202ZM106,106L82,130L154,130L178,106L106,106ZM106,106L106,34L178,34L178,106L106,106ZM130,10L106,34L178,34L202,10L130,10Z" style="fill:url(#_Linear1);"/>
                    </g>
                </g>
            </g>
            <g id="g-root-sy_-1_cu_1_1unf7qs1ojlzbg-fill" transform="matrix(1,0,0,1,362,62)">
                <g id="sy_-1_cu_1_1unf7qs1ojlzbg-fill">
                    <g>
                        <path d="M202,490L202,418L130.5,418L130.5,490L202,490ZM202,418L178,394L106,394L130.5,418L202,418ZM178,322L178,394L106,394L106,322L178,322ZM178,322L154,298L82,298L106,322L178,322ZM154,226L154,298L82,298L82,226L154,226ZM154,226L130,202L58,202L82,226L154,226ZM130,130L130,202L58,202L58,130L130,130ZM130,130L106,106L34,106L58,130L130,130ZM106,34L106,106L34,106L34,34L106,34ZM106,34L82,10L10,10L34,34L106,34Z" style="fill:url(#_Linear2);"/>
                    </g>
                </g>
            </g>
            <g id="g-root-sy_1_cu_1414o381ojlzbh-fill" transform="matrix(1,0,0,1,86.4998,446)">
                <g id="sy_1_cu_1414o381ojlzbh-fill">
                    <g>
                        <path d="M10,106L10,34L406,34L406,106L10,106ZM381.5,10L406,34L10,34L33.5,10L381.5,10Z" style="fill:url(#_Linear3);"/>
                    </g>
                </g>
            </g>
            <g id="g-root-sy_2_cu_qqamt01ojlxqm-fill" transform="matrix(1,0,0,1,110,350)">
                <g id="sy_2_cu_qqamt01ojlxqm-fill">
                    <g>
                        <path d="M10,106L10,34L358,34L358,106L10,106ZM334,10L358,34L10,34L34,10L334,10Z" style="fill:url(#_Linear4);"/>
                    </g>
                </g>
            </g>
            <g id="g-root-sy_3_cu_deu4fo1ojlzbj-fill" transform="matrix(1,0,0,1,134,254)">
                <g id="sy_3_cu_deu4fo1ojlzbj-fill">
                    <g>
                        <path d="M10,34L10,106L310,106L310,34L10,34ZM286,10L310,34L10,34L34,10L286,10Z" style="fill:url(#_Linear5);"/>
                    </g>
                </g>
            </g>
            <g id="g-root-sy_4_cu_1upan041ojlybs-fill" transform="matrix(1,0,0,1,158,158)">
                <g id="sy_4_cu_1upan041ojlybs-fill">
                    <g>
                        <path d="M10,106L10,34L262,34L262,106L10,106ZM238,10L262,34L10,34L34,10L238,10Z" style="fill:url(#_Linear6);"/>
                    </g>
                </g>
            </g>
            <g id="g-root-sy_5_cu_1hdu4ms1ojlzwp-fill" transform="matrix(1,0,0,1,182,62)">
                <g id="sy_5_cu_1hdu4ms1ojlzwp-fill">
                    <g>
                        <path d="M10,106L10,34L214,34L214,106L10,106ZM190,10L214,34L10,34L34,10L190,10Z" style="fill:url(#_Linear7);"/>
                    </g>
                </g>
            </g>
            <g transform="matrix(1,0,0,1,212.26,240)">
                <g id="g-root-tx_trackinr_zqayno1ojlzim-fill">
                    <g id="tx_trackinr_zqayno1ojlzim-fill">
                        <g>
                            <g>
                                <text x="0px" y="0px" style="font-family:'ArialMT', 'Arial', sans-serif;font-size:20px;fill:rgb(244,244,244);">T<tspan x="11.475px 18.135px " y="0px 0px ">ra</tspan>ck in Real <tspan x="122.266px 133.74px 138.184px " y="0px 0px 0px ">Tim</tspan>e</text>
                            </g>
                        </g>
                    </g>
                </g>
            </g>
            <g transform="matrix(1,0,0,1,216.53,144)">
                <g id="g-root-tx_generate_1uuafp01ojlxqn-fill">
                    <g id="tx_generate_1uuafp01ojlxqn-fill">
                        <g>
                            <g>
                                <text x="0px" y="0px" style="font-family:'ArialMT', 'Arial', sans-serif;font-size:20px;fill:rgb(244,244,244);">Generate Reports</text>
                            </g>
                        </g>
                    </g>
                </g>
            </g>
            <g transform="matrix(1,0,0,1,199.92,336)">
                <g id="g-root-tx_launchbr_4mxypg1ojly4t-fill">
                    <g id="tx_launchbr_4mxypg1ojly4t-fill">
                        <g>
                            <g>
                                <text x="0px" y="0px" style="font-family:'ArialMT', 'Arial', sans-serif;font-size:20px;fill:rgb(244,244,244);">Launch Broadcasting</text>
                            </g>
                        </g>
                    </g>
                </g>
            </g>
            <g transform="matrix(1,0,0,1,209.69,432)">
                <g id="g-root-tx_uploadca_14491is1ojm0hw-fill">
                    <g id="tx_uploadca_14491is1ojm0hw-fill">
                        <g>
                            <g>
                                <text x="0px" y="0px" style="font-family:'ArialMT', 'Arial', sans-serif;font-size:20px;fill:rgb(244,244,244);">Upload Campaigns</text>
                            </g>
                        </g>
                    </g>
                </g>
            </g>
            <g transform="matrix(1,0,0,1,220.25,528)">
                <g id="g-root-tx_setupacc_591bo1ojlzwr-fill">
                    <g id="tx_setupacc_591bo1ojlzwr-fill">
                        <g>
                            <g>
                                <text x="0px" y="0px" style="font-family:'ArialMT', 'Arial', sans-serif;font-size:20px;fill:rgb(244,244,244);">Set Up <tspan x="65.596px 78.936px " y="0px 0px ">Ac</tspan>counts</text>
                            </g>
                        </g>
                    </g>
                </g>
            </g>
            <g id="g-root-sy_-1_cu_hss7as1ojm0ar-stroke" transform="matrix(1,0,0,1,14,62)">
                <g id="sy_-1_cu_hss7as1ojm0ar-stroke">
                    <g>
                        <path d="M10,490L10,418L82.5,418L82.5,490L10,490ZM10,418L34,394L106,394L82.5,418L10,418ZM34,394L34,322L106,322L106,394L34,394ZM34,322L58,298L130,298L106,322L34,322ZM58,298L58,226L130,226L130,298L58,298ZM58,226L82,202L154,202L130,226L58,226ZM82,202L82,130L154,130L154,202L82,202ZM82,130L106,106L178,106L154,130L82,130ZM106,106L106,34L178,34L178,106L106,106ZM106,34L130,10L202,10L178,34L106,34Z" style="fill:none;stroke:rgb(244,244,244);stroke-width:2px;"/>
                    </g>
                </g>
            </g>
            <g id="g-root-sy_-1_cu_1_1unf7qs1ojlzbg-stroke" transform="matrix(1,0,0,1,362,62)">
                <g id="sy_-1_cu_1_1unf7qs1ojlzbg-stroke">
                    <g>
                        <path d="M202,418L202,490L130.5,490L130.5,418L202,418ZM202,418L178,394L106,394L130.5,418L202,418ZM178,322L178,394L106,394L106,322L178,322ZM178,322L154,298L82,298L106,322L178,322ZM154,226L154,298L82,298L82,226L154,226ZM154,226L130,202L58,202L82,226L154,226ZM130,130L130,202L58,202L58,130L130,130ZM130,130L106,106L34,106L58,130L130,130ZM106,106L106,34L34,34L34,106L106,106ZM106,34L82,10L10,10L34,34L106,34Z" style="fill:none;stroke:rgb(244,244,244);stroke-width:2px;"/>
                    </g>
                </g>
            </g>
            <g id="g-root-sy_1_cu_1414o381ojlzbh-stroke" transform="matrix(1,0,0,1,86.4998,446)">
                <g id="sy_1_cu_1414o381ojlzbh-stroke">
                    <g>
                        <path d="M10,34L10,106L406,106L406,34L10,34ZM406,34L381.5,10L33.5,10L10,34L406,34Z" style="fill:none;stroke:rgb(244,244,244);stroke-width:2px;"/>
                    </g>
                </g>
            </g>
            <g id="g-root-sy_2_cu_qqamt01ojlxqm-stroke" transform="matrix(1,0,0,1,110,350)">
                <g id="sy_2_cu_qqamt01ojlxqm-stroke">
                    <g>
                        <path d="M10,34L10,106L358,106L358,34L10,34ZM358,34L334,10L34,10L10,34L358,34Z" style="fill:none;stroke:rgb(244,244,244);stroke-width:2px;"/>
                    </g>
                </g>
            </g>
            <g id="g-root-sy_3_cu_deu4fo1ojlzbj-stroke" transform="matrix(1,0,0,1,134,254)">
                <g id="sy_3_cu_deu4fo1ojlzbj-stroke">
                    <g>
                        <path d="M10,106L10,34L310,34L310,106L10,106ZM310,34L286,10L34,10L10,34L310,34Z" style="fill:none;stroke:rgb(244,244,244);stroke-width:2px;"/>
                    </g>
                </g>
            </g>
            <g id="g-root-sy_4_cu_1upan041ojlybs-stroke" transform="matrix(1,0,0,1,158,158)">
                <g id="sy_4_cu_1upan041ojlybs-stroke">
                    <g>
                        <path d="M10,34L10,106L262,106L262,34L10,34ZM262,34L238,10L34,10L10,34L262,34Z" style="fill:none;stroke:rgb(244,244,244);stroke-width:2px;"/>
                    </g>
                </g>
            </g>
            <g id="g-root-sy_5_cu_1hdu4ms1ojlzwp-stroke" transform="matrix(1,0,0,1,182,62)">
                <g id="sy_5_cu_1hdu4ms1ojlzwp-stroke">
                    <g>
                        <path d="M10,34L10,106L214,106L214,34L10,34ZM214,34L190,10L34,10L10,34L214,34Z" style="fill:none;stroke:rgb(244,244,244);stroke-width:2px;"/>
                    </g>
                </g>
            </g>
            <g id="g-root-ic_bar_zs6dx01ojlyiw-stroke" transform="matrix(1,0,0,1,398,98)">
                <g id="ic_bar_zs6dx01ojlyiw-stroke">
                    <g>
                        <path d="M11.714,56.286L56.286,56.286M25.429,56.286L25.429,11.714L11.714,11.714L11.714,56.286M39.143,56.286L39.143,32.286L25.429,32.286L25.429,56.286M52.857,56.286L52.857,22L39.143,22L39.143,56.286" style="fill:none;stroke:rgb(244,244,244);stroke-width:2px;"/>
                    </g>
                </g>
            </g>
            <g id="g-root-ic_48px_1qd7zec1ojt1c3-stroke" transform="matrix(1,0,0,1,98,194)">
                <g id="ic_48px_1qd7zec1ojt1c3-stroke">
                    <g>
                        <path d="M15.072,30.179C15.072,24.482 17.789,19.696 23.011,19.696C28.233,19.696 30.949,24.482 30.949,30.179L30.949,37.273C30.949,42.97 28.105,47.882 23.011,47.882C17.916,47.882 15.072,42.97 15.072,37.273L15.072,30.179ZM49.91,47.979L49.91,19.551L36.295,39.738L55.315,39.738" style="fill:none;stroke:rgb(244,244,244);stroke-width:2px;"/>
                    </g>
                </g>
            </g>
            <g id="g-root-ic_desk_dl2vas1ojrk09-stroke" transform="matrix(1,0,0,1,422,194)">
                <g id="ic_desk_dl2vas1ojrk09-stroke">
                    <g>
                        <path d="M17,27C17,30.866 20.134,34 24,34C27.866,34 31,30.866 31,27C31,23.134 27.866,20 24,20C20.134,20 17,23.134 17,27M24,20L24,27L31,27M28,55C29.812,52.712 30.861,49.915 31,47M40,55C38.188,52.712 37.139,49.915 37,47M24.998,55L42.998,55M11,41L57,41M13,13L55,13C55,13 57,13 57,15L57,45C57,45 57,47 55,47L13,47C13,47 11,47 11,45L11,15C11,15 11,13 13,13M37,24L40,20L46,25L51,19M49,35L49,32M45,35L45,31M41,35L41,29M37,35L37,32" style="fill:none;stroke:rgb(244,244,244);stroke-width:2px;"/>
                    </g>
                </g>
            </g>
            <g id="g-root-ic_48px_1uo1otw1ojvrwv-stroke" transform="matrix(1,0,0,1,74,290)">
                <g id="ic_48px_1uo1otw1ojvrwv-stroke">
                    <g>
                        <path d="M15.072,30.179C15.072,24.482 17.789,19.695 23.011,19.695C28.233,19.695 30.949,24.482 30.949,30.179L30.949,37.273C30.949,42.969 28.105,47.882 23.011,47.882C17.916,47.882 15.072,42.969 15.072,37.273L15.072,30.179ZM37.121,27.068C37.002,24.659 38.483,19.71 45.065,19.71C51.648,19.71 52.656,24.597 52.428,27.357C52.177,30.4 50.272,33.508 42.201,33.508C49.714,33.508 53.126,35.562 53.126,41.125C53.126,45.933 48.876,47.89 44.992,47.89C42.201,47.866 36.62,46.287 36.62,40.162" style="fill:none;stroke:rgb(244,244,244);stroke-width:2px;"/>
                    </g>
                </g>
            </g>
            <g id="g-root-ic_mega_v7zk6s1ojuebx-stroke" transform="matrix(1,0,0,1,446,290)">
                <g id="ic_mega_v7zk6s1ojuebx-stroke">
                    <g>
                        <path d="M11.188,49.064L14.546,54.124M29.758,26.53L42.52,45.756M41.85,44.744L13.874,53.112L11.86,50.076L30.428,27.542L41.85,44.744ZM28.432,48.756C29.472,49.949 29.763,51.622 29.186,53.096C28.61,54.57 27.262,55.602 25.688,55.774C24.115,55.945 22.576,55.228 21.696,53.912L19.942,51.27M17.176,34.92L15.834,33.498C15.471,33.113 15.471,32.511 15.834,32.126L19.434,28.326L18.234,23.234C18.112,22.718 18.414,22.197 18.922,22.046L23.938,20.552L25.432,15.536C25.58,15.035 26.089,14.733 26.6,14.842L31.69,16.052L35.49,12.452C35.875,12.089 36.477,12.089 36.862,12.452L40.662,16.052L45.754,14.852C46.27,14.73 46.791,15.032 46.942,15.54L48.436,20.556L53.452,22.05C53.966,22.201 54.269,22.73 54.14,23.25L52.948,28.32L56.548,32.12C56.911,32.505 56.911,33.107 56.548,33.492L52.948,37.292L54.158,42.382C54.281,42.898 53.979,43.421 53.47,43.572L48.454,45.066L46.96,50.082C46.808,50.59 46.286,50.891 45.77,50.768L40.68,49.568L36.88,53.168C36.495,53.531 35.893,53.531 35.508,53.168L34.786,52.486" style="fill:none;stroke:rgb(244,244,244);stroke-width:2px;"/>
                    </g>
                </g>
            </g>
            <g id="g-root-ic_sett_vahjp01ojexa9-stroke" transform="matrix(1,0,0,1,494,482)">
                <g id="ic_sett_vahjp01ojexa9-stroke">
                    <g>
                        <path d="M44.5,45.75C44.5,47.131 45.619,48.25 47,48.25C48.381,48.25 49.5,47.131 49.5,45.75C49.5,44.369 48.381,43.25 47,43.25C45.619,43.25 44.5,44.369 44.5,45.75ZM49.124,36.078L49.86,38.5C50.112,39.334 50.967,39.83 51.816,39.634L54.27,39.066C55.226,38.847 56.212,39.278 56.702,40.128C57.191,40.977 57.069,42.047 56.4,42.764L54.684,44.614C54.09,45.255 54.09,46.245 54.684,46.886L56.4,48.736C57.067,49.452 57.189,50.52 56.701,51.368C56.214,52.217 55.231,52.649 54.276,52.434L51.822,51.866C50.973,51.67 50.118,52.166 49.866,53L49.13,55.422C48.848,56.359 47.985,57.001 47.006,57.001C46.027,57.001 45.164,56.359 44.882,55.422L44.14,53C43.888,52.166 43.033,51.67 42.184,51.866L39.73,52.434C38.774,52.653 37.788,52.222 37.298,51.372C36.809,50.523 36.931,49.453 37.6,48.736L39.316,46.886C39.91,46.245 39.91,45.255 39.316,44.614L37.6,42.764C36.933,42.048 36.811,40.98 37.299,40.132C37.786,39.283 38.769,38.851 39.724,39.066L42.178,39.634C43.027,39.83 43.882,39.334 44.134,38.5L44.87,36.078C45.149,35.136 46.014,34.489 46.997,34.489C47.98,34.489 48.845,35.136 49.124,36.078ZM31,41L11,41C11,36.025 14.07,31.566 18.718,29.79C23.366,28.015 28.627,29.292 31.944,33M15.5,18.5C15.5,22.642 18.858,26 23,26C27.142,26 30.5,22.642 30.5,18.5C30.5,14.358 27.142,11 23,11C18.858,11 15.5,14.358 15.5,18.5ZM34.5,18.5C34.5,22.642 37.858,26 42,26C46.142,26 49.5,22.642 49.5,18.5C49.5,14.358 46.142,11 42,11C37.858,11 34.5,14.358 34.5,18.5ZM48.94,31.21C45.127,28.506 40.09,28.262 36.034,30.586" style="fill:none;stroke:rgb(244,244,244);stroke-width:2px;"/>
                    </g>
                </g>
            </g>
            <g id="g-root-ic_48px_1uljvn81ojey2o-stroke" transform="matrix(1,0,0,1,50,386)">
                <g id="ic_48px_1uljvn81ojey2o-stroke">
                    <g>
                        <path d="M15.072,30.179C15.072,24.482 17.789,19.695 23.011,19.695C28.233,19.695 30.949,24.482 30.949,30.179L30.949,37.273C30.949,42.969 28.105,47.882 23.011,47.882C17.916,47.882 15.072,42.969 15.072,37.273L15.072,30.179ZM36.832,27.515C36.832,22.895 40.056,19.695 44.438,19.695C51.707,19.695 54.186,26.789 49.421,33.098L37.33,47.417L53.951,47.417" style="fill:none;stroke:rgb(244,244,244);stroke-width:2px;"/>
                    </g>
                </g>
            </g>
            <g id="g-root-ic_moni_3dm2c1ok01lb-stroke" transform="matrix(1,0,0,1,470,386)">
                <g id="ic_moni_3dm2c1ok01lb-stroke">
                    <g>
                        <path d="M14,49.32L55,49.32C56.105,49.32 57,48.425 57,47.32L57,20.84C57,20.082 56.572,19.39 55.894,19.051C55.217,18.712 54.406,18.785 53.8,19.24L14,49.32ZM11,47.32L11,20.68C10.983,19.948 11.366,19.266 12,18.9C12.644,18.585 13.407,18.638 14,19.04L30,30.24L11,47.32Z" style="fill:none;stroke:rgb(244,244,244);stroke-width:2px;"/>
                    </g>
                </g>
            </g>
            <g id="g-root-ic_48px_qssmb81ojgcg2-stroke" transform="matrix(1,0,0,1,26,482)">
                <g id="ic_48px_qssmb81ojgcg2-stroke">
                    <g>
                        <path d="M37.842,23.377L46.297,20.184L46.297,47.951M15.072,30.179C15.072,24.482 17.789,19.695 23.011,19.695C28.233,19.695 30.949,24.482 30.949,30.179L30.949,37.273C30.949,42.969 28.105,47.882 23.011,47.882C17.916,47.882 15.072,42.969 15.072,37.273L15.072,30.179Z" style="fill:none;stroke:rgb(244,244,244);stroke-width:2px;"/>
                    </g>
                </g>
            </g>
            <g id="g-root-ic_48px_1cw57901ojrksn-stroke" transform="matrix(1,0,0,1,122,98)">
                <g id="ic_48px_1cw57901ojrksn-stroke">
                    <g>
                        <path d="M15.072,30.179C15.072,24.482 17.789,19.696 23.011,19.696C28.233,19.696 30.949,24.482 30.949,30.179L30.949,37.273C30.949,42.97 28.105,47.882 23.011,47.882C17.916,47.882 15.072,42.97 15.072,37.273L15.072,30.179ZM53.693,20.121L40.379,20.121L38.988,33.144C39.817,32.315 42.353,30.657 45.865,30.657C49.971,30.657 53.813,33.447 53.427,40.052C53.028,46.894 48.912,47.904 45.529,47.904C41.945,47.904 38.405,45.361 38.073,40.565" style="fill:none;stroke:rgb(244,244,244);stroke-width:2px;"/>
                    </g>
                </g>
            </g>
        </g>
    </g>
    <defs>
        <linearGradient id="_Linear1" x1="0" y1="0" x2="1" y2="0" gradientUnits="userSpaceOnUse" gradientTransform="matrix(10,490,-490,10,0,0)"><stop offset="0" style="stop-color:rgb(149,149,149);stop-opacity:1"/><stop offset="1" style="stop-color:rgb(127,127,127);stop-opacity:1"/></linearGradient>
        <linearGradient id="_Linear2" x1="0" y1="0" x2="1" y2="0" gradientUnits="userSpaceOnUse" gradientTransform="matrix(10,490,-490,10,0,0)"><stop offset="0" style="stop-color:rgb(149,149,149);stop-opacity:1"/><stop offset="1" style="stop-color:rgb(127,127,127);stop-opacity:1"/></linearGradient>
        <linearGradient id="_Linear3" x1="0" y1="0" x2="1" y2="0" gradientUnits="userSpaceOnUse" gradientTransform="matrix(10,106,-106,10,-1.77636e-15,0)"><stop offset="0" style="stop-color:rgb(78,136,230);stop-opacity:1"/><stop offset="1" style="stop-color:rgb(79,126,202);stop-opacity:1"/></linearGradient>
        <linearGradient id="_Linear4" x1="0" y1="0" x2="1" y2="0" gradientUnits="userSpaceOnUse" gradientTransform="matrix(10,106,-106,10,0,0)"><stop offset="0" style="stop-color:rgb(59,196,130);stop-opacity:1"/><stop offset="1" style="stop-color:rgb(68,152,112);stop-opacity:1"/></linearGradient>
        <linearGradient id="_Linear5" x1="0" y1="0" x2="1" y2="0" gradientUnits="userSpaceOnUse" gradientTransform="matrix(10,106,-106,10,0,0)"><stop offset="0" style="stop-color:rgb(145,187,57);stop-opacity:1"/><stop offset="1" style="stop-color:rgb(125,152,68);stop-opacity:1"/></linearGradient>
        <linearGradient id="_Linear6" x1="0" y1="0" x2="1" y2="0" gradientUnits="userSpaceOnUse" gradientTransform="matrix(10,106,-106,10,0,0)"><stop offset="0" style="stop-color:rgb(31,169,215);stop-opacity:1"/><stop offset="1" style="stop-color:rgb(49,135,163);stop-opacity:1"/></linearGradient>
        <linearGradient id="_Linear7" x1="0" y1="0" x2="1" y2="0" gradientUnits="userSpaceOnUse" gradientTransform="matrix(10,106,-106,10,0,0)"><stop offset="0" style="stop-color:rgb(221,201,22);stop-opacity:1"/><stop offset="1" style="stop-color:rgb(169,156,44);stop-opacity:1"/></linearGradient>
    </defs>
</svg>
