<?xml version="1.0" encoding="UTF-8" standalone="no"?>
<!DOCTYPE svg PUBLIC "-//W3C//DTD SVG 1.1//EN" "http://www.w3.org/Graphics/SVG/1.1/DTD/svg11.dtd">
<svg width="100%" height="100%" viewBox="0 0 492 406" version="1.1" xmlns="http://www.w3.org/2000/svg" xmlns:xlink="http://www.w3.org/1999/xlink" xml:space="preserve" xmlns:serif="http://www.serif.com/" style="fill-rule:evenodd;clip-rule:evenodd;stroke-linecap:round;stroke-linejoin:round;">
    <g id="items" transform="matrix(1.0888,0,0,1.0888,-21.846,-40.2475)">
        <g id="blend">
            <g id="g-root-sy_-1_cu_zqag5ce7j6z2-fill" transform="matrix(1,0,0,1,14,74)">
                <g id="sy_-1_cu_zqag5ce7j6z2-fill">
                    <g>
                        <path d="M10,298L10,226L82,226L82,298L10,298ZM34,202L10,226L82,226L106,202L34,202ZM34,202L34,130L106,130L106,202L34,202ZM58,106L34,130L106,130L130,106L58,106ZM58,106L58,34L130,34L130,106L58,106ZM82,10L58,34L130,34L154,10L82,10Z" style="fill:url(#_Linear1);"/>
                    </g>
                </g>
            </g>
            <g id="g-root-sy_-1_cu_1_93zwhse7j6z3-fill" transform="matrix(1,0,0,1,314,74)">
                <g id="sy_-1_cu_1_93zwhse7j6z3-fill">
                    <g>
                        <path d="M154,226L154,298L82,298L82,226L154,226ZM154,226L130,202L58,202L82,226L154,226ZM130,130L130,202L58,202L58,130L130,130ZM130,130L106,106L34,106L58,130L130,130ZM106,34L106,106L34,106L34,34L106,34ZM106,34L82,10L10,10L34,34L106,34Z" style="fill:url(#_Linear2);"/>
                    </g>
                </g>
            </g>
            <g id="g-root-sy_1_cu_1qegf28e7j5zc-fill" transform="matrix(1,0,0,1,86,266)">
                <g id="sy_1_cu_1qegf28e7j5zc-fill">
                    <g>
                        <path d="M10,34L10,106L310,106L310,34L10,34ZM286,10L310,34L10,34L34,10L286,10Z" style="fill:url(#_Linear3);"/>
                    </g>
                </g>
            </g>
            <g id="g-root-sy_2_cu_1lymwxse7j6rl-fill" transform="matrix(1,0,0,1,110,170)">
                <g id="sy_2_cu_1lymwxse7j6rl-fill">
                    <g>
                        <path d="M10,106L10,34L262,34L262,106L10,106ZM238,10L262,34L10,34L34,10L238,10Z" style="fill:url(#_Linear4);"/>
                    </g>
                </g>
            </g>
            <g id="g-root-sy_3_cu_18nsvnke7j56q-fill" transform="matrix(1,0,0,1,134,74)">
                <g id="sy_3_cu_18nsvnke7j56q-fill">
                    <g>
                        <path d="M10,106L10,34L214,34L214,106L10,106ZM190,10L214,34L10,34L34,10L190,10Z" style="fill:url(#_Linear5);"/>
                    </g>
                </g>
            </g>
            <g transform="matrix(1,0,0,1,174.22,156)">
                <g id="g-root-tx_trackman_1lrrozke7klqm-fill">
                    <g id="tx_trackman_1lrrozke7klqm-fill">
                        <g>
                            <g>
                                <text x="0px" y="0px" style="font-family:'ArialMT', 'Arial', sans-serif;font-size:20px;fill:rgb(244,244,244);">T<tspan x="11.475px 18.135px " y="0px 0px ">ra</tspan>ck &amp; Manage</text>
                            </g>
                        </g>
                    </g>
                </g>
            </g>
            <g transform="matrix(1,0,0,1,152.07,252)">
                <g id="g-root-tx_schedule_m8l6wwe7kl51-fill">
                    <g id="tx_schedule_m8l6wwe7kl51-fill">
                        <g>
                            <g>
                                <text x="0px" y="0px" style="font-family:'ArialMT', 'Arial', sans-serif;font-size:20px;fill:rgb(244,244,244);">Schedule Broadcasts</text>
                            </g>
                        </g>
                    </g>
                </g>
            </g>
            <g transform="matrix(1,0,0,1,178.71,348)">
                <g id="g-root-tx_setupten_1hap8owe7kkcs-fill">
                    <g id="tx_setupten_1hap8owe7kkcs-fill">
                        <g>
                            <g>
                                <text x="0px" y="0px" style="font-family:'ArialMT', 'Arial', sans-serif;font-size:20px;fill:rgb(244,244,244);">Set Up <tspan x="66.338px 76.338px 87.461px " y="0px 0px 0px ">Ten</tspan>ants</text>
                            </g>
                        </g>
                    </g>
                </g>
            </g>
            <g id="g-root-sy_-1_cu_zqag5ce7j6z2-stroke" transform="matrix(1,0,0,1,14,74)">
                <g id="sy_-1_cu_zqag5ce7j6z2-stroke">
                    <g>
                        <path d="M10,298L10,226L82,226L82,298L10,298ZM10,226L34,202L106,202L82,226L10,226ZM34,202L34,130L106,130L106,202L34,202ZM34,130L58,106L130,106L106,130L34,130ZM58,106L58,34L130,34L130,106L58,106ZM58,34L82,10L154,10L130,34L58,34Z" style="fill:none;stroke:rgb(244,244,244);stroke-width:2px;"/>
                    </g>
                </g>
            </g>
            <g id="g-root-sy_-1_cu_1_93zwhse7j6z3-stroke" transform="matrix(1,0,0,1,314,74)">
                <g id="sy_-1_cu_1_93zwhse7j6z3-stroke">
                    <g>
                        <path d="M154,226L154,298L82,298L82,226L154,226ZM154,226L130,202L58,202L82,226L154,226ZM130,130L130,202L58,202L58,130L130,130ZM130,130L106,106L34,106L58,130L130,130ZM106,106L106,34L34,34L34,106L106,106ZM106,34L82,10L10,10L34,34L106,34Z" style="fill:none;stroke:rgb(244,244,244);stroke-width:2px;"/>
                    </g>
                </g>
            </g>
            <g id="g-root-sy_1_cu_1qegf28e7j5zc-stroke" transform="matrix(1,0,0,1,86,266)">
                <g id="sy_1_cu_1qegf28e7j5zc-stroke">
                    <g>
                        <path d="M10,106L10,34L310,34L310,106L10,106ZM310,34L286,10L34,10L10,34L310,34Z" style="fill:none;stroke:rgb(244,244,244);stroke-width:2px;"/>
                    </g>
                </g>
            </g>
            <g id="g-root-sy_2_cu_1lymwxse7j6rl-stroke" transform="matrix(1,0,0,1,110,170)">
                <g id="sy_2_cu_1lymwxse7j6rl-stroke">
                    <g>
                        <path d="M10,34L10,106L262,106L262,34L10,34ZM262,34L238,10L34,10L10,34L262,34Z" style="fill:none;stroke:rgb(244,244,244);stroke-width:2px;"/>
                    </g>
                </g>
            </g>
            <g id="g-root-sy_3_cu_18nsvnke7j56q-stroke" transform="matrix(1,0,0,1,134,74)">
                <g id="sy_3_cu_18nsvnke7j56q-stroke">
                    <g>
                        <path d="M10,34L10,106L214,106L214,34L10,34ZM214,34L190,10L34,10L10,34L214,34Z" style="fill:none;stroke:rgb(244,244,244);stroke-width:2px;"/>
                    </g>
                </g>
            </g>
            <g id="g-root-ic_48px_1lymwxse7kk5k-stroke" transform="matrix(1,0,0,1,74,110)">
                <g id="ic_48px_1lymwxse7kk5k-stroke">
                    <g>
                        <path d="M15.072,30.179C15.072,24.482 17.789,19.695 23.011,19.695C28.233,19.695 30.949,24.482 30.949,30.179L30.949,37.273C30.949,42.969 28.105,47.882 23.011,47.882C17.916,47.882 15.072,42.969 15.072,37.273L15.072,30.179ZM37.121,27.068C37.002,24.659 38.483,19.71 45.065,19.71C51.648,19.71 52.656,24.597 52.428,27.357C52.177,30.4 50.272,33.508 42.201,33.508C49.714,33.508 53.126,35.562 53.126,41.125C53.126,45.933 48.876,47.89 44.992,47.89C42.201,47.866 36.62,46.287 36.62,40.162" style="fill:none;stroke:rgb(244,244,244);stroke-width:2px;"/>
                    </g>
                </g>
            </g>
            <g id="g-root-ic_grap_detlxce7kkxz-stroke" transform="matrix(1,0,0,1,350,110)">
                <g id="ic_grap_detlxce7kkxz-stroke">
                    <g>
                        <path d="M37,24C37,27.866 40.134,31 44,31C47.866,31 51,27.866 51,24C51,20.134 47.866,17 44,17C40.134,17 37,20.134 37,24M17,51L21.4,44.834C21.556,44.615 21.794,44.469 22.06,44.427C22.325,44.386 22.597,44.453 22.812,44.614L25.2,46.4C25.642,46.731 26.269,46.642 26.6,46.2L32,39M45.502,17.162L44,24L50.948,23.15M40,37L50,37C50,37 51,37 51,38L51,50C51,50 51,51 50,51L40,51C40,51 39,51 39,50L39,38C39,38 39,37 40,37M43,43L47,43M43,47L45,47M18,17L28,17C28,17 29,17 29,18L29,30C29,30 29,31 28,31L18,31C18,31 17,31 17,30L17,18C17,18 17,17 18,17M21,21L25,21M21,25L23,25M13,11L55,11C55,11 57,11 57,13L57,55C57,55 57,57 55,57L13,57C13,57 11,57 11,55L11,13C11,13 11,11 13,11" style="fill:none;stroke:rgb(244,244,244);stroke-width:2px;"/>
                    </g>
                </g>
            </g>
            <g id="g-root-ic_48px_4hb6f4e7ne9u-stroke" transform="matrix(1,0,0,1,50,206)">
                <g id="ic_48px_4hb6f4e7ne9u-stroke">
                    <g>
                        <path d="M15.072,30.179C15.072,24.482 17.789,19.695 23.011,19.695C28.233,19.695 30.949,24.482 30.949,30.179L30.949,37.273C30.949,42.969 28.105,47.882 23.011,47.882C17.916,47.882 15.072,42.969 15.072,37.273L15.072,30.179ZM36.832,27.515C36.832,22.895 40.056,19.695 44.438,19.695C51.707,19.695 54.186,26.789 49.421,33.098L37.33,47.417L53.951,47.417" style="fill:none;stroke:rgb(244,244,244);stroke-width:2px;"/>
                    </g>
                </g>
            </g>
            <g id="g-root-ic_shar_4kfjuoe7m1ah-stroke" transform="matrix(1,0,0,1,374,206)">
                <g id="ic_shar_4kfjuoe7m1ah-stroke">
                    <g>
                        <path d="M33,46.502C33,48.987 35.015,51.002 37.5,51.002C39.985,51.002 42,48.987 42,46.502C42,44.017 39.985,42.002 37.5,42.002C35.015,42.002 33,44.017 33,46.502ZM48,52.502C48,54.987 50.015,57.002 52.5,57.002C54.985,57.002 57,54.987 57,52.502C57,50.017 54.985,48.002 52.5,48.002C50.015,48.002 48,50.017 48,52.502ZM48,37.502C48,39.987 50.015,42.002 52.5,42.002C54.985,42.002 57,39.987 57,37.502C57,35.017 54.985,33.002 52.5,33.002C50.015,33.002 48,35.017 48,37.502ZM41.35,44.192L48.65,39.812M41.676,48.172L48.324,50.832M29,47L13,47C11.895,47 11,46.105 11,45L11,17C11,15.895 11.895,15 13,15L49,15C50.105,15 51,15.895 51,17L51,29M21,11.002L21,21.002M41,11.002L41,21.002M11,25.002L51,25.002" style="fill:none;stroke:rgb(244,244,244);stroke-width:2px;"/>
                    </g>
                </g>
            </g>
            <g id="g-root-ic_48px_zko6dce7ot1g-stroke" transform="matrix(1,0,0,1,26,302)">
                <g id="ic_48px_zko6dce7ot1g-stroke">
                    <g>
                        <path d="M37.842,23.377L46.297,20.184L46.297,47.951M15.072,30.179C15.072,24.482 17.789,19.695 23.011,19.695C28.233,19.695 30.949,24.482 30.949,30.179L30.949,37.273C30.949,42.969 28.105,47.882 23.011,47.882C17.916,47.882 15.072,42.969 15.072,37.273L15.072,30.179Z" style="fill:none;stroke:rgb(244,244,244);stroke-width:2px;"/>
                    </g>
                </g>
            </g>
            <g id="g-root-ic_moni_1d14hfke7ndhf-stroke" transform="matrix(1,0,0,1,398,302)">
                <g id="ic_moni_1d14hfke7ndhf-stroke">
                    <g>
                        <path d="M39,39L55,39C55,39 57,39 57,41L57,51C57,51 57,53 55,53L39,53C39,53 37,53 37,51L37,41C37,41 37,39 39,39M47,53L47,57M41,57L53,57M33,37L11,37C11.019,35.143 11.403,33.309 12.13,31.6C12.93,30 16.256,28.9 20.436,27.352C21.566,26.934 21.38,23.984 20.88,23.432C19.269,21.686 18.479,19.335 18.71,16.97C18.565,15.464 19.053,13.966 20.056,12.834C21.059,11.702 22.488,11.037 24,11C25.512,11.037 26.941,11.702 27.944,12.834C28.947,13.966 29.435,15.464 29.29,16.97C29.522,19.336 28.732,21.687 27.12,23.434C26.62,23.986 26.434,26.936 27.564,27.354C31.744,28.902 35.072,30.008 35.87,31.602C36.236,32.365 36.505,33.172 36.67,34.002M31.824,11.474C32.506,11.159 33.249,10.997 34,11C35.512,11.037 36.941,11.702 37.944,12.834C38.947,13.966 39.435,15.464 39.29,16.97C39.522,19.336 38.732,21.687 37.12,23.434C36.62,23.986 36.434,26.936 37.564,27.354C41.744,28.902 45.072,30.008 45.87,31.602C46.231,32.359 46.497,33.158 46.66,33.98" style="fill:none;stroke:rgb(244,244,244);stroke-width:2px;"/>
                    </g>
                </g>
            </g>
        </g>
    </g>
    <defs>
        <linearGradient id="_Linear1" x1="0" y1="0" x2="1" y2="0" gradientUnits="userSpaceOnUse" gradientTransform="matrix(10,298,-298,10,0,0)"><stop offset="0" style="stop-color:rgb(149,149,149);stop-opacity:1"/><stop offset="1" style="stop-color:rgb(127,127,127);stop-opacity:1"/></linearGradient>
        <linearGradient id="_Linear2" x1="0" y1="0" x2="1" y2="0" gradientUnits="userSpaceOnUse" gradientTransform="matrix(10,298,-298,10,0,0)"><stop offset="0" style="stop-color:rgb(149,149,149);stop-opacity:1"/><stop offset="1" style="stop-color:rgb(127,127,127);stop-opacity:1"/></linearGradient>
        <linearGradient id="_Linear3" x1="0" y1="0" x2="1" y2="0" gradientUnits="userSpaceOnUse" gradientTransform="matrix(10,106,-106,10,0,0)"><stop offset="0" style="stop-color:rgb(78,136,230);stop-opacity:1"/><stop offset="1" style="stop-color:rgb(79,126,202);stop-opacity:1"/></linearGradient>
        <linearGradient id="_Linear4" x1="0" y1="0" x2="1" y2="0" gradientUnits="userSpaceOnUse" gradientTransform="matrix(10,106,-106,10,0,0)"><stop offset="0" style="stop-color:rgb(59,196,130);stop-opacity:1"/><stop offset="1" style="stop-color:rgb(68,152,112);stop-opacity:1"/></linearGradient>
        <linearGradient id="_Linear5" x1="0" y1="0" x2="1" y2="0" gradientUnits="userSpaceOnUse" gradientTransform="matrix(10,106,-106,10,0,0)"><stop offset="0" style="stop-color:rgb(145,187,57);stop-opacity:1"/><stop offset="1" style="stop-color:rgb(125,152,68);stop-opacity:1"/></linearGradient>
    </defs>
</svg>
