<?xml version="1.0" encoding="UTF-8" standalone="no"?>
<!DOCTYPE svg PUBLIC "-//W3C//DTD SVG 1.1//EN" "http://www.w3.org/Graphics/SVG/1.1/DTD/svg11.dtd">
<svg width="100%" height="100%" viewBox="0 0 576 731" version="1.1" xmlns="http://www.w3.org/2000/svg" xmlns:xlink="http://www.w3.org/1999/xlink" xml:space="preserve" xmlns:serif="http://www.serif.com/" style="fill-rule:evenodd;clip-rule:evenodd;stroke-linecap:round;stroke-linejoin:round;">
    <g id="items" transform="matrix(1.09154,0,0,1.09154,-26.3634,-50.1512)">
        <g id="blend">
            <g id="g-root-cp_9_text-9_92r7b81mvpu68-fill" transform="matrix(1,0,0,1,50,62)">
                <g id="cp_9_text-9_92r7b81mvpu68-fill">
                    <g>
                        <rect x="10" y="10" width="228" height="108" style="fill:rgb(26,195,251);"/>
                    </g>
                </g>
            </g>
            <g id="g-root-cp_9_stick-9_1hhkpms1mvptz6-fill" transform="matrix(1,0,0,1,272,170)">
                <g id="cp_9_stick-9_1hhkpms1mvptz6-fill">
                    <g>
                        <rect x="10" y="10" width="5.997" height="444" style="fill:rgb(26,195,251);"/>
                    </g>
                </g>
            </g>
            <g id="g-root-cp_7_text-7_vb3o3o1mvpt70-fill" transform="matrix(1,0,0,1,44,170)">
                <g id="cp_7_text-7_vb3o3o1mvpt70-fill">
                    <g>
                        <rect x="10" y="10" width="228" height="84" style="fill:rgb(67,221,147);"/>
                    </g>
                </g>
            </g>
            <g id="g-root-cp_7_stick-7_dkg4p01mvpsee-fill" transform="matrix(1,0,0,1,266,254)">
                <g id="cp_7_stick-7_dkg4p01mvpsee-fill">
                    <g>
                        <rect x="10" y="10" width="5.997" height="360" style="fill:rgb(67,221,147);"/>
                    </g>
                </g>
            </g>
            <g id="g-root-cp_5_text-5_8zmbo1mvptzc-fill" transform="matrix(1,0,0,1,38,254)">
                <g id="cp_5_text-5_8zmbo1mvptzc-fill">
                    <g>
                        <rect x="10" y="10" width="228" height="108" style="fill:rgb(203,104,249);"/>
                    </g>
                </g>
            </g>
            <g id="g-root-cp_5_stick-5_1hjg4w41mvpszm-fill" transform="matrix(1,0,0,1,260,362)">
                <g id="cp_5_stick-5_1hjg4w41mvpszm-fill">
                    <g>
                        <rect x="10" y="10" width="5.997" height="252" style="fill:rgb(203,104,249);"/>
                    </g>
                </g>
            </g>
            <g id="g-root-cp_3_text-3_v2zhz81mvr6rw-fill" transform="matrix(1,0,0,1,32,362)">
                <g id="cp_3_text-3_v2zhz81mvr6rw-fill">
                    <g>
                        <rect x="10" y="10" width="228" height="108" style="fill:rgb(251,103,98);"/>
                    </g>
                </g>
            </g>
            <g id="g-root-cp_3_stick-3_hrizlw1mvr8cu-fill" transform="matrix(1,0,0,1,254,470)">
                <g id="cp_3_stick-3_hrizlw1mvr8cu-fill">
                    <g>
                        <rect x="10" y="10" width="5.997" height="144" style="fill:rgb(251,103,98);"/>
                    </g>
                </g>
            </g>
            <g id="g-root-cp_1_text-1_8wigg41mvr6rk-fill" transform="matrix(1,0,0,1,26,470)">
                <g id="cp_1_text-1_8wigg41mvr6rk-fill">
                    <g>
                        <rect x="10" y="10" width="228" height="108" style="fill:rgb(255,231,17);"/>
                    </g>
                </g>
            </g>
            <g id="g-root-cp_1_stick-1_1um601w1mvr85e-fill" transform="matrix(1,0,0,1,247.997,554)">
                <g id="cp_1_stick-1_1um601w1mvr85e-fill">
                    <g>
                        <rect x="10.003" y="10" width="5.997" height="60" style="fill:rgb(255,231,17);"/>
                    </g>
                </g>
            </g>
            <g id="g-root-cp_10_text-10_1hbbyro1mvr6kk-fill" transform="matrix(1,0,0,1,278,122)">
                <g id="cp_10_text-10_1hbbyro1mvr6kk-fill">
                    <g>
                        <rect x="10" y="10" width="228" height="84" style="fill:rgb(183,183,183);"/>
                    </g>
                </g>
            </g>
            <g id="g-root-cp_10_stick-10_13zvgec1mvr85i-fill" transform="matrix(1,0,0,1,278.003,206)">
                <g id="cp_10_stick-10_13zvgec1mvr85i-fill">
                    <g>
                        <rect x="10" y="10" width="5.997" height="408" style="fill:rgb(183,183,183);"/>
                    </g>
                </g>
            </g>
            <g id="g-root-cp_8_text-8_m97wzo1mvr7cw-fill" transform="matrix(1,0,0,1,284,206)">
                <g id="cp_8_text-8_m97wzo1mvr7cw-fill">
                    <g>
                        <rect x="10" y="10" width="228" height="108" style="fill:rgb(166,218,55);"/>
                    </g>
                </g>
            </g>
            <g id="g-root-cp_8_stick-8_8xremc1mvr8xu-fill" transform="matrix(1,0,0,1,284.003,314)">
                <g id="cp_8_stick-8_8xremc1mvr8xu-fill">
                    <g>
                        <rect x="10" y="10" width="5.997" height="300" style="fill:rgb(166,218,55);"/>
                    </g>
                </g>
            </g>
            <g id="g-root-cp_6_text-6_2qvgk1mvr6ks-fill" transform="matrix(1,0,0,1,290,314)">
                <g id="cp_6_text-6_2qvgk1mvr6ks-fill">
                    <g>
                        <rect x="10" y="10" width="228" height="84" style="fill:rgb(135,105,253);"/>
                    </g>
                </g>
            </g>
            <g id="g-root-cp_6_stick-6_1lsef2c1mvr7ym-fill" transform="matrix(1,0,0,1,290.003,398)">
                <g id="cp_6_stick-6_1lsef2c1mvr7ym-fill">
                    <g>
                        <rect x="10" y="10" width="5.997" height="216" style="fill:rgb(135,105,253);"/>
                    </g>
                </g>
            </g>
            <g id="g-root-cp_4_text-4_141qvno1mvr760-fill" transform="matrix(1,0,0,1,296,398)">
                <g id="cp_4_text-4_141qvno1mvr760-fill">
                    <g>
                        <rect x="10" y="10" width="228" height="84" style="fill:rgb(243,102,187);"/>
                    </g>
                </g>
            </g>
            <g id="g-root-cp_4_stick-4_qqadac1mvr8qy-fill" transform="matrix(1,0,0,1,296.003,482)">
                <g id="cp_4_stick-4_qqadac1mvr8qy-fill">
                    <g>
                        <rect x="10" y="10" width="5.997" height="132" style="fill:rgb(243,102,187);"/>
                    </g>
                </g>
            </g>
            <g id="g-root-cp_2_text-2_mb3c901mvr6dg-fill" transform="matrix(1,0,0,1,302,482)">
                <g id="cp_2_text-2_mb3c901mvr6dg-fill">
                    <g>
                        <rect x="10" y="10" width="228" height="84" style="fill:rgb(247,148,56);"/>
                    </g>
                </g>
            </g>
            <g id="g-root-cp_2_stick-2_3ztms1mvr8r2-fill" transform="matrix(1,0,0,1,302.003,565)">
                <g id="cp_2_stick-2_3ztms1mvr8r2-fill">
                    <g>
                        <rect x="10" y="10" width="5.997" height="49" style="fill:rgb(247,148,56);"/>
                    </g>
                </g>
            </g>
            <g id="g-root-cp_0_g-0_1qa3cg41mvr6yo-fill" transform="matrix(1,0,0,1,248,614)">
                <g id="cp_0_g-0_1qa3cg41mvr6yo-fill">
                    <g>
                        <path d="M30,58L40.001,82.001L50.001,58L30,58Z" style="fill:rgb(232,232,232);"/>
                    </g>
                </g>
                <g id="cp_0_g-0_1qa3cg41mvr6yo-fill1" serif:id="cp_0_g-0_1qa3cg41mvr6yo-fill">
                    <g>
                        <path d="M70.001,10L10,10L30,57.999L50.001,57.999L70.001,10Z" style="fill:rgb(232,232,232);"/>
                    </g>
                </g>
            </g>
            <g id="g-root-tx__142dcqs1mvy87b-fill">
            </g>
            <g id="g-root-tx__detux01mvu1vn-fill">
            </g>
            <g id="g-root-tx_rolebase_1lsef2c1mvtzii-fill" transform="matrix(1,0,0,1,98,266)">
                <g id="tx_rolebase_1lsef2c1mvtzii-fill">
                    <g>
                        <g>
                            <g transform="matrix(1,0,0,1,12.12,34)">
                                <text x="0px" y="0px" style="font-family:'Arial-BoldMT', 'Arial', sans-serif;font-weight:700;font-size:20px;fill:rgb(44,44,44);">Role-Based</text>
                            </g>
                            <g transform="matrix(1,0,0,1,50.4,58)">
                                <text x="0px" y="0px" style="font-family:'Arial-BoldMT', 'Arial', sans-serif;font-weight:700;font-size:20px;fill:rgb(44,44,44);">Access</text>
                            </g>
                        </g>
                    </g>
                </g>
            </g>
            <g id="g-root-tx_multilin_8ydvpg1mvy9za-fill" transform="matrix(1,0,0,1,344,218)">
                <g id="tx_multilin_8ydvpg1mvy9za-fill">
                    <g>
                        <g>
                            <g transform="matrix(1,0,0,1,12,34)">
                                <text x="0px" y="0px" style="font-family:'Arial-BoldMT', 'Arial', sans-serif;font-weight:700;font-size:20px;fill:rgb(44,44,44);">Multilingual</text>
                            </g>
                            <g transform="matrix(1,0,0,1,12,58)">
                                <text x="0px" y="0px" style="font-family:'Arial-BoldMT', 'Arial', sans-serif;font-weight:700;font-size:20px;fill:rgb(44,44,44);">Support</text>
                            </g>
                        </g>
                    </g>
                </g>
            </g>
            <g id="g-root-tx__v7zao41mvsl4w-fill">
            </g>
            <g id="g-root-tx_realtime_8vvzd01mvvevh-fill" transform="matrix(1,0,0,1,92,374)">
                <g id="tx_realtime_8vvzd01mvvevh-fill">
                    <g>
                        <g>
                            <g transform="matrix(1,0,0,1,22.68,34)">
                                <text x="0px" y="0px" style="font-family:'Arial-BoldMT', 'Arial', sans-serif;font-weight:700;font-size:20px;fill:rgb(44,44,44);">Real-T<tspan x="60.762px 66.318px " y="0px 0px ">im</tspan>e</text>
                            </g>
                            <g transform="matrix(1,0,0,1,17.63,58)">
                                <text x="0px" y="0px" style="font-family:'Arial-BoldMT', 'Arial', sans-serif;font-weight:700;font-size:20px;fill:rgb(44,44,44);">Monitoring</text>
                            </g>
                        </g>
                    </g>
                </g>
            </g>
            <g id="g-root-tx__v8lrr81mvwumc-fill">
            </g>
            <g id="g-root-tx__1q6yz0k1mvznd6-fill">
            </g>
            <g transform="matrix(1,0,0,1,100.42,216)">
                <g id="g-root-tx_dncfilte_4jtbr81mvsm4n-fill">
                    <g id="tx_dncfilte_4jtbr81mvsm4n-fill">
                        <g>
                            <g>
                                <text x="0px" y="0px" style="font-family:'Arial-BoldMT', 'Arial', sans-serif;font-weight:700;font-size:20px;fill:rgb(44,44,44);">DNC Filtering</text>
                            </g>
                        </g>
                    </g>
                </g>
            </g>
            <g transform="matrix(1,0,0,1,368,444)">
                <g id="g-root-tx_failover_1hi76pw1mvzmks-fill">
                    <g id="tx_failover_1hi76pw1mvzmks-fill">
                        <g>
                            <g>
                                <text x="0px" y="0px" style="font-family:'Arial-BoldMT', 'Arial', sans-serif;font-weight:700;font-size:20px;fill:rgb(44,44,44);">Failover Support</text>
                            </g>
                        </g>
                    </g>
                </g>
            </g>
            <g id="g-root-tx__1cuvzk41mvvfgm-fill">
            </g>
            <g id="g-root-tx__mg34xw1mvznd1-fill">
            </g>
            <g transform="matrix(1,0,0,1,350,168)">
                <g id="g-root-tx_customre_1qaptj81mvwtu3-fill">
                    <g id="tx_customre_1qaptj81mvwtu3-fill">
                        <g>
                            <g>
                                <text x="0px" y="0px" style="font-family:'Arial-BoldMT', 'Arial', sans-serif;font-weight:700;font-size:20px;fill:rgb(44,44,44);">Custom Reports</text>
                            </g>
                        </g>
                    </g>
                </g>
            </g>
            <g id="g-root-tx_customiz_1d14qf81mvvh1c-fill" transform="matrix(1,0,0,1,62,482)">
                <g id="tx_customiz_1d14qf81mvvh1c-fill">
                    <g>
                        <g>
                            <g transform="matrix(1,0,0,1,16.82,34)">
                                <text x="0px" y="0px" style="font-family:'Arial-BoldMT', 'Arial', sans-serif;font-weight:700;font-size:20px;fill:rgb(44,44,44);">Customizable</text>
                            </g>
                            <g transform="matrix(1,0,0,1,43.2,58)">
                                <text x="0px" y="0px" style="font-family:'Arial-BoldMT', 'Arial', sans-serif;font-weight:700;font-size:20px;fill:rgb(44,44,44);">Dashboard</text>
                            </g>
                        </g>
                    </g>
                </g>
            </g>
            <g id="g-root-tx__qu17t01mvr6rp-fill">
            </g>
            <g transform="matrix(1,0,0,1,374,528)">
                <g id="g-root-tx_apiinteg_4lor0k1mw11xr-fill">
                    <g id="tx_apiinteg_4lor0k1mw11xr-fill">
                        <g>
                            <g>
                                <text x="0px" y="0px" style="font-family:'Arial-BoldMT', 'Arial', sans-serif;font-weight:700;font-size:20px;fill:rgb(44,44,44);">API Integration</text>
                            </g>
                        </g>
                    </g>
                </g>
            </g>
            <g id="g-root-tx__8d58k1mvvg95-fill">
            </g>
            <g id="g-root-tx__18kor7o1mw12iw-fill">
            </g>
            <g id="g-root-tx_timezone_1ur5sqs1mvr8ck-fill" transform="matrix(1,0,0,1,110,74)">
                <g id="tx_timezone_1ur5sqs1mvr8ck-fill">
                    <g>
                        <g>
                            <g transform="matrix(1,0,0,1,17.07,34)">
                                <text x="0px" y="0px" style="font-family:'Arial-BoldMT', 'Arial', sans-serif;font-weight:700;font-size:20px;fill:rgb(44,44,44);">T<tspan x="11.855px 17.412px " y="0px 0px ">im</tspan>e-Zone</text>
                            </g>
                            <g transform="matrix(1,0,0,1,15.55,58)">
                                <text x="0px" y="0px" style="font-family:'Arial-BoldMT', 'Arial', sans-serif;font-weight:700;font-size:20px;fill:rgb(44,44,44);">Scheduling</text>
                            </g>
                        </g>
                    </g>
                </g>
            </g>
            <g transform="matrix(1,0,0,1,362,360)">
                <g id="g-root-tx_callreco_qnsgxw1mvzmrl-fill">
                    <g id="tx_callreco_qnsgxw1mvzmrl-fill">
                        <g>
                            <g>
                                <text x="0px" y="0px" style="font-family:'Arial-BoldMT', 'Arial', sans-serif;font-weight:700;font-size:20px;fill:rgb(44,44,44);">Call Recording</text>
                            </g>
                        </g>
                    </g>
                </g>
            </g>
            <g id="g-root-cp_9_text-9_92r7b81mvpu68-stroke" transform="matrix(1,0,0,1,50,62)">
                <g id="cp_9_text-9_92r7b81mvpu68-stroke">
                    <g>
                        <path d="M10,118L10,10L238,10L238,118" style="fill:none;stroke:rgb(44,44,44);stroke-width:2px;"/>
                    </g>
                </g>
            </g>
            <g id="g-root-cp_9_stick-9_1hhkpms1mvptz6-stroke" transform="matrix(1,0,0,1,272,170)">
                <g id="cp_9_stick-9_1hhkpms1mvptz6-stroke">
                    <g>
                        <path d="M15.997,454L15.997,10" style="fill:none;stroke:rgb(44,44,44);stroke-width:2px;"/>
                    </g>
                </g>
            </g>
            <g id="g-root-cp_7_text-7_vb3o3o1mvpt70-stroke" transform="matrix(1,0,0,1,44,170)">
                <g id="cp_7_text-7_vb3o3o1mvpt70-stroke">
                    <g>
                        <path d="M10,94L10,10L238,10L238,94" style="fill:none;stroke:rgb(44,44,44);stroke-width:2px;"/>
                    </g>
                </g>
            </g>
            <g id="g-root-cp_7_stick-7_dkg4p01mvpsee-stroke" transform="matrix(1,0,0,1,266,254)">
                <g id="cp_7_stick-7_dkg4p01mvpsee-stroke">
                    <g>
                        <path d="M15.997,370L15.997,10" style="fill:none;stroke:rgb(44,44,44);stroke-width:2px;"/>
                    </g>
                </g>
            </g>
            <g id="g-root-cp_5_text-5_8zmbo1mvptzc-stroke" transform="matrix(1,0,0,1,38,254)">
                <g id="cp_5_text-5_8zmbo1mvptzc-stroke">
                    <g>
                        <path d="M10,118L10,10L238,10L238,118" style="fill:none;stroke:rgb(44,44,44);stroke-width:2px;"/>
                    </g>
                </g>
            </g>
            <g id="g-root-cp_5_stick-5_1hjg4w41mvpszm-stroke" transform="matrix(1,0,0,1,260,362)">
                <g id="cp_5_stick-5_1hjg4w41mvpszm-stroke">
                    <g>
                        <path d="M15.997,262L15.997,10" style="fill:none;stroke:rgb(44,44,44);stroke-width:2px;"/>
                    </g>
                </g>
            </g>
            <g id="g-root-cp_3_text-3_v2zhz81mvr6rw-stroke" transform="matrix(1,0,0,1,32,362)">
                <g id="cp_3_text-3_v2zhz81mvr6rw-stroke">
                    <g>
                        <path d="M10,118L10,10L238,10L238,118" style="fill:none;stroke:rgb(44,44,44);stroke-width:2px;"/>
                    </g>
                </g>
            </g>
            <g id="g-root-cp_3_stick-3_hrizlw1mvr8cu-stroke" transform="matrix(1,0,0,1,254,470)">
                <g id="cp_3_stick-3_hrizlw1mvr8cu-stroke">
                    <g>
                        <path d="M15.997,154L15.997,10" style="fill:none;stroke:rgb(44,44,44);stroke-width:2px;"/>
                    </g>
                </g>
            </g>
            <g id="g-root-cp_1_text-1_8wigg41mvr6rk-stroke" transform="matrix(1,0,0,1,26,470)">
                <g id="cp_1_text-1_8wigg41mvr6rk-stroke">
                    <g>
                        <path d="M238,118L238,10L10,10L10,118L232.5,118" style="fill:none;stroke:rgb(44,44,44);stroke-width:2px;"/>
                    </g>
                </g>
            </g>
            <g id="g-root-cp_1_stick-1_1um601w1mvr85e-stroke" transform="matrix(1,0,0,1,247.997,554)">
                <g id="cp_1_stick-1_1um601w1mvr85e-stroke">
                    <g>
                        <path d="M16,70L16,10M10,70L10,33" style="fill:none;stroke:rgb(44,44,44);stroke-width:2px;"/>
                    </g>
                </g>
            </g>
            <g id="g-root-cp_10_text-10_1hbbyro1mvr6kk-stroke" transform="matrix(1,0,0,1,278,122)">
                <g id="cp_10_text-10_1hbbyro1mvr6kk-stroke">
                    <g>
                        <path d="M238,94L238,10L10,10L10,94" style="fill:none;stroke:rgb(44,44,44);stroke-width:2px;"/>
                    </g>
                </g>
            </g>
            <g id="g-root-cp_10_stick-10_13zvgec1mvr85i-stroke" transform="matrix(1,0,0,1,278.003,206)">
                <g id="cp_10_stick-10_13zvgec1mvr85i-stroke">
                    <g>
                        <path d="M10.001,418L10.001,10" style="fill:none;stroke:rgb(44,44,44);stroke-width:2px;"/>
                    </g>
                </g>
            </g>
            <g id="g-root-cp_8_text-8_m97wzo1mvr7cw-stroke" transform="matrix(1,0,0,1,284,206)">
                <g id="cp_8_text-8_m97wzo1mvr7cw-stroke">
                    <g>
                        <path d="M238,118L238,10L10,10L10,118" style="fill:none;stroke:rgb(44,44,44);stroke-width:2px;"/>
                    </g>
                </g>
            </g>
            <g id="g-root-cp_8_stick-8_8xremc1mvr8xu-stroke" transform="matrix(1,0,0,1,284.003,314)">
                <g id="cp_8_stick-8_8xremc1mvr8xu-stroke">
                    <g>
                        <path d="M10.001,310L10.001,10" style="fill:none;stroke:rgb(44,44,44);stroke-width:2px;"/>
                    </g>
                </g>
            </g>
            <g id="g-root-cp_6_text-6_2qvgk1mvr6ks-stroke" transform="matrix(1,0,0,1,290,314)">
                <g id="cp_6_text-6_2qvgk1mvr6ks-stroke">
                    <g>
                        <path d="M238,94L238,10L10,10L10,94" style="fill:none;stroke:rgb(44,44,44);stroke-width:2px;"/>
                    </g>
                </g>
            </g>
            <g id="g-root-cp_6_stick-6_1lsef2c1mvr7ym-stroke" transform="matrix(1,0,0,1,290.003,398)">
                <g id="cp_6_stick-6_1lsef2c1mvr7ym-stroke">
                    <g>
                        <path d="M10.001,226L10.001,10" style="fill:none;stroke:rgb(44,44,44);stroke-width:2px;"/>
                    </g>
                </g>
            </g>
            <g id="g-root-cp_4_text-4_141qvno1mvr760-stroke" transform="matrix(1,0,0,1,296,398)">
                <g id="cp_4_text-4_141qvno1mvr760-stroke">
                    <g>
                        <path d="M238,94L238,10L10,10L10,94" style="fill:none;stroke:rgb(44,44,44);stroke-width:2px;"/>
                    </g>
                </g>
            </g>
            <g id="g-root-cp_4_stick-4_qqadac1mvr8qy-stroke" transform="matrix(1,0,0,1,296.003,482)">
                <g id="cp_4_stick-4_qqadac1mvr8qy-stroke">
                    <g>
                        <path d="M10.001,142L10.001,10" style="fill:none;stroke:rgb(44,44,44);stroke-width:2px;"/>
                    </g>
                </g>
            </g>
            <g id="g-root-cp_2_text-2_mb3c901mvr6dg-stroke" transform="matrix(1,0,0,1,302,482)">
                <g id="cp_2_text-2_mb3c901mvr6dg-stroke">
                    <g>
                        <path d="M10,94L10,10L238,10L238,94L15.5,94" style="fill:none;stroke:rgb(44,44,44);stroke-width:2px;"/>
                    </g>
                </g>
            </g>
            <g id="g-root-cp_2_stick-2_3ztms1mvr8r2-stroke" transform="matrix(1,0,0,1,302.003,565)">
                <g id="cp_2_stick-2_3ztms1mvr8r2-stroke">
                    <g>
                        <path d="M10.001,59L10.001,10M15.997,59L15.997,10" style="fill:none;stroke:rgb(44,44,44);stroke-width:2px;"/>
                    </g>
                </g>
            </g>
            <g id="g-root-cp_0_g-0_1qa3cg41mvr6yo-stroke" transform="matrix(1,0,0,1,248,614)">
                <g id="cp_0_g-0_1qa3cg41mvr6yo-stroke">
                    <g>
                        <path d="M30,58L40.001,82.001L50.001,58L30,58Z" style="fill:none;stroke:rgb(44,44,44);stroke-width:2px;"/>
                    </g>
                </g>
                <g id="cp_0_g-0_1qa3cg41mvr6yo-stroke1" serif:id="cp_0_g-0_1qa3cg41mvr6yo-stroke">
                    <g>
                        <path d="M70.001,10L10,10L30,57.999L50.001,57.999L70.001,10Z" style="fill:none;stroke:rgb(44,44,44);stroke-width:2px;"/>
                    </g>
                </g>
            </g>
            <g id="g-root-ic_1_18itbyc1mvu03o-stroke" transform="matrix(1,0,0,1,218,266)">
                <g id="ic_1_18itbyc1mvu03o-stroke">
                    <g>
                        <path d="M15.25,37C15.25,39.071 16.929,40.75 19,40.75C21.071,40.75 22.75,39.071 22.75,37C22.75,34.929 21.071,33.25 19,33.25C16.929,33.25 15.25,34.929 15.25,37ZM43,23.5L45.25,21.25L41.5,17.5L43.75,15.25C44.578,14.422 44.578,13.079 43.75,12.25C42.921,11.422 41.578,11.422 40.75,12.25L23.133,29.868C19.541,27.783 14.96,28.686 12.428,31.977C9.896,35.269 10.199,39.928 13.135,42.865C16.072,45.801 20.731,46.104 24.023,43.572C27.314,41.04 28.217,36.459 26.133,32.868L34.75,24.25L37.75,27.25L40,25L37,22L39.25,19.75L43,23.5Z" style="fill:none;stroke:rgb(44,44,44);stroke-width:2px;"/>
                    </g>
                </g>
            </g>
            <g id="g-root-ic_2_v4ux8k1mvzo5f-stroke" transform="matrix(1,0,0,1,302,326)">
                <g id="ic_2_v4ux8k1mvzo5f-stroke">
                    <g>
                        <path d="M11.286,28C11.286,31.55 14.164,34.429 17.714,34.429C21.265,34.429 24.143,31.55 24.143,28C24.143,24.45 21.265,21.571 17.714,21.571C14.164,21.571 11.286,24.45 11.286,28M31.857,28C31.857,31.55 34.735,34.429 38.286,34.429C41.836,34.429 44.714,31.55 44.714,28C44.714,24.45 41.836,21.571 38.286,21.571C34.735,21.571 31.857,24.45 31.857,28M17.714,34.429L38.286,34.429" style="fill:none;stroke:rgb(44,44,44);stroke-width:2px;"/>
                    </g>
                </g>
            </g>
            <g id="g-root-ic_tran_4mapw1mvy9s8-stroke" transform="matrix(1,0,0,1,296,218)">
                <g id="ic_tran_4mapw1mvy9s8-stroke">
                    <g>
                        <path d="M26.714,44.714L34.789,25.866C34.944,25.492 35.309,25.249 35.714,25.249C36.119,25.249 36.484,25.492 36.64,25.866L44.714,44.714M30.34,36.254L41.089,36.254M11.286,16.429L34.429,16.429M22.857,11.286L22.857,16.429M30.571,16.429L15.143,34.429M15.143,16.429L25.274,28.257" style="fill:none;stroke:rgb(44,44,44);stroke-width:2px;"/>
                    </g>
                </g>
            </g>
            <g id="g-root-ic_acti_dcyfno1mvvg9b-stroke" transform="matrix(1,0,0,1,212,374)">
                <g id="ic_acti_dcyfno1mvvg9b-stroke">
                    <g>
                        <path d="M17.714,11.286L38.286,11.286C38.286,11.286 40.857,11.286 40.857,13.857L40.857,34.429C40.857,34.429 40.857,37 38.286,37L17.714,37C17.714,37 15.143,37 15.143,34.429L15.143,13.857C15.143,13.857 15.143,11.286 17.714,11.286M21.571,24.143C21.571,27.693 24.45,30.571 28,30.571C31.55,30.571 34.429,27.693 34.429,24.143C34.429,20.592 31.55,17.714 28,17.714C24.45,17.714 21.571,20.592 21.571,24.143M31.857,37L31.857,44.714M24.143,37L24.143,44.714M20.286,44.714L35.714,44.714" style="fill:none;stroke:rgb(44,44,44);stroke-width:2px;"/>
                    </g>
                </g>
            </g>
            <g id="g-root-ic_1_1ur5sqs1mvslqh-stroke" transform="matrix(1,0,0,1,224,182)">
                <g id="ic_1_1ur5sqs1mvslqh-stroke">
                    <g>
                        <path d="M36.25,30.25L36.25,39.25M40.75,34.75L31.75,34.75M37.052,45.1L37.882,44.785C41.827,43.285 45.25,39.499 45.25,35.278L45.25,30.178C45.25,29.554 44.88,28.99 44.308,28.741C41.719,27.773 38.981,27.265 36.217,27.241C33.474,27.264 30.758,27.772 28.192,28.741C27.62,28.989 27.249,29.554 27.25,30.178L27.25,35.267C27.25,39.489 30.607,43.272 34.552,44.775L35.382,45.09C35.92,45.295 36.514,45.295 37.052,45.09L37.052,45.1ZM22.75,31.75L13,31.75C11.757,31.75 10.75,30.743 10.75,29.5L10.75,13C10.75,11.757 11.757,10.75 13,10.75L40,10.75C41.243,10.75 42.25,11.757 42.25,13L42.25,24.25M41.6,11.419L26.5,23.5L11.398,11.419" style="fill:none;stroke:rgb(44,44,44);stroke-width:2px;"/>
                    </g>
                </g>
            </g>
            <g id="g-root-ic_serv_1lz9n0k1mvznym-stroke" transform="matrix(1,0,0,1,308,410)">
                <g id="ic_serv_1lz9n0k1mvznym-stroke">
                    <g>
                        <path d="M40.75,20.39C40.725,18.911 40.099,17.505 39.016,16.497C37.933,15.488 36.486,14.964 35.008,15.044C33.681,12.395 30.963,10.729 28,10.75C23.965,10.692 20.579,13.777 20.263,17.8C19.059,17.534 17.799,17.82 16.828,18.581C15.858,19.342 15.279,20.497 15.25,21.73C15.25,25.813 19.684,25.75 19.684,25.75L35.761,25.75C35.761,25.75 40.75,25.119 40.75,20.39ZM20.125,41.124C19.918,41.124 19.75,41.291 19.75,41.498C19.75,41.705 19.917,41.873 20.124,41.873C20.331,41.874 20.499,41.707 20.5,41.5C20.5,41.4 20.461,41.305 20.391,41.234C20.32,41.164 20.225,41.125 20.125,41.125M23.875,41.124C23.668,41.124 23.5,41.291 23.5,41.498C23.5,41.705 23.667,41.873 23.874,41.873C24.081,41.874 24.249,41.707 24.25,41.5C24.25,41.4 24.211,41.305 24.141,41.234C24.07,41.164 23.975,41.125 23.875,41.125M40.75,43C40.75,44.243 39.743,45.25 38.5,45.25L17.5,45.25C16.257,45.25 15.25,44.243 15.25,43L15.25,40C15.25,38.757 16.257,37.75 17.5,37.75L38.5,37.75C39.743,37.75 40.75,38.757 40.75,40L40.75,43ZM20.125,33.624C19.918,33.624 19.75,33.791 19.75,33.998C19.75,34.205 19.917,34.373 20.124,34.373C20.331,34.374 20.499,34.207 20.5,34C20.5,33.9 20.461,33.805 20.391,33.734C20.32,33.664 20.225,33.625 20.125,33.625M23.875,33.624C23.668,33.624 23.5,33.791 23.5,33.998C23.5,34.205 23.667,34.373 23.874,34.373C24.081,34.374 24.249,34.207 24.25,34C24.25,33.9 24.211,33.805 24.141,33.734C24.07,33.664 23.975,33.625 23.875,33.625M40.75,35.5C40.75,36.743 39.743,37.75 38.5,37.75L17.5,37.75C16.257,37.75 15.25,36.743 15.25,35.5L15.25,32.5C15.25,31.257 16.257,30.25 17.5,30.25L38.5,30.25C39.743,30.25 40.75,31.257 40.75,32.5L40.75,35.5Z" style="fill:none;stroke:rgb(44,44,44);stroke-width:2px;"/>
                    </g>
                </g>
            </g>
            <g id="g-root-ic_2_147d5fo1mvvgua-stroke" transform="matrix(1,0,0,1,206,482)">
                <g id="ic_2_147d5fo1mvvgua-stroke">
                    <g>
                        <path d="M37,11.286L42.143,11.286C43.563,11.286 44.714,12.437 44.714,13.857L44.714,19M11.286,19L11.286,13.857C11.286,12.437 12.437,11.286 13.857,11.286L19,11.286M37,44.714L42.143,44.714C43.563,44.714 44.714,43.563 44.714,42.143L44.714,37M11.286,37L11.286,42.143C11.286,43.563 12.437,44.714 13.857,44.714L19,44.714M19,28C19,32.971 23.029,37 28,37C32.971,37 37,32.971 37,28C37,23.029 32.971,19 28,19C23.029,19 19,23.029 19,28" style="fill:none;stroke:rgb(44,44,44);stroke-width:2px;"/>
                    </g>
                </g>
            </g>
            <g id="g-root-ic_pie_1urs9tw1mvwv7x-stroke" transform="matrix(1,0,0,1,290,134)">
                <g id="ic_pie_1urs9tw1mvwv7x-stroke">
                    <g>
                        <path d="M11.125,28C11.125,37.32 18.68,44.875 28,44.875C37.32,44.875 44.875,37.32 44.875,28C44.875,18.68 37.32,11.125 28,11.125C18.68,11.125 11.125,18.68 11.125,28M22.75,28C22.75,30.899 25.101,33.25 28,33.25C30.899,33.25 33.25,30.899 33.25,28C33.25,25.101 30.899,22.75 28,22.75C25.101,22.75 22.75,25.101 22.75,28M28,11.125L28,22.75M44.875,28L33.25,28M16.082,39.918L24.288,31.712" style="fill:none;stroke:rgb(44,44,44);stroke-width:2px;"/>
                    </g>
                </g>
            </g>
            <g id="g-root-ic_six_1qd7pvo1mvr7da-stroke" transform="matrix(1,0,0,1,230,74)">
                <g id="ic_six_1qd7pvo1mvr7da-stroke">
                    <g>
                        <path d="M10.75,28C10.75,37.527 18.473,45.25 28,45.25C37.527,45.25 45.25,37.527 45.25,28C45.25,18.473 37.527,10.75 28,10.75C18.473,10.75 10.75,18.473 10.75,28M37.75,28L28,28L28,34M45.25,28L41.5,28M43.936,34.605L40.471,33.169M40.192,40.204L37.542,37.55M34.59,43.942L33.157,40.475M27.984,45.25L27.988,41.5" style="fill:none;stroke:rgb(44,44,44);stroke-width:2px;"/>
                    </g>
                </g>
            </g>
            <g id="g-root-ic_3_4nk69w1mw10y1-stroke" transform="matrix(1,0,0,1,314,494)">
                <g id="ic_3_4nk69w1mw10y1-stroke">
                    <g>
                        <path d="M33.25,25.75L33.25,43.75C33.25,44.578 32.578,45.25 31.75,45.25L12.25,45.25C11.422,45.25 10.75,44.578 10.75,43.75L10.75,24.25C10.75,23.422 11.422,22.75 12.25,22.75L18.25,22.75M37.75,15.25L29.5,15.25C25,15.25 23.5,19.438 23.5,22.75C23.606,24.936 24.393,27.033 25.75,28.75L25.75,25C25.75,23.5 26.5,22.75 29.5,22.75L37.75,22.75L37.75,27.25L45.25,19L37.75,10.75L37.75,15.25Z" style="fill:none;stroke:rgb(44,44,44);stroke-width:2px;"/>
                    </g>
                </g>
            </g>
        </g>
    </g>
</svg>
