<?xml version="1.0" encoding="UTF-8" standalone="no"?>
<!DOCTYPE svg PUBLIC "-//W3C//DTD SVG 1.1//EN" "http://www.w3.org/Graphics/SVG/1.1/DTD/svg11.dtd">
<svg width="100%" height="100%" viewBox="0 0 576 638" version="1.1" xmlns="http://www.w3.org/2000/svg" xmlns:xlink="http://www.w3.org/1999/xlink" xml:space="preserve" xmlns:serif="http://www.serif.com/" style="fill-rule:evenodd;clip-rule:evenodd;stroke-linecap:round;stroke-linejoin:round;">
    <g id="items" transform="matrix(1.09949,0,0,1.09949,-28.6532,-43.0308)">
        <g id="blend">
            <g id="g-root-cp_7_text-7_dcz1p21ojnci4-fill" transform="matrix(1,0,0,1,50,50)">
                <g id="cp_7_text-7_dcz1p21ojnci4-fill">
                    <g>
                        <rect x="10" y="10" width="228" height="108" style="fill:rgb(26,195,251);"/>
                    </g>
                </g>
            </g>
            <g id="g-root-cp_7_stick-7_1lrsk0m1ojncb2-fill" transform="matrix(1,0,0,1,270,158)">
                <g id="cp_7_stick-7_1lrsk0m1ojncb2-fill">
                    <g>
                        <rect x="10" y="10" width="8" height="360" style="fill:rgb(26,195,251);"/>
                    </g>
                </g>
            </g>
            <g id="g-root-cp_5_text-5_140ijiu1ojneo8-fill" transform="matrix(1,0,0,1,42,158)">
                <g id="cp_5_text-5_140ijiu1ojneo8-fill">
                    <g>
                        <rect x="10" y="10" width="228" height="108" style="fill:rgb(203,104,249);"/>
                    </g>
                </g>
            </g>
            <g id="g-root-cp_5_stick-5_de7zva1ojneoa-fill" transform="matrix(1,0,0,1,262,266)">
                <g id="cp_5_stick-5_de7zva1ojneoa-fill">
                    <g>
                        <rect x="10" y="10" width="8" height="252" style="fill:rgb(203,104,249);"/>
                    </g>
                </g>
            </g>
            <g id="g-root-cp_3_text-3_3dyl21ojnd3g-fill" transform="matrix(1,0,0,1,34,266)">
                <g id="cp_3_text-3_3dyl21ojnd3g-fill">
                    <g>
                        <rect x="10" y="10" width="228" height="108" style="fill:rgb(247,148,56);"/>
                    </g>
                </g>
            </g>
            <g id="g-root-cp_3_stick-3_1hduh5i1ojnc3q-fill" transform="matrix(1,0,0,1,254,374)">
                <g id="cp_3_stick-3_1hduh5i1ojnc3q-fill">
                    <g>
                        <rect x="10" y="10" width="8" height="144" style="fill:rgb(247,148,56);"/>
                    </g>
                </g>
            </g>
            <g id="g-root-cp_1_text-1_zmkgnq1ojnegw-fill" transform="matrix(1,0,0,1,26,374)">
                <g id="cp_1_text-1_zmkgnq1ojnegw-fill">
                    <g>
                        <rect x="10" y="10" width="228" height="108" style="fill:rgb(67,221,147);"/>
                    </g>
                </g>
            </g>
            <g id="g-root-cp_1_stick-1_mbqfdi1ojncw2-fill" transform="matrix(1,0,0,1,246,458)">
                <g id="cp_1_stick-1_mbqfdi1ojncw2-fill">
                    <g>
                        <rect x="10" y="10" width="8" height="60" style="fill:rgb(67,221,147);"/>
                    </g>
                </g>
            </g>
            <g id="g-root-cp_8_text-8_909x061ojneh0-fill" transform="matrix(1,0,0,1,278,86)">
                <g id="cp_8_text-8_909x061ojneh0-fill">
                    <g>
                        <rect x="10" y="10" width="228" height="84" style="fill:rgb(166,218,55);"/>
                    </g>
                </g>
            </g>
            <g id="g-root-cp_8_stick-8_1luwxg61ojndhq-fill" transform="matrix(1,0,0,1,278,170)">
                <g id="cp_8_stick-8_1luwxg61ojndhq-fill">
                    <g>
                        <rect x="10" y="10" width="8" height="348" style="fill:rgb(166,218,55);"/>
                    </g>
                </g>
            </g>
            <g id="g-root-cp_6_text-6_1cz9x7a1ojnf28-fill" transform="matrix(1,0,0,1,286,170)">
                <g id="cp_6_text-6_1cz9x7a1ojnf28-fill">
                    <g>
                        <rect x="10" y="10" width="228" height="108" style="fill:rgb(243,102,187);"/>
                    </g>
                </g>
            </g>
            <g id="g-root-cp_6_stick-6_qssvo61ojnea2-fill" transform="matrix(1,0,0,1,286,278)">
                <g id="cp_6_stick-6_qssvo61ojnea2-fill">
                    <g>
                        <rect x="10" y="10" width="8" height="240" style="fill:rgb(243,102,187);"/>
                    </g>
                </g>
            </g>
            <g id="g-root-cp_4_text-4_dhyudy1ojncp8-fill" transform="matrix(1,0,0,1,294,278)">
                <g id="cp_4_text-4_dhyudy1ojncp8-fill">
                    <g>
                        <rect x="10" y="10" width="228" height="84" style="fill:rgb(251,103,98);"/>
                    </g>
                </g>
            </g>
            <g id="g-root-cp_4_stick-4_1ursvva1ojneva-fill" transform="matrix(1,0,0,1,294,362)">
                <g id="cp_4_stick-4_1ursvva1ojneva-fill">
                    <g>
                        <rect x="10" y="10" width="8" height="156" style="fill:rgb(251,103,98);"/>
                    </g>
                </g>
            </g>
            <g id="g-root-cp_2_text-2_1hgyul21ojndag-fill" transform="matrix(1,0,0,1,302,362)">
                <g id="cp_2_text-2_1hgyul21ojndag-fill">
                    <g>
                        <rect x="10" y="10" width="228" height="108" style="fill:rgb(255,231,17);"/>
                    </g>
                </g>
            </g>
            <g id="g-root-cp_2_stick-2_145ic7q1ojneve-fill" transform="matrix(1,0,0,1,302,446)">
                <g id="cp_2_stick-2_145ic7q1ojneve-fill">
                    <g>
                        <rect x="10" y="10" width="8" height="72" style="fill:rgb(255,231,17);"/>
                    </g>
                </g>
            </g>
            <g id="g-root-cp_0_g-0_meust21ojne2s-fill" transform="matrix(1,0,0,1,246,518)">
                <g id="cp_0_g-0_meust21ojne2s-fill">
                    <g>
                        <path d="M31.332,61L41.999,86L52.671,61L31.332,61Z" style="fill:rgb(232,232,232);"/>
                    </g>
                </g>
                <g id="cp_0_g-0_meust21ojne2s-fill1" serif:id="cp_0_g-0_meust21ojne2s-fill">
                    <g>
                        <path d="M74,10L10,10L31.333,61L52.667,61L74,10Z" style="fill:rgb(232,232,232);"/>
                    </g>
                </g>
            </g>
            <g id="g-root-tx__1qdut061ojos1w-fill">
            </g>
            <g id="g-root-tx__v3040m1ojudq8-fill">
            </g>
            <g id="g-root-tx_governme_zpou3a1ojot1n-fill" transform="matrix(1,0,0,1,90,170)">
                <g id="tx_governme_zpou3a1ojot1n-fill">
                    <g>
                        <g>
                            <g transform="matrix(1,0,0,1,17.78,34)">
                                <text x="0px" y="0px" style="font-family:'Arial-BoldMT', 'Arial', sans-serif;font-weight:700;font-size:20px;fill:rgb(44,44,44);">Government</text>
                            </g>
                            <g transform="matrix(1,0,0,1,44.33,58)">
                                <text x="0px" y="0px" style="font-family:'Arial-BoldMT', 'Arial', sans-serif;font-weight:700;font-size:20px;fill:rgb(44,44,44);">Agencies</text>
                            </g>
                        </g>
                    </g>
                </g>
            </g>
            <g id="g-root-tx_bposrese_v7zwpi1ojq87i-fill" transform="matrix(1,0,0,1,106,278)">
                <g id="tx_bposrese_v7zwpi1ojq87i-fill">
                    <g>
                        <g>
                            <g transform="matrix(1,0,0,1,36.18,34)">
                                <text x="0px" y="0px" style="font-family:'Arial-BoldMT', 'Arial', sans-serif;font-weight:700;font-size:20px;fill:rgb(44,44,44);">BPOs &amp;</text>
                            </g>
                            <g transform="matrix(1,0,0,1,20.33,58)">
                                <text x="0px" y="0px" style="font-family:'Arial-BoldMT', 'Arial', sans-serif;font-weight:700;font-size:20px;fill:rgb(44,44,44);">Resellers</text>
                            </g>
                        </g>
                    </g>
                </g>
            </g>
            <g id="g-root-tx__qp215i1ojszd1-fill">
            </g>
            <g id="g-root-tx__1ulk5061ojorgh-fill">
            </g>
            <g transform="matrix(1,0,0,1,350,132)">
                <g id="g-root-tx_ittechfi_w28m1ojt0cs-fill">
                    <g id="tx_ittechfi_w28m1ojt0cs-fill">
                        <g>
                            <g>
                                <text x="0px" y="0px" style="font-family:'Arial-BoldMT', 'Arial', sans-serif;font-weight:700;font-size:20px;fill:rgb(44,44,44);">IT &amp; T<tspan x="54.063px 65.186px " y="0px 0px ">ec</tspan>h Firms</text>
                            </g>
                        </g>
                    </g>
                </g>
            </g>
            <g transform="matrix(1,0,0,1,366,324)">
                <g id="g-root-tx_healthca_v64hg61ojvrii-fill">
                    <g id="tx_healthca_v64hg61ojvrii-fill">
                        <g>
                            <g>
                                <text x="0px" y="0px" style="font-family:'Arial-BoldMT', 'Arial', sans-serif;font-weight:700;font-size:20px;fill:rgb(44,44,44);">Healthcare</text>
                            </g>
                        </g>
                    </g>
                </g>
            </g>
            <g id="g-root-tx__1lw5vme1ojq77r-fill">
            </g>
            <g id="g-root-tx__40fo61ojvsar-fill">
            </g>
            <g id="g-root-tx_hospital_4otqhi1ojt05j-fill" transform="matrix(1,0,0,1,346,182)">
                <g id="tx_hospital_4otqhi1ojt05j-fill">
                    <g>
                        <g>
                            <g transform="matrix(1,0,0,1,12,34)">
                                <text x="0px" y="0px" style="font-family:'Arial-BoldMT', 'Arial', sans-serif;font-weight:700;font-size:20px;fill:rgb(44,44,44);">Hospitality</text>
                            </g>
                            <g transform="matrix(1,0,0,1,12,58)">
                                <text x="0px" y="0px" style="font-family:'Arial-BoldMT', 'Arial', sans-serif;font-weight:700;font-size:20px;fill:rgb(44,44,44);">Groups</text>
                            </g>
                        </g>
                    </g>
                </g>
            </g>
            <g id="g-root-tx_corporat_1cxehxy1ojrkzt-fill" transform="matrix(1,0,0,1,86,386)">
                <g id="tx_corporat_1cxehxy1ojrkzt-fill">
                    <g>
                        <g>
                            <g transform="matrix(1,0,0,1,26.52,34)">
                                <text x="0px" y="0px" style="font-family:'Arial-BoldMT', 'Arial', sans-serif;font-weight:700;font-size:20px;fill:rgb(44,44,44);">Corporate</text>
                            </g>
                            <g transform="matrix(1,0,0,1,13.45,58)">
                                <text x="0px" y="0px" style="font-family:'Arial-BoldMT', 'Arial', sans-serif;font-weight:700;font-size:20px;fill:rgb(44,44,44);">Enterprises</text>
                            </g>
                        </g>
                    </g>
                </g>
            </g>
            <g id="g-root-tx_educatio_1q5qmvq1ojx91h-fill" transform="matrix(1,0,0,1,362,374)">
                <g id="tx_educatio_1q5qmvq1ojx91h-fill">
                    <g>
                        <g>
                            <g transform="matrix(1,0,0,1,12,34)">
                                <text x="0px" y="0px" style="font-family:'Arial-BoldMT', 'Arial', sans-serif;font-weight:700;font-size:20px;fill:rgb(44,44,44);">Education</text>
                            </g>
                            <g transform="matrix(1,0,0,1,12,58)">
                                <text x="0px" y="0px" style="font-family:'Arial-BoldMT', 'Arial', sans-serif;font-weight:700;font-size:20px;fill:rgb(44,44,44);">Providers</text>
                            </g>
                        </g>
                    </g>
                </g>
            </g>
            <g id="g-root-tx__4kgevq1ojrk76-fill">
            </g>
            <g id="g-root-tx__qofk2e1ojx6oe-fill">
            </g>
            <g id="g-root-tx_ecommerc_zrk9cm1ojneo0-fill" transform="matrix(1,0,0,1,98,62)">
                <g id="tx_ecommerc_zrk9cm1ojneo0-fill">
                    <g>
                        <g>
                            <g transform="matrix(1,0,0,1,13.38,34)">
                                <text x="0px" y="0px" style="font-family:'Arial-BoldMT', 'Arial', sans-serif;font-weight:700;font-size:20px;fill:rgb(44,44,44);">E-commerce</text>
                            </g>
                            <g transform="matrix(1,0,0,1,67.42,58)">
                                <text x="0px" y="0px" style="font-family:'Arial-BoldMT', 'Arial', sans-serif;font-weight:700;font-size:20px;fill:rgb(44,44,44);">T<tspan x="10.732px 21.855px " y="0px 0px ">ea</tspan>ms</text>
                            </g>
                        </g>
                    </g>
                </g>
            </g>
            <g id="g-root-cp_7_text-7_dcz1p21ojnci4-stroke" transform="matrix(1,0,0,1,50,50)">
                <g id="cp_7_text-7_dcz1p21ojnci4-stroke">
                    <g>
                        <path d="M10,118L10,10L238,10L238,118" style="fill:none;stroke:rgb(44,44,44);stroke-width:2px;"/>
                    </g>
                </g>
            </g>
            <g id="g-root-cp_7_stick-7_1lrsk0m1ojncb2-stroke" transform="matrix(1,0,0,1,270,158)">
                <g id="cp_7_stick-7_1lrsk0m1ojncb2-stroke">
                    <g>
                        <path d="M17.996,370L17.996,10" style="fill:none;stroke:rgb(44,44,44);stroke-width:2px;"/>
                    </g>
                </g>
            </g>
            <g id="g-root-cp_5_text-5_140ijiu1ojneo8-stroke" transform="matrix(1,0,0,1,42,158)">
                <g id="cp_5_text-5_140ijiu1ojneo8-stroke">
                    <g>
                        <path d="M10,118L10,10L238,10L238,118" style="fill:none;stroke:rgb(44,44,44);stroke-width:2px;"/>
                    </g>
                </g>
            </g>
            <g id="g-root-cp_5_stick-5_de7zva1ojneoa-stroke" transform="matrix(1,0,0,1,262,266)">
                <g id="cp_5_stick-5_de7zva1ojneoa-stroke">
                    <g>
                        <path d="M17.996,262L17.996,10" style="fill:none;stroke:rgb(44,44,44);stroke-width:2px;"/>
                    </g>
                </g>
            </g>
            <g id="g-root-cp_3_text-3_3dyl21ojnd3g-stroke" transform="matrix(1,0,0,1,34,266)">
                <g id="cp_3_text-3_3dyl21ojnd3g-stroke">
                    <g>
                        <path d="M10,118L10,10L238,10L238,118" style="fill:none;stroke:rgb(44,44,44);stroke-width:2px;"/>
                    </g>
                </g>
            </g>
            <g id="g-root-cp_3_stick-3_1hduh5i1ojnc3q-stroke" transform="matrix(1,0,0,1,254,374)">
                <g id="cp_3_stick-3_1hduh5i1ojnc3q-stroke">
                    <g>
                        <path d="M17.996,154L17.996,10" style="fill:none;stroke:rgb(44,44,44);stroke-width:2px;"/>
                    </g>
                </g>
            </g>
            <g id="g-root-cp_1_text-1_zmkgnq1ojnegw-stroke" transform="matrix(1,0,0,1,26,374)">
                <g id="cp_1_text-1_zmkgnq1ojnegw-stroke">
                    <g>
                        <path d="M238,118L238,10L10,10L10,118L230,118" style="fill:none;stroke:rgb(44,44,44);stroke-width:2px;"/>
                    </g>
                </g>
            </g>
            <g id="g-root-cp_1_stick-1_mbqfdi1ojncw2-stroke" transform="matrix(1,0,0,1,246,458)">
                <g id="cp_1_stick-1_mbqfdi1ojncw2-stroke">
                    <g>
                        <path d="M17.996,70L17.996,10M10,70L10,34" style="fill:none;stroke:rgb(44,44,44);stroke-width:2px;"/>
                    </g>
                </g>
            </g>
            <g id="g-root-cp_8_text-8_909x061ojneh0-stroke" transform="matrix(1,0,0,1,278,86)">
                <g id="cp_8_text-8_909x061ojneh0-stroke">
                    <g>
                        <path d="M238,94L238,10L10,10L10,94" style="fill:none;stroke:rgb(44,44,44);stroke-width:2px;"/>
                    </g>
                </g>
            </g>
            <g id="g-root-cp_8_stick-8_1luwxg61ojndhq-stroke" transform="matrix(1,0,0,1,278,170)">
                <g id="cp_8_stick-8_1luwxg61ojndhq-stroke">
                    <g>
                        <path d="M10.004,358L10.004,10" style="fill:none;stroke:rgb(44,44,44);stroke-width:2px;"/>
                    </g>
                </g>
            </g>
            <g id="g-root-cp_6_text-6_1cz9x7a1ojnf28-stroke" transform="matrix(1,0,0,1,286,170)">
                <g id="cp_6_text-6_1cz9x7a1ojnf28-stroke">
                    <g>
                        <path d="M238,118L238,10L10,10L10,118" style="fill:none;stroke:rgb(44,44,44);stroke-width:2px;"/>
                    </g>
                </g>
            </g>
            <g id="g-root-cp_6_stick-6_qssvo61ojnea2-stroke" transform="matrix(1,0,0,1,286,278)">
                <g id="cp_6_stick-6_qssvo61ojnea2-stroke">
                    <g>
                        <path d="M10.004,250L10.004,10" style="fill:none;stroke:rgb(44,44,44);stroke-width:2px;"/>
                    </g>
                </g>
            </g>
            <g id="g-root-cp_4_text-4_dhyudy1ojncp8-stroke" transform="matrix(1,0,0,1,294,278)">
                <g id="cp_4_text-4_dhyudy1ojncp8-stroke">
                    <g>
                        <path d="M238,94L238,10L10,10L10,94" style="fill:none;stroke:rgb(44,44,44);stroke-width:2px;"/>
                    </g>
                </g>
            </g>
            <g id="g-root-cp_4_stick-4_1ursvva1ojneva-stroke" transform="matrix(1,0,0,1,294,362)">
                <g id="cp_4_stick-4_1ursvva1ojneva-stroke">
                    <g>
                        <path d="M10.004,166L10.004,10" style="fill:none;stroke:rgb(44,44,44);stroke-width:2px;"/>
                    </g>
                </g>
            </g>
            <g id="g-root-cp_2_text-2_1hgyul21ojndag-stroke" transform="matrix(1,0,0,1,302,362)">
                <g id="cp_2_text-2_1hgyul21ojndag-stroke">
                    <g>
                        <path d="M10,118L10,10L238,10L238,118L18,118" style="fill:none;stroke:rgb(44,44,44);stroke-width:2px;"/>
                    </g>
                </g>
            </g>
            <g id="g-root-cp_2_stick-2_145ic7q1ojneve-stroke" transform="matrix(1,0,0,1,302,446)">
                <g id="cp_2_stick-2_145ic7q1ojneve-stroke">
                    <g>
                        <path d="M10.004,82L10.004,10M18,82L18,34" style="fill:none;stroke:rgb(44,44,44);stroke-width:2px;"/>
                    </g>
                </g>
            </g>
            <g id="g-root-cp_0_g-0_meust21ojne2s-stroke" transform="matrix(1,0,0,1,246,518)">
                <g id="cp_0_g-0_meust21ojne2s-stroke">
                    <g>
                        <path d="M31.332,61L41.999,86L52.671,61L31.332,61Z" style="fill:none;stroke:rgb(44,44,44);stroke-width:2px;"/>
                    </g>
                </g>
                <g id="cp_0_g-0_meust21ojne2s-stroke1" serif:id="cp_0_g-0_meust21ojne2s-stroke">
                    <g>
                        <path d="M74,10L10,10L31.333,61L52.667,61L74,10Z" style="fill:none;stroke:rgb(44,44,44);stroke-width:2px;"/>
                    </g>
                </g>
            </g>
            <g id="g-root-ic_cog_hz1aom1ojq5mw-stroke" transform="matrix(1,0,0,1,214,278)">
                <g id="ic_cog_hz1aom1ojq5mw-stroke">
                    <g>
                        <path d="M22.6,27.618C22.6,24.635 25.018,22.218 28,22.218C30.982,22.218 33.4,24.635 33.4,27.618M16.705,33.085L16.687,33.085C13.672,33.756 11.528,36.431 11.528,39.52L11.528,40.824C11.528,41.406 11.759,41.965 12.171,42.377C12.583,42.789 13.142,43.02 13.725,43.02L19.215,43.02C20.428,43.02 21.412,42.037 21.412,40.824C21.412,39.611 22.395,38.627 23.608,38.627L32.392,38.627C33.605,38.627 34.588,39.611 34.588,40.824C34.588,42.037 35.572,43.02 36.786,43.02L42.276,43.02C42.858,43.02 43.417,42.789 43.829,42.377C44.241,41.965 44.472,41.406 44.472,40.824L44.472,39.52C44.471,36.432 42.327,33.759 39.313,33.088L39.295,33.088C31.834,31.643 24.166,31.642 16.705,33.085ZM42.324,30.637C42.532,29.645 42.638,28.633 42.638,27.619C42.638,27.024 42.602,26.429 42.529,25.839C42.446,25.123 41.871,24.565 41.154,24.504L39.042,24.331C38.819,23.568 38.518,22.831 38.141,22.131L39.508,20.521C39.962,20 39.995,19.235 39.586,18.677C38.822,17.689 37.935,16.802 36.946,16.038C36.389,15.628 35.622,15.661 35.103,16.117L33.493,17.482C32.793,17.107 32.056,16.806 31.294,16.582L31.12,14.472C31.059,13.754 30.501,13.178 29.785,13.095C28.603,12.95 27.409,12.95 26.227,13.095C25.511,13.178 24.953,13.754 24.892,14.472L24.712,16.576C23.95,16.8 23.213,17.101 22.513,17.476L20.904,16.111C20.382,15.657 19.616,15.626 19.06,16.038C18.071,16.802 17.184,17.689 16.42,18.677C16.011,19.235 16.044,20 16.498,20.521L17.865,22.131C17.488,22.831 17.187,23.568 16.965,24.331L14.852,24.504C14.135,24.565 13.56,25.123 13.477,25.839C13.404,26.429 13.368,27.024 13.368,27.619C13.368,28.633 13.474,29.645 13.682,30.637" style="fill:none;stroke:rgb(44,44,44);stroke-width:2px;"/>
                    </g>
                </g>
            </g>
            <g id="g-root-ic_shie_v7dfme1ojvtok-stroke" transform="matrix(1,0,0,1,306,290)">
                <g id="ic_shie_v7dfme1ojvtok-stroke">
                    <g>
                        <path d="M36.25,23.5C36.25,23.086 35.914,22.75 35.5,22.75L31.75,22.75L31.75,19C31.75,18.586 31.414,18.25 31,18.25L25,18.25C24.586,18.25 24.25,18.586 24.25,19L24.25,22.75L20.5,22.75C20.086,22.75 19.75,23.086 19.75,23.5L19.75,29.5C19.75,29.914 20.086,30.25 20.5,30.25L24.25,30.25L24.25,34C24.25,34.414 24.586,34.75 25,34.75L31,34.75C31.414,34.75 31.75,34.414 31.75,34L31.75,30.25L35.5,30.25C35.914,30.25 36.25,29.914 36.25,29.5L36.25,23.5ZM12.25,15.663L12.25,27.118C12.34,34.872 17.265,41.743 24.578,44.32L26.26,44.941C27.383,45.354 28.617,45.354 29.74,44.941L31.422,44.32C38.735,41.743 43.66,34.872 43.75,27.118L43.75,15.663C43.747,14.743 43.196,13.913 42.349,13.554C37.805,11.658 32.923,10.704 28,10.75C23.077,10.704 18.195,11.658 13.651,13.554C12.804,13.913 12.253,14.743 12.25,15.663Z" style="fill:none;stroke:rgb(44,44,44);stroke-width:2px;"/>
                    </g>
                </g>
            </g>
            <g id="g-root-ic_api_1lsf13q1ojt0qu-stroke" transform="matrix(1,0,0,1,290,98)">
                <g id="ic_api_1lsf13q1ojt0qu-stroke">
                    <g>
                        <path d="M43.632,45.25L43.632,36.784M42.013,36.784L45.25,36.784M42.013,45.25L45.25,45.25M33.112,45.25L33.112,41.638M33.112,41.638L35.541,41.638C36.881,41.638 37.967,40.551 37.967,39.211C37.967,37.871 36.881,36.784 35.541,36.784L33.112,36.784L33.112,41.638ZM21.784,45.25L22.698,38.784C22.869,37.631 23.858,36.778 25.023,36.778C26.187,36.778 27.176,37.631 27.348,38.784L28.261,45.25M22.21,42.043L27.834,42.043M38.875,34.632C39.564,33.243 40.069,31.77 40.375,30.25L43.75,30.25C44.578,30.25 45.25,29.578 45.25,28.75L45.25,27.25C45.25,26.422 44.578,25.75 43.75,25.75L40.38,25.75C40.074,24.23 39.569,22.756 38.88,21.367L41.258,18.985C41.844,18.399 41.844,17.45 41.258,16.864L39.136,14.742C38.55,14.156 37.601,14.156 37.015,14.742L34.63,17.125C33.242,16.435 31.77,15.931 30.25,15.625L30.25,12.25C30.25,11.422 29.578,10.75 28.75,10.75L27.25,10.75C26.422,10.75 25.75,11.422 25.75,12.25L25.75,15.622C24.23,15.928 22.757,16.432 21.369,17.122L18.984,14.742C18.398,14.156 17.448,14.156 16.862,14.742L14.74,16.864C14.154,17.45 14.154,18.399 14.74,18.985L17.125,21.369C16.436,22.757 15.931,24.23 15.625,25.75L12.25,25.75C11.422,25.75 10.75,26.422 10.75,27.25L10.75,28.75C10.75,29.578 11.422,30.25 12.25,30.25L15.619,30.25C15.925,31.77 16.43,33.243 17.119,34.632L14.734,37.016C14.148,37.602 14.148,38.552 14.734,39.137L16.857,41.258C17.442,41.844 18.392,41.844 18.978,41.258M24.172,33.561C21.832,31.95 20.751,29.046 21.468,26.297C22.185,23.548 24.546,21.543 27.375,21.28C30.203,21.017 32.894,22.553 34.105,25.122C35.316,27.692 34.789,30.745 32.786,32.759" style="fill:none;stroke:rgb(44,44,44);stroke-width:2px;"/>
                    </g>
                </g>
            </g>
            <g id="g-root-ic_1_v3ml3q1ojos96-stroke" transform="matrix(1,0,0,1,230,62)">
                <g id="ic_1_v3ml3q1ojos96-stroke">
                    <g>
                        <path d="M16,42.813C16,44.055 17.007,45.063 18.25,45.063C19.493,45.063 20.5,44.055 20.5,42.813C20.5,41.57 19.493,40.563 18.25,40.563C17.007,40.563 16,41.57 16,42.813ZM37,42.813C37,44.055 38.007,45.063 39.25,45.063C40.493,45.063 41.5,44.055 41.5,42.813C41.5,41.57 40.493,40.563 39.25,40.563C38.007,40.563 37,41.57 37,42.813ZM16.328,36.576C16.252,36.804 16.291,37.056 16.432,37.251C16.573,37.447 16.8,37.563 17.041,37.563L40,37.563C40.828,37.563 41.5,36.891 41.5,36.063L41.5,16.563C41.5,15.734 40.828,15.063 40,15.063L23.5,15.063L16.328,36.576ZM23.5,15.063L23.778,13.951C24.05,12.85 23.524,11.708 22.51,11.2C21.731,10.81 20.803,10.868 20.078,11.35L19,12.063M24.25,28.563L32.5,28.563L32.5,37.563L23.5,37.563L23.5,29.313C23.5,28.898 23.836,28.563 24.25,28.563ZM32.5,27.063L37.75,27.063C38.164,27.063 38.5,27.398 38.5,27.813L38.5,37.563L32.5,37.563L32.5,27.063ZM27.25,22.563L31.75,22.563C32.164,22.563 32.5,22.898 32.5,23.313L32.5,28.563L26.5,28.563L26.5,23.313C26.5,22.898 26.836,22.563 27.25,22.563ZM28.75,34.563L30.25,34.563M36.25,34.563L38.5,34.563M17.001,34.563L14.5,34.563M19,28.563L16,28.563M21,22.563L18.25,22.563M23.001,16.563L20.5,16.563" style="fill:none;stroke:rgb(44,44,44);stroke-width:2px;"/>
                    </g>
                </g>
            </g>
            <g id="g-root-ic_medi_143mwye1ojrksr-stroke" transform="matrix(1,0,0,1,206,386)">
                <g id="ic_medi_143mwye1ojrksr-stroke">
                    <g>
                        <path d="M33.955,13.842C28.71,9.601 21.211,9.619 15.986,13.884C10.76,18.149 9.241,25.492 12.345,31.481C15.448,37.469 22.325,40.461 28.822,38.65M11.559,29.675L28.377,29.675M11.559,20.174L28.377,20.174M21.925,11.008C19.368,20.236 19.744,30.031 23.001,39.036M28.072,11.008C28.504,12.563 28.854,14.139 29.122,15.73M45.25,45.325L10.75,45.325M31.75,45.325L45.25,45.325L45.25,23.35C45.233,22.95 44.9,22.637 44.5,22.645L32.5,22.645C32.099,22.637 31.765,22.952 31.75,23.353L31.75,45.325ZM35.124,19.252C35.181,18.687 35.683,18.274 36.249,18.325L40.749,18.325C41.314,18.274 41.816,18.687 41.873,19.252L41.874,22.645L35.124,22.645L35.124,19.252ZM38.5,18.325L38.5,12.925M40.75,26.965L36.25,26.965M40.75,31.285L36.25,31.285M40.75,35.605L36.25,35.605M40.75,39.925L36.25,39.925" style="fill:none;stroke:rgb(44,44,44);stroke-width:2px;"/>
                    </g>
                </g>
            </g>
            <g id="g-root-ic_2_1lrsk0m1ojx827-stroke" transform="matrix(1,0,0,1,314,374)">
                <g id="ic_2_1lrsk0m1ojx827-stroke">
                    <g>
                        <path d="M25.774,34.75L12.274,34.75C11.446,34.75 10.774,34.078 10.774,33.25L10.774,12.25C10.774,11.422 11.446,10.75 12.274,10.75L42.274,10.75C43.102,10.75 43.774,11.422 43.774,12.25L43.774,31.75M16.744,16.75L27.976,27.982M27.976,23.18L27.976,27.982L23.174,27.982M16.744,21.552L16.744,16.75L21.546,16.75M45.226,45.25L45.226,41.248C45.224,38.487 42.986,36.25 40.225,36.25L37.726,36.25L37.726,29.5C37.726,28.257 36.719,27.25 35.476,27.25C34.233,27.25 33.226,28.257 33.226,29.5L33.226,40L31.3,38.379C30.637,37.582 29.455,37.474 28.659,38.137C27.862,38.8 27.754,39.982 28.417,40.779L32.128,45.25" style="fill:none;stroke:rgb(44,44,44);stroke-width:2px;"/>
                    </g>
                </g>
            </g>
            <g id="g-root-ic_hote_4gpkd21ojudq9-stroke" transform="matrix(1,0,0,1,298,182)">
                <g id="ic_hote_4gpkd21ojudq9-stroke">
                    <g>
                        <path d="M15.25,15.25L15.25,16C15.25,18.071 16.929,19.75 19,19.75C21.071,19.75 22.75,18.071 22.75,16L22.75,15.25M22.75,15.25L15.25,15.25L15.25,12.025C15.246,11.708 15.445,11.424 15.745,11.32C17.848,10.555 20.152,10.555 22.255,11.32C22.555,11.424 22.754,11.708 22.75,12.025L22.75,15.25ZM26.5,30.25L12.25,30.25C11.422,30.25 10.75,30.922 10.75,31.75L10.75,45.25M41.5,30.25L43.75,30.25C44.578,30.25 45.25,30.922 45.25,31.75L45.25,45.25M22.75,34C21.922,34 21.25,34.672 21.25,35.5L21.25,37L18.25,37L18.25,35.5C18.25,34.672 17.578,34 16.75,34C15.922,34 15.25,34.672 15.25,35.5L15.25,42.25C15.25,43.078 15.922,43.75 16.75,43.75C17.578,43.75 18.25,43.078 18.25,42.25L18.25,40L21.25,40L21.25,42.25C21.25,43.078 21.922,43.75 22.75,43.75C23.578,43.75 24.25,43.078 24.25,42.25L24.25,35.5C24.25,34.672 23.578,34 22.75,34ZM31.75,14.5C31.75,16.571 33.429,18.25 35.5,18.25C37.571,18.25 39.25,16.571 39.25,14.5C39.25,12.429 37.571,10.75 35.5,10.75C33.429,10.75 31.75,12.429 31.75,14.5M37.75,43.75L38.5,33.25L40,33.25C40.828,33.25 41.5,32.578 41.5,31.75L41.5,27.25C41.5,23.936 38.814,21.25 35.5,21.25C32.186,21.25 29.5,23.936 29.5,27.25L29.5,31.75C29.5,32.578 30.172,33.25 31,33.25L32.5,33.25L33.25,43.75C33.25,44.578 33.922,45.25 34.75,45.25L36.25,45.25C37.078,45.25 37.75,44.578 37.75,43.75ZM13.195,27.25C13.885,24.609 16.271,22.767 19,22.767C21.729,22.767 24.115,24.609 24.805,27.25" style="fill:none;stroke:rgb(44,44,44);stroke-width:2px;"/>
                    </g>
                </g>
            </g>
            <g id="g-root-ic_chat_mg3qza1ojotmt-stroke" transform="matrix(1,0,0,1,222,170)">
                <g id="ic_chat_mg3qza1ojotmt-stroke">
                    <g>
                        <path d="M27.25,10.75C28.078,10.75 28.75,11.422 28.75,12.25L28.75,21.25C28.75,22.078 28.078,22.75 27.25,22.75L24.25,22.75L24.25,26.5L20.5,22.75L12.25,22.75C11.422,22.75 10.75,22.078 10.75,21.25L10.75,12.25C10.75,11.422 11.422,10.75 12.25,10.75L27.25,10.75ZM44.995,25.75C43.655,23.43 41.179,22 38.5,22C35.821,22 33.345,23.43 32.005,25.75M34.615,13C36.033,14.446 37.975,15.258 40,15.25C41.032,15.254 42.053,15.044 43,14.635M34,15.25C34,17.735 36.015,19.75 38.5,19.75C40.985,19.75 43,17.735 43,15.25C43,12.765 40.985,10.75 38.5,10.75C36.015,10.75 34,12.765 34,15.25M23.995,45.25C22.655,42.93 20.179,41.5 17.5,41.5C14.821,41.5 12.345,42.93 11.005,45.25M13.615,32.5C15.796,34.739 19.137,35.391 22,34.135M13,34.75C13,37.235 15.015,39.25 17.5,39.25C19.985,39.25 22,37.235 22,34.75C22,32.265 19.985,30.25 17.5,30.25C15.015,30.25 13,32.265 13,34.75M25,16.75L15.25,16.75M18.25,14.5L15.25,16.75L18.25,19M28.75,28.75C27.922,28.75 27.25,29.422 27.25,30.25L27.25,39.25C27.25,40.078 27.922,40.75 28.75,40.75L31.75,40.75L31.75,44.5L35.5,40.75L43.75,40.75C44.578,40.75 45.25,40.078 45.25,39.25L45.25,30.25C45.25,29.422 44.578,28.75 43.75,28.75L28.75,28.75ZM31,34.75L40.75,34.75M37.75,32.5L40.75,34.75L37.75,37" style="fill:none;stroke:rgb(44,44,44);stroke-width:2px;"/>
                    </g>
                </g>
            </g>
        </g>
    </g>
</svg>
