<?xml version="1.0" encoding="UTF-8" standalone="no"?>
<!DOCTYPE svg PUBLIC "-//W3C//DTD SVG 1.1//EN" "http://www.w3.org/Graphics/SVG/1.1/DTD/svg11.dtd">
<svg width="100%" height="100%" viewBox="0 0 708 798" version="1.1" xmlns="http://www.w3.org/2000/svg" xmlns:xlink="http://www.w3.org/1999/xlink" xml:space="preserve" xmlns:serif="http://www.serif.com/" style="fill-rule:evenodd;clip-rule:evenodd;stroke-linecap:round;stroke-linejoin:round;">
    <g id="items" transform="matrix(1.11562,0,0,1.11562,-40.957,-51.8143)">
        <g id="blend">
            <g id="g-root-cp_1_shape-1_qqagb91mbmfpq-fill" transform="matrix(1,0,0,1,35.5,55.8164)">
                <g id="cp_1_shape-1_qqagb91mbmfpq-fill">
                    <g>
                        <path d="M214,316.184L46,316.183C26.118,316.183 10,300.081 10,280.199L10,280.184L250,280.184C250,300.066 233.882,316.184 214,316.184ZM254.6,28.375L250,28.375L250,160.184L10,160.184C10,140.302 26.118,124.505 46,124.505L172,124.505C213.07,124.505 238,94.374 238,55.034L238,28.374L233.32,28.374C232.54,28.374 232.05,27.524 232.44,26.844L243.163,10.632C243.559,10.033 244.439,10.034 244.833,10.635L255.48,26.844C255.88,27.525 255.39,28.375 254.6,28.375ZM250,160.184L250,280.184L10,280.184L10,160.184L250,160.184Z" style="fill:rgb(67,221,147);"/>
                    </g>
                </g>
            </g>
            <g id="g-root-cp_3_shape-3_1upagid1mbmgaw-fill" transform="matrix(1,0,0,1,35,326)">
                <g id="cp_3_shape-3_1upagid1mbmgaw-fill">
                    <g>
                        <path d="M214,64.321C244,64.321 268,46 268,10L280,10L280,100.306L10,100.306C10,80.423 26.118,64.321 46,64.321L214,64.321Z" style="fill:rgb(26,195,251);"/>
                    </g>
                </g>
            </g>
            <g id="g-root-cp_3_shape-3_1_1cymx3p1mbmfia-fill" transform="matrix(1,0,0,1,287.303,56)">
                <g id="cp_3_shape-3_1_1cymx3p1mbmfia-fill">
                    <g>
                        <path d="M27.697,280L15.697,280L15.697,160L27.697,160L27.697,280ZM32.297,28.191L27.697,28.191L27.697,160L15.697,160L15.697,28.191L11.017,28.191C10.237,28.191 9.747,27.341 10.137,26.661L20.86,10.448C21.256,9.849 22.136,9.851 22.53,10.451L33.177,26.661C33.577,27.341 33.087,28.191 32.297,28.191Z" style="fill:rgb(26,195,251);"/>
                    </g>
                </g>
            </g>
            <g id="g-root-cp_5_shape-5_qs5vkl1mbmeq4-fill" transform="matrix(1,0,0,1,317.303,56)">
                <g id="cp_5_shape-5_qs5vkl1mbmeq4-fill">
                    <g>
                        <path d="M27.697,280L15.697,280L15.697,160L27.697,160L27.697,280ZM32.297,28.191L27.697,28.191L27.697,160L15.697,160L15.697,28.191L11.017,28.191C10.237,28.191 9.747,27.341 10.137,26.661L20.86,10.448C21.256,9.849 22.136,9.851 22.53,10.451L33.177,26.661C33.577,27.341 33.087,28.191 32.297,28.191Z" style="fill:rgb(247,148,56);"/>
                    </g>
                </g>
            </g>
            <g id="g-root-cp_2_shape-2_5vbx11mbmeq6-fill" transform="matrix(1,0,0,1,407.878,55.8164)">
                <g id="cp_2_shape-2_5vbx11mbmeq6-fill">
                    <g>
                        <path d="M51.622,316.184L219.622,316.184C239.504,316.184 255.622,300.081 255.622,280.199L255.622,280.184L15.622,280.184C15.622,300.066 31.74,316.184 51.622,316.184ZM11.022,28.375L15.622,28.375L15.622,160.184L255.622,160.184C255.622,140.302 239.505,124.505 219.623,124.505L93.622,124.505C52.552,124.505 27.622,94.374 27.622,55.034L27.622,28.374L32.302,28.374C33.082,28.374 33.572,27.524 33.182,26.844L22.459,10.632C22.063,10.033 21.184,10.034 20.79,10.635L10.142,26.844C9.742,27.525 10.232,28.375 11.022,28.375ZM15.622,160.184L15.622,280.184L255.622,280.184L255.622,160.184L15.622,160.184Z" style="fill:rgb(166,218,55);"/>
                    </g>
                </g>
            </g>
            <g id="g-root-cp_4_shape-4_1qbcdn91mbmg3k-fill" transform="matrix(1,0,0,1,383,326)">
                <g id="cp_4_shape-4_1qbcdn91mbmg3k-fill">
                    <g>
                        <path d="M76,64.321C46,64.321 22,46 22,10L10,10L10,100.306L280,100.306C280,80.423 263.882,64.321 244,64.321L76,64.321Z" style="fill:rgb(255,231,17);"/>
                    </g>
                </g>
            </g>
            <g id="g-root-cp_4_shape-4_1_144vc451mbmfbe-fill" transform="matrix(1,0,0,1,377.383,56)">
                <g id="cp_4_shape-4_1_144vc451mbmfbe-fill">
                    <g>
                        <path d="M15.623,280L27.623,280L27.623,160L15.623,160L15.623,280ZM11.022,28.191L15.622,28.191L15.622,160L27.622,160L27.622,28.191L32.302,28.191C33.082,28.191 33.572,27.341 33.182,26.661L22.459,10.448C22.063,9.849 21.184,9.851 20.79,10.451L10.142,26.661C9.742,27.341 10.232,28.191 11.022,28.191Z" style="fill:rgb(255,231,17);"/>
                    </g>
                </g>
            </g>
            <g id="g-root-cp_6_shape-6_qu1atx1mbmdqk-fill" transform="matrix(1,0,0,1,347.383,56)">
                <g id="cp_6_shape-6_qu1atx1mbmdqk-fill">
                    <g>
                        <path d="M15.623,280L27.623,280L27.623,160L15.623,160L15.623,280ZM11.022,28.191L15.622,28.191L15.622,160L27.622,160L27.622,28.191L32.302,28.191C33.082,28.191 33.572,27.341 33.182,26.661L22.459,10.448C22.063,9.849 21.184,9.851 20.79,10.451L10.142,26.661C9.742,27.341 10.232,28.191 11.022,28.191Z" style="fill:rgb(251,103,98);"/>
                    </g>
                </g>
            </g>
            <g id="g-root-cp_3_shape-3_2_92rac51mbmg3q-fill" transform="matrix(1,0,0,1,35,416)">
                <g id="cp_3_shape-3_2_92rac51mbmg3q-fill">
                    <g>
                        <path d="M280,10L280,105.984L10,105.984L10,10L280,10ZM244,142.008L46,142.008C26.118,142.008 10,125.906 10,106.023L10,106.008L280,106.008C280,125.89 263.882,142.008 244,142.008Z" style="fill:rgb(26,195,251);"/>
                    </g>
                </g>
            </g>
            <g id="g-root-cp_5_shape-5_1_1qd7swl1mbmf40-fill" transform="matrix(1,0,0,1,323,326)">
                <g id="cp_5_shape-5_1_1qd7swl1mbmf40-fill">
                    <g>
                        <rect x="10" y="10" width="12" height="186" style="fill:rgb(247,148,56);"/>
                    </g>
                </g>
            </g>
            <g id="g-root-cp_5_shape-5_2_1d2drmd1mbmdj6-fill" transform="matrix(1,0,0,1,35,512)">
                <g id="cp_5_shape-5_2_1d2drmd1mbmdj6-fill">
                    <g>
                        <path d="M244,64.137C274,64.137 298,45.878 298,10L310,10L310,100L10,100C10,80.185 26.118,64.137 46,64.137L244,64.137Z" style="fill:rgb(247,148,56);"/>
                    </g>
                </g>
            </g>
            <g id="g-root-cp_4_shape-4_2_qva9051mbmfws-fill" transform="matrix(1,0,0,1,383,416)">
                <g id="cp_4_shape-4_2_qva9051mbmfws-fill">
                    <g>
                        <path d="M10,10L10,106L280,106L280,10L10,10ZM46,142L244,142C263.882,142 280,125.898 280,106.016L280,106L10,106C10,125.882 26.118,142 46,142Z" style="fill:rgb(255,231,17);"/>
                    </g>
                </g>
            </g>
            <g id="g-root-cp_6_shape-6_1_94mplh1mbmf46-fill" transform="matrix(1,0,0,1,353,326)">
                <g id="cp_6_shape-6_1_94mplh1mbmf46-fill">
                    <g>
                        <rect x="10" y="10" width="12" height="186" style="fill:rgb(251,103,98);"/>
                    </g>
                </g>
            </g>
            <g id="g-root-cp_6_shape-6_2_4ot7h11mbmfwg-fill" transform="matrix(1,0,0,1,353,512)">
                <g id="cp_6_shape-6_2_4ot7h11mbmfwg-fill">
                    <g>
                        <path d="M76,64.321C46,64.321 22,46 22,10L10,10L10,100.306L310,100.306C310,80.423 293.882,64.321 274,64.321L76,64.321Z" style="fill:rgb(251,103,98);"/>
                    </g>
                </g>
            </g>
            <g id="g-root-cp_5_shape-5_3_1d3mpsl1mbmfpe-fill" transform="matrix(1,0,0,1,35,602)">
                <g id="cp_5_shape-5_3_1d3mpsl1mbmfpe-fill">
                    <g>
                        <path d="M310,10L310,106L10,106L10,10L310,10ZM274,142.008L46,142.008C26.118,142.008 10,125.882 10,106L310,106C310,125.882 293.882,142.008 274,142.008Z" style="fill:rgb(247,148,56);"/>
                    </g>
                </g>
            </g>
            <g id="g-root-cp_6_shape-6_3_zit34l1mbnsp0-fill" transform="matrix(1,0,0,1,353,602)">
                <g id="cp_6_shape-6_3_zit34l1mbnsp0-fill">
                    <g>
                        <path d="M10,10L10,106L310,106L310,10L10,10ZM46,142L274,142C293.882,142 310,125.898 310,106.016L310,106L10,106C10,125.882 26.118,142 46,142Z" style="fill:rgb(251,103,98);"/>
                    </g>
                </g>
            </g>
            <g id="g-root-tx__1cvijo51mbp6o3-fill">
            </g>
            <g transform="matrix(1,0,0,1,95.74,498)">
                <g id="g-root-tx_telecomp_4ot7h11mbp6od-fill">
                    <g id="tx_telecomp_4ot7h11mbp6od-fill">
                        <g>
                            <g>
                                <text x="0px" y="0px" style="font-family:'Arial-BoldMT', 'Arial', sans-serif;font-weight:700;font-size:20px;fill:rgb(44,44,44);">T<tspan x="10.732px 21.855px " y="0px 0px ">el</tspan>ecom Providers</text>
                            </g>
                        </g>
                    </g>
                </g>
            </g>
            <g transform="matrix(1,0,0,1,468.79,498)">
                <g id="g-root-tx_retailch_mdlbmd1mbqmmg-fill">
                    <g id="tx_retailch_mdlbmd1mbqmmg-fill">
                        <g>
                            <g>
                                <text x="0px" y="0px" style="font-family:'Arial-BoldMT', 'Arial', sans-serif;font-weight:700;font-size:20px;fill:rgb(44,44,44);">Retail Chains</text>
                            </g>
                        </g>
                    </g>
                </g>
            </g>
            <g id="g-root-tx__8xrhn91mbnuv4-fill">
            </g>
            <g id="g-root-tx__vccpat1mbp8ue-fill">
            </g>
            <g id="g-root-tx_healthca_hrj2mt1mbp8g2-fill" transform="matrix(1,0,0,1,479,254)">
                <g id="tx_healthca_hrj2mt1mbp8g2-fill">
                    <g>
                        <g>
                            <g transform="matrix(1,0,0,1,12.55,34)">
                                <text x="0px" y="0px" style="font-family:'Arial-BoldMT', 'Arial', sans-serif;font-weight:700;font-size:20px;fill:rgb(44,44,44);">Healthcare</text>
                            </g>
                            <g transform="matrix(1,0,0,1,18.55,58)">
                                <text x="0px" y="0px" style="font-family:'Arial-BoldMT', 'Arial', sans-serif;font-weight:700;font-size:20px;fill:rgb(44,44,44);">Networks</text>
                            </g>
                        </g>
                    </g>
                </g>
            </g>
            <g id="g-root-tx__1d1raj91mbqlmp-fill">
            </g>
            <g transform="matrix(1,0,0,1,86.08,288)">
                <g id="g-root-tx_educatio_13zvjf91mbnu2v-fill">
                    <g id="tx_educatio_13zvjf91mbnu2v-fill">
                        <g>
                            <g>
                                <text x="0px" y="0px" style="font-family:'Arial-BoldMT', 'Arial', sans-serif;font-weight:700;font-size:20px;fill:rgb(44,44,44);">Education Groups</text>
                            </g>
                        </g>
                    </g>
                </g>
            </g>
            <g transform="matrix(1,0,0,1,98.64,684)">
                <g id="g-root-tx_governme_v7cwlx1mbs07f-fill">
                    <g id="tx_governme_v7cwlx1mbs07f-fill">
                        <g>
                            <g>
                                <text x="0px" y="0px" style="font-family:'Arial-BoldMT', 'Arial', sans-serif;font-weight:700;font-size:20px;fill:rgb(44,44,44);">Government Services</text>
                            </g>
                        </g>
                    </g>
                </g>
            </g>
            <g transform="matrix(1,0,0,1,415.13,684)">
                <g id="g-root-tx_franchis_m9uh3p1mbtg5i-fill">
                    <g id="tx_franchis_m9uh3p1mbtg5i-fill">
                        <g>
                            <g>
                                <text x="0px" y="0px" style="font-family:'Arial-BoldMT', 'Arial', sans-serif;font-weight:700;font-size:20px;fill:rgb(44,44,44);">Franchise Businesses</text>
                            </g>
                        </g>
                    </g>
                </g>
            </g>
            <g id="g-root-tx__1luwefp1mbs2dg-fill">
            </g>
            <g id="g-root-tx__1lt0z6d1mbtgr3-fill">
            </g>
            <g id="g-root-cp_1_shape-1_qqagb91mbmfpq-stroke" transform="matrix(1,0,0,1,35.5,55.8164)">
                <g id="cp_1_shape-1_qqagb91mbmfpq-stroke">
                    <g>
                        <path d="M10,160.184C10,140.301 26.118,124.321 46,124.321L172,124.321C213.07,124.321 238,94.191 238,54.851L238,28.191L233.32,28.191C232.54,28.191 232.05,27.341 232.44,26.661L243.163,10.448C243.559,9.849 244.439,9.851 244.833,10.451L255.48,26.661C255.88,27.341 255.39,28.191 254.6,28.191L250,28.191L250,160.184M250,280.184C250,300.066 233.882,316.191 214,316.191L46,316.191C26.118,316.191 10,300.081 10,280.199L10,280.184M250,280.184L250,160.184M10,160.184L10,280.184" style="fill:none;stroke:rgb(44,44,44);stroke-width:2px;"/>
                    </g>
                </g>
            </g>
            <g id="g-root-cp_3_shape-3_1upagid1mbmgaw-stroke" transform="matrix(1,0,0,1,35,326)">
                <g id="cp_3_shape-3_1upagid1mbmgaw-stroke">
                    <g>
                        <path d="M268,10C268,46 244,64.321 214,64.321L46,64.321C26.118,64.321 10,80.423 10,100.306M280,100.306L280,10" style="fill:none;stroke:rgb(44,44,44);stroke-width:2px;"/>
                    </g>
                </g>
            </g>
            <g id="g-root-cp_3_shape-3_1_1cymx3p1mbmfia-stroke" transform="matrix(1,0,0,1,287.303,56)">
                <g id="cp_3_shape-3_1_1cymx3p1mbmfia-stroke">
                    <g>
                        <path d="M15.697,160L15.697,280M27.697,280L27.697,160M15.697,160L15.697,28.191L11.017,28.191C10.237,28.191 9.747,27.341 10.137,26.661L20.86,10.448C21.256,9.849 22.136,9.851 22.53,10.451L33.177,26.661C33.577,27.341 33.087,28.191 32.297,28.191L27.697,28.191L27.697,160" style="fill:none;stroke:rgb(44,44,44);stroke-width:2px;"/>
                    </g>
                </g>
            </g>
            <g id="g-root-cp_5_shape-5_qs5vkl1mbmeq4-stroke" transform="matrix(1,0,0,1,317.303,56)">
                <g id="cp_5_shape-5_qs5vkl1mbmeq4-stroke">
                    <g>
                        <path d="M15.697,160L15.697,280M27.697,280L27.697,160M15.697,160L15.697,28.191L11.017,28.191C10.237,28.191 9.747,27.341 10.137,26.661L20.86,10.448C21.256,9.849 22.136,9.851 22.53,10.451L33.177,26.661C33.577,27.341 33.087,28.191 32.297,28.191L27.697,28.191L27.697,160" style="fill:none;stroke:rgb(44,44,44);stroke-width:2px;"/>
                    </g>
                </g>
            </g>
            <g id="g-root-cp_2_shape-2_5vbx11mbmeq6-stroke" transform="matrix(1,0,0,1,407.878,55.8164)">
                <g id="cp_2_shape-2_5vbx11mbmeq6-stroke">
                    <g>
                        <path d="M255.622,160.184C255.622,140.301 239.505,124.321 219.623,124.321L93.622,124.321C52.552,124.321 27.622,94.191 27.622,54.851L27.622,28.191L32.302,28.191C33.082,28.191 33.572,27.341 33.182,26.661L22.459,10.448C22.063,9.849 21.184,9.851 20.79,10.451L10.142,26.661C9.742,27.341 10.232,28.191 11.022,28.191L15.622,28.191L15.622,160.184M15.622,280.184C15.622,300.066 31.74,316.184 51.622,316.184L219.623,316.183C239.505,316.183 255.622,300.081 255.622,280.199L255.622,280.184M15.622,280.184L15.622,160.184M255.622,160.184L255.622,280.184" style="fill:none;stroke:rgb(44,44,44);stroke-width:2px;"/>
                    </g>
                </g>
            </g>
            <g id="g-root-cp_4_shape-4_1qbcdn91mbmg3k-stroke" transform="matrix(1,0,0,1,383,326)">
                <g id="cp_4_shape-4_1qbcdn91mbmg3k-stroke">
                    <g>
                        <path d="M22,10C22,46 46,64.321 76,64.321L244,64.321C263.882,64.321 280,80.423 280,100.306M10,100.306L10,10" style="fill:none;stroke:rgb(44,44,44);stroke-width:2px;"/>
                    </g>
                </g>
            </g>
            <g id="g-root-cp_4_shape-4_1_144vc451mbmfbe-stroke" transform="matrix(1,0,0,1,377.383,56)">
                <g id="cp_4_shape-4_1_144vc451mbmfbe-stroke">
                    <g>
                        <path d="M27.622,160L27.622,280M15.622,280L15.622,160M27.622,160L27.622,28.191L32.302,28.191C33.082,28.191 33.572,27.341 33.182,26.661L22.459,10.448C22.063,9.849 21.184,9.851 20.79,10.451L10.142,26.661C9.742,27.341 10.232,28.191 11.022,28.191L15.622,28.191L15.622,160" style="fill:none;stroke:rgb(44,44,44);stroke-width:2px;"/>
                    </g>
                </g>
            </g>
            <g id="g-root-cp_6_shape-6_qu1atx1mbmdqk-stroke" transform="matrix(1,0,0,1,347.383,56)">
                <g id="cp_6_shape-6_qu1atx1mbmdqk-stroke">
                    <g>
                        <path d="M27.622,160L27.622,280M15.622,280L15.622,160M27.622,160L27.622,28.191L32.302,28.191C33.082,28.191 33.572,27.341 33.182,26.661L22.459,10.448C22.063,9.849 21.184,9.851 20.79,10.451L10.142,26.661C9.742,27.341 10.232,28.191 11.022,28.191L15.622,28.191L15.622,160" style="fill:none;stroke:rgb(44,44,44);stroke-width:2px;"/>
                    </g>
                </g>
            </g>
            <g id="g-root-cp_3_shape-3_2_92rac51mbmg3q-stroke" transform="matrix(1,0,0,1,35,416)">
                <g id="cp_3_shape-3_2_92rac51mbmg3q-stroke">
                    <g>
                        <path d="M280,105.984L280,10M10,10L10,106M280,106.008C280,125.89 263.882,142.008 244,142.008L46,142.008C26.118,142.008 10,125.906 10,106.023L10,106.008" style="fill:none;stroke:rgb(44,44,44);stroke-width:2px;"/>
                    </g>
                </g>
            </g>
            <g id="g-root-cp_5_shape-5_1_1qd7swl1mbmf40-stroke" transform="matrix(1,0,0,1,323,326)">
                <g id="cp_5_shape-5_1_1qd7swl1mbmf40-stroke">
                    <g>
                        <path d="M10,10L10,196M22,196L22,10" style="fill:none;stroke:rgb(44,44,44);stroke-width:2px;"/>
                    </g>
                </g>
            </g>
            <g id="g-root-cp_5_shape-5_2_1d2drmd1mbmdj6-stroke" transform="matrix(1,0,0,1,35,512)">
                <g id="cp_5_shape-5_2_1d2drmd1mbmdj6-stroke">
                    <g>
                        <path d="M298,10C298,45.878 274,64.137 244,64.137L46,64.137C26.118,64.137 10,80.185 10,100M310,100L310,10" style="fill:none;stroke:rgb(44,44,44);stroke-width:2px;"/>
                    </g>
                </g>
            </g>
            <g id="g-root-cp_4_shape-4_2_qva9051mbmfws-stroke" transform="matrix(1,0,0,1,383,416)">
                <g id="cp_4_shape-4_2_qva9051mbmfws-stroke">
                    <g>
                        <path d="M10,106L10,10M280,10L280,106M10,106C10,125.882 26.118,142.008 46,142.008L244,142.008C263.882,142.008 280,125.898 280,106.016L280,106" style="fill:none;stroke:rgb(44,44,44);stroke-width:2px;"/>
                    </g>
                </g>
            </g>
            <g id="g-root-cp_6_shape-6_1_94mplh1mbmf46-stroke" transform="matrix(1,0,0,1,353,326)">
                <g id="cp_6_shape-6_1_94mplh1mbmf46-stroke">
                    <g>
                        <path d="M22,10L22,196M10,196L10,10" style="fill:none;stroke:rgb(44,44,44);stroke-width:2px;"/>
                    </g>
                </g>
            </g>
            <g id="g-root-cp_6_shape-6_2_4ot7h11mbmfwg-stroke" transform="matrix(1,0,0,1,353,512)">
                <g id="cp_6_shape-6_2_4ot7h11mbmfwg-stroke">
                    <g>
                        <path d="M22,10C22,46 46,64.321 76,64.321L274,64.321C293.882,64.321 310,80.423 310,100.306M10,100.306L10,10" style="fill:none;stroke:rgb(44,44,44);stroke-width:2px;"/>
                    </g>
                </g>
            </g>
            <g id="g-root-cp_5_shape-5_3_1d3mpsl1mbmfpe-stroke" transform="matrix(1,0,0,1,35,602)">
                <g id="cp_5_shape-5_3_1d3mpsl1mbmfpe-stroke">
                    <g>
                        <path d="M310,106L310,10M10,10L10,106M310,106C310,125.882 293.882,142.008 274,142.008L46,142.008C26.118,142.008 10,125.882 10,106" style="fill:none;stroke:rgb(44,44,44);stroke-width:2px;"/>
                    </g>
                </g>
            </g>
            <g id="g-root-cp_6_shape-6_3_zit34l1mbnsp0-stroke" transform="matrix(1,0,0,1,353,602)">
                <g id="cp_6_shape-6_3_zit34l1mbnsp0-stroke">
                    <g>
                        <path d="M10,106L10,10M310,10L310,106M10,106C10,125.882 26.118,142.008 46,142.008L274,142.008C293.882,142.008 310,125.898 310,106.016L310,106" style="fill:none;stroke:rgb(44,44,44);stroke-width:2px;"/>
                    </g>
                </g>
            </g>
            <g id="g-root-ic_towe_1q6ckyd1mbqlmv-stroke" transform="matrix(1,0,0,1,146,404)">
                <g id="ic_towe_1q6ckyd1mbqlmv-stroke">
                    <g>
                        <path d="M11,57L57,57M29,57L11,57L11,26C11,25.448 11.448,25 12,25L28,25C28.552,25 29,25.448 29,26L29,57ZM53,38C53,37.448 52.552,37 52,37L46,37C45.448,37 45,37.448 45,38L45,57L53,57L53,38ZM41,38C41,37.448 40.552,37 40,37L34,37C33.448,37 33,37.448 33,38L33,57L41,57L41,38ZM23,22C23,21.448 22.552,21 22,21L18,21C17.448,21 17,21.448 17,22L17,25L23,25L23,22ZM19,21L19,13M15,31L25,31M15,37L25,37M15,43L25,43M15,49L25,49M35,24C35,21.239 32.761,19 30,19M39,24C39,19.029 34.971,15 30,15M43,24C43,16.82 37.18,11 30,11" style="fill:none;stroke:rgb(44,44,44);stroke-width:2px;"/>
                    </g>
                </g>
            </g>
            <g id="g-root-ic_cart_djtqmt1mbqmfe-stroke" transform="matrix(1,0,0,1,494,404)">
                <g id="ic_cart_djtqmt1mbqmfe-stroke">
                    <g>
                        <path d="M53,27.682L53,54C53,55.105 52.105,56 51,56L17,56C15.895,56 15,55.105 15,54L15,27.682M53.552,13.112C53.215,12.432 52.523,12.002 51.764,12L16.236,12C15.479,12 14.787,12.429 14.448,13.106L11,20L57,20L53.552,13.112ZM57,22C57.084,24.412 55.646,26.617 53.405,27.513C51.165,28.409 48.603,27.804 47,26C45.687,28.222 43.393,29.684 40.824,29.936C38.256,30.189 35.721,29.201 34,27.278C32.279,29.201 29.744,30.188 27.176,29.935C24.608,29.683 22.314,28.221 21,26C19.396,27.802 16.836,28.405 14.596,27.51C12.357,26.614 10.919,24.411 11,22L11,20L57,20L57,22ZM21,26.006L21,20.006L23,12.006M34,27.296L34,12.006M47,26.006L47,20.006L45,12.006M42.334,40.006L39,50.006L29,50.006L26,40.006L42.334,40.006M29,40.006L32,35.006M39,40.006L36,35.006" style="fill:none;stroke:rgb(44,44,44);stroke-width:2px;"/>
                    </g>
                </g>
            </g>
            <g id="g-root-ic_ambu_hxrthx1mbs0sl-stroke" transform="matrix(1,0,0,1,161,590)">
                <g id="ic_ambu_hxrthx1mbs0sl-stroke">
                    <g>
                        <path d="M24,53L24,56C24,56.552 23.552,57 23,57L19,57C18.448,57 18,56.552 18,56L18,53M50,53L50,56C50,56.552 49.552,57 49,57L45,57C44.448,57 44,56.552 44,56L44,53M14,50C14,51.657 15.343,53 17,53L51,53C52.657,53 54,51.657 54,50C54,48.343 52.657,47 51,47L17,47C15.343,47 14,48.343 14,50ZM52,47.172L52,36L48.218,23.706C48.089,23.286 47.701,23 47.262,23L20.74,23C20.301,23 19.913,23.286 19.784,23.706L16,36L16,47.172M16.002,37L52.002,37M42,47L42,42C42,41.448 41.552,41 41,41L27,41C26.448,41 26,41.448 26,42L26,47M12,44L12,19C12,17.895 12.895,17 14,17L54,17C55.105,17 56,17.895 56,19L56,44M52,41C48.686,41 46,43.686 46,47M16,41C19.314,41 22,43.686 22,47M48,17C48,13.686 45.314,11 42,11L26,11C22.686,11 20,13.686 20,17M28,11L28,17M40,11L40,17" style="fill:none;stroke:rgb(44,44,44);stroke-width:2px;"/>
                    </g>
                </g>
            </g>
            <g id="g-root-ic_grap_1uo1ic51mbp6h0-stroke" transform="matrix(1,0,0,1,509.5,194)">
                <g id="ic_grap_1uo1ic51mbp6h0-stroke">
                    <g>
                        <path d="M15,42C15,44.761 17.239,47 20,47C22.761,47 25,44.761 25,42C25,39.239 22.761,37 20,37C17.239,37 15,39.239 15,42ZM11,37L11,57M57,42L57,57M11,47L57,47L57,53L11,53L11,47ZM29,47L53,47L53,41C53,38.791 51.209,37 49,37L30,37C29.448,37 29,37.448 29,38L29,47ZM33,25C33,26.105 33.895,27 35,27L55,27C56.105,27 57,26.105 57,25L57,13C57,11.895 56.105,11 55,11L35,11C33.895,11 33,11.895 33,13L33,25ZM33,19L37.5,19C37.815,19 38.111,18.852 38.3,18.6L40.124,16.166C40.322,15.902 40.637,15.753 40.966,15.767C41.296,15.781 41.597,15.956 41.772,16.236L45.332,21.934C45.493,22.193 45.764,22.364 46.067,22.399C46.37,22.433 46.672,22.328 46.888,22.112L49.706,19.294C49.894,19.107 50.149,19.002 50.414,19.002L57,19.002" style="fill:none;stroke:rgb(44,44,44);stroke-width:2px;"/>
                    </g>
                </g>
            </g>
            <g id="g-root-ic_shop_dg2w451mbtfyg-stroke" transform="matrix(1,0,0,1,479,590)">
                <g id="ic_shop_dg2w451mbtfyg-stroke">
                    <g>
                        <path d="M11,34C11,46.703 21.297,57 34,57C46.703,57 57,46.703 57,34C57,21.297 46.703,11 34,11C21.297,11 11,21.297 11,34M18,34C18,42.837 25.163,50 34,50C42.837,50 50,42.837 50,34C50,25.163 42.837,18 34,18C25.163,18 18,25.163 18,34M26.86,35.7C33.1,34.9 40.36,31.7 39.9,27.9C39.48,24.52 35.08,24.6 32.44,26C26.96,28.94 24.26,40 30,42.56C34.52,44.56 38.38,38.96 38.38,38.96" style="fill:none;stroke:rgb(44,44,44);stroke-width:2px;"/>
                    </g>
                </g>
            </g>
            <g id="g-root-ic_1_141qyol1mbnt35-stroke" transform="matrix(1,0,0,1,131.5,194)">
                <g id="ic_1_141qyol1mbnt35-stroke">
                    <g>
                        <path d="M34.302,19.606L34.302,26.3L27.534,28.638L20.766,26.3L20.766,19.606M41.068,16.738L27.534,11L14,16.738L27.534,22.474L41.068,16.738ZM14,16.738L14,24.388M54.8,41.3L54.8,31.766C54.8,30.956 54.144,30.3 53.334,30.3L38.666,30.3C37.856,30.3 37.2,30.956 37.2,31.766L37.2,41.3L54.8,41.3ZM56.874,45.838C57.076,46.292 57.034,46.817 56.764,47.233C56.493,47.649 56.03,47.9 55.534,47.9L36.466,47.9C35.97,47.9 35.507,47.649 35.236,47.233C34.966,46.817 34.924,46.292 35.126,45.838L37.2,41.3L54.8,41.3L56.874,45.838ZM30.8,42.892L30.8,40.866C30.8,40.056 30.144,39.4 29.334,39.4L14.666,39.4C13.856,39.4 13.2,40.056 13.2,40.866L13.2,50.4L30.8,50.4M32.874,54.938C33.076,55.392 33.034,55.917 32.764,56.333C32.493,56.749 32.03,57 31.534,57L12.466,57C11.97,57 11.507,56.749 11.236,56.333C10.966,55.917 10.924,55.392 11.126,54.938L13.2,50.4L30.8,50.4L32.874,54.938ZM14,24.388L11,30.388L17,30.388L14,24.388Z" style="fill:none;stroke:rgb(44,44,44);stroke-width:2px;"/>
                    </g>
                </g>
            </g>
        </g>
    </g>
</svg>
