<?xml version="1.0" encoding="UTF-8" standalone="no"?>
<!DOCTYPE svg PUBLIC "-//W3C//DTD SVG 1.1//EN" "http://www.w3.org/Graphics/SVG/1.1/DTD/svg11.dtd">
<svg width="100%" height="100%" viewBox="0 0 600 624" version="1.1" xmlns="http://www.w3.org/2000/svg" xmlns:xlink="http://www.w3.org/1999/xlink" xml:space="preserve" xmlns:serif="http://www.serif.com/" style="fill-rule:evenodd;clip-rule:evenodd;stroke-linecap:round;stroke-linejoin:round;">
    <g id="items" transform="matrix(1.24386,0,0,1.24386,-73.1581,-127)">
        <g id="blend">
            <g id="g-root-cp_1_sign-1_qu1e501pdrrii-fill" transform="matrix(1,0,0,1,53,146)">
                <g id="cp_1_sign-1_qu1e501pdrrii-fill">
                    <g>
                        <path d="M10,64L28,10L28,118L10,64ZM28,10L225,10L225,118L28,118L28,10Z" style="fill:rgb(79,145,252);"/>
                    </g>
                </g>
            </g>
            <g id="g-root-cp_3_sign-3_dikvro1pdrt3g-fill" transform="matrix(1,0,0,1,53,266)">
                <g id="cp_3_sign-3_dikvro1pdrt3g-fill">
                    <g>
                        <path d="M10,52L28,10L28,94L10,52ZM28,10L225,10L225,94L28,94L28,10Z" style="fill:rgb(166,218,55);"/>
                    </g>
                </g>
            </g>
            <g id="g-root-cp_5_sign-5_1ut1ec41pdrs3q-fill" transform="matrix(1,0,0,1,77,362)">
                <g id="cp_5_sign-5_1ut1ec41pdrs3q-fill">
                    <g>
                        <path d="M10,52L28,10L28,94L10,52ZM28,10L201,10L201,94L28,94L28,10Z" style="fill:rgb(247,148,56);"/>
                    </g>
                </g>
            </g>
            <g id="g-root-cp_pole_g-pole_1d2duxg1pdrrb4-fill" transform="matrix(1,0,0,1,266,122)">
                <g id="cp_pole_g-pole_1d2duxg1pdrrb4-fill">
                    <g>
                        <path d="M31,334L13,334L13,448L31,448L31,447.897L24.55,447.88C24.55,447.88 25.3,441.89 17.74,440.78C25.63,437.53 28.41,442.56 28.41,442.56C28.41,442.56 27.994,435.986 31,430.2L31,334ZM13,22L31,22L31,334L13,334L13,22Z" style="fill:rgb(171,171,171);"/>
                    </g>
                </g>
                <g id="cp_pole_g-pole_1d2duxg1pdrrb4-fill1" serif:id="cp_pole_g-pole_1d2duxg1pdrrb4-fill">
                    <g>
                        <rect x="10" y="10" width="24" height="12" style="fill:rgb(171,171,171);"/>
                    </g>
                </g>
            </g>
            <g id="g-root-cp_pole_plant_zqxck41pdrsw3-fill" transform="matrix(1,0,0,1,234,535)">
                <g id="cp_pole_plant_zqxck41pdrsw3-fill">
                    <g>
                        <path d="M60.393,29.56C60.393,29.56 57.613,24.53 49.723,27.78C54.516,28.484 57.019,30.471 56.533,35.008L10,35.008C10,35.008 17.976,46.521 54.183,46.521C90.39,46.521 97.76,35.008 97.76,35.008L71.483,35.008C68.788,30.384 74.815,23.86 80.883,26.67C78.883,23.56 72.993,22.89 68.553,26C66.693,20.52 67.443,13.77 70.613,10C59.453,14.7 60.393,29.56 60.393,29.56Z" style="fill:rgb(145,187,57);"/>
                    </g>
                </g>
            </g>
            <g id="g-root-cp_2_sign-2_qvwtec1pdrqj1-fill" transform="matrix(1,0,0,1,288,182)">
                <g id="cp_2_sign-2_qvwtec1pdrqj1-fill">
                    <g>
                        <path d="M10,10L231,10L231,70L10,70L10,10ZM249,40L231,10L231,70L249,40Z" style="fill:rgb(67,221,147);"/>
                    </g>
                </g>
            </g>
            <g id="g-root-cp_4_sign-4_94mswk1pdrsw7-fill" transform="matrix(1,0,0,1,288,254)">
                <g id="cp_4_sign-4_94mswk1pdrsw7-fill">
                    <g>
                        <path d="M10,10L219,10L219,94L10,94L10,10ZM237,52L219,10L219,94L237,52Z" style="fill:rgb(26,195,251);"/>
                    </g>
                </g>
            </g>
            <g id="g-root-cp_6_sign-6_4pfrv81pdrqip-fill" transform="matrix(1,0,0,1,288,350)">
                <g id="cp_6_sign-6_4pfrv81pdrqip-fill">
                    <g>
                        <path d="M10,10L195,10L195,94L10,94L10,10ZM213,52L195,10L195,94L213,52Z" style="fill:rgb(203,104,249);"/>
                    </g>
                </g>
            </g>
            <g id="g-root-tx_optimize_144vff81pdt79h-fill" transform="matrix(1,0,0,1,125,164)">
                <g id="tx_optimize_144vff81pdt79h-fill">
                    <g>
                        <g>
                            <g transform="matrix(1,0,0,1,19.43,34)">
                                <text x="0px" y="0px" style="font-family:'ArialMT', 'Arial', sans-serif;font-size:20px;fill:rgb(44,44,44);">Optimized for</text>
                            </g>
                            <g transform="matrix(1,0,0,1,74.95,58)">
                                <text x="0px" y="0px" style="font-family:'ArialMT', 'Arial', sans-serif;font-size:20px;fill:rgb(44,44,44);">Service</text>
                            </g>
                            <g transform="matrix(1,0,0,1,56,82)">
                                <text x="0px" y="0px" style="font-family:'ArialMT', 'Arial', sans-serif;font-size:20px;fill:rgb(44,44,44);">Providers</text>
                            </g>
                        </g>
                    </g>
                </g>
            </g>
            <g transform="matrix(1,0,0,1,311,234)">
                <g id="g-root-tx_fastdepl_1uljpas1pdxf63-fill">
                    <g id="tx_fastdepl_1uljpas1pdxf63-fill">
                        <g>
                            <g>
                                <text x="0px" y="0px" style="font-family:'ArialMT', 'Arial', sans-serif;font-size:20px;fill:rgb(44,44,44);">Fast Deployment</text>
                            </g>
                        </g>
                    </g>
                </g>
            </g>
            <g id="g-root-tx_costeffe_hunjdg1pdummf-fill" transform="matrix(1,0,0,1,125,284)">
                <g id="tx_costeffe_hunjdg1pdummf-fill">
                    <g>
                        <g>
                            <g transform="matrix(1,0,0,1,15.68,34)">
                                <g transform="matrix(20,0,0,20,61.123,0)">
                                </g>
                                <g transform="matrix(20,0,0,20,66.4648,0)">
                                </g>
                                <text x="0px" y="0px" style="font-family:'ArialMT', 'Arial', sans-serif;font-size:20px;fill:rgb(44,44,44);">Cost-Eﬀective</text>
                            </g>
                            <g transform="matrix(1,0,0,1,75.8,58)">
                                <text x="0px" y="0px" style="font-family:'ArialMT', 'Arial', sans-serif;font-size:20px;fill:rgb(44,44,44);">Growth</text>
                            </g>
                        </g>
                    </g>
                </g>
            </g>
            <g id="g-root-tx_globalre_9599zo1pdxfrh-fill" transform="matrix(1,0,0,1,299,272)">
                <g id="tx_globalre_9599zo1pdxfrh-fill">
                    <g>
                        <g>
                            <g transform="matrix(1,0,0,1,12,34)">
                                <text x="0px" y="0px" style="font-family:'ArialMT', 'Arial', sans-serif;font-size:20px;fill:rgb(44,44,44);">Global Reach,</text>
                            </g>
                            <g transform="matrix(1,0,0,1,12,58)">
                                <text x="0px" y="0px" style="font-family:'ArialMT', 'Arial', sans-serif;font-size:20px;fill:rgb(44,44,44);">Local Presence</text>
                            </g>
                        </g>
                    </g>
                </g>
            </g>
            <g id="g-root-tx_247exper_1cuw5w41pdw0zl-fill" transform="matrix(1,0,0,1,149,380)">
                <g id="tx_247exper_1cuw5w41pdw0zl-fill">
                    <g>
                        <g>
                            <g transform="matrix(1,0,0,1,12.15,34)">
                                <text x="0px" y="0px" style="font-family:'ArialMT', 'Arial', sans-serif;font-size:20px;fill:rgb(44,44,44);">24/7 Expert</text>
                            </g>
                            <g transform="matrix(1,0,0,1,45.4,58)">
                                <text x="0px" y="0px" style="font-family:'ArialMT', 'Arial', sans-serif;font-size:20px;fill:rgb(44,44,44);">Support</text>
                            </g>
                        </g>
                    </g>
                </g>
            </g>
            <g id="g-root-tx_provenpe_qnsqfo1pddqfj-fill" transform="matrix(1,0,0,1,299,368)">
                <g id="tx_provenpe_qnsqfo1pddqfj-fill">
                    <g>
                        <g>
                            <g transform="matrix(1,0,0,1,12,34)">
                                <text x="0px" y="0px" style="font-family:'ArialMT', 'Arial', sans-serif;font-size:20px;fill:rgb(44,44,44);">Proven</text>
                            </g>
                            <g transform="matrix(1,0,0,1,12,58)">
                                <text x="0px" y="0px" style="font-family:'ArialMT', 'Arial', sans-serif;font-size:20px;fill:rgb(44,44,44);">Performance</text>
                            </g>
                        </g>
                    </g>
                </g>
            </g>
            <g id="g-root-cp_1_sign-1_qu1e501pdrrii-stroke" transform="matrix(1,0,0,1,53,146)">
                <g id="cp_1_sign-1_qu1e501pdrrii-stroke">
                    <g>
                        <path d="M28,10L225,10M225,118L28,118M28,118L10,64L28,10" style="fill:none;stroke:rgb(44,44,44);stroke-width:2px;"/>
                    </g>
                </g>
            </g>
            <g id="g-root-cp_3_sign-3_dikvro1pdrt3g-stroke" transform="matrix(1,0,0,1,53,266)">
                <g id="cp_3_sign-3_dikvro1pdrt3g-stroke">
                    <g>
                        <path d="M28,10L225,10M225,94L28,94M28,94L10,52L28,10" style="fill:none;stroke:rgb(44,44,44);stroke-width:2px;"/>
                    </g>
                </g>
            </g>
            <g id="g-root-cp_5_sign-5_1ut1ec41pdrs3q-stroke" transform="matrix(1,0,0,1,77,362)">
                <g id="cp_5_sign-5_1ut1ec41pdrs3q-stroke">
                    <g>
                        <path d="M28,10L201,10M201,94L28,94M28,94L10,52L28,10" style="fill:none;stroke:rgb(44,44,44);stroke-width:2px;"/>
                    </g>
                </g>
            </g>
            <g id="g-root-cp_pole_g-pole_1d2duxg1pdrrb4-stroke" transform="matrix(1,0,0,1,266,122)">
                <g id="cp_pole_g-pole_1d2duxg1pdrrb4-stroke">
                    <g>
                        <path d="M31,430L31,334M13,447L13,334M31,334L31,22M13,334L13,22" style="fill:none;stroke:rgb(44,44,44);stroke-width:2px;"/>
                    </g>
                </g>
                <g id="cp_pole_g-pole_1d2duxg1pdrrb4-stroke1" serif:id="cp_pole_g-pole_1d2duxg1pdrrb4-stroke">
                    <g>
                        <rect x="10" y="10" width="24" height="12" style="fill:none;stroke:rgb(44,44,44);stroke-width:2px;"/>
                    </g>
                </g>
            </g>
            <g id="g-root-cp_pole_plant_zqxck41pdrsw3-stroke" transform="matrix(1,0,0,1,234,535)">
                <g id="cp_pole_plant_zqxck41pdrsw3-stroke">
                    <g>
                        <path d="M56.55,34.88C56.55,34.88 57.3,28.89 49.74,27.78C57.63,24.53 60.41,29.56 60.41,29.56C60.41,29.56 59.47,14.7 70.63,10C67.46,13.77 66.71,20.52 68.57,26C73.01,22.89 78.9,23.56 80.9,26.67C76.68,24.44 69.89,28.468 71,34.918M71,34.918L98,34.918M10,34.918L56.5,34.918" style="fill:none;stroke:rgb(44,44,44);stroke-width:2px;"/>
                    </g>
                </g>
            </g>
            <g id="g-root-cp_2_sign-2_qvwtec1pdrqj1-stroke" transform="matrix(1,0,0,1,288,182)">
                <g id="cp_2_sign-2_qvwtec1pdrqj1-stroke">
                    <g>
                        <path d="M231,70L10,70M10,10L231,10M231,10L249,40L231,70" style="fill:none;stroke:rgb(44,44,44);stroke-width:2px;"/>
                    </g>
                </g>
            </g>
            <g id="g-root-cp_4_sign-4_94mswk1pdrsw7-stroke" transform="matrix(1,0,0,1,288,254)">
                <g id="cp_4_sign-4_94mswk1pdrsw7-stroke">
                    <g>
                        <path d="M219,94L10,94M10,10L219,10M219,10L237,52L219,94" style="fill:none;stroke:rgb(44,44,44);stroke-width:2px;"/>
                    </g>
                </g>
            </g>
            <g id="g-root-cp_6_sign-6_4pfrv81pdrqip-stroke" transform="matrix(1,0,0,1,288,350)">
                <g id="cp_6_sign-6_4pfrv81pdrqip-stroke">
                    <g>
                        <path d="M195,94L10,94M10,10L195,10M195,10L213,52L195,94" style="fill:none;stroke:rgb(44,44,44);stroke-width:2px;"/>
                    </g>
                </g>
            </g>
            <g id="g-root-ic_appr_8wims41pdt6h0-stroke" transform="matrix(1,0,0,1,77,182)">
                <g id="ic_appr_8wims41pdt6h0-stroke">
                    <g>
                        <path d="M34.63,17.125C33.242,16.436 31.769,15.932 30.25,15.625L30.25,12.25C30.25,11.422 29.578,10.75 28.75,10.75L27.25,10.75C26.422,10.75 25.75,11.422 25.75,12.25L25.75,15.625C24.231,15.932 22.758,16.436 21.37,17.125L19,14.74C18.415,14.158 17.47,14.158 16.885,14.74L14.74,16.87C14.456,17.152 14.296,17.535 14.296,17.935C14.296,18.335 14.456,18.718 14.74,19L17.125,21.37C16.436,22.758 15.932,24.231 15.625,25.75L12.25,25.75C11.422,25.75 10.75,26.422 10.75,27.25L10.75,28.75C10.75,29.578 11.422,30.25 12.25,30.25L15.625,30.25C15.932,31.769 16.436,33.242 17.125,34.63L14.74,37C14.158,37.585 14.158,38.53 14.74,39.115L16.855,41.245C17.137,41.529 17.52,41.689 17.92,41.689C18.32,41.689 18.703,41.529 18.985,41.245L21.37,38.86C22.758,39.549 24.231,40.053 25.75,40.36L25.75,43.75C25.75,44.578 26.422,45.25 27.25,45.25L28.75,45.25C29.578,45.25 30.25,44.578 30.25,43.75L30.25,40.375C31.769,40.068 33.242,39.564 34.63,38.875L37,41.26C37.585,41.842 38.53,41.842 39.115,41.26L41.245,39.13C41.827,38.545 41.827,37.6 41.245,37.015L38.86,34.63C39.549,33.242 40.053,31.769 40.36,30.25L43.75,30.25C44.578,30.25 45.25,29.578 45.25,28.75L45.25,27.25C45.25,26.422 44.578,25.75 43.75,25.75L40.375,25.75C40.195,25 39.955,24.025 39.64,23.125M45.25,10.75L29.11,30.4C28.846,30.753 28.44,30.973 28,31C27.561,31.012 27.139,30.831 26.845,30.505L22,25" style="fill:none;stroke:rgb(44,44,44);stroke-width:2px;"/>
                    </g>
                </g>
            </g>
            <g id="g-root-ic_cont_24kpg1pdw07e-stroke" transform="matrix(1,0,0,1,467,194)">
                <g id="ic_cont_24kpg1pdw07e-stroke">
                    <g>
                        <path d="M11.125,41.575C11.125,32.275 18.658,24.775 28,24.775C37.342,24.775 44.875,32.275 44.875,41.575M28,44.275C29.243,44.275 30.25,43.268 30.25,42.025C30.25,40.782 29.243,39.775 28,39.775C26.757,39.775 25.75,40.782 25.75,42.025C25.75,43.268 26.757,44.275 28,44.275ZM23.725,30.325L27.175,39.925M32.275,30.325L31.525,32.425M38.8,35.875L36.55,37.225M17.2,35.875L19.45,37.225M40.3,44.125L38.05,43.825M15.7,44.125L17.95,43.825M17.2,11.725L20.593,20.297M16,18.925L20.5,20.425L22.9,16.225" style="fill:none;stroke:rgb(44,44,44);stroke-width:2px;"/>
                    </g>
                </g>
            </g>
            <g id="g-root-ic_grow_7quhg1pdt5om-stroke" transform="matrix(1,0,0,1,77,290)">
                <g id="ic_grow_7quhg1pdt5om-stroke">
                    <g>
                        <path d="M30.237,10.75C29.842,21.172 21.268,28.75 10.75,28.75M27.25,13.75L30.25,10.75L33.25,13.75M44.124,14.428C44.367,14.316 44.651,14.342 44.87,14.497C45.089,14.652 45.209,14.911 45.184,15.178C44.949,18.055 43.861,24.667 38.868,24.667C36.459,24.623 34.53,22.658 34.53,20.249C34.53,17.84 36.459,15.875 38.868,15.831C40.696,15.72 42.483,15.243 44.124,14.428L44.124,14.428ZM40.716,19.26C38.219,20.229 36.278,22.252 35.411,24.786C35.221,25.337 35.124,25.916 35.125,26.5L35.125,45.25M10.75,45.25L45.25,45.25M11.125,41.5C11.125,41.5 14.125,41.5 14.125,45.25C14.125,45.25 14.125,41.5 17.125,41.5M24.625,42.25C25.071,40.957 26.259,40.066 27.625,40M23.875,35.446C24.754,36.325 24.754,37.749 23.875,38.628C22.997,39.507 21.573,39.507 20.694,38.629C19.922,37.408 19.344,36.074 18.981,34.676C18.896,34.409 18.967,34.117 19.165,33.919C19.363,33.721 19.655,33.65 19.923,33.735C21.32,34.099 22.653,34.676 23.875,35.446L23.875,35.446ZM23.8,38.705C24.34,39.537 24.626,40.508 24.625,41.5L24.625,45.25M23.856,28.349C23.593,28.39 23.372,28.566 23.274,28.813C23.175,29.059 23.215,29.34 23.377,29.549C24.877,31.462 28.31,35.099 31.555,33.023C33.202,31.974 33.686,29.789 32.636,28.143C31.587,26.497 29.402,26.013 27.756,27.063C26.552,27.742 25.227,28.18 23.856,28.35L23.856,28.349ZM28.24,30.019C30.341,29.6 32.52,30.13 34.195,31.466C34.56,31.757 34.875,32.106 35.125,32.5" style="fill:none;stroke:rgb(44,44,44);stroke-width:2px;"/>
                    </g>
                </g>
            </g>
            <g id="g-root-ic_pin_m8lm8k1pdxedg-stroke" transform="matrix(1,0,0,1,455,278)">
                <g id="ic_pin_m8lm8k1pdxedg-stroke">
                    <g>
                        <path d="M13.002,36.274L28.175,36.274M13.923,18.274L42.399,18.274M28.904,27.274L10.921,27.274M27.222,45.25C18.22,44.753 11.12,37.409 10.926,28.396C10.733,19.383 17.512,11.742 26.484,10.859C35.455,9.977 43.593,16.151 45.16,25.029M27.058,10.813C18.058,20.563 18.222,33.25 27.222,45.25M29.25,10.813C32.61,14.313 34.84,18.742 35.65,23.525M35.5,32.943C35.5,34.185 36.507,35.193 37.75,35.193C38.993,35.193 40,34.185 40,32.943C40,31.7 38.993,30.693 37.75,30.693C36.507,30.693 35.5,31.7 35.5,32.943ZM44.5,32.95C44.5,37.45 37.75,44.2 37.75,44.2C37.75,44.2 31,37.45 31,32.95C31,29.222 34.022,26.2 37.75,26.2C41.478,26.2 44.5,29.222 44.5,32.95Z" style="fill:none;stroke:rgb(44,44,44);stroke-width:2px;"/>
                    </g>
                </g>
            </g>
            <g id="g-root-ic_24_zn6i1g1pdumfc-stroke" transform="matrix(1,0,0,1,101,386)">
                <g id="ic_24_zn6i1g1pdumfc-stroke">
                    <g>
                        <path d="M28.418,43.688C29.699,44.512 31.223,44.874 32.738,44.712C34.252,44.55 35.666,43.875 36.744,42.798L37.682,41.86C38.099,41.439 38.332,40.87 38.332,40.278C38.332,39.686 38.099,39.118 37.682,38.697L33.729,34.769C33.313,34.354 32.749,34.121 32.161,34.121C31.573,34.121 31.009,34.354 30.592,34.769C30.171,35.186 29.603,35.419 29.011,35.419C28.419,35.419 27.851,35.186 27.43,34.769L21.13,28.469C20.713,28.048 20.48,27.48 20.48,26.888C20.48,26.296 20.713,25.728 21.13,25.307C21.545,24.89 21.778,24.326 21.778,23.738C21.778,23.15 21.545,22.586 21.13,22.17L17.325,18.217C16.904,17.8 16.336,17.567 15.744,17.567C15.152,17.567 14.584,17.8 14.163,18.217L13.224,19.156C12.128,20.218 11.43,21.624 11.246,23.139C11.061,24.654 11.402,26.187 12.211,27.481C16.519,33.877 22.022,39.38 28.418,43.688ZM43.323,18.982L36.74,18.982C36.376,18.982 36.082,18.687 36.082,18.324C36.082,18.164 36.14,18.01 36.244,17.891L42.231,11.048C42.35,10.913 42.52,10.836 42.7,10.836C43.044,10.836 43.323,11.115 43.323,11.458L43.323,18.982ZM43.323,18.982L45.133,18.982M43.323,18.982L43.323,21.697M33.54,21.697L26.299,21.697L26.299,20.154C26.299,19.075 26.937,18.099 27.926,17.666L31.955,15.904C32.917,15.482 33.54,14.531 33.54,13.481C33.54,12.02 32.355,10.836 30.895,10.836L29.014,10.836C27.832,10.836 26.826,11.591 26.453,12.646" style="fill:none;stroke:rgb(44,44,44);stroke-width:2px;"/>
                    </g>
                </g>
            </g>
            <g id="g-root-ic_chec_13z95n81pdysjy-stroke" transform="matrix(1,0,0,1,431,374)">
                <g id="ic_chec_13z95n81pdysjy-stroke">
                    <g>
                        <path d="M33.736,15.207L26.611,24.206L22.861,20.457M14.669,30.63C12.313,29.758 10.749,27.512 10.75,25L10.75,21.25C10.75,20.422 11.422,19.75 12.25,19.75L15.326,19.75M41.33,30.63C43.687,29.758 45.251,27.512 45.25,25L45.25,21.25C45.25,20.422 44.578,19.75 43.75,19.75L40.673,19.75M41.473,12.288C41.483,11.883 41.33,11.492 41.047,11.203C40.765,10.913 40.377,10.75 39.973,10.75L16.027,10.75C15.623,10.75 15.235,10.913 14.953,11.203C14.67,11.492 14.517,11.883 14.527,12.288C15.048,33.609 26.456,27.517 26.456,35.5C26.374,40.123 24.457,41.838 21.172,42.182C20.369,42.266 19.759,42.943 19.759,43.75C19.759,44.578 20.431,45.25 21.259,45.25L34.741,45.25C35.569,45.25 36.241,44.578 36.241,43.75C36.241,42.943 35.631,42.266 34.828,42.182C31.543,41.838 29.626,40.123 29.544,35.5C29.544,27.517 40.952,33.609 41.473,12.288Z" style="fill:none;stroke:rgb(44,44,44);stroke-width:2px;"/>
                    </g>
                </g>
            </g>
        </g>
    </g>
</svg>
