<?xml version="1.0" encoding="UTF-8" standalone="no"?>
<!DOCTYPE svg PUBLIC "-//W3C//DTD SVG 1.1//EN" "http://www.w3.org/Graphics/SVG/1.1/DTD/svg11.dtd">
<svg width="100%" height="100%" viewBox="0 0 702 870" version="1.1" xmlns="http://www.w3.org/2000/svg" xmlns:xlink="http://www.w3.org/1999/xlink" xml:space="preserve" xmlns:serif="http://www.serif.com/" style="fill-rule:evenodd;clip-rule:evenodd;stroke-linecap:round;stroke-linejoin:round;">
    <g id="items" transform="matrix(1.10284,0,0,1.10284,-36.098,-56.9619)">
        <g id="blend">
            <g id="g-root-cp_5_shape-5_18n68e7ctfmyx-fill" transform="matrix(1,0,0,1,314.303,68)">
                <g id="cp_5_shape-5_18n68e7ctfmyx-fill">
                    <g>
                        <path d="M27.697,292L15.697,292L15.697,160L27.697,160L27.697,292ZM32.297,28.191L27.697,28.191L27.697,160L15.697,160L15.697,28.191L11.017,28.191C10.237,28.191 9.747,27.341 10.137,26.661L20.86,10.448C21.256,9.849 22.136,9.851 22.53,10.451L33.177,26.661C33.577,27.341 33.087,28.191 32.297,28.191Z" style="fill:rgb(166,218,55);"/>
                    </g>
                </g>
            </g>
            <g id="g-root-cp_1_shape-1_v480zjctgyyr-fill" transform="matrix(1,0,0,1,32,67.8164)">
                <g id="cp_1_shape-1_v480zjctgyyr-fill">
                    <g>
                        <path d="M214,328.184L46,328.183C26.118,328.183 10,312.081 10,292.199L10,292.184L250,292.184C250,312.066 233.882,328.184 214,328.184ZM254.6,28.375L250,28.375L250,160.184L10,160.184C10,140.302 26.118,124.505 46,124.505L172,124.505C213.07,124.505 238,94.374 238,55.034L238,28.374L233.32,28.374C232.54,28.374 232.05,27.524 232.44,26.844L243.163,10.632C243.559,10.033 244.439,10.034 244.833,10.635L255.48,26.844C255.88,27.525 255.39,28.375 254.6,28.375ZM250,160.184L250,292.184L10,292.184L10,160.184L250,160.184Z" style="fill:rgb(251,103,98);"/>
                    </g>
                </g>
            </g>
            <g id="g-root-cp_3_shape-3_1hby0ovcth159-fill" transform="matrix(1,0,0,1,284.303,68)">
                <g id="cp_3_shape-3_1hby0ovcth159-fill">
                    <g>
                        <path d="M27.697,292L15.697,292L15.697,160L27.697,160L27.697,292ZM32.297,28.191L27.697,28.191L27.697,160L15.697,160L15.697,28.191L11.017,28.191C10.237,28.191 9.747,27.341 10.137,26.661L20.86,10.448C21.256,9.849 22.136,9.851 22.53,10.451L33.177,26.661C33.577,27.341 33.087,28.191 32.297,28.191Z" style="fill:rgb(255,231,17);"/>
                    </g>
                </g>
            </g>
            <g id="g-root-cp_3_shape-3_1_3cxdrcth15b-fill" transform="matrix(1,0,0,1,32,350)">
                <g id="cp_3_shape-3_1_3cxdrcth15b-fill">
                    <g>
                        <path d="M214,64.321C244,64.321 268,46 268,10L280,10L280,100.306L10,100.306C10,80.423 26.118,64.321 46,64.321L214,64.321Z" style="fill:rgb(255,231,17);"/>
                    </g>
                </g>
            </g>
            <g id="g-root-cp_5_shape-5_1_zn5wjjctgzcx-fill" transform="matrix(1,0,0,1,320,350)">
                <g id="cp_5_shape-5_1_zn5wjjctgzcx-fill">
                    <g>
                        <rect x="10" y="10" width="12" height="198" style="fill:rgb(166,218,55);"/>
                    </g>
                </g>
            </g>
            <g id="g-root-cp_3_shape-3_2_1uqiwhrcth0qr-fill" transform="matrix(1,0,0,1,32,440)">
                <g id="cp_3_shape-3_2_1uqiwhrcth0qr-fill">
                    <g>
                        <path d="M280,10L280,117.982L10,117.982L10,10L280,10ZM244,154.008L46,154.008C26.118,154.008 10,137.906 10,118.023L10,118.008L280,118.008C280,137.89 263.882,154.008 244,154.008Z" style="fill:rgb(255,231,17);"/>
                    </g>
                </g>
            </g>
            <g id="g-root-cp_5_shape-5_2_4masxrcth1jh-fill" transform="matrix(1,0,0,1,32,548)">
                <g id="cp_5_shape-5_2_4masxrcth1jh-fill">
                    <g>
                        <path d="M244,64.137C274,64.137 298,45.878 298,10L310,10L310,100L10,100C10,80.185 26.118,64.137 46,64.137L244,64.137Z" style="fill:rgb(166,218,55);"/>
                    </g>
                </g>
            </g>
            <g id="g-root-cp_5_shape-5_3_1lwrbi7cth0jr-fill" transform="matrix(1,0,0,1,32,638)">
                <g id="cp_5_shape-5_3_1lwrbi7cth0jr-fill">
                    <g>
                        <path d="M310,10L310,118L10,118L10,10L310,10ZM274,154.008L46,154.008C26.118,154.008 10,137.882 10,118L310,118C310,137.882 293.882,154.008 274,154.008Z" style="fill:rgb(166,218,55);"/>
                    </g>
                </g>
            </g>
            <g id="g-root-cp_2_shape-2_1qeg8vzctgyrt-fill" transform="matrix(1,0,0,1,404.378,67.8164)">
                <g id="cp_2_shape-2_1qeg8vzctgyrt-fill">
                    <g>
                        <path d="M51.622,352.184L219.622,352.184C239.504,352.184 255.622,336.081 255.622,316.199L255.622,316.184L15.622,316.184C15.622,336.066 31.74,352.184 51.622,352.184ZM11.022,28.375L15.622,28.375L15.622,160.184L255.622,160.184C255.622,140.302 239.505,124.505 219.623,124.505L93.622,124.505C52.552,124.505 27.622,94.374 27.622,55.034L27.622,28.374L32.302,28.374C33.082,28.374 33.572,27.524 33.182,26.844L22.459,10.632C22.063,10.033 21.184,10.034 20.79,10.635L10.142,26.844C9.742,27.525 10.232,28.375 11.022,28.375ZM15.622,160.184L15.622,316.184L255.622,316.184L255.622,160.184L15.622,160.184Z" style="fill:rgb(247,148,56);"/>
                    </g>
                </g>
            </g>
            <g id="g-root-cp_4_shape-4_zs5p8fctgyrv-fill" transform="matrix(1,0,0,1,374.383,68)">
                <g id="cp_4_shape-4_zs5p8fctgyrv-fill">
                    <g>
                        <path d="M15.623,316L27.623,316L27.623,160L15.623,160L15.623,316ZM11.022,28.191L15.622,28.191L15.622,160L27.622,160L27.622,28.191L32.302,28.191C33.082,28.191 33.572,27.341 33.182,26.661L22.459,10.448C22.063,9.849 21.184,9.851 20.79,10.451L10.142,26.661C9.742,27.341 10.232,28.191 11.022,28.191Z" style="fill:rgb(67,221,147);"/>
                    </g>
                </g>
            </g>
            <g id="g-root-cp_6_shape-6_mgp6v3cth0ct-fill" transform="matrix(1,0,0,1,344.383,68)">
                <g id="cp_6_shape-6_mgp6v3cth0ct-fill">
                    <g>
                        <path d="M15.623,316L27.623,316L27.623,160L15.623,160L15.623,316ZM11.022,28.191L15.622,28.191L15.622,160L27.622,160L27.622,28.191L32.302,28.191C33.082,28.191 33.572,27.341 33.182,26.661L22.459,10.448C22.063,9.849 21.184,9.851 20.79,10.451L10.142,26.661C9.742,27.341 10.232,28.191 11.022,28.191Z" style="fill:rgb(26,195,251);"/>
                    </g>
                </g>
            </g>
            <g id="g-root-cp_4_shape-4_1_1q5plofctifif-fill" transform="matrix(1,0,0,1,380,374)">
                <g id="cp_4_shape-4_1_1q5plofctifif-fill">
                    <g>
                        <path d="M76,64.321C46,64.321 22,46 22,10L10,10L10,100.306L280,100.306C280,80.423 263.882,64.321 244,64.321L76,64.321Z" style="fill:rgb(67,221,147);"/>
                    </g>
                </g>
            </g>
            <g id="g-root-cp_4_shape-4_2_18f229rctiept-fill" transform="matrix(1,0,0,1,380,464)">
                <g id="cp_4_shape-4_2_18f229rctiept-fill">
                    <g>
                        <path d="M10,10L10,118L280,118L280,10L10,10ZM46,154L244,154C263.882,154 280,137.898 280,118.016L280,118L10,118C10,137.882 26.118,154 46,154Z" style="fill:rgb(67,221,147);"/>
                    </g>
                </g>
            </g>
            <g id="g-root-cp_6_shape-6_1_hsrim7ctiepv-fill" transform="matrix(1,0,0,1,350,374)">
                <g id="cp_6_shape-6_1_hsrim7ctiepv-fill">
                    <g>
                        <rect x="10" y="10" width="12" height="198" style="fill:rgb(26,195,251);"/>
                    </g>
                </g>
            </g>
            <g id="g-root-cp_6_shape-6_2_zlaha7ctieit-fill" transform="matrix(1,0,0,1,350,572)">
                <g id="cp_6_shape-6_2_zlaha7ctieit-fill">
                    <g>
                        <path d="M76,64.321C46,64.321 22,46 22,10L10,10L10,100.306L310,100.306C310,80.423 293.882,64.321 274,64.321L76,64.321Z" style="fill:rgb(26,195,251);"/>
                    </g>
                </g>
            </g>
            <g id="g-root-cp_6_shape-6_3_detfr3ctidqn-fill" transform="matrix(1,0,0,1,350,662)">
                <g id="cp_6_shape-6_3_detfr3ctidqn-fill">
                    <g>
                        <path d="M10,10L10,118L310,118L310,10L10,10ZM46,154L274,154C293.882,154 310,137.898 310,118.016L310,118L10,118C10,137.882 26.118,154 46,154Z" style="fill:rgb(26,195,251);"/>
                    </g>
                </g>
            </g>
            <g id="g-root-tx_robustse_dika9rctqsju-fill" transform="matrix(1,0,0,1,380,746)">
                <g id="tx_robustse_dika9rctqsju-fill">
                    <g>
                        <g>
                            <g transform="matrix(1,0,0,1,12.04,28.2)">
                                <text x="0px" y="0px" style="font-family:'ArialMT', 'Arial', sans-serif;font-size:15px;fill:rgb(44,44,44);">Robust security and compliance for</text>
                            </g>
                            <g transform="matrix(1,0,0,1,77.28,46.2)">
                                <text x="0px" y="0px" style="font-family:'ArialMT', 'Arial', sans-serif;font-size:15px;fill:rgb(44,44,44);">data protection.</text>
                            </g>
                        </g>
                    </g>
                </g>
            </g>
            <g transform="matrix(1,0,0,1,80.02,300)">
                <g id="g-root-tx_rapiddep_73rwfctidc2-fill">
                    <g id="tx_rapiddep_73rwfctidc2-fill">
                        <g>
                            <g>
                                <text x="0px" y="0px" style="font-family:'Arial-BoldMT', 'Arial', sans-serif;font-weight:700;font-size:20px;fill:rgb(44,44,44);">Rapid Deployment</text>
                            </g>
                        </g>
                    </g>
                </g>
            </g>
            <g transform="matrix(1,0,0,1,97.22,522)">
                <g id="g-root-tx_customso_1lwrbi7ctjs3p-fill">
                    <g id="tx_customso_1lwrbi7ctjs3p-fill">
                        <g>
                            <g>
                                <text x="0px" y="0px" style="font-family:'Arial-BoldMT', 'Arial', sans-serif;font-weight:700;font-size:20px;fill:rgb(44,44,44);">Custom Solutions</text>
                            </g>
                        </g>
                    </g>
                </g>
            </g>
            <g id="g-root-tx_tailored_1utn9xbctjspa-fill" transform="matrix(1,0,0,1,71,524)">
                <g id="tx_tailored_1utn9xbctjspa-fill">
                    <g>
                        <g>
                            <g transform="matrix(1,0,0,1,17.51,28.2)">
                                <text x="0px" y="0px" style="font-family:'ArialMT', 'Arial', sans-serif;font-size:15px;fill:rgb(44,44,44);">T<tspan x="7.5px 15.842px " y="0px 0px ">ai</tspan>lored solutions to meet</text>
                            </g>
                            <g transform="matrix(1,0,0,1,34.21,46.2)">
                                <g transform="matrix(15,0,0,15,35.0171,0)">
                                </g>
                                <g transform="matrix(15,0,0,15,39.1846,0)">
                                </g>
                                <text x="0px" y="0px" style="font-family:'ArialMT', 'Arial', sans-serif;font-size:15px;fill:rgb(44,44,44);">speciﬁc client needs.</text>
                            </g>
                        </g>
                    </g>
                </g>
            </g>
            <g transform="matrix(1,0,0,1,426.82,546)">
                <g id="g-root-tx_optimise_18lxa7zctpgjq-fill">
                    <g id="tx_optimise_18lxa7zctpgjq-fill">
                        <g>
                            <g>
                                <text x="0px" y="0px" style="font-family:'Arial-BoldMT', 'Arial', sans-serif;font-weight:700;font-size:20px;fill:rgb(44,44,44);">Optimised Experience</text>
                            </g>
                        </g>
                    </g>
                </g>
            </g>
            <g id="g-root-tx_enhanced_1hjfpq7ctpdzj-fill" transform="matrix(1,0,0,1,407,548)">
                <g id="tx_enhanced_1hjfpq7ctpdzj-fill">
                    <g>
                        <g>
                            <g transform="matrix(1,0,0,1,17.46,28.2)">
                                <text x="0px" y="0px" style="font-family:'ArialMT', 'Arial', sans-serif;font-size:15px;fill:rgb(44,44,44);">Enhanced user experience for</text>
                            </g>
                            <g transform="matrix(1,0,0,1,28.09,46.2)">
                                <text x="0px" y="0px" style="font-family:'ArialMT', 'Arial', sans-serif;font-size:15px;fill:rgb(44,44,44);">seamless communication.</text>
                            </g>
                        </g>
                    </g>
                </g>
            </g>
            <g id="g-root-tx_cuttinge_1hjfpq7ctmn7w-fill" transform="matrix(1,0,0,1,440,326)">
                <g id="tx_cuttinge_1hjfpq7ctmn7w-fill">
                    <g>
                        <g>
                            <g transform="matrix(1,0,0,1,13.9,31.2)">
                                <text x="0px" y="0px" style="font-family:'ArialMT', 'Arial', sans-serif;font-size:15px;fill:rgb(44,44,44);">Cutting-edge architecture</text>
                            </g>
                            <g transform="matrix(1,0,0,1,17.08,49.2)">
                                <text x="0px" y="0px" style="font-family:'ArialMT', 'Arial', sans-serif;font-size:15px;fill:rgb(44,44,44);">for scalable multi-tenant</text>
                            </g>
                            <g transform="matrix(1,0,0,1,68,67.2)">
                                <text x="0px" y="0px" style="font-family:'ArialMT', 'Arial', sans-serif;font-size:15px;fill:rgb(44,44,44);">systems.</text>
                            </g>
                        </g>
                    </g>
                </g>
            </g>
            <g id="g-root-tx_quickand_metrlrctifij-fill" transform="matrix(1,0,0,1,62,302)">
                <g id="tx_quickand_metrlrctifij-fill">
                    <g>
                        <g>
                            <g transform="matrix(1,0,0,1,38.19,31.2)">
                                <g transform="matrix(15,0,0,15,80.0464,0)">
                                </g>
                                <g transform="matrix(15,0,0,15,84.0804,0)">
                                </g>
                                <g transform="matrix(15,0,0,15,88.1145,0)">
                                </g>
                                <text x="0px" y="0px" style="font-family:'ArialMT', 'Arial', sans-serif;font-size:15px;fill:rgb(44,44,44);">Quick and eﬃcient</text>
                            </g>
                            <g transform="matrix(1,0,0,1,12.09,49.2)">
                                <text x="0px" y="0px" style="font-family:'ArialMT', 'Arial', sans-serif;font-size:15px;fill:rgb(44,44,44);">deployment for immediate</text>
                            </g>
                            <g transform="matrix(1,0,0,1,85.94,67.2)">
                                <text x="0px" y="0px" style="font-family:'ArialMT', 'Arial', sans-serif;font-size:15px;fill:rgb(44,44,44);">use.</text>
                            </g>
                        </g>
                    </g>
                </g>
            </g>
            <g transform="matrix(1,0,0,1,129.48,720)">
                <g id="g-root-tx_liveanal_zoeuprctl6gw-fill">
                    <g id="tx_liveanal_zoeuprctl6gw-fill">
                        <g>
                            <g>
                                <text x="0px" y="0px" style="font-family:'Arial-BoldMT', 'Arial', sans-serif;font-weight:700;font-size:20px;fill:rgb(44,44,44);">Live <tspan x="44.834px 59.277px " y="0px 0px ">An</tspan>alytics</text>
                            </g>
                        </g>
                    </g>
                </g>
            </g>
            <g id="g-root-tx_realtime_1lw4uf3ctl8nd-fill" transform="matrix(1,0,0,1,68,722)">
                <g id="tx_realtime_1lw4uf3ctl8nd-fill">
                    <g>
                        <g>
                            <g transform="matrix(1,0,0,1,15.8,28.2)">
                                <text x="0px" y="0px" style="font-family:'ArialMT', 'Arial', sans-serif;font-size:15px;fill:rgb(44,44,44);">Real-time analytics for informed</text>
                            </g>
                            <g transform="matrix(1,0,0,1,65.38,46.2)">
                                <text x="0px" y="0px" style="font-family:'ArialMT', 'Arial', sans-serif;font-size:15px;fill:rgb(44,44,44);">decision-making.</text>
                            </g>
                        </g>
                    </g>
                </g>
            </g>
            <g transform="matrix(1,0,0,1,421.02,744)">
                <g id="g-root-tx_secureco_1czvd33ctquwx-fill">
                    <g id="tx_secureco_1czvd33ctquwx-fill">
                        <g>
                            <g>
                                <text x="0px" y="0px" style="font-family:'Arial-BoldMT', 'Arial', sans-serif;font-weight:700;font-size:20px;fill:rgb(44,44,44);">Secure &amp; Compliant</text>
                            </g>
                        </g>
                    </g>
                </g>
            </g>
            <g id="g-root-tx_advanced_1lw4uf3ctmm17-fill" transform="matrix(1,0,0,1,470,266)">
                <g id="tx_advanced_1lw4uf3ctmm17-fill">
                    <g>
                        <g>
                            <g transform="matrix(1,0,0,1,25.45,34)">
                                <text x="0px" y="0px" style="font-family:'Arial-BoldMT', 'Arial', sans-serif;font-weight:700;font-size:20px;fill:rgb(44,44,44);">Advanced</text>
                            </g>
                            <g transform="matrix(1,0,0,1,14.32,58)">
                                <text x="0px" y="0px" style="font-family:'Arial-BoldMT', 'Arial', sans-serif;font-weight:700;font-size:20px;fill:rgb(44,44,44);">Architecture</text>
                            </g>
                        </g>
                    </g>
                </g>
            </g>
            <g id="g-root-cp_5_shape-5_18n68e7ctfmyx-stroke" transform="matrix(1,0,0,1,314.303,68)">
                <g id="cp_5_shape-5_18n68e7ctfmyx-stroke">
                    <g>
                        <path d="M15.697,160L15.697,292M27.697,292L27.697,160M15.697,160L15.697,28.191L11.017,28.191C10.237,28.191 9.747,27.341 10.137,26.661L20.86,10.448C21.256,9.849 22.136,9.851 22.53,10.451L33.177,26.661C33.577,27.341 33.087,28.191 32.297,28.191L27.697,28.191L27.697,160" style="fill:none;stroke:rgb(44,44,44);stroke-width:2px;"/>
                    </g>
                </g>
            </g>
            <g id="g-root-cp_1_shape-1_v480zjctgyyr-stroke" transform="matrix(1,0,0,1,32,67.8164)">
                <g id="cp_1_shape-1_v480zjctgyyr-stroke">
                    <g>
                        <path d="M10,160.184C10,140.301 26.118,124.321 46,124.321L172,124.321C213.07,124.321 238,94.191 238,54.851L238,28.191L233.32,28.191C232.54,28.191 232.05,27.341 232.44,26.661L243.163,10.448C243.559,9.849 244.439,9.851 244.833,10.451L255.48,26.661C255.88,27.341 255.39,28.191 254.6,28.191L250,28.191L250,160.184M250,292.184C250,312.066 233.882,328.191 214,328.191L46,328.191C26.118,328.191 10,312.081 10,292.199L10,292.184M250,292.184L250,160.184M10,160.184L10,292.184" style="fill:none;stroke:rgb(44,44,44);stroke-width:2px;"/>
                    </g>
                </g>
            </g>
            <g id="g-root-cp_3_shape-3_1hby0ovcth159-stroke" transform="matrix(1,0,0,1,284.303,68)">
                <g id="cp_3_shape-3_1hby0ovcth159-stroke">
                    <g>
                        <path d="M15.697,160L15.697,292M27.697,292L27.697,160M15.697,160L15.697,28.191L11.017,28.191C10.237,28.191 9.747,27.341 10.137,26.661L20.86,10.448C21.256,9.849 22.136,9.851 22.53,10.451L33.177,26.661C33.577,27.341 33.087,28.191 32.297,28.191L27.697,28.191L27.697,160" style="fill:none;stroke:rgb(44,44,44);stroke-width:2px;"/>
                    </g>
                </g>
            </g>
            <g id="g-root-cp_3_shape-3_1_3cxdrcth15b-stroke" transform="matrix(1,0,0,1,32,350)">
                <g id="cp_3_shape-3_1_3cxdrcth15b-stroke">
                    <g>
                        <path d="M268,10C268,46 244,64.321 214,64.321L46,64.321C26.118,64.321 10,80.423 10,100.306M280,100.306L280,10" style="fill:none;stroke:rgb(44,44,44);stroke-width:2px;"/>
                    </g>
                </g>
            </g>
            <g id="g-root-cp_5_shape-5_1_zn5wjjctgzcx-stroke" transform="matrix(1,0,0,1,320,350)">
                <g id="cp_5_shape-5_1_zn5wjjctgzcx-stroke">
                    <g>
                        <path d="M10,10L10,208M22,208L22,10" style="fill:none;stroke:rgb(44,44,44);stroke-width:2px;"/>
                    </g>
                </g>
            </g>
            <g id="g-root-cp_3_shape-3_2_1uqiwhrcth0qr-stroke" transform="matrix(1,0,0,1,32,440)">
                <g id="cp_3_shape-3_2_1uqiwhrcth0qr-stroke">
                    <g>
                        <path d="M280,117.982L280,10M10,10L10,118M280,118.008C280,137.89 263.882,154.008 244,154.008L46,154.008C26.118,154.008 10,137.906 10,118.023L10,118.008" style="fill:none;stroke:rgb(44,44,44);stroke-width:2px;"/>
                    </g>
                </g>
            </g>
            <g id="g-root-cp_5_shape-5_2_4masxrcth1jh-stroke" transform="matrix(1,0,0,1,32,548)">
                <g id="cp_5_shape-5_2_4masxrcth1jh-stroke">
                    <g>
                        <path d="M298,10C298,45.878 274,64.137 244,64.137L46,64.137C26.118,64.137 10,80.185 10,100M310,100L310,10" style="fill:none;stroke:rgb(44,44,44);stroke-width:2px;"/>
                    </g>
                </g>
            </g>
            <g id="g-root-cp_5_shape-5_3_1lwrbi7cth0jr-stroke" transform="matrix(1,0,0,1,32,638)">
                <g id="cp_5_shape-5_3_1lwrbi7cth0jr-stroke">
                    <g>
                        <path d="M310,118L310,10M10,10L10,118M310,118C310,137.882 293.882,154.008 274,154.008L46,154.008C26.118,154.008 10,137.882 10,118" style="fill:none;stroke:rgb(44,44,44);stroke-width:2px;"/>
                    </g>
                </g>
            </g>
            <g id="g-root-cp_2_shape-2_1qeg8vzctgyrt-stroke" transform="matrix(1,0,0,1,404.378,67.8164)">
                <g id="cp_2_shape-2_1qeg8vzctgyrt-stroke">
                    <g>
                        <path d="M255.622,160.184C255.622,140.301 239.505,124.321 219.623,124.321L93.622,124.321C52.552,124.321 27.622,94.191 27.622,54.851L27.622,28.191L32.302,28.191C33.082,28.191 33.572,27.341 33.182,26.661L22.459,10.448C22.063,9.849 21.184,9.851 20.79,10.451L10.142,26.661C9.742,27.341 10.232,28.191 11.022,28.191L15.622,28.191L15.622,160.184M15.622,316.184C15.622,336.066 31.74,352.184 51.622,352.184L219.623,352.183C239.505,352.183 255.622,336.081 255.622,316.199L255.622,316.184M15.622,316.184L15.622,160.184M255.622,160.184L255.622,316.184" style="fill:none;stroke:rgb(44,44,44);stroke-width:2px;"/>
                    </g>
                </g>
            </g>
            <g id="g-root-cp_4_shape-4_zs5p8fctgyrv-stroke" transform="matrix(1,0,0,1,374.383,68)">
                <g id="cp_4_shape-4_zs5p8fctgyrv-stroke">
                    <g>
                        <path d="M27.622,160L27.622,316M15.622,316L15.622,160M27.622,160L27.622,28.191L32.302,28.191C33.082,28.191 33.572,27.341 33.182,26.661L22.459,10.448C22.063,9.849 21.184,9.851 20.79,10.451L10.142,26.661C9.742,27.341 10.232,28.191 11.022,28.191L15.622,28.191L15.622,160" style="fill:none;stroke:rgb(44,44,44);stroke-width:2px;"/>
                    </g>
                </g>
            </g>
            <g id="g-root-cp_6_shape-6_mgp6v3cth0ct-stroke" transform="matrix(1,0,0,1,344.383,68)">
                <g id="cp_6_shape-6_mgp6v3cth0ct-stroke">
                    <g>
                        <path d="M27.622,160L27.622,316M15.622,316L15.622,160M27.622,160L27.622,28.191L32.302,28.191C33.082,28.191 33.572,27.341 33.182,26.661L22.459,10.448C22.063,9.849 21.184,9.851 20.79,10.451L10.142,26.661C9.742,27.341 10.232,28.191 11.022,28.191L15.622,28.191L15.622,160" style="fill:none;stroke:rgb(44,44,44);stroke-width:2px;"/>
                    </g>
                </g>
            </g>
            <g id="g-root-cp_4_shape-4_1_1q5plofctifif-stroke" transform="matrix(1,0,0,1,380,374)">
                <g id="cp_4_shape-4_1_1q5plofctifif-stroke">
                    <g>
                        <path d="M22,10C22,46 46,64.321 76,64.321L244,64.321C263.882,64.321 280,80.423 280,100.306M10,100.306L10,10" style="fill:none;stroke:rgb(44,44,44);stroke-width:2px;"/>
                    </g>
                </g>
            </g>
            <g id="g-root-cp_4_shape-4_2_18f229rctiept-stroke" transform="matrix(1,0,0,1,380,464)">
                <g id="cp_4_shape-4_2_18f229rctiept-stroke">
                    <g>
                        <path d="M10,118L10,10M280,10L280,118M10,118C10,137.882 26.118,154.008 46,154.008L244,154.008C263.882,154.008 280,137.898 280,118.016L280,118" style="fill:none;stroke:rgb(44,44,44);stroke-width:2px;"/>
                    </g>
                </g>
            </g>
            <g id="g-root-cp_6_shape-6_1_hsrim7ctiepv-stroke" transform="matrix(1,0,0,1,350,374)">
                <g id="cp_6_shape-6_1_hsrim7ctiepv-stroke">
                    <g>
                        <path d="M22,10L22,208M10,208L10,10" style="fill:none;stroke:rgb(44,44,44);stroke-width:2px;"/>
                    </g>
                </g>
            </g>
            <g id="g-root-cp_6_shape-6_2_zlaha7ctieit-stroke" transform="matrix(1,0,0,1,350,572)">
                <g id="cp_6_shape-6_2_zlaha7ctieit-stroke">
                    <g>
                        <path d="M22,10C22,46 46,64.321 76,64.321L274,64.321C293.882,64.321 310,80.423 310,100.306M10,100.306L10,10" style="fill:none;stroke:rgb(44,44,44);stroke-width:2px;"/>
                    </g>
                </g>
            </g>
            <g id="g-root-cp_6_shape-6_3_detfr3ctidqn-stroke" transform="matrix(1,0,0,1,350,662)">
                <g id="cp_6_shape-6_3_detfr3ctidqn-stroke">
                    <g>
                        <path d="M10,118L10,10M310,10L310,118M10,118C10,137.882 26.118,154.008 46,154.008L274,154.008C293.882,154.008 310,137.898 310,118.016L310,118" style="fill:none;stroke:rgb(44,44,44);stroke-width:2px;"/>
                    </g>
                </g>
            </g>
            <g id="g-root-ic_1_1cxdgqnctnzt9-stroke" transform="matrix(1,0,0,1,506,206)">
                <g id="ic_1_1cxdgqnctnzt9-stroke">
                    <g>
                        <path d="M16.348,45.932L12,57M18,57L19.786,47M51.652,45.932L56,57M50,57L48.214,47M38.664,34.732L45.88,40.504M22.12,40.504L29.334,34.732M18.622,39.036L17.66,28.938M30.196,48.224L22.614,44.686M45.384,44.688L37.804,48.224M50.334,29L49.378,39.026M37.698,16.524L47.414,20.524M20.584,20.524L30.304,16.522M15,43C15,45.209 16.791,47 19,47C21.209,47 23,45.209 23,43C23,40.791 21.209,39 19,39C16.791,39 15,40.791 15,43ZM30,15C30,17.209 31.791,19 34,19C36.209,19 38,17.209 38,15C38,12.791 36.209,11 34,11C31.791,11 30,12.791 30,15ZM12,24C12,26.761 14.239,29 17,29C19.761,29 22,26.761 22,24C22,21.239 19.761,19 17,19C14.239,19 12,21.239 12,24ZM45,43C45,45.209 46.791,47 49,47C51.209,47 53,45.209 53,43C53,40.791 51.209,39 49,39C46.791,39 45,40.791 45,43ZM46,24C46,26.761 48.239,29 51,29C53.761,29 56,26.761 56,24C56,21.239 53.761,19 51,19C48.239,19 46,21.239 46,24ZM28.43,28.772L19,25M49,25L39.566,28.774M34,19L34,25M36.214,36.576L39,57M29,57L31.786,36.576M28,31C28,34.314 30.686,37 34,37C37.314,37 40,34.314 40,31C40,27.686 37.314,25 34,25C30.686,25 28,27.686 28,31Z" style="fill:none;stroke:rgb(44,44,44);stroke-width:2px;"/>
                    </g>
                </g>
            </g>
            <g id="g-root-ic_1_mgp6v3ctjrwn-stroke" transform="matrix(1,0,0,1,143,428)">
                <g id="ic_1_mgp6v3ctjrwn-stroke">
                    <g>
                        <path d="M42.42,13.14L51,16L46,30L48,56C48.017,56.263 47.923,56.521 47.74,56.711C47.557,56.901 47.304,57.006 47.04,57L39.04,57C38.418,56.964 37.836,56.684 37.42,56.22L34,52L30.62,56.22C30.201,56.68 29.621,56.96 29,57L21,57C20.731,57.011 20.47,56.91 20.28,56.72C20.09,56.53 19.989,56.269 20,56L22,30L17,16L25.58,13.14M34,40L34,52M38,11C37.34,19 37,30 34,40C31,30 30.66,19 30,11M38,11C40.74,11 43.14,13.4 44.6,16.18C44.842,16.631 44.704,17.193 44.28,17.48L42,19L43.66,21.5C43.838,21.817 43.838,22.203 43.66,22.52C40.96,27.84 39.8,37.1 34,40C28.18,37.1 27.04,27.84 24.28,22.52C24.089,22.207 24.089,21.813 24.28,21.5L26,19L23.72,17.48C23.296,17.193 23.158,16.631 23.4,16.18C24.84,13.4 27.26,11 30,11L38,11ZM25,47L28,47M40,47L43,47M17,16C14.22,28 11.74,47 11.02,51.16C10.932,51.639 11.202,52.113 11.66,52.28L16,53.8C16.26,53.92 16.56,53.92 16.82,53.8C17.077,53.656 17.259,53.408 17.32,53.12L22,30M51,16C53.78,28 56.26,47 57,51.16C57.088,51.639 56.818,52.113 56.36,52.28L52,53.8C51.74,53.92 51.44,53.92 51.18,53.8C50.923,53.656 50.741,53.408 50.68,53.12L46,30" style="fill:none;stroke:rgb(44,44,44);stroke-width:2px;"/>
                    </g>
                </g>
            </g>
            <g id="g-root-ic_1_4goj5rctqsjk-stroke" transform="matrix(1,0,0,1,491,452)">
                <g id="ic_1_4goj5rctqsjk-stroke">
                    <g>
                        <path d="M19.351,56.5L19.351,43.97C16.587,41.41 14.66,38.076 13.82,34.403C12.981,30.731 13.269,26.891 14.646,23.384C16.022,19.878 18.425,16.868 21.539,14.748C24.653,12.628 28.334,11.496 32.101,11.5C46.379,11.5 49.461,23.256 54.551,36.46C54.638,36.687 54.669,36.932 54.64,37.174C54.611,37.416 54.525,37.647 54.387,37.848C54.249,38.049 54.065,38.213 53.849,38.326C53.634,38.44 53.394,38.5 53.151,38.5L49.351,38.5L49.351,44.5C49.351,46.091 48.719,47.617 47.593,48.743C46.468,49.868 44.942,50.5 43.351,50.5L40.351,50.5L40.351,56.5M32.131,41.321C38.373,41.321 43.433,36.261 43.433,30.019C43.433,23.777 38.373,18.717 32.131,18.717C25.889,18.717 20.829,23.777 20.829,30.019C20.829,36.261 25.889,41.321 32.131,41.321ZM28.315,27.833C27.899,27.833 27.563,27.496 27.563,27.08C27.563,26.665 27.899,26.328 28.315,26.328M28.315,27.833C28.731,27.833 29.067,27.496 29.067,27.08C29.067,26.665 28.731,26.328 28.315,26.328M35.947,27.833C35.531,27.833 35.194,27.496 35.194,27.08C35.194,26.665 35.531,26.328 35.947,26.328M35.947,27.833C36.362,27.833 36.699,27.496 36.699,27.08C36.699,26.665 36.362,26.328 35.947,26.328M35.601,33.707C33.913,35.285 30.269,35.233 28.662,33.707" style="fill:none;stroke:rgb(44,44,44);stroke-width:2px;"/>
                    </g>
                </g>
            </g>
            <g id="g-root-ic_box_dl26m7ctifbg-stroke" transform="matrix(1,0,0,1,128,206)">
                <g id="ic_box_dl26m7ctifbg-stroke">
                    <g>
                        <path d="M12,46.254L34,52.254M34,52.254L56,46.254M12,46.254L22.986,43.376M12,55.376L12,46.504M56,46.504L56,55.376M34,56.376L34,52.254M41,22.124C41,25.99 39.834,36.124 34,36.124C28.166,36.124 27,26 27,22.124C27,15.124 34,11.624 34,11.624C34,11.624 41,15.124 41,22.124ZM31.254,21.874C31.254,23.391 32.483,24.621 34,24.621C35.517,24.621 36.746,23.391 36.746,21.874C36.746,20.357 35.517,19.127 34,19.127C32.483,19.127 31.254,20.357 31.254,21.874M29.366,34.322L27.75,35.132C26.836,35.617 25.999,36.234 25.266,36.964C24.907,37.349 24.352,37.481 23.859,37.299C23.365,37.116 23.029,36.656 23.006,36.13C22.654,33.052 24.376,30.11 27.232,28.91M38.634,34.322L40.25,35.132C41.164,35.617 42.001,36.234 42.734,36.964C43.093,37.349 43.648,37.481 44.141,37.299C44.635,37.116 44.971,36.656 44.994,36.13C45.346,33.052 43.624,30.11 40.768,28.91M56,46.254L45.014,43.376M36.8,42.014C36.8,43.56 35.546,47.3 34,47.3C32.454,47.3 31.2,43.56 31.2,42.014C31.2,40.468 32.454,39.214 34,39.214C35.546,39.214 36.8,40.468 36.8,42.014Z" style="fill:none;stroke:rgb(44,44,44);stroke-width:2px;"/>
                    </g>
                </g>
            </g>
            <g id="g-root-ic_wave_dj6rcvctl7uq-stroke" transform="matrix(1,0,0,1,158,626)">
                <g id="ic_wave_dj6rcvctl7uq-stroke">
                    <g>
                        <path d="M15,12L53,12C53,12 57,12 57,16L57,52C57,52 57,56 53,56L15,56C15,56 11,56 11,52L11,16C11,16 11,12 15,12M11,22L57,22M18,16.5C18.276,16.5 18.5,16.724 18.5,17C18.5,17.276 18.276,17.5 18,17.5C17.724,17.5 17.5,17.276 17.5,17C17.5,16.724 17.724,16.5 18,16.5M24,16.5C24.276,16.5 24.5,16.724 24.5,17C24.5,17.276 24.276,17.5 24,17.5C23.724,17.5 23.5,17.276 23.5,17C23.5,16.724 23.724,16.5 24,16.5M30,16.5C30.276,16.5 30.5,16.724 30.5,17C30.5,17.276 30.276,17.5 30,17.5C29.724,17.5 29.5,17.276 29.5,17C29.5,16.724 29.724,16.5 30,16.5M11,39L57,39M22,22L22,56M22,36L24.93,30.142C25.875,28.25 27.817,27.063 29.932,27.083C32.047,27.103 33.965,28.328 34.874,30.238L35.66,31.886C36.529,33.711 38.323,34.917 40.341,35.033C42.359,35.148 44.279,34.154 45.35,32.44C46.357,30.829 48.12,29.846 50.02,29.839C51.919,29.831 53.69,30.799 54.71,32.402L57,36M22,48.186L25.282,44.904C25.943,44.243 26.869,43.917 27.799,44.019C28.728,44.121 29.562,44.639 30.064,45.428L32.522,49.29C33.075,50.159 34.025,50.695 35.055,50.718C36.084,50.741 37.057,50.248 37.648,49.404L39.33,47.004C39.922,46.156 40.901,45.662 41.935,45.689C42.969,45.716 43.921,46.26 44.468,47.138L44.556,47.278C45.102,48.151 46.047,48.694 47.076,48.725C48.105,48.757 49.082,48.273 49.68,47.436C50.235,46.659 51.119,46.184 52.073,46.148C53.027,46.113 53.944,46.521 54.556,47.254L57,50.186" style="fill:none;stroke:rgb(44,44,44);stroke-width:2px;"/>
                    </g>
                </g>
            </g>
            <g id="g-root-ic_safe_1hhkagvctqt4z-stroke" transform="matrix(1,0,0,1,476,650)">
                <g id="ic_safe_1hhkagvctqt4z-stroke">
                    <g>
                        <path d="M15.008,11L53.008,11C53.008,11 57.008,11 57.008,15L57.008,51C57.008,51 57.008,55 53.008,55L15.008,55C15.008,55 11.008,55 11.008,51L11.008,15C11.008,15 11.008,11 15.008,11M15.008,55L15.008,57M53.008,55L53.008,57M17,43L17,45C17,47.209 18.791,49 21,49L47,49C49.209,49 51,47.209 51,45L51,21C51,18.791 49.209,17 47,17L21,17C18.791,17 17,18.791 17,21L17,23M17.008,29L17.008,37M15.008,23L19.008,23L19.008,29L15.008,29L15.008,23ZM15.008,37L19.008,37L19.008,43L15.008,43L15.008,37ZM26.008,33C26.008,37.971 30.037,42 35.008,42C39.979,42 44.008,37.971 44.008,33C44.008,28.029 39.979,24 35.008,24C30.037,24 26.008,28.029 26.008,33M30.008,33C30.008,35.761 32.247,38 35.008,38C37.769,38 40.008,35.761 40.008,33C40.008,30.239 37.769,28 35.008,28C32.247,28 30.008,30.239 30.008,33M35.008,24L35.008,28M28.644,26.636L31.472,29.466M26.008,33L30.008,33M28.644,39.364L31.472,36.536M35.008,42L35.008,38M41.372,39.366L38.544,36.536M44.008,33L40.008,33M41.372,26.636L38.544,29.466" style="fill:none;stroke:rgb(44,44,44);stroke-width:2px;"/>
                    </g>
                </g>
            </g>
        </g>
    </g>
</svg>
