<?xml version="1.0" encoding="UTF-8" standalone="no"?>
<!DOCTYPE svg PUBLIC "-//W3C//DTD SVG 1.1//EN" "http://www.w3.org/Graphics/SVG/1.1/DTD/svg11.dtd">
<svg width="100%" height="100%" viewBox="0 0 607 612" version="1.1" xmlns="http://www.w3.org/2000/svg" xmlns:xlink="http://www.w3.org/1999/xlink" xml:space="preserve" xmlns:serif="http://www.serif.com/" style="fill-rule:evenodd;clip-rule:evenodd;stroke-linecap:round;stroke-linejoin:round;">
    <g id="items" transform="matrix(1.23559,0,0,1.23559,-71.3836,-122.635)">
        <g id="blend">
            <g id="g-root-cp_1_sign-1_18kp6w61o9nrim-fill" transform="matrix(1,0,0,1,74,146)">
                <g id="cp_1_sign-1_18kp6w61o9nrim-fill">
                    <g>
                        <path d="M10,52L28,10L28,94L10,52ZM28,10L213,10L213,94L28,94L28,10Z" style="fill:rgb(79,145,252);"/>
                    </g>
                </g>
            </g>
            <g id="g-root-cp_3_sign-3_qu1nhi1o9nqq0-fill" transform="matrix(1,0,0,1,50,242)">
                <g id="cp_3_sign-3_qu1nhi1o9nqq0-fill">
                    <g>
                        <path d="M10,52L28,10L28,94L10,52ZM28,10L237,10L237,94L28,94L28,10Z" style="fill:rgb(166,218,55);"/>
                    </g>
                </g>
            </g>
            <g id="g-root-cp_5_sign-5_dil5461o9nsay-fill" transform="matrix(1,0,0,1,62,338)">
                <g id="cp_5_sign-5_dil5461o9nsay-fill">
                    <g>
                        <path d="M10,52L28,10L28,94L10,52ZM28,10L225,10L225,94L28,94L28,10Z" style="fill:rgb(247,148,56);"/>
                    </g>
                </g>
            </g>
            <g id="g-root-cp_pole_g-pole_7r3ty1o9nqq4-fill" transform="matrix(1,0,0,1,275,122)">
                <g id="cp_pole_g-pole_7r3ty1o9nqq4-fill">
                    <g>
                        <path d="M31,322L13,322L13,436L31,436L31,435.897L24.55,435.88C24.55,435.88 25.3,429.89 17.74,428.78C25.63,425.53 28.41,430.56 28.41,430.56C28.41,430.56 27.994,423.986 31,418.2L31,322ZM13,22L31,22L31,322L13,322L13,22Z" style="fill:rgb(171,171,171);"/>
                    </g>
                </g>
                <g id="cp_pole_g-pole_7r3ty1o9nqq4-fill1" serif:id="cp_pole_g-pole_7r3ty1o9nqq4-fill">
                    <g>
                        <rect x="10" y="10" width="24" height="12" style="fill:rgb(171,171,171);"/>
                    </g>
                </g>
            </g>
            <g id="g-root-cp_pole_plant_1lxenfq1o9ns3z-fill" transform="matrix(1,0,0,1,243,523)">
                <g id="cp_pole_plant_1lxenfq1o9ns3z-fill">
                    <g>
                        <path d="M60.393,29.56C60.393,29.56 57.613,24.53 49.723,27.78C54.516,28.484 57.019,30.471 56.533,35.008L10,35.008C10,35.008 17.976,46.521 54.183,46.521C90.39,46.521 97.76,35.008 97.76,35.008L71.483,35.008C68.788,30.384 74.815,23.86 80.883,26.67C78.883,23.56 72.993,22.89 68.553,26C66.693,20.52 67.443,13.77 70.613,10C59.453,14.7 60.393,29.56 60.393,29.56Z" style="fill:rgb(145,187,57);"/>
                    </g>
                </g>
            </g>
            <g id="g-root-cp_2_sign-2_146r4121o9nrbd-fill" transform="matrix(1,0,0,1,297,182)">
                <g id="cp_2_sign-2_146r4121o9nrbd-fill">
                    <g>
                        <path d="M10,10L171,10L171,94L10,94L10,10ZM189,52L171,10L171,94L189,52Z" style="fill:rgb(67,221,147);"/>
                    </g>
                </g>
            </g>
            <g id="g-root-cp_4_sign-4_qvalnq1o9nswb-fill" transform="matrix(1,0,0,1,297,278)">
                <g id="cp_4_sign-4_qvalnq1o9nswb-fill">
                    <g>
                        <path d="M10,10L231,10L231,94L10,94L10,10ZM249,52L231,10L231,94L249,52Z" style="fill:rgb(26,195,251);"/>
                    </g>
                </g>
            </g>
            <g id="g-root-cp_6_sign-6_dkgkdi1o9nrbh-fill" transform="matrix(1,0,0,1,297,374)">
                <g id="cp_6_sign-6_dkgkdi1o9nrbh-fill">
                    <g>
                        <path d="M10,10L207,10L207,70L10,70L10,10ZM225,40L207,10L207,70L225,40Z" style="fill:rgb(251,103,98);"/>
                    </g>
                </g>
            </g>
            <g id="g-root-tx_clientre_zqxlwm1o9p5hl-fill" transform="matrix(1,0,0,1,146,164)">
                <g id="tx_clientre_zqxlwm1o9p5hl-fill">
                    <g>
                        <g>
                            <g transform="matrix(1,0,0,1,16.97,34)">
                                <text x="0px" y="0px" style="font-family:'ArialMT', 'Arial', sans-serif;font-size:20px;fill:rgb(44,44,44);">Client-Ready</text>
                            </g>
                            <g transform="matrix(1,0,0,1,50.42,58)">
                                <text x="0px" y="0px" style="font-family:'ArialMT', 'Arial', sans-serif;font-size:20px;fill:rgb(44,44,44);">Platform</text>
                            </g>
                        </g>
                    </g>
                </g>
            </g>
            <g id="g-root-tx_effortle_909qna1o9tfk7-fill" transform="matrix(1,0,0,1,308,200)">
                <g id="tx_effortle_909qna1o9tfk7-fill">
                    <g>
                        <g>
                            <g transform="matrix(1,0,0,1,12,34)">
                                <g transform="matrix(20,0,0,20,13.3398,0)">
                                </g>
                                <g transform="matrix(20,0,0,20,18.6816,0)">
                                </g>
                                <text x="0px" y="0px" style="font-family:'ArialMT', 'Arial', sans-serif;font-size:20px;fill:rgb(44,44,44);">Eﬀortless</text>
                            </g>
                            <g transform="matrix(1,0,0,1,12,58)">
                                <text x="0px" y="0px" style="font-family:'ArialMT', 'Arial', sans-serif;font-size:20px;fill:rgb(44,44,44);">Scaling</text>
                            </g>
                        </g>
                    </g>
                </g>
            </g>
            <g id="g-root-tx_streamli_9esm1o9s0ej-fill" transform="matrix(1,0,0,1,122,260)">
                <g id="tx_streamli_9esm1o9s0ej-fill">
                    <g>
                        <g>
                            <g transform="matrix(1,0,0,1,45.28,34)">
                                <text x="0px" y="0px" style="font-family:'ArialMT', 'Arial', sans-serif;font-size:20px;fill:rgb(44,44,44);">Streamlined</text>
                            </g>
                            <g transform="matrix(1,0,0,1,21.35,58)">
                                <text x="0px" y="0px" style="font-family:'ArialMT', 'Arial', sans-serif;font-size:20px;fill:rgb(44,44,44);">Administration</text>
                            </g>
                        </g>
                    </g>
                </g>
            </g>
            <g id="g-root-tx_superior_1hbyvja1o9usch-fill" transform="matrix(1,0,0,1,308,296)">
                <g id="tx_superior_1hbyvja1o9usch-fill">
                    <g>
                        <g>
                            <g transform="matrix(1,0,0,1,12,34)">
                                <text x="0px" y="0px" style="font-family:'ArialMT', 'Arial', sans-serif;font-size:20px;fill:rgb(44,44,44);">Superior Meeting</text>
                            </g>
                            <g transform="matrix(1,0,0,1,12,58)">
                                <text x="0px" y="0px" style="font-family:'ArialMT', 'Arial', sans-serif;font-size:20px;fill:rgb(44,44,44);">Quality</text>
                            </g>
                        </g>
                    </g>
                </g>
            </g>
            <g id="g-root-tx_customiz_74mqu1o9ryth-fill" transform="matrix(1,0,0,1,134,356)">
                <g id="tx_customiz_74mqu1o9ryth-fill">
                    <g>
                        <g>
                            <g transform="matrix(1,0,0,1,17.98,34)">
                                <text x="0px" y="0px" style="font-family:'ArialMT', 'Arial', sans-serif;font-size:20px;fill:rgb(44,44,44);">Customizable</text>
                            </g>
                            <g transform="matrix(1,0,0,1,42.52,58)">
                                <text x="0px" y="0px" style="font-family:'ArialMT', 'Arial', sans-serif;font-size:20px;fill:rgb(44,44,44);">Experience</text>
                            </g>
                        </g>
                    </g>
                </g>
            </g>
            <g transform="matrix(1,0,0,1,320,426)">
                <g id="g-root-tx_247suppo_4pg17q1o9ut4z-fill">
                    <g id="tx_247suppo_4pg17q1o9ut4z-fill">
                        <g>
                            <g>
                                <text x="0px" y="0px" style="font-family:'ArialMT', 'Arial', sans-serif;font-size:20px;fill:rgb(44,44,44);">24/7 Support</text>
                            </g>
                        </g>
                    </g>
                </g>
            </g>
            <g id="g-root-cp_1_sign-1_18kp6w61o9nrim-stroke" transform="matrix(1,0,0,1,74,146)">
                <g id="cp_1_sign-1_18kp6w61o9nrim-stroke">
                    <g>
                        <path d="M28,10L213,10M213,94L28,94M28,94L10,52L28,10" style="fill:none;stroke:rgb(44,44,44);stroke-width:2px;"/>
                    </g>
                </g>
            </g>
            <g id="g-root-cp_3_sign-3_qu1nhi1o9nqq0-stroke" transform="matrix(1,0,0,1,50,242)">
                <g id="cp_3_sign-3_qu1nhi1o9nqq0-stroke">
                    <g>
                        <path d="M28,10L237,10M237,94L28,94M28,94L10,52L28,10" style="fill:none;stroke:rgb(44,44,44);stroke-width:2px;"/>
                    </g>
                </g>
            </g>
            <g id="g-root-cp_5_sign-5_dil5461o9nsay-stroke" transform="matrix(1,0,0,1,62,338)">
                <g id="cp_5_sign-5_dil5461o9nsay-stroke">
                    <g>
                        <path d="M28,10L225,10M225,94L28,94M28,94L10,52L28,10" style="fill:none;stroke:rgb(44,44,44);stroke-width:2px;"/>
                    </g>
                </g>
            </g>
            <g id="g-root-cp_pole_g-pole_7r3ty1o9nqq4-stroke" transform="matrix(1,0,0,1,275,122)">
                <g id="cp_pole_g-pole_7r3ty1o9nqq4-stroke">
                    <g>
                        <path d="M31,418L31,322M13,435L13,322M31,322L31,22M13,322L13,22" style="fill:none;stroke:rgb(44,44,44);stroke-width:2px;"/>
                    </g>
                </g>
                <g id="cp_pole_g-pole_7r3ty1o9nqq4-stroke1" serif:id="cp_pole_g-pole_7r3ty1o9nqq4-stroke">
                    <g>
                        <rect x="10" y="10" width="24" height="12" style="fill:none;stroke:rgb(44,44,44);stroke-width:2px;"/>
                    </g>
                </g>
            </g>
            <g id="g-root-cp_pole_plant_1lxenfq1o9ns3z-stroke" transform="matrix(1,0,0,1,243,523)">
                <g id="cp_pole_plant_1lxenfq1o9ns3z-stroke">
                    <g>
                        <path d="M56.55,34.88C56.55,34.88 57.3,28.89 49.74,27.78C57.63,24.53 60.41,29.56 60.41,29.56C60.41,29.56 59.47,14.7 70.63,10C67.46,13.77 66.71,20.52 68.57,26C73.01,22.89 78.9,23.56 80.9,26.67C76.68,24.44 69.89,28.468 71,34.918M71,34.918L98,34.918M10,34.918L56.5,34.918" style="fill:none;stroke:rgb(44,44,44);stroke-width:2px;"/>
                    </g>
                </g>
            </g>
            <g id="g-root-cp_2_sign-2_146r4121o9nrbd-stroke" transform="matrix(1,0,0,1,297,182)">
                <g id="cp_2_sign-2_146r4121o9nrbd-stroke">
                    <g>
                        <path d="M171,94L10,94M10,10L171,10M171,10L189,52L171,94" style="fill:none;stroke:rgb(44,44,44);stroke-width:2px;"/>
                    </g>
                </g>
            </g>
            <g id="g-root-cp_4_sign-4_qvalnq1o9nswb-stroke" transform="matrix(1,0,0,1,297,278)">
                <g id="cp_4_sign-4_qvalnq1o9nswb-stroke">
                    <g>
                        <path d="M231,94L10,94M10,10L231,10M231,10L249,52L231,94" style="fill:none;stroke:rgb(44,44,44);stroke-width:2px;"/>
                    </g>
                </g>
            </g>
            <g id="g-root-cp_6_sign-6_dkgkdi1o9nrbh-stroke" transform="matrix(1,0,0,1,297,374)">
                <g id="cp_6_sign-6_dkgkdi1o9nrbh-stroke">
                    <g>
                        <path d="M207,70L10,70M10,10L207,10M207,10L225,40L207,70" style="fill:none;stroke:rgb(44,44,44);stroke-width:2px;"/>
                    </g>
                </g>
            </g>
            <g id="g-root-ic_modu_m7cxeu1o9p79c-stroke" transform="matrix(1,0,0,1,98,170)">
                <g id="ic_modu_m7cxeu1o9p79c-stroke">
                    <g>
                        <path d="M40.071,39.256L44.571,39.256C44.571,39.256 45.321,39.256 45.321,40.006L45.321,44.506C45.321,44.506 45.321,45.256 44.571,45.256L40.071,45.256C40.071,45.256 39.321,45.256 39.321,44.506L39.321,40.006C39.321,40.006 39.321,39.256 40.071,39.256M31.07,39.256L35.571,39.256C35.571,39.256 36.321,39.256 36.321,40.006L36.321,44.506C36.321,44.506 36.321,45.256 35.571,45.256L31.07,45.256C31.07,45.256 30.32,45.256 30.32,44.506L30.32,40.006C30.32,40.006 30.32,39.256 31.07,39.256M35.571,30.256L40.071,30.256C40.071,30.256 40.821,30.256 40.821,31.006L40.821,35.506C40.821,35.506 40.821,36.256 40.071,36.256L35.571,36.256C35.571,36.256 34.821,36.256 34.821,35.506L34.821,31.006C34.821,31.006 34.821,30.256 35.571,30.256M10.82,16.756L40.821,16.756M15.32,13.381C15.113,13.381 14.945,13.549 14.945,13.756C14.945,13.963 15.113,14.131 15.32,14.131C15.528,14.131 15.695,13.963 15.695,13.756C15.695,13.549 15.528,13.381 15.32,13.381M18.32,13.381C18.113,13.381 17.945,13.549 17.945,13.756C17.945,13.963 18.113,14.131 18.32,14.131C18.528,14.131 18.695,13.963 18.695,13.756C18.695,13.549 18.528,13.381 18.32,13.381M21.32,13.381C21.113,13.381 20.945,13.549 20.945,13.756C20.945,13.963 21.113,14.131 21.32,14.131C21.528,14.131 21.695,13.963 21.695,13.756C21.695,13.549 21.528,13.381 21.32,13.381M30.32,34.75L13.82,34.75C12.164,34.75 10.82,33.407 10.82,31.75L10.82,13.75C10.82,12.093 12.164,10.75 13.82,10.75L37.821,10.75C39.477,10.75 40.821,12.093 40.821,13.75L40.821,27.25" style="fill:none;stroke:rgb(44,44,44);stroke-width:2px;"/>
                    </g>
                </g>
            </g>
            <g id="g-root-ic_1_940l5y1o9rzf2-stroke" transform="matrix(1,0,0,1,416,206)">
                <g id="ic_1_940l5y1o9rzf2-stroke">
                    <g>
                        <path d="M24.25,34L21.25,37L21.25,31L20.5,31C15.122,30.984 10.766,26.628 10.75,21.25C10.75,15.887 15.137,10.75 20.5,10.75L32.5,10.75C37.863,10.75 42.25,15.887 42.25,21.25C42.252,22.537 41.997,23.812 41.5,25M27.25,37.375C27.25,39.239 28.761,40.75 30.625,40.75C32.489,40.75 34,39.239 34,37.375C34,35.511 32.489,34 30.625,34C28.761,34 27.25,35.511 27.25,37.375ZM38.5,41.875C38.5,43.739 40.011,45.25 41.875,45.25C43.739,45.25 45.25,43.739 45.25,41.875C45.25,40.011 43.739,38.5 41.875,38.5C40.011,38.5 38.5,40.011 38.5,41.875ZM38.5,30.625C38.5,32.489 40.011,34 41.875,34C43.739,34 45.25,32.489 45.25,30.625C45.25,28.761 43.739,27.25 41.875,27.25C40.011,27.25 38.5,28.761 38.5,30.625ZM33.513,35.642L38.988,32.357M33.757,38.627L38.743,40.623" style="fill:none;stroke:rgb(44,44,44);stroke-width:2px;"/>
                    </g>
                </g>
            </g>
            <g id="g-root-ic_grap_1uualuu1o9p6ve-stroke" transform="matrix(1,0,0,1,74,266)">
                <g id="ic_grap_1uualuu1o9p6ve-stroke">
                    <g>
                        <path d="M30.25,20.5C30.25,23.399 32.601,25.75 35.5,25.75C38.399,25.75 40.75,23.399 40.75,20.5C40.75,17.601 38.399,15.25 35.5,15.25C32.601,15.25 30.25,17.601 30.25,20.5M15.25,40.75L18.55,36.126C18.667,35.961 18.846,35.851 19.045,35.82C19.244,35.789 19.447,35.84 19.609,35.96L21.4,37.3C21.731,37.549 22.201,37.481 22.45,37.15L26.5,31.75M36.626,15.371L35.5,20.5L40.711,19.862M32.5,30.25L40,30.25C40,30.25 40.75,30.25 40.75,31L40.75,40C40.75,40 40.75,40.75 40,40.75L32.5,40.75C32.5,40.75 31.75,40.75 31.75,40L31.75,31C31.75,31 31.75,30.25 32.5,30.25M34.75,34.75L37.75,34.75M34.75,37.75L36.25,37.75M16,15.25L23.5,15.25C23.5,15.25 24.25,15.25 24.25,16L24.25,25C24.25,25 24.25,25.75 23.5,25.75L16,25.75C16,25.75 15.25,25.75 15.25,25L15.25,16C15.25,16 15.25,15.25 16,15.25M18.25,18.25L21.25,18.25M18.25,21.25L19.75,21.25M12.25,10.75L43.75,10.75C43.75,10.75 45.25,10.75 45.25,12.25L45.25,43.75C45.25,43.75 45.25,45.25 43.75,45.25L12.25,45.25C12.25,45.25 10.75,45.25 10.75,43.75L10.75,12.25C10.75,12.25 10.75,10.75 12.25,10.75" style="fill:none;stroke:rgb(44,44,44);stroke-width:2px;"/>
                    </g>
                </g>
            </g>
            <g id="g-root-ic_next_9255wm1o9tekg-stroke" transform="matrix(1,0,0,1,476,302)">
                <g id="ic_next_9255wm1o9tekg-stroke">
                    <g>
                        <path d="M31.75,33.25L31.75,40.774L36.25,37L31.75,33.25ZM27.25,37C27.25,41.556 30.944,45.25 35.5,45.25C40.056,45.25 43.75,41.556 43.75,37C43.75,32.444 40.056,28.75 35.5,28.75C30.944,28.75 27.25,32.444 27.25,37L27.25,37ZM26.5,30.25L12.25,30.25C11.422,30.25 10.75,29.578 10.75,28.75L10.75,12.25C10.75,11.422 11.422,10.75 12.25,10.75L31.75,10.75C32.578,10.75 33.25,11.422 33.25,12.25L33.25,24.943M45.25,26.323C45.25,26.843 44.98,27.325 44.538,27.598C44.096,27.871 43.544,27.896 43.079,27.664L37.079,24.664C36.571,24.41 36.25,23.891 36.25,23.323L36.25,17.677C36.25,17.109 36.571,16.59 37.079,16.336L43.079,13.336C43.544,13.104 44.096,13.129 44.538,13.402C44.98,13.675 45.25,14.157 45.25,14.677L45.25,26.323ZM39.25,33.25L39.25,40.774" style="fill:none;stroke:rgb(44,44,44);stroke-width:2px;"/>
                    </g>
                </g>
            </g>
            <g id="g-root-ic_sett_v48vty1o9rymk-stroke" transform="matrix(1,0,0,1,86,362)">
                <g id="ic_sett_v48vty1o9rymk-stroke">
                    <g>
                        <path d="M34.469,20.453C34.47,21.644 35.435,22.609 36.625,22.609C37.815,22.609 38.781,21.644 38.781,20.454C38.781,19.263 37.815,18.298 36.625,18.298C35.435,18.298 34.47,19.263 34.47,20.454L34.469,20.453ZM38.457,12.112L39.1,14.2C39.318,14.919 40.054,15.346 40.786,15.18L42.904,14.688C43.727,14.502 44.576,14.875 44.996,15.606C45.416,16.338 45.311,17.259 44.736,17.876L43.254,19.474C42.742,20.026 42.742,20.879 43.253,21.431L44.736,23.029C45.311,23.647 45.416,24.567 44.996,25.299C44.576,26.031 43.727,26.404 42.904,26.218L40.786,25.727C40.054,25.559 39.316,25.987 39.1,26.707L38.464,28.795C38.221,29.603 37.477,30.157 36.633,30.157C35.788,30.157 35.044,29.603 34.801,28.795L34.165,26.707C33.949,25.987 33.211,25.559 32.479,25.728L30.361,26.218C29.538,26.404 28.689,26.031 28.269,25.299C27.849,24.567 27.954,23.647 28.529,23.029L30.011,21.431C30.523,20.879 30.523,20.026 30.011,19.474L28.529,17.876C27.954,17.259 27.849,16.338 28.269,15.606C28.689,14.875 29.538,14.502 30.361,14.688L32.479,15.18C33.209,15.342 33.94,14.915 34.158,14.2L34.793,12.112C35.037,11.304 35.781,10.75 36.625,10.75C37.469,10.75 38.213,11.304 38.457,12.112ZM21.25,45.25L22,36.25L25.75,36.25L25.75,31C25.75,26.858 22.392,23.5 18.25,23.5C14.108,23.5 10.75,26.858 10.75,31L10.75,36.25L14.5,36.25L15.25,45.25L21.25,45.25ZM13,16C13,18.899 15.351,21.25 18.25,21.25C21.149,21.25 23.5,18.899 23.5,16C23.5,13.101 21.149,10.75 18.25,10.75C15.351,10.75 13,13.101 13,16Z" style="fill:none;stroke:rgb(44,44,44);stroke-width:2px;"/>
                    </g>
                </g>
            </g>
            <g id="g-root-ic_supp_1cxebl21o9uuiy-stroke" transform="matrix(1,0,0,1,452,386)">
                <g id="ic_supp_1cxebl21o9uuiy-stroke">
                    <g>
                        <path d="M15.351,37.2C12.81,37.2 10.751,35.141 10.75,32.6L10.75,28C10.75,25.459 12.81,23.4 15.35,23.4L15.351,37.2ZM40.65,23.4C43.19,23.4 45.25,25.459 45.25,28L45.25,32.601C45.249,35.141 43.19,37.2 40.649,37.2L40.65,23.4ZM15.351,23.4C15.351,16.413 21.014,10.75 28,10.75C34.986,10.75 40.649,16.413 40.649,23.4M32.601,42.951L36.05,42.951C38.591,42.95 40.649,40.89 40.649,38.35L40.65,38.35L40.65,37.2M30.299,45.25L28,45.25C26.73,45.25 25.701,44.22 25.701,42.951C25.7,41.68 26.729,40.65 28,40.65L30.299,40.65C31.57,40.65 32.6,41.68 32.6,42.951L32.601,42.951C32.601,44.221 31.57,45.251 30.299,45.25ZM25.789,27.234C25.789,28.431 26.759,29.401 27.957,29.401C29.154,29.401 30.124,28.431 30.124,27.234C30.124,26.036 29.154,25.066 27.957,25.066C26.759,25.066 25.789,26.036 25.789,27.234M29.8,18.85L30.439,20.95C30.657,21.673 31.398,22.103 32.134,21.934L34.262,21.441C35.089,21.258 35.938,21.633 36.359,22.367C36.78,23.101 36.675,24.024 36.1,24.644L34.612,26.25C34.097,26.805 34.097,27.662 34.612,28.217L36.1,29.823C36.677,30.444 36.783,31.368 36.361,32.103C35.939,32.839 35.087,33.213 34.259,33.028L32.131,32.535C31.395,32.365 30.654,32.795 30.436,33.519L29.797,35.619C29.553,36.431 28.805,36.988 27.956,36.988C27.108,36.988 26.36,36.431 26.116,35.619L25.477,33.519C25.259,32.795 24.517,32.365 23.781,32.535L21.654,33.028C20.826,33.216 19.972,32.841 19.549,32.105C19.126,31.369 19.233,30.443 19.813,29.823L21.301,28.218C21.816,27.662 21.816,26.805 21.301,26.249L19.813,24.644C19.233,24.024 19.126,23.098 19.549,22.362C19.972,21.626 20.826,21.251 21.654,21.439L23.781,21.932C24.516,22.101 25.257,21.672 25.477,20.95L26.116,18.85C26.358,18.035 27.107,17.475 27.958,17.475C28.809,17.475 29.558,18.035 29.8,18.85Z" style="fill:none;stroke:rgb(44,44,44);stroke-width:2px;"/>
                    </g>
                </g>
            </g>
        </g>
    </g>
</svg>
