<?xml version="1.0" encoding="UTF-8" standalone="no"?>
<!DOCTYPE svg PUBLIC "-//W3C//DTD SVG 1.1//EN" "http://www.w3.org/Graphics/SVG/1.1/DTD/svg11.dtd">
<svg width="100%" height="100%" viewBox="0 0 600 515" version="1.1" xmlns="http://www.w3.org/2000/svg" xmlns:xlink="http://www.w3.org/1999/xlink" xml:space="preserve" xmlns:serif="http://www.serif.com/" style="fill-rule:evenodd;clip-rule:evenodd;stroke-linecap:round;stroke-linejoin:round;">
    <g id="items" transform="matrix(1,0,0,1,0,20)">
        <g id="blend">
            <g id="g-root-sy_-1_cu-1_dgorogg5kk5g-fill" transform="matrix(1,0,0,1,14,-9)">
                <g id="sy_-1_cu-1_dgorogg5kk5g-fill">
                    <g>
                        <path d="M286,10L562,130L550,154L22,154L10,130L286,10ZM562,490L10,490L22,466L550,466L562,490Z" style="fill:rgb(171,171,171);"/>
                    </g>
                </g>
            </g>
            <g id="g-root-sy_6_cu_4l1rfkg5kky5-fill" transform="matrix(1,0,0,1,374,291)">
                <g id="sy_6_cu_4l1rfkg5kky5-fill">
                    <g>
                        <rect x="10" y="10" width="168" height="156" style="fill:rgb(251,103,98);"/>
                    </g>
                </g>
            </g>
            <g id="g-root-sy_5_cu_1qbbs4gg5kj66-fill" transform="matrix(1,0,0,1,206,291)">
                <g id="sy_5_cu_1qbbs4gg5kj66-fill">
                    <g>
                        <rect x="10" y="10" width="168" height="156" style="fill:rgb(247,148,56);"/>
                    </g>
                </g>
            </g>
            <g id="g-root-sy_4_cu_18k1rmog5kljb-fill" transform="matrix(1,0,0,1,38,291)">
                <g id="sy_4_cu_18k1rmog5kljb-fill">
                    <g>
                        <rect x="10" y="10" width="168" height="156" style="fill:rgb(255,231,17);"/>
                    </g>
                </g>
            </g>
            <g id="g-root-sy_3_cu_hxr7z4g5kljc-fill" transform="matrix(1,0,0,1,374,135)">
                <g id="sy_3_cu_hxr7z4g5kljc-fill">
                    <g>
                        <rect x="10" y="10" width="168" height="156" style="fill:rgb(26,195,251);"/>
                    </g>
                </g>
            </g>
            <g id="g-root-sy_2_cu_73okgg5kkqp-fill" transform="matrix(1,0,0,1,206,135)">
                <g id="sy_2_cu_73okgg5kkqp-fill">
                    <g>
                        <rect x="10" y="10" width="168" height="156" style="fill:rgb(166,218,55);"/>
                    </g>
                </g>
            </g>
            <g id="g-root-sy_1_cu_1lxdp9cg5kiyq-fill" transform="matrix(1,0,0,1,38,135)">
                <g id="sy_1_cu_1lxdp9cg5kiyq-fill">
                    <g>
                        <rect x="10" y="10" width="168" height="156" style="fill:rgb(67,221,147);"/>
                    </g>
                </g>
            </g>
            <g transform="matrix(1,0,0,1,213.44,121)">
                <g id="g-root-tx_voiptech_hxrb4wg5kl58-fill">
                    <g id="tx_voiptech_hxrb4wg5kl58-fill">
                        <g>
                            <g>
                                <text x="0px" y="0px" style="font-family:'ArialMT', 'Arial', sans-serif;font-size:20px;fill:rgb(44,44,44);">V<tspan x="12.236px 23.359px " y="0px 0px ">oI</tspan>PT<tspan x="52.256px 63.379px " y="0px 0px ">ec</tspan>h Solutions</text>
                            </g>
                        </g>
                    </g>
                </g>
            </g>
            <g id="g-root-tx_multilin_zqa6n4g5klcb-fill" transform="matrix(1,0,0,1,62,207)">
                <g id="tx_multilin_zqa6n4g5klcb-fill">
                    <g>
                        <g>
                            <g transform="matrix(1,0,0,1,15.72,34)">
                                <text x="0px" y="0px" style="font-family:'ArialMT', 'Arial', sans-serif;font-size:20px;fill:rgb(44,44,44);">Multilingual</text>
                            </g>
                            <g transform="matrix(1,0,0,1,32.22,58)">
                                <text x="0px" y="0px" style="font-family:'ArialMT', 'Arial', sans-serif;font-size:20px;fill:rgb(44,44,44);">Support</text>
                            </g>
                        </g>
                    </g>
                </g>
            </g>
            <g id="g-root-tx_seamless_1d3m49sg5kiro-fill" transform="matrix(1,0,0,1,224,207)">
                <g id="tx_seamless_1d3m49sg5kiro-fill">
                    <g>
                        <g>
                            <g transform="matrix(1,0,0,1,32.51,34)">
                                <text x="0px" y="0px" style="font-family:'ArialMT', 'Arial', sans-serif;font-size:20px;fill:rgb(44,44,44);">Seamless</text>
                            </g>
                            <g transform="matrix(1,0,0,1,51.19,58)">
                                <text x="0px" y="0px" style="font-family:'ArialMT', 'Arial', sans-serif;font-size:20px;fill:rgb(44,44,44);">V<tspan x="12.236px 23.359px " y="0px 0px ">oi</tspan>ce</text>
                            </g>
                            <g transform="matrix(1,0,0,1,17.01,82)">
                                <text x="0px" y="0px" style="font-family:'ArialMT', 'Arial', sans-serif;font-size:20px;fill:rgb(44,44,44);">Broadcasting</text>
                            </g>
                        </g>
                    </g>
                </g>
            </g>
            <g id="g-root-tx_realtime_hsrfa8g5lzim-fill" transform="matrix(1,0,0,1,392,207)">
                <g id="tx_realtime_hsrfa8g5lzim-fill">
                    <g>
                        <g>
                            <g transform="matrix(1,0,0,1,31.44,34)">
                                <text x="0px" y="0px" style="font-family:'ArialMT', 'Arial', sans-serif;font-size:20px;fill:rgb(44,44,44);">Real-T<tspan x="59.268px 63.711px " y="0px 0px ">im</tspan>e</text>
                            </g>
                            <g transform="matrix(1,0,0,1,16.68,58)">
                                <text x="0px" y="0px" style="font-family:'ArialMT', 'Arial', sans-serif;font-size:20px;fill:rgb(44,44,44);">Conferencing</text>
                            </g>
                        </g>
                    </g>
                </g>
            </g>
            <g id="g-root-tx_customiz_1lqihb4g5lxxp-fill" transform="matrix(1,0,0,1,56,363)">
                <g id="tx_customiz_1lqihb4g5lxxp-fill">
                    <g>
                        <g>
                            <g transform="matrix(1,0,0,1,12.51,34)">
                                <text x="0px" y="0px" style="font-family:'ArialMT', 'Arial', sans-serif;font-size:20px;fill:rgb(44,44,44);">Customizable</text>
                            </g>
                            <g transform="matrix(1,0,0,1,26.59,58)">
                                <g transform="matrix(20,0,0,20,46.2988,0)">
                                </g>
                                <g transform="matrix(20,0,0,20,51.8555,0)">
                                </g>
                                <text x="0px" y="0px" style="font-family:'ArialMT', 'Arial', sans-serif;font-size:20px;fill:rgb(44,44,44);">W<tspan x="18.516px 29.639px " y="0px 0px ">or</tspan>kﬂows</text>
                            </g>
                        </g>
                    </g>
                </g>
            </g>
            <g id="g-root-tx_scalable_zlady8g5lzbj-fill" transform="matrix(1,0,0,1,224,363)">
                <g id="tx_scalable_zlady8g5lzbj-fill">
                    <g>
                        <g>
                            <g transform="matrix(1,0,0,1,38.15,34)">
                                <text x="0px" y="0px" style="font-family:'ArialMT', 'Arial', sans-serif;font-size:20px;fill:rgb(44,44,44);">Scalable</text>
                            </g>
                            <g transform="matrix(1,0,0,1,15.68,58)">
                                <text x="0px" y="0px" style="font-family:'ArialMT', 'Arial', sans-serif;font-size:20px;fill:rgb(44,44,44);">Infrastructure</text>
                            </g>
                        </g>
                    </g>
                </g>
            </g>
            <g id="g-root-tx_costeffe_3zb4wg5lxq8-fill" transform="matrix(1,0,0,1,386,363)">
                <g id="tx_costeffe_3zb4wg5lxq8-fill">
                    <g>
                        <g>
                            <g transform="matrix(1,0,0,1,17.36,34)">
                                <g transform="matrix(20,0,0,20,61.123,0)">
                                </g>
                                <g transform="matrix(20,0,0,20,66.4648,0)">
                                </g>
                                <text x="0px" y="0px" style="font-family:'ArialMT', 'Arial', sans-serif;font-size:20px;fill:rgb(44,44,44);">Cost-Eﬀective</text>
                            </g>
                            <g transform="matrix(1,0,0,1,30.99,58)">
                                <text x="0px" y="0px" style="font-family:'ArialMT', 'Arial', sans-serif;font-size:20px;fill:rgb(44,44,44);">Operations</text>
                            </g>
                        </g>
                    </g>
                </g>
            </g>
            <g id="g-root-sy_-1_cu-1_dgorogg5kk5g-stroke" transform="matrix(1,0,0,1,14,-9)">
                <g id="sy_-1_cu-1_dgorogg5kk5g-stroke">
                    <g>
                        <path d="M286,10L562,130L550,154L22,154L10,130L286,10ZM562,490L10,490L22,466L550,466L562,490Z" style="fill:none;stroke:rgb(44,44,44);stroke-width:2px;"/>
                    </g>
                </g>
            </g>
            <g id="g-root-sy_6_cu_4l1rfkg5kky5-stroke" transform="matrix(1,0,0,1,374,291)">
                <g id="sy_6_cu_4l1rfkg5kky5-stroke">
                    <g>
                        <rect x="10" y="10" width="168" height="156" style="fill:none;stroke:rgb(44,44,44);stroke-width:2px;"/>
                    </g>
                </g>
            </g>
            <g id="g-root-sy_5_cu_1qbbs4gg5kj66-stroke" transform="matrix(1,0,0,1,206,291)">
                <g id="sy_5_cu_1qbbs4gg5kj66-stroke">
                    <g>
                        <rect x="10" y="10" width="168" height="156" style="fill:none;stroke:rgb(44,44,44);stroke-width:2px;"/>
                    </g>
                </g>
            </g>
            <g id="g-root-sy_4_cu_18k1rmog5kljb-stroke" transform="matrix(1,0,0,1,38,291)">
                <g id="sy_4_cu_18k1rmog5kljb-stroke">
                    <g>
                        <rect x="10" y="10" width="168" height="156" style="fill:none;stroke:rgb(44,44,44);stroke-width:2px;"/>
                    </g>
                </g>
            </g>
            <g id="g-root-sy_3_cu_hxr7z4g5kljc-stroke" transform="matrix(1,0,0,1,374,135)">
                <g id="sy_3_cu_hxr7z4g5kljc-stroke">
                    <g>
                        <rect x="10" y="10" width="168" height="156" style="fill:none;stroke:rgb(44,44,44);stroke-width:2px;"/>
                    </g>
                </g>
            </g>
            <g id="g-root-sy_2_cu_73okgg5kkqp-stroke" transform="matrix(1,0,0,1,206,135)">
                <g id="sy_2_cu_73okgg5kkqp-stroke">
                    <g>
                        <rect x="10" y="10" width="168" height="156" style="fill:none;stroke:rgb(44,44,44);stroke-width:2px;"/>
                    </g>
                </g>
            </g>
            <g id="g-root-sy_1_cu_1lxdp9cg5kiyq-stroke" transform="matrix(1,0,0,1,38,135)">
                <g id="sy_1_cu_1lxdp9cg5kiyq-stroke">
                    <g>
                        <rect x="10" y="10" width="168" height="156" style="fill:none;stroke:rgb(44,44,44);stroke-width:2px;"/>
                    </g>
                </g>
            </g>
            <g id="g-root-ic_pick_mbpau8g5lzwp-stroke" transform="matrix(1,0,0,1,266,15)">
                <g id="ic_pick_mbpau8g5lzwp-stroke">
                    <g>
                        <path d="M47.164,39.562C49.216,39.734 50.793,41.453 50.788,43.512C50.783,45.572 49.197,47.282 47.144,47.444M54.378,56.744C52.974,54.025 50.234,52.254 47.178,52.092M27.802,41.8C27.801,45.497 30.799,48.495 34.496,48.495C38.193,48.495 41.191,45.497 41.19,41.8C41.191,38.103 38.193,35.105 34.496,35.105C30.799,35.105 27.801,38.103 27.802,41.8M24.234,57C25.782,52.745 29.795,49.887 34.322,49.815C38.85,49.743 42.952,52.472 44.634,56.676M20.836,39.562C18.784,39.734 17.207,41.453 17.212,43.512C17.217,45.572 18.803,47.282 20.856,47.444M13.622,56.744C15.026,54.025 17.766,52.254 20.822,52.092M30.232,20.156C30.232,22.477 32.113,24.358 34.434,24.358C36.755,24.358 38.636,22.477 38.636,20.156C38.636,17.835 36.755,15.954 34.434,15.954C32.113,15.954 30.232,17.835 30.232,20.156M30.482,21.588L23.872,27.67L27.124,32.39M38.386,21.588L44.998,27.67L41.744,32.39M34.434,15.954L34.434,11" style="fill:none;stroke:rgb(44,44,44);stroke-width:2px;"/>
                    </g>
                </g>
            </g>
            <g id="g-root-ic_mess_6han4g5exhi-stroke" transform="matrix(1,0,0,1,98,147)">
                <g id="ic_mess_6han4g5exhi-stroke">
                    <g>
                        <path d="M55.4,25.1L14.4,25.1M55.4,41.1L14.4,41.1M40,54.48C42.88,50.1 44.82,42.16 44.82,33.1C44.82,24.04 42.96,16.1 40,11.72M29.72,54.48C26.82,50.1 24.9,42.16 24.9,33.1C24.9,24.04 26.9,16.1 29.72,11.72M11.2,55.46L16.18,44.66C10.314,35.161 12.494,22.774 21.249,15.847C30.005,8.921 42.561,9.65 50.455,17.545C58.35,25.439 59.079,37.995 52.153,46.751C45.226,55.506 32.839,57.686 23.34,51.82L12.54,56.8C12.156,56.99 11.692,56.914 11.389,56.611C11.086,56.308 11.01,55.844 11.2,55.46Z" style="fill:none;stroke:rgb(44,44,44);stroke-width:2px;"/>
                    </g>
                </g>
            </g>
            <g id="g-root-ic_1_1q8tyxsg5gb2f-stroke" transform="matrix(1,0,0,1,266,147)">
                <g id="ic_1_1q8tyxsg5gb2f-stroke">
                    <g>
                        <path d="M34.008,29L34.008,33M40,17C40,13.686 37.314,11 34,11C30.686,11 28,13.686 28,17L28,23C28,26.314 30.686,29 34,29C37.314,29 40,26.314 40,23L40,17ZM28.008,23L40.008,23M30,43L24,43C22.778,42.931 21.659,42.297 20.97,41.286L17.036,34.714C16.47,33.772 16.908,33 18.008,33L50,33C51.1,33 51.536,33.772 50.97,34.714L47.028,41.286C46.34,42.297 45.221,42.931 44,43L38,43M30.008,57L30.008,39L38.008,39L38.008,57M32.008,19L36.008,19M32.008,15L36.008,15M21.128,19C21.688,18.486 22.007,17.76 22.007,17C22.007,16.24 21.688,15.514 21.128,15C20.614,14.44 19.888,14.121 19.128,14.121C18.368,14.121 17.642,14.44 17.128,15L15.544,16.586C14.763,17.367 14.763,18.633 15.544,19.414L16.714,20.586C17.089,20.962 17.598,21.173 18.129,21.173C18.66,21.173 19.169,20.962 19.544,20.586L21.128,19ZM16.128,20C14.177,22.31 14.177,25.69 16.128,28L21.128,33M46.886,19C46.326,18.486 46.008,17.76 46.008,17C46.008,16.24 46.326,15.514 46.886,15C47.4,14.44 48.126,14.121 48.886,14.121C49.646,14.121 50.372,14.44 50.886,15L52.472,16.586C53.253,17.367 53.253,18.633 52.472,19.414L51.302,20.586C50.927,20.962 50.418,21.173 49.887,21.173C49.356,21.173 48.847,20.962 48.472,20.586L46.886,19ZM51.886,20C53.837,22.31 53.837,25.69 51.886,28L46.886,33" style="fill:none;stroke:rgb(44,44,44);stroke-width:2px;"/>
                    </g>
                </g>
            </g>
            <g id="g-root-ic_even_dika3kg5hs01-stroke" transform="matrix(1,0,0,1,434,147)">
                <g id="ic_even_dika3kg5hs01-stroke">
                    <g>
                        <path d="M22.58,24.036C24.306,24.036 25.706,22.636 25.706,20.91C25.706,19.184 24.306,17.784 22.58,17.784C20.853,17.784 19.454,19.184 19.454,20.91C19.454,22.636 20.853,24.036 22.58,24.036ZM22.58,41.42C24.306,41.42 25.706,40.021 25.706,38.294C25.706,36.568 24.306,35.168 22.58,35.168C20.853,35.168 19.454,36.568 19.454,38.294C19.454,40.021 20.853,41.42 22.58,41.42ZM47.162,43.284C49.651,43.284 51.669,41.266 51.669,38.777C51.669,36.288 49.651,34.27 47.162,34.27C44.673,34.27 42.656,36.288 42.656,38.777C42.656,41.266 44.673,43.284 47.162,43.284ZM44.037,24.036C45.763,24.036 47.162,22.636 47.162,20.91C47.162,19.184 45.763,17.784 44.037,17.784C42.31,17.784 40.911,19.184 40.911,20.91C40.911,22.636 42.31,24.036 44.037,24.036ZM28.05,29.506C28.05,28.055 27.474,26.664 26.448,25.638C25.422,24.612 24.03,24.036 22.58,24.036C21.129,24.036 19.737,24.612 18.712,25.638C17.686,26.664 17.109,28.055 17.109,29.506M28.05,46.891C28.05,45.44 27.474,44.049 26.448,43.023C25.422,41.997 24.03,41.421 22.58,41.421C21.129,41.421 19.737,41.997 18.712,43.023C17.686,44.049 17.109,45.44 17.109,46.891M55.51,55.878C55.51,53.664 54.631,51.541 53.065,49.975C51.5,48.409 49.376,47.53 47.162,47.53C44.948,47.53 42.825,48.409 41.26,49.975C39.694,51.541 38.814,53.664 38.814,55.878M47.904,25.638C46.879,24.612 45.487,24.036 44.036,24.036C42.586,24.036 41.194,24.612 40.168,25.638C39.143,26.664 38.566,28.055 38.566,29.506M53.778,28.786L53.778,14.122C53.778,13.017 52.882,12.122 51.778,12.122L14.49,12.122C13.385,12.122 12.49,13.017 12.49,14.122L12.49,44.891C12.49,45.995 13.385,46.891 14.49,46.891L35.949,46.891M33.134,12.122L33.134,46.891M12.49,29.506L42.912,29.506" style="fill:none;stroke:rgb(44,44,44);stroke-width:2px;"/>
                    </g>
                </g>
            </g>
            <g id="g-root-ic_mana_1qf2pswg5gcn4-stroke" transform="matrix(1,0,0,1,98,303)">
                <g id="ic_mana_1qf2pswg5gcn4-stroke">
                    <g>
                        <path d="M12,34L16,34M24,34L34,34M42,34L56,34M51.954,30L56,34L51.954,38M16,34C16,36.209 17.791,38 20,38C22.209,38 24,36.209 24,34C24,31.791 22.209,30 20,30C17.791,30 16,31.791 16,34M34,34C34,36.209 35.791,38 38,38C40.209,38 42,36.209 42,34C42,31.791 40.209,30 38,30C35.791,30 34,31.791 34,34M38,30L38,23M20,45L20,38M32,11L44,11C44,11 46,11 46,13L46,21C46,21 46,23 44,23L32,23C32,23 30,23 30,21L30,13C30,13 30,11 32,11M14,45L26,45C26,45 28,45 28,47L28,55C28,55 28,57 26,57L14,57C14,57 12,57 12,55L12,47C12,47 12,45 14,45" style="fill:none;stroke:rgb(44,44,44);stroke-width:2px;"/>
                    </g>
                </g>
            </g>
            <g id="g-root-ic_2_hv9esgg5j476-stroke" transform="matrix(1,0,0,1,266,303)">
                <g id="ic_2_hv9esgg5j476-stroke">
                    <g>
                        <path d="M34,39.3L34,48.3M52.5,48.3L52.5,44.7C52.5,43.5 51.7,42.7 50.5,42.7L17.5,42.7C16.3,42.7 15.5,43.5 15.5,44.7L15.5,48.3M31,28.3L31,13.7C31,12.5 31.8,11.7 33,11.7L35,11.7C36.2,11.7 37,12.5 37,13.7L37,28.1M49,32.3C49,33.5 48.2,34.3 47,34.3L21,34.3C19.8,34.3 19,33.5 19,32.3L19,30.3C19,29.1 19.8,28.3 21,28.3L47,28.3C48.2,28.3 49,29.1 49,30.3L49,32.3ZM37,15.7C42.2,17.1 46,21.7 46,27.3L46,28.3M31,15.7C25.8,17.1 22,21.7 22,27.3L22,28.3M15.5,56.3C17.709,56.3 19.5,54.509 19.5,52.3C19.5,50.091 17.709,48.3 15.5,48.3C13.291,48.3 11.5,50.091 11.5,52.3C11.5,54.509 13.291,56.3 15.5,56.3ZM34,56.3C36.209,56.3 38,54.509 38,52.3C38,50.091 36.209,48.3 34,48.3C31.791,48.3 30,50.091 30,52.3C30,54.509 31.791,56.3 34,56.3ZM52.5,56.3C54.709,56.3 56.5,54.509 56.5,52.3C56.5,50.091 54.709,48.3 52.5,48.3C50.291,48.3 48.5,50.091 48.5,52.3C48.5,54.509 50.291,56.3 52.5,56.3Z" style="fill:none;stroke:rgb(44,44,44);stroke-width:2px;"/>
                    </g>
                </g>
            </g>
            <g id="g-root-ic_2_qn5kiog5kirv-stroke" transform="matrix(1,0,0,1,434,303)">
                <g id="ic_2_qn5kiog5kirv-stroke">
                    <g>
                        <path d="M31,31L13,31C11.895,31 11,30.105 11,29L11,13C11,11.895 11.895,11 13,11L45,11C46.105,11 47,11.895 47,13L47,23M11.008,18L18.008,11M47.008,18L40.008,11M11.008,24L18.008,31M33,17L26.692,17C25.845,17.008 25.135,17.643 25.033,18.484C24.932,19.326 25.471,20.111 26.292,20.32L31.74,21.68C32.561,21.889 33.1,22.674 32.999,23.516C32.897,24.357 32.187,24.992 31.34,25L25,25M29.008,17L29.008,15M29.008,27L29.008,25M39.008,41L41.008,41M45.008,41L47.008,41M51.008,41L53.008,41M39.008,45L41.008,45M45.008,45L47.008,45M51.008,45L53.008,45M39.008,49L41.008,49M45.008,49L47.008,49M51.008,49L53.008,49M39.008,53L41.008,53M45.008,53L47.008,53M51.008,53L53.008,53M39.008,27L53.008,27C53.008,27 57.008,27 57.008,31L57.008,53C57.008,53 57.008,57 53.008,57L39.008,57C39.008,57 35.008,57 35.008,53L35.008,31C35.008,31 35.008,27 39.008,27M35.008,37L57.008,37M13.008,35L31.008,35M15.008,39L31.008,39" style="fill:none;stroke:rgb(44,44,44);stroke-width:2px;"/>
                    </g>
                </g>
            </g>
        </g>
    </g>
</svg>
