<?xml version="1.0" encoding="UTF-8" standalone="no"?>
<!DOCTYPE svg PUBLIC "-//W3C//DTD SVG 1.1//EN" "http://www.w3.org/Graphics/SVG/1.1/DTD/svg11.dtd">
<svg width="100%" height="100%" viewBox="0 0 576 779" version="1.1" xmlns="http://www.w3.org/2000/svg" xmlns:xlink="http://www.w3.org/1999/xlink" xml:space="preserve" xmlns:serif="http://www.serif.com/" style="fill-rule:evenodd;clip-rule:evenodd;stroke-linecap:round;stroke-linejoin:round;">
    <g id="items" transform="matrix(1.10991,0,0,1.10991,-31.6546,-63.844)">
        <g id="blend">
            <g id="g-root-cp_9_text-9_mcbuhi1m1zfgo-fill" transform="matrix(1,0,0,1,50,62)">
                <g id="cp_9_text-9_mcbuhi1m1zfgo-fill">
                    <g>
                        <rect x="10" y="10" width="228" height="108" style="fill:rgb(26,195,251);"/>
                    </g>
                </g>
            </g>
            <g id="g-root-cp_9_stick-9_1hfoufq1m1zgui-fill" transform="matrix(1,0,0,1,272,170)">
                <g id="cp_9_stick-9_1hfoufq1m1zgui-fill">
                    <g>
                        <rect x="10" y="10" width="5.997" height="492" style="fill:rgb(26,195,251);"/>
                    </g>
                </g>
            </g>
            <g id="g-root-cp_7_text-7_mdksnq1m1zhms-fill" transform="matrix(1,0,0,1,44,170)">
                <g id="cp_7_text-7_mdksnq1m1zhms-fill">
                    <g>
                        <rect x="10" y="10" width="228" height="132" style="fill:rgb(166,218,55);"/>
                    </g>
                </g>
            </g>
            <g id="g-root-cp_7_stick-7_1useaza1m1zhfq-fill" transform="matrix(1,0,0,1,266,302)">
                <g id="cp_7_stick-7_1useaza1m1zhfq-fill">
                    <g>
                        <rect x="10" y="10" width="5.997" height="360" style="fill:rgb(166,218,55);"/>
                    </g>
                </g>
            </g>
            <g id="g-root-cp_5_text-5_1hhk9p21m1zfuw-fill" transform="matrix(1,0,0,1,38,302)">
                <g id="cp_5_text-5_1hhk9p21m1zfuw-fill">
                    <g>
                        <rect x="10" y="10" width="228" height="108" style="fill:rgb(203,104,249);"/>
                    </g>
                </g>
            </g>
            <g id="g-root-cp_5_stick-5_qv9q1i1m1zfuy-fill" transform="matrix(1,0,0,1,260,410)">
                <g id="cp_5_stick-5_qv9q1i1m1zfuy-fill">
                    <g>
                        <rect x="10" y="10" width="5.997" height="252" style="fill:rgb(203,104,249);"/>
                    </g>
                </g>
            </g>
            <g id="g-root-cp_3_text-3_djt7o61m1zhfw-fill" transform="matrix(1,0,0,1,32,410)">
                <g id="cp_3_text-3_djt7o61m1zhfw-fill">
                    <g>
                        <rect x="10" y="10" width="228" height="108" style="fill:rgb(251,103,98);"/>
                    </g>
                </g>
            </g>
            <g id="g-root-cp_3_stick-3_1lympzq1m1zh8u-fill" transform="matrix(1,0,0,1,254,518)">
                <g id="cp_3_stick-3_1lympzq1m1zh8u-fill">
                    <g>
                        <rect x="10" y="10" width="5.997" height="144" style="fill:rgb(251,103,98);"/>
                    </g>
                </g>
            </g>
            <g id="g-root-cp_1_text-1_1d3m6ty1m1zfnk-fill" transform="matrix(1,0,0,1,26,518)">
                <g id="cp_1_text-1_1d3m6ty1m1zfnk-fill">
                    <g>
                        <rect x="10" y="10" width="228" height="108" style="fill:rgb(255,231,17);"/>
                    </g>
                </g>
            </g>
            <g id="g-root-cp_1_stick-1_qwio7q1m1zi16-fill" transform="matrix(1,0,0,1,247.997,602)">
                <g id="cp_1_stick-1_qwio7q1m1zi16-fill">
                    <g>
                        <rect x="10.003" y="10" width="5.997" height="60" style="fill:rgb(255,231,17);"/>
                    </g>
                </g>
            </g>
            <g id="g-root-cp_10_text-10_8vvjfa1m20vt0-fill" transform="matrix(1,0,0,1,278,122)">
                <g id="cp_10_text-10_8vvjfa1m20vt0-fill">
                    <g>
                        <rect x="10" y="10" width="228" height="84" style="fill:rgb(79,145,252);"/>
                    </g>
                </g>
            </g>
            <g id="g-root-cp_10_stick-10_1lqijva1m20utq-fill" transform="matrix(1,0,0,1,278.003,206)">
                <g id="cp_10_stick-10_1lqijva1m20utq-fill">
                    <g>
                        <rect x="10" y="10" width="5.997" height="456" style="fill:rgb(79,145,252);"/>
                    </g>
                </g>
            </g>
            <g id="g-root-cp_8_text-8_1hap1qu1m20vm0-fill" transform="matrix(1,0,0,1,284,206)">
                <g id="cp_8_text-8_1hap1qu1m20vm0-fill">
                    <g>
                        <rect x="10" y="10" width="228" height="108" style="fill:rgb(67,221,147);"/>
                    </g>
                </g>
            </g>
            <g id="g-root-cp_8_stick-8_13zv0gm1m20u16-fill" transform="matrix(1,0,0,1,284.003,314)">
                <g id="cp_8_stick-8_13zv0gm1m20u16-fill">
                    <g>
                        <rect x="10" y="10" width="5.997" height="348" style="fill:rgb(67,221,147);"/>
                    </g>
                </g>
            </g>
            <g id="g-root-cp_6_text-6_ddkgt21m20u18-fill" transform="matrix(1,0,0,1,290,314)">
                <g id="cp_6_text-6_ddkgt21m20u18-fill">
                    <g>
                        <rect x="10" y="10" width="228" height="108" style="fill:rgb(135,105,253);"/>
                    </g>
                </g>
            </g>
            <g id="g-root-cp_6_stick-6_23yfq1m20vm6-fill" transform="matrix(1,0,0,1,290.003,422)">
                <g id="cp_6_stick-6_23yfq1m20vm6-fill">
                    <g>
                        <rect x="10" y="10" width="5.997" height="240" style="fill:rgb(135,105,253);"/>
                    </g>
                </g>
            </g>
            <g id="g-root-cp_4_text-4_1q87h921m20tts-fill" transform="matrix(1,0,0,1,296,422)">
                <g id="cp_4_text-4_1q87h921m20tts-fill">
                    <g>
                        <rect x="10" y="10" width="228" height="108" style="fill:rgb(243,102,187);"/>
                    </g>
                </g>
            </g>
            <g id="g-root-cp_4_stick-4_1cwqyvq1m20veq-fill" transform="matrix(1,0,0,1,296.003,530)">
                <g id="cp_4_stick-4_1cwqyvq1m20veq-fill">
                    <g>
                        <rect x="10" y="10" width="5.997" height="132" style="fill:rgb(243,102,187);"/>
                    </g>
                </g>
            </g>
            <g id="g-root-cp_2_text-2_zlwxli1m20ttw-fill" transform="matrix(1,0,0,1,302,530)">
                <g id="cp_2_text-2_zlwxli1m20ttw-fill">
                    <g>
                        <rect x="10" y="10" width="228" height="84" style="fill:rgb(247,148,56);"/>
                    </g>
                </g>
            </g>
            <g id="g-root-cp_2_stick-2_deteza1m20w7i-fill" transform="matrix(1,0,0,1,302.003,613)">
                <g id="cp_2_stick-2_deteza1m20w7i-fill">
                    <g>
                        <rect x="10" y="10" width="5.997" height="49" style="fill:rgb(247,148,56);"/>
                    </g>
                </g>
            </g>
            <g id="g-root-cp_0_g-0_4jsvti1m20um8-fill" transform="matrix(1,0,0,1,248,662)">
                <g id="cp_0_g-0_4jsvti1m20um8-fill">
                    <g>
                        <path d="M30,58L40.001,82.001L50.001,58L30,58Z" style="fill:rgb(232,232,232);"/>
                    </g>
                </g>
                <g id="cp_0_g-0_4jsvti1m20um8-fill1" serif:id="cp_0_g-0_4jsvti1m20um8-fill">
                    <g>
                        <path d="M70.001,10L10,10L30,57.999L50.001,57.999L70.001,10Z" style="fill:rgb(232,232,232);"/>
                    </g>
                </g>
            </g>
            <g id="g-root-tx_multilan_deteza1m23nr6-fill" transform="matrix(1,0,0,1,50,314)">
                <g id="tx_multilan_deteza1m23nr6-fill">
                    <g>
                        <g>
                            <g transform="matrix(1,0,0,1,21.73,34)">
                                <text x="0px" y="0px" style="font-family:'Arial-BoldMT', 'Arial', sans-serif;font-weight:700;font-size:20px;fill:rgb(44,44,44);">Multi-Language</text>
                            </g>
                            <g transform="matrix(1,0,0,1,92.12,58)">
                                <text x="0px" y="0px" style="font-family:'Arial-BoldMT', 'Arial', sans-serif;font-weight:700;font-size:20px;fill:rgb(44,44,44);">Support</text>
                            </g>
                        </g>
                    </g>
                </g>
            </g>
            <g id="g-root-tx__1hgbeom1m1mscv-fill">
            </g>
            <g id="g-root-tx__1uqivpy1m22ars-fill">
            </g>
            <g id="g-root-tx_recordin_3zguu1m1o8i1-fill" transform="matrix(1,0,0,1,350,326)">
                <g id="tx_recordin_3zguu1m1o8i1-fill">
                    <g>
                        <g>
                            <g transform="matrix(1,0,0,1,12,34)">
                                <text x="0px" y="0px" style="font-family:'Arial-BoldMT', 'Arial', sans-serif;font-weight:700;font-size:20px;fill:rgb(44,44,44);">Recording &amp;</text>
                            </g>
                            <g transform="matrix(1,0,0,1,12,58)">
                                <text x="0px" y="0px" style="font-family:'Arial-BoldMT', 'Arial', sans-serif;font-weight:700;font-size:20px;fill:rgb(44,44,44);">Playback</text>
                            </g>
                        </g>
                    </g>
                </g>
            </g>
            <g id="g-root-tx__zn5vrq1m23mrv-fill">
            </g>
            <g id="g-root-tx__v7yxw61m1o6q2-fill">
            </g>
            <g id="g-root-tx_apisinte_mcbxna1m1mu4u-fill" transform="matrix(1,0,0,1,344,218)">
                <g id="tx_apisinte_mcbxna1m1mu4u-fill">
                    <g>
                        <g>
                            <g transform="matrix(1,0,0,1,12,34)">
                                <text x="0px" y="0px" style="font-family:'Arial-BoldMT', 'Arial', sans-serif;font-weight:700;font-size:20px;fill:rgb(44,44,44);">APIs &amp;</text>
                            </g>
                            <g transform="matrix(1,0,0,1,12,58)">
                                <text x="0px" y="0px" style="font-family:'Arial-BoldMT', 'Arial', sans-serif;font-weight:700;font-size:20px;fill:rgb(44,44,44);">Integration</text>
                            </g>
                        </g>
                    </g>
                </g>
            </g>
            <g id="g-root-tx_hdvideoa_1cu95p21m1k0sl-fill" transform="matrix(1,0,0,1,68,422)">
                <g id="tx_hdvideoa_1cu95p21m1k0sl-fill">
                    <g>
                        <g>
                            <g transform="matrix(1,0,0,1,38.08,34)">
                                <text x="0px" y="0px" style="font-family:'Arial-BoldMT', 'Arial', sans-serif;font-weight:700;font-size:20px;fill:rgb(44,44,44);">HD V<tspan x="47.422px 52.979px " y="0px 0px ">id</tspan>eo &amp;</text>
                            </g>
                            <g transform="matrix(1,0,0,1,19.53,58)">
                                <text x="0px" y="0px" style="font-family:'Arial-BoldMT', 'Arial', sans-serif;font-weight:700;font-size:20px;fill:rgb(44,44,44);">Audio Quality</text>
                            </g>
                        </g>
                    </g>
                </g>
            </g>
            <g id="g-root-tx__vb3bbq1m1lgcs-fill">
            </g>
            <g id="g-root-tx_webbased_1hdtic61m1po1w-fill" transform="matrix(1,0,0,1,356,434)">
                <g id="tx_webbased_1hdtic61m1po1w-fill">
                    <g>
                        <g>
                            <g transform="matrix(1,0,0,1,12,34)">
                                <text x="0px" y="0px" style="font-family:'Arial-BoldMT', 'Arial', sans-serif;font-weight:700;font-size:20px;fill:rgb(44,44,44);">W<tspan x="18.516px 29.639px " y="0px 0px ">eb</tspan>-Based</text>
                            </g>
                            <g transform="matrix(1,0,0,1,12,58)">
                                <text x="0px" y="0px" style="font-family:'Arial-BoldMT', 'Arial', sans-serif;font-weight:700;font-size:20px;fill:rgb(44,44,44);">Access</text>
                            </g>
                        </g>
                    </g>
                </g>
            </g>
            <g id="g-root-tx__8x4kra1m1jz7q-fill">
            </g>
            <g id="g-root-tx__dgoxee1m1pmh1-fill">
            </g>
            <g id="g-root-tx_customco_1hdtf6e1m22a6n-fill" transform="matrix(1,0,0,1,104,182)">
                <g id="tx_customco_1hdtf6e1m22a6n-fill">
                    <g>
                        <g>
                            <g transform="matrix(1,0,0,1,46.35,34)">
                                <text x="0px" y="0px" style="font-family:'Arial-BoldMT', 'Arial', sans-serif;font-weight:700;font-size:20px;fill:rgb(44,44,44);">Custom</text>
                            </g>
                            <g transform="matrix(1,0,0,1,12.33,58)">
                                <text x="0px" y="0px" style="font-family:'Arial-BoldMT', 'Arial', sans-serif;font-weight:700;font-size:20px;fill:rgb(44,44,44);">Conference</text>
                            </g>
                            <g transform="matrix(1,0,0,1,68.92,82)">
                                <text x="0px" y="0px" style="font-family:'Arial-BoldMT', 'Arial', sans-serif;font-weight:700;font-size:20px;fill:rgb(44,44,44);">URLs</text>
                            </g>
                        </g>
                    </g>
                </g>
            </g>
            <g id="g-root-tx_advanced_147csnq1m1jz0g-fill" transform="matrix(1,0,0,1,50,530)">
                <g id="tx_advanced_147csnq1m1jz0g-fill">
                    <g>
                        <g>
                            <g transform="matrix(1,0,0,1,17.75,34)">
                                <text x="0px" y="0px" style="font-family:'Arial-BoldMT', 'Arial', sans-serif;font-weight:700;font-size:20px;fill:rgb(44,44,44);">Advanced Role</text>
                            </g>
                            <g transform="matrix(1,0,0,1,33.53,58)">
                                <text x="0px" y="0px" style="font-family:'Arial-BoldMT', 'Arial', sans-serif;font-weight:700;font-size:20px;fill:rgb(44,44,44);">Management</text>
                            </g>
                        </g>
                    </g>
                </g>
            </g>
            <g transform="matrix(1,0,0,1,350,168)">
                <g id="g-root-tx_reliable_dj6tqu1m1lde3-fill">
                    <g id="tx_reliable_dj6tqu1m1lde3-fill">
                        <g>
                            <g>
                                <text x="0px" y="0px" style="font-family:'Arial-BoldMT', 'Arial', sans-serif;font-weight:700;font-size:20px;fill:rgb(44,44,44);">Reliable Uptime</text>
                            </g>
                        </g>
                    </g>
                </g>
            </g>
            <g id="g-root-tx__v97swm1m20v0t-fill">
            </g>
            <g transform="matrix(1,0,0,1,374,576)">
                <g id="g-root-tx_tenantis_142zh1y1m1qzuv-fill">
                    <g id="tx_tenantis_142zh1y1m1qzuv-fill">
                        <g>
                            <g>
                                <text x="0px" y="0px" style="font-family:'Arial-BoldMT', 'Arial', sans-serif;font-weight:700;font-size:20px;fill:rgb(44,44,44);">T<tspan x="10.732px 21.855px " y="0px 0px ">en</tspan>ant Isolation</text>
                            </g>
                        </g>
                    </g>
                </g>
            </g>
            <g id="g-root-tx__9lqmu1m1k0ld-fill">
            </g>
            <g id="g-root-tx__58f121m1r1fs-fill">
            </g>
            <g id="g-root-tx_realtime_5usye1m20tn0-fill" transform="matrix(1,0,0,1,110,74)">
                <g id="tx_realtime_5usye1m20tn0-fill">
                    <g>
                        <g>
                            <g transform="matrix(1,0,0,1,22.68,34)">
                                <text x="0px" y="0px" style="font-family:'Arial-BoldMT', 'Arial', sans-serif;font-weight:700;font-size:20px;fill:rgb(44,44,44);">Real-T<tspan x="60.762px 66.318px " y="0px 0px ">im</tspan>e</text>
                            </g>
                            <g transform="matrix(1,0,0,1,17.63,58)">
                                <text x="0px" y="0px" style="font-family:'Arial-BoldMT', 'Arial', sans-serif;font-weight:700;font-size:20px;fill:rgb(44,44,44);">Monitoring</text>
                            </g>
                        </g>
                    </g>
                </g>
            </g>
            <g id="g-root-cp_9_text-9_mcbuhi1m1zfgo-stroke" transform="matrix(1,0,0,1,50,62)">
                <g id="cp_9_text-9_mcbuhi1m1zfgo-stroke">
                    <g>
                        <path d="M10,118L10,10L238,10L238,118" style="fill:none;stroke:rgb(44,44,44);stroke-width:2px;"/>
                    </g>
                </g>
            </g>
            <g id="g-root-cp_9_stick-9_1hfoufq1m1zgui-stroke" transform="matrix(1,0,0,1,272,170)">
                <g id="cp_9_stick-9_1hfoufq1m1zgui-stroke">
                    <g>
                        <path d="M15.997,502L15.997,10" style="fill:none;stroke:rgb(44,44,44);stroke-width:2px;"/>
                    </g>
                </g>
            </g>
            <g id="g-root-cp_7_text-7_mdksnq1m1zhms-stroke" transform="matrix(1,0,0,1,44,170)">
                <g id="cp_7_text-7_mdksnq1m1zhms-stroke">
                    <g>
                        <path d="M10,142L10,10L238,10L238,142" style="fill:none;stroke:rgb(44,44,44);stroke-width:2px;"/>
                    </g>
                </g>
            </g>
            <g id="g-root-cp_7_stick-7_1useaza1m1zhfq-stroke" transform="matrix(1,0,0,1,266,302)">
                <g id="cp_7_stick-7_1useaza1m1zhfq-stroke">
                    <g>
                        <path d="M15.997,370L15.997,10" style="fill:none;stroke:rgb(44,44,44);stroke-width:2px;"/>
                    </g>
                </g>
            </g>
            <g id="g-root-cp_5_text-5_1hhk9p21m1zfuw-stroke" transform="matrix(1,0,0,1,38,302)">
                <g id="cp_5_text-5_1hhk9p21m1zfuw-stroke">
                    <g>
                        <path d="M10,118L10,10L238,10L238,118" style="fill:none;stroke:rgb(44,44,44);stroke-width:2px;"/>
                    </g>
                </g>
            </g>
            <g id="g-root-cp_5_stick-5_qv9q1i1m1zfuy-stroke" transform="matrix(1,0,0,1,260,410)">
                <g id="cp_5_stick-5_qv9q1i1m1zfuy-stroke">
                    <g>
                        <path d="M15.997,262L15.997,10" style="fill:none;stroke:rgb(44,44,44);stroke-width:2px;"/>
                    </g>
                </g>
            </g>
            <g id="g-root-cp_3_text-3_djt7o61m1zhfw-stroke" transform="matrix(1,0,0,1,32,410)">
                <g id="cp_3_text-3_djt7o61m1zhfw-stroke">
                    <g>
                        <path d="M10,118L10,10L238,10L238,118" style="fill:none;stroke:rgb(44,44,44);stroke-width:2px;"/>
                    </g>
                </g>
            </g>
            <g id="g-root-cp_3_stick-3_1lympzq1m1zh8u-stroke" transform="matrix(1,0,0,1,254,518)">
                <g id="cp_3_stick-3_1lympzq1m1zh8u-stroke">
                    <g>
                        <path d="M15.997,154L15.997,10" style="fill:none;stroke:rgb(44,44,44);stroke-width:2px;"/>
                    </g>
                </g>
            </g>
            <g id="g-root-cp_1_text-1_1d3m6ty1m1zfnk-stroke" transform="matrix(1,0,0,1,26,518)">
                <g id="cp_1_text-1_1d3m6ty1m1zfnk-stroke">
                    <g>
                        <path d="M238,118L238,10L10,10L10,118L232.5,118" style="fill:none;stroke:rgb(44,44,44);stroke-width:2px;"/>
                    </g>
                </g>
            </g>
            <g id="g-root-cp_1_stick-1_qwio7q1m1zi16-stroke" transform="matrix(1,0,0,1,247.997,602)">
                <g id="cp_1_stick-1_qwio7q1m1zi16-stroke">
                    <g>
                        <path d="M16,70L16,10M10,70L10,33" style="fill:none;stroke:rgb(44,44,44);stroke-width:2px;"/>
                    </g>
                </g>
            </g>
            <g id="g-root-cp_10_text-10_8vvjfa1m20vt0-stroke" transform="matrix(1,0,0,1,278,122)">
                <g id="cp_10_text-10_8vvjfa1m20vt0-stroke">
                    <g>
                        <path d="M238,94L238,10L10,10L10,94" style="fill:none;stroke:rgb(44,44,44);stroke-width:2px;"/>
                    </g>
                </g>
            </g>
            <g id="g-root-cp_10_stick-10_1lqijva1m20utq-stroke" transform="matrix(1,0,0,1,278.003,206)">
                <g id="cp_10_stick-10_1lqijva1m20utq-stroke">
                    <g>
                        <path d="M10.001,466L10.001,10" style="fill:none;stroke:rgb(44,44,44);stroke-width:2px;"/>
                    </g>
                </g>
            </g>
            <g id="g-root-cp_8_text-8_1hap1qu1m20vm0-stroke" transform="matrix(1,0,0,1,284,206)">
                <g id="cp_8_text-8_1hap1qu1m20vm0-stroke">
                    <g>
                        <path d="M238,118L238,10L10,10L10,118" style="fill:none;stroke:rgb(44,44,44);stroke-width:2px;"/>
                    </g>
                </g>
            </g>
            <g id="g-root-cp_8_stick-8_13zv0gm1m20u16-stroke" transform="matrix(1,0,0,1,284.003,314)">
                <g id="cp_8_stick-8_13zv0gm1m20u16-stroke">
                    <g>
                        <path d="M10.001,358L10.001,10" style="fill:none;stroke:rgb(44,44,44);stroke-width:2px;"/>
                    </g>
                </g>
            </g>
            <g id="g-root-cp_6_text-6_ddkgt21m20u18-stroke" transform="matrix(1,0,0,1,290,314)">
                <g id="cp_6_text-6_ddkgt21m20u18-stroke">
                    <g>
                        <path d="M238,118L238,10L10,10L10,118" style="fill:none;stroke:rgb(44,44,44);stroke-width:2px;"/>
                    </g>
                </g>
            </g>
            <g id="g-root-cp_6_stick-6_23yfq1m20vm6-stroke" transform="matrix(1,0,0,1,290.003,422)">
                <g id="cp_6_stick-6_23yfq1m20vm6-stroke">
                    <g>
                        <path d="M10.001,250L10.001,10" style="fill:none;stroke:rgb(44,44,44);stroke-width:2px;"/>
                    </g>
                </g>
            </g>
            <g id="g-root-cp_4_text-4_1q87h921m20tts-stroke" transform="matrix(1,0,0,1,296,422)">
                <g id="cp_4_text-4_1q87h921m20tts-stroke">
                    <g>
                        <path d="M238,118L238,10L10,10L10,118" style="fill:none;stroke:rgb(44,44,44);stroke-width:2px;"/>
                    </g>
                </g>
            </g>
            <g id="g-root-cp_4_stick-4_1cwqyvq1m20veq-stroke" transform="matrix(1,0,0,1,296.003,530)">
                <g id="cp_4_stick-4_1cwqyvq1m20veq-stroke">
                    <g>
                        <path d="M10.001,142L10.001,10" style="fill:none;stroke:rgb(44,44,44);stroke-width:2px;"/>
                    </g>
                </g>
            </g>
            <g id="g-root-cp_2_text-2_zlwxli1m20ttw-stroke" transform="matrix(1,0,0,1,302,530)">
                <g id="cp_2_text-2_zlwxli1m20ttw-stroke">
                    <g>
                        <path d="M10,94L10,10L238,10L238,94L15.5,94" style="fill:none;stroke:rgb(44,44,44);stroke-width:2px;"/>
                    </g>
                </g>
            </g>
            <g id="g-root-cp_2_stick-2_deteza1m20w7i-stroke" transform="matrix(1,0,0,1,302.003,613)">
                <g id="cp_2_stick-2_deteza1m20w7i-stroke">
                    <g>
                        <path d="M10.001,59L10.001,10M15.997,59L15.997,10" style="fill:none;stroke:rgb(44,44,44);stroke-width:2px;"/>
                    </g>
                </g>
            </g>
            <g id="g-root-cp_0_g-0_4jsvti1m20um8-stroke" transform="matrix(1,0,0,1,248,662)">
                <g id="cp_0_g-0_4jsvti1m20um8-stroke">
                    <g>
                        <path d="M30,58L40.001,82.001L50.001,58L30,58Z" style="fill:none;stroke:rgb(44,44,44);stroke-width:2px;"/>
                    </g>
                </g>
                <g id="cp_0_g-0_4jsvti1m20um8-stroke1" serif:id="cp_0_g-0_4jsvti1m20um8-stroke">
                    <g>
                        <path d="M70.001,10L10,10L30,57.999L50.001,57.999L70.001,10Z" style="fill:none;stroke:rgb(44,44,44);stroke-width:2px;"/>
                    </g>
                </g>
            </g>
            <g id="g-root-ic_tran_1hf2dcm1m23pqk-stroke" transform="matrix(1,0,0,1,218,314)">
                <g id="ic_tran_1hf2dcm1m23pqk-stroke">
                    <g>
                        <path d="M40,22.75L40,20.5M34.75,22.75L45.25,22.75M37,22.75C37.178,27.101 40.253,30.791 44.5,31.75M43,22.75C42.822,27.101 39.747,30.791 35.5,31.75M18.25,16.75L18.25,13.75C18.25,12.093 19.593,10.75 21.25,10.75L34.75,10.75C36.407,10.75 37.75,12.093 37.75,13.75L37.75,16.75M37.75,35.5L37.75,42.25C37.75,43.907 36.407,45.25 34.75,45.25L21.25,45.25C19.593,45.25 18.25,43.907 18.25,42.25L18.25,35.5M37.75,39.25L18.25,39.25M28,41.875C28.207,41.875 28.375,42.043 28.375,42.25C28.375,42.457 28.207,42.625 28,42.625C27.793,42.625 27.625,42.457 27.625,42.25C27.625,42.043 27.793,41.875 28,41.875M10.75,31.75L10.75,24.25C10.75,22.179 12.429,20.5 14.5,20.5C16.571,20.5 18.25,22.179 18.25,24.25L18.25,31.75M10.75,26.5L18.25,26.5M27.25,19.75C29.139,21.166 30.25,23.389 30.25,25.75C30.25,28.111 29.139,30.334 27.25,31.75M24.25,23.155C25.175,23.692 25.745,24.68 25.745,25.75C25.745,26.82 25.175,27.808 24.25,28.345" style="fill:none;stroke:rgb(44,44,44);stroke-width:2px;"/>
                    </g>
                </g>
            </g>
            <g id="g-root-ic_cloc_1qbbxue1m1o83v-stroke" transform="matrix(1,0,0,1,302,326)">
                <g id="ic_cloc_1qbbxue1m1o83v-stroke">
                    <g>
                        <path d="M24.25,45.25L12.25,45.25C11.422,45.25 10.75,44.578 10.75,43.75L10.75,12.25C10.75,11.422 11.422,10.75 12.25,10.75L32.189,10.75C32.587,10.75 32.969,10.908 33.25,11.19L38.811,16.75C39.092,17.031 39.25,17.413 39.25,17.81L39.25,22.75M24.25,31C24.25,32.399 22.571,33.531 20.5,33.531C18.428,33.531 16.75,32.399 16.75,31C16.75,29.601 18.428,28.471 20.5,28.471C22.571,28.471 24.25,29.602 24.25,31ZM24.25,31L24.25,20.834C24.249,20.298 24.534,19.802 24.999,19.533C25.463,19.265 26.035,19.264 26.5,19.532L29.5,21.25M27.25,36.25C27.25,41.221 31.279,45.25 36.25,45.25C41.221,45.25 45.25,41.221 45.25,36.25C45.25,31.279 41.221,27.25 36.25,27.25C31.279,27.25 27.25,31.279 27.25,36.25L27.25,36.25ZM39.25,36.25L36.25,36.25L36.25,31.75" style="fill:none;stroke:rgb(44,44,44);stroke-width:2px;"/>
                    </g>
                </g>
            </g>
            <g id="g-root-ic_next_140hkpi1m1k0lj-stroke" transform="matrix(1,0,0,1,212,422)">
                <g id="ic_next_140hkpi1m1k0lj-stroke">
                    <g>
                        <path d="M31.75,33.25L31.75,40.774L36.25,37L31.75,33.25ZM27.25,37C27.25,41.556 30.944,45.25 35.5,45.25C40.056,45.25 43.75,41.556 43.75,37C43.75,32.444 40.056,28.75 35.5,28.75C30.944,28.75 27.25,32.444 27.25,37L27.25,37ZM26.5,30.25L12.25,30.25C11.422,30.25 10.75,29.578 10.75,28.75L10.75,12.25C10.75,11.422 11.422,10.75 12.25,10.75L31.75,10.75C32.578,10.75 33.25,11.422 33.25,12.25L33.25,24.943M45.25,26.323C45.25,26.843 44.98,27.325 44.538,27.598C44.096,27.871 43.544,27.896 43.079,27.664L37.079,24.664C36.571,24.41 36.25,23.891 36.25,23.323L36.25,17.677C36.25,17.109 36.571,16.59 37.079,16.336L43.079,13.336C43.544,13.104 44.096,13.129 44.538,13.402C44.98,13.675 45.25,14.157 45.25,14.677L45.25,26.323ZM39.25,33.25L39.25,40.774" style="fill:none;stroke:rgb(44,44,44);stroke-width:2px;"/>
                    </g>
                </g>
            </g>
            <g id="g-root-ic_clou_hydus61m1mtxc-stroke" transform="matrix(1,0,0,1,296,218)">
                <g id="ic_clou_hydus61m1mtxc-stroke">
                    <g>
                        <path d="M39.651,45.049L39.651,35.248M37.69,35.248L41.611,35.248M37.69,45.049L41.611,45.049M26.679,45.049L26.679,41.128M26.679,41.128L29.62,41.128C31.244,41.128 32.56,39.812 32.56,38.188C32.56,36.564 31.244,35.248 29.62,35.248L26.679,35.248L26.679,41.128ZM13.707,45.049L14.814,37.671C15.035,36.288 16.228,35.272 17.628,35.272C19.027,35.272 20.22,36.288 20.442,37.671L21.55,45.049M14.221,41.619L21.034,41.619M45.25,24.451C45.252,22.415 44.424,20.466 42.958,19.054C41.492,17.641 39.514,16.887 37.48,16.965C35.438,12.628 30.713,10.229 26.007,11.138C21.3,12.048 17.81,16.034 17.53,20.82C15.871,20.472 14.145,20.891 12.829,21.959C11.514,23.027 10.75,24.631 10.75,26.326C10.75,32.041 16.75,31.951 16.75,31.951L38.5,31.951C38.5,31.951 45.25,31.072 45.25,24.451Z" style="fill:none;stroke:rgb(44,44,44);stroke-width:2px;"/>
                    </g>
                </g>
            </g>
            <g id="g-root-ic_2_mdksnq1m229z5-stroke" transform="matrix(1,0,0,1,224,182)">
                <g id="ic_2_mdksnq1m229z5-stroke">
                    <g>
                        <path d="M22.75,15.262C22.75,17.747 24.765,19.762 27.25,19.762C29.735,19.762 31.75,17.747 31.75,15.262C31.75,12.777 29.735,10.762 27.25,10.762C24.765,10.762 22.75,12.777 22.75,15.262ZM27.25,19.762L27.25,35.512M22.75,28.429L21.25,28.762L11.706,26.035C11.479,25.971 11.236,26.016 11.048,26.158C10.86,26.3 10.75,26.521 10.75,26.757L10.75,41.697C10.751,42.031 10.973,42.325 11.294,42.417L21.067,45.209C21.187,45.244 21.314,45.247 21.436,45.22L34.564,42.302C34.686,42.276 34.813,42.28 34.933,42.314L44.295,44.989C44.521,45.053 44.764,45.008 44.952,44.866C45.14,44.724 45.25,44.503 45.25,44.267L45.25,29.327C45.25,28.992 45.028,28.698 44.705,28.606L34.933,25.815C34.813,25.78 34.686,25.776 34.564,25.802L31.75,26.43M21.25,28.762L21.25,45.238M34.75,25.786L34.75,42.262" style="fill:none;stroke:rgb(44,44,44);stroke-width:2px;"/>
                    </g>
                </g>
            </g>
            <g id="g-root-ic_acce_18k1xcm1m1pnuu-stroke" transform="matrix(1,0,0,1,308,434)">
                <g id="ic_acce_18k1xcm1m1pnuu-stroke">
                    <g>
                        <path d="M18.25,35.125C18.25,40.51 22.615,44.875 28,44.875C33.385,44.875 37.75,40.51 37.75,35.125C37.75,29.74 33.385,25.375 28,25.375C22.615,25.375 18.25,29.74 18.25,35.125M25,35.125C25,36.782 26.343,38.125 28,38.125C29.657,38.125 31,36.782 31,35.125C31,33.468 29.657,32.125 28,32.125C26.343,32.125 25,33.468 25,35.125M35.5,28.9L35.5,18.625C35.5,14.483 32.142,11.125 28,11.125C23.858,11.125 20.5,14.483 20.5,18.625L20.5,20.875" style="fill:none;stroke:rgb(44,44,44);stroke-width:2px;"/>
                    </g>
                </g>
            </g>
            <g id="g-root-ic_pick_hs53x21m1leyq-stroke" transform="matrix(1,0,0,1,206,530)">
                <g id="ic_pick_hs53x21m1leyq-stroke">
                    <g>
                        <path d="M37.873,32.172C39.412,32.3 40.595,33.589 40.591,35.134C40.587,36.679 39.398,37.962 37.858,38.083M43.284,45.058C42.231,43.019 40.175,41.691 37.883,41.569M23.352,33.85C23.351,36.623 25.599,38.871 28.372,38.871C31.145,38.871 33.393,36.623 33.392,33.85C33.393,31.077 31.145,28.829 28.372,28.829C25.599,28.829 23.351,31.077 23.351,33.85M20.676,45.25C21.837,42.059 24.846,39.915 28.242,39.861C31.637,39.807 34.714,41.854 35.976,45.007M18.127,32.172C16.588,32.3 15.405,33.589 15.409,35.134C15.413,36.679 16.602,37.962 18.142,38.083M12.717,45.058C13.769,43.019 15.825,41.691 18.117,41.569M25.174,17.617C25.174,19.358 26.585,20.769 28.326,20.769C30.066,20.769 31.477,19.358 31.477,17.617C31.477,15.876 30.066,14.466 28.326,14.466C26.585,14.466 25.174,15.876 25.174,17.617M25.362,18.691L20.404,23.253L22.843,26.793M31.289,18.691L36.249,23.253L33.808,26.793M28.326,14.466L28.326,10.75" style="fill:none;stroke:rgb(44,44,44);stroke-width:2px;"/>
                    </g>
                </g>
            </g>
            <g id="g-root-ic_bird_9lqmu1m1ldz9-stroke" transform="matrix(1,0,0,1,290,134)">
                <g id="ic_bird_9lqmu1m1ldz9-stroke">
                    <g>
                        <path d="M45.25,45.082C41.5,45.864 39.16,42.114 39.16,42.114C37.98,43.987 35.94,45.144 33.727,45.198C31.53,45.092 29.515,43.946 28.3,42.114C27.122,43.987 25.083,45.145 22.87,45.198C20.672,45.094 18.655,43.949 17.44,42.113L17.44,42.114C17.44,42.114 14.44,45.926 10.758,45.144M30.248,10.75L30.248,13.75M22.235,40.651L25.748,24.25L25.748,18.25L34.749,18.25L34.749,24.25L37.918,39.038M25.75,18.25C25.75,15.765 27.765,13.75 30.25,13.75C32.735,13.75 34.75,15.765 34.75,18.25M23.498,24.25L36.999,24.25M24.463,30.25L36.034,30.25M22.857,37.75L37.642,37.75M30.248,26.5L30.248,28M30.248,33.25L30.248,34.75M18.249,10.75L20.499,13L22.748,10.75M12.249,16L14.499,18.25L16.749,16" style="fill:none;stroke:rgb(44,44,44);stroke-width:2px;"/>
                    </g>
                </g>
            </g>
            <g id="g-root-ic_came_1lxdrti1m20u12-stroke" transform="matrix(1,0,0,1,230,74)">
                <g id="ic_came_1lxdrti1m20u12-stroke">
                    <g>
                        <path d="M28.608,43.644C28.608,44.531 27.888,45.25 27.001,45.25L12.537,45.25C11.649,45.25 10.93,44.531 10.93,43.643L10.93,39.626C10.889,36.441 12.564,33.48 15.316,31.875C18.068,30.271 21.47,30.271 24.222,31.875C26.973,33.48 28.649,36.441 28.608,39.627L28.608,43.644ZM16.395,36.251C16.395,36.459 16.562,36.626 16.77,36.626C16.977,36.626 17.145,36.459 17.145,36.251C17.145,36.044 16.977,35.876 16.77,35.876C16.562,35.876 16.395,36.044 16.395,36.251M22.394,36.243C22.394,36.45 22.562,36.618 22.769,36.618C22.977,36.618 23.144,36.45 23.144,36.243C23.144,36.035 22.977,35.868 22.769,35.868C22.562,35.868 22.394,36.035 22.394,36.243M19.77,30.787L19.77,27.573M17.359,25.162C17.359,26.493 18.438,27.573 19.77,27.573C21.101,27.573 22.18,26.493 22.18,25.162C22.18,23.831 21.101,22.752 19.77,22.752C18.438,22.752 17.359,23.831 17.359,25.162M10.93,41.224L28.608,41.224M26.115,22.138L25.202,18.164C24.842,16.597 25.82,15.034 27.388,14.674L44.416,10.764C44.728,10.692 44.922,10.888 44.847,11.198L44.5,12.598C44.395,12.948 44.158,13.243 43.84,13.422L26.115,22.138ZM41.147,14.747L42.268,19.622C42.412,20.249 42.02,20.874 41.394,21.017L30.042,23.626C29.452,23.781 28.826,23.691 28.303,23.378C27.781,23.064 27.408,22.552 27.268,21.96L27.188,21.61M44.55,16.111L45.07,18.381M33.446,22.843L34.026,25.363C34.146,25.882 33.899,26.417 33.425,26.662L27.262,29.8" style="fill:none;stroke:rgb(44,44,44);stroke-width:2px;"/>
                    </g>
                </g>
            </g>
            <g id="g-root-ic_open_v97w2e1m1qznt-stroke" transform="matrix(1,0,0,1,314,542)">
                <g id="ic_open_v97w2e1m1qznt-stroke">
                    <g>
                        <path d="M27.25,19L27.25,28L33.25,30.25L33.25,16.75L27.25,19ZM33.25,18.25L36.25,18.25L36.25,28.75L33.25,28.75L33.25,18.25ZM33.25,22.75L31.75,22.75M45.25,22.75L31.75,10.75L18.25,22.75M40.75,18.751L40.75,31.75C40.75,32.578 40.078,33.25 39.25,33.25L24.25,33.25C23.422,33.25 22.75,32.578 22.75,31.75L22.75,18.751M18.25,34.75L18.25,43.75C18.25,43.75 18.25,45.25 16.75,45.25L12.25,45.25C12.25,45.25 10.75,45.25 10.75,43.75L10.75,34.75C10.75,34.75 10.75,33.25 12.25,33.25L16.75,33.25C16.75,33.25 18.25,33.25 18.25,34.75M16.507,29.521C15.366,28.494 13.634,28.494 12.493,29.521M18.25,27.067C16.058,25.312 12.942,25.312 10.75,27.067M14.5,41.5C14.707,41.5 14.875,41.668 14.875,41.875C14.875,42.082 14.707,42.25 14.5,42.25C14.293,42.25 14.125,42.082 14.125,41.875C14.125,41.668 14.293,41.5 14.5,41.5" style="fill:none;stroke:rgb(44,44,44);stroke-width:2px;"/>
                    </g>
                </g>
            </g>
        </g>
    </g>
</svg>
