<?xml version="1.0" encoding="UTF-8" standalone="no"?>
<!DOCTYPE svg PUBLIC "-//W3C//DTD SVG 1.1//EN" "http://www.w3.org/Graphics/SVG/1.1/DTD/svg11.dtd">
<svg width="100%" height="100%" viewBox="0 0 702 942" version="1.1" xmlns="http://www.w3.org/2000/svg" xmlns:xlink="http://www.w3.org/1999/xlink" xml:space="preserve" xmlns:serif="http://www.serif.com/" style="fill-rule:evenodd;clip-rule:evenodd;stroke-linecap:round;stroke-linejoin:round;">
    <g id="items" transform="matrix(1.08343,0,0,1.08343,-29.2827,-50.2876)">
        <g id="blend">
            <g id="g-root-cp_5_shape-5_1hiuagwflh5ol-fill" transform="matrix(1,0,0,1,314.303,68)">
                <g id="cp_5_shape-5_1hiuagwflh5ol-fill">
                    <g>
                        <path d="M27.697,316L15.697,316L15.697,160L27.697,160L27.697,316ZM32.297,28.191L27.697,28.191L27.697,160L15.697,160L15.697,28.191L11.017,28.191C10.237,28.191 9.747,27.341 10.137,26.661L20.86,10.448C21.256,9.849 22.136,9.851 22.53,10.451L33.177,26.661C33.577,27.341 33.087,28.191 32.297,28.191Z" style="fill:rgb(247,148,56);"/>
                    </g>
                </g>
            </g>
            <g id="g-root-cp_1_shape-1_1cuwm80flij9r-fill" transform="matrix(1,0,0,1,32,67.8164)">
                <g id="cp_1_shape-1_1cuwm80flij9r-fill">
                    <g>
                        <path d="M214,352.184L46,352.183C26.118,352.183 10,336.081 10,316.199L10,316.184L250,316.184C250,336.066 233.882,352.184 214,352.184ZM254.6,28.375L250,28.375L250,160.184L10,160.184C10,140.302 26.118,124.505 46,124.505L172,124.505C213.07,124.505 238,94.374 238,55.034L238,28.374L233.32,28.374C232.54,28.374 232.05,27.524 232.44,26.844L243.163,10.632C243.559,10.033 244.439,10.034 244.833,10.635L255.48,26.844C255.88,27.525 255.39,28.375 254.6,28.375ZM250,160.184L250,316.184L10,316.184L10,160.184L250,160.184Z" style="fill:rgb(26,195,251);"/>
                    </g>
                </g>
            </g>
            <g id="g-root-cp_3_shape-3_1q7m2rkflijux-fill" transform="matrix(1,0,0,1,284.303,68)">
                <g id="cp_3_shape-3_1q7m2rkflijux-fill">
                    <g>
                        <path d="M27.697,316L15.697,316L15.697,160L27.697,160L27.697,316ZM32.297,28.191L27.697,28.191L27.697,160L15.697,160L15.697,28.191L11.017,28.191C10.237,28.191 9.747,27.341 10.137,26.661L20.86,10.448C21.256,9.849 22.136,9.851 22.53,10.451L33.177,26.661C33.577,27.341 33.087,28.191 32.297,28.191Z" style="fill:rgb(166,218,55);"/>
                    </g>
                </g>
            </g>
            <g id="g-root-cp_3_shape-3_1_hunzpcflij2b-fill" transform="matrix(1,0,0,1,32,374)">
                <g id="cp_3_shape-3_1_hunzpcflij2b-fill">
                    <g>
                        <path d="M214,64.321C244,64.321 268,46 268,10L280,10L280,100.306L10,100.306C10,80.423 26.118,64.321 46,64.321L214,64.321Z" style="fill:rgb(166,218,55);"/>
                    </g>
                </g>
            </g>
            <g id="g-root-cp_5_shape-5_1_142dzeoflil8t-fill" transform="matrix(1,0,0,1,320,374)">
                <g id="cp_5_shape-5_1_142dzeoflil8t-fill">
                    <g>
                        <rect x="10" y="10" width="12" height="246" style="fill:rgb(247,148,56);"/>
                    </g>
                </g>
            </g>
            <g id="g-root-cp_3_shape-3_2_1uqjybkflik93-fill" transform="matrix(1,0,0,1,32,464)">
                <g id="cp_3_shape-3_2_1uqjybkflik93-fill">
                    <g>
                        <path d="M280,10L280,165.975L10,165.975L10,10L280,10ZM244,202.008L46,202.008C26.118,202.008 10,185.905 10,166.023L10,166.008L280,166.008C280,185.89 263.882,202.008 244,202.008Z" style="fill:rgb(166,218,55);"/>
                    </g>
                </g>
            </g>
            <g id="g-root-cp_5_shape-5_2_dhyv0gflik95-fill" transform="matrix(1,0,0,1,32,620)">
                <g id="cp_5_shape-5_2_dhyv0gflik95-fill">
                    <g>
                        <path d="M244,64.137C274,64.137 298,45.878 298,10L310,10L310,100L10,100C10,80.185 26.118,64.137 46,64.137L244,64.137Z" style="fill:rgb(247,148,56);"/>
                    </g>
                </g>
            </g>
            <g id="g-root-cp_5_shape-5_3_1464txcflij9f-fill" transform="matrix(1,0,0,1,32,710)">
                <g id="cp_5_shape-5_3_1464txcflij9f-fill">
                    <g>
                        <path d="M310,10L310,142L10,142L10,10L310,10ZM274,178.008L46,178.008C26.118,178.008 10,161.882 10,142L310,142C310,161.882 293.882,178.008 274,178.008Z" style="fill:rgb(247,148,56);"/>
                    </g>
                </g>
            </g>
            <g id="g-root-cp_2_shape-2_1qdutmoflilfx-fill" transform="matrix(1,0,0,1,404.378,67.8164)">
                <g id="cp_2_shape-2_1qdutmoflilfx-fill">
                    <g>
                        <path d="M51.622,328.184L219.622,328.184C239.504,328.184 255.622,312.081 255.622,292.199L255.622,292.184L15.622,292.184C15.622,312.066 31.74,328.184 51.622,328.184ZM11.022,28.375L15.622,28.375L15.622,160.184L255.622,160.184C255.622,140.302 239.505,124.505 219.623,124.505L93.622,124.505C52.552,124.505 27.622,94.374 27.622,55.034L27.622,28.374L32.302,28.374C33.082,28.374 33.572,27.524 33.182,26.844L22.459,10.632C22.063,10.033 21.184,10.034 20.79,10.635L10.142,26.844C9.742,27.525 10.232,28.375 11.022,28.375ZM15.622,160.184L15.622,292.184L255.622,292.184L255.622,160.184L15.622,160.184Z" style="fill:rgb(67,221,147);"/>
                    </g>
                </g>
            </g>
            <g id="g-root-cp_4_shape-4_959qbkflilfz-fill" transform="matrix(1,0,0,1,374.383,68)">
                <g id="cp_4_shape-4_959qbkflilfz-fill">
                    <g>
                        <path d="M15.623,292L27.623,292L27.623,160L15.623,160L15.623,292ZM11.022,28.191L15.622,28.191L15.622,160L27.622,160L27.622,28.191L32.302,28.191C33.082,28.191 33.572,27.341 33.182,26.661L22.459,10.448C22.063,9.849 21.184,9.851 20.79,10.451L10.142,26.661C9.742,27.341 10.232,28.191 11.022,28.191Z" style="fill:rgb(255,231,17);"/>
                    </g>
                </g>
            </g>
            <g id="g-root-cp_6_shape-6_zjg3uofljz0p-fill" transform="matrix(1,0,0,1,344.383,68)">
                <g id="cp_6_shape-6_zjg3uofljz0p-fill">
                    <g>
                        <path d="M15.623,292L27.623,292L27.623,160L15.623,160L15.623,292ZM11.022,28.191L15.622,28.191L15.622,160L27.622,160L27.622,28.191L32.302,28.191C33.082,28.191 33.572,27.341 33.182,26.661L22.459,10.448C22.063,9.849 21.184,9.851 20.79,10.451L10.142,26.661C9.742,27.341 10.232,28.191 11.022,28.191Z" style="fill:rgb(251,103,98);"/>
                    </g>
                </g>
            </g>
            <g id="g-root-cp_4_shape-4_1_4hc22ofljzsz-fill" transform="matrix(1,0,0,1,380,350)">
                <g id="cp_4_shape-4_1_4hc22ofljzsz-fill">
                    <g>
                        <path d="M76,64.321C46,64.321 22,46 22,10L10,10L10,100.306L280,100.306C280,80.423 263.882,64.321 244,64.321L76,64.321Z" style="fill:rgb(255,231,17);"/>
                    </g>
                </g>
            </g>
            <g id="g-root-cp_4_shape-4_2_qpoiv4fljytp-fill" transform="matrix(1,0,0,1,380,440)">
                <g id="cp_4_shape-4_2_qpoiv4fljytp-fill">
                    <g>
                        <path d="M10,10L10,142L280,142L280,10L10,10ZM46,178L244,178C263.882,178 280,161.898 280,142.016L280,142L10,142C10,161.882 26.118,178 46,178Z" style="fill:rgb(255,231,17);"/>
                    </g>
                </g>
            </g>
            <g id="g-root-cp_6_shape-6_1_1uooj28fljzev-fill" transform="matrix(1,0,0,1,350,350)">
                <g id="cp_6_shape-6_1_1uooj28fljzev-fill">
                    <g>
                        <rect x="10" y="10" width="12" height="222" style="fill:rgb(251,103,98);"/>
                    </g>
                </g>
            </g>
            <g id="g-root-cp_6_shape-6_2_qrjy4gfljxu1-fill" transform="matrix(1,0,0,1,350,572)">
                <g id="cp_6_shape-6_2_qrjy4gfljxu1-fill">
                    <g>
                        <path d="M76,64.321C46,64.321 22,46 22,10L10,10L10,100.306L310,100.306C310,80.423 293.882,64.321 274,64.321L76,64.321Z" style="fill:rgb(251,103,98);"/>
                    </g>
                </g>
            </g>
            <g id="g-root-cp_6_shape-6_3_1luwy2ofljz7v-fill" transform="matrix(1,0,0,1,350,662)">
                <g id="cp_6_shape-6_3_1luwy2ofljz7v-fill">
                    <g>
                        <path d="M10,10L10,142L310,142L310,10L10,10ZM46,178L274,178C293.882,178 310,161.898 310,142.016L310,142L10,142C10,161.882 26.118,178 46,178Z" style="fill:rgb(251,103,98);"/>
                    </g>
                </g>
            </g>
            <g id="g-root-tx_telecoms_zrk9z4fljzly-fill" transform="matrix(1,0,0,1,68,266)">
                <g id="tx_telecoms_zrk9z4fljzly-fill">
                    <g>
                        <g>
                            <g transform="matrix(1,0,0,1,16.69,34)">
                                <text x="0px" y="0px" style="font-family:'Arial-BoldMT', 'Arial', sans-serif;font-weight:700;font-size:20px;fill:rgb(44,44,44);">T<tspan x="10.732px 21.855px " y="0px 0px ">el</tspan>ecom Service</text>
                            </g>
                            <g transform="matrix(1,0,0,1,48.46,58)">
                                <text x="0px" y="0px" style="font-family:'Arial-BoldMT', 'Arial', sans-serif;font-weight:700;font-size:20px;fill:rgb(44,44,44);">Providers</text>
                            </g>
                        </g>
                    </g>
                </g>
            </g>
            <g id="g-root-tx_healthca_7ratcflmsxy-fill" transform="matrix(1,0,0,1,80,794)">
                <g id="tx_healthca_7ratcflmsxy-fill">
                    <g>
                        <g>
                            <g transform="matrix(1,0,0,1,12.6,31.2)">
                                <text x="0px" y="0px" style="font-family:'ArialMT', 'Arial', sans-serif;font-size:15px;fill:rgb(44,44,44);">Healthcare networks improve</text>
                            </g>
                            <g transform="matrix(1,0,0,1,22.67,49.2)">
                                <text x="0px" y="0px" style="font-family:'ArialMT', 'Arial', sans-serif;font-size:15px;fill:rgb(44,44,44);">communication with voice</text>
                            </g>
                            <g transform="matrix(1,0,0,1,77.5,67.2)">
                                <text x="0px" y="0px" style="font-family:'ArialMT', 'Arial', sans-serif;font-size:15px;fill:rgb(44,44,44);">solutions.</text>
                            </g>
                        </g>
                    </g>
                </g>
            </g>
            <g transform="matrix(1,0,0,1,425.57,522)">
                <g id="g-root-tx_governme_144vvr4flpm2v-fill">
                    <g id="tx_governme_144vvr4flpm2v-fill">
                        <g>
                            <g>
                                <text x="0px" y="0px" style="font-family:'Arial-BoldMT', 'Arial', sans-serif;font-weight:700;font-size:20px;fill:rgb(44,44,44);">Government <tspan x="122.617px 137.061px " y="0px 0px ">Ag</tspan>encies</text>
                            </g>
                        </g>
                    </g>
                </g>
            </g>
            <g id="g-root-tx_educatio_mg3rlsfllekp-fill" transform="matrix(1,0,0,1,107,512)">
                <g id="tx_educatio_mg3rlsfllekp-fill">
                    <g>
                        <g>
                            <g transform="matrix(1,0,0,1,14.91,34)">
                                <text x="0px" y="0px" style="font-family:'Arial-BoldMT', 'Arial', sans-serif;font-weight:700;font-size:20px;fill:rgb(44,44,44);">Educational</text>
                            </g>
                            <g transform="matrix(1,0,0,1,16.42,58)">
                                <text x="0px" y="0px" style="font-family:'Arial-BoldMT', 'Arial', sans-serif;font-weight:700;font-size:20px;fill:rgb(44,44,44);">Institutions</text>
                            </g>
                        </g>
                    </g>
                </g>
            </g>
            <g id="g-root-tx_governme_7ratcflpki0-fill" transform="matrix(1,0,0,1,413,524)">
                <g id="tx_governme_7ratcflpki0-fill">
                    <g>
                        <g>
                            <g transform="matrix(1,0,0,1,13.6,31.2)">
                                <text x="0px" y="0px" style="font-family:'ArialMT', 'Arial', sans-serif;font-size:15px;fill:rgb(44,44,44);">Government agencies rely on</text>
                            </g>
                            <g transform="matrix(1,0,0,1,48.75,49.2)">
                                <text x="0px" y="0px" style="font-family:'ArialMT', 'Arial', sans-serif;font-size:15px;fill:rgb(44,44,44);">voice solutions for</text>
                            </g>
                            <g transform="matrix(1,0,0,1,56.02,67.2)">
                                <text x="0px" y="0px" style="font-family:'ArialMT', 'Arial', sans-serif;font-size:15px;fill:rgb(44,44,44);">communication.</text>
                            </g>
                        </g>
                    </g>
                </g>
            </g>
            <g id="g-root-tx_educatio_1ha3n9cflmrd6-fill" transform="matrix(1,0,0,1,71,572)">
                <g id="tx_educatio_1ha3n9cflmrd6-fill">
                    <g>
                        <g>
                            <g transform="matrix(1,0,0,1,12.01,31.2)">
                                <text x="0px" y="0px" style="font-family:'ArialMT', 'Arial', sans-serif;font-size:15px;fill:rgb(44,44,44);">Educational institutions use</text>
                            </g>
                            <g transform="matrix(1,0,0,1,42.74,49.2)">
                                <text x="0px" y="0px" style="font-family:'ArialMT', 'Arial', sans-serif;font-size:15px;fill:rgb(44,44,44);">voice solutions for</text>
                            </g>
                            <g transform="matrix(1,0,0,1,58.39,67.2)">
                                <text x="0px" y="0px" style="font-family:'ArialMT', 'Arial', sans-serif;font-size:15px;fill:rgb(44,44,44);">broadcasting.</text>
                            </g>
                        </g>
                    </g>
                </g>
            </g>
            <g id="g-root-tx_bpocente_4pg874flo5c4-fill" transform="matrix(1,0,0,1,440,302)">
                <g id="tx_bpocente_4pg874flo5c4-fill">
                    <g>
                        <g>
                            <g transform="matrix(1,0,0,1,28.19,31.2)">
                                <text x="0px" y="0px" style="font-family:'ArialMT', 'Arial', sans-serif;font-size:15px;fill:rgb(44,44,44);">BPO centers enhance</text>
                            </g>
                            <g transform="matrix(1,0,0,1,12.26,49.2)">
                                <text x="0px" y="0px" style="font-family:'ArialMT', 'Arial', sans-serif;font-size:15px;fill:rgb(44,44,44);">communication with voice</text>
                            </g>
                            <g transform="matrix(1,0,0,1,53.99,67.2)">
                                <text x="0px" y="0px" style="font-family:'ArialMT', 'Arial', sans-serif;font-size:15px;fill:rgb(44,44,44);">broadcasting.</text>
                            </g>
                        </g>
                    </g>
                </g>
            </g>
            <g transform="matrix(1,0,0,1,428.18,744)">
                <g id="g-root-tx_financia_18itym8flr0g3-fill">
                    <g id="tx_financia_18itym8flr0g3-fill">
                        <g>
                            <g>
                                <text x="0px" y="0px" style="font-family:'Arial-BoldMT', 'Arial', sans-serif;font-weight:700;font-size:20px;fill:rgb(44,44,44);">Financial Services</text>
                            </g>
                        </g>
                    </g>
                </g>
            </g>
            <g transform="matrix(1,0,0,1,97.59,792)">
                <g id="g-root-tx_healthca_18lbuyoflmqkt-fill">
                    <g id="tx_healthca_18lbuyoflmqkt-fill">
                        <g>
                            <g>
                                <text x="0px" y="0px" style="font-family:'Arial-BoldMT', 'Arial', sans-serif;font-weight:700;font-size:20px;fill:rgb(44,44,44);">Healthcare Networks</text>
                            </g>
                        </g>
                    </g>
                </g>
            </g>
            <g id="g-root-tx_financia_91ivswflqy30-fill" transform="matrix(1,0,0,1,398,746)">
                <g id="tx_financia_91ivswflqy30-fill">
                    <g>
                        <g>
                            <g transform="matrix(1,0,0,1,17.32,31.2)">
                                <text x="0px" y="0px" style="font-family:'ArialMT', 'Arial', sans-serif;font-size:15px;fill:rgb(44,44,44);">Financial services use voice</text>
                            </g>
                            <g transform="matrix(1,0,0,1,43.96,49.2)">
                                <text x="0px" y="0px" style="font-family:'ArialMT', 'Arial', sans-serif;font-size:15px;fill:rgb(44,44,44);">solutions for secure</text>
                            </g>
                            <g transform="matrix(1,0,0,1,56.01,67.2)">
                                <text x="0px" y="0px" style="font-family:'ArialMT', 'Arial', sans-serif;font-size:15px;fill:rgb(44,44,44);">communication.</text>
                            </g>
                        </g>
                    </g>
                </g>
            </g>
            <g transform="matrix(1,0,0,1,453.94,300)">
                <g id="g-root-tx_bpocallc_vbqruoflo5c3-fill">
                    <g id="tx_bpocallc_vbqruoflo5c3-fill">
                        <g>
                            <g>
                                <text x="0px" y="0px" style="font-family:'Arial-BoldMT', 'Arial', sans-serif;font-weight:700;font-size:20px;fill:rgb(44,44,44);">BPO &amp; Call Centers</text>
                            </g>
                        </g>
                    </g>
                </g>
            </g>
            <g id="g-root-tx_telecomp_4hc22oflld73-fill" transform="matrix(1,0,0,1,62,326)">
                <g id="tx_telecomp_4hc22oflld73-fill">
                    <g>
                        <g>
                            <g transform="matrix(1,0,0,1,12.86,31.2)">
                                <g transform="matrix(15,0,0,15,159.25,0)">
                                </g>
                                <g transform="matrix(15,0,0,15,163.418,0)">
                                </g>
                                <text x="0px" y="0px" style="font-family:'ArialMT', 'Arial', sans-serif;font-size:15px;fill:rgb(44,44,44);">T<tspan x="7.5px 15.842px " y="0px 0px ">el</tspan>ecom providers beneﬁt</text>
                            </g>
                            <g transform="matrix(1,0,0,1,34.13,49.2)">
                                <text x="0px" y="0px" style="font-family:'ArialMT', 'Arial', sans-serif;font-size:15px;fill:rgb(44,44,44);">from scalable voice</text>
                            </g>
                            <g transform="matrix(1,0,0,1,66.49,67.2)">
                                <text x="0px" y="0px" style="font-family:'ArialMT', 'Arial', sans-serif;font-size:15px;fill:rgb(44,44,44);">solutions.</text>
                            </g>
                        </g>
                    </g>
                </g>
            </g>
            <g id="g-root-cp_5_shape-5_1hiuagwflh5ol-stroke" transform="matrix(1,0,0,1,314.303,68)">
                <g id="cp_5_shape-5_1hiuagwflh5ol-stroke">
                    <g>
                        <path d="M15.697,160L15.697,316M27.697,316L27.697,160M15.697,160L15.697,28.191L11.017,28.191C10.237,28.191 9.747,27.341 10.137,26.661L20.86,10.448C21.256,9.849 22.136,9.851 22.53,10.451L33.177,26.661C33.577,27.341 33.087,28.191 32.297,28.191L27.697,28.191L27.697,160" style="fill:none;stroke:rgb(44,44,44);stroke-width:2px;"/>
                    </g>
                </g>
            </g>
            <g id="g-root-cp_1_shape-1_1cuwm80flij9r-stroke" transform="matrix(1,0,0,1,32,67.8164)">
                <g id="cp_1_shape-1_1cuwm80flij9r-stroke">
                    <g>
                        <path d="M10,160.184C10,140.301 26.118,124.321 46,124.321L172,124.321C213.07,124.321 238,94.191 238,54.851L238,28.191L233.32,28.191C232.54,28.191 232.05,27.341 232.44,26.661L243.163,10.448C243.559,9.849 244.439,9.851 244.833,10.451L255.48,26.661C255.88,27.341 255.39,28.191 254.6,28.191L250,28.191L250,160.184M250,316.184C250,336.066 233.882,352.191 214,352.191L46,352.191C26.118,352.191 10,336.081 10,316.199L10,316.184M250,316.184L250,160.184M10,160.184L10,316.184" style="fill:none;stroke:rgb(44,44,44);stroke-width:2px;"/>
                    </g>
                </g>
            </g>
            <g id="g-root-cp_3_shape-3_1q7m2rkflijux-stroke" transform="matrix(1,0,0,1,284.303,68)">
                <g id="cp_3_shape-3_1q7m2rkflijux-stroke">
                    <g>
                        <path d="M15.697,160L15.697,316M27.697,316L27.697,160M15.697,160L15.697,28.191L11.017,28.191C10.237,28.191 9.747,27.341 10.137,26.661L20.86,10.448C21.256,9.849 22.136,9.851 22.53,10.451L33.177,26.661C33.577,27.341 33.087,28.191 32.297,28.191L27.697,28.191L27.697,160" style="fill:none;stroke:rgb(44,44,44);stroke-width:2px;"/>
                    </g>
                </g>
            </g>
            <g id="g-root-cp_3_shape-3_1_hunzpcflij2b-stroke" transform="matrix(1,0,0,1,32,374)">
                <g id="cp_3_shape-3_1_hunzpcflij2b-stroke">
                    <g>
                        <path d="M268,10C268,46 244,64.321 214,64.321L46,64.321C26.118,64.321 10,80.423 10,100.306M280,100.306L280,10" style="fill:none;stroke:rgb(44,44,44);stroke-width:2px;"/>
                    </g>
                </g>
            </g>
            <g id="g-root-cp_5_shape-5_1_142dzeoflil8t-stroke" transform="matrix(1,0,0,1,320,374)">
                <g id="cp_5_shape-5_1_142dzeoflil8t-stroke">
                    <g>
                        <path d="M10,10L10,256M22,256L22,10" style="fill:none;stroke:rgb(44,44,44);stroke-width:2px;"/>
                    </g>
                </g>
            </g>
            <g id="g-root-cp_3_shape-3_2_1uqjybkflik93-stroke" transform="matrix(1,0,0,1,32,464)">
                <g id="cp_3_shape-3_2_1uqjybkflik93-stroke">
                    <g>
                        <path d="M280,165.975L280,10M10,10L10,166M280,166.008C280,185.89 263.882,202.008 244,202.008L46,202.008C26.118,202.008 10,185.905 10,166.023L10,166.008" style="fill:none;stroke:rgb(44,44,44);stroke-width:2px;"/>
                    </g>
                </g>
            </g>
            <g id="g-root-cp_5_shape-5_2_dhyv0gflik95-stroke" transform="matrix(1,0,0,1,32,620)">
                <g id="cp_5_shape-5_2_dhyv0gflik95-stroke">
                    <g>
                        <path d="M298,10C298,45.878 274,64.137 244,64.137L46,64.137C26.118,64.137 10,80.185 10,100M310,100L310,10" style="fill:none;stroke:rgb(44,44,44);stroke-width:2px;"/>
                    </g>
                </g>
            </g>
            <g id="g-root-cp_5_shape-5_3_1464txcflij9f-stroke" transform="matrix(1,0,0,1,32,710)">
                <g id="cp_5_shape-5_3_1464txcflij9f-stroke">
                    <g>
                        <path d="M310,142L310,10M10,10L10,142M310,142C310,161.882 293.882,178.008 274,178.008L46,178.008C26.118,178.008 10,161.882 10,142" style="fill:none;stroke:rgb(44,44,44);stroke-width:2px;"/>
                    </g>
                </g>
            </g>
            <g id="g-root-cp_2_shape-2_1qdutmoflilfx-stroke" transform="matrix(1,0,0,1,404.378,67.8164)">
                <g id="cp_2_shape-2_1qdutmoflilfx-stroke">
                    <g>
                        <path d="M255.622,160.184C255.622,140.301 239.505,124.321 219.623,124.321L93.622,124.321C52.552,124.321 27.622,94.191 27.622,54.851L27.622,28.191L32.302,28.191C33.082,28.191 33.572,27.341 33.182,26.661L22.459,10.448C22.063,9.849 21.184,9.851 20.79,10.451L10.142,26.661C9.742,27.341 10.232,28.191 11.022,28.191L15.622,28.191L15.622,160.184M15.622,292.184C15.622,312.066 31.74,328.184 51.622,328.184L219.623,328.183C239.505,328.183 255.622,312.081 255.622,292.199L255.622,292.184M15.622,292.184L15.622,160.184M255.622,160.184L255.622,292.184" style="fill:none;stroke:rgb(44,44,44);stroke-width:2px;"/>
                    </g>
                </g>
            </g>
            <g id="g-root-cp_4_shape-4_959qbkflilfz-stroke" transform="matrix(1,0,0,1,374.383,68)">
                <g id="cp_4_shape-4_959qbkflilfz-stroke">
                    <g>
                        <path d="M27.622,160L27.622,292M15.622,292L15.622,160M27.622,160L27.622,28.191L32.302,28.191C33.082,28.191 33.572,27.341 33.182,26.661L22.459,10.448C22.063,9.849 21.184,9.851 20.79,10.451L10.142,26.661C9.742,27.341 10.232,28.191 11.022,28.191L15.622,28.191L15.622,160" style="fill:none;stroke:rgb(44,44,44);stroke-width:2px;"/>
                    </g>
                </g>
            </g>
            <g id="g-root-cp_6_shape-6_zjg3uofljz0p-stroke" transform="matrix(1,0,0,1,344.383,68)">
                <g id="cp_6_shape-6_zjg3uofljz0p-stroke">
                    <g>
                        <path d="M27.622,160L27.622,292M15.622,292L15.622,160M27.622,160L27.622,28.191L32.302,28.191C33.082,28.191 33.572,27.341 33.182,26.661L22.459,10.448C22.063,9.849 21.184,9.851 20.79,10.451L10.142,26.661C9.742,27.341 10.232,28.191 11.022,28.191L15.622,28.191L15.622,160" style="fill:none;stroke:rgb(44,44,44);stroke-width:2px;"/>
                    </g>
                </g>
            </g>
            <g id="g-root-cp_4_shape-4_1_4hc22ofljzsz-stroke" transform="matrix(1,0,0,1,380,350)">
                <g id="cp_4_shape-4_1_4hc22ofljzsz-stroke">
                    <g>
                        <path d="M22,10C22,46 46,64.321 76,64.321L244,64.321C263.882,64.321 280,80.423 280,100.306M10,100.306L10,10" style="fill:none;stroke:rgb(44,44,44);stroke-width:2px;"/>
                    </g>
                </g>
            </g>
            <g id="g-root-cp_4_shape-4_2_qpoiv4fljytp-stroke" transform="matrix(1,0,0,1,380,440)">
                <g id="cp_4_shape-4_2_qpoiv4fljytp-stroke">
                    <g>
                        <path d="M10,142L10,10M280,10L280,142M10,142C10,161.882 26.118,178.008 46,178.008L244,178.008C263.882,178.008 280,161.898 280,142.016L280,142" style="fill:none;stroke:rgb(44,44,44);stroke-width:2px;"/>
                    </g>
                </g>
            </g>
            <g id="g-root-cp_6_shape-6_1_1uooj28fljzev-stroke" transform="matrix(1,0,0,1,350,350)">
                <g id="cp_6_shape-6_1_1uooj28fljzev-stroke">
                    <g>
                        <path d="M22,10L22,232M10,232L10,10" style="fill:none;stroke:rgb(44,44,44);stroke-width:2px;"/>
                    </g>
                </g>
            </g>
            <g id="g-root-cp_6_shape-6_2_qrjy4gfljxu1-stroke" transform="matrix(1,0,0,1,350,572)">
                <g id="cp_6_shape-6_2_qrjy4gfljxu1-stroke">
                    <g>
                        <path d="M22,10C22,46 46,64.321 76,64.321L274,64.321C293.882,64.321 310,80.423 310,100.306M10,100.306L10,10" style="fill:none;stroke:rgb(44,44,44);stroke-width:2px;"/>
                    </g>
                </g>
            </g>
            <g id="g-root-cp_6_shape-6_3_1luwy2ofljz7v-stroke" transform="matrix(1,0,0,1,350,662)">
                <g id="cp_6_shape-6_3_1luwy2ofljz7v-stroke">
                    <g>
                        <path d="M10,142L10,10M310,10L310,142M10,142C10,161.882 26.118,178.008 46,178.008L274,178.008C293.882,178.008 310,161.898 310,142.016L310,142" style="fill:none;stroke:rgb(44,44,44);stroke-width:2px;"/>
                    </g>
                </g>
            </g>
            <g id="g-root-ic_2_qvx9q8flpji9-stroke" transform="matrix(1,0,0,1,491,428)">
                <g id="ic_2_qvx9q8flpji9-stroke">
                    <g>
                        <path d="M11.603,56.424L11.603,11.576M11.603,44.68L16.945,43.037C19.159,42.356 21.492,42.154 23.789,42.446C25.861,42.71 27.86,43.369 29.68,44.387M49.716,31.333L49.716,16.466C49.716,16.171 49.647,15.88 49.516,15.617C49.384,15.353 49.193,15.123 48.958,14.945C48.722,14.768 48.449,14.647 48.159,14.593C47.869,14.539 47.571,14.553 47.287,14.633L43.274,15.78C41.1,16.401 38.821,16.562 36.582,16.255C34.343,15.947 32.192,15.176 30.266,13.991C28.294,12.778 26.086,11.999 23.789,11.707C21.492,11.415 19.159,11.616 16.945,12.297L11.603,13.939M36.407,45.304L36.407,56.424L54.267,56.424L54.267,45.304M34.276,45.304L56.397,45.304M34.276,56.424L56.397,56.424M54.266,45.304C54.266,40.372 50.268,36.374 45.336,36.374C40.405,36.374 36.406,40.372 36.406,45.304M42.32,56.424L42.32,45.304M48.353,56.424L48.353,45.304M24.084,42.351L24.084,12.47M37.234,32.704L37.234,17.265" style="fill:none;stroke:rgb(44,44,44);stroke-width:2px;"/>
                    </g>
                </g>
            </g>
            <g id="g-root-ic_pick_qn6mioflpm31-stroke" transform="matrix(1,0,0,1,506,206)">
                <g id="ic_pick_qn6mioflpm31-stroke">
                    <g>
                        <path d="M47.164,39.562C49.216,39.734 50.793,41.453 50.788,43.512C50.783,45.572 49.197,47.282 47.144,47.444M54.378,56.744C52.974,54.025 50.234,52.254 47.178,52.092M27.802,41.8C27.801,45.497 30.799,48.495 34.496,48.495C38.193,48.495 41.191,45.497 41.19,41.8C41.191,38.103 38.193,35.105 34.496,35.105C30.799,35.105 27.801,38.103 27.802,41.8M24.234,57C25.782,52.745 29.795,49.887 34.322,49.815C38.85,49.743 42.952,52.472 44.634,56.676M20.836,39.562C18.784,39.734 17.207,41.453 17.212,43.512C17.217,45.572 18.803,47.282 20.856,47.444M13.622,56.744C15.026,54.025 17.766,52.254 20.822,52.092M30.232,20.156C30.232,22.477 32.113,24.358 34.434,24.358C36.755,24.358 38.636,22.477 38.636,20.156C38.636,17.835 36.755,15.954 34.434,15.954C32.113,15.954 30.232,17.835 30.232,20.156M30.482,21.588L23.872,27.67L27.124,32.39M38.386,21.588L44.998,27.67L41.744,32.39M34.434,15.954L34.434,11" style="fill:none;stroke:rgb(44,44,44);stroke-width:2px;"/>
                    </g>
                </g>
            </g>
            <g id="g-root-ic_stud_dccl8gflmsy3-stroke" transform="matrix(1,0,0,1,143,452)">
                <g id="ic_stud_dccl8gflmsy3-stroke">
                    <g>
                        <path d="M32.6,25.6C30.17,25.6 28.2,23.63 28.2,21.2C28.2,18.77 30.17,16.8 32.6,16.8C35.03,16.8 37,18.77 37,21.2C37,23.63 35.03,25.6 32.6,25.6ZM25.8,34.6C25.8,30.8 28.8,27.8 32.6,27.8C36.4,27.8 39.4,30.8 39.4,34.6M46.5,42.9C46.5,42.9 45.5,40.1 37.9,39.7C37.1,39.7 36.5,40.1 36.5,40.7L36.5,52.3C36.5,52.9 37.1,53.3 37.7,53.3C45.5,53.5 46.5,56.5 46.5,56.5L46.5,42.9ZM46.5,42.9C46.5,42.9 47.5,40.1 55.1,39.7C55.9,39.7 56.5,40.1 56.5,40.7L56.5,52.3C56.5,52.9 55.9,53.3 55.3,53.3C47.5,53.5 46.5,56.5 46.5,56.5M52.7,34.3L52.7,14.3C52.7,12.7 51.5,11.5 49.9,11.5L14.3,11.5C12.7,11.5 11.5,12.7 11.5,14.3L11.5,41.7C11.5,43.3 12.7,44.5 14.3,44.5L29.9,44.5M27.3,44.5L25.9,52.5M29.4,52.5L23.9,52.5" style="fill:none;stroke:rgb(44,44,44);stroke-width:2px;"/>
                    </g>
                </g>
            </g>
            <g id="g-root-ic_4_3dz7kfllczk-stroke" transform="matrix(1,0,0,1,128,206)">
                <g id="ic_4_3dz7kfllczk-stroke">
                    <g>
                        <path d="M44,57L35.2,28.742C34.436,29.08 33.564,29.08 32.8,28.742L24,57M30.992,25.996C30.992,27.653 32.335,28.996 33.992,28.996C35.649,28.996 36.992,27.653 36.992,25.996C36.992,24.339 35.649,22.996 33.992,22.996C32.335,22.996 30.992,24.339 30.992,25.996ZM45.184,16.8C50.26,21.877 50.26,30.107 45.184,35.184M49.428,12.56C56.848,19.98 56.848,32.01 49.428,39.43M22.8,16.8C17.724,21.877 17.724,30.107 22.8,35.184M18.556,12.56C11.136,19.98 11.136,32.01 18.556,39.43M28.364,42.996L39.636,42.996M25.87,50.996L42.13,50.996" style="fill:none;stroke:rgb(44,44,44);stroke-width:2px;"/>
                    </g>
                </g>
            </g>
            <g id="g-root-ic_cash_1d0iw00flqyo5-stroke" transform="matrix(1,0,0,1,476,650)">
                <g id="ic_cash_1d0iw00flqyo5-stroke">
                    <g>
                        <path d="M26.008,56.906L57.008,56.906M31.008,52.906L31.008,42.906M37.008,52.906L37.008,42.906M47.008,52.906L47.008,42.906M53.008,52.906L53.008,42.906M29.008,42.906L39.008,42.906M45.008,42.906L55.008,42.906M11.008,18.906L31.008,18.906L31.008,32.906L11.008,32.906L11.008,18.906ZM14.4,18.906L15.916,11.882C16.034,11.342 16.566,11 17.106,11.118L34.578,14.918C35.117,15.036 35.458,15.567 35.342,16.106L33.13,26.288C33.012,26.827 32.481,27.168 31.942,27.052L31.008,26.852M18.008,25.906C18.008,27.563 19.351,28.906 21.008,28.906C22.665,28.906 24.008,27.563 24.008,25.906C24.008,24.249 22.665,22.906 21.008,22.906C19.351,22.906 18.008,24.249 18.008,25.906ZM36,29.906L41.446,26.276C41.782,26.053 42.218,26.053 42.554,26.276L56.554,35.608C56.832,35.793 57,36.106 57,36.44L57,37.906C57,38.458 56.552,38.906 56,38.906L28,38.906C27.448,38.906 27,38.458 27,37.906" style="fill:none;stroke:rgb(44,44,44);stroke-width:2px;"/>
                    </g>
                </g>
            </g>
            <g id="g-root-ic_1_vbqruoflmr5z-stroke" transform="matrix(1,0,0,1,158,698)">
                <g id="ic_1_vbqruoflmr5z-stroke">
                    <g>
                        <path d="M15.905,47.04L11.89,52.791C11.709,53.144 11.624,53.538 11.644,53.934C11.664,54.33 11.788,54.714 12.003,55.047C12.206,55.372 12.489,55.64 12.824,55.825C13.16,56.011 13.537,56.108 13.92,56.107L38.19,56.107C38.573,56.108 38.95,56.011 39.286,55.825C39.621,55.64 39.904,55.372 40.107,55.047C40.305,54.704 40.409,54.315 40.409,53.919C40.409,53.523 40.305,53.134 40.107,52.791L36.205,47.04M36.205,39.087L36.205,47.04L15.905,47.04L15.905,35.762C15.905,35.164 16.142,34.59 16.565,34.167C16.988,33.744 17.562,33.506 18.16,33.506L23.918,33.506M39.077,33.546L28.236,36.644L29.785,27.351L29.785,14.961C29.785,14.14 30.111,13.352 30.692,12.771C31.273,12.19 32.061,11.864 32.882,11.864L53.016,11.864C53.838,11.864 54.626,12.19 55.207,12.771C55.787,13.352 56.114,14.14 56.114,14.961L56.114,30.449C56.114,31.27 55.787,32.058 55.207,32.639C54.626,33.22 53.838,33.546 53.016,33.546L39.077,33.546ZM45.717,15.66L40.667,15.66L40.667,19.948L36.378,19.948L36.378,24.998L40.667,24.998L40.667,29.286L45.717,29.286L45.717,24.998L50.005,24.998L50.005,19.948L45.717,19.948L45.717,15.66Z" style="fill:none;stroke:rgb(44,44,44);stroke-width:2px;"/>
                    </g>
                </g>
            </g>
        </g>
    </g>
</svg>
