<?xml version="1.0" encoding="UTF-8" standalone="no"?>
<!DOCTYPE svg PUBLIC "-//W3C//DTD SVG 1.1//EN" "http://www.w3.org/Graphics/SVG/1.1/DTD/svg11.dtd">
<svg width="100%" height="100%" viewBox="0 0 702 906" version="1.1" xmlns="http://www.w3.org/2000/svg" xmlns:xlink="http://www.w3.org/1999/xlink" xml:space="preserve" xmlns:serif="http://www.serif.com/" style="fill-rule:evenodd;clip-rule:evenodd;stroke-linecap:round;stroke-linejoin:round;">
    <g id="items" transform="matrix(1.08895,0,0,1.08895,-31.2227,-40.8219)">
        <g id="blend">
            <g id="g-root-cp_5_shape-5_1cymkl81q5mo1-fill" transform="matrix(1,0,0,1,314.303,56)">
                <g id="cp_5_shape-5_1cymkl81q5mo1-fill">
                    <g>
                        <path d="M27.697,316L15.697,316L15.697,160L27.697,160L27.697,316ZM32.297,28.191L27.697,28.191L27.697,160L15.697,160L15.697,28.191L11.017,28.191C10.237,28.191 9.747,27.341 10.137,26.661L20.86,10.448C21.256,9.849 22.136,9.851 22.53,10.451L33.177,26.661C33.577,27.341 33.087,28.191 32.297,28.191Z" style="fill:rgb(247,148,56);"/>
                    </g>
                </g>
            </g>
            <g id="g-root-cp_1_shape-1_zn627w1q5o8z-fill" transform="matrix(1,0,0,1,32,55.8164)">
                <g id="cp_1_shape-1_zn627w1q5o8z-fill">
                    <g>
                        <path d="M214,352.184L46,352.183C26.118,352.183 10,336.081 10,316.199L10,316.184L250,316.184C250,336.066 233.882,352.184 214,352.184ZM254.6,28.375L250,28.375L250,160.184L10,160.184C10,140.302 26.118,124.505 46,124.505L172,124.505C213.07,124.505 238,94.374 238,55.034L238,28.374L233.32,28.374C232.54,28.374 232.05,27.524 232.44,26.844L243.163,10.632C243.559,10.033 244.439,10.034 244.833,10.635L255.48,26.844C255.88,27.525 255.39,28.375 254.6,28.375ZM250,160.184L250,316.184L10,316.184L10,160.184L250,160.184Z" style="fill:rgb(67,221,147);"/>
                    </g>
                </g>
            </g>
            <g id="g-root-cp_3_shape-3_dgp0os1q5ngt-fill" transform="matrix(1,0,0,1,284.303,56)">
                <g id="cp_3_shape-3_dgp0os1q5ngt-fill">
                    <g>
                        <path d="M27.697,316L15.697,316L15.697,160L27.697,160L27.697,316ZM32.297,28.191L27.697,28.191L27.697,160L15.697,160L15.697,28.191L11.017,28.191C10.237,28.191 9.747,27.341 10.137,26.661L20.86,10.448C21.256,9.849 22.136,9.851 22.53,10.451L33.177,26.661C33.577,27.341 33.087,28.191 32.297,28.191Z" style="fill:rgb(26,195,251);"/>
                    </g>
                </g>
            </g>
            <g id="g-root-cp_3_shape-3_1_58ibg1q5p1r-fill" transform="matrix(1,0,0,1,32,362)">
                <g id="cp_3_shape-3_1_58ibg1q5p1r-fill">
                    <g>
                        <path d="M214,64.321C244,64.321 268,46 268,10L280,10L280,100.306L10,100.306C10,80.423 26.118,64.321 46,64.321L214,64.321Z" style="fill:rgb(26,195,251);"/>
                    </g>
                </g>
            </g>
            <g id="g-root-cp_5_shape-5_1_1uqj2641q5pmx-fill" transform="matrix(1,0,0,1,320,362)">
                <g id="cp_5_shape-5_1_1uqj2641q5pmx-fill">
                    <g>
                        <rect x="10" y="10" width="12" height="198" style="fill:rgb(247,148,56);"/>
                    </g>
                </g>
            </g>
            <g id="g-root-cp_3_shape-3_2_1hfp0vw1q5o23-fill" transform="matrix(1,0,0,1,32,452)">
                <g id="cp_3_shape-3_2_1hfp0vw1q5o23-fill">
                    <g>
                        <path d="M280,10L280,117.982L10,117.982L10,10L280,10ZM244,154.008L46,154.008C26.118,154.008 10,137.906 10,118.023L10,118.008L280,118.008C280,137.89 263.882,154.008 244,154.008Z" style="fill:rgb(26,195,251);"/>
                    </g>
                </g>
            </g>
            <g id="g-root-cp_5_shape-5_2_zp1hh81q5n9h-fill" transform="matrix(1,0,0,1,32,560)">
                <g id="cp_5_shape-5_2_zp1hh81q5n9h-fill">
                    <g>
                        <path d="M244,64.137C274,64.137 298,45.878 298,10L310,10L310,100L10,100C10,80.185 26.118,64.137 46,64.137L244,64.137Z" style="fill:rgb(247,148,56);"/>
                    </g>
                </g>
            </g>
            <g id="g-root-cp_5_shape-5_3_mdkz3w1q5ouf-fill" transform="matrix(1,0,0,1,32,650)">
                <g id="cp_5_shape-5_3_mdkz3w1q5ouf-fill">
                    <g>
                        <path d="M310,10L310,118L10,118L10,10L310,10ZM274,154.008L46,154.008C26.118,154.008 10,137.882 10,118L310,118C310,137.882 293.882,154.008 274,154.008Z" style="fill:rgb(247,148,56);"/>
                    </g>
                </g>
            </g>
            <g id="g-root-cp_2_shape-2_4mxfp81q5o1t-fill" transform="matrix(1,0,0,1,404.378,55.8164)">
                <g id="cp_2_shape-2_4mxfp81q5o1t-fill">
                    <g>
                        <path d="M51.622,352.184L219.622,352.184C239.504,352.184 255.622,336.081 255.622,316.199L255.622,316.184L15.622,316.184C15.622,336.066 31.74,352.184 51.622,352.184ZM11.022,28.375L15.622,28.375L15.622,160.184L255.622,160.184C255.622,140.302 239.505,124.505 219.623,124.505L93.622,124.505C52.552,124.505 27.622,94.374 27.622,55.034L27.622,28.374L32.302,28.374C33.082,28.374 33.572,27.524 33.182,26.844L22.459,10.632C22.063,10.033 21.184,10.034 20.79,10.635L10.142,26.844C9.742,27.525 10.232,28.375 11.022,28.375ZM15.622,160.184L15.622,316.184L255.622,316.184L255.622,160.184L15.622,160.184Z" style="fill:rgb(166,218,55);"/>
                    </g>
                </g>
            </g>
            <g id="g-root-cp_4_shape-4_1qckzb01q5pfn-fill" transform="matrix(1,0,0,1,374.383,56)">
                <g id="cp_4_shape-4_1qckzb01q5pfn-fill">
                    <g>
                        <path d="M15.623,316L27.623,316L27.623,160L15.623,160L15.623,316ZM11.022,28.191L15.622,28.191L15.622,160L27.622,160L27.622,28.191L32.302,28.191C33.082,28.191 33.572,27.341 33.182,26.661L22.459,10.448C22.063,9.849 21.184,9.851 20.79,10.451L10.142,26.661C9.742,27.341 10.232,28.191 11.022,28.191Z" style="fill:rgb(135,105,253);"/>
                    </g>
                </g>
            </g>
            <g id="g-root-cp_6_shape-6_1d1qy0s1q5nut-fill" transform="matrix(1,0,0,1,344.383,56)">
                <g id="cp_6_shape-6_1d1qy0s1q5nut-fill">
                    <g>
                        <path d="M15.623,316L27.623,316L27.623,160L15.623,160L15.623,316ZM11.022,28.191L15.622,28.191L15.622,160L27.622,160L27.622,28.191L32.302,28.191C33.082,28.191 33.572,27.341 33.182,26.661L22.459,10.448C22.063,9.849 21.184,9.851 20.79,10.451L10.142,26.661C9.742,27.341 10.232,28.191 11.022,28.191Z" style="fill:rgb(255,231,17);"/>
                    </g>
                </g>
            </g>
            <g id="g-root-cp_4_shape-4_1_qv9who1q5n2n-fill" transform="matrix(1,0,0,1,380,362)">
                <g id="cp_4_shape-4_1_qv9who1q5n2n-fill">
                    <g>
                        <path d="M76,64.321C46,64.321 22,46 22,10L10,10L10,100.306L280,100.306C280,80.423 263.882,64.321 244,64.321L76,64.321Z" style="fill:rgb(135,105,253);"/>
                    </g>
                </g>
            </g>
            <g id="g-root-cp_4_shape-4_2_hzmw8s1q5on5-fill" transform="matrix(1,0,0,1,380,452)">
                <g id="cp_4_shape-4_2_hzmw8s1q5on5-fill">
                    <g>
                        <path d="M10,10L10,142L280,142L280,10L10,10ZM46,178L244,178C263.882,178 280,161.898 280,142.016L280,142L10,142C10,161.882 26.118,178 46,178Z" style="fill:rgb(135,105,253);"/>
                    </g>
                </g>
            </g>
            <g id="g-root-cp_6_shape-6_1_1uu9wos1q5nnv-fill" transform="matrix(1,0,0,1,350,362)">
                <g id="cp_6_shape-6_1_1uu9wos1q5nnv-fill">
                    <g>
                        <rect x="10" y="10" width="12" height="222" style="fill:rgb(255,231,17);"/>
                    </g>
                </g>
            </g>
            <g id="g-root-cp_6_shape-6_2_1qegekc1q5og5-fill" transform="matrix(1,0,0,1,350,584)">
                <g id="cp_6_shape-6_2_1qegekc1q5og5-fill">
                    <g>
                        <path d="M76,64.321C46,64.321 22,46 22,10L10,10L10,100.306L310,100.306C310,80.423 293.882,64.321 274,64.321L76,64.321Z" style="fill:rgb(255,231,17);"/>
                    </g>
                </g>
            </g>
            <g id="g-root-cp_6_shape-6_3_1d3mda41q5mvb-fill" transform="matrix(1,0,0,1,350,674)">
                <g id="cp_6_shape-6_3_1d3mda41q5mvb-fill">
                    <g>
                        <path d="M10,10L10,142L310,142L310,10L10,10ZM46,178L274,178C293.882,178 310,161.898 310,142.016L310,142L10,142C10,161.882 26.118,178 46,178Z" style="fill:rgb(255,231,17);"/>
                    </g>
                </g>
            </g>
            <g id="g-root-tx_skilledt_qoeojg1q72tn-fill" transform="matrix(1,0,0,1,68,314)">
                <g id="tx_skilledt_qoeojg1q72tn-fill">
                    <g>
                        <g>
                            <g transform="matrix(1,0,0,1,17.28,31.2)">
                                <text x="0px" y="0px" style="font-family:'ArialMT', 'Arial', sans-serif;font-size:15px;fill:rgb(44,44,44);">Skilled team delivering</text>
                            </g>
                            <g transform="matrix(1,0,0,1,33.39,49.2)">
                                <text x="0px" y="0px" style="font-family:'ArialMT', 'Arial', sans-serif;font-size:15px;fill:rgb(44,44,44);">top-tier OpenSIPS</text>
                            </g>
                            <g transform="matrix(1,0,0,1,59.49,67.2)">
                                <text x="0px" y="0px" style="font-family:'ArialMT', 'Arial', sans-serif;font-size:15px;fill:rgb(44,44,44);">solutions.</text>
                            </g>
                        </g>
                    </g>
                </g>
            </g>
            <g id="g-root-tx_adaptabl_924gqk1qcnpc-fill" transform="matrix(1,0,0,1,440,314)">
                <g id="tx_adaptabl_924gqk1qcnpc-fill">
                    <g>
                        <g>
                            <g transform="matrix(1,0,0,1,20.36,31.2)">
                                <text x="0px" y="0px" style="font-family:'ArialMT', 'Arial', sans-serif;font-size:15px;fill:rgb(44,44,44);">Adaptable solutions for</text>
                            </g>
                            <g transform="matrix(1,0,0,1,17.38,49.2)">
                                <text x="0px" y="0px" style="font-family:'ArialMT', 'Arial', sans-serif;font-size:15px;fill:rgb(44,44,44);">growing communication</text>
                            </g>
                            <g transform="matrix(1,0,0,1,75.96,67.2)">
                                <text x="0px" y="0px" style="font-family:'ArialMT', 'Arial', sans-serif;font-size:15px;fill:rgb(44,44,44);">needs.</text>
                            </g>
                        </g>
                    </g>
                </g>
            </g>
            <g id="g-root-tx_scalabil_1hf2jss1qcohz-fill" transform="matrix(1,0,0,1,470,254)">
                <g id="tx_scalabil_1hf2jss1qcohz-fill">
                    <g>
                        <g>
                            <g transform="matrix(1,0,0,1,11.75,34)">
                                <text x="0px" y="0px" style="font-family:'Arial-BoldMT', 'Arial', sans-serif;font-weight:700;font-size:20px;fill:rgb(44,44,44);">Scalability &amp;</text>
                            </g>
                            <g transform="matrix(1,0,0,1,24.23,58)">
                                <text x="0px" y="0px" style="font-family:'Arial-BoldMT', 'Arial', sans-serif;font-weight:700;font-size:20px;fill:rgb(44,44,44);">Flexibility</text>
                            </g>
                        </g>
                    </g>
                </g>
            </g>
            <g transform="matrix(1,0,0,1,75.29,534)">
                <g id="g-root-tx_advanced_vcccsc1q8gso-fill">
                    <g id="tx_advanced_vcccsc1q8gso-fill">
                        <g>
                            <g>
                                <text x="0px" y="0px" style="font-family:'Arial-BoldMT', 'Arial', sans-serif;font-weight:700;font-size:20px;fill:rgb(44,44,44);">Advanced Call Routing</text>
                            </g>
                        </g>
                    </g>
                </g>
            </g>
            <g id="g-root-tx_highavai_1cu9c581pszk9-fill" transform="matrix(1,0,0,1,425,500)">
                <g id="tx_highavai_1cu9c581pszk9-fill">
                    <g>
                        <g>
                            <g transform="matrix(1,0,0,1,15.49,34)">
                                <text x="0px" y="0px" style="font-family:'Arial-BoldMT', 'Arial', sans-serif;font-weight:700;font-size:20px;fill:rgb(44,44,44);">High <tspan x="49.248px 62.949px 74.072px " y="0px 0px 0px ">Ava</tspan>ilability &amp;</text>
                            </g>
                            <g transform="matrix(1,0,0,1,28.47,58)">
                                <text x="0px" y="0px" style="font-family:'Arial-BoldMT', 'Arial', sans-serif;font-weight:700;font-size:20px;fill:rgb(44,44,44);">Load Balancing</text>
                            </g>
                        </g>
                    </g>
                </g>
            </g>
            <g id="g-root-tx_efficien_1q5prcs1q9wqx-fill" transform="matrix(1,0,0,1,59,536)">
                <g id="tx_efficien_1q5prcs1q9wqx-fill">
                    <g>
                        <g>
                            <g transform="matrix(1,0,0,1,15.27,28.2)">
                                <g transform="matrix(15,0,0,15,10.0049,0)">
                                </g>
                                <g transform="matrix(15,0,0,15,14.0389,0)">
                                </g>
                                <g transform="matrix(15,0,0,15,18.073,0)">
                                </g>
                                <text x="0px" y="0px" style="font-family:'ArialMT', 'Arial', sans-serif;font-size:15px;fill:rgb(44,44,44);">Eﬃcient call management with</text>
                            </g>
                            <g transform="matrix(1,0,0,1,28.8,46.2)">
                                <text x="0px" y="0px" style="font-family:'ArialMT', 'Arial', sans-serif;font-size:15px;fill:rgb(44,44,44);">advanced routing features.</text>
                            </g>
                        </g>
                    </g>
                </g>
            </g>
            <g id="g-root-tx_affordab_1lu9nzw1pueq2-fill" transform="matrix(1,0,0,1,392,782)">
                <g id="tx_affordab_1lu9nzw1pueq2-fill">
                    <g>
                        <g>
                            <g transform="matrix(1,0,0,1,12.39,28.2)">
                                <g transform="matrix(15,0,0,15,10.0049,0)">
                                </g>
                                <g transform="matrix(15,0,0,15,14.0112,0)">
                                </g>
                                <text x="0px" y="0px" style="font-family:'ArialMT', 'Arial', sans-serif;font-size:15px;fill:rgb(44,44,44);">Aﬀordable solutions leveraging</text>
                            </g>
                            <g transform="matrix(1,0,0,1,28.09,46.2)">
                                <text x="0px" y="0px" style="font-family:'ArialMT', 'Arial', sans-serif;font-size:15px;fill:rgb(44,44,44);">open-source technologies.</text>
                            </g>
                        </g>
                    </g>
                </g>
            </g>
            <g id="g-root-tx_ensuresc_hs5ad81pt0ci-fill" transform="matrix(1,0,0,1,413,560)">
                <g id="tx_ensuresc_hs5ad81pt0ci-fill">
                    <g>
                        <g>
                            <g transform="matrix(1,0,0,1,20.55,28.2)">
                                <text x="0px" y="0px" style="font-family:'ArialMT', 'Arial', sans-serif;font-size:15px;fill:rgb(44,44,44);">Ensures continuous service</text>
                            </g>
                            <g transform="matrix(1,0,0,1,12.97,46.2)">
                                <text x="0px" y="0px" style="font-family:'ArialMT', 'Arial', sans-serif;font-size:15px;fill:rgb(44,44,44);">with optimal load distribution.</text>
                            </g>
                        </g>
                    </g>
                </g>
            </g>
            <g transform="matrix(1,0,0,1,100.39,732)">
                <g id="g-root-tx_customin_1q5prcs1qba4v-fill">
                    <g id="tx_customin_1q5prcs1qba4v-fill">
                        <g>
                            <g>
                                <text x="0px" y="0px" style="font-family:'Arial-BoldMT', 'Arial', sans-serif;font-weight:700;font-size:20px;fill:rgb(44,44,44);">Custom Integrations</text>
                            </g>
                        </g>
                    </g>
                </g>
            </g>
            <g id="g-root-tx_tailored_qns7gc1qbbpc-fill" transform="matrix(1,0,0,1,62,734)">
                <g id="tx_tailored_qns7gc1qbbpc-fill">
                    <g>
                        <g>
                            <g transform="matrix(1,0,0,1,14.69,28.2)">
                                <text x="0px" y="0px" style="font-family:'ArialMT', 'Arial', sans-serif;font-size:15px;fill:rgb(44,44,44);">T<tspan x="7.5px 15.842px " y="0px 0px ">ai</tspan>lored integrations for seamless</text>
                            </g>
                            <g transform="matrix(1,0,0,1,57.38,46.2)">
                                <text x="0px" y="0px" style="font-family:'ArialMT', 'Arial', sans-serif;font-size:15px;fill:rgb(44,44,44);">system compatibility<tspan x="133.088px " y="0px ">.</tspan></text>
                            </g>
                        </g>
                    </g>
                </g>
            </g>
            <g id="g-root-tx_opensour_zlx77g1pufpd-fill" transform="matrix(1,0,0,1,398,722)">
                <g id="tx_opensour_zlx77g1pufpd-fill">
                    <g>
                        <g>
                            <g transform="matrix(1,0,0,1,16.78,34)">
                                <text x="0px" y="0px" style="font-family:'Arial-BoldMT', 'Arial', sans-serif;font-weight:700;font-size:20px;fill:rgb(44,44,44);">Open-Source &amp; Cost-</text>
                            </g>
                            <g transform="matrix(1,0,0,1,74.83,58)">
                                <g transform="matrix(20,0,0,20,13.3398,0)">
                                </g>
                                <g transform="matrix(20,0,0,20,19.8105,0)">
                                </g>
                                <g transform="matrix(20,0,0,20,26.2812,0)">
                                </g>
                                <text x="0px" y="0px" style="font-family:'Arial-BoldMT', 'Arial', sans-serif;font-weight:700;font-size:20px;fill:rgb(44,44,44);">Eﬃcient</text>
                            </g>
                        </g>
                    </g>
                </g>
            </g>
            <g id="g-root-tx_expertop_1q6c8fw1q720y-fill" transform="matrix(1,0,0,1,68,254)">
                <g id="tx_expertop_1q6c8fw1q720y-fill">
                    <g>
                        <g>
                            <g transform="matrix(1,0,0,1,14.79,34)">
                                <text x="0px" y="0px" style="font-family:'Arial-BoldMT', 'Arial', sans-serif;font-weight:700;font-size:20px;fill:rgb(44,44,44);">Expert OpenSIPS</text>
                            </g>
                            <g transform="matrix(1,0,0,1,32.33,58)">
                                <text x="0px" y="0px" style="font-family:'Arial-BoldMT', 'Arial', sans-serif;font-weight:700;font-size:20px;fill:rgb(44,44,44);">Development</text>
                            </g>
                        </g>
                    </g>
                </g>
            </g>
            <g id="g-root-cp_5_shape-5_1cymkl81q5mo1-stroke" transform="matrix(1,0,0,1,314.303,56)">
                <g id="cp_5_shape-5_1cymkl81q5mo1-stroke">
                    <g>
                        <path d="M15.697,160L15.697,316M27.697,316L27.697,160M15.697,160L15.697,28.191L11.017,28.191C10.237,28.191 9.747,27.341 10.137,26.661L20.86,10.448C21.256,9.849 22.136,9.851 22.53,10.451L33.177,26.661C33.577,27.341 33.087,28.191 32.297,28.191L27.697,28.191L27.697,160" style="fill:none;stroke:rgb(44,44,44);stroke-width:2px;"/>
                    </g>
                </g>
            </g>
            <g id="g-root-cp_1_shape-1_zn627w1q5o8z-stroke" transform="matrix(1,0,0,1,32,55.8164)">
                <g id="cp_1_shape-1_zn627w1q5o8z-stroke">
                    <g>
                        <path d="M10,160.184C10,140.301 26.118,124.321 46,124.321L172,124.321C213.07,124.321 238,94.191 238,54.851L238,28.191L233.32,28.191C232.54,28.191 232.05,27.341 232.44,26.661L243.163,10.448C243.559,9.849 244.439,9.851 244.833,10.451L255.48,26.661C255.88,27.341 255.39,28.191 254.6,28.191L250,28.191L250,160.184M250,316.184C250,336.066 233.882,352.191 214,352.191L46,352.191C26.118,352.191 10,336.081 10,316.199L10,316.184M250,316.184L250,160.184M10,160.184L10,316.184" style="fill:none;stroke:rgb(44,44,44);stroke-width:2px;"/>
                    </g>
                </g>
            </g>
            <g id="g-root-cp_3_shape-3_dgp0os1q5ngt-stroke" transform="matrix(1,0,0,1,284.303,56)">
                <g id="cp_3_shape-3_dgp0os1q5ngt-stroke">
                    <g>
                        <path d="M15.697,160L15.697,316M27.697,316L27.697,160M15.697,160L15.697,28.191L11.017,28.191C10.237,28.191 9.747,27.341 10.137,26.661L20.86,10.448C21.256,9.849 22.136,9.851 22.53,10.451L33.177,26.661C33.577,27.341 33.087,28.191 32.297,28.191L27.697,28.191L27.697,160" style="fill:none;stroke:rgb(44,44,44);stroke-width:2px;"/>
                    </g>
                </g>
            </g>
            <g id="g-root-cp_3_shape-3_1_58ibg1q5p1r-stroke" transform="matrix(1,0,0,1,32,362)">
                <g id="cp_3_shape-3_1_58ibg1q5p1r-stroke">
                    <g>
                        <path d="M268,10C268,46 244,64.321 214,64.321L46,64.321C26.118,64.321 10,80.423 10,100.306M280,100.306L280,10" style="fill:none;stroke:rgb(44,44,44);stroke-width:2px;"/>
                    </g>
                </g>
            </g>
            <g id="g-root-cp_5_shape-5_1_1uqj2641q5pmx-stroke" transform="matrix(1,0,0,1,320,362)">
                <g id="cp_5_shape-5_1_1uqj2641q5pmx-stroke">
                    <g>
                        <path d="M10,10L10,208M22,208L22,10" style="fill:none;stroke:rgb(44,44,44);stroke-width:2px;"/>
                    </g>
                </g>
            </g>
            <g id="g-root-cp_3_shape-3_2_1hfp0vw1q5o23-stroke" transform="matrix(1,0,0,1,32,452)">
                <g id="cp_3_shape-3_2_1hfp0vw1q5o23-stroke">
                    <g>
                        <path d="M280,117.982L280,10M10,10L10,118M280,118.008C280,137.89 263.882,154.008 244,154.008L46,154.008C26.118,154.008 10,137.906 10,118.023L10,118.008" style="fill:none;stroke:rgb(44,44,44);stroke-width:2px;"/>
                    </g>
                </g>
            </g>
            <g id="g-root-cp_5_shape-5_2_zp1hh81q5n9h-stroke" transform="matrix(1,0,0,1,32,560)">
                <g id="cp_5_shape-5_2_zp1hh81q5n9h-stroke">
                    <g>
                        <path d="M298,10C298,45.878 274,64.137 244,64.137L46,64.137C26.118,64.137 10,80.185 10,100M310,100L310,10" style="fill:none;stroke:rgb(44,44,44);stroke-width:2px;"/>
                    </g>
                </g>
            </g>
            <g id="g-root-cp_5_shape-5_3_mdkz3w1q5ouf-stroke" transform="matrix(1,0,0,1,32,650)">
                <g id="cp_5_shape-5_3_mdkz3w1q5ouf-stroke">
                    <g>
                        <path d="M310,118L310,10M10,10L10,118M310,118C310,137.882 293.882,154.008 274,154.008L46,154.008C26.118,154.008 10,137.882 10,118" style="fill:none;stroke:rgb(44,44,44);stroke-width:2px;"/>
                    </g>
                </g>
            </g>
            <g id="g-root-cp_2_shape-2_4mxfp81q5o1t-stroke" transform="matrix(1,0,0,1,404.378,55.8164)">
                <g id="cp_2_shape-2_4mxfp81q5o1t-stroke">
                    <g>
                        <path d="M255.622,160.184C255.622,140.301 239.505,124.321 219.623,124.321L93.622,124.321C52.552,124.321 27.622,94.191 27.622,54.851L27.622,28.191L32.302,28.191C33.082,28.191 33.572,27.341 33.182,26.661L22.459,10.448C22.063,9.849 21.184,9.851 20.79,10.451L10.142,26.661C9.742,27.341 10.232,28.191 11.022,28.191L15.622,28.191L15.622,160.184M15.622,316.184C15.622,336.066 31.74,352.184 51.622,352.184L219.623,352.183C239.505,352.183 255.622,336.081 255.622,316.199L255.622,316.184M15.622,316.184L15.622,160.184M255.622,160.184L255.622,316.184" style="fill:none;stroke:rgb(44,44,44);stroke-width:2px;"/>
                    </g>
                </g>
            </g>
            <g id="g-root-cp_4_shape-4_1qckzb01q5pfn-stroke" transform="matrix(1,0,0,1,374.383,56)">
                <g id="cp_4_shape-4_1qckzb01q5pfn-stroke">
                    <g>
                        <path d="M27.622,160L27.622,316M15.622,316L15.622,160M27.622,160L27.622,28.191L32.302,28.191C33.082,28.191 33.572,27.341 33.182,26.661L22.459,10.448C22.063,9.849 21.184,9.851 20.79,10.451L10.142,26.661C9.742,27.341 10.232,28.191 11.022,28.191L15.622,28.191L15.622,160" style="fill:none;stroke:rgb(44,44,44);stroke-width:2px;"/>
                    </g>
                </g>
            </g>
            <g id="g-root-cp_6_shape-6_1d1qy0s1q5nut-stroke" transform="matrix(1,0,0,1,344.383,56)">
                <g id="cp_6_shape-6_1d1qy0s1q5nut-stroke">
                    <g>
                        <path d="M27.622,160L27.622,316M15.622,316L15.622,160M27.622,160L27.622,28.191L32.302,28.191C33.082,28.191 33.572,27.341 33.182,26.661L22.459,10.448C22.063,9.849 21.184,9.851 20.79,10.451L10.142,26.661C9.742,27.341 10.232,28.191 11.022,28.191L15.622,28.191L15.622,160" style="fill:none;stroke:rgb(44,44,44);stroke-width:2px;"/>
                    </g>
                </g>
            </g>
            <g id="g-root-cp_4_shape-4_1_qv9who1q5n2n-stroke" transform="matrix(1,0,0,1,380,362)">
                <g id="cp_4_shape-4_1_qv9who1q5n2n-stroke">
                    <g>
                        <path d="M22,10C22,46 46,64.321 76,64.321L244,64.321C263.882,64.321 280,80.423 280,100.306M10,100.306L10,10" style="fill:none;stroke:rgb(44,44,44);stroke-width:2px;"/>
                    </g>
                </g>
            </g>
            <g id="g-root-cp_4_shape-4_2_hzmw8s1q5on5-stroke" transform="matrix(1,0,0,1,380,452)">
                <g id="cp_4_shape-4_2_hzmw8s1q5on5-stroke">
                    <g>
                        <path d="M10,142L10,10M280,10L280,142M10,142C10,161.882 26.118,178.008 46,178.008L244,178.008C263.882,178.008 280,161.898 280,142.016L280,142" style="fill:none;stroke:rgb(44,44,44);stroke-width:2px;"/>
                    </g>
                </g>
            </g>
            <g id="g-root-cp_6_shape-6_1_1uu9wos1q5nnv-stroke" transform="matrix(1,0,0,1,350,362)">
                <g id="cp_6_shape-6_1_1uu9wos1q5nnv-stroke">
                    <g>
                        <path d="M22,10L22,232M10,232L10,10" style="fill:none;stroke:rgb(44,44,44);stroke-width:2px;"/>
                    </g>
                </g>
            </g>
            <g id="g-root-cp_6_shape-6_2_1qegekc1q5og5-stroke" transform="matrix(1,0,0,1,350,584)">
                <g id="cp_6_shape-6_2_1qegekc1q5og5-stroke">
                    <g>
                        <path d="M22,10C22,46 46,64.321 76,64.321L274,64.321C293.882,64.321 310,80.423 310,100.306M10,100.306L10,10" style="fill:none;stroke:rgb(44,44,44);stroke-width:2px;"/>
                    </g>
                </g>
            </g>
            <g id="g-root-cp_6_shape-6_3_1d3mda41q5mvb-stroke" transform="matrix(1,0,0,1,350,674)">
                <g id="cp_6_shape-6_3_1d3mda41q5mvb-stroke">
                    <g>
                        <path d="M10,142L10,10M310,10L310,142M10,142C10,161.882 26.118,178.008 46,178.008L274,178.008C293.882,178.008 310,161.898 310,142.016L310,142" style="fill:none;stroke:rgb(44,44,44);stroke-width:2px;"/>
                    </g>
                </g>
            </g>
            <g id="g-root-ic_3_1lrroho1q747g-stroke" transform="matrix(1,0,0,1,128,194)">
                <g id="ic_3_1lrroho1q747g-stroke">
                    <g>
                        <path d="M21,27C21,28.105 21.895,29 23,29L27,29L33,35L33,29L49,29C50.105,29 51,28.105 51,27L51,13C51,11.895 50.105,11 49,11L23,11C21.895,11 21,11.895 21,13L21,27ZM15.5,39.5C15.5,41.985 17.515,44 20,44C22.485,44 24.5,41.985 24.5,39.5C24.5,37.015 22.485,35 20,35C17.515,35 15.5,37.015 15.5,39.5M26.34,48.54C23.953,46.283 20.548,45.459 17.393,46.377C14.238,47.294 11.805,49.814 11,53M43.5,39.5C43.5,41.985 45.515,44 48,44C50.485,44 52.5,41.985 52.5,39.5C52.5,37.015 50.485,35 48,35C45.515,35 43.5,37.015 43.5,39.5M41.66,48.54C44.047,46.283 47.452,45.459 50.607,46.377C53.762,47.294 56.195,49.814 57,53M29.5,43.5C29.5,45.985 31.515,48 34,48C36.485,48 38.5,45.985 38.5,43.5C38.5,41.015 36.485,39 34,39C31.515,39 29.5,41.015 29.5,43.5M43,57C41.933,52.903 38.234,50.043 34,50.043C29.766,50.043 26.067,52.903 25,57M42,16L46,20L42,24M30,16L26,20L30,24M38,16L34,24" style="fill:none;stroke:rgb(44,44,44);stroke-width:2px;"/>
                    </g>
                </g>
            </g>
            <g id="g-root-ic_clou_145hgos1qcp35-stroke" transform="matrix(1,0,0,1,506,194)">
                <g id="ic_clou_145hgos1qcp35-stroke">
                    <g>
                        <path d="M33,36.956L33,56.994M46.722,21.33C45.624,16.129 41.471,12.12 36.234,11.207C30.997,10.295 25.732,12.663 22.94,17.186C18.428,16.288 13.885,18.584 11.933,22.75C9.98,26.916 11.122,31.876 14.7,34.769C18.277,37.662 23.367,37.741 27.032,34.96C31.903,38.072 38.246,37.577 42.576,33.748C44.989,37.016 49.468,37.956 52.992,35.935C56.516,33.913 57.965,29.572 56.362,25.839C54.76,22.107 50.614,20.168 46.722,21.33ZM33,49.994L37.878,45.116M37,42.994C37,44.651 38.343,45.994 40,45.994C41.657,45.994 43,44.651 43,42.994C43,41.337 41.657,39.994 40,39.994C38.343,39.994 37,41.337 37,42.994Z" style="fill:none;stroke:rgb(44,44,44);stroke-width:2px;"/>
                    </g>
                </g>
            </g>
            <g id="g-root-ic_inco_m8l6f01q9v62-stroke" transform="matrix(1,0,0,1,143,440)">
                <g id="ic_inco_m8l6f01q9v62-stroke">
                    <g>
                        <path d="M56.5,30.2L36.5,30.2M42.3,36.1L36.5,30.2L42.3,24.3M36.5,17.4L56.5,17.4M50.5,23.3L56.5,17.4L50.5,11.5M35.498,38.5L35.498,51.1C35.498,54.1 33.098,56.5 30.098,56.5L16.898,56.5C13.898,56.5 11.498,54.1 11.498,51.1L11.498,20.1C11.498,17.1 13.898,14.7 16.898,14.7L29.898,14.7M11.498,47.5L35.498,47.5" style="fill:none;stroke:rgb(44,44,44);stroke-width:2px;"/>
                    </g>
                </g>
            </g>
            <g id="g-root-ic_bala_13zva2k1pt2iz-stroke" transform="matrix(1,0,0,1,491,440)">
                <g id="ic_bala_13zva2k1pt2iz-stroke">
                    <g>
                        <path d="M25.5,39.1C25.5,40.3 24.7,41.1 23.5,41.1L13.5,41.1C12.3,41.1 11.5,40.3 11.5,39.1L11.5,29.1C11.5,27.9 12.3,27.1 13.5,27.1L23.5,27.1C24.7,27.1 25.5,27.9 25.5,29.1L25.5,39.1ZM56.5,37.5C56.5,38.7 55.7,39.5 54.5,39.5L47.5,39.5C46.3,39.5 45.5,38.7 45.5,37.5L45.5,30.5C45.5,29.3 46.3,28.5 47.5,28.5L54.5,28.5C55.7,28.5 56.5,29.3 56.5,30.5L56.5,37.5ZM56.5,20.5C56.5,21.7 55.7,22.5 54.5,22.5L47.5,22.5C46.3,22.5 45.5,21.7 45.5,20.5L45.5,13.5C45.5,12.3 46.3,11.5 47.5,11.5L54.5,11.5C55.7,11.5 56.5,12.3 56.5,13.5L56.5,20.5ZM56.5,54.5C56.5,55.7 55.7,56.5 54.5,56.5L47.5,56.5C46.3,56.5 45.5,55.7 45.5,54.5L45.5,47.5C45.5,46.3 46.3,45.5 47.5,45.5L54.5,45.5C55.7,45.5 56.5,46.3 56.5,47.5L56.5,54.5ZM24.477,27.313L39.3,17.5M25.5,34.1L39.5,34.1M35.1,29.5L39.5,34.1L35.1,38.5M33.3,16.1L39.5,17.5L38.1,23.7M24.477,40.887L39.3,50.7M33.3,52.1L39.5,50.7L38.1,44.5" style="fill:none;stroke:rgb(44,44,44);stroke-width:2px;"/>
                    </g>
                </g>
            </g>
            <g id="g-root-ic_2_8z03b01qb956-stroke" transform="matrix(1,0,0,1,158,638)">
                <g id="ic_2_8z03b01qb956-stroke">
                    <g>
                        <path d="M49,41.5L55.622,34.878C56.185,34.315 56.5,33.552 56.5,32.757C56.5,31.961 56.185,31.199 55.622,30.636L51.4,26.424C50.923,27.557 50.174,28.555 49.22,29.331C48.266,30.106 47.136,30.636 45.929,30.872C44.723,31.108 43.477,31.044 42.301,30.685C41.125,30.326 40.055,29.684 39.185,28.815C38.316,27.945 37.674,26.875 37.315,25.699C36.956,24.523 36.892,23.277 37.128,22.071C37.365,20.864 37.894,19.734 38.669,18.78C39.445,17.826 40.443,17.077 41.576,16.6L37.364,12.378C36.802,11.816 36.039,11.5 35.243,11.5C34.448,11.5 33.685,11.816 33.122,12.378L26.5,19C26.5,17.517 26.06,16.067 25.236,14.833C24.412,13.6 23.241,12.639 21.87,12.071C20.5,11.503 18.992,11.355 17.537,11.644C16.082,11.933 14.746,12.648 13.697,13.697C12.648,14.746 11.934,16.082 11.644,17.537C11.355,18.992 11.503,20.5 12.071,21.87C12.639,23.241 13.6,24.412 14.833,25.236C16.067,26.06 17.517,26.5 19,26.5L12.378,33.122C11.816,33.685 11.5,34.447 11.5,35.243C11.5,36.038 11.816,36.801 12.378,37.364L16.6,41.576C17.078,40.443 17.826,39.445 18.78,38.669C19.734,37.894 20.864,37.364 22.071,37.128C23.277,36.892 24.524,36.956 25.7,37.315C26.876,37.674 27.945,38.316 28.815,39.185C29.684,40.055 30.326,41.125 30.685,42.301C31.044,43.476 31.108,44.723 30.872,45.929C30.636,47.136 30.106,48.266 29.331,49.22C28.555,50.174 27.557,50.923 26.424,51.4L30.636,55.614C31.199,56.176 31.962,56.492 32.757,56.492C33.553,56.492 34.316,56.176 34.878,55.614L41.5,49C41.5,50.483 41.94,51.933 42.764,53.167C43.588,54.4 44.76,55.361 46.13,55.929C47.5,56.497 49.008,56.645 50.463,56.356C51.918,56.066 53.255,55.352 54.303,54.303C55.352,53.254 56.067,51.918 56.356,50.463C56.645,49.008 56.497,47.5 55.929,46.13C55.362,44.759 54.4,43.588 53.167,42.764C51.934,41.94 50.483,41.5 49,41.5Z" style="fill:none;stroke:rgb(44,44,44);stroke-width:2px;"/>
                    </g>
                </g>
            </g>
            <g id="g-root-ic_chip_1qbc4ak1pug3w-stroke" transform="matrix(1,0,0,1,476,662)">
                <g id="ic_chip_1qbc4ak1pug3w-stroke">
                    <g>
                        <path d="M51.608,24.218L16.392,24.218C15.852,24.218 15.413,24.656 15.412,25.196L15.412,42.804C15.412,43.344 15.852,43.784 16.392,43.784L51.608,43.784C52.149,43.784 52.588,43.345 52.588,42.804L52.588,25.196C52.588,24.655 52.149,24.216 51.608,24.216L51.608,24.218ZM54.544,20.304L13.456,20.304C12.937,20.304 12.439,20.51 12.072,20.878C11.705,21.245 11.499,21.743 11.5,22.262L11.5,45.74C11.5,46.82 12.376,47.696 13.456,47.696L54.544,47.696C55.624,47.696 56.5,46.82 56.5,45.74L56.5,22.26C56.5,21.18 55.624,20.304 54.544,20.304ZM34,39.87C37.242,39.871 39.871,37.242 39.871,34C39.871,30.758 37.242,28.129 34,28.13C30.758,28.131 28.131,30.758 28.131,34C28.131,37.242 30.758,39.869 34,39.87L34,39.87ZM20.296,29.6C20.025,29.6 19.806,29.381 19.806,29.11C19.806,28.839 20.025,28.62 20.296,28.62M20.296,29.6C20.567,29.6 20.786,29.381 20.786,29.11C20.786,28.839 20.567,28.62 20.296,28.62M47.688,39.38C47.43,39.363 47.229,39.149 47.229,38.891C47.229,38.633 47.43,38.419 47.688,38.402M47.688,39.38C47.87,39.392 48.044,39.301 48.138,39.145C48.233,38.989 48.233,38.793 48.138,38.637C48.044,38.481 47.87,38.39 47.688,38.402M16.392,54.544L16.392,47.696M25.196,54.544L25.196,47.696M34,54.544L34,47.696M42.804,54.544L42.804,47.696M50.632,54.544L50.632,47.696M16.392,20.304L16.392,13.456M25.196,20.304L25.196,13.456M34,20.304L34,13.456M42.804,20.304L42.804,13.456M50.632,20.304L50.632,13.456" style="fill:none;stroke:rgb(44,44,44);stroke-width:2px;"/>
                    </g>
                </g>
            </g>
        </g>
    </g>
</svg>
