<?xml version="1.0" encoding="UTF-8" standalone="no"?>
<!DOCTYPE svg PUBLIC "-//W3C//DTD SVG 1.1//EN" "http://www.w3.org/Graphics/SVG/1.1/DTD/svg11.dtd">
<svg width="100%" height="100%" viewBox="0 0 607 588" version="1.1" xmlns="http://www.w3.org/2000/svg" xmlns:xlink="http://www.w3.org/1999/xlink" xml:space="preserve" xmlns:serif="http://www.serif.com/" style="fill-rule:evenodd;clip-rule:evenodd;stroke-linecap:round;stroke-linejoin:round;">
    <g id="items" transform="matrix(1.22888,0,0,1.22888,-69.3499,-117.535)">
        <g id="blend">
            <g id="g-root-cp_1_sign-1_8ydfxo3e0emb-fill" transform="matrix(1,0,0,1,98,146)">
                <g id="cp_1_sign-1_8ydfxo3e0emb-fill">
                    <g>
                        <path d="M10,40L28,10L28,70L10,40ZM28,10L189,10L189,70L28,70L28,10Z" style="fill:rgb(59,196,130);"/>
                    </g>
                </g>
            </g>
            <g id="g-root-cp_3_sign-3_1lsdzak3e0gst-fill" transform="matrix(1,0,0,1,50,218)">
                <g id="cp_3_sign-3_1lsdzak3e0gst-fill">
                    <g>
                        <path d="M10,40L28,10L28,70L10,40ZM28,10L237,10L237,70L28,70L28,10Z" style="fill:rgb(145,187,57);"/>
                    </g>
                </g>
            </g>
            <g id="g-root-cp_5_sign-5_18hjy0c3e0f7z-fill" transform="matrix(1,0,0,1,98,290)">
                <g id="cp_5_sign-5_18hjy0c3e0f7z-fill">
                    <g>
                        <path d="M10,52L28,10L28,94L10,52ZM28,10L189,10L189,94L28,94L28,10Z" style="fill:rgb(221,87,168);"/>
                    </g>
                </g>
            </g>
            <g id="g-root-cp_pole_g-pole_qqwelo3e0efd-fill" transform="matrix(1,0,0,1,275,122)">
                <g id="cp_pole_g-pole_qqwelo3e0efd-fill">
                    <g>
                        <path d="M31,298L13,298L13,412L31,412L31,411.897L24.55,411.88C24.55,411.88 25.3,405.89 17.74,404.78C25.63,401.53 28.41,406.56 28.41,406.56C28.41,406.56 27.994,399.986 31,394.2L31,298ZM13,22L31,22L31,298L13,298L13,22Z" style="fill:rgb(149,149,149);"/>
                    </g>
                </g>
                <g id="cp_pole_g-pole_qqwelo3e0efd-fill1" serif:id="cp_pole_g-pole_qqwelo3e0efd-fill">
                    <g>
                        <rect x="10" y="10" width="24" height="12" style="fill:rgb(149,149,149);"/>
                    </g>
                </g>
            </g>
            <g id="g-root-cp_pole_plant_mb2wh83e0f7o-fill" transform="matrix(1,0,0,1,243,499)">
                <g id="cp_pole_plant_mb2wh83e0f7o-fill">
                    <g>
                        <path d="M60.393,29.56C60.393,29.56 57.613,24.53 49.723,27.78C54.516,28.484 57.019,30.471 56.533,35.008L10,35.008C10,35.008 17.976,46.521 54.183,46.521C90.39,46.521 97.76,35.008 97.76,35.008L71.483,35.008C68.788,30.384 74.815,23.86 80.883,26.67C78.883,23.56 72.993,22.89 68.553,26C66.693,20.52 67.443,13.77 70.613,10C59.453,14.7 60.393,29.56 60.393,29.56Z" style="fill:rgb(145,187,57);"/>
                    </g>
                </g>
            </g>
            <g id="g-root-cp_2_sign-2_8zme3w3e0gsm-fill" transform="matrix(1,0,0,1,297,182)">
                <g id="cp_2_sign-2_8zme3w3e0gsm-fill">
                    <g>
                        <path d="M10,10L171,10L171,70L10,70L10,10ZM189,40L171,10L171,70L189,40Z" style="fill:rgb(78,136,230);"/>
                    </g>
                </g>
            </g>
            <g id="g-root-cp_4_sign-4_1qa2woc3e0fsw-fill" transform="matrix(1,0,0,1,297,254)">
                <g id="cp_4_sign-4_1qa2woc3e0fsw-fill">
                    <g>
                        <path d="M10,10L231,10L231,70L10,70L10,10ZM249,40L231,10L231,70L249,40Z" style="fill:rgb(31,169,215);"/>
                    </g>
                </g>
            </g>
            <g id="g-root-cp_6_sign-6_1cz8ve43e0e82-fill" transform="matrix(1,0,0,1,297,326)">
                <g id="cp_6_sign-6_1cz8ve43e0e82-fill">
                    <g>
                        <path d="M10,10L183,10L183,94L10,94L10,10ZM201,52L183,10L183,94L201,52Z" style="fill:rgb(220,131,49);"/>
                    </g>
                </g>
            </g>
            <g transform="matrix(1,0,0,1,183.17,198)">
                <g id="g-root-tx_scalabil_1hbbizw3e36yu-fill">
                    <g id="tx_scalabil_1hbbizw3e36yu-fill">
                        <g>
                            <g>
                                <text x="0px" y="0px" style="font-family:'ArialMT', 'Arial', sans-serif;font-size:20px;fill:white;">Scalability</text>
                            </g>
                        </g>
                    </g>
                </g>
            </g>
            <g transform="matrix(1,0,0,1,320,234)">
                <g id="g-root-tx_flexibil_18efu243dte6b-fill">
                    <g id="tx_flexibil_18efu243dte6b-fill">
                        <g>
                            <g>
                                <text x="0px" y="0px" style="font-family:'ArialMT', 'Arial', sans-serif;font-size:20px;fill:white;">Flexibility</text>
                            </g>
                        </g>
                    </g>
                </g>
            </g>
            <g transform="matrix(1,0,0,1,142.4,270)">
                <g id="g-root-tx_costeffi_142d04s3e0etn-fill">
                    <g id="tx_costeffi_142d04s3e0etn-fill">
                        <g>
                            <g>
                                <g transform="matrix(20,0,0,20,60.0195,0)">
                                </g>
                                <g transform="matrix(20,0,0,20,65.3983,0)">
                                </g>
                                <g transform="matrix(20,0,0,20,70.777,0)">
                                </g>
                                <text x="0px" y="0px" style="font-family:'ArialMT', 'Arial', sans-serif;font-size:20px;fill:white;">Cost Eﬃciency</text>
                            </g>
                        </g>
                    </g>
                </g>
            </g>
            <g transform="matrix(1,0,0,1,320,306)">
                <g id="g-root-tx_highavai_1q9gp2k3dw8b1-fill">
                    <g id="tx_highavai_1q9gp2k3dw8b1-fill">
                        <g>
                            <g>
                                <text x="0px" y="0px" style="font-family:'ArialMT', 'Arial', sans-serif;font-size:20px;fill:white;">High <tspan x="45.586px 58.564px 68.564px " y="0px 0px 0px ">Ava</tspan>ilability</text>
                            </g>
                        </g>
                    </g>
                </g>
            </g>
            <g id="g-root-tx_advanced_v486p83dw7im-fill" transform="matrix(1,0,0,1,170,308)">
                <g id="tx_advanced_v486p83dw7im-fill">
                    <g>
                        <g>
                            <g transform="matrix(1,0,0,1,15.85,34)">
                                <text x="0px" y="0px" style="font-family:'ArialMT', 'Arial', sans-serif;font-size:20px;fill:white;">Advanced</text>
                            </g>
                            <g transform="matrix(1,0,0,1,26.57,58)">
                                <text x="0px" y="0px" style="font-family:'ArialMT', 'Arial', sans-serif;font-size:20px;fill:white;">Features</text>
                            </g>
                        </g>
                    </g>
                </g>
            </g>
            <g id="g-root-tx_seamless_v4uu3w3ds0zz-fill" transform="matrix(1,0,0,1,308,344)">
                <g id="tx_seamless_v4uu3w3ds0zz-fill">
                    <g>
                        <g>
                            <g transform="matrix(1,0,0,1,12,34)">
                                <text x="0px" y="0px" style="font-family:'ArialMT', 'Arial', sans-serif;font-size:20px;fill:white;">Seamless</text>
                            </g>
                            <g transform="matrix(1,0,0,1,12,58)">
                                <text x="0px" y="0px" style="font-family:'ArialMT', 'Arial', sans-serif;font-size:20px;fill:white;">Integration</text>
                            </g>
                        </g>
                    </g>
                </g>
            </g>
            <g id="g-root-cp_1_sign-1_8ydfxo3e0emb-stroke" transform="matrix(1,0,0,1,98,146)">
                <g id="cp_1_sign-1_8ydfxo3e0emb-stroke">
                    <g>
                        <path d="M28,10L189,10M189,70L28,70M28,70L10,40L28,10" style="fill:none;stroke:white;stroke-width:2px;"/>
                    </g>
                </g>
            </g>
            <g id="g-root-cp_3_sign-3_1lsdzak3e0gst-stroke" transform="matrix(1,0,0,1,50,218)">
                <g id="cp_3_sign-3_1lsdzak3e0gst-stroke">
                    <g>
                        <path d="M28,10L237,10M237,70L28,70M28,70L10,40L28,10" style="fill:none;stroke:white;stroke-width:2px;"/>
                    </g>
                </g>
            </g>
            <g id="g-root-cp_5_sign-5_18hjy0c3e0f7z-stroke" transform="matrix(1,0,0,1,98,290)">
                <g id="cp_5_sign-5_18hjy0c3e0f7z-stroke">
                    <g>
                        <path d="M28,10L189,10M189,94L28,94M28,94L10,52L28,10" style="fill:none;stroke:white;stroke-width:2px;"/>
                    </g>
                </g>
            </g>
            <g id="g-root-cp_pole_g-pole_qqwelo3e0efd-stroke" transform="matrix(1,0,0,1,275,122)">
                <g id="cp_pole_g-pole_qqwelo3e0efd-stroke">
                    <g>
                        <path d="M31,394L31,298M13,411L13,298M31,298L31,22M13,298L13,22" style="fill:none;stroke:white;stroke-width:2px;"/>
                    </g>
                </g>
                <g id="cp_pole_g-pole_qqwelo3e0efd-stroke1" serif:id="cp_pole_g-pole_qqwelo3e0efd-stroke">
                    <g>
                        <rect x="10" y="10" width="24" height="12" style="fill:none;stroke:white;stroke-width:2px;"/>
                    </g>
                </g>
            </g>
            <g id="g-root-cp_pole_plant_mb2wh83e0f7o-stroke" transform="matrix(1,0,0,1,243,499)">
                <g id="cp_pole_plant_mb2wh83e0f7o-stroke">
                    <g>
                        <path d="M56.55,34.88C56.55,34.88 57.3,28.89 49.74,27.78C57.63,24.53 60.41,29.56 60.41,29.56C60.41,29.56 59.47,14.7 70.63,10C67.46,13.77 66.71,20.52 68.57,26C73.01,22.89 78.9,23.56 80.9,26.67C76.68,24.44 69.89,28.468 71,34.918M71,34.918L98,34.918M10,34.918L56.5,34.918" style="fill:none;stroke:white;stroke-width:2px;"/>
                    </g>
                </g>
            </g>
            <g id="g-root-cp_2_sign-2_8zme3w3e0gsm-stroke" transform="matrix(1,0,0,1,297,182)">
                <g id="cp_2_sign-2_8zme3w3e0gsm-stroke">
                    <g>
                        <path d="M171,70L10,70M10,10L171,10M171,10L189,40L171,70" style="fill:none;stroke:white;stroke-width:2px;"/>
                    </g>
                </g>
            </g>
            <g id="g-root-cp_4_sign-4_1qa2woc3e0fsw-stroke" transform="matrix(1,0,0,1,297,254)">
                <g id="cp_4_sign-4_1qa2woc3e0fsw-stroke">
                    <g>
                        <path d="M231,70L10,70M10,10L231,10M231,10L249,40L231,70" style="fill:none;stroke:white;stroke-width:2px;"/>
                    </g>
                </g>
            </g>
            <g id="g-root-cp_6_sign-6_1cz8ve43e0e82-stroke" transform="matrix(1,0,0,1,297,326)">
                <g id="cp_6_sign-6_1cz8ve43e0e82-stroke">
                    <g>
                        <path d="M183,94L10,94M10,10L183,10M183,10L201,52L183,94" style="fill:none;stroke:white;stroke-width:2px;"/>
                    </g>
                </g>
            </g>
            <g id="g-root-ic_3_1lw4tt83e0etp-stroke" transform="matrix(1,0,0,1,122,158)">
                <g id="ic_3_1lw4tt83e0etp-stroke">
                    <g>
                        <path d="M37,19C36.33,14.604 32.55,11.357 28.103,11.357C23.656,11.357 19.876,14.604 19.206,19L19.206,19C14.945,19 11.491,22.454 11.491,26.714C11.491,30.975 14.945,34.429 19.206,34.429C20.167,34.438 21.12,34.254 22.009,33.889C23.464,35.851 25.762,37.009 28.206,37.009C30.649,37.009 32.948,35.851 34.403,33.889C35.292,34.254 36.245,34.438 37.206,34.429C41.466,34.429 44.92,30.975 44.92,26.714C44.92,22.454 41.466,19 37.206,19L37,19ZM24.143,26.714L28,30.571L28,44.714M28,30.571L31.857,26.714" style="fill:none;stroke:white;stroke-width:2px;"/>
                    </g>
                </g>
            </g>
            <g id="g-root-ic_cham_maglpo3dw7bj-stroke" transform="matrix(1,0,0,1,416,194)">
                <g id="ic_cham_maglpo3dw7bj-stroke">
                    <g>
                        <path d="M19.375,19C21.239,19 22.75,20.511 22.75,22.375M16,22.375C16,20.511 17.511,19 19.375,19M19.375,25.75C17.511,25.75 16,24.239 16,22.375M22.75,22.375C22.75,24.239 21.239,25.75 19.375,25.75M19.375,22C19.582,22 19.75,22.168 19.75,22.375M19,22.375C19,22.168 19.168,22 19.375,22M19.375,22.75C19.168,22.75 19,22.582 19,22.375M19.75,22.375C19.75,22.582 19.582,22.75 19.375,22.75M24.757,18.235C27.622,16.832 30.84,16.314 34,16.75C42.216,17.5 44.5,23.5 44.5,29.5C44.5,35.5 42.25,40 37.75,40C33.25,40 31.925,37.051 32.5,34.75C32.794,33.479 33.775,32.48 35.041,32.164C36.306,31.847 37.643,32.267 38.5,33.25C40,34.75 38.5,37 37,36.25M21.226,16.972C21.018,16.624 20.775,16.298 20.5,16C18.572,16.235 16.75,17.016 15.25,18.25C12.927,20.373 11.573,23.354 11.5,26.5C12.721,27.711 14.298,28.5 16,28.75C20.5,29.5 22.75,28 22.75,28L19.75,33.25L23.5,33.25C25.75,33.25 26.791,30.418 28,28C29.5,25 27.25,24.25 27.25,24.25M38.5,24.25C38.5,24.25 40.75,25 39.25,28C38.555,29.482 37.729,30.898 36.783,32.233M29.5,33.25L11.5,33.25M27.634,28.75L34,28.75L33.25,30.25" style="fill:none;stroke:white;stroke-width:2px;"/>
                    </g>
                </g>
            </g>
            <g id="g-root-ic_decr_1q87hf03e37kf-stroke" transform="matrix(1,0,0,1,74,230)">
                <g id="ic_decr_1q87hf03e37kf-stroke">
                    <g>
                        <path d="M22.461,32.61C18.767,28.993 17.623,23.504 19.564,18.713C21.505,13.922 26.146,10.777 31.315,10.75C36.484,10.723 41.158,13.82 43.148,18.591C45.139,23.361 44.051,28.862 40.396,32.516M32.131,28.651L32.131,30.349M32.131,16.75L32.131,18.452M29.583,26.101C29.583,27.509 30.724,28.651 32.133,28.651C33.541,28.651 34.683,27.509 34.683,26.101C34.683,24.693 33.541,23.551 32.133,23.551C30.724,23.551 29.583,22.409 29.583,21.001C29.583,19.593 30.724,18.451 32.133,18.451C33.541,18.451 34.683,19.593 34.683,21.001M11.881,28.75L24.435,39.91C24.981,40.395 25.797,40.416 26.368,39.959L31.869,35.56C32.45,35.095 33.285,35.127 33.829,35.635L44.131,45.25M38.131,45.25L44.131,45.25L44.131,39.285" style="fill:none;stroke:white;stroke-width:2px;"/>
                    </g>
                </g>
            </g>
            <g id="g-root-ic_secu_1cviacs3dtfk4-stroke" transform="matrix(1,0,0,1,476,266)">
                <g id="ic_secu_1cviacs3dtfk4-stroke">
                    <g>
                        <path d="M28.295,33.577C28.107,33.651 27.897,33.651 27.707,33.577C24.692,32.413 22.702,29.515 22.697,26.28L22.697,23.898C22.697,23.448 23.064,23.082 23.514,23.082L32.488,23.082C32.938,23.082 33.304,23.448 33.304,23.898L33.304,26.28C33.302,29.512 31.31,32.411 28.295,33.575L28.295,33.577ZM16.83,27.448C16.829,33.619 21.831,38.622 28.001,38.622C34.172,38.622 39.174,33.619 39.173,27.448C39.174,21.277 34.172,16.274 28.001,16.274C21.831,16.274 16.829,21.277 16.83,27.448M40.184,14.716C40.185,15.949 41.184,16.948 42.417,16.948C43.649,16.948 44.649,15.949 44.649,14.716C44.649,13.483 43.649,12.484 42.417,12.484C41.184,12.484 40.185,13.483 40.185,14.716M15.816,14.716C15.816,15.949 14.816,16.948 13.584,16.948C12.351,16.948 11.352,15.949 11.352,14.716C11.352,13.483 12.351,12.484 13.584,12.484C14.816,12.484 15.816,13.483 15.816,14.716M22.188,37L19.912,40.219L11.383,40.219M34.281,36.742L36.727,40.219L44.65,40.219M22.141,17.898L19.91,14.715L15.813,14.715M33.859,17.922L36.088,14.715L40.185,14.715M41.351,36.921L44.648,40.219L41.351,43.516M14.649,43.516L11.352,40.219L14.649,36.921" style="fill:none;stroke:white;stroke-width:2px;"/>
                    </g>
                </g>
            </g>
            <g id="g-root-ic_box_hx4wrw3e0g7g-stroke" transform="matrix(1,0,0,1,122,314)">
                <g id="ic_box_hx4wrw3e0g7g-stroke">
                    <g>
                        <path d="M19,15.01L19,25M37,15.01L28,19.285L19,15.01M19,15.01L28,10.75L37,15.01M37,25L28,29.26L19,25M37,15.01L37,25M28,19.285L28,29.26M34,35.5L40.75,28.75M22,35.5L15.25,28.75M24.325,39.25L23.5,39.25C21.843,39.25 20.5,40.593 20.5,42.25L20.5,43.75C20.5,44.578 21.172,45.25 22,45.25L38.5,45.25C39.328,45.25 40,44.578 40,43.75L40,42.25C40,40.593 38.657,39.25 37,39.25L31.675,39.25M24.25,38.5C24.25,40.571 25.929,42.25 28,42.25C30.071,42.25 31.75,40.571 31.75,38.5C31.75,36.429 30.071,34.75 28,34.75C25.929,34.75 24.25,36.429 24.25,38.5M28,38.125C28.207,38.125 28.375,38.293 28.375,38.5C28.375,38.707 28.207,38.875 28,38.875C27.793,38.875 27.625,38.707 27.625,38.5C27.625,38.293 27.793,38.125 28,38.125" style="fill:none;stroke:white;stroke-width:2px;"/>
                    </g>
                </g>
            </g>
            <g id="g-root-ic_plan_1qbc4bw3dw7ba-stroke" transform="matrix(1,0,0,1,428,350)">
                <g id="ic_plan_1qbc4bw3dw7ba-stroke">
                    <g>
                        <path d="M19,25.75L16,25.75L16,11.5C16,11.086 16.336,10.75 16.75,10.75L31.75,10.75C32.164,10.75 32.5,11.086 32.5,11.5L32.5,25.75L24.25,25.75M28,25.75L28,30.25C30.485,30.25 32.5,32.265 32.5,34.75L32.5,35.5L28,35.5L28,44.5C28,44.914 27.664,45.25 27.25,45.25L11.5,45.25C11.086,45.25 10.75,44.914 10.75,44.5L10.75,26.5C10.75,26.086 11.086,25.75 11.5,25.75L16,25.75M28,38.5L44.5,38.5C44.914,38.5 45.25,38.164 45.25,37.75L45.25,28C42.351,28 40,25.649 40,22.75L44.5,22.75C44.914,22.75 45.25,22.414 45.25,22L45.25,17.5C45.25,17.086 44.914,16.75 44.5,16.75L32.5,16.75M10.75,36.25L18.25,36.25L18.25,45.25L11.5,45.25C11.086,45.25 10.75,44.914 10.75,44.5L10.75,36.25ZM10.75,39.25L18.25,39.25M10.75,42.25L18.25,42.25" style="fill:none;stroke:white;stroke-width:2px;"/>
                    </g>
                </g>
            </g>
        </g>
    </g>
</svg>
