<?xml version="1.0" encoding="UTF-8" standalone="no"?>
<!DOCTYPE svg PUBLIC "-//W3C//DTD SVG 1.1//EN" "http://www.w3.org/Graphics/SVG/1.1/DTD/svg11.dtd">
<svg width="100%" height="100%" viewBox="0 0 702 858" version="1.1" xmlns="http://www.w3.org/2000/svg" xmlns:xlink="http://www.w3.org/1999/xlink" xml:space="preserve" xmlns:serif="http://www.serif.com/" style="fill-rule:evenodd;clip-rule:evenodd;stroke-linecap:round;stroke-linejoin:round;">
    <g id="items" transform="matrix(1.07101,0,0,1.07101,-24.9233,-42.7337)">
        <g id="blend">
            <g id="g-root-cp_5_shape-5_v7zgvx3e61os-fill" transform="matrix(1,0,0,1,314.303,68)">
                <g id="cp_5_shape-5_v7zgvx3e61os-fill">
                    <g>
                        <path d="M27.697,292L15.697,292L15.697,160L27.697,160L27.697,292ZM32.297,28.191L27.697,28.191L27.697,160L15.697,160L15.697,28.191L11.017,28.191C10.237,28.191 9.747,27.341 10.137,26.661L20.86,10.448C21.256,9.849 22.136,9.851 22.53,10.451L33.177,26.661C33.577,27.341 33.087,28.191 32.297,28.191Z" style="fill:rgb(203,104,249);"/>
                    </g>
                </g>
            </g>
            <g id="g-root-cp_1_shape-1_dhbxh93e60w6-fill" transform="matrix(1,0,0,1,32,67.8164)">
                <g id="cp_1_shape-1_dhbxh93e60w6-fill">
                    <g>
                        <path d="M214,328.184L46,328.183C26.118,328.183 10,312.081 10,292.199L10,292.184L250,292.184C250,312.066 233.882,328.184 214,328.184ZM254.6,28.375L250,28.375L250,160.184L10,160.184C10,140.302 26.118,124.505 46,124.505L172,124.505C213.07,124.505 238,94.374 238,55.034L238,28.374L233.32,28.374C232.54,28.374 232.05,27.524 232.44,26.844L243.163,10.632C243.559,10.033 244.439,10.034 244.833,10.635L255.48,26.844C255.88,27.525 255.39,28.375 254.6,28.375ZM250,160.184L250,292.184L10,292.184L10,160.184L250,160.184Z" style="fill:rgb(255,231,17);"/>
                    </g>
                </g>
            </g>
            <g id="g-root-cp_3_shape-3_5vf3x3e62h4-fill" transform="matrix(1,0,0,1,284.303,68)">
                <g id="cp_3_shape-3_5vf3x3e62h4-fill">
                    <g>
                        <path d="M27.697,292L15.697,292L15.697,160L27.697,160L27.697,292ZM32.297,28.191L27.697,28.191L27.697,160L15.697,160L15.697,28.191L11.017,28.191C10.237,28.191 9.747,27.341 10.137,26.661L20.86,10.448C21.256,9.849 22.136,9.851 22.53,10.451L33.177,26.661C33.577,27.341 33.087,28.191 32.297,28.191Z" style="fill:rgb(251,103,98);"/>
                    </g>
                </g>
            </g>
            <g id="g-root-cp_3_shape-3_1_1lw5fst3e60p6-fill" transform="matrix(1,0,0,1,32,350)">
                <g id="cp_3_shape-3_1_1lw5fst3e60p6-fill">
                    <g>
                        <path d="M214,64.321C244,64.321 268,46 268,10L280,10L280,100.306L10,100.306C10,80.423 26.118,64.321 46,64.321L214,64.321Z" style="fill:rgb(251,103,98);"/>
                    </g>
                </g>
            </g>
            <g id="g-root-cp_5_shape-5_1_144vfb13e632c-fill" transform="matrix(1,0,0,1,320,350)">
                <g id="cp_5_shape-5_1_144vfb13e632c-fill">
                    <g>
                        <rect x="10" y="10" width="12" height="222" style="fill:rgb(203,104,249);"/>
                    </g>
                </g>
            </g>
            <g id="g-root-cp_3_shape-3_2_qu1e0t3e61hi-fill" transform="matrix(1,0,0,1,32,440)">
                <g id="cp_3_shape-3_2_qu1e0t3e61hi-fill">
                    <g>
                        <path d="M280,10L280,141.979L10,141.979L10,10L280,10ZM244,178.008L46,178.008C26.118,178.008 10,161.905 10,142.023L10,142.008L280,142.008C280,161.89 263.882,178.008 244,178.008Z" style="fill:rgb(251,103,98);"/>
                    </g>
                </g>
            </g>
            <g id="g-root-cp_5_shape-5_2_me7vwd3e629s-fill" transform="matrix(1,0,0,1,32,572)">
                <g id="cp_5_shape-5_2_me7vwd3e629s-fill">
                    <g>
                        <path d="M244,64.137C274,64.137 298,45.878 298,10L310,10L310,100L10,100C10,80.185 26.118,64.137 46,64.137L244,64.137Z" style="fill:rgb(203,104,249);"/>
                    </g>
                </g>
            </g>
            <g id="g-root-cp_5_shape-5_3_93dum53e60oy-fill" transform="matrix(1,0,0,1,32,662)">
                <g id="cp_5_shape-5_3_93dum53e60oy-fill">
                    <g>
                        <path d="M310,10L310,118L10,118L10,10L310,10ZM274,154.008L46,154.008C26.118,154.008 10,137.882 10,118L310,118C310,137.882 293.882,154.008 274,154.008Z" style="fill:rgb(203,104,249);"/>
                    </g>
                </g>
            </g>
            <g id="g-root-cp_2_shape-2_1ut1e7x3e622s-fill" transform="matrix(1,0,0,1,404.378,67.8164)">
                <g id="cp_2_shape-2_1ut1e7x3e622s-fill">
                    <g>
                        <path d="M51.622,328.184L219.622,328.184C239.504,328.184 255.622,312.081 255.622,292.199L255.622,292.184L15.622,292.184C15.622,312.066 31.74,328.184 51.622,328.184ZM11.022,28.375L15.622,28.375L15.622,160.184L255.622,160.184C255.622,140.302 239.505,124.505 219.623,124.505L93.622,124.505C52.552,124.505 27.622,94.374 27.622,55.034L27.622,28.374L32.302,28.374C33.082,28.374 33.572,27.524 33.182,26.844L22.459,10.632C22.063,10.033 21.184,10.034 20.79,10.635L10.142,26.844C9.742,27.525 10.232,28.375 11.022,28.375ZM15.622,160.184L15.622,292.184L255.622,292.184L255.622,160.184L15.622,160.184Z" style="fill:rgb(67,221,147);"/>
                    </g>
                </g>
            </g>
            <g id="g-root-cp_4_shape-4_18mkcot3e61am-fill" transform="matrix(1,0,0,1,374.383,68)">
                <g id="cp_4_shape-4_18mkcot3e61am-fill">
                    <g>
                        <path d="M15.623,292L27.623,292L27.623,160L15.623,160L15.623,292ZM11.022,28.191L15.622,28.191L15.622,160L27.622,160L27.622,28.191L32.302,28.191C33.082,28.191 33.572,27.341 33.182,26.661L22.459,10.448C22.063,9.849 21.184,9.851 20.79,10.451L10.142,26.661C9.742,27.341 10.232,28.191 11.022,28.191Z" style="fill:rgb(247,148,56);"/>
                    </g>
                </g>
            </g>
            <g id="g-root-cp_6_shape-6_146qukd3e622w-fill" transform="matrix(1,0,0,1,344.383,68)">
                <g id="cp_6_shape-6_146qukd3e622w-fill">
                    <g>
                        <path d="M15.623,292L27.623,292L27.623,160L15.623,160L15.623,292ZM11.022,28.191L15.622,28.191L15.622,160L27.622,160L27.622,28.191L32.302,28.191C33.082,28.191 33.572,27.341 33.182,26.661L22.459,10.448C22.063,9.849 21.184,9.851 20.79,10.451L10.142,26.661C9.742,27.341 10.232,28.191 11.022,28.191Z" style="fill:rgb(26,195,251);"/>
                    </g>
                </g>
            </g>
            <g id="g-root-cp_4_shape-4_1_qvwta53e60i2-fill" transform="matrix(1,0,0,1,380,350)">
                <g id="cp_4_shape-4_1_qvwta53e60i2-fill">
                    <g>
                        <path d="M76,64.321C46,64.321 22,46 22,10L10,10L10,100.306L280,100.306C280,80.423 263.882,64.321 244,64.321L76,64.321Z" style="fill:rgb(247,148,56);"/>
                    </g>
                </g>
            </g>
            <g id="g-root-cp_4_shape-4_2_94mssd3e62v8-fill" transform="matrix(1,0,0,1,380,440)">
                <g id="cp_4_shape-4_2_94mssd3e62v8-fill">
                    <g>
                        <path d="M10,10L10,142L280,142L280,10L10,10ZM46,178L244,178C263.882,178 280,161.898 280,142.016L280,142L10,142C10,161.882 26.118,178 46,178Z" style="fill:rgb(247,148,56);"/>
                    </g>
                </g>
            </g>
            <g id="g-root-cp_6_shape-6_1_1uuwth93e613a-fill" transform="matrix(1,0,0,1,350,350)">
                <g id="cp_6_shape-6_1_1uuwth93e613a-fill">
                    <g>
                        <rect x="10" y="10" width="12" height="222" style="fill:rgb(26,195,251);"/>
                    </g>
                </g>
            </g>
            <g id="g-root-cp_6_shape-6_2_1qf3bct3e61vk-fill" transform="matrix(1,0,0,1,350,572)">
                <g id="cp_6_shape-6_2_1qf3bct3e61vk-fill">
                    <g>
                        <path d="M76,64.321C46,64.321 22,46 22,10L10,10L10,100.306L310,100.306C310,80.423 293.882,64.321 274,64.321L76,64.321Z" style="fill:rgb(26,195,251);"/>
                    </g>
                </g>
            </g>
            <g id="g-root-cp_6_shape-6_3_1cu9oot3e7ev6-fill" transform="matrix(1,0,0,1,350,662)">
                <g id="cp_6_shape-6_3_1cu9oot3e7ev6-fill">
                    <g>
                        <path d="M10,10L10,118L310,118L310,10L10,10ZM46,154L274,154C293.882,154 310,137.898 310,118.016L310,118L10,118C10,137.882 26.118,154 46,154Z" style="fill:rgb(26,195,251);"/>
                    </g>
                </g>
            </g>
            <g id="g-root-tx_improvin_zlb5tp3drzf1-fill" transform="matrix(1,0,0,1,446,302)">
                <g id="tx_improvin_zlb5tp3drzf1-fill">
                    <g>
                        <g>
                            <g transform="matrix(1,0,0,1,21.9,31.2)">
                                <text x="0px" y="0px" style="font-family:'ArialMT', 'Arial', sans-serif;font-size:15px;fill:rgb(44,44,44);">Improving healthcare</text>
                            </g>
                            <g transform="matrix(1,0,0,1,12.33,49.2)">
                                <text x="0px" y="0px" style="font-family:'ArialMT', 'Arial', sans-serif;font-size:15px;fill:rgb(44,44,44);">communication through</text>
                            </g>
                            <g transform="matrix(1,0,0,1,19.38,67.2)">
                                <text x="0px" y="0px" style="font-family:'ArialMT', 'Arial', sans-serif;font-size:15px;fill:rgb(44,44,44);">OpenSIPS integration.</text>
                            </g>
                        </g>
                    </g>
                </g>
            </g>
            <g id="g-root-tx_enhancin_4ikjst3e7fgu-fill" transform="matrix(1,0,0,1,62,302)">
                <g id="tx_enhancin_4ikjst3e7fgu-fill">
                    <g>
                        <g>
                            <g transform="matrix(1,0,0,1,27.96,31.2)">
                                <text x="0px" y="0px" style="font-family:'ArialMT', 'Arial', sans-serif;font-size:15px;fill:rgb(44,44,44);">Enhancing call center</text>
                            </g>
                            <g transform="matrix(1,0,0,1,12.79,49.2)">
                                <text x="0px" y="0px" style="font-family:'ArialMT', 'Arial', sans-serif;font-size:15px;fill:rgb(44,44,44);">operations with OpenSIPS</text>
                            </g>
                            <g transform="matrix(1,0,0,1,60.86,67.2)">
                                <text x="0px" y="0px" style="font-family:'ArialMT', 'Arial', sans-serif;font-size:15px;fill:rgb(44,44,44);">technology<tspan x="71.44px " y="0px ">.</tspan></text>
                            </g>
                        </g>
                    </g>
                </g>
            </g>
            <g transform="matrix(1,0,0,1,95.18,522)">
                <g id="g-root-tx_financia_1q6co593eaa6g-fill">
                    <g id="tx_financia_1q6co593eaa6g-fill">
                        <g>
                            <g>
                                <text x="0px" y="0px" style="font-family:'Arial-BoldMT', 'Arial', sans-serif;font-weight:700;font-size:20px;fill:rgb(44,44,44);">Financial Services</text>
                            </g>
                        </g>
                    </g>
                </g>
            </g>
            <g id="g-root-tx_streamli_m9837h3ea8ll-fill" transform="matrix(1,0,0,1,59,524)">
                <g id="tx_streamli_m9837h3ea8ll-fill">
                    <g>
                        <g>
                            <g transform="matrix(1,0,0,1,15.72,31.2)">
                                <g transform="matrix(15,0,0,15,87.5391,0)">
                                </g>
                                <g transform="matrix(15,0,0,15,91.7065,0)">
                                </g>
                                <text x="0px" y="0px" style="font-family:'ArialMT', 'Arial', sans-serif;font-size:15px;fill:rgb(44,44,44);">Streamlining ﬁnancial services</text>
                            </g>
                            <g transform="matrix(1,0,0,1,34.12,49.2)">
                                <text x="0px" y="0px" style="font-family:'ArialMT', 'Arial', sans-serif;font-size:15px;fill:rgb(44,44,44);">with advanced OpenSIPS</text>
                            </g>
                            <g transform="matrix(1,0,0,1,84.63,67.2)">
                                <text x="0px" y="0px" style="font-family:'ArialMT', 'Arial', sans-serif;font-size:15px;fill:rgb(44,44,44);">solutions.</text>
                            </g>
                        </g>
                    </g>
                </g>
            </g>
            <g id="g-root-tx_optimizi_1q5qa7x3durye-fill" transform="matrix(1,0,0,1,425,524)">
                <g id="tx_optimizi_1q5qa7x3durye-fill">
                    <g>
                        <g>
                            <g transform="matrix(1,0,0,1,18.6,31.2)">
                                <text x="0px" y="0px" style="font-family:'ArialMT', 'Arial', sans-serif;font-size:15px;fill:rgb(44,44,44);">Optimizing e-commerce</text>
                            </g>
                            <g transform="matrix(1,0,0,1,14.78,49.2)">
                                <text x="0px" y="0px" style="font-family:'ArialMT', 'Arial', sans-serif;font-size:15px;fill:rgb(44,44,44);">platforms with OpenSIPS</text>
                            </g>
                            <g transform="matrix(1,0,0,1,58.07,67.2)">
                                <text x="0px" y="0px" style="font-family:'ArialMT', 'Arial', sans-serif;font-size:15px;fill:rgb(44,44,44);">capabilities.</text>
                            </g>
                        </g>
                    </g>
                </g>
            </g>
            <g id="g-root-tx_empoweri_vbqekd3dusjt-fill" transform="matrix(1,0,0,1,386,746)">
                <g id="tx_empoweri_vbqekd3dusjt-fill">
                    <g>
                        <g>
                            <g transform="matrix(1,0,0,1,12.82,28.2)">
                                <text x="0px" y="0px" style="font-family:'ArialMT', 'Arial', sans-serif;font-size:15px;fill:rgb(44,44,44);">Empowering SaaS providers with</text>
                            </g>
                            <g transform="matrix(1,0,0,1,36.01,46.2)">
                                <text x="0px" y="0px" style="font-family:'ArialMT', 'Arial', sans-serif;font-size:15px;fill:rgb(44,44,44);">robust OpenSIPS support.</text>
                            </g>
                        </g>
                    </g>
                </g>
            </g>
            <g transform="matrix(1,0,0,1,491.03,300)">
                <g id="g-root-tx_healthca_dcyp193ds0ec-fill">
                    <g id="tx_healthca_dcyp193ds0ec-fill">
                        <g>
                            <g>
                                <text x="0px" y="0px" style="font-family:'Arial-BoldMT', 'Arial', sans-serif;font-weight:700;font-size:20px;fill:rgb(44,44,44);">Healthcare</text>
                            </g>
                        </g>
                    </g>
                </g>
            </g>
            <g transform="matrix(1,0,0,1,97.8,744)">
                <g id="g-root-tx_telecomm_92rdj13ebmz2-fill">
                    <g id="tx_telecomm_92rdj13ebmz2-fill">
                        <g>
                            <g>
                                <text x="0px" y="0px" style="font-family:'Arial-BoldMT', 'Arial', sans-serif;font-weight:700;font-size:20px;fill:rgb(44,44,44);">T<tspan x="10.732px 21.855px " y="0px 0px ">el</tspan>ecommunications</text>
                            </g>
                        </g>
                    </g>
                </g>
            </g>
            <g transform="matrix(1,0,0,1,441.43,744)">
                <g id="g-root-tx_saasprov_meug593dury8-fill">
                    <g id="tx_saasprov_meug593dury8-fill">
                        <g>
                            <g>
                                <text x="0px" y="0px" style="font-family:'Arial-BoldMT', 'Arial', sans-serif;font-weight:700;font-size:20px;fill:rgb(44,44,44);">SaaS Providers</text>
                            </g>
                        </g>
                    </g>
                </g>
            </g>
            <g id="g-root-tx_advancin_qvac713ebmrz-fill" transform="matrix(1,0,0,1,68,746)">
                <g id="tx_advancin_qvac713ebmrz-fill">
                    <g>
                        <g>
                            <g transform="matrix(1,0,0,1,17.01,28.2)">
                                <text x="0px" y="0px" style="font-family:'ArialMT', 'Arial', sans-serif;font-size:15px;fill:rgb(44,44,44);">Advancing telecommunications</text>
                            </g>
                            <g transform="matrix(1,0,0,1,20.09,46.2)">
                                <text x="0px" y="0px" style="font-family:'ArialMT', 'Arial', sans-serif;font-size:15px;fill:rgb(44,44,44);">infrastructure using OpenSIPS.</text>
                            </g>
                        </g>
                    </g>
                </g>
            </g>
            <g transform="matrix(1,0,0,1,107.2,300)">
                <g id="g-root-tx_callcent_1hbc4zh3e7g91-fill">
                    <g id="tx_callcent_1hbc4zh3e7g91-fill">
                        <g>
                            <g>
                                <text x="0px" y="0px" style="font-family:'Arial-BoldMT', 'Arial', sans-serif;font-weight:700;font-size:20px;fill:rgb(44,44,44);">Call Centers</text>
                            </g>
                        </g>
                    </g>
                </g>
            </g>
            <g transform="matrix(1,0,0,1,466.36,522)">
                <g id="g-root-tx_ecommerc_mg3ebh3dtfyl-fill">
                    <g id="tx_ecommerc_mg3ebh3dtfyl-fill">
                        <g>
                            <g>
                                <text x="0px" y="0px" style="font-family:'Arial-BoldMT', 'Arial', sans-serif;font-weight:700;font-size:20px;fill:rgb(44,44,44);">E-Commerce</text>
                            </g>
                        </g>
                    </g>
                </g>
            </g>
            <g id="g-root-cp_5_shape-5_v7zgvx3e61os-stroke" transform="matrix(1,0,0,1,314.303,68)">
                <g id="cp_5_shape-5_v7zgvx3e61os-stroke">
                    <g>
                        <path d="M15.697,160L15.697,292M27.697,292L27.697,160M15.697,160L15.697,28.191L11.017,28.191C10.237,28.191 9.747,27.341 10.137,26.661L20.86,10.448C21.256,9.849 22.136,9.851 22.53,10.451L33.177,26.661C33.577,27.341 33.087,28.191 32.297,28.191L27.697,28.191L27.697,160" style="fill:none;stroke:rgb(44,44,44);stroke-width:2px;"/>
                    </g>
                </g>
            </g>
            <g id="g-root-cp_1_shape-1_dhbxh93e60w6-stroke" transform="matrix(1,0,0,1,32,67.8164)">
                <g id="cp_1_shape-1_dhbxh93e60w6-stroke">
                    <g>
                        <path d="M10,160.184C10,140.301 26.118,124.321 46,124.321L172,124.321C213.07,124.321 238,94.191 238,54.851L238,28.191L233.32,28.191C232.54,28.191 232.05,27.341 232.44,26.661L243.163,10.448C243.559,9.849 244.439,9.851 244.833,10.451L255.48,26.661C255.88,27.341 255.39,28.191 254.6,28.191L250,28.191L250,160.184M250,292.184C250,312.066 233.882,328.191 214,328.191L46,328.191C26.118,328.191 10,312.081 10,292.199L10,292.184M250,292.184L250,160.184M10,160.184L10,292.184" style="fill:none;stroke:rgb(44,44,44);stroke-width:2px;"/>
                    </g>
                </g>
            </g>
            <g id="g-root-cp_3_shape-3_5vf3x3e62h4-stroke" transform="matrix(1,0,0,1,284.303,68)">
                <g id="cp_3_shape-3_5vf3x3e62h4-stroke">
                    <g>
                        <path d="M15.697,160L15.697,292M27.697,292L27.697,160M15.697,160L15.697,28.191L11.017,28.191C10.237,28.191 9.747,27.341 10.137,26.661L20.86,10.448C21.256,9.849 22.136,9.851 22.53,10.451L33.177,26.661C33.577,27.341 33.087,28.191 32.297,28.191L27.697,28.191L27.697,160" style="fill:none;stroke:rgb(44,44,44);stroke-width:2px;"/>
                    </g>
                </g>
            </g>
            <g id="g-root-cp_3_shape-3_1_1lw5fst3e60p6-stroke" transform="matrix(1,0,0,1,32,350)">
                <g id="cp_3_shape-3_1_1lw5fst3e60p6-stroke">
                    <g>
                        <path d="M268,10C268,46 244,64.321 214,64.321L46,64.321C26.118,64.321 10,80.423 10,100.306M280,100.306L280,10" style="fill:none;stroke:rgb(44,44,44);stroke-width:2px;"/>
                    </g>
                </g>
            </g>
            <g id="g-root-cp_5_shape-5_1_144vfb13e632c-stroke" transform="matrix(1,0,0,1,320,350)">
                <g id="cp_5_shape-5_1_144vfb13e632c-stroke">
                    <g>
                        <path d="M10,10L10,232M22,232L22,10" style="fill:none;stroke:rgb(44,44,44);stroke-width:2px;"/>
                    </g>
                </g>
            </g>
            <g id="g-root-cp_3_shape-3_2_qu1e0t3e61hi-stroke" transform="matrix(1,0,0,1,32,440)">
                <g id="cp_3_shape-3_2_qu1e0t3e61hi-stroke">
                    <g>
                        <path d="M280,141.979L280,10M10,10L10,142M280,142.008C280,161.89 263.882,178.008 244,178.008L46,178.008C26.118,178.008 10,161.905 10,142.023L10,142.008" style="fill:none;stroke:rgb(44,44,44);stroke-width:2px;"/>
                    </g>
                </g>
            </g>
            <g id="g-root-cp_5_shape-5_2_me7vwd3e629s-stroke" transform="matrix(1,0,0,1,32,572)">
                <g id="cp_5_shape-5_2_me7vwd3e629s-stroke">
                    <g>
                        <path d="M298,10C298,45.878 274,64.137 244,64.137L46,64.137C26.118,64.137 10,80.185 10,100M310,100L310,10" style="fill:none;stroke:rgb(44,44,44);stroke-width:2px;"/>
                    </g>
                </g>
            </g>
            <g id="g-root-cp_5_shape-5_3_93dum53e60oy-stroke" transform="matrix(1,0,0,1,32,662)">
                <g id="cp_5_shape-5_3_93dum53e60oy-stroke">
                    <g>
                        <path d="M310,118L310,10M10,10L10,118M310,118C310,137.882 293.882,154.008 274,154.008L46,154.008C26.118,154.008 10,137.882 10,118" style="fill:none;stroke:rgb(44,44,44);stroke-width:2px;"/>
                    </g>
                </g>
            </g>
            <g id="g-root-cp_2_shape-2_1ut1e7x3e622s-stroke" transform="matrix(1,0,0,1,404.378,67.8164)">
                <g id="cp_2_shape-2_1ut1e7x3e622s-stroke">
                    <g>
                        <path d="M255.622,160.184C255.622,140.301 239.505,124.321 219.623,124.321L93.622,124.321C52.552,124.321 27.622,94.191 27.622,54.851L27.622,28.191L32.302,28.191C33.082,28.191 33.572,27.341 33.182,26.661L22.459,10.448C22.063,9.849 21.184,9.851 20.79,10.451L10.142,26.661C9.742,27.341 10.232,28.191 11.022,28.191L15.622,28.191L15.622,160.184M15.622,292.184C15.622,312.066 31.74,328.184 51.622,328.184L219.623,328.183C239.505,328.183 255.622,312.081 255.622,292.199L255.622,292.184M15.622,292.184L15.622,160.184M255.622,160.184L255.622,292.184" style="fill:none;stroke:rgb(44,44,44);stroke-width:2px;"/>
                    </g>
                </g>
            </g>
            <g id="g-root-cp_4_shape-4_18mkcot3e61am-stroke" transform="matrix(1,0,0,1,374.383,68)">
                <g id="cp_4_shape-4_18mkcot3e61am-stroke">
                    <g>
                        <path d="M27.622,160L27.622,292M15.622,292L15.622,160M27.622,160L27.622,28.191L32.302,28.191C33.082,28.191 33.572,27.341 33.182,26.661L22.459,10.448C22.063,9.849 21.184,9.851 20.79,10.451L10.142,26.661C9.742,27.341 10.232,28.191 11.022,28.191L15.622,28.191L15.622,160" style="fill:none;stroke:rgb(44,44,44);stroke-width:2px;"/>
                    </g>
                </g>
            </g>
            <g id="g-root-cp_6_shape-6_146qukd3e622w-stroke" transform="matrix(1,0,0,1,344.383,68)">
                <g id="cp_6_shape-6_146qukd3e622w-stroke">
                    <g>
                        <path d="M27.622,160L27.622,292M15.622,292L15.622,160M27.622,160L27.622,28.191L32.302,28.191C33.082,28.191 33.572,27.341 33.182,26.661L22.459,10.448C22.063,9.849 21.184,9.851 20.79,10.451L10.142,26.661C9.742,27.341 10.232,28.191 11.022,28.191L15.622,28.191L15.622,160" style="fill:none;stroke:rgb(44,44,44);stroke-width:2px;"/>
                    </g>
                </g>
            </g>
            <g id="g-root-cp_4_shape-4_1_qvwta53e60i2-stroke" transform="matrix(1,0,0,1,380,350)">
                <g id="cp_4_shape-4_1_qvwta53e60i2-stroke">
                    <g>
                        <path d="M22,10C22,46 46,64.321 76,64.321L244,64.321C263.882,64.321 280,80.423 280,100.306M10,100.306L10,10" style="fill:none;stroke:rgb(44,44,44);stroke-width:2px;"/>
                    </g>
                </g>
            </g>
            <g id="g-root-cp_4_shape-4_2_94mssd3e62v8-stroke" transform="matrix(1,0,0,1,380,440)">
                <g id="cp_4_shape-4_2_94mssd3e62v8-stroke">
                    <g>
                        <path d="M10,142L10,10M280,10L280,142M10,142C10,161.882 26.118,178.008 46,178.008L244,178.008C263.882,178.008 280,161.898 280,142.016L280,142" style="fill:none;stroke:rgb(44,44,44);stroke-width:2px;"/>
                    </g>
                </g>
            </g>
            <g id="g-root-cp_6_shape-6_1_1uuwth93e613a-stroke" transform="matrix(1,0,0,1,350,350)">
                <g id="cp_6_shape-6_1_1uuwth93e613a-stroke">
                    <g>
                        <path d="M22,10L22,232M10,232L10,10" style="fill:none;stroke:rgb(44,44,44);stroke-width:2px;"/>
                    </g>
                </g>
            </g>
            <g id="g-root-cp_6_shape-6_2_1qf3bct3e61vk-stroke" transform="matrix(1,0,0,1,350,572)">
                <g id="cp_6_shape-6_2_1qf3bct3e61vk-stroke">
                    <g>
                        <path d="M22,10C22,46 46,64.321 76,64.321L274,64.321C293.882,64.321 310,80.423 310,100.306M10,100.306L10,10" style="fill:none;stroke:rgb(44,44,44);stroke-width:2px;"/>
                    </g>
                </g>
            </g>
            <g id="g-root-cp_6_shape-6_3_1cu9oot3e7ev6-stroke" transform="matrix(1,0,0,1,350,662)">
                <g id="cp_6_shape-6_3_1cu9oot3e7ev6-stroke">
                    <g>
                        <path d="M10,118L10,10M310,10L310,118M10,118C10,137.882 26.118,154.008 46,154.008L274,154.008C293.882,154.008 310,137.898 310,118.016L310,118" style="fill:none;stroke:rgb(44,44,44);stroke-width:2px;"/>
                    </g>
                </g>
            </g>
            <g id="g-root-ic_chat_zlxjr13e7gun-stroke" transform="matrix(1,0,0,1,128,206)">
                <g id="ic_chat_zlxjr13e7gun-stroke">
                    <g>
                        <path d="M40.8,27.646L40.8,18.086C40.8,14.62 37.988,11.811 34.522,11.814L17.272,11.814C13.808,11.814 11,14.622 11,18.086L11,27.486C10.999,30.951 13.807,33.76 17.272,33.76L17.272,41.6L25.114,33.76L32.38,33.76M18.056,21.8C17.504,21.8 17.056,22.248 17.056,22.8C17.056,23.352 17.504,23.8 18.056,23.8C18.608,23.8 19.056,23.352 19.056,22.8C19.056,22.248 18.608,21.8 18.056,21.8M25.898,21.8C25.346,21.8 24.898,22.248 24.898,22.8C24.898,23.352 25.346,23.8 25.898,23.8C26.45,23.8 26.898,23.352 26.898,22.8C26.898,22.248 26.45,21.8 25.898,21.8M33.738,21.8C33.186,21.8 32.738,22.248 32.738,22.8C32.738,23.352 33.186,23.8 33.738,23.8C34.29,23.8 34.738,23.352 34.738,22.8C34.738,22.248 34.29,21.8 33.738,21.8M35.428,51.872L34.564,51.872C32.658,51.872 31.112,50.326 31.112,48.42L31.112,44.968C31.112,43.062 32.658,41.517 34.564,41.518L35.428,41.518C35.904,41.518 36.29,41.904 36.29,42.38L36.29,51.01C36.29,51.486 35.904,51.872 35.428,51.872ZM53.548,51.872L52.686,51.872C52.457,51.873 52.237,51.782 52.075,51.62C51.913,51.459 51.822,51.239 51.822,51.01L51.822,42.38C51.822,42.151 51.913,41.931 52.075,41.77C52.237,41.608 52.457,41.517 52.686,41.518L53.548,41.518C55.454,41.517 57,43.062 57,44.968L57,48.42C57,50.326 55.454,51.872 53.548,51.872L53.548,51.872ZM34.564,41.518C34.564,36.276 38.814,32.026 44.056,32.026L44.056,32.026C49.298,32.026 53.548,36.276 53.548,41.518M47.508,56.186L50.096,56.186C52.002,56.187 53.548,54.642 53.548,52.736L53.548,51.872" style="fill:none;stroke:rgb(44,44,44);stroke-width:2px;"/>
                    </g>
                </g>
            </g>
            <g id="g-root-ic_lock_mah1dp3eaarm-stroke" transform="matrix(1,0,0,1,143,428)">
                <g id="ic_lock_mah1dp3eaarm-stroke">
                    <g>
                        <path d="M35.526,45.496L15.378,45.496C13.07,45.494 11.2,43.622 11.2,41.314L11.2,15.182C11.2,12.874 13.07,11.002 15.378,11L46.738,11C49.047,11.001 50.918,12.873 50.918,15.182L50.918,27.854M11.196,19.166L50.918,19.166M11.196,36.516L35.526,36.516M11.196,27.854L50.918,27.854M27.42,19.166L27.42,45.496M39.052,19.166L39.052,33.206M39.672,45.104C39.672,43.462 41.004,42.13 42.646,42.13L53.83,42.13C55.471,42.132 56.8,43.463 56.8,45.104L56.8,54.026C56.8,55.667 55.471,56.998 53.83,57L42.646,57C41.004,57 39.672,55.668 39.672,54.026L39.672,45.104ZM48.238,33.2C45.019,33.267 42.463,35.929 42.528,39.148L42.528,42.124L53.948,42.124L53.948,39.154C54.016,35.933 51.459,33.267 48.238,33.2L48.238,33.2ZM48.238,47.482C47.359,47.446 46.547,47.948 46.186,48.749C45.825,49.551 45.987,50.492 46.596,51.126C47.205,51.76 48.138,51.961 48.954,51.633C49.77,51.304 50.304,50.513 50.304,49.634C50.327,48.469 49.403,47.506 48.238,47.482" style="fill:none;stroke:rgb(44,44,44);stroke-width:2px;"/>
                    </g>
                </g>
            </g>
            <g id="g-root-ic_cart_1umsqil3dutc7-stroke" transform="matrix(1,0,0,1,491,428)">
                <g id="ic_cart_1umsqil3dutc7-stroke">
                    <g>
                        <path d="M26.74,53.974C26.74,55.645 28.095,57 29.766,57C31.437,57 32.792,55.645 32.792,53.974C32.792,52.303 31.437,50.948 29.766,50.948C28.095,50.948 26.74,52.303 26.74,53.974M38.844,53.974C38.844,55.645 40.199,57 41.87,57C43.541,57 44.896,55.645 44.896,53.974C44.896,52.303 43.541,50.948 41.87,50.948C40.199,50.948 38.844,52.303 38.844,53.974M40,31.582L48.93,31.582M57,22L55.324,22C53.679,22.001 52.24,23.107 51.816,24.696L46.586,44.31C46.305,45.371 45.344,46.11 44.246,46.11L26.788,46.11M18.758,18.758C21.101,16.416 24.899,16.416 27.242,18.758M14.514,14.514C19.2,9.827 26.8,9.827 31.486,14.514M35,25L35,39C35,39 35,41 33,41L13,41C13,41 11,41 11,39L11,25C11,25 11,23 13,23L33,23C33,23 35,23 35,25M35,29L11,29M28,36L31,36" style="fill:none;stroke:rgb(44,44,44);stroke-width:2px;"/>
                    </g>
                </g>
            </g>
            <g id="g-root-ic_tabl_1hdu4hp3drz7y-stroke" transform="matrix(1,0,0,1,506,206)">
                <g id="ic_tabl_1hdu4hp3drz7y-stroke">
                    <g>
                        <path d="M25,49L29,49M38,53.01L14,53.01C12.345,52.997 11.008,51.655 11,50L11,14C11.005,12.345 12.345,11.005 14,11L40,11C41.657,11 43,12.343 43,14L43,41M34.852,45L15,45L15,16C15,15.448 15.448,15 16,15L38,15C38.552,15 39,15.448 39,16L39,37.874M57,57L51,49L51,39.882C51,36.494 46.838,33.282 43,30M45,43L40.5,38.5C39.671,37.672 38.329,37.672 37.5,38.5C36.832,39.388 36.832,40.612 37.5,41.5L43,48L43,50C43,52 47,57 47,57M21,37L33,37M21,41L33,41M33,24C33,23.448 32.552,23 32,23L29,23L29,20C29,19.448 28.552,19 28,19L26,19C25.448,19 25,19.448 25,20L25,23L22,23C21.448,23 21,23.448 21,24L21,26C21,26.552 21.448,27 22,27L25,27L25,30C25,30.552 25.448,31 26,31L28,31C28.552,31 29,30.552 29,30L29,27L32,27C32.552,27 33,26.552 33,26L33,24Z" style="fill:none;stroke:rgb(44,44,44);stroke-width:2px;"/>
                    </g>
                </g>
            </g>
            <g id="g-root-ic_towe_m7cr3x3dqk1t-stroke" transform="matrix(1,0,0,1,158,650)">
                <g id="ic_towe_m7cr3x3dqk1t-stroke">
                    <g>
                        <path d="M11,57L57,57M29,57L11,57L11,26C11,25.448 11.448,25 12,25L28,25C28.552,25 29,25.448 29,26L29,57ZM53,38C53,37.448 52.552,37 52,37L46,37C45.448,37 45,37.448 45,38L45,57L53,57L53,38ZM41,38C41,37.448 40.552,37 40,37L34,37C33.448,37 33,37.448 33,38L33,57L41,57L41,38ZM23,22C23,21.448 22.552,21 22,21L18,21C17.448,21 17,21.448 17,22L17,25L23,25L23,22ZM19,21L19,13M15,31L25,31M15,37L25,37M15,43L25,43M15,49L25,49M35,24C35,21.239 32.761,19 30,19M39,24C39,19.029 34.971,15 30,15M43,24C43,16.82 37.18,11 30,11" style="fill:none;stroke:rgb(44,44,44);stroke-width:2px;"/>
                    </g>
                </g>
            </g>
            <g id="g-root-ic_clou_hs5q2l3dw7pf-stroke" transform="matrix(1,0,0,1,476,650)">
                <g id="ic_clou_hs5q2l3dw7pf-stroke">
                    <g>
                        <path d="M11,47.98C11,46.323 12.343,44.98 14,44.98L28,44.98C29.657,44.98 31,46.323 31,47.98L31,53.98C31,55.637 29.657,56.98 28,56.98L14,56.98C12.343,56.98 11,55.637 11,53.98L11,47.98ZM17,50.24C16.586,50.24 16.25,50.576 16.25,50.99C16.25,51.404 16.586,51.74 17,51.74C17.414,51.74 17.75,51.404 17.75,50.99C17.75,50.576 17.414,50.24 17,50.24M25,50.98L23,50.98M37,47.98C37,46.323 38.343,44.98 40,44.98L54,44.98C55.657,44.98 57,46.323 57,47.98L57,53.98C57,55.637 55.657,56.98 54,56.98L40,56.98C38.343,56.98 37,55.637 37,53.98L37,47.98ZM43,50.24C42.586,50.24 42.25,50.576 42.25,50.99C42.25,51.404 42.586,51.74 43,51.74C43.414,51.74 43.75,51.404 43.75,50.99C43.75,50.576 43.414,50.24 43,50.24M51,50.98L49,50.98M31,39.98L31,28.678L27.292,32.386M37,28.678L37,39.98L40.624,36.356M44.706,33.02C44.706,33.02 51.778,32.1 51.778,25.162C51.78,23.029 50.913,20.988 49.377,19.509C47.841,18.029 45.769,17.239 43.638,17.32C41.497,12.779 36.549,10.267 31.619,11.22C26.69,12.172 23.033,16.346 22.738,21.358C21,20.994 19.191,21.433 17.813,22.552C16.435,23.672 15.634,25.353 15.634,27.128C15.634,33.114 21.92,33.02 21.92,33.02" style="fill:none;stroke:rgb(44,44,44);stroke-width:2px;"/>
                    </g>
                </g>
            </g>
        </g>
    </g>
</svg>
