<?xml version="1.0" encoding="UTF-8" standalone="no"?>
<!DOCTYPE svg PUBLIC "-//W3C//DTD SVG 1.1//EN" "http://www.w3.org/Graphics/SVG/1.1/DTD/svg11.dtd">
<svg width="100%" height="100%" viewBox="0 0 576 662" version="1.1" xmlns="http://www.w3.org/2000/svg" xmlns:xlink="http://www.w3.org/1999/xlink" xml:space="preserve" xmlns:serif="http://www.serif.com/" style="fill-rule:evenodd;clip-rule:evenodd;stroke-linecap:round;stroke-linejoin:round;">
    <g id="items" transform="matrix(1.09288,0,0,1.09288,-26.7484,-41.9495)">
        <g id="blend">
            <g id="g-root-cp_5_text-5_v9ua2m2tvn5x-fill" transform="matrix(1,0,0,1,50,50)">
                <g id="cp_5_text-5_v9ua2m2tvn5x-fill">
                    <g>
                        <rect x="10" y="10" width="228" height="144" style="fill:rgb(203,104,249);"/>
                    </g>
                </g>
            </g>
            <g id="g-root-cp_5_stick-5_4njqf22tvn5z-fill" transform="matrix(1,0,0,1,266,194)">
                <g id="cp_5_stick-5_4njqf22tvn5z-fill">
                    <g>
                        <rect x="10" y="10" width="12" height="348" style="fill:rgb(203,104,249);"/>
                    </g>
                </g>
            </g>
            <g id="g-root-cp_3_text-3_1ly08zi2tvm69-fill" transform="matrix(1,0,0,1,38,194)">
                <g id="cp_3_text-3_1ly08zi2tvm69-fill">
                    <g>
                        <rect x="10" y="10" width="228" height="168" style="fill:rgb(251,103,98);"/>
                    </g>
                </g>
            </g>
            <g id="g-root-cp_3_stick-3_vbppby2tvm6b-fill" transform="matrix(1,0,0,1,254,362)">
                <g id="cp_3_stick-3_vbppby2tvm6b-fill">
                    <g>
                        <rect x="10" y="10" width="12" height="180" style="fill:rgb(251,103,98);"/>
                    </g>
                </g>
            </g>
            <g id="g-root-cp_1_text-1_958nsu2tvle5-fill" transform="matrix(1,0,0,1,26,362)">
                <g id="cp_1_text-1_958nsu2tvle5-fill">
                    <g>
                        <rect x="10" y="10" width="228" height="144" style="fill:rgb(255,231,17);"/>
                    </g>
                </g>
            </g>
            <g id="g-root-cp_1_stick-1_1uuw7em2tvmrz-fill" transform="matrix(1,0,0,1,242,446)">
                <g id="cp_1_stick-1_1uuw7em2tvmrz-fill">
                    <g>
                        <rect x="10" y="10" width="12" height="96" style="fill:rgb(255,231,17);"/>
                    </g>
                </g>
            </g>
            <g id="g-root-cp_6_text-6_1cu92m62tx0jt-fill" transform="matrix(1,0,0,1,278,50)">
                <g id="cp_6_text-6_1cu92m62tx0jt-fill">
                    <g>
                        <rect x="10" y="10" width="228" height="144" style="fill:rgb(135,105,253);"/>
                    </g>
                </g>
            </g>
            <g id="g-root-cp_6_stick-6_m7yiym2tx0jv-fill" transform="matrix(1,0,0,1,278,194)">
                <g id="cp_6_stick-6_m7yiym2tx0jv-fill">
                    <g>
                        <rect x="10" y="10" width="12" height="348" style="fill:rgb(135,105,253);"/>
                    </g>
                </g>
            </g>
            <g id="g-root-cp_4_text-4_8wi0la2tx24t-fill" transform="matrix(1,0,0,1,290,194)">
                <g id="cp_4_text-4_8wi0la2tx24t-fill">
                    <g>
                        <rect x="10" y="10" width="228" height="144" style="fill:rgb(243,102,187);"/>
                    </g>
                </g>
            </g>
            <g id="g-root-cp_4_stick-4_1ums1a62tx0cv-fill" transform="matrix(1,0,0,1,290,338)">
                <g id="cp_4_stick-4_1ums1a62tx0cv-fill">
                    <g>
                        <rect x="10" y="10" width="12" height="204" style="fill:rgb(243,102,187);"/>
                    </g>
                </g>
            </g>
            <g id="g-root-cp_2_text-2_1cw4hvi2twzk9-fill" transform="matrix(1,0,0,1,302,338)">
                <g id="cp_2_text-2_1cw4hvi2twzk9-fill">
                    <g>
                        <rect x="10" y="10" width="228" height="156" style="fill:rgb(247,148,56);"/>
                    </g>
                </g>
            </g>
            <g id="g-root-cp_2_stick-2_v4uhdq2tx1xf-fill" transform="matrix(1,0,0,1,302,422)">
                <g id="cp_2_stick-2_v4uhdq2tx1xf-fill">
                    <g>
                        <rect x="10" y="10" width="12" height="120" style="fill:rgb(247,148,56);"/>
                    </g>
                </g>
            </g>
            <g id="g-root-cp_0_g-0_8ydfum2tx159-fill" transform="matrix(1,0,0,1,242,542)">
                <g id="cp_0_g-0_8ydfum2tx159-fill">
                    <g>
                        <path d="M33.994,61L46.01,86L58.005,61L33.994,61Z" style="fill:rgb(232,232,232);"/>
                    </g>
                </g>
                <g id="cp_0_g-0_8ydfum2tx159-fill1" serif:id="cp_0_g-0_8ydfum2tx159-fill">
                    <g>
                        <path d="M82,10L10,10L34,61L58.001,61L82,10Z" style="fill:rgb(232,232,232);"/>
                    </g>
                </g>
            </g>
            <g id="g-root-tx_allowspe_v2z24e2ub2tn-fill" transform="matrix(1,0,0,1,350,266)">
                <g id="tx_allowspe_v2z24e2ub2tn-fill">
                    <g>
                        <g>
                            <g transform="matrix(1,0,0,1,12,31.2)">
                                <text x="0px" y="0px" style="font-family:'ArialMT', 'Arial', sans-serif;font-size:15px;fill:rgb(44,44,44);">Allows personalized</text>
                            </g>
                            <g transform="matrix(1,0,0,1,12,49.2)">
                                <text x="0px" y="0px" style="font-family:'ArialMT', 'Arial', sans-serif;font-size:15px;fill:rgb(44,44,44);">sender IDs for brand</text>
                            </g>
                            <g transform="matrix(1,0,0,1,12,67.2)">
                                <text x="0px" y="0px" style="font-family:'ArialMT', 'Arial', sans-serif;font-size:15px;fill:rgb(44,44,44);">recognition.</text>
                            </g>
                        </g>
                    </g>
                </g>
            </g>
            <g id="g-root-tx_adherest_mg2p322tyej1-fill" transform="matrix(1,0,0,1,50,290)">
                <g id="tx_adherest_mg2p322tyej1-fill">
                    <g>
                        <g>
                            <g transform="matrix(1,0,0,1,14.95,31.2)">
                                <text x="0px" y="0px" style="font-family:'ArialMT', 'Arial', sans-serif;font-size:15px;fill:rgb(44,44,44);">Adheres to all telecom</text>
                            </g>
                            <g transform="matrix(1,0,0,1,60.83,49.2)">
                                <text x="0px" y="0px" style="font-family:'ArialMT', 'Arial', sans-serif;font-size:15px;fill:rgb(44,44,44);">regulations and</text>
                            </g>
                            <g transform="matrix(1,0,0,1,93.15,67.2)">
                                <text x="0px" y="0px" style="font-family:'ArialMT', 'Arial', sans-serif;font-size:15px;fill:rgb(44,44,44);">standards.</text>
                            </g>
                        </g>
                    </g>
                </g>
            </g>
            <g id="g-root-tx_dltregul_1qd7a0u2tyg3w-fill" transform="matrix(1,0,0,1,86,206)">
                <g id="tx_dltregul_1qd7a0u2tyg3w-fill">
                    <g>
                        <g>
                            <g transform="matrix(1,0,0,1,75.88,34)">
                                <text x="0px" y="0px" style="font-family:'Arial-BoldMT', 'Arial', sans-serif;font-weight:700;font-size:20px;fill:rgb(44,44,44);">DL<tspan x="25.176px 37.393px " y="0px 0px ">T </tspan>&amp;</text>
                            </g>
                            <g transform="matrix(1,0,0,1,30.4,58)">
                                <text x="0px" y="0px" style="font-family:'Arial-BoldMT', 'Arial', sans-serif;font-weight:700;font-size:20px;fill:rgb(44,44,44);">Regulatory</text>
                            </g>
                            <g transform="matrix(1,0,0,1,21.33,82)">
                                <text x="0px" y="0px" style="font-family:'Arial-BoldMT', 'Arial', sans-serif;font-weight:700;font-size:20px;fill:rgb(44,44,44);">Compliance</text>
                            </g>
                        </g>
                    </g>
                </g>
            </g>
            <g id="g-root-tx_facilita_vagr5q2u41l7-fill" transform="matrix(1,0,0,1,338,122)">
                <g id="tx_facilita_vagr5q2u41l7-fill">
                    <g>
                        <g>
                            <g transform="matrix(1,0,0,1,12,31.2)">
                                <text x="0px" y="0px" style="font-family:'ArialMT', 'Arial', sans-serif;font-size:15px;fill:rgb(44,44,44);">Facilitates easy</text>
                            </g>
                            <g transform="matrix(1,0,0,1,12,49.2)">
                                <text x="0px" y="0px" style="font-family:'ArialMT', 'Arial', sans-serif;font-size:15px;fill:rgb(44,44,44);">integration with</text>
                            </g>
                            <g transform="matrix(1,0,0,1,12,67.2)">
                                <text x="0px" y="0px" style="font-family:'ArialMT', 'Arial', sans-serif;font-size:15px;fill:rgb(44,44,44);">various platforms.</text>
                            </g>
                        </g>
                    </g>
                </g>
            </g>
            <g id="g-root-tx_offersro_1hf2dfi2twzyi-fill" transform="matrix(1,0,0,1,62,122)">
                <g id="tx_offersro_1hf2dfi2twzyi-fill">
                    <g>
                        <g>
                            <g transform="matrix(1,0,0,1,19.85,31.2)">
                                <g transform="matrix(15,0,0,15,11.6675,0)">
                                </g>
                                <g transform="matrix(15,0,0,15,15.6738,0)">
                                </g>
                                <text x="0px" y="0px" style="font-family:'ArialMT', 'Arial', sans-serif;font-size:15px;fill:rgb(44,44,44);">Oﬀers robust security</text>
                            </g>
                            <g transform="matrix(1,0,0,1,43.25,49.2)">
                                <text x="0px" y="0px" style="font-family:'ArialMT', 'Arial', sans-serif;font-size:15px;fill:rgb(44,44,44);">measures for OTP</text>
                            </g>
                            <g transform="matrix(1,0,0,1,129.15,67.2)">
                                <text x="0px" y="0px" style="font-family:'ArialMT', 'Arial', sans-serif;font-size:15px;fill:rgb(44,44,44);">SMS.</text>
                            </g>
                        </g>
                    </g>
                </g>
            </g>
            <g id="g-root-tx_apisdksu_1qapdoe2u42ki-fill" transform="matrix(1,0,0,1,338,62)">
                <g id="tx_apisdksu_1qapdoe2u42ki-fill">
                    <g>
                        <g>
                            <g transform="matrix(1,0,0,1,12,34)">
                                <text x="0px" y="0px" style="font-family:'Arial-BoldMT', 'Arial', sans-serif;font-weight:700;font-size:20px;fill:rgb(44,44,44);">API &amp; SDK</text>
                            </g>
                            <g transform="matrix(1,0,0,1,12,58)">
                                <text x="0px" y="0px" style="font-family:'Arial-BoldMT', 'Arial', sans-serif;font-weight:700;font-size:20px;fill:rgb(44,44,44);">Support</text>
                            </g>
                        </g>
                    </g>
                </g>
            </g>
            <g id="g-root-tx_multirou_znscxq2ucfls-fill" transform="matrix(1,0,0,1,362,350)">
                <g id="tx_multirou_znscxq2ucfls-fill">
                    <g>
                        <g>
                            <g transform="matrix(1,0,0,1,12,34)">
                                <text x="0px" y="0px" style="font-family:'Arial-BoldMT', 'Arial', sans-serif;font-weight:700;font-size:20px;fill:rgb(44,44,44);">Multi-Route</text>
                            </g>
                            <g transform="matrix(1,0,0,1,12,58)">
                                <text x="0px" y="0px" style="font-family:'Arial-BoldMT', 'Arial', sans-serif;font-weight:700;font-size:20px;fill:rgb(44,44,44);">Redundancy</text>
                            </g>
                        </g>
                    </g>
                </g>
            </g>
            <g id="g-root-tx_realtime_1hefwce2u179r-fill" transform="matrix(1,0,0,1,50,374)">
                <g id="tx_realtime_1hefwce2u179r-fill">
                    <g>
                        <g>
                            <g transform="matrix(1,0,0,1,58.68,34)">
                                <text x="0px" y="0px" style="font-family:'Arial-BoldMT', 'Arial', sans-serif;font-weight:700;font-size:20px;fill:rgb(44,44,44);">Real-T<tspan x="60.762px 66.318px " y="0px 0px ">im</tspan>e</text>
                            </g>
                            <g transform="matrix(1,0,0,1,13.05,58)">
                                <text x="0px" y="0px" style="font-family:'Arial-BoldMT', 'Arial', sans-serif;font-weight:700;font-size:20px;fill:rgb(44,44,44);">Delivery Engine</text>
                            </g>
                        </g>
                    </g>
                </g>
            </g>
            <g id="g-root-tx_provides_1ur5cvy2ucgzl-fill" transform="matrix(1,0,0,1,362,410)">
                <g id="tx_provides_1ur5cvy2ucgzl-fill">
                    <g>
                        <g>
                            <g transform="matrix(1,0,0,1,12,28.2)">
                                <text x="0px" y="0px" style="font-family:'ArialMT', 'Arial', sans-serif;font-size:15px;fill:rgb(44,44,44);">Provides backup</text>
                            </g>
                            <g transform="matrix(1,0,0,1,12,46.2)">
                                <text x="0px" y="0px" style="font-family:'ArialMT', 'Arial', sans-serif;font-size:15px;fill:rgb(44,44,44);">routes for</text>
                            </g>
                            <g transform="matrix(1,0,0,1,12,64.2)">
                                <text x="0px" y="0px" style="font-family:'ArialMT', 'Arial', sans-serif;font-size:15px;fill:rgb(44,44,44);">uninterrupted SMS</text>
                            </g>
                            <g transform="matrix(1,0,0,1,12,82.2)">
                                <text x="0px" y="0px" style="font-family:'ArialMT', 'Arial', sans-serif;font-size:15px;fill:rgb(44,44,44);">service.</text>
                            </g>
                        </g>
                    </g>
                </g>
            </g>
            <g id="g-root-tx_guarante_1useb262u1a0w-fill" transform="matrix(1,0,0,1,62,434)">
                <g id="tx_guarante_1useb262u1a0w-fill">
                    <g>
                        <g>
                            <g transform="matrix(1,0,0,1,13.92,31.2)">
                                <text x="0px" y="0px" style="font-family:'ArialMT', 'Arial', sans-serif;font-size:15px;fill:rgb(44,44,44);">Guarantees instant</text>
                            </g>
                            <g transform="matrix(1,0,0,1,21.98,49.2)">
                                <text x="0px" y="0px" style="font-family:'ArialMT', 'Arial', sans-serif;font-size:15px;fill:rgb(44,44,44);">OTP<tspan x="30.564px 34.731px " y="0px 0px "> S</tspan>MS delivery</text>
                            </g>
                            <g transform="matrix(1,0,0,1,67.7,67.2)">
                                <text x="0px" y="0px" style="font-family:'ArialMT', 'Arial', sans-serif;font-size:15px;fill:rgb(44,44,44);">worldwide.</text>
                            </g>
                        </g>
                    </g>
                </g>
            </g>
            <g id="g-root-tx_enterpri_mb2we62tx1qh-fill" transform="matrix(1,0,0,1,74,62)">
                <g id="tx_enterpri_mb2we62tx1qh-fill">
                    <g>
                        <g>
                            <g transform="matrix(1,0,0,1,51.83,34)">
                                <text x="0px" y="0px" style="font-family:'Arial-BoldMT', 'Arial', sans-serif;font-weight:700;font-size:20px;fill:rgb(44,44,44);">Enterprise-</text>
                            </g>
                            <g transform="matrix(1,0,0,1,19.45,58)">
                                <text x="0px" y="0px" style="font-family:'Arial-BoldMT', 'Arial', sans-serif;font-weight:700;font-size:20px;fill:rgb(44,44,44);">Grade Security</text>
                            </g>
                        </g>
                    </g>
                </g>
            </g>
            <g id="g-root-tx_customse_1lz975q2u9o96-fill" transform="matrix(1,0,0,1,350,206)">
                <g id="tx_customse_1lz975q2u9o96-fill">
                    <g>
                        <g>
                            <g transform="matrix(1,0,0,1,12,34)">
                                <text x="0px" y="0px" style="font-family:'Arial-BoldMT', 'Arial', sans-serif;font-weight:700;font-size:20px;fill:rgb(44,44,44);">Custom Sender</text>
                            </g>
                            <g transform="matrix(1,0,0,1,12,58)">
                                <text x="0px" y="0px" style="font-family:'Arial-BoldMT', 'Arial', sans-serif;font-weight:700;font-size:20px;fill:rgb(44,44,44);">ID</text>
                            </g>
                        </g>
                    </g>
                </g>
            </g>
            <g id="g-root-cp_5_text-5_v9ua2m2tvn5x-stroke" transform="matrix(1,0,0,1,50,50)">
                <g id="cp_5_text-5_v9ua2m2tvn5x-stroke">
                    <g>
                        <path d="M10,154L10,10L238,10L238,154" style="fill:none;stroke:rgb(44,44,44);stroke-width:2px;"/>
                    </g>
                </g>
            </g>
            <g id="g-root-cp_5_stick-5_4njqf22tvn5z-stroke" transform="matrix(1,0,0,1,266,194)">
                <g id="cp_5_stick-5_4njqf22tvn5z-stroke">
                    <g>
                        <path d="M21.996,358L21.996,10" style="fill:none;stroke:rgb(44,44,44);stroke-width:2px;"/>
                    </g>
                </g>
            </g>
            <g id="g-root-cp_3_text-3_1ly08zi2tvm69-stroke" transform="matrix(1,0,0,1,38,194)">
                <g id="cp_3_text-3_1ly08zi2tvm69-stroke">
                    <g>
                        <path d="M10,178L10,10L238,10L238,178" style="fill:none;stroke:rgb(44,44,44);stroke-width:2px;"/>
                    </g>
                </g>
            </g>
            <g id="g-root-cp_3_stick-3_vbppby2tvm6b-stroke" transform="matrix(1,0,0,1,254,362)">
                <g id="cp_3_stick-3_vbppby2tvm6b-stroke">
                    <g>
                        <path d="M21.996,190L21.996,10" style="fill:none;stroke:rgb(44,44,44);stroke-width:2px;"/>
                    </g>
                </g>
            </g>
            <g id="g-root-cp_1_text-1_958nsu2tvle5-stroke" transform="matrix(1,0,0,1,26,362)">
                <g id="cp_1_text-1_958nsu2tvle5-stroke">
                    <g>
                        <path d="M238,154L238,10L10,10L10,154L226,154" style="fill:none;stroke:rgb(44,44,44);stroke-width:2px;"/>
                    </g>
                </g>
            </g>
            <g id="g-root-cp_1_stick-1_1uuw7em2tvmrz-stroke" transform="matrix(1,0,0,1,242,446)">
                <g id="cp_1_stick-1_1uuw7em2tvmrz-stroke">
                    <g>
                        <path d="M21.996,106L21.996,10M10,106L10,70" style="fill:none;stroke:rgb(44,44,44);stroke-width:2px;"/>
                    </g>
                </g>
            </g>
            <g id="g-root-cp_6_text-6_1cu92m62tx0jt-stroke" transform="matrix(1,0,0,1,278,50)">
                <g id="cp_6_text-6_1cu92m62tx0jt-stroke">
                    <g>
                        <path d="M238,154L238,10L10,10L10,154" style="fill:none;stroke:rgb(44,44,44);stroke-width:2px;"/>
                    </g>
                </g>
            </g>
            <g id="g-root-cp_6_stick-6_m7yiym2tx0jv-stroke" transform="matrix(1,0,0,1,278,194)">
                <g id="cp_6_stick-6_m7yiym2tx0jv-stroke">
                    <g>
                        <path d="M10.004,358L10.004,10" style="fill:none;stroke:rgb(44,44,44);stroke-width:2px;"/>
                    </g>
                </g>
            </g>
            <g id="g-root-cp_4_text-4_8wi0la2tx24t-stroke" transform="matrix(1,0,0,1,290,194)">
                <g id="cp_4_text-4_8wi0la2tx24t-stroke">
                    <g>
                        <path d="M238,154L238,10L10,10L10,154" style="fill:none;stroke:rgb(44,44,44);stroke-width:2px;"/>
                    </g>
                </g>
            </g>
            <g id="g-root-cp_4_stick-4_1ums1a62tx0cv-stroke" transform="matrix(1,0,0,1,290,338)">
                <g id="cp_4_stick-4_1ums1a62tx0cv-stroke">
                    <g>
                        <path d="M10.004,214L10.004,10" style="fill:none;stroke:rgb(44,44,44);stroke-width:2px;"/>
                    </g>
                </g>
            </g>
            <g id="g-root-cp_2_text-2_1cw4hvi2twzk9-stroke" transform="matrix(1,0,0,1,302,338)">
                <g id="cp_2_text-2_1cw4hvi2twzk9-stroke">
                    <g>
                        <path d="M10,166L10,10L238,10L238,166L22,166" style="fill:none;stroke:rgb(44,44,44);stroke-width:2px;"/>
                    </g>
                </g>
            </g>
            <g id="g-root-cp_2_stick-2_v4uhdq2tx1xf-stroke" transform="matrix(1,0,0,1,302,422)">
                <g id="cp_2_stick-2_v4uhdq2tx1xf-stroke">
                    <g>
                        <path d="M10.004,130L10.004,10M22,130L22,82" style="fill:none;stroke:rgb(44,44,44);stroke-width:2px;"/>
                    </g>
                </g>
            </g>
            <g id="g-root-cp_0_g-0_8ydfum2tx159-stroke" transform="matrix(1,0,0,1,242,542)">
                <g id="cp_0_g-0_8ydfum2tx159-stroke">
                    <g>
                        <path d="M33.994,61L46.01,86L58.005,61L33.994,61Z" style="fill:none;stroke:rgb(44,44,44);stroke-width:2px;"/>
                    </g>
                </g>
                <g id="cp_0_g-0_8ydfum2tx159-stroke1" serif:id="cp_0_g-0_8ydfum2tx159-stroke">
                    <g>
                        <path d="M82,10L10,10L34,61L58.001,61L82,10Z" style="fill:none;stroke:rgb(44,44,44);stroke-width:2px;"/>
                    </g>
                </g>
            </g>
            <g id="g-root-ic_game_1d3m6wu2tygp2-stroke" transform="matrix(1,0,0,1,218,206)">
                <g id="ic_game_1d3m6wu2tygp2-stroke">
                    <g>
                        <path d="M33.32,22.45L31.098,25.862C30.897,26.17 30.568,26.37 30.202,26.406C29.837,26.443 29.475,26.311 29.218,26.049L24.55,21.282C24.293,21.019 24.17,20.653 24.214,20.289C24.258,19.924 24.466,19.599 24.778,19.405L28.237,17.256L30.832,14.713L33.055,11.301C33.255,10.993 33.585,10.793 33.95,10.757C34.316,10.72 34.678,10.852 34.934,11.115L39.601,15.879C39.858,16.141 39.982,16.506 39.938,16.871C39.894,17.236 39.687,17.561 39.375,17.755L35.916,19.9L33.32,22.45ZM36.709,19.761L44.579,27.799C45.593,28.835 45.576,30.497 44.541,31.511C43.504,32.525 41.843,32.508 40.828,31.473L32.958,23.434M26.421,45.25L26.421,35.874C26.421,32.146 23.398,29.124 19.671,29.124L19.671,29.123C15.943,29.124 12.921,32.146 12.921,35.874L12.921,45.25M17.806,40L19.66,41.5L21.536,40.042M17.421,35.499L17.421,36.999M21.921,35.499L21.921,36.999M10.671,45.25L28.527,45.25M17.796,17.374L19.296,19.624M14.796,23.374L17.796,24.124M32.031,24.427L26.229,18.504M34.399,21.217L29.557,16.273M37.967,18.629L32.151,12.688" style="fill:none;stroke:rgb(44,44,44);stroke-width:2px;"/>
                    </g>
                </g>
            </g>
            <g id="g-root-ic_stac_1cvi0se2ub2mk-stroke" transform="matrix(1,0,0,1,302,206)">
                <g id="ic_stac_1cvi0se2ub2mk-stroke">
                    <g>
                        <path d="M27.925,31.3C29.747,31.3 31.225,29.822 31.225,28C31.225,26.177 29.747,24.7 27.925,24.7C26.102,24.7 24.625,26.177 24.625,28C24.625,29.822 26.102,31.3 27.925,31.3ZM21.175,40.45C21.175,36.7 24.175,33.7 27.925,33.7C31.675,33.7 34.675,36.7 34.675,40.45L21.175,40.45ZM40.375,44.95L15.625,44.95C13.075,44.95 11.125,43 11.125,40.45L11.125,24.7C11.125,22.15 13.075,20.2 15.625,20.2L40.375,20.2C42.925,20.2 44.875,22.15 44.875,24.7L44.875,40.45C44.875,42.85 42.775,44.95 40.375,44.95ZM15.475,15.55L40.375,15.55M15.475,15.55L40.375,15.55M19.225,11.05L36.625,11.05" style="fill:none;stroke:rgb(44,44,44);stroke-width:2px;"/>
                    </g>
                </g>
            </g>
            <g id="g-root-ic_1_qteav22uciki-stroke" transform="matrix(1,0,0,1,314,350)">
                <g id="ic_1_qteav22uciki-stroke">
                    <g>
                        <path d="M15.25,10.75L22.75,10.75C22.75,10.75 24.25,10.75 24.25,12.25L24.25,21.25C24.25,21.25 24.25,22.75 22.75,22.75L15.25,22.75C15.25,22.75 13.75,22.75 13.75,21.25L13.75,12.25C13.75,12.25 13.75,10.75 15.25,10.75M15.25,22.75L15.25,24.25M22.75,22.75L22.75,24.25M16,19.375C16.207,19.375 16.375,19.543 16.375,19.75M15.625,19.75C15.625,19.543 15.793,19.375 16,19.375M16,20.125C15.793,20.125 15.625,19.957 15.625,19.75M16.375,19.75C16.375,19.957 16.207,20.125 16,20.125M22,19.375C22.207,19.375 22.375,19.543 22.375,19.75M21.625,19.75C21.625,19.543 21.793,19.375 22,19.375M22,20.125C21.793,20.125 21.625,19.957 21.625,19.75M22.375,19.75C22.375,19.957 22.207,20.125 22,20.125M13.75,16.75L24.25,16.75M10.75,12.25L10.75,15.25M27.25,12.25L27.25,15.25M33.25,31.75L40.75,31.75C40.75,31.75 42.25,31.75 42.25,33.25L42.25,42.25C42.25,42.25 42.25,43.75 40.75,43.75L33.25,43.75C33.25,43.75 31.75,43.75 31.75,42.25L31.75,33.25C31.75,33.25 31.75,31.75 33.25,31.75M33.25,43.75L33.25,45.25M40.75,43.75L40.75,45.25M34,40.375C34.207,40.375 34.375,40.543 34.375,40.75M33.625,40.75C33.625,40.543 33.793,40.375 34,40.375M34,41.125C33.793,41.125 33.625,40.957 33.625,40.75M34.375,40.75C34.375,40.957 34.207,41.125 34,41.125M40,40.375C40.207,40.375 40.375,40.543 40.375,40.75M39.625,40.75C39.625,40.543 39.793,40.375 40,40.375M40,41.125C39.793,41.125 39.625,40.957 39.625,40.75M40.375,40.75C40.375,40.957 40.207,41.125 40,41.125M31.75,37.75L42.25,37.75M28.75,33.25L28.75,36.25M45.25,33.25L45.25,36.25M25.161,37.675C21.972,36.204 19.93,33.012 19.931,29.5L19.931,28.75M28.931,20.5C32.952,20.499 36.486,23.164 37.59,27.031M34.546,26.095L37.587,27.031L38.522,23.989M22.181,31L19.931,28.75L17.681,31" style="fill:none;stroke:rgb(44,44,44);stroke-width:2px;"/>
                    </g>
                </g>
            </g>
            <g id="g-root-ic_quar_8vvji62u2nm1-stroke" transform="matrix(1,0,0,1,206,374)">
                <g id="ic_quar_8vvji62u2nm1-stroke">
                    <g>
                        <path d="M27.357,30.571L27.357,16.429C35.168,16.429 41.5,22.761 41.5,30.571L27.357,30.571ZM23.5,11.286L31.214,11.286M27.357,11.286L27.357,16.429M40.214,15.143L42.786,17.714M17.354,20.569L20.08,23.294M13.214,30.571L17.071,30.571M17.354,40.574L20.08,37.849M28,40.857L28,44.714M37.103,37.103L39.829,39.829" style="fill:none;stroke:rgb(44,44,44);stroke-width:2px;"/>
                    </g>
                </g>
            </g>
            <g id="g-root-ic_open_4g21dq2u5f5w-stroke" transform="matrix(1,0,0,1,290,62)">
                <g id="ic_open_4g21dq2u5f5w-stroke">
                    <g>
                        <path d="M25.362,40.533C24.865,40.532 24.39,40.334 24.041,39.981C23.692,39.628 23.498,39.151 23.503,38.655C23.514,37.635 24.343,36.814 25.363,36.814L30.718,36.814C31.744,36.816 32.575,37.648 32.575,38.674L32.575,38.674C32.574,39.7 31.743,40.532 30.716,40.533L25.362,40.533ZM44.875,33.151L44.875,43.018C44.875,43.828 44.219,44.484 43.41,44.484L12.65,44.484C11.841,44.484 11.185,43.827 11.185,43.018L11.185,33.151M44.875,33.151L11.185,33.151M11.125,18.109L11.125,12.982C11.125,12.172 11.781,11.517 12.591,11.517L43.349,11.517C44.16,11.517 44.815,12.172 44.815,12.982L44.815,18.109M23.128,25.37C22.506,26.264 21.625,26.947 20.605,27.328L20.587,33.151L16.795,33.151L16.815,27.316C14.731,26.522 13.357,24.521 13.364,22.292C13.37,20.062 14.757,18.07 16.845,17.289L16.834,21.354L18.724,23.256L20.623,21.365L20.635,17.301C22.176,17.888 23.361,19.152 23.848,20.728C24.334,22.305 24.067,24.017 23.125,25.37L23.128,25.37ZM26.407,33.151L26.427,27.646L31.104,27.649L31.104,33.151L26.407,33.151ZM26.761,17.29L30.773,17.29L30.773,19.27C30.773,20.378 29.875,21.276 28.767,21.276C27.659,21.276 26.761,20.378 26.761,19.27L26.761,17.29ZM28.756,21.279L28.756,27.646M40.091,25.445C42.045,24.492 43.073,22.308 42.564,20.194C42.055,18.081 40.145,16.605 37.971,16.646C35.797,16.687 33.944,18.233 33.514,20.365C33.085,22.496 34.194,24.639 36.182,25.519L36.172,33.151L40.091,33.151L40.091,25.445ZM36.314,21.279C36.314,22.242 37.095,23.023 38.059,23.023C39.023,23.023 39.804,22.242 39.803,21.279C39.804,20.315 39.023,19.534 38.059,19.534C37.095,19.534 36.314,20.315 36.314,21.279" style="fill:none;stroke:rgb(44,44,44);stroke-width:2px;"/>
                    </g>
                </g>
            </g>
            <g id="g-root-ic_lock_91hta62tx2bn-stroke" transform="matrix(1,0,0,1,230,62)">
                <g id="ic_lock_91hta62tx2bn-stroke">
                    <g>
                        <path d="M31.75,33.251L45.25,33.251L45.25,45.25L31.75,45.25L31.75,33.251ZM36.625,39.344C36.625,40.38 37.464,41.219 38.5,41.219C39.536,41.219 40.375,40.38 40.375,39.344C40.375,38.309 39.536,37.469 38.5,37.469C37.464,37.469 36.625,38.309 36.625,39.344ZM42.25,31C42.25,28.929 40.571,27.25 38.5,27.25C36.429,27.25 34.75,28.929 34.75,31L34.75,33.25L42.25,33.25L42.25,31ZM21.25,45.25L10.75,45.25L10.75,24.25C10.75,23.422 11.422,22.75 12.25,22.75L19.75,22.75C20.578,22.75 21.25,23.422 21.25,24.25L21.25,45.25ZM19.75,22.75L19.75,17.237C19.751,16.94 19.927,16.671 20.2,16.552L32.2,11.218C32.432,11.117 32.698,11.139 32.91,11.277C33.122,11.415 33.249,11.651 33.25,11.903L33.25,26.5M18.25,45.25L18.25,41.5C18.25,41.086 17.914,40.75 17.5,40.75L14.5,40.75C14.086,40.75 13.75,41.086 13.75,41.5L13.75,45.25M10.75,27.25L16.75,27.25M28.75,18.25L33.25,18.25M25.75,21.25L33.25,21.25M10.75,30.25L13.75,30.25M22.75,15.416L22.75,10.75M21.25,45.25L28.75,45.25" style="fill:none;stroke:rgb(44,44,44);stroke-width:2px;"/>
                    </g>
                </g>
            </g>
        </g>
    </g>
</svg>
