<?xml version="1.0" encoding="UTF-8" standalone="no"?>
<!DOCTYPE svg PUBLIC "-//W3C//DTD SVG 1.1//EN" "http://www.w3.org/Graphics/SVG/1.1/DTD/svg11.dtd">
<svg width="100%" height="100%" viewBox="0 0 702 930" version="1.1" xmlns="http://www.w3.org/2000/svg" xmlns:xlink="http://www.w3.org/1999/xlink" xml:space="preserve" xmlns:serif="http://www.serif.com/" style="fill-rule:evenodd;clip-rule:evenodd;stroke-linecap:round;stroke-linejoin:round;">
    <g id="items" transform="matrix(1.08901,0,0,1.08901,-31.2427,-61.9843)">
        <g id="blend">
            <g id="g-root-cp_5_shape-5_1hbc1xa23w1s-fill" transform="matrix(1,0,0,1,314.303,104)">
                <g id="cp_5_shape-5_1hbc1xa23w1s-fill">
                    <g>
                        <path d="M27.697,292L15.697,292L15.697,160L27.697,160L27.697,292ZM32.297,28.191L27.697,28.191L27.697,160L15.697,160L15.697,28.191L11.017,28.191C10.237,28.191 9.747,27.341 10.137,26.661L20.86,10.448C21.256,9.849 22.136,9.851 22.53,10.451L33.177,26.661C33.577,27.341 33.087,28.191 32.297,28.191Z" style="fill:rgb(247,148,56);"/>
                    </g>
                </g>
            </g>
            <g id="g-root-cp_1_shape-1_htei0u23wui-fill" transform="matrix(1,0,0,1,32,103.816)">
                <g id="cp_1_shape-1_htei0u23wui-fill">
                    <g>
                        <path d="M214,328.184L46,328.183C26.118,328.183 10,312.081 10,292.199L10,292.184L250,292.184C250,312.066 233.882,328.184 214,328.184ZM254.6,28.375L250,28.375L250,160.184L10,160.184C10,140.302 26.118,124.505 46,124.505L172,124.505C213.07,124.505 238,94.374 238,55.034L238,28.374L233.32,28.374C232.54,28.374 232.05,27.524 232.44,26.844L243.163,10.632C243.559,10.033 244.439,10.034 244.833,10.635L255.48,26.844C255.88,27.525 255.39,28.375 254.6,28.375ZM250,160.184L250,292.184L10,292.184L10,160.184L250,160.184Z" style="fill:rgb(67,221,147);"/>
                    </g>
                </g>
            </g>
            <g id="g-root-cp_3_shape-3_1q880ce23wng-fill" transform="matrix(1,0,0,1,284.303,104)">
                <g id="cp_3_shape-3_1q880ce23wng-fill">
                    <g>
                        <path d="M27.697,292L15.697,292L15.697,160L27.697,160L27.697,292ZM32.297,28.191L27.697,28.191L27.697,160L15.697,160L15.697,28.191L11.017,28.191C10.237,28.191 9.747,27.341 10.137,26.661L20.86,10.448C21.256,9.849 22.136,9.851 22.53,10.451L33.177,26.661C33.577,27.341 33.087,28.191 32.297,28.191Z" style="fill:rgb(26,195,251);"/>
                    </g>
                </g>
            </g>
            <g id="g-root-cp_3_shape-3_1_18hkgxq23vuu-fill" transform="matrix(1,0,0,1,32,386)">
                <g id="cp_3_shape-3_1_18hkgxq23vuu-fill">
                    <g>
                        <path d="M214,64.321C244,64.321 268,46 268,10L280,10L280,100.306L10,100.306C10,80.423 26.118,64.321 46,64.321L214,64.321Z" style="fill:rgb(26,195,251);"/>
                    </g>
                </g>
            </g>
            <g id="g-root-cp_5_shape-5_1_qqwxj223v28-fill" transform="matrix(1,0,0,1,320,386)">
                <g id="cp_5_shape-5_1_qqwxj223v28-fill">
                    <g>
                        <rect x="10" y="10" width="12" height="222" style="fill:rgb(247,148,56);"/>
                    </g>
                </g>
            </g>
            <g id="g-root-cp_3_shape-3_2_4mdvi23v2a-fill" transform="matrix(1,0,0,1,32,476)">
                <g id="cp_3_shape-3_2_4mdvi23v2a-fill">
                    <g>
                        <path d="M280,10L280,141.979L10,141.979L10,10L280,10ZM244,178.008L46,178.008C26.118,178.008 10,161.905 10,142.023L10,142.008L280,142.008C280,161.89 263.882,178.008 244,178.008Z" style="fill:rgb(26,195,251);"/>
                    </g>
                </g>
            </g>
            <g id="g-root-cp_5_shape-5_2_1lu9xha23wg4-fill" transform="matrix(1,0,0,1,32,608)">
                <g id="cp_5_shape-5_2_1lu9xha23wg4-fill">
                    <g>
                        <path d="M244,64.137C274,64.137 298,45.878 298,10L310,10L310,100L10,100C10,80.185 26.118,64.137 46,64.137L244,64.137Z" style="fill:rgb(247,148,56);"/>
                    </g>
                </g>
            </g>
            <g id="g-root-cp_5_shape-5_3_v7zdtq23wg6-fill" transform="matrix(1,0,0,1,32,698)">
                <g id="cp_5_shape-5_3_v7zdtq23wg6-fill">
                    <g>
                        <path d="M310,10L310,118L10,118L10,10L310,10ZM274,154.008L46,154.008C26.118,154.008 10,137.882 10,118L310,118C310,137.882 293.882,154.008 274,154.008Z" style="fill:rgb(247,148,56);"/>
                    </g>
                </g>
            </g>
            <g id="g-root-cp_2_shape-2_dhbuf223vnk-fill" transform="matrix(1,0,0,1,404.378,103.816)">
                <g id="cp_2_shape-2_dhbuf223vnk-fill">
                    <g>
                        <path d="M51.622,328.184L219.622,328.184C239.504,328.184 255.622,312.081 255.622,292.199L255.622,292.184L15.622,292.184C15.622,312.066 31.74,328.184 51.622,328.184ZM11.022,28.375L15.622,28.375L15.622,160.184L255.622,160.184C255.622,140.302 239.505,124.505 219.623,124.505L93.622,124.505C52.552,124.505 27.622,94.374 27.622,55.034L27.622,28.374L32.302,28.374C33.082,28.374 33.572,27.524 33.182,26.844L22.459,10.632C22.063,10.033 21.184,10.034 20.79,10.635L10.142,26.844C9.742,27.525 10.232,28.375 11.022,28.375ZM15.622,160.184L15.622,292.184L255.622,292.184L255.622,160.184L15.622,160.184Z" style="fill:rgb(166,218,55);"/>
                    </g>
                </g>
            </g>
            <g id="g-root-cp_4_shape-4_5vc1q23x8i-fill" transform="matrix(1,0,0,1,374.383,104)">
                <g id="cp_4_shape-4_5vc1q23x8i-fill">
                    <g>
                        <path d="M15.623,292L27.623,292L27.623,160L15.623,160L15.623,292ZM11.022,28.191L15.622,28.191L15.622,160L27.622,160L27.622,28.191L32.302,28.191C33.082,28.191 33.572,27.341 33.182,26.661L22.459,10.448C22.063,9.849 21.184,9.851 20.79,10.451L10.142,26.661C9.742,27.341 10.232,28.191 11.022,28.191Z" style="fill:rgb(255,231,17);"/>
                    </g>
                </g>
            </g>
            <g id="g-root-cp_6_shape-6_1d0ichq23w98-fill" transform="matrix(1,0,0,1,344.383,104)">
                <g id="cp_6_shape-6_1d0ichq23w98-fill">
                    <g>
                        <path d="M15.623,292L27.623,292L27.623,160L15.623,160L15.623,292ZM11.022,28.191L15.622,28.191L15.622,160L27.622,160L27.622,28.191L32.302,28.191C33.082,28.191 33.572,27.341 33.182,26.661L22.459,10.448C22.063,9.849 21.184,9.851 20.79,10.451L10.142,26.661C9.742,27.341 10.232,28.191 11.022,28.191Z" style="fill:rgb(251,103,98);"/>
                    </g>
                </g>
            </g>
            <g id="g-root-cp_4_shape-4_1_me7su623w9a-fill" transform="matrix(1,0,0,1,380,386)">
                <g id="cp_4_shape-4_1_me7su623w9a-fill">
                    <g>
                        <path d="M76,64.321C46,64.321 22,46 22,10L10,10L10,100.306L280,100.306C280,80.423 263.882,64.321 244,64.321L76,64.321Z" style="fill:rgb(255,231,17);"/>
                    </g>
                </g>
            </g>
            <g id="g-root-cp_4_shape-4_2_dj79oe23uo0-fill" transform="matrix(1,0,0,1,380,476)">
                <g id="cp_4_shape-4_2_dj79oe23uo0-fill">
                    <g>
                        <path d="M10,10L10,118L280,118L280,10L10,10ZM46,154L244,154C263.882,154 280,137.898 280,118.016L280,118L10,118C10,137.882 26.118,154 46,154Z" style="fill:rgb(255,231,17);"/>
                    </g>
                </g>
            </g>
            <g id="g-root-cp_6_shape-6_1_7qrb223w8y-fill" transform="matrix(1,0,0,1,350,386)">
                <g id="cp_6_shape-6_1_7qrb223w8y-fill">
                    <g>
                        <rect x="10" y="10" width="12" height="198" style="fill:rgb(251,103,98);"/>
                    </g>
                </g>
            </g>
            <g id="g-root-cp_6_shape-6_2_1lxeawu23xms-fill" transform="matrix(1,0,0,1,350,584)">
                <g id="cp_6_shape-6_2_1lxeawu23xms-fill">
                    <g>
                        <path d="M76,64.321C46,64.321 22,46 22,10L10,10L10,100.306L310,100.306C310,80.423 293.882,64.321 274,64.321L76,64.321Z" style="fill:rgb(251,103,98);"/>
                    </g>
                </g>
            </g>
            <g id="g-root-cp_6_shape-6_3_18mk9mm23w1y-fill" transform="matrix(1,0,0,1,350,674)">
                <g id="cp_6_shape-6_3_18mk9mm23w1y-fill">
                    <g>
                        <path d="M10,10L10,118L310,118L310,10L10,10ZM46,154L274,154C293.882,154 310,137.898 310,118.016L310,118L10,118C10,137.882 26.118,154 46,154Z" style="fill:rgb(251,103,98);"/>
                    </g>
                </g>
            </g>
            <g id="g-root-tx_ensuress_4gp1ha25b7m-fill" transform="matrix(1,0,0,1,62,338)">
                <g id="tx_ensuress_4gp1ha25b7m-fill">
                    <g>
                        <g>
                            <g transform="matrix(1,0,0,1,49.04,31.2)">
                                <text x="0px" y="0px" style="font-family:'ArialMT', 'Arial', sans-serif;font-size:15px;fill:rgb(44,44,44);">Ensures secure</text>
                            </g>
                            <g transform="matrix(1,0,0,1,27.79,49.2)">
                                <text x="0px" y="0px" style="font-family:'ArialMT', 'Arial', sans-serif;font-size:15px;fill:rgb(44,44,44);">transactions and user</text>
                            </g>
                            <g transform="matrix(1,0,0,1,16.03,67.2)">
                                <g transform="matrix(15,0,0,15,113.416,0)">
                                </g>
                                <g transform="matrix(15,0,0,15,117.583,0)">
                                </g>
                                <text x="0px" y="0px" style="font-family:'ArialMT', 'Arial', sans-serif;font-size:15px;fill:rgb(44,44,44);">authentication in ﬁnance.</text>
                            </g>
                        </g>
                    </g>
                </g>
            </g>
            <g id="g-root-tx_protects_1lwrttq2axah-fill" transform="matrix(1,0,0,1,440,338)">
                <g id="tx_protects_1lwrttq2axah-fill">
                    <g>
                        <g>
                            <g transform="matrix(1,0,0,1,13.97,31.2)">
                                <text x="0px" y="0px" style="font-family:'ArialMT', 'Arial', sans-serif;font-size:15px;fill:rgb(44,44,44);">Protects patient data and</text>
                            </g>
                            <g transform="matrix(1,0,0,1,37.29,49.2)">
                                <g transform="matrix(15,0,0,15,24.1699,0)">
                                </g>
                                <g transform="matrix(15,0,0,15,28.3374,0)">
                                </g>
                                <text x="0px" y="0px" style="font-family:'ArialMT', 'Arial', sans-serif;font-size:15px;fill:rgb(44,44,44);">veriﬁes healthcare</text>
                            </g>
                            <g transform="matrix(1,0,0,1,50.94,67.2)">
                                <text x="0px" y="0px" style="font-family:'ArialMT', 'Arial', sans-serif;font-size:15px;fill:rgb(44,44,44);">professionals.</text>
                            </g>
                        </g>
                    </g>
                </g>
            </g>
            <g transform="matrix(1,0,0,1,491.03,336)">
                <g id="g-root-tx_healthca_qtetvi2avwo-fill">
                    <g id="tx_healthca_qtetvi2avwo-fill">
                        <g>
                            <g>
                                <text x="0px" y="0px" style="font-family:'Arial-BoldMT', 'Arial', sans-serif;font-weight:700;font-size:20px;fill:rgb(44,44,44);">Healthcare</text>
                            </g>
                        </g>
                    </g>
                </g>
            </g>
            <g transform="matrix(1,0,0,1,78.48,336)">
                <g id="g-root-tx_bankingf_18eg3i6259mp-fill">
                    <g id="tx_bankingf_18eg3i6259mp-fill">
                        <g>
                            <g>
                                <text x="0px" y="0px" style="font-family:'Arial-BoldMT', 'Arial', sans-serif;font-weight:700;font-size:20px;fill:rgb(44,44,44);">Banking &amp; Finance</text>
                            </g>
                        </g>
                    </g>
                </g>
            </g>
            <g id="g-root-tx_securesu_4jtewu29hc3-fill" transform="matrix(1,0,0,1,74,782)">
                <g id="tx_securesu_4jtewu29hc3-fill">
                    <g>
                        <g>
                            <g transform="matrix(1,0,0,1,16.41,28.2)">
                                <text x="0px" y="0px" style="font-family:'ArialMT', 'Arial', sans-serif;font-size:15px;fill:rgb(44,44,44);">Secures user access and data</text>
                            </g>
                            <g transform="matrix(1,0,0,1,39.86,46.2)">
                                <text x="0px" y="0px" style="font-family:'ArialMT', 'Arial', sans-serif;font-size:15px;fill:rgb(44,44,44);">privacy in mobile apps.</text>
                            </g>
                        </g>
                    </g>
                </g>
            </g>
            <g transform="matrix(1,0,0,1,88.15,558)">
                <g id="g-root-tx_logistic_zp1u4e26q6k-fill">
                    <g id="tx_logistic_zp1u4e26q6k-fill">
                        <g>
                            <g>
                                <text x="0px" y="0px" style="font-family:'Arial-BoldMT', 'Arial', sans-serif;font-weight:700;font-size:20px;fill:rgb(44,44,44);">Logistics &amp; Delivery</text>
                            </g>
                        </g>
                    </g>
                </g>
            </g>
            <g transform="matrix(1,0,0,1,467.69,558)">
                <g id="g-root-tx_ecommerc_i0w7262cb9i-fill">
                    <g id="tx_ecommerc_i0w7262cb9i-fill">
                        <g>
                            <g>
                                <text x="0px" y="0px" style="font-family:'Arial-BoldMT', 'Arial', sans-serif;font-weight:700;font-size:20px;fill:rgb(44,44,44);">E-commerce</text>
                            </g>
                        </g>
                    </g>
                </g>
            </g>
            <g id="g-root-tx_streamli_1d1rany26qrp-fill" transform="matrix(1,0,0,1,71,560)">
                <g id="tx_streamli_1d1rany26qrp-fill">
                    <g>
                        <g>
                            <g transform="matrix(1,0,0,1,37.06,31.2)">
                                <text x="0px" y="0px" style="font-family:'ArialMT', 'Arial', sans-serif;font-size:15px;fill:rgb(44,44,44);">Streamlines delivery</text>
                            </g>
                            <g transform="matrix(1,0,0,1,13.19,49.2)">
                                <text x="0px" y="0px" style="font-family:'ArialMT', 'Arial', sans-serif;font-size:15px;fill:rgb(44,44,44);">processes with secure user</text>
                            </g>
                            <g transform="matrix(1,0,0,1,65.38,67.2)">
                                <g transform="matrix(15,0,0,15,24.1699,0)">
                                </g>
                                <g transform="matrix(15,0,0,15,28.3374,0)">
                                </g>
                                <text x="0px" y="0px" style="font-family:'ArialMT', 'Arial', sans-serif;font-size:15px;fill:rgb(44,44,44);">veriﬁcation.</text>
                            </g>
                        </g>
                    </g>
                </g>
            </g>
            <g id="g-root-tx_enhances_13z92gu2doun-fill" transform="matrix(1,0,0,1,419,560)">
                <g id="tx_enhances_13z92gu2doun-fill">
                    <g>
                        <g>
                            <g transform="matrix(1,0,0,1,16.82,28.2)">
                                <text x="0px" y="0px" style="font-family:'ArialMT', 'Arial', sans-serif;font-size:15px;fill:rgb(44,44,44);">Enhances online shopping</text>
                            </g>
                            <g transform="matrix(1,0,0,1,27.88,46.2)">
                                <text x="0px" y="0px" style="font-family:'ArialMT', 'Arial', sans-serif;font-size:15px;fill:rgb(44,44,44);">security and user trust.</text>
                            </g>
                        </g>
                    </g>
                </g>
            </g>
            <g transform="matrix(1,0,0,1,430.32,756)">
                <g id="g-root-tx_corporat_de7gzi2f4ek-fill">
                    <g id="tx_corporat_de7gzi2f4ek-fill">
                        <g>
                            <g>
                                <text x="0px" y="0px" style="font-family:'Arial-BoldMT', 'Arial', sans-serif;font-weight:700;font-size:20px;fill:rgb(44,44,44);">Corporate Portals</text>
                            </g>
                        </g>
                    </g>
                </g>
            </g>
            <g transform="matrix(1,0,0,1,135.85,780)">
                <g id="g-root-tx_mobileap_1cwrhz229i4q-fill">
                    <g id="tx_mobileap_1cwrhz229i4q-fill">
                        <g>
                            <g>
                                <text x="0px" y="0px" style="font-family:'Arial-BoldMT', 'Arial', sans-serif;font-weight:700;font-size:20px;fill:rgb(44,44,44);">Mobile <tspan x="68.145px 82.588px " y="0px 0px ">Ap</tspan>ps</text>
                            </g>
                        </g>
                    </g>
                </g>
            </g>
            <g id="g-root-tx_safeguar_142dfwe2f3et-fill" transform="matrix(1,0,0,1,380,758)">
                <g id="tx_safeguar_142dfwe2f3et-fill">
                    <g>
                        <g>
                            <g transform="matrix(1,0,0,1,15.53,28.2)">
                                <text x="0px" y="0px" style="font-family:'ArialMT', 'Arial', sans-serif;font-size:15px;fill:rgb(44,44,44);">Safeguards corporate information</text>
                            </g>
                            <g transform="matrix(1,0,0,1,54.08,46.2)">
                                <text x="0px" y="0px" style="font-family:'ArialMT', 'Arial', sans-serif;font-size:15px;fill:rgb(44,44,44);">and employee access.</text>
                            </g>
                        </g>
                    </g>
                </g>
            </g>
            <g id="g-root-cp_5_shape-5_1hbc1xa23w1s-stroke" transform="matrix(1,0,0,1,314.303,104)">
                <g id="cp_5_shape-5_1hbc1xa23w1s-stroke">
                    <g>
                        <path d="M15.697,160L15.697,292M27.697,292L27.697,160M15.697,160L15.697,28.191L11.017,28.191C10.237,28.191 9.747,27.341 10.137,26.661L20.86,10.448C21.256,9.849 22.136,9.851 22.53,10.451L33.177,26.661C33.577,27.341 33.087,28.191 32.297,28.191L27.697,28.191L27.697,160" style="fill:none;stroke:rgb(44,44,44);stroke-width:2px;"/>
                    </g>
                </g>
            </g>
            <g id="g-root-cp_1_shape-1_htei0u23wui-stroke" transform="matrix(1,0,0,1,32,103.816)">
                <g id="cp_1_shape-1_htei0u23wui-stroke">
                    <g>
                        <path d="M10,160.184C10,140.301 26.118,124.321 46,124.321L172,124.321C213.07,124.321 238,94.191 238,54.851L238,28.191L233.32,28.191C232.54,28.191 232.05,27.341 232.44,26.661L243.163,10.448C243.559,9.849 244.439,9.851 244.833,10.451L255.48,26.661C255.88,27.341 255.39,28.191 254.6,28.191L250,28.191L250,160.184M250,292.184C250,312.066 233.882,328.191 214,328.191L46,328.191C26.118,328.191 10,312.081 10,292.199L10,292.184M250,292.184L250,160.184M10,160.184L10,292.184" style="fill:none;stroke:rgb(44,44,44);stroke-width:2px;"/>
                    </g>
                </g>
            </g>
            <g id="g-root-cp_3_shape-3_1q880ce23wng-stroke" transform="matrix(1,0,0,1,284.303,104)">
                <g id="cp_3_shape-3_1q880ce23wng-stroke">
                    <g>
                        <path d="M15.697,160L15.697,292M27.697,292L27.697,160M15.697,160L15.697,28.191L11.017,28.191C10.237,28.191 9.747,27.341 10.137,26.661L20.86,10.448C21.256,9.849 22.136,9.851 22.53,10.451L33.177,26.661C33.577,27.341 33.087,28.191 32.297,28.191L27.697,28.191L27.697,160" style="fill:none;stroke:rgb(44,44,44);stroke-width:2px;"/>
                    </g>
                </g>
            </g>
            <g id="g-root-cp_3_shape-3_1_18hkgxq23vuu-stroke" transform="matrix(1,0,0,1,32,386)">
                <g id="cp_3_shape-3_1_18hkgxq23vuu-stroke">
                    <g>
                        <path d="M268,10C268,46 244,64.321 214,64.321L46,64.321C26.118,64.321 10,80.423 10,100.306M280,100.306L280,10" style="fill:none;stroke:rgb(44,44,44);stroke-width:2px;"/>
                    </g>
                </g>
            </g>
            <g id="g-root-cp_5_shape-5_1_qqwxj223v28-stroke" transform="matrix(1,0,0,1,320,386)">
                <g id="cp_5_shape-5_1_qqwxj223v28-stroke">
                    <g>
                        <path d="M10,10L10,232M22,232L22,10" style="fill:none;stroke:rgb(44,44,44);stroke-width:2px;"/>
                    </g>
                </g>
            </g>
            <g id="g-root-cp_3_shape-3_2_4mdvi23v2a-stroke" transform="matrix(1,0,0,1,32,476)">
                <g id="cp_3_shape-3_2_4mdvi23v2a-stroke">
                    <g>
                        <path d="M280,141.979L280,10M10,10L10,142M280,142.008C280,161.89 263.882,178.008 244,178.008L46,178.008C26.118,178.008 10,161.905 10,142.023L10,142.008" style="fill:none;stroke:rgb(44,44,44);stroke-width:2px;"/>
                    </g>
                </g>
            </g>
            <g id="g-root-cp_5_shape-5_2_1lu9xha23wg4-stroke" transform="matrix(1,0,0,1,32,608)">
                <g id="cp_5_shape-5_2_1lu9xha23wg4-stroke">
                    <g>
                        <path d="M298,10C298,45.878 274,64.137 244,64.137L46,64.137C26.118,64.137 10,80.185 10,100M310,100L310,10" style="fill:none;stroke:rgb(44,44,44);stroke-width:2px;"/>
                    </g>
                </g>
            </g>
            <g id="g-root-cp_5_shape-5_3_v7zdtq23wg6-stroke" transform="matrix(1,0,0,1,32,698)">
                <g id="cp_5_shape-5_3_v7zdtq23wg6-stroke">
                    <g>
                        <path d="M310,118L310,10M10,10L10,118M310,118C310,137.882 293.882,154.008 274,154.008L46,154.008C26.118,154.008 10,137.882 10,118" style="fill:none;stroke:rgb(44,44,44);stroke-width:2px;"/>
                    </g>
                </g>
            </g>
            <g id="g-root-cp_2_shape-2_dhbuf223vnk-stroke" transform="matrix(1,0,0,1,404.378,103.816)">
                <g id="cp_2_shape-2_dhbuf223vnk-stroke">
                    <g>
                        <path d="M255.622,160.184C255.622,140.301 239.505,124.321 219.623,124.321L93.622,124.321C52.552,124.321 27.622,94.191 27.622,54.851L27.622,28.191L32.302,28.191C33.082,28.191 33.572,27.341 33.182,26.661L22.459,10.448C22.063,9.849 21.184,9.851 20.79,10.451L10.142,26.661C9.742,27.341 10.232,28.191 11.022,28.191L15.622,28.191L15.622,160.184M15.622,292.184C15.622,312.066 31.74,328.184 51.622,328.184L219.623,328.183C239.505,328.183 255.622,312.081 255.622,292.199L255.622,292.184M15.622,292.184L15.622,160.184M255.622,160.184L255.622,292.184" style="fill:none;stroke:rgb(44,44,44);stroke-width:2px;"/>
                    </g>
                </g>
            </g>
            <g id="g-root-cp_4_shape-4_5vc1q23x8i-stroke" transform="matrix(1,0,0,1,374.383,104)">
                <g id="cp_4_shape-4_5vc1q23x8i-stroke">
                    <g>
                        <path d="M27.622,160L27.622,292M15.622,292L15.622,160M27.622,160L27.622,28.191L32.302,28.191C33.082,28.191 33.572,27.341 33.182,26.661L22.459,10.448C22.063,9.849 21.184,9.851 20.79,10.451L10.142,26.661C9.742,27.341 10.232,28.191 11.022,28.191L15.622,28.191L15.622,160" style="fill:none;stroke:rgb(44,44,44);stroke-width:2px;"/>
                    </g>
                </g>
            </g>
            <g id="g-root-cp_6_shape-6_1d0ichq23w98-stroke" transform="matrix(1,0,0,1,344.383,104)">
                <g id="cp_6_shape-6_1d0ichq23w98-stroke">
                    <g>
                        <path d="M27.622,160L27.622,292M15.622,292L15.622,160M27.622,160L27.622,28.191L32.302,28.191C33.082,28.191 33.572,27.341 33.182,26.661L22.459,10.448C22.063,9.849 21.184,9.851 20.79,10.451L10.142,26.661C9.742,27.341 10.232,28.191 11.022,28.191L15.622,28.191L15.622,160" style="fill:none;stroke:rgb(44,44,44);stroke-width:2px;"/>
                    </g>
                </g>
            </g>
            <g id="g-root-cp_4_shape-4_1_me7su623w9a-stroke" transform="matrix(1,0,0,1,380,386)">
                <g id="cp_4_shape-4_1_me7su623w9a-stroke">
                    <g>
                        <path d="M22,10C22,46 46,64.321 76,64.321L244,64.321C263.882,64.321 280,80.423 280,100.306M10,100.306L10,10" style="fill:none;stroke:rgb(44,44,44);stroke-width:2px;"/>
                    </g>
                </g>
            </g>
            <g id="g-root-cp_4_shape-4_2_dj79oe23uo0-stroke" transform="matrix(1,0,0,1,380,476)">
                <g id="cp_4_shape-4_2_dj79oe23uo0-stroke">
                    <g>
                        <path d="M10,118L10,10M280,10L280,118M10,118C10,137.882 26.118,154.008 46,154.008L244,154.008C263.882,154.008 280,137.898 280,118.016L280,118" style="fill:none;stroke:rgb(44,44,44);stroke-width:2px;"/>
                    </g>
                </g>
            </g>
            <g id="g-root-cp_6_shape-6_1_7qrb223w8y-stroke" transform="matrix(1,0,0,1,350,386)">
                <g id="cp_6_shape-6_1_7qrb223w8y-stroke">
                    <g>
                        <path d="M22,10L22,208M10,208L10,10" style="fill:none;stroke:rgb(44,44,44);stroke-width:2px;"/>
                    </g>
                </g>
            </g>
            <g id="g-root-cp_6_shape-6_2_1lxeawu23xms-stroke" transform="matrix(1,0,0,1,350,584)">
                <g id="cp_6_shape-6_2_1lxeawu23xms-stroke">
                    <g>
                        <path d="M22,10C22,46 46,64.321 76,64.321L274,64.321C293.882,64.321 310,80.423 310,100.306M10,100.306L10,10" style="fill:none;stroke:rgb(44,44,44);stroke-width:2px;"/>
                    </g>
                </g>
            </g>
            <g id="g-root-cp_6_shape-6_3_18mk9mm23w1y-stroke" transform="matrix(1,0,0,1,350,674)">
                <g id="cp_6_shape-6_3_18mk9mm23w1y-stroke">
                    <g>
                        <path d="M10,118L10,10M310,10L310,118M10,118C10,137.882 26.118,154.008 46,154.008L274,154.008C293.882,154.008 310,137.898 310,118.016L310,118" style="fill:none;stroke:rgb(44,44,44);stroke-width:2px;"/>
                    </g>
                </g>
            </g>
            <g id="g-root-ic_phon_hzn8vy2avpm-stroke" transform="matrix(1,0,0,1,506,242)">
                <g id="ic_phon_hzn8vy2avpm-stroke">
                    <g>
                        <path d="M23.062,20.84L14.533,20.84C13.032,20.84 11.816,22.056 11.816,23.556L11.816,53.439C11.816,54.94 13.032,56.156 14.533,56.156L36.265,56.156C37.766,56.156 38.982,54.94 38.982,53.439L38.982,42.389M23.361,48.713L27.436,48.713M39.246,11.698L41.128,11.698C41.627,11.698 42.106,11.896 42.459,12.249C42.812,12.602 43.01,13.08 43.01,13.58L43.01,21.107C43.01,23.104 42.217,25.018 40.805,26.43C39.394,27.842 37.479,28.635 35.483,28.635C33.486,28.635 31.572,27.842 30.16,26.43C28.748,25.018 27.955,23.104 27.955,21.107L27.955,13.58C27.955,13.08 28.153,12.602 28.506,12.249C28.859,11.896 29.338,11.698 29.837,11.698L31.719,11.698M52.421,24.871C54.499,24.871 56.184,23.186 56.184,21.107C56.184,19.029 54.499,17.344 52.421,17.344C50.342,17.344 48.657,19.029 48.657,21.107C48.657,23.186 50.342,24.871 52.421,24.871ZM35.483,28.635L35.483,29.576C35.483,31.822 36.375,33.976 37.963,35.564C39.551,37.152 41.705,38.044 43.951,38.044C46.197,38.044 48.351,37.152 49.94,35.564C51.528,33.976 52.42,31.822 52.42,29.576L52.42,24.871" style="fill:none;stroke:rgb(44,44,44);stroke-width:2px;"/>
                    </g>
                </g>
            </g>
            <g id="g-root-ic_van_94mpq626p6u-stroke" transform="matrix(1,0,0,1,143,464)">
                <g id="ic_van_94mpq626p6u-stroke">
                    <g>
                        <path d="M34,11C38.328,10.994 42.569,12.222 46.224,14.54C55.724,20.562 56.424,33 48.854,42.094C44.368,47.506 39.396,52.495 34,57C28.604,52.495 23.632,47.506 19.146,42.094C11.578,33 12.276,20.562 21.776,14.54C25.431,12.222 29.672,10.994 34,11ZM30,29L26,29C23.791,29 22,30.791 22,33L22,39L24.174,39M38.174,39L30.974,39C30.422,39 29.974,38.552 29.974,38L30,28C30,27.448 30.448,27 31,27L45,27C45.552,27 46,27.448 46,28L46,38C46,38.552 45.552,39 45,39L43.826,39M24,40.006C24,41.663 25.343,43.006 27,43.006C28.657,43.006 30,41.663 30,40.006C30,38.349 28.657,37.006 27,37.006C25.343,37.006 24,38.349 24,40.006ZM38,40.006C38,41.663 39.343,43.006 41,43.006C42.657,43.006 44,41.663 44,40.006C44,38.349 42.657,37.006 41,37.006C39.343,37.006 38,38.349 38,40.006ZM30.98,39.006L29.814,39.006M39.122,14.642C41.464,16.986 41.464,20.784 39.121,23.127C36.778,25.47 32.98,25.47 30.636,23.128L39.122,14.642ZM34.878,18.884L32.05,16.056M43,27.006L39.122,23.128" style="fill:none;stroke:rgb(44,44,44);stroke-width:2px;"/>
                    </g>
                </g>
            </g>
            <g id="g-root-ic_seac_1q7lj9a2don4-stroke" transform="matrix(1,0,0,1,491,464)">
                <g id="ic_seac_1q7lj9a2don4-stroke">
                    <g>
                        <path d="M23,48C23,49.657 24.343,51 26,51C27.657,51 29,49.657 29,48C29,46.343 27.657,45 26,45C24.343,45 23,46.343 23,48ZM11,11L16.416,11C17.344,11 18.15,11.639 18.362,12.542L26,45L34,45M53.968,32.092L56.122,25.632C56.325,25.022 56.223,24.352 55.847,23.83C55.471,23.309 54.867,23 54.224,23L20.824,23M24.588,39L33.948,39M37,45C37,49.418 40.582,53 45,53C49.418,53 53,49.418 53,45C53,40.582 49.418,37 45,37C40.582,37 37,40.582 37,45ZM50.658,50.656L57,57" style="fill:none;stroke:rgb(44,44,44);stroke-width:2px;"/>
                    </g>
                </g>
            </g>
            <g id="g-root-ic_squa_qp1i9q25a8b-stroke" transform="matrix(1,0,0,1,128,242)">
                <g id="ic_squa_qp1i9q25a8b-stroke">
                    <g>
                        <path d="M25.429,27.143L34,27.143C34,27.143 37.429,27.143 37.429,30.571L37.429,37.429C37.429,37.429 37.429,40.857 34,40.857L25.429,40.857C25.429,40.857 22,40.857 22,37.429L22,30.571C22,30.571 22,27.143 25.429,27.143M46,37.429L46,30.571M15.143,11.714L52.857,11.714C52.857,11.714 56.286,11.714 56.286,15.143L56.286,52.857C56.286,52.857 56.286,56.286 52.857,56.286L15.143,56.286C15.143,56.286 11.714,56.286 11.714,52.857L11.714,15.143C11.714,15.143 11.714,11.714 15.143,11.714" style="fill:none;stroke:rgb(44,44,44);stroke-width:2px;"/>
                    </g>
                </g>
            </g>
            <g id="g-root-ic_moni_18jfw722f4sn-stroke" transform="matrix(1,0,0,1,476,662)">
                <g id="ic_moni_18jfw722f4sn-stroke">
                    <g>
                        <path d="M27,45L41,45M34,45L34,39M23,21L45,21C45,21 47,21 47,23L47,37C47,37 47,39 45,39L23,39C23,39 21,39 21,37L21,23C21,23 21,21 23,21M13,17.55L13,32.824C13.12,43.162 19.687,52.324 29.438,55.76L31.68,56.588C33.178,57.138 34.822,57.138 36.32,56.588L38.562,55.76C48.313,52.324 54.88,43.162 55,32.824L55,17.55C54.996,16.323 54.261,15.217 53.132,14.738C47.074,12.209 40.565,10.938 34,11C27.435,10.938 20.926,12.209 14.868,14.738C13.739,15.217 13.004,16.323 13,17.55Z" style="fill:none;stroke:rgb(44,44,44);stroke-width:2px;"/>
                    </g>
                </g>
            </g>
            <g id="g-root-ic_1_90vv7i29ipx-stroke" transform="matrix(1,0,0,1,158,686)">
                <g id="ic_1_90vv7i29ipx-stroke">
                    <g>
                        <path d="M24,27L24,28.334M42.634,13C38.95,10.556 34.221,10.335 30.326,12.426C26.43,14.516 24,18.579 24,23M48,25.334L48,23C48.004,20.627 47.301,18.306 45.98,16.334M48,37L48,29.334M44,27.334L44,23C44,18.582 40.418,15 36,15C31.582,15 28,18.582 28,23L28,37M44,37L44,31.334M32,30.334L32,37M40,37L40,23C40,20.791 38.209,19 36,19C33.791,19 32,20.791 32,23L32,26.334M36,23.668L36,37M24,32L24,37M37,49L11,49M24,52.5C24.276,52.5 24.5,52.724 24.5,53C24.5,53.276 24.276,53.5 24,53.5C23.724,53.5 23.5,53.276 23.5,53C23.5,52.724 23.724,52.5 24,52.5M37,44L37,53C37,55.209 35.209,57 33,57L15,57C12.791,57 11,55.209 11,53L11,15C11,12.791 12.791,11 15,11L22,11" style="fill:none;stroke:rgb(44,44,44);stroke-width:2px;"/>
                    </g>
                </g>
            </g>
        </g>
    </g>
</svg>
