<?xml version="1.0" encoding="UTF-8" standalone="no"?>
<!DOCTYPE svg PUBLIC "-//W3C//DTD SVG 1.1//EN" "http://www.w3.org/Graphics/SVG/1.1/DTD/svg11.dtd">
<svg width="100%" height="100%" viewBox="0 0 702 918" version="1.1" xmlns="http://www.w3.org/2000/svg" xmlns:xlink="http://www.w3.org/1999/xlink" xml:space="preserve" xmlns:serif="http://www.serif.com/" style="fill-rule:evenodd;clip-rule:evenodd;stroke-linecap:round;stroke-linejoin:round;">
    <g id="items" transform="matrix(1.08703,0,0,1.08703,-30.5476,-48.5057)">
        <g id="blend">
            <g id="g-root-cp_5_shape-5_m7cnqh1w1cdfx-fill" transform="matrix(1,0,0,1,314.303,104)">
                <g id="cp_5_shape-5_m7cnqh1w1cdfx-fill">
                    <g>
                        <path d="M27.697,292L15.697,292L15.697,160L27.697,160L27.697,292ZM32.297,28.191L27.697,28.191L27.697,160L15.697,160L15.697,28.191L11.017,28.191C10.237,28.191 9.747,27.341 10.137,26.661L20.86,10.448C21.256,9.849 22.136,9.851 22.53,10.451L33.177,26.661C33.577,27.341 33.087,28.191 32.297,28.191Z" style="fill:rgb(203,104,249);"/>
                    </g>
                </g>
            </g>
            <g id="g-root-cp_1_shape-1_1hapnop1w1cetr-fill" transform="matrix(1,0,0,1,32,103.816)">
                <g id="cp_1_shape-1_1hapnop1w1cetr-fill">
                    <g>
                        <path d="M214,328.184L46,328.183C26.118,328.183 10,312.081 10,292.199L10,292.184L250,292.184C250,312.066 233.882,328.184 214,328.184ZM254.6,28.375L250,28.375L250,160.184L10,160.184C10,140.302 26.118,124.505 46,124.505L172,124.505C213.07,124.505 238,94.374 238,55.034L238,28.374L233.32,28.374C232.54,28.374 232.05,27.524 232.44,26.844L243.163,10.632C243.559,10.033 244.439,10.034 244.833,10.635L255.48,26.844C255.88,27.525 255.39,28.375 254.6,28.375ZM250,160.184L250,292.184L10,292.184L10,160.184L250,160.184Z" style="fill:rgb(255,231,17);"/>
                    </g>
                </g>
            </g>
            <g id="g-root-cp_3_shape-3_zk24a11w1ce15-fill" transform="matrix(1,0,0,1,284.303,104)">
                <g id="cp_3_shape-3_zk24a11w1ce15-fill">
                    <g>
                        <path d="M27.697,292L15.697,292L15.697,160L27.697,160L27.697,292ZM32.297,28.191L27.697,28.191L27.697,160L15.697,160L15.697,28.191L11.017,28.191C10.237,28.191 9.747,27.341 10.137,26.661L20.86,10.448C21.256,9.849 22.136,9.851 22.53,10.451L33.177,26.661C33.577,27.341 33.087,28.191 32.297,28.191Z" style="fill:rgb(251,103,98);"/>
                    </g>
                </g>
            </g>
            <g id="g-root-cp_3_shape-3_1_m8llwp1w1cfm3-fill" transform="matrix(1,0,0,1,32,386)">
                <g id="cp_3_shape-3_1_m8llwp1w1cfm3-fill">
                    <g>
                        <path d="M214,64.321C244,64.321 268,46 268,10L280,10L280,100.306L10,100.306C10,80.423 26.118,64.321 46,64.321L214,64.321Z" style="fill:rgb(251,103,98);"/>
                    </g>
                </g>
            </g>
            <g id="g-root-cp_5_shape-5_1_4hy2i11w1ceth-fill" transform="matrix(1,0,0,1,320,386)">
                <g id="cp_5_shape-5_1_4hy2i11w1ceth-fill">
                    <g>
                        <rect x="10" y="10" width="12" height="198" style="fill:rgb(203,104,249);"/>
                    </g>
                </g>
            </g>
            <g id="g-root-cp_3_shape-3_2_1q7lm3t1w1cg7b-fill" transform="matrix(1,0,0,1,32,476)">
                <g id="cp_3_shape-3_2_1q7lm3t1w1cg7b-fill">
                    <g>
                        <path d="M280,10L280,117.982L10,117.982L10,10L280,10ZM244,154.008L46,154.008C26.118,154.008 10,137.906 10,118.023L10,118.008L280,118.008C280,137.89 263.882,154.008 244,154.008Z" style="fill:rgb(251,103,98);"/>
                    </g>
                </g>
            </g>
            <g id="g-root-cp_5_shape-5_2_18gy2p51w1cfep-fill" transform="matrix(1,0,0,1,32,584)">
                <g id="cp_5_shape-5_2_18gy2p51w1cfep-fill">
                    <g>
                        <path d="M244,64.137C274,64.137 298,45.878 298,10L310,10L310,100L10,100C10,80.185 26.118,64.137 46,64.137L244,64.137Z" style="fill:rgb(203,104,249);"/>
                    </g>
                </g>
            </g>
            <g id="g-root-cp_5_shape-5_3_v641ex1w1cdtv-fill" transform="matrix(1,0,0,1,32,674)">
                <g id="cp_5_shape-5_3_v641ex1w1cdtv-fill">
                    <g>
                        <path d="M310,10L310,118L10,118L10,10L310,10ZM274,154.008L46,154.008C26.118,154.008 10,137.882 10,118L310,118C310,137.882 293.882,154.008 274,154.008Z" style="fill:rgb(203,104,249);"/>
                    </g>
                </g>
            </g>
            <g id="g-root-cp_2_shape-2_4jthrd1w1cdtx-fill" transform="matrix(1,0,0,1,404.378,103.816)">
                <g id="cp_2_shape-2_4jthrd1w1cdtx-fill">
                    <g>
                        <path d="M51.622,340.184L219.622,340.184C239.504,340.184 255.622,324.081 255.622,304.199L255.622,304.184L15.622,304.184C15.622,324.066 31.74,340.184 51.622,340.184ZM11.022,28.375L15.622,28.375L15.622,160.184L255.622,160.184C255.622,140.302 239.505,124.505 219.623,124.505L93.622,124.505C52.552,124.505 27.622,94.374 27.622,55.034L27.622,28.374L32.302,28.374C33.082,28.374 33.572,27.524 33.182,26.844L22.459,10.632C22.063,10.033 21.184,10.034 20.79,10.635L10.142,26.844C9.742,27.525 10.232,28.375 11.022,28.375ZM15.622,160.184L15.622,304.184L255.622,304.184L255.622,160.184L15.622,160.184Z" style="fill:rgb(247,148,56);"/>
                    </g>
                </g>
            </g>
            <g id="g-root-cp_4_shape-4_1hdu1491w1cg0f-fill" transform="matrix(1,0,0,1,374.383,104)">
                <g id="cp_4_shape-4_1hdu1491w1cg0f-fill">
                    <g>
                        <path d="M15.623,304L27.623,304L27.623,160L15.623,160L15.623,304ZM11.022,28.191L15.622,28.191L15.622,160L27.622,160L27.622,28.191L32.302,28.191C33.082,28.191 33.572,27.341 33.182,26.661L22.459,10.448C22.063,9.849 21.184,9.851 20.79,10.451L10.142,26.661C9.742,27.341 10.232,28.191 11.022,28.191Z" style="fill:rgb(243,102,187);"/>
                    </g>
                </g>
            </g>
            <g id="g-root-cp_6_shape-6_zn6hpl1w1cf7t-fill" transform="matrix(1,0,0,1,344.383,104)">
                <g id="cp_6_shape-6_zn6hpl1w1cf7t-fill">
                    <g>
                        <path d="M15.623,304L27.623,304L27.623,160L15.623,160L15.623,304ZM11.022,28.191L15.622,28.191L15.622,160L27.622,160L27.622,28.191L32.302,28.191C33.082,28.191 33.572,27.341 33.182,26.661L22.459,10.448C22.063,9.849 21.184,9.851 20.79,10.451L10.142,26.661C9.742,27.341 10.232,28.191 11.022,28.191Z" style="fill:rgb(135,105,253);"/>
                    </g>
                </g>
            </g>
            <g id="g-root-cp_4_shape-4_1_mccgfd1w1cdmz-fill" transform="matrix(1,0,0,1,380,398)">
                <g id="cp_4_shape-4_1_mccgfd1w1cdmz-fill">
                    <g>
                        <path d="M76,64.321C46,64.321 22,46 22,10L10,10L10,100.306L280,100.306C280,80.423 263.882,64.321 244,64.321L76,64.321Z" style="fill:rgb(243,102,187);"/>
                    </g>
                </g>
            </g>
            <g id="g-root-cp_4_shape-4_2_90vy211w1cf7x-fill" transform="matrix(1,0,0,1,380,488)">
                <g id="cp_4_shape-4_2_90vy211w1cf7x-fill">
                    <g>
                        <path d="M10,10L10,118L280,118L280,10L10,10ZM46,154L244,154C263.882,154 280,137.898 280,118.016L280,118L10,118C10,137.882 26.118,154 46,154Z" style="fill:rgb(243,102,187);"/>
                    </g>
                </g>
            </g>
            <g id="g-root-cp_6_shape-6_1_1ur5yqx1w1cdfz-fill" transform="matrix(1,0,0,1,350,398)">
                <g id="cp_6_shape-6_1_1ur5yqx1w1cdfz-fill">
                    <g>
                        <rect x="10" y="10" width="12" height="198" style="fill:rgb(135,105,253);"/>
                    </g>
                </g>
            </g>
            <g id="g-root-cp_6_shape-6_2_1lviyi11w1cf0h-fill" transform="matrix(1,0,0,1,350,596)">
                <g id="cp_6_shape-6_2_1lviyi11w1cf0h-fill">
                    <g>
                        <path d="M76,64.321C46,64.321 22,46 22,10L10,10L10,100.306L310,100.306C310,80.423 293.882,64.321 274,64.321L76,64.321Z" style="fill:rgb(135,105,253);"/>
                    </g>
                </g>
            </g>
            <g id="g-root-cp_6_shape-6_3_18kox7t1w1cdfn-fill" transform="matrix(1,0,0,1,350,686)">
                <g id="cp_6_shape-6_3_18kox7t1w1cdfn-fill">
                    <g>
                        <path d="M10,10L10,118L310,118L310,10L10,10ZM46,154L274,154C293.882,154 310,137.898 310,118.016L310,118L10,118C10,137.882 26.118,154 46,154Z" style="fill:rgb(135,105,253);"/>
                    </g>
                </g>
            </g>
            <g id="g-root-tx_improves_v644kp1w1dsem-fill" transform="matrix(1,0,0,1,446,338)">
                <g id="tx_improves_v644kp1w1dsem-fill">
                    <g>
                        <g>
                            <g transform="matrix(1,0,0,1,37.94,28.2)">
                                <text x="0px" y="0px" style="font-family:'ArialMT', 'Arial', sans-serif;font-size:15px;fill:rgb(44,44,44);">Improve student</text>
                            </g>
                            <g transform="matrix(1,0,0,1,24.09,46.2)">
                                <text x="0px" y="0px" style="font-family:'ArialMT', 'Arial', sans-serif;font-size:15px;fill:rgb(44,44,44);">communication with</text>
                            </g>
                            <g transform="matrix(1,0,0,1,13.82,64.2)">
                                <text x="0px" y="0px" style="font-family:'ArialMT', 'Arial', sans-serif;font-size:15px;fill:rgb(44,44,44);">timely educational SMS</text>
                            </g>
                            <g transform="matrix(1,0,0,1,63.21,82.2)">
                                <text x="0px" y="0px" style="font-family:'ArialMT', 'Arial', sans-serif;font-size:15px;fill:rgb(44,44,44);">updates.</text>
                            </g>
                        </g>
                    </g>
                </g>
            </g>
            <g id="g-root-tx_drivesal_940bhl1w1cgef-fill" transform="matrix(1,0,0,1,62,338)">
                <g id="tx_drivesal_940bhl1w1cgef-fill">
                    <g>
                        <g>
                            <g transform="matrix(1,0,0,1,16.19,31.2)">
                                <text x="0px" y="0px" style="font-family:'ArialMT', 'Arial', sans-serif;font-size:15px;fill:rgb(44,44,44);">Drive sales with targeted</text>
                            </g>
                            <g transform="matrix(1,0,0,1,23.27,49.2)">
                                <text x="0px" y="0px" style="font-family:'ArialMT', 'Arial', sans-serif;font-size:15px;fill:rgb(44,44,44);">SMS promotions for e-</text>
                            </g>
                            <g transform="matrix(1,0,0,1,60.46,67.2)">
                                <text x="0px" y="0px" style="font-family:'ArialMT', 'Arial', sans-serif;font-size:15px;fill:rgb(44,44,44);">commerce.</text>
                            </g>
                        </g>
                    </g>
                </g>
            </g>
            <g transform="matrix(1,0,0,1,141.68,558)">
                <g id="g-root-tx_finance_mg3ay11w1kutj-fill">
                    <g id="tx_finance_mg3ay11w1kutj-fill">
                        <g>
                            <g>
                                <text x="0px" y="0px" style="font-family:'Arial-BoldMT', 'Arial', sans-serif;font-weight:700;font-size:20px;fill:rgb(44,44,44);">Finance</text>
                            </g>
                        </g>
                    </g>
                </g>
            </g>
            <g transform="matrix(1,0,0,1,499.16,570)">
                <g id="g-root-tx_retail_hss6y11w1hzwh-fill">
                    <g id="tx_retail_hss6y11w1hzwh-fill">
                        <g>
                            <g>
                                <text x="0px" y="0px" style="font-family:'Arial-BoldMT', 'Arial', sans-serif;font-weight:700;font-size:20px;fill:rgb(44,44,44);">Retail</text>
                            </g>
                        </g>
                    </g>
                </g>
            </g>
            <g id="g-root-tx_securefi_1ha36ll1w1m7m0-fill" transform="matrix(1,0,0,1,65,560)">
                <g id="tx_securefi_1ha36ll1w1m7m0-fill">
                    <g>
                        <g>
                            <g transform="matrix(1,0,0,1,13.79,28.2)">
                                <g transform="matrix(15,0,0,15,51.6943,0)">
                                </g>
                                <g transform="matrix(15,0,0,15,55.8618,0)">
                                </g>
                                <text x="0px" y="0px" style="font-family:'ArialMT', 'Arial', sans-serif;font-size:15px;fill:rgb(44,44,44);">Secure ﬁnancial transactions</text>
                            </g>
                            <g transform="matrix(1,0,0,1,31.19,46.2)">
                                <text x="0px" y="0px" style="font-family:'ArialMT', 'Arial', sans-serif;font-size:15px;fill:rgb(44,44,44);">with instant SMS alerts.</text>
                            </g>
                        </g>
                    </g>
                </g>
            </g>
            <g id="g-root-tx_generate_18gy5ux1w1no5q-fill" transform="matrix(1,0,0,1,392,770)">
                <g id="tx_generate_18gy5ux1w1no5q-fill">
                    <g>
                        <g>
                            <g transform="matrix(1,0,0,1,13.41,28.2)">
                                <text x="0px" y="0px" style="font-family:'ArialMT', 'Arial', sans-serif;font-size:15px;fill:rgb(44,44,44);">Generate leads with real estate</text>
                            </g>
                            <g transform="matrix(1,0,0,1,43.11,46.2)">
                                <text x="0px" y="0px" style="font-family:'ArialMT', 'Arial', sans-serif;font-size:15px;fill:rgb(44,44,44);">SMS property listings.</text>
                            </g>
                        </g>
                    </g>
                </g>
            </g>
            <g id="g-root-tx_increase_zlb5m11w1hzpe-fill" transform="matrix(1,0,0,1,407,572)">
                <g id="tx_increase_zlb5m11w1hzpe-fill">
                    <g>
                        <g>
                            <g transform="matrix(1,0,0,1,16.77,28.2)">
                                <g transform="matrix(15,0,0,15,108.391,0)">
                                </g>
                                <g transform="matrix(15,0,0,15,112.425,0)">
                                </g>
                                <g transform="matrix(15,0,0,15,116.459,0)">
                                </g>
                                <text x="0px" y="0px" style="font-family:'ArialMT', 'Arial', sans-serif;font-size:15px;fill:rgb(44,44,44);">Increase foot traﬃc with retail</text>
                            </g>
                            <g transform="matrix(1,0,0,1,24.63,46.2)">
                                <text x="0px" y="0px" style="font-family:'ArialMT', 'Arial', sans-serif;font-size:15px;fill:rgb(44,44,44);">SMS marketing campaigns.</text>
                            </g>
                        </g>
                    </g>
                </g>
            </g>
            <g transform="matrix(1,0,0,1,495.39,336)">
                <g id="g-root-tx_educatio_1unf7e11w1durp-fill">
                    <g id="tx_educatio_1unf7e11w1durp-fill">
                        <g>
                            <g>
                                <text x="0px" y="0px" style="font-family:'Arial-BoldMT', 'Arial', sans-serif;font-weight:700;font-size:20px;fill:rgb(44,44,44);">Education</text>
                            </g>
                        </g>
                    </g>
                </g>
            </g>
            <g transform="matrix(1,0,0,1,104.69,336)">
                <g id="g-root-tx_ecommerc_1d1rdih1w1ceti-fill">
                    <g id="tx_ecommerc_1d1rdih1w1ceti-fill">
                        <g>
                            <g>
                                <text x="0px" y="0px" style="font-family:'Arial-BoldMT', 'Arial', sans-serif;font-weight:700;font-size:20px;fill:rgb(44,44,44);">E-commerce</text>
                            </g>
                        </g>
                    </g>
                </g>
            </g>
            <g transform="matrix(1,0,0,1,104.21,756)">
                <g id="g-root-tx_travelho_18ntand1w1nojt-fill">
                    <g id="tx_travelho_18ntand1w1nojt-fill">
                        <g>
                            <g>
                                <text x="0px" y="0px" style="font-family:'Arial-BoldMT', 'Arial', sans-serif;font-weight:700;font-size:20px;fill:rgb(44,44,44);">T<tspan x="11.113px 18.896px " y="0px 0px ">ra</tspan>vel &amp; Hospitality</text>
                            </g>
                        </g>
                    </g>
                </g>
            </g>
            <g transform="matrix(1,0,0,1,459.43,768)">
                <g id="g-root-tx_realesta_zk27ft1w1nnk5-fill">
                    <g id="tx_realesta_zk27ft1w1nnk5-fill">
                        <g>
                            <g>
                                <text x="0px" y="0px" style="font-family:'Arial-BoldMT', 'Arial', sans-serif;font-weight:700;font-size:20px;fill:rgb(44,44,44);">Real Estate</text>
                            </g>
                        </g>
                    </g>
                </g>
            </g>
            <g id="g-root-tx_enhancec_dcc4kp1w1p0qq-fill" transform="matrix(1,0,0,1,62,758)">
                <g id="tx_enhancec_dcc4kp1w1p0qq-fill">
                    <g>
                        <g>
                            <g transform="matrix(1,0,0,1,13.65,28.2)">
                                <text x="0px" y="0px" style="font-family:'ArialMT', 'Arial', sans-serif;font-size:15px;fill:rgb(44,44,44);">Enhance customer experience with</text>
                            </g>
                            <g transform="matrix(1,0,0,1,12.12,46.2)">
                                <text x="0px" y="0px" style="font-family:'ArialMT', 'Arial', sans-serif;font-size:15px;fill:rgb(44,44,44);">travel and hospitality SMS services.</text>
                            </g>
                        </g>
                    </g>
                </g>
            </g>
            <g id="g-root-cp_5_shape-5_m7cnqh1w1cdfx-stroke" transform="matrix(1,0,0,1,314.303,104)">
                <g id="cp_5_shape-5_m7cnqh1w1cdfx-stroke">
                    <g>
                        <path d="M15.697,160L15.697,292M27.697,292L27.697,160M15.697,160L15.697,28.191L11.017,28.191C10.237,28.191 9.747,27.341 10.137,26.661L20.86,10.448C21.256,9.849 22.136,9.851 22.53,10.451L33.177,26.661C33.577,27.341 33.087,28.191 32.297,28.191L27.697,28.191L27.697,160" style="fill:none;stroke:rgb(44,44,44);stroke-width:2px;"/>
                    </g>
                </g>
            </g>
            <g id="g-root-cp_1_shape-1_1hapnop1w1cetr-stroke" transform="matrix(1,0,0,1,32,103.816)">
                <g id="cp_1_shape-1_1hapnop1w1cetr-stroke">
                    <g>
                        <path d="M10,160.184C10,140.301 26.118,124.321 46,124.321L172,124.321C213.07,124.321 238,94.191 238,54.851L238,28.191L233.32,28.191C232.54,28.191 232.05,27.341 232.44,26.661L243.163,10.448C243.559,9.849 244.439,9.851 244.833,10.451L255.48,26.661C255.88,27.341 255.39,28.191 254.6,28.191L250,28.191L250,160.184M250,292.184C250,312.066 233.882,328.191 214,328.191L46,328.191C26.118,328.191 10,312.081 10,292.199L10,292.184M250,292.184L250,160.184M10,160.184L10,292.184" style="fill:none;stroke:rgb(44,44,44);stroke-width:2px;"/>
                    </g>
                </g>
            </g>
            <g id="g-root-cp_3_shape-3_zk24a11w1ce15-stroke" transform="matrix(1,0,0,1,284.303,104)">
                <g id="cp_3_shape-3_zk24a11w1ce15-stroke">
                    <g>
                        <path d="M15.697,160L15.697,292M27.697,292L27.697,160M15.697,160L15.697,28.191L11.017,28.191C10.237,28.191 9.747,27.341 10.137,26.661L20.86,10.448C21.256,9.849 22.136,9.851 22.53,10.451L33.177,26.661C33.577,27.341 33.087,28.191 32.297,28.191L27.697,28.191L27.697,160" style="fill:none;stroke:rgb(44,44,44);stroke-width:2px;"/>
                    </g>
                </g>
            </g>
            <g id="g-root-cp_3_shape-3_1_m8llwp1w1cfm3-stroke" transform="matrix(1,0,0,1,32,386)">
                <g id="cp_3_shape-3_1_m8llwp1w1cfm3-stroke">
                    <g>
                        <path d="M268,10C268,46 244,64.321 214,64.321L46,64.321C26.118,64.321 10,80.423 10,100.306M280,100.306L280,10" style="fill:none;stroke:rgb(44,44,44);stroke-width:2px;"/>
                    </g>
                </g>
            </g>
            <g id="g-root-cp_5_shape-5_1_4hy2i11w1ceth-stroke" transform="matrix(1,0,0,1,320,386)">
                <g id="cp_5_shape-5_1_4hy2i11w1ceth-stroke">
                    <g>
                        <path d="M10,10L10,208M22,208L22,10" style="fill:none;stroke:rgb(44,44,44);stroke-width:2px;"/>
                    </g>
                </g>
            </g>
            <g id="g-root-cp_3_shape-3_2_1q7lm3t1w1cg7b-stroke" transform="matrix(1,0,0,1,32,476)">
                <g id="cp_3_shape-3_2_1q7lm3t1w1cg7b-stroke">
                    <g>
                        <path d="M280,117.982L280,10M10,10L10,118M280,118.008C280,137.89 263.882,154.008 244,154.008L46,154.008C26.118,154.008 10,137.906 10,118.023L10,118.008" style="fill:none;stroke:rgb(44,44,44);stroke-width:2px;"/>
                    </g>
                </g>
            </g>
            <g id="g-root-cp_5_shape-5_2_18gy2p51w1cfep-stroke" transform="matrix(1,0,0,1,32,584)">
                <g id="cp_5_shape-5_2_18gy2p51w1cfep-stroke">
                    <g>
                        <path d="M298,10C298,45.878 274,64.137 244,64.137L46,64.137C26.118,64.137 10,80.185 10,100M310,100L310,10" style="fill:none;stroke:rgb(44,44,44);stroke-width:2px;"/>
                    </g>
                </g>
            </g>
            <g id="g-root-cp_5_shape-5_3_v641ex1w1cdtv-stroke" transform="matrix(1,0,0,1,32,674)">
                <g id="cp_5_shape-5_3_v641ex1w1cdtv-stroke">
                    <g>
                        <path d="M310,118L310,10M10,10L10,118M310,118C310,137.882 293.882,154.008 274,154.008L46,154.008C26.118,154.008 10,137.882 10,118" style="fill:none;stroke:rgb(44,44,44);stroke-width:2px;"/>
                    </g>
                </g>
            </g>
            <g id="g-root-cp_2_shape-2_4jthrd1w1cdtx-stroke" transform="matrix(1,0,0,1,404.378,103.816)">
                <g id="cp_2_shape-2_4jthrd1w1cdtx-stroke">
                    <g>
                        <path d="M255.622,160.184C255.622,140.301 239.505,124.321 219.623,124.321L93.622,124.321C52.552,124.321 27.622,94.191 27.622,54.851L27.622,28.191L32.302,28.191C33.082,28.191 33.572,27.341 33.182,26.661L22.459,10.448C22.063,9.849 21.184,9.851 20.79,10.451L10.142,26.661C9.742,27.341 10.232,28.191 11.022,28.191L15.622,28.191L15.622,160.184M15.622,304.184C15.622,324.066 31.74,340.184 51.622,340.184L219.623,340.183C239.505,340.183 255.622,324.081 255.622,304.199L255.622,304.184M15.622,304.184L15.622,160.184M255.622,160.184L255.622,304.184" style="fill:none;stroke:rgb(44,44,44);stroke-width:2px;"/>
                    </g>
                </g>
            </g>
            <g id="g-root-cp_4_shape-4_1hdu1491w1cg0f-stroke" transform="matrix(1,0,0,1,374.383,104)">
                <g id="cp_4_shape-4_1hdu1491w1cg0f-stroke">
                    <g>
                        <path d="M27.622,160L27.622,304M15.622,304L15.622,160M27.622,160L27.622,28.191L32.302,28.191C33.082,28.191 33.572,27.341 33.182,26.661L22.459,10.448C22.063,9.849 21.184,9.851 20.79,10.451L10.142,26.661C9.742,27.341 10.232,28.191 11.022,28.191L15.622,28.191L15.622,160" style="fill:none;stroke:rgb(44,44,44);stroke-width:2px;"/>
                    </g>
                </g>
            </g>
            <g id="g-root-cp_6_shape-6_zn6hpl1w1cf7t-stroke" transform="matrix(1,0,0,1,344.383,104)">
                <g id="cp_6_shape-6_zn6hpl1w1cf7t-stroke">
                    <g>
                        <path d="M27.622,160L27.622,304M15.622,304L15.622,160M27.622,160L27.622,28.191L32.302,28.191C33.082,28.191 33.572,27.341 33.182,26.661L22.459,10.448C22.063,9.849 21.184,9.851 20.79,10.451L10.142,26.661C9.742,27.341 10.232,28.191 11.022,28.191L15.622,28.191L15.622,160" style="fill:none;stroke:rgb(44,44,44);stroke-width:2px;"/>
                    </g>
                </g>
            </g>
            <g id="g-root-cp_4_shape-4_1_mccgfd1w1cdmz-stroke" transform="matrix(1,0,0,1,380,398)">
                <g id="cp_4_shape-4_1_mccgfd1w1cdmz-stroke">
                    <g>
                        <path d="M22,10C22,46 46,64.321 76,64.321L244,64.321C263.882,64.321 280,80.423 280,100.306M10,100.306L10,10" style="fill:none;stroke:rgb(44,44,44);stroke-width:2px;"/>
                    </g>
                </g>
            </g>
            <g id="g-root-cp_4_shape-4_2_90vy211w1cf7x-stroke" transform="matrix(1,0,0,1,380,488)">
                <g id="cp_4_shape-4_2_90vy211w1cf7x-stroke">
                    <g>
                        <path d="M10,118L10,10M280,10L280,118M10,118C10,137.882 26.118,154.008 46,154.008L244,154.008C263.882,154.008 280,137.898 280,118.016L280,118" style="fill:none;stroke:rgb(44,44,44);stroke-width:2px;"/>
                    </g>
                </g>
            </g>
            <g id="g-root-cp_6_shape-6_1_1ur5yqx1w1cdfz-stroke" transform="matrix(1,0,0,1,350,398)">
                <g id="cp_6_shape-6_1_1ur5yqx1w1cdfz-stroke">
                    <g>
                        <path d="M22,10L22,208M10,208L10,10" style="fill:none;stroke:rgb(44,44,44);stroke-width:2px;"/>
                    </g>
                </g>
            </g>
            <g id="g-root-cp_6_shape-6_2_1lviyi11w1cf0h-stroke" transform="matrix(1,0,0,1,350,596)">
                <g id="cp_6_shape-6_2_1lviyi11w1cf0h-stroke">
                    <g>
                        <path d="M22,10C22,46 46,64.321 76,64.321L274,64.321C293.882,64.321 310,80.423 310,100.306M10,100.306L10,10" style="fill:none;stroke:rgb(44,44,44);stroke-width:2px;"/>
                    </g>
                </g>
            </g>
            <g id="g-root-cp_6_shape-6_3_18kox7t1w1cdfn-stroke" transform="matrix(1,0,0,1,350,686)">
                <g id="cp_6_shape-6_3_18kox7t1w1cdfn-stroke">
                    <g>
                        <path d="M10,118L10,10M310,10L310,118M10,118C10,137.882 26.118,154.008 46,154.008L274,154.008C293.882,154.008 310,137.898 310,118.016L310,118" style="fill:none;stroke:rgb(44,44,44);stroke-width:2px;"/>
                    </g>
                </g>
            </g>
            <g id="g-root-ic_vr_147zsix1w1cemg-stroke" transform="matrix(1,0,0,1,128,242)">
                <g id="ic_vr_147zsix1w1cemg-stroke">
                    <g>
                        <path d="M51,51L51,53M51,41L51,43M47,47L45,47M57,47L55,47M19,21L19,23M19,11L19,13M15,17L13,17M25,17L23,17M49,31C49,32.105 49.895,33 51,33C52.105,33 53,32.105 53,31C53,29.895 52.105,29 51,29C49.895,29 49,29.895 49,31M41,31C41,32.105 41.895,33 43,33C44.105,33 45,32.105 45,31C45,29.895 44.105,29 43,29C41.895,29 41,29.895 41,31M57,12L52,27L42,27L39,17L55.334,17M36.316,37C34.624,32.201 30.088,28.991 24.999,28.991C19.91,28.991 15.374,32.201 13.682,37M39,39L39,45.344C39,46.405 38.578,47.422 37.828,48.172L36.866,49.134C35.735,50.266 34.038,50.614 32.552,50.02L25,47L17.448,50.02C15.962,50.614 14.265,50.266 13.134,49.134L12.172,48.172C11.422,47.422 11,46.405 11,45.344L11,39C11,37.895 11.895,37 13,37L37,37C38.105,37 39,37.895 39,39ZM17.932,54.698C22.048,57.698 27.611,57.773 31.806,54.884M25,27L25,37M28,52C26.222,53.333 23.778,53.333 22,52M22,41L29,41" style="fill:none;stroke:rgb(44,44,44);stroke-width:2px;"/>
                    </g>
                </g>
            </g>
            <g id="g-root-ic_kios_1uoo5k91w1i137-stroke" transform="matrix(1,0,0,1,491,476)">
                <g id="ic_kios_1uoo5k91w1i137-stroke">
                    <g>
                        <path d="M15,57L15,26.676M53,26.676L53,57M51.764,11L16.236,11C15.479,11 14.787,11.429 14.448,12.106L11,19L57,19L53.552,12.106C53.213,11.429 52.521,11 51.764,11ZM57,21C57.086,23.413 55.648,25.62 53.407,26.517C51.165,27.414 48.602,26.807 47,25C45.686,27.221 43.393,28.683 40.825,28.936C38.256,29.189 35.722,28.202 34,26.28C32.278,28.202 29.744,29.189 27.175,28.936C24.607,28.683 22.314,27.221 21,25C19.396,26.802 16.836,27.405 14.596,26.51C12.357,25.614 10.919,23.411 11,21L11,19L57,19L57,21ZM21,25L21,19L23,11M34,26.292L34,11M47,25L47,19L45,11M15,49L53,49M19,45C19,47.209 20.791,49 23,49C25.209,49 27,47.209 27,45C27,42.791 25.209,41 23,41C20.791,41 19,42.791 19,45ZM23,41L23,38.782M21,39L21.764,39C23.135,39 24.388,38.226 25,37M29,45C29,47.209 30.791,49 33,49C35.209,49 37,47.209 37,45C37,42.791 35.209,41 33,41C30.791,41 29,42.791 29,45ZM33,41L33,38.782M31,39L31.764,39C33.135,39 34.388,38.226 35,37M41,45C41,47.209 42.791,49 45,49C47.209,49 49,47.209 49,45C49,42.791 47.209,41 45,41C42.791,41 41,42.791 41,45ZM45,41L45,38.782M43,39L43.764,39C45.135,39 46.388,38.226 47,37" style="fill:none;stroke:rgb(44,44,44);stroke-width:2px;"/>
                    </g>
                </g>
            </g>
            <g id="g-root-ic_clou_1cvimnd1w1p1cb-stroke" transform="matrix(1,0,0,1,158,662)">
                <g id="ic_clou_1cvimnd1w1p1cb-stroke">
                    <g>
                        <path d="M29.002,26.996L29.002,56.988M19.054,29.006L23.002,29.006M17.954,33.006L23.002,33.006M16.854,37.004L23.002,37.004M35,41.004L41.298,41.004M35,45.002L42.38,45.002M17.004,50.99L17.004,56.988M40.998,50.99L40.998,56.988M11.006,57L56.994,57M23.002,51.002L23.002,57M35,51.002L35,57M52,21C54.738,21.01 56.974,18.816 57.017,16.079C57.06,13.341 54.894,11.078 52.157,11.002C49.421,10.926 47.132,13.064 47.022,15.8C46.035,14.885 44.559,14.739 43.412,15.444C42.266,16.148 41.728,17.53 42.098,18.824C42.468,20.118 43.654,21.008 45,21L52,21ZM42.692,51C43.003,51 43.296,50.855 43.485,50.608C43.673,50.361 43.737,50.04 43.656,49.74L34.8,16.956C34.687,16.539 34.318,16.242 33.887,16.219C33.455,16.197 33.058,16.455 32.902,16.858L29,27L25.018,14.26C24.885,13.837 24.49,13.552 24.047,13.559C23.604,13.566 23.218,13.865 23.1,14.292L13.354,49.736C13.272,50.037 13.334,50.359 13.523,50.606C13.712,50.854 14.006,51 14.318,51L42.692,51Z" style="fill:none;stroke:rgb(44,44,44);stroke-width:2px;"/>
                    </g>
                </g>
            </g>
            <g id="g-root-ic_rise_4jtkx51w1nmkv-stroke" transform="matrix(1,0,0,1,476,674)">
                <g id="ic_rise_4jtkx51w1nmkv-stroke">
                    <g>
                        <path d="M57,39L46.42,49.58C46.044,49.959 45.533,50.172 45,50.172C44.467,50.172 43.956,49.959 43.58,49.58L38.42,44.42C38.044,44.041 37.533,43.828 37,43.828C36.467,43.828 35.956,44.041 35.58,44.42L23,57M57,48L57,39L48,39M11,45C11,45.552 11.448,46 12,46L26,46C26.552,46 27,45.552 27,45L27,13.42C27,13.094 26.841,12.789 26.574,12.602C26.308,12.415 25.966,12.369 25.66,12.48L11.66,16.76C11.264,16.903 11,17.279 11,17.7L11,45ZM13,16L13,11M27,21L21,21M41,29L35,29M41,35L33,35M27,27L16,27M22,46L22,39C22,38.448 21.552,38 21,38L17,38C16.448,38 16,38.448 16,39L16,46M27,23L40,23C40.552,23 41,23.448 41,24L41,40" style="fill:none;stroke:rgb(44,44,44);stroke-width:2px;"/>
                    </g>
                </g>
            </g>
            <g id="g-root-ic_inte_1ltnmeh1w1dukn-stroke" transform="matrix(1,0,0,1,506,242)">
                <g id="ic_inte_1ltnmeh1w1dukn-stroke">
                    <g>
                        <path d="M29.362,32L29.362,34.312M32.878,28.636C27.724,26.698 21.974,29.291 20.014,34.436M31.696,18C33.268,18.002 34.823,17.684 36.268,17.066C35.887,14.11 33.664,11.725 30.742,11.137C27.82,10.548 24.848,11.888 23.352,14.466C25.54,16.726 28.551,18.001 31.696,18ZM22.362,18C22.362,21.866 25.496,25 29.362,25C33.228,25 36.362,21.866 36.362,18C36.362,14.134 33.228,11 29.362,11C25.496,11 22.362,14.134 22.362,18M39.458,36.432C39.457,40.68 42.9,44.124 47.148,44.124C51.396,44.124 54.839,40.68 54.838,36.432C54.839,32.184 51.396,28.74 47.148,28.74C42.9,28.74 39.457,32.184 39.458,36.432M37.36,56.708C37.31,53.177 39.164,49.893 42.214,48.113C45.263,46.333 49.035,46.333 52.084,48.113C55.134,49.893 56.988,53.177 56.938,56.708M32.878,49.698L12.096,49.698C11.742,49.698 11.413,49.516 11.224,49.218C11.035,48.919 11.013,48.544 11.164,48.224L14.782,40.642C15.124,39.925 15.848,39.469 16.642,39.468L34.642,39.468M13.476,49.782L13.476,57M40.864,32C46.014,37.15 51.864,36.432 54.84,36.432M47.148,53.184L47.148,50.442" style="fill:none;stroke:rgb(44,44,44);stroke-width:2px;"/>
                    </g>
                </g>
            </g>
            <g id="g-root-ic_lock_m7z4tl1w1m8e9-stroke" transform="matrix(1,0,0,1,143,464)">
                <g id="ic_lock_m7z4tl1w1m8e9-stroke">
                    <g>
                        <path d="M35.526,45.496L15.378,45.496C13.07,45.494 11.2,43.622 11.2,41.314L11.2,15.182C11.2,12.874 13.07,11.002 15.378,11L46.738,11C49.047,11.001 50.918,12.873 50.918,15.182L50.918,27.854M11.196,19.166L50.918,19.166M11.196,36.516L35.526,36.516M11.196,27.854L50.918,27.854M27.42,19.166L27.42,45.496M39.052,19.166L39.052,33.206M39.672,45.104C39.672,43.462 41.004,42.13 42.646,42.13L53.83,42.13C55.471,42.132 56.8,43.463 56.8,45.104L56.8,54.026C56.8,55.667 55.471,56.998 53.83,57L42.646,57C41.004,57 39.672,55.668 39.672,54.026L39.672,45.104ZM48.238,33.2C45.019,33.267 42.463,35.929 42.528,39.148L42.528,42.124L53.948,42.124L53.948,39.154C54.016,35.933 51.459,33.267 48.238,33.2L48.238,33.2ZM48.238,47.482C47.359,47.446 46.547,47.948 46.186,48.749C45.825,49.551 45.987,50.492 46.596,51.126C47.205,51.76 48.138,51.961 48.954,51.633C49.77,51.304 50.304,50.513 50.304,49.634C50.327,48.469 49.403,47.506 48.238,47.482" style="fill:none;stroke:rgb(44,44,44);stroke-width:2px;"/>
                    </g>
                </g>
            </g>
        </g>
    </g>
</svg>
