<?xml version="1.0" encoding="UTF-8" standalone="no"?>
<!DOCTYPE svg PUBLIC "-//W3C//DTD SVG 1.1//EN" "http://www.w3.org/Graphics/SVG/1.1/DTD/svg11.dtd">
<svg width="100%" height="100%" viewBox="0 0 618 708" version="1.1" xmlns="http://www.w3.org/2000/svg" xmlns:xlink="http://www.w3.org/1999/xlink" xml:space="preserve" xmlns:serif="http://www.serif.com/" style="fill-rule:evenodd;clip-rule:evenodd;stroke-linecap:round;stroke-linejoin:round;">
    <g id="items" transform="matrix(1.21312,0,0,1.21312,-65.8039,-141.082)">
        <g id="blend">
            <g id="g-root-cp_1_sign-1_zlaghk1wv2s5p-fill" transform="matrix(1,0,0,1,50,194)">
                <g id="cp_1_sign-1_zlaghk1wv2s5p-fill">
                    <g>
                        <path d="M10,52L28,10L28,94L10,52ZM28,10L249,10L249,94L28,94L28,10Z" style="fill:rgb(79,145,252);"/>
                    </g>
                </g>
            </g>
            <g id="g-root-cp_3_sign-3_humx2w1wv2rd3-fill" transform="matrix(1,0,0,1,98,290)">
                <g id="cp_3_sign-3_humx2w1wv2rd3-fill">
                    <g>
                        <path d="M10,64L28,10L28,118L10,64ZM28,10L201,10L201,118L28,118L28,10Z" style="fill:rgb(166,218,55);"/>
                    </g>
                </g>
            </g>
            <g id="g-root-cp_5_sign-5_4j6epk1wv2sy1-fill" transform="matrix(1,0,0,1,98,410)">
                <g id="cp_5_sign-5_4j6epk1wv2sy1-fill">
                    <g>
                        <path d="M10,52L28,10L28,94L10,52ZM28,10L201,10L201,94L28,94L28,10Z" style="fill:rgb(247,148,56);"/>
                    </g>
                </g>
            </g>
            <g id="g-root-cp_pole_g-pole_1ltmxa01wv2ryb-fill" transform="matrix(1,0,0,1,287,170)">
                <g id="cp_pole_g-pole_1ltmxa01wv2ryb-fill">
                    <g>
                        <path d="M31,346L13,346L13,460L31,460L31,459.897L24.55,459.88C24.55,459.88 25.3,453.89 17.74,452.78C25.63,449.53 28.41,454.56 28.41,454.56C28.41,454.56 27.994,447.986 31,442.2L31,346ZM13,22L31,22L31,346L13,346L13,22Z" style="fill:rgb(171,171,171);"/>
                    </g>
                </g>
                <g id="cp_pole_g-pole_1ltmxa01wv2ryb-fill1" serif:id="cp_pole_g-pole_1ltmxa01wv2ryb-fill">
                    <g>
                        <rect x="10" y="10" width="24" height="12" style="fill:rgb(171,171,171);"/>
                    </g>
                </g>
            </g>
            <g id="g-root-cp_pole_plant_18isvzs1wv2qdi-fill" transform="matrix(1,0,0,1,255,595)">
                <g id="cp_pole_plant_18isvzs1wv2qdi-fill">
                    <g>
                        <path d="M60.393,29.56C60.393,29.56 57.613,24.53 49.723,27.78C54.516,28.484 57.019,30.471 56.533,35.008L10,35.008C10,35.008 17.976,46.521 54.183,46.521C90.39,46.521 97.76,35.008 97.76,35.008L71.483,35.008C68.788,30.384 74.815,23.86 80.883,26.67C78.883,23.56 72.993,22.89 68.553,26C66.693,20.52 67.443,13.77 70.613,10C59.453,14.7 60.393,29.56 60.393,29.56Z" style="fill:rgb(145,187,57);"/>
                    </g>
                </g>
            </g>
            <g id="g-root-cp_2_sign-2_qrivi01wv2sqo-fill" transform="matrix(1,0,0,1,309,230)">
                <g id="cp_2_sign-2_qrivi01wv2sqo-fill">
                    <g>
                        <path d="M10,10L231,10L231,94L10,94L10,10ZM249,52L231,10L231,94L249,52Z" style="fill:rgb(67,221,147);"/>
                    </g>
                </g>
            </g>
            <g id="g-root-cp_4_sign-4_dgou7s1wv2r5u-fill" transform="matrix(1,0,0,1,309,326)">
                <g id="cp_4_sign-4_dgou7s1wv2r5u-fill">
                    <g>
                        <path d="M10,10L219,10L219,94L10,94L10,10ZM237,52L219,10L219,94L237,52Z" style="fill:rgb(26,195,251);"/>
                    </g>
                </g>
            </g>
            <g id="g-root-cp_6_sign-6_58bug1wv2sqs-fill" transform="matrix(1,0,0,1,309,422)">
                <g id="cp_6_sign-6_58bug1wv2sqs-fill">
                    <g>
                        <path d="M10,10L219,10L219,94L10,94L10,10ZM237,52L219,10L219,94L237,52Z" style="fill:rgb(135,105,253);"/>
                    </g>
                </g>
            </g>
            <g id="g-root-tx_improved_zmjens1wv5lvk-fill" transform="matrix(1,0,0,1,122,212)">
                <g id="tx_improved_zmjens1wv5lvk-fill">
                    <g>
                        <g>
                            <g transform="matrix(1,0,0,1,23.47,34)">
                                <text x="0px" y="0px" style="font-family:'ArialMT', 'Arial', sans-serif;font-size:20px;fill:rgb(44,44,44);">Improved Brand</text>
                            </g>
                            <g transform="matrix(1,0,0,1,89.37,58)">
                                <text x="0px" y="0px" style="font-family:'ArialMT', 'Arial', sans-serif;font-size:20px;fill:rgb(44,44,44);">V<tspan x="12.979px 17.422px " y="0px 0px ">is</tspan>ibility</text>
                            </g>
                        </g>
                    </g>
                </g>
            </g>
            <g id="g-root-tx_fastercu_8zmdx41wv9t6u-fill" transform="matrix(1,0,0,1,320,248)">
                <g id="tx_fastercu_8zmdx41wv9t6u-fill">
                    <g>
                        <g>
                            <g transform="matrix(1,0,0,1,12,34)">
                                <text x="0px" y="0px" style="font-family:'ArialMT', 'Arial', sans-serif;font-size:20px;fill:rgb(44,44,44);">Faster Customer</text>
                            </g>
                            <g transform="matrix(1,0,0,1,12,58)">
                                <text x="0px" y="0px" style="font-family:'ArialMT', 'Arial', sans-serif;font-size:20px;fill:rgb(44,44,44);">Reach</text>
                            </g>
                        </g>
                    </g>
                </g>
            </g>
            <g id="g-root-tx_higherco_18jfd2w1wv6zuy-fill" transform="matrix(1,0,0,1,170,308)">
                <g id="tx_higherco_18jfd2w1wv6zuy-fill">
                    <g>
                        <g>
                            <g transform="matrix(1,0,0,1,57.23,34)">
                                <text x="0px" y="0px" style="font-family:'ArialMT', 'Arial', sans-serif;font-size:20px;fill:rgb(44,44,44);">Higher</text>
                            </g>
                            <g transform="matrix(1,0,0,1,15.95,58)">
                                <text x="0px" y="0px" style="font-family:'ArialMT', 'Arial', sans-serif;font-size:20px;fill:rgb(44,44,44);">Conversion</text>
                            </g>
                            <g transform="matrix(1,0,0,1,65.33,82)">
                                <text x="0px" y="0px" style="font-family:'ArialMT', 'Arial', sans-serif;font-size:20px;fill:rgb(44,44,44);">Rates</text>
                            </g>
                        </g>
                    </g>
                </g>
            </g>
            <g id="g-root-tx_seamless_qs5cl41wvb6dk-fill" transform="matrix(1,0,0,1,320,344)">
                <g id="tx_seamless_qs5cl41wvb6dk-fill">
                    <g>
                        <g>
                            <g transform="matrix(1,0,0,1,12,34)">
                                <text x="0px" y="0px" style="font-family:'ArialMT', 'Arial', sans-serif;font-size:20px;fill:rgb(44,44,44);">Seamless Bulk</text>
                            </g>
                            <g transform="matrix(1,0,0,1,12,58)">
                                <text x="0px" y="0px" style="font-family:'ArialMT', 'Arial', sans-serif;font-size:20px;fill:rgb(44,44,44);">Messaging</text>
                            </g>
                        </g>
                    </g>
                </g>
            </g>
            <g id="g-root-tx_datadriv_18kob941wv8fes-fill" transform="matrix(1,0,0,1,170,428)">
                <g id="tx_datadriv_18kob941wv8fes-fill">
                    <g>
                        <g>
                            <g transform="matrix(1,0,0,1,13.02,34)">
                                <text x="0px" y="0px" style="font-family:'ArialMT', 'Arial', sans-serif;font-size:20px;fill:rgb(44,44,44);">Data-Driven</text>
                            </g>
                            <g transform="matrix(1,0,0,1,42.45,58)">
                                <text x="0px" y="0px" style="font-family:'ArialMT', 'Arial', sans-serif;font-size:20px;fill:rgb(44,44,44);">Strategy</text>
                            </g>
                        </g>
                    </g>
                </g>
            </g>
            <g id="g-root-tx_scalable_1q7l0541wvcn4a-fill" transform="matrix(1,0,0,1,320,440)">
                <g id="tx_scalable_1q7l0541wvcn4a-fill">
                    <g>
                        <g>
                            <g transform="matrix(1,0,0,1,12,34)">
                                <text x="0px" y="0px" style="font-family:'ArialMT', 'Arial', sans-serif;font-size:20px;fill:rgb(44,44,44);">Scalable for <tspan x="110.068px 123.408px " y="0px 0px ">Al</tspan>l</text>
                            </g>
                            <g transform="matrix(1,0,0,1,12,58)">
                                <text x="0px" y="0px" style="font-family:'ArialMT', 'Arial', sans-serif;font-size:20px;fill:rgb(44,44,44);">Sizes</text>
                            </g>
                        </g>
                    </g>
                </g>
            </g>
            <g id="g-root-cp_1_sign-1_zlaghk1wv2s5p-stroke" transform="matrix(1,0,0,1,50,194)">
                <g id="cp_1_sign-1_zlaghk1wv2s5p-stroke">
                    <g>
                        <path d="M28,10L249,10M249,94L28,94M28,94L10,52L28,10" style="fill:none;stroke:rgb(44,44,44);stroke-width:2px;"/>
                    </g>
                </g>
            </g>
            <g id="g-root-cp_3_sign-3_humx2w1wv2rd3-stroke" transform="matrix(1,0,0,1,98,290)">
                <g id="cp_3_sign-3_humx2w1wv2rd3-stroke">
                    <g>
                        <path d="M28,10L201,10M201,118L28,118M28,118L10,64L28,10" style="fill:none;stroke:rgb(44,44,44);stroke-width:2px;"/>
                    </g>
                </g>
            </g>
            <g id="g-root-cp_5_sign-5_4j6epk1wv2sy1-stroke" transform="matrix(1,0,0,1,98,410)">
                <g id="cp_5_sign-5_4j6epk1wv2sy1-stroke">
                    <g>
                        <path d="M28,10L201,10M201,94L28,94M28,94L10,52L28,10" style="fill:none;stroke:rgb(44,44,44);stroke-width:2px;"/>
                    </g>
                </g>
            </g>
            <g id="g-root-cp_pole_g-pole_1ltmxa01wv2ryb-stroke" transform="matrix(1,0,0,1,287,170)">
                <g id="cp_pole_g-pole_1ltmxa01wv2ryb-stroke">
                    <g>
                        <path d="M31,442L31,346M13,459L13,346M31,346L31,22M13,346L13,22" style="fill:none;stroke:rgb(44,44,44);stroke-width:2px;"/>
                    </g>
                </g>
                <g id="cp_pole_g-pole_1ltmxa01wv2ryb-stroke1" serif:id="cp_pole_g-pole_1ltmxa01wv2ryb-stroke">
                    <g>
                        <rect x="10" y="10" width="24" height="12" style="fill:none;stroke:rgb(44,44,44);stroke-width:2px;"/>
                    </g>
                </g>
            </g>
            <g id="g-root-cp_pole_plant_18isvzs1wv2qdi-stroke" transform="matrix(1,0,0,1,255,595)">
                <g id="cp_pole_plant_18isvzs1wv2qdi-stroke">
                    <g>
                        <path d="M56.55,34.88C56.55,34.88 57.3,28.89 49.74,27.78C57.63,24.53 60.41,29.56 60.41,29.56C60.41,29.56 59.47,14.7 70.63,10C67.46,13.77 66.71,20.52 68.57,26C73.01,22.89 78.9,23.56 80.9,26.67C76.68,24.44 69.89,28.468 71,34.918M71,34.918L98,34.918M10,34.918L56.5,34.918" style="fill:none;stroke:rgb(44,44,44);stroke-width:2px;"/>
                    </g>
                </g>
            </g>
            <g id="g-root-cp_2_sign-2_qrivi01wv2sqo-stroke" transform="matrix(1,0,0,1,309,230)">
                <g id="cp_2_sign-2_qrivi01wv2sqo-stroke">
                    <g>
                        <path d="M231,94L10,94M10,10L231,10M231,10L249,52L231,94" style="fill:none;stroke:rgb(44,44,44);stroke-width:2px;"/>
                    </g>
                </g>
            </g>
            <g id="g-root-cp_4_sign-4_dgou7s1wv2r5u-stroke" transform="matrix(1,0,0,1,309,326)">
                <g id="cp_4_sign-4_dgou7s1wv2r5u-stroke">
                    <g>
                        <path d="M219,94L10,94M10,10L219,10M219,10L237,52L219,94" style="fill:none;stroke:rgb(44,44,44);stroke-width:2px;"/>
                    </g>
                </g>
            </g>
            <g id="g-root-cp_6_sign-6_58bug1wv2sqs-stroke" transform="matrix(1,0,0,1,309,422)">
                <g id="cp_6_sign-6_58bug1wv2sqs-stroke">
                    <g>
                        <path d="M219,94L10,94M10,10L219,10M219,10L237,52L219,94" style="fill:none;stroke:rgb(44,44,44);stroke-width:2px;"/>
                    </g>
                </g>
            </g>
            <g id="g-root-ic_idea_hxraig1wv2sjr-stroke" transform="matrix(1,0,0,1,74,218)">
                <g id="ic_idea_hxraig1wv2sjr-stroke">
                    <g>
                        <path d="M29.95,38.125L25.45,38.125M43.504,31.438C43.809,31.715 43.988,32.104 43.999,32.516C44.009,32.928 43.851,33.327 43.561,33.619C41.219,35.964 35.212,41.119 27.7,41.119C20.615,41.119 14.65,35.767 12.427,33.487C11.873,32.921 11.855,32.022 12.385,31.433C14.57,28.997 20.57,23.125 27.7,23.125C33.687,23.125 40.802,28.994 43.504,31.438ZM27.7,19.375L27.7,14.875M21.7,19.375L20.95,16.375M17.95,21.625L16.45,19.375M14.95,24.625L12.7,22.375M33.7,19.375L34.45,16.375M37.45,21.625L38.95,19.375M40.45,24.625L42.7,22.375M31.45,29.875C31.458,28.109 30.233,26.578 28.509,26.197C26.785,25.816 25.029,26.689 24.292,28.294C23.555,29.898 24.038,31.799 25.45,32.859L25.45,35.125L29.95,35.125L29.95,32.859C30.892,32.155 31.447,31.05 31.45,29.875L31.45,29.875ZM18.7,32.125C18.7,37.096 22.729,41.125 27.7,41.125C32.671,41.125 36.7,37.096 36.7,32.125C36.7,27.154 32.671,23.125 27.7,23.125C22.729,23.125 18.7,27.154 18.7,32.125Z" style="fill:none;stroke:rgb(44,44,44);stroke-width:2px;"/>
                    </g>
                </g>
            </g>
            <g id="g-root-ic_box_1ut0s1k1wv8efh-stroke" transform="matrix(1,0,0,1,488,254)">
                <g id="ic_box_1ut0s1k1wv8efh-stroke">
                    <g>
                        <path d="M11.5,37.191L28,41.691M28,41.691L44.5,37.191M11.5,37.191L19.74,35.032M11.5,44.032L11.5,37.378M44.5,37.378L44.5,44.032M28,44.782L28,41.691M33.25,19.093C33.25,21.993 32.376,29.593 28,29.593C23.625,29.593 22.75,22 22.75,19.093C22.75,13.843 28,11.218 28,11.218C28,11.218 33.25,13.843 33.25,19.093ZM25.941,18.906C25.94,20.043 26.862,20.965 28,20.965C29.138,20.965 30.06,20.043 30.06,18.906C30.06,17.768 29.138,16.846 28,16.846C26.862,16.846 25.94,17.768 25.941,18.906M24.525,28.242L23.313,28.849C22.627,29.213 21.999,29.676 21.449,30.223C21.18,30.512 20.764,30.611 20.394,30.474C20.024,30.337 19.772,29.992 19.754,29.598C19.49,27.289 20.782,25.083 22.924,24.183M31.476,28.242L32.688,28.849C33.373,29.213 34.001,29.676 34.55,30.223C34.82,30.512 35.236,30.611 35.606,30.474C35.976,30.337 36.228,29.992 36.245,29.598C36.51,27.289 35.218,25.083 33.076,24.183M44.5,37.191L36.26,35.032M30.1,34.01C30.1,35.17 29.16,37.975 28,37.975C26.84,37.975 25.9,35.17 25.9,34.01C25.9,32.851 26.84,31.911 28,31.911C29.16,31.911 30.1,32.851 30.1,34.01Z" style="fill:none;stroke:rgb(44,44,44);stroke-width:2px;"/>
                    </g>
                </g>
            </g>
            <g id="g-root-ic_incr_18k1u601wv5jbd-stroke" transform="matrix(1,0,0,1,122,326)">
                <g id="ic_incr_18k1u601wv5jbd-stroke">
                    <g>
                        <path d="M19.75,28L19.75,16L22.75,16C24.407,16 25.75,17.343 25.75,19C25.75,20.657 24.407,22 22.75,22L19.75,22L25.75,28M45.25,36.245L45.25,29.495L38.5,29.495M45.25,29.5L37.675,37.077C36.797,37.954 35.508,38.279 34.32,37.923L25.75,35.629C24.586,35.318 23.344,35.652 22.492,36.503L13.75,45.25M28.404,31.251C32.801,28.206 34.447,22.486 32.34,17.57C30.234,12.654 24.957,9.9 19.72,10.984C14.482,12.068 10.732,16.69 10.75,22.039C10.768,27.387 14.549,31.984 19.794,33.033" style="fill:none;stroke:rgb(44,44,44);stroke-width:2px;"/>
                    </g>
                </g>
            </g>
            <g id="g-root-ic_1_hwicc81wv9tsf-stroke" transform="matrix(1,0,0,1,476,350)">
                <g id="ic_1_hwicc81wv9tsf-stroke">
                    <g>
                        <path d="M24.25,34L21.25,37L21.25,31L20.5,31C15.122,30.984 10.766,26.628 10.75,21.25C10.75,15.887 15.137,10.75 20.5,10.75L32.5,10.75C37.863,10.75 42.25,15.887 42.25,21.25C42.252,22.537 41.997,23.812 41.5,25M27.25,37.375C27.25,39.239 28.761,40.75 30.625,40.75C32.489,40.75 34,39.239 34,37.375C34,35.511 32.489,34 30.625,34C28.761,34 27.25,35.511 27.25,37.375ZM38.5,41.875C38.5,43.739 40.011,45.25 41.875,45.25C43.739,45.25 45.25,43.739 45.25,41.875C45.25,40.011 43.739,38.5 41.875,38.5C40.011,38.5 38.5,40.011 38.5,41.875ZM38.5,30.625C38.5,32.489 40.011,34 41.875,34C43.739,34 45.25,32.489 45.25,30.625C45.25,28.761 43.739,27.25 41.875,27.25C40.011,27.25 38.5,28.761 38.5,30.625ZM33.513,35.642L38.988,32.357M33.757,38.627L38.743,40.623" style="fill:none;stroke:rgb(44,44,44);stroke-width:2px;"/>
                    </g>
                </g>
            </g>
            <g id="g-root-ic_1_1qbybqw1wv6znv-stroke" transform="matrix(1,0,0,1,122,434)">
                <g id="ic_1_1qbybqw1wv6znv-stroke">
                    <g>
                        <path d="M36.251,14.77C36.252,16.656 37.78,18.184 39.666,18.184C41.551,18.184 43.08,16.656 43.08,14.77C43.08,12.884 41.551,11.356 39.666,11.356C37.78,11.356 36.252,12.884 36.252,14.77M44.788,25.44C44.74,22.645 42.461,20.405 39.666,20.405C36.871,20.405 34.592,22.645 34.544,25.439M36.251,33.974C36.252,35.86 37.78,37.389 39.666,37.389C41.551,37.389 43.08,35.86 43.08,33.975C43.08,32.089 41.551,30.561 39.666,30.561C37.78,30.561 36.252,32.089 36.252,33.975M44.788,44.65C44.74,41.856 42.461,39.615 39.666,39.615C36.871,39.615 34.592,41.856 34.544,44.65M11.212,30.62C11.212,36.419 15.913,41.12 21.712,41.12C27.511,41.12 32.212,36.419 32.212,30.621C32.212,24.822 27.511,20.121 21.712,20.121C15.913,20.121 11.212,24.822 11.212,30.621M14.799,38.522L21.712,30.62L21.712,20.121M21.712,30.62L32.212,30.62" style="fill:none;stroke:rgb(44,44,44);stroke-width:2px;"/>
                    </g>
                </g>
            </g>
            <g id="g-root-ic_3_18kob941wvb66h-stroke" transform="matrix(1,0,0,1,476,446)">
                <g id="ic_3_18kob941wvb66h-stroke">
                    <g>
                        <path d="M37,19C36.33,14.604 32.55,11.357 28.103,11.357C23.656,11.357 19.876,14.604 19.206,19L19.206,19C14.945,19 11.491,22.454 11.491,26.714C11.491,30.975 14.945,34.429 19.206,34.429C20.167,34.438 21.12,34.254 22.009,33.889C23.464,35.851 25.762,37.009 28.206,37.009C30.649,37.009 32.948,35.851 34.403,33.889C35.292,34.254 36.245,34.438 37.206,34.429C41.466,34.429 44.92,30.975 44.92,26.714C44.92,22.454 41.466,19 37.206,19L37,19ZM24.143,26.714L28,30.571L28,44.714M28,30.571L31.857,26.714" style="fill:none;stroke:rgb(44,44,44);stroke-width:2px;"/>
                    </g>
                </g>
            </g>
        </g>
    </g>
</svg>
