<?xml version="1.0" encoding="UTF-8" standalone="no"?>
<!DOCTYPE svg PUBLIC "-//W3C//DTD SVG 1.1//EN" "http://www.w3.org/Graphics/SVG/1.1/DTD/svg11.dtd">
<svg width="100%" height="100%" viewBox="0 0 702 954" version="1.1" xmlns="http://www.w3.org/2000/svg" xmlns:xlink="http://www.w3.org/1999/xlink" xml:space="preserve" xmlns:serif="http://www.serif.com/" style="fill-rule:evenodd;clip-rule:evenodd;stroke-linecap:round;stroke-linejoin:round;">
    <g id="items" transform="matrix(1.07922,0,0,1.07922,-27.807,-39.208)">
        <g id="blend">
            <g id="g-root-cp_5_shape-5_18gawdk1xpiebz-fill" transform="matrix(1,0,0,1,314.303,104)">
                <g id="cp_5_shape-5_18gawdk1xpiebz-fill">
                    <g>
                        <path d="M27.697,292L15.697,292L15.697,160L27.697,160L27.697,292ZM32.297,28.191L27.697,28.191L27.697,160L15.697,160L15.697,28.191L11.017,28.191C10.237,28.191 9.747,27.341 10.137,26.661L20.86,10.448C21.256,9.849 22.136,9.851 22.53,10.451L33.177,26.661C33.577,27.341 33.087,28.191 32.297,28.191Z" style="fill:rgb(251,103,98);"/>
                    </g>
                </g>
            </g>
            <g id="g-root-cp_1_shape-1_zknw4o1xpifwh-fill" transform="matrix(1,0,0,1,32,103.816)">
                <g id="cp_1_shape-1_zknw4o1xpifwh-fill">
                    <g>
                        <path d="M214,328.184L46,328.183C26.118,328.183 10,312.081 10,292.199L10,292.184L250,292.184C250,312.066 233.882,328.184 214,328.184ZM254.6,28.375L250,28.375L250,160.184L10,160.184C10,140.302 26.118,124.505 46,124.505L172,124.505C213.07,124.505 238,94.374 238,55.034L238,28.374L233.32,28.374C232.54,28.374 232.05,27.524 232.44,26.844L243.163,10.632C243.559,10.033 244.439,10.034 244.833,10.635L255.48,26.844C255.88,27.525 255.39,28.375 254.6,28.375ZM250,160.184L250,292.184L10,292.184L10,160.184L250,160.184Z" style="fill:rgb(67,221,147);"/>
                    </g>
                </g>
            </g>
            <g id="g-root-cp_3_shape-3_m9tuug1xpiebn-fill" transform="matrix(1,0,0,1,284.303,104)">
                <g id="cp_3_shape-3_m9tuug1xpiebn-fill">
                    <g>
                        <path d="M27.697,292L15.697,292L15.697,160L27.697,160L27.697,292ZM32.297,28.191L27.697,28.191L27.697,160L15.697,160L15.697,28.191L11.017,28.191C10.237,28.191 9.747,27.341 10.137,26.661L20.86,10.448C21.256,9.849 22.136,9.851 22.53,10.451L33.177,26.661C33.577,27.341 33.087,28.191 32.297,28.191Z" style="fill:rgb(255,231,17);"/>
                    </g>
                </g>
            </g>
            <g id="g-root-cp_3_shape-3_1_8ydch41xpifwl-fill" transform="matrix(1,0,0,1,32,386)">
                <g id="cp_3_shape-3_1_8ydch41xpifwl-fill">
                    <g>
                        <path d="M214,64.321C244,64.321 268,46 268,10L280,10L280,100.306L10,100.306C10,80.423 26.118,64.321 46,64.321L214,64.321Z" style="fill:rgb(255,231,17);"/>
                    </g>
                </g>
            </g>
            <g id="g-root-cp_5_shape-5_1_3ctbc1xpidjj-fill" transform="matrix(1,0,0,1,320,386)">
                <g id="cp_5_shape-5_1_3ctbc1xpidjj-fill">
                    <g>
                        <rect x="10" y="10" width="12" height="222" style="fill:rgb(251,103,98);"/>
                    </g>
                </g>
            </g>
            <g id="g-root-cp_3_shape-3_2_1q8tv1k1xpiewx-fill" transform="matrix(1,0,0,1,32,476)">
                <g id="cp_3_shape-3_2_1q8tv1k1xpiewx-fill">
                    <g>
                        <path d="M280,10L280,141.979L10,141.979L10,10L280,10ZM244,178.008L46,178.008C26.118,178.008 10,161.905 10,142.023L10,142.008L280,142.008C280,161.89 263.882,178.008 244,178.008Z" style="fill:rgb(255,231,17);"/>
                    </g>
                </g>
            </g>
            <g id="g-root-cp_5_shape-5_2_1cxztrc1xpidc3-fill" transform="matrix(1,0,0,1,32,608)">
                <g id="cp_5_shape-5_2_1cxztrc1xpidc3-fill">
                    <g>
                        <path d="M244,64.137C274,64.137 298,45.878 298,10L310,10L310,100L10,100C10,80.185 26.118,64.137 46,64.137L244,64.137Z" style="fill:rgb(251,103,98);"/>
                    </g>
                </g>
            </g>
            <g id="g-root-cp_5_shape-5_3_zmjbe01xpiex1-fill" transform="matrix(1,0,0,1,32,698)">
                <g id="cp_5_shape-5_3_zmjbe01xpiex1-fill">
                    <g>
                        <path d="M310,10L310,118L10,118L10,10L310,10ZM274,154.008L46,154.008C26.118,154.008 10,137.882 10,118L310,118C310,137.882 293.882,154.008 274,154.008Z" style="fill:rgb(251,103,98);"/>
                    </g>
                </g>
            </g>
            <g id="g-root-cp_2_shape-2_mbpa3s1xpidc7-fill" transform="matrix(1,0,0,1,404.378,103.816)">
                <g id="cp_2_shape-2_mbpa3s1xpidc7-fill">
                    <g>
                        <path d="M51.622,352.184L219.622,352.184C239.504,352.184 255.622,336.081 255.622,316.199L255.622,316.184L15.622,316.184C15.622,336.066 31.74,352.184 51.622,352.184ZM11.022,28.375L15.622,28.375L15.622,160.184L255.622,160.184C255.622,140.302 239.505,124.505 219.623,124.505L93.622,124.505C52.552,124.505 27.622,94.374 27.622,55.034L27.622,28.374L32.302,28.374C33.082,28.374 33.572,27.524 33.182,26.844L22.459,10.632C22.063,10.033 21.184,10.034 20.79,10.635L10.142,26.844C9.742,27.525 10.232,28.375 11.022,28.375ZM15.622,160.184L15.622,316.184L255.622,316.184L255.622,160.184L15.622,160.184Z" style="fill:rgb(166,218,55);"/>
                    </g>
                </g>
            </g>
            <g id="g-root-cp_4_shape-4_908rqg1xpiex5-fill" transform="matrix(1,0,0,1,374.383,104)">
                <g id="cp_4_shape-4_908rqg1xpiex5-fill">
                    <g>
                        <path d="M15.623,316L27.623,316L27.623,160L15.623,160L15.623,316ZM11.022,28.191L15.622,28.191L15.622,160L27.622,160L27.622,28.191L32.302,28.191C33.082,28.191 33.572,27.341 33.182,26.661L22.459,10.448C22.063,9.849 21.184,9.851 20.79,10.451L10.142,26.661C9.742,27.341 10.232,28.191 11.022,28.191Z" style="fill:rgb(247,148,56);"/>
                    </g>
                </g>
            </g>
            <g id="g-root-cp_6_shape-6_4kf9m01xpifpf-fill" transform="matrix(1,0,0,1,344.383,104)">
                <g id="cp_6_shape-6_4kf9m01xpifpf-fill">
                    <g>
                        <path d="M15.623,316L27.623,316L27.623,160L15.623,160L15.623,316ZM11.022,28.191L15.622,28.191L15.622,160L27.622,160L27.622,28.191L32.302,28.191C33.082,28.191 33.572,27.341 33.182,26.661L22.459,10.448C22.063,9.849 21.184,9.851 20.79,10.451L10.142,26.661C9.742,27.341 10.232,28.191 11.022,28.191Z" style="fill:rgb(243,102,187);"/>
                    </g>
                </g>
            </g>
            <g id="g-root-cp_4_shape-4_1_1qapaaw1xpidxh-fill" transform="matrix(1,0,0,1,380,410)">
                <g id="cp_4_shape-4_1_1qapaaw1xpidxh-fill">
                    <g>
                        <path d="M76,64.321C46,64.321 22,46 22,10L10,10L10,100.306L280,100.306C280,80.423 263.882,64.321 244,64.321L76,64.321Z" style="fill:rgb(247,148,56);"/>
                    </g>
                </g>
            </g>
            <g id="g-root-cp_4_shape-4_2_1hf2a201xpieq7-fill" transform="matrix(1,0,0,1,380,500)">
                <g id="cp_4_shape-4_2_1hf2a201xpieq7-fill">
                    <g>
                        <path d="M10,10L10,142L280,142L280,10L10,10ZM46,178L244,178C263.882,178 280,161.898 280,142.016L280,142L10,142C10,161.882 26.118,178 46,178Z" style="fill:rgb(247,148,56);"/>
                    </g>
                </g>
            </g>
            <g id="g-root-cp_6_shape-6_1_18k1qw81xpid4x-fill" transform="matrix(1,0,0,1,350,410)">
                <g id="cp_6_shape-6_1_18k1qw81xpid4x-fill">
                    <g>
                        <rect x="10" y="10" width="12" height="222" style="fill:rgb(243,102,187);"/>
                    </g>
                </g>
            </g>
            <g id="g-root-cp_6_shape-6_2_v8l8iw1xpiepv-fill" transform="matrix(1,0,0,1,350,632)">
                <g id="cp_6_shape-6_2_v8l8iw1xpiepv-fill">
                    <g>
                        <path d="M76,64.321C46,64.321 22,46 22,10L10,10L10,100.306L310,100.306C310,80.423 293.882,64.321 274,64.321L76,64.321Z" style="fill:rgb(243,102,187);"/>
                    </g>
                </g>
            </g>
            <g id="g-root-cp_6_shape-6_3_hxr78o1xpid51-fill" transform="matrix(1,0,0,1,350,722)">
                <g id="cp_6_shape-6_3_hxr78o1xpid51-fill">
                    <g>
                        <path d="M10,10L10,118L310,118L310,10L10,10ZM46,154L274,154C293.882,154 310,137.898 310,118.016L310,118L10,118C10,137.882 26.118,154 46,154Z" style="fill:rgb(243,102,187);"/>
                    </g>
                </g>
            </g>
            <g id="g-root-tx_simplifi_m7c1ns1xp1khu-fill" transform="matrix(1,0,0,1,458,362)">
                <g id="tx_simplifi_m7c1ns1xp1khu-fill">
                    <g>
                        <g>
                            <g transform="matrix(1,0,0,1,12.52,31.2)">
                                <g transform="matrix(15,0,0,15,40.8398,0)">
                                </g>
                                <g transform="matrix(15,0,0,15,45.0073,0)">
                                </g>
                                <text x="0px" y="0px" style="font-family:'ArialMT', 'Arial', sans-serif;font-size:15px;fill:rgb(44,44,44);">Simpliﬁes campaign</text>
                            </g>
                            <g transform="matrix(1,0,0,1,20.03,49.2)">
                                <text x="0px" y="0px" style="font-family:'ArialMT', 'Arial', sans-serif;font-size:15px;fill:rgb(44,44,44);">management with</text>
                            </g>
                            <g transform="matrix(1,0,0,1,20.52,67.2)">
                                <text x="0px" y="0px" style="font-family:'ArialMT', 'Arial', sans-serif;font-size:15px;fill:rgb(44,44,44);">intuitive interface.</text>
                            </g>
                        </g>
                    </g>
                </g>
            </g>
            <g id="g-root-tx_ensuresr_93d5601xpig3t-fill" transform="matrix(1,0,0,1,80,362)">
                <g id="tx_ensuresr_93d5601xpig3t-fill">
                    <g>
                        <g>
                            <g transform="matrix(1,0,0,1,13.03,28.2)">
                                <text x="0px" y="0px" style="font-family:'ArialMT', 'Arial', sans-serif;font-size:15px;fill:rgb(44,44,44);">Ensures reliable and</text>
                            </g>
                            <g transform="matrix(1,0,0,1,13.62,46.2)">
                                <text x="0px" y="0px" style="font-family:'ArialMT', 'Arial', sans-serif;font-size:15px;fill:rgb(44,44,44);">timely SMS delivery<tspan x="130.583px " y="0px ">.</tspan></text>
                            </g>
                        </g>
                    </g>
                </g>
            </g>
            <g id="g-root-tx_userfrie_1uu9my01xpmnt5-fill" transform="matrix(1,0,0,1,464,302)">
                <g id="tx_userfrie_1uu9my01xpmnt5-fill">
                    <g>
                        <g>
                            <g transform="matrix(1,0,0,1,12.8,34)">
                                <text x="0px" y="0px" style="font-family:'Arial-BoldMT', 'Arial', sans-serif;font-weight:700;font-size:20px;fill:rgb(44,44,44);">User-Friendly</text>
                            </g>
                            <g transform="matrix(1,0,0,1,25.12,58)">
                                <text x="0px" y="0px" style="font-family:'Arial-BoldMT', 'Arial', sans-serif;font-weight:700;font-size:20px;fill:rgb(44,44,44);">Dashboard</text>
                            </g>
                        </g>
                    </g>
                </g>
            </g>
            <g id="g-root-tx_robustde_18lap2g1xpifb4-fill" transform="matrix(1,0,0,1,74,302)">
                <g id="tx_robustde_18lap2g1xpifb4-fill">
                    <g>
                        <g>
                            <g transform="matrix(1,0,0,1,14.86,34)">
                                <text x="0px" y="0px" style="font-family:'Arial-BoldMT', 'Arial', sans-serif;font-weight:700;font-size:20px;fill:rgb(44,44,44);">Robust Delivery</text>
                            </g>
                            <g transform="matrix(1,0,0,1,23.63,58)">
                                <text x="0px" y="0px" style="font-family:'Arial-BoldMT', 'Arial', sans-serif;font-weight:700;font-size:20px;fill:rgb(44,44,44);">Infrastructure</text>
                            </g>
                        </g>
                    </g>
                </g>
            </g>
            <g id="g-root-tx_flexible_147cm7c1xpjrpn-fill" transform="matrix(1,0,0,1,77,524)">
                <g id="tx_flexible_147cm7c1xpjrpn-fill">
                    <g>
                        <g>
                            <g transform="matrix(1,0,0,1,14.58,34)">
                                <text x="0px" y="0px" style="font-family:'Arial-BoldMT', 'Arial', sans-serif;font-weight:700;font-size:20px;fill:rgb(44,44,44);">Flexible Campaign</text>
                            </g>
                            <g transform="matrix(1,0,0,1,47.29,58)">
                                <text x="0px" y="0px" style="font-family:'Arial-BoldMT', 'Arial', sans-serif;font-weight:700;font-size:20px;fill:rgb(44,44,44);">Scheduling</text>
                            </g>
                        </g>
                    </g>
                </g>
            </g>
            <g id="g-root-tx_realtime_ddkgo81xp2xok-fill" transform="matrix(1,0,0,1,425,548)">
                <g id="tx_realtime_ddkgo81xp2xok-fill">
                    <g>
                        <g>
                            <g transform="matrix(1,0,0,1,11.99,34)">
                                <text x="0px" y="0px" style="font-family:'Arial-BoldMT', 'Arial', sans-serif;font-weight:700;font-size:20px;fill:rgb(44,44,44);">Real-T<tspan x="60.762px 66.318px " y="0px 0px ">im</tspan>e Delivery</text>
                            </g>
                            <g transform="matrix(1,0,0,1,62.03,58)">
                                <text x="0px" y="0px" style="font-family:'Arial-BoldMT', 'Arial', sans-serif;font-weight:700;font-size:20px;fill:rgb(44,44,44);">Reports</text>
                            </g>
                        </g>
                    </g>
                </g>
            </g>
            <g id="g-root-tx_allowspr_1ha2hd41xpl6v8-fill" transform="matrix(1,0,0,1,77,584)">
                <g id="tx_allowspr_1ha2hd41xpl6v8-fill">
                    <g>
                        <g>
                            <g transform="matrix(1,0,0,1,17.38,28.2)">
                                <text x="0px" y="0px" style="font-family:'ArialMT', 'Arial', sans-serif;font-size:15px;fill:rgb(44,44,44);">Allows precise timing for</text>
                            </g>
                            <g transform="matrix(1,0,0,1,12.95,46.2)">
                                <text x="0px" y="0px" style="font-family:'ArialMT', 'Arial', sans-serif;font-size:15px;fill:rgb(44,44,44);">optimal campaign impact.</text>
                            </g>
                        </g>
                    </g>
                </g>
            </g>
            <g id="g-root-tx_provides_18gxgmg1xp2z2d-fill" transform="matrix(1,0,0,1,413,608)">
                <g id="tx_provides_18gxgmg1xp2z2d-fill">
                    <g>
                        <g>
                            <g transform="matrix(1,0,0,1,15.61,28.2)">
                                <text x="0px" y="0px" style="font-family:'ArialMT', 'Arial', sans-serif;font-size:15px;fill:rgb(44,44,44);">Provides immediate insights</text>
                            </g>
                            <g transform="matrix(1,0,0,1,28.08,46.2)">
                                <text x="0px" y="0px" style="font-family:'ArialMT', 'Arial', sans-serif;font-size:15px;fill:rgb(44,44,44);">into SMS delivery status.</text>
                            </g>
                        </g>
                    </g>
                </g>
            </g>
            <g id="g-root-tx_offersco_dcxzl41xp4e88-fill" transform="matrix(1,0,0,1,386,806)">
                <g id="tx_offersco_dcxzl41xp4e88-fill">
                    <g>
                        <g>
                            <g transform="matrix(1,0,0,1,13.18,28.2)">
                                <g transform="matrix(15,0,0,15,11.6675,0)">
                                </g>
                                <g transform="matrix(15,0,0,15,15.6738,0)">
                                </g>
                                <text x="0px" y="0px" style="font-family:'ArialMT', 'Arial', sans-serif;font-size:15px;fill:rgb(44,44,44);">Oﬀers continuous assistance for</text>
                            </g>
                            <g transform="matrix(1,0,0,1,19,46.2)">
                                <text x="0px" y="0px" style="font-family:'ArialMT', 'Arial', sans-serif;font-size:15px;fill:rgb(44,44,44);">seamless campaign execution.</text>
                            </g>
                        </g>
                    </g>
                </g>
            </g>
            <g transform="matrix(1,0,0,1,110.93,780)">
                <g id="g-root-tx_customse_zqwmzs1xpl91i-fill">
                    <g id="tx_customse_zqwmzs1xpl91i-fill">
                        <g>
                            <g>
                                <text x="0px" y="0px" style="font-family:'Arial-BoldMT', 'Arial', sans-serif;font-weight:700;font-size:20px;fill:rgb(44,44,44);">Custom Sender ID</text>
                            </g>
                        </g>
                    </g>
                </g>
            </g>
            <g id="g-root-tx_enhances_1uuw4141xpl79j-fill" transform="matrix(1,0,0,1,68,782)">
                <g id="tx_enhances_1uuw4141xpl79j-fill">
                    <g>
                        <g>
                            <g transform="matrix(1,0,0,1,13.41,28.2)">
                                <text x="0px" y="0px" style="font-family:'ArialMT', 'Arial', sans-serif;font-size:15px;fill:rgb(44,44,44);">Enhances brand recognition with</text>
                            </g>
                            <g transform="matrix(1,0,0,1,40.24,46.2)">
                                <text x="0px" y="0px" style="font-family:'ArialMT', 'Arial', sans-serif;font-size:15px;fill:rgb(44,44,44);">personalized sender IDs.</text>
                            </g>
                        </g>
                    </g>
                </g>
            </g>
            <g transform="matrix(1,0,0,1,450.67,804)">
                <g id="g-root-tx_247suppo_8j1k1xp4dn3-fill">
                    <g id="tx_247suppo_8j1k1xp4dn3-fill">
                        <g>
                            <g>
                                <text x="0px" y="0px" style="font-family:'Arial-BoldMT', 'Arial', sans-serif;font-weight:700;font-size:20px;fill:rgb(44,44,44);">24/7 Support</text>
                            </g>
                        </g>
                    </g>
                </g>
            </g>
            <g id="g-root-cp_5_shape-5_18gawdk1xpiebz-stroke" transform="matrix(1,0,0,1,314.303,104)">
                <g id="cp_5_shape-5_18gawdk1xpiebz-stroke">
                    <g>
                        <path d="M15.697,160L15.697,292M27.697,292L27.697,160M15.697,160L15.697,28.191L11.017,28.191C10.237,28.191 9.747,27.341 10.137,26.661L20.86,10.448C21.256,9.849 22.136,9.851 22.53,10.451L33.177,26.661C33.577,27.341 33.087,28.191 32.297,28.191L27.697,28.191L27.697,160" style="fill:none;stroke:rgb(44,44,44);stroke-width:2px;"/>
                    </g>
                </g>
            </g>
            <g id="g-root-cp_1_shape-1_zknw4o1xpifwh-stroke" transform="matrix(1,0,0,1,32,103.816)">
                <g id="cp_1_shape-1_zknw4o1xpifwh-stroke">
                    <g>
                        <path d="M10,160.184C10,140.301 26.118,124.321 46,124.321L172,124.321C213.07,124.321 238,94.191 238,54.851L238,28.191L233.32,28.191C232.54,28.191 232.05,27.341 232.44,26.661L243.163,10.448C243.559,9.849 244.439,9.851 244.833,10.451L255.48,26.661C255.88,27.341 255.39,28.191 254.6,28.191L250,28.191L250,160.184M250,292.184C250,312.066 233.882,328.191 214,328.191L46,328.191C26.118,328.191 10,312.081 10,292.199L10,292.184M250,292.184L250,160.184M10,160.184L10,292.184" style="fill:none;stroke:rgb(44,44,44);stroke-width:2px;"/>
                    </g>
                </g>
            </g>
            <g id="g-root-cp_3_shape-3_m9tuug1xpiebn-stroke" transform="matrix(1,0,0,1,284.303,104)">
                <g id="cp_3_shape-3_m9tuug1xpiebn-stroke">
                    <g>
                        <path d="M15.697,160L15.697,292M27.697,292L27.697,160M15.697,160L15.697,28.191L11.017,28.191C10.237,28.191 9.747,27.341 10.137,26.661L20.86,10.448C21.256,9.849 22.136,9.851 22.53,10.451L33.177,26.661C33.577,27.341 33.087,28.191 32.297,28.191L27.697,28.191L27.697,160" style="fill:none;stroke:rgb(44,44,44);stroke-width:2px;"/>
                    </g>
                </g>
            </g>
            <g id="g-root-cp_3_shape-3_1_8ydch41xpifwl-stroke" transform="matrix(1,0,0,1,32,386)">
                <g id="cp_3_shape-3_1_8ydch41xpifwl-stroke">
                    <g>
                        <path d="M268,10C268,46 244,64.321 214,64.321L46,64.321C26.118,64.321 10,80.423 10,100.306M280,100.306L280,10" style="fill:none;stroke:rgb(44,44,44);stroke-width:2px;"/>
                    </g>
                </g>
            </g>
            <g id="g-root-cp_5_shape-5_1_3ctbc1xpidjj-stroke" transform="matrix(1,0,0,1,320,386)">
                <g id="cp_5_shape-5_1_3ctbc1xpidjj-stroke">
                    <g>
                        <path d="M10,10L10,232M22,232L22,10" style="fill:none;stroke:rgb(44,44,44);stroke-width:2px;"/>
                    </g>
                </g>
            </g>
            <g id="g-root-cp_3_shape-3_2_1q8tv1k1xpiewx-stroke" transform="matrix(1,0,0,1,32,476)">
                <g id="cp_3_shape-3_2_1q8tv1k1xpiewx-stroke">
                    <g>
                        <path d="M280,141.979L280,10M10,10L10,142M280,142.008C280,161.89 263.882,178.008 244,178.008L46,178.008C26.118,178.008 10,161.905 10,142.023L10,142.008" style="fill:none;stroke:rgb(44,44,44);stroke-width:2px;"/>
                    </g>
                </g>
            </g>
            <g id="g-root-cp_5_shape-5_2_1cxztrc1xpidc3-stroke" transform="matrix(1,0,0,1,32,608)">
                <g id="cp_5_shape-5_2_1cxztrc1xpidc3-stroke">
                    <g>
                        <path d="M298,10C298,45.878 274,64.137 244,64.137L46,64.137C26.118,64.137 10,80.185 10,100M310,100L310,10" style="fill:none;stroke:rgb(44,44,44);stroke-width:2px;"/>
                    </g>
                </g>
            </g>
            <g id="g-root-cp_5_shape-5_3_zmjbe01xpiex1-stroke" transform="matrix(1,0,0,1,32,698)">
                <g id="cp_5_shape-5_3_zmjbe01xpiex1-stroke">
                    <g>
                        <path d="M310,118L310,10M10,10L10,118M310,118C310,137.882 293.882,154.008 274,154.008L46,154.008C26.118,154.008 10,137.882 10,118" style="fill:none;stroke:rgb(44,44,44);stroke-width:2px;"/>
                    </g>
                </g>
            </g>
            <g id="g-root-cp_2_shape-2_mbpa3s1xpidc7-stroke" transform="matrix(1,0,0,1,404.378,103.816)">
                <g id="cp_2_shape-2_mbpa3s1xpidc7-stroke">
                    <g>
                        <path d="M255.622,160.184C255.622,140.301 239.505,124.321 219.623,124.321L93.622,124.321C52.552,124.321 27.622,94.191 27.622,54.851L27.622,28.191L32.302,28.191C33.082,28.191 33.572,27.341 33.182,26.661L22.459,10.448C22.063,9.849 21.184,9.851 20.79,10.451L10.142,26.661C9.742,27.341 10.232,28.191 11.022,28.191L15.622,28.191L15.622,160.184M15.622,316.184C15.622,336.066 31.74,352.184 51.622,352.184L219.623,352.183C239.505,352.183 255.622,336.081 255.622,316.199L255.622,316.184M15.622,316.184L15.622,160.184M255.622,160.184L255.622,316.184" style="fill:none;stroke:rgb(44,44,44);stroke-width:2px;"/>
                    </g>
                </g>
            </g>
            <g id="g-root-cp_4_shape-4_908rqg1xpiex5-stroke" transform="matrix(1,0,0,1,374.383,104)">
                <g id="cp_4_shape-4_908rqg1xpiex5-stroke">
                    <g>
                        <path d="M27.622,160L27.622,316M15.622,316L15.622,160M27.622,160L27.622,28.191L32.302,28.191C33.082,28.191 33.572,27.341 33.182,26.661L22.459,10.448C22.063,9.849 21.184,9.851 20.79,10.451L10.142,26.661C9.742,27.341 10.232,28.191 11.022,28.191L15.622,28.191L15.622,160" style="fill:none;stroke:rgb(44,44,44);stroke-width:2px;"/>
                    </g>
                </g>
            </g>
            <g id="g-root-cp_6_shape-6_4kf9m01xpifpf-stroke" transform="matrix(1,0,0,1,344.383,104)">
                <g id="cp_6_shape-6_4kf9m01xpifpf-stroke">
                    <g>
                        <path d="M27.622,160L27.622,316M15.622,316L15.622,160M27.622,160L27.622,28.191L32.302,28.191C33.082,28.191 33.572,27.341 33.182,26.661L22.459,10.448C22.063,9.849 21.184,9.851 20.79,10.451L10.142,26.661C9.742,27.341 10.232,28.191 11.022,28.191L15.622,28.191L15.622,160" style="fill:none;stroke:rgb(44,44,44);stroke-width:2px;"/>
                    </g>
                </g>
            </g>
            <g id="g-root-cp_4_shape-4_1_1qapaaw1xpidxh-stroke" transform="matrix(1,0,0,1,380,410)">
                <g id="cp_4_shape-4_1_1qapaaw1xpidxh-stroke">
                    <g>
                        <path d="M22,10C22,46 46,64.321 76,64.321L244,64.321C263.882,64.321 280,80.423 280,100.306M10,100.306L10,10" style="fill:none;stroke:rgb(44,44,44);stroke-width:2px;"/>
                    </g>
                </g>
            </g>
            <g id="g-root-cp_4_shape-4_2_1hf2a201xpieq7-stroke" transform="matrix(1,0,0,1,380,500)">
                <g id="cp_4_shape-4_2_1hf2a201xpieq7-stroke">
                    <g>
                        <path d="M10,142L10,10M280,10L280,142M10,142C10,161.882 26.118,178.008 46,178.008L244,178.008C263.882,178.008 280,161.898 280,142.016L280,142" style="fill:none;stroke:rgb(44,44,44);stroke-width:2px;"/>
                    </g>
                </g>
            </g>
            <g id="g-root-cp_6_shape-6_1_18k1qw81xpid4x-stroke" transform="matrix(1,0,0,1,350,410)">
                <g id="cp_6_shape-6_1_18k1qw81xpid4x-stroke">
                    <g>
                        <path d="M22,10L22,232M10,232L10,10" style="fill:none;stroke:rgb(44,44,44);stroke-width:2px;"/>
                    </g>
                </g>
            </g>
            <g id="g-root-cp_6_shape-6_2_v8l8iw1xpiepv-stroke" transform="matrix(1,0,0,1,350,632)">
                <g id="cp_6_shape-6_2_v8l8iw1xpiepv-stroke">
                    <g>
                        <path d="M22,10C22,46 46,64.321 76,64.321L274,64.321C293.882,64.321 310,80.423 310,100.306M10,100.306L10,10" style="fill:none;stroke:rgb(44,44,44);stroke-width:2px;"/>
                    </g>
                </g>
            </g>
            <g id="g-root-cp_6_shape-6_3_hxr78o1xpid51-stroke" transform="matrix(1,0,0,1,350,722)">
                <g id="cp_6_shape-6_3_hxr78o1xpid51-stroke">
                    <g>
                        <path d="M10,118L10,10M310,10L310,118M10,118C10,137.882 26.118,154.008 46,154.008L274,154.008C293.882,154.008 310,137.898 310,118.016L310,118" style="fill:none;stroke:rgb(44,44,44);stroke-width:2px;"/>
                    </g>
                </g>
            </g>
            <g id="g-root-ic_shar_1cvhxew1xpl91p-stroke" transform="matrix(1,0,0,1,143,464)">
                <g id="ic_shar_1cvhxew1xpl91p-stroke">
                    <g>
                        <path d="M33,46.502C33,48.987 35.015,51.002 37.5,51.002C39.985,51.002 42,48.987 42,46.502C42,44.017 39.985,42.002 37.5,42.002C35.015,42.002 33,44.017 33,46.502ZM48,52.502C48,54.987 50.015,57.002 52.5,57.002C54.985,57.002 57,54.987 57,52.502C57,50.017 54.985,48.002 52.5,48.002C50.015,48.002 48,50.017 48,52.502ZM48,37.502C48,39.987 50.015,42.002 52.5,42.002C54.985,42.002 57,39.987 57,37.502C57,35.017 54.985,33.002 52.5,33.002C50.015,33.002 48,35.017 48,37.502ZM41.35,44.192L48.65,39.812M41.676,48.172L48.324,50.832M29,47L13,47C11.895,47 11,46.105 11,45L11,17C11,15.895 11.895,15 13,15L49,15C50.105,15 51,15.895 51,17L51,29M21,11.002L21,21.002M41,11.002L41,21.002M11,25.002L51,25.002" style="fill:none;stroke:rgb(44,44,44);stroke-width:2px;"/>
                    </g>
                </g>
            </g>
            <g id="g-root-ic_grap_13zv0bs1xp1kar-stroke" transform="matrix(1,0,0,1,506,242)">
                <g id="ic_grap_13zv0bs1xp1kar-stroke">
                    <g>
                        <path d="M37,24C37,27.866 40.134,31 44,31C47.866,31 51,27.866 51,24C51,20.134 47.866,17 44,17C40.134,17 37,20.134 37,24M17,51L21.4,44.834C21.556,44.615 21.794,44.469 22.06,44.427C22.325,44.386 22.597,44.453 22.812,44.614L25.2,46.4C25.642,46.731 26.269,46.642 26.6,46.2L32,39M45.502,17.162L44,24L50.948,23.15M40,37L50,37C50,37 51,37 51,38L51,50C51,50 51,51 50,51L40,51C40,51 39,51 39,50L39,38C39,38 39,37 40,37M43,43L47,43M43,47L45,47M18,17L28,17C28,17 29,17 29,18L29,30C29,30 29,31 28,31L18,31C18,31 17,31 17,30L17,18C17,18 17,17 18,17M21,21L25,21M21,25L23,25M13,11L55,11C55,11 57,11 57,13L57,55C57,55 57,57 55,57L13,57C13,57 11,57 11,55L11,13C11,13 11,11 13,11" style="fill:none;stroke:rgb(44,44,44);stroke-width:2px;"/>
                    </g>
                </g>
            </g>
            <g id="g-root-ic_wave_1q9gfag1xp2yva-stroke" transform="matrix(1,0,0,1,491,488)">
                <g id="ic_wave_1q9gfag1xp2yva-stroke">
                    <g>
                        <path d="M15,12L53,12C53,12 57,12 57,16L57,52C57,52 57,56 53,56L15,56C15,56 11,56 11,52L11,16C11,16 11,12 15,12M11,22L57,22M18,16.5C18.276,16.5 18.5,16.724 18.5,17C18.5,17.276 18.276,17.5 18,17.5C17.724,17.5 17.5,17.276 17.5,17C17.5,16.724 17.724,16.5 18,16.5M24,16.5C24.276,16.5 24.5,16.724 24.5,17C24.5,17.276 24.276,17.5 24,17.5C23.724,17.5 23.5,17.276 23.5,17C23.5,16.724 23.724,16.5 24,16.5M30,16.5C30.276,16.5 30.5,16.724 30.5,17C30.5,17.276 30.276,17.5 30,17.5C29.724,17.5 29.5,17.276 29.5,17C29.5,16.724 29.724,16.5 30,16.5M11,39L57,39M22,22L22,56M22,36L24.93,30.142C25.875,28.25 27.817,27.063 29.932,27.083C32.047,27.103 33.965,28.328 34.874,30.238L35.66,31.886C36.529,33.711 38.323,34.917 40.341,35.033C42.359,35.148 44.279,34.154 45.35,32.44C46.357,30.829 48.12,29.846 50.02,29.839C51.919,29.831 53.69,30.799 54.71,32.402L57,36M22,48.186L25.282,44.904C25.943,44.243 26.869,43.917 27.799,44.019C28.728,44.121 29.562,44.639 30.064,45.428L32.522,49.29C33.075,50.159 34.025,50.695 35.055,50.718C36.084,50.741 37.057,50.248 37.648,49.404L39.33,47.004C39.922,46.156 40.901,45.662 41.935,45.689C42.969,45.716 43.921,46.26 44.468,47.138L44.556,47.278C45.102,48.151 46.047,48.694 47.076,48.725C48.105,48.757 49.082,48.273 49.68,47.436C50.235,46.659 51.119,46.184 52.073,46.148C53.027,46.113 53.944,46.521 54.556,47.254L57,50.186" style="fill:none;stroke:rgb(44,44,44);stroke-width:2px;"/>
                    </g>
                </g>
            </g>
            <g id="g-root-ic_conn_1d2zmg81xpidj6-stroke" transform="matrix(1,0,0,1,128,242)">
                <g id="ic_conn_1d2zmg81xpidj6-stroke">
                    <g>
                        <path d="M11.52,44.642C11.402,44.95 11.443,45.295 11.63,45.567C11.816,45.838 12.125,46 12.454,46L25.6,46C25.929,46 26.237,45.838 26.423,45.567C26.61,45.296 26.651,44.951 26.534,44.644L19.042,25L11.52,44.642ZM19.042,25L19,22M11.602,45.524L23.14,35.762M26.454,45.504L14.926,35.748M16.36,32L21.708,32M15,20C15,17.791 16.791,16 19,16C21.209,16 23,17.791 23,20M11,20C11,15.582 14.582,12 19,12C23.418,12 27,15.582 27,20M53,40L53,45C53,45.552 52.552,46 52,46L42,46C41.448,46 41,45.552 41,45L41,40M37.082,37L47.062,27.876L56.958,37M19,46L19,54C19,55.105 19.895,56 21,56L45,56C46.105,56 47,55.105 47,54L47,46" style="fill:none;stroke:rgb(44,44,44);stroke-width:2px;"/>
                    </g>
                </g>
            </g>
            <g id="g-root-ic_2_8whx7s1xpmmm8-stroke" transform="matrix(1,0,0,1,158,686)">
                <g id="ic_2_8whx7s1xpmmm8-stroke">
                    <g>
                        <path d="M28.908,24C28.908,26.761 31.147,29 33.908,29C36.669,29 38.908,26.761 38.908,24C38.908,21.239 36.669,19 33.908,19C31.147,19 28.908,21.239 28.908,24M26.248,38.342C26.249,34.061 29.719,30.592 34,30.592C38.281,30.592 41.751,34.061 41.752,38.342M42.404,18.298C42.403,22.329 45.671,25.598 49.702,25.598C53.733,25.598 57.001,22.329 57,18.298C57.001,14.267 53.733,10.998 49.702,10.998C45.671,10.998 42.403,14.267 42.404,18.298M46.458,18.298L52.946,18.298M49.702,21.542L49.702,15.054M52.062,29.6L57,33L57,54C57,55.657 55.657,57 54,57L14,57C12.343,57 11,55.657 11,54L11,33L23.564,24.362M17,51L27,43L41,43L51,51M57,33L45,41M11,33L23,41" style="fill:none;stroke:rgb(44,44,44);stroke-width:2px;"/>
                    </g>
                </g>
            </g>
            <g id="g-root-ic_smok_1hckgvc1xp4bnl-stroke" transform="matrix(1,0,0,1,476,710)">
                <g id="ic_smok_1hckgvc1xp4bnl-stroke">
                    <g>
                        <path d="M43.24,50.76C40.493,52.555 37.281,53.508 34,53.5C26.359,53.5 19.657,48.402 17.617,41.038C15.577,33.674 18.701,25.854 25.254,21.923C31.806,17.991 40.176,18.915 45.714,24.18C51.251,29.445 52.596,37.758 49,44.5M18.5,43.5L15,43.5C12.791,43.5 11,41.709 11,39.5L11,33.5C11,31.291 12.791,29.5 15,29.5L18.5,29.5M49.5,43.5L53,43.5C55.209,43.5 57,41.709 57,39.5L57,33.5C57,31.291 55.209,29.5 53,29.5L49.5,29.5M52.98,29.5C52.98,19.007 44.473,10.5 33.98,10.5C23.487,10.5 14.98,19.007 14.98,29.5M24.84,41.5C26.433,45.138 30.028,47.488 34,47.488C37.972,47.488 41.567,45.138 43.16,41.5M25,33C25.276,33 25.5,33.224 25.5,33.5C25.5,33.776 25.276,34 25,34C24.724,34 24.5,33.776 24.5,33.5C24.5,33.224 24.724,33 25,33M43,33C43.276,33 43.5,33.224 43.5,33.5C43.5,33.776 43.276,34 43,34C42.724,34 42.5,33.776 42.5,33.5C42.5,33.224 42.724,33 43,33M38.74,46.3L48.42,56C48.822,56.404 49.377,56.618 49.946,56.587C50.515,56.557 51.044,56.285 51.4,55.84L52.66,54.26C53.001,53.824 53.145,53.267 53.06,52.72C52.981,52.17 52.677,51.677 52.22,51.36L41.58,44" style="fill:none;stroke:rgb(44,44,44);stroke-width:2px;"/>
                    </g>
                </g>
            </g>
        </g>
    </g>
</svg>
