<?xml version="1.0" encoding="UTF-8" standalone="no"?>
<!DOCTYPE svg PUBLIC "-//W3C//DTD SVG 1.1//EN" "http://www.w3.org/Graphics/SVG/1.1/DTD/svg11.dtd">
<svg width="100%" height="100%" viewBox="0 0 576 590" version="1.1" xmlns="http://www.w3.org/2000/svg" xmlns:xlink="http://www.w3.org/1999/xlink" xml:space="preserve" xmlns:serif="http://www.serif.com/" style="fill-rule:evenodd;clip-rule:evenodd;stroke-linecap:round;stroke-linejoin:round;">
    <g id="items" transform="matrix(1.10323,0,0,1.10323,-29.7308,-36.7955)">
        <g id="blend">
            <g id="g-root-cp_7_text-7_1lvj2061nplr0q-fill" transform="matrix(1,0,0,1,50,50)">
                <g id="cp_7_text-7_1lvj2061nplr0q-fill">
                    <g>
                        <rect x="10" y="10" width="228" height="108" style="fill:rgb(243,102,187);"/>
                    </g>
                </g>
            </g>
            <g id="g-root-cp_7_stick-7_v98icm1nplr0s-fill" transform="matrix(1,0,0,1,270,158)">
                <g id="cp_7_stick-7_v98icm1nplr0s-fill">
                    <g>
                        <rect x="10" y="10" width="8" height="312" style="fill:rgb(243,102,187);"/>
                    </g>
                </g>
            </g>
            <g id="g-root-cp_5_text-5_dhyhuu1npltdy-fill" transform="matrix(1,0,0,1,42,158)">
                <g id="cp_5_text-5_dhyhuu1npltdy-fill">
                    <g>
                        <rect x="10" y="10" width="228" height="84" style="fill:rgb(247,148,56);"/>
                    </g>
                </g>
            </g>
            <g id="g-root-cp_5_stick-5_1usf0fa1nplse8-fill" transform="matrix(1,0,0,1,262,242)">
                <g id="cp_5_stick-5_1usf0fa1nplse8-fill">
                    <g>
                        <rect x="10" y="10" width="8" height="228" style="fill:rgb(247,148,56);"/>
                    </g>
                </g>
            </g>
            <g id="g-root-cp_3_text-3_1hhkz521nplqte-fill" transform="matrix(1,0,0,1,34,242)">
                <g id="cp_3_text-3_1hhkz521nplqte-fill">
                    <g>
                        <rect x="10" y="10" width="228" height="84" style="fill:rgb(166,218,55);"/>
                    </g>
                </g>
            </g>
            <g id="g-root-cp_3_stick-3_qvafhi1nplqtg-fill" transform="matrix(1,0,0,1,254,326)">
                <g id="cp_3_stick-3_qvafhi1nplqtg-fill">
                    <g>
                        <rect x="10" y="10" width="8" height="144" style="fill:rgb(166,218,55);"/>
                    </g>
                </g>
            </g>
            <g id="g-root-cp_1_text-1_djtx461nplsee-fill" transform="matrix(1,0,0,1,26,326)">
                <g id="cp_1_text-1_djtx461nplsee-fill">
                    <g>
                        <rect x="10" y="10" width="228" height="108" style="fill:rgb(26,195,251);"/>
                    </g>
                </g>
            </g>
            <g id="g-root-cp_1_stick-1_8zvty1nplqtk-fill" transform="matrix(1,0,0,1,246,410)">
                <g id="cp_1_stick-1_8zvty1nplqtk-fill">
                    <g>
                        <rect x="10" y="10" width="8" height="60" style="fill:rgb(26,195,251);"/>
                    </g>
                </g>
            </g>
            <g id="g-root-cp_8_text-8_1lynffq1npls7e-fill" transform="matrix(1,0,0,1,278,62)">
                <g id="cp_8_text-8_1lynffq1npls7e-fill">
                    <g>
                        <rect x="10" y="10" width="228" height="108" style="fill:rgb(135,105,253);"/>
                    </g>
                </g>
            </g>
            <g id="g-root-cp_8_stick-8_18n6x2e1npltsc-fill" transform="matrix(1,0,0,1,278,170)">
                <g id="cp_8_stick-8_18n6x2e1npltsc-fill">
                    <g>
                        <rect x="10" y="10" width="8" height="300" style="fill:rgb(135,105,253);"/>
                    </g>
                </g>
            </g>
            <g id="g-root-cp_6_text-6_vccvs61npls7i-fill" transform="matrix(1,0,0,1,286,170)">
                <g id="cp_6_text-6_vccvs61npls7i-fill">
                    <g>
                        <rect x="10" y="10" width="228" height="84" style="fill:rgb(251,103,98);"/>
                    </g>
                </g>
            </g>
            <g id="g-root-cp_6_stick-6_mgpvja1nplts0-fill" transform="matrix(1,0,0,1,286,254)">
                <g id="cp_6_stick-6_mgpvja1nplts0-fill">
                    <g>
                        <rect x="10" y="10" width="8" height="216" style="fill:rgb(251,103,98);"/>
                    </g>
                </g>
            </g>
            <g id="g-root-cp_4_text-4_8vw8va1npn6rm-fill" transform="matrix(1,0,0,1,294,254)">
                <g id="cp_4_text-4_8vw8va1npn6rm-fill">
                    <g>
                        <rect x="10" y="10" width="228" height="84" style="fill:rgb(255,231,17);"/>
                    </g>
                </g>
            </g>
            <g id="g-root-cp_4_stick-4_1lqj9ba1npn5sc-fill" transform="matrix(1,0,0,1,294,338)">
                <g id="cp_4_stick-4_1lqj9ba1npn5sc-fill">
                    <g>
                        <rect x="10" y="10" width="8" height="132" style="fill:rgb(255,231,17);"/>
                    </g>
                </g>
            </g>
            <g id="g-root-cp_2_text-2_1hapr6u1npn6km-fill" transform="matrix(1,0,0,1,302,338)">
                <g id="cp_2_text-2_1hapr6u1npn6km-fill">
                    <g>
                        <rect x="10" y="10" width="228" height="84" style="fill:rgb(67,221,147);"/>
                    </g>
                </g>
            </g>
            <g id="g-root-cp_2_stick-2_m8lpeu1npn7cw-fill" transform="matrix(1,0,0,1,302,422)">
                <g id="cp_2_stick-2_m8lpeu1npn7cw-fill">
                    <g>
                        <rect x="10" y="10" width="8" height="48" style="fill:rgb(67,221,147);"/>
                    </g>
                </g>
            </g>
            <g id="g-root-cp_0_g-0_24nvq1npn6kq-fill" transform="matrix(1,0,0,1,246,470)">
                <g id="cp_0_g-0_24nvq1npn6kq-fill">
                    <g>
                        <path d="M31.332,61L41.999,86L52.671,61L31.332,61Z" style="fill:rgb(232,232,232);"/>
                    </g>
                </g>
                <g id="cp_0_g-0_24nvq1npn6kq-fill1" serif:id="cp_0_g-0_24nvq1npn6kq-fill">
                    <g>
                        <path d="M74,10L10,10L31.333,61L52.667,61L74,10Z" style="fill:rgb(232,232,232);"/>
                    </g>
                </g>
            </g>
            <g id="g-root-tx__3dm1y1npom4q-fill">
            </g>
            <g id="g-root-tx__143mkfa1npst1i-fill">
            </g>
            <g transform="matrix(1,0,0,1,358,216)">
                <g id="g-root-tx_educatio_909kh21npsrnp-fill">
                    <g id="tx_educatio_909kh21npsrnp-fill">
                        <g>
                            <g>
                                <text x="0px" y="0px" style="font-family:'Arial-BoldMT', 'Arial', sans-serif;font-weight:700;font-size:20px;fill:rgb(44,44,44);">Education</text>
                            </g>
                        </g>
                    </g>
                </g>
            </g>
            <g transform="matrix(1,0,0,1,100.4,288)">
                <g id="g-root-tx_callcent_dl2vae1npom4k-fill">
                    <g id="tx_callcent_dl2vae1npom4k-fill">
                        <g>
                            <g>
                                <text x="0px" y="0px" style="font-family:'Arial-BoldMT', 'Arial', sans-serif;font-weight:700;font-size:20px;fill:rgb(44,44,44);">Call Centers</text>
                            </g>
                        </g>
                    </g>
                </g>
            </g>
            <g transform="matrix(1,0,0,1,120.07,204)">
                <g id="g-root-tx_healthca_1hbypd21npom4p-fill">
                    <g id="tx_healthca_1hbypd21npom4p-fill">
                        <g>
                            <g>
                                <text x="0px" y="0px" style="font-family:'Arial-BoldMT', 'Arial', sans-serif;font-weight:700;font-size:20px;fill:rgb(44,44,44);">Healthcare</text>
                            </g>
                        </g>
                    </g>
                </g>
            </g>
            <g transform="matrix(1,0,0,1,366,300)">
                <g id="g-root-tx_ecommerc_2r4yu1npu7ls-fill">
                    <g id="tx_ecommerc_2r4yu1npu7ls-fill">
                        <g>
                            <g>
                                <text x="0px" y="0px" style="font-family:'Arial-BoldMT', 'Arial', sans-serif;font-weight:700;font-size:20px;fill:rgb(44,44,44);">E-commerce</text>
                            </g>
                        </g>
                    </g>
                </g>
            </g>
            <g id="g-root-tx__18f2qxy1nppyx1-fill">
            </g>
            <g id="g-root-tx__mb3lra1npu6mh-fill">
            </g>
            <g id="g-root-tx__hz0y5i1nprdvn-fill">
            </g>
            <g id="g-root-tx_telecomp_meug9y1nppzpj-fill" transform="matrix(1,0,0,1,98,338)">
                <g id="tx_telecomp_meug9y1nppzpj-fill">
                    <g>
                        <g>
                            <g transform="matrix(1,0,0,1,26.58,34)">
                                <text x="0px" y="0px" style="font-family:'Arial-BoldMT', 'Arial', sans-serif;font-weight:700;font-size:20px;fill:rgb(44,44,44);">T<tspan x="10.732px 21.855px " y="0px 0px ">el</tspan>ecom</text>
                            </g>
                            <g transform="matrix(1,0,0,1,17.87,58)">
                                <text x="0px" y="0px" style="font-family:'Arial-BoldMT', 'Arial', sans-serif;font-weight:700;font-size:20px;fill:rgb(44,44,44);">Providers</text>
                            </g>
                        </g>
                    </g>
                </g>
            </g>
            <g id="g-root-tx__zn6l7q1npn66n-fill">
            </g>
            <g id="g-root-tx_travelho_1qbz17q1npreoa-fill" transform="matrix(1,0,0,1,386,74)">
                <g id="tx_travelho_1qbz17q1npreoa-fill">
                    <g>
                        <g>
                            <g transform="matrix(1,0,0,1,12,34)">
                                <text x="0px" y="0px" style="font-family:'Arial-BoldMT', 'Arial', sans-serif;font-weight:700;font-size:20px;fill:rgb(44,44,44);">T<tspan x="11.113px 18.896px " y="0px 0px ">ra</tspan>vel &amp;</text>
                            </g>
                            <g transform="matrix(1,0,0,1,12,58)">
                                <text x="0px" y="0px" style="font-family:'Arial-BoldMT', 'Arial', sans-serif;font-weight:700;font-size:20px;fill:rgb(44,44,44);">Hospitality</text>
                            </g>
                        </g>
                    </g>
                </g>
            </g>
            <g transform="matrix(1,0,0,1,374,384)">
                <g id="g-root-tx_enterpri_qn69d21npvlzf-fill">
                    <g id="tx_enterpri_qn69d21npvlzf-fill">
                        <g>
                            <g>
                                <text x="0px" y="0px" style="font-family:'Arial-BoldMT', 'Arial', sans-serif;font-weight:700;font-size:20px;fill:rgb(44,44,44);">Enterprises</text>
                            </g>
                        </g>
                    </g>
                </g>
            </g>
            <g id="g-root-tx__18fp8121npvlsc-fill">
            </g>
            <g id="g-root-tx_governme_403521npn5l2-fill" transform="matrix(1,0,0,1,98,62)">
                <g id="tx_governme_403521npn5l2-fill">
                    <g>
                        <g>
                            <g transform="matrix(1,0,0,1,17.78,34)">
                                <text x="0px" y="0px" style="font-family:'Arial-BoldMT', 'Arial', sans-serif;font-weight:700;font-size:20px;fill:rgb(44,44,44);">Government</text>
                            </g>
                            <g transform="matrix(1,0,0,1,44.33,58)">
                                <text x="0px" y="0px" style="font-family:'Arial-BoldMT', 'Arial', sans-serif;font-weight:700;font-size:20px;fill:rgb(44,44,44);">Agencies</text>
                            </g>
                        </g>
                    </g>
                </g>
            </g>
            <g id="g-root-tx__1hi7g861npq13c-fill">
            </g>
            <g id="g-root-cp_7_text-7_1lvj2061nplr0q-stroke" transform="matrix(1,0,0,1,50,50)">
                <g id="cp_7_text-7_1lvj2061nplr0q-stroke">
                    <g>
                        <path d="M10,118L10,10L238,10L238,118" style="fill:none;stroke:rgb(44,44,44);stroke-width:2px;"/>
                    </g>
                </g>
            </g>
            <g id="g-root-cp_7_stick-7_v98icm1nplr0s-stroke" transform="matrix(1,0,0,1,270,158)">
                <g id="cp_7_stick-7_v98icm1nplr0s-stroke">
                    <g>
                        <path d="M17.996,322L17.996,10" style="fill:none;stroke:rgb(44,44,44);stroke-width:2px;"/>
                    </g>
                </g>
            </g>
            <g id="g-root-cp_5_text-5_dhyhuu1npltdy-stroke" transform="matrix(1,0,0,1,42,158)">
                <g id="cp_5_text-5_dhyhuu1npltdy-stroke">
                    <g>
                        <path d="M10,94L10,10L238,10L238,94" style="fill:none;stroke:rgb(44,44,44);stroke-width:2px;"/>
                    </g>
                </g>
            </g>
            <g id="g-root-cp_5_stick-5_1usf0fa1nplse8-stroke" transform="matrix(1,0,0,1,262,242)">
                <g id="cp_5_stick-5_1usf0fa1nplse8-stroke">
                    <g>
                        <path d="M17.996,238L17.996,10" style="fill:none;stroke:rgb(44,44,44);stroke-width:2px;"/>
                    </g>
                </g>
            </g>
            <g id="g-root-cp_3_text-3_1hhkz521nplqte-stroke" transform="matrix(1,0,0,1,34,242)">
                <g id="cp_3_text-3_1hhkz521nplqte-stroke">
                    <g>
                        <path d="M10,94L10,10L238,10L238,94" style="fill:none;stroke:rgb(44,44,44);stroke-width:2px;"/>
                    </g>
                </g>
            </g>
            <g id="g-root-cp_3_stick-3_qvafhi1nplqtg-stroke" transform="matrix(1,0,0,1,254,326)">
                <g id="cp_3_stick-3_qvafhi1nplqtg-stroke">
                    <g>
                        <path d="M17.996,154L17.996,10" style="fill:none;stroke:rgb(44,44,44);stroke-width:2px;"/>
                    </g>
                </g>
            </g>
            <g id="g-root-cp_1_text-1_djtx461nplsee-stroke" transform="matrix(1,0,0,1,26,326)">
                <g id="cp_1_text-1_djtx461nplsee-stroke">
                    <g>
                        <path d="M238,118L238,10L10,10L10,118L230,118" style="fill:none;stroke:rgb(44,44,44);stroke-width:2px;"/>
                    </g>
                </g>
            </g>
            <g id="g-root-cp_1_stick-1_8zvty1nplqtk-stroke" transform="matrix(1,0,0,1,246,410)">
                <g id="cp_1_stick-1_8zvty1nplqtk-stroke">
                    <g>
                        <path d="M17.996,70L17.996,10M10,70L10,34" style="fill:none;stroke:rgb(44,44,44);stroke-width:2px;"/>
                    </g>
                </g>
            </g>
            <g id="g-root-cp_8_text-8_1lynffq1npls7e-stroke" transform="matrix(1,0,0,1,278,62)">
                <g id="cp_8_text-8_1lynffq1npls7e-stroke">
                    <g>
                        <path d="M238,118L238,10L10,10L10,118" style="fill:none;stroke:rgb(44,44,44);stroke-width:2px;"/>
                    </g>
                </g>
            </g>
            <g id="g-root-cp_8_stick-8_18n6x2e1npltsc-stroke" transform="matrix(1,0,0,1,278,170)">
                <g id="cp_8_stick-8_18n6x2e1npltsc-stroke">
                    <g>
                        <path d="M10.004,310L10.004,10" style="fill:none;stroke:rgb(44,44,44);stroke-width:2px;"/>
                    </g>
                </g>
            </g>
            <g id="g-root-cp_6_text-6_vccvs61npls7i-stroke" transform="matrix(1,0,0,1,286,170)">
                <g id="cp_6_text-6_vccvs61npls7i-stroke">
                    <g>
                        <path d="M238,94L238,10L10,10L10,94" style="fill:none;stroke:rgb(44,44,44);stroke-width:2px;"/>
                    </g>
                </g>
            </g>
            <g id="g-root-cp_6_stick-6_mgpvja1nplts0-stroke" transform="matrix(1,0,0,1,286,254)">
                <g id="cp_6_stick-6_mgpvja1nplts0-stroke">
                    <g>
                        <path d="M10.004,226L10.004,10" style="fill:none;stroke:rgb(44,44,44);stroke-width:2px;"/>
                    </g>
                </g>
            </g>
            <g id="g-root-cp_4_text-4_8vw8va1npn6rm-stroke" transform="matrix(1,0,0,1,294,254)">
                <g id="cp_4_text-4_8vw8va1npn6rm-stroke">
                    <g>
                        <path d="M238,94L238,10L10,10L10,94" style="fill:none;stroke:rgb(44,44,44);stroke-width:2px;"/>
                    </g>
                </g>
            </g>
            <g id="g-root-cp_4_stick-4_1lqj9ba1npn5sc-stroke" transform="matrix(1,0,0,1,294,338)">
                <g id="cp_4_stick-4_1lqj9ba1npn5sc-stroke">
                    <g>
                        <path d="M10.004,142L10.004,10" style="fill:none;stroke:rgb(44,44,44);stroke-width:2px;"/>
                    </g>
                </g>
            </g>
            <g id="g-root-cp_2_text-2_1hapr6u1npn6km-stroke" transform="matrix(1,0,0,1,302,338)">
                <g id="cp_2_text-2_1hapr6u1npn6km-stroke">
                    <g>
                        <path d="M10,94L10,10L238,10L238,94L18,94" style="fill:none;stroke:rgb(44,44,44);stroke-width:2px;"/>
                    </g>
                </g>
            </g>
            <g id="g-root-cp_2_stick-2_m8lpeu1npn7cw-stroke" transform="matrix(1,0,0,1,302,422)">
                <g id="cp_2_stick-2_m8lpeu1npn7cw-stroke">
                    <g>
                        <path d="M10.004,58L10.004,10M18,58L18,10" style="fill:none;stroke:rgb(44,44,44);stroke-width:2px;"/>
                    </g>
                </g>
            </g>
            <g id="g-root-cp_0_g-0_24nvq1npn6kq-stroke" transform="matrix(1,0,0,1,246,470)">
                <g id="cp_0_g-0_24nvq1npn6kq-stroke">
                    <g>
                        <path d="M31.332,61L41.999,86L52.671,61L31.332,61Z" style="fill:none;stroke:rgb(44,44,44);stroke-width:2px;"/>
                    </g>
                </g>
                <g id="cp_0_g-0_24nvq1npn6kq-stroke1" serif:id="cp_0_g-0_24nvq1npn6kq-stroke">
                    <g>
                        <path d="M74,10L10,10L31.333,61L52.667,61L74,10Z" style="fill:none;stroke:rgb(44,44,44);stroke-width:2px;"/>
                    </g>
                </g>
            </g>
            <g id="g-root-ic_24_4hbox21npq0hy-stroke" transform="matrix(1,0,0,1,214,254)">
                <g id="ic_24_4hbox21npq0hy-stroke">
                    <g>
                        <path d="M10.75,45.25L10.75,31.75C10.75,30.922 11.422,30.25 12.25,30.25L43.75,30.25C44.578,30.25 45.25,30.922 45.25,31.75L45.25,45.25M18.25,37C18.25,35.757 19.257,34.75 20.5,34.75C21.743,34.75 22.75,35.757 22.75,37C22.736,37.736 22.471,38.445 22,39.01L18.25,43.75L22.75,43.75M29.5,40.75L25,40.75C25,39.25 25,34.75 29.5,34.75L29.5,43.75M34,34.75L34,43.75M34,38.5L37,38.5C37.828,38.5 38.5,39.172 38.5,40L38.5,43.75M37.75,30.25L37.75,26.5M34.75,22.75L40.75,22.75C40.75,22.75 41.5,22.75 41.5,23.5L41.5,25.75C41.5,25.75 41.5,26.5 40.75,26.5L34.75,26.5C34.75,26.5 34,26.5 34,25.75L34,23.5C34,23.5 34,22.75 34.75,22.75M15.25,15.25L15.25,16C15.25,18.071 16.929,19.75 19,19.75C21.071,19.75 22.75,18.071 22.75,16L22.75,15.25M22.75,15.25L15.25,15.25L15.25,12.025C15.246,11.708 15.445,11.424 15.745,11.32C17.848,10.555 20.152,10.555 22.255,11.32C22.555,11.424 22.754,11.708 22.75,12.025L22.75,15.25ZM13.195,27.25C13.885,24.609 16.271,22.767 19,22.767C21.729,22.767 24.115,24.609 24.805,27.25" style="fill:none;stroke:rgb(44,44,44);stroke-width:2px;"/>
                    </g>
                </g>
            </g>
            <g id="g-root-ic_stud_4lp0iu1npstu7-stroke" transform="matrix(1,0,0,1,298,182)">
                <g id="ic_stud_4lp0iu1npstu7-stroke">
                    <g>
                        <path d="M26.95,21.7C25.128,21.7 23.65,20.222 23.65,18.4C23.65,16.577 25.128,15.1 26.95,15.1C28.773,15.1 30.25,16.577 30.25,18.4C30.25,20.222 28.773,21.7 26.95,21.7ZM21.85,28.45C21.85,25.6 24.1,23.35 26.95,23.35C29.8,23.35 32.05,25.6 32.05,28.45M37.375,34.675C37.375,34.675 36.625,32.575 30.925,32.275C30.325,32.275 29.875,32.575 29.875,33.025L29.875,41.725C29.875,42.175 30.325,42.475 30.775,42.475C36.625,42.625 37.375,44.875 37.375,44.875L37.375,34.675ZM37.375,34.675C37.375,34.675 38.125,32.575 43.825,32.275C44.425,32.275 44.875,32.575 44.875,33.025L44.875,41.725C44.875,42.175 44.425,42.475 43.975,42.475C38.125,42.625 37.375,44.875 37.375,44.875M42.025,28.225L42.025,13.225C42.025,12.025 41.125,11.125 39.925,11.125L13.225,11.125C12.025,11.125 11.125,12.025 11.125,13.225L11.125,33.775C11.125,34.975 12.025,35.875 13.225,35.875L24.925,35.875M22.975,35.875L21.925,41.875M24.55,41.875L20.425,41.875" style="fill:none;stroke:rgb(44,44,44);stroke-width:2px;"/>
                    </g>
                </g>
            </g>
            <g id="g-root-ic_chat_18i74di1npolxn-stroke" transform="matrix(1,0,0,1,222,170)">
                <g id="ic_chat_18i74di1npolxn-stroke">
                    <g>
                        <path d="M19.432,34.695L11.304,37.527L13.873,28.736L13.873,13.921C13.873,13.24 14.143,12.586 14.625,12.105C15.107,11.623 15.76,11.352 16.441,11.352L36.598,11.352C37.28,11.352 37.933,11.623 38.415,12.105C38.896,12.586 39.167,13.24 39.167,13.921L39.167,27.319M20.945,27.28C20.945,25.877 21.502,24.531 22.494,23.539C23.487,22.546 24.833,21.989 26.236,21.989C27.639,21.989 28.985,22.546 29.977,23.539C30.97,24.531 31.527,25.877 31.527,27.28L20.945,27.28ZM26.236,21.989C27.985,21.989 29.404,20.571 29.404,18.821C29.404,17.072 27.985,15.654 26.236,15.654C24.486,15.654 23.068,17.072 23.068,18.821C23.068,20.571 24.486,21.989 26.236,21.989ZM37.327,31.042L24.188,31.042C23.327,31.042 22.629,31.74 22.629,32.601L22.629,43.513C22.629,44.374 23.327,45.072 24.188,45.072L37.327,45.072C38.188,45.072 38.886,44.374 38.886,43.513L38.886,32.601C38.886,31.74 38.188,31.042 37.327,31.042ZM38.886,40.394L44.069,42.337C44.187,42.382 44.314,42.397 44.439,42.381C44.564,42.365 44.683,42.32 44.786,42.248C44.89,42.176 44.974,42.081 45.033,41.969C45.091,41.858 45.122,41.734 45.122,41.608L45.122,34.504C45.122,34.378 45.091,34.254 45.033,34.142C44.974,34.031 44.889,33.936 44.786,33.864C44.683,33.793 44.563,33.747 44.438,33.732C44.314,33.717 44.187,33.732 44.069,33.776L38.886,35.719L38.886,40.394ZM28.974,34.006L32.357,34.006L32.357,36.365L34.808,36.365L34.808,39.748L32.357,39.748L32.357,42.107L28.974,42.107L28.974,39.748L26.707,39.748L26.707,36.365L28.974,36.365L28.974,34.006Z" style="fill:none;stroke:rgb(44,44,44);stroke-width:2px;"/>
                    </g>
                </g>
            </g>
            <g id="g-root-ic_stor_1qa3lye1npu77m-stroke" transform="matrix(1,0,0,1,306,266)">
                <g id="ic_stor_1qa3lye1npu77m-stroke">
                    <g>
                        <path d="M10.75,13L45.25,13L45.25,40C45.25,41.657 43.907,43 42.25,43L13.75,43C12.093,43 10.75,41.657 10.75,40L10.75,13ZM28,27.25C20.544,27.25 14.5,33.294 14.5,40.75C14.499,41.504 14.559,42.256 14.68,43L41.32,43C41.441,42.256 41.501,41.504 41.5,40.75C41.5,33.294 35.456,27.25 28,27.25ZM28,34.75C24.686,34.75 22,37.436 22,40.75C21.996,41.521 22.144,42.286 22.435,43L33.565,43C33.856,42.286 34.004,41.521 34,40.75C34,37.436 31.314,34.75 28,34.75ZM28,34.75L40.09,34.75M22.375,43L16.75,33.28M34,18.625C34,19.661 33.161,20.5 32.125,20.5L23.875,20.5C22.839,20.5 22,19.661 22,18.625C22,17.589 22.839,16.75 23.875,16.75L32.125,16.75C33.161,16.75 34,17.589 34,18.625Z" style="fill:none;stroke:rgb(44,44,44);stroke-width:2px;"/>
                    </g>
                </g>
            </g>
            <g id="g-root-ic_conn_mgpvja1nppypt-stroke" transform="matrix(1,0,0,1,206,338)">
                <g id="ic_conn_mgpvja1nppypt-stroke">
                    <g>
                        <path d="M11.14,35.981C11.052,36.212 11.082,36.472 11.222,36.675C11.362,36.879 11.594,37 11.841,37L21.7,37C21.947,37 22.177,36.879 22.317,36.675C22.457,36.472 22.488,36.213 22.401,35.983L16.782,21.25L11.14,35.981ZM16.782,21.25L16.75,19M11.202,36.643L19.855,29.321M22.341,36.628L13.695,29.311M14.77,26.5L18.781,26.5M13.75,17.5C13.75,15.843 15.093,14.5 16.75,14.5C18.407,14.5 19.75,15.843 19.75,17.5M10.75,17.5C10.75,14.186 13.436,11.5 16.75,11.5C20.064,11.5 22.75,14.186 22.75,17.5M42.25,32.5L42.25,36.25C42.25,36.664 41.914,37 41.5,37L34,37C33.586,37 33.25,36.664 33.25,36.25L33.25,32.5M30.312,30.25L37.797,23.407L45.218,30.25M16.75,37L16.75,43C16.75,43.828 17.422,44.5 18.25,44.5L36.25,44.5C37.078,44.5 37.75,43.828 37.75,43L37.75,37" style="fill:none;stroke:rgb(44,44,44);stroke-width:2px;"/>
                    </g>
                </g>
            </g>
            <g id="g-root-ic_pers_1d2dy3q1nprf9g-stroke" transform="matrix(1,0,0,1,290,74)">
                <g id="ic_pers_1d2dy3q1nprf9g-stroke">
                    <g>
                        <path d="M11.875,22.375C11.875,24.653 13.722,26.5 16,26.5C18.278,26.5 20.125,24.653 20.125,22.375C20.125,20.097 18.278,18.25 16,18.25C13.722,18.25 11.875,20.097 11.875,22.375M21.25,33.25C21.25,30.351 18.899,28 16,28C13.101,28 10.75,30.351 10.75,33.25L10.75,37.75L13.125,37.75L13.75,45.25L18.25,45.25L18.876,37.75L21.25,37.75L21.25,33.25ZM36.635,37.75L24.25,37.75M25,10.75L34,10.75C34,10.75 34.75,10.75 34.75,11.5L34.75,23.5C34.75,23.5 34.75,24.25 34,24.25L25,24.25C25,24.25 24.25,24.25 24.25,23.5L24.25,11.5C24.25,11.5 24.25,10.75 25,10.75M28,13.75L31,13.75C31,13.75 31.75,13.75 31.75,14.5L31.75,20.5C31.75,20.5 31.75,21.25 31,21.25L28,21.25C28,21.25 27.25,21.25 27.25,20.5L27.25,14.5C27.25,14.5 27.25,13.75 28,13.75M45.25,41.876C45.26,41.973 45.228,42.069 45.162,42.141C45.097,42.212 45.003,42.252 44.907,42.25L36.595,42.25C36.498,42.252 36.405,42.212 36.339,42.141C36.274,42.069 36.242,41.973 36.251,41.877L37.087,32.126C37.109,31.917 37.284,31.756 37.495,31.753L44.005,31.753C44.216,31.756 44.391,31.917 44.413,32.126L45.25,41.876ZM42.25,25L43.75,22.75L37.75,22.75L39.25,25C38.422,25.248 37.855,26.01 37.855,26.875C37.855,27.74 38.422,28.502 39.25,28.75L42.25,28.75C43.078,28.502 43.645,27.74 43.645,26.875C43.645,26.01 43.078,25.248 42.25,25L42.25,25ZM40.75,28.75L40.75,31.75" style="fill:none;stroke:rgb(44,44,44);stroke-width:2px;"/>
                    </g>
                </g>
            </g>
            <g id="g-root-ic_pick_2r4yu1npvkzp-stroke" transform="matrix(1,0,0,1,314,350)">
                <g id="ic_pick_2r4yu1npvkzp-stroke">
                    <g>
                        <path d="M37.873,32.172C39.412,32.3 40.595,33.589 40.591,35.134C40.587,36.679 39.398,37.962 37.858,38.083M43.284,45.058C42.231,43.019 40.175,41.691 37.883,41.569M23.352,33.85C23.351,36.623 25.599,38.871 28.372,38.871C31.145,38.871 33.393,36.623 33.392,33.85C33.393,31.077 31.145,28.829 28.372,28.829C25.599,28.829 23.351,31.077 23.351,33.85M20.676,45.25C21.837,42.059 24.846,39.915 28.242,39.861C31.637,39.807 34.714,41.854 35.976,45.007M18.127,32.172C16.588,32.3 15.405,33.589 15.409,35.134C15.413,36.679 16.602,37.962 18.142,38.083M12.717,45.058C13.769,43.019 15.825,41.691 18.117,41.569M25.174,17.617C25.174,19.358 26.585,20.769 28.326,20.769C30.066,20.769 31.477,19.358 31.477,17.617C31.477,15.876 30.066,14.466 28.326,14.466C26.585,14.466 25.174,15.876 25.174,17.617M25.362,18.691L20.404,23.253L22.843,26.793M31.289,18.691L36.249,23.253L33.808,26.793M28.326,14.466L28.326,10.75" style="fill:none;stroke:rgb(44,44,44);stroke-width:2px;"/>
                    </g>
                </g>
            </g>
            <g id="g-root-ic_dc_591ba1npn7r4-stroke" transform="matrix(1,0,0,1,230,62)">
                <g id="ic_dc_591ba1npn7r4-stroke">
                    <g>
                        <path d="M20.16,23.296L35.842,23.296L35.842,34.273L20.16,34.273L20.16,23.296ZM10.75,23.296L20.16,23.296L20.16,34.273L10.75,34.273L10.75,23.296ZM35.841,23.296L45.25,23.296L45.25,34.273L35.841,34.273L35.841,23.296ZM20.16,23.296L28,17.023L35.841,23.296M10.75,23.296L10.75,18.591L26.039,18.591M45.25,23.296L45.25,18.591L29.961,18.591M17.057,18.591L17.057,16.239M38.158,18.591L38.158,16.239M28,17.023L28,10.75L33.469,10.75L33.469,14.671L28,14.671M25.345,23.296L25.345,34.273M30.655,23.296L30.655,34.273M22.511,45.25L33.489,45.25M28,45.25L28,41.329C28,38.193 31.921,38.193 31.921,41.329M28,45.25L28,41.329C28,38.193 24.079,38.193 24.079,41.329M45.25,28.971L30.655,28.971M10.75,28.971L25.345,28.971M30.655,30.112C30.655,28.646 29.466,27.457 28,27.457C26.534,27.457 25.345,28.646 25.345,30.112M15.454,26.547L15.454,28.785M15.454,32.036L15.454,34.273M40.546,26.547L40.546,28.785M40.546,32.036L40.546,34.273" style="fill:none;stroke:rgb(44,44,44);stroke-width:2px;"/>
                    </g>
                </g>
            </g>
        </g>
    </g>
</svg>
