<?xml version="1.0" encoding="UTF-8" standalone="no"?>
<!DOCTYPE svg PUBLIC "-//W3C//DTD SVG 1.1//EN" "http://www.w3.org/Graphics/SVG/1.1/DTD/svg11.dtd">
<svg width="100%" height="100%" viewBox="0 0 618 612" version="1.1" xmlns="http://www.w3.org/2000/svg" xmlns:xlink="http://www.w3.org/1999/xlink" xml:space="preserve" xmlns:serif="http://www.serif.com/" style="fill-rule:evenodd;clip-rule:evenodd;stroke-linecap:round;stroke-linejoin:round;">
    <g id="items" transform="matrix(1.20897,0,0,1.20897,-64.5705,-113.297)">
        <g id="blend">
            <g id="g-root-cp_1_sign-1_v9ujli1mbxmo9-fill" transform="matrix(1,0,0,1,62,146)">
                <g id="cp_1_sign-1_v9ujli1mbxmo9-fill">
                    <g>
                        <path d="M10,40L28,10L28,70L10,40ZM28,10L237,10L237,70L28,70L28,10Z" style="fill:rgb(67,221,147);"/>
                    </g>
                </g>
            </g>
            <g id="g-root-cp_3_sign-3_7qhti1mbxngj-fill" transform="matrix(1,0,0,1,110,218)">
                <g id="cp_3_sign-3_7qhti1mbxngj-fill">
                    <g>
                        <path d="M10,52L28,10L28,94L10,52ZM28,10L189,10L189,94L28,94L28,10Z" style="fill:rgb(166,218,55);"/>
                    </g>
                </g>
            </g>
            <g id="g-root-cp_5_sign-5_1d3mgfq1mbxon9-fill" transform="matrix(1,0,0,1,50,314)">
                <g id="cp_5_sign-5_1d3mgfq1mbxon9-fill">
                    <g>
                        <path d="M10,40L28,10L28,70L10,40ZM28,10L249,10L249,70L28,70L28,10Z" style="fill:rgb(26,195,251);"/>
                    </g>
                </g>
            </g>
            <g id="g-root-cp_pole_g-pole_1hbbsfq1mbz1fr-fill" transform="matrix(1,0,0,1,287,122)">
                <g id="cp_pole_g-pole_1hbbsfq1mbz1fr-fill">
                    <g>
                        <path d="M31,322L13,322L13,436L31,436L31,435.897L24.55,435.88C24.55,435.88 25.3,429.89 17.74,428.78C25.63,425.53 28.41,430.56 28.41,430.56C28.41,430.56 27.994,423.986 31,418.2L31,322ZM13,22L31,22L31,322L13,322L13,22Z" style="fill:rgb(171,171,171);"/>
                    </g>
                </g>
                <g id="cp_pole_g-pole_1hbbsfq1mbz1fr-fill1" serif:id="cp_pole_g-pole_1hbbsfq1mbz1fr-fill">
                    <g>
                        <rect x="10" y="10" width="24" height="12" style="fill:rgb(171,171,171);"/>
                    </g>
                </g>
            </g>
            <g id="g-root-cp_pole_plant_8ydpdi1mbz0n6-fill" transform="matrix(1,0,0,1,255,523)">
                <g id="cp_pole_plant_8ydpdi1mbz0n6-fill">
                    <g>
                        <path d="M60.393,29.56C60.393,29.56 57.613,24.53 49.723,27.78C54.516,28.484 57.019,30.471 56.533,35.008L10,35.008C10,35.008 17.976,46.521 54.183,46.521C90.39,46.521 97.76,35.008 97.76,35.008L71.483,35.008C68.788,30.384 74.815,23.86 80.883,26.67C78.883,23.56 72.993,22.89 68.553,26C66.693,20.52 67.443,13.77 70.613,10C59.453,14.7 60.393,29.56 60.393,29.56Z" style="fill:rgb(145,187,57);"/>
                    </g>
                </g>
            </g>
            <g id="g-root-cp_2_sign-2_1hd77p21mbz0g4-fill" transform="matrix(1,0,0,1,309,182)">
                <g id="cp_2_sign-2_1hd77p21mbz0g4-fill">
                    <g>
                        <path d="M10,10L219,10L219,94L10,94L10,10ZM237,52L219,10L219,94L237,52Z" style="fill:rgb(79,145,252);"/>
                    </g>
                </g>
            </g>
            <g id="g-root-cp_4_sign-4_qqwo1i1mbz0g6-fill" transform="matrix(1,0,0,1,309,278)">
                <g id="cp_4_sign-4_qqwo1i1mbz0g6-fill">
                    <g>
                        <path d="M10,10L231,10L231,70L10,70L10,10ZM249,40L231,10L231,70L249,40Z" style="fill:rgb(251,103,98);"/>
                    </g>
                </g>
            </g>
            <g id="g-root-cp_6_sign-6_1lu9nzq1mbz1u0-fill" transform="matrix(1,0,0,1,309,350)">
                <g id="cp_6_sign-6_1lu9nzq1mbz1u0-fill">
                    <g>
                        <path d="M10,10L183,10L183,94L10,94L10,10ZM201,52L183,10L183,94L201,52Z" style="fill:rgb(247,148,56);"/>
                    </g>
                </g>
            </g>
            <g transform="matrix(1,0,0,1,153.83,198)">
                <g id="g-root-tx_costeffi_qtekdy1mc1vkd-fill">
                    <g id="tx_costeffi_qtekdy1mc1vkd-fill">
                        <g>
                            <g>
                                <g transform="matrix(20,0,0,20,61.123,0)">
                                </g>
                                <g transform="matrix(20,0,0,20,66.5018,0)">
                                </g>
                                <g transform="matrix(20,0,0,20,71.8805,0)">
                                </g>
                                <text x="0px" y="0px" style="font-family:'ArialMT', 'Arial', sans-serif;font-size:20px;fill:rgb(44,44,44);">Cost-Eﬃciency</text>
                            </g>
                        </g>
                    </g>
                </g>
            </g>
            <g id="g-root-tx_advanced_147d29i1mbjldy-fill" transform="matrix(1,0,0,1,320,200)">
                <g id="tx_advanced_147d29i1mbjldy-fill">
                    <g>
                        <g>
                            <g transform="matrix(1,0,0,1,12,34)">
                                <text x="0px" y="0px" style="font-family:'ArialMT', 'Arial', sans-serif;font-size:20px;fill:rgb(44,44,44);">Advanced Call</text>
                            </g>
                            <g transform="matrix(1,0,0,1,12,58)">
                                <text x="0px" y="0px" style="font-family:'ArialMT', 'Arial', sans-serif;font-size:20px;fill:rgb(44,44,44);">Routing</text>
                            </g>
                        </g>
                    </g>
                </g>
            </g>
            <g id="g-root-tx_realtime_i0vxkm1mc3ax4-fill" transform="matrix(1,0,0,1,182,236)">
                <g id="tx_realtime_i0vxkm1mc3ax4-fill">
                    <g>
                        <g>
                            <g transform="matrix(1,0,0,1,14.87,34)">
                                <text x="0px" y="0px" style="font-family:'ArialMT', 'Arial', sans-serif;font-size:20px;fill:rgb(44,44,44);">Real-T<tspan x="59.268px 63.711px " y="0px 0px ">im</tspan>e</text>
                            </g>
                            <g transform="matrix(1,0,0,1,22.48,58)">
                                <text x="0px" y="0px" style="font-family:'ArialMT', 'Arial', sans-serif;font-size:20px;fill:rgb(44,44,44);">Analytics</text>
                            </g>
                        </g>
                    </g>
                </g>
            </g>
            <g transform="matrix(1,0,0,1,332,330)">
                <g id="g-root-tx_fraudpro_13ymf1y1mbmfi9-fill">
                    <g id="tx_fraudpro_13ymf1y1mbmfi9-fill">
                        <g>
                            <g>
                                <text x="0px" y="0px" style="font-family:'ArialMT', 'Arial', sans-serif;font-size:20px;fill:rgb(44,44,44);">Fraud Protection</text>
                            </g>
                        </g>
                    </g>
                </g>
            </g>
            <g transform="matrix(1,0,0,1,143,366)">
                <g id="g-root-tx_easyinte_4g2e2e1mbjk7f-fill">
                    <g id="tx_easyinte_4g2e2e1mbjk7f-fill">
                        <g>
                            <g>
                                <text x="0px" y="0px" style="font-family:'ArialMT', 'Arial', sans-serif;font-size:20px;fill:rgb(44,44,44);">Easy Integration</text>
                            </g>
                        </g>
                    </g>
                </g>
            </g>
            <g id="g-root-tx_scalable_18fovcm1mbnu9w-fill" transform="matrix(1,0,0,1,320,368)">
                <g id="tx_scalable_18fovcm1mbnu9w-fill">
                    <g>
                        <g>
                            <g transform="matrix(1,0,0,1,12,34)">
                                <text x="0px" y="0px" style="font-family:'ArialMT', 'Arial', sans-serif;font-size:20px;fill:rgb(44,44,44);">Scalable &amp;</text>
                            </g>
                            <g transform="matrix(1,0,0,1,12,58)">
                                <text x="0px" y="0px" style="font-family:'ArialMT', 'Arial', sans-serif;font-size:20px;fill:rgb(44,44,44);">Flexible</text>
                            </g>
                        </g>
                    </g>
                </g>
            </g>
            <g id="g-root-cp_1_sign-1_v9ujli1mbxmo9-stroke" transform="matrix(1,0,0,1,62,146)">
                <g id="cp_1_sign-1_v9ujli1mbxmo9-stroke">
                    <g>
                        <path d="M28,10L237,10M237,70L28,70M28,70L10,40L28,10" style="fill:none;stroke:rgb(44,44,44);stroke-width:2px;"/>
                    </g>
                </g>
            </g>
            <g id="g-root-cp_3_sign-3_7qhti1mbxngj-stroke" transform="matrix(1,0,0,1,110,218)">
                <g id="cp_3_sign-3_7qhti1mbxngj-stroke">
                    <g>
                        <path d="M28,10L189,10M189,94L28,94M28,94L10,52L28,10" style="fill:none;stroke:rgb(44,44,44);stroke-width:2px;"/>
                    </g>
                </g>
            </g>
            <g id="g-root-cp_5_sign-5_1d3mgfq1mbxon9-stroke" transform="matrix(1,0,0,1,50,314)">
                <g id="cp_5_sign-5_1d3mgfq1mbxon9-stroke">
                    <g>
                        <path d="M28,10L249,10M249,70L28,70M28,70L10,40L28,10" style="fill:none;stroke:rgb(44,44,44);stroke-width:2px;"/>
                    </g>
                </g>
            </g>
            <g id="g-root-cp_pole_g-pole_1hbbsfq1mbz1fr-stroke" transform="matrix(1,0,0,1,287,122)">
                <g id="cp_pole_g-pole_1hbbsfq1mbz1fr-stroke">
                    <g>
                        <path d="M31,418L31,322M13,435L13,322M31,322L31,22M13,322L13,22" style="fill:none;stroke:rgb(44,44,44);stroke-width:2px;"/>
                    </g>
                </g>
                <g id="cp_pole_g-pole_1hbbsfq1mbz1fr-stroke1" serif:id="cp_pole_g-pole_1hbbsfq1mbz1fr-stroke">
                    <g>
                        <rect x="10" y="10" width="24" height="12" style="fill:none;stroke:rgb(44,44,44);stroke-width:2px;"/>
                    </g>
                </g>
            </g>
            <g id="g-root-cp_pole_plant_8ydpdi1mbz0n6-stroke" transform="matrix(1,0,0,1,255,523)">
                <g id="cp_pole_plant_8ydpdi1mbz0n6-stroke">
                    <g>
                        <path d="M56.55,34.88C56.55,34.88 57.3,28.89 49.74,27.78C57.63,24.53 60.41,29.56 60.41,29.56C60.41,29.56 59.47,14.7 70.63,10C67.46,13.77 66.71,20.52 68.57,26C73.01,22.89 78.9,23.56 80.9,26.67C76.68,24.44 69.89,28.468 71,34.918M71,34.918L98,34.918M10,34.918L56.5,34.918" style="fill:none;stroke:rgb(44,44,44);stroke-width:2px;"/>
                    </g>
                </g>
            </g>
            <g id="g-root-cp_2_sign-2_1hd77p21mbz0g4-stroke" transform="matrix(1,0,0,1,309,182)">
                <g id="cp_2_sign-2_1hd77p21mbz0g4-stroke">
                    <g>
                        <path d="M219,94L10,94M10,10L219,10M219,10L237,52L219,94" style="fill:none;stroke:rgb(44,44,44);stroke-width:2px;"/>
                    </g>
                </g>
            </g>
            <g id="g-root-cp_4_sign-4_qqwo1i1mbz0g6-stroke" transform="matrix(1,0,0,1,309,278)">
                <g id="cp_4_sign-4_qqwo1i1mbz0g6-stroke">
                    <g>
                        <path d="M231,70L10,70M10,10L231,10M231,10L249,40L231,70" style="fill:none;stroke:rgb(44,44,44);stroke-width:2px;"/>
                    </g>
                </g>
            </g>
            <g id="g-root-cp_6_sign-6_1lu9nzq1mbz1u0-stroke" transform="matrix(1,0,0,1,309,350)">
                <g id="cp_6_sign-6_1lu9nzq1mbz1u0-stroke">
                    <g>
                        <path d="M183,94L10,94M10,10L183,10M183,10L201,52L183,94" style="fill:none;stroke:rgb(44,44,44);stroke-width:2px;"/>
                    </g>
                </g>
            </g>
            <g id="g-root-ic_decr_18kokvq1mbz2f7-stroke" transform="matrix(1,0,0,1,86,158)">
                <g id="ic_decr_18kokvq1mbz2f7-stroke">
                    <g>
                        <path d="M22.461,32.61C18.767,28.993 17.623,23.504 19.564,18.713C21.505,13.922 26.146,10.777 31.315,10.75C36.484,10.723 41.158,13.82 43.148,18.591C45.139,23.361 44.051,28.862 40.396,32.516M32.131,28.651L32.131,30.349M32.131,16.75L32.131,18.452M29.583,26.101C29.583,27.509 30.724,28.651 32.133,28.651C33.541,28.651 34.683,27.509 34.683,26.101C34.683,24.693 33.541,23.551 32.133,23.551C30.724,23.551 29.583,22.409 29.583,21.001C29.583,19.593 30.724,18.451 32.133,18.451C33.541,18.451 34.683,19.593 34.683,21.001M11.881,28.75L24.435,39.91C24.981,40.395 25.797,40.416 26.368,39.959L31.869,35.56C32.45,35.095 33.285,35.127 33.829,35.635L44.131,45.25M38.131,45.25L44.131,45.25L44.131,39.285" style="fill:none;stroke:rgb(44,44,44);stroke-width:2px;"/>
                    </g>
                </g>
            </g>
            <g id="g-root-ic_1_1cw4uk61mbjm6c-stroke" transform="matrix(1,0,0,1,476,206)">
                <g id="ic_1_1cw4uk61mbjm6c-stroke">
                    <g>
                        <path d="M27.274,16.765L27.274,10.765L33.274,10.765M27.274,10.765L36.274,19.015L36.274,28.724M45.274,16.765L45.274,10.765L39.274,10.765M45.274,10.765L38.996,16.49M26.323,44.994C22.723,41.384 24,38.571 25.952,36.616L27.214,35.355C28.471,34.099 30.507,34.099 31.763,35.354L37.222,40.814C37.668,41.259 37.861,41.898 37.736,42.515C37.612,43.133 37.186,43.646 36.602,43.883C29.612,46.74 21.59,45.125 16.251,39.785C10.911,34.446 9.296,26.424 12.153,19.434C12.39,18.85 12.903,18.424 13.521,18.3C14.138,18.175 14.777,18.368 15.222,18.814L20.683,24.276C21.939,25.531 21.939,27.568 20.683,28.824L19.42,30.085C17.47,32.035 14.653,33.316 11.044,29.716" style="fill:none;stroke:rgb(44,44,44);stroke-width:2px;"/>
                    </g>
                </g>
            </g>
            <g id="g-root-ic_incr_4osy461mc1tse-stroke" transform="matrix(1,0,0,1,134,242)">
                <g id="ic_incr_4osy461mc1tse-stroke">
                    <g>
                        <path d="M13.189,26.817L42.76,13.369M37.231,11.286L42.76,13.369L40.703,18.897M44.071,44.74L37.643,44.74L37.643,26.74C37.643,26.03 38.218,25.454 38.929,25.454L42.786,25.454C43.496,25.454 44.071,26.03 44.071,26.74L44.071,44.74ZM31.214,44.74L24.786,44.74L24.786,30.597C24.786,29.887 25.361,29.311 26.071,29.311L29.929,29.311C30.639,29.311 31.214,29.887 31.214,30.597L31.214,44.74ZM18.357,44.74L11.929,44.74L11.929,34.454C11.929,33.744 12.504,33.169 13.214,33.169L17.071,33.169C17.782,33.169 18.357,33.744 18.357,34.454L18.357,44.74Z" style="fill:none;stroke:rgb(44,44,44);stroke-width:2px;"/>
                    </g>
                </g>
            </g>
            <g id="g-root-ic_lock_m7yvna1mbl0jz-stroke" transform="matrix(1,0,0,1,488,290)">
                <g id="ic_lock_m7yvna1mbl0jz-stroke">
                    <g>
                        <path d="M29.144,36.622L14.034,36.622C12.302,36.62 10.9,35.217 10.9,33.486L10.9,13.887C10.9,12.155 12.302,10.752 14.034,10.75L37.553,10.75C39.285,10.751 40.689,12.155 40.689,13.887L40.688,23.39M10.897,16.875L40.688,16.875M10.897,29.887L29.144,29.887M10.897,23.39L40.688,23.39M23.065,16.875L23.065,36.622M31.789,16.875L31.789,27.404M32.254,36.328C32.254,35.096 33.253,34.097 34.485,34.097L42.873,34.097C44.103,34.099 45.1,35.097 45.1,36.328L45.1,43.02C45.1,44.25 44.103,45.248 42.872,45.25L34.485,45.25C33.253,45.25 32.254,44.251 32.254,43.02L32.254,36.328ZM38.678,27.4C36.264,27.45 34.347,29.447 34.396,31.861L34.396,34.093L42.961,34.093L42.961,31.865C43.012,29.45 41.094,27.45 38.678,27.4L38.678,27.4ZM38.678,38.112C38.02,38.085 37.41,38.461 37.14,39.062C36.869,39.663 36.99,40.369 37.447,40.844C37.904,41.32 38.604,41.471 39.216,41.224C39.827,40.978 40.228,40.385 40.228,39.726C40.246,38.852 39.552,38.13 38.678,38.112" style="fill:none;stroke:rgb(44,44,44);stroke-width:2px;"/>
                    </g>
                </g>
            </g>
            <g id="g-root-ic_plan_8x4ud21mbi87d-stroke" transform="matrix(1,0,0,1,74,326)">
                <g id="ic_plan_8x4ud21mbi87d-stroke">
                    <g>
                        <path d="M19,25.75L16,25.75L16,11.5C16,11.086 16.336,10.75 16.75,10.75L31.75,10.75C32.164,10.75 32.5,11.086 32.5,11.5L32.5,25.75L24.25,25.75M28,25.75L28,30.25C30.485,30.25 32.5,32.265 32.5,34.75L32.5,35.5L28,35.5L28,44.5C28,44.914 27.664,45.25 27.25,45.25L11.5,45.25C11.086,45.25 10.75,44.914 10.75,44.5L10.75,26.5C10.75,26.086 11.086,25.75 11.5,25.75L16,25.75M28,38.5L44.5,38.5C44.914,38.5 45.25,38.164 45.25,37.75L45.25,28C42.351,28 40,25.649 40,22.75L44.5,22.75C44.914,22.75 45.25,22.414 45.25,22L45.25,17.5C45.25,17.086 44.914,16.75 44.5,16.75L32.5,16.75M10.75,36.25L18.25,36.25L18.25,45.25L11.5,45.25C11.086,45.25 10.75,44.914 10.75,44.5L10.75,36.25ZM10.75,39.25L18.25,39.25M10.75,42.25L18.25,42.25" style="fill:none;stroke:rgb(44,44,44);stroke-width:2px;"/>
                    </g>
                </g>
            </g>
            <g id="g-root-ic_1_zkoc6u1mbmeiy-stroke" transform="matrix(1,0,0,1,440,374)">
                <g id="ic_1_zkoc6u1mbmeiy-stroke">
                    <g>
                        <path d="M44.714,11.286L33.143,11.286L33.143,22.857L22.857,22.857L22.857,33.143L11.286,33.143L11.286,44.714L44.714,44.714L44.714,11.286Z" style="fill:none;stroke:rgb(44,44,44);stroke-width:2px;"/>
                    </g>
                </g>
            </g>
        </g>
    </g>
</svg>
