<?xml version="1.0" encoding="UTF-8" standalone="no"?>
<!DOCTYPE svg PUBLIC "-//W3C//DTD SVG 1.1//EN" "http://www.w3.org/Graphics/SVG/1.1/DTD/svg11.dtd">
<svg width="100%" height="100%" viewBox="0 0 588 586" version="1.1" xmlns="http://www.w3.org/2000/svg" xmlns:xlink="http://www.w3.org/1999/xlink" xml:space="preserve" xmlns:serif="http://www.serif.com/" style="fill-rule:evenodd;clip-rule:evenodd;stroke-linecap:round;stroke-linejoin:round;">
    <g id="items" transform="matrix(1.06047,0,0,1.06047,-17.7785,-38.867)">
        <g id="blend">
            <g id="g-root-sy_-1_cu_zjg05y1lrx0jr-fill" transform="matrix(1,0,0,1,14,62)">
                <g id="sy_-1_cu_zjg05y1lrx0jr-fill">
                    <g>
                        <path d="M10,490L10,418L82.5,418L82.5,490L10,490ZM34,394L10,418L82.5,418L106,394L34,394ZM34,394L34,322L106,322L106,394L34,394ZM58,298L34,322L106,322L130,298L58,298ZM58,298L58,226L130,226L130,298L58,298ZM82,202L58,226L130,226L154,202L82,202ZM82,202L82,130L154,130L154,202L82,202ZM106,106L82,130L154,130L178,106L106,106ZM106,106L106,34L178,34L178,106L106,106ZM130,10L106,34L178,34L202,10L130,10Z" style="fill:url(#_Linear1);"/>
                    </g>
                </g>
            </g>
            <g id="g-root-sy_-1_cu_1_1umt0461lrx1xk-fill" transform="matrix(1,0,0,1,362,62)">
                <g id="sy_-1_cu_1_1umt0461lrx1xk-fill">
                    <g>
                        <path d="M202,490L202,418L130.5,418L130.5,490L202,490ZM202,418L178,394L106,394L130.5,418L202,418ZM178,322L178,394L106,394L106,322L178,322ZM178,322L154,298L82,298L106,322L178,322ZM154,226L154,298L82,298L82,226L154,226ZM154,226L130,202L58,202L82,226L154,226ZM130,130L130,202L58,202L58,130L130,130ZM130,130L106,106L34,106L58,130L130,130ZM106,34L106,106L34,106L34,34L106,34ZM106,34L82,10L10,10L34,34L106,34Z" style="fill:url(#_Linear2);"/>
                    </g>
                </g>
            </g>
            <g id="g-root-sy_1_cu_1cw5gpi1lrx14x-fill" transform="matrix(1,0,0,1,86.4998,446)">
                <g id="sy_1_cu_1cw5gpi1lrx14x-fill">
                    <g>
                        <path d="M10,106L10,34L406,34L406,106L10,106ZM381.5,10L406,34L10,34L33.5,10L381.5,10Z" style="fill:url(#_Linear3);"/>
                    </g>
                </g>
            </g>
            <g id="g-root-sy_2_cu_qp1y3a1lrx3ii-fill" transform="matrix(1,0,0,1,110,350)">
                <g id="sy_2_cu_qp1y3a1lrx3ii-fill">
                    <g>
                        <path d="M10,106L10,34L358,34L358,106L10,106ZM334,10L358,34L10,34L34,10L334,10Z" style="fill:url(#_Linear4);"/>
                    </g>
                </g>
            </g>
            <g id="g-root-sy_3_cu_de7wt21lrx1xn-fill" transform="matrix(1,0,0,1,134,254)">
                <g id="sy_3_cu_de7wt21lrx1xn-fill">
                    <g>
                        <path d="M10,34L10,106L310,106L310,34L10,34ZM286,10L310,34L10,34L34,10L286,10Z" style="fill:url(#_Linear5);"/>
                    </g>
                </g>
            </g>
            <g id="g-root-sy_4_cu_1uoofdi1lrx0xw-fill" transform="matrix(1,0,0,1,158,158)">
                <g id="sy_4_cu_1uoofdi1lrx0xw-fill">
                    <g>
                        <path d="M10,106L10,34L262,34L262,106L10,106ZM238,10L262,34L10,34L34,10L238,10Z" style="fill:url(#_Linear6);"/>
                    </g>
                </g>
            </g>
            <g id="g-root-sy_5_cu_18hkwra1lrx3bh-fill" transform="matrix(1,0,0,1,182,62)">
                <g id="sy_5_cu_18hkwra1lrx3bh-fill">
                    <g>
                        <path d="M10,106L10,34L214,34L214,106L10,106ZM190,10L214,34L10,34L34,10L190,10Z" style="fill:url(#_Linear7);"/>
                    </g>
                </g>
            </g>
            <g transform="matrix(1,0,0,1,212.45,240)">
                <g id="g-root-tx_billingr_93e7di1lrx24q-fill">
                    <g id="tx_billingr_93e7di1lrx24q-fill">
                        <g>
                            <g>
                                <text x="0px" y="0px" style="font-family:'ArialMT', 'Arial', sans-serif;font-size:20px;fill:rgb(244,244,244);">Billing &amp; Reporting</text>
                            </g>
                        </g>
                    </g>
                </g>
            </g>
            <g transform="matrix(1,0,0,1,210.6,144)">
                <g id="g-root-tx_supportu_146r7bq1lrx3ij-fill">
                    <g id="tx_supportu_146r7bq1lrx3ij-fill">
                        <g>
                            <g>
                                <text x="0px" y="0px" style="font-family:'ArialMT', 'Arial', sans-serif;font-size:20px;fill:rgb(244,244,244);">Support &amp; Updates</text>
                            </g>
                        </g>
                    </g>
                </g>
            </g>
            <g transform="matrix(1,0,0,1,215.77,336)">
                <g id="g-root-tx_callmana_1d159ee1lrx0jt-fill">
                    <g id="tx_callmana_1d159ee1lrx0jt-fill">
                        <g>
                            <g>
                                <text x="0px" y="0px" style="font-family:'ArialMT', 'Arial', sans-serif;font-size:20px;fill:rgb(244,244,244);">Call Management</text>
                            </g>
                        </g>
                    </g>
                </g>
            </g>
            <g transform="matrix(1,0,0,1,231.64,432)">
                <g id="g-root-tx_routings_dhca8m1lrx340-fill">
                    <g id="tx_routings_dhca8m1lrx340-fill">
                        <g>
                            <g>
                                <text x="0px" y="0px" style="font-family:'ArialMT', 'Arial', sans-serif;font-size:20px;fill:rgb(244,244,244);">Routing Setup</text>
                            </g>
                        </g>
                    </g>
                </g>
            </g>
            <g transform="matrix(1,0,0,1,206.13,528)">
                <g id="g-root-tx_networki_1luwudy1lrx0qv-fill">
                    <g id="tx_networki_1luwudy1lrx0qv-fill">
                        <g>
                            <g>
                                <text x="0px" y="0px" style="font-family:'ArialMT', 'Arial', sans-serif;font-size:20px;fill:rgb(244,244,244);">Network Integration</text>
                            </g>
                        </g>
                    </g>
                </g>
            </g>
            <g id="g-root-sy_-1_cu_zjg05y1lrx0jr-stroke" transform="matrix(1,0,0,1,14,62)">
                <g id="sy_-1_cu_zjg05y1lrx0jr-stroke">
                    <g>
                        <path d="M10,490L10,418L82.5,418L82.5,490L10,490ZM10,418L34,394L106,394L82.5,418L10,418ZM34,394L34,322L106,322L106,394L34,394ZM34,322L58,298L130,298L106,322L34,322ZM58,298L58,226L130,226L130,298L58,298ZM58,226L82,202L154,202L130,226L58,226ZM82,202L82,130L154,130L154,202L82,202ZM82,130L106,106L178,106L154,130L82,130ZM106,106L106,34L178,34L178,106L106,106ZM106,34L130,10L202,10L178,34L106,34Z" style="fill:none;stroke:rgb(244,244,244);stroke-width:2px;"/>
                    </g>
                </g>
            </g>
            <g id="g-root-sy_-1_cu_1_1umt0461lrx1xk-stroke" transform="matrix(1,0,0,1,362,62)">
                <g id="sy_-1_cu_1_1umt0461lrx1xk-stroke">
                    <g>
                        <path d="M202,418L202,490L130.5,490L130.5,418L202,418ZM202,418L178,394L106,394L130.5,418L202,418ZM178,322L178,394L106,394L106,322L178,322ZM178,322L154,298L82,298L106,322L178,322ZM154,226L154,298L82,298L82,226L154,226ZM154,226L130,202L58,202L82,226L154,226ZM130,130L130,202L58,202L58,130L130,130ZM130,130L106,106L34,106L58,130L130,130ZM106,106L106,34L34,34L34,106L106,106ZM106,34L82,10L10,10L34,34L106,34Z" style="fill:none;stroke:rgb(244,244,244);stroke-width:2px;"/>
                    </g>
                </g>
            </g>
            <g id="g-root-sy_1_cu_1cw5gpi1lrx14x-stroke" transform="matrix(1,0,0,1,86.4998,446)">
                <g id="sy_1_cu_1cw5gpi1lrx14x-stroke">
                    <g>
                        <path d="M10,34L10,106L406,106L406,34L10,34ZM406,34L381.5,10L33.5,10L10,34L406,34Z" style="fill:none;stroke:rgb(244,244,244);stroke-width:2px;"/>
                    </g>
                </g>
            </g>
            <g id="g-root-sy_2_cu_qp1y3a1lrx3ii-stroke" transform="matrix(1,0,0,1,110,350)">
                <g id="sy_2_cu_qp1y3a1lrx3ii-stroke">
                    <g>
                        <path d="M10,34L10,106L358,106L358,34L10,34ZM358,34L334,10L34,10L10,34L358,34Z" style="fill:none;stroke:rgb(244,244,244);stroke-width:2px;"/>
                    </g>
                </g>
            </g>
            <g id="g-root-sy_3_cu_de7wt21lrx1xn-stroke" transform="matrix(1,0,0,1,134,254)">
                <g id="sy_3_cu_de7wt21lrx1xn-stroke">
                    <g>
                        <path d="M10,106L10,34L310,34L310,106L10,106ZM310,34L286,10L34,10L10,34L310,34Z" style="fill:none;stroke:rgb(244,244,244);stroke-width:2px;"/>
                    </g>
                </g>
            </g>
            <g id="g-root-sy_4_cu_1uoofdi1lrx0xw-stroke" transform="matrix(1,0,0,1,158,158)">
                <g id="sy_4_cu_1uoofdi1lrx0xw-stroke">
                    <g>
                        <path d="M10,34L10,106L262,106L262,34L10,34ZM262,34L238,10L34,10L10,34L262,34Z" style="fill:none;stroke:rgb(244,244,244);stroke-width:2px;"/>
                    </g>
                </g>
            </g>
            <g id="g-root-sy_5_cu_18hkwra1lrx3bh-stroke" transform="matrix(1,0,0,1,182,62)">
                <g id="sy_5_cu_18hkwra1lrx3bh-stroke">
                    <g>
                        <path d="M10,34L10,106L214,106L214,34L10,34ZM214,34L190,10L34,10L10,34L214,34Z" style="fill:none;stroke:rgb(244,244,244);stroke-width:2px;"/>
                    </g>
                </g>
            </g>
            <g id="g-root-ic_lapt_9mmdy1lrx1xo-stroke" transform="matrix(1,0,0,1,398,98)">
                <g id="ic_lapt_9mmdy1lrx1xo-stroke">
                    <g>
                        <path d="M31.251,32.5C37.05,32.5 41.751,27.799 41.751,22C41.751,16.201 37.05,11.5 31.251,11.5C25.452,11.5 20.751,16.201 20.751,22C20.751,27.799 25.452,32.5 31.251,32.5ZM22.191,16.66C23.818,18.349 25.769,19.692 27.927,20.61C30.085,21.527 32.406,22 34.751,22C37.123,21.995 39.47,21.512 41.651,20.58M11.751,56.5C11.751,51.328 13.805,46.368 17.462,42.711C21.119,39.054 26.079,37 31.251,37C32.803,37 34.336,37.185 35.82,37.543M32.751,56.5L32.751,37.06M20.751,47.5L26.751,47.5M23.751,44.5L23.751,50.5M40.392,49.946L37.491,54.103C37.36,54.358 37.298,54.643 37.313,54.93C37.327,55.216 37.416,55.493 37.572,55.734C37.719,55.969 37.923,56.162 38.166,56.296C38.408,56.43 38.681,56.5 38.958,56.5L54.74,56.5C55.017,56.5 55.289,56.43 55.532,56.296C55.774,56.162 55.979,55.969 56.125,55.734C56.269,55.486 56.344,55.205 56.344,54.919C56.344,54.632 56.269,54.351 56.125,54.103L53.305,49.946M42.022,40.165C41.59,40.165 41.175,40.337 40.87,40.643C40.564,40.948 40.392,41.363 40.392,41.795L40.392,49.946L53.305,49.946L53.305,41.795C53.305,41.363 53.133,40.948 52.827,40.643C52.522,40.337 52.107,40.165 51.675,40.165L42.022,40.165Z" style="fill:none;stroke:rgb(244,244,244);stroke-width:2px;"/>
                    </g>
                </g>
            </g>
            <g id="g-root-ic_48px_hyeqja1lrzv9j-stroke" transform="matrix(1,0,0,1,98,194)">
                <g id="ic_48px_hyeqja1lrzv9j-stroke">
                    <g>
                        <path d="M15.072,30.179C15.072,24.482 17.789,19.696 23.011,19.696C28.233,19.696 30.949,24.482 30.949,30.179L30.949,37.273C30.949,42.97 28.105,47.882 23.011,47.882C17.916,47.882 15.072,42.97 15.072,37.273L15.072,30.179ZM49.91,47.979L49.91,19.551L36.295,39.738L55.315,39.738" style="fill:none;stroke:rgb(244,244,244);stroke-width:2px;"/>
                    </g>
                </g>
            </g>
            <g id="g-root-ic_calc_1cvizme1lrzv2m-stroke" transform="matrix(1,0,0,1,422,194)">
                <g id="ic_calc_1cvizme1lrzv2m-stroke">
                    <g>
                        <path d="M31,43L13,43C11.895,43 11,42.105 11,41L11,13C11,11.895 11.895,11 13,11L47,11C48.105,11 49,11.895 49,13L49,27M18.76,31.46L25.14,25.14C25.516,24.755 26.032,24.538 26.57,24.538C27.108,24.538 27.624,24.755 28,25.14L30,27.14C30.389,27.537 30.925,27.754 31.48,27.74C32.037,27.717 32.558,27.464 32.92,27.04L41,18M35,18L41,18L41,24M41,45.5C41.276,45.5 41.5,45.724 41.5,46C41.5,46.276 41.276,46.5 41,46.5C40.724,46.5 40.5,46.276 40.5,46C40.5,45.724 40.724,45.5 41,45.5M41,50.52C41.276,50.52 41.5,50.744 41.5,51.02C41.5,51.296 41.276,51.52 41,51.52C40.724,51.52 40.5,51.296 40.5,51.02C40.5,50.744 40.724,50.52 41,50.52M46,45.48C46.276,45.48 46.5,45.704 46.5,45.98C46.5,46.256 46.276,46.48 46,46.48C45.724,46.48 45.5,46.256 45.5,45.98C45.5,45.704 45.724,45.48 46,45.48M51,45.48C51.276,45.48 51.5,45.704 51.5,45.98C51.5,46.256 51.276,46.48 51,46.48C50.724,46.48 50.5,46.256 50.5,45.98C50.5,45.704 50.724,45.48 51,45.48M46,50.5C46.276,50.5 46.5,50.724 46.5,51C46.5,51.276 46.276,51.5 46,51.5C45.724,51.5 45.5,51.276 45.5,51C45.5,50.724 45.724,50.5 46,50.5M51,50.5C51.276,50.5 51.5,50.724 51.5,51C51.5,51.276 51.276,51.5 51,51.5C50.724,51.5 50.5,51.276 50.5,51C50.5,50.724 50.724,50.5 51,50.5M53,40C53.018,40.27 52.918,40.535 52.727,40.727C52.535,40.918 52.27,41.018 52,41L40,41C39.724,41.012 39.456,40.905 39.265,40.706C39.073,40.507 38.977,40.235 39,39.96L39,36C38.982,35.73 39.082,35.465 39.273,35.273C39.465,35.082 39.73,34.982 40,35L52,35C52.27,34.982 52.535,35.082 52.727,35.273C52.918,35.465 53.018,35.73 53,36L53,40ZM37,31L55,31C55,31 57,31 57,33L57,55C57,55 57,57 55,57L37,57C37,57 35,57 35,55L35,33C35,33 35,31 37,31" style="fill:none;stroke:rgb(244,244,244);stroke-width:2px;"/>
                    </g>
                </g>
            </g>
            <g id="g-root-ic_48px_1lqjis61ls2o7d-stroke" transform="matrix(1,0,0,1,74,290)">
                <g id="ic_48px_1lqjis61ls2o7d-stroke">
                    <g>
                        <path d="M15.072,30.179C15.072,24.482 17.789,19.695 23.011,19.695C28.233,19.695 30.949,24.482 30.949,30.179L30.949,37.273C30.949,42.969 28.105,47.882 23.011,47.882C17.916,47.882 15.072,42.969 15.072,37.273L15.072,30.179ZM37.121,27.068C37.002,24.659 38.483,19.71 45.065,19.71C51.648,19.71 52.656,24.597 52.428,27.357C52.177,30.4 50.272,33.508 42.201,33.508C49.714,33.508 53.126,35.562 53.126,41.125C53.126,45.933 48.876,47.89 44.992,47.89C42.201,47.866 36.62,46.287 36.62,40.162" style="fill:none;stroke:rgb(244,244,244);stroke-width:2px;"/>
                    </g>
                </g>
            </g>
            <g id="g-root-ic_1_dgpt5i1ls1afc-stroke" transform="matrix(1,0,0,1,446,290)">
                <g id="ic_1_dgpt5i1ls1afc-stroke">
                    <g>
                        <path d="M33.032,19.02L33.032,11.02L41.032,11.02M33.032,11.02L45.032,22.02L45.032,34.966M57.032,19.02L57.032,11.02L49.032,11.02M57.032,11.02L48.662,18.654M31.764,56.658C26.964,51.846 28.666,48.094 31.27,45.488L32.952,43.806C34.628,42.132 37.342,42.132 39.018,43.806L46.296,51.086C46.89,51.679 47.148,52.531 46.982,53.354C46.815,54.177 46.248,54.862 45.47,55.178C36.15,58.987 25.454,56.834 18.334,49.714C11.214,42.594 9.061,31.898 12.87,22.578C13.186,21.8 13.871,21.233 14.694,21.066C15.517,20.9 16.369,21.158 16.962,21.752L24.244,29.034C25.918,30.709 25.918,33.423 24.244,35.098L22.56,36.78C19.96,39.38 16.204,41.088 11.392,36.288" style="fill:none;stroke:rgb(244,244,244);stroke-width:2px;"/>
                    </g>
                </g>
            </g>
            <g id="g-root-ic_hand_mgq5061ls42ys-stroke" transform="matrix(1,0,0,1,494,482)">
                <g id="ic_hand_mgq5061ls42ys-stroke">
                    <g>
                        <path d="M11,57L11,37M11,41L25,41C28.314,41 31,43.686 31,47L43,47C46.314,47 49,49.686 49,53L11,53L11,41ZM31,47L25,47M38.5,25.5C38.224,25.5 38,25.724 38,26C38,26.276 38.224,26.5 38.5,26.5C38.776,26.5 39,26.276 39,26C39,25.724 38.776,25.5 38.5,25.5M57,26C57,23.239 54.761,21 52,21L36,21C33.239,21 31,23.239 31,26C31,28.761 33.239,31 36,31L52,31C54.761,31 57,28.761 57,26ZM38.5,35.5C38.224,35.5 38,35.724 38,36C38,36.276 38.224,36.5 38.5,36.5C38.776,36.5 39,36.276 39,36C39,35.724 38.776,35.5 38.5,35.5M57,36C57,33.239 54.761,31 52,31L36,31C33.239,31 31,33.239 31,36C31,38.761 33.239,41 36,41L52,41C54.761,41 57,38.761 57,36ZM38.5,15.5C38.224,15.5 38,15.724 38,16C38,16.276 38.224,16.5 38.5,16.5C38.776,16.5 39,16.276 39,16C39,15.724 38.776,15.5 38.5,15.5M57,16C57,13.239 54.761,11 52,11L36,11C33.239,11 31,13.239 31,16C31,18.761 33.239,21 36,21L52,21C54.761,21 57,18.761 57,16Z" style="fill:none;stroke:rgb(244,244,244);stroke-width:2px;"/>
                    </g>
                </g>
            </g>
            <g id="g-root-ic_48px_v5hxau1ls43r7-stroke" transform="matrix(1,0,0,1,50,386)">
                <g id="ic_48px_v5hxau1ls43r7-stroke">
                    <g>
                        <path d="M15.072,30.179C15.072,24.482 17.789,19.695 23.011,19.695C28.233,19.695 30.949,24.482 30.949,30.179L30.949,37.273C30.949,42.969 28.105,47.882 23.011,47.882C17.916,47.882 15.072,42.969 15.072,37.273L15.072,30.179ZM36.832,27.515C36.832,22.895 40.056,19.695 44.438,19.695C51.707,19.695 54.186,26.789 49.421,33.098L37.33,47.417L53.951,47.417" style="fill:none;stroke:rgb(244,244,244);stroke-width:2px;"/>
                    </g>
                </g>
            </g>
            <g id="g-root-ic_2_74q1i1ls2oea-stroke" transform="matrix(1,0,0,1,470,386)">
                <g id="ic_2_74q1i1ls2oea-stroke">
                    <g>
                        <path d="M27,17.016C27,20.33 29.686,23.016 33,23.016C36.314,23.016 39,20.33 39,17.016C39,13.702 36.314,11.016 33,11.016C29.686,11.016 27,13.702 27,17.016L27,17.016ZM33,23.016L33,44.016M27,34.572L25,35.016L12.274,31.38C11.972,31.294 11.648,31.355 11.397,31.544C11.147,31.733 11,32.028 11,32.342L11,52.262C11.001,52.708 11.297,53.1 11.726,53.222L24.756,56.946C24.916,56.992 25.085,56.996 25.248,56.96L42.752,53.07C42.915,53.034 43.084,53.04 43.244,53.086L55.726,56.652C56.028,56.738 56.352,56.677 56.603,56.488C56.853,56.299 57,56.004 57,55.69L57,35.77C57,35.323 56.704,34.93 56.274,34.808L43.244,31.086C43.084,31.04 42.915,31.034 42.752,31.07L39,31.906M25,35.016L25,56.984M43,31.048L43,53.016" style="fill:none;stroke:rgb(244,244,244);stroke-width:2px;"/>
                    </g>
                </g>
            </g>
            <g id="g-root-ic_48px_1qbzdue1lrj1u5-stroke" transform="matrix(1,0,0,1,26,482)">
                <g id="ic_48px_1qbzdue1lrj1u5-stroke">
                    <g>
                        <path d="M37.842,23.377L46.297,20.184L46.297,47.951M15.072,30.179C15.072,24.482 17.789,19.695 23.011,19.695C28.233,19.695 30.949,24.482 30.949,30.179L30.949,37.273C30.949,42.969 28.105,47.882 23.011,47.882C17.916,47.882 15.072,42.969 15.072,37.273L15.072,30.179Z" style="fill:none;stroke:rgb(244,244,244);stroke-width:2px;"/>
                    </g>
                </g>
            </g>
            <g id="g-root-ic_48px_v7ztna1lryhal-stroke" transform="matrix(1,0,0,1,122,98)">
                <g id="ic_48px_v7ztna1lryhal-stroke">
                    <g>
                        <path d="M15.072,30.179C15.072,24.482 17.789,19.696 23.011,19.696C28.233,19.696 30.949,24.482 30.949,30.179L30.949,37.273C30.949,42.97 28.105,47.882 23.011,47.882C17.916,47.882 15.072,42.97 15.072,37.273L15.072,30.179ZM53.693,20.121L40.379,20.121L38.988,33.144C39.817,32.315 42.353,30.657 45.865,30.657C49.971,30.657 53.813,33.447 53.427,40.052C53.028,46.894 48.912,47.904 45.529,47.904C41.945,47.904 38.405,45.361 38.073,40.565" style="fill:none;stroke:rgb(244,244,244);stroke-width:2px;"/>
                    </g>
                </g>
            </g>
        </g>
    </g>
    <defs>
        <linearGradient id="_Linear1" x1="0" y1="0" x2="1" y2="0" gradientUnits="userSpaceOnUse" gradientTransform="matrix(10,490,-490,10,0,0)"><stop offset="0" style="stop-color:rgb(149,149,149);stop-opacity:1"/><stop offset="1" style="stop-color:rgb(127,127,127);stop-opacity:1"/></linearGradient>
        <linearGradient id="_Linear2" x1="0" y1="0" x2="1" y2="0" gradientUnits="userSpaceOnUse" gradientTransform="matrix(10,490,-490,10,0,0)"><stop offset="0" style="stop-color:rgb(149,149,149);stop-opacity:1"/><stop offset="1" style="stop-color:rgb(127,127,127);stop-opacity:1"/></linearGradient>
        <linearGradient id="_Linear3" x1="0" y1="0" x2="1" y2="0" gradientUnits="userSpaceOnUse" gradientTransform="matrix(10,106,-106,10,-1.77636e-15,0)"><stop offset="0" style="stop-color:rgb(78,136,230);stop-opacity:1"/><stop offset="1" style="stop-color:rgb(79,126,202);stop-opacity:1"/></linearGradient>
        <linearGradient id="_Linear4" x1="0" y1="0" x2="1" y2="0" gradientUnits="userSpaceOnUse" gradientTransform="matrix(10,106,-106,10,0,0)"><stop offset="0" style="stop-color:rgb(59,196,130);stop-opacity:1"/><stop offset="1" style="stop-color:rgb(68,152,112);stop-opacity:1"/></linearGradient>
        <linearGradient id="_Linear5" x1="0" y1="0" x2="1" y2="0" gradientUnits="userSpaceOnUse" gradientTransform="matrix(10,106,-106,10,0,0)"><stop offset="0" style="stop-color:rgb(145,187,57);stop-opacity:1"/><stop offset="1" style="stop-color:rgb(125,152,68);stop-opacity:1"/></linearGradient>
        <linearGradient id="_Linear6" x1="0" y1="0" x2="1" y2="0" gradientUnits="userSpaceOnUse" gradientTransform="matrix(10,106,-106,10,0,0)"><stop offset="0" style="stop-color:rgb(221,201,22);stop-opacity:1"/><stop offset="1" style="stop-color:rgb(169,156,44);stop-opacity:1"/></linearGradient>
        <linearGradient id="_Linear7" x1="0" y1="0" x2="1" y2="0" gradientUnits="userSpaceOnUse" gradientTransform="matrix(10,106,-106,10,0,0)"><stop offset="0" style="stop-color:rgb(220,131,49);stop-opacity:1"/><stop offset="1" style="stop-color:rgb(176,114,57);stop-opacity:1"/></linearGradient>
    </defs>
</svg>
