<?xml version="1.0" encoding="UTF-8" standalone="no"?>
<!DOCTYPE svg PUBLIC "-//W3C//DTD SVG 1.1//EN" "http://www.w3.org/Graphics/SVG/1.1/DTD/svg11.dtd">
<svg width="100%" height="100%" viewBox="0 0 576 542" version="1.1" xmlns="http://www.w3.org/2000/svg" xmlns:xlink="http://www.w3.org/1999/xlink" xml:space="preserve" xmlns:serif="http://www.serif.com/" style="fill-rule:evenodd;clip-rule:evenodd;stroke-linecap:round;stroke-linejoin:round;">
    <g id="items" transform="matrix(1.11451,0,0,1.11451,-32.9792,-42.5212)">
        <g id="blend">
            <g id="g-root-cp_5_text-5_v8033a1lrzvgi-fill" transform="matrix(1,0,0,1,50,62)">
                <g id="cp_5_text-5_v8033a1lrzvgi-fill">
                    <g>
                        <rect x="10" y="10" width="228" height="108" style="fill:rgb(247,148,56);"/>
                    </g>
                </g>
            </g>
            <g id="g-root-cp_5_stick-5_1ur6l5y1lrzw24-fill" transform="matrix(1,0,0,1,266,170)">
                <g id="cp_5_stick-5_1ur6l5y1lrzw24-fill">
                    <g>
                        <rect x="10" y="10" width="12" height="252" style="fill:rgb(247,148,56);"/>
                    </g>
                </g>
            </g>
            <g id="g-root-cp_3_text-3_1hgcjvq1lrzuha-fill" transform="matrix(1,0,0,1,38,170)">
                <g id="cp_3_text-3_1hgcjvq1lrzuha-fill">
                    <g>
                        <rect x="10" y="10" width="228" height="108" style="fill:rgb(166,218,55);"/>
                    </g>
                </g>
            </g>
            <g id="g-root-cp_3_stick-3_v9vicm1lrzugw-fill" transform="matrix(1,0,0,1,254,278)">
                <g id="cp_3_stick-3_v9vicm1lrzugw-fill">
                    <g>
                        <rect x="10" y="10" width="12" height="144" style="fill:rgb(166,218,55);"/>
                    </g>
                </g>
            </g>
            <g id="g-root-cp_1_text-1_93egti1lrztoq-fill" transform="matrix(1,0,0,1,26,278)">
                <g id="cp_1_text-1_93egti1lrztoq-fill">
                    <g>
                        <rect x="10" y="10" width="228" height="108" style="fill:rgb(67,221,147);"/>
                    </g>
                </g>
            </g>
            <g id="g-root-cp_1_stick-1_1d2eh0m1lrzu9w-fill" transform="matrix(1,0,0,1,242,362)">
                <g id="cp_1_stick-1_1d2eh0m1lrzu9w-fill">
                    <g>
                        <rect x="10" y="10" width="12" height="60" style="fill:rgb(67,221,147);"/>
                    </g>
                </g>
            </g>
            <g id="g-root-cp_6_text-6_qvayee1lrzwni-fill" transform="matrix(1,0,0,1,278,50)">
                <g id="cp_6_text-6_qvayee1lrzwni-fill">
                    <g>
                        <rect x="10" y="10" width="228" height="108" style="fill:rgb(243,102,187);"/>
                    </g>
                </g>
            </g>
            <g id="g-root-cp_6_stick-6_4otwva1lrzwn4-fill" transform="matrix(1,0,0,1,278,158)">
                <g id="cp_6_stick-6_4otwva1lrzwn4-fill">
                    <g>
                        <rect x="10" y="10" width="12" height="264" style="fill:rgb(243,102,187);"/>
                    </g>
                </g>
            </g>
            <g id="g-root-cp_4_text-4_1hjgxba1lrzvnu-fill" transform="matrix(1,0,0,1,290,158)">
                <g id="cp_4_text-4_1hjgxba1lrzvnu-fill">
                    <g>
                        <rect x="10" y="10" width="228" height="108" style="fill:rgb(251,103,98);"/>
                    </g>
                </g>
            </g>
            <g id="g-root-cp_4_stick-4_dccqzq1ls18ng-fill" transform="matrix(1,0,0,1,290,266)">
                <g id="cp_4_stick-4_dccqzq1ls18ng-fill">
                    <g>
                        <rect x="10" y="10" width="12" height="156" style="fill:rgb(251,103,98);"/>
                    </g>
                </g>
            </g>
            <g id="g-root-cp_2_text-2_1um6sh21ls1ati-fill" transform="matrix(1,0,0,1,302,266)">
                <g id="cp_2_text-2_1um6sh21ls1ati-fill">
                    <g>
                        <rect x="10" y="10" width="228" height="108" style="fill:rgb(255,231,17);"/>
                    </g>
                </g>
            </g>
            <g id="g-root-cp_2_stick-2_1cvj92e1ls1a0w-fill" transform="matrix(1,0,0,1,302,350)">
                <g id="cp_2_stick-2_1cvj92e1ls1a0w-fill">
                    <g>
                        <rect x="10" y="10" width="12" height="72" style="fill:rgb(255,231,17);"/>
                    </g>
                </g>
            </g>
            <g id="g-root-cp_0_g-0_m98peu1ls1a0y-fill" transform="matrix(1,0,0,1,242,422)">
                <g id="cp_0_g-0_m98peu1ls1a0y-fill">
                    <g>
                        <path d="M33.994,61L46.01,86L58.005,61L33.994,61Z" style="fill:rgb(232,232,232);"/>
                    </g>
                </g>
                <g id="cp_0_g-0_m98peu1ls1a0y-fill1" serif:id="cp_0_g-0_m98peu1ls1a0y-fill">
                    <g>
                        <path d="M82,10L10,10L34,61L58.001,61L82,10Z" style="fill:rgb(232,232,232);"/>
                    </g>
                </g>
            </g>
            <g id="g-root-tx_highqual_hwjkpy1ls2oll-fill" transform="matrix(1,0,0,1,86,182)">
                <g id="tx_highqual_hwjkpy1ls2oll-fill">
                    <g>
                        <g>
                            <g transform="matrix(1,0,0,1,14.95,34)">
                                <text x="0px" y="0px" style="font-family:'Arial-BoldMT', 'Arial', sans-serif;font-weight:700;font-size:20px;fill:rgb(44,44,44);">High-Quality</text>
                            </g>
                            <g transform="matrix(1,0,0,1,35.75,58)">
                                <text x="0px" y="0px" style="font-family:'Arial-BoldMT', 'Arial', sans-serif;font-weight:700;font-size:20px;fill:rgb(44,44,44);">V<tspan x="11.855px 24.072px 29.629px 42.607px 48.164px " y="0px 0px 0px 0px 0px ">oIP C</tspan>alls</text>
                            </g>
                        </g>
                    </g>
                </g>
            </g>
            <g id="g-root-tx_fraudpre_1hi6nqe1m1lfd6-fill" transform="matrix(1,0,0,1,350,170)">
                <g id="tx_fraudpre_1hi6nqe1m1lfd6-fill">
                    <g>
                        <g>
                            <g transform="matrix(1,0,0,1,12,34)">
                                <text x="0px" y="0px" style="font-family:'Arial-BoldMT', 'Arial', sans-serif;font-weight:700;font-size:20px;fill:rgb(44,44,44);">Fraud</text>
                            </g>
                            <g transform="matrix(1,0,0,1,12,58)">
                                <text x="0px" y="0px" style="font-family:'Arial-BoldMT', 'Arial', sans-serif;font-weight:700;font-size:20px;fill:rgb(44,44,44);">Prevention</text>
                            </g>
                        </g>
                    </g>
                </g>
            </g>
            <g id="g-root-tx__me8i3q1ls2mtm-fill">
            </g>
            <g id="g-root-tx__1ha2hly1m1msxv-fill">
            </g>
            <g id="g-root-tx__zmjbmu1m1k1s0-fill">
            </g>
            <g id="g-root-tx_multipro_1qcm17q1ls43yc-fill" transform="matrix(1,0,0,1,50,290)">
                <g id="tx_multipro_1qcm17q1ls43yc-fill">
                    <g>
                        <g>
                            <g transform="matrix(1,0,0,1,22.07,34)">
                                <text x="0px" y="0px" style="font-family:'Arial-BoldMT', 'Arial', sans-serif;font-weight:700;font-size:20px;fill:rgb(44,44,44);">Multi-Protocol</text>
                            </g>
                            <g transform="matrix(1,0,0,1,80.12,58)">
                                <text x="0px" y="0px" style="font-family:'Arial-BoldMT', 'Arial', sans-serif;font-weight:700;font-size:20px;fill:rgb(44,44,44);">Support</text>
                            </g>
                        </g>
                    </g>
                </g>
            </g>
            <g id="g-root-tx__mcd2ue1ls1afj-fill">
            </g>
            <g id="g-root-tx_powerful_1413vl21m1jytr-fill" transform="matrix(1,0,0,1,338,62)">
                <g id="tx_powerful_1413vl21m1jytr-fill">
                    <g>
                        <g>
                            <g transform="matrix(1,0,0,1,12,34)">
                                <text x="0px" y="0px" style="font-family:'Arial-BoldMT', 'Arial', sans-serif;font-weight:700;font-size:20px;fill:rgb(44,44,44);">Powerful <tspan x="89.268px 103.711px " y="0px 0px ">AP</tspan>I</text>
                            </g>
                            <g transform="matrix(1,0,0,1,12,58)">
                                <text x="0px" y="0px" style="font-family:'Arial-BoldMT', 'Arial', sans-serif;font-weight:700;font-size:20px;fill:rgb(44,44,44);">Integration</text>
                            </g>
                        </g>
                    </g>
                </g>
            </g>
            <g id="g-root-tx_billingi_1d2d5ly1m1mtj9-fill" transform="matrix(1,0,0,1,362,278)">
                <g id="tx_billingi_1d2d5ly1m1mtj9-fill">
                    <g>
                        <g>
                            <g transform="matrix(1,0,0,1,12,34)">
                                <text x="0px" y="0px" style="font-family:'Arial-BoldMT', 'Arial', sans-serif;font-weight:700;font-size:20px;fill:rgb(44,44,44);">Billing &amp;</text>
                            </g>
                            <g transform="matrix(1,0,0,1,12,58)">
                                <text x="0px" y="0px" style="font-family:'Arial-BoldMT', 'Arial', sans-serif;font-weight:700;font-size:20px;fill:rgb(44,44,44);">Invoicing</text>
                            </g>
                        </g>
                    </g>
                </g>
            </g>
            <g id="g-root-tx__vcdep21ls42z1-fill">
            </g>
            <g id="g-root-tx__18efhd21m1o74e-fill">
            </g>
            <g id="g-root-tx_customiz_4ju46e1ls1amm-fill" transform="matrix(1,0,0,1,86,74)">
                <g id="tx_customiz_4ju46e1ls1amm-fill">
                    <g>
                        <g>
                            <g transform="matrix(1,0,0,1,16.82,34)">
                                <text x="0px" y="0px" style="font-family:'Arial-BoldMT', 'Arial', sans-serif;font-weight:700;font-size:20px;fill:rgb(44,44,44);">Customizable</text>
                            </g>
                            <g transform="matrix(1,0,0,1,69.98,58)">
                                <text x="0px" y="0px" style="font-family:'Arial-BoldMT', 'Arial', sans-serif;font-weight:700;font-size:20px;fill:rgb(44,44,44);">Routing</text>
                            </g>
                        </g>
                    </g>
                </g>
            </g>
            <g id="g-root-cp_5_text-5_v8033a1lrzvgi-stroke" transform="matrix(1,0,0,1,50,62)">
                <g id="cp_5_text-5_v8033a1lrzvgi-stroke">
                    <g>
                        <path d="M10,118L10,10L238,10L238,118" style="fill:none;stroke:rgb(44,44,44);stroke-width:2px;"/>
                    </g>
                </g>
            </g>
            <g id="g-root-cp_5_stick-5_1ur6l5y1lrzw24-stroke" transform="matrix(1,0,0,1,266,170)">
                <g id="cp_5_stick-5_1ur6l5y1lrzw24-stroke">
                    <g>
                        <path d="M21.996,262L21.996,10" style="fill:none;stroke:rgb(44,44,44);stroke-width:2px;"/>
                    </g>
                </g>
            </g>
            <g id="g-root-cp_3_text-3_1hgcjvq1lrzuha-stroke" transform="matrix(1,0,0,1,38,170)">
                <g id="cp_3_text-3_1hgcjvq1lrzuha-stroke">
                    <g>
                        <path d="M10,118L10,10L238,10L238,118" style="fill:none;stroke:rgb(44,44,44);stroke-width:2px;"/>
                    </g>
                </g>
            </g>
            <g id="g-root-cp_3_stick-3_v9vicm1lrzugw-stroke" transform="matrix(1,0,0,1,254,278)">
                <g id="cp_3_stick-3_v9vicm1lrzugw-stroke">
                    <g>
                        <path d="M21.996,154L21.996,10" style="fill:none;stroke:rgb(44,44,44);stroke-width:2px;"/>
                    </g>
                </g>
            </g>
            <g id="g-root-cp_1_text-1_93egti1lrztoq-stroke" transform="matrix(1,0,0,1,26,278)">
                <g id="cp_1_text-1_93egti1lrztoq-stroke">
                    <g>
                        <path d="M238,118L238,10L10,10L10,118L226,118" style="fill:none;stroke:rgb(44,44,44);stroke-width:2px;"/>
                    </g>
                </g>
            </g>
            <g id="g-root-cp_1_stick-1_1d2eh0m1lrzu9w-stroke" transform="matrix(1,0,0,1,242,362)">
                <g id="cp_1_stick-1_1d2eh0m1lrzu9w-stroke">
                    <g>
                        <path d="M21.996,70L21.996,10M10,70L10,34" style="fill:none;stroke:rgb(44,44,44);stroke-width:2px;"/>
                    </g>
                </g>
            </g>
            <g id="g-root-cp_6_text-6_qvayee1lrzwni-stroke" transform="matrix(1,0,0,1,278,50)">
                <g id="cp_6_text-6_qvayee1lrzwni-stroke">
                    <g>
                        <path d="M238,118L238,10L10,10L10,118" style="fill:none;stroke:rgb(44,44,44);stroke-width:2px;"/>
                    </g>
                </g>
            </g>
            <g id="g-root-cp_6_stick-6_4otwva1lrzwn4-stroke" transform="matrix(1,0,0,1,278,158)">
                <g id="cp_6_stick-6_4otwva1lrzwn4-stroke">
                    <g>
                        <path d="M10.004,274L10.004,10" style="fill:none;stroke:rgb(44,44,44);stroke-width:2px;"/>
                    </g>
                </g>
            </g>
            <g id="g-root-cp_4_text-4_1hjgxba1lrzvnu-stroke" transform="matrix(1,0,0,1,290,158)">
                <g id="cp_4_text-4_1hjgxba1lrzvnu-stroke">
                    <g>
                        <path d="M238,118L238,10L10,10L10,118" style="fill:none;stroke:rgb(44,44,44);stroke-width:2px;"/>
                    </g>
                </g>
            </g>
            <g id="g-root-cp_4_stick-4_dccqzq1ls18ng-stroke" transform="matrix(1,0,0,1,290,266)">
                <g id="cp_4_stick-4_dccqzq1ls18ng-stroke">
                    <g>
                        <path d="M10.004,166L10.004,10" style="fill:none;stroke:rgb(44,44,44);stroke-width:2px;"/>
                    </g>
                </g>
            </g>
            <g id="g-root-cp_2_text-2_1um6sh21ls1ati-stroke" transform="matrix(1,0,0,1,302,266)">
                <g id="cp_2_text-2_1um6sh21ls1ati-stroke">
                    <g>
                        <path d="M10,118L10,10L238,10L238,118L22,118" style="fill:none;stroke:rgb(44,44,44);stroke-width:2px;"/>
                    </g>
                </g>
            </g>
            <g id="g-root-cp_2_stick-2_1cvj92e1ls1a0w-stroke" transform="matrix(1,0,0,1,302,350)">
                <g id="cp_2_stick-2_1cvj92e1ls1a0w-stroke">
                    <g>
                        <path d="M10.004,82L10.004,10M22,82L22,34" style="fill:none;stroke:rgb(44,44,44);stroke-width:2px;"/>
                    </g>
                </g>
            </g>
            <g id="g-root-cp_0_g-0_m98peu1ls1a0y-stroke" transform="matrix(1,0,0,1,242,422)">
                <g id="cp_0_g-0_m98peu1ls1a0y-stroke">
                    <g>
                        <path d="M33.994,61L46.01,86L58.005,61L33.994,61Z" style="fill:none;stroke:rgb(44,44,44);stroke-width:2px;"/>
                    </g>
                </g>
                <g id="cp_0_g-0_m98peu1ls1a0y-stroke1" serif:id="cp_0_g-0_m98peu1ls1a0y-stroke">
                    <g>
                        <path d="M82,10L10,10L34,61L58.001,61L82,10Z" style="fill:none;stroke:rgb(44,44,44);stroke-width:2px;"/>
                    </g>
                </g>
            </g>
            <g id="g-root-ic_ring_zqxyna1ls2ner-stroke" transform="matrix(1,0,0,1,218,182)">
                <g id="ic_ring_zqxyna1ls2ner-stroke">
                    <g>
                        <path d="M26.278,44.974C22.678,41.365 23.955,38.551 25.909,36.597L27.171,35.335C28.426,34.079 30.463,34.079 31.718,35.335L37.177,40.795C37.623,41.24 37.816,41.879 37.691,42.496C37.567,43.113 37.141,43.627 36.557,43.864C29.567,46.721 21.545,45.106 16.206,39.766C10.866,34.426 9.251,26.404 12.108,19.414C12.345,18.831 12.858,18.405 13.476,18.28C14.093,18.156 14.732,18.349 15.177,18.795L20.64,24.25C21.895,25.506 21.895,27.542 20.64,28.798L19.378,30.06C17.428,32.009 14.61,33.291 11.001,29.691M27.979,10.75C37.506,10.75 45.229,18.473 45.229,28M27.979,16.75C34.192,16.75 39.229,21.787 39.229,28M27.979,22.75C30.878,22.75 33.229,25.101 33.229,28" style="fill:none;stroke:rgb(44,44,44);stroke-width:2px;"/>
                    </g>
                </g>
            </g>
            <g id="g-root-ic_1_1heau1m1msxw-stroke" transform="matrix(1,0,0,1,302,170)">
                <g id="ic_1_1heau1m1msxw-stroke">
                    <g>
                        <path d="M35.5,25.75C35.5,29.892 32.142,33.25 28,33.25C23.858,33.25 20.5,29.892 20.5,25.75C20.5,21.608 23.858,18.25 28,18.25M25,25L27.43,26.823C27.749,27.062 28.2,27.009 28.456,26.702L35.5,18.25M12.25,15.663L12.25,27.118C12.34,34.872 17.265,41.743 24.578,44.32L26.26,44.941C27.383,45.354 28.617,45.354 29.74,44.941L31.422,44.32C38.735,41.743 43.66,34.872 43.75,27.118L43.75,15.663C43.747,14.743 43.196,13.913 42.349,13.554C37.805,11.657 32.923,10.703 28,10.75C23.077,10.703 18.195,11.657 13.651,13.554C12.804,13.913 12.253,14.743 12.25,15.663Z" style="fill:none;stroke:rgb(44,44,44);stroke-width:2px;"/>
                    </g>
                </g>
            </g>
            <g id="g-root-ic_exch_18f1yg61m1imfa-stroke" transform="matrix(1,0,0,1,206,290)">
                <g id="ic_exch_18f1yg61m1imfa-stroke">
                    <g>
                        <path d="M19.75,44.5L22.75,41.5L19.75,38.5M11.5,23.469C11.497,24.718 12.501,25.736 13.75,25.75L27.25,25.75C28.499,25.735 29.503,24.717 29.5,23.469L29.5,14.5C29.5,13.257 28.493,12.25 27.25,12.25L13.75,12.25C12.507,12.25 11.5,13.257 11.5,14.5L11.5,23.469ZM11.5,21.25L29.5,21.25M16.75,28.75L24.25,28.75M20.5,25.75L20.5,28.75M31,27.25C31,26.422 31.672,25.75 32.5,25.75L41.5,25.75C42.328,25.75 43,26.422 43,27.25L43,43.75C43,44.578 42.328,45.25 41.5,45.25L32.5,45.25C31.672,45.25 31,44.578 31,43.75L31,27.25ZM13.75,34C13.75,38.142 17.108,41.5 21.25,41.5L22.75,41.5M37.75,11.5L34.75,14.5L37.75,17.5M43.75,22C43.75,17.858 40.392,14.5 36.25,14.5L34.75,14.5M31,39.25L43,39.25M37,41.875C36.793,41.875 36.625,42.043 36.625,42.25C36.625,42.457 36.793,42.625 37,42.625C37.207,42.625 37.375,42.457 37.375,42.25C37.375,42.043 37.207,41.875 37,41.875" style="fill:none;stroke:rgb(44,44,44);stroke-width:2px;"/>
                    </g>
                </g>
            </g>
            <g id="g-root-ic_dest_18kpjmu1ls1a80-stroke" transform="matrix(1,0,0,1,230,74)">
                <g id="ic_dest_18kpjmu1ls1a80-stroke">
                    <g>
                        <path d="M18.385,20.5C22.601,20.5 26.019,23.919 26.017,28.135C26.017,31.633 20.758,38.527 18.967,40.77C18.825,40.949 18.608,41.053 18.38,41.053C18.151,41.053 17.935,40.949 17.793,40.77C16.009,38.526 10.75,31.633 10.75,28.135C10.748,23.918 14.168,20.498 18.385,20.5ZM21.25,28.135C21.25,29.716 19.968,30.998 18.387,30.998C16.806,30.999 15.524,29.717 15.523,28.136C15.522,26.555 16.804,25.272 18.385,25.272C19.145,25.271 19.874,25.572 20.411,26.109C20.949,26.646 21.25,27.375 21.25,28.135ZM18.385,44.5L30.25,44.5C31.078,44.5 31.75,43.828 31.75,43L31.75,32.5C31.75,31.672 32.422,31 33.25,31L39.25,31M39.25,11.5C42.564,11.5 45.25,14.186 45.25,17.5C45.25,20.173 41.35,25.36 39.838,27.271C39.696,27.451 39.479,27.555 39.25,27.555C39.021,27.555 38.804,27.451 38.662,27.271C37.15,25.362 33.25,20.173 33.25,17.5C33.25,14.186 35.936,11.5 39.25,11.5ZM37,17.5C37,18.743 38.007,19.75 39.25,19.75C40.493,19.75 41.5,18.743 41.5,17.5C41.5,16.257 40.493,15.25 39.25,15.25C38.007,15.25 37,16.257 37,17.5Z" style="fill:none;stroke:rgb(44,44,44);stroke-width:2px;"/>
                    </g>
                </g>
            </g>
            <g id="g-root-ic_smil_1lr4xwm1m1o7pj-stroke" transform="matrix(1,0,0,1,314,278)">
                <g id="ic_smil_1lr4xwm1m1o7pj-stroke">
                    <g>
                        <path d="M32.125,35.125L32.125,44.875L17.125,44.875L17.125,26.125C17.125,25.297 17.797,24.625 18.625,24.625L21.25,24.625M12.625,35.125L17.125,35.125L17.125,44.875L11.125,44.875L11.125,36.625C11.125,35.797 11.797,35.125 12.625,35.125ZM32.125,35.125L36.625,35.125C37.453,35.125 38.125,35.797 38.125,36.625L38.125,44.875L32.125,44.875L32.125,35.125ZM25.375,20.875C25.375,26.26 29.74,30.625 35.125,30.625C40.51,30.625 44.875,26.26 44.875,20.875C44.875,15.49 40.51,11.125 35.125,11.125C29.74,11.125 25.375,15.49 25.375,20.875M29.875,19.75C29.875,19.957 30.043,20.125 30.25,20.125C30.457,20.125 30.625,19.957 30.625,19.75C30.625,19.543 30.457,19.375 30.25,19.375C30.043,19.375 29.875,19.543 29.875,19.75M39.625,19.75C39.625,19.957 39.793,20.125 40,20.125C40.207,20.125 40.375,19.957 40.375,19.75C40.375,19.543 40.207,19.375 40,19.375C39.793,19.375 39.625,19.543 39.625,19.75M38.371,23.629C36.578,25.421 33.672,25.421 31.879,23.629M22.54,34.412L26.71,34.412M22.54,29.418L24.625,29.418M22.54,39.408L26.71,39.408M32.125,38.358L34.202,38.358M32.125,41.426L34.202,41.426M15.048,38.358L17.125,38.358M15.048,41.426L17.125,41.426" style="fill:none;stroke:rgb(44,44,44);stroke-width:2px;"/>
                    </g>
                </g>
            </g>
            <g id="g-root-ic_clou_1hf2aau1m1k1kx-stroke" transform="matrix(1,0,0,1,290,62)">
                <g id="ic_clou_1hf2aau1m1k1kx-stroke">
                    <g>
                        <path d="M39.651,45.049L39.651,35.248M37.69,35.248L41.611,35.248M37.69,45.049L41.611,45.049M26.679,45.049L26.679,41.128M26.679,41.128L29.62,41.128C31.244,41.128 32.56,39.812 32.56,38.188C32.56,36.564 31.244,35.248 29.62,35.248L26.679,35.248L26.679,41.128ZM13.707,45.049L14.814,37.671C15.035,36.288 16.228,35.272 17.628,35.272C19.027,35.272 20.22,36.288 20.442,37.671L21.55,45.049M14.221,41.619L21.034,41.619M45.25,24.451C45.252,22.415 44.424,20.466 42.958,19.054C41.492,17.641 39.514,16.887 37.48,16.965C35.438,12.628 30.713,10.229 26.007,11.138C21.3,12.048 17.81,16.034 17.53,20.82C15.871,20.472 14.145,20.891 12.829,21.959C11.514,23.027 10.75,24.631 10.75,26.326C10.75,32.041 16.75,31.951 16.75,31.951L38.5,31.951C38.5,31.951 45.25,31.072 45.25,24.451Z" style="fill:none;stroke:rgb(44,44,44);stroke-width:2px;"/>
                    </g>
                </g>
            </g>
        </g>
    </g>
</svg>
