<?xml version="1.0" encoding="UTF-8" standalone="no"?>
<!DOCTYPE svg PUBLIC "-//W3C//DTD SVG 1.1//EN" "http://www.w3.org/Graphics/SVG/1.1/DTD/svg11.dtd">
<svg width="100%" height="100%" viewBox="0 0 684 658" version="1.1" xmlns="http://www.w3.org/2000/svg" xmlns:xlink="http://www.w3.org/1999/xlink" xml:space="preserve" xmlns:serif="http://www.serif.com/" style="fill-rule:evenodd;clip-rule:evenodd;stroke-linecap:round;stroke-linejoin:round;">
    <g id="items" transform="matrix(1.10093,0,0,1.10093,-34.5089,-69.8996)">
        <g id="blend">
            <g id="g-root-sy_back_cu_9hxp18qn765-fill" transform="matrix(1,0,0,1,259.167,98.1656)">
                <g id="sy_back_cu_9hxp18qn765-fill">
                    <g>
                        <path d="M15.516,460.779C16.378,461.247 17.357,461.514 18.384,461.514L19.541,461.514C24.577,467.927 30.69,473.943 37.147,479.077L29.413,479.355C26.084,479.489 23.513,482.303 23.513,485.637L23.513,487.048C23.646,490.375 26.47,492.943 29.8,492.817L55.907,491.901C61.433,495.104 67.295,498.085 73.386,500.966L63.958,525.019C46.357,516.838 28.231,505.886 14.951,491.313C6.98,480.847 9.864,468.339 16.816,458.294C16.865,458.366 16.766,458.222 16.816,458.294C16.766,458.366 16.716,458.438 16.667,458.51C16.15,459.264 15.984,460.004 15.516,460.779ZM18.056,334.482C16.95,334.482 15.9,334.172 14.99,333.635C9.215,343.384 7.528,354.638 14.951,364.245C26.622,377.052 41.858,386.823 57.369,394.613C62.557,392.008 67.756,389.65 72.83,387.519C76.911,385.857 82.273,383.642 88.371,380.944L88.862,380.729C88.699,380.657 88.535,380.585 88.371,380.513C76.817,375.45 65.911,370.631 55.925,364.843L29.474,365.76C26.144,365.886 23.32,363.318 23.187,359.991L23.187,358.58C23.187,355.246 25.758,352.432 29.087,352.299L37.16,352.019C30.703,346.886 24.26,340.896 19.222,334.482L18.056,334.482ZM18.509,207.485C17.422,207.485 16.388,207.185 15.49,206.664C16.002,205.803 16.216,204.954 16.789,204.119L16.83,204.059L16.789,204C9.72,214.31 6.973,226.753 15.073,237.235C26.602,249.887 41.556,259.726 56.876,267.475C62.251,264.756 67.644,262.304 72.901,260.096C76.947,258.448 82.252,256.256 88.286,253.591C76.796,248.554 66.003,243.602 56.067,237.845L29.773,238.762C26.443,238.888 23.619,236.32 23.486,232.993L23.486,231.582C23.486,228.249 26.057,225.434 29.386,225.301L37.297,225.021C30.839,219.889 24.394,213.898 19.354,207.485L18.509,207.485ZM88.536,281.244L88.691,281.312C97.343,285.103 105.73,288.892 113.591,292.987L148.118,294.232C151.328,294.365 153.758,297.053 153.758,300.261L153.758,301.538C153.632,304.746 151.068,307.174 147.858,307.048L135.475,306.555C141.037,310.663 147.053,315.633 152.154,320.903L159.182,320.903C161.427,320.903 163.441,322.184 164.516,324.041C168.323,315.406 168.619,306.014 162.288,297.82C150.691,285.094 135.398,275.128 119.986,267.359C114.7,270.023 109.401,272.43 104.233,274.6C100.151,276.263 94.792,278.477 88.694,281.175L88.536,281.244ZM15.235,110.004C7.179,99.577 9.809,87.063 16.854,76.8C16.307,77.617 15.551,78.81 15.062,79.651C16.578,80.525 17.545,80.525 18.649,80.525L19.834,80.525C24.876,86.939 31.03,92.933 37.489,98.064L29.388,98.345C26.058,98.478 23.487,101.292 23.487,104.626L23.487,106.037C23.62,109.364 26.444,111.932 29.774,111.806L56.264,110.888C66.24,116.666 77.309,121.323 88.848,126.379L89.18,126.525L88.848,126.671C82.749,129.368 77.388,131.583 73.306,133.245C68.188,135.395 62.941,137.776 57.707,140.409C42.243,132.629 26.871,122.772 15.235,110.004ZM135.807,179.5L148.189,180.002C151.398,180.128 154.012,177.73 154.138,174.523L154.138,173.245C154.138,170.038 151.708,167.35 148.498,167.216L113.768,165.834C106.002,161.788 97.721,158.04 89.179,154.294C95.14,151.663 100.379,149.499 104.387,147.866C109.694,145.637 115.139,143.16 120.565,140.409C135.832,148.148 150.702,157.992 162.193,170.602C170.292,181.084 167.418,193.589 160.349,203.899C160.344,203.891 160.338,203.883 160.332,203.875C160.338,203.866 160.344,203.858 160.349,203.85C161.885,201.61 163.217,199.269 164.278,196.87C163.199,195.027 161.57,193.749 159.336,193.749L152.319,193.749C147.22,188.481 141.368,183.608 135.807,179.5ZM113.795,38.898L148.498,40.279C151.708,40.412 154.139,43.101 154.139,46.308L154.139,47.585C154.012,50.793 151.448,53.221 148.239,53.095L135.89,52.603C141.45,56.713 147.235,61.544 152.332,66.812L159.336,66.812C161.577,66.812 163.761,68.229 164.838,70.08C168.651,61.672 169.214,51.826 162.443,43.386C149.163,28.814 131.037,18.181 113.436,10L104.007,34.053C107.345,35.632 110.613,37.24 113.795,38.898Z" style="fill:rgb(171,171,171);"/>
                    </g>
                </g>
            </g>
            <g id="g-root-sy_7_cu_1lqjiml18qn5e6-fill" transform="matrix(1,0,0,1,264.358,506.283)">
                <g id="sy_7_cu_1lqjiml18qn5e6-fill">
                    <g>
                        <path d="M10,52.656C10.863,53.124 12.19,53.391 13.217,53.391L83.655,53.403L83.655,39.689L20.323,39.715C16.984,43.114 14.014,46.664 11.478,50.362C10.962,51.116 10.468,51.881 10,52.656ZM41.862,21.991L83.655,23.608L83.655,10.782L62.726,10C57.833,12.423 53.199,14.938 48.716,17.612C46.601,18.878 44.302,20.347 41.862,21.991ZM18.322,77.526C18.322,74.193 20.893,71.378 24.223,71.245L83.655,69.163L83.655,82.634L24.609,84.706C21.279,84.833 18.456,82.264 18.322,78.937L18.322,77.526Z" style="fill:rgb(243,102,187);"/>
                    </g>
                </g>
            </g>
            <g id="g-root-sy_6_cu_18f309918qn6z3-fill" transform="matrix(1,0,0,1,337.714,380.013)">
                <g id="sy_6_cu_18f309918qn6z3-fill">
                    <g>
                        <path d="M69.652,12.374C72.862,12.507 75.293,15.195 75.293,18.403L75.293,19.68C75.166,22.887 72.602,25.316 69.392,25.19L10,22.826L10,10L69.652,12.374ZM79.496,52.621C80.248,51.645 81.017,50.661 81.698,49.668C83.333,47.283 84.804,44.833 85.961,42.315C84.931,40.314 82.842,38.907 80.49,38.907L10,38.907L10,52.621L79.496,52.621ZM65.959,66.506L10,68.381L10,81.852L46.881,80.554C52.647,76.903 59.537,72.123 65.959,66.506Z" style="fill:rgb(251,103,98);"/>
                    </g>
                </g>
            </g>
            <g id="g-root-sy_5_cu_zk2h3h18qn5ds-fill" transform="matrix(1,0,0,1,264.194,379.165)">
                <g id="sy_5_cu_zk2h3h18qn5ds-fill">
                    <g>
                        <path d="M10,52.572C10.932,53.145 12.018,53.478 13.164,53.478L83.654,53.478L83.654,39.765L20.061,39.765C16.974,42.965 14.144,46.325 11.774,49.781C11.147,50.695 10.554,51.626 10,52.572ZM41.447,22.004L83.654,23.683L83.654,10.858L62.106,10C57.656,12.232 53.357,14.546 49.255,16.993C46.872,18.418 44.226,20.102 41.447,22.004ZM18.162,77.576C18.162,74.242 20.732,71.428 24.062,71.295L83.699,69.238L83.699,82.71L24.448,84.756C21.118,84.882 18.295,82.314 18.162,78.987L18.162,77.576Z" style="fill:rgb(247,148,56);"/>
                    </g>
                </g>
            </g>
            <g id="g-root-sy_4_cu_m8lyq518qn6yp-fill" transform="matrix(1,0,0,1,338.014,252.966)">
                <g id="sy_4_cu_m8lyq518qn6yp-fill">
                    <g>
                        <path d="M69.652,12.374C72.862,12.507 75.293,15.195 75.293,18.403L75.293,19.68C75.166,22.887 72.602,25.316 69.392,25.19L10,22.826L10,10L69.652,12.374ZM78.863,52.621C79.805,51.428 80.699,50.219 81.535,48.999C83.071,46.759 84.536,44.147 85.596,41.747C84.614,40.227 82.671,38.946 80.438,38.946L10,38.907L10,52.621L78.863,52.621ZM65.307,66.455L10,68.381L10,81.852L45.982,80.593C51.741,77.018 58.698,72.144 65.307,66.455Z" style="fill:rgb(255,231,17);"/>
                    </g>
                </g>
            </g>
            <g id="g-root-sy_3_cu_8xrxfx18qn5du-fill" transform="matrix(1,0,0,1,264.342,252.166)">
                <g id="sy_3_cu_8xrxfx18qn5du-fill">
                    <g>
                        <path d="M10,52.634C10.899,53.154 12.103,53.454 13.191,53.454L83.681,53.454L83.681,39.74L20.284,39.74C17.073,43.039 14.075,46.512 11.623,50.088C11.05,50.923 10.513,51.772 10,52.634ZM41.933,21.997L83.681,23.659L83.681,10.833L62.747,10C58.078,12.327 53.572,14.74 49.281,17.3C47.03,18.647 44.545,20.224 41.933,21.997ZM18.322,77.552C18.322,74.218 20.892,71.403 24.222,71.27L83.681,69.214L83.681,82.685L24.608,84.731C21.279,84.858 18.455,82.289 18.322,78.962L18.322,77.552Z" style="fill:rgb(166,218,55);"/>
                    </g>
                </g>
            </g>
            <g id="g-root-sy_2_cu_24x7118qn66j-fill" transform="matrix(1,0,0,1,338.014,126.071)">
                <g id="sy_2_cu_24x7118qn66j-fill">
                    <g>
                        <path d="M69.652,12.374C72.862,12.507 75.293,15.195 75.293,18.403L75.293,19.68C75.166,22.887 72.602,25.316 69.392,25.19L10,22.826L10,10L69.652,12.374ZM79.467,52.621C80.314,51.535 81.121,50.438 81.88,49.33C83.456,47.032 84.817,44.628 85.891,42.164C84.834,40.243 82.782,38.907 80.49,38.907L10,38.907L10,52.621L79.467,52.621ZM66.084,66.442L10,68.381L10,81.852L46.921,80.573C52.685,76.959 59.569,72.094 66.084,66.442Z" style="fill:rgb(67,221,147);"/>
                    </g>
                </g>
            </g>
            <g id="g-root-sy_1_cu_1lsexvx18qn4ek-fill" transform="matrix(1,0,0,1,264.226,125.215)">
                <g id="sy_1_cu_1lsexvx18qn4ek-fill">
                    <g>
                        <path d="M20.061,39.763C16.998,42.944 14.197,46.255 11.843,49.689C11.188,50.644 10.576,51.62 10,52.609C10.908,53.143 12.006,53.477 13.11,53.477L83.788,53.477L83.788,39.763L20.061,39.763ZM41.492,22.005L83.788,23.682L83.788,10.856L62.118,10C59.129,11.501 56.209,13.04 53.371,14.631C52.027,15.384 50.702,16.149 49.397,16.927C46.986,18.37 44.307,20.076 41.492,22.005ZM18.429,77.574C18.429,74.24 20.999,71.426 24.329,71.293L83.788,69.237L83.788,82.708L24.715,84.754C21.386,84.88 18.562,82.312 18.429,78.985L18.429,77.574Z" style="fill:rgb(26,195,251);"/>
                    </g>
                </g>
            </g>
            <g id="g-root-sy_top_cu_18gyfil18qn5zh-fill" transform="matrix(1,0,0,1,253.714,97.9996)">
                <g id="sy_top_cu_18gyfil18qn5zh-fill">
                    <g>
                        <path d="M20.539,425.219C36.113,408.128 58.353,396.017 78.594,387.516C82.675,385.853 88.037,383.638 94.136,380.941C106.38,375.576 118.092,370.215 128.534,363.987C139.667,357.326 156.529,345.032 166.014,331.199C173.083,320.889 175.829,308.446 167.729,297.963C176.515,307.605 178.134,316.876 178.134,331.199C178.134,345.521 176.515,354.792 167.729,364.434C152.155,381.525 129.915,393.636 109.674,402.136C105.593,403.799 100.234,406.013 94.136,408.711C81.891,414.076 70.176,419.437 59.735,425.666C48.601,432.326 31.739,444.62 22.254,458.454C15.185,468.764 12.439,481.207 20.539,491.689C11.753,482.047 10.134,472.776 10.134,458.454C10.134,444.131 11.753,434.86 20.539,425.219ZM20.405,297.922C35.978,280.831 58.219,268.72 78.46,260.219C82.541,258.556 87.903,256.341 94.001,253.644C106.246,248.279 117.958,242.918 128.4,236.689C139.533,230.029 156.395,217.735 165.88,203.901C172.949,193.591 175.695,181.148 167.595,170.666C176.381,180.308 178,189.579 178,203.901C178,218.224 176.381,227.495 167.595,237.136C152.021,254.227 129.781,266.338 109.54,274.839C105.459,276.502 100.1,278.716 94.001,281.414C81.757,286.779 70.042,292.14 59.6,298.369C48.467,305.029 31.605,317.323 22.12,331.157C15.051,341.467 12.305,353.91 20.405,364.392C11.618,354.75 10,345.479 10,331.157C10,316.834 11.618,307.563 20.405,297.922ZM20.466,171.127C36.09,154.036 58.403,141.925 78.71,133.424C82.804,131.761 88.183,129.546 94.301,126.849C106.585,121.484 118.336,116.123 128.811,109.895C139.98,103.235 156.897,90.94 166.413,77.107C173.505,66.797 176.26,54.354 168.134,43.871C176.949,53.513 178.572,62.784 178.572,77.107C178.572,91.429 176.949,100.7 168.134,110.342C152.51,127.433 130.197,139.544 109.89,148.044C105.796,149.707 100.42,151.921 94.301,154.619C82.018,159.984 70.264,165.345 59.789,171.574C48.62,178.234 31.703,190.528 22.187,204.362C15.095,214.672 12.392,227.143 20.698,237.597C11.883,227.955 10.028,218.684 10.028,204.362C10.028,190.039 11.652,180.768 20.466,171.127ZM22.336,76.931C31.821,63.097 48.767,50.803 59.9,44.143C61.206,43.364 62.531,42.599 63.874,41.846C68.738,39.119 73.843,36.548 79.122,34.051L69.688,10C52.094,18.18 33.978,29.129 20.704,43.696C11.918,53.337 10.3,62.608 10.3,76.931C10.3,91.253 11.918,100.524 20.704,110.166C12.605,99.684 15.267,87.241 22.336,76.931Z" style="fill:rgb(171,171,171);"/>
                    </g>
                </g>
            </g>
            <g transform="matrix(1,0,0,1,518,180)">
                <g id="g-root-tx_globalro_92rq4t18qn4sr-fill">
                    <g id="tx_globalro_92rq4t18qn4sr-fill">
                        <g>
                            <g>
                                <text x="0px" y="0px" style="font-family:'ArialMT', 'Arial', sans-serif;font-size:20px;fill:rgb(44,44,44);">Global Routing</text>
                            </g>
                        </g>
                    </g>
                </g>
            </g>
            <g transform="matrix(1,0,0,1,45.98,312)">
                <g id="g-root-tx_instantl_18k2sy518qn75u-fill">
                    <g id="tx_instantl_18k2sy518qn75u-fill">
                        <g>
                            <g>
                                <text x="0px" y="0px" style="font-family:'ArialMT', 'Arial', sans-serif;font-size:20px;fill:rgb(44,44,44);">Instant Launch</text>
                            </g>
                        </g>
                    </g>
                </g>
            </g>
            <g transform="matrix(1,0,0,1,518,312)">
                <g id="g-root-tx_smartapi_59aml18qn7cx-fill">
                    <g id="tx_smartapi_59aml18qn7cx-fill">
                        <g>
                            <g>
                                <text x="0px" y="0px" style="font-family:'ArialMT', 'Arial', sans-serif;font-size:20px;fill:rgb(44,44,44);">Smart <tspan x="57.793px 71.133px " y="0px 0px ">AP</tspan>I</text>
                            </g>
                        </g>
                    </g>
                </g>
            </g>
            <g id="g-root-tx_carrierg_zqb7yl18qn6ys-fill" transform="matrix(1,0,0,1,38,134)">
                <g id="tx_carrierg_zqb7yl18qn6ys-fill">
                    <g>
                        <g>
                            <g transform="matrix(1,0,0,1,21.98,34)">
                                <text x="0px" y="0px" style="font-family:'ArialMT', 'Arial', sans-serif;font-size:20px;fill:rgb(44,44,44);">Carrier-Grade</text>
                            </g>
                            <g transform="matrix(1,0,0,1,63.12,58)">
                                <text x="0px" y="0px" style="font-family:'ArialMT', 'Arial', sans-serif;font-size:20px;fill:rgb(44,44,44);">Gateway</text>
                            </g>
                        </g>
                    </g>
                </g>
            </g>
            <g transform="matrix(1,0,0,1,74.5,444)">
                <g id="g-root-tx_customid_v7dcel18qn6ko-fill">
                    <g id="tx_customid_v7dcel18qn6ko-fill">
                        <g>
                            <g>
                                <text x="0px" y="0px" style="font-family:'ArialMT', 'Arial', sans-serif;font-size:20px;fill:rgb(44,44,44);">Custom IDs</text>
                            </g>
                        </g>
                    </g>
                </g>
            </g>
            <g transform="matrix(1,0,0,1,518,444)">
                <g id="g-root-tx_247suppo_1q9he6l18qn5sf-fill">
                    <g id="tx_247suppo_1q9he6l18qn5sf-fill">
                        <g>
                            <g>
                                <text x="0px" y="0px" style="font-family:'ArialMT', 'Arial', sans-serif;font-size:20px;fill:rgb(44,44,44);">24/7 Support</text>
                            </g>
                        </g>
                    </g>
                </g>
            </g>
            <g transform="matrix(1,0,0,1,33.3,576)">
                <g id="g-root-tx_delivery_qqaw3x18qn56u-fill">
                    <g id="tx_delivery_qqaw3x18qn56u-fill">
                        <g>
                            <g>
                                <text x="0px" y="0px" style="font-family:'ArialMT', 'Arial', sans-serif;font-size:20px;fill:rgb(44,44,44);">Delivery Reports</text>
                            </g>
                        </g>
                    </g>
                </g>
            </g>
            <g id="g-root-sy_back_cu_9hxp18qn765-stroke" transform="matrix(1,0,0,1,259.167,98.1656)">
                <g id="sy_back_cu_9hxp18qn765-stroke">
                    <g>
                        <path d="M15.516,460.779C16.378,461.247 17.357,461.514 18.384,461.514L19.541,461.514C24.577,467.927 30.69,473.943 37.147,479.077L29.413,479.355C26.084,479.489 23.513,482.303 23.513,485.637L23.513,487.048C23.646,490.375 26.47,492.943 29.8,492.817L55.907,491.901C61.433,495.104 67.295,498.085 73.386,500.966L63.958,525.019C46.357,516.838 28.231,505.886 14.951,491.313C6.98,480.847 9.864,468.339 16.816,458.294C16.766,458.222 16.865,458.366 16.816,458.294C16.766,458.366 16.716,458.438 16.667,458.51C16.15,459.264 15.984,460.004 15.516,460.779ZM18.056,334.482C16.95,334.482 15.9,334.172 14.99,333.635C9.215,343.384 7.528,354.638 14.951,364.245C26.622,377.052 41.858,386.823 57.369,394.613C62.557,392.008 67.756,389.65 72.83,387.519C76.911,385.857 82.273,383.642 88.371,380.944L88.862,380.729C88.699,380.657 88.535,380.585 88.371,380.513C76.817,375.45 65.911,370.631 55.925,364.843L29.474,365.76C26.144,365.886 23.32,363.318 23.187,359.991L23.187,358.58C23.187,355.246 25.758,352.432 29.087,352.299L37.16,352.019C30.703,346.886 24.26,340.896 19.222,334.482L18.056,334.482ZM18.509,207.485C17.422,207.485 16.388,207.185 15.49,206.664C16.002,205.803 16.216,204.954 16.789,204.119L16.829,204.059L16.789,204C9.72,214.31 6.973,226.753 15.073,237.235C26.602,249.887 41.556,259.726 56.876,267.475C62.251,264.756 67.644,262.304 72.901,260.096C76.947,258.448 82.252,256.256 88.286,253.591C76.796,248.554 66.003,243.602 56.067,237.845L29.773,238.762C26.443,238.888 23.619,236.32 23.486,232.993L23.486,231.582C23.486,228.249 26.057,225.434 29.386,225.301L37.297,225.021C30.839,219.889 24.394,213.898 19.354,207.485L18.509,207.485ZM88.536,281.244L88.691,281.312C97.343,285.103 105.73,288.892 113.591,292.987L148.118,294.232C151.328,294.365 153.759,297.053 153.759,300.261L153.759,301.538C153.632,304.746 151.068,307.174 147.858,307.048L135.475,306.555C141.037,310.663 147.053,315.633 152.154,320.903L159.182,320.903C161.427,320.903 163.441,322.184 164.516,324.041C168.323,315.406 168.62,306.014 162.288,297.82C150.691,285.094 135.398,275.128 119.986,267.359C114.701,270.023 109.401,272.43 104.233,274.6C100.151,276.263 94.792,278.477 88.694,281.175L88.536,281.244ZM15.235,110.004C7.179,99.577 9.809,87.063 16.854,76.8C16.307,77.617 15.551,78.81 15.062,79.651C16.578,80.525 17.545,80.525 18.649,80.525L19.834,80.525C24.876,86.939 31.03,92.933 37.489,98.064L29.388,98.345C26.058,98.478 23.487,101.292 23.487,104.626L23.487,106.037C23.62,109.364 26.444,111.932 29.774,111.806L56.264,110.888C66.24,116.666 77.309,121.323 88.848,126.379L89.18,126.525L88.848,126.671C82.749,129.368 77.388,131.583 73.306,133.245C68.188,135.395 62.941,137.776 57.707,140.409C42.243,132.629 26.871,122.772 15.235,110.004ZM135.808,179.499L148.189,180.001C151.399,180.128 154.012,177.73 154.139,174.523L154.139,173.245C154.139,170.038 151.708,167.35 148.498,167.216L113.768,165.834C106.002,161.788 97.721,158.04 89.179,154.294C95.14,151.663 100.379,149.499 104.387,147.866C109.694,145.637 115.139,143.16 120.565,140.409C135.833,148.148 150.703,157.992 162.193,170.602C170.293,181.084 167.419,193.589 160.35,203.899C160.344,203.891 160.338,203.883 160.333,203.875C160.338,203.866 160.344,203.858 160.35,203.85C161.886,201.61 163.217,199.269 164.278,196.87C163.2,195.027 161.57,193.749 159.336,193.749L152.319,193.749C147.22,188.481 141.368,183.608 135.808,179.499ZM113.795,38.898L148.498,40.279C151.708,40.412 154.139,43.101 154.139,46.308L154.139,47.585C154.012,50.793 151.448,53.221 148.239,53.095L135.89,52.603C141.45,56.713 147.235,61.544 152.332,66.812L159.336,66.812C161.577,66.812 163.761,68.229 164.838,70.08C168.651,61.672 169.214,51.826 162.443,43.386C149.163,28.814 131.037,18.181 113.436,10L104.007,34.053C107.345,35.632 110.613,37.24 113.795,38.898Z" style="fill:none;stroke:rgb(44,44,44);stroke-width:2px;"/>
                    </g>
                </g>
            </g>
            <g id="g-root-sy_7_cu_1lqjiml18qn5e6-stroke" transform="matrix(1,0,0,1,264.358,506.283)">
                <g id="sy_7_cu_1lqjiml18qn5e6-stroke">
                    <g>
                        <path d="M10,52.656C10.863,53.124 12.19,53.391 13.217,53.391L83.655,53.403L83.655,39.689L20.323,39.715C16.984,43.114 14.014,46.664 11.478,50.362C10.962,51.116 10.468,51.881 10,52.656ZM41.862,21.991L83.655,23.608L83.655,10.782L62.726,10C57.833,12.423 53.199,14.938 48.716,17.612C46.601,18.878 44.302,20.347 41.862,21.991ZM18.322,77.526C18.322,74.193 20.893,71.378 24.223,71.245L83.655,69.163L83.655,82.634L24.609,84.706C21.279,84.833 18.456,82.264 18.322,78.937L18.322,77.526Z" style="fill:none;stroke:rgb(44,44,44);stroke-width:2px;"/>
                    </g>
                </g>
            </g>
            <g id="g-root-sy_6_cu_18f309918qn6z3-stroke" transform="matrix(1,0,0,1,337.714,380.013)">
                <g id="sy_6_cu_18f309918qn6z3-stroke">
                    <g>
                        <path d="M69.652,12.374C72.862,12.507 75.293,15.195 75.293,18.403L75.293,19.68C75.166,22.887 72.602,25.316 69.392,25.19L10,22.826L10,10L69.652,12.374ZM79.496,52.621C80.248,51.645 81.017,50.661 81.698,49.668C83.333,47.283 84.804,44.833 85.961,42.315C84.931,40.314 82.842,38.907 80.49,38.907L10,38.907L10,52.621L79.496,52.621ZM65.959,66.506L10,68.381L10,81.852L46.881,80.554C52.647,76.903 59.537,72.123 65.959,66.506Z" style="fill:none;stroke:rgb(44,44,44);stroke-width:2px;"/>
                    </g>
                </g>
            </g>
            <g id="g-root-sy_5_cu_zk2h3h18qn5ds-stroke" transform="matrix(1,0,0,1,264.194,379.165)">
                <g id="sy_5_cu_zk2h3h18qn5ds-stroke">
                    <g>
                        <path d="M10,52.572C10.932,53.145 12.018,53.478 13.164,53.478L83.654,53.478L83.654,39.765L20.061,39.765C16.974,42.965 14.144,46.325 11.774,49.781C11.147,50.695 10.554,51.626 10,52.572ZM41.447,22.004L83.654,23.683L83.654,10.858L62.106,10C57.656,12.232 53.357,14.546 49.255,16.993C46.872,18.418 44.226,20.102 41.447,22.004ZM18.162,77.576C18.162,74.242 20.732,71.428 24.062,71.295L83.699,69.238L83.699,82.71L24.448,84.756C21.118,84.882 18.295,82.314 18.162,78.987L18.162,77.576Z" style="fill:none;stroke:rgb(44,44,44);stroke-width:2px;"/>
                    </g>
                </g>
            </g>
            <g id="g-root-sy_4_cu_m8lyq518qn6yp-stroke" transform="matrix(1,0,0,1,338.014,252.966)">
                <g id="sy_4_cu_m8lyq518qn6yp-stroke">
                    <g>
                        <path d="M69.652,12.374C72.862,12.507 75.293,15.195 75.293,18.403L75.293,19.68C75.166,22.887 72.602,25.316 69.392,25.19L10,22.826L10,10L69.652,12.374ZM78.863,52.621C79.805,51.428 80.699,50.219 81.535,48.999C83.071,46.759 84.536,44.147 85.596,41.747C84.614,40.227 82.671,38.946 80.438,38.946L10,38.907L10,52.621L78.863,52.621ZM65.307,66.455L10,68.381L10,81.852L45.982,80.593C51.741,77.018 58.698,72.144 65.307,66.455Z" style="fill:none;stroke:rgb(44,44,44);stroke-width:2px;"/>
                    </g>
                </g>
            </g>
            <g id="g-root-sy_3_cu_8xrxfx18qn5du-stroke" transform="matrix(1,0,0,1,264.342,252.166)">
                <g id="sy_3_cu_8xrxfx18qn5du-stroke">
                    <g>
                        <path d="M10,52.634C10.899,53.154 12.103,53.454 13.191,53.454L83.681,53.454L83.681,39.74L20.284,39.74C17.073,43.039 14.075,46.512 11.623,50.088C11.05,50.923 10.513,51.772 10,52.634ZM41.933,21.997L83.681,23.659L83.681,10.833L62.747,10C58.078,12.327 53.572,14.74 49.281,17.3C47.03,18.647 44.545,20.224 41.933,21.997ZM18.322,77.552C18.322,74.218 20.892,71.403 24.222,71.27L83.681,69.214L83.681,82.685L24.608,84.731C21.279,84.858 18.455,82.289 18.322,78.962L18.322,77.552Z" style="fill:none;stroke:rgb(44,44,44);stroke-width:2px;"/>
                    </g>
                </g>
            </g>
            <g id="g-root-sy_2_cu_24x7118qn66j-stroke" transform="matrix(1,0,0,1,338.014,126.071)">
                <g id="sy_2_cu_24x7118qn66j-stroke">
                    <g>
                        <path d="M69.652,12.374C72.862,12.507 75.293,15.195 75.293,18.403L75.293,19.68C75.166,22.887 72.602,25.316 69.392,25.19L10,22.826L10,10L69.652,12.374ZM79.467,52.621C80.314,51.535 81.121,50.438 81.88,49.33C83.456,47.032 84.817,44.628 85.891,42.164C84.834,40.243 82.782,38.907 80.49,38.907L10,38.907L10,52.621L79.467,52.621ZM66.084,66.442L10,68.381L10,81.852L46.921,80.573C52.685,76.959 59.569,72.094 66.084,66.442Z" style="fill:none;stroke:rgb(44,44,44);stroke-width:2px;"/>
                    </g>
                </g>
            </g>
            <g id="g-root-sy_1_cu_1lsexvx18qn4ek-stroke" transform="matrix(1,0,0,1,264.226,125.215)">
                <g id="sy_1_cu_1lsexvx18qn4ek-stroke">
                    <g>
                        <path d="M20.061,39.763C16.998,42.944 14.197,46.255 11.843,49.689C11.188,50.644 10.576,51.62 10,52.609C10.908,53.143 12.006,53.477 13.11,53.477L83.788,53.477L83.788,39.763L20.061,39.763ZM41.492,22.005L83.788,23.682L83.788,10.856L62.118,10C59.129,11.501 56.209,13.04 53.371,14.631C52.027,15.384 50.702,16.149 49.397,16.927C46.986,18.37 44.307,20.076 41.492,22.005ZM18.429,77.574C18.429,74.24 20.999,71.426 24.329,71.293L83.788,69.237L83.788,82.708L24.715,84.754C21.386,84.88 18.562,82.312 18.429,78.985L18.429,77.574Z" style="fill:none;stroke:rgb(44,44,44);stroke-width:2px;"/>
                    </g>
                </g>
            </g>
            <g id="g-root-sy_top_cu_18gyfil18qn5zh-stroke" transform="matrix(1,0,0,1,253.714,97.9996)">
                <g id="sy_top_cu_18gyfil18qn5zh-stroke">
                    <g>
                        <path d="M78.594,387.516C58.353,396.017 36.113,408.128 20.539,425.219C11.753,434.861 10.134,444.132 10.134,458.454C10.134,472.776 11.753,482.048 20.539,491.689C12.439,481.207 15.185,468.764 22.254,458.454C31.739,444.62 48.601,432.326 59.735,425.666C70.176,419.437 81.891,414.076 94.136,408.711C100.234,406.014 105.593,403.799 109.674,402.137C129.915,393.636 152.156,381.525 167.73,364.434C176.516,354.792 178.134,345.521 178.134,331.199C178.134,316.876 176.516,307.605 167.73,297.963C175.829,308.446 173.083,320.889 166.014,331.199C156.529,345.032 139.667,357.326 128.534,363.987C118.092,370.215 106.38,375.576 94.136,380.941C88.037,383.638 82.675,385.853 78.594,387.516ZM78.46,260.219C58.219,268.72 35.978,280.831 20.405,297.922C11.618,307.563 10,316.834 10,331.157C10,345.479 11.618,354.75 20.405,364.392C12.305,353.91 15.051,341.467 22.12,331.157C31.605,317.323 48.467,305.029 59.6,298.369C70.042,292.14 81.757,286.779 94.001,281.414C100.1,278.716 105.459,276.502 109.54,274.839C129.781,266.338 152.022,254.227 167.595,237.136C176.381,227.495 178,218.224 178,203.901C178,189.579 176.381,180.308 167.595,170.666C175.695,181.148 172.949,193.591 165.88,203.901C156.395,217.735 139.533,230.029 128.399,236.689C117.958,242.918 106.246,248.279 94.001,253.644C87.903,256.341 82.541,258.556 78.46,260.219ZM78.71,133.424C58.403,141.925 36.09,154.036 20.466,171.127C11.652,180.769 10.028,190.04 10.028,204.362C10.028,218.685 11.883,227.956 20.698,237.597C12.392,227.143 15.095,214.672 22.187,204.362C31.703,190.528 48.62,178.234 59.789,171.574C70.264,165.346 82.018,159.984 94.301,154.619C100.42,151.922 105.796,149.708 109.89,148.045C130.197,139.544 152.51,127.433 168.134,110.342C176.948,100.7 178.572,91.429 178.572,77.107C178.572,62.784 176.948,53.513 168.134,43.871C176.26,54.354 173.505,66.797 166.413,77.107C156.897,90.94 139.98,103.235 128.811,109.895C118.336,116.123 106.585,121.484 94.301,126.849C88.183,129.546 82.804,131.761 78.71,133.424ZM22.336,76.931C31.821,63.097 48.767,50.803 59.9,44.143C61.206,43.364 62.531,42.599 63.874,41.846C68.738,39.119 73.843,36.548 79.122,34.051L69.688,10C52.094,18.18 33.978,29.129 20.704,43.696C11.918,53.337 10.3,62.608 10.3,76.931C10.3,91.253 11.918,100.524 20.704,110.166C12.605,99.684 15.267,87.241 22.336,76.931Z" style="fill:none;stroke:rgb(44,44,44);stroke-width:2px;"/>
                    </g>
                </g>
            </g>
            <g id="g-root-ic_netw_40irx18qeqrp-stroke" transform="matrix(1,0,0,1,446,134)">
                <g id="ic_netw_40irx18qeqrp-stroke">
                    <g>
                        <path d="M11.072,33.996C11.072,46.699 21.369,56.996 34.072,56.996C46.775,56.996 57.072,46.699 57.072,33.996C57.072,21.293 46.775,10.996 34.072,10.996C21.369,10.996 11.072,21.293 11.072,33.996ZM23.072,25.496C23.072,27.981 25.087,29.996 27.572,29.996C30.057,29.996 32.072,27.981 32.072,25.496C32.072,23.011 30.057,20.996 27.572,20.996C25.087,20.996 23.072,23.011 23.072,25.496L23.072,25.496ZM36.072,45.496C36.072,46.877 37.191,47.996 38.572,47.996C39.953,47.996 41.072,46.877 41.072,45.496C41.072,44.115 39.953,42.996 38.572,42.996C37.191,42.996 36.072,44.115 36.072,45.496L36.072,45.496ZM44.072,30.496C44.072,32.429 45.639,33.996 47.572,33.996C49.505,33.996 51.072,32.429 51.072,30.496C51.072,28.563 49.505,26.996 47.572,26.996C45.639,26.996 44.072,28.563 44.072,30.496L44.072,30.496ZM32.072,25C36.543,25.17 40.803,26.945 44.072,30M48.27,33.928L49.07,34.996C49.07,34.996 52.07,38.996 52.07,47.996M43.718,13.11L44.072,14C45.52,18.289 46.197,22.799 46.072,27.324M45.072,33C44.821,37.13 43.333,41.09 40.8,44.362M37.376,47.692L37.072,48C37.072,48 32.072,53 21.072,53M34.072,11C31.336,13.927 29.136,17.311 27.572,21M25.236,29.344L25.072,30C23.982,35.409 24.684,41.026 27.072,46C30.472,52.812 39.072,56 39.072,56L39.818,56.278M23.072,25.496C23.072,25.496 15.4,26.046 11.522,29.442M11.632,39.064L12.072,38.996C12.072,38.996 25.834,36.88 37.02,43.536" style="fill:none;stroke:rgb(67,221,147);stroke-width:2px;"/>
                    </g>
                </g>
            </g>
            <g id="g-root-ic_4_1464wel18qerra-stroke" transform="matrix(1,0,0,1,182,134)">
                <g id="ic_4_1464wel18qerra-stroke">
                    <g>
                        <path d="M44,57L35.2,28.742C34.436,29.08 33.564,29.08 32.8,28.742L24,57M30.992,25.996C30.992,27.653 32.335,28.996 33.992,28.996C35.649,28.996 36.992,27.653 36.992,25.996C36.992,24.339 35.649,22.996 33.992,22.996C32.335,22.996 30.992,24.339 30.992,25.996ZM45.184,16.8C50.26,21.877 50.26,30.107 45.184,35.184M49.428,12.56C56.848,19.98 56.848,32.01 49.428,39.43M22.8,16.8C17.724,21.877 17.724,30.107 22.8,35.184M18.556,12.56C11.136,19.98 11.136,32.01 18.556,39.43M28.364,42.996L39.636,42.996M25.87,50.996L42.13,50.996" style="fill:none;stroke:rgb(26,195,251);stroke-width:2px;"/>
                    </g>
                </g>
            </g>
            <g id="g-root-ic_box_7rdal18qajv0-stroke" transform="matrix(1,0,0,1,182,266)">
                <g id="ic_box_7rdal18qajv0-stroke">
                    <g>
                        <path d="M12,46.254L34,52.254M34,52.254L56,46.254M12,46.254L22.986,43.376M12,55.376L12,46.504M56,46.504L56,55.376M34,56.376L34,52.254M41,22.124C41,25.99 39.834,36.124 34,36.124C28.166,36.124 27,26 27,22.124C27,15.124 34,11.624 34,11.624C34,11.624 41,15.124 41,22.124ZM31.254,21.874C31.254,23.391 32.483,24.621 34,24.621C35.517,24.621 36.746,23.391 36.746,21.874C36.746,20.357 35.517,19.127 34,19.127C32.483,19.127 31.254,20.357 31.254,21.874M29.366,34.322L27.75,35.132C26.836,35.617 25.999,36.234 25.266,36.964C24.907,37.349 24.352,37.481 23.859,37.299C23.365,37.116 23.029,36.656 23.006,36.13C22.654,33.052 24.376,30.11 27.232,28.91M38.634,34.322L40.25,35.132C41.164,35.617 42.001,36.234 42.734,36.964C43.093,37.349 43.648,37.481 44.141,37.299C44.635,37.116 44.971,36.656 44.994,36.13C45.346,33.052 43.624,30.11 40.768,28.91M56,46.254L45.014,43.376M36.8,42.014C36.8,43.56 35.546,47.3 34,47.3C32.454,47.3 31.2,43.56 31.2,42.014C31.2,40.468 32.454,39.214 34,39.214C35.546,39.214 36.8,40.468 36.8,42.014Z" style="fill:none;stroke:rgb(166,218,55);stroke-width:2px;"/>
                    </g>
                </g>
            </g>
            <g id="g-root-ic_clou_1cw5mvh18qai2r-stroke" transform="matrix(1,0,0,1,446,266)">
                <g id="ic_clou_1cw5mvh18qai2r-stroke">
                    <g>
                        <path d="M49.534,56.732L49.534,43.664M46.92,43.664L52.148,43.664M46.92,56.732L52.148,56.732M32.238,56.732L32.238,51.504M32.238,51.504L36.16,51.504C38.325,51.504 40.079,49.749 40.079,47.584C40.079,45.419 38.325,43.664 36.16,43.664L32.238,43.664L32.238,51.504ZM14.942,56.732L16.418,46.894C16.714,45.051 18.304,43.696 20.17,43.696C22.036,43.696 23.626,45.051 23.922,46.894L25.4,56.732M15.628,52.158L24.712,52.158M57,29.268C57.003,26.554 55.899,23.955 53.945,22.072C51.99,20.189 49.352,19.183 46.64,19.286C43.917,13.503 37.618,10.305 31.342,11.517C25.067,12.73 20.413,18.045 20.04,24.426C17.829,23.963 15.526,24.521 13.772,25.945C12.019,27.37 11,29.509 11,31.768C11,39.388 19,39.268 19,39.268L48,39.268C48,39.268 57,38.096 57,29.268Z" style="fill:none;stroke:rgb(255,231,17);stroke-width:2px;"/>
                    </g>
                </g>
            </g>
            <g id="g-root-ic_down_14805cd18qn56u-stroke" transform="matrix(1,0,0,1,182,530)">
                <g id="ic_down_14805cd18qn56u-stroke">
                    <g>
                        <path d="M28.98,57.028L12.98,57.028C11.875,57.028 10.98,56.133 10.98,55.028L10.98,13.028C10.98,11.923 11.875,11.028 12.98,11.028L39.566,11.028C40.096,11.028 40.605,11.239 40.98,11.614L48.4,19.028C48.775,19.403 48.986,19.912 48.986,20.442L48.986,27.028M16.98,41.028L28.98,41.028M19.98,31.028L21.98,31.028C22.532,31.028 22.98,31.476 22.98,32.028L22.98,41.028L18.98,41.028L18.98,32.028C18.98,31.476 19.428,31.028 19.98,31.028ZM30.98,35.028L30.98,26.028C30.98,25.476 30.532,25.028 29.98,25.028L27.98,25.028C27.428,25.028 26.98,25.476 26.98,26.028L26.98,41.028M32.98,45.028C32.98,51.655 38.353,57.028 44.98,57.028C51.607,57.028 56.98,51.655 56.98,45.028C56.98,38.401 51.607,33.028 44.98,33.028C38.353,33.028 32.98,38.401 32.98,45.028L32.98,45.028ZM44.98,39.028L44.98,51.028M44.98,51.028L40.48,46.528M44.98,51.028L49.48,46.528" style="fill:none;stroke:rgb(243,102,187);stroke-width:2px;"/>
                    </g>
                </g>
            </g>
            <g id="g-root-ic_stac_qu1tsd18qkdn0-stroke" transform="matrix(1,0,0,1,182,398)">
                <g id="ic_stac_qu1tsd18qkdn0-stroke">
                    <g>
                        <path d="M33.9,38.399C36.33,38.399 38.3,36.43 38.3,34C38.3,31.57 36.33,29.6 33.9,29.6C31.47,29.6 29.5,31.57 29.5,34C29.5,36.43 31.47,38.399 33.9,38.399ZM24.9,50.6C24.9,45.6 28.9,41.6 33.9,41.6C38.9,41.6 42.9,45.6 42.9,50.6L24.9,50.6ZM50.5,56.6L17.5,56.6C14.1,56.6 11.5,54 11.5,50.6L11.5,29.6C11.5,26.2 14.1,23.6 17.5,23.6L50.5,23.6C53.9,23.6 56.5,26.2 56.5,29.6L56.5,50.6C56.5,53.8 53.7,56.6 50.5,56.6ZM17.3,17.4L50.5,17.4M17.3,17.4L50.5,17.4M22.3,11.4L45.5,11.4" style="fill:none;stroke:rgb(247,148,56);stroke-width:2px;"/>
                    </g>
                </g>
            </g>
            <g id="g-root-ic_smok_1cuwljh18qhix7-stroke" transform="matrix(1,0,0,1,446,398)">
                <g id="ic_smok_1cuwljh18qhix7-stroke">
                    <g>
                        <path d="M43.24,50.76C40.493,52.555 37.281,53.508 34,53.5C26.359,53.5 19.657,48.402 17.617,41.038C15.577,33.674 18.701,25.854 25.254,21.923C31.806,17.991 40.176,18.915 45.714,24.18C51.251,29.445 52.596,37.758 49,44.5M18.5,43.5L15,43.5C12.791,43.5 11,41.709 11,39.5L11,33.5C11,31.291 12.791,29.5 15,29.5L18.5,29.5M49.5,43.5L53,43.5C55.209,43.5 57,41.709 57,39.5L57,33.5C57,31.291 55.209,29.5 53,29.5L49.5,29.5M52.98,29.5C52.98,19.007 44.473,10.5 33.98,10.5C23.487,10.5 14.98,19.007 14.98,29.5M24.84,41.5C26.433,45.138 30.028,47.488 34,47.488C37.972,47.488 41.567,45.138 43.16,41.5M25,33C25.276,33 25.5,33.224 25.5,33.5C25.5,33.776 25.276,34 25,34C24.724,34 24.5,33.776 24.5,33.5C24.5,33.224 24.724,33 25,33M43,33C43.276,33 43.5,33.224 43.5,33.5C43.5,33.776 43.276,34 43,34C42.724,34 42.5,33.776 42.5,33.5C42.5,33.224 42.724,33 43,33M38.74,46.3L48.42,56C48.822,56.404 49.377,56.618 49.946,56.587C50.515,56.557 51.044,56.285 51.4,55.84L52.66,54.26C53.001,53.824 53.145,53.267 53.06,52.72C52.981,52.17 52.677,51.677 52.22,51.36L41.58,44" style="fill:none;stroke:rgb(251,103,98);stroke-width:2px;"/>
                    </g>
                </g>
            </g>
        </g>
    </g>
</svg>
