<?xml version="1.0" encoding="UTF-8" standalone="no"?>
<!DOCTYPE svg PUBLIC "-//W3C//DTD SVG 1.1//EN" "http://www.w3.org/Graphics/SVG/1.1/DTD/svg11.dtd">
<svg width="100%" height="100%" viewBox="0 0 576 688" version="1.1" xmlns="http://www.w3.org/2000/svg" xmlns:xlink="http://www.w3.org/1999/xlink" xml:space="preserve" xmlns:serif="http://www.serif.com/" style="fill-rule:evenodd;clip-rule:evenodd;stroke-linecap:round;stroke-linejoin:round;">
    <g id="items" transform="matrix(1.08885,0,0,1.08885,-25.5897,-63.2311)">
        <g id="blend">
            <g id="g-root-cp_5_text-5_1cy06cz1tj7ojr-fill" transform="matrix(1,0,0,1,50,110)">
                <g id="cp_5_text-5_1cy06cz1tj7ojr-fill">
                    <g>
                        <rect x="10" y="10" width="228" height="120" style="fill:rgb(247,148,56);"/>
                    </g>
                </g>
            </g>
            <g id="g-root-cp_5_stick-5_zn652r1tj7myx-fill" transform="matrix(1,0,0,1,266,230)">
                <g id="cp_5_stick-5_zn652r1tj7myx-fill">
                    <g>
                        <rect x="10" y="10" width="12" height="324" style="fill:rgb(247,148,56);"/>
                    </g>
                </g>
            </g>
            <g id="g-root-cp_3_text-3_v7cmyb1tj7nr7-fill" transform="matrix(1,0,0,1,38,230)">
                <g id="cp_3_text-3_v7cmyb1tj7nr7-fill">
                    <g>
                        <rect x="10" y="10" width="228" height="144" style="fill:rgb(26,195,251);"/>
                    </g>
                </g>
            </g>
            <g id="g-root-cp_3_stick-3_hwilo31tj7m6d-fill" transform="matrix(1,0,0,1,254,374)">
                <g id="cp_3_stick-3_hwilo31tj7m6d-fill">
                    <g>
                        <rect x="10" y="10" width="12" height="180" style="fill:rgb(26,195,251);"/>
                    </g>
                </g>
            </g>
            <g id="g-root-cp_1_text-1_90vlf71tj7mz3-fill" transform="matrix(1,0,0,1,26,374)">
                <g id="cp_1_text-1_90vlf71tj7mz3-fill">
                    <g>
                        <rect x="10" y="10" width="228" height="144" style="fill:rgb(67,221,147);"/>
                    </g>
                </g>
            </g>
            <g id="g-root-cp_1_stick-1_58l6b1tj7ojl-fill" transform="matrix(1,0,0,1,242,458)">
                <g id="cp_1_stick-1_58l6b1tj7ojl-fill">
                    <g>
                        <rect x="10" y="10" width="12" height="96" style="fill:rgb(67,221,147);"/>
                    </g>
                </g>
            </g>
            <g id="g-root-cp_6_text-6_1lvilv71tj7mrn-fill" transform="matrix(1,0,0,1,278,98)">
                <g id="cp_6_text-6_1lvilv71tj7mrn-fill">
                    <g>
                        <rect x="10" y="10" width="228" height="132" style="fill:rgb(251,103,98);"/>
                    </g>
                </g>
            </g>
            <g id="g-root-cp_6_stick-6_18k23hv1tj7ocl-fill" transform="matrix(1,0,0,1,278,230)">
                <g id="cp_6_stick-6_18k23hv1tj7ocl-fill">
                    <g>
                        <rect x="10" y="10" width="12" height="324" style="fill:rgb(251,103,98);"/>
                    </g>
                </g>
            </g>
            <g id="g-root-cp_4_text-4_v9827n1tj7mrr-fill" transform="matrix(1,0,0,1,290,230)">
                <g id="cp_4_text-4_v9827n1tj7mrr-fill">
                    <g>
                        <rect x="10" y="10" width="228" height="144" style="fill:rgb(255,231,17);"/>
                    </g>
                </g>
            </g>
            <g id="g-root-cp_4_stick-4_hxrjub1tj7ocp-fill" transform="matrix(1,0,0,1,290,374)">
                <g id="cp_4_stick-4_hxrjub1tj7ocp-fill">
                    <g>
                        <rect x="10" y="10" width="12" height="180" style="fill:rgb(255,231,17);"/>
                    </g>
                </g>
            </g>
            <g id="g-root-cp_2_text-2_dikisz1tj7lz7-fill" transform="matrix(1,0,0,1,302,374)">
                <g id="cp_2_text-2_dikisz1tj7lz7-fill">
                    <g>
                        <rect x="10" y="10" width="228" height="132" style="fill:rgb(166,218,55);"/>
                    </g>
                </g>
            </g>
            <g id="g-root-cp_2_stick-2_740fn1tj7nk5-fill" transform="matrix(1,0,0,1,302,458)">
                <g id="cp_2_stick-2_740fn1tj7nk5-fill">
                    <g>
                        <rect x="10" y="10" width="12" height="96" style="fill:rgb(166,218,55);"/>
                    </g>
                </g>
            </g>
            <g id="g-root-cp_0_g-0_1lxe14j1tj7ls7-fill" transform="matrix(1,0,0,1,242,554)">
                <g id="cp_0_g-0_1lxe14j1tj7ls7-fill">
                    <g>
                        <path d="M33.994,61L46.01,86L58.005,61L33.994,61Z" style="fill:rgb(232,232,232);"/>
                    </g>
                </g>
                <g id="cp_0_g-0_1lxe14j1tj7ls7-fill1" serif:id="cp_0_g-0_1lxe14j1tj7ls7-fill">
                    <g>
                        <path d="M82,10L10,10L34,61L58.001,61L82,10Z" style="fill:rgb(232,232,232);"/>
                    </g>
                </g>
            </g>
            <g id="g-root-tx_realtime_1lse8fn1tjlpfx-fill" transform="matrix(1,0,0,1,98,242)">
                <g id="tx_realtime_1lse8fn1tjlpfx-fill">
                    <g>
                        <g>
                            <g transform="matrix(1,0,0,1,22.68,34)">
                                <text x="0px" y="0px" style="font-family:'Arial-BoldMT', 'Arial', sans-serif;font-weight:700;font-size:20px;fill:rgb(44,44,44);">Real-T<tspan x="60.762px 66.318px " y="0px 0px ">im</tspan>e</text>
                            </g>
                            <g transform="matrix(1,0,0,1,32.85,58)">
                                <text x="0px" y="0px" style="font-family:'Arial-BoldMT', 'Arial', sans-serif;font-weight:700;font-size:20px;fill:rgb(44,44,44);">Analytics</text>
                            </g>
                        </g>
                    </g>
                </g>
            </g>
            <g id="g-root-tx_customse_4hb8s31tjsq33-fill" transform="matrix(1,0,0,1,350,242)">
                <g id="tx_customse_4hb8s31tjsq33-fill">
                    <g>
                        <g>
                            <g transform="matrix(1,0,0,1,12,34)">
                                <text x="0px" y="0px" style="font-family:'Arial-BoldMT', 'Arial', sans-serif;font-weight:700;font-size:20px;fill:rgb(44,44,44);">Custom Sender</text>
                            </g>
                            <g transform="matrix(1,0,0,1,12,58)">
                                <text x="0px" y="0px" style="font-family:'Arial-BoldMT', 'Arial', sans-serif;font-weight:700;font-size:20px;fill:rgb(44,44,44);">ID</text>
                            </g>
                        </g>
                    </g>
                </g>
            </g>
            <g id="g-root-tx_immediat_hv9nhv1tjlnv2-fill" transform="matrix(1,0,0,1,62,302)">
                <g id="tx_immediat_hv9nhv1tjlnv2-fill">
                    <g>
                        <g>
                            <g transform="matrix(1,0,0,1,24.15,31.2)">
                                <text x="0px" y="0px" style="font-family:'ArialMT', 'Arial', sans-serif;font-size:15px;fill:rgb(44,44,44);">Immediate insights</text>
                            </g>
                            <g transform="matrix(1,0,0,1,22.32,49.2)">
                                <text x="0px" y="0px" style="font-family:'ArialMT', 'Arial', sans-serif;font-size:15px;fill:rgb(44,44,44);">into SMS campaign</text>
                            </g>
                            <g transform="matrix(1,0,0,1,62.23,67.2)">
                                <text x="0px" y="0px" style="font-family:'ArialMT', 'Arial', sans-serif;font-size:15px;fill:rgb(44,44,44);">performance.</text>
                            </g>
                        </g>
                    </g>
                </g>
            </g>
            <g id="g-root-tx_personal_v5h7oz1tjsp3c-fill" transform="matrix(1,0,0,1,350,302)">
                <g id="tx_personal_v5h7oz1tjsp3c-fill">
                    <g>
                        <g>
                            <g transform="matrix(1,0,0,1,12,31.2)">
                                <text x="0px" y="0px" style="font-family:'ArialMT', 'Arial', sans-serif;font-size:15px;fill:rgb(44,44,44);">Personalized sender</text>
                            </g>
                            <g transform="matrix(1,0,0,1,12,49.2)">
                                <g transform="matrix(15,0,0,15,35.8594,0)">
                                </g>
                                <g transform="matrix(15,0,0,15,40.0269,0)">
                                </g>
                                <text x="0px" y="0px" style="font-family:'ArialMT', 'Arial', sans-serif;font-size:15px;fill:rgb(44,44,44);">identiﬁcation for brand</text>
                            </g>
                            <g transform="matrix(1,0,0,1,12,67.2)">
                                <text x="0px" y="0px" style="font-family:'ArialMT', 'Arial', sans-serif;font-size:15px;fill:rgb(44,44,44);">recognition.</text>
                            </g>
                        </g>
                    </g>
                </g>
            </g>
            <g id="g-root-tx_continuo_1cy06cz1tjrbid-fill" transform="matrix(1,0,0,1,338,146)">
                <g id="tx_continuo_1cy06cz1tjrbid-fill">
                    <g>
                        <g>
                            <g transform="matrix(1,0,0,1,12,28.2)">
                                <text x="0px" y="0px" style="font-family:'ArialMT', 'Arial', sans-serif;font-size:15px;fill:rgb(44,44,44);">Continuous</text>
                            </g>
                            <g transform="matrix(1,0,0,1,12,46.2)">
                                <text x="0px" y="0px" style="font-family:'ArialMT', 'Arial', sans-serif;font-size:15px;fill:rgb(44,44,44);">assistance and</text>
                            </g>
                            <g transform="matrix(1,0,0,1,12,64.2)">
                                <text x="0px" y="0px" style="font-family:'ArialMT', 'Arial', sans-serif;font-size:15px;fill:rgb(44,44,44);">troubleshooting for</text>
                            </g>
                            <g transform="matrix(1,0,0,1,12,82.2)">
                                <text x="0px" y="0px" style="font-family:'ArialMT', 'Arial', sans-serif;font-size:15px;fill:rgb(44,44,44);">uninterrupted service.</text>
                            </g>
                        </g>
                    </g>
                </g>
            </g>
            <g id="g-root-tx_seamless_18nsy0j1tj7mdg-fill" transform="matrix(1,0,0,1,62,158)">
                <g id="tx_seamless_18nsy0j1tj7mdg-fill">
                    <g>
                        <g>
                            <g transform="matrix(1,0,0,1,23.48,31.2)">
                                <text x="0px" y="0px" style="font-family:'ArialMT', 'Arial', sans-serif;font-size:15px;fill:rgb(44,44,44);">Seamless integration</text>
                            </g>
                            <g transform="matrix(1,0,0,1,20.1,49.2)">
                                <text x="0px" y="0px" style="font-family:'ArialMT', 'Arial', sans-serif;font-size:15px;fill:rgb(44,44,44);">with existing systems</text>
                            </g>
                            <g transform="matrix(1,0,0,1,49.97,67.2)">
                                <text x="0px" y="0px" style="font-family:'ArialMT', 'Arial', sans-serif;font-size:15px;fill:rgb(44,44,44);">and applications.</text>
                            </g>
                        </g>
                    </g>
                </g>
            </g>
            <g transform="matrix(1,0,0,1,350,144)">
                <g id="g-root-tx_247suppo_hun6er1tjra4k-fill">
                    <g id="tx_247suppo_hun6er1tjra4k-fill">
                        <g>
                            <g>
                                <text x="0px" y="0px" style="font-family:'Arial-BoldMT', 'Arial', sans-serif;font-weight:700;font-size:20px;fill:rgb(44,44,44);">24/7 Support</text>
                            </g>
                        </g>
                    </g>
                </g>
            </g>
            <g transform="matrix(1,0,0,1,374,420)">
                <g id="g-root-tx_highlysc_958x0z1tjspvu-fill">
                    <g id="tx_highlysc_958x0z1tjspvu-fill">
                        <g>
                            <g>
                                <text x="0px" y="0px" style="font-family:'Arial-BoldMT', 'Arial', sans-serif;font-weight:700;font-size:20px;fill:rgb(44,44,44);">Highly Scalable</text>
                            </g>
                        </g>
                    </g>
                </g>
            </g>
            <g id="g-root-tx_easilyad_qnsdgz1tj7n63-fill" transform="matrix(1,0,0,1,362,422)">
                <g id="tx_easilyad_qnsdgz1tj7n63-fill">
                    <g>
                        <g>
                            <g transform="matrix(1,0,0,1,12,28.2)">
                                <text x="0px" y="0px" style="font-family:'ArialMT', 'Arial', sans-serif;font-size:15px;fill:rgb(44,44,44);">Easily adaptable to</text>
                            </g>
                            <g transform="matrix(1,0,0,1,12,46.2)">
                                <text x="0px" y="0px" style="font-family:'ArialMT', 'Arial', sans-serif;font-size:15px;fill:rgb(44,44,44);">growing</text>
                            </g>
                            <g transform="matrix(1,0,0,1,12,64.2)">
                                <text x="0px" y="0px" style="font-family:'ArialMT', 'Arial', sans-serif;font-size:15px;fill:rgb(44,44,44);">communication</text>
                            </g>
                            <g transform="matrix(1,0,0,1,12,82.2)">
                                <text x="0px" y="0px" style="font-family:'ArialMT', 'Arial', sans-serif;font-size:15px;fill:rgb(44,44,44);">needs.</text>
                            </g>
                        </g>
                    </g>
                </g>
            </g>
            <g id="g-root-tx_swiftand_dgp3jn1tjpvre-fill" transform="matrix(1,0,0,1,50,446)">
                <g id="tx_swiftand_dgp3jn1tjpvre-fill">
                    <g>
                        <g>
                            <g transform="matrix(1,0,0,1,37.33,31.2)">
                                <text x="0px" y="0px" style="font-family:'ArialMT', 'Arial', sans-serif;font-size:15px;fill:rgb(44,44,44);">Swift and reliable</text>
                            </g>
                            <g transform="matrix(1,0,0,1,17.1,49.2)">
                                <text x="0px" y="0px" style="font-family:'ArialMT', 'Arial', sans-serif;font-size:15px;fill:rgb(44,44,44);">delivery of bulk SMS</text>
                            </g>
                            <g transform="matrix(1,0,0,1,79.17,67.2)">
                                <text x="0px" y="0px" style="font-family:'ArialMT', 'Arial', sans-serif;font-size:15px;fill:rgb(44,44,44);">messages.</text>
                            </g>
                        </g>
                    </g>
                </g>
            </g>
            <g transform="matrix(1,0,0,1,108.68,156)">
                <g id="g-root-tx_flexible_4osxtf1tj7lsb-fill">
                    <g id="tx_flexible_4osxtf1tj7lsb-fill">
                        <g>
                            <g>
                                <text x="0px" y="0px" style="font-family:'Arial-BoldMT', 'Arial', sans-serif;font-weight:700;font-size:20px;fill:rgb(44,44,44);">Flexible <tspan x="79.287px 93.73px " y="0px 0px ">AP</tspan>Is</text>
                            </g>
                        </g>
                    </g>
                </g>
            </g>
            <g id="g-root-tx_fastmess_1q9goqb1tjpwjl-fill" transform="matrix(1,0,0,1,62,386)">
                <g id="tx_fastmess_1q9goqb1tjpwjl-fill">
                    <g>
                        <g>
                            <g transform="matrix(1,0,0,1,14.87,34)">
                                <text x="0px" y="0px" style="font-family:'Arial-BoldMT', 'Arial', sans-serif;font-weight:700;font-size:20px;fill:rgb(44,44,44);">Fast Message</text>
                            </g>
                            <g transform="matrix(1,0,0,1,67.23,58)">
                                <text x="0px" y="0px" style="font-family:'Arial-BoldMT', 'Arial', sans-serif;font-weight:700;font-size:20px;fill:rgb(44,44,44);">Delivery</text>
                            </g>
                        </g>
                    </g>
                </g>
            </g>
            <g id="g-root-cp_5_text-5_1cy06cz1tj7ojr-stroke" transform="matrix(1,0,0,1,50,110)">
                <g id="cp_5_text-5_1cy06cz1tj7ojr-stroke">
                    <g>
                        <path d="M10,130L10,10L238,10L238,130" style="fill:none;stroke:rgb(44,44,44);stroke-width:2px;"/>
                    </g>
                </g>
            </g>
            <g id="g-root-cp_5_stick-5_zn652r1tj7myx-stroke" transform="matrix(1,0,0,1,266,230)">
                <g id="cp_5_stick-5_zn652r1tj7myx-stroke">
                    <g>
                        <path d="M21.996,334L21.996,10" style="fill:none;stroke:rgb(44,44,44);stroke-width:2px;"/>
                    </g>
                </g>
            </g>
            <g id="g-root-cp_3_text-3_v7cmyb1tj7nr7-stroke" transform="matrix(1,0,0,1,38,230)">
                <g id="cp_3_text-3_v7cmyb1tj7nr7-stroke">
                    <g>
                        <path d="M10,154L10,10L238,10L238,154" style="fill:none;stroke:rgb(44,44,44);stroke-width:2px;"/>
                    </g>
                </g>
            </g>
            <g id="g-root-cp_3_stick-3_hwilo31tj7m6d-stroke" transform="matrix(1,0,0,1,254,374)">
                <g id="cp_3_stick-3_hwilo31tj7m6d-stroke">
                    <g>
                        <path d="M21.996,190L21.996,10" style="fill:none;stroke:rgb(44,44,44);stroke-width:2px;"/>
                    </g>
                </g>
            </g>
            <g id="g-root-cp_1_text-1_90vlf71tj7mz3-stroke" transform="matrix(1,0,0,1,26,374)">
                <g id="cp_1_text-1_90vlf71tj7mz3-stroke">
                    <g>
                        <path d="M238,154L238,10L10,10L10,154L226,154" style="fill:none;stroke:rgb(44,44,44);stroke-width:2px;"/>
                    </g>
                </g>
            </g>
            <g id="g-root-cp_1_stick-1_58l6b1tj7ojl-stroke" transform="matrix(1,0,0,1,242,458)">
                <g id="cp_1_stick-1_58l6b1tj7ojl-stroke">
                    <g>
                        <path d="M21.996,106L21.996,10M10,106L10,70" style="fill:none;stroke:rgb(44,44,44);stroke-width:2px;"/>
                    </g>
                </g>
            </g>
            <g id="g-root-cp_6_text-6_1lvilv71tj7mrn-stroke" transform="matrix(1,0,0,1,278,98)">
                <g id="cp_6_text-6_1lvilv71tj7mrn-stroke">
                    <g>
                        <path d="M238,142L238,10L10,10L10,142" style="fill:none;stroke:rgb(44,44,44);stroke-width:2px;"/>
                    </g>
                </g>
            </g>
            <g id="g-root-cp_6_stick-6_18k23hv1tj7ocl-stroke" transform="matrix(1,0,0,1,278,230)">
                <g id="cp_6_stick-6_18k23hv1tj7ocl-stroke">
                    <g>
                        <path d="M10.004,334L10.004,10" style="fill:none;stroke:rgb(44,44,44);stroke-width:2px;"/>
                    </g>
                </g>
            </g>
            <g id="g-root-cp_4_text-4_v9827n1tj7mrr-stroke" transform="matrix(1,0,0,1,290,230)">
                <g id="cp_4_text-4_v9827n1tj7mrr-stroke">
                    <g>
                        <path d="M238,154L238,10L10,10L10,154" style="fill:none;stroke:rgb(44,44,44);stroke-width:2px;"/>
                    </g>
                </g>
            </g>
            <g id="g-root-cp_4_stick-4_hxrjub1tj7ocp-stroke" transform="matrix(1,0,0,1,290,374)">
                <g id="cp_4_stick-4_hxrjub1tj7ocp-stroke">
                    <g>
                        <path d="M10.004,190L10.004,10" style="fill:none;stroke:rgb(44,44,44);stroke-width:2px;"/>
                    </g>
                </g>
            </g>
            <g id="g-root-cp_2_text-2_dikisz1tj7lz7-stroke" transform="matrix(1,0,0,1,302,374)">
                <g id="cp_2_text-2_dikisz1tj7lz7-stroke">
                    <g>
                        <path d="M10,142L10,10L238,10L238,142L22,142" style="fill:none;stroke:rgb(44,44,44);stroke-width:2px;"/>
                    </g>
                </g>
            </g>
            <g id="g-root-cp_2_stick-2_740fn1tj7nk5-stroke" transform="matrix(1,0,0,1,302,458)">
                <g id="cp_2_stick-2_740fn1tj7nk5-stroke">
                    <g>
                        <path d="M10.004,106L10.004,10M22,106L22,58" style="fill:none;stroke:rgb(44,44,44);stroke-width:2px;"/>
                    </g>
                </g>
            </g>
            <g id="g-root-cp_0_g-0_1lxe14j1tj7ls7-stroke" transform="matrix(1,0,0,1,242,554)">
                <g id="cp_0_g-0_1lxe14j1tj7ls7-stroke">
                    <g>
                        <path d="M33.994,61L46.01,86L58.005,61L33.994,61Z" style="fill:none;stroke:rgb(44,44,44);stroke-width:2px;"/>
                    </g>
                </g>
                <g id="cp_0_g-0_1lxe14j1tj7ls7-stroke1" serif:id="cp_0_g-0_1lxe14j1tj7ls7-stroke">
                    <g>
                        <path d="M82,10L10,10L34,61L58.001,61L82,10Z" style="fill:none;stroke:rgb(44,44,44);stroke-width:2px;"/>
                    </g>
                </g>
            </g>
            <g id="g-root-ic_wave_3zn031tjlq87-stroke" transform="matrix(1,0,0,1,218,242)">
                <g id="ic_wave_3zn031tjlq87-stroke">
                    <g>
                        <path d="M13.75,11.5L42.25,11.5C42.25,11.5 45.25,11.5 45.25,14.5L45.25,41.5C45.25,41.5 45.25,44.5 42.25,44.5L13.75,44.5C13.75,44.5 10.75,44.5 10.75,41.5L10.75,14.5C10.75,14.5 10.75,11.5 13.75,11.5M10.75,19L45.25,19M16,14.875C16.207,14.875 16.375,15.043 16.375,15.25C16.375,15.457 16.207,15.625 16,15.625C15.793,15.625 15.625,15.457 15.625,15.25C15.625,15.043 15.793,14.875 16,14.875M20.5,14.875C20.707,14.875 20.875,15.043 20.875,15.25C20.875,15.457 20.707,15.625 20.5,15.625C20.293,15.625 20.125,15.457 20.125,15.25C20.125,15.043 20.293,14.875 20.5,14.875M25,14.875C25.207,14.875 25.375,15.043 25.375,15.25C25.375,15.457 25.207,15.625 25,15.625C24.793,15.625 24.625,15.457 24.625,15.25C24.625,15.043 24.793,14.875 25,14.875M10.75,31.75L45.25,31.75M19,19L19,44.5M19,29.5L21.198,25.107C21.907,23.687 23.363,22.797 24.949,22.812C26.535,22.828 27.974,23.746 28.656,25.179L29.245,26.414C29.896,27.783 31.242,28.688 32.756,28.774C34.269,28.861 35.709,28.116 36.512,26.83C37.267,25.621 38.59,24.885 40.015,24.879C41.44,24.873 42.768,25.599 43.533,26.802L45.25,29.5M19,38.64L21.462,36.178C21.957,35.682 22.652,35.438 23.349,35.514C24.046,35.591 24.671,35.979 25.048,36.571L26.891,39.467C27.306,40.119 28.019,40.521 28.791,40.538C29.563,40.556 30.293,40.186 30.736,39.553L31.997,37.753C32.442,37.117 33.176,36.747 33.951,36.767C34.727,36.787 35.44,37.195 35.851,37.853L35.917,37.959C36.326,38.613 37.035,39.02 37.807,39.044C38.578,39.068 39.311,38.705 39.76,38.077C40.177,37.495 40.839,37.138 41.555,37.111C42.271,37.085 42.958,37.391 43.417,37.941L45.25,40.14" style="fill:none;stroke:rgb(44,44,44);stroke-width:2px;"/>
                    </g>
                </g>
            </g>
            <g id="g-root-ic_1_3d5wz1tjspvl-stroke" transform="matrix(1,0,0,1,302,242)">
                <g id="ic_1_3d5wz1tjspvl-stroke">
                    <g>
                        <path d="M43,42.25C43,43.907 41.657,45.25 40,45.25L16,45.25C14.343,45.25 13,43.907 13,42.25L13,40.75L43,40.75L43,42.25ZM39.25,31.75L34.75,31.75C31.75,31.75 31,29.5 31,27.25C31,23.5 34.75,21.228 34.75,17.5C34.75,13.772 31.728,10.75 28,10.75C24.272,10.75 21.25,13.772 21.25,17.5C21.25,21.228 25,23.5 25,27.25C25,29.5 24.25,31.75 21.25,31.75L16.75,31.75C13.436,31.75 10.75,34.436 10.75,37.75L10.75,39.25C10.75,40.078 11.422,40.75 12.25,40.75L43.75,40.75C44.578,40.75 45.25,40.078 45.25,39.25L45.25,37.75C45.25,34.436 42.564,31.75 39.25,31.75Z" style="fill:none;stroke:rgb(44,44,44);stroke-width:2px;"/>
                    </g>
                </g>
            </g>
            <g id="g-root-ic_tran_1hfp3qr1tjpwcj-stroke" transform="matrix(1,0,0,1,206,386)">
                <g id="ic_tran_1hfp3qr1tjpwcj-stroke">
                    <g>
                        <path d="M15.25,10.75L22.75,10.75C22.75,10.75 24.25,10.75 24.25,12.25L24.25,21.25C24.25,21.25 24.25,22.75 22.75,22.75L15.25,22.75C15.25,22.75 13.75,22.75 13.75,21.25L13.75,12.25C13.75,12.25 13.75,10.75 15.25,10.75M15.25,22.75L15.25,24.25M22.75,22.75L22.75,24.25M16,19.375C16.207,19.375 16.375,19.543 16.375,19.75M15.625,19.75C15.625,19.543 15.793,19.375 16,19.375M16,20.125C15.793,20.125 15.625,19.957 15.625,19.75M16.375,19.75C16.375,19.957 16.207,20.125 16,20.125M22,19.375C22.207,19.375 22.375,19.543 22.375,19.75M21.625,19.75C21.625,19.543 21.793,19.375 22,19.375M22,20.125C21.793,20.125 21.625,19.957 21.625,19.75M22.375,19.75C22.375,19.957 22.207,20.125 22,20.125M13.75,16.75L24.25,16.75M10.75,12.25L10.75,15.25M27.25,12.25L27.25,15.25M34.021,30.277L43.021,30.277C43.021,30.277 44.521,30.277 44.521,31.777L44.521,40.777C44.521,40.777 44.521,42.277 43.021,42.277L34.021,42.277C34.021,42.277 32.521,42.277 32.521,40.777L32.521,31.777C32.521,31.777 32.521,30.277 34.021,30.277M32.521,36.277L44.521,36.277M35.521,38.902C35.728,38.902 35.896,39.07 35.896,39.277M35.146,39.277C35.146,39.07 35.314,38.902 35.521,38.902M35.521,39.652C35.314,39.652 35.146,39.484 35.146,39.277M35.896,39.277C35.896,39.484 35.728,39.652 35.521,39.652M41.521,38.902C41.728,38.902 41.896,39.07 41.896,39.277M41.146,39.277C41.146,39.07 41.314,38.902 41.521,38.902M41.521,39.652C41.314,39.652 41.146,39.484 41.146,39.277M41.896,39.277C41.896,39.484 41.728,39.652 41.521,39.652M37.021,27.277L40.021,27.277M34.021,42.277L31.794,45.245M43.021,42.277L45.25,45.25M28,38.5C23.261,38.497 19.21,35.086 18.4,30.417M28,19C31.576,19 34.865,20.957 36.571,24.1M33.417,23.67L36.57,24.1L37,20.947M21.243,31.831L18.394,30.417L16.978,33.265" style="fill:none;stroke:rgb(44,44,44);stroke-width:2px;"/>
                    </g>
                </g>
            </g>
            <g id="g-root-ic_serv_dg2mgj1tjrcb2-stroke" transform="matrix(1,0,0,1,290,110)">
                <g id="ic_serv_dg2mgj1tjrcb2-stroke">
                    <g>
                        <path d="M11.5,23.502L16,30.252L21.25,24.252M16.048,30.157C14.645,22.529 19.388,15.117 26.902,13.195C34.416,11.273 42.135,15.497 44.568,22.861C47.001,30.226 43.316,38.216 36.136,41.148C28.956,44.08 20.731,40.952 17.314,33.99M25.75,33.25L34.75,33.25M37.75,36.25C36.093,36.25 34.75,34.907 34.75,33.25C34.75,31.593 36.093,30.25 37.75,30.25M22.75,30.25C24.407,30.25 25.75,31.593 25.75,33.25C25.75,34.907 24.407,36.25 22.75,36.25M23.757,21.25C24.05,20.356 24.883,19.752 25.824,19.75C26.402,19.75 26.956,19.981 27.365,20.391C27.773,20.8 28.002,21.356 28,21.934C28.001,22.46 27.792,22.964 27.42,23.335L23.5,27.25L28,27.25M35.503,27.241L35.503,25.741M35.5,25.741L35.5,19.75C33.136,20.915 31.471,23.139 31.02,25.735L35.5,25.735" style="fill:none;stroke:rgb(44,44,44);stroke-width:2px;"/>
                    </g>
                </g>
            </g>
            <g id="g-root-ic_clou_8vvsqb1tj91ql-stroke" transform="matrix(1,0,0,1,230,122)">
                <g id="ic_clou_8vvsqb1tj91ql-stroke">
                    <g>
                        <path d="M39.651,45.049L39.651,35.248M37.69,35.248L41.611,35.248M37.69,45.049L41.611,45.049M26.679,45.049L26.679,41.128M26.679,41.128L29.62,41.128C31.244,41.128 32.56,39.812 32.56,38.188C32.56,36.564 31.244,35.248 29.62,35.248L26.679,35.248L26.679,41.128ZM13.707,45.049L14.814,37.671C15.035,36.288 16.228,35.272 17.628,35.272C19.027,35.272 20.22,36.288 20.442,37.671L21.55,45.049M14.221,41.619L21.034,41.619M45.25,24.451C45.252,22.415 44.424,20.466 42.958,19.054C41.492,17.641 39.514,16.887 37.48,16.965C35.438,12.628 30.713,10.229 26.007,11.138C21.3,12.048 17.81,16.034 17.53,20.82C15.871,20.472 14.145,20.891 12.829,21.959C11.514,23.027 10.75,24.631 10.75,26.326C10.75,32.041 16.75,31.951 16.75,31.951L38.5,31.951C38.5,31.951 45.25,31.072 45.25,24.451Z" style="fill:none;stroke:rgb(44,44,44);stroke-width:2px;"/>
                    </g>
                </g>
            </g>
            <g id="g-root-ic_vase_18gbc4z1tj7mz0-stroke" transform="matrix(1,0,0,1,314,386)">
                <g id="ic_vase_18gbc4z1tj7mz0-stroke">
                    <g>
                        <path d="M24.541,31.75C24.285,31.75 24.047,31.88 23.91,32.095C22.466,34.071 21.563,36.389 21.29,38.821C21.291,43.083 23.641,45.25 26.541,45.25C29.44,45.25 31.791,43.083 31.791,38.821C31.517,36.389 30.614,34.071 29.17,32.095C29.032,31.88 28.794,31.75 28.539,31.75L24.541,31.75ZM26.539,29.498L21.931,15.157M19.041,13C19.041,14.243 20.048,15.25 21.291,15.25C22.533,15.25 23.541,14.243 23.541,13C23.541,11.757 22.533,10.75 21.291,10.75C20.048,10.75 19.041,11.757 19.041,13ZM10.71,17.5C10.71,18.743 11.717,19.75 12.96,19.75C14.202,19.75 15.21,18.743 15.21,17.5C15.21,16.257 14.202,15.25 12.96,15.25C11.717,15.25 10.71,16.257 10.71,17.5ZM12.96,29.5C12.96,30.743 13.967,31.75 15.21,31.75C16.452,31.75 17.459,30.743 17.459,29.5C17.459,28.257 16.452,27.25 15.21,27.25C13.967,27.25 12.96,28.257 12.96,29.5ZM26.541,16C26.541,17.243 27.548,18.25 28.791,18.25C30.033,18.25 31.041,17.243 31.041,16C31.041,14.757 30.033,13.75 28.791,13.75C27.548,13.75 26.541,14.757 26.541,16ZM35.459,13.75C35.46,14.993 36.467,16 37.71,16C38.952,16 39.96,14.993 39.96,13.75C39.96,12.507 38.952,11.5 37.71,11.5C36.467,11.5 35.46,12.507 35.46,13.75L35.459,13.75ZM40.791,22C40.791,23.243 41.798,24.25 43.041,24.25C44.283,24.25 45.291,23.243 45.291,22C45.291,20.757 44.283,19.75 43.041,19.75C41.798,19.75 40.791,20.757 40.791,22ZM33.959,28C33.959,29.243 34.967,30.25 36.209,30.25C37.452,30.25 38.459,29.243 38.459,28C38.459,26.757 37.452,25.75 36.209,25.75C34.967,25.75 33.959,26.757 33.959,28ZM25.334,25.75L21.918,25.75C21.023,25.75 20.153,26.04 19.438,26.577L17.122,28.313M15.211,17.5L16.041,17.5C17.258,17.496 18.444,17.891 19.416,18.625C20.136,19.345 21.112,19.75 22.131,19.75L23.407,19.75M24.348,22.68L28.156,18.11M26.541,29.5L36.531,15.667M33.742,19.527L35.938,21.177C36.654,21.712 37.524,22.001 38.417,22L40.789,22M30.562,23.932L34.489,26.549" style="fill:none;stroke:rgb(44,44,44);stroke-width:2px;"/>
                    </g>
                </g>
            </g>
        </g>
    </g>
</svg>
