<?xml version="1.0" encoding="UTF-8" standalone="no"?>
<!DOCTYPE svg PUBLIC "-//W3C//DTD SVG 1.1//EN" "http://www.w3.org/Graphics/SVG/1.1/DTD/svg11.dtd">
<svg width="100%" height="100%" viewBox="0 0 702 930" version="1.1" xmlns="http://www.w3.org/2000/svg" xmlns:xlink="http://www.w3.org/1999/xlink" xml:space="preserve" xmlns:serif="http://www.serif.com/" style="fill-rule:evenodd;clip-rule:evenodd;stroke-linecap:round;stroke-linejoin:round;">
    <g id="items" transform="matrix(1.096,0,0,1.096,-33.6969,-66.3608)">
        <g id="blend">
            <g id="g-root-cp_5_shape-5_hs65nn1t9ow03-fill" transform="matrix(1,0,0,1,314.303,104)">
                <g id="cp_5_shape-5_hs65nn1t9ow03-fill">
                    <g>
                        <path d="M27.697,292L15.697,292L15.697,160L27.697,160L27.697,292ZM32.297,28.191L27.697,28.191L27.697,160L15.697,160L15.697,28.191L11.017,28.191C10.237,28.191 9.747,27.341 10.137,26.661L20.86,10.448C21.256,9.849 22.136,9.851 22.53,10.451L33.177,26.661C33.577,27.341 33.087,28.191 32.297,28.191Z" style="fill:rgb(243,102,187);"/>
                    </g>
                </g>
            </g>
            <g id="g-root-cp_1_shape-1_1umt63n1t9ov0t-fill" transform="matrix(1,0,0,1,32,103.816)">
                <g id="cp_1_shape-1_1umt63n1t9ov0t-fill">
                    <g>
                        <path d="M214,328.184L46,328.183C26.118,328.183 10,312.081 10,292.199L10,292.184L250,292.184C250,312.066 233.882,328.184 214,328.184ZM254.6,28.375L250,28.375L250,160.184L10,160.184C10,140.302 26.118,124.505 46,124.505L172,124.505C213.07,124.505 238,94.374 238,55.034L238,28.374L233.32,28.374C232.54,28.374 232.05,27.524 232.44,26.844L243.163,10.632C243.559,10.033 244.439,10.034 244.833,10.635L255.48,26.844C255.88,27.525 255.39,28.375 254.6,28.375ZM250,160.184L250,292.184L10,292.184L10,160.184L250,160.184Z" style="fill:rgb(67,221,147);"/>
                    </g>
                </g>
            </g>
            <g id="g-root-cp_3_shape-3_1hbcnqb1t9owlr-fill" transform="matrix(1,0,0,1,284.303,104)">
                <g id="cp_3_shape-3_1hbcnqb1t9owlr-fill">
                    <g>
                        <path d="M27.697,292L15.697,292L15.697,160L27.697,160L27.697,292ZM32.297,28.191L27.697,28.191L27.697,160L15.697,160L15.697,28.191L11.017,28.191C10.237,28.191 9.747,27.341 10.137,26.661L20.86,10.448C21.256,9.849 22.136,9.851 22.53,10.451L33.177,26.661C33.577,27.341 33.087,28.191 32.297,28.191Z" style="fill:rgb(26,195,251);"/>
                    </g>
                </g>
            </g>
            <g id="g-root-cp_3_shape-3_1_18gc4kj1t9ov0h-fill" transform="matrix(1,0,0,1,32,386)">
                <g id="cp_3_shape-3_1_18gc4kj1t9ov0h-fill">
                    <g>
                        <path d="M214,64.321C244,64.321 268,46 268,10L280,10L280,100.306L10,100.306C10,80.423 26.118,64.321 46,64.321L214,64.321Z" style="fill:rgb(26,195,251);"/>
                    </g>
                </g>
            </g>
            <g id="g-root-cp_5_shape-5_1_zkp4bn1t9ovt7-fill" transform="matrix(1,0,0,1,320,386)">
                <g id="cp_5_shape-5_1_zkp4bn1t9ovt7-fill">
                    <g>
                        <rect x="10" y="10" width="12" height="198" style="fill:rgb(243,102,187);"/>
                    </g>
                </g>
            </g>
            <g id="g-root-cp_3_shape-3_2_8yeko31t9ovt9-fill" transform="matrix(1,0,0,1,32,476)">
                <g id="cp_3_shape-3_2_8yeko31t9ovt9-fill">
                    <g>
                        <path d="M280,10L280,117.982L10,117.982L10,10L280,10ZM244,154.008L46,154.008C26.118,154.008 10,137.906 10,118.023L10,118.008L280,118.008C280,137.89 263.882,154.008 244,154.008Z" style="fill:rgb(26,195,251);"/>
                    </g>
                </g>
            </g>
            <g id="g-root-cp_5_shape-5_2_4il2jn1t9owlj-fill" transform="matrix(1,0,0,1,32,584)">
                <g id="cp_5_shape-5_2_4il2jn1t9owlj-fill">
                    <g>
                        <path d="M244,64.137C274,64.137 298,45.878 298,10L310,10L310,100L10,100C10,80.185 26.118,64.137 46,64.137L244,64.137Z" style="fill:rgb(243,102,187);"/>
                    </g>
                </g>
            </g>
            <g id="g-root-cp_5_shape-5_3_1lt1l431t9ovlt-fill" transform="matrix(1,0,0,1,32,674)">
                <g id="cp_5_shape-5_3_1lt1l431t9ovlt-fill">
                    <g>
                        <path d="M310,10L310,118L10,118L10,10L310,10ZM274,154.008L46,154.008C26.118,154.008 10,137.882 10,118L310,118C310,137.882 293.882,154.008 274,154.008Z" style="fill:rgb(243,102,187);"/>
                    </g>
                </g>
            </g>
            <g id="g-root-cp_2_shape-2_zly2hv1t9oxzf-fill" transform="matrix(1,0,0,1,404.378,103.816)">
                <g id="cp_2_shape-2_zly2hv1t9oxzf-fill">
                    <g>
                        <path d="M51.622,352.184L219.622,352.184C239.504,352.184 255.622,336.081 255.622,316.199L255.622,316.184L15.622,316.184C15.622,336.066 31.74,352.184 51.622,352.184ZM11.022,28.375L15.622,28.375L15.622,160.184L255.622,160.184C255.622,140.302 239.505,124.505 219.623,124.505L93.622,124.505C52.552,124.505 27.622,94.374 27.622,55.034L27.622,28.374L32.302,28.374C33.082,28.374 33.572,27.524 33.182,26.844L22.459,10.632C22.063,10.033 21.184,10.034 20.79,10.635L10.142,26.844C9.742,27.525 10.232,28.375 11.022,28.375ZM15.622,160.184L15.622,316.184L255.622,316.184L255.622,160.184L15.622,160.184Z" style="fill:rgb(166,218,55);"/>
                    </g>
                </g>
            </g>
            <g id="g-root-cp_4_shape-4_mb417n1t9owel-fill" transform="matrix(1,0,0,1,374.383,104)">
                <g id="cp_4_shape-4_mb417n1t9owel-fill">
                    <g>
                        <path d="M15.623,316L27.623,316L27.623,160L15.623,160L15.623,316ZM11.022,28.191L15.622,28.191L15.622,160L27.622,160L27.622,28.191L32.302,28.191C33.082,28.191 33.572,27.341 33.182,26.661L22.459,10.448C22.063,9.849 21.184,9.851 20.79,10.451L10.142,26.661C9.742,27.341 10.232,28.191 11.022,28.191Z" style="fill:rgb(135,105,253);"/>
                    </g>
                </g>
            </g>
            <g id="g-root-cp_6_shape-6_8zniub1t9oxzj-fill" transform="matrix(1,0,0,1,344.383,104)">
                <g id="cp_6_shape-6_8zniub1t9oxzj-fill">
                    <g>
                        <path d="M15.623,316L27.623,316L27.623,160L15.623,160L15.623,316ZM11.022,28.191L15.622,28.191L15.622,160L27.622,160L27.622,28.191L32.302,28.191C33.082,28.191 33.572,27.341 33.182,26.661L22.459,10.448C22.063,9.849 21.184,9.851 20.79,10.451L10.142,26.661C9.742,27.341 10.232,28.191 11.022,28.191Z" style="fill:rgb(251,103,98);"/>
                    </g>
                </g>
            </g>
            <g id="g-root-cp_4_shape-4_1_4kghsz1t9ovm1-fill" transform="matrix(1,0,0,1,380,410)">
                <g id="cp_4_shape-4_1_4kghsz1t9ovm1-fill">
                    <g>
                        <path d="M76,64.321C46,64.321 22,46 22,10L10,10L10,100.306L280,100.306C280,80.423 263.882,64.321 244,64.321L76,64.321Z" style="fill:rgb(135,105,253);"/>
                    </g>
                </g>
            </g>
            <g id="g-root-cp_4_shape-4_2_1luajab1t9oxs3-fill" transform="matrix(1,0,0,1,380,500)">
                <g id="cp_4_shape-4_2_1luajab1t9oxs3-fill">
                    <g>
                        <path d="M10,10L10,118L280,118L280,10L10,10ZM46,154L244,154C263.882,154 280,137.898 280,118.016L280,118L10,118C10,137.882 26.118,154 46,154Z" style="fill:rgb(135,105,253);"/>
                    </g>
                </g>
            </g>
            <g id="g-root-cp_6_shape-6_1_18jgi031t9ow79-fill" transform="matrix(1,0,0,1,350,410)">
                <g id="cp_6_shape-6_1_18jgi031t9ow79-fill">
                    <g>
                        <rect x="10" y="10" width="12" height="198" style="fill:rgb(251,103,98);"/>
                    </g>
                </g>
            </g>
            <g id="g-root-cp_6_shape-6_2_v7zzmr1t9oxs7-fill" transform="matrix(1,0,0,1,350,608)">
                <g id="cp_6_shape-6_2_v7zzmr1t9oxs7-fill">
                    <g>
                        <path d="M76,64.321C46,64.321 22,46 22,10L10,10L10,100.306L310,100.306C310,80.423 293.882,64.321 274,64.321L76,64.321Z" style="fill:rgb(251,103,98);"/>
                    </g>
                </g>
            </g>
            <g id="g-root-cp_6_shape-6_3_dhcg831t9owzl-fill" transform="matrix(1,0,0,1,350,698)">
                <g id="cp_6_shape-6_3_dhcg831t9owzl-fill">
                    <g>
                        <path d="M10,10L10,118L310,118L310,10L10,10ZM46,154L274,154C293.882,154 310,137.898 310,118.016L310,118L10,118C10,137.882 26.118,154 46,154Z" style="fill:rgb(251,103,98);"/>
                    </g>
                </g>
            </g>
            <g id="g-root-tx_simplifi_18nttlv1t9rqbo-fill" transform="matrix(1,0,0,1,464,362)">
                <g id="tx_simplifi_18nttlv1t9rqbo-fill">
                    <g>
                        <g>
                            <g transform="matrix(1,0,0,1,24.12,31.2)">
                                <g transform="matrix(15,0,0,15,40.8398,0)">
                                </g>
                                <g transform="matrix(15,0,0,15,45.0073,0)">
                                </g>
                                <text x="0px" y="0px" style="font-family:'ArialMT', 'Arial', sans-serif;font-size:15px;fill:rgb(44,44,44);">Simpliﬁes SMS</text>
                            </g>
                            <g transform="matrix(1,0,0,1,14.03,49.2)">
                                <text x="0px" y="0px" style="font-family:'ArialMT', 'Arial', sans-serif;font-size:15px;fill:rgb(44,44,44);">management with</text>
                            </g>
                            <g transform="matrix(1,0,0,1,14.52,67.2)">
                                <text x="0px" y="0px" style="font-family:'ArialMT', 'Arial', sans-serif;font-size:15px;fill:rgb(44,44,44);">intuitive interface.</text>
                            </g>
                        </g>
                    </g>
                </g>
            </g>
            <g id="g-root-tx_ensuresm_1ut1wyr1t9oxe5-fill" transform="matrix(1,0,0,1,62,338)">
                <g id="tx_ensuresm_1ut1wyr1t9oxe5-fill">
                    <g>
                        <g>
                            <g transform="matrix(1,0,0,1,14.65,31.2)">
                                <text x="0px" y="0px" style="font-family:'ArialMT', 'Arial', sans-serif;font-size:15px;fill:rgb(44,44,44);">Ensures messages reach</text>
                            </g>
                            <g transform="matrix(1,0,0,1,19.73,49.2)">
                                <text x="0px" y="0px" style="font-family:'ArialMT', 'Arial', sans-serif;font-size:15px;fill:rgb(44,44,44);">recipients promptly and</text>
                            </g>
                            <g transform="matrix(1,0,0,1,72.8,67.2)">
                                <text x="0px" y="0px" style="font-family:'ArialMT', 'Arial', sans-serif;font-size:15px;fill:rgb(44,44,44);">reliably<tspan x="46.406px " y="0px ">.</tspan></text>
                            </g>
                        </g>
                    </g>
                </g>
            </g>
            <g id="g-root-tx_userfrie_qvauxv1t9rqir-fill" transform="matrix(1,0,0,1,464,302)">
                <g id="tx_userfrie_qvauxv1t9rqir-fill">
                    <g>
                        <g>
                            <g transform="matrix(1,0,0,1,12.8,34)">
                                <text x="0px" y="0px" style="font-family:'Arial-BoldMT', 'Arial', sans-serif;font-weight:700;font-size:20px;fill:rgb(44,44,44);">User-Friendly</text>
                            </g>
                            <g transform="matrix(1,0,0,1,25.12,58)">
                                <text x="0px" y="0px" style="font-family:'Arial-BoldMT', 'Arial', sans-serif;font-weight:700;font-size:20px;fill:rgb(44,44,44);">Dashboard</text>
                            </g>
                        </g>
                    </g>
                </g>
            </g>
            <g transform="matrix(1,0,0,1,103.3,558)">
                <g id="g-root-tx_globalco_1cvj5lv1t9qbkf-fill">
                    <g id="tx_globalco_1cvj5lv1t9qbkf-fill">
                        <g>
                            <g>
                                <text x="0px" y="0px" style="font-family:'Arial-BoldMT', 'Arial', sans-serif;font-weight:700;font-size:20px;fill:rgb(44,44,44);">Global Coverage</text>
                            </g>
                        </g>
                    </g>
                </g>
            </g>
            <g id="g-root-tx_extendss_htf3tv1t9qcco-fill" transform="matrix(1,0,0,1,59,560)">
                <g id="tx_extendss_htf3tv1t9qcco-fill">
                    <g>
                        <g>
                            <g transform="matrix(1,0,0,1,16.28,28.2)">
                                <text x="0px" y="0px" style="font-family:'ArialMT', 'Arial', sans-serif;font-size:15px;fill:rgb(44,44,44);">Extends SMS reach worldwide</text>
                            </g>
                            <g transform="matrix(1,0,0,1,23.67,46.2)">
                                <text x="0px" y="0px" style="font-family:'ArialMT', 'Arial', sans-serif;font-size:15px;fill:rgb(44,44,44);">for broader communication.</text>
                            </g>
                        </g>
                    </g>
                </g>
            </g>
            <g transform="matrix(1,0,0,1,441.66,582)">
                <g id="g-root-tx_scalable_1usffvn1t9t5hl-fill">
                    <g id="tx_scalable_1usffvn1t9t5hl-fill">
                        <g>
                            <g>
                                <text x="0px" y="0px" style="font-family:'Arial-BoldMT', 'Arial', sans-serif;font-weight:700;font-size:20px;fill:rgb(44,44,44);">Scalable Solutions</text>
                            </g>
                        </g>
                    </g>
                </g>
            </g>
            <g transform="matrix(1,0,0,1,79.08,336)">
                <g id="g-root-tx_highdeli_v9vew31t9owsk-fill">
                    <g id="tx_highdeli_v9vew31t9owsk-fill">
                        <g>
                            <g>
                                <text x="0px" y="0px" style="font-family:'Arial-BoldMT', 'Arial', sans-serif;font-weight:700;font-size:20px;fill:rgb(44,44,44);">High Delivery Rate</text>
                            </g>
                        </g>
                    </g>
                </g>
            </g>
            <g id="g-root-tx_adaptsto_zqxv6r1t9t342-fill" transform="matrix(1,0,0,1,407,584)">
                <g id="tx_adaptsto_zqxv6r1t9t342-fill">
                    <g>
                        <g>
                            <g transform="matrix(1,0,0,1,16.38,28.2)">
                                <text x="0px" y="0px" style="font-family:'ArialMT', 'Arial', sans-serif;font-size:15px;fill:rgb(44,44,44);">Adapts to growing SMS needs</text>
                            </g>
                            <g transform="matrix(1,0,0,1,42.43,46.2)">
                                <g transform="matrix(15,0,0,15,30.8423,0)">
                                </g>
                                <g transform="matrix(15,0,0,15,35.0098,0)">
                                </g>
                                <text x="0px" y="0px" style="font-family:'ArialMT', 'Arial', sans-serif;font-size:15px;fill:rgb(44,44,44);">with ﬂexible solutions.</text>
                            </g>
                        </g>
                    </g>
                </g>
            </g>
            <g transform="matrix(1,0,0,1,108.42,756)">
                <g id="g-root-tx_dedicate_zitp2b1t9rp51-fill">
                    <g id="tx_dedicate_zitp2b1t9rp51-fill">
                        <g>
                            <g>
                                <text x="0px" y="0px" style="font-family:'Arial-BoldMT', 'Arial', sans-serif;font-weight:700;font-size:20px;fill:rgb(44,44,44);">Dedicated Support</text>
                            </g>
                        </g>
                    </g>
                </g>
            </g>
            <g id="g-root-tx_provides_1um6p0j1t9rqiu-fill" transform="matrix(1,0,0,1,74,758)">
                <g id="tx_provides_1um6p0j1t9rqiu-fill">
                    <g>
                        <g>
                            <g transform="matrix(1,0,0,1,15.02,28.2)">
                                <text x="0px" y="0px" style="font-family:'ArialMT', 'Arial', sans-serif;font-size:15px;fill:rgb(44,44,44);">Provides expert assistance for</text>
                            </g>
                            <g transform="matrix(1,0,0,1,27.45,46.2)">
                                <text x="0px" y="0px" style="font-family:'ArialMT', 'Arial', sans-serif;font-size:15px;fill:rgb(44,44,44);">seamless SMS operations.</text>
                            </g>
                        </g>
                    </g>
                </g>
            </g>
            <g transform="matrix(1,0,0,1,421.02,780)">
                <g id="g-root-tx_secureco_14156oz1t982do-fill">
                    <g id="tx_secureco_14156oz1t982do-fill">
                        <g>
                            <g>
                                <text x="0px" y="0px" style="font-family:'Arial-BoldMT', 'Arial', sans-serif;font-weight:700;font-size:20px;fill:rgb(44,44,44);">Secure &amp; Compliant</text>
                            </g>
                        </g>
                    </g>
                </g>
            </g>
            <g id="g-root-tx_ensuress_40lr71t980st-fill" transform="matrix(1,0,0,1,404,782)">
                <g id="tx_ensuress_40lr71t980st-fill">
                    <g>
                        <g>
                            <g transform="matrix(1,0,0,1,17.64,28.2)">
                                <text x="0px" y="0px" style="font-family:'ArialMT', 'Arial', sans-serif;font-size:15px;fill:rgb(44,44,44);">Ensures SMS security and</text>
                            </g>
                            <g transform="matrix(1,0,0,1,28.03,46.2)">
                                <text x="0px" y="0px" style="font-family:'ArialMT', 'Arial', sans-serif;font-size:15px;fill:rgb(44,44,44);">regulatory compliance.</text>
                            </g>
                        </g>
                    </g>
                </g>
            </g>
            <g id="g-root-cp_5_shape-5_hs65nn1t9ow03-stroke" transform="matrix(1,0,0,1,314.303,104)">
                <g id="cp_5_shape-5_hs65nn1t9ow03-stroke">
                    <g>
                        <path d="M15.697,160L15.697,292M27.697,292L27.697,160M15.697,160L15.697,28.191L11.017,28.191C10.237,28.191 9.747,27.341 10.137,26.661L20.86,10.448C21.256,9.849 22.136,9.851 22.53,10.451L33.177,26.661C33.577,27.341 33.087,28.191 32.297,28.191L27.697,28.191L27.697,160" style="fill:none;stroke:rgb(44,44,44);stroke-width:2px;"/>
                    </g>
                </g>
            </g>
            <g id="g-root-cp_1_shape-1_1umt63n1t9ov0t-stroke" transform="matrix(1,0,0,1,32,103.816)">
                <g id="cp_1_shape-1_1umt63n1t9ov0t-stroke">
                    <g>
                        <path d="M10,160.184C10,140.301 26.118,124.321 46,124.321L172,124.321C213.07,124.321 238,94.191 238,54.851L238,28.191L233.32,28.191C232.54,28.191 232.05,27.341 232.44,26.661L243.163,10.448C243.559,9.849 244.439,9.851 244.833,10.451L255.48,26.661C255.88,27.341 255.39,28.191 254.6,28.191L250,28.191L250,160.184M250,292.184C250,312.066 233.882,328.191 214,328.191L46,328.191C26.118,328.191 10,312.081 10,292.199L10,292.184M250,292.184L250,160.184M10,160.184L10,292.184" style="fill:none;stroke:rgb(44,44,44);stroke-width:2px;"/>
                    </g>
                </g>
            </g>
            <g id="g-root-cp_3_shape-3_1hbcnqb1t9owlr-stroke" transform="matrix(1,0,0,1,284.303,104)">
                <g id="cp_3_shape-3_1hbcnqb1t9owlr-stroke">
                    <g>
                        <path d="M15.697,160L15.697,292M27.697,292L27.697,160M15.697,160L15.697,28.191L11.017,28.191C10.237,28.191 9.747,27.341 10.137,26.661L20.86,10.448C21.256,9.849 22.136,9.851 22.53,10.451L33.177,26.661C33.577,27.341 33.087,28.191 32.297,28.191L27.697,28.191L27.697,160" style="fill:none;stroke:rgb(44,44,44);stroke-width:2px;"/>
                    </g>
                </g>
            </g>
            <g id="g-root-cp_3_shape-3_1_18gc4kj1t9ov0h-stroke" transform="matrix(1,0,0,1,32,386)">
                <g id="cp_3_shape-3_1_18gc4kj1t9ov0h-stroke">
                    <g>
                        <path d="M268,10C268,46 244,64.321 214,64.321L46,64.321C26.118,64.321 10,80.423 10,100.306M280,100.306L280,10" style="fill:none;stroke:rgb(44,44,44);stroke-width:2px;"/>
                    </g>
                </g>
            </g>
            <g id="g-root-cp_5_shape-5_1_zkp4bn1t9ovt7-stroke" transform="matrix(1,0,0,1,320,386)">
                <g id="cp_5_shape-5_1_zkp4bn1t9ovt7-stroke">
                    <g>
                        <path d="M10,10L10,208M22,208L22,10" style="fill:none;stroke:rgb(44,44,44);stroke-width:2px;"/>
                    </g>
                </g>
            </g>
            <g id="g-root-cp_3_shape-3_2_8yeko31t9ovt9-stroke" transform="matrix(1,0,0,1,32,476)">
                <g id="cp_3_shape-3_2_8yeko31t9ovt9-stroke">
                    <g>
                        <path d="M280,117.982L280,10M10,10L10,118M280,118.008C280,137.89 263.882,154.008 244,154.008L46,154.008C26.118,154.008 10,137.906 10,118.023L10,118.008" style="fill:none;stroke:rgb(44,44,44);stroke-width:2px;"/>
                    </g>
                </g>
            </g>
            <g id="g-root-cp_5_shape-5_2_4il2jn1t9owlj-stroke" transform="matrix(1,0,0,1,32,584)">
                <g id="cp_5_shape-5_2_4il2jn1t9owlj-stroke">
                    <g>
                        <path d="M298,10C298,45.878 274,64.137 244,64.137L46,64.137C26.118,64.137 10,80.185 10,100M310,100L310,10" style="fill:none;stroke:rgb(44,44,44);stroke-width:2px;"/>
                    </g>
                </g>
            </g>
            <g id="g-root-cp_5_shape-5_3_1lt1l431t9ovlt-stroke" transform="matrix(1,0,0,1,32,674)">
                <g id="cp_5_shape-5_3_1lt1l431t9ovlt-stroke">
                    <g>
                        <path d="M310,118L310,10M10,10L10,118M310,118C310,137.882 293.882,154.008 274,154.008L46,154.008C26.118,154.008 10,137.882 10,118" style="fill:none;stroke:rgb(44,44,44);stroke-width:2px;"/>
                    </g>
                </g>
            </g>
            <g id="g-root-cp_2_shape-2_zly2hv1t9oxzf-stroke" transform="matrix(1,0,0,1,404.378,103.816)">
                <g id="cp_2_shape-2_zly2hv1t9oxzf-stroke">
                    <g>
                        <path d="M255.622,160.184C255.622,140.301 239.505,124.321 219.623,124.321L93.622,124.321C52.552,124.321 27.622,94.191 27.622,54.851L27.622,28.191L32.302,28.191C33.082,28.191 33.572,27.341 33.182,26.661L22.459,10.448C22.063,9.849 21.184,9.851 20.79,10.451L10.142,26.661C9.742,27.341 10.232,28.191 11.022,28.191L15.622,28.191L15.622,160.184M15.622,316.184C15.622,336.066 31.74,352.184 51.622,352.184L219.623,352.183C239.505,352.183 255.622,336.081 255.622,316.199L255.622,316.184M15.622,316.184L15.622,160.184M255.622,160.184L255.622,316.184" style="fill:none;stroke:rgb(44,44,44);stroke-width:2px;"/>
                    </g>
                </g>
            </g>
            <g id="g-root-cp_4_shape-4_mb417n1t9owel-stroke" transform="matrix(1,0,0,1,374.383,104)">
                <g id="cp_4_shape-4_mb417n1t9owel-stroke">
                    <g>
                        <path d="M27.622,160L27.622,316M15.622,316L15.622,160M27.622,160L27.622,28.191L32.302,28.191C33.082,28.191 33.572,27.341 33.182,26.661L22.459,10.448C22.063,9.849 21.184,9.851 20.79,10.451L10.142,26.661C9.742,27.341 10.232,28.191 11.022,28.191L15.622,28.191L15.622,160" style="fill:none;stroke:rgb(44,44,44);stroke-width:2px;"/>
                    </g>
                </g>
            </g>
            <g id="g-root-cp_6_shape-6_8zniub1t9oxzj-stroke" transform="matrix(1,0,0,1,344.383,104)">
                <g id="cp_6_shape-6_8zniub1t9oxzj-stroke">
                    <g>
                        <path d="M27.622,160L27.622,316M15.622,316L15.622,160M27.622,160L27.622,28.191L32.302,28.191C33.082,28.191 33.572,27.341 33.182,26.661L22.459,10.448C22.063,9.849 21.184,9.851 20.79,10.451L10.142,26.661C9.742,27.341 10.232,28.191 11.022,28.191L15.622,28.191L15.622,160" style="fill:none;stroke:rgb(44,44,44);stroke-width:2px;"/>
                    </g>
                </g>
            </g>
            <g id="g-root-cp_4_shape-4_1_4kghsz1t9ovm1-stroke" transform="matrix(1,0,0,1,380,410)">
                <g id="cp_4_shape-4_1_4kghsz1t9ovm1-stroke">
                    <g>
                        <path d="M22,10C22,46 46,64.321 76,64.321L244,64.321C263.882,64.321 280,80.423 280,100.306M10,100.306L10,10" style="fill:none;stroke:rgb(44,44,44);stroke-width:2px;"/>
                    </g>
                </g>
            </g>
            <g id="g-root-cp_4_shape-4_2_1luajab1t9oxs3-stroke" transform="matrix(1,0,0,1,380,500)">
                <g id="cp_4_shape-4_2_1luajab1t9oxs3-stroke">
                    <g>
                        <path d="M10,118L10,10M280,10L280,118M10,118C10,137.882 26.118,154.008 46,154.008L244,154.008C263.882,154.008 280,137.898 280,118.016L280,118" style="fill:none;stroke:rgb(44,44,44);stroke-width:2px;"/>
                    </g>
                </g>
            </g>
            <g id="g-root-cp_6_shape-6_1_18jgi031t9ow79-stroke" transform="matrix(1,0,0,1,350,410)">
                <g id="cp_6_shape-6_1_18jgi031t9ow79-stroke">
                    <g>
                        <path d="M22,10L22,208M10,208L10,10" style="fill:none;stroke:rgb(44,44,44);stroke-width:2px;"/>
                    </g>
                </g>
            </g>
            <g id="g-root-cp_6_shape-6_2_v7zzmr1t9oxs7-stroke" transform="matrix(1,0,0,1,350,608)">
                <g id="cp_6_shape-6_2_v7zzmr1t9oxs7-stroke">
                    <g>
                        <path d="M22,10C22,46 46,64.321 76,64.321L274,64.321C293.882,64.321 310,80.423 310,100.306M10,100.306L10,10" style="fill:none;stroke:rgb(44,44,44);stroke-width:2px;"/>
                    </g>
                </g>
            </g>
            <g id="g-root-cp_6_shape-6_3_dhcg831t9owzl-stroke" transform="matrix(1,0,0,1,350,698)">
                <g id="cp_6_shape-6_3_dhcg831t9owzl-stroke">
                    <g>
                        <path d="M10,118L10,10M310,10L310,118M10,118C10,137.882 26.118,154.008 46,154.008L274,154.008C293.882,154.008 310,137.898 310,118.016L310,118" style="fill:none;stroke:rgb(44,44,44);stroke-width:2px;"/>
                    </g>
                </g>
            </g>
            <g id="g-root-ic_shar_1cxekv71t9qakp-stroke" transform="matrix(1,0,0,1,143,464)">
                <g id="ic_shar_1cxekv71t9qakp-stroke">
                    <g>
                        <path d="M31,52.98C20.068,52.446 11.379,43.604 11.036,32.664C10.692,21.724 18.809,12.355 29.686,11.136C40.563,9.916 50.553,17.256 52.64,28M11.32,28.34L22.42,28.34C23.884,28.349 25.283,28.947 26.3,30L28.3,32C30.364,34.048 30.461,37.355 28.52,39.52L26,42.32C25.126,43.344 24.663,44.655 24.7,46L24.7,51.74M47.08,17.4L36.5,17.4C34.236,17.4 32.4,19.236 32.4,21.5C32.4,23.764 34.236,25.6 36.5,25.6L37.28,25.6C39.105,25.591 40.814,26.491 41.84,28L44.64,32.2M33,46.5C33,48.985 35.015,51 37.5,51C39.985,51 42,48.985 42,46.5C42,44.015 39.985,42 37.5,42C35.015,42 33,44.015 33,46.5M48,52.5C48,54.985 50.015,57 52.5,57C54.985,57 57,54.985 57,52.5C57,50.015 54.985,48 52.5,48C50.015,48 48,50.015 48,52.5M48,37.5C48,39.985 50.015,42 52.5,42C54.985,42 57,39.985 57,37.5C57,35.015 54.985,33 52.5,33C50.015,33 48,35.015 48,37.5M41.34,44.18L48.66,39.8M41.68,48.18L48.32,50.82" style="fill:none;stroke:rgb(44,44,44);stroke-width:2px;"/>
                    </g>
                </g>
            </g>
            <g id="g-root-ic_grow_1hjgtur1t9t2wz-stroke" transform="matrix(1,0,0,1,491,488)">
                <g id="ic_grow_1hjgtur1t9t2wz-stroke">
                    <g>
                        <path d="M36.982,11C36.456,24.896 25.024,35 11,35M33,15L37,11L41,15M55.498,15.904C55.822,15.755 56.202,15.79 56.494,15.996C56.785,16.202 56.945,16.548 56.912,16.904C56.598,20.74 55.148,29.556 48.49,29.556C45.279,29.497 42.707,26.877 42.707,23.665C42.707,20.453 45.279,17.833 48.49,17.774C50.928,17.626 53.311,16.99 55.498,15.904ZM50.954,22.346C47.626,23.639 45.038,26.335 43.882,29.714C43.627,30.449 43.498,31.222 43.5,32L43.5,57M11,57L57,57M11.5,52C11.5,52 15.5,52 15.5,57C15.5,57 15.5,52 19.5,52M29.5,53C30.094,51.276 31.679,50.088 33.5,50M28.5,43.928C29.672,45.099 29.672,46.999 28.501,48.171C27.329,49.342 25.43,49.343 24.258,48.172C23.23,46.544 22.459,44.766 21.974,42.902C21.861,42.546 21.956,42.156 22.22,41.892C22.484,41.628 22.874,41.533 23.23,41.646C25.093,42.132 26.871,42.901 28.5,43.928L28.5,43.928ZM28.4,48.274C29.12,49.383 29.502,50.678 29.5,52L29.5,57M28.474,34.466C28.124,34.52 27.829,34.755 27.698,35.084C27.567,35.413 27.619,35.786 27.836,36.066C29.836,38.616 34.414,43.466 38.74,40.698C40.935,39.299 41.581,36.386 40.182,34.191C38.783,31.995 35.869,31.35 33.674,32.75C32.07,33.657 30.303,34.24 28.474,34.466L28.474,34.466ZM34.32,36.692C37.122,36.134 40.027,36.84 42.26,38.622C42.747,39.009 43.166,39.475 43.5,40" style="fill:none;stroke:rgb(44,44,44);stroke-width:2px;"/>
                    </g>
                </g>
            </g>
            <g id="g-root-ic_grap_hrjokj1t9t4w5-stroke" transform="matrix(1,0,0,1,506,242)">
                <g id="ic_grap_hrjokj1t9t4w5-stroke">
                    <g>
                        <path d="M37,24C37,27.866 40.134,31 44,31C47.866,31 51,27.866 51,24C51,20.134 47.866,17 44,17C40.134,17 37,20.134 37,24M17,51L21.4,44.834C21.556,44.615 21.794,44.469 22.06,44.427C22.325,44.386 22.597,44.453 22.812,44.614L25.2,46.4C25.642,46.731 26.269,46.642 26.6,46.2L32,39M45.502,17.162L44,24L50.948,23.15M40,37L50,37C50,37 51,37 51,38L51,50C51,50 51,51 50,51L40,51C40,51 39,51 39,50L39,38C39,38 39,37 40,37M43,43L47,43M43,47L45,47M18,17L28,17C28,17 29,17 29,18L29,30C29,30 29,31 28,31L18,31C18,31 17,31 17,30L17,18C17,18 17,17 18,17M21,21L25,21M21,25L23,25M13,11L55,11C55,11 57,11 57,13L57,55C57,55 57,57 55,57L13,57C13,57 11,57 11,55L11,13C11,13 11,11 13,11" style="fill:none;stroke:rgb(44,44,44);stroke-width:2px;"/>
                    </g>
                </g>
            </g>
            <g id="g-root-ic_noti_zrkc9v1t9ov0m-stroke" transform="matrix(1,0,0,1,128,242)">
                <g id="ic_noti_zrkc9v1t9ov0m-stroke">
                    <g>
                        <path d="M37,46.5L37,53C37,55.209 35.209,57 33,57L15,57C12.791,57 11,55.209 11,53L11,15C11,12.791 12.791,11 15,11L33,11C35.209,11 37,12.791 37,15L37,18M37.002,49L11.002,49M24,52C24.276,52 24.5,52.224 24.5,52.5C24.5,52.776 24.276,53 24,53C23.724,53 23.5,52.776 23.5,52.5C23.5,52.224 23.724,52 24,52M18.002,22L40.002,22C40.002,22 41.002,22 41.002,23L41.002,29C41.002,29 41.002,30 40.002,30L18.002,30C18.002,30 17.002,30 17.002,29L17.002,23C17.002,23 17.002,22 18.002,22M21.998,34.5L43.998,34.5C43.998,34.5 44.998,34.5 44.998,35.5L44.998,41.5C44.998,41.5 44.998,42.5 43.998,42.5L21.998,42.5C21.998,42.5 20.998,42.5 20.998,41.5L20.998,35.5C20.998,35.5 20.998,34.5 21.998,34.5M46.998,22L52.998,22M48.998,30L54.998,30M50.998,38.5L56.998,38.5" style="fill:none;stroke:rgb(44,44,44);stroke-width:2px;"/>
                    </g>
                </g>
            </g>
            <g id="g-root-ic_2_qp242r1t9roxz-stroke" transform="matrix(1,0,0,1,158,662)">
                <g id="ic_2_qp242r1t9roxz-stroke">
                    <g>
                        <path d="M17.5,56.5L13.5,51.7C12.3,50.1 11.5,48.1 11.5,46.1L11.5,36.5C11.5,34.9 12.9,33.5 14.5,33.5C16.1,33.5 17.5,34.9 17.5,36.5L17.5,43.5M26.6,56.5L26.6,50.5C26.6,48.7 26,46.9 25,45.5L22.8,42.1C22,40.7 20.2,40.3 18.8,41.3C17.6,42.1 17.2,43.7 17.8,44.9L20.6,49.3M50.5,56.5L54.5,51.7C55.7,50.1 56.5,48.1 56.5,46.1L56.5,36.5C56.5,34.9 55.1,33.5 53.5,33.5C51.9,33.5 50.5,34.9 50.5,36.5L50.5,43.5M41.4,56.5L41.4,50.5C41.4,48.7 42,46.9 43,45.5L45.2,42.1C46,40.7 47.8,40.3 49.2,41.3C50.4,42.1 50.8,43.7 50.2,44.9L47.4,49.3M34,25.5C37.866,25.5 41,22.366 41,18.5C41,14.634 37.866,11.5 34,11.5C30.134,11.5 27,14.634 27,18.5C27,22.366 30.134,25.5 34,25.5ZM40.2,39.1L51.6,27.7C52.8,26.5 52.8,24.7 51.6,23.5C50.4,22.3 48.6,22.3 47.4,23.5L40,30.9C39.4,31.5 38.6,31.7 37.8,31.7L30.2,31.7C29.4,31.7 28.6,31.3 28,30.9L20.6,23.5C19.4,22.3 17.6,22.3 16.4,23.5C15.2,24.7 15.2,26.5 16.4,27.7L27.8,39.1" style="fill:none;stroke:rgb(44,44,44);stroke-width:2px;"/>
                    </g>
                </g>
            </g>
            <g id="g-root-ic_1_1430lyb1t981dy-stroke" transform="matrix(1,0,0,1,476,686)">
                <g id="ic_1_1430lyb1t981dy-stroke">
                    <g>
                        <path d="M44,31C44,36.523 39.523,41 34,41C28.477,41 24,36.523 24,31C24,25.477 28.477,21 34,21M30,30L33.24,32.43C33.666,32.749 34.267,32.679 34.608,32.27L44,21M13,17.55L13,32.824C13.12,43.162 19.687,52.324 29.438,55.76L31.68,56.588C33.178,57.138 34.822,57.138 36.32,56.588L38.562,55.76C48.313,52.324 54.88,43.162 55,32.824L55,17.55C54.996,16.323 54.261,15.217 53.132,14.738C47.074,12.209 40.565,10.938 34,11C27.435,10.938 20.926,12.209 14.868,14.738C13.739,15.217 13.004,16.323 13,17.55Z" style="fill:none;stroke:rgb(44,44,44);stroke-width:2px;"/>
                    </g>
                </g>
            </g>
        </g>
    </g>
</svg>
