<?xml version="1.0" encoding="UTF-8" standalone="no"?>
<!DOCTYPE svg PUBLIC "-//W3C//DTD SVG 1.1//EN" "http://www.w3.org/Graphics/SVG/1.1/DTD/svg11.dtd">
<svg width="100%" height="100%" viewBox="0 0 708 798" version="1.1" xmlns="http://www.w3.org/2000/svg" xmlns:xlink="http://www.w3.org/1999/xlink" xml:space="preserve" xmlns:serif="http://www.serif.com/" style="fill-rule:evenodd;clip-rule:evenodd;stroke-linecap:round;stroke-linejoin:round;">
    <g id="items" transform="matrix(1.12379,0,0,1.12379,-43.8535,-53.1251)">
        <g id="blend">
            <g id="g-root-cp_1_shape-1_1ltn0j11b81897-fill" transform="matrix(1,0,0,1,35.5,55.8164)">
                <g id="cp_1_shape-1_1ltn0j11b81897-fill">
                    <g>
                        <path d="M214,316.184L46,316.183C26.118,316.183 10,300.081 10,280.199L10,280.184L250,280.184C250,300.066 233.882,316.184 214,316.184ZM254.6,28.375L250,28.375L250,160.184L10,160.184C10,140.302 26.118,124.505 46,124.505L172,124.505C213.07,124.505 238,94.374 238,55.034L238,28.374L233.32,28.374C232.54,28.374 232.05,27.524 232.44,26.844L243.163,10.632C243.559,10.033 244.439,10.034 244.833,10.635L255.48,26.844C255.88,27.525 255.39,28.375 254.6,28.375ZM250,160.184L250,280.184L10,280.184L10,160.184L250,160.184Z" style="fill:rgb(251,103,98);"/>
                    </g>
                </g>
            </g>
            <g id="g-root-cp_3_shape-3_hvvyi51b819u5-fill" transform="matrix(1,0,0,1,35,326)">
                <g id="cp_3_shape-3_hvvyi51b819u5-fill">
                    <g>
                        <path d="M214,64.321C244,64.321 268,46 268,10L280,10L280,100.306L10,100.306C10,80.423 26.118,64.321 46,64.321L214,64.321Z" style="fill:rgb(67,221,147);"/>
                    </g>
                </g>
            </g>
            <g id="g-root-cp_3_shape-3_1_1qapgtp1b819n3-fill" transform="matrix(1,0,0,1,287.303,56)">
                <g id="cp_3_shape-3_1_1qapgtp1b819n3-fill">
                    <g>
                        <path d="M27.697,280L15.697,280L15.697,160L27.697,160L27.697,280ZM32.297,28.191L27.697,28.191L27.697,160L15.697,160L15.697,28.191L11.017,28.191C10.237,28.191 9.747,27.341 10.137,26.661L20.86,10.448C21.256,9.849 22.136,9.851 22.53,10.451L33.177,26.661C33.577,27.341 33.087,28.191 32.297,28.191Z" style="fill:rgb(67,221,147);"/>
                    </g>
                </g>
            </g>
            <g id="g-root-cp_5_shape-5_18k1xf11b818uh-fill" transform="matrix(1,0,0,1,317.303,56)">
                <g id="cp_5_shape-5_18k1xf11b818uh-fill">
                    <g>
                        <path d="M27.697,280L15.697,280L15.697,160L27.697,160L27.697,280ZM32.297,28.191L27.697,28.191L27.697,160L15.697,160L15.697,28.191L11.017,28.191C10.237,28.191 9.747,27.341 10.137,26.661L20.86,10.448C21.256,9.849 22.136,9.851 22.53,10.451L33.177,26.661C33.577,27.341 33.087,28.191 32.297,28.191Z" style="fill:rgb(203,104,249);"/>
                    </g>
                </g>
            </g>
            <g id="g-root-cp_2_shape-2_v8lf1p1b81aff-fill" transform="matrix(1,0,0,1,407.878,55.8164)">
                <g id="cp_2_shape-2_v8lf1p1b81aff-fill">
                    <g>
                        <path d="M51.622,316.184L219.622,316.184C239.504,316.184 255.622,300.081 255.622,280.199L255.622,280.184L15.622,280.184C15.622,300.066 31.74,316.184 51.622,316.184ZM11.022,28.375L15.622,28.375L15.622,160.184L255.622,160.184C255.622,140.302 239.505,124.505 219.623,124.505L93.622,124.505C52.552,124.505 27.622,94.374 27.622,55.034L27.622,28.374L32.302,28.374C33.082,28.374 33.572,27.524 33.182,26.844L22.459,10.632C22.063,10.033 21.184,10.034 20.79,10.635L10.142,26.844C9.742,27.525 10.232,28.375 11.022,28.375ZM15.622,160.184L15.622,280.184L255.622,280.184L255.622,160.184L15.622,160.184Z" style="fill:rgb(247,148,56);"/>
                    </g>
                </g>
            </g>
            <g id="g-root-cp_4_shape-4_dhxvn11b819mt-fill" transform="matrix(1,0,0,1,383,326)">
                <g id="cp_4_shape-4_dhxvn11b819mt-fill">
                    <g>
                        <path d="M76,64.321C46,64.321 22,46 22,10L10,10L10,100.306L280,100.306C280,80.423 263.882,64.321 244,64.321L76,64.321Z" style="fill:rgb(255,231,17);"/>
                    </g>
                </g>
            </g>
            <g id="g-root-cp_4_shape-4_1_1lwrdyl1b819fr-fill" transform="matrix(1,0,0,1,377.383,56)">
                <g id="cp_4_shape-4_1_1lwrdyl1b819fr-fill">
                    <g>
                        <path d="M15.623,280L27.623,280L27.623,160L15.623,160L15.623,280ZM11.022,28.191L15.622,28.191L15.622,160L27.622,160L27.622,28.191L32.302,28.191C33.082,28.191 33.572,27.341 33.182,26.661L22.459,10.448C22.063,9.849 21.184,9.851 20.79,10.451L10.142,26.661C9.742,27.341 10.232,28.191 11.022,28.191Z" style="fill:rgb(255,231,17);"/>
                    </g>
                </g>
            </g>
            <g id="g-root-cp_6_shape-6_1463ujx1b818n5-fill" transform="matrix(1,0,0,1,347.383,56)">
                <g id="cp_6_shape-6_1463ujx1b818n5-fill">
                    <g>
                        <path d="M15.623,280L27.623,280L27.623,160L15.623,160L15.623,280ZM11.022,28.191L15.622,28.191L15.622,160L27.622,160L27.622,28.191L32.302,28.191C33.082,28.191 33.572,27.341 33.182,26.661L22.459,10.448C22.063,9.849 21.184,9.851 20.79,10.451L10.142,26.661C9.742,27.341 10.232,28.191 11.022,28.191Z" style="fill:rgb(243,102,187);"/>
                    </g>
                </g>
            </g>
            <g id="g-root-cp_3_shape-3_2_qunc6l1b81a83-fill" transform="matrix(1,0,0,1,35,416)">
                <g id="cp_3_shape-3_2_qunc6l1b81a83-fill">
                    <g>
                        <path d="M280,10L280,105.984L10,105.984L10,10L280,10ZM244,142.008L46,142.008C26.118,142.008 10,125.906 10,106.023L10,106.008L280,106.008C280,125.89 263.882,142.008 244,142.008Z" style="fill:rgb(67,221,147);"/>
                    </g>
                </g>
            </g>
            <g id="g-root-cp_5_shape-5_1_djtawd1b818n9-fill" transform="matrix(1,0,0,1,323,326)">
                <g id="cp_5_shape-5_1_djtawd1b818n9-fill">
                    <g>
                        <rect x="10" y="10" width="12" height="186" style="fill:rgb(203,104,249);"/>
                    </g>
                </g>
            </g>
            <g id="g-root-cp_5_shape-5_2_8csj11b81a87-fill" transform="matrix(1,0,0,1,35,512)">
                <g id="cp_5_shape-5_2_8csj11b81a87-fill">
                    <g>
                        <path d="M244,64.137C274,64.137 298,45.878 298,10L310,10L310,100L10,100C10,80.185 26.118,64.137 46,64.137L244,64.137Z" style="fill:rgb(203,104,249);"/>
                    </g>
                </g>
            </g>
            <g id="g-root-cp_4_shape-4_2_1hitb3h1b8198h-fill" transform="matrix(1,0,0,1,383,416)">
                <g id="cp_4_shape-4_2_1hitb3h1b8198h-fill">
                    <g>
                        <path d="M10,10L10,106L280,106L280,10L10,10ZM46,142L244,142C263.882,142 280,125.898 280,106.016L280,106L10,106C10,125.882 26.118,142 46,142Z" style="fill:rgb(255,231,17);"/>
                    </g>
                </g>
            </g>
            <g id="g-root-cp_6_shape-6_1_18n6aul1b81a17-fill" transform="matrix(1,0,0,1,353,326)">
                <g id="cp_6_shape-6_1_18n6aul1b81a17-fill">
                    <g>
                        <rect x="10" y="10" width="12" height="186" style="fill:rgb(243,102,187);"/>
                    </g>
                </g>
            </g>
            <g id="g-root-cp_6_shape-6_2_qwirfx1b8198l-fill" transform="matrix(1,0,0,1,353,512)">
                <g id="cp_6_shape-6_2_qwirfx1b8198l-fill">
                    <g>
                        <path d="M76,64.321C46,64.321 22,46 22,10L10,10L10,100.306L310,100.306C310,80.423 293.882,64.321 274,64.321L76,64.321Z" style="fill:rgb(243,102,187);"/>
                    </g>
                </g>
            </g>
            <g id="g-root-cp_5_shape-5_3_i0vr711b81a1b-fill" transform="matrix(1,0,0,1,35,602)">
                <g id="cp_5_shape-5_3_i0vr711b81a1b-fill">
                    <g>
                        <path d="M310,10L310,106L10,106L10,10L310,10ZM274,142.008L46,142.008C26.118,142.008 10,125.882 10,106L310,106C310,125.882 293.882,142.008 274,142.008Z" style="fill:rgb(203,104,249);"/>
                    </g>
                </g>
            </g>
            <g id="g-root-cp_6_shape-6_3_8vvmnh1b82n0h-fill" transform="matrix(1,0,0,1,353,602)">
                <g id="cp_6_shape-6_3_8vvmnh1b82n0h-fill">
                    <g>
                        <path d="M10,10L10,106L310,106L310,10L10,10ZM46,142L274,142C293.882,142 310,125.898 310,106.016L310,106L10,106C10,125.882 26.118,142 46,142Z" style="fill:rgb(243,102,187);"/>
                    </g>
                </g>
            </g>
            <g id="g-root-tx__4hb2p91b8i2hb-fill">
            </g>
            <g id="g-root-tx__908y991b85h51-fill">
            </g>
            <g transform="matrix(1,0,0,1,485.69,288)">
                <g id="g-root-tx_ecommerc_1uonjot1b85gcs-fill">
                    <g id="tx_ecommerc_1uonjot1b85gcs-fill">
                        <g>
                            <g>
                                <text x="0px" y="0px" style="font-family:'Arial-BoldMT', 'Arial', sans-serif;font-weight:700;font-size:20px;fill:rgb(44,44,44);">E-commerce</text>
                            </g>
                        </g>
                    </g>
                </g>
            </g>
            <g transform="matrix(1,0,0,1,131.03,498)">
                <g id="g-root-tx_healthca_1qdtu991b86txk-fill">
                    <g id="tx_healthca_1qdtu991b86txk-fill">
                        <g>
                            <g>
                                <text x="0px" y="0px" style="font-family:'Arial-BoldMT', 'Arial', sans-serif;font-weight:700;font-size:20px;fill:rgb(44,44,44);">Healthcare</text>
                            </g>
                        </g>
                    </g>
                </g>
            </g>
            <g transform="matrix(1,0,0,1,446.18,498)">
                <g id="g-root-tx_financia_18hk12l1b89nno-fill">
                    <g id="tx_financia_18hk12l1b89nno-fill">
                        <g>
                            <g>
                                <text x="0px" y="0px" style="font-family:'Arial-BoldMT', 'Arial', sans-serif;font-weight:700;font-size:20px;fill:rgb(44,44,44);">Financial Services</text>
                            </g>
                        </g>
                    </g>
                </g>
            </g>
            <g id="g-root-tx_callcent_4hxjsd1b82m18-fill" transform="matrix(1,0,0,1,83.5,254)">
                <g id="tx_callcent_4hxjsd1b82m18-fill">
                    <g>
                        <g>
                            <g transform="matrix(1,0,0,1,15.66,34)">
                                <text x="0px" y="0px" style="font-family:'Arial-BoldMT', 'Arial', sans-serif;font-weight:700;font-size:20px;fill:rgb(44,44,44);">Call Centers &amp;</text>
                            </g>
                            <g transform="matrix(1,0,0,1,54.67,58)">
                                <text x="0px" y="0px" style="font-family:'Arial-BoldMT', 'Arial', sans-serif;font-weight:700;font-size:20px;fill:rgb(44,44,44);">BPOs</text>
                            </g>
                        </g>
                    </g>
                </g>
            </g>
            <g id="g-root-tx__i09a3x1b86wap-fill">
            </g>
            <g id="g-root-tx__8zmh651b89ogd-fill">
            </g>
            <g transform="matrix(1,0,0,1,88.81,684)">
                <g id="g-root-tx_educatio_1um5ncd1b8cg7c-fill">
                    <g id="tx_educatio_1um5ncd1b8cg7c-fill">
                        <g>
                            <g>
                                <text x="0px" y="0px" style="font-family:'Arial-BoldMT', 'Arial', sans-serif;font-weight:700;font-size:20px;fill:rgb(44,44,44);">Educational Institutions</text>
                            </g>
                        </g>
                    </g>
                </g>
            </g>
            <g transform="matrix(1,0,0,1,425.21,684)">
                <g id="g-root-tx_travelho_13ym5il1b8i4ue-fill">
                    <g id="tx_travelho_13ym5il1b8i4ue-fill">
                        <g>
                            <g>
                                <text x="0px" y="0px" style="font-family:'Arial-BoldMT', 'Arial', sans-serif;font-weight:700;font-size:20px;fill:rgb(44,44,44);">T<tspan x="11.113px 18.896px " y="0px 0px ">ra</tspan>vel &amp; Hospitality</text>
                            </g>
                        </g>
                    </g>
                </g>
            </g>
            <g id="g-root-tx__1ltn0j11b8ci69-fill">
            </g>
            <g id="g-root-tx__18gxjzh1b82mmd-fill">
            </g>
            <g id="g-root-cp_1_shape-1_1ltn0j11b81897-stroke" transform="matrix(1,0,0,1,35.5,55.8164)">
                <g id="cp_1_shape-1_1ltn0j11b81897-stroke">
                    <g>
                        <path d="M10,160.184C10,140.301 26.118,124.321 46,124.321L172,124.321C213.07,124.321 238,94.191 238,54.851L238,28.191L233.32,28.191C232.54,28.191 232.05,27.341 232.44,26.661L243.163,10.448C243.559,9.849 244.439,9.851 244.833,10.451L255.48,26.661C255.88,27.341 255.39,28.191 254.6,28.191L250,28.191L250,160.184M250,280.184C250,300.066 233.882,316.191 214,316.191L46,316.191C26.118,316.191 10,300.081 10,280.199L10,280.184M250,280.184L250,160.184M10,160.184L10,280.184" style="fill:none;stroke:rgb(44,44,44);stroke-width:2px;"/>
                    </g>
                </g>
            </g>
            <g id="g-root-cp_3_shape-3_hvvyi51b819u5-stroke" transform="matrix(1,0,0,1,35,326)">
                <g id="cp_3_shape-3_hvvyi51b819u5-stroke">
                    <g>
                        <path d="M268,10C268,46 244,64.321 214,64.321L46,64.321C26.118,64.321 10,80.423 10,100.306M280,100.306L280,10" style="fill:none;stroke:rgb(44,44,44);stroke-width:2px;"/>
                    </g>
                </g>
            </g>
            <g id="g-root-cp_3_shape-3_1_1qapgtp1b819n3-stroke" transform="matrix(1,0,0,1,287.303,56)">
                <g id="cp_3_shape-3_1_1qapgtp1b819n3-stroke">
                    <g>
                        <path d="M15.697,160L15.697,280M27.697,280L27.697,160M15.697,160L15.697,28.191L11.017,28.191C10.237,28.191 9.747,27.341 10.137,26.661L20.86,10.448C21.256,9.849 22.136,9.851 22.53,10.451L33.177,26.661C33.577,27.341 33.087,28.191 32.297,28.191L27.697,28.191L27.697,160" style="fill:none;stroke:rgb(44,44,44);stroke-width:2px;"/>
                    </g>
                </g>
            </g>
            <g id="g-root-cp_5_shape-5_18k1xf11b818uh-stroke" transform="matrix(1,0,0,1,317.303,56)">
                <g id="cp_5_shape-5_18k1xf11b818uh-stroke">
                    <g>
                        <path d="M15.697,160L15.697,280M27.697,280L27.697,160M15.697,160L15.697,28.191L11.017,28.191C10.237,28.191 9.747,27.341 10.137,26.661L20.86,10.448C21.256,9.849 22.136,9.851 22.53,10.451L33.177,26.661C33.577,27.341 33.087,28.191 32.297,28.191L27.697,28.191L27.697,160" style="fill:none;stroke:rgb(44,44,44);stroke-width:2px;"/>
                    </g>
                </g>
            </g>
            <g id="g-root-cp_2_shape-2_v8lf1p1b81aff-stroke" transform="matrix(1,0,0,1,407.878,55.8164)">
                <g id="cp_2_shape-2_v8lf1p1b81aff-stroke">
                    <g>
                        <path d="M255.622,160.184C255.622,140.301 239.505,124.321 219.623,124.321L93.622,124.321C52.552,124.321 27.622,94.191 27.622,54.851L27.622,28.191L32.302,28.191C33.082,28.191 33.572,27.341 33.182,26.661L22.459,10.448C22.063,9.849 21.184,9.851 20.79,10.451L10.142,26.661C9.742,27.341 10.232,28.191 11.022,28.191L15.622,28.191L15.622,160.184M15.622,280.184C15.622,300.066 31.74,316.184 51.622,316.184L219.623,316.183C239.505,316.183 255.622,300.081 255.622,280.199L255.622,280.184M15.622,280.184L15.622,160.184M255.622,160.184L255.622,280.184" style="fill:none;stroke:rgb(44,44,44);stroke-width:2px;"/>
                    </g>
                </g>
            </g>
            <g id="g-root-cp_4_shape-4_dhxvn11b819mt-stroke" transform="matrix(1,0,0,1,383,326)">
                <g id="cp_4_shape-4_dhxvn11b819mt-stroke">
                    <g>
                        <path d="M22,10C22,46 46,64.321 76,64.321L244,64.321C263.882,64.321 280,80.423 280,100.306M10,100.306L10,10" style="fill:none;stroke:rgb(44,44,44);stroke-width:2px;"/>
                    </g>
                </g>
            </g>
            <g id="g-root-cp_4_shape-4_1_1lwrdyl1b819fr-stroke" transform="matrix(1,0,0,1,377.383,56)">
                <g id="cp_4_shape-4_1_1lwrdyl1b819fr-stroke">
                    <g>
                        <path d="M27.622,160L27.622,280M15.622,280L15.622,160M27.622,160L27.622,28.191L32.302,28.191C33.082,28.191 33.572,27.341 33.182,26.661L22.459,10.448C22.063,9.849 21.184,9.851 20.79,10.451L10.142,26.661C9.742,27.341 10.232,28.191 11.022,28.191L15.622,28.191L15.622,160" style="fill:none;stroke:rgb(44,44,44);stroke-width:2px;"/>
                    </g>
                </g>
            </g>
            <g id="g-root-cp_6_shape-6_1463ujx1b818n5-stroke" transform="matrix(1,0,0,1,347.383,56)">
                <g id="cp_6_shape-6_1463ujx1b818n5-stroke">
                    <g>
                        <path d="M27.622,160L27.622,280M15.622,280L15.622,160M27.622,160L27.622,28.191L32.302,28.191C33.082,28.191 33.572,27.341 33.182,26.661L22.459,10.448C22.063,9.849 21.184,9.851 20.79,10.451L10.142,26.661C9.742,27.341 10.232,28.191 11.022,28.191L15.622,28.191L15.622,160" style="fill:none;stroke:rgb(44,44,44);stroke-width:2px;"/>
                    </g>
                </g>
            </g>
            <g id="g-root-cp_3_shape-3_2_qunc6l1b81a83-stroke" transform="matrix(1,0,0,1,35,416)">
                <g id="cp_3_shape-3_2_qunc6l1b81a83-stroke">
                    <g>
                        <path d="M280,105.984L280,10M10,10L10,106M280,106.008C280,125.89 263.882,142.008 244,142.008L46,142.008C26.118,142.008 10,125.906 10,106.023L10,106.008" style="fill:none;stroke:rgb(44,44,44);stroke-width:2px;"/>
                    </g>
                </g>
            </g>
            <g id="g-root-cp_5_shape-5_1_djtawd1b818n9-stroke" transform="matrix(1,0,0,1,323,326)">
                <g id="cp_5_shape-5_1_djtawd1b818n9-stroke">
                    <g>
                        <path d="M10,10L10,196M22,196L22,10" style="fill:none;stroke:rgb(44,44,44);stroke-width:2px;"/>
                    </g>
                </g>
            </g>
            <g id="g-root-cp_5_shape-5_2_8csj11b81a87-stroke" transform="matrix(1,0,0,1,35,512)">
                <g id="cp_5_shape-5_2_8csj11b81a87-stroke">
                    <g>
                        <path d="M298,10C298,45.878 274,64.137 244,64.137L46,64.137C26.118,64.137 10,80.185 10,100M310,100L310,10" style="fill:none;stroke:rgb(44,44,44);stroke-width:2px;"/>
                    </g>
                </g>
            </g>
            <g id="g-root-cp_4_shape-4_2_1hitb3h1b8198h-stroke" transform="matrix(1,0,0,1,383,416)">
                <g id="cp_4_shape-4_2_1hitb3h1b8198h-stroke">
                    <g>
                        <path d="M10,106L10,10M280,10L280,106M10,106C10,125.882 26.118,142.008 46,142.008L244,142.008C263.882,142.008 280,125.898 280,106.016L280,106" style="fill:none;stroke:rgb(44,44,44);stroke-width:2px;"/>
                    </g>
                </g>
            </g>
            <g id="g-root-cp_6_shape-6_1_18n6aul1b81a17-stroke" transform="matrix(1,0,0,1,353,326)">
                <g id="cp_6_shape-6_1_18n6aul1b81a17-stroke">
                    <g>
                        <path d="M22,10L22,196M10,196L10,10" style="fill:none;stroke:rgb(44,44,44);stroke-width:2px;"/>
                    </g>
                </g>
            </g>
            <g id="g-root-cp_6_shape-6_2_qwirfx1b8198l-stroke" transform="matrix(1,0,0,1,353,512)">
                <g id="cp_6_shape-6_2_qwirfx1b8198l-stroke">
                    <g>
                        <path d="M22,10C22,46 46,64.321 76,64.321L274,64.321C293.882,64.321 310,80.423 310,100.306M10,100.306L10,10" style="fill:none;stroke:rgb(44,44,44);stroke-width:2px;"/>
                    </g>
                </g>
            </g>
            <g id="g-root-cp_5_shape-5_3_i0vr711b81a1b-stroke" transform="matrix(1,0,0,1,35,602)">
                <g id="cp_5_shape-5_3_i0vr711b81a1b-stroke">
                    <g>
                        <path d="M310,106L310,10M10,10L10,106M310,106C310,125.882 293.882,142.008 274,142.008L46,142.008C26.118,142.008 10,125.882 10,106" style="fill:none;stroke:rgb(44,44,44);stroke-width:2px;"/>
                    </g>
                </g>
            </g>
            <g id="g-root-cp_6_shape-6_3_8vvmnh1b82n0h-stroke" transform="matrix(1,0,0,1,353,602)">
                <g id="cp_6_shape-6_3_8vvmnh1b82n0h-stroke">
                    <g>
                        <path d="M10,106L10,10M310,10L310,106M10,106C10,125.882 26.118,142.008 46,142.008L274,142.008C293.882,142.008 310,125.898 310,106.016L310,106" style="fill:none;stroke:rgb(44,44,44);stroke-width:2px;"/>
                    </g>
                </g>
            </g>
            <g id="g-root-ic_2_1cu95rh1b88936-stroke" transform="matrix(1,0,0,1,146,404)">
                <g id="ic_2_1cu95rh1b88936-stroke">
                    <g>
                        <path d="M48.889,29.542L48.889,15.228C48.889,14.32 48.529,13.449 47.886,12.806C47.244,12.164 46.373,11.803 45.465,11.803L18.588,11.803C17.68,11.803 16.809,12.164 16.167,12.806C15.524,13.449 15.164,14.32 15.164,15.228L15.164,34.982L11.739,46.702L25.438,41.831L35.368,41.831M34.65,18.004L28.488,18.004L28.488,23.238L23.254,23.238L23.254,29.4L28.488,29.4L28.488,34.634L34.65,34.634L34.65,29.4L39.884,29.4L39.884,23.238L34.65,23.238L34.65,18.004ZM37.443,55.955C37.443,53.459 38.434,51.066 40.199,49.302C41.963,47.537 44.357,46.546 46.852,46.546C49.348,46.546 51.741,47.537 53.505,49.302C55.27,51.066 56.261,53.459 56.261,55.955L37.443,55.955ZM46.852,46.546C50.316,46.546 53.125,43.737 53.125,40.273C53.125,36.808 50.316,34 46.852,34C43.388,34 40.579,36.808 40.579,40.273C40.579,43.737 43.388,46.546 46.852,46.546Z" style="fill:none;stroke:rgb(44,44,44);stroke-width:2px;"/>
                    </g>
                </g>
            </g>
            <g id="g-root-ic_card_znsg311b89ngm-stroke" transform="matrix(1,0,0,1,494,404)">
                <g id="ic_card_znsg311b89ngm-stroke">
                    <g>
                        <path d="M39,41L55,41C55,41 57,41 57,43L57,55C57,55 57,57 55,57L39,57C39,57 37,57 37,55L37,43C37,43 37,41 39,41M37,47L57,47M53,53L49,53M31,41L11,41C10.994,35.151 15.206,30.15 20.971,29.161C26.736,28.172 32.374,31.483 34.318,37M15.5,18.5C15.5,22.642 18.858,26 23,26C27.142,26 30.5,22.642 30.5,18.5C30.5,14.358 27.142,11 23,11C18.858,11 15.5,14.358 15.5,18.5M34.5,18.5C34.5,22.642 37.858,26 42,26C46.142,26 49.5,22.642 49.5,18.5C49.5,14.358 46.142,11 42,11C37.858,11 34.5,14.358 34.5,18.5M53.32,37C52.132,33.642 49.513,30.986 46.173,29.75C42.833,28.514 39.116,28.825 36.028,30.6" style="fill:none;stroke:rgb(44,44,44);stroke-width:2px;"/>
                    </g>
                </g>
            </g>
            <g id="g-root-ic_exch_1448fal1b85fd2-stroke" transform="matrix(1,0,0,1,509.5,194)">
                <g id="ic_exch_1448fal1b85fd2-stroke">
                    <g>
                        <path d="M22.5,55.5L26.5,51.5L22.5,47.5M39.5,30.5L51.5,30.5C51.5,30.5 53.5,30.5 53.5,32.5L53.5,54.5C53.5,54.5 53.5,56.5 51.5,56.5L39.5,56.5C39.5,56.5 37.5,56.5 37.5,54.5L37.5,32.5C37.5,32.5 37.5,30.5 39.5,30.5M14.5,41.5C14.5,47.023 18.977,51.5 24.5,51.5L26.5,51.5M46.5,11.5L42.5,15.5L46.5,19.5M54.5,25.5C54.5,19.977 50.023,15.5 44.5,15.5L42.5,15.5M37.5,48.5L53.5,48.5M45.5,52C45.224,52 45,52.224 45,52.5C45,52.776 45.224,53 45.5,53C45.776,53 46,52.776 46,52.5C46,52.224 45.776,52 45.5,52M23.5,30.5C23.5,31.605 24.395,32.5 25.5,32.5C26.605,32.5 27.5,31.605 27.5,30.5C27.5,29.395 26.605,28.5 25.5,28.5C24.395,28.5 23.5,29.395 23.5,30.5M15.5,30.5C15.5,31.605 16.395,32.5 17.5,32.5C18.605,32.5 19.5,31.605 19.5,30.5C19.5,29.395 18.605,28.5 17.5,28.5C16.395,28.5 15.5,29.395 15.5,30.5M31.5,11.5L26.5,26.5L16.5,26.5L13.5,16.5L29.834,16.5" style="fill:none;stroke:rgb(44,44,44);stroke-width:2px;"/>
                    </g>
                </g>
            </g>
            <g id="g-root-ic_pick_4j6hyl1b82o7a-stroke" transform="matrix(1,0,0,1,131.5,194)">
                <g id="ic_pick_4j6hyl1b82o7a-stroke">
                    <g>
                        <path d="M47.164,39.562C49.216,39.734 50.793,41.453 50.788,43.512C50.783,45.572 49.197,47.282 47.144,47.444M54.378,56.744C52.974,54.025 50.234,52.254 47.178,52.092M27.802,41.8C27.801,45.497 30.799,48.495 34.496,48.495C38.193,48.495 41.191,45.497 41.19,41.8C41.191,38.103 38.193,35.105 34.496,35.105C30.799,35.105 27.801,38.103 27.802,41.8M24.234,57C25.782,52.745 29.795,49.887 34.322,49.815C38.85,49.743 42.952,52.472 44.634,56.676M20.836,39.562C18.784,39.734 17.207,41.453 17.212,43.512C17.217,45.572 18.803,47.282 20.856,47.444M13.622,56.744C15.026,54.025 17.766,52.254 20.822,52.092M30.232,20.156C30.232,22.477 32.113,24.358 34.434,24.358C36.755,24.358 38.636,22.477 38.636,20.156C38.636,17.835 36.755,15.954 34.434,15.954C32.113,15.954 30.232,17.835 30.232,20.156M30.482,21.588L23.872,27.67L27.124,32.39M38.386,21.588L44.998,27.67L41.744,32.39M34.434,15.954L34.434,11" style="fill:none;stroke:rgb(44,44,44);stroke-width:2px;"/>
                    </g>
                </g>
            </g>
            <g id="g-root-ic_inte_92qulp1b8cgea-stroke" transform="matrix(1,0,0,1,161,590)">
                <g id="ic_inte_92qulp1b8cgea-stroke">
                    <g>
                        <path d="M29.362,32L29.362,34.312M32.878,28.636C27.724,26.698 21.974,29.291 20.014,34.436M31.696,18C33.268,18.002 34.823,17.684 36.268,17.066C35.887,14.11 33.664,11.725 30.742,11.137C27.82,10.548 24.848,11.888 23.352,14.466C25.54,16.726 28.551,18.001 31.696,18ZM22.362,18C22.362,21.866 25.496,25 29.362,25C33.228,25 36.362,21.866 36.362,18C36.362,14.134 33.228,11 29.362,11C25.496,11 22.362,14.134 22.362,18M39.458,36.432C39.457,40.68 42.9,44.124 47.148,44.124C51.396,44.124 54.839,40.68 54.838,36.432C54.839,32.184 51.396,28.74 47.148,28.74C42.9,28.74 39.457,32.184 39.458,36.432M37.36,56.708C37.31,53.177 39.164,49.893 42.214,48.113C45.263,46.333 49.035,46.333 52.084,48.113C55.134,49.893 56.988,53.177 56.938,56.708M32.878,49.698L12.096,49.698C11.742,49.698 11.413,49.516 11.224,49.218C11.035,48.919 11.013,48.544 11.164,48.224L14.782,40.642C15.124,39.925 15.848,39.469 16.642,39.468L34.642,39.468M13.476,49.782L13.476,57M40.864,32C46.014,37.15 51.864,36.432 54.84,36.432M47.148,53.184L47.148,50.442" style="fill:none;stroke:rgb(44,44,44);stroke-width:2px;"/>
                    </g>
                </g>
            </g>
            <g id="g-root-ic_pers_1hby3591b8i29s-stroke" transform="matrix(1,0,0,1,479,590)">
                <g id="ic_pers_1hby3591b8i29s-stroke">
                    <g>
                        <path d="M12.5,26.5C12.5,29.538 14.962,32 18,32C21.038,32 23.5,29.538 23.5,26.5C23.5,23.462 21.038,21 18,21C14.962,21 12.5,23.462 12.5,26.5M25,41C25,37.134 21.866,34 18,34C14.134,34 11,37.134 11,41L11,47L14.166,47L15,57L21,57L21.834,47L25,47L25,41ZM45.514,47L29,47M30,11L42,11C42,11 43,11 43,12L43,28C43,28 43,29 42,29L30,29C30,29 29,29 29,28L29,12C29,12 29,11 30,11M34,15L38,15C38,15 39,15 39,16L39,24C39,24 39,25 38,25L34,25C34,25 33,25 33,24L33,16C33,16 33,15 34,15M57,52.502C57.013,52.631 56.971,52.759 56.883,52.854C56.795,52.949 56.671,53.002 56.542,53L45.46,53C45.331,53.002 45.207,52.949 45.119,52.854C45.031,52.759 44.989,52.631 45.002,52.502L46.116,39.502C46.145,39.222 46.379,39.009 46.66,39.004L55.34,39.004C55.621,39.009 55.855,39.222 55.884,39.502L57,52.502ZM53,30L55,27L47,27L49,30C47.896,30.331 47.14,31.347 47.14,32.5C47.14,33.653 47.896,34.669 49,35L53,35C54.104,34.669 54.86,33.653 54.86,32.5C54.86,31.347 54.104,30.331 53,30L53,30ZM51,35L51,39" style="fill:none;stroke:rgb(44,44,44);stroke-width:2px;"/>
                    </g>
                </g>
            </g>
        </g>
    </g>
</svg>
