<?xml version="1.0" encoding="UTF-8" standalone="no"?>
<!DOCTYPE svg PUBLIC "-//W3C//DTD SVG 1.1//EN" "http://www.w3.org/Graphics/SVG/1.1/DTD/svg11.dtd">
<svg width="100%" height="100%" viewBox="0 0 607 588" version="1.1" xmlns="http://www.w3.org/2000/svg" xmlns:xlink="http://www.w3.org/1999/xlink" xml:space="preserve" xmlns:serif="http://www.serif.com/" style="fill-rule:evenodd;clip-rule:evenodd;stroke-linecap:round;stroke-linejoin:round;">
    <g id="items" transform="matrix(1.22738,0,0,1.22738,-68.8968,-119.028)">
        <g id="blend">
            <g id="g-root-cp_1_sign-1_4ik0tp18gf5s0-fill" transform="matrix(1,0,0,1,50,146)">
                <g id="cp_1_sign-1_4ik0tp18gf5s0-fill">
                    <g>
                        <path d="M10,40L28,10L28,70L10,40ZM28,10L237,10L237,70L28,70L28,10Z" style="fill:rgb(67,221,147);"/>
                    </g>
                </g>
            </g>
            <g id="g-root-cp_3_sign-3_1uo12jx18gf6dm-fill" transform="matrix(1,0,0,1,62,218)">
                <g id="cp_3_sign-3_1uo12jx18gf6dm-fill">
                    <g>
                        <path d="M10,52L28,10L28,94L10,52ZM28,10L225,10L225,94L28,94L28,10Z" style="fill:rgb(247,148,56);"/>
                    </g>
                </g>
            </g>
            <g id="g-root-cp_5_sign-5_1hd719p18gf4ss-fill" transform="matrix(1,0,0,1,98,314)">
                <g id="cp_5_sign-5_1hd719p18gf4ss-fill">
                    <g>
                        <path d="M10,40L28,10L28,70L10,40ZM28,10L189,10L189,70L28,70L28,10Z" style="fill:rgb(26,195,251);"/>
                    </g>
                </g>
            </g>
            <g id="g-root-cp_pole_g-pole_141qiwd18gf6dq-fill" transform="matrix(1,0,0,1,275,122)">
                <g id="cp_pole_g-pole_141qiwd18gf6dq-fill">
                    <g>
                        <path d="M31,298L13,298L13,412L31,412L31,411.897L24.55,411.88C24.55,411.88 25.3,405.89 17.74,404.78C25.63,401.53 28.41,406.56 28.41,406.56C28.41,406.56 27.994,399.986 31,394.2L31,298ZM13,22L31,22L31,298L13,298L13,22Z" style="fill:rgb(171,171,171);"/>
                    </g>
                </g>
                <g id="cp_pole_g-pole_141qiwd18gf6dq-fill1" serif:id="cp_pole_g-pole_141qiwd18gf6dq-fill">
                    <g>
                        <rect x="10" y="10" width="24" height="12" style="fill:rgb(171,171,171);"/>
                    </g>
                </g>
            </g>
            <g id="g-root-cp_pole_plant_v6pzql18gf4sh-fill" transform="matrix(1,0,0,1,243,499)">
                <g id="cp_pole_plant_v6pzql18gf4sh-fill">
                    <g>
                        <path d="M60.393,29.56C60.393,29.56 57.613,24.53 49.723,27.78C54.516,28.484 57.019,30.471 56.533,35.008L10,35.008C10,35.008 17.976,46.521 54.183,46.521C90.39,46.521 97.76,35.008 97.76,35.008L71.483,35.008C68.788,30.384 74.815,23.86 80.883,26.67C78.883,23.56 72.993,22.89 68.553,26C66.693,20.52 67.443,13.77 70.613,10C59.453,14.7 60.393,29.56 60.393,29.56Z" style="fill:rgb(145,187,57);"/>
                    </g>
                </g>
            </g>
            <g id="g-root-cp_2_sign-2_hv9hd918gf6df-fill" transform="matrix(1,0,0,1,297,182)">
                <g id="cp_2_sign-2_hv9hd918gf6df-fill">
                    <g>
                        <path d="M10,10L183,10L183,94L10,94L10,10ZM201,52L183,10L183,94L201,52Z" style="fill:rgb(79,145,252);"/>
                    </g>
                </g>
            </g>
            <g id="g-root-cp_4_sign-4_4kfg3118gf4sl-fill" transform="matrix(1,0,0,1,297,278)">
                <g id="cp_4_sign-4_4kfg3118gf4sl-fill">
                    <g>
                        <path d="M10,10L231,10L231,70L10,70L10,10ZM249,40L231,10L231,70L249,40Z" style="fill:rgb(166,218,55);"/>
                    </g>
                </g>
            </g>
            <g id="g-root-cp_6_sign-6_1hf2gj118gf3tb-fill" transform="matrix(1,0,0,1,297,350)">
                <g id="cp_6_sign-6_1hf2gj118gf3tb-fill">
                    <g>
                        <path d="M10,10L231,10L231,70L10,70L10,10ZM249,40L231,10L231,70L249,40Z" style="fill:rgb(135,105,253);"/>
                    </g>
                </g>
            </g>
            <g transform="matrix(1,0,0,1,142.4,198)">
                <g id="g-root-tx_costeffi_hv9hd918ghx58-fill">
                    <g id="tx_costeffi_hv9hd918ghx58-fill">
                        <g>
                            <g>
                                <g transform="matrix(20,0,0,20,60.0195,0)">
                                </g>
                                <g transform="matrix(20,0,0,20,65.3983,0)">
                                </g>
                                <g transform="matrix(20,0,0,20,70.777,0)">
                                </g>
                                <text x="0px" y="0px" style="font-family:'ArialMT', 'Arial', sans-serif;font-size:20px;fill:rgb(44,44,44);">Cost Eﬃciency</text>
                            </g>
                        </g>
                    </g>
                </g>
            </g>
            <g id="g-root-tx_seamless_8ydm3x18g2iv6-fill" transform="matrix(1,0,0,1,308,200)">
                <g id="tx_seamless_8ydm3x18g2iv6-fill">
                    <g>
                        <g>
                            <g transform="matrix(1,0,0,1,12,34)">
                                <text x="0px" y="0px" style="font-family:'ArialMT', 'Arial', sans-serif;font-size:20px;fill:rgb(44,44,44);">Seamless</text>
                            </g>
                            <g transform="matrix(1,0,0,1,12,58)">
                                <text x="0px" y="0px" style="font-family:'ArialMT', 'Arial', sans-serif;font-size:20px;fill:rgb(44,44,44);">Integration</text>
                            </g>
                        </g>
                    </g>
                </g>
            </g>
            <g id="g-root-tx_flexible_18nsrvx18gjc3q-fill" transform="matrix(1,0,0,1,134,236)">
                <g id="tx_flexible_18nsrvx18gjc3q-fill">
                    <g>
                        <g>
                            <g transform="matrix(1,0,0,1,72,34)">
                                <text x="0px" y="0px" style="font-family:'ArialMT', 'Arial', sans-serif;font-size:20px;fill:rgb(44,44,44);">Flexible</text>
                            </g>
                            <g transform="matrix(1,0,0,1,22.15,58)">
                                <text x="0px" y="0px" style="font-family:'ArialMT', 'Arial', sans-serif;font-size:20px;fill:rgb(44,44,44);">Management</text>
                            </g>
                        </g>
                    </g>
                </g>
            </g>
            <g transform="matrix(1,0,0,1,320,330)">
                <g id="g-root-tx_reliable_8vvprh18g9iq2-fill">
                    <g id="tx_reliable_8vvprh18g9iq2-fill">
                        <g>
                            <g>
                                <text x="0px" y="0px" style="font-family:'ArialMT', 'Arial', sans-serif;font-size:20px;fill:rgb(44,44,44);">Reliable Delivery</text>
                            </g>
                        </g>
                    </g>
                </g>
            </g>
            <g transform="matrix(1,0,0,1,191.28,366)">
                <g id="g-root-tx_expertis_1hdtict18gm5ts-fill">
                    <g id="tx_expertis_1hdtict18gm5ts-fill">
                        <g>
                            <g>
                                <text x="0px" y="0px" style="font-family:'ArialMT', 'Arial', sans-serif;font-size:20px;fill:rgb(44,44,44);">Expertise</text>
                            </g>
                        </g>
                    </g>
                </g>
            </g>
            <g transform="matrix(1,0,0,1,320,402)">
                <g id="g-root-tx_billingf_1qapjxp18gcb2c-fill">
                    <g id="tx_billingf_1qapjxp18gcb2c-fill">
                        <g>
                            <g>
                                <text x="0px" y="0px" style="font-family:'ArialMT', 'Arial', sans-serif;font-size:20px;fill:rgb(44,44,44);">Billing Flexibility</text>
                            </g>
                        </g>
                    </g>
                </g>
            </g>
            <g id="g-root-cp_1_sign-1_4ik0tp18gf5s0-stroke" transform="matrix(1,0,0,1,50,146)">
                <g id="cp_1_sign-1_4ik0tp18gf5s0-stroke">
                    <g>
                        <path d="M28,10L237,10M237,70L28,70M28,70L10,40L28,10" style="fill:none;stroke:rgb(44,44,44);stroke-width:2px;"/>
                    </g>
                </g>
            </g>
            <g id="g-root-cp_3_sign-3_1uo12jx18gf6dm-stroke" transform="matrix(1,0,0,1,62,218)">
                <g id="cp_3_sign-3_1uo12jx18gf6dm-stroke">
                    <g>
                        <path d="M28,10L225,10M225,94L28,94M28,94L10,52L28,10" style="fill:none;stroke:rgb(44,44,44);stroke-width:2px;"/>
                    </g>
                </g>
            </g>
            <g id="g-root-cp_5_sign-5_1hd719p18gf4ss-stroke" transform="matrix(1,0,0,1,98,314)">
                <g id="cp_5_sign-5_1hd719p18gf4ss-stroke">
                    <g>
                        <path d="M28,10L189,10M189,70L28,70M28,70L10,40L28,10" style="fill:none;stroke:rgb(44,44,44);stroke-width:2px;"/>
                    </g>
                </g>
            </g>
            <g id="g-root-cp_pole_g-pole_141qiwd18gf6dq-stroke" transform="matrix(1,0,0,1,275,122)">
                <g id="cp_pole_g-pole_141qiwd18gf6dq-stroke">
                    <g>
                        <path d="M31,394L31,298M13,411L13,298M31,298L31,22M13,298L13,22" style="fill:none;stroke:rgb(44,44,44);stroke-width:2px;"/>
                    </g>
                </g>
                <g id="cp_pole_g-pole_141qiwd18gf6dq-stroke1" serif:id="cp_pole_g-pole_141qiwd18gf6dq-stroke">
                    <g>
                        <rect x="10" y="10" width="24" height="12" style="fill:none;stroke:rgb(44,44,44);stroke-width:2px;"/>
                    </g>
                </g>
            </g>
            <g id="g-root-cp_pole_plant_v6pzql18gf4sh-stroke" transform="matrix(1,0,0,1,243,499)">
                <g id="cp_pole_plant_v6pzql18gf4sh-stroke">
                    <g>
                        <path d="M56.55,34.88C56.55,34.88 57.3,28.89 49.74,27.78C57.63,24.53 60.41,29.56 60.41,29.56C60.41,29.56 59.47,14.7 70.63,10C67.46,13.77 66.71,20.52 68.57,26C73.01,22.89 78.9,23.56 80.9,26.67C76.68,24.44 69.89,28.468 71,34.918M71,34.918L98,34.918M10,34.918L56.5,34.918" style="fill:none;stroke:rgb(44,44,44);stroke-width:2px;"/>
                    </g>
                </g>
            </g>
            <g id="g-root-cp_2_sign-2_hv9hd918gf6df-stroke" transform="matrix(1,0,0,1,297,182)">
                <g id="cp_2_sign-2_hv9hd918gf6df-stroke">
                    <g>
                        <path d="M183,94L10,94M10,10L183,10M183,10L201,52L183,94" style="fill:none;stroke:rgb(44,44,44);stroke-width:2px;"/>
                    </g>
                </g>
            </g>
            <g id="g-root-cp_4_sign-4_4kfg3118gf4sl-stroke" transform="matrix(1,0,0,1,297,278)">
                <g id="cp_4_sign-4_4kfg3118gf4sl-stroke">
                    <g>
                        <path d="M231,70L10,70M10,10L231,10M231,10L249,40L231,70" style="fill:none;stroke:rgb(44,44,44);stroke-width:2px;"/>
                    </g>
                </g>
            </g>
            <g id="g-root-cp_6_sign-6_1hf2gj118gf3tb-stroke" transform="matrix(1,0,0,1,297,350)">
                <g id="cp_6_sign-6_1hf2gj118gf3tb-stroke">
                    <g>
                        <path d="M231,70L10,70M10,10L231,10M231,10L249,40L231,70" style="fill:none;stroke:rgb(44,44,44);stroke-width:2px;"/>
                    </g>
                </g>
            </g>
            <g id="g-root-ic_2_1urrx2l18gf4ei-stroke" transform="matrix(1,0,0,1,74,158)">
                <g id="ic_2_1urrx2l18gf4ei-stroke">
                    <g>
                        <path d="M25.75,25.75L12.25,25.75C11.422,25.75 10.75,25.078 10.75,24.25L10.75,12.25C10.75,11.422 11.422,10.75 12.25,10.75L36.25,10.75C37.078,10.75 37.75,11.422 37.75,12.25L37.75,19.75M10.756,16L16.006,10.75M37.756,16L32.506,10.75M10.756,20.5L16.006,25.75M27.25,15.25L22.519,15.25C21.884,15.256 21.351,15.732 21.275,16.363C21.199,16.994 21.603,17.583 22.219,17.74L26.305,18.76C26.921,18.917 27.325,19.506 27.249,20.137C27.173,20.768 26.64,21.244 26.005,21.25L21.25,21.25M24.256,15.25L24.256,13.75M24.256,22.75L24.256,21.25M31.756,33.25L33.256,33.25M36.256,33.25L37.756,33.25M40.756,33.25L42.256,33.25M31.756,36.25L33.256,36.25M36.256,36.25L37.756,36.25M40.756,36.25L42.256,36.25M31.756,39.25L33.256,39.25M36.256,39.25L37.756,39.25M40.756,39.25L42.256,39.25M31.756,42.25L33.256,42.25M36.256,42.25L37.756,42.25M40.756,42.25L42.256,42.25M31.756,22.75L42.256,22.75C42.256,22.75 45.256,22.75 45.256,25.75L45.256,42.25C45.256,42.25 45.256,45.25 42.256,45.25L31.756,45.25C31.756,45.25 28.756,45.25 28.756,42.25L28.756,25.75C28.756,25.75 28.756,22.75 31.756,22.75M28.756,30.25L45.256,30.25M12.256,28.75L25.756,28.75M13.756,31.75L25.756,31.75" style="fill:none;stroke:rgb(44,44,44);stroke-width:2px;"/>
                    </g>
                </g>
            </g>
            <g id="g-root-ic_user_4l1x6518gm51l-stroke" transform="matrix(1,0,0,1,428,206)">
                <g id="ic_user_4l1x6518gm51l-stroke">
                    <g>
                        <path d="M14.448,31.323C14.447,33.63 16.318,35.5 18.625,35.5C20.932,35.5 22.803,33.63 22.802,31.323C22.803,29.015 20.932,27.145 18.625,27.145C16.318,27.145 14.447,29.015 14.448,31.323M25.861,43.855C25.342,40.258 22.259,37.589 18.625,37.589C14.991,37.589 11.908,40.258 11.389,43.855L25.861,43.855ZM33.198,31.323C33.197,33.63 35.068,35.5 37.375,35.5C39.682,35.5 41.553,33.63 41.552,31.323C41.553,29.015 39.682,27.145 37.375,27.145C35.068,27.145 33.197,29.015 33.198,31.323M44.611,43.855C44.092,40.258 41.009,37.589 37.375,37.589C33.741,37.589 30.658,40.258 30.139,43.855L44.611,43.855ZM18.889,12.145L21.139,12.145C21.967,12.145 22.639,12.817 22.639,13.645L22.639,18.895C22.639,19.723 21.967,20.395 21.139,20.395L18.889,20.395C17.232,20.395 15.889,19.052 15.889,17.395L15.889,15.145C15.889,13.488 17.232,12.145 18.889,12.145ZM22.639,14.395L25.639,14.395M22.639,18.145L25.639,18.145M15.889,15.895L12.889,15.895C12.061,15.895 11.389,16.567 11.389,17.395L11.389,29.395C11.389,30.223 12.061,30.895 12.889,30.895L14.389,30.895M36.889,20.395L33.139,20.395C32.311,20.395 31.639,19.723 31.639,18.895L31.639,13.645C31.639,12.817 32.311,12.145 33.139,12.145L36.889,12.145C38.546,12.145 39.889,13.488 39.889,15.145L39.889,17.395C39.889,19.052 38.546,20.395 36.889,20.395ZM39.889,15.895L42.889,15.895C43.717,15.895 44.389,16.567 44.389,17.395L44.389,29.395C44.389,30.223 43.717,30.895 42.889,30.895L42.139,30.895M34.645,28.173C36.237,30.36 38.857,31.554 41.552,31.323M21.357,28.173C19.764,30.36 17.143,31.555 14.448,31.323M34.168,14.934L35.764,14.934M34.168,17.607L35.764,17.607" style="fill:none;stroke:rgb(44,44,44);stroke-width:2px;"/>
                    </g>
                </g>
            </g>
            <g id="g-root-ic_cale_1cymhbh18ghyj1-stroke" transform="matrix(1,0,0,1,86,242)">
                <g id="ic_cale_1cymhbh18ghyj1-stroke">
                    <g>
                        <path d="M19.328,21.52L19.328,16.945C19.331,15.263 20.696,13.9 22.378,13.9L42.201,13.9C43.883,13.9 45.248,15.263 45.25,16.945L45.25,36.767C45.25,38.452 43.885,39.817 42.201,39.817L33.814,39.817M19.328,19.994L45.25,19.994M32.29,25.713L38.755,25.713L33.583,34.119M25.727,10.846L25.727,16.594M38.851,10.846L38.851,16.594M32.29,10.846L32.29,16.594M17.611,34.861C17.611,36.124 18.635,37.149 19.898,37.149C21.162,37.149 22.186,36.124 22.186,34.861C22.186,33.598 21.162,32.573 19.898,32.573C18.635,32.573 17.611,33.598 17.611,34.861M21.841,26.014L22.516,28.228C22.746,28.991 23.528,29.446 24.305,29.267L26.555,28.747C27.43,28.546 28.333,28.939 28.782,29.717C29.23,30.494 29.118,31.473 28.505,32.129L26.935,33.823C26.392,34.409 26.392,35.314 26.935,35.901L28.494,37.6C29.103,38.255 29.215,39.231 28.769,40.007C28.324,40.784 27.424,41.179 26.551,40.982L24.301,40.462C23.526,40.286 22.747,40.739 22.516,41.5L21.841,43.716C21.584,44.573 20.794,45.161 19.898,45.161C19.003,45.161 18.213,44.573 17.956,43.716L17.281,41.5C17.056,40.733 16.273,40.273 15.493,40.45L13.243,40.97C12.375,41.158 11.486,40.763 11.043,39.993C10.6,39.224 10.706,38.256 11.304,37.6L12.876,35.907C13.417,35.32 13.417,34.416 12.876,33.829L11.304,32.13C10.691,31.473 10.579,30.494 11.027,29.717C11.476,28.939 12.379,28.546 13.254,28.747L15.504,29.267C16.28,29.445 17.061,28.991 17.292,28.228L17.966,26.014C18.229,25.165 19.015,24.586 19.904,24.586C20.793,24.586 21.578,25.165 21.841,26.014Z" style="fill:none;stroke:rgb(44,44,44);stroke-width:2px;"/>
                    </g>
                </g>
            </g>
            <g id="g-root-ic_1_hv9kj118g2jgr-stroke" transform="matrix(1,0,0,1,476,290)">
                <g id="ic_1_hv9kj118g2jgr-stroke">
                    <g>
                        <path d="M38.2,33.25C38.8,33.85 39.25,34.6 39.25,35.5L39.25,40C39.25,40.9 38.65,41.5 37.75,41.5L12.25,41.5C11.35,41.5 10.75,40.9 10.75,40L10.75,35.5C10.75,33.85 12.1,32.5 13.75,32.5L14.5,32.5L10.75,29.5M25,32.5L14.5,32.5L14.95,26.95C15.1,25.45 16.45,24.25 17.95,24.25L25,24.25M13.75,37C13.75,37.828 14.422,38.5 15.25,38.5C16.078,38.5 16.75,37.828 16.75,37C16.75,36.172 16.078,35.5 15.25,35.5C14.422,35.5 13.75,36.172 13.75,37M33.25,37C33.25,37.828 33.922,38.5 34.75,38.5C35.578,38.5 36.25,37.828 36.25,37C36.25,36.172 35.578,35.5 34.75,35.5C33.922,35.5 33.25,36.172 33.25,37M18.25,41.5L18.25,43C18.25,44.2 17.2,45.25 16,45.25C14.8,45.25 13.75,44.2 13.75,43L13.75,41.5M36.25,41.5L36.25,43C36.25,44.2 35.2,45.25 34,45.25C32.8,45.25 31.75,44.2 31.75,43L31.75,41.5M45.25,29.5C45.25,29.95 44.95,30.25 44.5,30.25L29.5,30.25C29.05,30.25 28.75,29.95 28.75,29.5L28.75,11.5C28.75,11.05 29.05,10.75 29.5,10.75L44.5,10.75C44.95,10.75 45.25,11.05 45.25,11.5L45.25,29.5ZM34,16.3L34.9,17.65C35.05,17.95 35.35,18.1 35.65,18.1C35.95,18.1 36.25,18.1 36.4,17.8L40,14.5M34,24.1L34.9,25.45C35.05,25.75 35.35,25.9 35.65,25.9C35.95,25.9 36.25,25.9 36.4,25.6L40,22.3" style="fill:none;stroke:rgb(44,44,44);stroke-width:2px;"/>
                    </g>
                </g>
            </g>
            <g id="g-root-ic_key_1cuvmst18gks1z-stroke" transform="matrix(1,0,0,1,122,326)">
                <g id="ic_key_1cuvmst18gks1z-stroke">
                    <g>
                        <path d="M12.25,15.663L12.25,27.118C12.34,34.872 17.265,41.743 24.578,44.32L26.26,44.941C27.383,45.354 28.617,45.354 29.74,44.941L31.422,44.32C38.735,41.743 43.66,34.872 43.75,27.118L43.75,15.663C43.747,14.743 43.196,13.913 42.349,13.554C37.805,11.657 32.923,10.703 28,10.75C23.077,10.703 18.195,11.657 13.651,13.554C12.804,13.913 12.253,14.743 12.25,15.663ZM37.75,18.25L34.75,18.25L28.219,24.781C25.578,23.589 22.462,24.455 20.814,26.838C19.167,29.222 19.459,32.443 21.508,34.492C23.557,36.541 26.778,36.833 29.162,35.186C31.545,33.538 32.411,30.422 31.219,27.781L37.75,21.25L37.75,18.25ZM23.875,30.25C23.875,31.286 24.714,32.125 25.75,32.125C26.786,32.125 27.625,31.286 27.625,30.25C27.625,29.214 26.786,28.375 25.75,28.375C24.714,28.375 23.875,29.214 23.875,30.25Z" style="fill:none;stroke:rgb(44,44,44);stroke-width:2px;"/>
                    </g>
                </g>
            </g>
            <g id="g-root-ic_smil_1cuvpyl18g9jb7-stroke" transform="matrix(1,0,0,1,476,362)">
                <g id="ic_smil_1cuvpyl18g9jb7-stroke">
                    <g>
                        <path d="M32.125,35.125L32.125,44.875L17.125,44.875L17.125,26.125C17.125,25.297 17.797,24.625 18.625,24.625L21.25,24.625M12.625,35.125L17.125,35.125L17.125,44.875L11.125,44.875L11.125,36.625C11.125,35.797 11.797,35.125 12.625,35.125ZM32.125,35.125L36.625,35.125C37.453,35.125 38.125,35.797 38.125,36.625L38.125,44.875L32.125,44.875L32.125,35.125ZM25.375,20.875C25.375,26.26 29.74,30.625 35.125,30.625C40.51,30.625 44.875,26.26 44.875,20.875C44.875,15.49 40.51,11.125 35.125,11.125C29.74,11.125 25.375,15.49 25.375,20.875M29.875,19.75C29.875,19.957 30.043,20.125 30.25,20.125C30.457,20.125 30.625,19.957 30.625,19.75C30.625,19.543 30.457,19.375 30.25,19.375C30.043,19.375 29.875,19.543 29.875,19.75M39.625,19.75C39.625,19.957 39.793,20.125 40,20.125C40.207,20.125 40.375,19.957 40.375,19.75C40.375,19.543 40.207,19.375 40,19.375C39.793,19.375 39.625,19.543 39.625,19.75M38.371,23.629C36.578,25.421 33.672,25.421 31.879,23.629M22.54,34.412L26.71,34.412M22.54,29.418L24.625,29.418M22.54,39.408L26.71,39.408M32.125,38.358L34.202,38.358M32.125,41.426L34.202,41.426M15.048,38.358L17.125,38.358M15.048,41.426L17.125,41.426" style="fill:none;stroke:rgb(44,44,44);stroke-width:2px;"/>
                    </g>
                </g>
            </g>
        </g>
    </g>
</svg>
