<?xml version="1.0" encoding="UTF-8" standalone="no"?>
<!DOCTYPE svg PUBLIC "-//W3C//DTD SVG 1.1//EN" "http://www.w3.org/Graphics/SVG/1.1/DTD/svg11.dtd">
<svg width="100%" height="100%" viewBox="0 0 702 978" version="1.1" xmlns="http://www.w3.org/2000/svg" xmlns:xlink="http://www.w3.org/1999/xlink" xml:space="preserve" xmlns:serif="http://www.serif.com/" style="fill-rule:evenodd;clip-rule:evenodd;stroke-linecap:round;stroke-linejoin:round;">
    <g id="items" transform="matrix(1.09179,0,0,1.09179,-32.22,-56.532)">
        <g id="blend">
            <g id="g-root-cp_5_shape-5_1lt0cuy1ytl15a-fill" transform="matrix(1,0,0,1,314.303,104)">
                <g id="cp_5_shape-5_1lt0cuy1ytl15a-fill">
                    <g>
                        <path d="M27.697,292L15.697,292L15.697,160L27.697,160L27.697,292ZM32.297,28.191L27.697,28.191L27.697,160L15.697,160L15.697,28.191L11.017,28.191C10.237,28.191 9.747,27.341 10.137,26.661L20.86,10.448C21.256,9.849 22.136,9.851 22.53,10.451L33.177,26.661C33.577,27.341 33.087,28.191 32.297,28.191Z" style="fill:rgb(251,103,98);"/>
                    </g>
                </g>
            </g>
            <g id="g-root-cp_1_shape-1_1luvs4a1ytl05k-fill" transform="matrix(1,0,0,1,32,103.816)">
                <g id="cp_1_shape-1_1luvs4a1ytl05k-fill">
                    <g>
                        <path d="M214,328.184L46,328.183C26.118,328.183 10,312.081 10,292.199L10,292.184L250,292.184C250,312.066 233.882,328.184 214,328.184ZM254.6,28.375L250,28.375L250,160.184L10,160.184C10,140.302 26.118,124.505 46,124.505L172,124.505C213.07,124.505 238,94.374 238,55.034L238,28.374L233.32,28.374C232.54,28.374 232.05,27.524 232.44,26.844L243.163,10.632C243.559,10.033 244.439,10.034 244.833,10.635L255.48,26.844C255.88,27.525 255.39,28.375 254.6,28.375ZM250,160.184L250,292.184L10,292.184L10,160.184L250,160.184Z" style="fill:rgb(67,221,147);"/>
                    </g>
                </g>
            </g>
            <g id="g-root-cp_3_shape-3_14488pm1ytkzcy-fill" transform="matrix(1,0,0,1,284.303,104)">
                <g id="cp_3_shape-3_14488pm1ytkzcy-fill">
                    <g>
                        <path d="M27.697,292L15.697,292L15.697,160L27.697,160L27.697,292ZM32.297,28.191L27.697,28.191L27.697,160L15.697,160L15.697,28.191L11.017,28.191C10.237,28.191 9.747,27.341 10.137,26.661L20.86,10.448C21.256,9.849 22.136,9.851 22.53,10.451L33.177,26.661C33.577,27.341 33.087,28.191 32.297,28.191Z" style="fill:rgb(26,195,251);"/>
                    </g>
                </g>
            </g>
            <g id="g-root-cp_3_shape-3_1_4maot61ytl05o-fill" transform="matrix(1,0,0,1,32,386)">
                <g id="cp_3_shape-3_1_4maot61ytl05o-fill">
                    <g>
                        <path d="M214,64.321C244,64.321 268,46 268,10L280,10L280,100.306L10,100.306C10,80.423 26.118,64.321 46,64.321L214,64.321Z" style="fill:rgb(26,195,251);"/>
                    </g>
                </g>
            </g>
            <g id="g-root-cp_5_shape-5_1_18lap0a1ytl0qu-fill" transform="matrix(1,0,0,1,320,386)">
                <g id="cp_5_shape-5_1_18lap0a1ytl0qu-fill">
                    <g>
                        <rect x="10" y="10" width="12" height="222" style="fill:rgb(251,103,98);"/>
                    </g>
                </g>
            </g>
            <g id="g-root-cp_3_shape-3_2_hz05cq1ytl0qw-fill" transform="matrix(1,0,0,1,32,476)">
                <g id="cp_3_shape-3_2_hz05cq1ytl0qw-fill">
                    <g>
                        <path d="M280,10L280,141.979L10,141.979L10,10L280,10ZM244,178.008L46,178.008C26.118,178.008 10,161.905 10,142.023L10,142.008L280,142.008C280,161.89 263.882,178.008 244,178.008Z" style="fill:rgb(26,195,251);"/>
                    </g>
                </g>
            </g>
            <g id="g-root-cp_5_shape-5_2_1qdtnoa1ytl0ju-fill" transform="matrix(1,0,0,1,32,608)">
                <g id="cp_5_shape-5_2_1qdtnoa1ytl0ju-fill">
                    <g>
                        <path d="M244,64.137C274,64.137 298,45.878 298,10L310,10L310,100L10,100C10,80.185 26.118,64.137 46,64.137L244,64.137Z" style="fill:rgb(251,103,98);"/>
                    </g>
                </g>
            </g>
            <g id="g-root-cp_5_shape-5_3_zrj40q1ytl0jw-fill" transform="matrix(1,0,0,1,32,698)">
                <g id="cp_5_shape-5_3_zrj40q1ytl0jw-fill">
                    <g>
                        <path d="M310,10L310,142L10,142L10,10L310,10ZM274,178.008L46,178.008C26.118,178.008 10,161.882 10,142L310,142C310,161.882 293.882,178.008 274,178.008Z" style="fill:rgb(251,103,98);"/>
                    </g>
                </g>
            </g>
            <g id="g-root-cp_2_shape-2_4pf28q1ytl1c6-fill" transform="matrix(1,0,0,1,404.378,103.816)">
                <g id="cp_2_shape-2_4pf28q1ytl1c6-fill">
                    <g>
                        <path d="M51.622,352.184L219.622,352.184C239.504,352.184 255.622,336.081 255.622,316.199L255.622,316.184L15.622,316.184C15.622,336.066 31.74,352.184 51.622,352.184ZM11.022,28.375L15.622,28.375L15.622,160.184L255.622,160.184C255.622,140.302 239.505,124.505 219.623,124.505L93.622,124.505C52.552,124.505 27.622,94.374 27.622,55.034L27.622,28.374L32.302,28.374C33.082,28.374 33.572,27.524 33.182,26.844L22.459,10.632C22.063,10.033 21.184,10.034 20.79,10.635L10.142,26.844C9.742,27.525 10.232,28.375 11.022,28.375ZM15.622,160.184L15.622,316.184L255.622,316.184L255.622,160.184L15.622,160.184Z" style="fill:rgb(166,218,55);"/>
                    </g>
                </g>
            </g>
            <g id="g-root-cp_4_shape-4_1cu92ca1yszymg-fill" transform="matrix(1,0,0,1,374.383,104)">
                <g id="cp_4_shape-4_1cu92ca1yszymg-fill">
                    <g>
                        <path d="M15.623,316L27.623,316L27.623,160L15.623,160L15.623,316ZM11.022,28.191L15.622,28.191L15.622,160L27.622,160L27.622,28.191L32.302,28.191C33.082,28.191 33.572,27.341 33.182,26.661L22.459,10.448C22.063,9.849 21.184,9.851 20.79,10.451L10.142,26.661C9.742,27.341 10.232,28.191 11.022,28.191Z" style="fill:rgb(135,105,253);"/>
                    </g>
                </g>
            </g>
            <g id="g-root-cp_6_shape-6_m7yioq1yszymi-fill" transform="matrix(1,0,0,1,344.383,104)">
                <g id="cp_6_shape-6_m7yioq1yszymi-fill">
                    <g>
                        <path d="M15.623,316L27.623,316L27.623,160L15.623,160L15.623,316ZM11.022,28.191L15.622,28.191L15.622,160L27.622,160L27.622,28.191L32.302,28.191C33.082,28.191 33.572,27.341 33.182,26.661L22.459,10.448C22.063,9.849 21.184,9.851 20.79,10.451L10.142,26.661C9.742,27.341 10.232,28.191 11.022,28.191Z" style="fill:rgb(247,148,56);"/>
                    </g>
                </g>
            </g>
            <g id="g-root-cp_4_shape-4_1_4haza21yszxtw-fill" transform="matrix(1,0,0,1,380,410)">
                <g id="cp_4_shape-4_1_4haza21yszxtw-fill">
                    <g>
                        <path d="M76,64.321C46,64.321 22,46 22,10L10,10L10,100.306L280,100.306C280,80.423 263.882,64.321 244,64.321L76,64.321Z" style="fill:rgb(135,105,253);"/>
                    </g>
                </g>
            </g>
            <g id="g-root-cp_4_shape-4_2_1cw4hlm1yszxmu-fill" transform="matrix(1,0,0,1,380,500)">
                <g id="cp_4_shape-4_2_1cw4hlm1yszxmu-fill">
                    <g>
                        <path d="M10,10L10,166L280,166L280,10L10,10ZM46,202L244,202C263.882,202 280,185.898 280,166.016L280,166L10,166C10,185.882 26.118,202 46,202Z" style="fill:rgb(135,105,253);"/>
                    </g>
                </g>
            </g>
            <g id="g-root-cp_6_shape-6_1_v5gy6y1yszwu8-fill" transform="matrix(1,0,0,1,350,410)">
                <g id="cp_6_shape-6_1_v5gy6y1yszwu8-fill">
                    <g>
                        <rect x="10" y="10" width="12" height="246" style="fill:rgb(247,148,56);"/>
                    </g>
                </g>
            </g>
            <g id="g-root-cp_6_shape-6_2_hu0ftm1yszyf6-fill" transform="matrix(1,0,0,1,350,656)">
                <g id="cp_6_shape-6_2_hu0ftm1yszyf6-fill">
                    <g>
                        <path d="M76,64.321C46,64.321 22,46 22,10L10,10L10,100.306L310,100.306C310,80.423 293.882,64.321 274,64.321L76,64.321Z" style="fill:rgb(247,148,56);"/>
                    </g>
                </g>
            </g>
            <g id="g-root-cp_6_shape-6_3_1hdteze1yszvv0-fill" transform="matrix(1,0,0,1,350,746)">
                <g id="cp_6_shape-6_3_1hdteze1yszvv0-fill">
                    <g>
                        <path d="M10,10L10,118L310,118L310,10L10,10ZM46,154L274,154C293.882,154 310,137.898 310,118.016L310,118L10,118C10,137.882 26.118,154 46,154Z" style="fill:rgb(247,148,56);"/>
                    </g>
                </g>
            </g>
            <g id="g-root-tx_provides_dj6qe21yszym8-fill" transform="matrix(1,0,0,1,68,362)">
                <g id="tx_provides_dj6qe21yszym8-fill">
                    <g>
                        <g>
                            <g transform="matrix(1,0,0,1,25.89,28.2)">
                                <text x="0px" y="0px" style="font-family:'ArialMT', 'Arial', sans-serif;font-size:15px;fill:rgb(44,44,44);">Provides instant and</text>
                            </g>
                            <g transform="matrix(1,0,0,1,12.36,46.2)">
                                <text x="0px" y="0px" style="font-family:'ArialMT', 'Arial', sans-serif;font-size:15px;fill:rgb(44,44,44);">timely message delivery<tspan x="158.943px " y="0px ">.</tspan></text>
                            </g>
                        </g>
                    </g>
                </g>
            </g>
            <g id="g-root-tx_ensuresc_4osobe1yt8bgl-fill" transform="matrix(1,0,0,1,446,362)">
                <g id="tx_ensuresc_4osobe1yt8bgl-fill">
                    <g>
                        <g>
                            <g transform="matrix(1,0,0,1,28.62,31.2)">
                                <text x="0px" y="0px" style="font-family:'ArialMT', 'Arial', sans-serif;font-size:15px;fill:rgb(44,44,44);">Ensures consistent</text>
                            </g>
                            <g transform="matrix(1,0,0,1,15.47,49.2)">
                                <text x="0px" y="0px" style="font-family:'ArialMT', 'Arial', sans-serif;font-size:15px;fill:rgb(44,44,44);">service availability with</text>
                            </g>
                            <g transform="matrix(1,0,0,1,28.35,67.2)">
                                <text x="0px" y="0px" style="font-family:'ArialMT', 'Arial', sans-serif;font-size:15px;fill:rgb(44,44,44);">minimal downtime.</text>
                            </g>
                        </g>
                    </g>
                </g>
            </g>
            <g id="g-root-tx_999uptim_dik9ay1yt8bno-fill" transform="matrix(1,0,0,1,458,302)">
                <g id="tx_999uptim_dik9ay1yt8bno-fill">
                    <g>
                        <g>
                            <g transform="matrix(1,0,0,1,17.23,34)">
                                <text x="0px" y="0px" style="font-family:'Arial-BoldMT', 'Arial', sans-serif;font-weight:700;font-size:20px;fill:rgb(44,44,44);">99.9% Uptime</text>
                            </g>
                            <g transform="matrix(1,0,0,1,33.1,58)">
                                <text x="0px" y="0px" style="font-family:'Arial-BoldMT', 'Arial', sans-serif;font-weight:700;font-size:20px;fill:rgb(44,44,44);">Guarantee</text>
                            </g>
                        </g>
                    </g>
                </g>
            </g>
            <g id="g-root-tx_realtime_4maryy1yszx8v-fill" transform="matrix(1,0,0,1,62,302)">
                <g id="tx_realtime_4maryy1yszx8v-fill">
                    <g>
                        <g>
                            <g transform="matrix(1,0,0,1,13.23,34)">
                                <text x="0px" y="0px" style="font-family:'Arial-BoldMT', 'Arial', sans-serif;font-weight:700;font-size:20px;fill:rgb(44,44,44);">Real-T<tspan x="60.762px 66.318px " y="0px 0px ">im</tspan>e Delivery</text>
                            </g>
                            <g transform="matrix(1,0,0,1,68.15,58)">
                                <text x="0px" y="0px" style="font-family:'Arial-BoldMT', 'Arial', sans-serif;font-weight:700;font-size:20px;fill:rgb(44,44,44);">Engine</text>
                            </g>
                        </g>
                    </g>
                </g>
            </g>
            <g id="g-root-tx_simplifi_1d2zpju1ytb573-fill" transform="matrix(1,0,0,1,380,830)">
                <g id="tx_simplifi_1d2zpju1ytb573-fill">
                    <g>
                        <g>
                            <g transform="matrix(1,0,0,1,25.24,28.2)">
                                <g transform="matrix(15,0,0,15,40.8398,0)">
                                </g>
                                <g transform="matrix(15,0,0,15,45.0073,0)">
                                </g>
                                <text x="0px" y="0px" style="font-family:'ArialMT', 'Arial', sans-serif;font-size:15px;fill:rgb(44,44,44);">Simpliﬁes management with an</text>
                            </g>
                            <g transform="matrix(1,0,0,1,15.93,46.2)">
                                <text x="0px" y="0px" style="font-family:'ArialMT', 'Arial', sans-serif;font-size:15px;fill:rgb(44,44,44);">intuitive and easy-to-use interface.</text>
                            </g>
                        </g>
                    </g>
                </g>
            </g>
            <g transform="matrix(1,0,0,1,95.93,558)">
                <g id="g-root-tx_customse_143lusa1yt5ipu-fill">
                    <g id="tx_customse_143lusa1yt5ipu-fill">
                        <g>
                            <g>
                                <text x="0px" y="0px" style="font-family:'Arial-BoldMT', 'Arial', sans-serif;font-weight:700;font-size:20px;fill:rgb(44,44,44);">Custom Sender ID</text>
                            </g>
                        </g>
                    </g>
                </g>
            </g>
            <g id="g-root-tx_allowspe_1lw4tga1yt5iir-fill" transform="matrix(1,0,0,1,71,560)">
                <g id="tx_allowspe_1lw4tga1yt5iir-fill">
                    <g>
                        <g>
                            <g transform="matrix(1,0,0,1,12.74,31.2)">
                                <text x="0px" y="0px" style="font-family:'ArialMT', 'Arial', sans-serif;font-size:15px;fill:rgb(44,44,44);">Allows personalized sender</text>
                            </g>
                            <g transform="matrix(1,0,0,1,15.07,49.2)">
                                <g transform="matrix(15,0,0,15,35.8594,0)">
                                </g>
                                <g transform="matrix(15,0,0,15,40.0269,0)">
                                </g>
                                <text x="0px" y="0px" style="font-family:'ArialMT', 'Arial', sans-serif;font-size:15px;fill:rgb(44,44,44);">identiﬁcation for enhanced</text>
                            </g>
                            <g transform="matrix(1,0,0,1,72.93,67.2)">
                                <text x="0px" y="0px" style="font-family:'ArialMT', 'Arial', sans-serif;font-size:15px;fill:rgb(44,44,44);">branding.</text>
                            </g>
                        </g>
                    </g>
                </g>
            </g>
            <g id="g-root-tx_multirou_73qxm1yt9qmi-fill" transform="matrix(1,0,0,1,455,548)">
                <g id="tx_multirou_73qxm1yt9qmi-fill">
                    <g>
                        <g>
                            <g transform="matrix(1,0,0,1,15.13,34)">
                                <text x="0px" y="0px" style="font-family:'Arial-BoldMT', 'Arial', sans-serif;font-weight:700;font-size:20px;fill:rgb(44,44,44);">Multi-Route</text>
                            </g>
                            <g transform="matrix(1,0,0,1,13.07,58)">
                                <text x="0px" y="0px" style="font-family:'Arial-BoldMT', 'Arial', sans-serif;font-weight:700;font-size:20px;fill:rgb(44,44,44);">Redundancy</text>
                            </g>
                        </g>
                    </g>
                </g>
            </g>
            <g id="g-root-tx_offersmu_hzmplm1yt9qff-fill" transform="matrix(1,0,0,1,419,608)">
                <g id="tx_offersmu_hzmplm1yt9qff-fill">
                    <g>
                        <g>
                            <g transform="matrix(1,0,0,1,20.47,31.2)">
                                <g transform="matrix(15,0,0,15,11.6675,0)">
                                </g>
                                <g transform="matrix(15,0,0,15,15.6738,0)">
                                </g>
                                <text x="0px" y="0px" style="font-family:'ArialMT', 'Arial', sans-serif;font-size:15px;fill:rgb(44,44,44);">Oﬀers multiple routes for</text>
                            </g>
                            <g transform="matrix(1,0,0,1,14.36,49.2)">
                                <text x="0px" y="0px" style="font-family:'ArialMT', 'Arial', sans-serif;font-size:15px;fill:rgb(44,44,44);">message delivery<tspan x="115.605px 119.773px " y="0px 0px ">, </tspan>ensuring</text>
                            </g>
                            <g transform="matrix(1,0,0,1,72.69,67.2)">
                                <text x="0px" y="0px" style="font-family:'ArialMT', 'Arial', sans-serif;font-size:15px;fill:rgb(44,44,44);">reliability<tspan x="57.239px " y="0px ">.</tspan></text>
                            </g>
                        </g>
                    </g>
                </g>
            </g>
            <g id="g-root-tx_secureme_hwic621yt6yha-fill" transform="matrix(1,0,0,1,92,746)">
                <g id="tx_secureme_hwic621yt6yha-fill">
                    <g>
                        <g>
                            <g transform="matrix(1,0,0,1,14.23,34)">
                                <text x="0px" y="0px" style="font-family:'Arial-BoldMT', 'Arial', sans-serif;font-weight:700;font-size:20px;fill:rgb(44,44,44);">Secure Messaging</text>
                            </g>
                            <g transform="matrix(1,0,0,1,58.92,58)">
                                <text x="0px" y="0px" style="font-family:'Arial-BoldMT', 'Arial', sans-serif;font-weight:700;font-size:20px;fill:rgb(44,44,44);">Gateway</text>
                            </g>
                        </g>
                    </g>
                </g>
            </g>
            <g id="g-root-tx_protects_hydrfe1yt6xhj-fill" transform="matrix(1,0,0,1,62,806)">
                <g id="tx_protects_hydrfe1yt6xhj-fill">
                    <g>
                        <g>
                            <g transform="matrix(1,0,0,1,12.98,28.2)">
                                <text x="0px" y="0px" style="font-family:'ArialMT', 'Arial', sans-serif;font-size:15px;fill:rgb(44,44,44);">Protects sensitive information with</text>
                            </g>
                            <g transform="matrix(1,0,0,1,32.68,46.2)">
                                <text x="0px" y="0px" style="font-family:'ArialMT', 'Arial', sans-serif;font-size:15px;fill:rgb(44,44,44);">secure messaging protocols.</text>
                            </g>
                        </g>
                    </g>
                </g>
            </g>
            <g transform="matrix(1,0,0,1,398.4,828)">
                <g id="g-root-tx_userfrie_1463r4q1ytb4li-fill">
                    <g id="tx_userfrie_1463r4q1ytb4li-fill">
                        <g>
                            <g>
                                <text x="0px" y="0px" style="font-family:'Arial-BoldMT', 'Arial', sans-serif;font-weight:700;font-size:20px;fill:rgb(44,44,44);">User-Friendly Dashboard</text>
                            </g>
                        </g>
                    </g>
                </g>
            </g>
            <g id="g-root-cp_5_shape-5_1lt0cuy1ytl15a-stroke" transform="matrix(1,0,0,1,314.303,104)">
                <g id="cp_5_shape-5_1lt0cuy1ytl15a-stroke">
                    <g>
                        <path d="M15.697,160L15.697,292M27.697,292L27.697,160M15.697,160L15.697,28.191L11.017,28.191C10.237,28.191 9.747,27.341 10.137,26.661L20.86,10.448C21.256,9.849 22.136,9.851 22.53,10.451L33.177,26.661C33.577,27.341 33.087,28.191 32.297,28.191L27.697,28.191L27.697,160" style="fill:none;stroke:rgb(44,44,44);stroke-width:2px;"/>
                    </g>
                </g>
            </g>
            <g id="g-root-cp_1_shape-1_1luvs4a1ytl05k-stroke" transform="matrix(1,0,0,1,32,103.816)">
                <g id="cp_1_shape-1_1luvs4a1ytl05k-stroke">
                    <g>
                        <path d="M10,160.184C10,140.301 26.118,124.321 46,124.321L172,124.321C213.07,124.321 238,94.191 238,54.851L238,28.191L233.32,28.191C232.54,28.191 232.05,27.341 232.44,26.661L243.163,10.448C243.559,9.849 244.439,9.851 244.833,10.451L255.48,26.661C255.88,27.341 255.39,28.191 254.6,28.191L250,28.191L250,160.184M250,292.184C250,312.066 233.882,328.191 214,328.191L46,328.191C26.118,328.191 10,312.081 10,292.199L10,292.184M250,292.184L250,160.184M10,160.184L10,292.184" style="fill:none;stroke:rgb(44,44,44);stroke-width:2px;"/>
                    </g>
                </g>
            </g>
            <g id="g-root-cp_3_shape-3_14488pm1ytkzcy-stroke" transform="matrix(1,0,0,1,284.303,104)">
                <g id="cp_3_shape-3_14488pm1ytkzcy-stroke">
                    <g>
                        <path d="M15.697,160L15.697,292M27.697,292L27.697,160M15.697,160L15.697,28.191L11.017,28.191C10.237,28.191 9.747,27.341 10.137,26.661L20.86,10.448C21.256,9.849 22.136,9.851 22.53,10.451L33.177,26.661C33.577,27.341 33.087,28.191 32.297,28.191L27.697,28.191L27.697,160" style="fill:none;stroke:rgb(44,44,44);stroke-width:2px;"/>
                    </g>
                </g>
            </g>
            <g id="g-root-cp_3_shape-3_1_4maot61ytl05o-stroke" transform="matrix(1,0,0,1,32,386)">
                <g id="cp_3_shape-3_1_4maot61ytl05o-stroke">
                    <g>
                        <path d="M268,10C268,46 244,64.321 214,64.321L46,64.321C26.118,64.321 10,80.423 10,100.306M280,100.306L280,10" style="fill:none;stroke:rgb(44,44,44);stroke-width:2px;"/>
                    </g>
                </g>
            </g>
            <g id="g-root-cp_5_shape-5_1_18lap0a1ytl0qu-stroke" transform="matrix(1,0,0,1,320,386)">
                <g id="cp_5_shape-5_1_18lap0a1ytl0qu-stroke">
                    <g>
                        <path d="M10,10L10,232M22,232L22,10" style="fill:none;stroke:rgb(44,44,44);stroke-width:2px;"/>
                    </g>
                </g>
            </g>
            <g id="g-root-cp_3_shape-3_2_hz05cq1ytl0qw-stroke" transform="matrix(1,0,0,1,32,476)">
                <g id="cp_3_shape-3_2_hz05cq1ytl0qw-stroke">
                    <g>
                        <path d="M280,141.979L280,10M10,10L10,142M280,142.008C280,161.89 263.882,178.008 244,178.008L46,178.008C26.118,178.008 10,161.905 10,142.023L10,142.008" style="fill:none;stroke:rgb(44,44,44);stroke-width:2px;"/>
                    </g>
                </g>
            </g>
            <g id="g-root-cp_5_shape-5_2_1qdtnoa1ytl0ju-stroke" transform="matrix(1,0,0,1,32,608)">
                <g id="cp_5_shape-5_2_1qdtnoa1ytl0ju-stroke">
                    <g>
                        <path d="M298,10C298,45.878 274,64.137 244,64.137L46,64.137C26.118,64.137 10,80.185 10,100M310,100L310,10" style="fill:none;stroke:rgb(44,44,44);stroke-width:2px;"/>
                    </g>
                </g>
            </g>
            <g id="g-root-cp_5_shape-5_3_zrj40q1ytl0jw-stroke" transform="matrix(1,0,0,1,32,698)">
                <g id="cp_5_shape-5_3_zrj40q1ytl0jw-stroke">
                    <g>
                        <path d="M310,142L310,10M10,10L10,142M310,142C310,161.882 293.882,178.008 274,178.008L46,178.008C26.118,178.008 10,161.882 10,142" style="fill:none;stroke:rgb(44,44,44);stroke-width:2px;"/>
                    </g>
                </g>
            </g>
            <g id="g-root-cp_2_shape-2_4pf28q1ytl1c6-stroke" transform="matrix(1,0,0,1,404.378,103.816)">
                <g id="cp_2_shape-2_4pf28q1ytl1c6-stroke">
                    <g>
                        <path d="M255.622,160.184C255.622,140.301 239.505,124.321 219.623,124.321L93.622,124.321C52.552,124.321 27.622,94.191 27.622,54.851L27.622,28.191L32.302,28.191C33.082,28.191 33.572,27.341 33.182,26.661L22.459,10.448C22.063,9.849 21.184,9.851 20.79,10.451L10.142,26.661C9.742,27.341 10.232,28.191 11.022,28.191L15.622,28.191L15.622,160.184M15.622,316.184C15.622,336.066 31.74,352.184 51.622,352.184L219.623,352.183C239.505,352.183 255.622,336.081 255.622,316.199L255.622,316.184M15.622,316.184L15.622,160.184M255.622,160.184L255.622,316.184" style="fill:none;stroke:rgb(44,44,44);stroke-width:2px;"/>
                    </g>
                </g>
            </g>
            <g id="g-root-cp_4_shape-4_1cu92ca1yszymg-stroke" transform="matrix(1,0,0,1,374.383,104)">
                <g id="cp_4_shape-4_1cu92ca1yszymg-stroke">
                    <g>
                        <path d="M27.622,160L27.622,316M15.622,316L15.622,160M27.622,160L27.622,28.191L32.302,28.191C33.082,28.191 33.572,27.341 33.182,26.661L22.459,10.448C22.063,9.849 21.184,9.851 20.79,10.451L10.142,26.661C9.742,27.341 10.232,28.191 11.022,28.191L15.622,28.191L15.622,160" style="fill:none;stroke:rgb(44,44,44);stroke-width:2px;"/>
                    </g>
                </g>
            </g>
            <g id="g-root-cp_6_shape-6_m7yioq1yszymi-stroke" transform="matrix(1,0,0,1,344.383,104)">
                <g id="cp_6_shape-6_m7yioq1yszymi-stroke">
                    <g>
                        <path d="M27.622,160L27.622,316M15.622,316L15.622,160M27.622,160L27.622,28.191L32.302,28.191C33.082,28.191 33.572,27.341 33.182,26.661L22.459,10.448C22.063,9.849 21.184,9.851 20.79,10.451L10.142,26.661C9.742,27.341 10.232,28.191 11.022,28.191L15.622,28.191L15.622,160" style="fill:none;stroke:rgb(44,44,44);stroke-width:2px;"/>
                    </g>
                </g>
            </g>
            <g id="g-root-cp_4_shape-4_1_4haza21yszxtw-stroke" transform="matrix(1,0,0,1,380,410)">
                <g id="cp_4_shape-4_1_4haza21yszxtw-stroke">
                    <g>
                        <path d="M22,10C22,46 46,64.321 76,64.321L244,64.321C263.882,64.321 280,80.423 280,100.306M10,100.306L10,10" style="fill:none;stroke:rgb(44,44,44);stroke-width:2px;"/>
                    </g>
                </g>
            </g>
            <g id="g-root-cp_4_shape-4_2_1cw4hlm1yszxmu-stroke" transform="matrix(1,0,0,1,380,500)">
                <g id="cp_4_shape-4_2_1cw4hlm1yszxmu-stroke">
                    <g>
                        <path d="M10,166L10,10M280,10L280,166M10,166C10,185.882 26.118,202.008 46,202.008L244,202.008C263.882,202.008 280,185.898 280,166.016L280,166" style="fill:none;stroke:rgb(44,44,44);stroke-width:2px;"/>
                    </g>
                </g>
            </g>
            <g id="g-root-cp_6_shape-6_1_v5gy6y1yszwu8-stroke" transform="matrix(1,0,0,1,350,410)">
                <g id="cp_6_shape-6_1_v5gy6y1yszwu8-stroke">
                    <g>
                        <path d="M22,10L22,256M10,256L10,10" style="fill:none;stroke:rgb(44,44,44);stroke-width:2px;"/>
                    </g>
                </g>
            </g>
            <g id="g-root-cp_6_shape-6_2_hu0ftm1yszyf6-stroke" transform="matrix(1,0,0,1,350,656)">
                <g id="cp_6_shape-6_2_hu0ftm1yszyf6-stroke">
                    <g>
                        <path d="M22,10C22,46 46,64.321 76,64.321L274,64.321C293.882,64.321 310,80.423 310,100.306M10,100.306L10,10" style="fill:none;stroke:rgb(44,44,44);stroke-width:2px;"/>
                    </g>
                </g>
            </g>
            <g id="g-root-cp_6_shape-6_3_1hdteze1yszvv0-stroke" transform="matrix(1,0,0,1,350,746)">
                <g id="cp_6_shape-6_3_1hdteze1yszvv0-stroke">
                    <g>
                        <path d="M10,118L10,10M310,10L310,118M10,118C10,137.882 26.118,154.008 46,154.008L274,154.008C293.882,154.008 310,137.898 310,118.016L310,118" style="fill:none;stroke:rgb(44,44,44);stroke-width:2px;"/>
                    </g>
                </g>
            </g>
            <g id="g-root-ic_1_m7c1lm1yt9pty-stroke" transform="matrix(1,0,0,1,506,242)">
                <g id="ic_1_m7c1lm1yt9pty-stroke">
                    <g>
                        <path d="M44,31C44,36.523 39.523,41 34,41C28.477,41 24,36.523 24,31C24,25.477 28.477,21 34,21M30,30L33.24,32.43C33.666,32.749 34.267,32.679 34.608,32.27L44,21M13,17.55L13,32.824C13.12,43.162 19.687,52.324 29.438,55.76L31.68,56.588C33.178,57.138 34.822,57.138 36.32,56.588L38.562,55.76C48.313,52.324 54.88,43.162 55,32.824L55,17.55C54.996,16.323 54.261,15.217 53.132,14.738C47.074,12.209 40.565,10.938 34,11C27.435,10.938 20.926,12.209 14.868,14.738C13.739,15.217 13.004,16.323 13,17.55Z" style="fill:none;stroke:rgb(44,44,44);stroke-width:2px;"/>
                    </g>
                </g>
            </g>
            <g id="g-root-ic_stac_1ut0rve1yt5j4c-stroke" transform="matrix(1,0,0,1,143,464)">
                <g id="ic_stac_1ut0rve1yt5j4c-stroke">
                    <g>
                        <path d="M33.9,38.399C36.33,38.399 38.3,36.43 38.3,34C38.3,31.57 36.33,29.6 33.9,29.6C31.47,29.6 29.5,31.57 29.5,34C29.5,36.43 31.47,38.399 33.9,38.399ZM24.9,50.6C24.9,45.6 28.9,41.6 33.9,41.6C38.9,41.6 42.9,45.6 42.9,50.6L24.9,50.6ZM50.5,56.6L17.5,56.6C14.1,56.6 11.5,54 11.5,50.6L11.5,29.6C11.5,26.2 14.1,23.6 17.5,23.6L50.5,23.6C53.9,23.6 56.5,26.2 56.5,29.6L56.5,50.6C56.5,53.8 53.7,56.6 50.5,56.6ZM17.3,17.4L50.5,17.4M17.3,17.4L50.5,17.4M22.3,11.4L45.5,11.4" style="fill:none;stroke:rgb(44,44,44);stroke-width:2px;"/>
                    </g>
                </g>
            </g>
            <g id="g-root-ic_1_18n67fe1yt9slg-stroke" transform="matrix(1,0,0,1,491,488)">
                <g id="ic_1_18n67fe1yt9slg-stroke">
                    <g>
                        <path d="M17,11L27,11C27,11 29,11 29,13L29,25C29,25 29,27 27,27L17,27C17,27 15,27 15,25L15,13C15,13 15,11 17,11M17,27L17,29M27,27L27,29M18,22.5C18.276,22.5 18.5,22.724 18.5,23M17.5,23C17.5,22.724 17.724,22.5 18,22.5M18,23.5C17.724,23.5 17.5,23.276 17.5,23M18.5,23C18.5,23.276 18.276,23.5 18,23.5M26,22.5C26.276,22.5 26.5,22.724 26.5,23M25.5,23C25.5,22.724 25.724,22.5 26,22.5M26,23.5C25.724,23.5 25.5,23.276 25.5,23M26.5,23C26.5,23.276 26.276,23.5 26,23.5M15,19L29,19M11,13L11,17M33,13L33,17M41,39L51,39C51,39 53,39 53,41L53,53C53,53 53,55 51,55L41,55C41,55 39,55 39,53L39,41C39,41 39,39 41,39M41,55L41,57M51,55L51,57M42,50.5C42.276,50.5 42.5,50.724 42.5,51M41.5,51C41.5,50.724 41.724,50.5 42,50.5M42,51.5C41.724,51.5 41.5,51.276 41.5,51M42.5,51C42.5,51.276 42.276,51.5 42,51.5M50,50.5C50.276,50.5 50.5,50.724 50.5,51M49.5,51C49.5,50.724 49.724,50.5 50,50.5M50,51.5C49.724,51.5 49.5,51.276 49.5,51M50.5,51C50.5,51.276 50.276,51.5 50,51.5M39,47L53,47M35,41L35,45M57,41L57,45M30.214,46.9C25.962,44.938 23.24,40.682 23.242,36L23.242,35M35.242,24C40.603,23.998 45.315,27.552 46.786,32.708M42.728,31.46L46.782,32.708L48.03,28.652M26.242,38L23.242,35L20.242,38" style="fill:none;stroke:rgb(44,44,44);stroke-width:2px;"/>
                    </g>
                </g>
            </g>
            <g id="g-root-ic_cont_mgp5wa1yszw21-stroke" transform="matrix(1,0,0,1,128,242)">
                <g id="ic_cont_mgp5wa1yszw21-stroke">
                    <g>
                        <path d="M11.5,52.1C11.5,39.7 21.545,29.7 34,29.7C46.455,29.7 56.5,39.7 56.5,52.1M34,55.7C35.657,55.7 37,54.357 37,52.7C37,51.043 35.657,49.7 34,49.7C32.343,49.7 31,51.043 31,52.7C31,54.357 32.343,55.7 34,55.7ZM28.3,37.1L32.9,49.9M39.7,37.1L38.7,39.9M48.4,44.5L45.4,46.3M19.6,44.5L22.6,46.3M50.4,55.5L47.4,55.1M17.6,55.5L20.6,55.1M19.6,12.3L24.124,23.729M18,21.9L24,23.9L27.2,18.3" style="fill:none;stroke:rgb(44,44,44);stroke-width:2px;"/>
                    </g>
                </g>
            </g>
            <g id="g-root-ic_pass_zqwq3e1yt6xag-stroke" transform="matrix(1,0,0,1,158,686)">
                <g id="ic_pass_zqwq3e1yt6xag-stroke">
                    <g>
                        <path d="M40.857,41.474L52.857,41.474C52.857,41.474 56.286,41.474 56.286,44.903L56.286,52.857C56.286,52.857 56.286,56.286 52.857,56.286L40.857,56.286C40.857,56.286 37.429,56.286 37.429,52.857L37.429,44.903C37.429,44.903 37.429,41.474 40.857,41.474M53.577,41.543L53.577,38.56C52.928,35.364 50.118,33.067 46.857,33.067C43.596,33.067 40.786,35.364 40.137,38.56L40.137,41.543M28.857,35.714L15.143,35.714C13.249,35.714 11.714,34.179 11.714,32.286L11.714,15.143C11.714,13.249 13.249,11.714 15.143,11.714L46,11.714C47.894,11.714 49.429,13.249 49.429,15.143L49.429,22M22,23.714C22,24.661 22.768,25.429 23.714,25.429C24.661,25.429 25.429,24.661 25.429,23.714C25.429,22.768 24.661,22 23.714,22C22.768,22 22,22.768 22,23.714M35.714,23.714C35.714,24.661 36.482,25.429 37.429,25.429C38.375,25.429 39.143,24.661 39.143,23.714C39.143,22.768 38.375,22 37.429,22C36.482,22 35.714,22.768 35.714,23.714" style="fill:none;stroke:rgb(44,44,44);stroke-width:2px;"/>
                    </g>
                </g>
            </g>
            <g id="g-root-ic_grap_1q5pkpm1ytckco-stroke" transform="matrix(1,0,0,1,476,734)">
                <g id="ic_grap_1q5pkpm1ytckco-stroke">
                    <g>
                        <path d="M37,24C37,27.866 40.134,31 44,31C47.866,31 51,27.866 51,24C51,20.134 47.866,17 44,17C40.134,17 37,20.134 37,24M17,51L21.4,44.834C21.556,44.615 21.794,44.469 22.06,44.427C22.325,44.386 22.597,44.453 22.812,44.614L25.2,46.4C25.642,46.731 26.269,46.642 26.6,46.2L32,39M45.502,17.162L44,24L50.948,23.15M40,37L50,37C50,37 51,37 51,38L51,50C51,50 51,51 50,51L40,51C40,51 39,51 39,50L39,38C39,38 39,37 40,37M43,43L47,43M43,47L45,47M18,17L28,17C28,17 29,17 29,18L29,30C29,30 29,31 28,31L18,31C18,31 17,31 17,30L17,18C17,18 17,17 18,17M21,21L25,21M21,25L23,25M13,11L55,11C55,11 57,11 57,13L57,55C57,55 57,57 55,57L13,57C13,57 11,57 11,55L11,13C11,13 11,11 13,11" style="fill:none;stroke:rgb(44,44,44);stroke-width:2px;"/>
                    </g>
                </g>
            </g>
        </g>
    </g>
</svg>
