<?xml version="1.0" encoding="UTF-8" standalone="no"?>
<!DOCTYPE svg PUBLIC "-//W3C//DTD SVG 1.1//EN" "http://www.w3.org/Graphics/SVG/1.1/DTD/svg11.dtd">
<svg width="100%" height="100%" viewBox="0 0 618 660" version="1.1" xmlns="http://www.w3.org/2000/svg" xmlns:xlink="http://www.w3.org/1999/xlink" xml:space="preserve" xmlns:serif="http://www.serif.com/" style="fill-rule:evenodd;clip-rule:evenodd;stroke-linecap:round;stroke-linejoin:round;">
    <g id="items" transform="matrix(1.22184,0,0,1.22184,-68.5491,-135.8)">
        <g id="blend">
            <g id="g-root-cp_1_sign-1_144vy3e1xp8lq9-fill" transform="matrix(1,0,0,1,50,194)">
                <g id="cp_1_sign-1_144vy3e1xp8lq9-fill">
                    <g>
                        <path d="M10,40L28,10L28,70L10,40ZM28,10L249,10L249,70L28,70L28,10Z" style="fill:rgb(79,145,252);"/>
                    </g>
                </g>
            </g>
            <g id="g-root-cp_3_sign-3_qu1wt61xp8k5f-fill" transform="matrix(1,0,0,1,86,266)">
                <g id="cp_3_sign-3_qu1wt61xp8k5f-fill">
                    <g>
                        <path d="M10,52L28,10L28,94L10,52ZM28,10L213,10L213,94L28,94L28,10Z" style="fill:rgb(166,218,55);"/>
                    </g>
                </g>
            </g>
            <g id="g-root-cp_5_sign-5_4nkva21xp8jd9-fill" transform="matrix(1,0,0,1,62,362)">
                <g id="cp_5_sign-5_4nkva21xp8jd9-fill">
                    <g>
                        <path d="M10,40L28,10L28,70L10,40ZM28,10L237,10L237,70L28,70L28,10Z" style="fill:rgb(255,231,17);"/>
                    </g>
                </g>
            </g>
            <g id="g-root-cp_pole_g-pole_1qd8evu1xp8kr3-fill" transform="matrix(1,0,0,1,287,170)">
                <g id="cp_pole_g-pole_1qd8evu1xp8kr3-fill">
                    <g>
                        <path d="M31,298L13,298L13,412L31,412L31,411.897L24.55,411.88C24.55,411.88 25.3,405.89 17.74,404.78C25.63,401.53 28.41,406.56 28.41,406.56C28.41,406.56 27.994,399.986 31,394.2L31,298ZM13,22L31,22L31,298L13,298L13,22Z" style="fill:rgb(171,171,171);"/>
                    </g>
                </g>
                <g id="cp_pole_g-pole_1qd8evu1xp8kr3-fill1" serif:id="cp_pole_g-pole_1qd8evu1xp8kr3-fill">
                    <g>
                        <rect x="10" y="10" width="24" height="12" style="fill:rgb(171,171,171);"/>
                    </g>
                </g>
            </g>
            <g id="g-root-cp_pole_plant_1hi7vq21xp8j5u-fill" transform="matrix(1,0,0,1,255,547)">
                <g id="cp_pole_plant_1hi7vq21xp8j5u-fill">
                    <g>
                        <path d="M60.393,29.56C60.393,29.56 57.613,24.53 49.723,27.78C54.516,28.484 57.019,30.471 56.533,35.008L10,35.008C10,35.008 17.976,46.521 54.183,46.521C90.39,46.521 97.76,35.008 97.76,35.008L71.483,35.008C68.788,30.384 74.815,23.86 80.883,26.67C78.883,23.56 72.993,22.89 68.553,26C66.693,20.52 67.443,13.77 70.613,10C59.453,14.7 60.393,29.56 60.393,29.56Z" style="fill:rgb(145,187,57);"/>
                    </g>
                </g>
            </g>
            <g id="g-root-cp_2_sign-2_146rdcq1xp8kqs-fill" transform="matrix(1,0,0,1,309,230)">
                <g id="cp_2_sign-2_146rdcq1xp8kqs-fill">
                    <g>
                        <path d="M10,10L231,10L231,70L10,70L10,10ZM249,40L231,10L231,70L249,40Z" style="fill:rgb(67,221,147);"/>
                    </g>
                </g>
            </g>
            <g id="g-root-cp_4_sign-4_qvxc2i1xp8j5y-fill" transform="matrix(1,0,0,1,309,302)">
                <g id="cp_4_sign-4_qvxc2i1xp8j5y-fill">
                    <g>
                        <path d="M10,10L231,10L231,70L10,70L10,10ZM249,40L231,10L231,70L249,40Z" style="fill:rgb(26,195,251);"/>
                    </g>
                </g>
            </g>
            <g id="g-root-cp_6_sign-6_dkgtp61xp8kqw-fill" transform="matrix(1,0,0,1,309,374)">
                <g id="cp_6_sign-6_dkgtp61xp8kqw-fill">
                    <g>
                        <path d="M10,10L183,10L183,94L10,94L10,10ZM201,52L183,10L183,94L201,52Z" style="fill:rgb(247,148,56);"/>
                    </g>
                </g>
            </g>
            <g transform="matrix(1,0,0,1,140.75,246)">
                <g id="g-root-tx_reliable_1lvjhi21xpa0p0-fill">
                    <g id="tx_reliable_1lvjhi21xpa0p0-fill">
                        <g>
                            <g>
                                <text x="0px" y="0px" style="font-family:'ArialMT', 'Arial', sans-serif;font-size:20px;fill:rgb(44,44,44);">Reliable Delivery</text>
                            </g>
                        </g>
                    </g>
                </g>
            </g>
            <g transform="matrix(1,0,0,1,332,282)">
                <g id="g-root-tx_247messa_1lqjot61xpe5fu-fill">
                    <g id="tx_247messa_1lqjot61xpe5fu-fill">
                        <g>
                            <g>
                                <text x="0px" y="0px" style="font-family:'ArialMT', 'Arial', sans-serif;font-size:20px;fill:rgb(44,44,44);">24/7 Messaging</text>
                            </g>
                        </g>
                    </g>
                </g>
            </g>
            <g id="g-root-tx_complian_1heh17e1xpbcp2-fill" transform="matrix(1,0,0,1,158,284)">
                <g id="tx_complian_1heh17e1xpbcp2-fill">
                    <g>
                        <g>
                            <g transform="matrix(1,0,0,1,22.08,34)">
                                <text x="0px" y="0px" style="font-family:'ArialMT', 'Arial', sans-serif;font-size:20px;fill:rgb(44,44,44);">Compliance</text>
                            </g>
                            <g transform="matrix(1,0,0,1,33.9,58)">
                                <text x="0px" y="0px" style="font-family:'ArialMT', 'Arial', sans-serif;font-size:20px;fill:rgb(44,44,44);">Assurance</text>
                            </g>
                        </g>
                    </g>
                </g>
            </g>
            <g transform="matrix(1,0,0,1,332,354)">
                <g id="g-root-tx_enterpri_147dufu1xpe7m4-fill">
                    <g id="tx_enterpri_147dufu1xpe7m4-fill">
                        <g>
                            <g>
                                <text x="0px" y="0px" style="font-family:'ArialMT', 'Arial', sans-serif;font-size:20px;fill:rgb(44,44,44);">Enterprise <tspan x="96.348px 107.822px 114.482px " y="0px 0px 0px ">Tru</tspan>st</text>
                            </g>
                        </g>
                    </g>
                </g>
            </g>
            <g transform="matrix(1,0,0,1,146.57,414)">
                <g id="g-root-tx_fastinte_253dm1xpcsu8-fill">
                    <g id="tx_fastinte_253dm1xpcsu8-fill">
                        <g>
                            <g>
                                <text x="0px" y="0px" style="font-family:'ArialMT', 'Arial', sans-serif;font-size:20px;fill:rgb(44,44,44);">Fast Integration</text>
                            </g>
                        </g>
                    </g>
                </g>
            </g>
            <g id="g-root-tx_enhanced_18lbxay1xpflza-fill" transform="matrix(1,0,0,1,320,392)">
                <g id="tx_enhanced_18lbxay1xpflza-fill">
                    <g>
                        <g>
                            <g transform="matrix(1,0,0,1,12,34)">
                                <text x="0px" y="0px" style="font-family:'ArialMT', 'Arial', sans-serif;font-size:20px;fill:rgb(44,44,44);">Enhanced</text>
                            </g>
                            <g transform="matrix(1,0,0,1,12,58)">
                                <text x="0px" y="0px" style="font-family:'ArialMT', 'Arial', sans-serif;font-size:20px;fill:rgb(44,44,44);">Experience</text>
                            </g>
                        </g>
                    </g>
                </g>
            </g>
            <g id="g-root-cp_1_sign-1_144vy3e1xp8lq9-stroke" transform="matrix(1,0,0,1,50,194)">
                <g id="cp_1_sign-1_144vy3e1xp8lq9-stroke">
                    <g>
                        <path d="M28,10L249,10M249,70L28,70M28,70L10,40L28,10" style="fill:none;stroke:rgb(44,44,44);stroke-width:2px;"/>
                    </g>
                </g>
            </g>
            <g id="g-root-cp_3_sign-3_qu1wt61xp8k5f-stroke" transform="matrix(1,0,0,1,86,266)">
                <g id="cp_3_sign-3_qu1wt61xp8k5f-stroke">
                    <g>
                        <path d="M28,10L213,10M213,94L28,94M28,94L10,52L28,10" style="fill:none;stroke:rgb(44,44,44);stroke-width:2px;"/>
                    </g>
                </g>
            </g>
            <g id="g-root-cp_5_sign-5_4nkva21xp8jd9-stroke" transform="matrix(1,0,0,1,62,362)">
                <g id="cp_5_sign-5_4nkva21xp8jd9-stroke">
                    <g>
                        <path d="M28,10L237,10M237,70L28,70M28,70L10,40L28,10" style="fill:none;stroke:rgb(44,44,44);stroke-width:2px;"/>
                    </g>
                </g>
            </g>
            <g id="g-root-cp_pole_g-pole_1qd8evu1xp8kr3-stroke" transform="matrix(1,0,0,1,287,170)">
                <g id="cp_pole_g-pole_1qd8evu1xp8kr3-stroke">
                    <g>
                        <path d="M31,394L31,298M13,411L13,298M31,298L31,22M13,298L13,22" style="fill:none;stroke:rgb(44,44,44);stroke-width:2px;"/>
                    </g>
                </g>
                <g id="cp_pole_g-pole_1qd8evu1xp8kr3-stroke1" serif:id="cp_pole_g-pole_1qd8evu1xp8kr3-stroke">
                    <g>
                        <rect x="10" y="10" width="24" height="12" style="fill:none;stroke:rgb(44,44,44);stroke-width:2px;"/>
                    </g>
                </g>
            </g>
            <g id="g-root-cp_pole_plant_1hi7vq21xp8j5u-stroke" transform="matrix(1,0,0,1,255,547)">
                <g id="cp_pole_plant_1hi7vq21xp8j5u-stroke">
                    <g>
                        <path d="M56.55,34.88C56.55,34.88 57.3,28.89 49.74,27.78C57.63,24.53 60.41,29.56 60.41,29.56C60.41,29.56 59.47,14.7 70.63,10C67.46,13.77 66.71,20.52 68.57,26C73.01,22.89 78.9,23.56 80.9,26.67C76.68,24.44 69.89,28.468 71,34.918M71,34.918L98,34.918M10,34.918L56.5,34.918" style="fill:none;stroke:rgb(44,44,44);stroke-width:2px;"/>
                    </g>
                </g>
            </g>
            <g id="g-root-cp_2_sign-2_146rdcq1xp8kqs-stroke" transform="matrix(1,0,0,1,309,230)">
                <g id="cp_2_sign-2_146rdcq1xp8kqs-stroke">
                    <g>
                        <path d="M231,70L10,70M10,10L231,10M231,10L249,40L231,70" style="fill:none;stroke:rgb(44,44,44);stroke-width:2px;"/>
                    </g>
                </g>
            </g>
            <g id="g-root-cp_4_sign-4_qvxc2i1xp8j5y-stroke" transform="matrix(1,0,0,1,309,302)">
                <g id="cp_4_sign-4_qvxc2i1xp8j5y-stroke">
                    <g>
                        <path d="M231,70L10,70M10,10L231,10M231,10L249,40L231,70" style="fill:none;stroke:rgb(44,44,44);stroke-width:2px;"/>
                    </g>
                </g>
            </g>
            <g id="g-root-cp_6_sign-6_dkgtp61xp8kqw-stroke" transform="matrix(1,0,0,1,309,374)">
                <g id="cp_6_sign-6_dkgtp61xp8kqw-stroke">
                    <g>
                        <path d="M183,94L10,94M10,10L183,10M183,10L201,52L183,94" style="fill:none;stroke:rgb(44,44,44);stroke-width:2px;"/>
                    </g>
                </g>
            </g>
            <g id="g-root-ic_lock_v306ze1xp9z4b-stroke" transform="matrix(1,0,0,1,74,206)">
                <g id="ic_lock_v306ze1xp9z4b-stroke">
                    <g>
                        <path d="M33.25,33.251L43.75,33.251C43.75,33.251 45.25,33.251 45.25,34.751L45.25,43.75C45.25,43.75 45.25,45.25 43.75,45.25L33.25,45.25C33.25,45.25 31.75,45.25 31.75,43.75L31.75,34.751C31.75,34.751 31.75,33.251 33.25,33.251M36.625,39.344C36.625,40.38 37.464,41.219 38.5,41.219C39.536,41.219 40.375,40.38 40.375,39.344C40.375,38.309 39.536,37.469 38.5,37.469C37.464,37.469 36.625,38.309 36.625,39.344M42.25,31C42.25,28.929 40.571,27.25 38.5,27.25C36.429,27.25 34.75,28.929 34.75,31L34.75,33.25L42.25,33.25L42.25,31ZM27.25,33.25L12.25,33.25C11.422,33.25 10.75,32.578 10.75,31.75L10.75,17.371C10.75,16.973 10.908,16.592 11.19,16.31L16.31,11.19C16.592,10.908 16.973,10.75 17.371,10.75L25.129,10.75C25.527,10.75 25.908,10.908 26.19,11.19L31.31,16.31C31.592,16.592 31.75,16.973 31.75,17.371L31.75,22.75M31.615,16.75L10.885,16.75M21.25,10.75L21.25,16.75" style="fill:none;stroke:rgb(44,44,44);stroke-width:2px;"/>
                    </g>
                </g>
            </g>
            <g id="g-root-ic_2_4ju0re1xpcr29-stroke" transform="matrix(1,0,0,1,488,242)">
                <g id="ic_2_4ju0re1xpcr29-stroke">
                    <g>
                        <path d="M18.25,25.75L25.748,25.75L25.75,16.75M24.297,40.681C17.996,40.061 12.765,35.549 11.226,29.408C9.688,23.267 12.174,16.822 17.439,13.305C22.703,9.788 29.609,9.959 34.693,13.731C39.778,17.503 41.943,24.063 40.103,30.121M45.25,45.25L45.25,33.25C41.108,33.25 37.75,36.608 37.75,40.75L37.75,42.25L45.25,42.25M35.5,45.25L27.25,45.25L32.5,40.617C33.979,39.312 35.11,38.398 34.674,36.25C34.287,34.366 32.537,33.079 30.623,33.273C28.709,33.466 27.252,35.076 27.25,37" style="fill:none;stroke:rgb(44,44,44);stroke-width:2px;"/>
                    </g>
                </g>
            </g>
            <g id="g-root-ic_1_1ut1x0a1xp9y4t-stroke" transform="matrix(1,0,0,1,110,290)">
                <g id="ic_1_1ut1x0a1xp9y4t-stroke">
                    <g>
                        <path d="M35.5,25.75C35.5,29.892 32.142,33.25 28,33.25C23.858,33.25 20.5,29.892 20.5,25.75C20.5,21.608 23.858,18.25 28,18.25M25,25L27.43,26.823C27.749,27.062 28.2,27.009 28.456,26.702L35.5,18.25M12.25,15.663L12.25,27.118C12.34,34.872 17.265,41.743 24.578,44.32L26.26,44.941C27.383,45.354 28.617,45.354 29.74,44.941L31.422,44.32C38.735,41.743 43.66,34.872 43.75,27.118L43.75,15.663C43.747,14.743 43.196,13.913 42.349,13.554C37.805,11.657 32.923,10.703 28,10.75C23.077,10.703 18.195,11.657 13.651,13.554C12.804,13.913 12.253,14.743 12.25,15.663Z" style="fill:none;stroke:rgb(44,44,44);stroke-width:2px;"/>
                    </g>
                </g>
            </g>
            <g id="g-root-ic_hand_1q7m53u1xpe6tn-stroke" transform="matrix(1,0,0,1,488,314)">
                <g id="ic_hand_1q7m53u1xpe6tn-stroke">
                    <g>
                        <path d="M37.328,16.119C37.652,16.54 37.652,17.126 37.328,17.548C36.115,19.14 32.782,22.83 27.977,22.83C23.173,22.83 19.839,19.138 18.625,17.548C18.301,17.127 18.301,16.54 18.625,16.119C19.839,14.528 23.172,10.837 27.977,10.837C32.784,10.837 36.115,14.528 37.328,16.119ZM27.977,14.435C29.303,14.435 30.378,15.51 30.378,16.836C30.378,18.161 29.303,19.235 27.978,19.235C26.652,19.235 25.577,18.161 25.577,16.836C25.577,15.51 26.652,14.435 27.978,14.435M40.502,39.092L33.015,39.716M31.643,30.25L26.413,31.978C25.575,32.255 24.662,31.858 24.294,31.055C23.895,30.198 24.247,29.178 25.091,28.75L30.159,26.2C31.031,25.76 32.047,25.702 32.965,26.038L40.465,28.782M25.864,28.362L25.324,27.911C24.442,27.262 23.287,27.115 22.27,27.522L15.557,30.206M11.032,27.644L14.05,27.644C14.848,27.611 15.523,28.23 15.559,29.028L15.559,38.705C15.523,39.503 14.848,40.121 14.05,40.087L11.032,40.087M44.968,40.087L41.95,40.087C41.152,40.121 40.477,39.503 40.441,38.705L40.441,29.028C40.477,28.23 41.152,27.611 41.95,27.645L44.966,27.644M29.572,31.424L33.472,36.78C33.963,37.455 34.007,38.358 33.584,39.078C33.161,39.798 32.351,40.199 31.522,40.099C31.319,41.181 30.309,41.918 29.216,41.781C29.014,42.863 28.003,43.599 26.911,43.46C26.749,44.277 26.121,44.92 25.309,45.102C24.497,45.283 23.655,44.969 23.161,44.299L19.227,39.356C18.645,38.617 17.767,38.172 16.827,38.139L15.557,38.092M26.917,43.46L25.864,42.169M29.223,41.781L28.321,40.582M31.528,40.099L30.543,38.759" style="fill:none;stroke:rgb(44,44,44);stroke-width:2px;"/>
                    </g>
                </g>
            </g>
            <g id="g-root-ic_flas_1qbczmi1xpbdan-stroke" transform="matrix(1,0,0,1,86,374)">
                <g id="ic_flas_1qbczmi1xpbdan-stroke">
                    <g>
                        <path d="M27.483,36.911L13.914,36.911C12.166,36.911 10.75,35.495 10.75,33.748L10.75,13.978C10.75,12.231 12.166,10.815 13.914,10.815L37.637,10.815C39.384,10.815 40.8,12.231 40.8,13.978L40.8,21.201M10.75,16.991L40.8,16.991M10.75,30.118L31.824,30.118M10.75,23.566L36.999,23.566M23.023,16.991L23.023,36.911M31.824,16.991L31.824,30.118M40.936,24.961L32.436,35.271C32.298,35.44 32.268,35.671 32.356,35.871C32.44,36.067 32.633,36.194 32.847,36.196L36.622,36.196L36.622,45.186L45.121,34.873C45.259,34.704 45.289,34.472 45.201,34.273C45.116,34.077 44.925,33.95 44.711,33.948L40.936,33.948L40.936,24.961Z" style="fill:none;stroke:rgb(44,44,44);stroke-width:2px;"/>
                    </g>
                </g>
            </g>
            <g id="g-root-ic_2_13z9obe1xpfl6t-stroke" transform="matrix(1,0,0,1,440,398)">
                <g id="ic_2_13z9obe1xpfl6t-stroke">
                    <g>
                        <path d="M25.375,16.375C17.575,16.375 11.125,22.825 11.125,30.625C11.125,38.425 17.575,44.875 25.375,44.875C33.175,44.875 39.625,38.425 39.625,30.625M18.025,34.975C19.375,37.825 22.075,39.625 25.375,39.625C28.675,39.625 31.375,37.825 32.725,34.975M37.375,26.125C41.517,26.125 44.875,22.767 44.875,18.625C44.875,14.483 41.517,11.125 37.375,11.125C33.233,11.125 29.875,14.483 29.875,18.625C29.875,22.767 33.233,26.125 37.375,26.125ZM37.375,15.625L37.375,21.625M34.375,18.625L40.375,18.625M19.75,29.125C19.439,29.125 19.188,28.873 19.188,28.563C19.188,28.252 19.439,28 19.75,28M19.75,29.125C20.061,29.125 20.313,28.873 20.313,28.563C20.313,28.252 20.061,28 19.75,28M31,29.125C30.689,29.125 30.438,28.873 30.438,28.563C30.438,28.252 30.689,28 31,28M31,29.125C31.311,29.125 31.563,28.873 31.563,28.563C31.563,28.252 31.311,28 31,28" style="fill:none;stroke:rgb(44,44,44);stroke-width:2px;"/>
                    </g>
                </g>
            </g>
        </g>
    </g>
</svg>
