<?xml version="1.0" encoding="UTF-8" standalone="no"?>
<!DOCTYPE svg PUBLIC "-//W3C//DTD SVG 1.1//EN" "http://www.w3.org/Graphics/SVG/1.1/DTD/svg11.dtd">
<svg width="100%" height="100%" viewBox="0 0 576 650" version="1.1" xmlns="http://www.w3.org/2000/svg" xmlns:xlink="http://www.w3.org/1999/xlink" xml:space="preserve" xmlns:serif="http://www.serif.com/" style="fill-rule:evenodd;clip-rule:evenodd;stroke-linecap:round;stroke-linejoin:round;">
    <g id="items" transform="matrix(1.09996,0,0,1.09996,-28.7876,-43.7855)">
        <g id="blend">
            <g id="g-root-cp_5_text-5_hx5yovz0kiyw-fill" transform="matrix(1,0,0,1,50,50)">
                <g id="cp_5_text-5_hx5yovz0kiyw-fill">
                    <g>
                        <rect x="10" y="10" width="228" height="156" style="fill:rgb(251,103,98);"/>
                    </g>
                </g>
            </g>
            <g id="g-root-cp_5_stick-5_4mbxenz0khe2-fill" transform="matrix(1,0,0,1,266,206)">
                <g id="cp_5_stick-5_4mbxenz0khe2-fill">
                    <g>
                        <rect x="10" y="10" width="12" height="324" style="fill:rgb(251,103,98);"/>
                    </g>
                </g>
            </g>
            <g id="g-root-cp_3_text-3_6ifa7z0ki6c-fill" transform="matrix(1,0,0,1,38,206)">
                <g id="cp_3_text-3_6ifa7z0ki6c-fill">
                    <g>
                        <rect x="10" y="10" width="228" height="144" style="fill:rgb(255,231,17);"/>
                    </g>
                </g>
            </g>
            <g id="g-root-cp_3_stick-3_1lw5yvzz0kjk6-fill" transform="matrix(1,0,0,1,254,350)">
                <g id="cp_3_stick-3_1lw5yvzz0kjk6-fill">
                    <g>
                        <rect x="10" y="10" width="12" height="180" style="fill:rgb(255,231,17);"/>
                    </g>
                </g>
            </g>
            <g id="g-root-cp_1_text-1_18lbxlrz0khzc-fill" transform="matrix(1,0,0,1,26,350)">
                <g id="cp_1_text-1_18lbxlrz0khzc-fill">
                    <g>
                        <rect x="10" y="10" width="228" height="144" style="fill:rgb(67,221,147);"/>
                    </g>
                </g>
            </g>
            <g id="g-root-cp_1_stick-1_v9vf8fz0kjka-fill" transform="matrix(1,0,0,1,242,434)">
                <g id="cp_1_stick-1_v9vf8fz0kjka-fill">
                    <g>
                        <rect x="10" y="10" width="12" height="96" style="fill:rgb(67,221,147);"/>
                    </g>
                </g>
            </g>
            <g id="g-root-cp_6_text-6_hz1dy7z0khzg-fill" transform="matrix(1,0,0,1,278,50)">
                <g id="cp_6_text-6_hz1dy7z0khzg-fill">
                    <g>
                        <rect x="10" y="10" width="228" height="144" style="fill:rgb(243,102,187);"/>
                    </g>
                </g>
            </g>
            <g id="g-root-cp_6_stick-6_4nkvkvz0kjke-fill" transform="matrix(1,0,0,1,278,194)">
                <g id="cp_6_stick-6_4nkvkvz0kjke-fill">
                    <g>
                        <rect x="10" y="10" width="12" height="336" style="fill:rgb(243,102,187);"/>
                    </g>
                </g>
            </g>
            <g id="g-root-cp_4_text-4_1ly1e5bz0kiko-fill" transform="matrix(1,0,0,1,290,194)">
                <g id="cp_4_text-4_1ly1e5bz0kiko-fill">
                    <g>
                        <rect x="10" y="10" width="228" height="144" style="fill:rgb(247,148,56);"/>
                    </g>
                </g>
            </g>
            <g id="g-root-cp_4_stick-4_1hi7w0vz0kjcy-fill" transform="matrix(1,0,0,1,290,338)">
                <g id="cp_4_stick-4_1hi7w0vz0kjcy-fill">
                    <g>
                        <rect x="10" y="10" width="12" height="192" style="fill:rgb(247,148,56);"/>
                    </g>
                </g>
            </g>
            <g id="g-root-cp_2_text-2_18mkvrzz0kk5o-fill" transform="matrix(1,0,0,1,302,338)">
                <g id="cp_2_text-2_18mkvrzz0kk5o-fill">
                    <g>
                        <rect x="10" y="10" width="228" height="144" style="fill:rgb(166,218,55);"/>
                    </g>
                </g>
            </g>
            <g id="g-root-cp_2_stick-2_vbquhrz0kiku-fill" transform="matrix(1,0,0,1,302,422)">
                <g id="cp_2_stick-2_vbquhrz0kiku-fill">
                    <g>
                        <rect x="10" y="10" width="12" height="108" style="fill:rgb(166,218,55);"/>
                    </g>
                </g>
            </g>
            <g id="g-root-cp_0_g-0_mg3u8vz0kk5c-fill" transform="matrix(1,0,0,1,242,530)">
                <g id="cp_0_g-0_mg3u8vz0kk5c-fill">
                    <g>
                        <path d="M33.994,61L46.01,86L58.005,61L33.994,61Z" style="fill:rgb(232,232,232);"/>
                    </g>
                </g>
                <g id="cp_0_g-0_mg3u8vz0kk5c-fill1" serif:id="cp_0_g-0_mg3u8vz0kk5c-fill">
                    <g>
                        <path d="M82,10L10,10L34,61L58.001,61L82,10Z" style="fill:rgb(232,232,232);"/>
                    </g>
                </g>
            </g>
            <g id="g-root-tx_costeffe_146rdnjz0nbpr-fill" transform="matrix(1,0,0,1,74,218)">
                <g id="tx_costeffe_146rdnjz0nbpr-fill">
                    <g>
                        <g>
                            <g transform="matrix(1,0,0,1,11.77,34)">
                                <g transform="matrix(20,0,0,20,62.2266,0)">
                                </g>
                                <g transform="matrix(20,0,0,20,68.6426,0)">
                                </g>
                                <text x="0px" y="0px" style="font-family:'Arial-BoldMT', 'Arial', sans-serif;font-weight:700;font-size:20px;fill:rgb(44,44,44);">Cost-eﬀective</text>
                            </g>
                            <g transform="matrix(1,0,0,1,41.63,58)">
                                <text x="0px" y="0px" style="font-family:'Arial-BoldMT', 'Arial', sans-serif;font-weight:700;font-size:20px;fill:rgb(44,44,44);">Operations</text>
                            </g>
                        </g>
                    </g>
                </g>
            </g>
            <g id="g-root-tx_enhanced_1qaqiu7z0vqip-fill" transform="matrix(1,0,0,1,338,122)">
                <g id="tx_enhanced_1qaqiu7z0vqip-fill">
                    <g>
                        <g>
                            <g transform="matrix(1,0,0,1,12,31.2)">
                                <g transform="matrix(15,0,0,15,80.0684,0)">
                                </g>
                                <g transform="matrix(15,0,0,15,84.1024,0)">
                                </g>
                                <g transform="matrix(15,0,0,15,88.1365,0)">
                                </g>
                                <text x="0px" y="0px" style="font-family:'ArialMT', 'Arial', sans-serif;font-size:15px;fill:rgb(44,44,44);">Enhanced eﬃciency</text>
                            </g>
                            <g transform="matrix(1,0,0,1,12,49.2)">
                                <g transform="matrix(15,0,0,15,37.5366,0)">
                                </g>
                                <g transform="matrix(15,0,0,15,41.543,0)">
                                </g>
                                <text x="0px" y="0px" style="font-family:'ArialMT', 'Arial', sans-serif;font-size:15px;fill:rgb(44,44,44);">and eﬀectiveness of</text>
                            </g>
                            <g transform="matrix(1,0,0,1,12,67.2)">
                                <text x="0px" y="0px" style="font-family:'ArialMT', 'Arial', sans-serif;font-size:15px;fill:rgb(44,44,44);">call center agents.</text>
                            </g>
                        </g>
                    </g>
                </g>
            </g>
            <g id="g-root-tx_scalable_qp24f3z0zy83-fill" transform="matrix(1,0,0,1,350,206)">
                <g id="tx_scalable_qp24f3z0zy83-fill">
                    <g>
                        <g>
                            <g transform="matrix(1,0,0,1,12,34)">
                                <text x="0px" y="0px" style="font-family:'Arial-BoldMT', 'Arial', sans-serif;font-weight:700;font-size:20px;fill:rgb(44,44,44);">Scalable</text>
                            </g>
                            <g transform="matrix(1,0,0,1,12,58)">
                                <text x="0px" y="0px" style="font-family:'Arial-BoldMT', 'Arial', sans-serif;font-weight:700;font-size:20px;fill:rgb(44,44,44);">Infrastructure</text>
                            </g>
                        </g>
                    </g>
                </g>
            </g>
            <g id="g-root-tx_reducede_1uuxckfz0naq0-fill" transform="matrix(1,0,0,1,50,278)">
                <g id="tx_reducede_1uuxckfz0naq0-fill">
                    <g>
                        <g>
                            <g transform="matrix(1,0,0,1,38.6,31.2)">
                                <text x="0px" y="0px" style="font-family:'ArialMT', 'Arial', sans-serif;font-size:15px;fill:rgb(44,44,44);">Reduced expenses</text>
                            </g>
                            <g transform="matrix(1,0,0,1,14.13,49.2)">
                                <text x="0px" y="0px" style="font-family:'ArialMT', 'Arial', sans-serif;font-size:15px;fill:rgb(44,44,44);">without compromising</text>
                            </g>
                            <g transform="matrix(1,0,0,1,32.07,67.2)">
                                <g transform="matrix(15,0,0,15,73.374,0)">
                                </g>
                                <g transform="matrix(15,0,0,15,77.4081,0)">
                                </g>
                                <g transform="matrix(15,0,0,15,81.4421,0)">
                                </g>
                                <text x="0px" y="0px" style="font-family:'ArialMT', 'Arial', sans-serif;font-size:15px;fill:rgb(44,44,44);">quality or eﬃciency<tspan x="126.072px " y="0px ">.</tspan></text>
                            </g>
                        </g>
                    </g>
                </g>
            </g>
            <g id="g-root-tx_easilyad_zly2u7z0zyto-fill" transform="matrix(1,0,0,1,350,266)">
                <g id="tx_easilyad_zly2u7z0zyto-fill">
                    <g>
                        <g>
                            <g transform="matrix(1,0,0,1,12,31.2)">
                                <text x="0px" y="0px" style="font-family:'ArialMT', 'Arial', sans-serif;font-size:15px;fill:rgb(44,44,44);">Easily adaptable to</text>
                            </g>
                            <g transform="matrix(1,0,0,1,12,49.2)">
                                <text x="0px" y="0px" style="font-family:'ArialMT', 'Arial', sans-serif;font-size:15px;fill:rgb(44,44,44);">growing business</text>
                            </g>
                            <g transform="matrix(1,0,0,1,12,67.2)">
                                <text x="0px" y="0px" style="font-family:'ArialMT', 'Arial', sans-serif;font-size:15px;fill:rgb(44,44,44);">needs.</text>
                            </g>
                        </g>
                    </g>
                </g>
            </g>
            <g id="g-root-tx_informed_4hc4prz0lw5p-fill" transform="matrix(1,0,0,1,74,122)">
                <g id="tx_informed_4hc4prz0lw5p-fill">
                    <g>
                        <g>
                            <g transform="matrix(1,0,0,1,23.6,28.2)">
                                <text x="0px" y="0px" style="font-family:'ArialMT', 'Arial', sans-serif;font-size:15px;fill:rgb(44,44,44);">Informed decisions</text>
                            </g>
                            <g transform="matrix(1,0,0,1,90.7,46.2)">
                                <text x="0px" y="0px" style="font-family:'ArialMT', 'Arial', sans-serif;font-size:15px;fill:rgb(44,44,44);">based on</text>
                            </g>
                            <g transform="matrix(1,0,0,1,16.7,64.2)">
                                <text x="0px" y="0px" style="font-family:'ArialMT', 'Arial', sans-serif;font-size:15px;fill:rgb(44,44,44);">comprehensive data</text>
                            </g>
                            <g transform="matrix(1,0,0,1,93.53,82.2)">
                                <text x="0px" y="0px" style="font-family:'ArialMT', 'Arial', sans-serif;font-size:15px;fill:rgb(44,44,44);">analysis.</text>
                            </g>
                        </g>
                    </g>
                </g>
            </g>
            <g id="g-root-tx_fasterde_1haq6zjz0ubd0-fill" transform="matrix(1,0,0,1,74,362)">
                <g id="tx_fasterde_1haq6zjz0ubd0-fill">
                    <g>
                        <g>
                            <g transform="matrix(1,0,0,1,71.5,34)">
                                <text x="0px" y="0px" style="font-family:'Arial-BoldMT', 'Arial', sans-serif;font-weight:700;font-size:20px;fill:rgb(44,44,44);">Faster</text>
                            </g>
                            <g transform="matrix(1,0,0,1,20.33,58)">
                                <text x="0px" y="0px" style="font-family:'Arial-BoldMT', 'Arial', sans-serif;font-weight:700;font-size:20px;fill:rgb(44,44,44);">Deployment</text>
                            </g>
                        </g>
                    </g>
                </g>
            </g>
            <g id="g-root-tx_improved_3e1unz0vqww-fill" transform="matrix(1,0,0,1,338,62)">
                <g id="tx_improved_3e1unz0vqww-fill">
                    <g>
                        <g>
                            <g transform="matrix(1,0,0,1,12,34)">
                                <text x="0px" y="0px" style="font-family:'Arial-BoldMT', 'Arial', sans-serif;font-weight:700;font-size:20px;fill:rgb(44,44,44);">Improved <tspan x="94.834px 109.277px " y="0px 0px ">Ag</tspan>ent</text>
                            </g>
                            <g transform="matrix(1,0,0,1,12,58)">
                                <text x="0px" y="0px" style="font-family:'Arial-BoldMT', 'Arial', sans-serif;font-weight:700;font-size:20px;fill:rgb(44,44,44);">Productivity</text>
                            </g>
                        </g>
                    </g>
                </g>
            </g>
            <g id="g-root-tx_highcall_1upb5y7z0g9vy-fill" transform="matrix(1,0,0,1,362,350)">
                <g id="tx_highcall_1upb5y7z0g9vy-fill">
                    <g>
                        <g>
                            <g transform="matrix(1,0,0,1,12,34)">
                                <text x="0px" y="0px" style="font-family:'Arial-BoldMT', 'Arial', sans-serif;font-weight:700;font-size:20px;fill:rgb(44,44,44);">High Call</text>
                            </g>
                            <g transform="matrix(1,0,0,1,12,58)">
                                <text x="0px" y="0px" style="font-family:'Arial-BoldMT', 'Arial', sans-serif;font-weight:700;font-size:20px;fill:rgb(44,44,44);">Connectivity</text>
                            </g>
                        </g>
                    </g>
                </g>
            </g>
            <g id="g-root-tx_rapidset_1lrsna7z0ucqt-fill" transform="matrix(1,0,0,1,74,422)">
                <g id="tx_rapidset_1lrsna7z0ucqt-fill">
                    <g>
                        <g>
                            <g transform="matrix(1,0,0,1,20.42,31.2)">
                                <text x="0px" y="0px" style="font-family:'ArialMT', 'Arial', sans-serif;font-size:15px;fill:rgb(44,44,44);">Rapid setup and</text>
                            </g>
                            <g transform="matrix(1,0,0,1,33.9,49.2)">
                                <text x="0px" y="0px" style="font-family:'ArialMT', 'Arial', sans-serif;font-size:15px;fill:rgb(44,44,44);">integration for</text>
                            </g>
                            <g transform="matrix(1,0,0,1,25.33,67.2)">
                                <text x="0px" y="0px" style="font-family:'ArialMT', 'Arial', sans-serif;font-size:15px;fill:rgb(44,44,44);">immediate use.</text>
                            </g>
                        </g>
                    </g>
                </g>
            </g>
            <g id="g-root-tx_reliable_dgq2n3z0g9vz-fill" transform="matrix(1,0,0,1,362,410)">
                <g id="tx_reliable_dgq2n3z0g9vz-fill">
                    <g>
                        <g>
                            <g transform="matrix(1,0,0,1,12,31.2)">
                                <text x="0px" y="0px" style="font-family:'ArialMT', 'Arial', sans-serif;font-size:15px;fill:rgb(44,44,44);">Reliable connections</text>
                            </g>
                            <g transform="matrix(1,0,0,1,12,49.2)">
                                <text x="0px" y="0px" style="font-family:'ArialMT', 'Arial', sans-serif;font-size:15px;fill:rgb(44,44,44);">ensure uninterrupted</text>
                            </g>
                            <g transform="matrix(1,0,0,1,12,67.2)">
                                <text x="0px" y="0px" style="font-family:'ArialMT', 'Arial', sans-serif;font-size:15px;fill:rgb(44,44,44);">communication.</text>
                            </g>
                        </g>
                    </g>
                </g>
            </g>
            <g id="g-root-tx_datadriv_13yn7j3z0lyis-fill" transform="matrix(1,0,0,1,98,62)">
                <g id="tx_datadriv_13yn7j3z0lyis-fill">
                    <g>
                        <g>
                            <g transform="matrix(1,0,0,1,23.05,34)">
                                <text x="0px" y="0px" style="font-family:'Arial-BoldMT', 'Arial', sans-serif;font-weight:700;font-size:20px;fill:rgb(44,44,44);">Data-driven</text>
                            </g>
                            <g transform="matrix(1,0,0,1,55.7,58)">
                                <text x="0px" y="0px" style="font-family:'Arial-BoldMT', 'Arial', sans-serif;font-weight:700;font-size:20px;fill:rgb(44,44,44);">Insights</text>
                            </g>
                        </g>
                    </g>
                </g>
            </g>
            <g id="g-root-cp_5_text-5_hx5yovz0kiyw-stroke" transform="matrix(1,0,0,1,50,50)">
                <g id="cp_5_text-5_hx5yovz0kiyw-stroke">
                    <g>
                        <path d="M10,166L10,10L238,10L238,166" style="fill:none;stroke:rgb(44,44,44);stroke-width:2px;"/>
                    </g>
                </g>
            </g>
            <g id="g-root-cp_5_stick-5_4mbxenz0khe2-stroke" transform="matrix(1,0,0,1,266,206)">
                <g id="cp_5_stick-5_4mbxenz0khe2-stroke">
                    <g>
                        <path d="M21.996,334L21.996,10" style="fill:none;stroke:rgb(44,44,44);stroke-width:2px;"/>
                    </g>
                </g>
            </g>
            <g id="g-root-cp_3_text-3_6ifa7z0ki6c-stroke" transform="matrix(1,0,0,1,38,206)">
                <g id="cp_3_text-3_6ifa7z0ki6c-stroke">
                    <g>
                        <path d="M10,154L10,10L238,10L238,154" style="fill:none;stroke:rgb(44,44,44);stroke-width:2px;"/>
                    </g>
                </g>
            </g>
            <g id="g-root-cp_3_stick-3_1lw5yvzz0kjk6-stroke" transform="matrix(1,0,0,1,254,350)">
                <g id="cp_3_stick-3_1lw5yvzz0kjk6-stroke">
                    <g>
                        <path d="M21.996,190L21.996,10" style="fill:none;stroke:rgb(44,44,44);stroke-width:2px;"/>
                    </g>
                </g>
            </g>
            <g id="g-root-cp_1_text-1_18lbxlrz0khzc-stroke" transform="matrix(1,0,0,1,26,350)">
                <g id="cp_1_text-1_18lbxlrz0khzc-stroke">
                    <g>
                        <path d="M238,154L238,10L10,10L10,154L226,154" style="fill:none;stroke:rgb(44,44,44);stroke-width:2px;"/>
                    </g>
                </g>
            </g>
            <g id="g-root-cp_1_stick-1_v9vf8fz0kjka-stroke" transform="matrix(1,0,0,1,242,434)">
                <g id="cp_1_stick-1_v9vf8fz0kjka-stroke">
                    <g>
                        <path d="M21.996,106L21.996,10M10,106L10,70" style="fill:none;stroke:rgb(44,44,44);stroke-width:2px;"/>
                    </g>
                </g>
            </g>
            <g id="g-root-cp_6_text-6_hz1dy7z0khzg-stroke" transform="matrix(1,0,0,1,278,50)">
                <g id="cp_6_text-6_hz1dy7z0khzg-stroke">
                    <g>
                        <path d="M238,154L238,10L10,10L10,154" style="fill:none;stroke:rgb(44,44,44);stroke-width:2px;"/>
                    </g>
                </g>
            </g>
            <g id="g-root-cp_6_stick-6_4nkvkvz0kjke-stroke" transform="matrix(1,0,0,1,278,194)">
                <g id="cp_6_stick-6_4nkvkvz0kjke-stroke">
                    <g>
                        <path d="M10.004,346L10.004,10" style="fill:none;stroke:rgb(44,44,44);stroke-width:2px;"/>
                    </g>
                </g>
            </g>
            <g id="g-root-cp_4_text-4_1ly1e5bz0kiko-stroke" transform="matrix(1,0,0,1,290,194)">
                <g id="cp_4_text-4_1ly1e5bz0kiko-stroke">
                    <g>
                        <path d="M238,154L238,10L10,10L10,154" style="fill:none;stroke:rgb(44,44,44);stroke-width:2px;"/>
                    </g>
                </g>
            </g>
            <g id="g-root-cp_4_stick-4_1hi7w0vz0kjcy-stroke" transform="matrix(1,0,0,1,290,338)">
                <g id="cp_4_stick-4_1hi7w0vz0kjcy-stroke">
                    <g>
                        <path d="M10.004,202L10.004,10" style="fill:none;stroke:rgb(44,44,44);stroke-width:2px;"/>
                    </g>
                </g>
            </g>
            <g id="g-root-cp_2_text-2_18mkvrzz0kk5o-stroke" transform="matrix(1,0,0,1,302,338)">
                <g id="cp_2_text-2_18mkvrzz0kk5o-stroke">
                    <g>
                        <path d="M10,154L10,10L238,10L238,154L22,154" style="fill:none;stroke:rgb(44,44,44);stroke-width:2px;"/>
                    </g>
                </g>
            </g>
            <g id="g-root-cp_2_stick-2_vbquhrz0kiku-stroke" transform="matrix(1,0,0,1,302,422)">
                <g id="cp_2_stick-2_vbquhrz0kiku-stroke">
                    <g>
                        <path d="M10.004,118L10.004,10M22,118L22,70" style="fill:none;stroke:rgb(44,44,44);stroke-width:2px;"/>
                    </g>
                </g>
            </g>
            <g id="g-root-cp_0_g-0_mg3u8vz0kk5c-stroke" transform="matrix(1,0,0,1,242,530)">
                <g id="cp_0_g-0_mg3u8vz0kk5c-stroke">
                    <g>
                        <path d="M33.994,61L46.01,86L58.005,61L33.994,61Z" style="fill:none;stroke:rgb(44,44,44);stroke-width:2px;"/>
                    </g>
                </g>
                <g id="cp_0_g-0_mg3u8vz0kk5c-stroke1" serif:id="cp_0_g-0_mg3u8vz0kk5c-stroke">
                    <g>
                        <path d="M82,10L10,10L34,61L58.001,61L82,10Z" style="fill:none;stroke:rgb(44,44,44);stroke-width:2px;"/>
                    </g>
                </g>
            </g>
            <g id="g-root-ic_idea_qn6p5rz0oqvd-stroke" transform="matrix(1,0,0,1,218,218)">
                <g id="ic_idea_qn6p5rz0oqvd-stroke">
                    <g>
                        <path d="M21.631,27.25L17.131,27.25M23.881,19C23.811,16.544 21.837,14.57 19.381,14.5C16.925,14.57 14.951,16.544 14.881,19C14.915,20.56 15.771,21.986 17.131,22.75L17.131,24.25L21.631,24.25L21.631,22.75C22.991,21.985 23.846,20.56 23.881,19ZM19.381,10.75L19.381,12.25M25.215,13.166L24.154,14.227M27.631,18.25L26.131,18.25M13.548,13.166L14.608,14.227M11.131,18.25L12.631,18.25M29.89,13.929C36.8,15.038 41.882,21.001 41.881,28M25.384,42.075C18.469,40.969 13.382,35.003 13.384,28M29.881,37.75C29.881,41.892 33.239,45.25 37.381,45.25C41.523,45.25 44.881,41.892 44.881,37.75C44.881,33.608 41.523,30.25 37.381,30.25C33.239,30.25 29.881,33.608 29.881,37.75ZM37.381,40.75L37.381,42.25M37.381,33.25L37.381,34.75M34.381,40.75L38.881,40.75C39.709,40.75 40.381,40.078 40.381,39.25C40.381,38.422 39.709,37.75 38.881,37.75L35.881,37.75C35.053,37.75 34.381,37.078 34.381,36.25C34.381,35.422 35.053,34.75 35.881,34.75L40.381,34.75M23.881,37.75L26.131,42.25L22.381,44.5M31.381,17.5L29.881,13.75L32.881,11.5" style="fill:none;stroke:rgb(44,44,44);stroke-width:2px;"/>
                    </g>
                </g>
            </g>
            <g id="g-root-ic_3_1upb2sfz1007h-stroke" transform="matrix(1,0,0,1,302,206)">
                <g id="ic_3_1upb2sfz1007h-stroke">
                    <g>
                        <path d="M37,19C36.33,14.604 32.55,11.357 28.103,11.357C23.656,11.357 19.876,14.604 19.206,19L19.206,19C14.945,19 11.491,22.454 11.491,26.714C11.491,30.975 14.945,34.429 19.206,34.429C20.167,34.438 21.12,34.254 22.009,33.889C23.464,35.851 25.762,37.009 28.206,37.009C30.649,37.009 32.948,35.851 34.403,33.889C35.292,34.254 36.245,34.438 37.206,34.429C41.466,34.429 44.92,30.975 44.92,26.714C44.92,22.454 41.466,19 37.206,19L37,19ZM24.143,26.714L28,30.571L28,44.714M28,30.571L31.857,26.714" style="fill:none;stroke:rgb(44,44,44);stroke-width:2px;"/>
                    </g>
                </g>
            </g>
            <g id="g-root-ic_box_m9v3drz0udji-stroke" transform="matrix(1,0,0,1,206,362)">
                <g id="ic_box_m9v3drz0udji-stroke">
                    <g>
                        <path d="M11.5,37.191L28,41.691M28,41.691L44.5,37.191M11.5,37.191L19.74,35.032M11.5,44.032L11.5,37.378M44.5,37.378L44.5,44.032M28,44.782L28,41.691M33.25,19.093C33.25,21.993 32.376,29.593 28,29.593C23.625,29.593 22.75,22 22.75,19.093C22.75,13.843 28,11.218 28,11.218C28,11.218 33.25,13.843 33.25,19.093ZM25.941,18.906C25.94,20.043 26.862,20.965 28,20.965C29.138,20.965 30.06,20.043 30.06,18.906C30.06,17.768 29.138,16.846 28,16.846C26.862,16.846 25.94,17.768 25.941,18.906M24.525,28.242L23.313,28.849C22.627,29.213 21.999,29.676 21.449,30.223C21.18,30.512 20.764,30.611 20.394,30.474C20.024,30.337 19.772,29.992 19.754,29.598C19.49,27.289 20.782,25.083 22.924,24.183M31.476,28.242L32.688,28.849C33.373,29.213 34.001,29.676 34.55,30.223C34.82,30.512 35.236,30.611 35.606,30.474C35.976,30.337 36.228,29.992 36.245,29.598C36.51,27.289 35.218,25.083 33.076,24.183M44.5,37.191L36.26,35.032M30.1,34.01C30.1,35.17 29.16,37.975 28,37.975C26.84,37.975 25.9,35.17 25.9,34.01C25.9,32.851 26.84,31.911 28,31.911C29.16,31.911 30.1,32.851 30.1,34.01Z" style="fill:none;stroke:rgb(44,44,44);stroke-width:2px;"/>
                    </g>
                </g>
            </g>
            <g id="g-root-ic_dj_18lbxlrz0vr4a-stroke" transform="matrix(1,0,0,1,290,62)">
                <g id="ic_dj_18lbxlrz0vr4a-stroke">
                    <g>
                        <path d="M16.765,40C16.765,41.243 18.444,42.25 20.515,42.25C22.586,42.25 24.265,41.243 24.265,40C24.265,38.757 22.586,37.75 20.515,37.75C18.444,37.75 16.765,38.757 16.765,40ZM31.75,40C31.75,41.243 33.429,42.25 35.5,42.25C37.571,42.25 39.25,41.243 39.25,40C39.25,38.757 37.571,37.75 35.5,37.75C33.429,37.75 31.75,38.757 31.75,40ZM24.25,20.5C24.25,22.571 25.929,24.25 28,24.25C30.071,24.25 31.75,22.571 31.75,20.5C31.75,18.429 30.071,16.75 28,16.75C25.929,16.75 24.25,18.429 24.25,20.5ZM21.25,16.75C21.334,15.054 22.097,13.462 23.366,12.334C24.636,11.206 26.305,10.635 28,10.75C29.694,10.635 31.364,11.206 32.633,12.334C33.903,13.463 34.665,15.054 34.75,16.75M34.75,16.75L36.25,16.75C37.907,16.75 39.25,18.093 39.25,19.75C39.25,21.407 37.907,22.75 36.25,22.75L34.75,22.75L34.75,16.75ZM21.25,16.75L19.688,16.75C18.032,16.75 16.688,18.093 16.688,19.75C16.688,21.407 18.032,22.75 19.688,22.75L21.25,22.75L21.25,16.75ZM21.25,31.782C21.632,29.177 23.868,27.247 26.5,27.25L29.5,27.25C32.132,27.248 34.367,29.177 34.75,31.782M45.193,43.338L43.05,35.838C42.865,35.193 42.276,34.75 41.606,34.75L14.393,34.75C13.724,34.75 13.135,35.193 12.951,35.838L10.809,43.338C10.679,43.79 10.77,44.277 11.053,44.653C11.336,45.029 11.779,45.25 12.25,45.25L43.75,45.25C44.221,45.25 44.665,45.029 44.948,44.653C45.232,44.278 45.323,43.79 45.193,43.338Z" style="fill:none;stroke:rgb(44,44,44);stroke-width:2px;"/>
                    </g>
                </g>
            </g>
            <g id="g-root-ic_view_18gc4wvz0lwqu-stroke" transform="matrix(1,0,0,1,230,62)">
                <g id="ic_view_18gc4wvz0lwqu-stroke">
                    <g>
                        <path d="M23.89,36.298L14.5,36.298C12.843,36.298 11.5,34.955 11.5,33.298L11.5,14.536C11.5,12.879 12.843,11.536 14.5,11.536L37.014,11.536C38.67,11.536 40.014,12.879 40.014,14.536L40.014,24.75M11.5,17.395L40.015,17.395M11.5,29.851L24.052,29.851M11.5,23.633L28.016,23.633M23.148,17.395L23.148,36.298M31.497,17.395L31.497,23.633M34.117,41.224C38.214,41.139 41.467,37.75 41.384,33.654C41.467,29.557 38.214,26.168 34.117,26.083C30.02,26.168 26.767,29.557 26.849,33.654C26.767,37.75 30.02,41.139 34.117,41.224ZM44.5,44.466L39.25,39.004" style="fill:none;stroke:rgb(44,44,44);stroke-width:2px;"/>
                    </g>
                </g>
            </g>
            <g id="g-root-ic_1_zp2jfjz0g9og-stroke" transform="matrix(1,0,0,1,314,350)">
                <g id="ic_1_zp2jfjz0g9og-stroke">
                    <g>
                        <path d="M27.274,16.765L27.274,10.765L33.274,10.765M27.274,10.765L36.274,19.015L36.274,28.724M45.274,16.765L45.274,10.765L39.274,10.765M45.274,10.765L38.996,16.49M26.323,44.994C22.723,41.384 24,38.571 25.952,36.616L27.214,35.355C28.471,34.099 30.507,34.099 31.763,35.354L37.222,40.814C37.668,41.259 37.861,41.898 37.736,42.515C37.612,43.133 37.186,43.646 36.602,43.883C29.612,46.74 21.59,45.125 16.251,39.785C10.911,34.446 9.296,26.424 12.153,19.434C12.39,18.85 12.903,18.424 13.521,18.3C14.138,18.175 14.777,18.368 15.222,18.814L20.683,24.276C21.939,25.531 21.939,27.568 20.683,28.824L19.42,30.085C17.47,32.035 14.653,33.316 11.044,29.716" style="fill:none;stroke:rgb(44,44,44);stroke-width:2px;"/>
                    </g>
                </g>
            </g>
        </g>
    </g>
</svg>
