<?xml version="1.0" encoding="UTF-8" standalone="no"?>
<!DOCTYPE svg PUBLIC "-//W3C//DTD SVG 1.1//EN" "http://www.w3.org/Graphics/SVG/1.1/DTD/svg11.dtd">
<svg width="100%" height="100%" viewBox="0 0 588 586" version="1.1" xmlns="http://www.w3.org/2000/svg" xmlns:xlink="http://www.w3.org/1999/xlink" xml:space="preserve" xmlns:serif="http://www.serif.com/" style="fill-rule:evenodd;clip-rule:evenodd;stroke-linecap:round;stroke-linejoin:round;">
    <g id="items" transform="matrix(1.06067,0,0,1.06067,-17.8372,-38.9293)">
        <g id="blend">
            <g id="g-root-sy_-1_cu_1cu9y4g13qq87h-fill" transform="matrix(1,0,0,1,14,62)">
                <g id="sy_-1_cu_1cu9y4g13qq87h-fill">
                    <g>
                        <path d="M10,490L10,418L82.5,418L82.5,490L10,490ZM34,394L10,418L82.5,418L106,394L34,394ZM34,394L34,322L106,322L106,394L34,394ZM58,298L34,322L106,322L130,298L58,298ZM58,298L58,226L130,226L130,298L58,298ZM82,202L58,226L130,226L154,202L82,202ZM82,202L82,130L154,130L154,202L82,202ZM106,106L82,130L154,130L178,106L106,106ZM106,106L106,34L178,34L178,106L106,106ZM130,10L106,34L178,34L202,10L130,10Z" style="fill:url(#_Linear1);"/>
                    </g>
                </g>
            </g>
            <g id="g-root-sy_-1_cu_1_v2zxmo13qqakm-fill" transform="matrix(1,0,0,1,362,62)">
                <g id="sy_-1_cu_1_v2zxmo13qqakm-fill">
                    <g>
                        <path d="M202,490L202,418L130.5,418L130.5,490L202,490ZM202,418L178,394L106,394L130.5,418L202,418ZM178,322L178,394L106,394L106,322L178,322ZM178,322L154,298L82,298L106,322L178,322ZM154,226L154,298L82,298L82,226L154,226ZM154,226L130,202L58,202L82,226L154,226ZM130,130L130,202L58,202L58,130L130,130ZM130,130L106,106L34,106L58,130L130,130ZM106,34L106,106L34,106L34,34L106,34ZM106,34L82,10L10,10L34,34L106,34Z" style="fill:url(#_Linear2);"/>
                    </g>
                </g>
            </g>
            <g id="g-root-sy_1_cu_8wiw3k13qq9sf-fill" transform="matrix(1,0,0,1,86.4998,446)">
                <g id="sy_1_cu_8wiw3k13qq9sf-fill">
                    <g>
                        <path d="M10,106L10,34L406,34L406,106L10,106ZM381.5,10L406,34L10,34L33.5,10L381.5,10Z" style="fill:url(#_Linear3);"/>
                    </g>
                </g>
            </g>
            <g id="g-root-sy_2_cu_1lr5wjk13qq9kw-fill" transform="matrix(1,0,0,1,110,350)">
                <g id="sy_2_cu_1lr5wjk13qq9kw-fill">
                    <g>
                        <path d="M10,106L10,34L358,34L358,106L10,106ZM334,10L358,34L10,34L34,10L334,10Z" style="fill:url(#_Linear4);"/>
                    </g>
                </g>
            </g>
            <g id="g-root-sy_3_cu_v4vcw013qq9kx-fill" transform="matrix(1,0,0,1,134,254)">
                <g id="sy_3_cu_v4vcw013qq9kx-fill">
                    <g>
                        <path d="M10,34L10,106L310,106L310,34L10,34ZM286,10L310,34L10,34L34,10L286,10Z" style="fill:url(#_Linear5);"/>
                    </g>
                </g>
            </g>
            <g id="g-root-sy_4_cu_8yebcw13qq8sq-fill" transform="matrix(1,0,0,1,158,158)">
                <g id="sy_4_cu_8yebcw13qq8sq-fill">
                    <g>
                        <path d="M10,106L10,34L262,34L262,106L10,106ZM238,10L262,34L10,34L34,10L238,10Z" style="fill:url(#_Linear6);"/>
                    </g>
                </g>
            </g>
            <g id="g-root-sy_5_cu_1uo1uyo13qqa6j-fill" transform="matrix(1,0,0,1,182,62)">
                <g id="sy_5_cu_1uo1uyo13qqa6j-fill">
                    <g>
                        <path d="M10,106L10,34L214,34L214,106L10,106ZM190,10L214,34L10,34L34,10L190,10Z" style="fill:url(#_Linear7);"/>
                    </g>
                </g>
            </g>
            <g transform="matrix(1,0,0,1,225.38,240)">
                <g id="g-root-tx_livemoni_145i5ts13qq874-fill">
                    <g id="tx_livemoni_145i5ts13qq874-fill">
                        <g>
                            <g>
                                <text x="0px" y="0px" style="font-family:'ArialMT', 'Arial', sans-serif;font-size:20px;fill:rgb(244,244,244);">Live Monitoring</text>
                            </g>
                        </g>
                    </g>
                </g>
            </g>
            <g transform="matrix(1,0,0,1,218.88,144)">
                <g id="g-root-tx_optimize_4nklxc13qq8zt-fill">
                    <g id="tx_optimize_4nklxc13qq8zt-fill">
                        <g>
                            <g>
                                <text x="0px" y="0px" style="font-family:'ArialMT', 'Arial', sans-serif;font-size:20px;fill:rgb(244,244,244);">Optimize &amp; Scale</text>
                            </g>
                        </g>
                    </g>
                </g>
            </g>
            <g transform="matrix(1,0,0,1,234.95,336)">
                <g id="g-root-tx_callhand_4lp6o013qq9zj-fill">
                    <g id="tx_callhand_4lp6o013qq9zj-fill">
                        <g>
                            <g>
                                <text x="0px" y="0px" style="font-family:'ArialMT', 'Arial', sans-serif;font-size:20px;fill:rgb(244,244,244);">Call Handling</text>
                            </g>
                        </g>
                    </g>
                </g>
            </g>
            <g transform="matrix(1,0,0,1,233.27,432)">
                <g id="g-root-tx_uploadle_143mqkg13qq96u-fill">
                    <g id="tx_uploadle_143mqkg13qq96u-fill">
                        <g>
                            <g>
                                <text x="0px" y="0px" style="font-family:'ArialMT', 'Arial', sans-serif;font-size:20px;fill:rgb(244,244,244);">Upload Leads</text>
                            </g>
                        </g>
                    </g>
                </g>
            </g>
            <g transform="matrix(1,0,0,1,232.69,528)">
                <g id="g-root-tx_systemse_4mqdc13qq8lp-fill">
                    <g id="tx_systemse_4mqdc13qq8lp-fill">
                        <g>
                            <g>
                                <text x="0px" y="0px" style="font-family:'ArialMT', 'Arial', sans-serif;font-size:20px;fill:rgb(244,244,244);">System Setup</text>
                            </g>
                        </g>
                    </g>
                </g>
            </g>
            <g id="g-root-sy_-1_cu_1cu9y4g13qq87h-stroke" transform="matrix(1,0,0,1,14,62)">
                <g id="sy_-1_cu_1cu9y4g13qq87h-stroke">
                    <g>
                        <path d="M10,490L10,418L82.5,418L82.5,490L10,490ZM10,418L34,394L106,394L82.5,418L10,418ZM34,394L34,322L106,322L106,394L34,394ZM34,322L58,298L130,298L106,322L34,322ZM58,298L58,226L130,226L130,298L58,298ZM58,226L82,202L154,202L130,226L58,226ZM82,202L82,130L154,130L154,202L82,202ZM82,130L106,106L178,106L154,130L82,130ZM106,106L106,34L178,34L178,106L106,106ZM106,34L130,10L202,10L178,34L106,34Z" style="fill:none;stroke:rgb(244,244,244);stroke-width:2px;"/>
                    </g>
                </g>
            </g>
            <g id="g-root-sy_-1_cu_1_v2zxmo13qqakm-stroke" transform="matrix(1,0,0,1,362,62)">
                <g id="sy_-1_cu_1_v2zxmo13qqakm-stroke">
                    <g>
                        <path d="M202,418L202,490L130.5,490L130.5,418L202,418ZM202,418L178,394L106,394L130.5,418L202,418ZM178,322L178,394L106,394L106,322L178,322ZM178,322L154,298L82,298L106,322L178,322ZM154,226L154,298L82,298L82,226L154,226ZM154,226L130,202L58,202L82,226L154,226ZM130,130L130,202L58,202L58,130L130,130ZM130,130L106,106L34,106L58,130L130,130ZM106,106L106,34L34,34L34,106L106,106ZM106,34L82,10L10,10L34,34L106,34Z" style="fill:none;stroke:rgb(244,244,244);stroke-width:2px;"/>
                    </g>
                </g>
            </g>
            <g id="g-root-sy_1_cu_8wiw3k13qq9sf-stroke" transform="matrix(1,0,0,1,86.4998,446)">
                <g id="sy_1_cu_8wiw3k13qq9sf-stroke">
                    <g>
                        <path d="M10,34L10,106L406,106L406,34L10,34ZM406,34L381.5,10L33.5,10L10,34L406,34Z" style="fill:none;stroke:rgb(244,244,244);stroke-width:2px;"/>
                    </g>
                </g>
            </g>
            <g id="g-root-sy_2_cu_1lr5wjk13qq9kw-stroke" transform="matrix(1,0,0,1,110,350)">
                <g id="sy_2_cu_1lr5wjk13qq9kw-stroke">
                    <g>
                        <path d="M10,34L10,106L358,106L358,34L10,34ZM358,34L334,10L34,10L10,34L358,34Z" style="fill:none;stroke:rgb(244,244,244);stroke-width:2px;"/>
                    </g>
                </g>
            </g>
            <g id="g-root-sy_3_cu_v4vcw013qq9kx-stroke" transform="matrix(1,0,0,1,134,254)">
                <g id="sy_3_cu_v4vcw013qq9kx-stroke">
                    <g>
                        <path d="M10,106L10,34L310,34L310,106L10,106ZM310,34L286,10L34,10L10,34L310,34Z" style="fill:none;stroke:rgb(244,244,244);stroke-width:2px;"/>
                    </g>
                </g>
            </g>
            <g id="g-root-sy_4_cu_8yebcw13qq8sq-stroke" transform="matrix(1,0,0,1,158,158)">
                <g id="sy_4_cu_8yebcw13qq8sq-stroke">
                    <g>
                        <path d="M10,34L10,106L262,106L262,34L10,34ZM262,34L238,10L34,10L10,34L262,34Z" style="fill:none;stroke:rgb(244,244,244);stroke-width:2px;"/>
                    </g>
                </g>
            </g>
            <g id="g-root-sy_5_cu_1uo1uyo13qqa6j-stroke" transform="matrix(1,0,0,1,182,62)">
                <g id="sy_5_cu_1uo1uyo13qqa6j-stroke">
                    <g>
                        <path d="M10,34L10,106L214,106L214,34L10,34ZM214,34L190,10L34,10L10,34L214,34Z" style="fill:none;stroke:rgb(244,244,244);stroke-width:2px;"/>
                    </g>
                </g>
            </g>
            <g id="g-root-ic_plan_zqxlvk13qqadm-stroke" transform="matrix(1,0,0,1,398,98)">
                <g id="ic_plan_zqxlvk13qqadm-stroke">
                    <g>
                        <path d="M19,34.68C18.782,34.876 18.605,35.114 18.48,35.38L12.24,49.38C11.951,50.031 12.011,50.784 12.4,51.38C12.773,51.891 13.367,52.195 14,52.2L54,52.2C54.676,52.203 55.308,51.865 55.68,51.3C56.069,50.704 56.129,49.951 55.84,49.3L49.6,35.3C49.278,34.583 48.566,34.122 47.78,34.12L34,34.12M17.68,38.2L50.78,38.2M43.78,17.06C44.845,17.286 45.72,18.04 46.1,19.06C46.584,20.474 46.039,22.035 44.78,22.84L26.46,34.28C26.084,34.53 25.596,34.53 25.22,34.28L18.5,29.54C18.355,29.418 18.272,29.239 18.272,29.05C18.272,28.861 18.355,28.682 18.5,28.56L21.34,26C21.544,25.882 21.796,25.882 22,26L25.48,28L30,24.94L21.46,19.7C21.274,19.552 21.166,19.327 21.166,19.09C21.166,18.853 21.274,18.628 21.46,18.48L23.46,16.94C23.672,16.799 23.937,16.762 24.18,16.84L36,21.2L41.42,17.5C42.11,17.029 42.966,16.869 43.78,17.06L43.78,17.06ZM20,44.2L23,44.2M28,44.2L31,44.2M36,44.2L39,44.2M44,44.2L47,44.2" style="fill:none;stroke:rgb(244,244,244);stroke-width:2px;"/>
                    </g>
                </g>
            </g>
            <g id="g-root-ic_48px_1lrsgsg13qc64l-stroke" transform="matrix(1,0,0,1,98,194)">
                <g id="ic_48px_1lrsgsg13qc64l-stroke">
                    <g>
                        <path d="M15.072,30.179C15.072,24.482 17.789,19.696 23.011,19.696C28.233,19.696 30.949,24.482 30.949,30.179L30.949,37.273C30.949,42.97 28.105,47.882 23.011,47.882C17.916,47.882 15.072,42.97 15.072,37.273L15.072,30.179ZM49.91,47.979L49.91,19.551L36.295,39.738L55.315,39.738" style="fill:none;stroke:rgb(244,244,244);stroke-width:2px;"/>
                    </g>
                </g>
            </g>
            <g id="g-root-ic_moni_8vwi6813q9e6c-stroke" transform="matrix(1,0,0,1,422,194)">
                <g id="ic_moni_8vwi6813q9e6c-stroke">
                    <g>
                        <path d="M39,39L55,39C55,39 57,39 57,41L57,51C57,51 57,53 55,53L39,53C39,53 37,53 37,51L37,41C37,41 37,39 39,39M47,53L47,57M41,57L53,57M33,37L11,37C11.019,35.143 11.403,33.309 12.13,31.6C12.93,30 16.256,28.9 20.436,27.352C21.566,26.934 21.38,23.984 20.88,23.432C19.269,21.686 18.479,19.335 18.71,16.97C18.565,15.464 19.053,13.966 20.056,12.834C21.059,11.702 22.488,11.037 24,11C25.512,11.037 26.941,11.702 27.944,12.834C28.947,13.966 29.435,15.464 29.29,16.97C29.522,19.336 28.732,21.687 27.12,23.434C26.62,23.986 26.434,26.936 27.564,27.354C31.744,28.902 35.072,30.008 35.87,31.602C36.236,32.365 36.505,33.172 36.67,34.002M31.824,11.474C32.506,11.159 33.249,10.997 34,11C35.512,11.037 36.941,11.702 37.944,12.834C38.947,13.966 39.435,15.464 39.29,16.97C39.522,19.336 38.732,21.687 37.12,23.434C36.62,23.986 36.434,26.936 37.564,27.354C41.744,28.902 45.072,30.008 45.87,31.602C46.231,32.359 46.497,33.158 46.66,33.98" style="fill:none;stroke:rgb(244,244,244);stroke-width:2px;"/>
                    </g>
                </g>
            </g>
            <g id="g-root-ic_48px_dbq0ao13qggsn-stroke" transform="matrix(1,0,0,1,74,290)">
                <g id="ic_48px_dbq0ao13qggsn-stroke">
                    <g>
                        <path d="M15.072,30.179C15.072,24.482 17.789,19.695 23.011,19.695C28.233,19.695 30.949,24.482 30.949,30.179L30.949,37.273C30.949,42.969 28.105,47.882 23.011,47.882C17.916,47.882 15.072,42.969 15.072,37.273L15.072,30.179ZM37.121,27.068C37.002,24.659 38.483,19.71 45.065,19.71C51.648,19.71 52.656,24.597 52.428,27.357C52.177,30.4 50.272,33.508 42.201,33.508C49.714,33.508 53.126,35.562 53.126,41.125C53.126,45.933 48.876,47.89 44.992,47.89C42.201,47.866 36.62,46.287 36.62,40.162" style="fill:none;stroke:rgb(244,244,244);stroke-width:2px;"/>
                    </g>
                </g>
            </g>
            <g id="g-root-ic_inco_1lr5zpc13qdmo6-stroke" transform="matrix(1,0,0,1,446,290)">
                <g id="ic_inco_1lr5zpc13qdmo6-stroke">
                    <g>
                        <path d="M56.5,30.2L36.5,30.2M42.3,36.1L36.5,30.2L42.3,24.3M36.5,17.4L56.5,17.4M50.5,23.3L56.5,17.4L50.5,11.5M35.498,38.5L35.498,51.1C35.498,54.1 33.098,56.5 30.098,56.5L16.898,56.5C13.898,56.5 11.498,54.1 11.498,51.1L11.498,20.1C11.498,17.1 13.898,14.7 16.898,14.7L29.898,14.7M11.498,47.5L35.498,47.5" style="fill:none;stroke:rgb(244,244,244);stroke-width:2px;"/>
                    </g>
                </g>
            </g>
            <g id="g-root-ic_48px_dil53413qt24j-stroke" transform="matrix(1,0,0,1,122,98)">
                <g id="ic_48px_dil53413qt24j-stroke">
                    <g>
                        <path d="M15.072,30.179C15.072,24.482 17.789,19.696 23.011,19.696C28.233,19.696 30.949,24.482 30.949,30.179L30.949,37.273C30.949,42.97 28.105,47.882 23.011,47.882C17.916,47.882 15.072,42.97 15.072,37.273L15.072,30.179ZM53.693,20.121L40.379,20.121L38.988,33.144C39.817,32.315 42.353,30.657 45.865,30.657C49.971,30.657 53.813,33.447 53.427,40.052C53.028,46.894 48.912,47.904 45.529,47.904C41.945,47.904 38.405,45.361 38.073,40.565" style="fill:none;stroke:rgb(244,244,244);stroke-width:2px;"/>
                    </g>
                </g>
            </g>
            <g id="g-root-ic_48px_1hclfr413qt24v-stroke" transform="matrix(1,0,0,1,50,386)">
                <g id="ic_48px_1hclfr413qt24v-stroke">
                    <g>
                        <path d="M15.072,30.179C15.072,24.482 17.789,19.695 23.011,19.695C28.233,19.695 30.949,24.482 30.949,30.179L30.949,37.273C30.949,42.969 28.105,47.882 23.011,47.882C17.916,47.882 15.072,42.969 15.072,37.273L15.072,30.179ZM36.832,27.515C36.832,22.895 40.056,19.695 44.438,19.695C51.707,19.695 54.186,26.789 49.421,33.098L37.33,47.417L53.951,47.417" style="fill:none;stroke:rgb(244,244,244);stroke-width:2px;"/>
                    </g>
                </g>
            </g>
            <g id="g-root-ic_desk_59am813quhoo-stroke" transform="matrix(1,0,0,1,494,482)">
                <g id="ic_desk_59am813quhoo-stroke">
                    <g>
                        <path d="M27.162,18.28L22.376,18.28L21.896,23.546L23.004,22.992C23.534,22.728 24.122,22.588 24.716,22.588L24.768,22.588C26.354,22.588 27.64,23.874 27.64,25.46L27.64,26.896C27.64,28.482 26.354,29.768 24.768,29.768C23.518,29.768 22.292,28.968 21.898,27.854M31.202,21.152L31.202,26.896C31.202,28.482 32.488,29.768 34.074,29.768C35.66,29.768 36.946,28.482 36.946,26.896L36.946,21.152C36.946,19.566 35.66,18.28 34.074,18.28C32.488,18.28 31.202,19.566 31.202,21.152ZM40.508,21.152L40.508,26.896C40.508,28.482 41.794,29.768 43.38,29.768C44.966,29.768 46.252,28.482 46.252,26.896L46.252,21.152C46.252,19.566 44.966,18.28 43.38,18.28C41.794,18.28 40.508,19.566 40.508,21.152ZM38.796,36.188L38.796,39.874C38.774,40.547 39.12,41.178 39.7,41.521C40.279,41.864 40.999,41.864 41.578,41.521C42.158,41.178 42.504,40.547 42.482,39.874L42.482,36.188C42.504,35.515 42.158,34.884 41.578,34.541C40.999,34.198 40.279,34.198 39.7,34.541C39.12,34.884 38.774,35.515 38.796,36.188ZM22.012,34.344L18.324,34.344L18.324,41.718L22.012,41.718M18.324,37.724L21.396,37.724M25.36,41.718L25.36,38.646M25.36,38.646L25.36,34.346L26.894,34.346C28.082,34.346 29.044,35.306 29.044,36.496C29.044,37.684 28.082,38.646 26.894,38.646L25.36,38.646ZM27.816,38.644L29.352,41.716M32.148,41.718L32.148,38.646M32.148,38.646L32.148,34.346L33.684,34.346C34.872,34.346 35.834,35.306 35.834,36.496C35.834,37.684 34.872,38.646 33.684,38.646L32.148,38.646ZM34.606,38.644L36.142,41.716M45.83,41.718L45.83,38.646M45.83,38.646L45.83,34.346L47.366,34.346C48.554,34.346 49.518,35.306 49.518,36.496C49.518,37.684 48.554,38.646 47.366,38.646L45.83,38.646ZM48.288,38.644L49.824,41.716M28,55C29.812,52.712 30.861,49.915 31,47M40,55C38.188,52.712 37.139,49.915 37,47M24.998,55L42.998,55M56.414,46.414C56.789,46.039 57,45.53 57,45L57,15C57,13.895 56.105,13 55,13L13,13C11.895,13 11,13.895 11,15L11,45C11,46.105 11.895,47 13,47L55,47C55.53,47 56.039,46.789 56.414,46.414Z" style="fill:none;stroke:rgb(244,244,244);stroke-width:2px;"/>
                    </g>
                </g>
            </g>
            <g id="g-root-ic_48px_1cy0yyo13q9erl-stroke" transform="matrix(1,0,0,1,26,482)">
                <g id="ic_48px_1cy0yyo13q9erl-stroke">
                    <g>
                        <path d="M37.842,23.377L46.297,20.184L46.297,47.951M15.072,30.179C15.072,24.482 17.789,19.695 23.011,19.695C28.233,19.695 30.949,24.482 30.949,30.179L30.949,37.273C30.949,42.969 28.105,47.882 23.011,47.882C17.916,47.882 15.072,42.969 15.072,37.273L15.072,30.179Z" style="fill:none;stroke:rgb(244,244,244);stroke-width:2px;"/>
                    </g>
                </g>
            </g>
            <g id="g-root-ic_2_959mgw13qotfq-stroke" transform="matrix(1,0,0,1,470,386)">
                <g id="ic_2_959mgw13qotfq-stroke">
                    <g>
                        <path d="M11,44.236C11,47.2 13.402,49.602 16.366,49.602C19.33,49.602 21.732,47.2 21.732,44.236C21.732,41.272 19.33,38.87 16.366,38.87C13.402,38.87 11,41.272 11,44.236M24.83,56.722C23.734,54.154 21.53,52.223 18.841,51.473C16.152,50.723 13.267,51.235 11,52.864M46.268,44.236C46.268,47.2 48.67,49.602 51.634,49.602C54.598,49.602 57,47.2 57,44.236C57,41.272 54.598,38.87 51.634,38.87C48.67,38.87 46.268,41.272 46.268,44.236M43.17,56.722C44.266,54.154 46.47,52.223 49.159,51.473C51.848,50.723 54.733,51.235 57,52.864M27.1,42.702C27.099,46.513 30.189,49.604 34,49.604C37.811,49.604 40.901,46.513 40.9,42.702C40.901,38.891 37.811,35.8 34,35.8C30.189,35.8 27.099,38.891 27.1,42.702M43.17,56.722C40.82,54.14 37.491,52.669 34,52.669C30.509,52.669 27.18,54.14 24.83,56.722M30.934,25.078C30.934,26.771 32.307,28.144 34,28.144C35.693,28.144 37.066,26.771 37.066,25.078C37.066,23.385 35.693,22.012 34,22.012C32.307,22.012 30.934,23.385 30.934,25.078M28.092,32.578L25.08,33.276C23.91,33.538 22.706,33.007 22.109,31.967C21.513,30.927 21.663,29.62 22.48,28.742L24.582,26.47C25.31,25.684 25.31,24.47 24.582,23.684L22.476,21.414C21.66,20.536 21.511,19.229 22.107,18.189C22.703,17.149 23.906,16.618 25.076,16.878L28.088,17.576C29.132,17.815 30.182,17.202 30.488,16.176L31.4,13.214C31.745,12.064 32.804,11.277 34.005,11.277C35.206,11.277 36.265,12.064 36.61,13.214L37.514,16.184C37.82,17.21 38.87,17.823 39.914,17.584L42.914,16.886C44.084,16.626 45.287,17.157 45.883,18.197C46.479,19.237 46.33,20.544 45.514,21.422L43.416,23.684C42.69,24.471 42.69,25.683 43.416,26.47L45.524,28.742C46.341,29.62 46.491,30.927 45.895,31.967C45.298,33.007 44.094,33.538 42.924,33.276L39.924,32.578M28.6,38.4C31.986,41.374 36.396,42.915 40.898,42.696M12.152,40.924C14.8,43.22 18.233,44.407 21.734,44.236M47.418,40.924C50.066,43.22 53.499,44.407 57,44.236" style="fill:none;stroke:rgb(244,244,244);stroke-width:2px;"/>
                    </g>
                </g>
            </g>
        </g>
    </g>
    <defs>
        <linearGradient id="_Linear1" x1="0" y1="0" x2="1" y2="0" gradientUnits="userSpaceOnUse" gradientTransform="matrix(10,490,-490,10,0,0)"><stop offset="0" style="stop-color:rgb(149,149,149);stop-opacity:1"/><stop offset="1" style="stop-color:rgb(127,127,127);stop-opacity:1"/></linearGradient>
        <linearGradient id="_Linear2" x1="0" y1="0" x2="1" y2="0" gradientUnits="userSpaceOnUse" gradientTransform="matrix(10,490,-490,10,0,0)"><stop offset="0" style="stop-color:rgb(149,149,149);stop-opacity:1"/><stop offset="1" style="stop-color:rgb(127,127,127);stop-opacity:1"/></linearGradient>
        <linearGradient id="_Linear3" x1="0" y1="0" x2="1" y2="0" gradientUnits="userSpaceOnUse" gradientTransform="matrix(10,106,-106,10,-1.77636e-15,0)"><stop offset="0" style="stop-color:rgb(78,136,230);stop-opacity:1"/><stop offset="1" style="stop-color:rgb(79,126,202);stop-opacity:1"/></linearGradient>
        <linearGradient id="_Linear4" x1="0" y1="0" x2="1" y2="0" gradientUnits="userSpaceOnUse" gradientTransform="matrix(10,106,-106,10,0,0)"><stop offset="0" style="stop-color:rgb(59,196,130);stop-opacity:1"/><stop offset="1" style="stop-color:rgb(68,152,112);stop-opacity:1"/></linearGradient>
        <linearGradient id="_Linear5" x1="0" y1="0" x2="1" y2="0" gradientUnits="userSpaceOnUse" gradientTransform="matrix(10,106,-106,10,0,0)"><stop offset="0" style="stop-color:rgb(145,187,57);stop-opacity:1"/><stop offset="1" style="stop-color:rgb(125,152,68);stop-opacity:1"/></linearGradient>
        <linearGradient id="_Linear6" x1="0" y1="0" x2="1" y2="0" gradientUnits="userSpaceOnUse" gradientTransform="matrix(10,106,-106,10,0,0)"><stop offset="0" style="stop-color:rgb(31,169,215);stop-opacity:1"/><stop offset="1" style="stop-color:rgb(49,135,163);stop-opacity:1"/></linearGradient>
        <linearGradient id="_Linear7" x1="0" y1="0" x2="1" y2="0" gradientUnits="userSpaceOnUse" gradientTransform="matrix(10,106,-106,10,0,0)"><stop offset="0" style="stop-color:rgb(127,100,233);stop-opacity:1"/><stop offset="1" style="stop-color:rgb(119,97,207);stop-opacity:1"/></linearGradient>
    </defs>
</svg>
