<?xml version="1.0" encoding="UTF-8" standalone="no"?>
<!DOCTYPE svg PUBLIC "-//W3C//DTD SVG 1.1//EN" "http://www.w3.org/Graphics/SVG/1.1/DTD/svg11.dtd">
<svg width="100%" height="100%" viewBox="0 0 672 696" version="1.1" xmlns="http://www.w3.org/2000/svg" xmlns:xlink="http://www.w3.org/1999/xlink" xml:space="preserve" xmlns:serif="http://www.serif.com/" style="fill-rule:evenodd;clip-rule:evenodd;stroke-linecap:round;stroke-linejoin:round;">
    <g id="items" transform="matrix(1.18281,0,0,1.18281,-91.811,-91.0047)">
        <g id="blend">
            <g id="g-root-cp_2_sign-2_hssgovveu1hg-fill" transform="matrix(1,0,0,1,326,194)">
                <g id="cp_2_sign-2_hssgovveu1hg-fill">
                    <g>
                        <path d="M10,10L220,10L220,106L10,106L10,10ZM268,58C268,31.49 246.51,10 220,10L220,106C246.51,106 268,84.51 268,58Z" style="fill:rgb(255,231,17);"/>
                    </g>
                </g>
            </g>
            <g id="g-root-cp_4_sign-4_1hclfunvetyxa-fill" transform="matrix(1,0,0,1,326,434)">
                <g id="cp_4_sign-4_1hclfunvetyxa-fill">
                    <g>
                        <path d="M10,10L256,10L256,106L10,106L10,10ZM304,58C304,31.49 282.51,10 256,10L256,106C282.51,106 304,84.51 304,58Z" style="fill:rgb(251,103,98);"/>
                    </g>
                </g>
            </g>
            <g id="g-root-cp_1_sign-1_8z0vpbveu1ag-fill" transform="matrix(1,0,0,1,92,74)">
                <g id="cp_1_sign-1_8z0vpbveu1ag-fill">
                    <g>
                        <path d="M58,10L244,10L244,106L58,106L58,10ZM10,58C10,84.51 31.49,106 58,106L58,10C31.49,10 10,31.49 10,58Z" style="fill:rgb(166,218,55);"/>
                    </g>
                </g>
            </g>
            <g id="g-root-cp_3_sign-3_1hdue0vveu13e-fill" transform="matrix(1,0,0,1,140,314)">
                <g id="cp_3_sign-3_1hdue0vveu13e-fill">
                    <g>
                        <path d="M58,10L196,10L196,106L58,106L58,10ZM10,58C10,84.51 31.49,106 58,106L58,10C31.49,10 10,31.49 10,58Z" style="fill:rgb(247,148,56);"/>
                    </g>
                </g>
            </g>
            <g id="g-root-cp_5_sign-5_qrjudbveu13g-fill" transform="matrix(1,0,0,1,80,554)">
                <g id="cp_5_sign-5_qrjudbveu13g-fill">
                    <g>
                        <path d="M58,10L256,10L256,106L58,106L58,10ZM10,58C10,84.51 31.49,106 58,106L58,10C31.49,10 10,31.49 10,58Z" style="fill:rgb(243,102,187);"/>
                    </g>
                </g>
            </g>
            <g transform="matrix(1,0,0,1,189.5,144)">
                <g id="g-root-tx_expertsu_qs6bgfveznyn-fill">
                    <g id="tx_expertsu_qs6bgfveznyn-fill">
                        <g>
                            <g>
                                <text x="0px" y="0px" style="font-family:'ArialMT', 'Arial', sans-serif;font-size:20px;fill:rgb(44,44,44);">Expert Support</text>
                            </g>
                        </g>
                    </g>
                </g>
            </g>
            <g transform="matrix(1,0,0,1,350,141.2)">
                <g id="g-root-tx_accessat_v98rr3vetzbj-fill">
                    <g id="tx_accessat_v98rr3vetzbj-fill">
                        <g>
                            <g>
                                <text x="0px" y="0px" style="font-family:'ArialMT', 'Arial', sans-serif;font-size:15px;fill:rgb(44,44,44);">Access a team of experts.</text>
                            </g>
                        </g>
                    </g>
                </g>
            </g>
            <g id="g-root-tx_improved_145i933vezle0-fill" transform="matrix(1,0,0,1,98,224)">
                <g id="tx_improved_145i933vezle0-fill">
                    <g>
                        <g>
                            <g transform="matrix(1,0,0,1,12.9,28.2)">
                                <text x="0px" y="0px" style="font-family:'ArialMT', 'Arial', sans-serif;font-size:15px;fill:rgb(44,44,44);">Improved security measures for</text>
                            </g>
                            <g transform="matrix(1,0,0,1,118.65,46.2)">
                                <text x="0px" y="0px" style="font-family:'ArialMT', 'Arial', sans-serif;font-size:15px;fill:rgb(44,44,44);">data protection.</text>
                            </g>
                        </g>
                    </g>
                </g>
            </g>
            <g transform="matrix(1,0,0,1,350,264)">
                <g id="g-root-tx_enhanced_1cy0vwfvewsnd-fill">
                    <g id="tx_enhanced_1cy0vwfvewsnd-fill">
                        <g>
                            <g>
                                <text x="0px" y="0px" style="font-family:'ArialMT', 'Arial', sans-serif;font-size:20px;fill:rgb(44,44,44);">Enhanced Security</text>
                            </g>
                        </g>
                    </g>
                </g>
            </g>
            <g transform="matrix(1,0,0,1,241.05,384)">
                <g id="g-root-tx_callflow_8wizcvvf2eiy-fill">
                    <g id="tx_callflow_8wizcvvf2eiy-fill">
                        <g>
                            <g>
                                <text x="0px" y="0px" style="font-family:'ArialMT', 'Arial', sans-serif;font-size:20px;fill:rgb(44,44,44);">Call Flow</text>
                            </g>
                        </g>
                    </g>
                </g>
            </g>
            <g id="g-root-tx_efficien_1uqjukfvewsga-fill" transform="matrix(1,0,0,1,338,344)">
                <g id="tx_efficien_1uqjukfvewsga-fill">
                    <g>
                        <g>
                            <g transform="matrix(1,0,0,1,12,28.2)">
                                <g transform="matrix(15,0,0,15,10.0049,0)">
                                </g>
                                <g transform="matrix(15,0,0,15,14.0389,0)">
                                </g>
                                <g transform="matrix(15,0,0,15,18.073,0)">
                                </g>
                                <text x="0px" y="0px" style="font-family:'ArialMT', 'Arial', sans-serif;font-size:15px;fill:rgb(44,44,44);">Eﬃcient management of</text>
                            </g>
                            <g transform="matrix(1,0,0,1,12,46.2)">
                                <text x="0px" y="0px" style="font-family:'ArialMT', 'Arial', sans-serif;font-size:15px;fill:rgb(44,44,44);">incoming calls.</text>
                            </g>
                        </g>
                    </g>
                </g>
            </g>
            <g id="g-root-tx_supporta_zk2h6nvf2goz-fill" transform="matrix(1,0,0,1,134,464)">
                <g id="tx_supporta_zk2h6nvf2goz-fill">
                    <g>
                        <g>
                            <g transform="matrix(1,0,0,1,29.03,28.2)">
                                <text x="0px" y="0px" style="font-family:'ArialMT', 'Arial', sans-serif;font-size:15px;fill:rgb(44,44,44);">Support across multiple</text>
                            </g>
                            <g transform="matrix(1,0,0,1,15.83,46.2)">
                                <text x="0px" y="0px" style="font-family:'ArialMT', 'Arial', sans-serif;font-size:15px;fill:rgb(44,44,44);">communication channels.</text>
                            </g>
                        </g>
                    </g>
                </g>
            </g>
            <g transform="matrix(1,0,0,1,350,504)">
                <g id="g-root-tx_multicha_vbqo3jvey7t0-fill">
                    <g id="tx_multicha_vbqo3jvey7t0-fill">
                        <g>
                            <g>
                                <text x="0px" y="0px" style="font-family:'ArialMT', 'Arial', sans-serif;font-size:20px;fill:rgb(44,44,44);">Multi-channel Support</text>
                            </g>
                        </g>
                    </g>
                </g>
            </g>
            <g transform="matrix(1,0,0,1,175.48,624)">
                <g id="g-root-tx_regularu_i0wmtbvf5afe-fill">
                    <g id="tx_regularu_i0wmtbvf5afe-fill">
                        <g>
                            <g>
                                <text x="0px" y="0px" style="font-family:'ArialMT', 'Arial', sans-serif;font-size:20px;fill:rgb(44,44,44);">Regular Updates</text>
                            </g>
                        </g>
                    </g>
                </g>
            </g>
            <g id="g-root-tx_consiste_1qf3o1rvey96t-fill" transform="matrix(1,0,0,1,338,584)">
                <g id="tx_consiste_1qf3o1rvey96t-fill">
                    <g>
                        <g>
                            <g transform="matrix(1,0,0,1,12,28.2)">
                                <text x="0px" y="0px" style="font-family:'ArialMT', 'Arial', sans-serif;font-size:15px;fill:rgb(44,44,44);">Consistent maintenance and</text>
                            </g>
                            <g transform="matrix(1,0,0,1,12,46.2)">
                                <text x="0px" y="0px" style="font-family:'ArialMT', 'Arial', sans-serif;font-size:15px;fill:rgb(44,44,44);">system improvements.</text>
                            </g>
                        </g>
                    </g>
                </g>
            </g>
            <g id="g-root-cp_2_sign-2_hssgovveu1hg-stroke" transform="matrix(1,0,0,1,326,194)">
                <g id="cp_2_sign-2_hssgovveu1hg-stroke">
                    <g>
                        <path d="M220,106L10,106M10,10L220,10M220,10C246.51,10 268,31.49 268,58C268,84.51 246.51,106 220,106M10,106L10,10" style="fill:none;stroke:rgb(44,44,44);stroke-width:2px;"/>
                    </g>
                </g>
            </g>
            <g id="g-root-cp_4_sign-4_1hclfunvetyxa-stroke" transform="matrix(1,0,0,1,326,434)">
                <g id="cp_4_sign-4_1hclfunvetyxa-stroke">
                    <g>
                        <path d="M256,106L10,106M10,10L256,10M256,10C282.51,10 304,31.49 304,58C304,84.51 282.51,106 256,106M10,106L10,10" style="fill:none;stroke:rgb(44,44,44);stroke-width:2px;"/>
                    </g>
                </g>
            </g>
            <g id="g-root-cp_1_sign-1_8z0vpbveu1ag-stroke" transform="matrix(1,0,0,1,92,74)">
                <g id="cp_1_sign-1_8z0vpbveu1ag-stroke">
                    <g>
                        <path d="M58,10L244,10M244,106L58,106M58,106C31.49,106 10,84.51 10,58C10,31.49 31.49,10 58,10M244,10L244,106" style="fill:none;stroke:rgb(44,44,44);stroke-width:2px;"/>
                    </g>
                </g>
            </g>
            <g id="g-root-cp_3_sign-3_1hdue0vveu13e-stroke" transform="matrix(1,0,0,1,140,314)">
                <g id="cp_3_sign-3_1hdue0vveu13e-stroke">
                    <g>
                        <path d="M58,10L196,10M196,106L58,106M58,106C31.49,106 10,84.51 10,58C10,31.49 31.49,10 58,10M196,10L196,106" style="fill:none;stroke:rgb(44,44,44);stroke-width:2px;"/>
                    </g>
                </g>
            </g>
            <g id="g-root-cp_5_sign-5_qrjudbveu13g-stroke" transform="matrix(1,0,0,1,80,554)">
                <g id="cp_5_sign-5_qrjudbveu13g-stroke">
                    <g>
                        <path d="M58,10L256,10M256,106L58,106M58,106C31.49,106 10,84.51 10,58C10,31.49 31.49,10 58,10M256,10L256,106" style="fill:none;stroke:rgb(44,44,44);stroke-width:2px;"/>
                    </g>
                </g>
            </g>
            <g id="g-root-ic_woma_8wizcvveznra-stroke" transform="matrix(1,0,0,1,122,104)">
                <g id="ic_woma_8wizcvveznra-stroke">
                    <g>
                        <path d="M28.768,18.364C28.768,22.116 31.81,25.157 35.562,25.157C39.313,25.157 42.355,22.116 42.355,18.364C42.355,14.612 39.313,11.57 35.562,11.57C31.81,11.57 28.768,14.612 28.768,18.364ZM45.268,28.07L40.396,23.2M34.768,44.571L45.268,44.571C45.268,41.691 43.767,39.02 41.307,37.523C38.847,36.026 35.785,35.92 33.228,37.243M41.8,29.569C41.668,31.403 40.515,33.006 38.819,33.715C37.123,34.425 35.172,34.12 33.774,32.927C32.375,31.734 31.767,29.856 32.2,28.069M28.915,31.968C28.077,30.59 27.66,28.998 27.715,27.386L27.715,25.513C27.81,23.148 26.603,20.922 24.57,19.711C22.537,18.5 20.004,18.5 17.97,19.711C15.937,20.922 14.73,23.148 14.826,25.513L14.826,27.386C14.88,28.998 14.463,30.59 13.626,31.967M14.823,26.578C17.299,26.576 19.653,25.497 21.273,23.623C22.891,25.498 25.245,26.577 27.723,26.578M26.95,26.544C26.81,29.579 24.309,31.969 21.27,31.969C18.23,31.969 15.729,29.579 15.589,26.544M31.768,44.571C31.768,38.772 27.067,34.071 21.268,34.071C15.469,34.071 10.768,38.772 10.768,44.571L31.768,44.571ZM26.578,35.51L21.268,40.821L15.958,35.51" style="fill:none;stroke:rgb(44,44,44);stroke-width:2px;"/>
                    </g>
                </g>
            </g>
            <g id="g-root-ic_secu_1usf9trveu0ow-stroke" transform="matrix(1,0,0,1,518,224)">
                <g id="ic_secu_1usf9trveu0ow-stroke">
                    <g>
                        <path d="M28.295,33.577C28.107,33.651 27.897,33.651 27.707,33.577C24.692,32.413 22.702,29.515 22.697,26.28L22.697,23.898C22.697,23.448 23.064,23.082 23.514,23.082L32.488,23.082C32.938,23.082 33.304,23.448 33.304,23.898L33.304,26.28C33.302,29.512 31.31,32.411 28.295,33.575L28.295,33.577ZM16.83,27.448C16.829,33.619 21.831,38.622 28.001,38.622C34.172,38.622 39.174,33.619 39.173,27.448C39.174,21.277 34.172,16.274 28.001,16.274C21.831,16.274 16.829,21.277 16.83,27.448M40.184,14.716C40.185,15.949 41.184,16.948 42.417,16.948C43.649,16.948 44.649,15.949 44.649,14.716C44.649,13.483 43.649,12.484 42.417,12.484C41.184,12.484 40.185,13.483 40.185,14.716M15.816,14.716C15.816,15.949 14.816,16.948 13.584,16.948C12.351,16.948 11.352,15.949 11.352,14.716C11.352,13.483 12.351,12.484 13.584,12.484C14.816,12.484 15.816,13.483 15.816,14.716M22.188,37L19.912,40.219L11.383,40.219M34.281,36.742L36.727,40.219L44.65,40.219M22.141,17.898L19.91,14.715L15.813,14.715M33.859,17.922L36.088,14.715L40.185,14.715M41.351,36.921L44.648,40.219L41.351,43.516M14.649,43.516L11.352,40.219L14.649,36.921" style="fill:none;stroke:rgb(44,44,44);stroke-width:2px;"/>
                    </g>
                </g>
            </g>
            <g id="g-root-ic_1_1hi7pmnvezlz5-stroke" transform="matrix(1,0,0,1,170,344)">
                <g id="ic_1_1hi7pmnvezlz5-stroke">
                    <g>
                        <path d="M38.5,17.884L45.25,17.884L45.25,11.134M44.737,17.884C43.37,14.017 39.561,11.564 35.475,11.918C31.388,12.272 28.059,15.344 27.377,19.389C26.695,23.433 28.835,27.427 32.579,29.101C36.323,30.775 40.726,29.705 43.285,26.5M26.299,45.363C22.699,41.752 23.976,38.938 25.93,36.985L27.192,35.723C28.447,34.468 30.484,34.468 31.74,35.723L37.2,41.183C37.644,41.629 37.837,42.267 37.712,42.885C37.587,43.502 37.162,44.015 36.578,44.253C29.588,47.109 21.566,45.494 16.227,40.154C10.887,34.815 9.272,26.793 12.129,19.802C12.366,19.219 12.879,18.794 13.496,18.669C14.114,18.544 14.752,18.737 15.198,19.181L20.657,24.641C21.913,25.897 21.913,27.934 20.657,29.19L19.396,30.451C17.446,32.401 14.629,33.682 11.019,30.082" style="fill:none;stroke:rgb(44,44,44);stroke-width:2px;"/>
                    </g>
                </g>
            </g>
            <g id="g-root-ic_exch_92594vvewt8j-stroke" transform="matrix(1,0,0,1,554,464)">
                <g id="ic_exch_92594vvewt8j-stroke">
                    <g>
                        <path d="M19.75,44.5L22.75,41.5L19.75,38.5M11.5,23.469C11.497,24.718 12.501,25.736 13.75,25.75L27.25,25.75C28.499,25.735 29.503,24.717 29.5,23.469L29.5,14.5C29.5,13.257 28.493,12.25 27.25,12.25L13.75,12.25C12.507,12.25 11.5,13.257 11.5,14.5L11.5,23.469ZM11.5,21.25L29.5,21.25M16.75,28.75L24.25,28.75M20.5,25.75L20.5,28.75M31,27.25C31,26.422 31.672,25.75 32.5,25.75L41.5,25.75C42.328,25.75 43,26.422 43,27.25L43,43.75C43,44.578 42.328,45.25 41.5,45.25L32.5,45.25C31.672,45.25 31,44.578 31,43.75L31,27.25ZM13.75,34C13.75,38.142 17.108,41.5 21.25,41.5L22.75,41.5M37.75,11.5L34.75,14.5L37.75,17.5M43.75,22C43.75,17.858 40.392,14.5 36.25,14.5L34.75,14.5M31,39.25L43,39.25M37,41.875C36.793,41.875 36.625,42.043 36.625,42.25C36.625,42.457 36.793,42.625 37,42.625C37.207,42.625 37.375,42.457 37.375,42.25C37.375,42.043 37.207,41.875 37,41.875" style="fill:none;stroke:rgb(44,44,44);stroke-width:2px;"/>
                    </g>
                </g>
            </g>
            <g id="g-root-ic_2_2redbvf2ebw-stroke" transform="matrix(1,0,0,1,110,584)">
                <g id="ic_2_2redbvf2ebw-stroke">
                    <g>
                        <path d="M17.875,31.375L17.875,38.125L11.125,38.125M38.125,24.625L38.125,17.875L44.875,17.875M38.575,17.875C41.125,20.575 42.625,24.025 42.625,28.075C42.625,36.175 36.025,42.775 27.925,42.775C25.975,42.775 24.025,42.325 22.225,41.725M17.425,38.125C14.875,35.425 13.375,31.975 13.375,27.925C13.375,19.825 19.975,13.225 28.075,13.225C30.025,13.225 31.975,13.675 33.775,14.275M27.925,28.825C27.511,28.825 27.175,28.489 27.175,28.075C27.175,27.661 27.511,27.325 27.925,27.325M27.925,28.825C28.339,28.825 28.675,28.489 28.675,28.075C28.675,27.661 28.339,27.325 27.925,27.325M29.275,21.775L29.725,23.275C29.875,23.875 30.475,24.175 30.925,24.025L32.425,23.725C33.775,23.425 34.675,25.075 33.775,26.125L32.725,27.325C32.275,27.775 32.275,28.375 32.725,28.825L33.775,30.025C34.675,31.075 33.775,32.725 32.425,32.425L30.925,32.125C30.325,31.975 29.875,32.275 29.725,32.875L29.275,34.375C28.825,35.725 27.025,35.725 26.575,34.375L26.125,32.875C25.975,32.275 25.375,31.975 24.925,32.125L23.425,32.425C22.075,32.725 21.175,31.075 22.075,30.025L23.125,28.825C23.575,28.375 23.575,27.775 23.125,27.325L22.075,26.125C21.175,25.075 22.075,23.425 23.425,23.725L24.925,24.025C25.525,24.175 25.975,23.875 26.125,23.275L26.575,21.775C27.025,20.425 28.975,20.425 29.275,21.775Z" style="fill:none;stroke:rgb(44,44,44);stroke-width:2px;"/>
                    </g>
                </g>
            </g>
        </g>
    </g>
</svg>
