<?xml version="1.0" encoding="UTF-8" standalone="no"?>
<!DOCTYPE svg PUBLIC "-//W3C//DTD SVG 1.1//EN" "http://www.w3.org/Graphics/SVG/1.1/DTD/svg11.dtd">
<svg width="100%" height="100%" viewBox="0 0 708 918" version="1.1" xmlns="http://www.w3.org/2000/svg" xmlns:xlink="http://www.w3.org/1999/xlink" xml:space="preserve" xmlns:serif="http://www.serif.com/" style="fill-rule:evenodd;clip-rule:evenodd;stroke-linecap:round;stroke-linejoin:round;">
    <g id="items" transform="matrix(1.09586,0,0,1.09586,-33.9587,-44.5668)">
        <g id="blend">
            <g id="g-root-cp_1_shape-1_vb40n411ii9zb-fill" transform="matrix(1,0,0,1,35.5,55.8164)">
                <g id="cp_1_shape-1_vb40n411ii9zb-fill">
                    <g>
                        <path d="M214,340.184L46,340.183C26.118,340.183 10,324.081 10,304.199L10,304.184L250,304.184C250,324.066 233.882,340.184 214,340.184ZM254.6,28.375L250,28.375L250,160.184L10,160.184C10,140.302 26.118,124.505 46,124.505L172,124.505C213.07,124.505 238,94.374 238,55.034L238,28.374L233.32,28.374C232.54,28.374 232.05,27.524 232.44,26.844L243.163,10.632C243.559,10.033 244.439,10.034 244.833,10.635L255.48,26.844C255.88,27.525 255.39,28.375 254.6,28.375ZM250,160.184L250,304.184L10,304.184L10,160.184L250,160.184Z" style="fill:rgb(251,103,98);"/>
                    </g>
                </g>
            </g>
            <g id="g-root-cp_3_shape-3_qvaiio11iiarl-fill" transform="matrix(1,0,0,1,35,350)">
                <g id="cp_3_shape-3_qvaiio11iiarl-fill">
                    <g>
                        <path d="M214,64.321C244,64.321 268,46 268,10L280,10L280,100.306L10,100.306C10,80.423 26.118,64.321 46,64.321L214,64.321Z" style="fill:rgb(247,148,56);"/>
                    </g>
                </g>
            </g>
            <g id="g-root-cp_3_shape-3_1_dkgh8g11ii96r-fill" transform="matrix(1,0,0,1,287.303,56)">
                <g id="cp_3_shape-3_1_dkgh8g11ii96r-fill">
                    <g>
                        <path d="M27.697,304L15.697,304L15.697,160L27.697,160L27.697,304ZM32.297,28.191L27.697,28.191L27.697,160L15.697,160L15.697,28.191L11.017,28.191C10.237,28.191 9.747,27.341 10.137,26.661L20.86,10.448C21.256,9.849 22.136,9.851 22.53,10.451L33.177,26.661C33.577,27.341 33.087,28.191 32.297,28.191Z" style="fill:rgb(247,148,56);"/>
                    </g>
                </g>
            </g>
            <g id="g-root-cp_5_shape-5_8zyv411iiarp-fill" transform="matrix(1,0,0,1,317.303,56)">
                <g id="cp_5_shape-5_8zyv411iiarp-fill">
                    <g>
                        <path d="M27.697,304L15.697,304L15.697,160L27.697,160L27.697,304ZM32.297,28.191L27.697,28.191L27.697,160L15.697,160L15.697,28.191L11.017,28.191C10.237,28.191 9.747,27.341 10.137,26.661L20.86,10.448C21.256,9.849 22.136,9.851 22.53,10.451L33.177,26.661C33.577,27.341 33.087,28.191 32.297,28.191Z" style="fill:rgb(203,104,249);"/>
                    </g>
                </g>
            </g>
            <g id="g-root-cp_2_shape-2_1lz9zk011ii8zr-fill" transform="matrix(1,0,0,1,407.878,55.8164)">
                <g id="cp_2_shape-2_1lz9zk011ii8zr-fill">
                    <g>
                        <path d="M51.622,340.184L219.622,340.184C239.504,340.184 255.622,324.081 255.622,304.199L255.622,304.184L15.622,304.184C15.622,324.066 31.74,340.184 51.622,340.184ZM11.022,28.375L15.622,28.375L15.622,160.184L255.622,160.184C255.622,140.302 239.505,124.505 219.623,124.505L93.622,124.505C52.552,124.505 27.622,94.374 27.622,55.034L27.622,28.374L32.302,28.374C33.082,28.374 33.572,27.524 33.182,26.844L22.459,10.632C22.063,10.033 21.184,10.034 20.79,10.635L10.142,26.844C9.742,27.525 10.232,28.375 11.022,28.375ZM15.622,160.184L15.622,304.184L255.622,304.184L255.622,160.184L15.622,160.184Z" style="fill:rgb(67,221,147);"/>
                    </g>
                </g>
            </g>
            <g id="g-root-cp_4_shape-4_1hjghfk11ii9s1-fill" transform="matrix(1,0,0,1,383,350)">
                <g id="cp_4_shape-4_1hjghfk11ii9s1-fill">
                    <g>
                        <path d="M76,64.321C46,64.321 22,46 22,10L10,10L10,100.306L280,100.306C280,80.423 263.882,64.321 244,64.321L76,64.321Z" style="fill:rgb(255,231,17);"/>
                    </g>
                </g>
            </g>
            <g id="g-root-cp_4_shape-4_1_13ymurk11ijmrn-fill" transform="matrix(1,0,0,1,377.383,56)">
                <g id="cp_4_shape-4_1_13ymurk11ijmrn-fill">
                    <g>
                        <path d="M15.623,304L27.623,304L27.623,160L15.623,160L15.623,304ZM11.022,28.191L15.622,28.191L15.622,160L27.622,160L27.622,28.191L32.302,28.191C33.082,28.191 33.572,27.341 33.182,26.661L22.459,10.448C22.063,9.849 21.184,9.851 20.79,10.451L10.142,26.661C9.742,27.341 10.232,28.191 11.022,28.191Z" style="fill:rgb(255,231,17);"/>
                    </g>
                </g>
            </g>
            <g id="g-root-cp_6_shape-6_qn6ce811ijocl-fill" transform="matrix(1,0,0,1,347.383,56)">
                <g id="cp_6_shape-6_qn6ce811ijocl-fill">
                    <g>
                        <path d="M15.623,304L27.623,304L27.623,160L15.623,160L15.623,304ZM11.022,28.191L15.622,28.191L15.622,160L27.622,160L27.622,28.191L32.302,28.191C33.082,28.191 33.572,27.341 33.182,26.661L22.459,10.448C22.063,9.849 21.184,9.851 20.79,10.451L10.142,26.661C9.742,27.341 10.232,28.191 11.022,28.191Z" style="fill:rgb(243,102,187);"/>
                    </g>
                </g>
            </g>
            <g id="g-root-cp_3_shape-3_2_dccb4011ijmrr-fill" transform="matrix(1,0,0,1,35,440)">
                <g id="cp_3_shape-3_2_dccb4011ijmrr-fill">
                    <g>
                        <path d="M280,10L280,165.975L10,165.975L10,10L280,10ZM244,202.008L46,202.008C26.118,202.008 10,185.905 10,166.023L10,166.008L280,166.008C280,185.89 263.882,202.008 244,202.008Z" style="fill:rgb(247,148,56);"/>
                    </g>
                </g>
            </g>
            <g id="g-root-cp_5_shape-5_1_vsqo11ijocp-fill" transform="matrix(1,0,0,1,323,350)">
                <g id="cp_5_shape-5_1_vsqo11ijocp-fill">
                    <g>
                        <rect x="10" y="10" width="12" height="246" style="fill:rgb(203,104,249);"/>
                    </g>
                </g>
            </g>
            <g id="g-root-cp_5_shape-5_2_1um6clc11ijoxv-fill" transform="matrix(1,0,0,1,35,596)">
                <g id="cp_5_shape-5_2_1um6clc11ijoxv-fill">
                    <g>
                        <path d="M244,64.137C274,64.137 298,45.878 298,10L310,10L310,100L10,100C10,80.185 26.118,64.137 46,64.137L244,64.137Z" style="fill:rgb(203,104,249);"/>
                    </g>
                </g>
            </g>
            <g id="g-root-cp_4_shape-4_2_1hbcbb411ijnd1-fill" transform="matrix(1,0,0,1,383,440)">
                <g id="cp_4_shape-4_2_1hbcbb411ijnd1-fill">
                    <g>
                        <path d="M10,10L10,166L280,166L280,10L10,10ZM46,202L244,202C263.882,202 280,185.898 280,166.016L280,166L10,166C10,185.882 26.118,202 46,202Z" style="fill:rgb(255,231,17);"/>
                    </g>
                </g>
            </g>
            <g id="g-root-cp_6_shape-6_1_13zvsxs11ijoxz-fill" transform="matrix(1,0,0,1,353,350)">
                <g id="cp_6_shape-6_1_13zvsxs11ijoxz-fill">
                    <g>
                        <rect x="10" y="10" width="12" height="246" style="fill:rgb(243,102,187);"/>
                    </g>
                </g>
            </g>
            <g id="g-root-cp_6_shape-6_2_zk2atc11ijpq9-fill" transform="matrix(1,0,0,1,353,596)">
                <g id="cp_6_shape-6_2_zk2atc11ijpq9-fill">
                    <g>
                        <path d="M76,64.321C46,64.321 22,46 22,10L10,10L10,100.306L310,100.306C310,80.423 293.882,64.321 274,64.321L76,64.321Z" style="fill:rgb(243,102,187);"/>
                    </g>
                </g>
            </g>
            <g id="g-root-cp_5_shape-5_3_m989j411ijo5f-fill" transform="matrix(1,0,0,1,35,686)">
                <g id="cp_5_shape-5_3_m989j411ijo5f-fill">
                    <g>
                        <path d="M310,10L310,142L10,142L10,10L310,10ZM274,178.008L46,178.008C26.118,178.008 10,161.882 10,142L310,142C310,161.882 293.882,178.008 274,178.008Z" style="fill:rgb(203,104,249);"/>
                    </g>
                </g>
            </g>
            <g id="g-root-cp_6_shape-6_3_8xrr5s11ijpqd-fill" transform="matrix(1,0,0,1,353,686)">
                <g id="cp_6_shape-6_3_8xrr5s11ijpqd-fill">
                    <g>
                        <path d="M10,10L10,142L310,142L310,10L10,10ZM46,178L274,178C293.882,178 310,161.898 310,142.016L310,142L10,142C10,161.882 26.118,178 46,178Z" style="fill:rgb(243,102,187);"/>
                    </g>
                </g>
            </g>
            <g id="g-root-tx_telemark_quo1fk11imivj-fill" transform="matrix(1,0,0,1,98,488)">
                <g id="tx_telemark_quo1fk11imivj-fill">
                    <g>
                        <g>
                            <g transform="matrix(1,0,0,1,14.65,34)">
                                <text x="0px" y="0px" style="font-family:'Arial-BoldMT', 'Arial', sans-serif;font-weight:700;font-size:20px;fill:rgb(44,44,44);">T<tspan x="10.732px 21.855px " y="0px 0px ">el</tspan>emarketing</text>
                            </g>
                            <g transform="matrix(1,0,0,1,37.68,58)">
                                <text x="0px" y="0px" style="font-family:'Arial-BoldMT', 'Arial', sans-serif;font-weight:700;font-size:20px;fill:rgb(44,44,44);">Agencies</text>
                            </g>
                        </g>
                    </g>
                </g>
            </g>
            <g transform="matrix(1,0,0,1,483.39,522)">
                <g id="g-root-tx_educatio_dl2ybk11inwui-fill">
                    <g id="tx_educatio_dl2ybk11inwui-fill">
                        <g>
                            <g>
                                <text x="0px" y="0px" style="font-family:'Arial-BoldMT', 'Arial', sans-serif;font-weight:700;font-size:20px;fill:rgb(44,44,44);">Education</text>
                            </g>
                        </g>
                    </g>
                </g>
            </g>
            <g id="g-root-tx_facilita_18f2tz411ip9mz-fill" transform="matrix(1,0,0,1,410,524)">
                <g id="tx_facilita_18f2tz411ip9mz-fill">
                    <g>
                        <g>
                            <g transform="matrix(1,0,0,1,51.86,31.2)">
                                <g transform="matrix(15,0,0,15,80.0317,0)">
                                </g>
                                <g transform="matrix(15,0,0,15,84.0381,0)">
                                </g>
                                <text x="0px" y="0px" style="font-family:'ArialMT', 'Arial', sans-serif;font-size:15px;fill:rgb(44,44,44);">Facilitates eﬀective</text>
                            </g>
                            <g transform="matrix(1,0,0,1,16.11,49.2)">
                                <text x="0px" y="0px" style="font-family:'ArialMT', 'Arial', sans-serif;font-size:15px;fill:rgb(44,44,44);">communication in educational</text>
                            </g>
                            <g transform="matrix(1,0,0,1,77.64,67.2)">
                                <text x="0px" y="0px" style="font-family:'ArialMT', 'Arial', sans-serif;font-size:15px;fill:rgb(44,44,44);">institutions.</text>
                            </g>
                        </g>
                    </g>
                </g>
            </g>
            <g id="g-root-tx_boostste_1hiu0cg11imhvs-fill" transform="matrix(1,0,0,1,62,548)">
                <g id="tx_boostste_1hiu0cg11imhvs-fill">
                    <g>
                        <g>
                            <g transform="matrix(1,0,0,1,16.26,31.2)">
                                <text x="0px" y="0px" style="font-family:'ArialMT', 'Arial', sans-serif;font-size:15px;fill:rgb(44,44,44);">Boosts telemarketing success</text>
                            </g>
                            <g transform="matrix(1,0,0,1,21.69,49.2)">
                                <text x="0px" y="0px" style="font-family:'ArialMT', 'Arial', sans-serif;font-size:15px;fill:rgb(44,44,44);">with tailored communication</text>
                            </g>
                            <g transform="matrix(1,0,0,1,84.09,67.2)">
                                <text x="0px" y="0px" style="font-family:'ArialMT', 'Arial', sans-serif;font-size:15px;fill:rgb(44,44,44);">solutions.</text>
                            </g>
                        </g>
                    </g>
                </g>
            </g>
            <g id="g-root-tx_enhances_hyek3k11is555-fill" transform="matrix(1,0,0,1,389,770)">
                <g id="tx_enhances_hyek3k11is555-fill">
                    <g>
                        <g>
                            <g transform="matrix(1,0,0,1,12.45,28.2)">
                                <text x="0px" y="0px" style="font-family:'ArialMT', 'Arial', sans-serif;font-size:15px;fill:rgb(44,44,44);">Enhances e-commerce customer</text>
                            </g>
                            <g transform="matrix(1,0,0,1,36.38,46.2)">
                                <text x="0px" y="0px" style="font-family:'ArialMT', 'Arial', sans-serif;font-size:15px;fill:rgb(44,44,44);">engagement and support.</text>
                            </g>
                        </g>
                    </g>
                </g>
            </g>
            <g id="g-root-tx_improves_hwj4u811il2q5-fill" transform="matrix(1,0,0,1,461,290)">
                <g id="tx_improves_hwj4u811il2q5-fill">
                    <g>
                        <g>
                            <g transform="matrix(1,0,0,1,24.19,28.2)">
                                <text x="0px" y="0px" style="font-family:'ArialMT', 'Arial', sans-serif;font-size:15px;fill:rgb(44,44,44);">Improves patient</text>
                            </g>
                            <g transform="matrix(1,0,0,1,13.68,46.2)">
                                <text x="0px" y="0px" style="font-family:'ArialMT', 'Arial', sans-serif;font-size:15px;fill:rgb(44,44,44);">communication and</text>
                            </g>
                            <g transform="matrix(1,0,0,1,19.41,64.2)">
                                <text x="0px" y="0px" style="font-family:'ArialMT', 'Arial', sans-serif;font-size:15px;fill:rgb(44,44,44);">healthcare service</text>
                            </g>
                            <g transform="matrix(1,0,0,1,52.97,82.2)">
                                <text x="0px" y="0px" style="font-family:'ArialMT', 'Arial', sans-serif;font-size:15px;fill:rgb(44,44,44);">delivery<tspan x="50.574px " y="0px ">.</tspan></text>
                            </g>
                        </g>
                    </g>
                </g>
            </g>
            <g id="g-root-tx_enhances_1upx74011ijmyp-fill" transform="matrix(1,0,0,1,65.5,290)">
                <g id="tx_enhances_1upx74011ijmyp-fill">
                    <g>
                        <g>
                            <g transform="matrix(1,0,0,1,29.22,31.2)">
                                <text x="0px" y="0px" style="font-family:'ArialMT', 'Arial', sans-serif;font-size:15px;fill:rgb(44,44,44);">Enhances call center</text>
                            </g>
                            <g transform="matrix(1,0,0,1,16.42,49.2)">
                                <g transform="matrix(15,0,0,15,8.34229,0)">
                                </g>
                                <g transform="matrix(15,0,0,15,12.3763,0)">
                                </g>
                                <g transform="matrix(15,0,0,15,16.4104,0)">
                                </g>
                                <text x="0px" y="0px" style="font-family:'ArialMT', 'Arial', sans-serif;font-size:15px;fill:rgb(44,44,44);">eﬃciency with advanced</text>
                            </g>
                            <g transform="matrix(1,0,0,1,25.53,67.2)">
                                <text x="0px" y="0px" style="font-family:'ArialMT', 'Arial', sans-serif;font-size:15px;fill:rgb(44,44,44);">communication tools.</text>
                            </g>
                        </g>
                    </g>
                </g>
            </g>
            <g transform="matrix(1,0,0,1,110.7,288)">
                <g id="g-root-tx_callcent_qqapts11ijpjc-fill">
                    <g id="tx_callcent_qqapts11ijpjc-fill">
                        <g>
                            <g>
                                <text x="0px" y="0px" style="font-family:'Arial-BoldMT', 'Arial', sans-serif;font-weight:700;font-size:20px;fill:rgb(44,44,44);">Call Centers</text>
                            </g>
                        </g>
                    </g>
                </g>
            </g>
            <g transform="matrix(1,0,0,1,111.48,768)">
                <g id="g-root-tx_financeb_1lrsaio11iqnlx-fill">
                    <g id="tx_financeb_1lrsaio11iqnlx-fill">
                        <g>
                            <g>
                                <text x="0px" y="0px" style="font-family:'Arial-BoldMT', 'Arial', sans-serif;font-weight:700;font-size:20px;fill:rgb(44,44,44);">Finance &amp; Banking</text>
                            </g>
                        </g>
                    </g>
                </g>
            </g>
            <g transform="matrix(1,0,0,1,455.69,768)">
                <g id="g-root-tx_ecommerc_6i2io11is26g-fill">
                    <g id="tx_ecommerc_6i2io11is26g-fill">
                        <g>
                            <g>
                                <text x="0px" y="0px" style="font-family:'Arial-BoldMT', 'Arial', sans-serif;font-weight:700;font-size:20px;fill:rgb(44,44,44);">E-commerce</text>
                            </g>
                        </g>
                    </g>
                </g>
            </g>
            <g id="g-root-tx_streamli_1q8uqtc11iqozq-fill" transform="matrix(1,0,0,1,77,770)">
                <g id="tx_streamli_1q8uqtc11iqozq-fill">
                    <g>
                        <g>
                            <g transform="matrix(1,0,0,1,46.45,31.2)">
                                <g transform="matrix(15,0,0,15,83.3643,0)">
                                </g>
                                <g transform="matrix(15,0,0,15,87.5317,0)">
                                </g>
                                <text x="0px" y="0px" style="font-family:'ArialMT', 'Arial', sans-serif;font-size:15px;fill:rgb(44,44,44);">Streamlines ﬁnancial</text>
                            </g>
                            <g transform="matrix(1,0,0,1,16.13,49.2)">
                                <text x="0px" y="0px" style="font-family:'ArialMT', 'Arial', sans-serif;font-size:15px;fill:rgb(44,44,44);">communication and customer</text>
                            </g>
                            <g transform="matrix(1,0,0,1,90.35,67.2)">
                                <text x="0px" y="0px" style="font-family:'ArialMT', 'Arial', sans-serif;font-size:15px;fill:rgb(44,44,44);">service.</text>
                            </g>
                        </g>
                    </g>
                </g>
            </g>
            <g transform="matrix(1,0,0,1,494.03,288)">
                <g id="g-root-tx_healthca_1hegoqo11il1xg-fill">
                    <g id="tx_healthca_1hegoqo11il1xg-fill">
                        <g>
                            <g>
                                <text x="0px" y="0px" style="font-family:'Arial-BoldMT', 'Arial', sans-serif;font-weight:700;font-size:20px;fill:rgb(44,44,44);">Healthcare</text>
                            </g>
                        </g>
                    </g>
                </g>
            </g>
            <g id="g-root-cp_1_shape-1_vb40n411ii9zb-stroke" transform="matrix(1,0,0,1,35.5,55.8164)">
                <g id="cp_1_shape-1_vb40n411ii9zb-stroke">
                    <g>
                        <path d="M10,160.184C10,140.301 26.118,124.321 46,124.321L172,124.321C213.07,124.321 238,94.191 238,54.851L238,28.191L233.32,28.191C232.54,28.191 232.05,27.341 232.44,26.661L243.163,10.448C243.559,9.849 244.439,9.851 244.833,10.451L255.48,26.661C255.88,27.341 255.39,28.191 254.6,28.191L250,28.191L250,160.184M250,304.184C250,324.066 233.882,340.191 214,340.191L46,340.191C26.118,340.191 10,324.081 10,304.199L10,304.184M250,304.184L250,160.184M10,160.184L10,304.184" style="fill:none;stroke:rgb(44,44,44);stroke-width:2px;"/>
                    </g>
                </g>
            </g>
            <g id="g-root-cp_3_shape-3_qvaiio11iiarl-stroke" transform="matrix(1,0,0,1,35,350)">
                <g id="cp_3_shape-3_qvaiio11iiarl-stroke">
                    <g>
                        <path d="M268,10C268,46 244,64.321 214,64.321L46,64.321C26.118,64.321 10,80.423 10,100.306M280,100.306L280,10" style="fill:none;stroke:rgb(44,44,44);stroke-width:2px;"/>
                    </g>
                </g>
            </g>
            <g id="g-root-cp_3_shape-3_1_dkgh8g11ii96r-stroke" transform="matrix(1,0,0,1,287.303,56)">
                <g id="cp_3_shape-3_1_dkgh8g11ii96r-stroke">
                    <g>
                        <path d="M15.697,160L15.697,304M27.697,304L27.697,160M15.697,160L15.697,28.191L11.017,28.191C10.237,28.191 9.747,27.341 10.137,26.661L20.86,10.448C21.256,9.849 22.136,9.851 22.53,10.451L33.177,26.661C33.577,27.341 33.087,28.191 32.297,28.191L27.697,28.191L27.697,160" style="fill:none;stroke:rgb(44,44,44);stroke-width:2px;"/>
                    </g>
                </g>
            </g>
            <g id="g-root-cp_5_shape-5_8zyv411iiarp-stroke" transform="matrix(1,0,0,1,317.303,56)">
                <g id="cp_5_shape-5_8zyv411iiarp-stroke">
                    <g>
                        <path d="M15.697,160L15.697,304M27.697,304L27.697,160M15.697,160L15.697,28.191L11.017,28.191C10.237,28.191 9.747,27.341 10.137,26.661L20.86,10.448C21.256,9.849 22.136,9.851 22.53,10.451L33.177,26.661C33.577,27.341 33.087,28.191 32.297,28.191L27.697,28.191L27.697,160" style="fill:none;stroke:rgb(44,44,44);stroke-width:2px;"/>
                    </g>
                </g>
            </g>
            <g id="g-root-cp_2_shape-2_1lz9zk011ii8zr-stroke" transform="matrix(1,0,0,1,407.878,55.8164)">
                <g id="cp_2_shape-2_1lz9zk011ii8zr-stroke">
                    <g>
                        <path d="M255.622,160.184C255.622,140.301 239.505,124.321 219.623,124.321L93.622,124.321C52.552,124.321 27.622,94.191 27.622,54.851L27.622,28.191L32.302,28.191C33.082,28.191 33.572,27.341 33.182,26.661L22.459,10.448C22.063,9.849 21.184,9.851 20.79,10.451L10.142,26.661C9.742,27.341 10.232,28.191 11.022,28.191L15.622,28.191L15.622,160.184M15.622,304.184C15.622,324.066 31.74,340.184 51.622,340.184L219.623,340.183C239.505,340.183 255.622,324.081 255.622,304.199L255.622,304.184M15.622,304.184L15.622,160.184M255.622,160.184L255.622,304.184" style="fill:none;stroke:rgb(44,44,44);stroke-width:2px;"/>
                    </g>
                </g>
            </g>
            <g id="g-root-cp_4_shape-4_1hjghfk11ii9s1-stroke" transform="matrix(1,0,0,1,383,350)">
                <g id="cp_4_shape-4_1hjghfk11ii9s1-stroke">
                    <g>
                        <path d="M22,10C22,46 46,64.321 76,64.321L244,64.321C263.882,64.321 280,80.423 280,100.306M10,100.306L10,10" style="fill:none;stroke:rgb(44,44,44);stroke-width:2px;"/>
                    </g>
                </g>
            </g>
            <g id="g-root-cp_4_shape-4_1_13ymurk11ijmrn-stroke" transform="matrix(1,0,0,1,377.383,56)">
                <g id="cp_4_shape-4_1_13ymurk11ijmrn-stroke">
                    <g>
                        <path d="M27.622,160L27.622,304M15.622,304L15.622,160M27.622,160L27.622,28.191L32.302,28.191C33.082,28.191 33.572,27.341 33.182,26.661L22.459,10.448C22.063,9.849 21.184,9.851 20.79,10.451L10.142,26.661C9.742,27.341 10.232,28.191 11.022,28.191L15.622,28.191L15.622,160" style="fill:none;stroke:rgb(44,44,44);stroke-width:2px;"/>
                    </g>
                </g>
            </g>
            <g id="g-root-cp_6_shape-6_qn6ce811ijocl-stroke" transform="matrix(1,0,0,1,347.383,56)">
                <g id="cp_6_shape-6_qn6ce811ijocl-stroke">
                    <g>
                        <path d="M27.622,160L27.622,304M15.622,304L15.622,160M27.622,160L27.622,28.191L32.302,28.191C33.082,28.191 33.572,27.341 33.182,26.661L22.459,10.448C22.063,9.849 21.184,9.851 20.79,10.451L10.142,26.661C9.742,27.341 10.232,28.191 11.022,28.191L15.622,28.191L15.622,160" style="fill:none;stroke:rgb(44,44,44);stroke-width:2px;"/>
                    </g>
                </g>
            </g>
            <g id="g-root-cp_3_shape-3_2_dccb4011ijmrr-stroke" transform="matrix(1,0,0,1,35,440)">
                <g id="cp_3_shape-3_2_dccb4011ijmrr-stroke">
                    <g>
                        <path d="M280,165.975L280,10M10,10L10,166M280,166.008C280,185.89 263.882,202.008 244,202.008L46,202.008C26.118,202.008 10,185.905 10,166.023L10,166.008" style="fill:none;stroke:rgb(44,44,44);stroke-width:2px;"/>
                    </g>
                </g>
            </g>
            <g id="g-root-cp_5_shape-5_1_vsqo11ijocp-stroke" transform="matrix(1,0,0,1,323,350)">
                <g id="cp_5_shape-5_1_vsqo11ijocp-stroke">
                    <g>
                        <path d="M10,10L10,256M22,256L22,10" style="fill:none;stroke:rgb(44,44,44);stroke-width:2px;"/>
                    </g>
                </g>
            </g>
            <g id="g-root-cp_5_shape-5_2_1um6clc11ijoxv-stroke" transform="matrix(1,0,0,1,35,596)">
                <g id="cp_5_shape-5_2_1um6clc11ijoxv-stroke">
                    <g>
                        <path d="M298,10C298,45.878 274,64.137 244,64.137L46,64.137C26.118,64.137 10,80.185 10,100M310,100L310,10" style="fill:none;stroke:rgb(44,44,44);stroke-width:2px;"/>
                    </g>
                </g>
            </g>
            <g id="g-root-cp_4_shape-4_2_1hbcbb411ijnd1-stroke" transform="matrix(1,0,0,1,383,440)">
                <g id="cp_4_shape-4_2_1hbcbb411ijnd1-stroke">
                    <g>
                        <path d="M10,166L10,10M280,10L280,166M10,166C10,185.882 26.118,202.008 46,202.008L244,202.008C263.882,202.008 280,185.898 280,166.016L280,166" style="fill:none;stroke:rgb(44,44,44);stroke-width:2px;"/>
                    </g>
                </g>
            </g>
            <g id="g-root-cp_6_shape-6_1_13zvsxs11ijoxz-stroke" transform="matrix(1,0,0,1,353,350)">
                <g id="cp_6_shape-6_1_13zvsxs11ijoxz-stroke">
                    <g>
                        <path d="M22,10L22,256M10,256L10,10" style="fill:none;stroke:rgb(44,44,44);stroke-width:2px;"/>
                    </g>
                </g>
            </g>
            <g id="g-root-cp_6_shape-6_2_zk2atc11ijpq9-stroke" transform="matrix(1,0,0,1,353,596)">
                <g id="cp_6_shape-6_2_zk2atc11ijpq9-stroke">
                    <g>
                        <path d="M22,10C22,46 46,64.321 76,64.321L274,64.321C293.882,64.321 310,80.423 310,100.306M10,100.306L10,10" style="fill:none;stroke:rgb(44,44,44);stroke-width:2px;"/>
                    </g>
                </g>
            </g>
            <g id="g-root-cp_5_shape-5_3_m989j411ijo5f-stroke" transform="matrix(1,0,0,1,35,686)">
                <g id="cp_5_shape-5_3_m989j411ijo5f-stroke">
                    <g>
                        <path d="M310,142L310,10M10,10L10,142M310,142C310,161.882 293.882,178.008 274,178.008L46,178.008C26.118,178.008 10,161.882 10,142" style="fill:none;stroke:rgb(44,44,44);stroke-width:2px;"/>
                    </g>
                </g>
            </g>
            <g id="g-root-cp_6_shape-6_3_8xrr5s11ijpqd-stroke" transform="matrix(1,0,0,1,353,686)">
                <g id="cp_6_shape-6_3_8xrr5s11ijpqd-stroke">
                    <g>
                        <path d="M10,142L10,10M310,10L310,142M10,142C10,161.882 26.118,178.008 46,178.008L274,178.008C293.882,178.008 310,161.898 310,142.016L310,142" style="fill:none;stroke:rgb(44,44,44);stroke-width:2px;"/>
                    </g>
                </g>
            </g>
            <g id="g-root-ic_head_143mngg11ijmyq-stroke" transform="matrix(1,0,0,1,131.5,194)">
                <g id="ic_head_143mngg11ijmyq-stroke">
                    <g>
                        <path d="M51.906,35.044C51.031,39.444 48.293,43.25 44.4,45.48L44.4,57M24.4,57L24.4,50.046C20.4,50.068 18.364,49.78 16.962,48.376C15.162,46.576 15.336,39 15.336,39C15.336,39 13.63,39.064 12.336,39.012C11.884,38.99 11.467,38.765 11.2,38.4C11.018,38.007 10.949,37.57 11,37.14C10.756,33.926 15.278,28.414 15.278,26.812C15.278,16.75 24.78,11 33.4,11C42.789,10.897 50.807,17.752 52.166,27.042M30.082,31.042C30.082,34.615 32.979,37.512 36.552,37.512C40.125,37.512 43.022,34.615 43.022,31.042C43.022,27.469 40.125,24.572 36.552,24.572C32.979,24.572 30.082,27.469 30.082,31.042M33.822,36.908L31.702,40.2C30.966,41.344 29.699,42.036 28.338,42.036L26.522,42.036M41.634,27.042L55.022,27.042C56.127,27.042 57.022,27.937 57.022,29.042L57.022,33.042C57.022,34.147 56.127,35.042 55.022,35.042L41.634,35.042M22.022,42.042C22.022,43.285 23.029,44.292 24.272,44.292C25.515,44.292 26.522,43.285 26.522,42.042C26.522,40.799 25.515,39.792 24.272,39.792C23.029,39.792 22.022,40.799 22.022,42.042M43.022,31.042L52.172,31.042" style="fill:none;stroke:rgb(44,44,44);stroke-width:2px;"/>
                    </g>
                </g>
            </g>
            <g id="g-root-ic_pick_dbpu0w11inuvd-stroke" transform="matrix(1,0,0,1,146,428)">
                <g id="ic_pick_dbpu0w11inuvd-stroke">
                    <g>
                        <path d="M47.164,39.562C49.216,39.734 50.793,41.453 50.788,43.512C50.783,45.572 49.197,47.282 47.144,47.444M54.378,56.744C52.974,54.025 50.234,52.254 47.178,52.092M27.802,41.8C27.801,45.497 30.799,48.495 34.496,48.495C38.193,48.495 41.191,45.497 41.19,41.8C41.191,38.103 38.193,35.105 34.496,35.105C30.799,35.105 27.801,38.103 27.802,41.8M24.234,57C25.782,52.745 29.795,49.887 34.322,49.815C38.85,49.743 42.952,52.472 44.634,56.676M20.836,39.562C18.784,39.734 17.207,41.453 17.212,43.512C17.217,45.572 18.803,47.282 20.856,47.444M13.622,56.744C15.026,54.025 17.766,52.254 20.822,52.092M30.232,20.156C30.232,22.477 32.113,24.358 34.434,24.358C36.755,24.358 38.636,22.477 38.636,20.156C38.636,17.835 36.755,15.954 34.434,15.954C32.113,15.954 30.232,17.835 30.232,20.156M30.482,21.588L23.872,27.67L27.124,32.39M38.386,21.588L44.998,27.67L41.744,32.39M34.434,15.954L34.434,11" style="fill:none;stroke:rgb(44,44,44);stroke-width:2px;"/>
                    </g>
                </g>
            </g>
            <g id="g-root-ic_chat_1czw4sg11il43y-stroke" transform="matrix(1,0,0,1,509.5,194)">
                <g id="ic_chat_1czw4sg11il43y-stroke">
                    <g>
                        <path d="M22.576,42.927L11.739,46.702L15.164,34.982L15.164,15.228C15.164,14.32 15.524,13.449 16.167,12.806C16.809,12.164 17.68,11.803 18.588,11.803L45.465,11.803C46.373,11.803 47.244,12.164 47.886,12.806C48.529,13.449 48.889,14.32 48.889,15.228L48.889,33.092M24.593,33.04C24.593,31.169 25.336,29.375 26.659,28.052C27.982,26.729 29.777,25.985 31.648,25.985C33.519,25.985 35.313,26.729 36.637,28.052C37.96,29.375 38.703,31.169 38.703,33.04L24.593,33.04ZM31.648,25.985C33.981,25.985 35.872,24.094 35.872,21.762C35.872,19.429 33.981,17.538 31.648,17.538C29.315,17.538 27.424,19.429 27.424,21.762C27.424,24.094 29.315,25.985 31.648,25.985ZM46.436,38.055L28.917,38.055C27.769,38.055 26.839,38.986 26.839,40.134L26.839,54.683C26.839,55.831 27.769,56.762 28.917,56.762L46.436,56.762C47.584,56.762 48.515,55.831 48.515,54.683L48.515,40.134C48.515,38.986 47.584,38.055 46.436,38.055ZM48.515,50.525L55.425,53.117C55.583,53.175 55.752,53.195 55.918,53.175C56.085,53.154 56.244,53.093 56.382,52.998C56.52,52.902 56.633,52.774 56.71,52.626C56.788,52.477 56.829,52.312 56.829,52.144L56.829,42.671C56.829,42.504 56.788,42.339 56.71,42.19C56.632,42.042 56.519,41.914 56.381,41.819C56.243,41.724 56.084,41.663 55.918,41.643C55.751,41.622 55.582,41.642 55.425,41.701L48.515,44.293L48.515,50.525ZM35.299,42.008L39.809,42.008L39.809,45.153L43.078,45.153L43.078,49.664L39.809,49.664L39.809,52.81L35.299,52.81L35.299,49.664L32.276,49.664L32.276,45.153L35.299,45.153L35.299,42.008Z" style="fill:none;stroke:rgb(44,44,44);stroke-width:2px;"/>
                    </g>
                </g>
            </g>
            <g id="g-root-ic_woma_dcys7411ipaf8-stroke" transform="matrix(1,0,0,1,494,428)">
                <g id="ic_woma_dcys7411ipaf8-stroke">
                    <g>
                        <path d="M27.156,50.95C30.172,51.27 33.199,50.467 35.66,48.694C34.374,47.408 33.49,46.6 33.152,41.614C32.648,34.182 27.636,31.568 23.33,31.568C19.024,31.568 14.01,34.182 13.508,41.614C13.17,46.6 12.286,47.4 11,48.694C13.475,50.474 16.521,51.277 19.552,50.948M34.016,56C32.308,55.294 30.288,54.572 28.094,53.76C27.502,53.54 27.109,52.976 27.108,52.344L27.108,49.584C27.108,49.16 27.286,48.755 27.598,48.468C28.739,47.429 29.384,45.955 29.374,44.412L29.374,40.634C27.01,40.27 24.86,39.055 23.33,37.216C21.8,39.055 19.65,40.27 17.286,40.634L17.286,44.412C17.275,45.954 17.92,47.429 19.06,48.468C19.373,48.755 19.552,49.159 19.552,49.584L19.552,52.344C19.552,52.976 19.157,53.541 18.564,53.76C16.364,54.572 14.352,55.294 12.644,56M35.5,19.5C35.5,21.433 37.067,23 39,23C40.933,23 42.5,21.433 42.5,19.5C42.5,17.567 40.933,16 39,16C37.067,16 35.5,17.567 35.5,19.5ZM46,30C45.184,26.8 42.302,24.561 39,24.561C35.698,24.561 32.816,26.8 32,30M53,34L53,14C53,12.895 52.105,12 51,12L25,12C23.895,12 23,12.895 23,14L23,27M36,34L57,34C57,36.209 55.209,38 53,38L36,38" style="fill:none;stroke:rgb(44,44,44);stroke-width:2px;"/>
                    </g>
                </g>
            </g>
            <g id="g-root-ic_woma_4mn9c11iqpsf-stroke" transform="matrix(1,0,0,1,161,674)">
                <g id="ic_woma_4mn9c11iqpsf-stroke">
                    <g>
                        <path d="M55,33L46.5,33L39.812,38.35C39.661,38.471 39.453,38.494 39.279,38.408C39.105,38.322 38.996,38.144 39,37.95L39,33L35,33C33.895,33 33,32.105 33,31L33,13C33,11.895 33.895,11 35,11L55,11C56.105,11 57,11.895 57,13L57,31C57,32.105 56.105,33 55,33ZM44,14.002L44,16.002M44.008,28.002L44,30.002M49,19.002C49,20.659 47.657,22.002 46,22.002L41,22.002L41,16.002L46,16.002C47.657,16.002 49,17.345 49,19.002ZM49,25.002C49,26.659 47.657,28.002 46,28.002L41,28.002L41,22.002L46,22.002C47.657,22.002 49,23.345 49,25.002L49,25.002ZM35.2,40.2C34.597,39.209 34.154,38.129 33.888,37M14.814,40.2C15.93,38.364 16.486,36.24 16.414,34.092L16.414,31.6C16.367,30.442 16.555,29.287 16.966,28.204C18.251,24.877 21.44,22.675 25.006,22.652C26.396,22.652 27.774,22.992 29,23.636M16.418,33.012C19.721,33.011 22.86,31.573 25.018,29.072C26.085,30.307 27.406,31.298 28.89,31.978M17.438,32.966C17.611,36.502 20.207,39.448 23.693,40.063C27.179,40.678 30.628,38.799 32,35.536M11,57C11,49.268 17.268,43 25,43C32.732,43 39,49.268 39,57" style="fill:none;stroke:rgb(44,44,44);stroke-width:2px;"/>
                    </g>
                </g>
            </g>
            <g id="g-root-ic_cart_zqxirk11is4y2-stroke" transform="matrix(1,0,0,1,479,674)">
                <g id="ic_cart_zqxirk11is4y2-stroke">
                    <g>
                        <path d="M39,55C39,56.105 39.895,57 41,57C42.105,57 43,56.105 43,55C43,53.895 42.105,53 41,53C39.895,53 39,53.895 39,55ZM47,55C47,56.105 47.895,57 49,57C50.105,57 51,56.105 51,55C51,53.895 50.105,53 49,53C47.895,53 47,53.895 47,55ZM57,31L52.2,48.268C52.08,48.701 51.685,49 51.236,49L39.72,49C39.29,49 38.908,48.724 38.772,48.316L35.438,38.316C35.336,38.011 35.388,37.675 35.576,37.415C35.764,37.154 36.066,37 36.388,37L55.334,37M31.364,29.384C33.736,29.649 36.13,29.13 38.18,27.906C38.422,27.762 38.589,27.52 38.638,27.244C38.687,26.967 38.613,26.682 38.436,26.464C37.62,25.502 37.052,24.226 36.802,20.53C36.324,13.48 31.57,11 27.484,11C23.398,11 18.644,13.48 18.168,20.53C17.918,24.224 17.35,25.502 16.534,26.464C16.357,26.682 16.283,26.967 16.332,27.244C16.381,27.52 16.548,27.762 16.79,27.906C18.838,29.128 21.23,29.647 23.6,29.384M35.036,33.06C34.176,32.734 33.26,32.396 32.298,32.04C31.741,31.833 31.369,31.303 31.364,30.708L31.364,28.09C31.362,27.71 31.52,27.347 31.8,27.09C32.841,26.242 33.403,24.939 33.304,23.6L33.304,19.728C31.024,19.336 28.959,18.14 27.484,16.358C26.01,18.141 23.946,19.336 21.666,19.728L21.666,23.6C21.569,24.937 22.131,26.237 23.17,27.084C23.45,27.341 23.608,27.704 23.606,28.084L23.606,30.702C23.601,31.297 23.229,31.827 22.672,32.034C17.354,34.004 13.446,35.406 12.434,37.434C11.57,39.168 11.081,41.064 11,43L33,43" style="fill:none;stroke:rgb(44,44,44);stroke-width:2px;"/>
                    </g>
                </g>
            </g>
        </g>
    </g>
</svg>
