<?xml version="1.0" encoding="UTF-8" standalone="no"?>
<!DOCTYPE svg PUBLIC "-//W3C//DTD SVG 1.1//EN" "http://www.w3.org/Graphics/SVG/1.1/DTD/svg11.dtd">
<svg width="100%" height="100%" viewBox="0 0 576 614" version="1.1" xmlns="http://www.w3.org/2000/svg" xmlns:xlink="http://www.w3.org/1999/xlink" xml:space="preserve" xmlns:serif="http://www.serif.com/" style="fill-rule:evenodd;clip-rule:evenodd;stroke-linecap:round;stroke-linejoin:round;">
    <g id="items" transform="matrix(1.12067,0,0,1.12067,-34.7529,-47.6143)">
        <g id="blend">
            <g id="g-root-cp_5_text-5_de6yljoh8dmz-fill" transform="matrix(1,0,0,1,50,50)">
                <g id="cp_5_text-5_de6yljoh8dmz-fill">
                    <g>
                        <rect x="10" y="10" width="228" height="156" style="fill:rgb(26,195,251);"/>
                    </g>
                </g>
            </g>
            <g id="g-root-cp_5_stick-5_18hjyjroh8f0t-fill" transform="matrix(1,0,0,1,266,206)">
                <g id="cp_5_stick-5_18hjyjroh8f0t-fill">
                    <g>
                        <rect x="10" y="10" width="12" height="288" style="fill:rgb(26,195,251);"/>
                    </g>
                </g>
            </g>
            <g id="g-root-cp_3_text-3_hv9ew7oh8f0v-fill" transform="matrix(1,0,0,1,38,206)">
                <g id="cp_3_text-3_hv9ew7oh8f0v-fill">
                    <g>
                        <rect x="10" y="10" width="228" height="132" style="fill:rgb(247,148,56);"/>
                    </g>
                </g>
            </g>
            <g id="g-root-cp_3_stick-3_1luvw6foh8cg9-fill" transform="matrix(1,0,0,1,254,338)">
                <g id="cp_3_stick-3_1luvw6foh8cg9-fill">
                    <g>
                        <rect x="10" y="10" width="12" height="156" style="fill:rgb(247,148,56);"/>
                    </g>
                </g>
            </g>
            <g id="g-root-cp_1_text-1_143lvonoh8etf-fill" transform="matrix(1,0,0,1,26,338)">
                <g id="cp_1_text-1_143lvonoh8etf-fill">
                    <g>
                        <rect x="10" y="10" width="228" height="120" style="fill:rgb(251,103,98);"/>
                    </g>
                </g>
            </g>
            <g id="g-root-cp_1_stick-1_dhbc13oh8eth-fill" transform="matrix(1,0,0,1,242,422)">
                <g id="cp_1_stick-1_dhbc13oh8eth-fill">
                    <g>
                        <rect x="10" y="10" width="12" height="72" style="fill:rgb(251,103,98);"/>
                    </g>
                </g>
            </g>
            <g id="g-root-cp_6_text-6_1d14b6voh8c9b-fill" transform="matrix(1,0,0,1,278,62)">
                <g id="cp_6_text-6_1d14b6voh8c9b-fill">
                    <g>
                        <rect x="10" y="10" width="228" height="120" style="fill:rgb(166,218,55);"/>
                    </g>
                </g>
            </g>
            <g id="g-root-cp_6_stick-6_v9uap3oh8emh-fill" transform="matrix(1,0,0,1,278,182)">
                <g id="cp_6_stick-6_v9uap3oh8emh-fill">
                    <g>
                        <rect x="10" y="10" width="12" height="312" style="fill:rgb(166,218,55);"/>
                    </g>
                </g>
            </g>
            <g id="g-root-cp_4_text-4_dj6rafoh8dtv-fill" transform="matrix(1,0,0,1,290,182)">
                <g id="cp_4_text-4_dj6rafoh8dtv-fill">
                    <g>
                        <rect x="10" y="10" width="228" height="144" style="fill:rgb(203,104,249);"/>
                    </g>
                </g>
            </g>
            <g id="g-root-cp_4_stick-4_1ly09lzoh8dmt-fill" transform="matrix(1,0,0,1,290,326)">
                <g id="cp_4_stick-4_1ly09lzoh8dmt-fill">
                    <g>
                        <rect x="10" y="10" width="12" height="168" style="fill:rgb(203,104,249);"/>
                    </g>
                </g>
            </g>
            <g id="g-root-cp_2_text-2_18n68broh8c1z-fill" transform="matrix(1,0,0,1,302,326)">
                <g id="cp_2_text-2_18n68broh8c1z-fill">
                    <g>
                        <rect x="10" y="10" width="228" height="120" style="fill:rgb(67,221,147);"/>
                    </g>
                </g>
            </g>
            <g id="g-root-cp_2_stick-2_i0voo7oh8c21-fill" transform="matrix(1,0,0,1,302,410)">
                <g id="cp_2_stick-2_i0voo7oh8c21-fill">
                    <g>
                        <rect x="10" y="10" width="12" height="84" style="fill:rgb(67,221,147);"/>
                    </g>
                </g>
            </g>
            <g id="g-root-cp_0_g-0_4pf6avoh8dmz-fill" transform="matrix(1,0,0,1,242,494)">
                <g id="cp_0_g-0_4pf6avoh8dmz-fill">
                    <g>
                        <path d="M33.994,61L46.01,86L58.005,61L33.994,61Z" style="fill:rgb(232,232,232);"/>
                    </g>
                </g>
                <g id="cp_0_g-0_4pf6avoh8dmz-fill1" serif:id="cp_0_g-0_4pf6avoh8dmz-fill">
                    <g>
                        <path d="M82,10L10,10L34,61L58.001,61L82,10Z" style="fill:rgb(232,232,232);"/>
                    </g>
                </g>
            </g>
            <g id="g-root-ic_inte_92qs2vohfdhj-fill" transform="matrix(1,0,0,1,290,74)">
                <g id="ic_inte_92qs2vohfdhj-fill">
                    <g>
                        <path d="M26.32,41.5L11.635,41.5L11.635,46L25.36,46C25.368,44.45 25.695,42.918 26.32,41.5ZM31.945,35.665C30.405,34.599 29.261,33.054 28.69,31.27L14.26,31.27C13.642,31.272 13.088,31.653 12.865,32.23L10.15,38.5C10.03,38.752 10.043,39.047 10.184,39.287C10.325,39.528 10.577,39.682 10.855,39.7L27.355,39.7C28.492,37.965 30.078,36.57 31.945,35.665L31.945,35.665ZM29.095,25C27.619,23.717 25.725,23.018 23.77,23.035C20.114,23.045 16.918,25.504 15.97,29.035L28.285,29.035C28.222,27.644 28.5,26.259 29.095,25ZM24.895,27.025C24.895,27.646 24.391,28.15 23.77,28.15C23.149,28.15 22.645,27.646 22.645,27.025L22.645,25.525C22.645,24.904 23.149,24.4 23.77,24.4C24.391,24.4 24.895,24.904 24.895,25.525L24.895,27.025ZM36.775,22.24C33.215,22.248 30.334,25.14 30.34,28.7C30.346,32.26 33.235,35.143 36.795,35.14C40.355,35.137 43.24,32.25 43.24,28.69C43.232,25.125 40.34,22.24 36.775,22.24ZM36.775,32.89C34.459,32.882 32.583,31.006 32.575,28.69C32.574,27.83 32.841,26.991 33.34,26.29C35.189,28.519 37.944,29.797 40.84,29.77C40.35,31.612 38.681,32.893 36.775,32.89ZM36.775,36.85C31.719,36.85 27.618,40.944 27.61,46L46,46C46,43.56 45.026,41.221 43.294,39.503C41.561,37.785 39.215,36.83 36.775,36.85ZM37.9,41.5C37.9,42.121 37.396,42.625 36.775,42.625C36.154,42.625 35.65,42.121 35.65,41.5L35.65,39.715C35.65,39.094 36.154,38.59 36.775,38.59C37.396,38.59 37.9,39.094 37.9,39.715L37.9,41.5ZM23.77,10C20.547,10 17.935,12.612 17.935,15.835C17.935,19.058 20.547,21.67 23.77,21.67C26.993,21.67 29.605,19.058 29.605,15.835C29.605,12.612 26.993,10 23.77,10ZM23.77,19.42C22.477,19.397 21.295,18.682 20.675,17.547C20.054,16.412 20.091,15.031 20.77,13.93C22.391,15.808 24.739,16.901 27.22,16.93C26.736,18.423 25.34,19.431 23.77,19.42Z" style="fill:rgb(244,244,244);"/>
                    </g>
                </g>
            </g>
            <g id="g-root-ic_vr_v7cecnohgsne-fill" transform="matrix(1,0,0,1,302,194)">
                <g id="ic_vr_v7cecnohgsne-fill">
                    <g>
                        <path d="M28.375,41.92C27.661,41.9 26.956,41.758 26.29,41.5L22,39.91C21.912,39.88 21.818,39.88 21.73,39.91L17.35,41.5C16.528,41.792 15.655,41.909 14.785,41.845C14.647,41.865 14.535,41.965 14.5,42.1C14.41,42.225 14.41,42.395 14.5,42.52C16.417,44.512 19.063,45.638 21.828,45.638C24.592,45.638 27.238,44.512 29.155,42.52C29.269,42.411 29.3,42.241 29.23,42.1C29.156,41.964 29.01,41.882 28.855,41.89L28.375,41.92ZM41.815,26.005C41.967,25.399 41.727,24.762 41.214,24.407C40.7,24.051 40.02,24.051 39.506,24.407C38.993,24.762 38.753,25.399 38.905,26.005C38.753,26.611 38.993,27.248 39.506,27.603C40.02,27.959 40.7,27.959 41.214,27.603C41.727,27.248 41.967,26.611 41.815,26.005ZM34.54,24.55C33.712,24.55 33.04,25.222 33.04,26.05C33.04,26.878 33.712,27.55 34.54,27.55C35.368,27.55 36.04,26.878 36.04,26.05C36.04,25.222 35.368,24.55 34.54,24.55ZM45.07,10.42C44.796,10.325 44.495,10.345 44.235,10.475C43.975,10.605 43.779,10.834 43.69,11.11L42.805,13.75C42.755,13.899 42.617,14.001 42.46,14.005L31.63,14.005C31.288,14.006 30.966,14.167 30.76,14.44C30.551,14.714 30.489,15.072 30.595,15.4L32.77,22.675C32.909,23.138 33.336,23.456 33.82,23.455L41.095,23.455C41.565,23.453 41.982,23.151 42.13,22.705C44.68,15.025 44.11,16.705 45.76,11.8C45.948,11.229 45.64,10.612 45.07,10.42ZM33.46,32.005C33.429,30.606 32.386,29.436 31,29.245C30.886,29.234 30.784,29.166 30.73,29.065C28.927,25.827 25.511,23.819 21.805,23.819C18.099,23.819 14.683,25.827 12.88,29.065C12.822,29.163 12.723,29.229 12.61,29.245C11.235,29.45 10.209,30.616 10.18,32.005L10.18,35.635C10.181,36.776 10.66,37.863 11.5,38.635L12.205,39.295C13.456,40.447 15.249,40.795 16.84,40.195L20.29,38.905C21.258,38.545 22.322,38.545 23.29,38.905L26.74,40.195C27.25,40.379 27.788,40.476 28.33,40.48C29.442,40.469 30.511,40.047 31.33,39.295L32.035,38.635C32.875,37.863 33.354,36.776 33.355,35.635L33.46,32.005ZM24.355,36.16C23.544,35.857 22.686,35.7 21.82,35.695C20.949,35.701 20.087,35.858 19.27,36.16L15.82,37.45C15.262,37.662 14.632,37.546 14.185,37.15L13.48,36.49C13.233,36.274 13.091,35.963 13.09,35.635L13.09,32.5C13.091,32.397 13.135,32.3 13.21,32.23C13.279,32.165 13.37,32.128 13.465,32.125L30.175,32.125C30.379,32.133 30.542,32.296 30.55,32.5L30.55,35.65C30.542,35.976 30.401,36.285 30.16,36.505L29.5,37.15C29.052,37.543 28.424,37.659 27.865,37.45L24.355,36.16ZM44.29,38.365L43.9,38.365C42.935,38.228 42.177,37.47 42.04,36.505L42.04,36.13C41.988,35.771 41.683,35.504 41.32,35.5C40.957,35.504 40.652,35.771 40.6,36.13L40.6,36.505C40.465,37.465 39.714,38.222 38.755,38.365L38.365,38.365C38.006,38.417 37.739,38.722 37.735,39.085C37.739,39.448 38.006,39.753 38.365,39.805L38.755,39.805C39.709,39.947 40.458,40.696 40.6,41.65L40.6,42.04C40.652,42.399 40.957,42.666 41.32,42.67C41.683,42.666 41.988,42.399 42.04,42.04L42.04,41.65C42.183,40.691 42.94,39.94 43.9,39.805L44.29,39.805C44.643,39.747 44.902,39.443 44.905,39.085C44.902,38.727 44.643,38.423 44.29,38.365ZM10.48,16.735C10.488,17.334 10.976,17.815 11.575,17.815C13.665,17.968 15.323,19.638 15.46,21.73C15.46,22.326 15.944,22.81 16.54,22.81C17.122,22.811 17.603,22.356 17.635,21.775C17.867,19.714 19.478,18.079 21.535,17.815C21.954,17.864 22.364,17.668 22.589,17.312C22.814,16.955 22.814,16.5 22.589,16.143C22.364,15.787 21.954,15.591 21.535,15.64C19.444,15.49 17.778,13.831 17.62,11.74C17.62,11.147 17.148,10.661 16.555,10.645C15.956,10.653 15.475,11.141 15.475,11.74C15.282,13.837 13.601,15.487 11.5,15.64C10.918,15.664 10.463,16.152 10.48,16.735Z" style="fill:rgb(244,244,244);"/>
                    </g>
                </g>
            </g>
            <g id="g-root-ic_5_13ym2zrohckck-fill" transform="matrix(1,0,0,1,218,218)">
                <g id="ic_5_13ym2zrohckck-fill">
                    <g>
                        <path d="M25,38.5L11.5,38.5C10.672,38.5 10,39.172 10,40C10,40.828 10.672,41.5 11.5,41.5L11.725,41.5L12.265,44.77C12.384,45.504 13.022,46.04 13.765,46.03L22.765,46.03C23.508,46.04 24.146,45.504 24.265,44.77L24.775,41.5L25,41.5C25.828,41.5 26.5,40.828 26.5,40C26.5,39.172 25.828,38.5 25,38.5ZM44.5,38.5L31,38.5C30.172,38.5 29.5,39.172 29.5,40C29.5,40.828 30.172,41.5 31,41.5L31.225,41.5L31.765,44.77C31.884,45.504 32.522,46.04 33.265,46.03L42.265,46.03C43.008,46.04 43.646,45.504 43.765,44.77L44.275,41.5L44.5,41.5C45.328,41.5 46,40.828 46,40C46,39.172 45.328,38.5 44.5,38.5ZM18.25,31.555C19.654,31.549 20.901,30.655 21.357,29.327C21.814,27.999 21.379,26.528 20.275,25.66L20.17,25.66L19.96,25.51C19.807,25.42 19.647,25.345 19.48,25.285L17.695,25.285L17.5,25C15.875,25.387 14.796,26.928 14.987,28.588C15.178,30.247 16.579,31.502 18.25,31.51L18.25,31.555ZM13.495,37L23.005,37C23.123,37 23.234,36.944 23.305,36.85C23.356,36.741 23.356,36.614 23.305,36.505C22.578,34.296 20.515,32.804 18.19,32.804C15.865,32.804 13.802,34.296 13.075,36.505C13.024,36.614 13.024,36.741 13.075,36.85C13.175,36.976 13.338,37.035 13.495,37ZM38.5,25L36.625,25C35.053,25.466 34.061,27.015 34.297,28.638C34.532,30.26 35.923,31.464 37.563,31.464C39.202,31.464 40.593,30.26 40.828,28.638C41.064,27.015 40.072,25.466 38.5,25L38.5,25ZM23.2,25.75L24.7,25.75L29.74,30.07C29.872,30.188 30.043,30.252 30.22,30.25C30.329,30.246 30.436,30.221 30.535,30.175C30.815,30.069 31.001,29.8 31,29.5L31,25.75L32.8,25.75C33.754,23.898 35.667,22.739 37.75,22.75C38,22.735 38.25,22.735 38.5,22.75L38.5,12.535C38.5,11.135 37.365,10 35.965,10L20.035,10C18.635,10 17.5,11.135 17.5,12.535L17.5,22.765C17.75,22.75 18,22.75 18.25,22.765C20.328,22.758 22.237,23.909 23.2,25.75ZM32.635,36.46C32.584,36.569 32.584,36.696 32.635,36.805C32.713,36.898 32.828,36.953 32.95,36.955L42.46,36.955C42.578,36.955 42.689,36.899 42.76,36.805C42.811,36.696 42.811,36.569 42.76,36.46C42.033,34.251 39.97,32.759 37.645,32.759C35.32,32.759 33.257,34.251 32.53,36.46L32.635,36.46Z" style="fill:rgb(244,244,244);"/>
                    </g>
                </g>
            </g>
            <g id="g-root-ic_card_hu0gpzoh9rsx-fill" transform="matrix(1,0,0,1,230,62)">
                <g id="ic_card_hu0gpzoh9rsx-fill">
                    <g>
                        <path d="M23.5,32.875C23.505,31.507 24.088,30.205 25.105,29.29C25.316,29.119 25.418,28.847 25.371,28.579C25.324,28.311 25.136,28.09 24.88,28C23.587,27.484 22.207,27.219 20.815,27.22C15.826,27.234 11.434,30.511 10,35.29C9.941,35.517 9.985,35.758 10.12,35.95C10.258,36.143 10.483,36.255 10.72,36.25L22.72,36.25C22.924,36.258 23.123,36.183 23.27,36.041C23.417,35.9 23.5,35.704 23.5,35.5L23.5,32.875ZM46,32.875C45.992,31.429 44.821,30.258 43.375,30.25L28.375,30.25C26.925,30.25 25.75,31.425 25.75,32.875L25.75,43.375C25.75,44.825 26.925,46 28.375,46L43.375,46C44.821,45.992 45.992,44.821 46,43.375L46,32.875ZM43.375,43.75L28.375,43.75C28.168,43.75 28,43.582 28,43.375L28,38.875C28,38.668 28.168,38.5 28.375,38.5L43.375,38.5C43.582,38.5 43.75,38.668 43.75,38.875L43.75,43.375C43.75,43.582 43.582,43.75 43.375,43.75ZM28,32.875C28,32.668 28.168,32.5 28.375,32.5L43.375,32.5C43.582,32.5 43.75,32.668 43.75,32.875L43.75,34.375C43.75,34.582 43.582,34.75 43.375,34.75L28.375,34.75C28.168,34.75 28,34.582 28,34.375L28,32.875ZM40.375,40L38.5,40C37.879,40 37.375,40.504 37.375,41.125C37.375,41.746 37.879,42.25 38.5,42.25L40.375,42.25C40.996,42.25 41.5,41.746 41.5,41.125C41.5,40.504 40.996,40 40.375,40ZM12.355,25.66C12.695,25.899 13.119,25.986 13.525,25.901C13.932,25.815 14.285,25.565 14.5,25.21C14.768,24.786 14.999,24.339 15.19,23.875C15.235,23.756 15.336,23.666 15.46,23.635C15.585,23.616 15.712,23.655 15.805,23.74C17.137,25.12 18.972,25.9 20.89,25.9C22.808,25.9 24.643,25.12 25.975,23.74C26.068,23.655 26.195,23.616 26.32,23.635C26.444,23.666 26.545,23.756 26.59,23.875C26.781,24.339 27.012,24.786 27.28,25.21C27.746,25.857 28.637,26.026 29.308,25.595C29.979,25.164 30.195,24.283 29.8,23.59C29.121,22.455 28.788,21.147 28.84,19.825L28.84,17.95C28.84,13.559 25.281,10 20.89,10C16.499,10 12.94,13.559 12.94,17.95L12.94,19.825C12.992,21.147 12.659,22.455 11.98,23.59C11.519,24.267 11.686,25.188 12.355,25.66ZM20.815,22.9C18.748,22.941 16.979,21.424 16.705,19.375C16.622,19.005 16.828,18.632 17.185,18.505C18.444,18.055 19.579,17.315 20.5,16.345C20.654,16.207 20.886,16.207 21.04,16.345C21.988,17.325 23.155,18.065 24.445,18.505C24.802,18.632 25.008,19.005 24.925,19.375C24.651,21.424 22.882,22.941 20.815,22.9Z" style="fill:rgb(244,244,244);"/>
                    </g>
                </g>
            </g>
            <g id="g-root-ic_pick_vb38vbohdz4c-fill" transform="matrix(1,0,0,1,206,350)">
                <g id="ic_pick_vb38vbohdz4c-fill">
                    <g>
                        <path d="M37,23.5L32.065,19L31.9,18.865C31.747,19.911 31.172,20.848 30.31,21.46L34,24.835L32.305,27.31C31.837,27.993 32.012,28.927 32.695,29.395C32.942,29.567 33.234,29.661 33.535,29.665C34.034,29.666 34.501,29.418 34.78,29.005L37.21,25.465C37.642,24.85 37.553,24.01 37,23.5ZM25.735,18.265C25.735,19.566 26.789,20.62 28.09,20.62C29.391,20.62 30.445,19.566 30.445,18.265C30.445,16.964 29.391,15.91 28.09,15.91C26.789,15.91 25.735,16.964 25.735,18.265M28.09,14.41C28.471,14.411 28.85,14.467 29.215,14.575L29.215,11.185C29.215,10.564 28.711,10.06 28.09,10.06C27.469,10.06 26.965,10.564 26.965,11.185L26.965,14.575C27.33,14.466 27.709,14.41 28.09,14.41ZM22.135,24.835L25.855,21.415C24.998,20.799 24.425,19.863 24.265,18.82L24.1,19L19.15,23.5C18.616,24.026 18.552,24.864 19,25.465L21.445,29.005C21.911,29.67 22.822,29.843 23.5,29.395C24.183,28.927 24.358,27.993 23.89,27.31L22.135,24.835ZM36.745,36.235C36.745,37.801 38.014,39.07 39.58,39.07C41.146,39.07 42.415,37.801 42.415,36.235C42.415,34.669 41.146,33.4 39.58,33.4C38.014,33.4 36.745,34.669 36.745,36.235M13.75,36.235C13.75,37.801 15.019,39.07 16.585,39.07C18.151,39.07 19.42,37.801 19.42,36.235C19.42,34.669 18.151,33.4 16.585,33.4C15.019,33.4 13.75,34.669 13.75,36.235M23.74,34.435C23.74,36.796 25.654,38.71 28.015,38.71C30.376,38.71 32.29,36.796 32.29,34.435C32.29,32.074 30.376,30.16 28.015,30.16C25.654,30.16 23.74,32.074 23.74,34.435M36.265,46L45.865,46L45.085,44.62C43.917,43.123 42.168,42.193 40.274,42.061C38.38,41.929 36.519,42.609 35.155,43.93C35.601,44.576 35.974,45.271 36.265,46L36.265,46ZM20.98,43.93C20.149,43.108 19.113,42.523 17.98,42.235C15.416,41.58 12.708,42.504 11.08,44.59L10.135,46L19.885,46C20.177,45.274 20.544,44.58 20.98,43.93L20.98,43.93ZM28.09,41.5C25.219,41.617 22.667,43.365 21.52,46L34.63,46C33.488,43.375 30.95,41.629 28.09,41.5Z" style="fill:rgb(244,244,244);"/>
                    </g>
                </g>
            </g>
            <g id="g-root-ic_yuan_1q7l413ogvpxh-fill" transform="matrix(1,0,0,1,314,338)">
                <g id="ic_yuan_1q7l413ogvpxh-fill">
                    <g>
                        <path d="M14.032,10.3C12.375,10.3 11.032,11.643 11.032,13.3L11.032,29.177C11.032,30.834 12.375,32.177 14.032,32.177L22.881,32.177L21.079,34.957L12.538,34.957C11.71,34.957 11.038,35.629 11.038,36.457L11.038,43.162C11.038,43.99 11.71,44.662 12.538,44.662L22.879,44.662C23.006,44.666 23.125,44.604 23.194,44.497C23.253,44.384 23.253,44.25 23.194,44.137C21.757,42.612 21.457,40.894 21.757,39.688C21.985,38.768 22.509,37.95 23.25,37.359C24.025,36.713 25.001,36.357 26.01,36.353C26.648,36.352 27.279,36.495 27.855,36.773C27.967,36.832 28.102,36.832 28.215,36.773C28.332,36.714 28.403,36.59 28.394,36.459L28.394,30.677L28.387,30.677C28.387,29.849 27.715,29.177 26.887,29.177L14.032,29.177L14.032,13.3L40.259,13.3L40.259,29.176L38.635,29.176C37.807,29.176 37.135,29.848 37.135,30.676C37.135,31.504 37.807,32.176 38.635,32.176L40.259,32.176C41.916,32.176 43.259,30.833 43.259,29.176L43.259,13.3C43.259,11.643 41.916,10.3 40.259,10.3L14.032,10.3ZM18.428,16.11L21.354,16.11C21.759,16.11 22.089,16.44 22.089,16.845L22.089,19.77C22.089,20.174 21.759,20.504 21.354,20.504L18.428,20.504C18.023,20.505 17.694,20.175 17.694,19.77L17.694,16.845C17.694,16.44 18.023,16.11 18.428,16.11ZM44.968,43.569C44.972,42.038 44.366,40.57 43.286,39.486C42.205,38.403 40.738,37.794 39.208,37.793L35.248,37.793C35.041,37.793 34.873,37.626 34.873,37.418L34.873,31.313C34.873,30.121 33.906,29.154 32.713,29.154C31.52,29.154 30.553,30.121 30.553,31.313L30.553,41.574C30.551,41.73 30.453,41.869 30.306,41.922C30.159,41.976 29.995,41.932 29.893,41.813L27.673,39.308C26.903,38.436 25.586,38.317 24.673,39.039C23.781,39.796 23.655,41.126 24.388,42.038L27.598,45.578C27.665,45.657 27.765,45.701 27.868,45.699L44.593,45.699C44.8,45.699 44.968,45.531 44.968,45.324L44.968,43.569ZM27.22,16.11L24.295,16.11C23.889,16.11 23.56,16.439 23.56,16.845L23.56,19.77C23.56,20.174 23.89,20.504 24.295,20.504L27.22,20.504C27.625,20.504 27.955,20.174 27.955,19.77L27.955,16.845C27.955,16.439 27.626,16.11 27.22,16.11ZM18.43,21.974L21.355,21.974C21.76,21.974 22.09,22.305 22.09,22.709L22.09,25.635C22.09,26.039 21.76,26.369 21.355,26.369L18.43,26.369C18.024,26.369 17.695,26.04 17.695,25.635L17.695,22.709C17.695,22.305 18.025,21.974 18.43,21.974ZM27.22,21.974L24.295,21.974C23.889,21.975 23.56,22.304 23.56,22.71L23.56,25.635C23.56,26.039 23.89,26.369 24.295,26.369L27.22,26.369C27.625,26.369 27.955,26.039 27.955,25.635L27.955,22.709C27.955,22.304 27.626,21.975 27.22,21.975L27.22,21.974ZM32.645,16.681C32.645,16.06 32.142,15.556 31.52,15.556C30.899,15.556 30.395,16.06 30.395,16.681L30.395,18.745C30.396,20.327 31.415,21.728 32.92,22.216L32.92,22.881L31.52,22.881C30.899,22.881 30.395,23.384 30.395,24.006C30.395,24.627 30.899,25.131 31.52,25.131L32.92,25.131L32.92,26.16C32.92,26.781 33.424,27.285 34.045,27.285C34.666,27.285 35.17,26.781 35.17,26.16L35.17,25.131L36.57,25.131C37.191,25.131 37.695,24.627 37.695,24.006C37.695,23.384 37.191,22.881 36.57,22.881L35.17,22.881L35.17,22.216C35.718,22.037 36.217,21.732 36.625,21.325C37.31,20.641 37.694,19.713 37.695,18.745L37.695,16.681C37.695,16.06 37.191,15.556 36.57,15.556C35.948,15.556 35.445,16.06 35.445,16.681L35.445,18.745C35.445,19.513 34.825,20.138 34.057,20.145L34.033,20.145C33.265,20.138 32.645,19.513 32.645,18.745L32.645,16.681Z" style="fill:rgb(244,244,244);"/>
                    </g>
                </g>
            </g>
            <g id="g-root-tx_effectiv_1qbbvdzohfdhi-fill" transform="matrix(1,0,0,1,338,110)">
                <g id="tx_effectiv_1qbbvdzohfdhi-fill">
                    <g>
                        <g>
                            <g transform="matrix(1,0,0,1,12,31.2)">
                                <g transform="matrix(15,0,0,15,10.0049,0)">
                                </g>
                                <g transform="matrix(15,0,0,15,14.0112,0)">
                                </g>
                                <text x="0px" y="0px" style="font-family:'ArialMT', 'Arial', sans-serif;font-size:15px;fill:rgb(44,44,44);">Eﬀective educational</text>
                            </g>
                            <g transform="matrix(1,0,0,1,12,49.2)">
                                <text x="0px" y="0px" style="font-family:'ArialMT', 'Arial', sans-serif;font-size:15px;fill:rgb(44,44,44);">communication and</text>
                            </g>
                            <g transform="matrix(1,0,0,1,12,67.2)">
                                <text x="0px" y="0px" style="font-family:'ArialMT', 'Arial', sans-serif;font-size:15px;fill:rgb(44,44,44);">outreach programs.</text>
                            </g>
                        </g>
                    </g>
                </g>
            </g>
            <g id="g-root-tx_securean_1lr51nroh9tds-fill" transform="matrix(1,0,0,1,86,122)">
                <g id="tx_securean_1lr51nroh9tds-fill">
                    <g>
                        <g>
                            <g transform="matrix(1,0,0,1,13.4,28.2)">
                                <text x="0px" y="0px" style="font-family:'ArialMT', 'Arial', sans-serif;font-size:15px;fill:rgb(44,44,44);">Secure and reliable</text>
                            </g>
                            <g transform="matrix(1,0,0,1,83.63,46.2)">
                                <g transform="matrix(15,0,0,15,0,0)">
                                </g>
                                <g transform="matrix(15,0,0,15,4.16748,0)">
                                </g>
                                <text x="0px" y="0px" style="font-family:'ArialMT', 'Arial', sans-serif;font-size:15px;fill:rgb(44,44,44);">ﬁnancial</text>
                            </g>
                            <g transform="matrix(1,0,0,1,35.7,64.2)">
                                <text x="0px" y="0px" style="font-family:'ArialMT', 'Arial', sans-serif;font-size:15px;fill:rgb(44,44,44);">communication</text>
                            </g>
                            <g transform="matrix(1,0,0,1,74.7,82.2)">
                                <text x="0px" y="0px" style="font-family:'ArialMT', 'Arial', sans-serif;font-size:15px;fill:rgb(44,44,44);">solutions.</text>
                            </g>
                        </g>
                    </g>
                </g>
            </g>
            <g transform="matrix(1,0,0,1,350,108)">
                <g id="g-root-tx_educatio_mcbv6vohfcwd-fill">
                    <g id="tx_educatio_mcbv6vohfcwd-fill">
                        <g>
                            <g>
                                <text x="0px" y="0px" style="font-family:'Arial-BoldMT', 'Arial', sans-serif;font-weight:700;font-size:20px;fill:rgb(44,44,44);">Education</text>
                            </g>
                        </g>
                    </g>
                </g>
            </g>
            <g id="g-root-tx_retailec_1cwqzl3ohgs1s-fill" transform="matrix(1,0,0,1,350,194)">
                <g id="tx_retailec_1cwqzl3ohgs1s-fill">
                    <g>
                        <g>
                            <g transform="matrix(1,0,0,1,12,34)">
                                <text x="0px" y="0px" style="font-family:'Arial-BoldMT', 'Arial', sans-serif;font-weight:700;font-size:20px;fill:rgb(44,44,44);">Retail &amp; E-</text>
                            </g>
                            <g transform="matrix(1,0,0,1,12,58)">
                                <text x="0px" y="0px" style="font-family:'Arial-BoldMT', 'Arial', sans-serif;font-weight:700;font-size:20px;fill:rgb(44,44,44);">commerce</text>
                            </g>
                        </g>
                    </g>
                </g>
            </g>
            <g transform="matrix(1,0,0,1,124.52,252)">
                <g id="g-root-tx_corporat_141qgfbohb7d6-fill">
                    <g id="tx_corporat_141qgfbohb7d6-fill">
                        <g>
                            <g>
                                <text x="0px" y="0px" style="font-family:'Arial-BoldMT', 'Arial', sans-serif;font-weight:700;font-size:20px;fill:rgb(44,44,44);">Corporate</text>
                            </g>
                        </g>
                    </g>
                </g>
            </g>
            <g id="g-root-tx_enhanced_zpnstjohb5e3-fill" transform="matrix(1,0,0,1,62,254)">
                <g id="tx_enhanced_zpnstjohb5e3-fill">
                    <g>
                        <g>
                            <g transform="matrix(1,0,0,1,18.23,28.2)">
                                <text x="0px" y="0px" style="font-family:'ArialMT', 'Arial', sans-serif;font-size:15px;fill:rgb(44,44,44);">Enhanced corporate</text>
                            </g>
                            <g transform="matrix(1,0,0,1,47.7,46.2)">
                                <text x="0px" y="0px" style="font-family:'ArialMT', 'Arial', sans-serif;font-size:15px;fill:rgb(44,44,44);">communication</text>
                            </g>
                            <g transform="matrix(1,0,0,1,57.15,64.2)">
                                <text x="0px" y="0px" style="font-family:'ArialMT', 'Arial', sans-serif;font-size:15px;fill:rgb(44,44,44);">strategies and</text>
                            </g>
                            <g transform="matrix(1,0,0,1,85.4,82.2)">
                                <g transform="matrix(15,0,0,15,8.34229,0)">
                                </g>
                                <g transform="matrix(15,0,0,15,12.3763,0)">
                                </g>
                                <g transform="matrix(15,0,0,15,16.4104,0)">
                                </g>
                                <text x="0px" y="0px" style="font-family:'ArialMT', 'Arial', sans-serif;font-size:15px;fill:rgb(44,44,44);">eﬃciency<tspan x="61.04px " y="0px ">.</tspan></text>
                            </g>
                        </g>
                    </g>
                </g>
            </g>
            <g id="g-root-tx_streamli_8yzxk7ohgtmp-fill" transform="matrix(1,0,0,1,350,254)">
                <g id="tx_streamli_8yzxk7ohgtmp-fill">
                    <g>
                        <g>
                            <g transform="matrix(1,0,0,1,12,31.2)">
                                <text x="0px" y="0px" style="font-family:'ArialMT', 'Arial', sans-serif;font-size:15px;fill:rgb(44,44,44);">Streamlined customer</text>
                            </g>
                            <g transform="matrix(1,0,0,1,12,49.2)">
                                <text x="0px" y="0px" style="font-family:'ArialMT', 'Arial', sans-serif;font-size:15px;fill:rgb(44,44,44);">engagement in retail</text>
                            </g>
                            <g transform="matrix(1,0,0,1,12,67.2)">
                                <text x="0px" y="0px" style="font-family:'ArialMT', 'Arial', sans-serif;font-size:15px;fill:rgb(44,44,44);">and e-commerce.</text>
                            </g>
                        </g>
                    </g>
                </g>
            </g>
            <g transform="matrix(1,0,0,1,92.4,384)">
                <g id="g-root-tx_callcent_1d0hu3rohdyiq-fill">
                    <g id="tx_callcent_1d0hu3rohdyiq-fill">
                        <g>
                            <g>
                                <text x="0px" y="0px" style="font-family:'Arial-BoldMT', 'Arial', sans-serif;font-weight:700;font-size:20px;fill:rgb(44,44,44);">Call Centers</text>
                            </g>
                        </g>
                    </g>
                </g>
            </g>
            <g id="g-root-tx_financeb_m7yjl3oh9s0f-fill" transform="matrix(1,0,0,1,122,62)">
                <g id="tx_financeb_m7yjl3oh9s0f-fill">
                    <g>
                        <g>
                            <g transform="matrix(1,0,0,1,15.25,34)">
                                <text x="0px" y="0px" style="font-family:'Arial-BoldMT', 'Arial', sans-serif;font-weight:700;font-size:20px;fill:rgb(44,44,44);">Finance &amp;</text>
                            </g>
                            <g transform="matrix(1,0,0,1,30.68,58)">
                                <text x="0px" y="0px" style="font-family:'Arial-BoldMT', 'Arial', sans-serif;font-weight:700;font-size:20px;fill:rgb(44,44,44);">Banking</text>
                            </g>
                        </g>
                    </g>
                </g>
            </g>
            <g transform="matrix(1,0,0,1,374,372)">
                <g id="g-root-tx_healthca_1q5porrogvqx7-fill">
                    <g id="tx_healthca_1q5porrogvqx7-fill">
                        <g>
                            <g>
                                <text x="0px" y="0px" style="font-family:'Arial-BoldMT', 'Arial', sans-serif;font-weight:700;font-size:20px;fill:rgb(44,44,44);">Healthcare</text>
                            </g>
                        </g>
                    </g>
                </g>
            </g>
            <g id="g-root-tx_efficien_73rtzohe0wb-fill" transform="matrix(1,0,0,1,50,386)">
                <g id="tx_efficien_73rtzohe0wb-fill">
                    <g>
                        <g>
                            <g transform="matrix(1,0,0,1,25.27,31.2)">
                                <g transform="matrix(15,0,0,15,10.0049,0)">
                                </g>
                                <g transform="matrix(15,0,0,15,14.0389,0)">
                                </g>
                                <g transform="matrix(15,0,0,15,18.073,0)">
                                </g>
                                <text x="0px" y="0px" style="font-family:'ArialMT', 'Arial', sans-serif;font-size:15px;fill:rgb(44,44,44);">Eﬃcient call center</text>
                            </g>
                            <g transform="matrix(1,0,0,1,25.68,49.2)">
                                <text x="0px" y="0px" style="font-family:'ArialMT', 'Arial', sans-serif;font-size:15px;fill:rgb(44,44,44);">operations through</text>
                            </g>
                            <g transform="matrix(1,0,0,1,21.63,67.2)">
                                <text x="0px" y="0px" style="font-family:'ArialMT', 'Arial', sans-serif;font-size:15px;fill:rgb(44,44,44);">voice broadcasting.</text>
                            </g>
                        </g>
                    </g>
                </g>
            </g>
            <g id="g-root-tx_improved_v3lmzrogvrpg-fill" transform="matrix(1,0,0,1,362,374)">
                <g id="tx_improved_v3lmzrogvrpg-fill">
                    <g>
                        <g>
                            <g transform="matrix(1,0,0,1,12,31.2)">
                                <text x="0px" y="0px" style="font-family:'ArialMT', 'Arial', sans-serif;font-size:15px;fill:rgb(44,44,44);">Improved patient</text>
                            </g>
                            <g transform="matrix(1,0,0,1,12,49.2)">
                                <text x="0px" y="0px" style="font-family:'ArialMT', 'Arial', sans-serif;font-size:15px;fill:rgb(44,44,44);">communication in</text>
                            </g>
                            <g transform="matrix(1,0,0,1,12,67.2)">
                                <text x="0px" y="0px" style="font-family:'ArialMT', 'Arial', sans-serif;font-size:15px;fill:rgb(44,44,44);">healthcare settings.</text>
                            </g>
                        </g>
                    </g>
                </g>
            </g>
            <g id="g-root-cp_5_text-5_de6yljoh8dmz-stroke" transform="matrix(1,0,0,1,50,50)">
                <g id="cp_5_text-5_de6yljoh8dmz-stroke">
                    <g>
                        <path d="M10,166L10,10L238,10L238,166" style="fill:none;stroke:rgb(44,44,44);stroke-width:2px;"/>
                    </g>
                </g>
            </g>
            <g id="g-root-cp_5_stick-5_18hjyjroh8f0t-stroke" transform="matrix(1,0,0,1,266,206)">
                <g id="cp_5_stick-5_18hjyjroh8f0t-stroke">
                    <g>
                        <path d="M21.996,298L21.996,10" style="fill:none;stroke:rgb(44,44,44);stroke-width:2px;"/>
                    </g>
                </g>
            </g>
            <g id="g-root-cp_3_text-3_hv9ew7oh8f0v-stroke" transform="matrix(1,0,0,1,38,206)">
                <g id="cp_3_text-3_hv9ew7oh8f0v-stroke">
                    <g>
                        <path d="M10,142L10,10L238,10L238,142" style="fill:none;stroke:rgb(44,44,44);stroke-width:2px;"/>
                    </g>
                </g>
            </g>
            <g id="g-root-cp_3_stick-3_1luvw6foh8cg9-stroke" transform="matrix(1,0,0,1,254,338)">
                <g id="cp_3_stick-3_1luvw6foh8cg9-stroke">
                    <g>
                        <path d="M21.996,166L21.996,10" style="fill:none;stroke:rgb(44,44,44);stroke-width:2px;"/>
                    </g>
                </g>
            </g>
            <g id="g-root-cp_1_text-1_143lvonoh8etf-stroke" transform="matrix(1,0,0,1,26,338)">
                <g id="cp_1_text-1_143lvonoh8etf-stroke">
                    <g>
                        <path d="M238,130L238,10L10,10L10,130L226,130" style="fill:none;stroke:rgb(44,44,44);stroke-width:2px;"/>
                    </g>
                </g>
            </g>
            <g id="g-root-cp_1_stick-1_dhbc13oh8eth-stroke" transform="matrix(1,0,0,1,242,422)">
                <g id="cp_1_stick-1_dhbc13oh8eth-stroke">
                    <g>
                        <path d="M21.996,82L21.996,10M10,82L10,46" style="fill:none;stroke:rgb(44,44,44);stroke-width:2px;"/>
                    </g>
                </g>
            </g>
            <g id="g-root-cp_6_text-6_1d14b6voh8c9b-stroke" transform="matrix(1,0,0,1,278,62)">
                <g id="cp_6_text-6_1d14b6voh8c9b-stroke">
                    <g>
                        <path d="M238,130L238,10L10,10L10,130" style="fill:none;stroke:rgb(44,44,44);stroke-width:2px;"/>
                    </g>
                </g>
            </g>
            <g id="g-root-cp_6_stick-6_v9uap3oh8emh-stroke" transform="matrix(1,0,0,1,278,182)">
                <g id="cp_6_stick-6_v9uap3oh8emh-stroke">
                    <g>
                        <path d="M10.004,322L10.004,10" style="fill:none;stroke:rgb(44,44,44);stroke-width:2px;"/>
                    </g>
                </g>
            </g>
            <g id="g-root-cp_4_text-4_dj6rafoh8dtv-stroke" transform="matrix(1,0,0,1,290,182)">
                <g id="cp_4_text-4_dj6rafoh8dtv-stroke">
                    <g>
                        <path d="M238,154L238,10L10,10L10,154" style="fill:none;stroke:rgb(44,44,44);stroke-width:2px;"/>
                    </g>
                </g>
            </g>
            <g id="g-root-cp_4_stick-4_1ly09lzoh8dmt-stroke" transform="matrix(1,0,0,1,290,326)">
                <g id="cp_4_stick-4_1ly09lzoh8dmt-stroke">
                    <g>
                        <path d="M10.004,178L10.004,10" style="fill:none;stroke:rgb(44,44,44);stroke-width:2px;"/>
                    </g>
                </g>
            </g>
            <g id="g-root-cp_2_text-2_18n68broh8c1z-stroke" transform="matrix(1,0,0,1,302,326)">
                <g id="cp_2_text-2_18n68broh8c1z-stroke">
                    <g>
                        <path d="M10,130L10,10L238,10L238,130L22,130" style="fill:none;stroke:rgb(44,44,44);stroke-width:2px;"/>
                    </g>
                </g>
            </g>
            <g id="g-root-cp_2_stick-2_i0voo7oh8c21-stroke" transform="matrix(1,0,0,1,302,410)">
                <g id="cp_2_stick-2_i0voo7oh8c21-stroke">
                    <g>
                        <path d="M10.004,94L10.004,10M22,94L22,46" style="fill:none;stroke:rgb(44,44,44);stroke-width:2px;"/>
                    </g>
                </g>
            </g>
            <g id="g-root-cp_0_g-0_4pf6avoh8dmz-stroke" transform="matrix(1,0,0,1,242,494)">
                <g id="cp_0_g-0_4pf6avoh8dmz-stroke">
                    <g>
                        <path d="M33.994,61L46.01,86L58.005,61L33.994,61Z" style="fill:none;stroke:rgb(44,44,44);stroke-width:2px;"/>
                    </g>
                </g>
                <g id="cp_0_g-0_4pf6avoh8dmz-stroke1" serif:id="cp_0_g-0_4pf6avoh8dmz-stroke">
                    <g>
                        <path d="M82,10L10,10L34,61L58.001,61L82,10Z" style="fill:none;stroke:rgb(44,44,44);stroke-width:2px;"/>
                    </g>
                </g>
            </g>
        </g>
    </g>
</svg>
