<?xml version="1.0" encoding="UTF-8" standalone="no"?>
<!DOCTYPE svg PUBLIC "-//W3C//DTD SVG 1.1//EN" "http://www.w3.org/Graphics/SVG/1.1/DTD/svg11.dtd">
<svg width="100%" height="100%" viewBox="0 0 600 520" version="1.1" xmlns="http://www.w3.org/2000/svg" xmlns:xlink="http://www.w3.org/1999/xlink" xml:space="preserve" xmlns:serif="http://www.serif.com/" style="fill-rule:evenodd;clip-rule:evenodd;stroke-linecap:round;stroke-linejoin:round;">
    <g id="items" transform="matrix(1,0,0,1,0,17)">
        <g id="blend">
            <g id="g-root-sy_-1_cu-1_24l6vm90fet-fill" transform="matrix(1,0,0,1,14,-4)">
                <g id="sy_-1_cu-1_24l6vm90fet-fill">
                    <g>
                        <path d="M286,10L562,130L550,154L22,154L10,130L286,10ZM562,490L10,490L22,466L550,466L562,490Z" style="fill:rgb(171,171,171);"/>
                    </g>
                </g>
            </g>
            <g id="g-root-sy_6_cu_1q88407m90cum-fill" transform="matrix(1,0,0,1,374,296)">
                <g id="sy_6_cu_1q88407m90cum-fill">
                    <g>
                        <rect x="10" y="10" width="168" height="156" style="fill:rgb(251,103,98);"/>
                    </g>
                </g>
            </g>
            <g id="g-root-sy_5_cu_1cwrlmvm90efj-fill" transform="matrix(1,0,0,1,206,296)">
                <g id="sy_5_cu_1cwrlmvm90efj-fill">
                    <g>
                        <rect x="10" y="10" width="168" height="156" style="fill:rgb(247,148,56);"/>
                    </g>
                </g>
            </g>
            <g id="g-root-sy_4_cu_18gy3ifm90f7s-fill" transform="matrix(1,0,0,1,38,296)">
                <g id="sy_4_cu_18gy3ifm90f7s-fill">
                    <g>
                        <rect x="10" y="10" width="168" height="156" style="fill:rgb(255,231,17);"/>
                    </g>
                </g>
            </g>
            <g id="g-root-sy_3_cu_v64287m90dmx-fill" transform="matrix(1,0,0,1,374,140)">
                <g id="sy_3_cu_v64287m90dmx-fill">
                    <g>
                        <rect x="10" y="10" width="168" height="156" style="fill:rgb(26,195,251);"/>
                    </g>
                </g>
            </g>
            <g id="g-root-sy_2_cu_qqak3rm90ef6-fill" transform="matrix(1,0,0,1,206,140)">
                <g id="sy_2_cu_qqak3rm90ef6-fill">
                    <g>
                        <rect x="10" y="10" width="168" height="156" style="fill:rgb(166,218,55);"/>
                    </g>
                </g>
            </g>
            <g id="g-root-sy_1_cu_hunjuvm90f7v-fill" transform="matrix(1,0,0,1,38,140)">
                <g id="sy_1_cu_hunjuvm90f7v-fill">
                    <g>
                        <rect x="10" y="10" width="168" height="156" style="fill:rgb(67,221,147);"/>
                    </g>
                </g>
            </g>
            <g transform="matrix(1,0,0,1,213.44,126)">
                <g id="g-root-tx_voiptech_1hjgevbm8yzur-fill">
                    <g id="tx_voiptech_1hjgevbm8yzur-fill">
                        <g>
                            <g>
                                <text x="0px" y="0px" style="font-family:'ArialMT', 'Arial', sans-serif;font-size:20px;fill:rgb(44,44,44);">V<tspan x="12.236px 23.359px " y="0px 0px ">oI</tspan>PT<tspan x="52.256px 63.379px " y="0px 0px ">ec</tspan>h Solutions</text>
                            </g>
                        </g>
                    </g>
                </g>
            </g>
            <g id="g-root-tx_reliable_dfgitjm90cuc-fill" transform="matrix(1,0,0,1,80,212)">
                <g id="tx_reliable_dfgitjm90cuc-fill">
                    <g>
                        <g>
                            <g transform="matrix(1,0,0,1,14.4,34)">
                                <text x="0px" y="0px" style="font-family:'ArialMT', 'Arial', sans-serif;font-size:20px;fill:rgb(44,44,44);">Reliable</text>
                            </g>
                            <g transform="matrix(1,0,0,1,14.48,58)">
                                <text x="0px" y="0px" style="font-family:'ArialMT', 'Arial', sans-serif;font-size:20px;fill:rgb(44,44,44);">Delivery</text>
                            </g>
                        </g>
                    </g>
                </g>
            </g>
            <g id="g-root-tx_customiz_1cyn0w7m90dfx-fill" transform="matrix(1,0,0,1,224,212)">
                <g id="tx_customiz_1cyn0w7m90dfx-fill">
                    <g>
                        <g>
                            <g transform="matrix(1,0,0,1,12.51,34)">
                                <text x="0px" y="0px" style="font-family:'ArialMT', 'Arial', sans-serif;font-size:20px;fill:rgb(44,44,44);">Customizable</text>
                            </g>
                            <g transform="matrix(1,0,0,1,23.01,58)">
                                <text x="0px" y="0px" style="font-family:'ArialMT', 'Arial', sans-serif;font-size:20px;fill:rgb(44,44,44);">Campaigns</text>
                            </g>
                        </g>
                    </g>
                </g>
            </g>
            <g id="g-root-tx_realtime_1d0ig5jm90cg7-fill" transform="matrix(1,0,0,1,404,212)">
                <g id="tx_realtime_1d0ig5jm90cg7-fill">
                    <g>
                        <g>
                            <g transform="matrix(1,0,0,1,16.95,34)">
                                <text x="0px" y="0px" style="font-family:'ArialMT', 'Arial', sans-serif;font-size:20px;fill:rgb(44,44,44);">Real-T<tspan x="59.268px 63.711px " y="0px 0px ">im</tspan>e</text>
                            </g>
                            <g transform="matrix(1,0,0,1,20.75,58)">
                                <text x="0px" y="0px" style="font-family:'ArialMT', 'Arial', sans-serif;font-size:20px;fill:rgb(44,44,44);">Analytics</text>
                            </g>
                        </g>
                    </g>
                </g>
            </g>
            <g transform="matrix(1,0,0,1,63.41,402)">
                <g id="g-root-tx_highscal_hwiz47m90e86-fill">
                    <g id="tx_highscal_hwiz47m90e86-fill">
                        <g>
                            <g>
                                <text x="0px" y="0px" style="font-family:'ArialMT', 'Arial', sans-serif;font-size:20px;fill:rgb(44,44,44);">High Scalability</text>
                            </g>
                        </g>
                    </g>
                </g>
            </g>
            <g id="g-root-tx_userfrie_v98fnrm90etc-fill" transform="matrix(1,0,0,1,224,368)">
                <g id="tx_userfrie_v98fnrm90etc-fill">
                    <g>
                        <g>
                            <g transform="matrix(1,0,0,1,15.56,34)">
                                <text x="0px" y="0px" style="font-family:'ArialMT', 'Arial', sans-serif;font-size:20px;fill:rgb(44,44,44);">User-Friendly</text>
                            </g>
                            <g transform="matrix(1,0,0,1,33.79,58)">
                                <text x="0px" y="0px" style="font-family:'ArialMT', 'Arial', sans-serif;font-size:20px;fill:rgb(44,44,44);">Interface</text>
                            </g>
                        </g>
                    </g>
                </g>
            </g>
            <g id="g-root-tx_247exper_1usexqfm90fex-fill" transform="matrix(1,0,0,1,398,368)">
                <g id="tx_247exper_1usexqfm90fex-fill">
                    <g>
                        <g>
                            <g transform="matrix(1,0,0,1,15.59,34)">
                                <text x="0px" y="0px" style="font-family:'ArialMT', 'Arial', sans-serif;font-size:20px;fill:rgb(44,44,44);">24/7 Expert</text>
                            </g>
                            <g transform="matrix(1,0,0,1,32.22,58)">
                                <text x="0px" y="0px" style="font-family:'ArialMT', 'Arial', sans-serif;font-size:20px;fill:rgb(44,44,44);">Support</text>
                            </g>
                        </g>
                    </g>
                </g>
            </g>
            <g id="g-root-sy_-1_cu-1_24l6vm90fet-stroke" transform="matrix(1,0,0,1,14,-4)">
                <g id="sy_-1_cu-1_24l6vm90fet-stroke">
                    <g>
                        <path d="M286,10L562,130L550,154L22,154L10,130L286,10ZM562,490L10,490L22,466L550,466L562,490Z" style="fill:none;stroke:rgb(44,44,44);stroke-width:2px;"/>
                    </g>
                </g>
            </g>
            <g id="g-root-sy_6_cu_1q88407m90cum-stroke" transform="matrix(1,0,0,1,374,296)">
                <g id="sy_6_cu_1q88407m90cum-stroke">
                    <g>
                        <rect x="10" y="10" width="168" height="156" style="fill:none;stroke:rgb(44,44,44);stroke-width:2px;"/>
                    </g>
                </g>
            </g>
            <g id="g-root-sy_5_cu_1cwrlmvm90efj-stroke" transform="matrix(1,0,0,1,206,296)">
                <g id="sy_5_cu_1cwrlmvm90efj-stroke">
                    <g>
                        <rect x="10" y="10" width="168" height="156" style="fill:none;stroke:rgb(44,44,44);stroke-width:2px;"/>
                    </g>
                </g>
            </g>
            <g id="g-root-sy_4_cu_18gy3ifm90f7s-stroke" transform="matrix(1,0,0,1,38,296)">
                <g id="sy_4_cu_18gy3ifm90f7s-stroke">
                    <g>
                        <rect x="10" y="10" width="168" height="156" style="fill:none;stroke:rgb(44,44,44);stroke-width:2px;"/>
                    </g>
                </g>
            </g>
            <g id="g-root-sy_3_cu_v64287m90dmx-stroke" transform="matrix(1,0,0,1,374,140)">
                <g id="sy_3_cu_v64287m90dmx-stroke">
                    <g>
                        <rect x="10" y="10" width="168" height="156" style="fill:none;stroke:rgb(44,44,44);stroke-width:2px;"/>
                    </g>
                </g>
            </g>
            <g id="g-root-sy_2_cu_qqak3rm90ef6-stroke" transform="matrix(1,0,0,1,206,140)">
                <g id="sy_2_cu_qqak3rm90ef6-stroke">
                    <g>
                        <rect x="10" y="10" width="168" height="156" style="fill:none;stroke:rgb(44,44,44);stroke-width:2px;"/>
                    </g>
                </g>
            </g>
            <g id="g-root-sy_1_cu_hunjuvm90f7v-stroke" transform="matrix(1,0,0,1,38,140)">
                <g id="sy_1_cu_hunjuvm90f7v-stroke">
                    <g>
                        <rect x="10" y="10" width="168" height="156" style="fill:none;stroke:rgb(44,44,44);stroke-width:2px;"/>
                    </g>
                </g>
            </g>
            <g id="g-root-ic_moni_qvacsnm90du2-stroke" transform="matrix(1,0,0,1,266,20)">
                <g id="ic_moni_qvacsnm90du2-stroke">
                    <g>
                        <path d="M20.732,50.168L48.056,50.168M22.558,50.612L22.558,56.098M45.786,50.5L45.786,56.098M26.998,33.224L40.998,33.224C40.998,33.224 42.998,33.224 42.998,35.224L42.998,43.224C42.998,43.224 42.998,45.224 40.998,45.224L26.998,45.224C26.998,45.224 24.998,45.224 24.998,43.224L24.998,35.224C24.998,35.224 24.998,33.224 26.998,33.224M31.956,45.224C31.776,47.127 30.885,48.892 29.462,50.168M36.038,45.224C36.218,47.127 37.109,48.892 38.532,50.168M18.15,22.744C18.015,24.462 17.271,26.076 16.052,27.294M21.58,22.744C21.715,24.462 22.459,26.076 23.678,27.294M45.414,22.744C45.279,24.462 44.535,26.076 43.316,27.294M48.844,22.744C48.979,24.462 49.723,26.076 50.942,27.294M11.998,27.294L56.268,27.294M13.822,27.738L13.822,36.224M53.998,27.628L53.998,36.224M40.998,11.902L53.262,11.902C53.262,11.902 55.262,11.902 55.262,13.902L55.262,20.744C55.262,20.744 55.262,22.744 53.262,22.744L40.998,22.744C40.998,22.744 38.998,22.744 38.998,20.744L38.998,13.902C38.998,13.902 38.998,11.902 40.998,11.902M13.732,11.902L25.996,11.902C25.996,11.902 27.996,11.902 27.996,13.902L27.996,20.744C27.996,20.744 27.996,22.744 25.996,22.744L13.732,22.744C13.732,22.744 11.732,22.744 11.732,20.744L11.732,13.902C11.732,13.902 11.732,11.902 13.732,11.902" style="fill:none;stroke:rgb(44,44,44);stroke-width:2px;"/>
                    </g>
                </g>
            </g>
            <g id="g-root-ic_1_1q5q7nrm960w4-stroke" transform="matrix(1,0,0,1,98,152)">
                <g id="ic_1_1q5q7nrm960w4-stroke">
                    <g>
                        <path d="M21.002,52L47.002,52M35.002,40L35.002,52M57,24C57,26.209 55.209,28 53,28L15,28C12.791,28 11,26.209 11,24L11,20C11,17.791 12.791,16 15,16L53,16C55.209,16 57,17.791 57,20L57,24ZM19.5,21.5C19.224,21.5 19,21.724 19,22C19,22.276 19.224,22.5 19.5,22.5C19.776,22.5 20,22.276 20,22C20,21.724 19.776,21.5 19.5,21.5M26.5,21.5C26.224,21.5 26,21.724 26,22C26,22.276 26.224,22.5 26.5,22.5C26.776,22.5 27,22.276 27,22C27,21.724 26.776,21.5 26.5,21.5M57,36C57,38.209 55.209,40 53,40L15,40C12.791,40 11,38.209 11,36L11,32C11,29.791 12.791,28 15,28L53,28C55.209,28 57,29.791 57,32L57,36ZM19.5,33.5C19.224,33.5 19,33.724 19,34C19,34.276 19.224,34.5 19.5,34.5C19.776,34.5 20,34.276 20,34C20,33.724 19.776,33.5 19.5,33.5M26.5,33.5C26.224,33.5 26,33.724 26,34C26,34.276 26.224,34.5 26.5,34.5C26.776,34.5 27,34.276 27,34C27,33.724 26.776,33.5 26.5,33.5M16.5,51C16.224,51 16,51.224 16,51.5C16,51.776 16.224,52 16.5,52C16.776,52 17,51.776 17,51.5C17,51.224 16.776,51 16.5,51M11.5,51C11.224,51 11,51.224 11,51.5C11,51.776 11.224,52 11.5,52C11.776,52 12,51.776 12,51.5C12,51.224 11.776,51 11.5,51M56.5,51C56.224,51 56,51.224 56,51.5C56,51.776 56.224,52 56.5,52C56.776,52 57,51.776 57,51.5C57,51.224 56.776,51 56.5,51M51.5,51C51.224,51 51,51.224 51,51.5C51,51.776 51.224,52 51.5,52C51.776,52 52,51.776 52,51.5C52,51.224 51.776,51 51.5,51" style="fill:none;stroke:rgb(44,44,44);stroke-width:2px;"/>
                    </g>
                </g>
            </g>
            <g id="g-root-ic_mega_1upx1dzm97g26-stroke" transform="matrix(1,0,0,1,266,152)">
                <g id="ic_mega_1upx1dzm97g26-stroke">
                    <g>
                        <path d="M14.088,55.026L25.688,56.898C28.101,57.236 30.557,56.742 32.652,55.498L44.79,48.282C46.488,47.273 47.046,45.078 46.036,43.38L46.036,43.38C45.027,41.682 42.832,41.124 41.134,42.134L31.654,47.77M14.088,45.718L19.012,42.8C20.833,41.716 22.935,41.197 25.052,41.308L29.954,41.562C30.867,41.566 31.739,41.943 32.366,42.606C32.994,43.269 33.322,44.16 33.276,45.072C33.189,46.754 31.863,48.107 30.184,48.23L23.924,48.2M53.912,33.722L27.602,26.546L27.602,21.762L53.912,14.588L53.912,33.722ZM27.602,19.372L27.602,28.938M53.912,11L53.912,37.31M41.952,31.33L41.952,33.73C41.983,35.032 41.306,36.248 40.183,36.908C39.061,37.568 37.669,37.568 36.547,36.908C35.424,36.248 34.747,35.032 34.778,33.73L34.778,28.938" style="fill:none;stroke:rgb(44,44,44);stroke-width:2px;"/>
                    </g>
                </g>
            </g>
            <g id="g-root-ic_desk_1qa3j9jm9a7m0-stroke" transform="matrix(1,0,0,1,434,152)">
                <g id="ic_desk_1qa3j9jm9a7m0-stroke">
                    <g>
                        <path d="M17,27C17,30.866 20.134,34 24,34C27.866,34 31,30.866 31,27C31,23.134 27.866,20 24,20C20.134,20 17,23.134 17,27M24,20L24,27L31,27M28,55C29.812,52.712 30.861,49.915 31,47M40,55C38.188,52.712 37.139,49.915 37,47M24.998,55L42.998,55M11,41L57,41M13,13L55,13C55,13 57,13 57,15L57,45C57,45 57,47 55,47L13,47C13,47 11,47 11,45L11,15C11,15 11,13 13,13M37,24L40,20L46,25L51,19M49,35L49,32M45,35L45,31M41,35L41,29M37,35L37,32" style="fill:none;stroke:rgb(44,44,44);stroke-width:2px;"/>
                    </g>
                </g>
            </g>
            <g id="g-root-ic_clou_140i4avm98t1j-stroke" transform="matrix(1,0,0,1,98,308)">
                <g id="ic_clou_140i4avm98t1j-stroke">
                    <g>
                        <path d="M33,36.956L33,56.994M46.722,21.33C45.624,16.129 41.471,12.12 36.234,11.207C30.997,10.295 25.732,12.663 22.94,17.186C18.428,16.288 13.885,18.584 11.933,22.75C9.98,26.916 11.122,31.876 14.7,34.769C18.277,37.662 23.367,37.741 27.032,34.96C31.903,38.072 38.246,37.577 42.576,33.748C44.989,37.016 49.468,37.956 52.992,35.935C56.516,33.913 57.965,29.572 56.362,25.839C54.76,22.107 50.614,20.168 46.722,21.33ZM33,49.994L37.878,45.116M37,42.994C37,44.651 38.343,45.994 40,45.994C41.657,45.994 43,44.651 43,42.994C43,41.337 41.657,39.994 40,39.994C38.343,39.994 37,41.337 37,42.994Z" style="fill:none;stroke:rgb(44,44,44);stroke-width:2px;"/>
                    </g>
                </g>
            </g>
            <g id="g-root-ic_trac_dfgitjm9blz5-stroke" transform="matrix(1,0,0,1,266,308)">
                <g id="ic_trac_dfgitjm9blz5-stroke">
                    <g>
                        <path d="M35.682,39.9L41.887,15.078C42.208,13.795 43.361,12.895 44.683,12.895C46.006,12.895 47.159,13.795 47.48,15.078L53.685,39.9M37.932,30.898L51.435,30.898M32.889,12.897L26.683,37.719C26.362,39.002 25.21,39.902 23.887,39.902C22.564,39.902 21.411,39.002 21.091,37.719L14.885,12.897M54.096,50.184L13.904,50.184M18.818,55.105L13.899,50.186L18.818,45.267M49.178,45.27L54.097,50.189L49.178,55.108" style="fill:none;stroke:rgb(44,44,44);stroke-width:2px;"/>
                    </g>
                </g>
            </g>
            <g id="g-root-ic_supp_mcch8nm9czyi-stroke" transform="matrix(1,0,0,1,434,308)">
                <g id="ic_supp_mcch8nm9czyi-stroke">
                    <g>
                        <path d="M24.986,30.026C26.548,28.464 26.548,25.932 24.986,24.37L20.742,20.128C19.18,18.565 16.646,18.565 15.084,20.128L12.756,22.456C10.746,24.473 10.43,27.625 12,30C18.851,40.309 27.691,49.149 38,56C40.377,57.573 43.533,57.256 45.55,55.242L47.878,52.914C49.44,51.352 49.44,48.82 47.878,47.258L43.636,43.02C42.074,41.457 39.54,41.457 37.978,43.02L36.564,44.434C31.82,40.532 27.466,36.178 23.564,31.434L24.986,30.026ZM57,27L57,11C51.477,11 47,15.477 47,21L47,23L57,23M44,27L33,27L40,20.822C41.972,19.082 43.48,17.864 42.898,15C42.383,12.487 40.049,10.772 37.497,11.03C34.945,11.288 33.002,13.435 33,16" style="fill:none;stroke:rgb(44,44,44);stroke-width:2px;"/>
                    </g>
                </g>
            </g>
        </g>
    </g>
</svg>
