<?xml version="1.0" encoding="UTF-8" standalone="no"?>
<!DOCTYPE svg PUBLIC "-//W3C//DTD SVG 1.1//EN" "http://www.w3.org/Graphics/SVG/1.1/DTD/svg11.dtd">
<svg width="100%" height="100%" viewBox="0 0 576 662" version="1.1" xmlns="http://www.w3.org/2000/svg" xmlns:xlink="http://www.w3.org/1999/xlink" xml:space="preserve" xmlns:serif="http://www.serif.com/" style="fill-rule:evenodd;clip-rule:evenodd;stroke-linecap:round;stroke-linejoin:round;">
    <g id="items" transform="matrix(1.08709,0,0,1.08709,-25.0819,-49.4815)">
        <g id="blend">
            <g id="g-root-cp_5_text-5_1qd82zbmt7z7q-fill" transform="matrix(1,0,0,1,50,86)">
                <g id="cp_5_text-5_1qd82zbmt7z7q-fill">
                    <g>
                        <rect x="10" y="10" width="228" height="120" style="fill:rgb(166,218,55);"/>
                    </g>
                </g>
            </g>
            <g id="g-root-cp_5_stick-5_1hjghzrmt7z0o-fill" transform="matrix(1,0,0,1,266,206)">
                <g id="cp_5_stick-5_1hjghzrmt7z0o-fill">
                    <g>
                        <rect x="10" y="10" width="12" height="336" style="fill:rgb(166,218,55);"/>
                    </g>
                </g>
            </g>
            <g id="g-root-cp_3_text-3_8vwcgnmt9fya-fill" transform="matrix(1,0,0,1,38,206)">
                <g id="cp_3_text-3_8vwcgnmt9fya-fill">
                    <g>
                        <rect x="10" y="10" width="228" height="156" style="fill:rgb(255,231,17);"/>
                    </g>
                </g>
            </g>
            <g id="g-root-cp_3_stick-3_v48t93mt9ez0-fill" transform="matrix(1,0,0,1,254,362)">
                <g id="cp_3_stick-3_v48t93mt9ez0-fill">
                    <g>
                        <rect x="10" y="10" width="12" height="180" style="fill:rgb(255,231,17);"/>
                    </g>
                </g>
            </g>
            <g id="g-root-cp_1_text-1_1q88aafmt9d72-fill" transform="matrix(1,0,0,1,26,362)">
                <g id="cp_1_text-1_1q88aafmt9d72-fill">
                    <g>
                        <rect x="10" y="10" width="228" height="144" style="fill:rgb(251,103,98);"/>
                    </g>
                </g>
            </g>
            <g id="g-root-cp_1_stick-1_qqaqdzmt9erk-fill" transform="matrix(1,0,0,1,242,446)">
                <g id="cp_1_stick-1_qqaqdzmt9erk-fill">
                    <g>
                        <rect x="10" y="10" width="12" height="96" style="fill:rgb(251,103,98);"/>
                    </g>
                </g>
            </g>
            <g id="g-root-cp_6_text-6_18itp1zmt9eki-fill" transform="matrix(1,0,0,1,278,62)">
                <g id="cp_6_text-6_18itp1zmt9eki-fill">
                    <g>
                        <rect x="10" y="10" width="228" height="120" style="fill:rgb(26,195,251);"/>
                    </g>
                </g>
            </g>
            <g id="g-root-cp_6_stick-6_4l2n13mt9g5g-fill" transform="matrix(1,0,0,1,278,182)">
                <g id="cp_6_stick-6_4l2n13mt9g5g-fill">
                    <g>
                        <rect x="10" y="10" width="12" height="360" style="fill:rgb(26,195,251);"/>
                    </g>
                </g>
            </g>
            <g id="g-root-cp_4_text-4_144vm6vmt9dla-fill" transform="matrix(1,0,0,1,290,182)">
                <g id="cp_4_text-4_144vm6vmt9dla-fill">
                    <g>
                        <rect x="10" y="10" width="228" height="156" style="fill:rgb(67,221,147);"/>
                    </g>
                </g>
            </g>
            <g id="g-root-cp_4_stick-4_1usf40nmt9frc-fill" transform="matrix(1,0,0,1,290,338)">
                <g id="cp_4_stick-4_1usf40nmt9frc-fill">
                    <g>
                        <rect x="10" y="10" width="12" height="204" style="fill:rgb(67,221,147);"/>
                    </g>
                </g>
            </g>
            <g id="g-root-cp_2_text-2_1464kd3mt9fre-fill" transform="matrix(1,0,0,1,302,338)">
                <g id="cp_2_text-2_1464kd3mt9fre-fill">
                    <g>
                        <rect x="10" y="10" width="228" height="156" style="fill:rgb(247,148,56);"/>
                    </g>
                </g>
            </g>
            <g id="g-root-cp_2_stick-2_18nthqvmt9dzg-fill" transform="matrix(1,0,0,1,302,422)">
                <g id="cp_2_stick-2_18nthqvmt9dzg-fill">
                    <g>
                        <rect x="10" y="10" width="12" height="120" style="fill:rgb(247,148,56);"/>
                    </g>
                </g>
            </g>
            <g id="g-root-cp_0_g-0_vtavmtarra-fill" transform="matrix(1,0,0,1,242,542)">
                <g id="cp_0_g-0_vtavmtarra-fill">
                    <g>
                        <path d="M33.994,61L46.01,86L58.005,61L33.994,61Z" style="fill:rgb(232,232,232);"/>
                    </g>
                </g>
                <g id="cp_0_g-0_vtavmtarra-fill1" serif:id="cp_0_g-0_vtavmtarra-fill">
                    <g>
                        <path d="M82,10L10,10L34,61L58.001,61L82,10Z" style="fill:rgb(232,232,232);"/>
                    </g>
                </g>
            </g>
            <g id="g-root-tx_realtime_vcd5p3mt3spb-fill" transform="matrix(1,0,0,1,350,194)">
                <g id="tx_realtime_vcd5p3mt3spb-fill">
                    <g>
                        <g>
                            <g transform="matrix(1,0,0,1,12,34)">
                                <text x="0px" y="0px" style="font-family:'Arial-BoldMT', 'Arial', sans-serif;font-weight:700;font-size:20px;fill:rgb(44,44,44);">Real-T<tspan x="60.762px 66.318px " y="0px 0px ">im</tspan>e</text>
                            </g>
                            <g transform="matrix(1,0,0,1,12,58)">
                                <text x="0px" y="0px" style="font-family:'Arial-BoldMT', 'Arial', sans-serif;font-weight:700;font-size:20px;fill:rgb(44,44,44);">Reporting</text>
                            </g>
                        </g>
                    </g>
                </g>
            </g>
            <g id="g-root-tx_schedule_qwjh93mtc7wu-fill" transform="matrix(1,0,0,1,98,218)">
                <g id="tx_schedule_qwjh93mtc7wu-fill">
                    <g>
                        <g>
                            <g transform="matrix(1,0,0,1,21.43,34)">
                                <text x="0px" y="0px" style="font-family:'Arial-BoldMT', 'Arial', sans-serif;font-weight:700;font-size:20px;fill:rgb(44,44,44);">Scheduled</text>
                            </g>
                            <g transform="matrix(1,0,0,1,14.55,58)">
                                <text x="0px" y="0px" style="font-family:'Arial-BoldMT', 'Arial', sans-serif;font-weight:700;font-size:20px;fill:rgb(44,44,44);">Broadcasts</text>
                            </g>
                        </g>
                    </g>
                </g>
            </g>
            <g id="g-root-tx_provides_9ijbmt5820-fill" transform="matrix(1,0,0,1,350,254)">
                <g id="tx_provides_9ijbmt5820-fill">
                    <g>
                        <g>
                            <g transform="matrix(1,0,0,1,12,28.2)">
                                <text x="0px" y="0px" style="font-family:'ArialMT', 'Arial', sans-serif;font-size:15px;fill:rgb(44,44,44);">Provides real-time</text>
                            </g>
                            <g transform="matrix(1,0,0,1,12,46.2)">
                                <text x="0px" y="0px" style="font-family:'ArialMT', 'Arial', sans-serif;font-size:15px;fill:rgb(44,44,44);">reports on broadcast</text>
                            </g>
                            <g transform="matrix(1,0,0,1,12,64.2)">
                                <text x="0px" y="0px" style="font-family:'ArialMT', 'Arial', sans-serif;font-size:15px;fill:rgb(44,44,44);">performance and</text>
                            </g>
                            <g transform="matrix(1,0,0,1,12,82.2)">
                                <text x="0px" y="0px" style="font-family:'ArialMT', 'Arial', sans-serif;font-size:15px;fill:rgb(44,44,44);">analytics.</text>
                            </g>
                        </g>
                    </g>
                </g>
            </g>
            <g id="g-root-tx_schedule_1lpwvtjmtdnv3-fill" transform="matrix(1,0,0,1,50,278)">
                <g id="tx_schedule_1lpwvtjmtdnv3-fill">
                    <g>
                        <g>
                            <g transform="matrix(1,0,0,1,66.32,28.2)">
                                <text x="0px" y="0px" style="font-family:'ArialMT', 'Arial', sans-serif;font-size:15px;fill:rgb(44,44,44);">Schedules and</text>
                            </g>
                            <g transform="matrix(1,0,0,1,53.47,46.2)">
                                <text x="0px" y="0px" style="font-family:'ArialMT', 'Arial', sans-serif;font-size:15px;fill:rgb(44,44,44);">automates voice</text>
                            </g>
                            <g transform="matrix(1,0,0,1,22.37,64.2)">
                                <text x="0px" y="0px" style="font-family:'ArialMT', 'Arial', sans-serif;font-size:15px;fill:rgb(44,44,44);">broadcasts for timely</text>
                            </g>
                            <g transform="matrix(1,0,0,1,109.68,82.2)">
                                <text x="0px" y="0px" style="font-family:'ArialMT', 'Arial', sans-serif;font-size:15px;fill:rgb(44,44,44);">delivery<tspan x="50.574px " y="0px ">.</tspan></text>
                            </g>
                        </g>
                    </g>
                </g>
            </g>
            <g id="g-root-tx_integrat_14306xjmtasqz-fill" transform="matrix(1,0,0,1,62,134)">
                <g id="tx_integrat_14306xjmtasqz-fill">
                    <g>
                        <g>
                            <g transform="matrix(1,0,0,1,38.42,31.2)">
                                <text x="0px" y="0px" style="font-family:'ArialMT', 'Arial', sans-serif;font-size:15px;fill:rgb(44,44,44);">Integrates with IVR</text>
                            </g>
                            <g transform="matrix(1,0,0,1,12.12,49.2)">
                                <text x="0px" y="0px" style="font-family:'ArialMT', 'Arial', sans-serif;font-size:15px;fill:rgb(44,44,44);">systems for interactive</text>
                            </g>
                            <g transform="matrix(1,0,0,1,51.83,67.2)">
                                <text x="0px" y="0px" style="font-family:'ArialMT', 'Arial', sans-serif;font-size:15px;fill:rgb(44,44,44);">voice responses.</text>
                            </g>
                        </g>
                    </g>
                </g>
            </g>
            <g id="g-root-tx_extendsv_zofq53mtf1u2-fill" transform="matrix(1,0,0,1,338,110)">
                <g id="tx_extendsv_zofq53mtf1u2-fill">
                    <g>
                        <g>
                            <g transform="matrix(1,0,0,1,12,31.2)">
                                <text x="0px" y="0px" style="font-family:'ArialMT', 'Arial', sans-serif;font-size:15px;fill:rgb(44,44,44);">Extends voice</text>
                            </g>
                            <g transform="matrix(1,0,0,1,12,49.2)">
                                <text x="0px" y="0px" style="font-family:'ArialMT', 'Arial', sans-serif;font-size:15px;fill:rgb(44,44,44);">broadcasting</text>
                            </g>
                            <g transform="matrix(1,0,0,1,12,67.2)">
                                <text x="0px" y="0px" style="font-family:'ArialMT', 'Arial', sans-serif;font-size:15px;fill:rgb(44,44,44);">capabilities globally<tspan x="128.13px " y="0px ">.</tspan></text>
                            </g>
                        </g>
                    </g>
                </g>
            </g>
            <g id="g-root-tx_multiten_1ha3k0nmt80zx-fill" transform="matrix(1,0,0,1,362,350)">
                <g id="tx_multiten_1ha3k0nmt80zx-fill">
                    <g>
                        <g>
                            <g transform="matrix(1,0,0,1,12,34)">
                                <text x="0px" y="0px" style="font-family:'Arial-BoldMT', 'Arial', sans-serif;font-weight:700;font-size:20px;fill:rgb(44,44,44);">Multi-T<tspan x="64.043px 75.166px " y="0px 0px ">en</tspan>ant</text>
                            </g>
                            <g transform="matrix(1,0,0,1,12,58)">
                                <text x="0px" y="0px" style="font-family:'Arial-BoldMT', 'Arial', sans-serif;font-weight:700;font-size:20px;fill:rgb(44,44,44);">Support</text>
                            </g>
                        </g>
                    </g>
                </g>
            </g>
            <g id="g-root-tx_highvolu_18gycyfmtc8b0-fill" transform="matrix(1,0,0,1,74,374)">
                <g id="tx_highvolu_18gycyfmtc8b0-fill">
                    <g>
                        <g>
                            <g transform="matrix(1,0,0,1,12.47,34)">
                                <text x="0px" y="0px" style="font-family:'Arial-BoldMT', 'Arial', sans-serif;font-weight:700;font-size:20px;fill:rgb(44,44,44);">High V<tspan x="61.846px 74.063px " y="0px 0px ">ol</tspan>ume</text>
                            </g>
                            <g transform="matrix(1,0,0,1,55.23,58)">
                                <text x="0px" y="0px" style="font-family:'Arial-BoldMT', 'Arial', sans-serif;font-weight:700;font-size:20px;fill:rgb(44,44,44);">Delivery</text>
                            </g>
                        </g>
                    </g>
                </g>
            </g>
            <g id="g-root-tx_supports_v5hxqvmt7z7y-fill" transform="matrix(1,0,0,1,362,410)">
                <g id="tx_supports_v5hxqvmt7z7y-fill">
                    <g>
                        <g>
                            <g transform="matrix(1,0,0,1,12,28.2)">
                                <text x="0px" y="0px" style="font-family:'ArialMT', 'Arial', sans-serif;font-size:15px;fill:rgb(44,44,44);">Supports multiple</text>
                            </g>
                            <g transform="matrix(1,0,0,1,12,46.2)">
                                <text x="0px" y="0px" style="font-family:'ArialMT', 'Arial', sans-serif;font-size:15px;fill:rgb(44,44,44);">tenants with isolated</text>
                            </g>
                            <g transform="matrix(1,0,0,1,12,64.2)">
                                <text x="0px" y="0px" style="font-family:'ArialMT', 'Arial', sans-serif;font-size:15px;fill:rgb(44,44,44);">broadcasting</text>
                            </g>
                            <g transform="matrix(1,0,0,1,12,82.2)">
                                <text x="0px" y="0px" style="font-family:'ArialMT', 'Arial', sans-serif;font-size:15px;fill:rgb(44,44,44);">environments.</text>
                            </g>
                        </g>
                    </g>
                </g>
            </g>
            <g id="g-root-tx_efficien_deub6fmtc939-fill" transform="matrix(1,0,0,1,38,434)">
                <g id="tx_efficien_deub6fmtc939-fill">
                    <g>
                        <g>
                            <g transform="matrix(1,0,0,1,43.9,31.2)">
                                <g transform="matrix(15,0,0,15,10.0049,0)">
                                </g>
                                <g transform="matrix(15,0,0,15,14.0389,0)">
                                </g>
                                <g transform="matrix(15,0,0,15,18.073,0)">
                                </g>
                                <text x="0px" y="0px" style="font-family:'ArialMT', 'Arial', sans-serif;font-size:15px;fill:rgb(44,44,44);">Eﬃciently delivers</text>
                            </g>
                            <g transform="matrix(1,0,0,1,14.33,49.2)">
                                <text x="0px" y="0px" style="font-family:'ArialMT', 'Arial', sans-serif;font-size:15px;fill:rgb(44,44,44);">large volumes of voice</text>
                            </g>
                            <g transform="matrix(1,0,0,1,85.1,67.2)">
                                <text x="0px" y="0px" style="font-family:'ArialMT', 'Arial', sans-serif;font-size:15px;fill:rgb(44,44,44);">broadcasts.</text>
                            </g>
                        </g>
                    </g>
                </g>
            </g>
            <g transform="matrix(1,0,0,1,90.97,132)">
                <g id="g-root-tx_ivrinteg_mah89jmtasy2-fill">
                    <g id="tx_ivrinteg_mah89jmtasy2-fill">
                        <g>
                            <g>
                                <text x="0px" y="0px" style="font-family:'Arial-BoldMT', 'Arial', sans-serif;font-weight:700;font-size:20px;fill:rgb(44,44,44);">IVR Integration</text>
                            </g>
                        </g>
                    </g>
                </g>
            </g>
            <g transform="matrix(1,0,0,1,350,108)">
                <g id="g-root-tx_globalre_1ltnthzmtf0g7-fill">
                    <g id="tx_globalre_1ltnthzmtf0g7-fill">
                        <g>
                            <g>
                                <text x="0px" y="0px" style="font-family:'Arial-BoldMT', 'Arial', sans-serif;font-weight:700;font-size:20px;fill:rgb(44,44,44);">Global Reach</text>
                            </g>
                        </g>
                    </g>
                </g>
            </g>
            <g id="g-root-cp_5_text-5_1qd82zbmt7z7q-stroke" transform="matrix(1,0,0,1,50,86)">
                <g id="cp_5_text-5_1qd82zbmt7z7q-stroke">
                    <g>
                        <path d="M10,130L10,10L238,10L238,130" style="fill:none;stroke:rgb(44,44,44);stroke-width:2px;"/>
                    </g>
                </g>
            </g>
            <g id="g-root-cp_5_stick-5_1hjghzrmt7z0o-stroke" transform="matrix(1,0,0,1,266,206)">
                <g id="cp_5_stick-5_1hjghzrmt7z0o-stroke">
                    <g>
                        <path d="M21.996,346L21.996,10" style="fill:none;stroke:rgb(44,44,44);stroke-width:2px;"/>
                    </g>
                </g>
            </g>
            <g id="g-root-cp_3_text-3_8vwcgnmt9fya-stroke" transform="matrix(1,0,0,1,38,206)">
                <g id="cp_3_text-3_8vwcgnmt9fya-stroke">
                    <g>
                        <path d="M10,166L10,10L238,10L238,166" style="fill:none;stroke:rgb(44,44,44);stroke-width:2px;"/>
                    </g>
                </g>
            </g>
            <g id="g-root-cp_3_stick-3_v48t93mt9ez0-stroke" transform="matrix(1,0,0,1,254,362)">
                <g id="cp_3_stick-3_v48t93mt9ez0-stroke">
                    <g>
                        <path d="M21.996,190L21.996,10" style="fill:none;stroke:rgb(44,44,44);stroke-width:2px;"/>
                    </g>
                </g>
            </g>
            <g id="g-root-cp_1_text-1_1q88aafmt9d72-stroke" transform="matrix(1,0,0,1,26,362)">
                <g id="cp_1_text-1_1q88aafmt9d72-stroke">
                    <g>
                        <path d="M238,154L238,10L10,10L10,154L226,154" style="fill:none;stroke:rgb(44,44,44);stroke-width:2px;"/>
                    </g>
                </g>
            </g>
            <g id="g-root-cp_1_stick-1_qqaqdzmt9erk-stroke" transform="matrix(1,0,0,1,242,446)">
                <g id="cp_1_stick-1_qqaqdzmt9erk-stroke">
                    <g>
                        <path d="M21.996,106L21.996,10M10,106L10,70" style="fill:none;stroke:rgb(44,44,44);stroke-width:2px;"/>
                    </g>
                </g>
            </g>
            <g id="g-root-cp_6_text-6_18itp1zmt9eki-stroke" transform="matrix(1,0,0,1,278,62)">
                <g id="cp_6_text-6_18itp1zmt9eki-stroke">
                    <g>
                        <path d="M238,130L238,10L10,10L10,130" style="fill:none;stroke:rgb(44,44,44);stroke-width:2px;"/>
                    </g>
                </g>
            </g>
            <g id="g-root-cp_6_stick-6_4l2n13mt9g5g-stroke" transform="matrix(1,0,0,1,278,182)">
                <g id="cp_6_stick-6_4l2n13mt9g5g-stroke">
                    <g>
                        <path d="M10.004,370L10.004,10" style="fill:none;stroke:rgb(44,44,44);stroke-width:2px;"/>
                    </g>
                </g>
            </g>
            <g id="g-root-cp_4_text-4_144vm6vmt9dla-stroke" transform="matrix(1,0,0,1,290,182)">
                <g id="cp_4_text-4_144vm6vmt9dla-stroke">
                    <g>
                        <path d="M238,166L238,10L10,10L10,166" style="fill:none;stroke:rgb(44,44,44);stroke-width:2px;"/>
                    </g>
                </g>
            </g>
            <g id="g-root-cp_4_stick-4_1usf40nmt9frc-stroke" transform="matrix(1,0,0,1,290,338)">
                <g id="cp_4_stick-4_1usf40nmt9frc-stroke">
                    <g>
                        <path d="M10.004,214L10.004,10" style="fill:none;stroke:rgb(44,44,44);stroke-width:2px;"/>
                    </g>
                </g>
            </g>
            <g id="g-root-cp_2_text-2_1464kd3mt9fre-stroke" transform="matrix(1,0,0,1,302,338)">
                <g id="cp_2_text-2_1464kd3mt9fre-stroke">
                    <g>
                        <path d="M10,166L10,10L238,10L238,166L22,166" style="fill:none;stroke:rgb(44,44,44);stroke-width:2px;"/>
                    </g>
                </g>
            </g>
            <g id="g-root-cp_2_stick-2_18nthqvmt9dzg-stroke" transform="matrix(1,0,0,1,302,422)">
                <g id="cp_2_stick-2_18nthqvmt9dzg-stroke">
                    <g>
                        <path d="M10.004,130L10.004,10M22,130L22,82" style="fill:none;stroke:rgb(44,44,44);stroke-width:2px;"/>
                    </g>
                </g>
            </g>
            <g id="g-root-cp_0_g-0_vtavmtarra-stroke" transform="matrix(1,0,0,1,242,542)">
                <g id="cp_0_g-0_vtavmtarra-stroke">
                    <g>
                        <path d="M33.994,61L46.01,86L58.005,61L33.994,61Z" style="fill:none;stroke:rgb(44,44,44);stroke-width:2px;"/>
                    </g>
                </g>
                <g id="cp_0_g-0_vtavmtarra-stroke1" serif:id="cp_0_g-0_vtavmtarra-stroke">
                    <g>
                        <path d="M82,10L10,10L34,61L58.001,61L82,10Z" style="fill:none;stroke:rgb(44,44,44);stroke-width:2px;"/>
                    </g>
                </g>
            </g>
            <g id="g-root-ic_wave_1lpwyzbmtgglf-stroke" transform="matrix(1,0,0,1,290,74)">
                <g id="ic_wave_1lpwyzbmtgglf-stroke">
                    <g>
                        <path d="M24.82,44.575C22.975,41.989 21.599,37.626 21.09,32.488M24.82,11.5C23.566,13.217 22.528,15.82 21.832,18.937M31.18,44.575C33.013,42.006 34.383,37.684 34.9,32.59M31.18,11.5C32.751,13.651 33.982,17.191 34.627,21.388M13.075,20.125C25.081,17.827 31.581,17.817 42.925,20.125M42.925,35.875C30.921,38.173 24.421,38.183 13.075,35.875M11.5,28.008L19.96,28.008C20.169,28.008 20.361,27.888 20.452,27.7L23.028,22.473C23.126,22.275 23.332,22.154 23.552,22.165C23.773,22.178 23.964,22.322 24.037,22.531L27.534,32.289C27.608,32.504 27.807,32.653 28.035,32.664C28.264,32.672 28.474,32.536 28.56,32.323L31.935,24.625C32.021,24.43 32.211,24.302 32.423,24.295C32.637,24.29 32.834,24.41 32.927,24.602L34.453,27.7C34.547,27.887 34.737,28.006 34.947,28.008L44.5,28.008M44.48,24.358C42.816,16.789 36.07,11.125 28,11.125C19.93,11.125 13.185,16.789 11.52,24.358M44.48,31.642C42.816,39.211 36.07,44.875 28,44.875C19.93,44.875 13.185,39.211 11.52,31.642" style="fill:none;stroke:rgb(44,44,44);stroke-width:2px;"/>
                    </g>
                </g>
            </g>
            <g id="g-root-ic_wave_qofhg7mt5729-stroke" transform="matrix(1,0,0,1,302,194)">
                <g id="ic_wave_qofhg7mt5729-stroke">
                    <g>
                        <path d="M13.75,11.5L42.25,11.5C42.25,11.5 45.25,11.5 45.25,14.5L45.25,41.5C45.25,41.5 45.25,44.5 42.25,44.5L13.75,44.5C13.75,44.5 10.75,44.5 10.75,41.5L10.75,14.5C10.75,14.5 10.75,11.5 13.75,11.5M10.75,19L45.25,19M16,14.875C16.207,14.875 16.375,15.043 16.375,15.25C16.375,15.457 16.207,15.625 16,15.625C15.793,15.625 15.625,15.457 15.625,15.25C15.625,15.043 15.793,14.875 16,14.875M20.5,14.875C20.707,14.875 20.875,15.043 20.875,15.25C20.875,15.457 20.707,15.625 20.5,15.625C20.293,15.625 20.125,15.457 20.125,15.25C20.125,15.043 20.293,14.875 20.5,14.875M25,14.875C25.207,14.875 25.375,15.043 25.375,15.25C25.375,15.457 25.207,15.625 25,15.625C24.793,15.625 24.625,15.457 24.625,15.25C24.625,15.043 24.793,14.875 25,14.875M10.75,31.75L45.25,31.75M19,19L19,44.5M19,29.5L21.198,25.107C21.907,23.687 23.363,22.797 24.949,22.812C26.535,22.828 27.974,23.746 28.656,25.179L29.245,26.414C29.896,27.783 31.242,28.688 32.756,28.774C34.269,28.861 35.709,28.116 36.512,26.83C37.267,25.621 38.59,24.885 40.015,24.879C41.44,24.873 42.768,25.599 43.533,26.802L45.25,29.5M19,38.64L21.462,36.178C21.957,35.682 22.652,35.438 23.349,35.514C24.046,35.591 24.671,35.979 25.048,36.571L26.891,39.467C27.306,40.119 28.019,40.521 28.791,40.538C29.563,40.556 30.293,40.186 30.736,39.553L31.997,37.753C32.442,37.117 33.176,36.747 33.951,36.767C34.727,36.787 35.44,37.195 35.851,37.853L35.917,37.959C36.326,38.613 37.035,39.02 37.807,39.044C38.578,39.068 39.311,38.705 39.76,38.077C40.177,37.495 40.839,37.138 41.555,37.111C42.271,37.085 42.958,37.391 43.417,37.941L45.25,40.14" style="fill:none;stroke:rgb(44,44,44);stroke-width:2px;"/>
                    </g>
                </g>
            </g>
            <g id="g-root-ic_1_zjfuafmtdnuo-stroke" transform="matrix(1,0,0,1,218,218)">
                <g id="ic_1_zjfuafmtdnuo-stroke">
                    <g>
                        <path d="M24.4,21.586C21.692,20.827 18.785,21.381 16.545,23.083C14.306,24.785 12.994,27.438 13,30.25L13,38.5C13,39.743 11.993,40.75 10.75,40.75L33.25,40.75C32.007,40.75 31,39.743 31,38.5L31,30.529M24.122,43.75C23.805,44.65 22.955,45.251 22.001,45.251C21.047,45.251 20.196,44.65 19.879,43.75M22,18.251L22,21.251M27.25,19.753C27.25,24.724 31.279,28.753 36.25,28.753C41.221,28.753 45.25,24.724 45.25,19.753C45.25,14.782 41.221,10.753 36.25,10.753C31.279,10.753 27.25,14.782 27.25,19.753L27.25,19.753ZM39.25,19.753L36.25,19.753L36.25,15.253" style="fill:none;stroke:rgb(44,44,44);stroke-width:2px;"/>
                    </g>
                </g>
            </g>
            <g id="g-root-ic_buil_3dvyvmt8007-stroke" transform="matrix(1,0,0,1,314,350)">
                <g id="ic_buil_3dvyvmt8007-stroke">
                    <g>
                        <path d="M31.75,45.25L12.25,45.25C11.422,45.25 10.75,44.578 10.75,43.75L10.75,12.25C10.75,11.422 11.422,10.75 12.25,10.75L43.75,10.75C44.578,10.75 45.25,11.422 45.25,12.25L45.25,36.25M19.75,18.25C19.75,16.593 18.407,15.25 16.75,15.25C15.093,15.25 13.75,16.593 13.75,18.25L13.75,23.5C13.75,23.914 14.086,24.25 14.5,24.25L19,24.25C19.414,24.25 19.75,23.914 19.75,23.5L19.75,18.25ZM28.75,18.25C28.75,16.593 27.407,15.25 25.75,15.25C24.093,15.25 22.75,16.593 22.75,18.25L22.75,23.5C22.75,23.914 23.086,24.25 23.5,24.25L28,24.25C28.414,24.25 28.75,23.914 28.75,23.5L28.75,18.25ZM19.75,33.25C19.75,31.593 18.407,30.25 16.75,30.25C15.093,30.25 13.75,31.593 13.75,33.25L13.75,38.5C13.75,38.914 14.086,39.25 14.5,39.25L19,39.25C19.414,39.25 19.75,38.914 19.75,38.5L19.75,33.25ZM28.75,33.25C28.75,31.593 27.407,30.25 25.75,30.25C24.093,30.25 22.75,31.593 22.75,33.25L22.75,38.5C22.75,38.914 23.086,39.25 23.5,39.25L28,39.25C28.414,39.25 28.75,38.914 28.75,38.5L28.75,33.25ZM42.25,36.25L42.25,27.25C42.25,25.593 40.907,24.25 39.25,24.25L37.75,24.25C36.093,24.25 34.75,25.593 34.75,27.25L34.75,36.25M35.5,17.5C35.5,19.157 36.843,20.5 38.5,20.5C40.157,20.5 41.5,19.157 41.5,17.5C41.5,15.843 40.157,14.5 38.5,14.5C36.843,14.5 35.5,15.843 35.5,17.5ZM45.25,36.25L31.75,36.25L31.75,45.25L43.75,45.25C44.578,45.25 45.25,44.578 45.25,43.75L45.25,36.25ZM31.75,39.25L45.25,39.25M31.75,42.25L45.25,42.25M31.75,10.75L31.75,36.25" style="fill:none;stroke:rgb(44,44,44);stroke-width:2px;"/>
                    </g>
                </g>
            </g>
            <g id="g-root-ic_1_zn6ryvmtc83y-stroke" transform="matrix(1,0,0,1,206,374)">
                <g id="ic_1_zn6ryvmtc83y-stroke">
                    <g>
                        <path d="M26.275,35.755C24.625,36.655 24.025,38.605 24.925,40.105C25.825,41.755 27.775,42.355 29.275,41.455L29.725,41.155C38.275,36.505 39.625,37.105 44.875,36.805L38.725,25.255C35.425,29.905 35.275,30.805 26.275,35.755ZM28.874,34.298L33.025,43.105C33.925,44.755 35.875,45.355 37.375,44.455M24.175,16.825C25.749,16.825 27.025,15.549 27.025,13.975C27.025,12.401 25.749,11.125 24.175,11.125C22.601,11.125 21.325,12.401 21.325,13.975C21.325,15.549 22.601,16.825 24.175,16.825ZM13.975,22.675C15.549,22.675 16.825,21.399 16.825,19.825C16.825,18.251 15.549,16.975 13.975,16.975C12.401,16.975 11.125,18.251 11.125,19.825C11.125,21.399 12.401,22.675 13.975,22.675ZM34.375,22.675C35.949,22.675 37.225,21.399 37.225,19.825C37.225,18.251 35.949,16.975 34.375,16.975C32.801,16.975 31.525,18.251 31.525,19.825C31.525,21.399 32.801,22.675 34.375,22.675ZM21.625,32.875L18.475,32.875C17.275,32.875 16.525,31.525 17.275,30.475L23.125,22.675C23.725,21.925 24.925,21.925 25.525,22.675L28.375,26.425" style="fill:none;stroke:rgb(44,44,44);stroke-width:2px;"/>
                    </g>
                </g>
            </g>
            <g id="g-root-ic_app_1ur65ufmtarr8-stroke" transform="matrix(1,0,0,1,230,98)">
                <g id="ic_app_1ur65ufmtarr8-stroke">
                    <g>
                        <path d="M32.875,39.25L10.75,39.25M21.813,41.875C22.02,41.875 22.188,42.043 22.188,42.25C22.188,42.457 22.02,42.625 21.813,42.625C21.605,42.625 21.438,42.457 21.438,42.25C21.438,42.043 21.605,41.875 21.813,41.875M13.75,10.75L29.875,10.75C29.875,10.75 32.875,10.75 32.875,13.75L32.875,42.25C32.875,42.25 32.875,45.25 29.875,45.25L13.75,45.25C13.75,45.25 10.75,45.25 10.75,42.25L10.75,13.75C10.75,13.75 10.75,10.75 13.75,10.75M36.291,27.286C37.105,26.424 37.105,25.076 36.291,24.214M39.25,30.358C41.695,27.773 41.695,23.727 39.25,21.142M39.25,30.358C41.695,27.773 41.695,23.727 39.25,21.142M42.193,33.43C46.269,29.121 46.269,22.379 42.193,18.07M42.193,33.43C46.269,29.121 46.269,22.379 42.193,18.07M16,17.5L19,17.5C19,17.5 20.5,17.5 20.5,19L20.5,22C20.5,22 20.5,23.5 19,23.5L16,23.5C16,23.5 14.5,23.5 14.5,22L14.5,19C14.5,19 14.5,17.5 16,17.5M25,17.5L28,17.5C28,17.5 29.5,17.5 29.5,19L29.5,22C29.5,22 29.5,23.5 28,23.5L25,23.5C25,23.5 23.5,23.5 23.5,22L23.5,19C23.5,19 23.5,17.5 25,17.5M16,26.5L19,26.5C19,26.5 20.5,26.5 20.5,28L20.5,31C20.5,31 20.5,32.5 19,32.5L16,32.5C16,32.5 14.5,32.5 14.5,31L14.5,28C14.5,28 14.5,26.5 16,26.5M25,26.5L28,26.5C28,26.5 29.5,26.5 29.5,28L29.5,31C29.5,31 29.5,32.5 28,32.5L25,32.5C25,32.5 23.5,32.5 23.5,31L23.5,28C23.5,28 23.5,26.5 25,26.5" style="fill:none;stroke:rgb(44,44,44);stroke-width:2px;"/>
                    </g>
                </g>
            </g>
        </g>
    </g>
</svg>
