<?xml version="1.0" encoding="UTF-8" standalone="no"?>
<!DOCTYPE svg PUBLIC "-//W3C//DTD SVG 1.1//EN" "http://www.w3.org/Graphics/SVG/1.1/DTD/svg11.dtd">
<svg width="100%" height="100%" viewBox="0 0 588 598" version="1.1" xmlns="http://www.w3.org/2000/svg" xmlns:xlink="http://www.w3.org/1999/xlink" xml:space="preserve" xmlns:serif="http://www.serif.com/" style="fill-rule:evenodd;clip-rule:evenodd;stroke-linecap:round;stroke-linejoin:round;">
    <g id="items" transform="matrix(1.06762,0,0,1.06762,-19.879,-50.9074)">
        <g id="blend">
            <g id="g-root-sy_-1_cu_1q88413pvddl6-fill" transform="matrix(1,0,0,1,14,74)">
                <g id="sy_-1_cu_1q88413pvddl6-fill">
                    <g>
                        <path d="M10,490L10,418L82.5,418L82.5,490L10,490ZM34,394L10,418L82.5,418L106,394L34,394ZM34,394L34,322L106,322L106,394L34,394ZM58,298L34,322L106,322L130,298L58,298ZM58,298L58,226L130,226L130,298L58,298ZM82,202L58,226L130,226L154,202L82,202ZM82,202L82,130L154,130L154,202L82,202ZM106,106L82,130L154,130L178,106L106,106ZM106,106L106,34L178,34L178,106L106,106ZM130,10L106,34L178,34L202,10L130,10Z" style="fill:url(#_Linear1);"/>
                    </g>
                </g>
            </g>
            <g id="g-root-sy_-1_cu_1_v64293pvdedf-fill" transform="matrix(1,0,0,1,362,74)">
                <g id="sy_-1_cu_1_v64293pvdedf-fill">
                    <g>
                        <path d="M202,490L202,418L130.5,418L130.5,490L202,490ZM202,418L178,394L106,394L130.5,418L202,418ZM178,322L178,394L106,394L106,322L178,322ZM178,322L154,298L82,298L106,322L178,322ZM154,226L154,298L82,298L82,226L154,226ZM154,226L130,202L58,202L82,226L154,226ZM130,130L130,202L58,202L58,130L130,130ZM130,130L106,106L34,106L58,130L130,130ZM106,34L106,106L34,106L34,34L106,34ZM106,34L82,10L10,10L34,34L106,34Z" style="fill:url(#_Linear2);"/>
                    </g>
                </g>
            </g>
            <g id="g-root-sy_1_cu_8zn0pzpvddl8-fill" transform="matrix(1,0,0,1,86.4998,458)">
                <g id="sy_1_cu_8zn0pzpvddl8-fill">
                    <g>
                        <path d="M10,106L10,34L406,34L406,106L10,106ZM381.5,10L406,34L10,34L33.5,10L381.5,10Z" style="fill:url(#_Linear3);"/>
                    </g>
                </g>
            </g>
            <g id="g-root-sy_2_cu_8zn0pzpvddl9-fill" transform="matrix(1,0,0,1,110,362)">
                <g id="sy_2_cu_8zn0pzpvddl9-fill">
                    <g>
                        <path d="M10,106L10,34L358,34L358,106L10,106ZM334,10L358,34L10,34L34,10L334,10Z" style="fill:url(#_Linear4);"/>
                    </g>
                </g>
            </g>
            <g id="g-root-sy_3_cu_1upx1evpvdbta-fill" transform="matrix(1,0,0,1,134,266)">
                <g id="sy_3_cu_1upx1evpvdbta-fill">
                    <g>
                        <path d="M10,34L10,106L310,106L310,34L10,34ZM286,10L310,34L10,34L34,10L286,10Z" style="fill:url(#_Linear5);"/>
                    </g>
                </g>
            </g>
            <g id="g-root-sy_4_cu_1hegj1jpvdde7-fill" transform="matrix(1,0,0,1,158,170)">
                <g id="sy_4_cu_1hegj1jpvdde7-fill">
                    <g>
                        <path d="M10,106L10,34L262,34L262,106L10,106ZM238,10L262,34L10,34L34,10L238,10Z" style="fill:url(#_Linear6);"/>
                    </g>
                </g>
            </g>
            <g id="g-root-sy_5_cu_znszmvpvdclk-fill" transform="matrix(1,0,0,1,182,74)">
                <g id="sy_5_cu_znszmvpvdclk-fill">
                    <g>
                        <path d="M10,106L10,34L214,34L214,106L10,106ZM190,10L214,34L10,34L34,10L190,10Z" style="fill:url(#_Linear7);"/>
                    </g>
                </g>
            </g>
            <g transform="matrix(1,0,0,1,211.84,252)">
                <g id="g-root-tx_automate_8zt5zpvdekl-fill">
                    <g id="tx_automate_8zt5zpvdekl-fill">
                        <g>
                            <g>
                                <text x="0px" y="0px" style="font-family:'ArialMT', 'Arial', sans-serif;font-size:20px;fill:rgb(244,244,244);">Automated Calling</text>
                            </g>
                        </g>
                    </g>
                </g>
            </g>
            <g transform="matrix(1,0,0,1,223.86,156)">
                <g id="g-root-tx_monitorr_zit6xzpveqku-fill">
                    <g id="tx_monitorr_zit6xzpveqku-fill">
                        <g>
                            <g>
                                <text x="0px" y="0px" style="font-family:'ArialMT', 'Arial', sans-serif;font-size:20px;fill:rgb(244,244,244);">Monitor Results</text>
                            </g>
                        </g>
                    </g>
                </g>
            </g>
            <g transform="matrix(1,0,0,1,205.29,348)">
                <g id="g-root-tx_schedule_146qv6vpvdczo-fill">
                    <g id="tx_schedule_146qv6vpvdczo-fill">
                        <g>
                            <g>
                                <text x="0px" y="0px" style="font-family:'ArialMT', 'Arial', sans-serif;font-size:20px;fill:rgb(244,244,244);">Schedule Campaign</text>
                            </g>
                        </g>
                    </g>
                </g>
            </g>
            <g transform="matrix(1,0,0,1,221.68,444)">
                <g id="g-root-tx_createme_dikw9zpvddzf-fill">
                    <g id="tx_createme_dikw9zpvddzf-fill">
                        <g>
                            <g>
                                <text x="0px" y="0px" style="font-family:'ArialMT', 'Arial', sans-serif;font-size:20px;fill:rgb(244,244,244);">Create Message</text>
                            </g>
                        </g>
                    </g>
                </g>
            </g>
            <g transform="matrix(1,0,0,1,220.08,540)">
                <g id="g-root-tx_uploadco_144vfxjpvddze-fill">
                    <g id="tx_uploadco_144vfxjpvddze-fill">
                        <g>
                            <g>
                                <text x="0px" y="0px" style="font-family:'ArialMT', 'Arial', sans-serif;font-size:20px;fill:rgb(244,244,244);">Upload Contacts</text>
                            </g>
                        </g>
                    </g>
                </g>
            </g>
            <g id="g-root-sy_-1_cu_1q88413pvddl6-stroke" transform="matrix(1,0,0,1,14,74)">
                <g id="sy_-1_cu_1q88413pvddl6-stroke">
                    <g>
                        <path d="M10,490L10,418L82.5,418L82.5,490L10,490ZM10,418L34,394L106,394L82.5,418L10,418ZM34,394L34,322L106,322L106,394L34,394ZM34,322L58,298L130,298L106,322L34,322ZM58,298L58,226L130,226L130,298L58,298ZM58,226L82,202L154,202L130,226L58,226ZM82,202L82,130L154,130L154,202L82,202ZM82,130L106,106L178,106L154,130L82,130ZM106,106L106,34L178,34L178,106L106,106ZM106,34L130,10L202,10L178,34L106,34Z" style="fill:none;stroke:rgb(244,244,244);stroke-width:2px;"/>
                    </g>
                </g>
            </g>
            <g id="g-root-sy_-1_cu_1_v64293pvdedf-stroke" transform="matrix(1,0,0,1,362,74)">
                <g id="sy_-1_cu_1_v64293pvdedf-stroke">
                    <g>
                        <path d="M202,418L202,490L130.5,490L130.5,418L202,418ZM202,418L178,394L106,394L130.5,418L202,418ZM178,322L178,394L106,394L106,322L178,322ZM178,322L154,298L82,298L106,322L178,322ZM154,226L154,298L82,298L82,226L154,226ZM154,226L130,202L58,202L82,226L154,226ZM130,130L130,202L58,202L58,130L130,130ZM130,130L106,106L34,106L58,130L130,130ZM106,106L106,34L34,34L34,106L106,106ZM106,34L82,10L10,10L34,34L106,34Z" style="fill:none;stroke:rgb(244,244,244);stroke-width:2px;"/>
                    </g>
                </g>
            </g>
            <g id="g-root-sy_1_cu_8zn0pzpvddl8-stroke" transform="matrix(1,0,0,1,86.4998,458)">
                <g id="sy_1_cu_8zn0pzpvddl8-stroke">
                    <g>
                        <path d="M10,34L10,106L406,106L406,34L10,34ZM406,34L381.5,10L33.5,10L10,34L406,34Z" style="fill:none;stroke:rgb(244,244,244);stroke-width:2px;"/>
                    </g>
                </g>
            </g>
            <g id="g-root-sy_2_cu_8zn0pzpvddl9-stroke" transform="matrix(1,0,0,1,110,362)">
                <g id="sy_2_cu_8zn0pzpvddl9-stroke">
                    <g>
                        <path d="M10,34L10,106L358,106L358,34L10,34ZM358,34L334,10L34,10L10,34L358,34Z" style="fill:none;stroke:rgb(244,244,244);stroke-width:2px;"/>
                    </g>
                </g>
            </g>
            <g id="g-root-sy_3_cu_1upx1evpvdbta-stroke" transform="matrix(1,0,0,1,134,266)">
                <g id="sy_3_cu_1upx1evpvdbta-stroke">
                    <g>
                        <path d="M10,106L10,34L310,34L310,106L10,106ZM310,34L286,10L34,10L10,34L310,34Z" style="fill:none;stroke:rgb(244,244,244);stroke-width:2px;"/>
                    </g>
                </g>
            </g>
            <g id="g-root-sy_4_cu_1hegj1jpvdde7-stroke" transform="matrix(1,0,0,1,158,170)">
                <g id="sy_4_cu_1hegj1jpvdde7-stroke">
                    <g>
                        <path d="M10,34L10,106L262,106L262,34L10,34ZM262,34L238,10L34,10L10,34L262,34Z" style="fill:none;stroke:rgb(244,244,244);stroke-width:2px;"/>
                    </g>
                </g>
            </g>
            <g id="g-root-sy_5_cu_znszmvpvdclk-stroke" transform="matrix(1,0,0,1,182,74)">
                <g id="sy_5_cu_znszmvpvdclk-stroke">
                    <g>
                        <path d="M10,34L10,106L214,106L214,34L10,34ZM214,34L190,10L34,10L10,34L214,34Z" style="fill:none;stroke:rgb(244,244,244);stroke-width:2px;"/>
                    </g>
                </g>
            </g>
            <g id="g-root-ic_wave_1um66w7pveryn-stroke" transform="matrix(1,0,0,1,398,110)">
                <g id="ic_wave_1um66w7pveryn-stroke">
                    <g>
                        <path d="M15,12L53,12C53,12 57,12 57,16L57,52C57,52 57,56 53,56L15,56C15,56 11,56 11,52L11,16C11,16 11,12 15,12M11,22L57,22M18,16.5C18.276,16.5 18.5,16.724 18.5,17C18.5,17.276 18.276,17.5 18,17.5C17.724,17.5 17.5,17.276 17.5,17C17.5,16.724 17.724,16.5 18,16.5M24,16.5C24.276,16.5 24.5,16.724 24.5,17C24.5,17.276 24.276,17.5 24,17.5C23.724,17.5 23.5,17.276 23.5,17C23.5,16.724 23.724,16.5 24,16.5M30,16.5C30.276,16.5 30.5,16.724 30.5,17C30.5,17.276 30.276,17.5 30,17.5C29.724,17.5 29.5,17.276 29.5,17C29.5,16.724 29.724,16.5 30,16.5M11,39L57,39M22,22L22,56M22,36L24.93,30.142C25.875,28.25 27.817,27.063 29.932,27.083C32.047,27.103 33.965,28.328 34.874,30.238L35.66,31.886C36.529,33.711 38.323,34.917 40.341,35.033C42.359,35.148 44.279,34.154 45.35,32.44C46.357,30.829 48.12,29.846 50.02,29.839C51.919,29.831 53.69,30.799 54.71,32.402L57,36M22,48.186L25.282,44.904C25.943,44.243 26.869,43.917 27.799,44.019C28.728,44.121 29.562,44.639 30.064,45.428L32.522,49.29C33.075,50.159 34.025,50.695 35.055,50.718C36.084,50.741 37.057,50.248 37.648,49.404L39.33,47.004C39.922,46.156 40.901,45.662 41.935,45.689C42.969,45.716 43.921,46.26 44.468,47.138L44.556,47.278C45.102,48.151 46.047,48.694 47.076,48.725C48.105,48.757 49.082,48.273 49.68,47.436C50.235,46.659 51.119,46.184 52.073,46.148C53.027,46.113 53.944,46.521 54.556,47.254L57,50.186" style="fill:none;stroke:rgb(244,244,244);stroke-width:2px;"/>
                    </g>
                </g>
            </g>
            <g id="g-root-ic_48px_92rhbbputoga-stroke" transform="matrix(1,0,0,1,98,206)">
                <g id="ic_48px_92rhbbputoga-stroke">
                    <g>
                        <path d="M15.072,30.179C15.072,24.482 17.789,19.696 23.011,19.696C28.233,19.696 30.949,24.482 30.949,30.179L30.949,37.273C30.949,42.97 28.105,47.882 23.011,47.882C17.916,47.882 15.072,42.97 15.072,37.273L15.072,30.179ZM49.91,47.979L49.91,19.551L36.295,39.738L55.315,39.738" style="fill:none;stroke:rgb(244,244,244);stroke-width:2px;"/>
                    </g>
                </g>
            </g>
            <g id="g-root-ic_1_qs62jrputnup-stroke" transform="matrix(1,0,0,1,422,206)">
                <g id="ic_1_qs62jrputnup-stroke">
                    <g>
                        <path d="M42.968,11.012L44.968,11.012C44.968,11.012 46.968,11.012 46.968,13.012L46.968,27.012C46.968,27.012 46.968,29.012 44.968,29.012L42.968,29.012C42.968,29.012 40.968,29.012 40.968,27.012L40.968,13.012C40.968,13.012 40.968,11.012 42.968,11.012M52.968,11.012L54.968,11.012C54.968,11.012 56.968,11.012 56.968,13.012L56.968,27.012C56.968,27.012 56.968,29.012 54.968,29.012L52.968,29.012C52.968,29.012 50.968,29.012 50.968,27.012L50.968,13.012C50.968,13.012 50.968,11.012 52.968,11.012M31.7,56.65C26.9,51.836 28.6,48.084 31.2,45.48L32.882,43.798C34.557,42.124 37.271,42.124 38.946,43.798L46.226,51.078C46.821,51.671 47.079,52.523 46.912,53.347C46.746,54.17 46.177,54.855 45.398,55.17C36.078,58.979 25.382,56.826 18.262,49.706C11.142,42.586 8.989,31.89 12.798,22.57C13.115,21.793 13.799,21.225 14.622,21.059C15.445,20.892 16.296,21.149 16.89,21.742L24.168,29.022C25.842,30.697 25.842,33.411 24.168,35.086L22.486,36.768C19.886,39.368 16.13,41.076 11.318,36.276" style="fill:none;stroke:rgb(244,244,244);stroke-width:2px;"/>
                    </g>
                </g>
            </g>
            <g id="g-root-ic_48px_hvwl7rpuv570-stroke" transform="matrix(1,0,0,1,74,302)">
                <g id="ic_48px_hvwl7rpuv570-stroke">
                    <g>
                        <path d="M15.072,30.179C15.072,24.482 17.789,19.695 23.011,19.695C28.233,19.695 30.949,24.482 30.949,30.179L30.949,37.273C30.949,42.969 28.105,47.882 23.011,47.882C17.916,47.882 15.072,42.969 15.072,37.273L15.072,30.179ZM37.121,27.068C37.002,24.659 38.483,19.71 45.065,19.71C51.648,19.71 52.656,24.597 52.428,27.357C52.177,30.4 50.272,33.508 42.201,33.508C49.714,33.508 53.126,35.562 53.126,41.125C53.126,45.933 48.876,47.89 44.992,47.89C42.201,47.866 36.62,46.287 36.62,40.162" style="fill:none;stroke:rgb(244,244,244);stroke-width:2px;"/>
                    </g>
                </g>
            </g>
            <g id="g-root-ic_poin_1hbypuvpuv5e3-stroke" transform="matrix(1,0,0,1,446,302)">
                <g id="ic_poin_1hbypuvpuv5e3-stroke">
                    <g>
                        <path d="M56.5,53.5C56.5,55.1 55.1,56.5 53.5,56.5L14.5,56.5C12.9,56.5 11.5,55.1 11.5,53.5L11.5,20.5C11.5,18.9 12.9,17.5 14.5,17.5L53.5,17.5C55.1,17.5 56.5,18.9 56.5,20.5L56.5,53.5ZM11.5,29.5L56.5,29.5M23.5,21.9L23.5,11.5M44.5,21.9L44.5,11.5M32,38L28.9,44.1L35.4,47M28.9,44.1L46.9,38.1M21.628,44.1C20.588,44.1 19.756,44.932 19.756,45.972C19.756,47.012 20.588,47.844 21.628,47.844C22.668,47.844 23.5,47.012 23.5,45.972C23.5,44.932 22.668,44.1 21.628,44.1Z" style="fill:none;stroke:rgb(244,244,244);stroke-width:2px;"/>
                    </g>
                </g>
            </g>
            <g id="g-root-ic_48px_zqxd2fpver5s-stroke" transform="matrix(1,0,0,1,122,110)">
                <g id="ic_48px_zqxd2fpver5s-stroke">
                    <g>
                        <path d="M15.072,30.179C15.072,24.482 17.789,19.696 23.011,19.696C28.233,19.696 30.949,24.482 30.949,30.179L30.949,37.273C30.949,42.97 28.105,47.882 23.011,47.882C17.916,47.882 15.072,42.97 15.072,37.273L15.072,30.179ZM53.693,20.121L40.379,20.121L38.988,33.144C39.817,32.315 42.353,30.657 45.865,30.657C49.971,30.657 53.813,33.447 53.427,40.052C53.028,46.894 48.912,47.904 45.529,47.904C41.945,47.904 38.405,45.361 38.073,40.565" style="fill:none;stroke:rgb(244,244,244);stroke-width:2px;"/>
                    </g>
                </g>
            </g>
            <g id="g-root-ic_48px_1cw57qfpuwjk6-stroke" transform="matrix(1,0,0,1,50,398)">
                <g id="ic_48px_1cw57qfpuwjk6-stroke">
                    <g>
                        <path d="M15.072,30.179C15.072,24.482 17.789,19.695 23.011,19.695C28.233,19.695 30.949,24.482 30.949,30.179L30.949,37.273C30.949,42.969 28.105,47.882 23.011,47.882C17.916,47.882 15.072,42.969 15.072,37.273L15.072,30.179ZM36.832,27.515C36.832,22.895 40.056,19.695 44.438,19.695C51.707,19.695 54.186,26.789 49.421,33.098L37.33,47.417L53.951,47.417" style="fill:none;stroke:rgb(244,244,244);stroke-width:2px;"/>
                    </g>
                </g>
            </g>
            <g id="g-root-ic_oval_9947puwidh-stroke" transform="matrix(1,0,0,1,470,398)">
                <g id="ic_oval_9947puwidh-stroke">
                    <g>
                        <path d="M41,57L41,52C41,51 35,48 30,46L30,42C30,42 32,41.3 32,37C33.4,37 34,33 32.064,33C32.87,31.465 33.196,29.723 33,28C32,24 22,24 21,28C16.788,27.14 20,32.422 20,33C18,33 18.6,37 20,37C20,41.3 22,42 22,42L22,46C17,48 11,51 11,52L11,57M37,29L39,29L39,33L44,29L48,29C52.971,29 57,24.971 57,20C57,15.029 52.971,11 48,11L36,11C31.029,11 27,15.029 27,20M36.5,19.5C36.633,19.499 36.76,19.552 36.854,19.646C36.948,19.74 37.001,19.867 37,20C37.001,20.133 36.948,20.26 36.854,20.354C36.76,20.448 36.633,20.501 36.5,20.5C36.224,20.5 36,20.276 36,20C36,19.724 36.224,19.5 36.5,19.5M42,19.5C42.276,19.5 42.5,19.724 42.5,20C42.5,20.276 42.276,20.5 42,20.5C41.724,20.5 41.5,20.276 41.5,20C41.5,19.724 41.724,19.5 42,19.5M47.5,19.5C47.776,19.5 48,19.724 48,20C48,20.276 47.776,20.5 47.5,20.5C47.224,20.5 47,20.276 47,20C47,19.724 47.224,19.5 47.5,19.5" style="fill:none;stroke:rgb(244,244,244);stroke-width:2px;"/>
                    </g>
                </g>
            </g>
            <g id="g-root-ic_file_zqaz53puwhdz-stroke" transform="matrix(1,0,0,1,494,494)">
                <g id="ic_file_zqaz53puwhdz-stroke">
                    <g>
                        <path d="M57,28C57,28.552 56.552,29 56,29L44,29C43.448,29 43,28.552 43,28L43,12C43,11.448 43.448,11 44,11L50,11C50.633,11.034 51.236,11.284 51.708,11.708L56.292,16.292C56.716,16.764 56.966,17.367 57,18L57,28ZM57,17L50,17L50,11M20,57L32,57M26,53L26,57M11,49L41,49M27,31L27,28C27,22.477 31.477,18 37,18M31,27L27,31L23,27M35,33L38,33C39.657,33 41,34.343 41,36L41,50C41,51.657 39.657,53 38,53L14,53C12.343,53 11,51.657 11,50L11,36C11,34.343 12.343,33 14,33L18,33" style="fill:none;stroke:rgb(244,244,244);stroke-width:2px;"/>
                    </g>
                </g>
            </g>
            <g id="g-root-ic_48px_9947puxvrc-stroke" transform="matrix(1,0,0,1,26,494)">
                <g id="ic_48px_9947puxvrc-stroke">
                    <g>
                        <path d="M37.842,23.377L46.297,20.184L46.297,47.951M15.072,30.179C15.072,24.482 17.789,19.695 23.011,19.695C28.233,19.695 30.949,24.482 30.949,30.179L30.949,37.273C30.949,42.969 28.105,47.882 23.011,47.882C17.916,47.882 15.072,42.969 15.072,37.273L15.072,30.179Z" style="fill:none;stroke:rgb(244,244,244);stroke-width:2px;"/>
                    </g>
                </g>
            </g>
        </g>
    </g>
    <defs>
        <linearGradient id="_Linear1" x1="0" y1="0" x2="1" y2="0" gradientUnits="userSpaceOnUse" gradientTransform="matrix(10,490,-490,10,0,0)"><stop offset="0" style="stop-color:rgb(149,149,149);stop-opacity:1"/><stop offset="1" style="stop-color:rgb(127,127,127);stop-opacity:1"/></linearGradient>
        <linearGradient id="_Linear2" x1="0" y1="0" x2="1" y2="0" gradientUnits="userSpaceOnUse" gradientTransform="matrix(10,490,-490,10,0,0)"><stop offset="0" style="stop-color:rgb(149,149,149);stop-opacity:1"/><stop offset="1" style="stop-color:rgb(127,127,127);stop-opacity:1"/></linearGradient>
        <linearGradient id="_Linear3" x1="0" y1="0" x2="1" y2="0" gradientUnits="userSpaceOnUse" gradientTransform="matrix(10,106,-106,10,-1.77636e-15,0)"><stop offset="0" style="stop-color:rgb(78,136,230);stop-opacity:1"/><stop offset="1" style="stop-color:rgb(79,126,202);stop-opacity:1"/></linearGradient>
        <linearGradient id="_Linear4" x1="0" y1="0" x2="1" y2="0" gradientUnits="userSpaceOnUse" gradientTransform="matrix(10,106,-106,10,0,0)"><stop offset="0" style="stop-color:rgb(59,196,130);stop-opacity:1"/><stop offset="1" style="stop-color:rgb(68,152,112);stop-opacity:1"/></linearGradient>
        <linearGradient id="_Linear5" x1="0" y1="0" x2="1" y2="0" gradientUnits="userSpaceOnUse" gradientTransform="matrix(10,106,-106,10,0,0)"><stop offset="0" style="stop-color:rgb(145,187,57);stop-opacity:1"/><stop offset="1" style="stop-color:rgb(125,152,68);stop-opacity:1"/></linearGradient>
        <linearGradient id="_Linear6" x1="0" y1="0" x2="1" y2="0" gradientUnits="userSpaceOnUse" gradientTransform="matrix(10,106,-106,10,0,0)"><stop offset="0" style="stop-color:rgb(31,169,215);stop-opacity:1"/><stop offset="1" style="stop-color:rgb(49,135,163);stop-opacity:1"/></linearGradient>
        <linearGradient id="_Linear7" x1="0" y1="0" x2="1" y2="0" gradientUnits="userSpaceOnUse" gradientTransform="matrix(10,106,-106,10,0,0)"><stop offset="0" style="stop-color:rgb(127,100,233);stop-opacity:1"/><stop offset="1" style="stop-color:rgb(119,97,207);stop-opacity:1"/></linearGradient>
    </defs>
</svg>
