<?xml version="1.0" encoding="UTF-8" standalone="no"?>
<!DOCTYPE svg PUBLIC "-//W3C//DTD SVG 1.1//EN" "http://www.w3.org/Graphics/SVG/1.1/DTD/svg11.dtd">
<svg width="100%" height="100%" viewBox="0 0 687 858" version="1.1" xmlns="http://www.w3.org/2000/svg" xmlns:xlink="http://www.w3.org/1999/xlink" xml:space="preserve" xmlns:serif="http://www.serif.com/" style="fill-rule:evenodd;clip-rule:evenodd;stroke-linecap:round;stroke-linejoin:round;">
    <g id="blend" transform="matrix(1.05734,0,0,1.05734,-19.68,-25.6271)">
        <g id="items">
            <g id="blend1" serif:id="blend">
                <g id="g-root-cp_5_shape-5_1d14zpm1f415hl-fill" transform="matrix(1,0,0,1,306.503,80)">
                    <g id="cp_5_shape-5_1d14zpm1f415hl-fill">
                        <g>
                            <path d="M27.697,268L15.697,268L15.697,160L27.697,160L27.697,268ZM32.297,28.191L27.697,28.191L27.697,160L15.697,160L15.697,28.191L11.017,28.191C10.237,28.191 9.747,27.341 10.137,26.661L20.86,10.448C21.256,9.849 22.136,9.851 22.53,10.451L33.177,26.661C33.577,27.341 33.087,28.191 32.297,28.191Z" style="fill:rgb(183,183,183);"/>
                        </g>
                    </g>
                </g>
                <g id="g-root-cp_1_shape-1_zpohca1f4172j-fill" transform="matrix(1,0,0,1,24.2,79.8164)">
                    <g id="cp_1_shape-1_zpohca1f4172j-fill">
                        <g>
                            <path d="M214,304.184L46,304.183C26.118,304.183 10,288.081 10,268.199L10,268.184L250,268.184C250,288.066 233.882,304.184 214,304.184ZM254.6,28.375L250,28.375L250,160.184L10,160.184C10,140.302 26.118,124.505 46,124.505L172,124.505C213.07,124.505 238,94.374 238,55.034L238,28.374L233.32,28.374C232.54,28.374 232.05,27.524 232.44,26.844L243.163,10.632C243.559,10.033 244.439,10.034 244.833,10.635L255.48,26.844C255.88,27.525 255.39,28.375 254.6,28.375ZM250,160.184L250,268.184L10,268.184L10,160.184L250,160.184Z" style="fill:rgb(67,221,147);"/>
                        </g>
                    </g>
                </g>
                <g id="g-root-cp_3_shape-3_meug221f415hp-fill" transform="matrix(1,0,0,1,276.503,80)">
                    <g id="cp_3_shape-3_meug221f415hp-fill">
                        <g>
                            <path d="M27.697,268L15.697,268L15.697,160L27.697,160L27.697,268ZM32.297,28.191L27.697,28.191L27.697,160L15.697,160L15.697,28.191L11.017,28.191C10.237,28.191 9.747,27.341 10.137,26.661L20.86,10.448C21.256,9.849 22.136,9.851 22.53,10.451L33.177,26.661C33.577,27.341 33.087,28.191 32.297,28.191Z" style="fill:rgb(135,105,253);"/>
                        </g>
                    </g>
                </g>
                <g id="g-root-cp_3_shape-3_1_4nkfka1f417uv-fill" transform="matrix(1,0,0,1,24.2,338)">
                    <g id="cp_3_shape-3_1_4nkfka1f417uv-fill">
                        <g>
                            <path d="M214,64.321C244,64.321 268,46 268,10L280,10L280,100.306L10,100.306C10,80.423 26.118,64.321 46,64.321L214,64.321Z" style="fill:rgb(135,105,253);"/>
                        </g>
                    </g>
                </g>
                <g id="g-root-cp_5_shape-5_1_1qdug961f4162x-fill" transform="matrix(1,0,0,1,312.2,338)">
                    <g id="cp_5_shape-5_1_1qdug961f4162x-fill">
                        <g>
                            <rect x="10" y="10" width="12" height="222" style="fill:rgb(183,183,183);"/>
                        </g>
                    </g>
                </g>
                <g id="g-root-cp_3_shape-3_2_1ly0y4q1f416v7-fill" transform="matrix(1,0,0,1,24.2,428)">
                    <g id="cp_3_shape-3_2_1ly0y4q1f416v7-fill">
                        <g>
                            <path d="M280,10L280,141.979L10,141.979L10,10L280,10ZM244,178.008L46,178.008C26.118,178.008 10,161.905 10,142.023L10,142.008L280,142.008C280,161.89 263.882,178.008 244,178.008Z" style="fill:rgb(135,105,253);"/>
                        </g>
                    </g>
                </g>
                <g id="g-root-cp_5_shape-5_2_18n6wui1f415ad-fill" transform="matrix(1,0,0,1,24.2,560)">
                    <g id="cp_5_shape-5_2_18n6wui1f415ad-fill">
                        <g>
                            <path d="M244,64.137C274,64.137 298,45.878 298,10L310,10L310,100L10,100C10,80.185 26.118,64.137 46,64.137L244,64.137Z" style="fill:rgb(183,183,183);"/>
                        </g>
                    </g>
                </g>
                <g id="g-root-cp_5_shape-5_3_vbqeh61f416vb-fill" transform="matrix(1,0,0,1,24.2,650)">
                    <g id="cp_5_shape-5_3_vbqeh61f416vb-fill">
                        <g>
                            <path d="M310,10L310,118L10,118L10,10L310,10ZM274,154.008L46,154.008C26.118,154.008 10,137.882 10,118L310,118C310,137.882 293.882,154.008 274,154.008Z" style="fill:rgb(183,183,183);"/>
                        </g>
                    </g>
                </g>
                <g id="g-root-cp_2_shape-2_4pfutm1f416vd-fill" transform="matrix(1,0,0,1,396.578,79.8164)">
                    <g id="cp_2_shape-2_4pfutm1f416vd-fill">
                        <g>
                            <path d="M51.622,304.184L219.622,304.184C239.504,304.184 255.622,288.081 255.622,268.199L255.622,268.184L15.622,268.184C15.622,288.066 31.74,304.184 51.622,304.184ZM11.022,28.375L15.622,28.375L15.622,160.184L255.622,160.184C255.622,140.302 239.505,124.505 219.623,124.505L93.622,124.505C52.552,124.505 27.622,94.374 27.622,55.034L27.622,28.374L32.302,28.374C33.082,28.374 33.572,27.524 33.182,26.844L22.459,10.632C22.063,10.033 21.184,10.034 20.79,10.635L10.142,26.844C9.742,27.525 10.232,28.375 11.022,28.375ZM15.622,160.184L15.622,268.184L255.622,268.184L255.622,160.184L15.622,160.184Z" style="fill:rgb(26,195,251);"/>
                        </g>
                    </g>
                </g>
                <g id="g-root-cp_4_shape-4_1q5qa4q1f42jnv-fill" transform="matrix(1,0,0,1,366.583,80)">
                    <g id="cp_4_shape-4_1q5qa4q1f42jnv-fill">
                        <g>
                            <path d="M15.623,268L27.623,268L27.623,160L15.623,160L15.623,268ZM11.022,28.191L15.622,28.191L15.622,160L27.622,160L27.622,28.191L32.302,28.191C33.082,28.191 33.572,27.341 33.182,26.661L22.459,10.448C22.063,9.849 21.184,9.851 20.79,10.451L10.142,26.661C9.742,27.341 10.232,28.191 11.022,28.191Z" style="fill:rgb(166,218,55);"/>
                        </g>
                    </g>
                </g>
                <g id="g-root-cp_6_shape-6_1cu9rre1f42l8t-fill" transform="matrix(1,0,0,1,336.583,80)">
                    <g id="cp_6_shape-6_1cu9rre1f42l8t-fill">
                        <g>
                            <path d="M15.623,268L27.623,268L27.623,160L15.623,160L15.623,268ZM11.022,28.191L15.622,28.191L15.622,160L27.622,160L27.622,28.191L32.302,28.191C33.082,28.191 33.572,27.341 33.182,26.661L22.459,10.448C22.063,9.849 21.184,9.851 20.79,10.451L10.142,26.661C9.742,27.341 10.232,28.191 11.022,28.191Z" style="fill:rgb(247,148,56);"/>
                        </g>
                    </g>
                </g>
                <g id="g-root-cp_4_shape-4_1_zjfqh61f42jnz-fill" transform="matrix(1,0,0,1,372.2,338)">
                    <g id="cp_4_shape-4_1_zjfqh61f42jnz-fill">
                        <g>
                            <path d="M76,64.321C46,64.321 22,46 22,10L10,10L10,100.306L280,100.306C280,80.423 263.882,64.321 244,64.321L76,64.321Z" style="fill:rgb(166,218,55);"/>
                        </g>
                    </g>
                </g>
                <g id="g-root-cp_4_shape-4_2_v3m8cq1f42kg9-fill" transform="matrix(1,0,0,1,372.2,428)">
                    <g id="cp_4_shape-4_2_v3m8cq1f42kg9-fill">
                        <g>
                            <path d="M10,10L10,118L280,118L280,10L10,10ZM46,154L244,154C263.882,154 280,137.898 280,118.016L280,118L10,118C10,137.882 26.118,154 46,154Z" style="fill:rgb(166,218,55);"/>
                        </g>
                    </g>
                </g>
                <g id="g-root-cp_6_shape-6_1_dcyoy21f42jnn-fill" transform="matrix(1,0,0,1,342.2,338)">
                    <g id="cp_6_shape-6_1_dcyoy21f42jnn-fill">
                        <g>
                            <rect x="10" y="10" width="12" height="198" style="fill:rgb(247,148,56);"/>
                        </g>
                    </g>
                </g>
                <g id="g-root-cp_6_shape-6_2_1i6kq1f42l8l-fill" transform="matrix(1,0,0,1,342.2,536)">
                    <g id="cp_6_shape-6_2_1i6kq1f42l8l-fill">
                        <g>
                            <path d="M76,64.321C46,64.321 22,46 22,10L10,10L10,100.306L310,100.306C310,80.423 293.882,64.321 274,64.321L76,64.321Z" style="fill:rgb(247,148,56);"/>
                        </g>
                    </g>
                </g>
                <g id="g-root-cp_6_shape-6_3_1cw570q1f42k9b-fill" transform="matrix(1,0,0,1,342.2,626)">
                    <g id="cp_6_shape-6_3_1cw570q1f42k9b-fill">
                        <g>
                            <path d="M10,10L10,118L310,118L310,10L10,10ZM46,154L274,154C293.882,154 310,137.898 310,118.016L310,118L10,118C10,137.882 26.118,154 46,154Z" style="fill:rgb(247,148,56);"/>
                        </g>
                    </g>
                </g>
                <g id="g-root-tx_ensuresu_v98lai1f46tqf-fill" transform="matrix(1,0,0,1,54.2,734)">
                    <g id="tx_ensuresu_v98lai1f46tqf-fill">
                        <g>
                            <g>
                                <g transform="matrix(1,0,0,1,13.53,28.2)">
                                    <text x="0px" y="0px" style="font-family:'ArialMT', 'Arial', sans-serif;font-size:15px;fill:rgb(44,44,44);">Ensures uninterrupted service with</text>
                                </g>
                                <g transform="matrix(1,0,0,1,83.1,46.2)">
                                    <text x="0px" y="0px" style="font-family:'ArialMT', 'Arial', sans-serif;font-size:15px;fill:rgb(44,44,44);">no downtime.</text>
                                </g>
                            </g>
                        </g>
                    </g>
                </g>
                <g id="g-root-tx_provides_1lvj4y21f4874a-fill" transform="matrix(1,0,0,1,438.2,314)">
                    <g id="tx_provides_1lvj4y21f4874a-fill">
                        <g>
                            <g>
                                <g transform="matrix(1,0,0,1,14.28,28.2)">
                                    <text x="0px" y="0px" style="font-family:'ArialMT', 'Arial', sans-serif;font-size:15px;fill:rgb(44,44,44);">Provides clear and high-</text>
                                </g>
                                <g transform="matrix(1,0,0,1,33.08,46.2)">
                                    <text x="0px" y="0px" style="font-family:'ArialMT', 'Arial', sans-serif;font-size:15px;fill:rgb(44,44,44);">quality voice calls.</text>
                                </g>
                            </g>
                        </g>
                    </g>
                </g>
                <g id="g-root-tx_reducese_18i745m1f42k1v-fill" transform="matrix(1,0,0,1,54.2,314)">
                    <g id="tx_reducese_18i745m1f42k1v-fill">
                        <g>
                            <g>
                                <g transform="matrix(1,0,0,1,21.75,28.2)">
                                    <text x="0px" y="0px" style="font-family:'ArialMT', 'Arial', sans-serif;font-size:15px;fill:rgb(44,44,44);">Reduces expenses with</text>
                                </g>
                                <g transform="matrix(1,0,0,1,13.98,46.2)">
                                    <g transform="matrix(15,0,0,15,8.34229,0)">
                                    </g>
                                    <g transform="matrix(15,0,0,15,12.3486,0)">
                                    </g>
                                    <text x="0px" y="0px" style="font-family:'ArialMT', 'Arial', sans-serif;font-size:15px;fill:rgb(44,44,44);">aﬀordable V<tspan x="79.739px 88.081px 92.249px 101.982px 106.15px " y="0px 0px 0px 0px 0px ">oIP c</tspan>all rates.</text>
                                </g>
                            </g>
                        </g>
                    </g>
                </g>
                <g transform="matrix(1,0,0,1,483.26,312)">
                    <g id="g-root-tx_callclar_zn6o5m1f4883l-fill">
                        <g id="tx_callclar_zn6o5m1f4883l-fill">
                            <g>
                                <g>
                                    <text x="0px" y="0px" style="font-family:'Arial-BoldMT', 'Arial', sans-serif;font-weight:700;font-size:20px;fill:rgb(44,44,44);">Call Clarity</text>
                                </g>
                            </g>
                        </g>
                    </g>
                </g>
                <g transform="matrix(1,0,0,1,81.81,510)">
                    <g id="g-root-tx_globalco_1d0ilsa1f45dzf-fill">
                        <g id="tx_globalco_1d0ilsa1f45dzf-fill">
                            <g>
                                <g>
                                    <text x="0px" y="0px" style="font-family:'Arial-BoldMT', 'Arial', sans-serif;font-weight:700;font-size:20px;fill:rgb(44,44,44);">Global Connectivity</text>
                                </g>
                            </g>
                        </g>
                    </g>
                </g>
                <g transform="matrix(1,0,0,1,470.49,510)">
                    <g id="g-root-tx_scalabil_4my1my1f49ki4-fill">
                        <g id="tx_scalabil_4my1my1f49ki4-fill">
                            <g>
                                <g>
                                    <text x="0px" y="0px" style="font-family:'Arial-BoldMT', 'Arial', sans-serif;font-weight:700;font-size:20px;fill:rgb(44,44,44);">Scalability</text>
                                </g>
                            </g>
                        </g>
                    </g>
                </g>
                <g id="g-root-tx_enabless_hyek0a1f45ero-fill" transform="matrix(1,0,0,1,63.2,512)">
                    <g id="tx_enabless_hyek0a1f45ero-fill">
                        <g>
                            <g>
                                <g transform="matrix(1,0,0,1,43.85,31.2)">
                                    <text x="0px" y="0px" style="font-family:'ArialMT', 'Arial', sans-serif;font-size:15px;fill:rgb(44,44,44);">Enables seamless</text>
                                </g>
                                <g transform="matrix(1,0,0,1,15.22,49.2)">
                                    <text x="0px" y="0px" style="font-family:'ArialMT', 'Arial', sans-serif;font-size:15px;fill:rgb(44,44,44);">communication across the</text>
                                </g>
                                <g transform="matrix(1,0,0,1,83.68,67.2)">
                                    <text x="0px" y="0px" style="font-family:'ArialMT', 'Arial', sans-serif;font-size:15px;fill:rgb(44,44,44);">globe.</text>
                                </g>
                            </g>
                        </g>
                    </g>
                </g>
                <g id="g-root-tx_adaptsto_18ly1u21f49l39-fill" transform="matrix(1,0,0,1,405.2,512)">
                    <g id="tx_adaptsto_18ly1u21f49l39-fill">
                        <g>
                            <g>
                                <g transform="matrix(1,0,0,1,17.29,28.2)">
                                    <text x="0px" y="0px" style="font-family:'ArialMT', 'Arial', sans-serif;font-size:15px;fill:rgb(44,44,44);">Adapts to any business size</text>
                                </g>
                                <g transform="matrix(1,0,0,1,73.64,46.2)">
                                    <text x="0px" y="0px" style="font-family:'ArialMT', 'Arial', sans-serif;font-size:15px;fill:rgb(44,44,44);">and needs.</text>
                                </g>
                            </g>
                        </g>
                    </g>
                </g>
                <g transform="matrix(1,0,0,1,95.41,312)">
                    <g id="g-root-tx_costsavi_3dlu21f42k8y-fill">
                        <g id="tx_costsavi_3dlu21f42k8y-fill">
                            <g>
                                <g>
                                    <text x="0px" y="0px" style="font-family:'Arial-BoldMT', 'Arial', sans-serif;font-weight:700;font-size:20px;fill:rgb(44,44,44);">Cost Savings</text>
                                </g>
                            </g>
                        </g>
                    </g>
                </g>
                <g transform="matrix(1,0,0,1,434.74,708)">
                    <g id="g-root-tx_expertsu_1d152ve1f4b0un-fill">
                        <g id="tx_expertsu_1d152ve1f4b0un-fill">
                            <g>
                                <g>
                                    <text x="0px" y="0px" style="font-family:'Arial-BoldMT', 'Arial', sans-serif;font-weight:700;font-size:20px;fill:rgb(44,44,44);">Expert Support</text>
                                </g>
                            </g>
                        </g>
                    </g>
                </g>
                <g transform="matrix(1,0,0,1,116.02,732)">
                    <g id="g-root-tx_zerodown_1qbcn2i1f46sy6-fill">
                        <g id="tx_zerodown_1qbcn2i1f46sy6-fill">
                            <g>
                                <g>
                                    <text x="0px" y="0px" style="font-family:'Arial-BoldMT', 'Arial', sans-serif;font-weight:700;font-size:20px;fill:rgb(44,44,44);">Zero Downtime</text>
                                </g>
                            </g>
                        </g>
                    </g>
                </g>
                <g id="g-root-tx_offersre_hz113e1f4b1mw-fill" transform="matrix(1,0,0,1,378.2,710)">
                    <g id="tx_offersre_hz113e1f4b1mw-fill">
                        <g>
                            <g>
                                <g transform="matrix(1,0,0,1,13.91,28.2)">
                                    <g transform="matrix(15,0,0,15,11.6675,0)">
                                    </g>
                                    <g transform="matrix(15,0,0,15,15.6738,0)">
                                    </g>
                                    <text x="0px" y="0px" style="font-family:'ArialMT', 'Arial', sans-serif;font-size:15px;fill:rgb(44,44,44);">Oﬀers reliable support whenever</text>
                                </g>
                                <g transform="matrix(1,0,0,1,95.63,46.2)">
                                    <text x="0px" y="0px" style="font-family:'ArialMT', 'Arial', sans-serif;font-size:15px;fill:rgb(44,44,44);">needed.</text>
                                </g>
                            </g>
                        </g>
                    </g>
                </g>
                <g id="g-root-cp_5_shape-5_1d14zpm1f415hl-stroke" transform="matrix(1,0,0,1,306.503,80)">
                    <g id="cp_5_shape-5_1d14zpm1f415hl-stroke">
                        <g>
                            <path d="M15.697,160L15.697,268M27.697,268L27.697,160M15.697,160L15.697,28.191L11.017,28.191C10.237,28.191 9.747,27.341 10.137,26.661L20.86,10.448C21.256,9.849 22.136,9.851 22.53,10.451L33.177,26.661C33.577,27.341 33.087,28.191 32.297,28.191L27.697,28.191L27.697,160" style="fill:none;stroke:rgb(44,44,44);stroke-width:2px;"/>
                        </g>
                    </g>
                </g>
                <g id="g-root-cp_1_shape-1_zpohca1f4172j-stroke" transform="matrix(1,0,0,1,24.2,79.8164)">
                    <g id="cp_1_shape-1_zpohca1f4172j-stroke">
                        <g>
                            <path d="M10,160.184C10,140.301 26.118,124.321 46,124.321L172,124.321C213.07,124.321 238,94.191 238,54.851L238,28.191L233.32,28.191C232.54,28.191 232.05,27.341 232.44,26.661L243.163,10.448C243.559,9.849 244.439,9.851 244.833,10.451L255.48,26.661C255.88,27.341 255.39,28.191 254.6,28.191L250,28.191L250,160.184M250,268.184C250,288.066 233.882,304.191 214,304.191L46,304.191C26.118,304.191 10,288.081 10,268.199L10,268.184M250,268.184L250,160.184M10,160.184L10,268.184" style="fill:none;stroke:rgb(44,44,44);stroke-width:2px;"/>
                        </g>
                    </g>
                </g>
                <g id="g-root-cp_3_shape-3_meug221f415hp-stroke" transform="matrix(1,0,0,1,276.503,80)">
                    <g id="cp_3_shape-3_meug221f415hp-stroke">
                        <g>
                            <path d="M15.697,160L15.697,268M27.697,268L27.697,160M15.697,160L15.697,28.191L11.017,28.191C10.237,28.191 9.747,27.341 10.137,26.661L20.86,10.448C21.256,9.849 22.136,9.851 22.53,10.451L33.177,26.661C33.577,27.341 33.087,28.191 32.297,28.191L27.697,28.191L27.697,160" style="fill:none;stroke:rgb(44,44,44);stroke-width:2px;"/>
                        </g>
                    </g>
                </g>
                <g id="g-root-cp_3_shape-3_1_4nkfka1f417uv-stroke" transform="matrix(1,0,0,1,24.2,338)">
                    <g id="cp_3_shape-3_1_4nkfka1f417uv-stroke">
                        <g>
                            <path d="M268,10C268,46 244,64.321 214,64.321L46,64.321C26.118,64.321 10,80.423 10,100.306M280,100.306L280,10" style="fill:none;stroke:rgb(44,44,44);stroke-width:2px;"/>
                        </g>
                    </g>
                </g>
                <g id="g-root-cp_5_shape-5_1_1qdug961f4162x-stroke" transform="matrix(1,0,0,1,312.2,338)">
                    <g id="cp_5_shape-5_1_1qdug961f4162x-stroke">
                        <g>
                            <path d="M10,10L10,232M22,232L22,10" style="fill:none;stroke:rgb(44,44,44);stroke-width:2px;"/>
                        </g>
                    </g>
                </g>
                <g id="g-root-cp_3_shape-3_2_1ly0y4q1f416v7-stroke" transform="matrix(1,0,0,1,24.2,428)">
                    <g id="cp_3_shape-3_2_1ly0y4q1f416v7-stroke">
                        <g>
                            <path d="M280,141.979L280,10M10,10L10,142M280,142.008C280,161.89 263.882,178.008 244,178.008L46,178.008C26.118,178.008 10,161.905 10,142.023L10,142.008" style="fill:none;stroke:rgb(44,44,44);stroke-width:2px;"/>
                        </g>
                    </g>
                </g>
                <g id="g-root-cp_5_shape-5_2_18n6wui1f415ad-stroke" transform="matrix(1,0,0,1,24.2,560)">
                    <g id="cp_5_shape-5_2_18n6wui1f415ad-stroke">
                        <g>
                            <path d="M298,10C298,45.878 274,64.137 244,64.137L46,64.137C26.118,64.137 10,80.185 10,100M310,100L310,10" style="fill:none;stroke:rgb(44,44,44);stroke-width:2px;"/>
                        </g>
                    </g>
                </g>
                <g id="g-root-cp_5_shape-5_3_vbqeh61f416vb-stroke" transform="matrix(1,0,0,1,24.2,650)">
                    <g id="cp_5_shape-5_3_vbqeh61f416vb-stroke">
                        <g>
                            <path d="M310,118L310,10M10,10L10,118M310,118C310,137.882 293.882,154.008 274,154.008L46,154.008C26.118,154.008 10,137.882 10,118" style="fill:none;stroke:rgb(44,44,44);stroke-width:2px;"/>
                        </g>
                    </g>
                </g>
                <g id="g-root-cp_2_shape-2_4pfutm1f416vd-stroke" transform="matrix(1,0,0,1,396.578,79.8164)">
                    <g id="cp_2_shape-2_4pfutm1f416vd-stroke">
                        <g>
                            <path d="M255.622,160.184C255.622,140.301 239.505,124.321 219.623,124.321L93.622,124.321C52.552,124.321 27.622,94.191 27.622,54.851L27.622,28.191L32.302,28.191C33.082,28.191 33.572,27.341 33.182,26.661L22.459,10.448C22.063,9.849 21.184,9.851 20.79,10.451L10.142,26.661C9.742,27.341 10.232,28.191 11.022,28.191L15.622,28.191L15.622,160.184M15.622,268.184C15.622,288.066 31.74,304.184 51.622,304.184L219.623,304.183C239.505,304.183 255.622,288.081 255.622,268.199L255.622,268.184M15.622,268.184L15.622,160.184M255.622,160.184L255.622,268.184" style="fill:none;stroke:rgb(44,44,44);stroke-width:2px;"/>
                        </g>
                    </g>
                </g>
                <g id="g-root-cp_4_shape-4_1q5qa4q1f42jnv-stroke" transform="matrix(1,0,0,1,366.583,80)">
                    <g id="cp_4_shape-4_1q5qa4q1f42jnv-stroke">
                        <g>
                            <path d="M27.622,160L27.622,268M15.622,268L15.622,160M27.622,160L27.622,28.191L32.302,28.191C33.082,28.191 33.572,27.341 33.182,26.661L22.459,10.448C22.063,9.849 21.184,9.851 20.79,10.451L10.142,26.661C9.742,27.341 10.232,28.191 11.022,28.191L15.622,28.191L15.622,160" style="fill:none;stroke:rgb(44,44,44);stroke-width:2px;"/>
                        </g>
                    </g>
                </g>
                <g id="g-root-cp_6_shape-6_1cu9rre1f42l8t-stroke" transform="matrix(1,0,0,1,336.583,80)">
                    <g id="cp_6_shape-6_1cu9rre1f42l8t-stroke">
                        <g>
                            <path d="M27.622,160L27.622,268M15.622,268L15.622,160M27.622,160L27.622,28.191L32.302,28.191C33.082,28.191 33.572,27.341 33.182,26.661L22.459,10.448C22.063,9.849 21.184,9.851 20.79,10.451L10.142,26.661C9.742,27.341 10.232,28.191 11.022,28.191L15.622,28.191L15.622,160" style="fill:none;stroke:rgb(44,44,44);stroke-width:2px;"/>
                        </g>
                    </g>
                </g>
                <g id="g-root-cp_4_shape-4_1_zjfqh61f42jnz-stroke" transform="matrix(1,0,0,1,372.2,338)">
                    <g id="cp_4_shape-4_1_zjfqh61f42jnz-stroke">
                        <g>
                            <path d="M22,10C22,46 46,64.321 76,64.321L244,64.321C263.882,64.321 280,80.423 280,100.306M10,100.306L10,10" style="fill:none;stroke:rgb(44,44,44);stroke-width:2px;"/>
                        </g>
                    </g>
                </g>
                <g id="g-root-cp_4_shape-4_2_v3m8cq1f42kg9-stroke" transform="matrix(1,0,0,1,372.2,428)">
                    <g id="cp_4_shape-4_2_v3m8cq1f42kg9-stroke">
                        <g>
                            <path d="M10,118L10,10M280,10L280,118M10,118C10,137.882 26.118,154.008 46,154.008L244,154.008C263.882,154.008 280,137.898 280,118.016L280,118" style="fill:none;stroke:rgb(44,44,44);stroke-width:2px;"/>
                        </g>
                    </g>
                </g>
                <g id="g-root-cp_6_shape-6_1_dcyoy21f42jnn-stroke" transform="matrix(1,0,0,1,342.2,338)">
                    <g id="cp_6_shape-6_1_dcyoy21f42jnn-stroke">
                        <g>
                            <path d="M22,10L22,208M10,208L10,10" style="fill:none;stroke:rgb(44,44,44);stroke-width:2px;"/>
                        </g>
                    </g>
                </g>
                <g id="g-root-cp_6_shape-6_2_1i6kq1f42l8l-stroke" transform="matrix(1,0,0,1,342.2,536)">
                    <g id="cp_6_shape-6_2_1i6kq1f42l8l-stroke">
                        <g>
                            <path d="M22,10C22,46 46,64.321 76,64.321L274,64.321C293.882,64.321 310,80.423 310,100.306M10,100.306L10,10" style="fill:none;stroke:rgb(44,44,44);stroke-width:2px;"/>
                        </g>
                    </g>
                </g>
                <g id="g-root-cp_6_shape-6_3_1cw570q1f42k9b-stroke" transform="matrix(1,0,0,1,342.2,626)">
                    <g id="cp_6_shape-6_3_1cw570q1f42k9b-stroke">
                        <g>
                            <path d="M10,118L10,10M310,10L310,118M10,118C10,137.882 26.118,154.008 46,154.008L274,154.008C293.882,154.008 310,137.898 310,118.016L310,118" style="fill:none;stroke:rgb(44,44,44);stroke-width:2px;"/>
                        </g>
                    </g>
                </g>
                <g id="g-root-ic_netw_146r0sq1f45dsd-stroke" transform="matrix(1,0,0,1,135.2,416)">
                    <g id="ic_netw_146r0sq1f45dsd-stroke">
                        <g>
                            <path d="M11.072,33.996C11.072,46.699 21.369,56.996 34.072,56.996C46.775,56.996 57.072,46.699 57.072,33.996C57.072,21.293 46.775,10.996 34.072,10.996C21.369,10.996 11.072,21.293 11.072,33.996ZM23.072,25.496C23.072,27.981 25.087,29.996 27.572,29.996C30.057,29.996 32.072,27.981 32.072,25.496C32.072,23.011 30.057,20.996 27.572,20.996C25.087,20.996 23.072,23.011 23.072,25.496L23.072,25.496ZM36.072,45.496C36.072,46.877 37.191,47.996 38.572,47.996C39.953,47.996 41.072,46.877 41.072,45.496C41.072,44.115 39.953,42.996 38.572,42.996C37.191,42.996 36.072,44.115 36.072,45.496L36.072,45.496ZM44.072,30.496C44.072,32.429 45.639,33.996 47.572,33.996C49.505,33.996 51.072,32.429 51.072,30.496C51.072,28.563 49.505,26.996 47.572,26.996C45.639,26.996 44.072,28.563 44.072,30.496L44.072,30.496ZM32.072,25C36.543,25.17 40.803,26.945 44.072,30M48.27,33.928L49.07,34.996C49.07,34.996 52.07,38.996 52.07,47.996M43.718,13.11L44.072,14C45.52,18.289 46.197,22.799 46.072,27.324M45.072,33C44.821,37.13 43.333,41.09 40.8,44.362M37.376,47.692L37.072,48C37.072,48 32.072,53 21.072,53M34.072,11C31.336,13.927 29.136,17.311 27.572,21M25.236,29.344L25.072,30C23.982,35.409 24.684,41.026 27.072,46C30.472,52.812 39.072,56 39.072,56L39.818,56.278M23.072,25.496C23.072,25.496 15.4,26.046 11.522,29.442M11.632,39.064L12.072,38.996C12.072,38.996 25.834,36.88 37.02,43.536" style="fill:none;stroke:rgb(44,44,44);stroke-width:2px;"/>
                        </g>
                    </g>
                </g>
                <g id="g-root-ic_grow_4o6zt61f49mo6-stroke" transform="matrix(1,0,0,1,483.2,416)">
                    <g id="ic_grow_4o6zt61f49mo6-stroke">
                        <g>
                            <path d="M36.982,11C36.456,24.896 25.024,35 11,35M33,15L37,11L41,15M55.498,15.904C55.822,15.755 56.202,15.79 56.494,15.996C56.785,16.202 56.945,16.548 56.912,16.904C56.598,20.74 55.148,29.556 48.49,29.556C45.279,29.497 42.707,26.877 42.707,23.665C42.707,20.453 45.279,17.833 48.49,17.774C50.928,17.626 53.311,16.99 55.498,15.904ZM50.954,22.346C47.626,23.639 45.038,26.335 43.882,29.714C43.627,30.449 43.498,31.222 43.5,32L43.5,57M11,57L57,57M11.5,52C11.5,52 15.5,52 15.5,57C15.5,57 15.5,52 19.5,52M29.5,53C30.094,51.276 31.679,50.088 33.5,50M28.5,43.928C29.672,45.099 29.672,46.999 28.501,48.171C27.329,49.342 25.43,49.343 24.258,48.172C23.23,46.544 22.459,44.766 21.974,42.902C21.861,42.546 21.956,42.156 22.22,41.892C22.484,41.628 22.874,41.533 23.23,41.646C25.093,42.132 26.871,42.901 28.5,43.928L28.5,43.928ZM28.4,48.274C29.12,49.383 29.502,50.678 29.5,52L29.5,57M28.474,34.466C28.124,34.52 27.829,34.755 27.698,35.084C27.567,35.413 27.619,35.786 27.836,36.066C29.836,38.616 34.414,43.466 38.74,40.698C40.935,39.299 41.581,36.386 40.182,34.191C38.783,31.995 35.869,31.35 33.674,32.75C32.07,33.657 30.303,34.24 28.474,34.466L28.474,34.466ZM34.32,36.692C37.122,36.134 40.027,36.84 42.26,38.622C42.747,39.009 43.166,39.475 43.5,40" style="fill:none;stroke:rgb(44,44,44);stroke-width:2px;"/>
                        </g>
                    </g>
                </g>
                <g id="g-root-ic_form_4my1my1f4874b-stroke" transform="matrix(1,0,0,1,498.2,218)">
                    <g id="ic_form_4my1my1f4874b-stroke">
                        <g>
                            <path d="M44.6,21.2C48.8,22.2 51.6,23.6 51.6,25.2C51.6,28 43.6,30.2 33.6,30.2C23.6,30.2 15.6,28 15.6,25.2C15.6,24 17,23 19.6,22M15.6,25.2L15.6,28C15.6,31.8 17.8,35.2 21.2,37L27.6,40.2L27.6,46.2L39.6,43.2L39.6,40.2L46,37C49.4,35.4 51.6,31.8 51.6,28L51.6,25.2M37.6,17.5C39.257,17.5 40.6,16.157 40.6,14.5C40.6,12.843 39.257,11.5 37.6,11.5C35.943,11.5 34.6,12.843 34.6,14.5C34.6,16.157 35.943,17.5 37.6,17.5ZM28.6,24.5C30.257,24.5 31.6,23.157 31.6,21.5C31.6,19.843 30.257,18.5 28.6,18.5C26.943,18.5 25.6,19.843 25.6,21.5C25.6,23.157 26.943,24.5 28.6,24.5ZM11.5,56.5C14.461,56.5 17.224,54.9 19,52.7C20.776,54.9 23.342,56.5 26.5,56.5C29.46,56.5 32.224,54.9 34,52.7C35.776,54.9 38.342,56.5 41.5,56.5C44.461,56.5 47.224,54.9 49,52.7C50.776,54.9 53.342,56.5 56.5,56.5" style="fill:none;stroke:rgb(44,44,44);stroke-width:2px;"/>
                        </g>
                    </g>
                </g>
                <g id="g-root-ic_smok_1lynidm1f4az29-stroke" transform="matrix(1,0,0,1,468.2,614)">
                    <g id="ic_smok_1lynidm1f4az29-stroke">
                        <g>
                            <path d="M43.24,50.76C40.493,52.555 37.281,53.508 34,53.5C26.359,53.5 19.657,48.402 17.617,41.038C15.577,33.674 18.701,25.854 25.254,21.923C31.806,17.991 40.176,18.915 45.714,24.18C51.251,29.445 52.596,37.758 49,44.5M18.5,43.5L15,43.5C12.791,43.5 11,41.709 11,39.5L11,33.5C11,31.291 12.791,29.5 15,29.5L18.5,29.5M49.5,43.5L53,43.5C55.209,43.5 57,41.709 57,39.5L57,33.5C57,31.291 55.209,29.5 53,29.5L49.5,29.5M52.98,29.5C52.98,19.007 44.473,10.5 33.98,10.5C23.487,10.5 14.98,19.007 14.98,29.5M24.84,41.5C26.433,45.138 30.028,47.488 34,47.488C37.972,47.488 41.567,45.138 43.16,41.5M25,33C25.276,33 25.5,33.224 25.5,33.5C25.5,33.776 25.276,34 25,34C24.724,34 24.5,33.776 24.5,33.5C24.5,33.224 24.724,33 25,33M43,33C43.276,33 43.5,33.224 43.5,33.5C43.5,33.776 43.276,34 43,34C42.724,34 42.5,33.776 42.5,33.5C42.5,33.224 42.724,33 43,33M38.74,46.3L48.42,56C48.822,56.404 49.377,56.618 49.946,56.587C50.515,56.557 51.044,56.285 51.4,55.84L52.66,54.26C53.001,53.824 53.145,53.267 53.06,52.72C52.981,52.17 52.677,51.677 52.22,51.36L41.58,44" style="fill:none;stroke:rgb(44,44,44);stroke-width:2px;"/>
                        </g>
                    </g>
                </g>
                <g id="g-root-ic_coin_909k961f42kuk-stroke" transform="matrix(1,0,0,1,120.2,218)">
                    <g id="ic_coin_909k961f42kuk-stroke">
                        <g>
                            <path d="M11.008,30.91C11.008,32.015 15.485,32.91 21.008,32.91C26.531,32.91 31.008,32.015 31.008,30.91C31.008,29.805 26.531,28.91 21.008,28.91C15.485,28.91 11.008,29.805 11.008,30.91ZM31,30.91L31,36.91C31,38.016 26.524,38.91 21,38.91C15.476,38.91 11,38.016 11,36.91L11,30.91M31,36.91L31,42.91C31,44.016 26.524,44.91 21,44.91C15.476,44.91 11,44.016 11,42.91L11,36.91M31,42.91L31,48.91C31,50.016 26.524,50.91 21,50.91C15.476,50.91 11,50.016 11,48.91L11,42.91M31,48.91L31,54.91C31,56.016 26.524,56.91 21,56.91C15.476,56.91 11,56.016 11,54.91L11,48.91M18.762,23.908C21.448,18.116 28.2,14 36.098,14C38.127,14 40.147,14.283 42.098,14.84C43.344,13.069 45.144,11.763 47.214,11.128C47.515,11.043 47.839,11.105 48.089,11.294C48.338,11.484 48.484,11.779 48.484,12.092L48.484,18.01C50.605,19.868 52.207,22.244 53.136,24.906L55.01,24.906C56.115,24.906 57.01,25.801 57.01,26.906L57.01,32.906C57.01,34.011 56.115,34.906 55.01,34.906L53.138,34.906C52.085,37.528 50.27,39.774 47.928,41.354L49.544,45.736C50.136,47.341 49.315,49.121 47.71,49.713C46.106,50.304 44.325,49.483 43.734,47.878L42.32,44.048C40.302,44.654 38.207,44.963 36.1,44.966M44.508,23.91C44.232,23.91 44.008,24.134 44.008,24.41C44.008,24.686 44.232,24.91 44.508,24.91C44.784,24.91 45.008,24.686 45.008,24.41C45.008,24.134 44.784,23.91 44.508,23.91M26,21.91C28.073,19.623 30.927,18.196 34,17.91" style="fill:none;stroke:rgb(44,44,44);stroke-width:2px;"/>
                        </g>
                    </g>
                </g>
                <g id="g-root-ic_hand_dil1vu1f46sxs-stroke" transform="matrix(1,0,0,1,150.2,638)">
                    <g id="ic_hand_dil1vu1f46sxs-stroke">
                        <g>
                            <path d="M12.066,54.812L25.61,48.686C27.886,50.173 30.66,50.694 33.32,50.134L45.164,47.646M33.778,23.572L36.8,17.656C36.84,17.576 36.878,17.494 36.91,17.41C37.458,16.048 36.968,14.489 35.739,13.686C34.51,12.883 32.885,13.061 31.858,14.11L22.642,23.51C20.391,25.818 19.165,28.937 19.242,32.16L19.216,32.116L12.066,35.6M44.558,47.116C38.735,49.598 31.972,47.476 28.61,42.112C25.248,36.749 26.287,29.737 31.058,25.578C35.83,21.419 42.918,21.347 47.772,25.41M39.676,34.794L35.516,29.084M43.522,23.05L45.884,16.728M43.828,15.962L48.258,17.616M50.316,30.144L52.934,30.144C52.934,30.144 55.934,30.144 55.934,33.144C55.934,33.144 55.934,36.144 52.934,36.144L50.316,36.144C50.316,36.144 47.316,36.144 47.316,33.144C47.316,33.144 47.316,30.144 50.316,30.144M50.316,24.144L52.934,24.144C52.934,24.144 55.934,24.144 55.934,27.144C55.934,27.144 55.934,30.144 52.934,30.144L50.316,30.144C50.316,30.144 47.316,30.144 47.316,27.144C47.316,27.144 47.316,24.144 50.316,24.144M50.316,36.144L52.934,36.144C52.934,36.144 55.934,36.144 55.934,39.144C55.934,39.144 55.934,42.144 52.934,42.144L50.316,42.144C50.316,42.144 47.316,42.144 47.316,39.144C47.316,39.144 47.316,36.144 50.316,36.144M46.816,42.144L49.312,42.144C49.312,42.144 52.312,42.144 52.312,45.144C52.312,45.144 52.312,48.144 49.312,48.144L46.816,48.144C46.816,48.144 43.816,48.144 43.816,45.144C43.816,45.144 43.816,42.144 46.816,42.144" style="fill:none;stroke:rgb(44,44,44);stroke-width:2px;"/>
                        </g>
                    </g>
                </g>
            </g>
        </g>
    </g>
</svg>
