<?xml version="1.0" encoding="UTF-8" standalone="no"?>
<!DOCTYPE svg PUBLIC "-//W3C//DTD SVG 1.1//EN" "http://www.w3.org/Graphics/SVG/1.1/DTD/svg11.dtd">
<svg width="100%" height="100%" viewBox="0 0 600 530" version="1.1" xmlns="http://www.w3.org/2000/svg" xmlns:xlink="http://www.w3.org/1999/xlink" xml:space="preserve" xmlns:serif="http://www.serif.com/" style="fill-rule:evenodd;clip-rule:evenodd;stroke-linecap:round;stroke-linejoin:round;">
    <g id="items">
        <g id="blend">
            <g id="g-root-sy_-1_cu-1_qtexil7tmxvo-fill" transform="matrix(1,0,0,1,14,6)">
                <g id="sy_-1_cu-1_qtexil7tmxvo-fill">
                    <g>
                        <path d="M286,10L562,130L550,154L22,154L10,130L286,10ZM562,490L10,490L22,466L550,466L562,490Z" style="fill:rgb(171,171,171);"/>
                    </g>
                </g>
            </g>
            <g id="g-root-sy_6_cu_dikw8d7tmwat-fill" transform="matrix(1,0,0,1,374,306)">
                <g id="sy_6_cu_dikw8d7tmwat-fill">
                    <g>
                        <rect x="10" y="10" width="168" height="156" style="fill:rgb(243,102,187);"/>
                    </g>
                </g>
            </g>
            <g id="g-root-sy_5_cu_74dv17tmxvq-fill" transform="matrix(1,0,0,1,206,306)">
                <g id="sy_5_cu_74dv17tmxvq-fill">
                    <g>
                        <rect x="10" y="10" width="168" height="156" style="fill:rgb(251,103,98);"/>
                    </g>
                </g>
            </g>
            <g id="g-root-sy_4_cu_1qd7wod7tmvbj-fill" transform="matrix(1,0,0,1,38,306)">
                <g id="sy_4_cu_1qd7wod7tmvbj-fill">
                    <g>
                        <rect x="10" y="10" width="168" height="156" style="fill:rgb(247,148,56);"/>
                    </g>
                </g>
            </g>
            <g id="g-root-sy_3_cu_1lxeejx7tmw3s-fill" transform="matrix(1,0,0,1,374,150)">
                <g id="sy_3_cu_1lxeejx7tmw3s-fill">
                    <g>
                        <rect x="10" y="10" width="168" height="156" style="fill:rgb(255,231,17);"/>
                    </g>
                </g>
            </g>
            <g id="g-root-sy_2_cu_1hhkwfh7tmww1-fill" transform="matrix(1,0,0,1,206,150)">
                <g id="sy_2_cu_1hhkwfh7tmww1-fill">
                    <g>
                        <rect x="10" y="10" width="168" height="156" style="fill:rgb(166,218,55);"/>
                    </g>
                </g>
            </g>
            <g id="g-root-sy_1_cu_18lxw6l7tmxoq-fill" transform="matrix(1,0,0,1,38,150)">
                <g id="sy_1_cu_18lxw6l7tmxoq-fill">
                    <g>
                        <rect x="10" y="10" width="168" height="156" style="fill:rgb(67,221,147);"/>
                    </g>
                </g>
            </g>
            <g transform="matrix(1,0,0,1,213.44,136)">
                <g id="g-root-tx_voiptech_14300ml7ty5mo-fill">
                    <g id="tx_voiptech_14300ml7ty5mo-fill">
                        <g>
                            <g>
                                <text x="0px" y="0px" style="font-family:'ArialMT', 'Arial', sans-serif;font-size:20px;fill:rgb(44,44,44);">V<tspan x="12.236px 23.359px " y="0px 0px ">oI</tspan>PT<tspan x="52.256px 63.379px " y="0px 0px ">ec</tspan>h Solutions</text>
                            </g>
                        </g>
                    </g>
                </g>
            </g>
            <g id="g-root-tx_costeffe_vb3uwd7tmw3v-fill" transform="matrix(1,0,0,1,50,222)">
                <g id="tx_costeffe_vb3uwd7tmw3v-fill">
                    <g>
                        <g>
                            <g transform="matrix(1,0,0,1,17.65,34)">
                                <g transform="matrix(20,0,0,20,58.9062,0)">
                                </g>
                                <g transform="matrix(20,0,0,20,64.248,0)">
                                </g>
                                <text x="0px" y="0px" style="font-family:'ArialMT', 'Arial', sans-serif;font-size:20px;fill:rgb(44,44,44);">Cost-eﬀective</text>
                            </g>
                            <g transform="matrix(1,0,0,1,37.83,58)">
                                <text x="0px" y="0px" style="font-family:'ArialMT', 'Arial', sans-serif;font-size:20px;fill:rgb(44,44,44);">Solutions</text>
                            </g>
                        </g>
                    </g>
                </g>
            </g>
            <g id="g-root-tx_increase_1lz9tt97tmv44-fill" transform="matrix(1,0,0,1,230,222)">
                <g id="tx_increase_1lz9tt97tmv44-fill">
                    <g>
                        <g>
                            <g transform="matrix(1,0,0,1,26.38,34)">
                                <text x="0px" y="0px" style="font-family:'ArialMT', 'Arial', sans-serif;font-size:20px;fill:rgb(44,44,44);">Increased</text>
                            </g>
                            <g transform="matrix(1,0,0,1,14.03,58)">
                                <text x="0px" y="0px" style="font-family:'ArialMT', 'Arial', sans-serif;font-size:20px;fill:rgb(44,44,44);">Accessibility</text>
                            </g>
                        </g>
                    </g>
                </g>
            </g>
            <g id="g-root-tx_realtime_13zvn717toaa6-fill" transform="matrix(1,0,0,1,404,222)">
                <g id="tx_realtime_13zvn717toaa6-fill">
                    <g>
                        <g>
                            <g transform="matrix(1,0,0,1,16.95,34)">
                                <text x="0px" y="0px" style="font-family:'ArialMT', 'Arial', sans-serif;font-size:20px;fill:rgb(44,44,44);">Real-T<tspan x="59.268px 63.711px " y="0px 0px ">im</tspan>e</text>
                            </g>
                            <g transform="matrix(1,0,0,1,24.6,58)">
                                <text x="0px" y="0px" style="font-family:'ArialMT', 'Arial', sans-serif;font-size:20px;fill:rgb(44,44,44);">Updates</text>
                            </g>
                        </g>
                    </g>
                </g>
            </g>
            <g id="g-root-tx_seamless_4gp54d7to9ol-fill" transform="matrix(1,0,0,1,68,378)">
                <g id="tx_seamless_4gp54d7to9ol-fill">
                    <g>
                        <g>
                            <g transform="matrix(1,0,0,1,20.27,34)">
                                <text x="0px" y="0px" style="font-family:'ArialMT', 'Arial', sans-serif;font-size:20px;fill:rgb(44,44,44);">Seamless</text>
                            </g>
                            <g transform="matrix(1,0,0,1,15.77,58)">
                                <text x="0px" y="0px" style="font-family:'ArialMT', 'Arial', sans-serif;font-size:20px;fill:rgb(44,44,44);">Integration</text>
                            </g>
                        </g>
                    </g>
                </g>
            </g>
            <g id="g-root-tx_bettercu_1unf50t7tocg7-fill" transform="matrix(1,0,0,1,230,378)">
                <g id="tx_bettercu_1unf50t7tocg7-fill">
                    <g>
                        <g>
                            <g transform="matrix(1,0,0,1,43.22,34)">
                                <text x="0px" y="0px" style="font-family:'ArialMT', 'Arial', sans-serif;font-size:20px;fill:rgb(44,44,44);">Better</text>
                            </g>
                            <g transform="matrix(1,0,0,1,26.48,58)">
                                <text x="0px" y="0px" style="font-family:'ArialMT', 'Arial', sans-serif;font-size:20px;fill:rgb(44,44,44);">Customer</text>
                            </g>
                            <g transform="matrix(1,0,0,1,16.1,82)">
                                <text x="0px" y="0px" style="font-family:'ArialMT', 'Arial', sans-serif;font-size:20px;fill:rgb(44,44,44);">Experiences</text>
                            </g>
                        </g>
                    </g>
                </g>
            </g>
            <g transform="matrix(1,0,0,1,404.91,412)">
                <g id="g-root-tx_24x7serv_1414ld97tocg8-fill">
                    <g id="tx_24x7serv_1414ld97tocg8-fill">
                        <g>
                            <g>
                                <text x="0px" y="0px" style="font-family:'ArialMT', 'Arial', sans-serif;font-size:20px;fill:rgb(44,44,44);">24 X 7 Service</text>
                            </g>
                        </g>
                    </g>
                </g>
            </g>
            <g id="g-root-sy_-1_cu-1_qtexil7tmxvo-stroke" transform="matrix(1,0,0,1,14,6)">
                <g id="sy_-1_cu-1_qtexil7tmxvo-stroke">
                    <g>
                        <path d="M286,10L562,130L550,154L22,154L10,130L286,10ZM562,490L10,490L22,466L550,466L562,490Z" style="fill:none;stroke:rgb(44,44,44);stroke-width:2px;"/>
                    </g>
                </g>
            </g>
            <g id="g-root-sy_6_cu_dikw8d7tmwat-stroke" transform="matrix(1,0,0,1,374,306)">
                <g id="sy_6_cu_dikw8d7tmwat-stroke">
                    <g>
                        <rect x="10" y="10" width="168" height="156" style="fill:none;stroke:rgb(44,44,44);stroke-width:2px;"/>
                    </g>
                </g>
            </g>
            <g id="g-root-sy_5_cu_74dv17tmxvq-stroke" transform="matrix(1,0,0,1,206,306)">
                <g id="sy_5_cu_74dv17tmxvq-stroke">
                    <g>
                        <rect x="10" y="10" width="168" height="156" style="fill:none;stroke:rgb(44,44,44);stroke-width:2px;"/>
                    </g>
                </g>
            </g>
            <g id="g-root-sy_4_cu_1qd7wod7tmvbj-stroke" transform="matrix(1,0,0,1,38,306)">
                <g id="sy_4_cu_1qd7wod7tmvbj-stroke">
                    <g>
                        <rect x="10" y="10" width="168" height="156" style="fill:none;stroke:rgb(44,44,44);stroke-width:2px;"/>
                    </g>
                </g>
            </g>
            <g id="g-root-sy_3_cu_1lxeejx7tmw3s-stroke" transform="matrix(1,0,0,1,374,150)">
                <g id="sy_3_cu_1lxeejx7tmw3s-stroke">
                    <g>
                        <rect x="10" y="10" width="168" height="156" style="fill:none;stroke:rgb(44,44,44);stroke-width:2px;"/>
                    </g>
                </g>
            </g>
            <g id="g-root-sy_2_cu_1hhkwfh7tmww1-stroke" transform="matrix(1,0,0,1,206,150)">
                <g id="sy_2_cu_1hhkwfh7tmww1-stroke">
                    <g>
                        <rect x="10" y="10" width="168" height="156" style="fill:none;stroke:rgb(44,44,44);stroke-width:2px;"/>
                    </g>
                </g>
            </g>
            <g id="g-root-sy_1_cu_18lxw6l7tmxoq-stroke" transform="matrix(1,0,0,1,38,150)">
                <g id="sy_1_cu_18lxw6l7tmxoq-stroke">
                    <g>
                        <rect x="10" y="10" width="168" height="156" style="fill:none;stroke:rgb(44,44,44);stroke-width:2px;"/>
                    </g>
                </g>
            </g>
            <g id="g-root-ic_cabi_8zn0od7toa2p-stroke" transform="matrix(1,0,0,1,266,30)">
                <g id="ic_cabi_8zn0od7toa2p-stroke">
                    <g>
                        <path d="M34,37L57,37M43,55C43,56.105 43.895,57 45,57L55,57C56.105,57 57,56.105 57,55L57,37L43,37L43,55ZM29,33L29,43C28.993,45.206 27.206,46.993 25,47L17,47M11,57L11,39C11,37.895 11.895,37 13,37L24,37M23,47L23,54L18,57M23,54L28,57M57,37L57,13C57,11.895 56.105,11 55,11L43,11L43,37M11,21L11,13C11,11.895 11.895,11 13,11L43,11L43,21M23,11L23,25M33,11L33,25M43,21L43,25L13,25C11.895,25 11,24.105 11,23L11,21M47,15L47,17M37,15L37,17M27,15L27,17M15,15L15,17M47,41L47,43" style="fill:none;stroke:rgb(44,44,44);stroke-width:2px;"/>
                    </g>
                </g>
            </g>
            <g id="g-root-ic_2_4hy3al7tpp8i-stroke" transform="matrix(1,0,0,1,98,162)">
                <g id="ic_2_4hy3al7tpp8i-stroke">
                    <g>
                        <path d="M31,31L13,31C11.895,31 11,30.105 11,29L11,13C11,11.895 11.895,11 13,11L45,11C46.105,11 47,11.895 47,13L47,23M11.008,18L18.008,11M47.008,18L40.008,11M11.008,24L18.008,31M33,17L26.692,17C25.845,17.008 25.135,17.643 25.033,18.484C24.932,19.326 25.471,20.111 26.292,20.32L31.74,21.68C32.561,21.889 33.1,22.674 32.999,23.516C32.897,24.357 32.187,24.992 31.34,25L25,25M29.008,17L29.008,15M29.008,27L29.008,25M39.008,41L41.008,41M45.008,41L47.008,41M51.008,41L53.008,41M39.008,45L41.008,45M45.008,45L47.008,45M51.008,45L53.008,45M39.008,49L41.008,49M45.008,49L47.008,49M51.008,49L53.008,49M39.008,53L41.008,53M45.008,53L47.008,53M51.008,53L53.008,53M39.008,27L53.008,27C53.008,27 57.008,27 57.008,31L57.008,53C57.008,53 57.008,57 53.008,57L39.008,57C39.008,57 35.008,57 35.008,53L35.008,31C35.008,31 35.008,27 39.008,27M35.008,37L57.008,37M13.008,35L31.008,35M15.008,39L31.008,39" style="fill:none;stroke:rgb(44,44,44);stroke-width:2px;"/>
                    </g>
                </g>
            </g>
            <g id="g-root-ic_netw_924x0t7tr4ej-stroke" transform="matrix(1,0,0,1,266,162)">
                <g id="ic_netw_924x0t7tr4ej-stroke">
                    <g>
                        <path d="M11.072,33.996C11.072,46.699 21.369,56.996 34.072,56.996C46.775,56.996 57.072,46.699 57.072,33.996C57.072,21.293 46.775,10.996 34.072,10.996C21.369,10.996 11.072,21.293 11.072,33.996ZM23.072,25.496C23.072,27.981 25.087,29.996 27.572,29.996C30.057,29.996 32.072,27.981 32.072,25.496C32.072,23.011 30.057,20.996 27.572,20.996C25.087,20.996 23.072,23.011 23.072,25.496L23.072,25.496ZM36.072,45.496C36.072,46.877 37.191,47.996 38.572,47.996C39.953,47.996 41.072,46.877 41.072,45.496C41.072,44.115 39.953,42.996 38.572,42.996C37.191,42.996 36.072,44.115 36.072,45.496L36.072,45.496ZM44.072,30.496C44.072,32.429 45.639,33.996 47.572,33.996C49.505,33.996 51.072,32.429 51.072,30.496C51.072,28.563 49.505,26.996 47.572,26.996C45.639,26.996 44.072,28.563 44.072,30.496L44.072,30.496ZM32.072,25C36.543,25.17 40.803,26.945 44.072,30M48.27,33.928L49.07,34.996C49.07,34.996 52.07,38.996 52.07,47.996M43.718,13.11L44.072,14C45.52,18.289 46.197,22.799 46.072,27.324M45.072,33C44.821,37.13 43.333,41.09 40.8,44.362M37.376,47.692L37.072,48C37.072,48 32.072,53 21.072,53M34.072,11C31.336,13.927 29.136,17.311 27.572,21M25.236,29.344L25.072,30C23.982,35.409 24.684,41.026 27.072,46C30.472,52.812 39.072,56 39.072,56L39.818,56.278M23.072,25.496C23.072,25.496 15.4,26.046 11.522,29.442M11.632,39.064L12.072,38.996C12.072,38.996 25.834,36.88 37.02,43.536" style="fill:none;stroke:rgb(44,44,44);stroke-width:2px;"/>
                    </g>
                </g>
            </g>
            <g id="g-root-ic_cont_1hgby997tty4t-stroke" transform="matrix(1,0,0,1,434,162)">
                <g id="ic_cont_1hgby997tty4t-stroke">
                    <g>
                        <path d="M11.5,52.1C11.5,39.7 21.545,29.7 34,29.7C46.455,29.7 56.5,39.7 56.5,52.1M34,55.7C35.657,55.7 37,54.357 37,52.7C37,51.043 35.657,49.7 34,49.7C32.343,49.7 31,51.043 31,52.7C31,54.357 32.343,55.7 34,55.7ZM28.3,37.1L32.9,49.9M39.7,37.1L38.7,39.9M48.4,44.5L45.4,46.3M19.6,44.5L22.6,46.3M50.4,55.5L47.4,55.1M17.6,55.5L20.6,55.1M19.6,12.3L24.124,23.729M18,21.9L24,23.9L27.2,18.3" style="fill:none;stroke:rgb(44,44,44);stroke-width:2px;"/>
                    </g>
                </g>
            </g>
            <g id="g-root-ic_3_1lt12y57tsjkc-stroke" transform="matrix(1,0,0,1,98,318)">
                <g id="ic_3_1lt12y57tsjkc-stroke">
                    <g>
                        <path d="M45.238,21.002C45.238,22.589 46.525,23.876 48.112,23.876C49.699,23.876 50.986,22.589 50.986,21.002C50.986,19.415 49.699,18.128 48.112,18.128C46.525,18.128 45.238,19.415 45.238,21.002L45.238,21.002ZM50,12.4L50.656,14.552C50.884,15.289 51.642,15.726 52.394,15.552L54.576,15.046C55.425,14.854 56.3,15.239 56.733,15.993C57.166,16.748 57.057,17.697 56.464,18.334L54.936,20C54.408,20.568 54.408,21.448 54.936,22.016L56.462,23.664C57.054,24.301 57.162,25.249 56.728,26.002C56.295,26.756 55.422,27.14 54.574,26.95L52.4,26.438C51.648,26.264 50.89,26.701 50.662,27.438L50,29.6C49.75,30.433 48.983,31.004 48.113,31.004C47.243,31.004 46.476,30.433 46.226,29.6L45.57,27.448C45.342,26.711 44.584,26.274 43.832,26.448L41.65,26.954C40.802,27.144 39.929,26.76 39.496,26.006C39.062,25.253 39.17,24.305 39.762,23.668L41.288,22.02C41.816,21.452 41.816,20.572 41.288,20.004L39.762,18.358C39.169,17.721 39.06,16.772 39.493,16.017C39.926,15.263 40.801,14.878 41.65,15.07L43.832,15.576C44.584,15.75 45.342,15.313 45.57,14.576L46.224,12.4C46.473,11.565 47.241,10.992 48.112,10.992C48.983,10.992 49.751,11.565 50,12.4ZM24.062,29.252C24.555,29.804 25.26,30.119 26,30.119C26.74,30.119 27.445,29.804 27.938,29.252L29.2,27.864C29.941,27.043 31.118,26.777 32.139,27.2C33.161,27.624 33.805,28.644 33.748,29.748L33.652,31.616C33.615,32.354 33.892,33.073 34.414,33.596C34.937,34.118 35.656,34.395 36.394,34.358L38.262,34.262C39.366,34.205 40.386,34.849 40.81,35.871C41.233,36.892 40.967,38.069 40.146,38.81L38.758,40.064C38.206,40.557 37.891,41.262 37.891,42.002C37.891,42.742 38.206,43.447 38.758,43.94L40.146,45.194C40.967,45.935 41.233,47.112 40.81,48.133C40.386,49.155 39.366,49.799 38.262,49.742L36.394,49.646C35.656,49.609 34.937,49.886 34.414,50.408C33.892,50.931 33.615,51.65 33.652,52.388L33.748,54.256C33.805,55.36 33.161,56.38 32.139,56.804C31.118,57.227 29.941,56.961 29.2,56.14L27.946,54.752C27.453,54.2 26.748,53.885 26.008,53.885C25.268,53.885 24.563,54.2 24.07,54.752L22.8,56.14C22.059,56.961 20.882,57.227 19.861,56.804C18.839,56.38 18.195,55.36 18.252,54.256L18.348,52.388C18.385,51.65 18.108,50.931 17.586,50.408C17.063,49.886 16.344,49.609 15.606,49.646L13.738,49.742C12.638,49.792 11.625,49.147 11.205,48.13C10.785,47.112 11.047,45.941 11.862,45.2L13.25,43.946C13.802,43.453 14.117,42.748 14.117,42.008C14.117,41.268 13.802,40.563 13.25,40.07L11.862,38.816C11.041,38.075 10.775,36.898 11.198,35.877C11.622,34.855 12.642,34.211 13.746,34.268L15.614,34.364C16.352,34.401 17.071,34.124 17.594,33.602C18.116,33.079 18.393,32.36 18.356,31.622L18.26,29.748C18.207,28.648 18.85,27.633 19.868,27.21C20.885,26.788 22.058,27.05 22.8,27.864L24.062,29.252ZM19,42.002C19,45.868 22.134,49.002 26,49.002C29.866,49.002 33,45.868 33,42.002C33,38.136 29.866,35.002 26,35.002C22.134,35.002 19,38.136 19,42.002L19,42.002Z" style="fill:none;stroke:rgb(44,44,44);stroke-width:2px;"/>
                    </g>
                </g>
            </g>
            <g id="g-root-ic_smok_4loxt97tvchy-stroke" transform="matrix(1,0,0,1,266,318)">
                <g id="ic_smok_4loxt97tvchy-stroke">
                    <g>
                        <path d="M43.24,50.76C40.493,52.555 37.281,53.508 34,53.5C26.359,53.5 19.657,48.402 17.617,41.038C15.577,33.674 18.701,25.854 25.254,21.923C31.806,17.991 40.176,18.915 45.714,24.18C51.251,29.445 52.596,37.758 49,44.5M18.5,43.5L15,43.5C12.791,43.5 11,41.709 11,39.5L11,33.5C11,31.291 12.791,29.5 15,29.5L18.5,29.5M49.5,43.5L53,43.5C55.209,43.5 57,41.709 57,39.5L57,33.5C57,31.291 55.209,29.5 53,29.5L49.5,29.5M52.98,29.5C52.98,19.007 44.473,10.5 33.98,10.5C23.487,10.5 14.98,19.007 14.98,29.5M24.84,41.5C26.433,45.138 30.028,47.488 34,47.488C37.972,47.488 41.567,45.138 43.16,41.5M25,33C25.276,33 25.5,33.224 25.5,33.5C25.5,33.776 25.276,34 25,34C24.724,34 24.5,33.776 24.5,33.5C24.5,33.224 24.724,33 25,33M43,33C43.276,33 43.5,33.224 43.5,33.5C43.5,33.776 43.276,34 43,34C42.724,34 42.5,33.776 42.5,33.5C42.5,33.224 42.724,33 43,33M38.74,46.3L48.42,56C48.822,56.404 49.377,56.618 49.946,56.587C50.515,56.557 51.044,56.285 51.4,55.84L52.66,54.26C53.001,53.824 53.145,53.267 53.06,52.72C52.981,52.17 52.677,51.677 52.22,51.36L41.58,44" style="fill:none;stroke:rgb(44,44,44);stroke-width:2px;"/>
                    </g>
                </g>
            </g>
            <g id="g-root-ic_2_400fh7twrnr-stroke" transform="matrix(1,0,0,1,434,318)">
                <g id="ic_2_400fh7twrnr-stroke">
                    <g>
                        <path d="M21,31L30.998,31L31,19M29.062,50.908C20.661,50.082 13.686,44.066 11.635,35.878C9.584,27.689 12.899,19.096 19.918,14.407C26.937,9.718 36.145,9.945 42.924,14.975C49.703,20.004 52.591,28.751 50.138,36.828M57,57L57,41C51.477,41 47,45.477 47,51L47,53L57,53M44,57L33,57L40,50.822C41.972,49.082 43.48,47.864 42.898,45C42.383,42.487 40.049,40.772 37.497,41.03C34.945,41.288 33.002,43.435 33,46" style="fill:none;stroke:rgb(44,44,44);stroke-width:2px;"/>
                    </g>
                </g>
            </g>
        </g>
    </g>
</svg>
