<?xml version="1.0" encoding="UTF-8" standalone="no"?>
<!DOCTYPE svg PUBLIC "-//W3C//DTD SVG 1.1//EN" "http://www.w3.org/Graphics/SVG/1.1/DTD/svg11.dtd">
<svg width="100%" height="100%" viewBox="0 0 660 610" version="1.1" xmlns="http://www.w3.org/2000/svg" xmlns:xlink="http://www.w3.org/1999/xlink" xml:space="preserve" xmlns:serif="http://www.serif.com/" style="fill-rule:evenodd;clip-rule:evenodd;stroke-linecap:round;stroke-linejoin:round;">
    <g id="items" transform="matrix(1.07841,0,0,1.07841,-25.8067,-34.896)">
        <g id="blend">
            <g id="g-root-sy_back_cu_v7z13y1904hl3-fill" transform="matrix(1,0,0,1,235.154,49.9999)">
                <g id="sy_back_cu_v7z13y1904hl3-fill">
                    <g>
                        <path d="M15.516,460.779C16.378,461.247 17.357,461.514 18.384,461.514L19.541,461.514C24.577,467.927 30.69,473.943 37.147,479.077L29.413,479.355C26.084,479.489 23.513,482.303 23.513,485.637L23.513,487.048C23.646,490.375 26.47,492.943 29.8,492.817L55.907,491.901C61.433,495.104 67.295,498.085 73.386,500.966L63.958,525.019C46.357,516.838 28.231,505.886 14.951,491.313C6.98,480.847 9.864,468.339 16.816,458.294C16.865,458.366 16.766,458.222 16.816,458.294C16.766,458.366 16.716,458.438 16.667,458.51C16.15,459.264 15.984,460.004 15.516,460.779ZM18.056,334.483C16.95,334.483 15.9,334.172 14.99,333.635C9.215,343.384 7.528,354.638 14.951,364.245C26.622,377.052 41.858,386.823 57.369,394.614C62.557,392.008 67.756,389.65 72.83,387.519C76.911,385.857 82.273,383.642 88.371,380.945L88.862,380.729C88.699,380.658 88.535,380.585 88.371,380.513C76.817,375.45 65.911,370.631 55.925,364.844L29.474,365.76C26.144,365.886 23.32,363.318 23.187,359.991L23.187,358.58C23.187,355.246 25.758,352.432 29.087,352.299L37.16,352.02C30.703,346.886 24.26,340.896 19.222,334.483L18.056,334.483ZM135.539,433.559L147.939,434.053C151.148,434.179 153.712,431.75 153.839,428.543L153.839,427.265C153.839,424.058 151.408,421.37 148.198,421.237L113.42,419.853C105.716,415.841 97.506,412.122 89.038,408.408C94.933,405.808 100.115,403.668 104.087,402.049C109.439,399.802 114.931,397.301 120.403,394.523C135.624,402.251 150.686,412.128 162.142,424.699C170.197,435.123 167.525,447.487 160.544,457.762C162.032,455.541 163.318,453.224 164.337,450.852C163.254,449.026 161.258,447.77 159.036,447.77L151.997,447.77C146.893,442.5 141.101,437.667 135.539,433.559ZM18.509,207.485C17.422,207.485 16.388,207.185 15.49,206.664C16.002,205.803 16.216,204.954 16.789,204.119L16.83,204.059L16.789,204C9.72,214.31 6.973,226.753 15.073,237.235C26.602,249.887 41.556,259.726 56.876,267.475C62.251,264.756 67.644,262.304 72.901,260.096C76.947,258.448 82.252,256.257 88.286,253.591C76.796,248.554 66.003,243.602 56.067,237.845L29.773,238.762C26.443,238.888 23.619,236.32 23.486,232.993L23.486,231.582C23.486,228.249 26.057,225.434 29.386,225.301L37.297,225.021C30.839,219.889 24.394,213.898 19.354,207.485L18.509,207.485ZM88.536,281.244L88.691,281.312C97.343,285.103 105.73,288.892 113.591,292.987L148.118,294.232C151.328,294.365 153.758,297.054 153.758,300.261L153.758,301.538C153.632,304.746 151.068,307.174 147.858,307.048L135.475,306.555C141.037,310.663 147.053,315.633 152.154,320.903L159.182,320.903C161.427,320.903 163.441,322.184 164.516,324.041C168.323,315.406 168.619,306.014 162.288,297.82C150.691,285.094 135.398,275.129 119.986,267.359C114.7,270.023 109.401,272.43 104.233,274.6C100.151,276.263 94.792,278.478 88.694,281.175L88.536,281.244ZM15.235,110.004C7.179,99.577 9.809,87.063 16.854,76.8C16.307,77.617 15.551,78.81 15.062,79.651C16.578,80.525 17.545,80.525 18.649,80.525L19.834,80.525C24.876,86.939 31.03,92.933 37.489,98.064L29.388,98.345C26.058,98.478 23.487,101.292 23.487,104.626L23.487,106.037C23.62,109.364 26.444,111.932 29.774,111.806L56.264,110.888C66.24,116.666 77.309,121.323 88.848,126.379L89.18,126.525L88.848,126.671C82.749,129.368 77.388,131.583 73.306,133.245C68.188,135.395 62.941,137.776 57.707,140.409C42.243,132.629 26.871,122.772 15.235,110.004ZM135.807,179.5L148.189,180.002C151.398,180.128 154.012,177.73 154.138,174.523L154.138,173.245C154.138,170.038 151.708,167.35 148.498,167.216L113.768,165.834C106.002,161.788 97.721,158.04 89.179,154.294C95.14,151.663 100.379,149.499 104.387,147.866C109.694,145.637 115.139,143.16 120.565,140.409C135.832,148.148 150.702,157.992 162.193,170.602C170.292,181.084 167.418,193.589 160.349,203.899C160.344,203.891 160.338,203.883 160.332,203.875C160.338,203.866 160.344,203.858 160.349,203.85C161.885,201.61 163.217,199.269 164.278,196.87C163.199,195.027 161.57,193.749 159.336,193.749L152.319,193.749C147.22,188.481 141.368,183.608 135.807,179.5ZM113.795,38.898L148.498,40.279C151.708,40.412 154.139,43.101 154.139,46.308L154.139,47.585C154.012,50.793 151.448,53.221 148.239,53.095L135.89,52.603C141.45,56.713 147.235,61.544 152.332,66.812L159.336,66.812C161.577,66.812 163.761,68.229 164.838,70.08C168.651,61.672 169.214,51.826 162.443,43.386C149.163,28.814 131.037,18.181 113.436,10L104.007,34.053C107.345,35.632 110.613,37.24 113.795,38.898Z" style="fill:rgb(171,171,171);"/>
                    </g>
                </g>
            </g>
            <g id="g-root-sy_8_cu_hwiiqm1904j60-fill" transform="matrix(1,0,0,1,314,458.899)">
                <g id="sy_8_cu_hwiiqm1904j60-fill">
                    <g>
                        <path d="M69.371,12.374C72.581,12.507 75.011,15.195 75.011,18.403L75.011,19.68C74.885,22.887 72.321,25.273 69.111,25.147L10,22.835L10,10L69.371,12.374ZM79.046,52.621C79.891,51.537 80.696,50.442 81.454,49.336C83.069,46.982 84.457,44.516 85.543,41.988C84.46,40.163 82.685,38.907 80.464,38.907L10,38.907L10,52.621L79.046,52.621ZM65.663,66.448L10,68.381L10,81.852L46.501,80.579C52.265,76.966 59.149,72.1 65.663,66.448Z" style="fill:rgb(135,105,253);"/>
                    </g>
                </g>
            </g>
            <g id="g-root-sy_7_cu_4lohge1904hl5-fill" transform="matrix(1,0,0,1,240.345,458.117)">
                <g id="sy_7_cu_4lohge1904hl5-fill">
                    <g>
                        <path d="M10,52.656C10.863,53.124 12.19,53.391 13.217,53.391L83.655,53.403L83.655,39.689L20.323,39.715C16.984,43.114 14.014,46.664 11.478,50.362C10.962,51.116 10.468,51.881 10,52.656ZM41.862,21.991L83.655,23.608L83.655,10.782L62.726,10C57.833,12.423 53.199,14.938 48.716,17.612C46.601,18.878 44.302,20.347 41.862,21.991ZM18.322,77.526C18.322,74.193 20.893,71.378 24.223,71.245L83.655,69.163L83.655,82.634L24.609,84.706C21.279,84.833 18.456,82.264 18.322,78.937L18.322,77.526Z" style="fill:rgb(243,102,187);"/>
                    </g>
                </g>
            </g>
            <g id="g-root-sy_6_cu_1lw500u1904gle-fill" transform="matrix(1,0,0,1,313.7,331.848)">
                <g id="sy_6_cu_1lw500u1904gle-fill">
                    <g>
                        <path d="M69.652,12.374C72.862,12.507 75.293,15.195 75.293,18.403L75.293,19.68C75.166,22.887 72.602,25.316 69.392,25.19L10,22.826L10,10L69.652,12.374ZM79.496,52.621C80.248,51.645 81.017,50.661 81.698,49.668C83.333,47.283 84.804,44.833 85.961,42.315C84.931,40.314 82.842,38.907 80.49,38.907L10,38.907L10,52.621L79.496,52.621ZM65.959,66.506L10,68.381L10,81.852L46.881,80.554C52.647,76.903 59.537,72.123 65.959,66.506Z" style="fill:rgb(251,103,98);"/>
                    </g>
                </g>
            </g>
            <g id="g-root-sy_5_cu_18kohni1904i6b-fill" transform="matrix(1,0,0,1,240.18,331)">
                <g id="sy_5_cu_18kohni1904i6b-fill">
                    <g>
                        <path d="M10,52.572C10.932,53.145 12.018,53.478 13.164,53.478L83.654,53.478L83.654,39.765L20.061,39.765C16.974,42.965 14.144,46.325 11.774,49.781C11.147,50.695 10.554,51.626 10,52.572ZM41.447,22.004L83.654,23.683L83.654,10.858L62.106,10C57.656,12.232 53.357,14.546 49.255,16.993C46.872,18.418 44.226,20.102 41.447,22.004ZM18.162,77.576C18.162,74.242 20.732,71.428 24.062,71.295L83.699,69.238L83.699,82.71L24.448,84.756C21.118,84.882 18.295,82.314 18.162,78.987L18.162,77.576Z" style="fill:rgb(247,148,56);"/>
                    </g>
                </g>
            </g>
            <g id="g-root-sy_4_cu_me7g4e1904he4-fill" transform="matrix(1,0,0,1,314,204.8)">
                <g id="sy_4_cu_me7g4e1904he4-fill">
                    <g>
                        <path d="M69.652,12.374C72.862,12.507 75.293,15.195 75.293,18.403L75.293,19.68C75.166,22.887 72.602,25.316 69.392,25.19L10,22.826L10,10L69.652,12.374ZM78.863,52.621C79.805,51.428 80.699,50.219 81.535,48.999C83.071,46.759 84.536,44.147 85.596,41.747C84.614,40.227 82.671,38.946 80.438,38.946L10,38.907L10,52.621L78.863,52.621ZM65.307,66.455L10,68.381L10,81.852L45.982,80.593C51.741,77.018 58.698,72.144 65.307,66.455Z" style="fill:rgb(255,231,17);"/>
                    </g>
                </g>
            </g>
            <g id="g-root-sy_3_cu_92qxr21904iz1-fill" transform="matrix(1,0,0,1,240.328,204)">
                <g id="sy_3_cu_92qxr21904iz1-fill">
                    <g>
                        <path d="M10,52.634C10.899,53.154 12.103,53.454 13.191,53.454L83.681,53.454L83.681,39.74L20.284,39.74C17.073,43.039 14.075,46.512 11.623,50.088C11.05,50.923 10.513,51.772 10,52.634ZM41.933,21.997L83.681,23.659L83.681,10.833L62.747,10C58.078,12.327 53.572,14.74 49.281,17.3C47.03,18.647 44.545,20.224 41.933,21.997ZM18.322,77.552C18.322,74.218 20.892,71.403 24.222,71.27L83.681,69.214L83.681,82.685L24.608,84.731C21.279,84.858 18.455,82.289 18.322,78.962L18.322,77.552Z" style="fill:rgb(166,218,55);"/>
                    </g>
                </g>
            </g>
            <g id="g-root-sy_2_cu_4njwpq1904gli-fill" transform="matrix(1,0,0,1,314,77.905)">
                <g id="sy_2_cu_4njwpq1904gli-fill">
                    <g>
                        <path d="M69.652,12.374C72.862,12.507 75.293,15.195 75.293,18.403L75.293,19.68C75.166,22.887 72.602,25.316 69.392,25.19L10,22.826L10,10L69.652,12.374ZM79.467,52.621C80.314,51.535 81.121,50.438 81.88,49.33C83.456,47.032 84.817,44.628 85.891,42.164C84.834,40.243 82.782,38.907 80.49,38.907L10,38.907L10,52.621L79.467,52.621ZM66.084,66.442L10,68.381L10,81.852L46.921,80.573C52.685,76.959 59.569,72.094 66.084,66.442Z" style="fill:rgb(67,221,147);"/>
                    </g>
                </g>
            </g>
            <g id="g-root-sy_1_cu_1hhkg2m1904irz-fill" transform="matrix(1,0,0,1,240.212,77.049)">
                <g id="sy_1_cu_1hhkg2m1904irz-fill">
                    <g>
                        <path d="M20.061,39.763C16.998,42.944 14.197,46.255 11.843,49.689C11.188,50.644 10.576,51.62 10,52.609C10.908,53.143 12.006,53.477 13.11,53.477L83.788,53.477L83.788,39.763L20.061,39.763ZM41.492,22.005L83.788,23.682L83.788,10.856L62.118,10C59.129,11.501 56.209,13.04 53.371,14.631C52.027,15.384 50.702,16.149 49.397,16.927C46.986,18.37 44.307,20.076 41.492,22.005ZM18.429,77.574C18.429,74.24 20.999,71.426 24.329,71.293L83.788,69.237L83.788,82.708L24.715,84.754C21.386,84.88 18.562,82.312 18.429,78.985L18.429,77.574Z" style="fill:rgb(26,195,251);"/>
                    </g>
                </g>
            </g>
            <g id="g-root-sy_top_cu_18mjwwu1904h6o-fill" transform="matrix(1,0,0,1,229.7,49.8339)">
                <g id="sy_top_cu_18mjwwu1904h6o-fill">
                    <g>
                        <path d="M165.751,458.401C156.266,472.235 139.404,484.529 128.271,491.19C126.966,491.968 125.641,492.733 124.297,493.486C119.434,496.213 114.328,498.785 109.05,501.281L118.484,525.332C136.077,517.152 154.193,506.203 167.467,491.637C176.253,481.995 177.871,472.724 177.871,458.401C177.871,444.079 176.393,434.52 167.607,424.878C175.707,435.361 172.82,448.092 165.751,458.401ZM20.539,425.219C36.113,408.128 58.353,396.017 78.594,387.516C82.675,385.853 88.037,383.638 94.136,380.941C106.38,375.576 118.092,370.215 128.534,363.987C139.667,357.326 156.529,345.032 166.014,331.199C173.083,320.889 175.829,308.446 167.729,297.963C176.515,307.605 178.134,316.876 178.134,331.199C178.134,345.521 176.515,354.792 167.729,364.434C152.155,381.525 129.915,393.636 109.674,402.136C105.593,403.799 100.234,406.013 94.136,408.711C81.891,414.076 70.176,419.437 59.735,425.666C48.601,432.326 31.739,444.62 22.254,458.454C15.185,468.764 12.439,481.207 20.539,491.689C11.753,482.047 10.134,472.776 10.134,458.454C10.134,444.131 11.753,434.86 20.539,425.219ZM20.405,297.922C35.978,280.831 58.219,268.72 78.46,260.219C82.541,258.556 87.903,256.341 94.001,253.644C106.246,248.279 117.958,242.918 128.4,236.689C139.533,230.029 156.395,217.735 165.88,203.901C172.949,193.591 175.695,181.148 167.595,170.666C176.381,180.308 178,189.579 178,203.901C178,218.224 176.381,227.495 167.595,237.136C152.021,254.227 129.781,266.338 109.54,274.839C105.459,276.502 100.1,278.716 94.001,281.414C81.757,286.779 70.042,292.14 59.6,298.369C48.467,305.029 31.605,317.323 22.12,331.157C15.051,341.467 12.305,353.91 20.405,364.392C11.618,354.75 10,345.479 10,331.157C10,316.834 11.618,307.563 20.405,297.922ZM20.466,171.127C36.09,154.036 58.403,141.925 78.71,133.424C82.804,131.761 88.183,129.546 94.301,126.849C106.585,121.484 118.336,116.123 128.811,109.895C139.98,103.235 156.897,90.94 166.413,77.107C173.505,66.797 176.26,54.354 168.134,43.871C176.949,53.513 178.572,62.784 178.572,77.107C178.572,91.429 176.949,100.7 168.134,110.342C152.51,127.433 130.197,139.544 109.89,148.044C105.796,149.707 100.42,151.921 94.301,154.619C82.018,159.984 70.264,165.345 59.789,171.574C48.62,178.234 31.703,190.528 22.187,204.362C15.095,214.672 12.392,227.143 20.698,237.597C11.883,227.955 10.028,218.684 10.028,204.362C10.028,190.039 11.652,180.768 20.466,171.127ZM22.336,76.931C31.821,63.097 48.767,50.803 59.9,44.143C61.206,43.364 62.531,42.599 63.874,41.846C68.738,39.119 73.843,36.548 79.122,34.051L69.688,10C52.094,18.18 33.978,29.129 20.704,43.696C11.918,53.337 10.3,62.608 10.3,76.931C10.3,91.253 11.918,100.524 20.704,110.166C12.605,99.684 15.267,87.241 22.336,76.931Z" style="fill:rgb(171,171,171);"/>
                    </g>
                </g>
            </g>
            <g transform="matrix(1,0,0,1,494,132)">
                <g id="g-root-tx_healthca_8zmkbi1905vyn-fill">
                    <g id="tx_healthca_8zmkbi1905vyn-fill">
                        <g>
                            <g>
                                <text x="0px" y="0px" style="font-family:'ArialMT', 'Arial', sans-serif;font-size:20px;fill:rgb(44,44,44);">Healthcare</text>
                            </g>
                        </g>
                    </g>
                </g>
            </g>
            <g id="g-root-tx_financei_18hk47y1905v5y-fill" transform="matrix(1,0,0,1,50,218)">
                <g id="tx_financei_18hk47y1905v5y-fill">
                    <g>
                        <g>
                            <g transform="matrix(1,0,0,1,16.63,34)">
                                <text x="0px" y="0px" style="font-family:'ArialMT', 'Arial', sans-serif;font-size:20px;fill:rgb(44,44,44);">Finance &amp;</text>
                            </g>
                            <g transform="matrix(1,0,0,1,16.78,58)">
                                <text x="0px" y="0px" style="font-family:'ArialMT', 'Arial', sans-serif;font-size:20px;fill:rgb(44,44,44);">Insurance</text>
                            </g>
                        </g>
                    </g>
                </g>
            </g>
            <g id="g-root-tx_ecommerc_4hxmxq1905xql-fill" transform="matrix(1,0,0,1,482,206)">
                <g id="tx_ecommerc_4hxmxq1905xql-fill">
                    <g>
                        <g>
                            <g transform="matrix(1,0,0,1,12,34)">
                                <text x="0px" y="0px" style="font-family:'ArialMT', 'Arial', sans-serif;font-size:20px;fill:rgb(44,44,44);">E-Commerce &amp;</text>
                            </g>
                            <g transform="matrix(1,0,0,1,12,58)">
                                <text x="0px" y="0px" style="font-family:'ArialMT', 'Arial', sans-serif;font-size:20px;fill:rgb(44,44,44);">Customer</text>
                            </g>
                            <g transform="matrix(1,0,0,1,12,82)">
                                <text x="0px" y="0px" style="font-family:'ArialMT', 'Arial', sans-serif;font-size:20px;fill:rgb(44,44,44);">Support</text>
                            </g>
                        </g>
                    </g>
                </g>
            </g>
            <g id="g-root-tx_educatio_13zv6u61905wxw-fill" transform="matrix(1,0,0,1,38,350)">
                <g id="tx_educatio_13zv6u61905wxw-fill">
                    <g>
                        <g>
                            <g transform="matrix(1,0,0,1,11.53,34)">
                                <text x="0px" y="0px" style="font-family:'ArialMT', 'Arial', sans-serif;font-size:20px;fill:rgb(44,44,44);">Educational</text>
                            </g>
                            <g transform="matrix(1,0,0,1,16.02,58)">
                                <text x="0px" y="0px" style="font-family:'ArialMT', 'Arial', sans-serif;font-size:20px;fill:rgb(44,44,44);">Institutions</text>
                            </g>
                        </g>
                    </g>
                </g>
            </g>
            <g id="g-root-tx_travelho_m7c8661905x4z-fill" transform="matrix(1,0,0,1,482,350)">
                <g id="tx_travelho_m7c8661905x4z-fill">
                    <g>
                        <g>
                            <g transform="matrix(1,0,0,1,12,34)">
                                <text x="0px" y="0px" style="font-family:'ArialMT', 'Arial', sans-serif;font-size:20px;fill:rgb(44,44,44);">T<tspan x="11.475px 18.135px " y="0px 0px ">ra</tspan>vel &amp;</text>
                            </g>
                            <g transform="matrix(1,0,0,1,12,58)">
                                <text x="0px" y="0px" style="font-family:'ArialMT', 'Arial', sans-serif;font-size:20px;fill:rgb(44,44,44);">Hospitality</text>
                            </g>
                        </g>
                    </g>
                </g>
            </g>
            <g id="g-root-tx_callcent_1cymkim1905wjs-fill" transform="matrix(1,0,0,1,14,86)">
                <g id="tx_callcent_1cymkim1905wjs-fill">
                    <g>
                        <g>
                            <g transform="matrix(1,0,0,1,15.08,34)">
                                <text x="0px" y="0px" style="font-family:'ArialMT', 'Arial', sans-serif;font-size:20px;fill:rgb(44,44,44);">Call Centers &amp;</text>
                            </g>
                            <g transform="matrix(1,0,0,1,90.83,58)">
                                <text x="0px" y="0px" style="font-family:'ArialMT', 'Arial', sans-serif;font-size:20px;fill:rgb(44,44,44);">BPOs</text>
                            </g>
                        </g>
                    </g>
                </g>
            </g>
            <g transform="matrix(1,0,0,1,494,528)">
                <g id="g-root-tx_voiprese_i09d9a1904h6p-fill">
                    <g id="tx_voiprese_i09d9a1904h6p-fill">
                        <g>
                            <g>
                                <text x="0px" y="0px" style="font-family:'ArialMT', 'Arial', sans-serif;font-size:20px;fill:rgb(44,44,44);">V<tspan x="12.236px 23.359px 28.916px 41.895px 47.451px " y="0px 0px 0px 0px 0px ">oIP R</tspan>esellers</text>
                            </g>
                        </g>
                    </g>
                </g>
            </g>
            <g id="g-root-tx_telemark_1hjfvby1904hsa-fill" transform="matrix(1,0,0,1,14,482)">
                <g id="tx_telemark_1hjfvby1904hsa-fill">
                    <g>
                        <g>
                            <g transform="matrix(1,0,0,1,13.53,34)">
                                <text x="0px" y="0px" style="font-family:'ArialMT', 'Arial', sans-serif;font-size:20px;fill:rgb(44,44,44);">T<tspan x="10px 21.123px " y="0px 0px ">el</tspan>emarketing</text>
                            </g>
                            <g transform="matrix(1,0,0,1,57.82,58)">
                                <text x="0px" y="0px" style="font-family:'ArialMT', 'Arial', sans-serif;font-size:20px;fill:rgb(44,44,44);">Agencies</text>
                            </g>
                        </g>
                    </g>
                </g>
            </g>
            <g id="g-root-sy_back_cu_v7z13y1904hl3-stroke" transform="matrix(1,0,0,1,235.154,49.9999)">
                <g id="sy_back_cu_v7z13y1904hl3-stroke">
                    <g>
                        <path d="M15.516,460.779C16.378,461.247 17.357,461.514 18.384,461.514L19.541,461.514C24.577,467.927 30.69,473.943 37.147,479.077L29.413,479.355C26.084,479.489 23.513,482.303 23.513,485.637L23.513,487.048C23.646,490.375 26.47,492.943 29.8,492.817L55.907,491.901C61.433,495.104 67.295,498.085 73.386,500.966L63.958,525.019C46.357,516.838 28.231,505.886 14.951,491.313C6.98,480.847 9.864,468.339 16.816,458.294C16.766,458.222 16.865,458.366 16.816,458.294C16.766,458.366 16.716,458.438 16.667,458.51C16.15,459.264 15.984,460.004 15.516,460.779ZM18.056,334.483C16.95,334.483 15.9,334.172 14.99,333.635C9.215,343.384 7.528,354.638 14.951,364.245C26.622,377.052 41.858,386.823 57.369,394.614C62.557,392.008 67.756,389.65 72.83,387.519C76.911,385.857 82.273,383.642 88.371,380.945L88.862,380.729C88.699,380.658 88.535,380.585 88.371,380.513C76.817,375.45 65.911,370.631 55.925,364.844L29.474,365.76C26.144,365.886 23.32,363.318 23.187,359.991L23.187,358.58C23.187,355.246 25.758,352.432 29.087,352.299L37.16,352.02C30.703,346.886 24.26,340.896 19.222,334.483L18.056,334.483ZM135.539,433.559L147.939,434.053C151.148,434.179 153.712,431.75 153.839,428.543L153.839,427.265C153.839,424.058 151.408,421.37 148.198,421.237L113.42,419.853C105.716,415.841 97.506,412.122 89.038,408.408C94.933,405.808 100.115,403.668 104.087,402.049C109.439,399.802 114.931,397.301 120.403,394.523C135.624,402.251 150.686,412.128 162.142,424.699C170.197,435.123 167.526,447.486 160.544,457.762C162.032,455.54 163.318,453.223 164.337,450.851C163.254,449.026 161.258,447.77 159.036,447.77L151.997,447.77C146.893,442.5 141.101,437.667 135.539,433.559ZM18.509,207.485C17.422,207.485 16.388,207.185 15.49,206.664C16.002,205.803 16.216,204.954 16.789,204.119L16.829,204.059L16.789,204C9.72,214.31 6.973,226.753 15.073,237.235C26.602,249.887 41.556,259.726 56.876,267.475C62.251,264.756 67.644,262.304 72.901,260.096C76.947,258.448 82.252,256.257 88.286,253.591C76.796,248.554 66.003,243.602 56.067,237.845L29.773,238.762C26.443,238.888 23.619,236.32 23.486,232.993L23.486,231.582C23.486,228.249 26.057,225.434 29.386,225.301L37.297,225.021C30.839,219.889 24.394,213.898 19.354,207.485L18.509,207.485ZM88.536,281.244L88.691,281.312C97.343,285.103 105.73,288.892 113.591,292.987L148.118,294.232C151.328,294.365 153.759,297.054 153.759,300.261L153.759,301.538C153.632,304.746 151.068,307.174 147.858,307.048L135.475,306.555C141.037,310.664 147.053,315.633 152.154,320.903L159.182,320.903C161.427,320.903 163.441,322.184 164.516,324.041C168.323,315.406 168.62,306.014 162.288,297.82C150.691,285.094 135.398,275.129 119.986,267.359C114.701,270.023 109.401,272.43 104.233,274.6C100.151,276.263 94.792,278.478 88.694,281.175L88.536,281.244ZM15.235,110.004C7.179,99.577 9.809,87.063 16.854,76.8C16.307,77.617 15.551,78.81 15.062,79.651C16.578,80.525 17.545,80.525 18.649,80.525L19.834,80.525C24.876,86.939 31.03,92.933 37.489,98.064L29.388,98.345C26.058,98.478 23.487,101.292 23.487,104.626L23.487,106.037C23.62,109.364 26.444,111.932 29.774,111.806L56.264,110.888C66.24,116.666 77.309,121.323 88.848,126.379L89.18,126.525L88.848,126.671C82.749,129.368 77.388,131.583 73.306,133.245C68.188,135.395 62.941,137.776 57.707,140.409C42.243,132.629 26.871,122.772 15.235,110.004ZM135.808,179.499L148.189,180.001C151.399,180.128 154.012,177.73 154.139,174.523L154.139,173.245C154.139,170.038 151.708,167.35 148.498,167.216L113.768,165.834C106.002,161.788 97.721,158.04 89.179,154.294C95.14,151.663 100.379,149.499 104.387,147.866C109.694,145.637 115.139,143.16 120.565,140.409C135.833,148.148 150.703,157.992 162.193,170.602C170.293,181.084 167.419,193.589 160.35,203.899C160.344,203.891 160.338,203.883 160.333,203.875C160.338,203.866 160.344,203.858 160.35,203.85C161.886,201.61 163.217,199.269 164.278,196.87C163.2,195.027 161.57,193.749 159.336,193.749L152.319,193.749C147.22,188.481 141.368,183.608 135.808,179.499ZM113.795,38.898L148.498,40.279C151.708,40.412 154.139,43.101 154.139,46.308L154.139,47.585C154.012,50.793 151.448,53.221 148.239,53.095L135.89,52.603C141.45,56.713 147.235,61.544 152.332,66.812L159.336,66.812C161.577,66.812 163.761,68.229 164.838,70.08C168.651,61.672 169.214,51.826 162.443,43.386C149.163,28.814 131.037,18.181 113.436,10L104.007,34.053C107.345,35.632 110.613,37.24 113.795,38.898Z" style="fill:none;stroke:rgb(44,44,44);stroke-width:2px;"/>
                    </g>
                </g>
            </g>
            <g id="g-root-sy_8_cu_hwiiqm1904j60-stroke" transform="matrix(1,0,0,1,314,458.899)">
                <g id="sy_8_cu_hwiiqm1904j60-stroke">
                    <g>
                        <path d="M69.371,12.374C72.581,12.507 75.011,15.195 75.011,18.403L75.011,19.68C74.885,22.887 72.321,25.273 69.111,25.147L10,22.835L10,10L69.371,12.374ZM79.046,52.621C79.891,51.537 80.696,50.442 81.454,49.336C83.069,46.982 84.457,44.516 85.543,41.988C84.46,40.163 82.685,38.907 80.464,38.907L10,38.907L10,52.621L79.046,52.621ZM65.663,66.448L10,68.381L10,81.852L46.501,80.579C52.265,76.966 59.149,72.1 65.663,66.448Z" style="fill:none;stroke:rgb(44,44,44);stroke-width:2px;"/>
                    </g>
                </g>
            </g>
            <g id="g-root-sy_7_cu_4lohge1904hl5-stroke" transform="matrix(1,0,0,1,240.345,458.117)">
                <g id="sy_7_cu_4lohge1904hl5-stroke">
                    <g>
                        <path d="M10,52.656C10.863,53.124 12.19,53.391 13.217,53.391L83.655,53.403L83.655,39.689L20.323,39.715C16.984,43.114 14.014,46.664 11.478,50.362C10.962,51.116 10.468,51.881 10,52.656ZM41.862,21.991L83.655,23.608L83.655,10.782L62.726,10C57.833,12.423 53.199,14.938 48.716,17.612C46.601,18.878 44.302,20.347 41.862,21.991ZM18.322,77.526C18.322,74.193 20.893,71.378 24.223,71.245L83.655,69.163L83.655,82.634L24.609,84.706C21.279,84.833 18.456,82.264 18.322,78.937L18.322,77.526Z" style="fill:none;stroke:rgb(44,44,44);stroke-width:2px;"/>
                    </g>
                </g>
            </g>
            <g id="g-root-sy_6_cu_1lw500u1904gle-stroke" transform="matrix(1,0,0,1,313.7,331.848)">
                <g id="sy_6_cu_1lw500u1904gle-stroke">
                    <g>
                        <path d="M69.652,12.374C72.862,12.507 75.293,15.195 75.293,18.403L75.293,19.68C75.166,22.887 72.602,25.316 69.392,25.19L10,22.826L10,10L69.652,12.374ZM79.496,52.621C80.248,51.645 81.017,50.661 81.698,49.668C83.333,47.283 84.804,44.833 85.961,42.315C84.931,40.314 82.842,38.907 80.49,38.907L10,38.907L10,52.621L79.496,52.621ZM65.959,66.506L10,68.381L10,81.852L46.881,80.554C52.647,76.903 59.537,72.123 65.959,66.506Z" style="fill:none;stroke:rgb(44,44,44);stroke-width:2px;"/>
                    </g>
                </g>
            </g>
            <g id="g-root-sy_5_cu_18kohni1904i6b-stroke" transform="matrix(1,0,0,1,240.18,331)">
                <g id="sy_5_cu_18kohni1904i6b-stroke">
                    <g>
                        <path d="M10,52.572C10.932,53.145 12.018,53.478 13.164,53.478L83.654,53.478L83.654,39.765L20.061,39.765C16.974,42.965 14.144,46.325 11.774,49.781C11.147,50.695 10.554,51.626 10,52.572ZM41.447,22.004L83.654,23.683L83.654,10.858L62.106,10C57.656,12.232 53.357,14.546 49.255,16.993C46.872,18.418 44.226,20.102 41.447,22.004ZM18.162,77.576C18.162,74.242 20.732,71.428 24.062,71.295L83.699,69.238L83.699,82.71L24.448,84.756C21.118,84.882 18.295,82.314 18.162,78.987L18.162,77.576Z" style="fill:none;stroke:rgb(44,44,44);stroke-width:2px;"/>
                    </g>
                </g>
            </g>
            <g id="g-root-sy_4_cu_me7g4e1904he4-stroke" transform="matrix(1,0,0,1,314,204.8)">
                <g id="sy_4_cu_me7g4e1904he4-stroke">
                    <g>
                        <path d="M69.652,12.374C72.862,12.507 75.293,15.195 75.293,18.403L75.293,19.68C75.166,22.887 72.602,25.316 69.392,25.19L10,22.826L10,10L69.652,12.374ZM78.863,52.621C79.805,51.428 80.699,50.219 81.535,48.999C83.071,46.759 84.536,44.147 85.596,41.747C84.614,40.227 82.671,38.946 80.438,38.946L10,38.907L10,52.621L78.863,52.621ZM65.307,66.455L10,68.381L10,81.852L45.982,80.593C51.741,77.018 58.698,72.144 65.307,66.455Z" style="fill:none;stroke:rgb(44,44,44);stroke-width:2px;"/>
                    </g>
                </g>
            </g>
            <g id="g-root-sy_3_cu_92qxr21904iz1-stroke" transform="matrix(1,0,0,1,240.328,204)">
                <g id="sy_3_cu_92qxr21904iz1-stroke">
                    <g>
                        <path d="M10,52.634C10.899,53.154 12.103,53.454 13.191,53.454L83.681,53.454L83.681,39.74L20.284,39.74C17.073,43.039 14.075,46.512 11.623,50.088C11.05,50.923 10.513,51.772 10,52.634ZM41.933,21.997L83.681,23.659L83.681,10.833L62.747,10C58.078,12.327 53.572,14.74 49.281,17.3C47.03,18.647 44.545,20.224 41.933,21.997ZM18.322,77.552C18.322,74.218 20.892,71.403 24.222,71.27L83.681,69.214L83.681,82.685L24.608,84.731C21.279,84.858 18.455,82.289 18.322,78.962L18.322,77.552Z" style="fill:none;stroke:rgb(44,44,44);stroke-width:2px;"/>
                    </g>
                </g>
            </g>
            <g id="g-root-sy_2_cu_4njwpq1904gli-stroke" transform="matrix(1,0,0,1,314,77.905)">
                <g id="sy_2_cu_4njwpq1904gli-stroke">
                    <g>
                        <path d="M69.652,12.374C72.862,12.507 75.293,15.195 75.293,18.403L75.293,19.68C75.166,22.887 72.602,25.316 69.392,25.19L10,22.826L10,10L69.652,12.374ZM79.467,52.621C80.314,51.535 81.121,50.438 81.88,49.33C83.456,47.032 84.817,44.628 85.891,42.164C84.834,40.243 82.782,38.907 80.49,38.907L10,38.907L10,52.621L79.467,52.621ZM66.084,66.442L10,68.381L10,81.852L46.921,80.573C52.685,76.959 59.569,72.094 66.084,66.442Z" style="fill:none;stroke:rgb(44,44,44);stroke-width:2px;"/>
                    </g>
                </g>
            </g>
            <g id="g-root-sy_1_cu_1hhkg2m1904irz-stroke" transform="matrix(1,0,0,1,240.212,77.049)">
                <g id="sy_1_cu_1hhkg2m1904irz-stroke">
                    <g>
                        <path d="M20.061,39.763C16.998,42.944 14.197,46.255 11.843,49.689C11.188,50.644 10.576,51.62 10,52.609C10.908,53.143 12.006,53.477 13.11,53.477L83.788,53.477L83.788,39.763L20.061,39.763ZM41.492,22.005L83.788,23.682L83.788,10.856L62.118,10C59.129,11.501 56.209,13.04 53.371,14.631C52.027,15.384 50.702,16.149 49.397,16.927C46.986,18.37 44.307,20.076 41.492,22.005ZM18.429,77.574C18.429,74.24 20.999,71.426 24.329,71.293L83.788,69.237L83.788,82.708L24.715,84.754C21.386,84.88 18.562,82.312 18.429,78.985L18.429,77.574Z" style="fill:none;stroke:rgb(44,44,44);stroke-width:2px;"/>
                    </g>
                </g>
            </g>
            <g id="g-root-sy_top_cu_18mjwwu1904h6o-stroke" transform="matrix(1,0,0,1,229.7,49.8339)">
                <g id="sy_top_cu_18mjwwu1904h6o-stroke">
                    <g>
                        <path d="M165.751,458.401C156.266,472.235 139.404,484.529 128.271,491.19C126.966,491.968 125.641,492.733 124.297,493.486C119.434,496.213 114.328,498.785 109.05,501.281L118.484,525.332C136.077,517.152 154.193,506.203 167.467,491.637C176.253,481.995 177.871,472.724 177.871,458.401C177.871,444.079 176.393,434.52 167.607,424.878C175.707,435.361 172.82,448.092 165.751,458.401ZM78.594,387.516C58.353,396.017 36.113,408.128 20.539,425.219C11.753,434.861 10.134,444.132 10.134,458.454C10.134,472.776 11.753,482.048 20.539,491.689C12.439,481.207 15.185,468.764 22.254,458.454C31.739,444.62 48.601,432.326 59.735,425.666C70.176,419.437 81.891,414.076 94.136,408.711C100.234,406.014 105.593,403.799 109.674,402.137C129.915,393.636 152.156,381.525 167.73,364.434C176.516,354.792 178.134,345.521 178.134,331.199C178.134,316.876 176.516,307.605 167.73,297.963C175.829,308.446 173.083,320.889 166.014,331.199C156.529,345.032 139.667,357.326 128.534,363.987C118.092,370.215 106.38,375.576 94.136,380.941C88.037,383.638 82.675,385.853 78.594,387.516ZM78.46,260.219C58.219,268.72 35.978,280.831 20.405,297.922C11.618,307.563 10,316.834 10,331.157C10,345.479 11.618,354.75 20.405,364.392C12.305,353.91 15.051,341.467 22.12,331.157C31.605,317.323 48.467,305.029 59.6,298.369C70.042,292.14 81.757,286.779 94.001,281.414C100.1,278.716 105.459,276.502 109.54,274.839C129.781,266.338 152.022,254.227 167.595,237.136C176.381,227.495 178,218.224 178,203.901C178,189.579 176.381,180.308 167.595,170.666C175.695,181.148 172.949,193.591 165.88,203.901C156.395,217.735 139.533,230.029 128.399,236.689C117.958,242.918 106.246,248.279 94.001,253.644C87.903,256.341 82.541,258.556 78.46,260.219ZM78.71,133.424C58.403,141.925 36.09,154.036 20.466,171.127C11.652,180.769 10.028,190.04 10.028,204.362C10.028,218.685 11.883,227.956 20.698,237.597C12.392,227.143 15.095,214.672 22.187,204.362C31.703,190.528 48.62,178.234 59.789,171.574C70.264,165.346 82.018,159.984 94.301,154.619C100.42,151.922 105.796,149.708 109.89,148.045C130.197,139.544 152.51,127.433 168.134,110.342C176.948,100.7 178.572,91.429 178.572,77.107C178.572,62.784 176.948,53.513 168.134,43.871C176.26,54.354 173.505,66.797 166.413,77.107C156.897,90.94 139.98,103.235 128.811,109.895C118.336,116.123 106.585,121.484 94.301,126.849C88.183,129.546 82.804,131.761 78.71,133.424ZM22.336,76.931C31.821,63.097 48.767,50.803 59.9,44.143C61.206,43.364 62.531,42.599 63.874,41.846C68.738,39.119 73.843,36.548 79.122,34.051L69.688,10C52.094,18.18 33.978,29.129 20.704,43.696C11.918,53.337 10.3,62.608 10.3,76.931C10.3,91.253 11.918,100.524 20.704,110.166C12.605,99.684 15.267,87.241 22.336,76.931Z" style="fill:none;stroke:rgb(44,44,44);stroke-width:2px;"/>
                    </g>
                </g>
            </g>
            <g id="g-root-ic_conv_mgpcgu190ik1z-stroke" transform="matrix(1,0,0,1,158,218)">
                <g id="ic_conv_mgpcgu190ik1z-stroke">
                    <g>
                        <path d="M45.5,39.5L31.5,39.5L19.5,48.5L19.5,39.5L14.5,39.5C12.9,39.5 11.5,38.1 11.5,36.5L11.5,14.5C11.5,12.9 12.9,11.5 14.5,11.5L45.5,11.5C47.1,11.5 48.5,12.9 48.5,14.5L48.5,36.5C48.5,38.1 47.3,39.5 45.5,39.5ZM30.5,47.5L36.5,47.5L48.5,56.5L48.5,47.5L53.5,47.5C55.1,47.5 56.5,46.1 56.5,44.5L56.5,22.5C56.5,20.9 55.1,19.5 53.5,19.5M40.5,19.5L30.1,28.9L25.5,24.3L19.5,29.9M33.5,19.5L40.5,19.5L40.5,26.5" style="fill:none;stroke:rgb(166,218,55);stroke-width:2px;"/>
                    </g>
                </g>
            </g>
            <g id="g-root-ic_chat_qoeogu190h62u-stroke" transform="matrix(1,0,0,1,422,218)">
                <g id="ic_chat_qoeogu190h62u-stroke">
                    <g>
                        <path d="M40.8,27.646L40.8,18.086C40.8,14.62 37.988,11.811 34.522,11.814L17.272,11.814C13.808,11.814 11,14.622 11,18.086L11,27.486C10.999,30.951 13.807,33.76 17.272,33.76L17.272,41.6L25.114,33.76L32.38,33.76M18.056,21.8C17.504,21.8 17.056,22.248 17.056,22.8C17.056,23.352 17.504,23.8 18.056,23.8C18.608,23.8 19.056,23.352 19.056,22.8C19.056,22.248 18.608,21.8 18.056,21.8M25.898,21.8C25.346,21.8 24.898,22.248 24.898,22.8C24.898,23.352 25.346,23.8 25.898,23.8C26.45,23.8 26.898,23.352 26.898,22.8C26.898,22.248 26.45,21.8 25.898,21.8M33.738,21.8C33.186,21.8 32.738,22.248 32.738,22.8C32.738,23.352 33.186,23.8 33.738,23.8C34.29,23.8 34.738,23.352 34.738,22.8C34.738,22.248 34.29,21.8 33.738,21.8M35.428,51.872L34.564,51.872C32.658,51.872 31.112,50.326 31.112,48.42L31.112,44.968C31.112,43.062 32.658,41.517 34.564,41.518L35.428,41.518C35.904,41.518 36.29,41.904 36.29,42.38L36.29,51.01C36.29,51.486 35.904,51.872 35.428,51.872ZM53.548,51.872L52.686,51.872C52.457,51.873 52.237,51.782 52.075,51.62C51.913,51.459 51.822,51.239 51.822,51.01L51.822,42.38C51.822,42.151 51.913,41.931 52.075,41.77C52.237,41.608 52.457,41.517 52.686,41.518L53.548,41.518C55.454,41.517 57,43.062 57,44.968L57,48.42C57,50.326 55.454,51.872 53.548,51.872L53.548,51.872ZM34.564,41.518C34.564,36.276 38.814,32.026 44.056,32.026L44.056,32.026C49.298,32.026 53.548,36.276 53.548,41.518M47.508,56.186L50.096,56.186C52.002,56.187 53.548,54.642 53.548,52.736L53.548,51.872" style="fill:none;stroke:rgb(255,231,17);stroke-width:2px;"/>
                    </g>
                </g>
            </g>
            <g id="g-root-ic_prot_hz0f32190lclk-stroke" transform="matrix(1,0,0,1,422,86)">
                <g id="ic_prot_hz0f32190lclk-stroke">
                    <g>
                        <path d="M13,17.55L13,32.824C13.12,43.162 19.686,52.325 29.438,55.76L31.68,56.588C33.178,57.138 34.822,57.138 36.32,56.588L38.562,55.76C48.314,52.325 54.88,43.162 55,32.824L55,17.55C54.996,16.323 54.261,15.217 53.132,14.738C47.073,12.212 40.564,10.94 34,11C27.436,10.94 20.927,12.212 14.868,14.738C13.739,15.217 13.004,16.323 13,17.55ZM42.722,31.472C42.722,33.753 44.571,35.602 46.852,35.602C49.133,35.602 50.982,33.753 50.982,31.472C50.982,29.191 49.133,27.342 46.852,27.342C44.571,27.342 42.722,29.191 42.722,31.472M53.6,40.758C50.787,37.123 45.599,36.374 41.872,39.064M17.018,31.472C17.018,33.753 18.867,35.602 21.148,35.602C23.429,35.602 25.278,33.753 25.278,31.472C25.278,29.191 23.429,27.342 21.148,27.342C18.867,27.342 17.018,29.191 17.018,31.472M14.4,40.756C17.214,37.121 22.402,36.371 26.13,39.06M43.6,44.554C43.601,39.251 39.303,34.952 34,34.952C28.697,34.952 24.399,39.251 24.4,44.554M28.232,26.67C28.231,29.802 30.77,32.342 33.902,32.342C37.034,32.342 39.573,29.802 39.572,26.67C39.573,23.538 37.034,20.998 33.902,20.998C30.77,20.998 28.231,23.538 28.232,26.67" style="fill:none;stroke:rgb(67,221,147);stroke-width:2px;"/>
                    </g>
                </g>
            </g>
            <g id="g-root-ic_cog_ddkqce1903475-stroke" transform="matrix(1,0,0,1,158,86)">
                <g id="ic_cog_ddkqce1903475-stroke">
                    <g>
                        <path d="M26.8,33.49C26.8,29.514 30.024,26.29 34,26.29C37.976,26.29 41.2,29.514 41.2,33.49M18.94,40.78L18.916,40.78C14.896,41.675 12.037,45.242 12.038,49.36L12.038,51.098C12.037,51.875 12.346,52.62 12.895,53.169C13.444,53.718 14.189,54.027 14.966,54.026L22.286,54.026C23.904,54.027 25.216,52.716 25.216,51.098C25.216,49.481 26.527,48.17 28.144,48.17L39.856,48.17C41.473,48.17 42.784,49.481 42.784,51.098C42.784,52.716 44.096,54.027 45.714,54.026L53.034,54.026C53.811,54.027 54.556,53.718 55.105,53.169C55.654,52.62 55.963,51.875 55.962,51.098L55.962,49.36C55.961,45.243 53.102,41.679 49.084,40.784L49.06,40.784C39.113,38.858 28.888,38.856 18.94,40.78ZM53.098,37.516C53.376,36.193 53.517,34.844 53.518,33.492C53.518,32.698 53.469,31.906 53.372,31.118C53.261,30.164 52.495,29.42 51.538,29.338L48.722,29.108C48.426,28.091 48.023,27.107 47.522,26.174L49.344,24.028C49.95,23.334 49.993,22.313 49.448,21.57C48.429,20.252 47.246,19.069 45.928,18.05C45.185,17.504 44.163,17.548 43.47,18.156L41.324,19.976C40.39,19.477 39.408,19.075 38.392,18.776L38.16,15.962C38.078,15.005 37.334,14.237 36.38,14.126C34.805,13.934 33.212,13.934 31.636,14.126C30.682,14.237 29.938,15.005 29.856,15.962L29.616,18.768C28.6,19.067 27.618,19.469 26.684,19.968L24.538,18.148C23.843,17.543 22.821,17.502 22.08,18.05C20.762,19.069 19.579,20.252 18.56,21.57C18.015,22.313 18.058,23.334 18.664,24.028L20.486,26.174C19.985,27.107 19.582,28.091 19.286,29.108L16.47,29.338C15.513,29.42 14.747,30.164 14.636,31.118C14.539,31.906 14.49,32.698 14.49,33.492C14.491,34.844 14.632,36.193 14.91,37.516" style="fill:none;stroke:rgb(26,195,251);stroke-width:2px;"/>
                    </g>
                </g>
            </g>
            <g id="g-root-ic_4_v6q2xq190eadh-stroke" transform="matrix(1,0,0,1,158,350)">
                <g id="ic_4_v6q2xq190eadh-stroke">
                    <g>
                        <path d="M30.5,32.334L38.524,32.334L38.324,39L46.124,32.334L54.324,32.334C55.033,32.337 55.714,32.057 56.216,31.556C56.719,31.055 57.001,30.375 57,29.666L57,13.666C57,12.194 55.806,11 54.334,11L30.334,11C28.861,10.999 27.666,12.193 27.666,13.666L27.666,24M38,27L43,16L48,27M39.108,24.562L46.892,24.562M33,55C33,56.105 32.105,57 31,57L13,57C11.895,57 11,56.105 11,55L11,48C11,41.925 15.925,37 22,37C28.075,37 33,41.925 33,48L33,55ZM11,51L33,51M17,45.5C17,45.776 17.224,46 17.5,46C17.776,46 18,45.776 18,45.5C18,45.224 17.776,45 17.5,45C17.224,45 17,45.224 17,45.5M26,45.5C26,45.776 26.224,46 26.5,46C26.776,46 27,45.776 27,45.5C27,45.224 26.776,45 26.5,45C26.224,45 26,45.224 26,45.5M22,37L22,33M19,30C19,31.657 20.343,33 22,33C23.657,33 25,31.657 25,30C25,28.343 23.657,27 22,27C20.343,27 19,28.343 19,30" style="fill:none;stroke:rgb(247,148,56);stroke-width:2px;"/>
                    </g>
                </g>
            </g>
            <g id="g-root-ic_desk_1cz91lq190bjes-stroke" transform="matrix(1,0,0,1,422,350)">
                <g id="ic_desk_1cz91lq190bjes-stroke">
                    <g>
                        <path d="M23,42L13,42C11.895,42 11,41.105 11,40C11,38.895 11.895,38 13,38L55,38C56.105,38 57,38.895 57,40C57,41.105 56.105,42 55,42L45,42M17,42L21,42L21,57L17,57L17,42ZM47,42L51,42L51,57L47,57L47,42ZM41,51C41,51.552 40.552,52 40,52L28,52C27.448,52 27,51.552 27,51L27,38L41,38L41,51ZM19.58,30C19.86,30.003 20.126,30.118 20.32,30.32C21.298,31.309 21.893,32.613 22,34C22,36.209 20.209,38 18,38C15.791,38 14,36.209 14,34C14.107,32.613 14.702,31.309 15.68,30.32C15.874,30.118 16.14,30.003 16.42,30L19.58,30ZM27,48L41,48M24,21C24,26.523 28.477,31 34,31C39.523,31 44,26.523 44,21C44,15.477 39.523,11 34,11C28.477,11 24,15.477 24,21M53,38L49,38L48.2,33.16C48.153,32.872 48.235,32.578 48.423,32.355C48.612,32.132 48.888,32.002 49.18,32L52.82,32C53.112,32.002 53.388,32.132 53.577,32.355C53.765,32.578 53.847,32.872 53.8,33.16L53,38Z" style="fill:none;stroke:rgb(251,103,98);stroke-width:2px;"/>
                    </g>
                </g>
            </g>
            <g id="g-root-ic_supp_1lwrh3y1908q2z-stroke" transform="matrix(1,0,0,1,158,482)">
                <g id="ic_supp_1lwrh3y1908q2z-stroke">
                    <g>
                        <path d="M17.134,46.266C13.747,46.266 11.001,43.521 11,40.134L11,34C11,30.612 13.746,27.866 17.134,27.866L17.134,46.266ZM50.866,27.866C54.254,27.866 57,30.612 57,34L57,40.134C56.999,43.521 54.253,46.266 50.866,46.266L50.866,27.866ZM17.134,27.866C17.134,18.551 24.685,11 34,11C43.315,11 50.866,18.551 50.866,27.866M40.134,53.934L44.734,53.934C48.121,53.933 50.866,51.187 50.866,47.8L50.866,47.8L50.866,46.266M37.066,57L34,57C32.307,57 30.934,55.627 30.934,53.934L30.934,53.934C30.933,52.24 32.306,50.866 34,50.866L37.066,50.866C38.76,50.866 40.134,52.24 40.134,53.934L40.134,53.934C40.134,55.628 38.76,57.001 37.066,57ZM31.052,32.978C31.052,34.574 32.346,35.868 33.942,35.868C35.538,35.868 36.832,34.574 36.832,32.978C36.832,31.382 35.538,30.088 33.942,30.088C32.346,30.088 31.052,31.382 31.052,32.978M36.4,21.8L37.252,24.6C37.543,25.564 38.531,26.137 39.512,25.912L42.35,25.254C43.452,25.011 44.584,25.511 45.145,26.49C45.706,27.468 45.566,28.698 44.8,29.526L42.816,31.666C42.13,32.406 42.13,33.55 42.816,34.29L44.8,36.43C45.57,37.258 45.711,38.491 45.148,39.471C44.585,40.451 43.449,40.951 42.346,40.704L39.508,40.046C38.527,39.82 37.538,40.394 37.248,41.358L36.396,44.158C36.071,45.242 35.073,45.984 33.942,45.984C32.811,45.984 31.813,45.242 31.488,44.158L30.636,41.358C30.345,40.393 29.356,39.82 28.374,40.046L25.538,40.704C24.434,40.954 23.296,40.455 22.732,39.473C22.169,38.492 22.311,37.257 23.084,36.43L25.068,34.29C25.754,33.55 25.754,32.406 25.068,31.666L23.084,29.526C22.311,28.699 22.169,27.464 22.732,26.483C23.296,25.501 24.434,25.002 25.538,25.252L28.374,25.91C29.355,26.135 30.343,25.563 30.636,24.6L31.488,21.8C31.811,20.713 32.81,19.967 33.944,19.967C35.078,19.967 36.077,20.713 36.4,21.8Z" style="fill:none;stroke:rgb(243,102,187);stroke-width:2px;"/>
                    </g>
                </g>
            </g>
            <g id="g-root-ic_capt_1d0hzry1905vk2-stroke" transform="matrix(1,0,0,1,422,482)">
                <g id="ic_capt_1d0hzry1905vk2-stroke">
                    <g>
                        <path d="M15.542,11L52.458,11C52.458,11 56.448,11 56.448,14.99L56.448,19.98C56.448,19.98 56.448,23.97 52.458,23.97L15.542,23.97C15.542,23.97 11.552,23.97 11.552,19.98L11.552,14.99C11.552,14.99 11.552,11 15.542,11M29.962,51.682C29.961,54.619 27.579,57 24.642,57L17.55,57C14.653,56.944 12.333,54.579 12.333,51.681C12.333,48.783 14.653,46.418 17.55,46.362L24.642,46.362C27.58,46.362 29.962,48.744 29.962,51.682ZM17.538,15.49L17.538,19.48M15.542,28.682L52.458,28.682C52.458,28.682 56.448,28.682 56.448,32.672L56.448,37.662C56.448,37.662 56.448,41.652 52.458,41.652L15.542,41.652C15.542,41.652 11.552,41.652 11.552,37.662L11.552,32.672C11.552,32.672 11.552,28.682 15.542,28.682M17.538,33.172L17.538,37.162M18.438,51.682L20.21,53.454L23.756,49.908" style="fill:none;stroke:rgb(135,105,253);stroke-width:2px;"/>
                    </g>
                </g>
            </g>
        </g>
    </g>
</svg>
