<?xml version="1.0" encoding="UTF-8" standalone="no"?>
<!DOCTYPE svg PUBLIC "-//W3C//DTD SVG 1.1//EN" "http://www.w3.org/Graphics/SVG/1.1/DTD/svg11.dtd">
<svg width="100%" height="100%" viewBox="0 0 576 664" version="1.1" xmlns="http://www.w3.org/2000/svg" xmlns:xlink="http://www.w3.org/1999/xlink" xml:space="preserve" xmlns:serif="http://www.serif.com/" style="fill-rule:evenodd;clip-rule:evenodd;stroke-linecap:round;stroke-linejoin:round;">
    <g id="items" transform="matrix(1.09994,0,0,1.09994,-28.0841,-56.1795)">
        <g id="blend">
            <g id="g-root-cp_5_text-5_91iv3u1fdwj61-fill" transform="matrix(1,0,0,1,50,98)">
                <g id="cp_5_text-5_91iv3u1fdwj61-fill">
                    <g>
                        <rect x="10" y="10" width="228" height="132" style="fill:rgb(243,102,187);"/>
                    </g>
                </g>
            </g>
            <g id="g-root-cp_5_stick-5_1qbcwl61fdwlc3-fill" transform="matrix(1,0,0,1,264,230)">
                <g id="cp_5_stick-5_1qbcwl61fdwlc3-fill">
                    <g>
                        <rect x="10" y="10" width="14" height="300" style="fill:rgb(243,102,187);"/>
                    </g>
                </g>
            </g>
            <g id="g-root-cp_3_text-3_1d0ivay1fdwjr9-fill" transform="matrix(1,0,0,1,36,230)">
                <g id="cp_3_text-3_1d0ivay1fdwjr9-fill">
                    <g>
                        <rect x="10" y="10" width="228" height="132" style="fill:rgb(247,148,56);"/>
                    </g>
                </g>
            </g>
            <g id="g-root-cp_3_stick-3_qu1tru1fdwiz3-fill" transform="matrix(1,0,0,1,250,362)">
                <g id="cp_3_stick-3_qu1tru1fdwiz3-fill">
                    <g>
                        <rect x="10" y="10" width="14" height="168" style="fill:rgb(247,148,56);"/>
                    </g>
                </g>
            </g>
            <g id="g-root-cp_1_text-1_hyetiy1fdwkjl-fill" transform="matrix(1,0,0,1,22,362)">
                <g id="cp_1_text-1_hyetiy1fdwkjl-fill">
                    <g>
                        <rect x="10" y="10" width="228" height="132" style="fill:rgb(67,221,147);"/>
                    </g>
                </g>
            </g>
            <g id="g-root-cp_1_stick-1_4nks8q1fdwiyr-fill" transform="matrix(1,0,0,1,236,446)">
                <g id="cp_1_stick-1_4nks8q1fdwiyr-fill">
                    <g>
                        <rect x="10" y="10" width="14" height="84" style="fill:rgb(67,221,147);"/>
                    </g>
                </g>
            </g>
            <g id="g-root-cp_4_text-4_1qd8bui1fdwkcl-fill" transform="matrix(1,0,0,1,278,218)">
                <g id="cp_4_text-4_1qd8bui1fdwkcl-fill">
                    <g>
                        <rect x="10" y="10" width="228" height="132" style="fill:rgb(251,103,98);"/>
                    </g>
                </g>
            </g>
            <g id="g-root-cp_4_stick-4_146rabe1fdwjkf-fill" transform="matrix(1,0,0,1,278,350)">
                <g id="cp_4_stick-4_146rabe1fdwjkf-fill">
                    <g>
                        <rect x="10" y="10" width="14" height="180" style="fill:rgb(251,103,98);"/>
                    </g>
                </g>
            </g>
            <g id="g-root-cp_2_text-2_vb4a2i1fdwl4x-fill" transform="matrix(1,0,0,1,292,350)">
                <g id="cp_2_text-2_vb4a2i1fdwl4x-fill">
                    <g>
                        <rect x="10" y="10" width="228" height="132" style="fill:rgb(255,231,17);"/>
                    </g>
                </g>
            </g>
            <g id="g-root-cp_2_stick-2_94n8je1fdwkcr-fill" transform="matrix(1,0,0,1,292,434)">
                <g id="cp_2_stick-2_94n8je1fdwkcr-fill">
                    <g>
                        <rect x="10" y="10" width="14" height="96" style="fill:rgb(255,231,17);"/>
                    </g>
                </g>
            </g>
            <g id="g-root-cp_0_g-0_1uuas561fdwlql-fill" transform="matrix(1,0,0,1,236,530)">
                <g id="cp_0_g-0_1uuas561fdwlql-fill">
                    <g>
                        <path d="M33.332,61L45.01,86L56.672,61L33.332,61Z" style="fill:rgb(232,232,232);"/>
                    </g>
                </g>
                <g id="cp_0_g-0_1uuas561fdwlql-fill1" serif:id="cp_0_g-0_1uuas561fdwlql-fill">
                    <g>
                        <path d="M80,10L10,10L33.333,61L56.668,61L80,10Z" style="fill:rgb(232,232,232);"/>
                    </g>
                </g>
            </g>
            <g transform="matrix(1,0,0,1,350,264)">
                <g id="g-root-tx_hospital_hxscfu1fe3k7c-fill">
                    <g id="tx_hospital_hxscfu1fe3k7c-fill">
                        <g>
                            <g>
                                <text x="0px" y="0px" style="font-family:'Arial-BoldMT', 'Arial', sans-serif;font-weight:700;font-size:20px;fill:rgb(44,44,44);">Hospitality</text>
                            </g>
                        </g>
                    </g>
                </g>
            </g>
            <g id="g-root-tx_enhancin_1lsf1161fdzci5-fill" transform="matrix(1,0,0,1,60,278)">
                <g id="tx_enhancin_1lsf1161fdzci5-fill">
                    <g>
                        <g>
                            <g transform="matrix(1,0,0,1,82.27,28.2)">
                                <text x="0px" y="0px" style="font-family:'ArialMT', 'Arial', sans-serif;font-size:15px;fill:rgb(44,44,44);">Enhancing</text>
                            </g>
                            <g transform="matrix(1,0,0,1,47.7,46.2)">
                                <text x="0px" y="0px" style="font-family:'ArialMT', 'Arial', sans-serif;font-size:15px;fill:rgb(44,44,44);">communication</text>
                            </g>
                            <g transform="matrix(1,0,0,1,12.83,64.2)">
                                <g transform="matrix(15,0,0,15,8.34229,0)">
                                </g>
                                <g transform="matrix(15,0,0,15,12.3763,0)">
                                </g>
                                <g transform="matrix(15,0,0,15,16.4104,0)">
                                </g>
                                <g transform="matrix(15,0,0,15,82.1631,0)">
                                </g>
                                <g transform="matrix(15,0,0,15,86.3306,0)">
                                </g>
                                <text x="0px" y="0px" style="font-family:'ArialMT', 'Arial', sans-serif;font-size:15px;fill:rgb(44,44,44);">eﬃciency in ﬁnancial</text>
                            </g>
                            <g transform="matrix(1,0,0,1,92.67,82.2)">
                                <text x="0px" y="0px" style="font-family:'ArialMT', 'Arial', sans-serif;font-size:15px;fill:rgb(44,44,44);">services.</text>
                            </g>
                        </g>
                    </g>
                </g>
            </g>
            <g id="g-root-tx_improvin_940rga1fe3k0a-fill" transform="matrix(1,0,0,1,338,266)">
                <g id="tx_improvin_940rga1fe3k0a-fill">
                    <g>
                        <g>
                            <g transform="matrix(1,0,0,1,12,28.2)">
                                <text x="0px" y="0px" style="font-family:'ArialMT', 'Arial', sans-serif;font-size:15px;fill:rgb(44,44,44);">Improving</text>
                            </g>
                            <g transform="matrix(1,0,0,1,12,46.2)">
                                <text x="0px" y="0px" style="font-family:'ArialMT', 'Arial', sans-serif;font-size:15px;fill:rgb(44,44,44);">communication for</text>
                            </g>
                            <g transform="matrix(1,0,0,1,12,64.2)">
                                <text x="0px" y="0px" style="font-family:'ArialMT', 'Arial', sans-serif;font-size:15px;fill:rgb(44,44,44);">hospitality industry</text>
                            </g>
                            <g transform="matrix(1,0,0,1,12,82.2)">
                                <text x="0px" y="0px" style="font-family:'ArialMT', 'Arial', sans-serif;font-size:15px;fill:rgb(44,44,44);">operations.</text>
                            </g>
                        </g>
                    </g>
                </g>
            </g>
            <g transform="matrix(1,0,0,1,100.07,408)">
                <g id="g-root-tx_healthca_1cuwliy1fe0sg7-fill">
                    <g id="tx_healthca_1cuwliy1fe0sg7-fill">
                        <g>
                            <g>
                                <text x="0px" y="0px" style="font-family:'Arial-BoldMT', 'Arial', sans-serif;font-weight:700;font-size:20px;fill:rgb(44,44,44);">Healthcare</text>
                            </g>
                        </g>
                    </g>
                </g>
            </g>
            <g transform="matrix(1,0,0,1,141.37,276)">
                <g id="g-root-tx_finance_m98iyi1fdzbwk-fill">
                    <g id="tx_finance_m98iyi1fdzbwk-fill">
                        <g>
                            <g>
                                <text x="0px" y="0px" style="font-family:'Arial-BoldMT', 'Arial', sans-serif;font-weight:700;font-size:20px;fill:rgb(44,44,44);">Finance</text>
                            </g>
                        </g>
                    </g>
                </g>
            </g>
            <g id="g-root-tx_streamli_4gpkai1fdxypu-fill" transform="matrix(1,0,0,1,86,146)">
                <g id="tx_streamli_4gpkai1fdxypu-fill">
                    <g>
                        <g>
                            <g transform="matrix(1,0,0,1,56.05,28.2)">
                                <text x="0px" y="0px" style="font-family:'ArialMT', 'Arial', sans-serif;font-size:15px;fill:rgb(44,44,44);">Streamlining</text>
                            </g>
                            <g transform="matrix(1,0,0,1,35.7,46.2)">
                                <text x="0px" y="0px" style="font-family:'ArialMT', 'Arial', sans-serif;font-size:15px;fill:rgb(44,44,44);">communication</text>
                            </g>
                            <g transform="matrix(1,0,0,1,18.47,64.2)">
                                <text x="0px" y="0px" style="font-family:'ArialMT', 'Arial', sans-serif;font-size:15px;fill:rgb(44,44,44);">processes in retail</text>
                            </g>
                            <g transform="matrix(1,0,0,1,60.53,82.2)">
                                <text x="0px" y="0px" style="font-family:'ArialMT', 'Arial', sans-serif;font-size:15px;fill:rgb(44,44,44);">businesses.</text>
                            </g>
                        </g>
                    </g>
                </g>
            </g>
            <g transform="matrix(1,0,0,1,364,396)">
                <g id="g-root-tx_educatio_dhyube1fe4ydh-fill">
                    <g id="tx_educatio_dhyube1fe4ydh-fill">
                        <g>
                            <g>
                                <text x="0px" y="0px" style="font-family:'Arial-BoldMT', 'Arial', sans-serif;font-weight:700;font-size:20px;fill:rgb(44,44,44);">Education</text>
                            </g>
                        </g>
                    </g>
                </g>
            </g>
            <g id="g-root-tx_facilita_8xs0l61fe0qvc-fill" transform="matrix(1,0,0,1,46,410)">
                <g id="tx_facilita_8xs0l61fe0qvc-fill">
                    <g>
                        <g>
                            <g transform="matrix(1,0,0,1,21.57,28.2)">
                                <g transform="matrix(15,0,0,15,84.2065,0)">
                                </g>
                                <g transform="matrix(15,0,0,15,88.2406,0)">
                                </g>
                                <g transform="matrix(15,0,0,15,92.2747,0)">
                                </g>
                                <text x="0px" y="0px" style="font-family:'ArialMT', 'Arial', sans-serif;font-size:15px;fill:rgb(44,44,44);">Facilitating eﬃcient</text>
                            </g>
                            <g transform="matrix(1,0,0,1,32.05,46.2)">
                                <text x="0px" y="0px" style="font-family:'ArialMT', 'Arial', sans-serif;font-size:15px;fill:rgb(44,44,44);">communication in</text>
                            </g>
                            <g transform="matrix(1,0,0,1,81.88,64.2)">
                                <text x="0px" y="0px" style="font-family:'ArialMT', 'Arial', sans-serif;font-size:15px;fill:rgb(44,44,44);">healthcare</text>
                            </g>
                            <g transform="matrix(1,0,0,1,57.1,82.2)">
                                <text x="0px" y="0px" style="font-family:'ArialMT', 'Arial', sans-serif;font-size:15px;fill:rgb(44,44,44);">environments.</text>
                            </g>
                        </g>
                    </g>
                </g>
            </g>
            <g id="g-root-tx_supporti_18lbu9m1fe4zra-fill" transform="matrix(1,0,0,1,352,398)">
                <g id="tx_supporti_18lbu9m1fe4zra-fill">
                    <g>
                        <g>
                            <g transform="matrix(1,0,0,1,12,28.2)">
                                <text x="0px" y="0px" style="font-family:'ArialMT', 'Arial', sans-serif;font-size:15px;fill:rgb(44,44,44);">Supporting seamless</text>
                            </g>
                            <g transform="matrix(1,0,0,1,12,46.2)">
                                <text x="0px" y="0px" style="font-family:'ArialMT', 'Arial', sans-serif;font-size:15px;fill:rgb(44,44,44);">communication in</text>
                            </g>
                            <g transform="matrix(1,0,0,1,12,64.2)">
                                <text x="0px" y="0px" style="font-family:'ArialMT', 'Arial', sans-serif;font-size:15px;fill:rgb(44,44,44);">educational</text>
                            </g>
                            <g transform="matrix(1,0,0,1,12,82.2)">
                                <text x="0px" y="0px" style="font-family:'ArialMT', 'Arial', sans-serif;font-size:15px;fill:rgb(44,44,44);">institutions.</text>
                            </g>
                        </g>
                    </g>
                </g>
            </g>
            <g transform="matrix(1,0,0,1,174.32,144)">
                <g id="g-root-tx_retail_v303y21fdxypt-fill">
                    <g id="tx_retail_v303y21fdxypt-fill">
                        <g>
                            <g>
                                <text x="0px" y="0px" style="font-family:'Arial-BoldMT', 'Arial', sans-serif;font-weight:700;font-size:20px;fill:rgb(44,44,44);">Retail</text>
                            </g>
                        </g>
                    </g>
                </g>
            </g>
            <g id="g-root-cp_5_text-5_91iv3u1fdwj61-stroke" transform="matrix(1,0,0,1,50,98)">
                <g id="cp_5_text-5_91iv3u1fdwj61-stroke">
                    <g>
                        <path d="M10,142L10,10L238,10L238,142" style="fill:none;stroke:rgb(44,44,44);stroke-width:2px;"/>
                    </g>
                </g>
            </g>
            <g id="g-root-cp_5_stick-5_1qbcwl61fdwlc3-stroke" transform="matrix(1,0,0,1,264,230)">
                <g id="cp_5_stick-5_1qbcwl61fdwlc3-stroke">
                    <g>
                        <path d="M23.996,310L23.996,10" style="fill:none;stroke:rgb(44,44,44);stroke-width:2px;"/>
                    </g>
                </g>
            </g>
            <g id="g-root-cp_3_text-3_1d0ivay1fdwjr9-stroke" transform="matrix(1,0,0,1,36,230)">
                <g id="cp_3_text-3_1d0ivay1fdwjr9-stroke">
                    <g>
                        <path d="M10,142L10,10L238,10L238,142" style="fill:none;stroke:rgb(44,44,44);stroke-width:2px;"/>
                    </g>
                </g>
            </g>
            <g id="g-root-cp_3_stick-3_qu1tru1fdwiz3-stroke" transform="matrix(1,0,0,1,250,362)">
                <g id="cp_3_stick-3_qu1tru1fdwiz3-stroke">
                    <g>
                        <path d="M23.996,178L23.996,10" style="fill:none;stroke:rgb(44,44,44);stroke-width:2px;"/>
                    </g>
                </g>
            </g>
            <g id="g-root-cp_1_text-1_hyetiy1fdwkjl-stroke" transform="matrix(1,0,0,1,22,362)">
                <g id="cp_1_text-1_hyetiy1fdwkjl-stroke">
                    <g>
                        <path d="M238,142L238,10L10,10L10,142L224,142" style="fill:none;stroke:rgb(44,44,44);stroke-width:2px;"/>
                    </g>
                </g>
            </g>
            <g id="g-root-cp_1_stick-1_4nks8q1fdwiyr-stroke" transform="matrix(1,0,0,1,236,446)">
                <g id="cp_1_stick-1_4nks8q1fdwiyr-stroke">
                    <g>
                        <path d="M23.996,94L23.996,10M10,94L10,58" style="fill:none;stroke:rgb(44,44,44);stroke-width:2px;"/>
                    </g>
                </g>
            </g>
            <g id="g-root-cp_4_text-4_1qd8bui1fdwkcl-stroke" transform="matrix(1,0,0,1,278,218)">
                <g id="cp_4_text-4_1qd8bui1fdwkcl-stroke">
                    <g>
                        <path d="M238,142L238,10L10,10L10,142" style="fill:none;stroke:rgb(44,44,44);stroke-width:2px;"/>
                    </g>
                </g>
            </g>
            <g id="g-root-cp_4_stick-4_146rabe1fdwjkf-stroke" transform="matrix(1,0,0,1,278,350)">
                <g id="cp_4_stick-4_146rabe1fdwjkf-stroke">
                    <g>
                        <path d="M10.004,190L10.004,10" style="fill:none;stroke:rgb(44,44,44);stroke-width:2px;"/>
                    </g>
                </g>
            </g>
            <g id="g-root-cp_2_text-2_vb4a2i1fdwl4x-stroke" transform="matrix(1,0,0,1,292,350)">
                <g id="cp_2_text-2_vb4a2i1fdwl4x-stroke">
                    <g>
                        <path d="M10,142L10,10L238,10L238,142L24,142" style="fill:none;stroke:rgb(44,44,44);stroke-width:2px;"/>
                    </g>
                </g>
            </g>
            <g id="g-root-cp_2_stick-2_94n8je1fdwkcr-stroke" transform="matrix(1,0,0,1,292,434)">
                <g id="cp_2_stick-2_94n8je1fdwkcr-stroke">
                    <g>
                        <path d="M10.004,106L10.004,10M24,106L24,58" style="fill:none;stroke:rgb(44,44,44);stroke-width:2px;"/>
                    </g>
                </g>
            </g>
            <g id="g-root-cp_0_g-0_1uuas561fdwlql-stroke" transform="matrix(1,0,0,1,236,530)">
                <g id="cp_0_g-0_1uuas561fdwlql-stroke">
                    <g>
                        <path d="M33.332,61L45.01,86L56.672,61L33.332,61Z" style="fill:none;stroke:rgb(44,44,44);stroke-width:2px;"/>
                    </g>
                </g>
                <g id="cp_0_g-0_1uuas561fdwlql-stroke1" serif:id="cp_0_g-0_1uuas561fdwlql-stroke">
                    <g>
                        <path d="M80,10L10,10L33.333,61L56.668,61L80,10Z" style="fill:none;stroke:rgb(44,44,44);stroke-width:2px;"/>
                    </g>
                </g>
            </g>
            <g id="g-root-ic_pers_1d30rne1fe3klf-stroke" transform="matrix(1,0,0,1,290,230)">
                <g id="ic_pers_1d30rne1fe3klf-stroke">
                    <g>
                        <path d="M11.875,22.375C11.875,24.653 13.722,26.5 16,26.5C18.278,26.5 20.125,24.653 20.125,22.375C20.125,20.097 18.278,18.25 16,18.25C13.722,18.25 11.875,20.097 11.875,22.375M21.25,33.25C21.25,30.351 18.899,28 16,28C13.101,28 10.75,30.351 10.75,33.25L10.75,37.75L13.125,37.75L13.75,45.25L18.25,45.25L18.876,37.75L21.25,37.75L21.25,33.25ZM36.635,37.75L24.25,37.75M25,10.75L34,10.75C34,10.75 34.75,10.75 34.75,11.5L34.75,23.5C34.75,23.5 34.75,24.25 34,24.25L25,24.25C25,24.25 24.25,24.25 24.25,23.5L24.25,11.5C24.25,11.5 24.25,10.75 25,10.75M28,13.75L31,13.75C31,13.75 31.75,13.75 31.75,14.5L31.75,20.5C31.75,20.5 31.75,21.25 31,21.25L28,21.25C28,21.25 27.25,21.25 27.25,20.5L27.25,14.5C27.25,14.5 27.25,13.75 28,13.75M45.25,41.876C45.26,41.973 45.228,42.069 45.162,42.141C45.097,42.212 45.003,42.252 44.907,42.25L36.595,42.25C36.498,42.252 36.405,42.212 36.339,42.141C36.274,42.069 36.242,41.973 36.251,41.877L37.087,32.126C37.109,31.917 37.284,31.756 37.495,31.753L44.005,31.753C44.216,31.756 44.391,31.917 44.413,32.126L45.25,41.876ZM42.25,25L43.75,22.75L37.75,22.75L39.25,25C38.422,25.248 37.855,26.01 37.855,26.875C37.855,27.74 38.422,28.502 39.25,28.75L42.25,28.75C43.078,28.502 43.645,27.74 43.645,26.875C43.645,26.01 43.078,25.248 42.25,25L42.25,25ZM40.75,28.75L40.75,31.75" style="fill:none;stroke:rgb(44,44,44);stroke-width:2px;"/>
                    </g>
                </g>
            </g>
            <g id="g-root-ic_user_v64hdm1fdzci6-stroke" transform="matrix(1,0,0,1,216,242)">
                <g id="ic_user_v64hdm1fdzci6-stroke">
                    <g>
                        <path d="M15.925,28.075C17.875,30.025 20.425,31.375 23.425,31.375C24.925,31.375 26.425,31.075 27.625,30.475M21.475,37.375C24.954,37.375 27.775,34.554 27.775,31.075C27.775,27.596 24.954,24.775 21.475,24.775C17.996,24.775 15.175,27.596 15.175,31.075C15.175,34.554 17.996,37.375 21.475,37.375ZM21.475,38.875L21.475,44.875M31.825,44.875C29.725,41.275 25.825,38.875 21.475,38.875C17.125,38.875 13.225,41.275 11.125,44.875M20.125,20.275L20.125,18.775C20.125,17.875 20.725,17.275 21.625,17.275L23.875,17.275C24.775,17.275 25.375,17.875 25.375,18.775L25.375,21.025M42.25,20.875L42.25,25.375M31.375,23.875C30.475,23.875 29.875,23.275 29.875,22.375L29.875,15.625C29.875,14.725 30.475,14.125 31.375,14.125L33.625,14.125C34.525,14.125 35.125,14.725 35.125,15.625L35.125,22.375C35.125,23.275 34.525,23.875 33.625,23.875L31.375,23.875ZM32.5,23.875L32.5,26.875M32.5,11.125L32.5,14.125M41.125,20.875C40.225,20.875 39.625,20.275 39.625,19.375L39.625,12.625C39.625,11.725 40.225,11.125 41.125,11.125L43.375,11.125C44.275,11.125 44.875,11.725 44.875,12.625L44.875,19.375C44.875,20.275 44.275,20.875 43.375,20.875L41.125,20.875Z" style="fill:none;stroke:rgb(44,44,44);stroke-width:2px;"/>
                    </g>
                </g>
            </g>
            <g id="g-root-ic_buil_1cws0sa1fe0rgh-stroke" transform="matrix(1,0,0,1,202,374)">
                <g id="ic_buil_1cws0sa1fe0rgh-stroke">
                    <g>
                        <path d="M15.25,16.75C15.25,20.064 17.936,22.75 21.25,22.75C24.564,22.75 27.25,20.064 27.25,16.75C27.25,13.436 24.564,10.75 21.25,10.75C17.936,10.75 15.25,13.436 15.25,16.75ZM15.25,30.25L27.25,30.25M15.25,25.75L27.25,25.75M15.25,34.75L21.25,34.75M15.25,39.25L21.25,39.25M21.25,13.75L21.25,19.75M24.25,16.75L18.25,16.75M24.25,44.5C24.25,44.914 24.586,45.25 25,45.25L44.5,45.25C44.914,45.25 45.25,44.914 45.25,44.5L45.25,34.75C45.25,33.922 44.578,33.25 43.75,33.25L25.75,33.25C24.922,33.25 24.25,33.922 24.25,34.75L24.25,44.5ZM12.25,19C11.422,19 10.75,19.672 10.75,20.5L10.75,44.5C10.75,44.914 11.086,45.25 11.5,45.25L21.25,45.25M31.75,30.25L31.75,20.5C31.75,19.672 31.078,19 30.25,19M33.25,42.25L36.25,42.25L36.25,45.25L33.25,45.25L33.25,42.25ZM27.25,39.25L28.75,39.25M28.75,36.25L27.25,36.25M31.75,39.25L33.25,39.25M33.25,36.25L31.75,36.25M36.25,39.25L37.75,39.25M37.75,36.25L36.25,36.25M40.75,39.25L42.25,39.25M42.25,36.25L40.75,36.25" style="fill:none;stroke:rgb(44,44,44);stroke-width:2px;"/>
                    </g>
                </g>
            </g>
            <g id="g-root-ic_inte_1utob221fe4yrz-stroke" transform="matrix(1,0,0,1,304,362)">
                <g id="ic_inte_1utob221fe4yrz-stroke">
                    <g>
                        <path d="M24.522,26.5L24.522,28.234M27.159,23.977C23.293,22.524 18.981,24.468 17.511,28.327M26.272,16C27.451,16.001 28.617,15.763 29.701,15.3C29.415,13.082 27.748,11.294 25.556,10.853C23.365,10.411 21.136,11.416 20.014,13.35C21.655,15.044 23.913,16.001 26.272,16ZM19.272,16C19.272,18.899 21.622,21.25 24.522,21.25C27.421,21.25 29.772,18.899 29.772,16C29.772,13.101 27.421,10.75 24.522,10.75C21.622,10.75 19.272,13.101 19.272,16M32.093,29.824C32.093,33.01 34.675,35.593 37.861,35.593C41.047,35.593 43.629,33.01 43.628,29.824C43.629,26.638 41.047,24.055 37.861,24.055C34.675,24.055 32.093,26.638 32.093,29.824M30.52,45.031C30.482,42.383 31.873,39.92 34.16,38.585C36.447,37.25 39.276,37.25 41.563,38.585C43.85,39.92 45.241,42.383 45.203,45.031M27.159,39.774L11.572,39.774C11.307,39.773 11.06,39.637 10.918,39.413C10.776,39.189 10.759,38.908 10.873,38.668L13.586,32.981C13.843,32.444 14.386,32.102 14.982,32.101L28.482,32.101M12.607,39.837L12.607,45.25M33.148,26.5C37.01,30.362 41.398,29.824 43.63,29.824M37.861,42.388L37.861,40.332" style="fill:none;stroke:rgb(44,44,44);stroke-width:2px;"/>
                    </g>
                </g>
            </g>
            <g id="g-root-ic_like_13zw2d61fdxzbf-stroke" transform="matrix(1,0,0,1,230,110)">
                <g id="ic_like_13zw2d61fdxzbf-stroke">
                    <g>
                        <path d="M12.25,42.538C12.544,42.689 12.839,42.839 13.135,42.988C18.591,45.745 18.324,45.208 22.994,45.208C24.945,45.208 25.936,43.939 26.512,42.08L26.512,42.069L27.93,37.338L27.93,37.328C28.066,36.879 27.981,36.391 27.701,36.014C27.42,35.637 26.977,35.416 26.508,35.417L22.869,35.417C22.408,35.416 21.974,35.204 21.691,34.841C21.409,34.478 21.313,34.005 21.431,33.56L22.087,31.087C22.19,30.697 22.101,30.282 21.845,29.97C21.594,29.661 21.212,29.487 20.814,29.501C20.416,29.514 20.047,29.712 19.816,30.037L16.181,35.161C15.902,35.554 15.449,35.788 14.966,35.788L12.25,35.788M10.75,34.75L12.25,34.75L12.25,45.25L10.75,45.25M16.348,10.75C15.726,10.75 15.168,11.135 14.947,11.716L12.577,17.938C12.321,18.605 12.311,19.342 12.55,20.015C13.228,21.902 15.164,23.029 17.139,22.686C19.115,22.343 20.558,20.63 20.56,18.625C20.56,20.903 22.407,22.75 24.685,22.75C26.963,22.75 28.81,20.903 28.81,18.625C28.81,20.903 30.657,22.75 32.935,22.75C35.213,22.75 37.06,20.903 37.06,18.625C37.062,20.63 38.505,22.343 40.481,22.686C42.456,23.029 44.392,21.902 45.07,20.015C45.311,19.343 45.304,18.606 45.049,17.938L42.679,11.716C42.458,11.136 41.902,10.752 41.281,10.75L16.348,10.75ZM30.25,40.75L42.25,40.75L42.25,22.612M31.75,40.75L31.75,28.75C31.75,27.922 32.422,27.25 33.25,27.25L37.75,27.25C38.578,27.25 39.25,27.922 39.25,28.75L39.25,40.75M15.25,28L15.25,22.576" style="fill:none;stroke:rgb(44,44,44);stroke-width:2px;"/>
                    </g>
                </g>
            </g>
        </g>
    </g>
</svg>
