<?xml version="1.0" encoding="UTF-8" standalone="no"?>
<!DOCTYPE svg PUBLIC "-//W3C//DTD SVG 1.1//EN" "http://www.w3.org/Graphics/SVG/1.1/DTD/svg11.dtd">
<svg width="100%" height="100%" viewBox="0 0 576 542" version="1.1" xmlns="http://www.w3.org/2000/svg" xmlns:xlink="http://www.w3.org/1999/xlink" xml:space="preserve" xmlns:serif="http://www.serif.com/" style="fill-rule:evenodd;clip-rule:evenodd;stroke-linecap:round;stroke-linejoin:round;">
    <g id="items" transform="matrix(1.10996,0,0,1.10996,-31.6692,-41.2293)">
        <g id="blend">
            <g id="g-root-cp_5_text-5_hv9qu61cmagw9-fill" transform="matrix(1,0,0,1,50,110)">
                <g id="cp_5_text-5_hv9qu61cmagw9-fill">
                    <g>
                        <rect x="10" y="10" width="228" height="108" style="fill:rgb(251,103,98);"/>
                    </g>
                </g>
            </g>
            <g id="g-root-cp_5_stick-5_4kfpjy1cmafbf-fill" transform="matrix(1,0,0,1,266,218)">
                <g id="cp_5_stick-5_4kfpjy1cmafbf-fill">
                    <g>
                        <rect x="10" y="10" width="12" height="204" style="fill:rgb(251,103,98);"/>
                    </g>
                </g>
            </g>
            <g id="g-root-cp_3_text-3_1qa395q1cmagp9-fill" transform="matrix(1,0,0,1,38,218)">
                <g id="cp_3_text-3_1qa395q1cmagp9-fill">
                    <g>
                        <rect x="10" y="10" width="228" height="84" style="fill:rgb(255,231,17);"/>
                    </g>
                </g>
            </g>
            <g id="g-root-cp_3_stick-3_1lu9r1a1cmahhj-fill" transform="matrix(1,0,0,1,254,302)">
                <g id="cp_3_stick-3_1lu9r1a1cmahhj-fill">
                    <g>
                        <rect x="10" y="10" width="12" height="120" style="fill:rgb(255,231,17);"/>
                    </g>
                </g>
            </g>
            <g id="g-root-cp_1_text-1_18jfpr21cmafwp-fill" transform="matrix(1,0,0,1,26,302)">
                <g id="cp_1_text-1_18jfpr21cmafwp-fill">
                    <g>
                        <rect x="10" y="10" width="228" height="84" style="fill:rgb(67,221,147);"/>
                    </g>
                </g>
            </g>
            <g id="g-root-cp_1_stick-1_dhbnz21cmagoz-fill" transform="matrix(1,0,0,1,242,386)">
                <g id="cp_1_stick-1_dhbnz21cmagoz-fill">
                    <g>
                        <rect x="10" y="10" width="12" height="36" style="fill:rgb(67,221,147);"/>
                    </g>
                </g>
            </g>
            <g id="g-root-cp_6_text-6_6hmou1cmaf45-fill" transform="matrix(1,0,0,1,278,50)">
                <g id="cp_6_text-6_6hmou1cmaf45-fill">
                    <g>
                        <rect x="10" y="10" width="228" height="108" style="fill:rgb(243,102,187);"/>
                    </g>
                </g>
            </g>
            <g id="g-root-cp_6_stick-6_1d0i61q1cmahan-fill" transform="matrix(1,0,0,1,278,158)">
                <g id="cp_6_stick-6_1d0i61q1cmahan-fill">
                    <g>
                        <rect x="10" y="10" width="12" height="264" style="fill:rgb(243,102,187);"/>
                    </g>
                </g>
            </g>
            <g id="g-root-cp_4_text-4_18lb50e1cmaex5-fill" transform="matrix(1,0,0,1,290,158)">
                <g id="cp_4_text-4_18lb50e1cmaex5-fill">
                    <g>
                        <rect x="10" y="10" width="228" height="108" style="fill:rgb(247,148,56);"/>
                    </g>
                </g>
            </g>
            <g id="g-root-cp_4_stick-4_v9umn21cmagi3-fill" transform="matrix(1,0,0,1,290,266)">
                <g id="cp_4_stick-4_v9umn21cmagi3-fill">
                    <g>
                        <rect x="10" y="10" width="12" height="156" style="fill:rgb(247,148,56);"/>
                    </g>
                </g>
            </g>
            <g id="g-root-cp_2_text-2_hz0lcu1cmaex9-fill" transform="matrix(1,0,0,1,302,266)">
                <g id="cp_2_text-2_hz0lcu1cmaex9-fill">
                    <g>
                        <rect x="10" y="10" width="228" height="108" style="fill:rgb(166,218,55);"/>
                    </g>
                </g>
            </g>
            <g id="g-root-cp_2_stick-2_1ly0ljy1cmafif-fill" transform="matrix(1,0,0,1,302,350)">
                <g id="cp_2_stick-2_1ly0ljy1cmafif-fill">
                    <g>
                        <rect x="10" y="10" width="12" height="72" style="fill:rgb(166,218,55);"/>
                    </g>
                </g>
            </g>
            <g id="g-root-cp_0_g-0_18mk36m1cmah3d-fill" transform="matrix(1,0,0,1,242,422)">
                <g id="cp_0_g-0_18mk36m1cmah3d-fill">
                    <g>
                        <path d="M33.994,61L46.01,86L58.005,61L33.994,61Z" style="fill:rgb(232,232,232);"/>
                    </g>
                </g>
                <g id="cp_0_g-0_18mk36m1cmah3d-fill1" serif:id="cp_0_g-0_18mk36m1cmah3d-fill">
                    <g>
                        <path d="M82,10L10,10L34,61L58.001,61L82,10Z" style="fill:rgb(232,232,232);"/>
                    </g>
                </g>
            </g>
            <g id="g-root-tx_rapiddep_18k29zy1clwd8p-fill" transform="matrix(1,0,0,1,350,170)">
                <g id="tx_rapiddep_18k29zy1clwd8p-fill">
                    <g>
                        <g>
                            <g transform="matrix(1,0,0,1,12,34)">
                                <text x="0px" y="0px" style="font-family:'Arial-BoldMT', 'Arial', sans-serif;font-weight:700;font-size:20px;fill:rgb(44,44,44);">Rapid</text>
                            </g>
                            <g transform="matrix(1,0,0,1,12,58)">
                                <text x="0px" y="0px" style="font-family:'Arial-BoldMT', 'Arial', sans-serif;font-weight:700;font-size:20px;fill:rgb(44,44,44);">Deployment</text>
                            </g>
                        </g>
                    </g>
                </g>
            </g>
            <g transform="matrix(1,0,0,1,101.47,264)">
                <g id="g-root-tx_lowlaten_m97tpa1cmd9fs-fill">
                    <g id="tx_lowlaten_m97tpa1cmd9fs-fill">
                        <g>
                            <g>
                                <text x="0px" y="0px" style="font-family:'Arial-BoldMT', 'Arial', sans-serif;font-weight:700;font-size:20px;fill:rgb(44,44,44);">Low Latency</text>
                            </g>
                        </g>
                    </g>
                </g>
            </g>
            <g id="g-root-tx__hs5dem1cmbuo6-fill">
            </g>
            <g id="g-root-tx__6hpum1clwflu-fill">
            </g>
            <g id="g-root-tx__mb38ym1cmd8g1-fill">
            </g>
            <g id="g-root-tx__v7cqam1cmhgcv-fill">
            </g>
            <g id="g-root-tx_globalco_1upwufy1clz7yc-fill" transform="matrix(1,0,0,1,362,278)">
                <g id="tx_globalco_1upwufy1clz7yc-fill">
                    <g>
                        <g>
                            <g transform="matrix(1,0,0,1,12,34)">
                                <text x="0px" y="0px" style="font-family:'Arial-BoldMT', 'Arial', sans-serif;font-weight:700;font-size:20px;fill:rgb(44,44,44);">Global</text>
                            </g>
                            <g transform="matrix(1,0,0,1,12,58)">
                                <text x="0px" y="0px" style="font-family:'Arial-BoldMT', 'Arial', sans-serif;font-weight:700;font-size:20px;fill:rgb(44,44,44);">Connectivity</text>
                            </g>
                        </g>
                    </g>
                </g>
            </g>
            <g id="g-root-tx_customiz_1qf31um1cmagwd-fill" transform="matrix(1,0,0,1,86,122)">
                <g id="tx_customiz_1qf31um1cmagwd-fill">
                    <g>
                        <g>
                            <g transform="matrix(1,0,0,1,16.82,34)">
                                <text x="0px" y="0px" style="font-family:'Arial-BoldMT', 'Arial', sans-serif;font-weight:700;font-size:20px;fill:rgb(44,44,44);">Customizable</text>
                            </g>
                            <g transform="matrix(1,0,0,1,69.98,58)">
                                <text x="0px" y="0px" style="font-family:'Arial-BoldMT', 'Arial', sans-serif;font-weight:700;font-size:20px;fill:rgb(44,44,44);">Routing</text>
                            </g>
                        </g>
                    </g>
                </g>
            </g>
            <g transform="matrix(1,0,0,1,84.42,348)">
                <g id="g-root-tx_costsavi_dgp6vy1cmeosj-fill">
                    <g id="tx_costsavi_dgp6vy1cmeosj-fill">
                        <g>
                            <g>
                                <text x="0px" y="0px" style="font-family:'Arial-BoldMT', 'Arial', sans-serif;font-weight:700;font-size:20px;fill:rgb(44,44,44);">Cost Savings</text>
                            </g>
                        </g>
                    </g>
                </g>
            </g>
            <g id="g-root-tx_whitelab_4hxt7i1cmhfye-fill" transform="matrix(1,0,0,1,338,62)">
                <g id="tx_whitelab_4hxt7i1cmhfye-fill">
                    <g>
                        <g>
                            <g transform="matrix(1,0,0,1,12,34)">
                                <text x="0px" y="0px" style="font-family:'Arial-BoldMT', 'Arial', sans-serif;font-weight:700;font-size:20px;fill:rgb(44,44,44);">White-Label</text>
                            </g>
                            <g transform="matrix(1,0,0,1,12,58)">
                                <text x="0px" y="0px" style="font-family:'Arial-BoldMT', 'Arial', sans-serif;font-weight:700;font-size:20px;fill:rgb(44,44,44);">Solutions</text>
                            </g>
                        </g>
                    </g>
                </g>
            </g>
            <g id="g-root-tx__mdl5b21cmepe4-fill">
            </g>
            <g id="g-root-tx__hye7fi1clz9c5-fill">
            </g>
            <g id="g-root-cp_5_text-5_hv9qu61cmagw9-stroke" transform="matrix(1,0,0,1,50,110)">
                <g id="cp_5_text-5_hv9qu61cmagw9-stroke">
                    <g>
                        <path d="M10,118L10,10L238,10L238,118" style="fill:none;stroke:rgb(44,44,44);stroke-width:2px;"/>
                    </g>
                </g>
            </g>
            <g id="g-root-cp_5_stick-5_4kfpjy1cmafbf-stroke" transform="matrix(1,0,0,1,266,218)">
                <g id="cp_5_stick-5_4kfpjy1cmafbf-stroke">
                    <g>
                        <path d="M21.996,214L21.996,10" style="fill:none;stroke:rgb(44,44,44);stroke-width:2px;"/>
                    </g>
                </g>
            </g>
            <g id="g-root-cp_3_text-3_1qa395q1cmagp9-stroke" transform="matrix(1,0,0,1,38,218)">
                <g id="cp_3_text-3_1qa395q1cmagp9-stroke">
                    <g>
                        <path d="M10,94L10,10L238,10L238,94" style="fill:none;stroke:rgb(44,44,44);stroke-width:2px;"/>
                    </g>
                </g>
            </g>
            <g id="g-root-cp_3_stick-3_1lu9r1a1cmahhj-stroke" transform="matrix(1,0,0,1,254,302)">
                <g id="cp_3_stick-3_1lu9r1a1cmahhj-stroke">
                    <g>
                        <path d="M21.996,130L21.996,10" style="fill:none;stroke:rgb(44,44,44);stroke-width:2px;"/>
                    </g>
                </g>
            </g>
            <g id="g-root-cp_1_text-1_18jfpr21cmafwp-stroke" transform="matrix(1,0,0,1,26,302)">
                <g id="cp_1_text-1_18jfpr21cmafwp-stroke">
                    <g>
                        <path d="M238,94L238,10L10,10L10,94L226,94" style="fill:none;stroke:rgb(44,44,44);stroke-width:2px;"/>
                    </g>
                </g>
            </g>
            <g id="g-root-cp_1_stick-1_dhbnz21cmagoz-stroke" transform="matrix(1,0,0,1,242,386)">
                <g id="cp_1_stick-1_dhbnz21cmagoz-stroke">
                    <g>
                        <path d="M21.996,46L21.996,10M10,46L10,10" style="fill:none;stroke:rgb(44,44,44);stroke-width:2px;"/>
                    </g>
                </g>
            </g>
            <g id="g-root-cp_6_text-6_6hmou1cmaf45-stroke" transform="matrix(1,0,0,1,278,50)">
                <g id="cp_6_text-6_6hmou1cmaf45-stroke">
                    <g>
                        <path d="M238,118L238,10L10,10L10,118" style="fill:none;stroke:rgb(44,44,44);stroke-width:2px;"/>
                    </g>
                </g>
            </g>
            <g id="g-root-cp_6_stick-6_1d0i61q1cmahan-stroke" transform="matrix(1,0,0,1,278,158)">
                <g id="cp_6_stick-6_1d0i61q1cmahan-stroke">
                    <g>
                        <path d="M10.004,274L10.004,10" style="fill:none;stroke:rgb(44,44,44);stroke-width:2px;"/>
                    </g>
                </g>
            </g>
            <g id="g-root-cp_4_text-4_18lb50e1cmaex5-stroke" transform="matrix(1,0,0,1,290,158)">
                <g id="cp_4_text-4_18lb50e1cmaex5-stroke">
                    <g>
                        <path d="M238,118L238,10L10,10L10,118" style="fill:none;stroke:rgb(44,44,44);stroke-width:2px;"/>
                    </g>
                </g>
            </g>
            <g id="g-root-cp_4_stick-4_v9umn21cmagi3-stroke" transform="matrix(1,0,0,1,290,266)">
                <g id="cp_4_stick-4_v9umn21cmagi3-stroke">
                    <g>
                        <path d="M10.004,166L10.004,10" style="fill:none;stroke:rgb(44,44,44);stroke-width:2px;"/>
                    </g>
                </g>
            </g>
            <g id="g-root-cp_2_text-2_hz0lcu1cmaex9-stroke" transform="matrix(1,0,0,1,302,266)">
                <g id="cp_2_text-2_hz0lcu1cmaex9-stroke">
                    <g>
                        <path d="M10,118L10,10L238,10L238,118L22,118" style="fill:none;stroke:rgb(44,44,44);stroke-width:2px;"/>
                    </g>
                </g>
            </g>
            <g id="g-root-cp_2_stick-2_1ly0ljy1cmafif-stroke" transform="matrix(1,0,0,1,302,350)">
                <g id="cp_2_stick-2_1ly0ljy1cmafif-stroke">
                    <g>
                        <path d="M10.004,82L10.004,10M22,82L22,34" style="fill:none;stroke:rgb(44,44,44);stroke-width:2px;"/>
                    </g>
                </g>
            </g>
            <g id="g-root-cp_0_g-0_18mk36m1cmah3d-stroke" transform="matrix(1,0,0,1,242,422)">
                <g id="cp_0_g-0_18mk36m1cmah3d-stroke">
                    <g>
                        <path d="M33.994,61L46.01,86L58.005,61L33.994,61Z" style="fill:none;stroke:rgb(44,44,44);stroke-width:2px;"/>
                    </g>
                </g>
                <g id="cp_0_g-0_18mk36m1cmah3d-stroke1" serif:id="cp_0_g-0_18mk36m1cmah3d-stroke">
                    <g>
                        <path d="M82,10L10,10L34,61L58.001,61L82,10Z" style="fill:none;stroke:rgb(44,44,44);stroke-width:2px;"/>
                    </g>
                </g>
            </g>
            <g id="g-root-ic_2_1lu9r1a1cmd91m-stroke" transform="matrix(1,0,0,1,218,230)">
                <g id="ic_2_1lu9r1a1cmd91m-stroke">
                    <g>
                        <path d="M42.25,33.689L42.25,43.75C42.25,44.578 41.578,45.25 40.75,45.25L27.25,45.25C26.422,45.25 25.75,44.578 25.75,43.75L25.75,41.5M37.75,29.19L45.25,36.689M36.25,45.25L36.25,39.25C36.25,38.007 35.243,37 34,37C32.757,37 31.75,38.007 31.75,39.25L31.75,45.25M20.448,20.2C19.275,21.372 19.275,23.272 20.448,24.444L22.879,26.875C24.056,28.012 25.927,27.996 27.084,26.838C28.242,25.681 28.258,23.81 27.121,22.633L24.69,20.2C23.518,19.029 21.619,19.029 20.448,20.2ZM20.448,20.205L16.204,21.265L13.242,18.302L17.485,17.242L18.546,13L21.508,15.963L20.448,20.205ZM10.75,10.75L13.75,13.75M26.5,13.75L31.75,13L31,19L37.75,20.5L33.25,25.75L34.75,31.75L28.75,31L26.5,37L22,32.5L16.75,35.345L16,30.25" style="fill:none;stroke:rgb(44,44,44);stroke-width:2px;"/>
                    </g>
                </g>
            </g>
            <g id="g-root-ic_stra_1hbbvha1cmbv9r-stroke" transform="matrix(1,0,0,1,230,122)">
                <g id="ic_stra_1hbbvha1cmbv9r-stroke">
                    <g>
                        <path d="M37.75,12.25L42.25,12.25C43.078,12.25 43.75,12.922 43.75,13.75L43.75,42.25C43.75,43.078 43.078,43.75 42.25,43.75L31.75,43.75M27.25,45.25L27.25,37.75L21.25,37.75L21.25,28.75L25.75,28.75L25.75,21.25L30.25,21.25L30.25,10.75M25.75,15.25L30.25,10.75L34.703,15.25M16.75,12.25L16.75,19.75M12.25,24.25L21.25,24.25L21.25,18.25M24.25,33.25L31.75,33.25L31.75,39.25M16.75,28.75L16.75,40.75L22.75,40.75L22.75,43.75L13.75,43.75C12.922,43.75 12.25,43.078 12.25,42.25L12.25,13.75C12.25,12.922 12.922,12.25 13.75,12.25L22.75,12.25M36.25,43.75L36.25,30.25L39.25,30.25M43.75,39.25L40.75,39.25M43.75,34.75L40.75,34.75M43.75,25.75L30.25,25.75L30.25,28.75M34.75,25.75L34.75,18.25L39.25,18.25L39.25,21.25" style="fill:none;stroke:rgb(44,44,44);stroke-width:2px;"/>
                    </g>
                </g>
            </g>
            <g id="g-root-ic_netw_9m3a61clz6ry-stroke" transform="matrix(1,0,0,1,314,278)">
                <g id="ic_netw_9m3a61clz6ry-stroke">
                    <g>
                        <path d="M10.804,27.997C10.804,37.524 18.527,45.247 28.054,45.247C37.581,45.247 45.304,37.524 45.304,27.997C45.304,18.47 37.581,10.747 28.054,10.747C18.527,10.747 10.804,18.47 10.804,27.997L10.804,27.997ZM19.804,21.622C19.804,23.486 21.315,24.997 23.179,24.997C25.043,24.997 26.554,23.486 26.554,21.622C26.554,19.758 25.043,18.247 23.179,18.247C21.315,18.247 19.804,19.758 19.804,21.622L19.804,21.622ZM29.554,36.622C29.554,37.658 30.393,38.497 31.429,38.497C32.465,38.497 33.304,37.658 33.304,36.622C33.304,35.586 32.465,34.747 31.429,34.747C30.393,34.747 29.554,35.586 29.554,36.622L29.554,36.622ZM35.554,25.372C35.554,26.822 36.729,27.997 38.179,27.997C39.629,27.997 40.804,26.822 40.804,25.372C40.804,23.922 39.629,22.747 38.179,22.747C36.729,22.747 35.554,23.922 35.554,25.372ZM26.554,21.25C29.907,21.378 33.102,22.709 35.554,25M38.702,27.946L39.302,28.747C39.302,28.747 41.552,31.747 41.552,38.497M35.288,12.333L35.554,13C36.64,16.216 37.148,19.6 37.054,22.993M36.304,27.25C36.116,30.348 35,33.317 33.1,35.772M30.532,38.269L30.304,38.5C30.304,38.5 26.554,42.25 18.304,42.25M28.054,10.75C26.002,12.945 24.352,15.484 23.179,18.25M21.427,24.508L21.304,25C20.487,29.057 21.013,33.269 22.804,37C25.354,42.109 31.804,44.5 31.804,44.5L32.364,44.709M19.804,21.622C19.804,21.622 14.05,22.035 11.142,24.581M11.224,31.798L11.554,31.747C11.554,31.747 21.876,30.16 30.265,35.152" style="fill:none;stroke:rgb(44,44,44);stroke-width:2px;"/>
                    </g>
                </g>
            </g>
            <g id="g-root-ic_coin_1hhkmce1cmenm5-stroke" transform="matrix(1,0,0,1,206,314)">
                <g id="ic_coin_1hhkmce1cmenm5-stroke">
                    <g>
                        <path d="M10.756,25.682C10.756,26.511 14.114,27.182 18.256,27.182C22.398,27.182 25.756,26.511 25.756,25.682C25.756,24.854 22.398,24.182 18.256,24.182C14.114,24.182 10.756,24.854 10.756,25.682ZM25.75,25.682L25.75,30.182C25.75,31.012 22.393,31.682 18.25,31.682C14.107,31.682 10.75,31.012 10.75,30.182L10.75,25.682M25.75,30.182L25.75,34.682C25.75,35.512 22.393,36.182 18.25,36.182C14.107,36.182 10.75,35.512 10.75,34.682L10.75,30.182M25.75,34.682L25.75,39.182C25.75,40.012 22.393,40.682 18.25,40.682C14.107,40.682 10.75,40.012 10.75,39.182L10.75,34.682M25.75,39.182L25.75,43.682C25.75,44.512 22.393,45.182 18.25,45.182C14.107,45.182 10.75,44.512 10.75,43.682L10.75,39.182M16.572,20.431C18.586,16.087 23.65,13 29.574,13C31.095,13 32.61,13.212 34.074,13.63C35.008,12.302 36.358,11.322 37.911,10.846C38.137,10.783 38.379,10.829 38.566,10.971C38.754,11.113 38.863,11.334 38.863,11.569L38.863,16.008C40.453,17.401 41.656,19.183 42.352,21.18L43.758,21.18C44.586,21.18 45.258,21.851 45.258,22.68L45.258,27.18C45.258,28.008 44.586,28.68 43.758,28.68L42.353,28.68C41.564,30.646 40.203,32.33 38.446,33.515L39.658,36.802C40.102,38.005 39.486,39.341 38.283,39.785C37.079,40.228 35.744,39.612 35.3,38.409L34.24,35.536C32.727,35.99 31.155,36.222 29.575,36.224M35.881,20.432C35.674,20.432 35.506,20.6 35.506,20.807C35.506,21.015 35.674,21.182 35.881,21.182C36.088,21.182 36.256,21.015 36.256,20.807C36.256,20.6 36.088,20.432 35.881,20.432M22,18.932C23.555,17.218 25.695,16.147 28,15.932" style="fill:none;stroke:rgb(44,44,44);stroke-width:2px;"/>
                    </g>
                </g>
            </g>
            <g id="g-root-ic_boar_18k26u61cmhgy0-stroke" transform="matrix(1,0,0,1,290,62)">
                <g id="ic_boar_18k26u61cmhgy0-stroke">
                    <g>
                        <path d="M17.714,16.429L38.286,16.429C39.706,16.429 40.857,17.58 40.857,19L40.857,35.714L15.143,35.714L15.143,19C15.143,17.58 16.294,16.429 17.714,16.429ZM11.286,35.714L44.714,35.714M28,16.429L28,11.286M24.143,35.714L17.714,44.714M31.857,35.714L38.286,44.714" style="fill:none;stroke:rgb(44,44,44);stroke-width:2px;"/>
                    </g>
                </g>
            </g>
            <g id="g-root-ic_box_zpo7xa1clwg7f-stroke" transform="matrix(1,0,0,1,302,170)">
                <g id="ic_box_zpo7xa1clwg7f-stroke">
                    <g>
                        <path d="M11.5,37.191L28,41.691M28,41.691L44.5,37.191M11.5,37.191L19.74,35.032M11.5,44.032L11.5,37.378M44.5,37.378L44.5,44.032M28,44.782L28,41.691M33.25,19.093C33.25,21.993 32.376,29.593 28,29.593C23.625,29.593 22.75,22 22.75,19.093C22.75,13.843 28,11.218 28,11.218C28,11.218 33.25,13.843 33.25,19.093ZM25.941,18.906C25.94,20.043 26.862,20.965 28,20.965C29.138,20.965 30.06,20.043 30.06,18.906C30.06,17.768 29.138,16.846 28,16.846C26.862,16.846 25.94,17.768 25.941,18.906M24.525,28.242L23.313,28.849C22.627,29.213 21.999,29.676 21.449,30.223C21.18,30.512 20.764,30.611 20.394,30.474C20.024,30.337 19.772,29.992 19.754,29.598C19.49,27.289 20.782,25.083 22.924,24.183M31.476,28.242L32.688,28.849C33.373,29.213 34.001,29.676 34.55,30.223C34.82,30.512 35.236,30.611 35.606,30.474C35.976,30.337 36.228,29.992 36.245,29.598C36.51,27.289 35.218,25.083 33.076,24.183M44.5,37.191L36.26,35.032M30.1,34.01C30.1,35.17 29.16,37.975 28,37.975C26.84,37.975 25.9,35.17 25.9,34.01C25.9,32.851 26.84,31.911 28,31.911C29.16,31.911 30.1,32.851 30.1,34.01Z" style="fill:none;stroke:rgb(44,44,44);stroke-width:2px;"/>
                    </g>
                </g>
            </g>
        </g>
    </g>
</svg>
