<?xml version="1.0" encoding="UTF-8" standalone="no"?>
<!DOCTYPE svg PUBLIC "-//W3C//DTD SVG 1.1//EN" "http://www.w3.org/Graphics/SVG/1.1/DTD/svg11.dtd">
<svg width="100%" height="100%" viewBox="0 0 702 918" version="1.1" xmlns="http://www.w3.org/2000/svg" xmlns:xlink="http://www.w3.org/1999/xlink" xml:space="preserve" xmlns:serif="http://www.serif.com/" style="fill-rule:evenodd;clip-rule:evenodd;stroke-linecap:round;stroke-linejoin:round;">
    <g id="items" transform="matrix(1.09548,0,0,1.09548,-33.5145,-54.9641)">
        <g id="blend">
            <g id="g-root-cp_5_shape-5_1448j195m4742-fill" transform="matrix(1,0,0,1,314.303,68)">
                <g id="cp_5_shape-5_1448j195m4742-fill">
                    <g>
                        <path d="M27.697,316L15.697,316L15.697,160L27.697,160L27.697,316ZM32.297,28.191L27.697,28.191L27.697,160L15.697,160L15.697,28.191L11.017,28.191C10.237,28.191 9.747,27.341 10.137,26.661L20.86,10.448C21.256,9.849 22.136,9.851 22.53,10.451L33.177,26.661C33.577,27.341 33.087,28.191 32.297,28.191Z" style="fill:rgb(243,102,187);"/>
                    </g>
                </g>
            </g>
            <g id="g-root-cp_1_shape-1_4maz4t5m47ws-fill" transform="matrix(1,0,0,1,32,67.8164)">
                <g id="cp_1_shape-1_4maz4t5m47ws-fill">
                    <g>
                        <path d="M214,352.184L46,352.183C26.118,352.183 10,336.081 10,316.199L10,316.184L250,316.184C250,336.066 233.882,352.184 214,352.184ZM254.6,28.375L250,28.375L250,160.184L10,160.184C10,140.302 26.118,124.505 46,124.505L172,124.505C213.07,124.505 238,94.374 238,55.034L238,28.374L233.32,28.374C232.54,28.374 232.05,27.524 232.44,26.844L243.163,10.632C243.559,10.033 244.439,10.034 244.833,10.635L255.48,26.844C255.88,27.525 255.39,28.375 254.6,28.375ZM250,160.184L250,316.184L10,316.184L10,160.184L250,160.184Z" style="fill:rgb(255,231,17);"/>
                    </g>
                </g>
            </g>
            <g id="g-root-cp_3_shape-3_1lwrhp95m46x2-fill" transform="matrix(1,0,0,1,284.303,68)">
                <g id="cp_3_shape-3_1lwrhp95m46x2-fill">
                    <g>
                        <path d="M27.697,316L15.697,316L15.697,160L27.697,160L27.697,316ZM32.297,28.191L27.697,28.191L27.697,160L15.697,160L15.697,28.191L11.017,28.191C10.237,28.191 9.747,27.341 10.137,26.661L20.86,10.448C21.256,9.849 22.136,9.851 22.53,10.451L33.177,26.661C33.577,27.341 33.087,28.191 32.297,28.191Z" style="fill:rgb(247,148,56);"/>
                    </g>
                </g>
            </g>
            <g id="g-root-cp_3_shape-3_1_1463yal5m464g-fill" transform="matrix(1,0,0,1,32,374)">
                <g id="cp_3_shape-3_1_1463yal5m464g-fill">
                    <g>
                        <path d="M214,64.321C244,64.321 268,46 268,10L280,10L280,100.306L10,100.306C10,80.423 26.118,64.321 46,64.321L214,64.321Z" style="fill:rgb(247,148,56);"/>
                    </g>
                </g>
            </g>
            <g id="g-root-cp_5_shape-5_1_hz0fod5m48i2-fill" transform="matrix(1,0,0,1,320,374)">
                <g id="cp_5_shape-5_1_hz0fod5m48i2-fill">
                    <g>
                        <rect x="10" y="10" width="12" height="246" style="fill:rgb(243,102,187);"/>
                    </g>
                </g>
            </g>
            <g id="g-root-cp_3_shape-3_2_8cw9p5m47pg-fill" transform="matrix(1,0,0,1,32,464)">
                <g id="cp_3_shape-3_2_8cw9p5m47pg-fill">
                    <g>
                        <path d="M280,10L280,165.975L10,165.975L10,10L280,10ZM244,202.008L46,202.008C26.118,202.008 10,185.905 10,166.023L10,166.008L280,166.008C280,185.89 263.882,202.008 244,202.008Z" style="fill:rgb(247,148,56);"/>
                    </g>
                </g>
            </g>
            <g id="g-root-cp_5_shape-5_2_1lymwyl5m45xi-fill" transform="matrix(1,0,0,1,32,620)">
                <g id="cp_5_shape-5_2_1lymwyl5m45xi-fill">
                    <g>
                        <path d="M244,64.137C274,64.137 298,45.878 298,10L310,10L310,100L10,100C10,80.185 26.118,64.137 46,64.137L244,64.137Z" style="fill:rgb(243,102,187);"/>
                    </g>
                </g>
            </g>
            <g id="g-root-cp_5_shape-5_3_18n6el95m47ig-fill" transform="matrix(1,0,0,1,32,710)">
                <g id="cp_5_shape-5_3_18n6el95m47ig-fill">
                    <g>
                        <path d="M310,10L310,118L10,118L10,10L310,10ZM274,154.008L46,154.008C26.118,154.008 10,137.882 10,118L310,118C310,137.882 293.882,154.008 274,154.008Z" style="fill:rgb(243,102,187);"/>
                    </g>
                </g>
            </g>
            <g id="g-root-cp_2_shape-2_qwiv6l5m46pu-fill" transform="matrix(1,0,0,1,404.378,67.8164)">
                <g id="cp_2_shape-2_qwiv6l5m46pu-fill">
                    <g>
                        <path d="M51.622,328.184L219.622,328.184C239.504,328.184 255.622,312.081 255.622,292.199L255.622,292.184L15.622,292.184C15.622,312.066 31.74,328.184 51.622,328.184ZM11.022,28.375L15.622,28.375L15.622,160.184L255.622,160.184C255.622,140.302 239.505,124.505 219.623,124.505L93.622,124.505C52.552,124.505 27.622,94.374 27.622,55.034L27.622,28.374L32.302,28.374C33.082,28.374 33.572,27.524 33.182,26.844L22.459,10.632C22.063,10.033 21.184,10.034 20.79,10.635L10.142,26.844C9.742,27.525 10.232,28.375 11.022,28.375ZM15.622,160.184L15.622,292.184L255.622,292.184L255.622,160.184L15.622,160.184Z" style="fill:rgb(67,221,147);"/>
                    </g>
                </g>
            </g>
            <g id="g-root-cp_4_shape-4_dl2ct95m48as-fill" transform="matrix(1,0,0,1,374.383,68)">
                <g id="cp_4_shape-4_dl2ct95m48as-fill">
                    <g>
                        <path d="M15.623,292L27.623,292L27.623,160L15.623,160L15.623,292ZM11.022,28.191L15.622,28.191L15.622,160L27.622,160L27.622,28.191L32.302,28.191C33.082,28.191 33.572,27.341 33.182,26.661L22.459,10.448C22.063,9.849 21.184,9.851 20.79,10.451L10.142,26.661C9.742,27.341 10.232,28.191 11.022,28.191Z" style="fill:rgb(251,103,98);"/>
                    </g>
                </g>
            </g>
            <g id="g-root-cp_6_shape-6_1q5prvh5m5lvy-fill" transform="matrix(1,0,0,1,344.383,68)">
                <g id="cp_6_shape-6_1q5prvh5m5lvy-fill">
                    <g>
                        <path d="M15.623,292L27.623,292L27.623,160L15.623,160L15.623,292ZM11.022,28.191L15.622,28.191L15.622,160L27.622,160L27.622,28.191L32.302,28.191C33.082,28.191 33.572,27.341 33.182,26.661L22.459,10.448C22.063,9.849 21.184,9.851 20.79,10.451L10.142,26.661C9.742,27.341 10.232,28.191 11.022,28.191Z" style="fill:rgb(26,195,251);"/>
                    </g>
                </g>
            </g>
            <g id="g-root-cp_4_shape-4_1_1hap8pp5m5kao-fill" transform="matrix(1,0,0,1,380,350)">
                <g id="cp_4_shape-4_1_1hap8pp5m5kao-fill">
                    <g>
                        <path d="M76,64.321C46,64.321 22,46 22,10L10,10L10,100.306L280,100.306C280,80.423 263.882,64.321 244,64.321L76,64.321Z" style="fill:rgb(251,103,98);"/>
                    </g>
                </g>
            </g>
            <g id="g-root-cp_4_shape-4_2_13z8qcd5m5lvm-fill" transform="matrix(1,0,0,1,380,440)">
                <g id="cp_4_shape-4_2_13z8qcd5m5lvm-fill">
                    <g>
                        <path d="M10,10L10,118L280,118L280,10L10,10ZM46,154L244,154C263.882,154 280,137.898 280,118.016L280,118L10,118C10,137.882 26.118,154 46,154Z" style="fill:rgb(251,103,98);"/>
                    </g>
                </g>
            </g>
            <g id="g-root-cp_6_shape-6_1_qoep255m5kas-fill" transform="matrix(1,0,0,1,350,350)">
                <g id="cp_6_shape-6_1_qoep255m5kas-fill">
                    <g>
                        <rect x="10" y="10" width="12" height="198" style="fill:rgb(26,195,251);"/>
                    </g>
                </g>
            </g>
            <g id="g-root-cp_6_shape-6_2_hsrot95m5l3i-fill" transform="matrix(1,0,0,1,350,548)">
                <g id="cp_6_shape-6_2_hsrot95m5l3i-fill">
                    <g>
                        <path d="M76,64.321C46,64.321 22,46 22,10L10,10L10,100.306L310,100.306C310,80.423 293.882,64.321 274,64.321L76,64.321Z" style="fill:rgb(26,195,251);"/>
                    </g>
                </g>
            </g>
            <g id="g-root-cp_6_shape-6_3_8x4okd5m5mo0-fill" transform="matrix(1,0,0,1,350,638)">
                <g id="cp_6_shape-6_3_8x4okd5m5mo0-fill">
                    <g>
                        <path d="M10,10L10,118L310,118L310,10L10,10ZM46,154L274,154C293.882,154 310,137.898 310,118.016L310,118L10,118C10,137.882 26.118,154 46,154Z" style="fill:rgb(26,195,251);"/>
                    </g>
                </g>
            </g>
            <g id="g-root-tx_streamli_18i6lwd5m5m9w-fill" transform="matrix(1,0,0,1,62,326)">
                <g id="tx_streamli_18i6lwd5m5m9w-fill">
                    <g>
                        <g>
                            <g transform="matrix(1,0,0,1,22.64,31.2)">
                                <text x="0px" y="0px" style="font-family:'ArialMT', 'Arial', sans-serif;font-size:15px;fill:rgb(44,44,44);">Streamlined operations</text>
                            </g>
                            <g transform="matrix(1,0,0,1,45.66,49.2)">
                                <g transform="matrix(15,0,0,15,63.3838,0)">
                                </g>
                                <g transform="matrix(15,0,0,15,67.4178,0)">
                                </g>
                                <g transform="matrix(15,0,0,15,71.4519,0)">
                                </g>
                                <text x="0px" y="0px" style="font-family:'ArialMT', 'Arial', sans-serif;font-size:15px;fill:rgb(44,44,44);">through eﬃcient</text>
                            </g>
                            <g transform="matrix(1,0,0,1,15.84,67.2)">
                                <text x="0px" y="0px" style="font-family:'ArialMT', 'Arial', sans-serif;font-size:15px;fill:rgb(44,44,44);">communication systems.</text>
                            </g>
                        </g>
                    </g>
                </g>
            </g>
            <g id="g-root-tx_enhanced_9lufx5m8eth-fill" transform="matrix(1,0,0,1,440,302)">
                <g id="tx_enhanced_9lufx5m8eth-fill">
                    <g>
                        <g>
                            <g transform="matrix(1,0,0,1,25.79,31.2)">
                                <text x="0px" y="0px" style="font-family:'ArialMT', 'Arial', sans-serif;font-size:15px;fill:rgb(44,44,44);">Enhanced patient care</text>
                            </g>
                            <g transform="matrix(1,0,0,1,59.91,49.2)">
                                <text x="0px" y="0px" style="font-family:'ArialMT', 'Arial', sans-serif;font-size:15px;fill:rgb(44,44,44);">with reliable</text>
                            </g>
                            <g transform="matrix(1,0,0,1,13.34,67.2)">
                                <text x="0px" y="0px" style="font-family:'ArialMT', 'Arial', sans-serif;font-size:15px;fill:rgb(44,44,44);">communication solutions.</text>
                            </g>
                        </g>
                    </g>
                </g>
            </g>
            <g transform="matrix(1,0,0,1,441.48,522)">
                <g id="g-root-tx_financeb_1d0i3j15lncw7-fill">
                    <g id="tx_financeb_1d0i3j15lncw7-fill">
                        <g>
                            <g>
                                <text x="0px" y="0px" style="font-family:'Arial-BoldMT', 'Arial', sans-serif;font-weight:700;font-size:20px;fill:rgb(44,44,44);">Finance &amp; Banking</text>
                            </g>
                        </g>
                    </g>
                </g>
            </g>
            <g id="g-root-tx_educatio_1hobh5m70um-fill" transform="matrix(1,0,0,1,95,512)">
                <g id="tx_educatio_1hobh5m70um-fill">
                    <g>
                        <g>
                            <g transform="matrix(1,0,0,1,16.51,34)">
                                <text x="0px" y="0px" style="font-family:'Arial-BoldMT', 'Arial', sans-serif;font-weight:700;font-size:20px;fill:rgb(44,44,44);">Education &amp; e-</text>
                            </g>
                            <g transform="matrix(1,0,0,1,42.61,58)">
                                <text x="0px" y="0px" style="font-family:'Arial-BoldMT', 'Arial', sans-serif;font-weight:700;font-size:20px;fill:rgb(44,44,44);">Learning</text>
                            </g>
                        </g>
                    </g>
                </g>
            </g>
            <g id="g-root-tx_securean_93dil95lnbbc-fill" transform="matrix(1,0,0,1,413,524)">
                <g id="tx_securean_93dil95lnbbc-fill">
                    <g>
                        <g>
                            <g transform="matrix(1,0,0,1,14.3,28.2)">
                                <g transform="matrix(15,0,0,15,89.231,0)">
                                </g>
                                <g transform="matrix(15,0,0,15,93.265,0)">
                                </g>
                                <g transform="matrix(15,0,0,15,97.2991,0)">
                                </g>
                                <g transform="matrix(15,0,0,15,136.377,0)">
                                </g>
                                <g transform="matrix(15,0,0,15,140.544,0)">
                                </g>
                                <text x="0px" y="0px" style="font-family:'ArialMT', 'Arial', sans-serif;font-size:15px;fill:rgb(44,44,44);">Secure and eﬃcient ﬁnancial</text>
                            </g>
                            <g transform="matrix(1,0,0,1,38.93,46.2)">
                                <text x="0px" y="0px" style="font-family:'ArialMT', 'Arial', sans-serif;font-size:15px;fill:rgb(44,44,44);">transactions via V<tspan x="117.561px 125.903px 130.071px 138.142px " y="0px 0px 0px 0px ">oIP.</tspan></text>
                            </g>
                        </g>
                    </g>
                </g>
            </g>
            <g id="g-root-tx_facilita_hu0mzh5m70nj-fill" transform="matrix(1,0,0,1,59,572)">
                <g id="tx_facilita_hu0mzh5m70nj-fill">
                    <g>
                        <g>
                            <g transform="matrix(1,0,0,1,28.7,31.2)">
                                <text x="0px" y="0px" style="font-family:'ArialMT', 'Arial', sans-serif;font-size:15px;fill:rgb(44,44,44);">Facilitated remote learning</text>
                            </g>
                            <g transform="matrix(1,0,0,1,15.42,49.2)">
                                <text x="0px" y="0px" style="font-family:'ArialMT', 'Arial', sans-serif;font-size:15px;fill:rgb(44,44,44);">with advanced communication</text>
                            </g>
                            <g transform="matrix(1,0,0,1,98.97,67.2)">
                                <text x="0px" y="0px" style="font-family:'ArialMT', 'Arial', sans-serif;font-size:15px;fill:rgb(44,44,44);">tools.</text>
                            </g>
                        </g>
                    </g>
                </g>
            </g>
            <g id="g-root-tx_improved_8x4okd5m8dfu-fill" transform="matrix(1,0,0,1,68,794)">
                <g id="tx_improved_8x4okd5m8dfu-fill">
                    <g>
                        <g>
                            <g transform="matrix(1,0,0,1,17.3,28.2)">
                                <text x="0px" y="0px" style="font-family:'ArialMT', 'Arial', sans-serif;font-size:15px;fill:rgb(44,44,44);">Improved customer service and</text>
                            </g>
                            <g transform="matrix(1,0,0,1,49.45,46.2)">
                                <g transform="matrix(15,0,0,15,86.7334,0)">
                                </g>
                                <g transform="matrix(15,0,0,15,90.7675,0)">
                                </g>
                                <g transform="matrix(15,0,0,15,94.8015,0)">
                                </g>
                                <text x="0px" y="0px" style="font-family:'ArialMT', 'Arial', sans-serif;font-size:15px;fill:rgb(44,44,44);">operational eﬃciency<tspan x="139.431px " y="0px ">.</tspan></text>
                            </g>
                        </g>
                    </g>
                </g>
            </g>
            <g transform="matrix(1,0,0,1,491.03,300)">
                <g id="g-root-tx_healthca_146qfdp5m8gec-fill">
                    <g id="tx_healthca_146qfdp5m8gec-fill">
                        <g>
                            <g>
                                <text x="0px" y="0px" style="font-family:'Arial-BoldMT', 'Arial', sans-serif;font-weight:700;font-size:20px;fill:rgb(44,44,44);">Healthcare</text>
                            </g>
                        </g>
                    </g>
                </g>
            </g>
            <g transform="matrix(1,0,0,1,409.15,720)">
                <g id="g-root-tx_ittechno_1heg6e55lor9e-fill">
                    <g id="tx_ittechno_1heg6e55lor9e-fill">
                        <g>
                            <g>
                                <text x="0px" y="0px" style="font-family:'Arial-BoldMT', 'Arial', sans-serif;font-weight:700;font-size:20px;fill:rgb(44,44,44);">IT &amp; T<tspan x="54.063px 65.186px " y="0px 0px ">ec</tspan>hnology Firms</text>
                            </g>
                        </g>
                    </g>
                </g>
            </g>
            <g id="g-root-tx_innovati_1qbc4t95loruz-fill" transform="matrix(1,0,0,1,380,722)">
                <g id="tx_innovati_1qbc4t95loruz-fill">
                    <g>
                        <g>
                            <g transform="matrix(1,0,0,1,41.95,28.2)">
                                <text x="0px" y="0px" style="font-family:'ArialMT', 'Arial', sans-serif;font-size:15px;fill:rgb(44,44,44);">Innovative communication</text>
                            </g>
                            <g transform="matrix(1,0,0,1,12.62,46.2)">
                                <text x="0px" y="0px" style="font-family:'ArialMT', 'Arial', sans-serif;font-size:15px;fill:rgb(44,44,44);">solutions for tech-driven industries.</text>
                            </g>
                        </g>
                    </g>
                </g>
            </g>
            <g transform="matrix(1,0,0,1,97.31,792)">
                <g id="g-root-tx_retailec_1cu99i55m8f0p-fill">
                    <g id="tx_retailec_1cu99i55m8f0p-fill">
                        <g>
                            <g>
                                <text x="0px" y="0px" style="font-family:'Arial-BoldMT', 'Arial', sans-serif;font-weight:700;font-size:20px;fill:rgb(44,44,44);">Retail &amp; E-commerce</text>
                            </g>
                        </g>
                    </g>
                </g>
            </g>
            <g id="g-root-tx_callcent_detly55m5kw3-fill" transform="matrix(1,0,0,1,80,266)">
                <g id="tx_callcent_detly55m5kw3-fill">
                    <g>
                        <g>
                            <g transform="matrix(1,0,0,1,15.66,34)">
                                <text x="0px" y="0px" style="font-family:'Arial-BoldMT', 'Arial', sans-serif;font-weight:700;font-size:20px;fill:rgb(44,44,44);">Call Centers &amp;</text>
                            </g>
                            <g transform="matrix(1,0,0,1,54.67,58)">
                                <text x="0px" y="0px" style="font-family:'Arial-BoldMT', 'Arial', sans-serif;font-weight:700;font-size:20px;fill:rgb(44,44,44);">BPOs</text>
                            </g>
                        </g>
                    </g>
                </g>
            </g>
            <g id="g-root-cp_5_shape-5_1448j195m4742-stroke" transform="matrix(1,0,0,1,314.303,68)">
                <g id="cp_5_shape-5_1448j195m4742-stroke">
                    <g>
                        <path d="M15.697,160L15.697,316M27.697,316L27.697,160M15.697,160L15.697,28.191L11.017,28.191C10.237,28.191 9.747,27.341 10.137,26.661L20.86,10.448C21.256,9.849 22.136,9.851 22.53,10.451L33.177,26.661C33.577,27.341 33.087,28.191 32.297,28.191L27.697,28.191L27.697,160" style="fill:none;stroke:rgb(44,44,44);stroke-width:2px;"/>
                    </g>
                </g>
            </g>
            <g id="g-root-cp_1_shape-1_4maz4t5m47ws-stroke" transform="matrix(1,0,0,1,32,67.8164)">
                <g id="cp_1_shape-1_4maz4t5m47ws-stroke">
                    <g>
                        <path d="M10,160.184C10,140.301 26.118,124.321 46,124.321L172,124.321C213.07,124.321 238,94.191 238,54.851L238,28.191L233.32,28.191C232.54,28.191 232.05,27.341 232.44,26.661L243.163,10.448C243.559,9.849 244.439,9.851 244.833,10.451L255.48,26.661C255.88,27.341 255.39,28.191 254.6,28.191L250,28.191L250,160.184M250,316.184C250,336.066 233.882,352.191 214,352.191L46,352.191C26.118,352.191 10,336.081 10,316.199L10,316.184M250,316.184L250,160.184M10,160.184L10,316.184" style="fill:none;stroke:rgb(44,44,44);stroke-width:2px;"/>
                    </g>
                </g>
            </g>
            <g id="g-root-cp_3_shape-3_1lwrhp95m46x2-stroke" transform="matrix(1,0,0,1,284.303,68)">
                <g id="cp_3_shape-3_1lwrhp95m46x2-stroke">
                    <g>
                        <path d="M15.697,160L15.697,316M27.697,316L27.697,160M15.697,160L15.697,28.191L11.017,28.191C10.237,28.191 9.747,27.341 10.137,26.661L20.86,10.448C21.256,9.849 22.136,9.851 22.53,10.451L33.177,26.661C33.577,27.341 33.087,28.191 32.297,28.191L27.697,28.191L27.697,160" style="fill:none;stroke:rgb(44,44,44);stroke-width:2px;"/>
                    </g>
                </g>
            </g>
            <g id="g-root-cp_3_shape-3_1_1463yal5m464g-stroke" transform="matrix(1,0,0,1,32,374)">
                <g id="cp_3_shape-3_1_1463yal5m464g-stroke">
                    <g>
                        <path d="M268,10C268,46 244,64.321 214,64.321L46,64.321C26.118,64.321 10,80.423 10,100.306M280,100.306L280,10" style="fill:none;stroke:rgb(44,44,44);stroke-width:2px;"/>
                    </g>
                </g>
            </g>
            <g id="g-root-cp_5_shape-5_1_hz0fod5m48i2-stroke" transform="matrix(1,0,0,1,320,374)">
                <g id="cp_5_shape-5_1_hz0fod5m48i2-stroke">
                    <g>
                        <path d="M10,10L10,256M22,256L22,10" style="fill:none;stroke:rgb(44,44,44);stroke-width:2px;"/>
                    </g>
                </g>
            </g>
            <g id="g-root-cp_3_shape-3_2_8cw9p5m47pg-stroke" transform="matrix(1,0,0,1,32,464)">
                <g id="cp_3_shape-3_2_8cw9p5m47pg-stroke">
                    <g>
                        <path d="M280,165.975L280,10M10,10L10,166M280,166.008C280,185.89 263.882,202.008 244,202.008L46,202.008C26.118,202.008 10,185.905 10,166.023L10,166.008" style="fill:none;stroke:rgb(44,44,44);stroke-width:2px;"/>
                    </g>
                </g>
            </g>
            <g id="g-root-cp_5_shape-5_2_1lymwyl5m45xi-stroke" transform="matrix(1,0,0,1,32,620)">
                <g id="cp_5_shape-5_2_1lymwyl5m45xi-stroke">
                    <g>
                        <path d="M298,10C298,45.878 274,64.137 244,64.137L46,64.137C26.118,64.137 10,80.185 10,100M310,100L310,10" style="fill:none;stroke:rgb(44,44,44);stroke-width:2px;"/>
                    </g>
                </g>
            </g>
            <g id="g-root-cp_5_shape-5_3_18n6el95m47ig-stroke" transform="matrix(1,0,0,1,32,710)">
                <g id="cp_5_shape-5_3_18n6el95m47ig-stroke">
                    <g>
                        <path d="M310,118L310,10M10,10L10,118M310,118C310,137.882 293.882,154.008 274,154.008L46,154.008C26.118,154.008 10,137.882 10,118" style="fill:none;stroke:rgb(44,44,44);stroke-width:2px;"/>
                    </g>
                </g>
            </g>
            <g id="g-root-cp_2_shape-2_qwiv6l5m46pu-stroke" transform="matrix(1,0,0,1,404.378,67.8164)">
                <g id="cp_2_shape-2_qwiv6l5m46pu-stroke">
                    <g>
                        <path d="M255.622,160.184C255.622,140.301 239.505,124.321 219.623,124.321L93.622,124.321C52.552,124.321 27.622,94.191 27.622,54.851L27.622,28.191L32.302,28.191C33.082,28.191 33.572,27.341 33.182,26.661L22.459,10.448C22.063,9.849 21.184,9.851 20.79,10.451L10.142,26.661C9.742,27.341 10.232,28.191 11.022,28.191L15.622,28.191L15.622,160.184M15.622,292.184C15.622,312.066 31.74,328.184 51.622,328.184L219.623,328.183C239.505,328.183 255.622,312.081 255.622,292.199L255.622,292.184M15.622,292.184L15.622,160.184M255.622,160.184L255.622,292.184" style="fill:none;stroke:rgb(44,44,44);stroke-width:2px;"/>
                    </g>
                </g>
            </g>
            <g id="g-root-cp_4_shape-4_dl2ct95m48as-stroke" transform="matrix(1,0,0,1,374.383,68)">
                <g id="cp_4_shape-4_dl2ct95m48as-stroke">
                    <g>
                        <path d="M27.622,160L27.622,292M15.622,292L15.622,160M27.622,160L27.622,28.191L32.302,28.191C33.082,28.191 33.572,27.341 33.182,26.661L22.459,10.448C22.063,9.849 21.184,9.851 20.79,10.451L10.142,26.661C9.742,27.341 10.232,28.191 11.022,28.191L15.622,28.191L15.622,160" style="fill:none;stroke:rgb(44,44,44);stroke-width:2px;"/>
                    </g>
                </g>
            </g>
            <g id="g-root-cp_6_shape-6_1q5prvh5m5lvy-stroke" transform="matrix(1,0,0,1,344.383,68)">
                <g id="cp_6_shape-6_1q5prvh5m5lvy-stroke">
                    <g>
                        <path d="M27.622,160L27.622,292M15.622,292L15.622,160M27.622,160L27.622,28.191L32.302,28.191C33.082,28.191 33.572,27.341 33.182,26.661L22.459,10.448C22.063,9.849 21.184,9.851 20.79,10.451L10.142,26.661C9.742,27.341 10.232,28.191 11.022,28.191L15.622,28.191L15.622,160" style="fill:none;stroke:rgb(44,44,44);stroke-width:2px;"/>
                    </g>
                </g>
            </g>
            <g id="g-root-cp_4_shape-4_1_1hap8pp5m5kao-stroke" transform="matrix(1,0,0,1,380,350)">
                <g id="cp_4_shape-4_1_1hap8pp5m5kao-stroke">
                    <g>
                        <path d="M22,10C22,46 46,64.321 76,64.321L244,64.321C263.882,64.321 280,80.423 280,100.306M10,100.306L10,10" style="fill:none;stroke:rgb(44,44,44);stroke-width:2px;"/>
                    </g>
                </g>
            </g>
            <g id="g-root-cp_4_shape-4_2_13z8qcd5m5lvm-stroke" transform="matrix(1,0,0,1,380,440)">
                <g id="cp_4_shape-4_2_13z8qcd5m5lvm-stroke">
                    <g>
                        <path d="M10,118L10,10M280,10L280,118M10,118C10,137.882 26.118,154.008 46,154.008L244,154.008C263.882,154.008 280,137.898 280,118.016L280,118" style="fill:none;stroke:rgb(44,44,44);stroke-width:2px;"/>
                    </g>
                </g>
            </g>
            <g id="g-root-cp_6_shape-6_1_qoep255m5kas-stroke" transform="matrix(1,0,0,1,350,350)">
                <g id="cp_6_shape-6_1_qoep255m5kas-stroke">
                    <g>
                        <path d="M22,10L22,208M10,208L10,10" style="fill:none;stroke:rgb(44,44,44);stroke-width:2px;"/>
                    </g>
                </g>
            </g>
            <g id="g-root-cp_6_shape-6_2_hsrot95m5l3i-stroke" transform="matrix(1,0,0,1,350,548)">
                <g id="cp_6_shape-6_2_hsrot95m5l3i-stroke">
                    <g>
                        <path d="M22,10C22,46 46,64.321 76,64.321L274,64.321C293.882,64.321 310,80.423 310,100.306M10,100.306L10,10" style="fill:none;stroke:rgb(44,44,44);stroke-width:2px;"/>
                    </g>
                </g>
            </g>
            <g id="g-root-cp_6_shape-6_3_8x4okd5m5mo0-stroke" transform="matrix(1,0,0,1,350,638)">
                <g id="cp_6_shape-6_3_8x4okd5m5mo0-stroke">
                    <g>
                        <path d="M10,118L10,10M310,10L310,118M10,118C10,137.882 26.118,154.008 46,154.008L274,154.008C293.882,154.008 310,137.898 310,118.016L310,118" style="fill:none;stroke:rgb(44,44,44);stroke-width:2px;"/>
                    </g>
                </g>
            </g>
            <g id="g-root-ic_head_4l20yl5m5kp1-stroke" transform="matrix(1,0,0,1,128,206)">
                <g id="ic_head_4l20yl5m5kp1-stroke">
                    <g>
                        <path d="M51.906,35.044C51.031,39.444 48.293,43.25 44.4,45.48L44.4,57M24.4,57L24.4,50.046C20.4,50.068 18.364,49.78 16.962,48.376C15.162,46.576 15.336,39 15.336,39C15.336,39 13.63,39.064 12.336,39.012C11.884,38.99 11.467,38.765 11.2,38.4C11.018,38.007 10.949,37.57 11,37.14C10.756,33.926 15.278,28.414 15.278,26.812C15.278,16.75 24.78,11 33.4,11C42.789,10.897 50.807,17.752 52.166,27.042M30.082,31.042C30.082,34.615 32.979,37.512 36.552,37.512C40.125,37.512 43.022,34.615 43.022,31.042C43.022,27.469 40.125,24.572 36.552,24.572C32.979,24.572 30.082,27.469 30.082,31.042M33.822,36.908L31.702,40.2C30.966,41.344 29.699,42.036 28.338,42.036L26.522,42.036M41.634,27.042L55.022,27.042C56.127,27.042 57.022,27.937 57.022,29.042L57.022,33.042C57.022,34.147 56.127,35.042 55.022,35.042L41.634,35.042M22.022,42.042C22.022,43.285 23.029,44.292 24.272,44.292C25.515,44.292 26.522,43.285 26.522,42.042C26.522,40.799 25.515,39.792 24.272,39.792C23.029,39.792 22.022,40.799 22.022,42.042M43.022,31.042L52.172,31.042" style="fill:none;stroke:rgb(44,44,44);stroke-width:2px;"/>
                    </g>
                </g>
            </g>
            <g id="g-root-ic_cash_zqx0f15lndhd-stroke" transform="matrix(1,0,0,1,491,428)">
                <g id="ic_cash_zqx0f15lndhd-stroke">
                    <g>
                        <path d="M26.008,56.906L57.008,56.906M31.008,52.906L31.008,42.906M37.008,52.906L37.008,42.906M47.008,52.906L47.008,42.906M53.008,52.906L53.008,42.906M29.008,42.906L39.008,42.906M45.008,42.906L55.008,42.906M11.008,18.906L31.008,18.906L31.008,32.906L11.008,32.906L11.008,18.906ZM14.4,18.906L15.916,11.882C16.034,11.342 16.566,11 17.106,11.118L34.578,14.918C35.117,15.036 35.458,15.567 35.342,16.106L33.13,26.288C33.012,26.827 32.481,27.168 31.942,27.052L31.008,26.852M18.008,25.906C18.008,27.563 19.351,28.906 21.008,28.906C22.665,28.906 24.008,27.563 24.008,25.906C24.008,24.249 22.665,22.906 21.008,22.906C19.351,22.906 18.008,24.249 18.008,25.906ZM36,29.906L41.446,26.276C41.782,26.053 42.218,26.053 42.554,26.276L56.554,35.608C56.832,35.793 57,36.106 57,36.44L57,37.906C57,38.458 56.552,38.906 56,38.906L28,38.906C27.448,38.906 27,38.458 27,37.906" style="fill:none;stroke:rgb(44,44,44);stroke-width:2px;"/>
                    </g>
                </g>
            </g>
            <g id="g-root-ic_stud_1hdtm595m6yv4-stroke" transform="matrix(1,0,0,1,143,452)">
                <g id="ic_stud_1hdtm595m6yv4-stroke">
                    <g>
                        <path d="M32.6,25.6C30.17,25.6 28.2,23.63 28.2,21.2C28.2,18.77 30.17,16.8 32.6,16.8C35.03,16.8 37,18.77 37,21.2C37,23.63 35.03,25.6 32.6,25.6ZM25.8,34.6C25.8,30.8 28.8,27.8 32.6,27.8C36.4,27.8 39.4,30.8 39.4,34.6M46.5,42.9C46.5,42.9 45.5,40.1 37.9,39.7C37.1,39.7 36.5,40.1 36.5,40.7L36.5,52.3C36.5,52.9 37.1,53.3 37.7,53.3C45.5,53.5 46.5,56.5 46.5,56.5L46.5,42.9ZM46.5,42.9C46.5,42.9 47.5,40.1 55.1,39.7C55.9,39.7 56.5,40.1 56.5,40.7L56.5,52.3C56.5,52.9 55.9,53.3 55.3,53.3C47.5,53.5 46.5,56.5 46.5,56.5M52.7,34.3L52.7,14.3C52.7,12.7 51.5,11.5 49.9,11.5L14.3,11.5C12.7,11.5 11.5,12.7 11.5,14.3L11.5,41.7C11.5,43.3 12.7,44.5 14.3,44.5L29.9,44.5M27.3,44.5L25.9,52.5M29.4,52.5L23.9,52.5" style="fill:none;stroke:rgb(44,44,44);stroke-width:2px;"/>
                    </g>
                </g>
            </g>
            <g id="g-root-ic_2_m7yt0d5lnbbi-stroke" transform="matrix(1,0,0,1,506,206)">
                <g id="ic_2_m7yt0d5lnbbi-stroke">
                    <g>
                        <path d="M48.889,29.542L48.889,15.228C48.889,14.32 48.529,13.449 47.886,12.806C47.244,12.164 46.373,11.803 45.465,11.803L18.588,11.803C17.68,11.803 16.809,12.164 16.167,12.806C15.524,13.449 15.164,14.32 15.164,15.228L15.164,34.982L11.739,46.702L25.438,41.831L35.368,41.831M34.65,18.004L28.488,18.004L28.488,23.238L23.254,23.238L23.254,29.4L28.488,29.4L28.488,34.634L34.65,34.634L34.65,29.4L39.884,29.4L39.884,23.238L34.65,23.238L34.65,18.004ZM37.443,55.955C37.443,53.459 38.434,51.066 40.199,49.302C41.963,47.537 44.357,46.546 46.852,46.546C49.348,46.546 51.741,47.537 53.505,49.302C55.27,51.066 56.261,53.459 56.261,55.955L37.443,55.955ZM46.852,46.546C50.316,46.546 53.125,43.737 53.125,40.273C53.125,36.808 50.316,34 46.852,34C43.388,34 40.579,36.808 40.579,40.273C40.579,43.737 43.388,46.546 46.852,46.546Z" style="fill:none;stroke:rgb(44,44,44);stroke-width:2px;"/>
                    </g>
                </g>
            </g>
            <g id="g-root-ic_moni_v9uk4d5lophg-stroke" transform="matrix(1,0,0,1,476,626)">
                <g id="ic_moni_v9uk4d5lophg-stroke">
                    <g>
                        <path d="M20.732,50.168L48.056,50.168M22.558,50.612L22.558,56.098M45.786,50.5L45.786,56.098M26.998,33.224L40.998,33.224C40.998,33.224 42.998,33.224 42.998,35.224L42.998,43.224C42.998,43.224 42.998,45.224 40.998,45.224L26.998,45.224C26.998,45.224 24.998,45.224 24.998,43.224L24.998,35.224C24.998,35.224 24.998,33.224 26.998,33.224M31.956,45.224C31.776,47.127 30.885,48.892 29.462,50.168M36.038,45.224C36.218,47.127 37.109,48.892 38.532,50.168M18.15,22.744C18.015,24.462 17.271,26.076 16.052,27.294M21.58,22.744C21.715,24.462 22.459,26.076 23.678,27.294M45.414,22.744C45.279,24.462 44.535,26.076 43.316,27.294M48.844,22.744C48.979,24.462 49.723,26.076 50.942,27.294M11.998,27.294L56.268,27.294M13.822,27.738L13.822,36.224M53.998,27.628L53.998,36.224M40.998,11.902L53.262,11.902C53.262,11.902 55.262,11.902 55.262,13.902L55.262,20.744C55.262,20.744 55.262,22.744 53.262,22.744L40.998,22.744C40.998,22.744 38.998,22.744 38.998,20.744L38.998,13.902C38.998,13.902 38.998,11.902 40.998,11.902M13.732,11.902L25.996,11.902C25.996,11.902 27.996,11.902 27.996,13.902L27.996,20.744C27.996,20.744 27.996,22.744 25.996,22.744L13.732,22.744C13.732,22.744 11.732,22.744 11.732,20.744L11.732,13.902C11.732,13.902 11.732,11.902 13.732,11.902" style="fill:none;stroke:rgb(44,44,44);stroke-width:2px;"/>
                    </g>
                </g>
            </g>
            <g id="g-root-ic_exch_140hoil5m8etn-stroke" transform="matrix(1,0,0,1,158,698)">
                <g id="ic_exch_140hoil5m8etn-stroke">
                    <g>
                        <path d="M22.5,55.5L26.5,51.5L22.5,47.5M39.5,30.5L51.5,30.5C51.5,30.5 53.5,30.5 53.5,32.5L53.5,54.5C53.5,54.5 53.5,56.5 51.5,56.5L39.5,56.5C39.5,56.5 37.5,56.5 37.5,54.5L37.5,32.5C37.5,32.5 37.5,30.5 39.5,30.5M14.5,41.5C14.5,47.023 18.977,51.5 24.5,51.5L26.5,51.5M46.5,11.5L42.5,15.5L46.5,19.5M54.5,25.5C54.5,19.977 50.023,15.5 44.5,15.5L42.5,15.5M37.5,48.5L53.5,48.5M45.5,52C45.224,52 45,52.224 45,52.5C45,52.776 45.224,53 45.5,53C45.776,53 46,52.776 46,52.5C46,52.224 45.776,52 45.5,52M23.5,30.5C23.5,31.605 24.395,32.5 25.5,32.5C26.605,32.5 27.5,31.605 27.5,30.5C27.5,29.395 26.605,28.5 25.5,28.5C24.395,28.5 23.5,29.395 23.5,30.5M15.5,30.5C15.5,31.605 16.395,32.5 17.5,32.5C18.605,32.5 19.5,31.605 19.5,30.5C19.5,29.395 18.605,28.5 17.5,28.5C16.395,28.5 15.5,29.395 15.5,30.5M31.5,11.5L26.5,26.5L16.5,26.5L13.5,16.5L29.834,16.5" style="fill:none;stroke:rgb(44,44,44);stroke-width:2px;"/>
                    </g>
                </g>
            </g>
        </g>
    </g>
</svg>
