<?xml version="1.0" encoding="UTF-8" standalone="no"?>
<!DOCTYPE svg PUBLIC "-//W3C//DTD SVG 1.1//EN" "http://www.w3.org/Graphics/SVG/1.1/DTD/svg11.dtd">
<svg width="100%" height="100%" viewBox="0 0 702 894" version="1.1" xmlns="http://www.w3.org/2000/svg" xmlns:xlink="http://www.w3.org/1999/xlink" xml:space="preserve" xmlns:serif="http://www.serif.com/" style="fill-rule:evenodd;clip-rule:evenodd;stroke-linecap:round;stroke-linejoin:round;">
    <g id="items" transform="matrix(1.09753,0,0,1.09753,-34.2337,-53.7585)">
        <g id="blend">
            <g id="g-root-cp_5_shape-5_13ym2vh51y13f-fill" transform="matrix(1,0,0,1,314.303,68)">
                <g id="cp_5_shape-5_13ym2vh51y13f-fill">
                    <g>
                        <path d="M27.697,292L15.697,292L15.697,160L27.697,160L27.697,292ZM32.297,28.191L27.697,28.191L27.697,160L15.697,160L15.697,28.191L11.017,28.191C10.237,28.191 9.747,27.341 10.137,26.661L20.86,10.448C21.256,9.849 22.136,9.851 22.53,10.451L33.177,26.661C33.577,27.341 33.087,28.191 32.297,28.191Z" style="fill:rgb(247,148,56);"/>
                    </g>
                </g>
            </g>
            <g id="g-root-cp_1_shape-1_qns1l951xzil-fill" transform="matrix(1,0,0,1,32,67.8164)">
                <g id="cp_1_shape-1_qns1l951xzil-fill">
                    <g>
                        <path d="M214,328.184L46,328.183C26.118,328.183 10,312.081 10,292.199L10,292.184L250,292.184C250,312.066 233.882,328.184 214,328.184ZM254.6,28.375L250,28.375L250,160.184L10,160.184C10,140.302 26.118,124.505 46,124.505L172,124.505C213.07,124.505 238,94.374 238,55.034L238,28.374L233.32,28.374C232.54,28.374 232.05,27.524 232.44,26.844L243.163,10.632C243.559,10.033 244.439,10.034 244.833,10.635L255.48,26.844C255.88,27.525 255.39,28.375 254.6,28.375ZM250,160.184L250,292.184L10,292.184L10,160.184L250,160.184Z" style="fill:rgb(67,221,147);"/>
                    </g>
                </g>
            </g>
            <g id="g-root-cp_3_shape-3_m7yjgt51y0av-fill" transform="matrix(1,0,0,1,284.303,68)">
                <g id="cp_3_shape-3_m7yjgt51y0av-fill">
                    <g>
                        <path d="M27.697,292L15.697,292L15.697,160L27.697,160L27.697,292ZM32.297,28.191L27.697,28.191L27.697,160L15.697,160L15.697,28.191L11.017,28.191C10.237,28.191 9.747,27.341 10.137,26.661L20.86,10.448C21.256,9.849 22.136,9.851 22.53,10.451L33.177,26.661C33.577,27.341 33.087,28.191 32.297,28.191Z" style="fill:rgb(26,195,251);"/>
                    </g>
                </g>
            </g>
            <g id="g-root-cp_3_shape-3_1_hs51cd51y135-fill" transform="matrix(1,0,0,1,32,350)">
                <g id="cp_3_shape-3_1_hs51cd51y135-fill">
                    <g>
                        <path d="M214,64.321C244,64.321 268,46 268,10L280,10L280,100.306L10,100.306C10,80.423 26.118,64.321 46,64.321L214,64.321Z" style="fill:rgb(26,195,251);"/>
                    </g>
                </g>
            </g>
            <g id="g-root-cp_5_shape-5_1_1ums1sd51y03v-fill" transform="matrix(1,0,0,1,320,350)">
                <g id="cp_5_shape-5_1_1ums1sd51y03v-fill">
                    <g>
                        <rect x="10" y="10" width="12" height="198" style="fill:rgb(247,148,56);"/>
                    </g>
                </g>
            </g>
            <g id="g-root-cp_3_shape-3_2_1cw4idp51xzb9-fill" transform="matrix(1,0,0,1,32,440)">
                <g id="cp_3_shape-3_2_1cw4idp51xzb9-fill">
                    <g>
                        <path d="M280,10L280,117.982L10,117.982L10,10L280,10ZM244,154.008L46,154.008C26.118,154.008 10,137.906 10,118.023L10,118.008L280,118.008C280,137.89 263.882,154.008 244,154.008Z" style="fill:rgb(26,195,251);"/>
                    </g>
                </g>
            </g>
            <g id="g-root-cp_5_shape-5_2_zko00d51y0w7-fill" transform="matrix(1,0,0,1,32,548)">
                <g id="cp_5_shape-5_2_zko00d51y0w7-fill">
                    <g>
                        <path d="M244,64.137C274,64.137 298,45.878 298,10L310,10L310,100L10,100C10,80.185 26.118,64.137 46,64.137L244,64.137Z" style="fill:rgb(247,148,56);"/>
                    </g>
                </g>
            </g>
            <g id="g-root-cp_5_shape-5_3_zko00d51y0w9-fill" transform="matrix(1,0,0,1,32,638)">
                <g id="cp_5_shape-5_3_zko00d51y0w9-fill">
                    <g>
                        <path d="M310,10L310,142L10,142L10,10L310,10ZM274,178.008L46,178.008C26.118,178.008 10,161.882 10,142L310,142C310,161.882 293.882,178.008 274,178.008Z" style="fill:rgb(247,148,56);"/>
                    </g>
                </g>
            </g>
            <g id="g-root-cp_2_shape-2_m9tyq551xzbf-fill" transform="matrix(1,0,0,1,404.378,67.8164)">
                <g id="cp_2_shape-2_m9tyq551xzbf-fill">
                    <g>
                        <path d="M51.622,352.184L219.622,352.184C239.504,352.184 255.622,336.081 255.622,316.199L255.622,316.184L15.622,316.184C15.622,336.066 31.74,352.184 51.622,352.184ZM11.022,28.375L15.622,28.375L15.622,160.184L255.622,160.184C255.622,140.302 239.505,124.505 219.623,124.505L93.622,124.505C52.552,124.505 27.622,94.374 27.622,55.034L27.622,28.374L32.302,28.374C33.082,28.374 33.572,27.524 33.182,26.844L22.459,10.632C22.063,10.033 21.184,10.034 20.79,10.635L10.142,26.844C9.742,27.525 10.232,28.375 11.022,28.375ZM15.622,160.184L15.622,316.184L255.622,316.184L255.622,160.184L15.622,160.184Z" style="fill:rgb(166,218,55);"/>
                    </g>
                </g>
            </g>
            <g id="g-root-cp_4_shape-4_hu0glp51y03p-fill" transform="matrix(1,0,0,1,374.383,68)">
                <g id="cp_4_shape-4_hu0glp51y03p-fill">
                    <g>
                        <path d="M15.623,316L27.623,316L27.623,160L15.623,160L15.623,316ZM11.022,28.191L15.622,28.191L15.622,160L27.622,160L27.622,28.191L32.302,28.191C33.082,28.191 33.572,27.341 33.182,26.661L22.459,10.448C22.063,9.849 21.184,9.851 20.79,10.451L10.142,26.661C9.742,27.341 10.232,28.191 11.022,28.191Z" style="fill:rgb(135,105,253);"/>
                    </g>
                </g>
            </g>
            <g id="g-root-cp_6_shape-6_8ydgct51y0wf-fill" transform="matrix(1,0,0,1,344.383,68)">
                <g id="cp_6_shape-6_8ydgct51y0wf-fill">
                    <g>
                        <path d="M15.623,316L27.623,316L27.623,160L15.623,160L15.623,316ZM11.022,28.191L15.622,28.191L15.622,160L27.622,160L27.622,28.191L32.302,28.191C33.082,28.191 33.572,27.341 33.182,26.661L22.459,10.448C22.063,9.849 21.184,9.851 20.79,10.451L10.142,26.661C9.742,27.341 10.232,28.191 11.022,28.191Z" style="fill:rgb(251,103,98);"/>
                    </g>
                </g>
            </g>
            <g id="g-root-cp_4_shape-4_1_4j6fbh51xyix-fill" transform="matrix(1,0,0,1,380,374)">
                <g id="cp_4_shape-4_1_4j6fbh51xyix-fill">
                    <g>
                        <path d="M76,64.321C46,64.321 22,46 22,10L10,10L10,100.306L280,100.306C280,80.423 263.882,64.321 244,64.321L76,64.321Z" style="fill:rgb(135,105,253);"/>
                    </g>
                </g>
            </g>
            <g id="g-root-cp_4_shape-4_2_1q8tyx951xzwr-fill" transform="matrix(1,0,0,1,380,464)">
                <g id="cp_4_shape-4_2_1q8tyx951xzwr-fill">
                    <g>
                        <path d="M10,10L10,142L280,142L280,10L10,10ZM46,178L244,178C263.882,178 280,161.898 280,142.016L280,142L10,142C10,161.882 26.118,178 46,178Z" style="fill:rgb(135,105,253);"/>
                    </g>
                </g>
            </g>
            <g id="g-root-cp_6_shape-6_1_1lt0gst51y0p1-fill" transform="matrix(1,0,0,1,350,374)">
                <g id="cp_6_shape-6_1_1lt0gst51y0p1-fill">
                    <g>
                        <rect x="10" y="10" width="12" height="222" style="fill:rgb(251,103,98);"/>
                    </g>
                </g>
            </g>
            <g id="g-root-cp_6_shape-6_2_1cxzxn151xybz-fill" transform="matrix(1,0,0,1,350,596)">
                <g id="cp_6_shape-6_2_1cxzxn151xybz-fill">
                    <g>
                        <path d="M76,64.321C46,64.321 22,46 22,10L10,10L10,100.306L310,100.306C310,80.423 293.882,64.321 274,64.321L76,64.321Z" style="fill:rgb(251,103,98);"/>
                    </g>
                </g>
            </g>
            <g id="g-root-cp_6_shape-6_3_142cxe551xzwh-fill" transform="matrix(1,0,0,1,350,686)">
                <g id="cp_6_shape-6_3_142cxe551xzwh-fill">
                    <g>
                        <path d="M10,10L10,118L310,118L310,10L10,10ZM46,154L274,154C293.882,154 310,137.898 310,118.016L310,118L10,118C10,137.882 26.118,154 46,154Z" style="fill:rgb(251,103,98);"/>
                    </g>
                </g>
            </g>
            <g id="g-root-tx_efficien_1lu9ez1523kem-fill" transform="matrix(1,0,0,1,440,326)">
                <g id="tx_efficien_1lu9ez1523kem-fill">
                    <g>
                        <g>
                            <g transform="matrix(1,0,0,1,23.83,31.2)">
                                <g transform="matrix(15,0,0,15,10.0049,0)">
                                </g>
                                <g transform="matrix(15,0,0,15,14.0389,0)">
                                </g>
                                <g transform="matrix(15,0,0,15,18.073,0)">
                                </g>
                                <text x="0px" y="0px" style="font-family:'ArialMT', 'Arial', sans-serif;font-size:15px;fill:rgb(44,44,44);">Eﬃcient call routing to</text>
                            </g>
                            <g transform="matrix(1,0,0,1,13.79,49.2)">
                                <text x="0px" y="0px" style="font-family:'ArialMT', 'Arial', sans-serif;font-size:15px;fill:rgb(44,44,44);">minimize communication</text>
                            </g>
                            <g transform="matrix(1,0,0,1,77.83,67.2)">
                                <text x="0px" y="0px" style="font-family:'ArialMT', 'Arial', sans-serif;font-size:15px;fill:rgb(44,44,44);">costs.</text>
                            </g>
                        </g>
                    </g>
                </g>
            </g>
            <g id="g-root-tx_tailored_mcyc5p51y0i5-fill" transform="matrix(1,0,0,1,68,302)">
                <g id="tx_tailored_mcyc5p51y0i5-fill">
                    <g>
                        <g>
                            <g transform="matrix(1,0,0,1,16.09,31.2)">
                                <text x="0px" y="0px" style="font-family:'ArialMT', 'Arial', sans-serif;font-size:15px;fill:rgb(44,44,44);">T<tspan x="7.5px 15.842px " y="0px 0px ">ai</tspan>lored V<tspan x="65.874px 74.216px 78.384px 88.118px 92.285px " y="0px 0px 0px 0px 0px ">oIP s</tspan>etup for</text>
                            </g>
                            <g transform="matrix(1,0,0,1,34.47,49.2)">
                                <g transform="matrix(15,0,0,15,35.0171,0)">
                                </g>
                                <g transform="matrix(15,0,0,15,39.1846,0)">
                                </g>
                                <text x="0px" y="0px" style="font-family:'ArialMT', 'Arial', sans-serif;font-size:15px;fill:rgb(44,44,44);">speciﬁc business</text>
                            </g>
                            <g transform="matrix(1,0,0,1,46.03,67.2)">
                                <text x="0px" y="0px" style="font-family:'ArialMT', 'Arial', sans-serif;font-size:15px;fill:rgb(44,44,44);">requirements.</text>
                            </g>
                        </g>
                    </g>
                </g>
            </g>
            <g transform="matrix(1,0,0,1,100.35,522)">
                <g id="g-root-tx_smartsca_qvw7pp51ze9z-fill">
                    <g id="tx_smartsca_qvw7pp51ze9z-fill">
                        <g>
                            <g>
                                <text x="0px" y="0px" style="font-family:'Arial-BoldMT', 'Arial', sans-serif;font-weight:700;font-size:20px;fill:rgb(44,44,44);">Smart Scalability</text>
                            </g>
                        </g>
                    </g>
                </g>
            </g>
            <g id="g-root-tx_scalable_18efkzx520snc-fill" transform="matrix(1,0,0,1,71,524)">
                <g id="tx_scalable_18efkzx520snc-fill">
                    <g>
                        <g>
                            <g transform="matrix(1,0,0,1,17.2,28.2)">
                                <text x="0px" y="0px" style="font-family:'ArialMT', 'Arial', sans-serif;font-size:15px;fill:rgb(44,44,44);">Scalable V<tspan x="70.884px 79.226px 83.394px 93.127px 97.295px " y="0px 0px 0px 0px 0px ">oIP s</tspan>olutions to</text>
                            </g>
                            <g transform="matrix(1,0,0,1,17.8,46.2)">
                                <text x="0px" y="0px" style="font-family:'ArialMT', 'Arial', sans-serif;font-size:15px;fill:rgb(44,44,44);">adapt to business growth.</text>
                            </g>
                        </g>
                    </g>
                </g>
            </g>
            <g id="g-root-tx_crmtooli_zqa9sd5251c8-fill" transform="matrix(1,0,0,1,455,512)">
                <g id="tx_crmtooli_zqa9sd5251c8-fill">
                    <g>
                        <g>
                            <g transform="matrix(1,0,0,1,14.98,34)">
                                <text x="0px" y="0px" style="font-family:'Arial-BoldMT', 'Arial', sans-serif;font-weight:700;font-size:20px;fill:rgb(44,44,44);">CRM &amp; T<tspan x="81.836px 94.053px " y="0px 0px ">oo</tspan>l</text>
                            </g>
                            <g transform="matrix(1,0,0,1,18.35,58)">
                                <text x="0px" y="0px" style="font-family:'Arial-BoldMT', 'Arial', sans-serif;font-weight:700;font-size:20px;fill:rgb(44,44,44);">Integration</text>
                            </g>
                        </g>
                    </g>
                </g>
            </g>
            <g id="g-root-tx_securean_1q7l0r1527sp8-fill" transform="matrix(1,0,0,1,404,770)">
                <g id="tx_securean_1q7l0r1527sp8-fill">
                    <g>
                        <g>
                            <g transform="matrix(1,0,0,1,16,28.2)">
                                <text x="0px" y="0px" style="font-family:'ArialMT', 'Arial', sans-serif;font-size:15px;fill:rgb(44,44,44);">Secure and compliant V<tspan x="158.43px 166.772px " y="0px 0px ">oI</tspan>P</text>
                            </g>
                            <g transform="matrix(1,0,0,1,12.42,46.2)">
                                <text x="0px" y="0px" style="font-family:'ArialMT', 'Arial', sans-serif;font-size:15px;fill:rgb(44,44,44);">services for data protection.</text>
                            </g>
                        </g>
                    </g>
                </g>
            </g>
            <g id="g-root-tx_seamless_1hit8gd525155-fill" transform="matrix(1,0,0,1,407,572)">
                <g id="tx_seamless_1hit8gd525155-fill">
                    <g>
                        <g>
                            <g transform="matrix(1,0,0,1,31.84,28.2)">
                                <text x="0px" y="0px" style="font-family:'ArialMT', 'Arial', sans-serif;font-size:15px;fill:rgb(44,44,44);">Seamless integration with</text>
                            </g>
                            <g transform="matrix(1,0,0,1,16.16,46.2)">
                                <text x="0px" y="0px" style="font-family:'ArialMT', 'Arial', sans-serif;font-size:15px;fill:rgb(44,44,44);">CRM and other business tools.</text>
                            </g>
                        </g>
                    </g>
                </g>
            </g>
            <g id="g-root-tx_costeffe_141qgb1523klp-fill" transform="matrix(1,0,0,1,440,266)">
                <g id="tx_costeffe_141qgb1523klp-fill">
                    <g>
                        <g>
                            <g transform="matrix(1,0,0,1,14.03,34)">
                                <g transform="matrix(20,0,0,20,64.4434,0)">
                                </g>
                                <g transform="matrix(20,0,0,20,70.8594,0)">
                                </g>
                                <text x="0px" y="0px" style="font-family:'Arial-BoldMT', 'Arial', sans-serif;font-weight:700;font-size:20px;fill:rgb(44,44,44);">Cost-Eﬀective Call</text>
                            </g>
                            <g transform="matrix(1,0,0,1,62.95,58)">
                                <text x="0px" y="0px" style="font-family:'Arial-BoldMT', 'Arial', sans-serif;font-weight:700;font-size:20px;fill:rgb(44,44,44);">Routing</text>
                            </g>
                        </g>
                    </g>
                </g>
            </g>
            <g transform="matrix(1,0,0,1,74.72,300)">
                <g id="g-root-tx_customvo_1cz8vt951y0i4-fill">
                    <g id="tx_customvo_1cz8vt951y0i4-fill">
                        <g>
                            <g>
                                <text x="0px" y="0px" style="font-family:'Arial-BoldMT', 'Arial', sans-serif;font-weight:700;font-size:20px;fill:rgb(44,44,44);">Custom V<tspan x="91.855px 104.072px 109.629px 122.607px 128.164px " y="0px 0px 0px 0px 0px ">oIP S</tspan>etup</text>
                            </g>
                        </g>
                    </g>
                </g>
            </g>
            <g id="g-root-tx_liveperf_1cvi1al5227ey-fill" transform="matrix(1,0,0,1,98,686)">
                <g id="tx_liveperf_1cvi1al5227ey-fill">
                    <g>
                        <g>
                            <g transform="matrix(1,0,0,1,11.94,34)">
                                <text x="0px" y="0px" style="font-family:'Arial-BoldMT', 'Arial', sans-serif;font-weight:700;font-size:20px;fill:rgb(44,44,44);">Live Performance</text>
                            </g>
                            <g transform="matrix(1,0,0,1,52.27,58)">
                                <text x="0px" y="0px" style="font-family:'Arial-BoldMT', 'Arial', sans-serif;font-weight:700;font-size:20px;fill:rgb(44,44,44);">T<tspan x="11.113px 18.896px " y="0px 0px ">ra</tspan>cking</text>
                            </g>
                        </g>
                    </g>
                </g>
            </g>
            <g id="g-root-tx_realtime_1uo0zyl52277v-fill" transform="matrix(1,0,0,1,80,746)">
                <g id="tx_realtime_1uo0zyl52277v-fill">
                    <g>
                        <g>
                            <g transform="matrix(1,0,0,1,14.43,28.2)">
                                <text x="0px" y="0px" style="font-family:'ArialMT', 'Arial', sans-serif;font-size:15px;fill:rgb(44,44,44);">Real-time monitoring of V<tspan x="168.406px 176.748px " y="0px 0px ">oI</tspan>P</text>
                            </g>
                            <g transform="matrix(1,0,0,1,39.09,46.2)">
                                <text x="0px" y="0px" style="font-family:'ArialMT', 'Arial', sans-serif;font-size:15px;fill:rgb(44,44,44);">system performance.</text>
                            </g>
                        </g>
                    </g>
                </g>
            </g>
            <g transform="matrix(1,0,0,1,421.02,768)">
                <g id="g-root-tx_secureco_qoeiod527s3n-fill">
                    <g id="tx_secureco_qoeiod527s3n-fill">
                        <g>
                            <g>
                                <text x="0px" y="0px" style="font-family:'Arial-BoldMT', 'Arial', sans-serif;font-weight:700;font-size:20px;fill:rgb(44,44,44);">Secure &amp; Compliant</text>
                            </g>
                        </g>
                    </g>
                </g>
            </g>
            <g id="g-root-cp_5_shape-5_13ym2vh51y13f-stroke" transform="matrix(1,0,0,1,314.303,68)">
                <g id="cp_5_shape-5_13ym2vh51y13f-stroke">
                    <g>
                        <path d="M15.697,160L15.697,292M27.697,292L27.697,160M15.697,160L15.697,28.191L11.017,28.191C10.237,28.191 9.747,27.341 10.137,26.661L20.86,10.448C21.256,9.849 22.136,9.851 22.53,10.451L33.177,26.661C33.577,27.341 33.087,28.191 32.297,28.191L27.697,28.191L27.697,160" style="fill:none;stroke:rgb(44,44,44);stroke-width:2px;"/>
                    </g>
                </g>
            </g>
            <g id="g-root-cp_1_shape-1_qns1l951xzil-stroke" transform="matrix(1,0,0,1,32,67.8164)">
                <g id="cp_1_shape-1_qns1l951xzil-stroke">
                    <g>
                        <path d="M10,160.184C10,140.301 26.118,124.321 46,124.321L172,124.321C213.07,124.321 238,94.191 238,54.851L238,28.191L233.32,28.191C232.54,28.191 232.05,27.341 232.44,26.661L243.163,10.448C243.559,9.849 244.439,9.851 244.833,10.451L255.48,26.661C255.88,27.341 255.39,28.191 254.6,28.191L250,28.191L250,160.184M250,292.184C250,312.066 233.882,328.191 214,328.191L46,328.191C26.118,328.191 10,312.081 10,292.199L10,292.184M250,292.184L250,160.184M10,160.184L10,292.184" style="fill:none;stroke:rgb(44,44,44);stroke-width:2px;"/>
                    </g>
                </g>
            </g>
            <g id="g-root-cp_3_shape-3_m7yjgt51y0av-stroke" transform="matrix(1,0,0,1,284.303,68)">
                <g id="cp_3_shape-3_m7yjgt51y0av-stroke">
                    <g>
                        <path d="M15.697,160L15.697,292M27.697,292L27.697,160M15.697,160L15.697,28.191L11.017,28.191C10.237,28.191 9.747,27.341 10.137,26.661L20.86,10.448C21.256,9.849 22.136,9.851 22.53,10.451L33.177,26.661C33.577,27.341 33.087,28.191 32.297,28.191L27.697,28.191L27.697,160" style="fill:none;stroke:rgb(44,44,44);stroke-width:2px;"/>
                    </g>
                </g>
            </g>
            <g id="g-root-cp_3_shape-3_1_hs51cd51y135-stroke" transform="matrix(1,0,0,1,32,350)">
                <g id="cp_3_shape-3_1_hs51cd51y135-stroke">
                    <g>
                        <path d="M268,10C268,46 244,64.321 214,64.321L46,64.321C26.118,64.321 10,80.423 10,100.306M280,100.306L280,10" style="fill:none;stroke:rgb(44,44,44);stroke-width:2px;"/>
                    </g>
                </g>
            </g>
            <g id="g-root-cp_5_shape-5_1_1ums1sd51y03v-stroke" transform="matrix(1,0,0,1,320,350)">
                <g id="cp_5_shape-5_1_1ums1sd51y03v-stroke">
                    <g>
                        <path d="M10,10L10,208M22,208L22,10" style="fill:none;stroke:rgb(44,44,44);stroke-width:2px;"/>
                    </g>
                </g>
            </g>
            <g id="g-root-cp_3_shape-3_2_1cw4idp51xzb9-stroke" transform="matrix(1,0,0,1,32,440)">
                <g id="cp_3_shape-3_2_1cw4idp51xzb9-stroke">
                    <g>
                        <path d="M280,117.982L280,10M10,10L10,118M280,118.008C280,137.89 263.882,154.008 244,154.008L46,154.008C26.118,154.008 10,137.906 10,118.023L10,118.008" style="fill:none;stroke:rgb(44,44,44);stroke-width:2px;"/>
                    </g>
                </g>
            </g>
            <g id="g-root-cp_5_shape-5_2_zko00d51y0w7-stroke" transform="matrix(1,0,0,1,32,548)">
                <g id="cp_5_shape-5_2_zko00d51y0w7-stroke">
                    <g>
                        <path d="M298,10C298,45.878 274,64.137 244,64.137L46,64.137C26.118,64.137 10,80.185 10,100M310,100L310,10" style="fill:none;stroke:rgb(44,44,44);stroke-width:2px;"/>
                    </g>
                </g>
            </g>
            <g id="g-root-cp_5_shape-5_3_zko00d51y0w9-stroke" transform="matrix(1,0,0,1,32,638)">
                <g id="cp_5_shape-5_3_zko00d51y0w9-stroke">
                    <g>
                        <path d="M310,142L310,10M10,10L10,142M310,142C310,161.882 293.882,178.008 274,178.008L46,178.008C26.118,178.008 10,161.882 10,142" style="fill:none;stroke:rgb(44,44,44);stroke-width:2px;"/>
                    </g>
                </g>
            </g>
            <g id="g-root-cp_2_shape-2_m9tyq551xzbf-stroke" transform="matrix(1,0,0,1,404.378,67.8164)">
                <g id="cp_2_shape-2_m9tyq551xzbf-stroke">
                    <g>
                        <path d="M255.622,160.184C255.622,140.301 239.505,124.321 219.623,124.321L93.622,124.321C52.552,124.321 27.622,94.191 27.622,54.851L27.622,28.191L32.302,28.191C33.082,28.191 33.572,27.341 33.182,26.661L22.459,10.448C22.063,9.849 21.184,9.851 20.79,10.451L10.142,26.661C9.742,27.341 10.232,28.191 11.022,28.191L15.622,28.191L15.622,160.184M15.622,316.184C15.622,336.066 31.74,352.184 51.622,352.184L219.623,352.183C239.505,352.183 255.622,336.081 255.622,316.199L255.622,316.184M15.622,316.184L15.622,160.184M255.622,160.184L255.622,316.184" style="fill:none;stroke:rgb(44,44,44);stroke-width:2px;"/>
                    </g>
                </g>
            </g>
            <g id="g-root-cp_4_shape-4_hu0glp51y03p-stroke" transform="matrix(1,0,0,1,374.383,68)">
                <g id="cp_4_shape-4_hu0glp51y03p-stroke">
                    <g>
                        <path d="M27.622,160L27.622,316M15.622,316L15.622,160M27.622,160L27.622,28.191L32.302,28.191C33.082,28.191 33.572,27.341 33.182,26.661L22.459,10.448C22.063,9.849 21.184,9.851 20.79,10.451L10.142,26.661C9.742,27.341 10.232,28.191 11.022,28.191L15.622,28.191L15.622,160" style="fill:none;stroke:rgb(44,44,44);stroke-width:2px;"/>
                    </g>
                </g>
            </g>
            <g id="g-root-cp_6_shape-6_8ydgct51y0wf-stroke" transform="matrix(1,0,0,1,344.383,68)">
                <g id="cp_6_shape-6_8ydgct51y0wf-stroke">
                    <g>
                        <path d="M27.622,160L27.622,316M15.622,316L15.622,160M27.622,160L27.622,28.191L32.302,28.191C33.082,28.191 33.572,27.341 33.182,26.661L22.459,10.448C22.063,9.849 21.184,9.851 20.79,10.451L10.142,26.661C9.742,27.341 10.232,28.191 11.022,28.191L15.622,28.191L15.622,160" style="fill:none;stroke:rgb(44,44,44);stroke-width:2px;"/>
                    </g>
                </g>
            </g>
            <g id="g-root-cp_4_shape-4_1_4j6fbh51xyix-stroke" transform="matrix(1,0,0,1,380,374)">
                <g id="cp_4_shape-4_1_4j6fbh51xyix-stroke">
                    <g>
                        <path d="M22,10C22,46 46,64.321 76,64.321L244,64.321C263.882,64.321 280,80.423 280,100.306M10,100.306L10,10" style="fill:none;stroke:rgb(44,44,44);stroke-width:2px;"/>
                    </g>
                </g>
            </g>
            <g id="g-root-cp_4_shape-4_2_1q8tyx951xzwr-stroke" transform="matrix(1,0,0,1,380,464)">
                <g id="cp_4_shape-4_2_1q8tyx951xzwr-stroke">
                    <g>
                        <path d="M10,142L10,10M280,10L280,142M10,142C10,161.882 26.118,178.008 46,178.008L244,178.008C263.882,178.008 280,161.898 280,142.016L280,142" style="fill:none;stroke:rgb(44,44,44);stroke-width:2px;"/>
                    </g>
                </g>
            </g>
            <g id="g-root-cp_6_shape-6_1_1lt0gst51y0p1-stroke" transform="matrix(1,0,0,1,350,374)">
                <g id="cp_6_shape-6_1_1lt0gst51y0p1-stroke">
                    <g>
                        <path d="M22,10L22,232M10,232L10,10" style="fill:none;stroke:rgb(44,44,44);stroke-width:2px;"/>
                    </g>
                </g>
            </g>
            <g id="g-root-cp_6_shape-6_2_1cxzxn151xybz-stroke" transform="matrix(1,0,0,1,350,596)">
                <g id="cp_6_shape-6_2_1cxzxn151xybz-stroke">
                    <g>
                        <path d="M22,10C22,46 46,64.321 76,64.321L274,64.321C293.882,64.321 310,80.423 310,100.306M10,100.306L10,10" style="fill:none;stroke:rgb(44,44,44);stroke-width:2px;"/>
                    </g>
                </g>
            </g>
            <g id="g-root-cp_6_shape-6_3_142cxe551xzwh-stroke" transform="matrix(1,0,0,1,350,686)">
                <g id="cp_6_shape-6_3_142cxe551xzwh-stroke">
                    <g>
                        <path d="M10,118L10,10M310,10L310,118M10,118C10,137.882 26.118,154.008 46,154.008L274,154.008C293.882,154.008 310,137.898 310,118.016L310,118" style="fill:none;stroke:rgb(44,44,44);stroke-width:2px;"/>
                    </g>
                </g>
            </g>
            <g id="g-root-ic_clou_dcbj7x520tfl-stroke" transform="matrix(1,0,0,1,143,428)">
                <g id="ic_clou_dcbj7x520tfl-stroke">
                    <g>
                        <path d="M33,36.956L33,56.994M46.722,21.33C45.624,16.129 41.471,12.12 36.234,11.207C30.997,10.295 25.732,12.663 22.94,17.186C18.428,16.288 13.885,18.584 11.933,22.75C9.98,26.916 11.122,31.876 14.7,34.769C18.277,37.662 23.367,37.741 27.032,34.96C31.903,38.072 38.246,37.577 42.576,33.748C44.989,37.016 49.468,37.956 52.992,35.935C56.516,33.913 57.965,29.572 56.362,25.839C54.76,22.107 50.614,20.168 46.722,21.33ZM33,49.994L37.878,45.116M37,42.994C37,44.651 38.343,45.994 40,45.994C41.657,45.994 43,44.651 43,42.994C43,41.337 41.657,39.994 40,39.994C38.343,39.994 37,41.337 37,42.994Z" style="fill:none;stroke:rgb(44,44,44);stroke-width:2px;"/>
                    </g>
                </g>
            </g>
            <g id="g-root-ic_3_mgp6od5251xe-stroke" transform="matrix(1,0,0,1,491,452)">
                <g id="ic_3_mgp6od5251xe-stroke">
                    <g>
                        <path d="M29.436,43.516L15.646,43.516C13.08,43.516 11,41.436 11,38.87L11,27.258L16.8,27.258C16.8,25.334 18.36,23.774 20.284,23.774C22.208,23.774 23.768,25.334 23.768,27.258L29.568,27.258L29.568,36.986M11,27.258L11,15.646C11,13.08 13.08,11 15.646,11L29.58,11L29.58,15.646C30.844,15.616 32.026,16.273 32.667,17.363C33.308,18.453 33.308,19.805 32.667,20.895C32.026,21.985 30.844,22.642 29.58,22.612L29.58,27.258M41.548,27.258L29.58,27.258M29.58,11L42.354,11C44.92,11 47,13.08 47,15.646L47,27.258M33,45C33,51.627 38.373,57 45,57C51.627,57 57,51.627 57,45C57,38.373 51.627,33 45,33C38.373,33 33,38.373 33,45M48,50.2C46.144,51.272 43.856,51.272 42,50.2M45,33C46.657,33 48,34.343 48,36C48,37.657 46.657,39 45,39M50.25,42C50.664,42 51,42.336 51,42.75M49.5,42.75C49.5,42.336 49.836,42 50.25,42M50.25,43.5C49.836,43.5 49.5,43.164 49.5,42.75M51,42.75C51,43.164 50.664,43.5 50.25,43.5M39.75,42C40.164,42 40.5,42.336 40.5,42.75M39,42.75C39,42.336 39.336,42 39.75,42M39.75,43.5C39.336,43.5 39,43.164 39,42.75M40.5,42.75C40.5,43.164 40.164,43.5 39.75,43.5" style="fill:none;stroke:rgb(44,44,44);stroke-width:2px;"/>
                    </g>
                </g>
            </g>
            <g id="g-root-ic_wave_zlwy6l522804-stroke" transform="matrix(1,0,0,1,158,626)">
                <g id="ic_wave_zlwy6l522804-stroke">
                    <g>
                        <path d="M15,12L53,12C53,12 57,12 57,16L57,52C57,52 57,56 53,56L15,56C15,56 11,56 11,52L11,16C11,16 11,12 15,12M11,22L57,22M18,16.5C18.276,16.5 18.5,16.724 18.5,17C18.5,17.276 18.276,17.5 18,17.5C17.724,17.5 17.5,17.276 17.5,17C17.5,16.724 17.724,16.5 18,16.5M24,16.5C24.276,16.5 24.5,16.724 24.5,17C24.5,17.276 24.276,17.5 24,17.5C23.724,17.5 23.5,17.276 23.5,17C23.5,16.724 23.724,16.5 24,16.5M30,16.5C30.276,16.5 30.5,16.724 30.5,17C30.5,17.276 30.276,17.5 30,17.5C29.724,17.5 29.5,17.276 29.5,17C29.5,16.724 29.724,16.5 30,16.5M11,39L57,39M22,22L22,56M22,36L24.93,30.142C25.875,28.25 27.817,27.063 29.932,27.083C32.047,27.103 33.965,28.328 34.874,30.238L35.66,31.886C36.529,33.711 38.323,34.917 40.341,35.033C42.359,35.148 44.279,34.154 45.35,32.44C46.357,30.829 48.12,29.846 50.02,29.839C51.919,29.831 53.69,30.799 54.71,32.402L57,36M22,48.186L25.282,44.904C25.943,44.243 26.869,43.917 27.799,44.019C28.728,44.121 29.562,44.639 30.064,45.428L32.522,49.29C33.075,50.159 34.025,50.695 35.055,50.718C36.084,50.741 37.057,50.248 37.648,49.404L39.33,47.004C39.922,46.156 40.901,45.662 41.935,45.689C42.969,45.716 43.921,46.26 44.468,47.138L44.556,47.278C45.102,48.151 46.047,48.694 47.076,48.725C48.105,48.757 49.082,48.273 49.68,47.436C50.235,46.659 51.119,46.184 52.073,46.148C53.027,46.113 53.944,46.521 54.556,47.254L57,50.186" style="fill:none;stroke:rgb(44,44,44);stroke-width:2px;"/>
                    </g>
                </g>
            </g>
            <g id="g-root-ic_sign_5utjh523l6v-stroke" transform="matrix(1,0,0,1,506,206)">
                <g id="ic_sign_5utjh523l6v-stroke">
                    <g>
                        <path d="M24,33L20,57M28,11L26,21M44,33L48,57M40,11L42,21M34,49L34,57M34,35L34,41M34,11L34,13M18.86,29.836C18.94,29.354 19.357,29 19.846,29L48.152,29C48.641,29 49.058,29.354 49.138,29.836L50.862,40.164C50.942,40.646 51.359,41 51.848,41L56,41C56.552,41 57,40.552 57,40L57,22C57,21.448 56.552,21 56,21L12,21C11.448,21 11,21.448 11,22L11,40C11,40.552 11.448,41 12,41L16.154,41C16.643,41 17.06,40.646 17.14,40.164L18.86,29.836Z" style="fill:none;stroke:rgb(44,44,44);stroke-width:2px;"/>
                    </g>
                </g>
            </g>
            <g id="g-root-ic_1_1hgxt7151xyq6-stroke" transform="matrix(1,0,0,1,128,206)">
                <g id="ic_1_1hgxt7151xyq6-stroke">
                    <g>
                        <path d="M42.42,13.14L51,16L46,30L48,56C48.017,56.263 47.923,56.521 47.74,56.711C47.557,56.901 47.304,57.006 47.04,57L39.04,57C38.418,56.964 37.836,56.684 37.42,56.22L34,52L30.62,56.22C30.201,56.68 29.621,56.96 29,57L21,57C20.731,57.011 20.47,56.91 20.28,56.72C20.09,56.53 19.989,56.269 20,56L22,30L17,16L25.58,13.14M34,40L34,52M38,11C37.34,19 37,30 34,40C31,30 30.66,19 30,11M38,11C40.74,11 43.14,13.4 44.6,16.18C44.842,16.631 44.704,17.193 44.28,17.48L42,19L43.66,21.5C43.838,21.817 43.838,22.203 43.66,22.52C40.96,27.84 39.8,37.1 34,40C28.18,37.1 27.04,27.84 24.28,22.52C24.089,22.207 24.089,21.813 24.28,21.5L26,19L23.72,17.48C23.296,17.193 23.158,16.631 23.4,16.18C24.84,13.4 27.26,11 30,11L38,11ZM25,47L28,47M40,47L43,47M17,16C14.22,28 11.74,47 11.02,51.16C10.932,51.639 11.202,52.113 11.66,52.28L16,53.8C16.26,53.92 16.56,53.92 16.82,53.8C17.077,53.656 17.259,53.408 17.32,53.12L22,30M51,16C53.78,28 56.26,47 57,51.16C57.088,51.639 56.818,52.113 56.36,52.28L52,53.8C51.74,53.92 51.44,53.92 51.18,53.8C50.923,53.656 50.741,53.408 50.68,53.12L46,30" style="fill:none;stroke:rgb(44,44,44);stroke-width:2px;"/>
                    </g>
                </g>
            </g>
            <g id="g-root-ic_lock_m9tyq5527ua5-stroke" transform="matrix(1,0,0,1,476,674)">
                <g id="ic_lock_m9tyq5527ua5-stroke">
                    <g>
                        <path d="M35.526,45.496L15.378,45.496C13.07,45.494 11.2,43.622 11.2,41.314L11.2,15.182C11.2,12.874 13.07,11.002 15.378,11L46.738,11C49.047,11.001 50.918,12.873 50.918,15.182L50.918,27.854M11.196,19.166L50.918,19.166M11.196,36.516L35.526,36.516M11.196,27.854L50.918,27.854M27.42,19.166L27.42,45.496M39.052,19.166L39.052,33.206M39.672,45.104C39.672,43.462 41.004,42.13 42.646,42.13L53.83,42.13C55.471,42.132 56.8,43.463 56.8,45.104L56.8,54.026C56.8,55.667 55.471,56.998 53.83,57L42.646,57C41.004,57 39.672,55.668 39.672,54.026L39.672,45.104ZM48.238,33.2C45.019,33.267 42.463,35.929 42.528,39.148L42.528,42.124L53.948,42.124L53.948,39.154C54.016,35.933 51.459,33.267 48.238,33.2L48.238,33.2ZM48.238,47.482C47.359,47.446 46.547,47.948 46.186,48.749C45.825,49.551 45.987,50.492 46.596,51.126C47.205,51.76 48.138,51.961 48.954,51.633C49.77,51.304 50.304,50.513 50.304,49.634C50.327,48.469 49.403,47.506 48.238,47.482" style="fill:none;stroke:rgb(44,44,44);stroke-width:2px;"/>
                    </g>
                </g>
            </g>
        </g>
    </g>
</svg>
