<?xml version="1.0" encoding="UTF-8" standalone="no"?>
<!DOCTYPE svg PUBLIC "-//W3C//DTD SVG 1.1//EN" "http://www.w3.org/Graphics/SVG/1.1/DTD/svg11.dtd">
<svg width="100%" height="100%" viewBox="0 0 576 652" version="1.1" xmlns="http://www.w3.org/2000/svg" xmlns:xlink="http://www.w3.org/1999/xlink" xml:space="preserve" xmlns:serif="http://www.serif.com/" style="fill-rule:evenodd;clip-rule:evenodd;stroke-linecap:round;stroke-linejoin:round;">
    <g id="items" transform="matrix(1.09826,0,0,1.09826,-28.2975,-56.9789)">
        <g id="blend">
            <g id="g-root-cp_5_text-5_dju38r1g7twqx-fill" transform="matrix(1,0,0,1,50,98)">
                <g id="cp_5_text-5_dju38r1g7twqx-fill">
                    <g>
                        <rect x="10" y="10" width="228" height="120" style="fill:rgb(183,183,183);"/>
                    </g>
                </g>
            </g>
            <g id="g-root-cp_5_stick-5_1uto4q31g7tywz-fill" transform="matrix(1,0,0,1,266,218)">
                <g id="cp_5_stick-5_1uto4q31g7tywz-fill">
                    <g>
                        <rect x="10" y="10" width="12" height="300" style="fill:rgb(183,183,183);"/>
                    </g>
                </g>
            </g>
            <g id="g-root-cp_3_text-3_1lynlkb1g7twjx-fill" transform="matrix(1,0,0,1,38,218)">
                <g id="cp_3_text-3_1lynlkb1g7twjx-fill">
                    <g>
                        <rect x="10" y="10" width="228" height="144" style="fill:rgb(135,105,253);"/>
                    </g>
                </g>
            </g>
            <g id="g-root-cp_3_stick-3_18n736z1g7ty4v-fill" transform="matrix(1,0,0,1,254,362)">
                <g id="cp_3_stick-3_18n736z1g7ty4v-fill">
                    <g>
                        <rect x="10" y="10" width="12" height="156" style="fill:rgb(135,105,253);"/>
                    </g>
                </g>
            </g>
            <g id="g-root-cp_1_text-1_zs6k171g7twjl-fill" transform="matrix(1,0,0,1,26,362)">
                <g id="cp_1_text-1_zs6k171g7twjl-fill">
                    <g>
                        <rect x="10" y="10" width="228" height="120" style="fill:rgb(67,221,147);"/>
                    </g>
                </g>
            </g>
            <g id="g-root-cp_1_stick-1_mgq1nv1g7ty4j-fill" transform="matrix(1,0,0,1,242,446)">
                <g id="cp_1_stick-1_mgq1nv1g7ty4j-fill">
                    <g>
                        <rect x="10" y="10" width="12" height="72" style="fill:rgb(67,221,147);"/>
                    </g>
                </g>
            </g>
            <g id="g-root-cp_6_text-6_8vwezv1g7vb45-fill" transform="matrix(1,0,0,1,278,134)">
                <g id="cp_6_text-6_8vwezv1g7vb45-fill">
                    <g>
                        <rect x="10" y="10" width="228" height="96" style="fill:rgb(247,148,56);"/>
                    </g>
                </g>
            </g>
            <g id="g-root-cp_6_stick-6_18f2x2j1g7vbpr-fill" transform="matrix(1,0,0,1,278,230)">
                <g id="cp_6_stick-6_18f2x2j1g7vbpr-fill">
                    <g>
                        <rect x="10" y="10" width="12" height="288" style="fill:rgb(247,148,56);"/>
                    </g>
                </g>
            </g>
            <g id="g-root-cp_4_text-4_zjfwtn1g7vda9-fill" transform="matrix(1,0,0,1,290,230)">
                <g id="cp_4_text-4_zjfwtn1g7vda9-fill">
                    <g>
                        <rect x="10" y="10" width="228" height="120" style="fill:rgb(166,218,55);"/>
                    </g>
                </g>
            </g>
            <g id="g-root-cp_4_stick-4_m8lvjf1g7vbpf-fill" transform="matrix(1,0,0,1,290,350)">
                <g id="cp_4_stick-4_m8lvjf1g7vbpf-fill">
                    <g>
                        <rect x="10" y="10" width="12" height="168" style="fill:rgb(166,218,55);"/>
                    </g>
                </g>
            </g>
            <g id="g-root-cp_2_text-2_8x5d631g7vdad-fill" transform="matrix(1,0,0,1,302,350)">
                <g id="cp_2_text-2_8x5d631g7vdad-fill">
                    <g>
                        <rect x="10" y="10" width="228" height="120" style="fill:rgb(26,195,251);"/>
                    </g>
                </g>
            </g>
            <g id="g-root-cp_2_stick-2_1unfduz1g7vbif-fill" transform="matrix(1,0,0,1,302,434)">
                <g id="cp_2_stick-2_1unfduz1g7vbif-fill">
                    <g>
                        <rect x="10" y="10" width="12" height="84" style="fill:rgb(26,195,251);"/>
                    </g>
                </g>
            </g>
            <g id="g-root-cp_0_g-0_1cw5dd71g7vdvl-fill" transform="matrix(1,0,0,1,242,518)">
                <g id="cp_0_g-0_1cw5dd71g7vdvl-fill">
                    <g>
                        <path d="M33.994,61L46.01,86L58.005,61L33.994,61Z" style="fill:rgb(232,232,232);"/>
                    </g>
                </g>
                <g id="cp_0_g-0_1cw5dd71g7vdvl-fill1" serif:id="cp_0_g-0_1cw5dd71g7vdvl-fill">
                    <g>
                        <path d="M82,10L10,10L34,61L58.001,61L82,10Z" style="fill:rgb(232,232,232);"/>
                    </g>
                </g>
            </g>
            <g id="g-root-tx_ensuresu_18i7ai31g7vcwe-fill" transform="matrix(1,0,0,1,62,146)">
                <g id="tx_ensuresu_18i7ai31g7vcwe-fill">
                    <g>
                        <g>
                            <g transform="matrix(1,0,0,1,17.3,31.2)">
                                <text x="0px" y="0px" style="font-family:'ArialMT', 'Arial', sans-serif;font-size:15px;fill:rgb(44,44,44);">Ensures uninterrupted</text>
                            </g>
                            <g transform="matrix(1,0,0,1,64.02,49.2)">
                                <text x="0px" y="0px" style="font-family:'ArialMT', 'Arial', sans-serif;font-size:15px;fill:rgb(44,44,44);">service with no</text>
                            </g>
                            <g transform="matrix(1,0,0,1,93.83,67.2)">
                                <text x="0px" y="0px" style="font-family:'ArialMT', 'Arial', sans-serif;font-size:15px;fill:rgb(44,44,44);">downtime.</text>
                            </g>
                        </g>
                    </g>
                </g>
            </g>
            <g transform="matrix(1,0,0,1,362,276)">
                <g id="g-root-tx_scalabil_4g2wvf1g87yf4-fill">
                    <g id="tx_scalabil_4g2wvf1g87yf4-fill">
                        <g>
                            <g>
                                <text x="0px" y="0px" style="font-family:'Arial-BoldMT', 'Arial', sans-serif;font-weight:700;font-size:20px;fill:rgb(44,44,44);">Scalability</text>
                            </g>
                        </g>
                    </g>
                </g>
            </g>
            <g id="g-root-tx_enabless_1qf3krv1g80xkz-fill" transform="matrix(1,0,0,1,74,290)">
                <g id="tx_enabless_1qf3krv1g80xkz-fill">
                    <g>
                        <g>
                            <g transform="matrix(1,0,0,1,19.42,31.2)">
                                <text x="0px" y="0px" style="font-family:'ArialMT', 'Arial', sans-serif;font-size:15px;fill:rgb(44,44,44);">Enables seamless</text>
                            </g>
                            <g transform="matrix(1,0,0,1,35.7,49.2)">
                                <text x="0px" y="0px" style="font-family:'ArialMT', 'Arial', sans-serif;font-size:15px;fill:rgb(44,44,44);">communication</text>
                            </g>
                            <g transform="matrix(1,0,0,1,25.52,67.2)">
                                <text x="0px" y="0px" style="font-family:'ArialMT', 'Arial', sans-serif;font-size:15px;fill:rgb(44,44,44);">across the globe.</text>
                            </g>
                        </g>
                    </g>
                </g>
            </g>
            <g id="g-root-tx_adaptsto_1ha3g8b1g880ll-fill" transform="matrix(1,0,0,1,350,278)">
                <g id="tx_adaptsto_1ha3g8b1g880ll-fill">
                    <g>
                        <g>
                            <g transform="matrix(1,0,0,1,12,31.2)">
                                <text x="0px" y="0px" style="font-family:'ArialMT', 'Arial', sans-serif;font-size:15px;fill:rgb(44,44,44);">Adapts to any</text>
                            </g>
                            <g transform="matrix(1,0,0,1,12,49.2)">
                                <text x="0px" y="0px" style="font-family:'ArialMT', 'Arial', sans-serif;font-size:15px;fill:rgb(44,44,44);">business size and</text>
                            </g>
                            <g transform="matrix(1,0,0,1,12,67.2)">
                                <text x="0px" y="0px" style="font-family:'ArialMT', 'Arial', sans-serif;font-size:15px;fill:rgb(44,44,44);">needs.</text>
                            </g>
                        </g>
                    </g>
                </g>
            </g>
            <g transform="matrix(1,0,0,1,84.42,408)">
                <g id="g-root-tx_costsavi_1q9hazv1g83s3u-fill">
                    <g id="tx_costsavi_1q9hazv1g83s3u-fill">
                        <g>
                            <g>
                                <text x="0px" y="0px" style="font-family:'Arial-BoldMT', 'Arial', sans-serif;font-weight:700;font-size:20px;fill:rgb(44,44,44);">Cost Savings</text>
                            </g>
                        </g>
                    </g>
                </g>
            </g>
            <g transform="matrix(1,0,0,1,89.63,144)">
                <g id="g-root-tx_zerodown_8z0sff1g7vcat-fill">
                    <g id="tx_zerodown_8z0sff1g7vcat-fill">
                        <g>
                            <g>
                                <text x="0px" y="0px" style="font-family:'Arial-BoldMT', 'Arial', sans-serif;font-weight:700;font-size:20px;fill:rgb(44,44,44);">Zero Downtime</text>
                            </g>
                        </g>
                    </g>
                </g>
            </g>
            <g id="g-root-tx_globalco_94n27f1g80ykq-fill" transform="matrix(1,0,0,1,86,230)">
                <g id="tx_globalco_94n27f1g80ykq-fill">
                    <g>
                        <g>
                            <g transform="matrix(1,0,0,1,70.53,34)">
                                <text x="0px" y="0px" style="font-family:'Arial-BoldMT', 'Arial', sans-serif;font-weight:700;font-size:20px;fill:rgb(44,44,44);">Global</text>
                            </g>
                            <g transform="matrix(1,0,0,1,15.65,58)">
                                <text x="0px" y="0px" style="font-family:'Arial-BoldMT', 'Arial', sans-serif;font-weight:700;font-size:20px;fill:rgb(44,44,44);">Connectivity</text>
                            </g>
                        </g>
                    </g>
                </g>
            </g>
            <g transform="matrix(1,0,0,1,374,396)">
                <g id="g-root-tx_callclar_1umswrv1g89ekr-fill">
                    <g id="tx_callclar_1umswrv1g89ekr-fill">
                        <g>
                            <g>
                                <text x="0px" y="0px" style="font-family:'Arial-BoldMT', 'Arial', sans-serif;font-weight:700;font-size:20px;fill:rgb(44,44,44);">Call Clarity</text>
                            </g>
                        </g>
                    </g>
                </g>
            </g>
            <g id="g-root-tx_reducese_mccq231g83qj0-fill" transform="matrix(1,0,0,1,50,410)">
                <g id="tx_reducese_mccq231g83qj0-fill">
                    <g>
                        <g>
                            <g transform="matrix(1,0,0,1,27.32,31.2)">
                                <text x="0px" y="0px" style="font-family:'ArialMT', 'Arial', sans-serif;font-size:15px;fill:rgb(44,44,44);">Reduces expenses</text>
                            </g>
                            <g transform="matrix(1,0,0,1,16.42,49.2)">
                                <g transform="matrix(15,0,0,15,39.1846,0)">
                                </g>
                                <g transform="matrix(15,0,0,15,43.1909,0)">
                                </g>
                                <text x="0px" y="0px" style="font-family:'ArialMT', 'Arial', sans-serif;font-size:15px;fill:rgb(44,44,44);">with aﬀordable V<tspan x="110.581px 118.923px " y="0px 0px ">oI</tspan>P</text>
                            </g>
                            <g transform="matrix(1,0,0,1,87.47,67.2)">
                                <text x="0px" y="0px" style="font-family:'ArialMT', 'Arial', sans-serif;font-size:15px;fill:rgb(44,44,44);">call rates.</text>
                            </g>
                        </g>
                    </g>
                </g>
            </g>
            <g id="g-root-tx_provides_3ds6j1g89czx-fill" transform="matrix(1,0,0,1,362,398)">
                <g id="tx_provides_3ds6j1g89czx-fill">
                    <g>
                        <g>
                            <g transform="matrix(1,0,0,1,12,31.2)">
                                <text x="0px" y="0px" style="font-family:'ArialMT', 'Arial', sans-serif;font-size:15px;fill:rgb(44,44,44);">Provides clear and</text>
                            </g>
                            <g transform="matrix(1,0,0,1,12,49.2)">
                                <text x="0px" y="0px" style="font-family:'ArialMT', 'Arial', sans-serif;font-size:15px;fill:rgb(44,44,44);">high-quality voice</text>
                            </g>
                            <g transform="matrix(1,0,0,1,12,67.2)">
                                <text x="0px" y="0px" style="font-family:'ArialMT', 'Arial', sans-serif;font-size:15px;fill:rgb(44,44,44);">calls.</text>
                            </g>
                        </g>
                    </g>
                </g>
            </g>
            <g transform="matrix(1,0,0,1,350,180)">
                <g id="g-root-tx_expertsu_v98oh71g855af-fill">
                    <g id="tx_expertsu_v98oh71g855af-fill">
                        <g>
                            <g>
                                <text x="0px" y="0px" style="font-family:'Arial-BoldMT', 'Arial', sans-serif;font-weight:700;font-size:20px;fill:rgb(44,44,44);">Expert Support</text>
                            </g>
                        </g>
                    </g>
                </g>
            </g>
            <g id="g-root-tx_offersre_4my4tn1g855ag-fill" transform="matrix(1,0,0,1,338,182)">
                <g id="tx_offersre_4my4tn1g855ag-fill">
                    <g>
                        <g>
                            <g transform="matrix(1,0,0,1,12,28.2)">
                                <g transform="matrix(15,0,0,15,11.6675,0)">
                                </g>
                                <g transform="matrix(15,0,0,15,15.6738,0)">
                                </g>
                                <text x="0px" y="0px" style="font-family:'ArialMT', 'Arial', sans-serif;font-size:15px;fill:rgb(44,44,44);">Oﬀers reliable support</text>
                            </g>
                            <g transform="matrix(1,0,0,1,12,46.2)">
                                <text x="0px" y="0px" style="font-family:'ArialMT', 'Arial', sans-serif;font-size:15px;fill:rgb(44,44,44);">whenever needed.</text>
                            </g>
                        </g>
                    </g>
                </g>
            </g>
            <g id="g-root-cp_5_text-5_dju38r1g7twqx-stroke" transform="matrix(1,0,0,1,50,98)">
                <g id="cp_5_text-5_dju38r1g7twqx-stroke">
                    <g>
                        <path d="M10,130L10,10L238,10L238,130" style="fill:none;stroke:rgb(44,44,44);stroke-width:2px;"/>
                    </g>
                </g>
            </g>
            <g id="g-root-cp_5_stick-5_1uto4q31g7tywz-stroke" transform="matrix(1,0,0,1,266,218)">
                <g id="cp_5_stick-5_1uto4q31g7tywz-stroke">
                    <g>
                        <path d="M21.996,310L21.996,10" style="fill:none;stroke:rgb(44,44,44);stroke-width:2px;"/>
                    </g>
                </g>
            </g>
            <g id="g-root-cp_3_text-3_1lynlkb1g7twjx-stroke" transform="matrix(1,0,0,1,38,218)">
                <g id="cp_3_text-3_1lynlkb1g7twjx-stroke">
                    <g>
                        <path d="M10,154L10,10L238,10L238,154" style="fill:none;stroke:rgb(44,44,44);stroke-width:2px;"/>
                    </g>
                </g>
            </g>
            <g id="g-root-cp_3_stick-3_18n736z1g7ty4v-stroke" transform="matrix(1,0,0,1,254,362)">
                <g id="cp_3_stick-3_18n736z1g7ty4v-stroke">
                    <g>
                        <path d="M21.996,166L21.996,10" style="fill:none;stroke:rgb(44,44,44);stroke-width:2px;"/>
                    </g>
                </g>
            </g>
            <g id="g-root-cp_1_text-1_zs6k171g7twjl-stroke" transform="matrix(1,0,0,1,26,362)">
                <g id="cp_1_text-1_zs6k171g7twjl-stroke">
                    <g>
                        <path d="M238,130L238,10L10,10L10,130L226,130" style="fill:none;stroke:rgb(44,44,44);stroke-width:2px;"/>
                    </g>
                </g>
            </g>
            <g id="g-root-cp_1_stick-1_mgq1nv1g7ty4j-stroke" transform="matrix(1,0,0,1,242,446)">
                <g id="cp_1_stick-1_mgq1nv1g7ty4j-stroke">
                    <g>
                        <path d="M21.996,82L21.996,10M10,82L10,46" style="fill:none;stroke:rgb(44,44,44);stroke-width:2px;"/>
                    </g>
                </g>
            </g>
            <g id="g-root-cp_6_text-6_8vwezv1g7vb45-stroke" transform="matrix(1,0,0,1,278,134)">
                <g id="cp_6_text-6_8vwezv1g7vb45-stroke">
                    <g>
                        <path d="M238,106L238,10L10,10L10,106" style="fill:none;stroke:rgb(44,44,44);stroke-width:2px;"/>
                    </g>
                </g>
            </g>
            <g id="g-root-cp_6_stick-6_18f2x2j1g7vbpr-stroke" transform="matrix(1,0,0,1,278,230)">
                <g id="cp_6_stick-6_18f2x2j1g7vbpr-stroke">
                    <g>
                        <path d="M10.004,298L10.004,10" style="fill:none;stroke:rgb(44,44,44);stroke-width:2px;"/>
                    </g>
                </g>
            </g>
            <g id="g-root-cp_4_text-4_zjfwtn1g7vda9-stroke" transform="matrix(1,0,0,1,290,230)">
                <g id="cp_4_text-4_zjfwtn1g7vda9-stroke">
                    <g>
                        <path d="M238,130L238,10L10,10L10,130" style="fill:none;stroke:rgb(44,44,44);stroke-width:2px;"/>
                    </g>
                </g>
            </g>
            <g id="g-root-cp_4_stick-4_m8lvjf1g7vbpf-stroke" transform="matrix(1,0,0,1,290,350)">
                <g id="cp_4_stick-4_m8lvjf1g7vbpf-stroke">
                    <g>
                        <path d="M10.004,178L10.004,10" style="fill:none;stroke:rgb(44,44,44);stroke-width:2px;"/>
                    </g>
                </g>
            </g>
            <g id="g-root-cp_2_text-2_8x5d631g7vdad-stroke" transform="matrix(1,0,0,1,302,350)">
                <g id="cp_2_text-2_8x5d631g7vdad-stroke">
                    <g>
                        <path d="M10,130L10,10L238,10L238,130L22,130" style="fill:none;stroke:rgb(44,44,44);stroke-width:2px;"/>
                    </g>
                </g>
            </g>
            <g id="g-root-cp_2_stick-2_1unfduz1g7vbif-stroke" transform="matrix(1,0,0,1,302,434)">
                <g id="cp_2_stick-2_1unfduz1g7vbif-stroke">
                    <g>
                        <path d="M10.004,94L10.004,10M22,94L22,46" style="fill:none;stroke:rgb(44,44,44);stroke-width:2px;"/>
                    </g>
                </g>
            </g>
            <g id="g-root-cp_0_g-0_1cw5dd71g7vdvl-stroke" transform="matrix(1,0,0,1,242,518)">
                <g id="cp_0_g-0_1cw5dd71g7vdvl-stroke">
                    <g>
                        <path d="M33.994,61L46.01,86L58.005,61L33.994,61Z" style="fill:none;stroke:rgb(44,44,44);stroke-width:2px;"/>
                    </g>
                </g>
                <g id="cp_0_g-0_1cw5dd71g7vdvl-stroke1" serif:id="cp_0_g-0_1cw5dd71g7vdvl-stroke">
                    <g>
                        <path d="M82,10L10,10L34,61L58.001,61L82,10Z" style="fill:none;stroke:rgb(44,44,44);stroke-width:2px;"/>
                    </g>
                </g>
            </g>
            <g id="g-root-ic_smok_zqb4rv1g856o9-stroke" transform="matrix(1,0,0,1,290,146)">
                <g id="ic_smok_zqb4rv1g856o9-stroke">
                    <g>
                        <path d="M34.93,40.57C32.87,41.916 30.461,42.631 28,42.625C22.269,42.625 17.242,38.801 15.713,33.278C14.183,27.755 16.526,21.89 21.44,18.942C26.354,15.993 32.632,16.686 36.785,20.635C40.939,24.584 41.947,30.818 39.25,35.875M16.375,35.125L13.75,35.125C12.093,35.125 10.75,33.782 10.75,32.125L10.75,27.625C10.75,25.968 12.093,24.625 13.75,24.625L16.375,24.625M39.625,35.125L42.25,35.125C43.907,35.125 45.25,33.782 45.25,32.125L45.25,27.625C45.25,25.968 43.907,24.625 42.25,24.625L39.625,24.625M42.235,24.625C42.235,16.755 35.855,10.375 27.985,10.375C20.115,10.375 13.735,16.755 13.735,24.625M21.13,33.625C22.325,36.353 25.021,38.116 28,38.116C30.979,38.116 33.675,36.353 34.87,33.625M21.25,27.25C21.457,27.25 21.625,27.418 21.625,27.625C21.625,27.832 21.457,28 21.25,28C21.043,28 20.875,27.832 20.875,27.625C20.875,27.418 21.043,27.25 21.25,27.25M34.75,27.25C34.957,27.25 35.125,27.418 35.125,27.625C35.125,27.832 34.957,28 34.75,28C34.543,28 34.375,27.832 34.375,27.625C34.375,27.418 34.543,27.25 34.75,27.25M31.555,37.225L38.815,44.5C39.116,44.803 39.533,44.963 39.959,44.94C40.386,44.918 40.783,44.714 41.05,44.38L41.995,43.195C42.25,42.868 42.359,42.45 42.295,42.04C42.236,41.627 42.008,41.258 41.665,41.02L33.685,35.5" style="fill:none;stroke:rgb(44,44,44);stroke-width:2px;"/>
                    </g>
                </g>
            </g>
            <g id="g-root-ic_grow_m8lvjf1g87y82-stroke" transform="matrix(1,0,0,1,302,242)">
                <g id="ic_grow_m8lvjf1g87y82-stroke">
                    <g>
                        <path d="M30.237,10.75C29.842,21.172 21.268,28.75 10.75,28.75M27.25,13.75L30.25,10.75L33.25,13.75M44.124,14.428C44.367,14.316 44.651,14.342 44.87,14.497C45.089,14.652 45.209,14.911 45.184,15.178C44.949,18.055 43.861,24.667 38.868,24.667C36.459,24.623 34.53,22.658 34.53,20.249C34.53,17.84 36.459,15.875 38.868,15.831C40.696,15.72 42.483,15.243 44.124,14.428L44.124,14.428ZM40.716,19.26C38.219,20.229 36.278,22.252 35.411,24.786C35.221,25.337 35.124,25.916 35.125,26.5L35.125,45.25M10.75,45.25L45.25,45.25M11.125,41.5C11.125,41.5 14.125,41.5 14.125,45.25C14.125,45.25 14.125,41.5 17.125,41.5M24.625,42.25C25.071,40.957 26.259,40.066 27.625,40M23.875,35.446C24.754,36.325 24.754,37.749 23.875,38.628C22.997,39.507 21.573,39.507 20.694,38.629C19.922,37.408 19.344,36.074 18.981,34.676C18.896,34.409 18.967,34.117 19.165,33.919C19.363,33.721 19.655,33.65 19.923,33.735C21.32,34.099 22.653,34.676 23.875,35.446L23.875,35.446ZM23.8,38.705C24.34,39.537 24.626,40.508 24.625,41.5L24.625,45.25M23.856,28.349C23.593,28.39 23.372,28.566 23.274,28.813C23.175,29.059 23.215,29.34 23.377,29.549C24.877,31.462 28.31,35.099 31.555,33.023C33.202,31.974 33.686,29.789 32.636,28.143C31.587,26.497 29.402,26.013 27.756,27.063C26.552,27.742 25.227,28.18 23.856,28.35L23.856,28.349ZM28.24,30.019C30.341,29.6 32.52,30.13 34.195,31.466C34.56,31.757 34.875,32.106 35.125,32.5" style="fill:none;stroke:rgb(44,44,44);stroke-width:2px;"/>
                    </g>
                </g>
            </g>
            <g id="g-root-ic_hand_hvwquj1g7vcwf-stroke" transform="matrix(1,0,0,1,230,110)">
                <g id="ic_hand_hvwquj1g7vcwf-stroke">
                    <g>
                        <path d="M11.55,43.609L21.708,39.015C23.414,40.13 25.495,40.521 27.49,40.1L36.373,38.235M27.834,20.179L30.1,15.742C30.13,15.682 30.159,15.621 30.182,15.557C30.594,14.536 30.226,13.367 29.304,12.765C28.382,12.162 27.164,12.296 26.393,13.083L19.482,20.133C17.793,21.864 16.874,24.202 16.931,26.62L16.912,26.587L11.55,29.2M35.918,37.837C31.551,39.698 26.479,38.107 23.957,34.084C21.436,30.061 22.215,24.803 25.794,21.683C29.372,18.564 34.688,18.511 38.329,21.558M32.257,28.596L29.137,24.313M35.141,19.788L36.913,15.046M35.371,14.472L38.694,15.712M40.237,25.108L42.201,25.108C42.201,25.108 44.451,25.108 44.451,27.358C44.451,27.358 44.451,29.608 42.201,29.608L40.237,29.608C40.237,29.608 37.987,29.608 37.987,27.358C37.987,27.358 37.987,25.108 40.237,25.108M40.237,20.608L42.201,20.608C42.201,20.608 44.451,20.608 44.451,22.858C44.451,22.858 44.451,25.108 42.201,25.108L40.237,25.108C40.237,25.108 37.987,25.108 37.987,22.858C37.987,22.858 37.987,20.608 40.237,20.608M40.237,29.608L42.201,29.608C42.201,29.608 44.451,29.608 44.451,31.858C44.451,31.858 44.451,34.108 42.201,34.108L40.237,34.108C40.237,34.108 37.987,34.108 37.987,31.858C37.987,31.858 37.987,29.608 40.237,29.608M37.612,34.108L39.484,34.108C39.484,34.108 41.734,34.108 41.734,36.358C41.734,36.358 41.734,38.608 39.484,38.608L37.612,38.608C37.612,38.608 35.362,38.608 35.362,36.358C35.362,36.358 35.362,34.108 37.612,34.108" style="fill:none;stroke:rgb(44,44,44);stroke-width:2px;"/>
                    </g>
                </g>
            </g>
            <g id="g-root-ic_netw_m7cxd71g82dqc-stroke" transform="matrix(1,0,0,1,218,230)">
                <g id="ic_netw_m7cxd71g82dqc-stroke">
                    <g>
                        <path d="M10.804,27.997C10.804,37.524 18.527,45.247 28.054,45.247C37.581,45.247 45.304,37.524 45.304,27.997C45.304,18.47 37.581,10.747 28.054,10.747C18.527,10.747 10.804,18.47 10.804,27.997L10.804,27.997ZM19.804,21.622C19.804,23.486 21.315,24.997 23.179,24.997C25.043,24.997 26.554,23.486 26.554,21.622C26.554,19.758 25.043,18.247 23.179,18.247C21.315,18.247 19.804,19.758 19.804,21.622L19.804,21.622ZM29.554,36.622C29.554,37.658 30.393,38.497 31.429,38.497C32.465,38.497 33.304,37.658 33.304,36.622C33.304,35.586 32.465,34.747 31.429,34.747C30.393,34.747 29.554,35.586 29.554,36.622L29.554,36.622ZM35.554,25.372C35.554,26.822 36.729,27.997 38.179,27.997C39.629,27.997 40.804,26.822 40.804,25.372C40.804,23.922 39.629,22.747 38.179,22.747C36.729,22.747 35.554,23.922 35.554,25.372ZM26.554,21.25C29.907,21.378 33.102,22.709 35.554,25M38.702,27.946L39.302,28.747C39.302,28.747 41.552,31.747 41.552,38.497M35.288,12.333L35.554,13C36.64,16.216 37.148,19.6 37.054,22.993M36.304,27.25C36.116,30.348 35,33.317 33.1,35.772M30.532,38.269L30.304,38.5C30.304,38.5 26.554,42.25 18.304,42.25M28.054,10.75C26.002,12.945 24.352,15.484 23.179,18.25M21.427,24.508L21.304,25C20.487,29.057 21.013,33.269 22.804,37C25.354,42.109 31.804,44.5 31.804,44.5L32.364,44.709M19.804,21.622C19.804,21.622 14.05,22.035 11.142,24.581M11.224,31.798L11.554,31.747C11.554,31.747 21.876,30.16 30.265,35.152" style="fill:none;stroke:rgb(44,44,44);stroke-width:2px;"/>
                    </g>
                </g>
            </g>
            <g id="g-root-ic_coin_1qbcq971g83r45-stroke" transform="matrix(1,0,0,1,206,374)">
                <g id="ic_coin_1qbcq971g83r45-stroke">
                    <g>
                        <path d="M10.756,25.682C10.756,26.511 14.114,27.182 18.256,27.182C22.398,27.182 25.756,26.511 25.756,25.682C25.756,24.854 22.398,24.182 18.256,24.182C14.114,24.182 10.756,24.854 10.756,25.682ZM25.75,25.682L25.75,30.182C25.75,31.012 22.393,31.682 18.25,31.682C14.107,31.682 10.75,31.012 10.75,30.182L10.75,25.682M25.75,30.182L25.75,34.682C25.75,35.512 22.393,36.182 18.25,36.182C14.107,36.182 10.75,35.512 10.75,34.682L10.75,30.182M25.75,34.682L25.75,39.182C25.75,40.012 22.393,40.682 18.25,40.682C14.107,40.682 10.75,40.012 10.75,39.182L10.75,34.682M25.75,39.182L25.75,43.682C25.75,44.512 22.393,45.182 18.25,45.182C14.107,45.182 10.75,44.512 10.75,43.682L10.75,39.182M16.572,20.431C18.586,16.087 23.65,13 29.574,13C31.095,13 32.61,13.212 34.074,13.63C35.008,12.302 36.358,11.322 37.911,10.846C38.137,10.783 38.379,10.829 38.566,10.971C38.754,11.113 38.863,11.334 38.863,11.569L38.863,16.008C40.453,17.401 41.656,19.183 42.352,21.18L43.758,21.18C44.586,21.18 45.258,21.851 45.258,22.68L45.258,27.18C45.258,28.008 44.586,28.68 43.758,28.68L42.353,28.68C41.564,30.646 40.203,32.33 38.446,33.515L39.658,36.802C40.102,38.005 39.486,39.341 38.283,39.785C37.079,40.228 35.744,39.612 35.3,38.409L34.24,35.536C32.727,35.99 31.155,36.222 29.575,36.224M35.881,20.432C35.674,20.432 35.506,20.6 35.506,20.807C35.506,21.015 35.674,21.182 35.881,21.182C36.088,21.182 36.256,21.015 36.256,20.807C36.256,20.6 36.088,20.432 35.881,20.432M22,18.932C23.555,17.218 25.695,16.147 28,15.932" style="fill:none;stroke:rgb(44,44,44);stroke-width:2px;"/>
                    </g>
                </g>
            </g>
            <g id="g-root-ic_form_142dsdn1g89dl2-stroke" transform="matrix(1,0,0,1,314,362)">
                <g id="ic_form_142dsdn1g89dl2-stroke">
                    <g>
                        <path d="M35.95,18.4C39.1,19.15 41.2,20.2 41.2,21.4C41.2,23.5 35.2,25.15 27.7,25.15C20.2,25.15 14.2,23.5 14.2,21.4C14.2,20.5 15.25,19.75 17.2,19M14.2,21.4L14.2,23.5C14.2,26.35 15.85,28.9 18.4,30.25L23.2,32.65L23.2,37.15L32.2,34.9L32.2,32.65L37,30.25C39.55,29.05 41.2,26.35 41.2,23.5L41.2,21.4M30.7,15.625C31.943,15.625 32.95,14.618 32.95,13.375C32.95,12.132 31.943,11.125 30.7,11.125C29.457,11.125 28.45,12.132 28.45,13.375C28.45,14.618 29.457,15.625 30.7,15.625ZM23.95,20.875C25.193,20.875 26.2,19.868 26.2,18.625C26.2,17.382 25.193,16.375 23.95,16.375C22.707,16.375 21.7,17.382 21.7,18.625C21.7,19.868 22.707,20.875 23.95,20.875ZM11.125,44.875C13.345,44.875 15.418,43.675 16.75,42.025C18.082,43.675 20.007,44.875 22.375,44.875C24.595,44.875 26.668,43.675 28,42.025C29.332,43.675 31.257,44.875 33.625,44.875C35.845,44.875 37.918,43.675 39.25,42.025C40.582,43.675 42.507,44.875 44.875,44.875" style="fill:none;stroke:rgb(44,44,44);stroke-width:2px;"/>
                    </g>
                </g>
            </g>
        </g>
    </g>
</svg>
