<?xml version="1.0" encoding="UTF-8" standalone="no"?>
<!DOCTYPE svg PUBLIC "-//W3C//DTD SVG 1.1//EN" "http://www.w3.org/Graphics/SVG/1.1/DTD/svg11.dtd">
<svg width="100%" height="100%" viewBox="0 0 588 586" version="1.1" xmlns="http://www.w3.org/2000/svg" xmlns:xlink="http://www.w3.org/1999/xlink" xml:space="preserve" xmlns:serif="http://www.serif.com/" style="fill-rule:evenodd;clip-rule:evenodd;stroke-linecap:round;stroke-linejoin:round;">
    <g id="items" transform="matrix(1.06566,0,0,1.06566,-19.304,-34.4859)">
        <g id="blend">
            <g id="g-root-sy_-1_cu_92rjyw1mlkkci-fill" transform="matrix(1,0,0,1,14,62)">
                <g id="sy_-1_cu_92rjyw1mlkkci-fill">
                    <g>
                        <path d="M10,490L10,418L82.5,418L82.5,490L10,490ZM34,394L10,418L82.5,418L106,394L34,394ZM34,394L34,322L106,322L106,394L34,394ZM58,298L34,322L106,322L130,298L58,298ZM58,298L58,226L130,226L130,298L58,298ZM82,202L58,226L130,226L154,202L82,202ZM82,202L82,130L154,130L154,202L82,202ZM106,106L82,130L154,130L178,106L106,106ZM106,106L106,34L178,34L178,106L106,106ZM130,10L106,34L178,34L202,10L130,10Z" style="fill:url(#_Linear1);"/>
                    </g>
                </g>
            </g>
            <g id="g-root-sy_-1_cu_1_qvaimw1mlkk5f-fill" transform="matrix(1,0,0,1,362,62)">
                <g id="sy_-1_cu_1_qvaimw1mlkk5f-fill">
                    <g>
                        <path d="M202,490L202,418L130.5,418L130.5,490L202,490ZM202,418L178,394L106,394L130.5,418L202,418ZM178,322L178,394L106,394L106,322L178,322ZM178,322L154,298L82,298L106,322L178,322ZM154,226L154,298L82,298L82,226L154,226ZM154,226L130,202L58,202L82,226L154,226ZM130,130L130,202L58,202L58,130L130,130ZM130,130L106,106L34,106L58,130L130,130ZM106,34L106,106L34,106L34,34L106,34ZM106,34L82,10L10,10L34,34L106,34Z" style="fill:url(#_Linear2);"/>
                    </g>
                </g>
            </g>
            <g id="g-root-sy_1_cu_8zyzc1mlkk5g-fill" transform="matrix(1,0,0,1,86.4998,446)">
                <g id="sy_1_cu_8zyzc1mlkk5g-fill">
                    <g>
                        <path d="M10,106L10,34L406,34L406,106L10,106ZM381.5,10L406,34L10,34L33.5,10L381.5,10Z" style="fill:url(#_Linear3);"/>
                    </g>
                </g>
            </g>
            <g id="g-root-sy_2_cu_1d30ic81mlkmbx-fill" transform="matrix(1,0,0,1,110,350)">
                <g id="sy_2_cu_1d30ic81mlkmbx-fill">
                    <g>
                        <path d="M10,106L10,34L358,34L358,106L10,106ZM334,10L358,34L10,34L34,10L334,10Z" style="fill:url(#_Linear4);"/>
                    </g>
                </g>
            </g>
            <g id="g-root-sy_3_cu_vccyxk1mlklja-fill" transform="matrix(1,0,0,1,134,254)">
                <g id="sy_3_cu_vccyxk1mlklja-fill">
                    <g>
                        <path d="M10,34L10,106L310,106L310,34L10,34ZM286,10L310,34L10,34L34,10L286,10Z" style="fill:url(#_Linear5);"/>
                    </g>
                </g>
            </g>
            <g id="g-root-sy_4_cu_4g2tw81mlm03r-fill" transform="matrix(1,0,0,1,158,158)">
                <g id="sy_4_cu_4g2tw81mlm03r-fill">
                    <g>
                        <path d="M10,106L10,34L262,34L262,106L10,106ZM238,10L262,34L10,34L34,10L238,10Z" style="fill:url(#_Linear6);"/>
                    </g>
                </g>
            </g>
            <g id="g-root-sy_5_cu_1cuwc7s1mllzwo-fill" transform="matrix(1,0,0,1,182,62)">
                <g id="sy_5_cu_1cuwc7s1mllzwo-fill">
                    <g>
                        <path d="M10,106L10,34L214,34L214,106L10,106ZM190,10L214,34L10,34L34,10L190,10Z" style="fill:url(#_Linear7);"/>
                    </g>
                </g>
            </g>
            <g transform="matrix(1,0,0,1,198.72,240)">
                <g id="g-root-tx_realtime_zofmjc1mlm0wd-fill">
                    <g id="tx_realtime_zofmjc1mlm0wd-fill">
                        <g>
                            <g>
                                <text x="0px" y="0px" style="font-family:'ArialMT', 'Arial', sans-serif;font-size:20px;fill:rgb(244,244,244);">Real-T<tspan x="59.268px 63.711px " y="0px 0px ">im</tspan>e Monitoring</text>
                            </g>
                        </g>
                    </g>
                </g>
            </g>
            <g id="g-root-tx_automate_4mbkrc1mlm1om-fill" transform="matrix(1,0,0,1,194,98)">
                <g id="tx_automate_4mbkrc1mlm1om-fill">
                    <g>
                        <g>
                            <g transform="matrix(1,0,0,1,12.21,34)">
                                <text x="0px" y="0px" style="font-family:'ArialMT', 'Arial', sans-serif;font-size:20px;fill:rgb(244,244,244);">Automated Billing &amp;</text>
                            </g>
                            <g transform="matrix(1,0,0,1,64.94,58)">
                                <text x="0px" y="0px" style="font-family:'ArialMT', 'Arial', sans-serif;font-size:20px;fill:rgb(244,244,244);">Reports</text>
                            </g>
                        </g>
                    </g>
                </g>
            </g>
            <g transform="matrix(1,0,0,1,200.9,336)">
                <g id="g-root-tx_clientac_dgpmu01mllypw-fill">
                    <g id="tx_clientac_dgpmu01mllypw-fill">
                        <g>
                            <g>
                                <text x="0px" y="0px" style="font-family:'ArialMT', 'Arial', sans-serif;font-size:20px;fill:rgb(244,244,244);">Client <tspan x="55.586px 68.926px " y="0px 0px ">Ac</tspan>count Setup</text>
                            </g>
                        </g>
                    </g>
                </g>
            </g>
            <g transform="matrix(1,0,0,1,198.37,432)">
                <g id="g-root-tx_systemco_1hdu7rs1mlm0ar-fill">
                    <g id="tx_systemco_1hdu7rs1mlm0ar-fill">
                        <g>
                            <g>
                                <g transform="matrix(20,0,0,20,108.926,0)">
                                </g>
                                <g transform="matrix(20,0,0,20,114.482,0)">
                                </g>
                                <text x="0px" y="0px" style="font-family:'ArialMT', 'Arial', sans-serif;font-size:20px;fill:rgb(244,244,244);">System Conﬁguration</text>
                            </g>
                        </g>
                    </g>
                </g>
            </g>
            <g transform="matrix(1,0,0,1,177.1,528)">
                <g id="g-root-tx_securese_zlb93s1mlm0hu-fill">
                    <g id="tx_securese_zlb93s1mlm0hu-fill">
                        <g>
                            <g>
                                <text x="0px" y="0px" style="font-family:'ArialMT', 'Arial', sans-serif;font-size:20px;fill:rgb(244,244,244);">Secure Server Deployment</text>
                            </g>
                        </g>
                    </g>
                </g>
            </g>
            <g id="g-root-sy_-1_cu_92rjyw1mlkkci-stroke" transform="matrix(1,0,0,1,14,62)">
                <g id="sy_-1_cu_92rjyw1mlkkci-stroke">
                    <g>
                        <path d="M10,490L10,418L82.5,418L82.5,490L10,490ZM10,418L34,394L106,394L82.5,418L10,418ZM34,394L34,322L106,322L106,394L34,394ZM34,322L58,298L130,298L106,322L34,322ZM58,298L58,226L130,226L130,298L58,298ZM58,226L82,202L154,202L130,226L58,226ZM82,202L82,130L154,130L154,202L82,202ZM82,130L106,106L178,106L154,130L82,130ZM106,106L106,34L178,34L178,106L106,106ZM106,34L130,10L202,10L178,34L106,34Z" style="fill:none;stroke:rgb(244,244,244);stroke-width:2px;"/>
                    </g>
                </g>
            </g>
            <g id="g-root-sy_-1_cu_1_qvaimw1mlkk5f-stroke" transform="matrix(1,0,0,1,362,62)">
                <g id="sy_-1_cu_1_qvaimw1mlkk5f-stroke">
                    <g>
                        <path d="M202,418L202,490L130.5,490L130.5,418L202,418ZM202,418L178,394L106,394L130.5,418L202,418ZM178,322L178,394L106,394L106,322L178,322ZM178,322L154,298L82,298L106,322L178,322ZM154,226L154,298L82,298L82,226L154,226ZM154,226L130,202L58,202L82,226L154,226ZM130,130L130,202L58,202L58,130L130,130ZM130,130L106,106L34,106L58,130L130,130ZM106,106L106,34L34,34L34,106L106,106ZM106,34L82,10L10,10L34,34L106,34Z" style="fill:none;stroke:rgb(244,244,244);stroke-width:2px;"/>
                    </g>
                </g>
            </g>
            <g id="g-root-sy_1_cu_8zyzc1mlkk5g-stroke" transform="matrix(1,0,0,1,86.4998,446)">
                <g id="sy_1_cu_8zyzc1mlkk5g-stroke">
                    <g>
                        <path d="M10,34L10,106L406,106L406,34L10,34ZM406,34L381.5,10L33.5,10L10,34L406,34Z" style="fill:none;stroke:rgb(244,244,244);stroke-width:2px;"/>
                    </g>
                </g>
            </g>
            <g id="g-root-sy_2_cu_1d30ic81mlkmbx-stroke" transform="matrix(1,0,0,1,110,350)">
                <g id="sy_2_cu_1d30ic81mlkmbx-stroke">
                    <g>
                        <path d="M10,34L10,106L358,106L358,34L10,34ZM358,34L334,10L34,10L10,34L358,34Z" style="fill:none;stroke:rgb(244,244,244);stroke-width:2px;"/>
                    </g>
                </g>
            </g>
            <g id="g-root-sy_3_cu_vccyxk1mlklja-stroke" transform="matrix(1,0,0,1,134,254)">
                <g id="sy_3_cu_vccyxk1mlklja-stroke">
                    <g>
                        <path d="M10,106L10,34L310,34L310,106L10,106ZM310,34L286,10L34,10L10,34L310,34Z" style="fill:none;stroke:rgb(244,244,244);stroke-width:2px;"/>
                    </g>
                </g>
            </g>
            <g id="g-root-sy_4_cu_4g2tw81mlm03r-stroke" transform="matrix(1,0,0,1,158,158)">
                <g id="sy_4_cu_4g2tw81mlm03r-stroke">
                    <g>
                        <path d="M10,34L10,106L262,106L262,34L10,34ZM262,34L238,10L34,10L10,34L262,34Z" style="fill:none;stroke:rgb(244,244,244);stroke-width:2px;"/>
                    </g>
                </g>
            </g>
            <g id="g-root-sy_5_cu_1cuwc7s1mllzwo-stroke" transform="matrix(1,0,0,1,182,62)">
                <g id="sy_5_cu_1cuwc7s1mllzwo-stroke">
                    <g>
                        <path d="M10,34L10,106L214,106L214,34L10,34ZM214,34L190,10L34,10L10,34L214,34Z" style="fill:none;stroke:rgb(244,244,244);stroke-width:2px;"/>
                    </g>
                </g>
            </g>
            <g id="g-root-ic_1_dju09k1mllz4f-stroke" transform="matrix(1,0,0,1,398,98)">
                <g id="ic_1_dju09k1mllz4f-stroke">
                    <g>
                        <path d="M57.008,27L45.008,35L35.008,35M57.008,33L45.008,41L35.008,41M57.008,39L45.008,47L35.008,47M35,47L21,47L21,29C21,28.37 21.296,27.778 21.8,27.4L31,21L45,21L35.8,27.4C35.296,27.778 35,28.37 35,29L35,47ZM21.008,35L11.008,35M21.008,41L11.008,41M21.008,47L11.008,47M45.008,21L57.008,21L45.008,29L35.008,29M21.008,29L11.008,29L23.008,21L31.008,21" style="fill:none;stroke:rgb(244,244,244);stroke-width:2px;"/>
                    </g>
                </g>
            </g>
            <g id="g-root-ic_48px_1lz9zo81mlrmkr-stroke" transform="matrix(1,0,0,1,98,194)">
                <g id="ic_48px_1lz9zo81mlrmkr-stroke">
                    <g>
                        <path d="M15.072,30.179C15.072,24.482 17.789,19.696 23.011,19.696C28.233,19.696 30.949,24.482 30.949,30.179L30.949,37.273C30.949,42.97 28.105,47.882 23.011,47.882C17.916,47.882 15.072,42.97 15.072,37.273L15.072,30.179ZM49.91,47.979L49.91,19.551L36.295,39.738L55.315,39.738" style="fill:none;stroke:rgb(244,244,244);stroke-width:2px;"/>
                    </g>
                </g>
            </g>
            <g id="g-root-ic_live_zrjzyw1mlq70i-stroke" transform="matrix(1,0,0,1,422,194)">
                <g id="ic_live_zrjzyw1mlq70i-stroke">
                    <g>
                        <path d="M57,34C56.997,45.589 48.368,55.363 36.869,56.803C25.369,58.242 14.597,50.896 11.738,39.665C8.88,28.434 14.828,16.831 25.616,12.598C36.404,8.364 48.657,12.823 54.2,23C56.041,26.374 57.004,30.157 57,34ZM44.034,23C42.166,17.967 38.623,13.73 34,11C29.377,13.73 25.834,17.967 23.966,23M23.964,45C25.834,50.033 29.377,54.27 34,57C38.841,54.492 42.504,50.182 44.2,45M16.564,19L51.436,19M16.564,49L51.436,49M29,39L29,29M33,29L33,32.4C33.001,34.749 33.697,37.045 35,39C36.303,37.045 36.999,34.749 37,32.4L37,29M21,29L21,37C21,38.105 21.895,39 23,39L25,39M45,39L43,39C41.895,39 41,38.105 41,37L41,31C41,29.895 41.895,29 43,29L45,29M41,35L45,35" style="fill:none;stroke:rgb(244,244,244);stroke-width:2px;"/>
                    </g>
                </g>
            </g>
            <g id="g-root-ic_48px_v6482g1mlvt37-stroke" transform="matrix(1,0,0,1,74,290)">
                <g id="ic_48px_v6482g1mlvt37-stroke">
                    <g>
                        <path d="M15.072,30.179C15.072,24.482 17.789,19.695 23.011,19.695C28.233,19.695 30.949,24.482 30.949,30.179L30.949,37.273C30.949,42.969 28.105,47.882 23.011,47.882C17.916,47.882 15.072,42.969 15.072,37.273L15.072,30.179ZM37.121,27.068C37.002,24.659 38.483,19.71 45.065,19.71C51.648,19.71 52.656,24.597 52.428,27.357C52.177,30.4 50.272,33.508 42.201,33.508C49.714,33.508 53.126,35.562 53.126,41.125C53.126,45.933 48.876,47.89 44.992,47.89C42.201,47.866 36.62,46.287 36.62,40.162" style="fill:none;stroke:rgb(244,244,244);stroke-width:2px;"/>
                    </g>
                </g>
            </g>
            <g id="g-root-ic_2_hteriw1mluf47-stroke" transform="matrix(1,0,0,1,446,290)">
                <g id="ic_2_hteriw1mluf47-stroke">
                    <g>
                        <path d="M57,47C57,52.523 52.523,57 47,57C41.477,57 37,52.523 37,47C37,41.477 41.477,37 47,37M43,46L46.24,48.43C46.666,48.749 47.267,48.679 47.608,48.27L57,37M11,41C11,34.373 16.373,29 23,29C29.627,29 35,34.373 35,41L11,41ZM15.5,18.5C15.5,22.642 18.858,26 23,26C27.142,26 30.5,22.642 30.5,18.5C30.5,14.358 27.142,11 23,11C18.858,11 15.5,14.358 15.5,18.5ZM34.5,18.5C34.5,22.642 37.858,26 42,26C46.142,26 49.5,22.642 49.5,18.5C49.5,14.358 46.142,11 42,11C37.858,11 34.5,14.358 34.5,18.5ZM48.94,31.21C45.133,28.51 40.106,28.263 36.052,30.576" style="fill:none;stroke:rgb(244,244,244);stroke-width:2px;"/>
                    </g>
                </g>
            </g>
            <g id="g-root-ic_4_141rbh41mlm03n-stroke" transform="matrix(1,0,0,1,494,482)">
                <g id="ic_4_141rbh41mlm03n-stroke">
                    <g>
                        <path d="M21.002,57L47.002,57M35.002,47L35.002,57M57,31C57,33.209 55.209,35 53,35L15,35C12.791,35 11,33.209 11,31L11,27C11,24.791 12.791,23 15,23L53,23C55.209,23 57,24.791 57,27L57,31ZM19.5,28.5C19.224,28.5 19,28.724 19,29C19,29.276 19.224,29.5 19.5,29.5C19.776,29.5 20,29.276 20,29C20,28.724 19.776,28.5 19.5,28.5M26.5,28.5C26.224,28.5 26,28.724 26,29C26,29.276 26.224,29.5 26.5,29.5C26.776,29.5 27,29.276 27,29C27,28.724 26.776,28.5 26.5,28.5M57,19C57,21.209 55.209,23 53,23L15,23C12.791,23 11,21.209 11,19L11,15C11,12.791 12.791,11 15,11L53,11C55.209,11 57,12.791 57,15L57,19ZM19.5,16.5C19.224,16.5 19,16.724 19,17C19,17.276 19.224,17.5 19.5,17.5C19.776,17.5 20,17.276 20,17C20,16.724 19.776,16.5 19.5,16.5M26.5,16.5C26.224,16.5 26,16.724 26,17C26,17.276 26.224,17.5 26.5,17.5C26.776,17.5 27,17.276 27,17C27,16.724 26.776,16.5 26.5,16.5M57,43C57,45.209 55.209,47 53,47L15,47C12.791,47 11,45.209 11,43L11,39C11,36.791 12.791,35 15,35L53,35C55.209,35 57,36.791 57,39L57,43ZM19.5,40.5C19.224,40.5 19,40.724 19,41C19,41.276 19.224,41.5 19.5,41.5C19.776,41.5 20,41.276 20,41C20,40.724 19.776,40.5 19.5,40.5M26.5,40.5C26.224,40.5 26,40.724 26,41C26,41.276 26.224,41.5 26.5,41.5C26.776,41.5 27,41.276 27,41C27,40.724 26.776,40.5 26.5,40.5M16.5,56C16.224,56 16,56.224 16,56.5C16,56.776 16.224,57 16.5,57C16.776,57 17,56.776 17,56.5C17,56.224 16.776,56 16.5,56M11.5,56C11.224,56 11,56.224 11,56.5C11,56.776 11.224,57 11.5,57C11.776,57 12,56.776 12,56.5C12,56.224 11.776,56 11.5,56M56.5,56C56.224,56 56,56.224 56,56.5C56,56.776 56.224,57 56.5,57C56.776,57 57,56.776 57,56.5C57,56.224 56.776,56 56.5,56M51.5,56C51.224,56 51,56.224 51,56.5C51,56.776 51.224,57 51.5,57C51.776,57 52,56.776 52,56.5C52,56.224 51.776,56 51.5,56" style="fill:none;stroke:rgb(244,244,244);stroke-width:2px;"/>
                    </g>
                </g>
            </g>
            <g id="g-root-ic_48px_mdll941mlyltv-stroke" transform="matrix(1,0,0,1,50,386)">
                <g id="ic_48px_mdll941mlyltv-stroke">
                    <g>
                        <path d="M15.072,30.179C15.072,24.482 17.789,19.695 23.011,19.695C28.233,19.695 30.949,24.482 30.949,30.179L30.949,37.273C30.949,42.969 28.105,47.882 23.011,47.882C17.916,47.882 15.072,42.969 15.072,37.273L15.072,30.179ZM36.832,27.515C36.832,22.895 40.056,19.695 44.438,19.695C51.707,19.695 54.186,26.789 49.421,33.098L37.33,47.417L53.951,47.417" style="fill:none;stroke:rgb(244,244,244);stroke-width:2px;"/>
                    </g>
                </g>
            </g>
            <g id="g-root-ic_scre_mbq5zs1mlx9fr-stroke" transform="matrix(1,0,0,1,470,386)">
                <g id="ic_scre_mbq5zs1mlx9fr-stroke">
                    <g>
                        <path d="M26.631,34.129L33.905,41.402C34.561,42.058 34.561,43.122 33.905,43.778L23.189,54.494C20.511,57.171 16.169,57.171 13.491,54.494C10.813,51.816 10.813,47.474 13.491,44.796L24.207,34.08C24.53,33.757 24.972,33.579 25.43,33.588C25.887,33.597 26.321,33.792 26.631,34.129ZM30.263,37.737L45.623,22.377M46.823,23.543L44.457,21.177L44.457,16.446L51.554,11.714L56.286,16.446L51.554,23.543L46.823,23.543Z" style="fill:none;stroke:rgb(244,244,244);stroke-width:2px;"/>
                    </g>
                </g>
            </g>
            <g id="g-root-ic_48px_1czw82g1mlotn1-stroke" transform="matrix(1,0,0,1,26,482)">
                <g id="ic_48px_1czw82g1mlotn1-stroke">
                    <g>
                        <path d="M37.842,23.377L46.297,20.184L46.297,47.951M15.072,30.179C15.072,24.482 17.789,19.695 23.011,19.695C28.233,19.695 30.949,24.482 30.949,30.179L30.949,37.273C30.949,42.969 28.105,47.882 23.011,47.882C17.916,47.882 15.072,42.969 15.072,37.273L15.072,30.179Z" style="fill:none;stroke:rgb(244,244,244);stroke-width:2px;"/>
                    </g>
                </g>
            </g>
            <g id="g-root-ic_48px_18egd081mloumg-stroke" transform="matrix(1,0,0,1,122,98)">
                <g id="ic_48px_18egd081mloumg-stroke">
                    <g>
                        <path d="M15.072,30.179C15.072,24.482 17.789,19.696 23.011,19.696C28.233,19.696 30.949,24.482 30.949,30.179L30.949,37.273C30.949,42.97 28.105,47.882 23.011,47.882C17.916,47.882 15.072,42.97 15.072,37.273L15.072,30.179ZM53.693,20.121L40.379,20.121L38.988,33.144C39.817,32.315 42.353,30.657 45.865,30.657C49.971,30.657 53.813,33.447 53.427,40.052C53.028,46.894 48.912,47.904 45.529,47.904C41.945,47.904 38.405,45.361 38.073,40.565" style="fill:none;stroke:rgb(244,244,244);stroke-width:2px;"/>
                    </g>
                </g>
            </g>
        </g>
    </g>
    <defs>
        <linearGradient id="_Linear1" x1="0" y1="0" x2="1" y2="0" gradientUnits="userSpaceOnUse" gradientTransform="matrix(10,490,-490,10,0,0)"><stop offset="0" style="stop-color:rgb(149,149,149);stop-opacity:1"/><stop offset="1" style="stop-color:rgb(127,127,127);stop-opacity:1"/></linearGradient>
        <linearGradient id="_Linear2" x1="0" y1="0" x2="1" y2="0" gradientUnits="userSpaceOnUse" gradientTransform="matrix(10,490,-490,10,0,0)"><stop offset="0" style="stop-color:rgb(149,149,149);stop-opacity:1"/><stop offset="1" style="stop-color:rgb(127,127,127);stop-opacity:1"/></linearGradient>
        <linearGradient id="_Linear3" x1="0" y1="0" x2="1" y2="0" gradientUnits="userSpaceOnUse" gradientTransform="matrix(10,106,-106,10,-1.77636e-15,0)"><stop offset="0" style="stop-color:rgb(78,136,230);stop-opacity:1"/><stop offset="1" style="stop-color:rgb(79,126,202);stop-opacity:1"/></linearGradient>
        <linearGradient id="_Linear4" x1="0" y1="0" x2="1" y2="0" gradientUnits="userSpaceOnUse" gradientTransform="matrix(10,106,-106,10,0,0)"><stop offset="0" style="stop-color:rgb(31,169,215);stop-opacity:1"/><stop offset="1" style="stop-color:rgb(49,135,163);stop-opacity:1"/></linearGradient>
        <linearGradient id="_Linear5" x1="0" y1="0" x2="1" y2="0" gradientUnits="userSpaceOnUse" gradientTransform="matrix(10,106,-106,10,0,0)"><stop offset="0" style="stop-color:rgb(59,196,130);stop-opacity:1"/><stop offset="1" style="stop-color:rgb(68,152,112);stop-opacity:1"/></linearGradient>
        <linearGradient id="_Linear6" x1="0" y1="0" x2="1" y2="0" gradientUnits="userSpaceOnUse" gradientTransform="matrix(10,106,-106,10,0,0)"><stop offset="0" style="stop-color:rgb(145,187,57);stop-opacity:1"/><stop offset="1" style="stop-color:rgb(125,152,68);stop-opacity:1"/></linearGradient>
        <linearGradient id="_Linear7" x1="0" y1="0" x2="1" y2="0" gradientUnits="userSpaceOnUse" gradientTransform="matrix(10,106,-106,10,0,0)"><stop offset="0" style="stop-color:rgb(221,201,22);stop-opacity:1"/><stop offset="1" style="stop-color:rgb(169,156,44);stop-opacity:1"/></linearGradient>
    </defs>
</svg>
