<?xml version="1.0" encoding="UTF-8" standalone="no"?>
<!DOCTYPE svg PUBLIC "-//W3C//DTD SVG 1.1//EN" "http://www.w3.org/Graphics/SVG/1.1/DTD/svg11.dtd">
<svg width="100%" height="100%" viewBox="0 0 576 578" version="1.1" xmlns="http://www.w3.org/2000/svg" xmlns:xlink="http://www.w3.org/1999/xlink" xml:space="preserve" xmlns:serif="http://www.serif.com/" style="fill-rule:evenodd;clip-rule:evenodd;stroke-linecap:round;stroke-linejoin:round;">
    <g id="items" transform="matrix(1.10219,0,0,1.10219,-29.4317,-37.8624)">
        <g id="blend">
            <g id="g-root-cp_5_text-5_1ut0vco1mlot1i-fill" transform="matrix(1,0,0,1,50,50)">
                <g id="cp_5_text-5_1ut0vco1mlot1i-fill">
                    <g>
                        <rect x="10" y="10" width="228" height="132" style="fill:rgb(166,218,55);"/>
                    </g>
                </g>
            </g>
            <g id="g-root-cp_5_stick-5_146qbp41mlot1k-fill" transform="matrix(1,0,0,1,266,182)">
                <g id="cp_5_stick-5_146qbp41mlot1k-fill">
                    <g>
                        <rect x="10" y="10" width="12" height="276" style="fill:rgb(166,218,55);"/>
                    </g>
                </g>
            </g>
            <g id="g-root-cp_3_text-3_qv9tbs1mloumi-fill" transform="matrix(1,0,0,1,38,182)">
                <g id="cp_3_text-3_qv9tbs1mloumi-fill">
                    <g>
                        <rect x="10" y="10" width="228" height="108" style="fill:rgb(255,231,17);"/>
                    </g>
                </g>
            </g>
            <g id="g-root-cp_3_stick-3_dkfs1k1mlot1o-fill" transform="matrix(1,0,0,1,254,290)">
                <g id="cp_3_stick-3_dkfs1k1mlot1o-fill">
                    <g>
                        <rect x="10" y="10" width="12" height="168" style="fill:rgb(255,231,17);"/>
                    </g>
                </g>
            </g>
            <g id="g-root-cp_1_text-1_8z9o81mloumm-fill" transform="matrix(1,0,0,1,26,290)">
                <g id="cp_1_text-1_8z9o81mloumm-fill">
                    <g>
                        <rect x="10" y="10" width="228" height="132" style="fill:rgb(251,103,98);"/>
                    </g>
                </g>
            </g>
            <g id="g-root-cp_1_stick-1_1qf2shk1mlosu8-fill" transform="matrix(1,0,0,1,242,374)">
                <g id="cp_1_stick-1_1qf2shk1mlosu8-fill">
                    <g>
                        <rect x="10" y="10" width="12" height="84" style="fill:rgb(251,103,98);"/>
                    </g>
                </g>
            </g>
            <g id="g-root-cp_6_text-6_1d3ma481mlouf6-fill" transform="matrix(1,0,0,1,278,62)">
                <g id="cp_6_text-6_1d3ma481mlouf6-fill">
                    <g>
                        <rect x="10" y="10" width="228" height="132" style="fill:rgb(135,105,253);"/>
                    </g>
                </g>
            </g>
            <g id="g-root-cp_6_stick-6_zisng81mlq7es-fill" transform="matrix(1,0,0,1,278,194)">
                <g id="cp_6_stick-6_zisng81mlq7es-fill">
                    <g>
                        <rect x="10" y="10" width="12" height="264" style="fill:rgb(135,105,253);"/>
                    </g>
                </g>
            </g>
            <g id="g-root-cp_4_text-4_m7c52w1mlq8zq-fill" transform="matrix(1,0,0,1,290,194)">
                <g id="cp_4_text-4_m7c52w1mlq8zq-fill">
                    <g>
                        <rect x="10" y="10" width="228" height="108" style="fill:rgb(67,221,147);"/>
                    </g>
                </g>
            </g>
            <g id="g-root-cp_4_stick-4_4golo81mlq874-fill" transform="matrix(1,0,0,1,290,302)">
                <g id="cp_4_stick-4_4golo81mlq874-fill">
                    <g>
                        <rect x="10" y="10" width="12" height="156" style="fill:rgb(67,221,147);"/>
                    </g>
                </g>
            </g>
            <g id="g-root-cp_2_text-2_m97kc81mlq802-fill" transform="matrix(1,0,0,1,302,302)">
                <g id="cp_2_text-2_m97kc81mlq802-fill">
                    <g>
                        <rect x="10" y="10" width="228" height="108" style="fill:rgb(247,148,56);"/>
                    </g>
                </g>
            </g>
            <g id="g-root-cp_2_stick-2_2qit41mlq77w-fill" transform="matrix(1,0,0,1,302,386)">
                <g id="cp_2_stick-2_2qit41mlq77w-fill">
                    <g>
                        <rect x="10" y="10" width="12" height="72" style="fill:rgb(247,148,56);"/>
                    </g>
                </g>
            </g>
            <g id="g-root-cp_0_g-0_1hckkag1mlq9dy-fill" transform="matrix(1,0,0,1,242,458)">
                <g id="cp_0_g-0_1hckkag1mlq9dy-fill">
                    <g>
                        <path d="M33.994,61L46.01,86L58.005,61L33.994,61Z" style="fill:rgb(232,232,232);"/>
                    </g>
                </g>
                <g id="cp_0_g-0_1hckkag1mlq9dy-fill1" serif:id="cp_0_g-0_1hckkag1mlq9dy-fill">
                    <g>
                        <path d="M82,10L10,10L34,61L58.001,61L82,10Z" style="fill:rgb(232,232,232);"/>
                    </g>
                </g>
            </g>
            <g id="g-root-tx_callrout_144uwfs1mlszr4-fill" transform="matrix(1,0,0,1,86,194)">
                <g id="tx_callrout_144uwfs1mlszr4-fill">
                    <g>
                        <g>
                            <g transform="matrix(1,0,0,1,18.63,34)">
                                <text x="0px" y="0px" style="font-family:'Arial-BoldMT', 'Arial', sans-serif;font-weight:700;font-size:20px;fill:rgb(44,44,44);">Call Routing</text>
                            </g>
                            <g transform="matrix(1,0,0,1,66.78,58)">
                                <text x="0px" y="0px" style="font-family:'Arial-BoldMT', 'Arial', sans-serif;font-weight:700;font-size:20px;fill:rgb(44,44,44);">Engine</text>
                            </g>
                        </g>
                    </g>
                </g>
            </g>
            <g id="g-root-tx_reseller_8xr54o1mlj6ko-fill" transform="matrix(1,0,0,1,350,206)">
                <g id="tx_reseller_8xr54o1mlj6ko-fill">
                    <g>
                        <g>
                            <g transform="matrix(1,0,0,1,12,34)">
                                <text x="0px" y="0px" style="font-family:'Arial-BoldMT', 'Arial', sans-serif;font-weight:700;font-size:20px;fill:rgb(44,44,44);">Reseller &amp; <tspan x="102.646px 117.09px " y="0px 0px ">Ag</tspan>ent</text>
                            </g>
                            <g transform="matrix(1,0,0,1,12,58)">
                                <text x="0px" y="0px" style="font-family:'Arial-BoldMT', 'Arial', sans-serif;font-weight:700;font-size:20px;fill:rgb(44,44,44);">Management</text>
                            </g>
                        </g>
                    </g>
                </g>
            </g>
            <g id="g-root-tx__1hd71dk1mm01za-fill">
            </g>
            <g id="g-root-tx__qqa3so1mlj6dl-fill">
            </g>
            <g id="g-root-tx__qs5fw81mlq8eb-fill">
            </g>
            <g id="g-root-tx_highconc_1463um01mlvthi-fill" transform="matrix(1,0,0,1,74,302)">
                <g id="tx_highconc_1463um01mlvthi-fill">
                    <g>
                        <g>
                            <g transform="matrix(1,0,0,1,78.07,34)">
                                <text x="0px" y="0px" style="font-family:'Arial-BoldMT', 'Arial', sans-serif;font-weight:700;font-size:20px;fill:rgb(44,44,44);">High-</text>
                            </g>
                            <g transform="matrix(1,0,0,1,13.85,58)">
                                <text x="0px" y="0px" style="font-family:'Arial-BoldMT', 'Arial', sans-serif;font-weight:700;font-size:20px;fill:rgb(44,44,44);">Concurrency</text>
                            </g>
                            <g transform="matrix(1,0,0,1,56.12,82)">
                                <text x="0px" y="0px" style="font-family:'Arial-BoldMT', 'Arial', sans-serif;font-weight:700;font-size:20px;fill:rgb(44,44,44);">Support</text>
                            </g>
                        </g>
                    </g>
                </g>
            </g>
            <g id="g-root-tx_secureac_4pf8vs1mlyn7x-fill" transform="matrix(1,0,0,1,338,74)">
                <g id="tx_secureac_4pf8vs1mlyn7x-fill">
                    <g>
                        <g>
                            <g transform="matrix(1,0,0,1,12,34)">
                                <text x="0px" y="0px" style="font-family:'Arial-BoldMT', 'Arial', sans-serif;font-weight:700;font-size:20px;fill:rgb(44,44,44);">Secure <tspan x="71.523px 85.967px " y="0px 0px ">Ac</tspan>cess &amp;</text>
                            </g>
                            <g transform="matrix(1,0,0,1,12,58)">
                                <text x="0px" y="0px" style="font-family:'Arial-BoldMT', 'Arial', sans-serif;font-weight:700;font-size:20px;fill:rgb(44,44,44);">Anti-Hack</text>
                            </g>
                            <g transform="matrix(1,0,0,1,12,82)">
                                <text x="0px" y="0px" style="font-family:'Arial-BoldMT', 'Arial', sans-serif;font-weight:700;font-size:20px;fill:rgb(44,44,44);">Protection</text>
                            </g>
                        </g>
                    </g>
                </g>
            </g>
            <g id="g-root-tx_integrat_1lwrh6g1mlkmbk-fill" transform="matrix(1,0,0,1,362,314)">
                <g id="tx_integrat_1lwrh6g1mlkmbk-fill">
                    <g>
                        <g>
                            <g transform="matrix(1,0,0,1,12,34)">
                                <text x="0px" y="0px" style="font-family:'Arial-BoldMT', 'Arial', sans-serif;font-weight:700;font-size:20px;fill:rgb(44,44,44);">Integrated</text>
                            </g>
                            <g transform="matrix(1,0,0,1,12,58)">
                                <text x="0px" y="0px" style="font-family:'Arial-BoldMT', 'Arial', sans-serif;font-weight:700;font-size:20px;fill:rgb(44,44,44);">Billing System</text>
                            </g>
                        </g>
                    </g>
                </g>
            </g>
            <g id="g-root-tx__djtayg1mlvthj-fill">
            </g>
            <g id="g-root-tx_realtime_1upwhx41mlq6te-fill" transform="matrix(1,0,0,1,110,62)">
                <g id="tx_realtime_1upwhx41mlq6te-fill">
                    <g>
                        <g>
                            <g transform="matrix(1,0,0,1,22.68,34)">
                                <text x="0px" y="0px" style="font-family:'Arial-BoldMT', 'Arial', sans-serif;font-weight:700;font-size:20px;fill:rgb(44,44,44);">Real-T<tspan x="60.762px 66.318px " y="0px 0px ">im</tspan>e</text>
                            </g>
                            <g transform="matrix(1,0,0,1,17.63,58)">
                                <text x="0px" y="0px" style="font-family:'Arial-BoldMT', 'Arial', sans-serif;font-weight:700;font-size:20px;fill:rgb(44,44,44);">Monitoring</text>
                            </g>
                            <g transform="matrix(1,0,0,1,19.2,82)">
                                <text x="0px" y="0px" style="font-family:'Arial-BoldMT', 'Arial', sans-serif;font-weight:700;font-size:20px;fill:rgb(44,44,44);">Dashboard</text>
                            </g>
                        </g>
                    </g>
                </g>
            </g>
            <g id="g-root-tx__93zvzs1mlkljd-fill">
            </g>
            <g id="g-root-tx__73uew1mlt1c1-fill">
            </g>
            <g id="g-root-cp_5_text-5_1ut0vco1mlot1i-stroke" transform="matrix(1,0,0,1,50,50)">
                <g id="cp_5_text-5_1ut0vco1mlot1i-stroke">
                    <g>
                        <path d="M10,142L10,10L238,10L238,142" style="fill:none;stroke:rgb(44,44,44);stroke-width:2px;"/>
                    </g>
                </g>
            </g>
            <g id="g-root-cp_5_stick-5_146qbp41mlot1k-stroke" transform="matrix(1,0,0,1,266,182)">
                <g id="cp_5_stick-5_146qbp41mlot1k-stroke">
                    <g>
                        <path d="M21.996,286L21.996,10" style="fill:none;stroke:rgb(44,44,44);stroke-width:2px;"/>
                    </g>
                </g>
            </g>
            <g id="g-root-cp_3_text-3_qv9tbs1mloumi-stroke" transform="matrix(1,0,0,1,38,182)">
                <g id="cp_3_text-3_qv9tbs1mloumi-stroke">
                    <g>
                        <path d="M10,118L10,10L238,10L238,118" style="fill:none;stroke:rgb(44,44,44);stroke-width:2px;"/>
                    </g>
                </g>
            </g>
            <g id="g-root-cp_3_stick-3_dkfs1k1mlot1o-stroke" transform="matrix(1,0,0,1,254,290)">
                <g id="cp_3_stick-3_dkfs1k1mlot1o-stroke">
                    <g>
                        <path d="M21.996,178L21.996,10" style="fill:none;stroke:rgb(44,44,44);stroke-width:2px;"/>
                    </g>
                </g>
            </g>
            <g id="g-root-cp_1_text-1_8z9o81mloumm-stroke" transform="matrix(1,0,0,1,26,290)">
                <g id="cp_1_text-1_8z9o81mloumm-stroke">
                    <g>
                        <path d="M238,142L238,10L10,10L10,142L226,142" style="fill:none;stroke:rgb(44,44,44);stroke-width:2px;"/>
                    </g>
                </g>
            </g>
            <g id="g-root-cp_1_stick-1_1qf2shk1mlosu8-stroke" transform="matrix(1,0,0,1,242,374)">
                <g id="cp_1_stick-1_1qf2shk1mlosu8-stroke">
                    <g>
                        <path d="M21.996,94L21.996,10M10,94L10,58" style="fill:none;stroke:rgb(44,44,44);stroke-width:2px;"/>
                    </g>
                </g>
            </g>
            <g id="g-root-cp_6_text-6_1d3ma481mlouf6-stroke" transform="matrix(1,0,0,1,278,62)">
                <g id="cp_6_text-6_1d3ma481mlouf6-stroke">
                    <g>
                        <path d="M238,142L238,10L10,10L10,142" style="fill:none;stroke:rgb(44,44,44);stroke-width:2px;"/>
                    </g>
                </g>
            </g>
            <g id="g-root-cp_6_stick-6_zisng81mlq7es-stroke" transform="matrix(1,0,0,1,278,194)">
                <g id="cp_6_stick-6_zisng81mlq7es-stroke">
                    <g>
                        <path d="M10.004,274L10.004,10" style="fill:none;stroke:rgb(44,44,44);stroke-width:2px;"/>
                    </g>
                </g>
            </g>
            <g id="g-root-cp_4_text-4_m7c52w1mlq8zq-stroke" transform="matrix(1,0,0,1,290,194)">
                <g id="cp_4_text-4_m7c52w1mlq8zq-stroke">
                    <g>
                        <path d="M238,118L238,10L10,10L10,118" style="fill:none;stroke:rgb(44,44,44);stroke-width:2px;"/>
                    </g>
                </g>
            </g>
            <g id="g-root-cp_4_stick-4_4golo81mlq874-stroke" transform="matrix(1,0,0,1,290,302)">
                <g id="cp_4_stick-4_4golo81mlq874-stroke">
                    <g>
                        <path d="M10.004,166L10.004,10" style="fill:none;stroke:rgb(44,44,44);stroke-width:2px;"/>
                    </g>
                </g>
            </g>
            <g id="g-root-cp_2_text-2_m97kc81mlq802-stroke" transform="matrix(1,0,0,1,302,302)">
                <g id="cp_2_text-2_m97kc81mlq802-stroke">
                    <g>
                        <path d="M10,118L10,10L238,10L238,118L22,118" style="fill:none;stroke:rgb(44,44,44);stroke-width:2px;"/>
                    </g>
                </g>
            </g>
            <g id="g-root-cp_2_stick-2_2qit41mlq77w-stroke" transform="matrix(1,0,0,1,302,386)">
                <g id="cp_2_stick-2_2qit41mlq77w-stroke">
                    <g>
                        <path d="M10.004,82L10.004,10M22,82L22,34" style="fill:none;stroke:rgb(44,44,44);stroke-width:2px;"/>
                    </g>
                </g>
            </g>
            <g id="g-root-cp_0_g-0_1hckkag1mlq9dy-stroke" transform="matrix(1,0,0,1,242,458)">
                <g id="cp_0_g-0_1hckkag1mlq9dy-stroke">
                    <g>
                        <path d="M33.994,61L46.01,86L58.005,61L33.994,61Z" style="fill:none;stroke:rgb(44,44,44);stroke-width:2px;"/>
                    </g>
                </g>
                <g id="cp_0_g-0_1hckkag1mlq9dy-stroke1" serif:id="cp_0_g-0_1hckkag1mlq9dy-stroke">
                    <g>
                        <path d="M82,10L10,10L34,61L58.001,61L82,10Z" style="fill:none;stroke:rgb(44,44,44);stroke-width:2px;"/>
                    </g>
                </g>
            </g>
            <g id="g-root-ic_2_zqachk1mlt1xm-stroke" transform="matrix(1,0,0,1,218,194)">
                <g id="ic_2_zqachk1mlt1xm-stroke">
                    <g>
                        <path d="M38.5,36.25L42.25,36.25L42.25,27.25C42.25,25.593 40.907,24.25 39.25,24.25L34.75,24.25L34.75,15.796M21.25,15.796L21.25,24.25L16.75,24.25C15.093,24.25 13.75,25.593 13.75,27.25L13.75,36.25L17.5,36.25M19.75,16.75L28,11.5L36.25,16.75M25,20.5C25,22.157 26.343,23.5 28,23.5C29.657,23.5 31,22.157 31,20.5C31,18.843 29.657,17.5 28,17.5C26.343,17.5 25,18.843 25,20.5M22,44.5L25,32.5M31,32.5L34,44.5M20.5,43.265L35.5,43.265M22,38.5L34,38.5M23.5,33.928L32.5,33.928" style="fill:none;stroke:rgb(44,44,44);stroke-width:2px;"/>
                    </g>
                </g>
            </g>
            <g id="g-root-ic_2_3zk541mlj6dm-stroke" transform="matrix(1,0,0,1,302,206)">
                <g id="ic_2_3zk541mlj6dm-stroke">
                    <g>
                        <path d="M10.75,35.677C10.75,37.9 12.552,39.702 14.775,39.702C16.997,39.702 18.799,37.9 18.799,35.677C18.799,33.454 16.997,31.653 14.775,31.653C12.552,31.653 10.75,33.454 10.75,35.677M21.122,45.042C20.3,43.116 18.648,41.668 16.631,41.105C14.614,40.542 12.45,40.926 10.75,42.148M37.201,35.677C37.201,37.9 39.003,39.702 41.226,39.702C43.448,39.702 45.25,37.9 45.25,35.677C45.25,33.454 43.448,31.653 41.226,31.653C39.003,31.653 37.201,33.454 37.201,35.677M34.877,45.042C35.7,43.116 37.352,41.668 39.369,41.105C41.386,40.542 43.55,40.926 45.25,42.148M22.825,34.527C22.824,37.385 25.141,39.703 28,39.703C30.859,39.703 33.176,37.385 33.175,34.527C33.176,31.668 30.859,29.35 28,29.35C25.141,29.35 22.824,31.668 22.825,34.527M34.877,45.042C33.115,43.105 30.618,42.002 28,42.002C25.382,42.002 22.885,43.105 21.122,45.041M25.701,21.309C25.701,22.578 26.73,23.608 28,23.608C29.27,23.608 30.299,22.578 30.299,21.309C30.299,20.039 29.27,19.009 28,19.009C26.73,19.009 25.701,20.039 25.701,21.309M23.569,26.933L21.31,27.457C20.432,27.653 19.529,27.255 19.082,26.475C18.635,25.695 18.747,24.715 19.36,24.056L20.937,22.352C21.482,21.763 21.482,20.852 20.937,20.263L19.357,18.56C18.745,17.902 18.633,16.922 19.08,16.142C19.527,15.362 20.429,14.964 21.307,15.159L23.566,15.682C24.349,15.861 25.136,15.402 25.366,14.632L26.05,12.411C26.309,11.548 27.103,10.957 28.004,10.957C28.904,10.957 29.698,11.548 29.958,12.411L30.636,14.638C30.865,15.408 31.653,15.867 32.436,15.688L34.686,15.165C35.563,14.97 36.465,15.368 36.912,16.148C37.359,16.928 37.247,17.908 36.635,18.567L35.062,20.263C34.517,20.853 34.517,21.762 35.062,22.352L36.643,24.056C37.256,24.715 37.368,25.695 36.921,26.475C36.474,27.255 35.571,27.653 34.693,27.457L32.443,26.933M23.95,31.3C26.49,33.531 29.797,34.686 33.174,34.522M11.614,33.193C13.6,34.915 16.175,35.805 18.801,35.677M38.063,33.193C40.05,34.915 42.624,35.805 45.25,35.677" style="fill:none;stroke:rgb(44,44,44);stroke-width:2px;"/>
                    </g>
                </g>
            </g>
            <g id="g-root-ic_sign_18n6awo1mlvuvc-stroke" transform="matrix(1,0,0,1,206,302)">
                <g id="ic_sign_18n6awo1mlvuvc-stroke">
                    <g>
                        <path d="M20.5,27.25L17.5,45.25M23.5,10.75L22,18.25M35.5,27.25L38.5,45.25M32.5,10.75L34,18.25M28,39.25L28,45.25M28,28.75L28,33.25M28,10.75L28,12.25M16.645,24.877C16.705,24.515 17.018,24.25 17.385,24.25L38.614,24.25C38.981,24.25 39.293,24.515 39.353,24.877L40.647,32.623C40.707,32.985 41.019,33.25 41.386,33.25L44.5,33.25C44.914,33.25 45.25,32.914 45.25,32.5L45.25,19C45.25,18.586 44.914,18.25 44.5,18.25L11.5,18.25C11.086,18.25 10.75,18.586 10.75,19L10.75,32.5C10.75,32.914 11.086,33.25 11.5,33.25L14.615,33.25C14.982,33.25 15.295,32.985 15.355,32.623L16.645,24.877Z" style="fill:none;stroke:rgb(44,44,44);stroke-width:2px;"/>
                    </g>
                </g>
            </g>
            <g id="g-root-ic_lock_1urrx6g1mm00sv-stroke" transform="matrix(1,0,0,1,290,74)">
                <g id="ic_lock_1urrx6g1mm00sv-stroke">
                    <g>
                        <path d="M31.75,33.251L45.25,33.251L45.25,45.25L31.75,45.25L31.75,33.251ZM36.625,39.344C36.625,40.38 37.464,41.219 38.5,41.219C39.536,41.219 40.375,40.38 40.375,39.344C40.375,38.309 39.536,37.469 38.5,37.469C37.464,37.469 36.625,38.309 36.625,39.344ZM42.25,31C42.25,28.929 40.571,27.25 38.5,27.25C36.429,27.25 34.75,28.929 34.75,31L34.75,33.25L42.25,33.25L42.25,31ZM21.25,45.25L10.75,45.25L10.75,24.25C10.75,23.422 11.422,22.75 12.25,22.75L19.75,22.75C20.578,22.75 21.25,23.422 21.25,24.25L21.25,45.25ZM19.75,22.75L19.75,17.237C19.751,16.94 19.927,16.671 20.2,16.552L32.2,11.218C32.432,11.117 32.698,11.139 32.91,11.277C33.122,11.415 33.249,11.651 33.25,11.903L33.25,26.5M18.25,45.25L18.25,41.5C18.25,41.086 17.914,40.75 17.5,40.75L14.5,40.75C14.086,40.75 13.75,41.086 13.75,41.5L13.75,45.25M10.75,27.25L16.75,27.25M28.75,18.25L33.25,18.25M25.75,21.25L33.25,21.25M10.75,30.25L13.75,30.25M22.75,15.416L22.75,10.75M21.25,45.25L28.75,45.25" style="fill:none;stroke:rgb(44,44,44);stroke-width:2px;"/>
                    </g>
                </g>
            </g>
            <g id="g-root-ic_moni_1qbbxyw1mlq8zw-stroke" transform="matrix(1,0,0,1,230,62)">
                <g id="ic_moni_1qbbxyw1mlq8zw-stroke">
                    <g>
                        <path d="M33.325,44.875L22.825,44.875L24.325,38.125L31.825,38.125L33.325,44.875ZM19.075,44.875L37.075,44.875M44.875,33.625C44.875,36.175 42.925,38.125 40.375,38.125L15.625,38.125C13.075,38.125 11.125,36.175 11.125,33.625L11.125,15.625C11.125,13.075 13.075,11.125 15.625,11.125L40.375,11.125C42.925,11.125 44.875,13.075 44.875,15.625L44.875,33.625ZM28.075,11.125L28.075,38.125M11.125,24.175L44.875,24.175M15.625,19.225L18.325,16.675L20.575,18.925L23.575,15.925M32.125,15.625L34.825,18.925L37.825,16.225L40.375,19.225M16.075,33.175L17.875,29.725L21.625,29.725L23.575,28.225M32.125,32.125L34.825,29.425L37.825,32.425L40.825,29.425" style="fill:none;stroke:rgb(44,44,44);stroke-width:2px;"/>
                    </g>
                </g>
            </g>
            <g id="g-root-ic_text_1d2zw6w1mlkm4i-stroke" transform="matrix(1,0,0,1,314,314)">
                <g id="ic_text_1d2zw6w1mlkm4i-stroke">
                    <g>
                        <path d="M35.125,11.125C36.775,11.125 38.125,12.475 38.125,14.125L38.125,18.025L11.125,18.025L11.125,14.125C11.125,12.475 12.475,11.125 14.125,11.125L35.125,11.125ZM20.125,18.025L20.125,35.725L14.125,35.725C12.475,35.725 11.125,34.375 11.125,32.725L11.125,18.025L20.125,18.025ZM11.125,27.025L20.125,27.025M23.875,35.725L20.125,35.725M20.125,27.025L23.875,27.025M44.875,43.375C44.875,44.275 44.275,44.875 43.375,44.875L29.875,44.875C28.975,44.875 28.375,44.275 28.375,43.375L28.375,26.875C28.375,25.975 28.975,25.375 29.875,25.375L38.275,25.375C38.725,25.375 39.025,25.525 39.325,25.825L44.425,30.925C44.725,31.225 44.875,31.525 44.875,31.975L44.875,43.375ZM35.875,34.375L39.625,34.375M33.625,38.875L39.625,38.875M29.125,18.025L29.125,20.275M38.125,18.025L38.125,20.275" style="fill:none;stroke:rgb(44,44,44);stroke-width:2px;"/>
                    </g>
                </g>
            </g>
        </g>
    </g>
</svg>
