<?xml version="1.0" encoding="UTF-8" standalone="no"?>
<!DOCTYPE svg PUBLIC "-//W3C//DTD SVG 1.1//EN" "http://www.w3.org/Graphics/SVG/1.1/DTD/svg11.dtd">
<svg width="100%" height="100%" viewBox="0 0 600 636" version="1.1" xmlns="http://www.w3.org/2000/svg" xmlns:xlink="http://www.w3.org/1999/xlink" xml:space="preserve" xmlns:serif="http://www.serif.com/" style="fill-rule:evenodd;clip-rule:evenodd;stroke-linecap:round;stroke-linejoin:round;">
    <g id="items" transform="matrix(1.2319,0,0,1.2319,-69.5702,-108.342)">
        <g id="blend">
            <g id="g-root-cp_1_sign-1_i0wa881nfrsau-fill" transform="matrix(1,0,0,1,65,122)">
                <g id="cp_1_sign-1_i0wa881nfrsau-fill">
                    <g>
                        <path d="M10,52L28,10L28,94L10,52ZM28,10L213,10L213,94L28,94L28,10Z" style="fill:rgb(79,145,252);"/>
                    </g>
                </g>
            </g>
            <g id="g-root-cp_3_sign-3_1q5q7601nft6o8-fill" transform="matrix(1,0,0,1,53,218)">
                <g id="cp_3_sign-3_1q5q7601nft6o8-fill">
                    <g>
                        <path d="M10,52L28,10L28,94L10,52ZM28,10L225,10L225,94L28,94L28,10Z" style="fill:rgb(166,218,55);"/>
                    </g>
                </g>
            </g>
            <g id="g-root-cp_5_sign-5_1cu9oso1nft896-fill" transform="matrix(1,0,0,1,89,314)">
                <g id="cp_5_sign-5_1cu9oso1nft896-fill">
                    <g>
                        <path d="M10,52L28,10L28,94L10,52ZM28,10L189,10L189,94L28,94L28,10Z" style="fill:rgb(251,103,98);"/>
                    </g>
                </g>
            </g>
            <g id="g-root-cp_pole_g-pole_v3m5e01nft7gk-fill" transform="matrix(1,0,0,1,266,98)">
                <g id="cp_pole_g-pole_v3m5e01nft7gk-fill">
                    <g>
                        <path d="M31,370L13,370L13,484L31,484L31,483.897L24.55,483.88C24.55,483.88 25.3,477.89 17.74,476.78C25.63,473.53 28.41,478.56 28.41,478.56C28.41,478.56 27.994,471.986 31,466.2L31,370ZM13,22L31,22L31,370L13,370L13,22Z" style="fill:rgb(171,171,171);"/>
                    </g>
                </g>
                <g id="cp_pole_g-pole_v3m5e01nft7gk-fill1" serif:id="cp_pole_g-pole_v3m5e01nft7gk-fill">
                    <g>
                        <rect x="10" y="10" width="24" height="12" style="fill:rgb(171,171,171);"/>
                    </g>
                </g>
            </g>
            <g id="g-root-cp_pole_plant_hs5n0o1nft91j-fill" transform="matrix(1,0,0,1,234,547)">
                <g id="cp_pole_plant_hs5n0o1nft91j-fill">
                    <g>
                        <path d="M60.393,29.56C60.393,29.56 57.613,24.53 49.723,27.78C54.516,28.484 57.019,30.471 56.533,35.008L10,35.008C10,35.008 17.976,46.521 54.183,46.521C90.39,46.521 97.76,35.008 97.76,35.008L71.483,35.008C68.788,30.384 74.815,23.86 80.883,26.67C78.883,23.56 72.993,22.89 68.553,26C66.693,20.52 67.443,13.77 70.613,10C59.453,14.7 60.393,29.56 60.393,29.56Z" style="fill:rgb(145,187,57);"/>
                    </g>
                </g>
            </g>
            <g id="g-root-cp_2_sign-2_4hblqg1nft7gp-fill" transform="matrix(1,0,0,1,288,158)">
                <g id="cp_2_sign-2_4hblqg1nft7gp-fill">
                    <g>
                        <path d="M10,10L231,10L231,94L10,94L10,10ZM249,52L231,10L231,94L249,52Z" style="fill:rgb(67,221,147);"/>
                    </g>
                </g>
            </g>
            <g id="g-root-cp_4_sign-4_1q6z5c81nft8uj-fill" transform="matrix(1,0,0,1,288,254)">
                <g id="cp_4_sign-4_1q6z5c81nft8uj-fill">
                    <g>
                        <path d="M10,10L171,10L171,118L10,118L10,10ZM189,64L171,10L171,118L189,64Z" style="fill:rgb(255,231,17);"/>
                    </g>
                </g>
            </g>
            <g id="g-root-cp_6_sign-6_18gblxk1nft81x-fill" transform="matrix(1,0,0,1,288,374)">
                <g id="cp_6_sign-6_18gblxk1nft81x-fill">
                    <g>
                        <path d="M10,10L195,10L195,94L10,94L10,10ZM213,52L195,10L195,94L213,52Z" style="fill:rgb(247,148,56);"/>
                    </g>
                </g>
            </g>
            <g id="g-root-tx_efficien_909hag1nfvzep-fill" transform="matrix(1,0,0,1,137,140)">
                <g id="tx_efficien_909hag1nfvzep-fill">
                    <g>
                        <g>
                            <g transform="matrix(1,0,0,1,17.43,34)">
                                <g transform="matrix(20,0,0,20,13.3398,0)">
                                </g>
                                <g transform="matrix(20,0,0,20,18.7186,0)">
                                </g>
                                <g transform="matrix(20,0,0,20,24.0973,0)">
                                </g>
                                <text x="0px" y="0px" style="font-family:'ArialMT', 'Arial', sans-serif;font-size:20px;fill:rgb(44,44,44);">Eﬃcient Call</text>
                            </g>
                            <g transform="matrix(1,0,0,1,48.5,58)">
                                <text x="0px" y="0px" style="font-family:'ArialMT', 'Arial', sans-serif;font-size:20px;fill:rgb(44,44,44);">Handling</text>
                            </g>
                        </g>
                    </g>
                </g>
            </g>
            <g id="g-root-tx_realtime_dcyp541nfhxxe-fill" transform="matrix(1,0,0,1,299,176)">
                <g id="tx_realtime_dcyp541nfhxxe-fill">
                    <g>
                        <g>
                            <g transform="matrix(1,0,0,1,12,34)">
                                <g transform="matrix(20,0,0,20,125.947,0)">
                                </g>
                                <g transform="matrix(20,0,0,20,131.326,0)">
                                </g>
                                <g transform="matrix(20,0,0,20,136.705,0)">
                                </g>
                                <text x="0px" y="0px" style="font-family:'ArialMT', 'Arial', sans-serif;font-size:20px;fill:rgb(44,44,44);">Real-T<tspan x="59.268px 63.711px " y="0px 0px ">im</tspan>e <tspan x="96.689px 108.164px 114.824px " y="0px 0px 0px ">Tra</tspan>ﬃc</text>
                            </g>
                            <g transform="matrix(1,0,0,1,12,58)">
                                <text x="0px" y="0px" style="font-family:'ArialMT', 'Arial', sans-serif;font-size:20px;fill:rgb(44,44,44);">Control</text>
                            </g>
                        </g>
                    </g>
                </g>
            </g>
            <g id="g-root-tx_endtoend_18fp4ug1nfytj8-fill" transform="matrix(1,0,0,1,125,236)">
                <g id="tx_endtoend_18fp4ug1nfytj8-fill">
                    <g>
                        <g>
                            <g transform="matrix(1,0,0,1,43.78,34)">
                                <text x="0px" y="0px" style="font-family:'ArialMT', 'Arial', sans-serif;font-size:20px;fill:rgb(44,44,44);">End-to-End</text>
                            </g>
                            <g transform="matrix(1,0,0,1,22.15,58)">
                                <text x="0px" y="0px" style="font-family:'ArialMT', 'Arial', sans-serif;font-size:20px;fill:rgb(44,44,44);">Management</text>
                            </g>
                        </g>
                    </g>
                </g>
            </g>
            <g id="g-root-tx_improved_qn69c81nfktfp-fill" transform="matrix(1,0,0,1,299,272)">
                <g id="tx_improved_qn69c81nfktfp-fill">
                    <g>
                        <g>
                            <g transform="matrix(1,0,0,1,12,34)">
                                <text x="0px" y="0px" style="font-family:'ArialMT', 'Arial', sans-serif;font-size:20px;fill:rgb(44,44,44);">Improved</text>
                            </g>
                            <g transform="matrix(1,0,0,1,12,58)">
                                <text x="0px" y="0px" style="font-family:'ArialMT', 'Arial', sans-serif;font-size:20px;fill:rgb(44,44,44);">Revenue</text>
                            </g>
                            <g transform="matrix(1,0,0,1,12,82)">
                                <text x="0px" y="0px" style="font-family:'ArialMT', 'Arial', sans-serif;font-size:20px;fill:rgb(44,44,44);">T<tspan x="11.475px 18.135px " y="0px 0px ">ra</tspan>cking</text>
                            </g>
                        </g>
                    </g>
                </g>
            </g>
            <g id="g-root-tx_enhanced_1cuw5vs1ng1mof-fill" transform="matrix(1,0,0,1,161,332)">
                <g id="tx_enhanced_1cuw5vs1ng1mof-fill">
                    <g>
                        <g>
                            <g transform="matrix(1,0,0,1,16.28,34)">
                                <text x="0px" y="0px" style="font-family:'ArialMT', 'Arial', sans-serif;font-size:20px;fill:rgb(44,44,44);">Enhanced</text>
                            </g>
                            <g transform="matrix(1,0,0,1,32.35,58)">
                                <text x="0px" y="0px" style="font-family:'ArialMT', 'Arial', sans-serif;font-size:20px;fill:rgb(44,44,44);">Security</text>
                            </g>
                        </g>
                    </g>
                </g>
            </g>
            <g id="g-root-tx_customde_1hapr601nfnmdc-fill" transform="matrix(1,0,0,1,299,392)">
                <g id="tx_customde_1hapr601nfnmdc-fill">
                    <g>
                        <g>
                            <g transform="matrix(1,0,0,1,12,34)">
                                <text x="0px" y="0px" style="font-family:'ArialMT', 'Arial', sans-serif;font-size:20px;fill:rgb(44,44,44);">Custom</text>
                            </g>
                            <g transform="matrix(1,0,0,1,12,58)">
                                <text x="0px" y="0px" style="font-family:'ArialMT', 'Arial', sans-serif;font-size:20px;fill:rgb(44,44,44);">Deployment</text>
                            </g>
                        </g>
                    </g>
                </g>
            </g>
            <g id="g-root-cp_1_sign-1_i0wa881nfrsau-stroke" transform="matrix(1,0,0,1,65,122)">
                <g id="cp_1_sign-1_i0wa881nfrsau-stroke">
                    <g>
                        <path d="M28,10L213,10M213,94L28,94M28,94L10,52L28,10" style="fill:none;stroke:rgb(44,44,44);stroke-width:2px;"/>
                    </g>
                </g>
            </g>
            <g id="g-root-cp_3_sign-3_1q5q7601nft6o8-stroke" transform="matrix(1,0,0,1,53,218)">
                <g id="cp_3_sign-3_1q5q7601nft6o8-stroke">
                    <g>
                        <path d="M28,10L225,10M225,94L28,94M28,94L10,52L28,10" style="fill:none;stroke:rgb(44,44,44);stroke-width:2px;"/>
                    </g>
                </g>
            </g>
            <g id="g-root-cp_5_sign-5_1cu9oso1nft896-stroke" transform="matrix(1,0,0,1,89,314)">
                <g id="cp_5_sign-5_1cu9oso1nft896-stroke">
                    <g>
                        <path d="M28,10L189,10M189,94L28,94M28,94L10,52L28,10" style="fill:none;stroke:rgb(44,44,44);stroke-width:2px;"/>
                    </g>
                </g>
            </g>
            <g id="g-root-cp_pole_g-pole_v3m5e01nft7gk-stroke" transform="matrix(1,0,0,1,266,98)">
                <g id="cp_pole_g-pole_v3m5e01nft7gk-stroke">
                    <g>
                        <path d="M31,466L31,370M13,483L13,370M31,370L31,22M13,370L13,22" style="fill:none;stroke:rgb(44,44,44);stroke-width:2px;"/>
                    </g>
                </g>
                <g id="cp_pole_g-pole_v3m5e01nft7gk-stroke1" serif:id="cp_pole_g-pole_v3m5e01nft7gk-stroke">
                    <g>
                        <rect x="10" y="10" width="24" height="12" style="fill:none;stroke:rgb(44,44,44);stroke-width:2px;"/>
                    </g>
                </g>
            </g>
            <g id="g-root-cp_pole_plant_hs5n0o1nft91j-stroke" transform="matrix(1,0,0,1,234,547)">
                <g id="cp_pole_plant_hs5n0o1nft91j-stroke">
                    <g>
                        <path d="M56.55,34.88C56.55,34.88 57.3,28.89 49.74,27.78C57.63,24.53 60.41,29.56 60.41,29.56C60.41,29.56 59.47,14.7 70.63,10C67.46,13.77 66.71,20.52 68.57,26C73.01,22.89 78.9,23.56 80.9,26.67C76.68,24.44 69.89,28.468 71,34.918M71,34.918L98,34.918M10,34.918L56.5,34.918" style="fill:none;stroke:rgb(44,44,44);stroke-width:2px;"/>
                    </g>
                </g>
            </g>
            <g id="g-root-cp_2_sign-2_4hblqg1nft7gp-stroke" transform="matrix(1,0,0,1,288,158)">
                <g id="cp_2_sign-2_4hblqg1nft7gp-stroke">
                    <g>
                        <path d="M231,94L10,94M10,10L231,10M231,10L249,52L231,94" style="fill:none;stroke:rgb(44,44,44);stroke-width:2px;"/>
                    </g>
                </g>
            </g>
            <g id="g-root-cp_4_sign-4_1q6z5c81nft8uj-stroke" transform="matrix(1,0,0,1,288,254)">
                <g id="cp_4_sign-4_1q6z5c81nft8uj-stroke">
                    <g>
                        <path d="M171,118L10,118M10,10L171,10M171,10L189,64L171,118" style="fill:none;stroke:rgb(44,44,44);stroke-width:2px;"/>
                    </g>
                </g>
            </g>
            <g id="g-root-cp_6_sign-6_18gblxk1nft81x-stroke" transform="matrix(1,0,0,1,288,374)">
                <g id="cp_6_sign-6_18gblxk1nft81x-stroke">
                    <g>
                        <path d="M195,94L10,94M10,10L195,10M195,10L213,52L195,94" style="fill:none;stroke:rgb(44,44,44);stroke-width:2px;"/>
                    </g>
                </g>
            </g>
            <g id="g-root-ic_cog_1cy0jbc1nft6a0-stroke" transform="matrix(1,0,0,1,89,146)">
                <g id="ic_cog_1cy0jbc1nft6a0-stroke">
                    <g>
                        <path d="M22.6,27.618C22.6,24.635 25.018,22.218 28,22.218C30.982,22.218 33.4,24.635 33.4,27.618M16.705,33.085L16.687,33.085C13.672,33.756 11.528,36.431 11.528,39.52L11.528,40.824C11.528,41.406 11.759,41.965 12.171,42.377C12.583,42.789 13.142,43.02 13.725,43.02L19.215,43.02C20.428,43.02 21.412,42.037 21.412,40.824C21.412,39.611 22.395,38.627 23.608,38.627L32.392,38.627C33.605,38.627 34.588,39.611 34.588,40.824C34.588,42.037 35.572,43.02 36.786,43.02L42.276,43.02C42.858,43.02 43.417,42.789 43.829,42.377C44.241,41.965 44.472,41.406 44.472,40.824L44.472,39.52C44.471,36.432 42.327,33.759 39.313,33.088L39.295,33.088C31.834,31.643 24.166,31.642 16.705,33.085ZM42.324,30.637C42.532,29.645 42.638,28.633 42.638,27.619C42.638,27.024 42.602,26.429 42.529,25.839C42.446,25.123 41.871,24.565 41.154,24.504L39.042,24.331C38.819,23.568 38.518,22.831 38.141,22.131L39.508,20.521C39.962,20 39.995,19.235 39.586,18.677C38.822,17.689 37.935,16.802 36.946,16.038C36.389,15.628 35.622,15.661 35.103,16.117L33.493,17.482C32.793,17.107 32.056,16.806 31.294,16.582L31.12,14.472C31.059,13.754 30.501,13.178 29.785,13.095C28.603,12.95 27.409,12.95 26.227,13.095C25.511,13.178 24.953,13.754 24.892,14.472L24.712,16.576C23.95,16.8 23.213,17.101 22.513,17.476L20.904,16.111C20.382,15.657 19.616,15.626 19.06,16.038C18.071,16.802 17.184,17.689 16.42,18.677C16.011,19.235 16.044,20 16.498,20.521L17.865,22.131C17.488,22.831 17.187,23.568 16.965,24.331L14.852,24.504C14.135,24.565 13.56,25.123 13.477,25.839C13.404,26.429 13.368,27.024 13.368,27.619C13.368,28.633 13.474,29.645 13.682,30.637" style="fill:none;stroke:rgb(44,44,44);stroke-width:2px;"/>
                    </g>
                </g>
            </g>
            <g id="g-root-ic_2_1lrs4aw1ng1o1s-stroke" transform="matrix(1,0,0,1,467,182)">
                <g id="ic_2_1lrs4aw1ng1o1s-stroke">
                    <g>
                        <path d="M29.125,36.625L15.625,36.625L17.725,32.275C18.175,31.225 19.225,30.625 20.425,30.625L24.775,30.625C25.975,30.625 27.175,31.375 27.625,32.575L29.125,36.625ZM14.875,42.625L12.625,42.625C11.725,42.625 11.125,42.025 11.125,41.125L11.125,39.625C11.125,37.975 12.475,36.625 14.125,36.625L30.625,36.625C32.275,36.625 33.625,37.975 33.625,39.625L33.625,41.125C33.625,42.025 33.025,42.625 32.125,42.625L29.875,42.625M25.375,42.625L19.375,42.625M17.125,44.875C18.368,44.875 19.375,43.868 19.375,42.625C19.375,41.382 18.368,40.375 17.125,40.375C15.882,40.375 14.875,41.382 14.875,42.625C14.875,43.868 15.882,44.875 17.125,44.875ZM27.625,44.875C28.868,44.875 29.875,43.868 29.875,42.625C29.875,41.382 28.868,40.375 27.625,40.375C26.382,40.375 25.375,41.382 25.375,42.625C25.375,43.868 26.382,44.875 27.625,44.875ZM36.1,11.708L38.05,15.908L41.8,15.908C42.7,15.908 43,16.958 42.4,17.558L39.1,20.708L40.9,24.908C41.2,25.808 40.3,26.558 39.55,26.108L35.2,23.558L30.85,25.958C30.1,26.408 29.05,25.658 29.5,24.758L31.3,20.558L28,17.408C27.4,16.808 27.7,15.758 28.6,15.758L32.35,15.758L34.3,11.558C34.6,10.958 35.65,10.958 36.1,11.708ZM36.475,44.875L38.875,34.075C39.025,33.325 39.625,32.875 40.375,32.875L40.975,32.875C41.725,32.875 42.325,33.325 42.475,34.075L44.875,44.875M38.05,40.375L43.3,40.375" style="fill:none;stroke:rgb(44,44,44);stroke-width:2px;"/>
                    </g>
                </g>
            </g>
            <g id="g-root-ic_netw_143mh8o1nfw0si-stroke" transform="matrix(1,0,0,1,77,242)">
                <g id="ic_netw_143mh8o1nfw0si-stroke">
                    <g>
                        <path d="M28,37L28,44.714M15.143,44.714L40.857,44.714M15.143,24.143C15.143,31.244 20.899,37 28,37C35.101,37 40.857,31.244 40.857,24.143C40.857,17.042 35.101,11.286 28,11.286C20.899,11.286 15.143,17.042 15.143,24.143M15.143,24.143L40.857,24.143M28,37C35.714,28.206 35.714,19.617 28,11.286C20.44,19.309 20.286,27.846 28,37Z" style="fill:none;stroke:rgb(44,44,44);stroke-width:2px;"/>
                    </g>
                </g>
            </g>
            <g id="g-root-ic_cash_hu15fs1nfhzb7-stroke" transform="matrix(1,0,0,1,407,290)">
                <g id="ic_cash_hu15fs1nfhzb7-stroke">
                    <g>
                        <path d="M25.735,45.271L12.235,45.271C11.407,45.271 10.735,44.599 10.735,43.771L10.735,12.271C10.735,11.443 11.407,10.771 12.235,10.771L32.175,10.771C32.572,10.771 32.954,10.929 33.235,11.211L38.8,16.771C39.081,17.052 39.239,17.434 39.24,17.832L39.24,22.771M15.235,33.271L24.235,33.271M17.485,25.771L18.985,25.771C19.399,25.771 19.735,26.107 19.735,26.521L19.735,33.271L16.735,33.271L16.735,26.521C16.735,26.107 17.071,25.771 17.485,25.771ZM25.735,28.771L25.735,22.021C25.735,21.607 25.399,21.271 24.985,21.271L23.485,21.271C23.071,21.271 22.735,21.607 22.735,22.021L22.735,33.271M38.485,31.771L35.436,31.771C34.47,31.77 33.64,32.454 33.457,33.402C33.274,34.35 33.789,35.294 34.685,35.653L37.78,36.89C38.674,37.25 39.188,38.194 39.005,39.14C38.822,40.086 37.994,40.77 37.03,40.771L33.985,40.771M36.235,42.271L36.235,40.771M36.235,31.771L36.235,30.271M27.235,36.271C27.235,41.242 31.264,45.271 36.235,45.271C41.206,45.271 45.235,41.242 45.235,36.271C45.235,31.3 41.206,27.271 36.235,27.271C31.264,27.271 27.235,31.3 27.235,36.271Z" style="fill:none;stroke:rgb(44,44,44);stroke-width:2px;"/>
                    </g>
                </g>
            </g>
            <g id="g-root-ic_4_1uo1lmw1nfysjx-stroke" transform="matrix(1,0,0,1,113,338)">
                <g id="ic_4_1uo1lmw1nfysjx-stroke">
                    <g>
                        <path d="M28.926,44.534C28.33,44.764 27.67,44.764 27.074,44.534C17.558,40.881 11.28,31.739 11.286,21.546L11.286,14.834C11.283,14.256 11.659,13.744 12.211,13.574C22.515,10.515 33.485,10.515 43.789,13.574C44.341,13.744 44.717,14.256 44.714,14.834L44.714,21.546C44.72,31.739 38.442,40.881 28.926,44.534L28.926,44.534Z" style="fill:none;stroke:rgb(44,44,44);stroke-width:2px;"/>
                    </g>
                </g>
            </g>
            <g id="g-root-ic_2_1q6z8i01nfkqvi-stroke" transform="matrix(1,0,0,1,431,398)">
                <g id="ic_2_1q6z8i01nfkqvi-stroke">
                    <g>
                        <path d="M39.25,33.625L44.217,28.659C44.638,28.237 44.875,27.664 44.875,27.068C44.875,26.471 44.638,25.899 44.217,25.477L41.05,22.318C40.692,23.168 40.131,23.916 39.415,24.498C38.7,25.08 37.852,25.477 36.947,25.654C36.042,25.831 35.107,25.783 34.225,25.514C33.343,25.245 32.541,24.763 31.889,24.111C31.237,23.459 30.755,22.657 30.486,21.775C30.217,20.893 30.169,19.958 30.346,19.053C30.523,18.148 30.92,17.301 31.502,16.585C32.084,15.87 32.832,15.308 33.682,14.95L30.523,11.784C30.101,11.362 29.529,11.125 28.932,11.125C28.336,11.125 27.763,11.362 27.342,11.784L22.375,16.75C22.375,15.637 22.045,14.55 21.427,13.625C20.809,12.7 19.931,11.979 18.903,11.553C17.875,11.127 16.744,11.016 15.653,11.233C14.562,11.45 13.559,11.986 12.773,12.773C11.986,13.559 11.45,14.561 11.233,15.653C11.016,16.744 11.128,17.875 11.553,18.903C11.979,19.93 12.7,20.809 13.625,21.427C14.55,22.045 15.638,22.375 16.75,22.375L11.784,27.341C11.362,27.763 11.125,28.336 11.125,28.932C11.125,29.529 11.362,30.101 11.784,30.523L14.95,33.682C15.308,32.832 15.87,32.084 16.585,31.502C17.301,30.92 18.148,30.523 19.053,30.346C19.958,30.169 20.893,30.217 21.775,30.486C22.657,30.755 23.459,31.237 24.111,31.889C24.763,32.541 25.245,33.343 25.514,34.225C25.783,35.107 25.831,36.042 25.654,36.947C25.477,37.852 25.08,38.699 24.498,39.415C23.916,40.13 23.168,40.692 22.318,41.05L25.477,44.21C25.899,44.632 26.471,44.869 27.068,44.869C27.664,44.869 28.237,44.632 28.659,44.21L33.625,39.25C33.625,40.363 33.955,41.45 34.573,42.375C35.191,43.3 36.07,44.021 37.097,44.447C38.125,44.873 39.256,44.984 40.347,44.767C41.439,44.55 42.441,44.014 43.228,43.227C44.014,42.441 44.55,41.438 44.767,40.347C44.984,39.256 44.873,38.125 44.447,37.097C44.021,36.07 43.3,35.191 42.375,34.573C41.45,33.955 40.363,33.625 39.25,33.625Z" style="fill:none;stroke:rgb(44,44,44);stroke-width:2px;"/>
                    </g>
                </g>
            </g>
        </g>
    </g>
</svg>
