<?xml version="1.0" encoding="UTF-8" standalone="no"?>
<!DOCTYPE svg PUBLIC "-//W3C//DTD SVG 1.1//EN" "http://www.w3.org/Graphics/SVG/1.1/DTD/svg11.dtd">
<svg width="100%" height="100%" viewBox="0 0 576 683" version="1.1" xmlns="http://www.w3.org/2000/svg" xmlns:xlink="http://www.w3.org/1999/xlink" xml:space="preserve" xmlns:serif="http://www.serif.com/" style="fill-rule:evenodd;clip-rule:evenodd;stroke-linecap:round;stroke-linejoin:round;">
    <g id="items" transform="matrix(1.09778,0,0,1.09778,-28.1618,-43.6156)">
        <g id="blend">
            <g id="g-root-cp_9_text-9_hritbs1lrvmrv-fill" transform="matrix(1,0,0,1,50,62)">
                <g id="cp_9_text-9_hritbs1lrvmrv-fill">
                    <g>
                        <rect x="10" y="10" width="228" height="84" style="fill:rgb(135,105,253);"/>
                    </g>
                </g>
            </g>
            <g id="g-root-cp_9_stick-9_zk1rzs1lrvmkt-fill" transform="matrix(1,0,0,1,272,146)">
                <g id="cp_9_stick-9_zk1rzs1lrvmkt-fill">
                    <g>
                        <rect x="10" y="10" width="5.997" height="420" style="fill:rgb(135,105,253);"/>
                    </g>
                </g>
            </g>
            <g id="g-root-cp_7_text-7_4hxq7s1lrvnd3-fill" transform="matrix(1,0,0,1,44,146)">
                <g id="cp_7_text-7_4hxq7s1lrvnd3-fill">
                    <g>
                        <rect x="10" y="10" width="228" height="108" style="fill:rgb(166,218,55);"/>
                    </g>
                </g>
            </g>
            <g id="g-root-cp_7_stick-7_1cwr8jc1lrvn61-fill" transform="matrix(1,0,0,1,266,254)">
                <g id="cp_7_stick-7_1cwr8jc1lrvn61-fill">
                    <g>
                        <rect x="10" y="10" width="5.997" height="312" style="fill:rgb(166,218,55);"/>
                    </g>
                </g>
            </g>
            <g id="g-root-cp_5_text-5_magovs1lrvn63-fill" transform="matrix(1,0,0,1,38,254)">
                <g id="cp_5_text-5_magovs1lrvn63-fill">
                    <g>
                        <rect x="10" y="10" width="228" height="84" style="fill:rgb(203,104,249);"/>
                    </g>
                </g>
            </g>
            <g id="g-root-cp_5_stick-5_1upa77c1lrvmz1-fill" transform="matrix(1,0,0,1,260,338)">
                <g id="cp_5_stick-5_1upa77c1lrvmz1-fill">
                    <g>
                        <rect x="10" y="10" width="5.997" height="228" style="fill:rgb(203,104,249);"/>
                    </g>
                </g>
            </g>
            <g id="g-root-cp_3_text-3_142znjs1lrvmz3-fill" transform="matrix(1,0,0,1,32,338)">
                <g id="cp_3_text-3_142znjs1lrvmz3-fill">
                    <g>
                        <rect x="10" y="10" width="228" height="108" style="fill:rgb(255,231,17);"/>
                    </g>
                </g>
            </g>
            <g id="g-root-cp_3_stick-3_hwim0o1lrvmyp-fill" transform="matrix(1,0,0,1,254,446)">
                <g id="cp_3_stick-3_hwim0o1lrvmyp-fill">
                    <g>
                        <rect x="10" y="10" width="5.997" height="120" style="fill:rgb(255,231,17);"/>
                    </g>
                </g>
            </g>
            <g id="g-root-cp_1_text-1_4l23nc1lrvojn-fill" transform="matrix(1,0,0,1,26,446)">
                <g id="cp_1_text-1_4l23nc1lrvojn-fill">
                    <g>
                        <rect x="10" y="10" width="228" height="84" style="fill:rgb(251,103,98);"/>
                    </g>
                </g>
            </g>
            <g id="g-root-cp_1_stick-1_144v2t41lrvlzh-fill" transform="matrix(1,0,0,1,247.997,529)">
                <g id="cp_1_stick-1_144v2t41lrvlzh-fill">
                    <g>
                        <rect x="10.003" y="11" width="5.997" height="36" style="fill:rgb(251,103,98);"/>
                    </g>
                </g>
            </g>
            <g id="g-root-cp_10_text-10_mdl2bc1lrvocn-fill" transform="matrix(1,0,0,1,278,50)">
                <g id="cp_10_text-10_mdl2bc1lrvocn-fill">
                    <g>
                        <rect x="10" y="10" width="228" height="108" style="fill:rgb(183,183,183);"/>
                    </g>
                </g>
            </g>
            <g id="g-root-cp_10_stick-10_1usekmw1lrvo5l-fill" transform="matrix(1,0,0,1,278.003,158)">
                <g id="cp_10_stick-10_1usekmw1lrvo5l-fill">
                    <g>
                        <rect x="10" y="10" width="5.997" height="408" style="fill:rgb(183,183,183);"/>
                    </g>
                </g>
            </g>
            <g id="g-root-cp_8_text-8_1d1r1881lrvncz-fill" transform="matrix(1,0,0,1,284,158)">
                <g id="cp_8_text-8_1d1r1881lrvncz-fill">
                    <g>
                        <rect x="10" y="10" width="228" height="84" style="fill:rgb(26,195,251);"/>
                    </g>
                </g>
            </g>
            <g id="g-root-cp_8_stick-8_zqaiuw1lrvoxx-fill" transform="matrix(1,0,0,1,284.003,242)">
                <g id="cp_8_stick-8_zqaiuw1lrvoxx-fill">
                    <g>
                        <rect x="10" y="10" width="5.997" height="324" style="fill:rgb(26,195,251);"/>
                    </g>
                </g>
            </g>
            <g id="g-root-cp_6_text-6_djthbs1lrvo5r-fill" transform="matrix(1,0,0,1,290,242)">
                <g id="cp_6_text-6_djthbs1lrvo5r-fill">
                    <g>
                        <rect x="10" y="10" width="228" height="108" style="fill:rgb(243,102,187);"/>
                    </g>
                </g>
            </g>
            <g id="g-root-cp_6_stick-6_1uu9zw81lrvn61-fill" transform="matrix(1,0,0,1,290.003,350)">
                <g id="cp_6_stick-6_1uu9zw81lrvn61-fill">
                    <g>
                        <rect x="10" y="10" width="5.997" height="216" style="fill:rgb(243,102,187);"/>
                    </g>
                </g>
            </g>
            <g id="g-root-cp_4_text-4_1qeghrs1lrvnyb-fill" transform="matrix(1,0,0,1,296,350)">
                <g id="cp_4_text-4_1qeghrs1lrvnyb-fill">
                    <g>
                        <rect x="10" y="10" width="228" height="84" style="fill:rgb(247,148,56);"/>
                    </g>
                </g>
            </g>
            <g id="g-root-cp_4_stick-4_zs5y481lrvnyd-fill" transform="matrix(1,0,0,1,296.003,434)">
                <g id="cp_4_stick-4_zs5y481lrvnyd-fill">
                    <g>
                        <rect x="10" y="10" width="5.997" height="132" style="fill:rgb(247,148,56);"/>
                    </g>
                </g>
            </g>
            <g id="g-root-cp_2_text-2_m7cbg81lrx0xz-fill" transform="matrix(1,0,0,1,302,434)">
                <g id="cp_2_text-2_m7cbg81lrx0xz-fill">
                    <g>
                        <rect x="10" y="10" width="228" height="84" style="fill:rgb(67,221,147);"/>
                    </g>
                </g>
            </g>
            <g id="g-root-cp_2_stick-2_8vvt2w1lrx2ix-fill" transform="matrix(1,0,0,1,302.003,517)">
                <g id="cp_2_stick-2_8vvt2w1lrx2ix-fill">
                    <g>
                        <rect x="10" y="10" width="5.997" height="49" style="fill:rgb(67,221,147);"/>
                    </g>
                </g>
            </g>
            <g id="g-root-cp_0_g-0_1um5trs1lrx0qz-fill" transform="matrix(1,0,0,1,248,566)">
                <g id="cp_0_g-0_1um5trs1lrx0qz-fill">
                    <g>
                        <path d="M30,58L40.001,82.001L50.001,58L30,58Z" style="fill:rgb(232,232,232);"/>
                    </g>
                </g>
                <g id="cp_0_g-0_1um5trs1lrx0qz-fill1" serif:id="cp_0_g-0_1um5trs1lrx0qz-fill">
                    <g>
                        <path d="M70.001,10L10,10L30,57.999L50.001,57.999L70.001,10Z" style="fill:rgb(232,232,232);"/>
                    </g>
                </g>
            </g>
            <g transform="matrix(1,0,0,1,143.37,300)">
                <g id="g-root-tx_finance_m9u7so1ls19fp-fill">
                    <g id="tx_finance_m9u7so1ls19fp-fill">
                        <g>
                            <g>
                                <text x="0px" y="0px" style="font-family:'Arial-BoldMT', 'Arial', sans-serif;font-weight:700;font-size:20px;fill:rgb(44,44,44);">Finance</text>
                            </g>
                        </g>
                    </g>
                </g>
            </g>
            <g id="g-root-tx__13z8w6w1lrolxe-fill">
            </g>
            <g id="g-root-tx__1lymznc1lryfij-fill">
            </g>
            <g id="g-root-tx_ecommerc_qss6ig1lrq0as-fill" transform="matrix(1,0,0,1,350,254)">
                <g id="tx_ecommerc_qss6ig1lrq0as-fill">
                    <g>
                        <g>
                            <g transform="matrix(1,0,0,1,12,34)">
                                <text x="0px" y="0px" style="font-family:'Arial-BoldMT', 'Arial', sans-serif;font-weight:700;font-size:20px;fill:rgb(44,44,44);">E-commerce &amp;</text>
                            </g>
                            <g transform="matrix(1,0,0,1,12,58)">
                                <text x="0px" y="0px" style="font-family:'Arial-BoldMT', 'Arial', sans-serif;font-weight:700;font-size:20px;fill:rgb(44,44,44);">Retail</text>
                            </g>
                        </g>
                    </g>
                </g>
            </g>
            <g id="g-root-tx__18i6ol41ls18ge-fill">
            </g>
            <g id="g-root-tx__1d0i67s1lrq2h9-fill">
            </g>
            <g transform="matrix(1,0,0,1,356,204)">
                <g id="g-root-tx_educatio_qwj1141lrn6rt-fill">
                    <g id="tx_educatio_qwj1141lrn6rt-fill">
                        <g>
                            <g>
                                <text x="0px" y="0px" style="font-family:'Arial-BoldMT', 'Arial', sans-serif;font-weight:700;font-size:20px;fill:rgb(44,44,44);">Education</text>
                            </g>
                        </g>
                    </g>
                </g>
            </g>
            <g id="g-root-tx_governme_qvwgs81ls2nm0-fill" transform="matrix(1,0,0,1,80,350)">
                <g id="tx_governme_qvwgs81ls2nm0-fill">
                    <g>
                        <g>
                            <g transform="matrix(1,0,0,1,17.78,34)">
                                <text x="0px" y="0px" style="font-family:'Arial-BoldMT', 'Arial', sans-serif;font-weight:700;font-size:20px;fill:rgb(44,44,44);">Government</text>
                            </g>
                            <g transform="matrix(1,0,0,1,44.33,58)">
                                <text x="0px" y="0px" style="font-family:'Arial-BoldMT', 'Arial', sans-serif;font-weight:700;font-size:20px;fill:rgb(44,44,44);">Agencies</text>
                            </g>
                        </g>
                    </g>
                </g>
            </g>
            <g id="g-root-tx_telemark_qunim01lryhai-fill" transform="matrix(1,0,0,1,68,158)">
                <g id="tx_telemark_qunim01lryhai-fill">
                    <g>
                        <g>
                            <g transform="matrix(1,0,0,1,22.27,34)">
                                <text x="0px" y="0px" style="font-family:'Arial-BoldMT', 'Arial', sans-serif;font-weight:700;font-size:20px;fill:rgb(44,44,44);">T<tspan x="10.732px 21.855px " y="0px 0px ">el</tspan>emarketing</text>
                            </g>
                            <g transform="matrix(1,0,0,1,100.82,58)">
                                <text x="0px" y="0px" style="font-family:'Arial-BoldMT', 'Arial', sans-serif;font-weight:700;font-size:20px;fill:rgb(44,44,44);">Firms</text>
                            </g>
                        </g>
                    </g>
                </g>
            </g>
            <g transform="matrix(1,0,0,1,368,396)">
                <g id="g-root-tx_healthca_4ikago1lrst1j-fill">
                    <g id="tx_healthca_4ikago1lrst1j-fill">
                        <g>
                            <g>
                                <text x="0px" y="0px" style="font-family:'Arial-BoldMT', 'Arial', sans-serif;font-weight:700;font-size:20px;fill:rgb(44,44,44);">Healthcare</text>
                            </g>
                        </g>
                    </g>
                </g>
            </g>
            <g id="g-root-tx__qn5tko1ls44ch-fill">
            </g>
            <g id="g-root-tx__zlxaew1lrsufc-fill">
            </g>
            <g id="g-root-tx__hvw83c1lrlurz-fill">
            </g>
            <g transform="matrix(1,0,0,1,92.4,492)">
                <g id="g-root-tx_callcent_hye4fs1lrizur-fill">
                    <g id="tx_callcent_hye4fs1lrizur-fill">
                        <g>
                            <g>
                                <text x="0px" y="0px" style="font-family:'Arial-BoldMT', 'Arial', sans-serif;font-weight:700;font-size:20px;fill:rgb(44,44,44);">Call Centers</text>
                            </g>
                        </g>
                    </g>
                </g>
            </g>
            <g id="g-root-tx__zlx7941lrx0jk-fill">
            </g>
            <g id="g-root-tx_globalen_3d9fc1lrluz2-fill" transform="matrix(1,0,0,1,338,62)">
                <g id="tx_globalen_3d9fc1lrluz2-fill">
                    <g>
                        <g>
                            <g transform="matrix(1,0,0,1,12,34)">
                                <text x="0px" y="0px" style="font-family:'Arial-BoldMT', 'Arial', sans-serif;font-weight:700;font-size:20px;fill:rgb(44,44,44);">Global</text>
                            </g>
                            <g transform="matrix(1,0,0,1,12,58)">
                                <text x="0px" y="0px" style="font-family:'Arial-BoldMT', 'Arial', sans-serif;font-weight:700;font-size:20px;fill:rgb(44,44,44);">Enterprises</text>
                            </g>
                        </g>
                    </g>
                </g>
            </g>
            <g transform="matrix(1,0,0,1,374,480)">
                <g id="g-root-tx_voipprov_hzn2m01lru9ky-fill">
                    <g id="tx_voipprov_hzn2m01lru9ky-fill">
                        <g>
                            <g>
                                <text x="0px" y="0px" style="font-family:'Arial-BoldMT', 'Arial', sans-serif;font-weight:700;font-size:20px;fill:rgb(44,44,44);">V<tspan x="11.855px 24.072px 29.629px 42.607px 48.164px " y="0px 0px 0px 0px 0px ">oIP P</tspan>roviders</text>
                            </g>
                        </g>
                    </g>
                </g>
            </g>
            <g id="g-root-tx__146ql881lriyvg-fill">
            </g>
            <g id="g-root-tx__147zjeg1lru8ln-fill">
            </g>
            <g transform="matrix(1,0,0,1,125.53,108)">
                <g id="g-root-tx_itservic_2483c1lrx2bz-fill">
                    <g id="tx_itservic_2483c1lrx2bz-fill">
                        <g>
                            <g>
                                <text x="0px" y="0px" style="font-family:'Arial-BoldMT', 'Arial', sans-serif;font-weight:700;font-size:20px;fill:rgb(44,44,44);">IT Services</text>
                            </g>
                        </g>
                    </g>
                </g>
            </g>
            <g id="g-root-cp_9_text-9_hritbs1lrvmrv-stroke" transform="matrix(1,0,0,1,50,62)">
                <g id="cp_9_text-9_hritbs1lrvmrv-stroke">
                    <g>
                        <path d="M10,94L10,10L238,10L238,94" style="fill:none;stroke:rgb(44,44,44);stroke-width:2px;"/>
                    </g>
                </g>
            </g>
            <g id="g-root-cp_9_stick-9_zk1rzs1lrvmkt-stroke" transform="matrix(1,0,0,1,272,146)">
                <g id="cp_9_stick-9_zk1rzs1lrvmkt-stroke">
                    <g>
                        <path d="M15.997,430L15.997,10" style="fill:none;stroke:rgb(44,44,44);stroke-width:2px;"/>
                    </g>
                </g>
            </g>
            <g id="g-root-cp_7_text-7_4hxq7s1lrvnd3-stroke" transform="matrix(1,0,0,1,44,146)">
                <g id="cp_7_text-7_4hxq7s1lrvnd3-stroke">
                    <g>
                        <path d="M10,118L10,10L238,10L238,118" style="fill:none;stroke:rgb(44,44,44);stroke-width:2px;"/>
                    </g>
                </g>
            </g>
            <g id="g-root-cp_7_stick-7_1cwr8jc1lrvn61-stroke" transform="matrix(1,0,0,1,266,254)">
                <g id="cp_7_stick-7_1cwr8jc1lrvn61-stroke">
                    <g>
                        <path d="M15.997,322L15.997,10" style="fill:none;stroke:rgb(44,44,44);stroke-width:2px;"/>
                    </g>
                </g>
            </g>
            <g id="g-root-cp_5_text-5_magovs1lrvn63-stroke" transform="matrix(1,0,0,1,38,254)">
                <g id="cp_5_text-5_magovs1lrvn63-stroke">
                    <g>
                        <path d="M10,94L10,10L238,10L238,94" style="fill:none;stroke:rgb(44,44,44);stroke-width:2px;"/>
                    </g>
                </g>
            </g>
            <g id="g-root-cp_5_stick-5_1upa77c1lrvmz1-stroke" transform="matrix(1,0,0,1,260,338)">
                <g id="cp_5_stick-5_1upa77c1lrvmz1-stroke">
                    <g>
                        <path d="M15.997,238L15.997,10" style="fill:none;stroke:rgb(44,44,44);stroke-width:2px;"/>
                    </g>
                </g>
            </g>
            <g id="g-root-cp_3_text-3_142znjs1lrvmz3-stroke" transform="matrix(1,0,0,1,32,338)">
                <g id="cp_3_text-3_142znjs1lrvmz3-stroke">
                    <g>
                        <path d="M10,118L10,10L238,10L238,118" style="fill:none;stroke:rgb(44,44,44);stroke-width:2px;"/>
                    </g>
                </g>
            </g>
            <g id="g-root-cp_3_stick-3_hwim0o1lrvmyp-stroke" transform="matrix(1,0,0,1,254,446)">
                <g id="cp_3_stick-3_hwim0o1lrvmyp-stroke">
                    <g>
                        <path d="M15.997,130L15.997,10" style="fill:none;stroke:rgb(44,44,44);stroke-width:2px;"/>
                    </g>
                </g>
            </g>
            <g id="g-root-cp_1_text-1_4l23nc1lrvojn-stroke" transform="matrix(1,0,0,1,26,446)">
                <g id="cp_1_text-1_4l23nc1lrvojn-stroke">
                    <g>
                        <path d="M238,94L238,10L10,10L10,94L232.5,94" style="fill:none;stroke:rgb(44,44,44);stroke-width:2px;"/>
                    </g>
                </g>
            </g>
            <g id="g-root-cp_1_stick-1_144v2t41lrvlzh-stroke" transform="matrix(1,0,0,1,247.997,529)">
                <g id="cp_1_stick-1_144v2t41lrvlzh-stroke">
                    <g>
                        <path d="M16,47L16,11M10,47L10,10" style="fill:none;stroke:rgb(44,44,44);stroke-width:2px;"/>
                    </g>
                </g>
            </g>
            <g id="g-root-cp_10_text-10_mdl2bc1lrvocn-stroke" transform="matrix(1,0,0,1,278,50)">
                <g id="cp_10_text-10_mdl2bc1lrvocn-stroke">
                    <g>
                        <path d="M238,118L238,10L10,10L10,118" style="fill:none;stroke:rgb(44,44,44);stroke-width:2px;"/>
                    </g>
                </g>
            </g>
            <g id="g-root-cp_10_stick-10_1usekmw1lrvo5l-stroke" transform="matrix(1,0,0,1,278.003,158)">
                <g id="cp_10_stick-10_1usekmw1lrvo5l-stroke">
                    <g>
                        <path d="M10.001,418L10.001,10" style="fill:none;stroke:rgb(44,44,44);stroke-width:2px;"/>
                    </g>
                </g>
            </g>
            <g id="g-root-cp_8_text-8_1d1r1881lrvncz-stroke" transform="matrix(1,0,0,1,284,158)">
                <g id="cp_8_text-8_1d1r1881lrvncz-stroke">
                    <g>
                        <path d="M238,94L238,10L10,10L10,94" style="fill:none;stroke:rgb(44,44,44);stroke-width:2px;"/>
                    </g>
                </g>
            </g>
            <g id="g-root-cp_8_stick-8_zqaiuw1lrvoxx-stroke" transform="matrix(1,0,0,1,284.003,242)">
                <g id="cp_8_stick-8_zqaiuw1lrvoxx-stroke">
                    <g>
                        <path d="M10.001,334L10.001,10" style="fill:none;stroke:rgb(44,44,44);stroke-width:2px;"/>
                    </g>
                </g>
            </g>
            <g id="g-root-cp_6_text-6_djthbs1lrvo5r-stroke" transform="matrix(1,0,0,1,290,242)">
                <g id="cp_6_text-6_djthbs1lrvo5r-stroke">
                    <g>
                        <path d="M238,118L238,10L10,10L10,118" style="fill:none;stroke:rgb(44,44,44);stroke-width:2px;"/>
                    </g>
                </g>
            </g>
            <g id="g-root-cp_6_stick-6_1uu9zw81lrvn61-stroke" transform="matrix(1,0,0,1,290.003,350)">
                <g id="cp_6_stick-6_1uu9zw81lrvn61-stroke">
                    <g>
                        <path d="M10.001,226L10.001,10" style="fill:none;stroke:rgb(44,44,44);stroke-width:2px;"/>
                    </g>
                </g>
            </g>
            <g id="g-root-cp_4_text-4_1qeghrs1lrvnyb-stroke" transform="matrix(1,0,0,1,296,350)">
                <g id="cp_4_text-4_1qeghrs1lrvnyb-stroke">
                    <g>
                        <path d="M238,94L238,10L10,10L10,94" style="fill:none;stroke:rgb(44,44,44);stroke-width:2px;"/>
                    </g>
                </g>
            </g>
            <g id="g-root-cp_4_stick-4_zs5y481lrvnyd-stroke" transform="matrix(1,0,0,1,296.003,434)">
                <g id="cp_4_stick-4_zs5y481lrvnyd-stroke">
                    <g>
                        <path d="M10.001,142L10.001,10" style="fill:none;stroke:rgb(44,44,44);stroke-width:2px;"/>
                    </g>
                </g>
            </g>
            <g id="g-root-cp_2_text-2_m7cbg81lrx0xz-stroke" transform="matrix(1,0,0,1,302,434)">
                <g id="cp_2_text-2_m7cbg81lrx0xz-stroke">
                    <g>
                        <path d="M10,94L10,10L238,10L238,94L15.5,94" style="fill:none;stroke:rgb(44,44,44);stroke-width:2px;"/>
                    </g>
                </g>
            </g>
            <g id="g-root-cp_2_stick-2_8vvt2w1lrx2ix-stroke" transform="matrix(1,0,0,1,302.003,517)">
                <g id="cp_2_stick-2_8vvt2w1lrx2ix-stroke">
                    <g>
                        <path d="M10.001,59L10.001,10M15.997,59L15.997,10" style="fill:none;stroke:rgb(44,44,44);stroke-width:2px;"/>
                    </g>
                </g>
            </g>
            <g id="g-root-cp_0_g-0_1um5trs1lrx0qz-stroke" transform="matrix(1,0,0,1,248,566)">
                <g id="cp_0_g-0_1um5trs1lrx0qz-stroke">
                    <g>
                        <path d="M30,58L40.001,82.001L50.001,58L30,58Z" style="fill:none;stroke:rgb(44,44,44);stroke-width:2px;"/>
                    </g>
                </g>
                <g id="cp_0_g-0_1um5trs1lrx0qz-stroke1" serif:id="cp_0_g-0_1um5trs1lrx0qz-stroke">
                    <g>
                        <path d="M70.001,10L10,10L30,57.999L50.001,57.999L70.001,10Z" style="fill:none;stroke:rgb(44,44,44);stroke-width:2px;"/>
                    </g>
                </g>
            </g>
            <g id="g-root-ic_card_4m4fs1ls1atj-stroke" transform="matrix(1,0,0,1,218,266)">
                <g id="ic_card_4m4fs1ls1atj-stroke">
                    <g>
                        <path d="M31.75,33.25L43.75,33.25C43.75,33.25 45.25,33.25 45.25,34.75L45.25,43.75C45.25,43.75 45.25,45.25 43.75,45.25L31.75,45.25C31.75,45.25 30.25,45.25 30.25,43.75L30.25,34.75C30.25,34.75 30.25,33.25 31.75,33.25M30.25,37.75L45.25,37.75M42.25,42.25L39.25,42.25M25.75,33.25L10.75,33.25C10.746,28.863 13.905,25.112 18.228,24.37C22.552,23.629 26.781,26.112 28.239,30.25M14.125,16.375C14.125,19.482 16.643,22 19.75,22C22.857,22 25.375,19.482 25.375,16.375C25.375,13.268 22.857,10.75 19.75,10.75C16.643,10.75 14.125,13.268 14.125,16.375M28.375,16.375C28.375,19.482 30.893,22 34,22C37.107,22 39.625,19.482 39.625,16.375C39.625,13.268 37.107,10.75 34,10.75C30.893,10.75 28.375,13.268 28.375,16.375M42.49,30.25C41.599,27.732 39.635,25.74 37.13,24.813C34.625,23.885 31.837,24.119 29.521,25.45" style="fill:none;stroke:rgb(44,44,44);stroke-width:2px;"/>
                    </g>
                </g>
            </g>
            <g id="g-root-ic_exch_93dla01lrq0we-stroke" transform="matrix(1,0,0,1,302,254)">
                <g id="ic_exch_93dla01lrq0we-stroke">
                    <g>
                        <path d="M19.375,44.125L22.375,41.125L19.375,38.125M32.125,25.375L41.125,25.375C41.125,25.375 42.625,25.375 42.625,26.875L42.625,43.375C42.625,43.375 42.625,44.875 41.125,44.875L32.125,44.875C32.125,44.875 30.625,44.875 30.625,43.375L30.625,26.875C30.625,26.875 30.625,25.375 32.125,25.375M13.375,33.625C13.375,37.767 16.733,41.125 20.875,41.125L22.375,41.125M37.375,11.125L34.375,14.125L37.375,17.125M43.375,21.625C43.375,17.483 40.017,14.125 35.875,14.125L34.375,14.125M30.625,38.875L42.625,38.875M36.625,41.5C36.418,41.5 36.25,41.668 36.25,41.875C36.25,42.082 36.418,42.25 36.625,42.25C36.832,42.25 37,42.082 37,41.875C37,41.668 36.832,41.5 36.625,41.5M20.125,25.375C20.125,26.203 20.797,26.875 21.625,26.875C22.453,26.875 23.125,26.203 23.125,25.375C23.125,24.547 22.453,23.875 21.625,23.875C20.797,23.875 20.125,24.547 20.125,25.375M14.125,25.375C14.125,26.203 14.797,26.875 15.625,26.875C16.453,26.875 17.125,26.203 17.125,25.375C17.125,24.547 16.453,23.875 15.625,23.875C14.797,23.875 14.125,24.547 14.125,25.375M26.125,11.125L22.375,22.375L14.875,22.375L12.625,14.875L24.876,14.875" style="fill:none;stroke:rgb(44,44,44);stroke-width:2px;"/>
                    </g>
                </g>
            </g>
            <g id="g-root-ic_desk_zko92w1ls41sa-stroke" transform="matrix(1,0,0,1,212,350)">
                <g id="ic_desk_zko92w1ls41sa-stroke">
                    <g>
                        <path d="M45.25,45.25L10.75,45.25M16.012,24.994C16.012,27.893 18.363,30.244 21.262,30.244C24.161,30.244 26.512,27.893 26.512,24.994C26.512,22.095 24.161,19.744 21.262,19.744C18.363,19.744 16.012,22.095 16.012,24.994L16.012,24.994ZM30.25,42.25L30.25,37.75C30.25,35.265 28.235,33.25 25.75,33.25L24.25,33.25L21.25,38.5L18.25,33.25L16.75,33.25C14.265,33.25 12.25,35.265 12.25,37.75L12.25,42.25M33.25,16.75C33.25,20.064 35.936,22.75 39.25,22.75C42.564,22.75 45.25,20.064 45.25,16.75C45.25,13.436 42.564,10.75 39.25,10.75C35.936,10.75 33.25,13.436 33.25,16.75ZM39.25,19.75L39.25,16.75M39.25,13.81C39.043,13.81 38.875,13.978 38.875,14.185C38.875,14.392 39.043,14.56 39.25,14.56C39.457,14.56 39.625,14.392 39.625,14.185C39.625,13.978 39.457,13.81 39.25,13.81M37,45.25L37,44.5C37,42.843 38.343,41.5 40,41.5C41.657,41.5 43,42.843 43,44.5L43,45.25M40,41.5L40,40" style="fill:none;stroke:rgb(44,44,44);stroke-width:2px;"/>
                    </g>
                </g>
            </g>
            <g id="g-root-ic_inte_1hu601lronib-stroke" transform="matrix(1,0,0,1,296,170)">
                <g id="ic_inte_1hu601lronib-stroke">
                    <g>
                        <path d="M24.522,26.5L24.522,28.234M27.159,23.977C23.293,22.524 18.981,24.468 17.511,28.327M26.272,16C27.451,16.001 28.617,15.763 29.701,15.3C29.415,13.082 27.748,11.294 25.556,10.853C23.365,10.411 21.136,11.416 20.014,13.35C21.655,15.044 23.913,16.001 26.272,16ZM19.272,16C19.272,18.899 21.622,21.25 24.522,21.25C27.421,21.25 29.772,18.899 29.772,16C29.772,13.101 27.421,10.75 24.522,10.75C21.622,10.75 19.272,13.101 19.272,16M32.093,29.824C32.093,33.01 34.675,35.593 37.861,35.593C41.047,35.593 43.629,33.01 43.628,29.824C43.629,26.638 41.047,24.055 37.861,24.055C34.675,24.055 32.093,26.638 32.093,29.824M30.52,45.031C30.482,42.383 31.873,39.92 34.16,38.585C36.447,37.25 39.276,37.25 41.563,38.585C43.85,39.92 45.241,42.383 45.203,45.031M27.159,39.774L11.572,39.774C11.307,39.773 11.06,39.637 10.918,39.413C10.776,39.189 10.759,38.908 10.873,38.668L13.586,32.981C13.843,32.444 14.386,32.102 14.982,32.101L28.482,32.101M12.607,39.837L12.607,45.25M33.148,26.5C37.01,30.362 41.398,29.824 43.63,29.824M37.861,42.388L37.861,40.332" style="fill:none;stroke:rgb(44,44,44);stroke-width:2px;"/>
                    </g>
                </g>
            </g>
            <g id="g-root-ic_head_i0vxmg1lryh3g-stroke" transform="matrix(1,0,0,1,224,158)">
                <g id="ic_head_i0vxmg1lryh3g-stroke">
                    <g>
                        <path d="M41.429,28.783C40.773,32.083 38.72,34.938 35.8,36.61L35.8,45.25M20.8,45.25L20.8,40.035C17.8,40.051 16.273,39.835 15.222,38.782C13.871,37.432 14.002,31.75 14.002,31.75C14.002,31.75 12.723,31.798 11.752,31.759C11.413,31.742 11.1,31.574 10.9,31.3C10.764,31.005 10.712,30.678 10.75,30.355C10.567,27.945 13.959,23.81 13.959,22.609C13.959,15.063 21.085,10.75 27.55,10.75C34.591,10.673 40.605,15.814 41.625,22.782M25.062,25.782C25.062,28.461 27.234,30.634 29.914,30.634C32.594,30.634 34.766,28.461 34.766,25.782C34.766,23.102 32.594,20.929 29.914,20.929C27.234,20.929 25.062,23.102 25.062,25.782M27.867,30.181L26.277,32.65C25.724,33.508 24.774,34.027 23.754,34.027L22.391,34.027M33.726,22.782L43.766,22.782C44.595,22.782 45.266,23.453 45.266,24.282L45.266,27.282C45.266,28.11 44.595,28.782 43.766,28.782L33.726,28.782M19.017,34.032C19.017,34.963 19.772,35.719 20.704,35.719C21.636,35.719 22.391,34.963 22.391,34.032C22.391,33.1 21.636,32.344 20.704,32.344C19.772,32.344 19.017,33.1 19.017,34.032M34.766,25.782L41.629,25.782" style="fill:none;stroke:rgb(44,44,44);stroke-width:2px;"/>
                    </g>
                </g>
            </g>
            <g id="g-root-ic_buil_1qa39bs1lrstfl-stroke" transform="matrix(1,0,0,1,308,362)">
                <g id="ic_buil_1qa39bs1lrstfl-stroke">
                    <g>
                        <path d="M15.25,16.75C15.25,20.064 17.936,22.75 21.25,22.75C24.564,22.75 27.25,20.064 27.25,16.75C27.25,13.436 24.564,10.75 21.25,10.75C17.936,10.75 15.25,13.436 15.25,16.75ZM15.25,30.25L27.25,30.25M15.25,25.75L27.25,25.75M15.25,34.75L21.25,34.75M15.25,39.25L21.25,39.25M21.25,13.75L21.25,19.75M24.25,16.75L18.25,16.75M24.25,44.5C24.25,44.914 24.586,45.25 25,45.25L44.5,45.25C44.914,45.25 45.25,44.914 45.25,44.5L45.25,34.75C45.25,33.922 44.578,33.25 43.75,33.25L25.75,33.25C24.922,33.25 24.25,33.922 24.25,34.75L24.25,44.5ZM12.25,19C11.422,19 10.75,19.672 10.75,20.5L10.75,44.5C10.75,44.914 11.086,45.25 11.5,45.25L21.25,45.25M31.75,30.25L31.75,20.5C31.75,19.672 31.078,19 30.25,19M33.25,42.25L36.25,42.25L36.25,45.25L33.25,45.25L33.25,42.25ZM27.25,39.25L28.75,39.25M28.75,36.25L27.25,36.25M31.75,39.25L33.25,39.25M33.25,36.25L31.75,36.25M36.25,39.25L37.75,39.25M37.75,36.25L36.25,36.25M40.75,39.25L42.25,39.25M42.25,36.25L40.75,36.25" style="fill:none;stroke:rgb(44,44,44);stroke-width:2px;"/>
                    </g>
                </g>
            </g>
            <g id="g-root-ic_medi_18k27081lrlts8-stroke" transform="matrix(1,0,0,1,290,62)">
                <g id="ic_medi_18k27081lrlts8-stroke">
                    <g>
                        <path d="M33.955,13.842C28.71,9.601 21.211,9.619 15.986,13.884C10.76,18.149 9.241,25.492 12.345,31.481C15.448,37.469 22.325,40.461 28.822,38.65M11.559,29.675L28.377,29.675M11.559,20.174L28.377,20.174M21.925,11.008C19.368,20.236 19.744,30.031 23.001,39.036M28.072,11.008C28.504,12.563 28.854,14.139 29.122,15.73M45.25,45.325L10.75,45.325M31.75,45.325L45.25,45.325L45.25,23.35C45.233,22.95 44.9,22.637 44.5,22.645L32.5,22.645C32.099,22.637 31.765,22.952 31.75,23.353L31.75,45.325ZM35.124,19.252C35.181,18.687 35.683,18.274 36.249,18.325L40.749,18.325C41.314,18.274 41.816,18.687 41.873,19.252L41.874,22.645L35.124,22.645L35.124,19.252ZM38.5,18.325L38.5,12.925M40.75,26.965L36.25,26.965M40.75,31.285L36.25,31.285M40.75,35.605L36.25,35.605M40.75,39.925L36.25,39.925" style="fill:none;stroke:rgb(44,44,44);stroke-width:2px;"/>
                    </g>
                </g>
            </g>
            <g id="g-root-ic_24_8zj7c1lrj0gd-stroke" transform="matrix(1,0,0,1,206,458)">
                <g id="ic_24_8zj7c1lrj0gd-stroke">
                    <g>
                        <path d="M10.75,45.25L10.75,31.75C10.75,30.922 11.422,30.25 12.25,30.25L43.75,30.25C44.578,30.25 45.25,30.922 45.25,31.75L45.25,45.25M18.25,37C18.25,35.757 19.257,34.75 20.5,34.75C21.743,34.75 22.75,35.757 22.75,37C22.736,37.736 22.471,38.445 22,39.01L18.25,43.75L22.75,43.75M29.5,40.75L25,40.75C25,39.25 25,34.75 29.5,34.75L29.5,43.75M34,34.75L34,43.75M34,38.5L37,38.5C37.828,38.5 38.5,39.172 38.5,40L38.5,43.75M37.75,30.25L37.75,26.5M34.75,22.75L40.75,22.75C40.75,22.75 41.5,22.75 41.5,23.5L41.5,25.75C41.5,25.75 41.5,26.5 40.75,26.5L34.75,26.5C34.75,26.5 34,26.5 34,25.75L34,23.5C34,23.5 34,22.75 34.75,22.75M15.25,15.25L15.25,16C15.25,18.071 16.929,19.75 19,19.75C21.071,19.75 22.75,18.071 22.75,16L22.75,15.25M22.75,15.25L15.25,15.25L15.25,12.025C15.246,11.708 15.445,11.424 15.745,11.32C17.848,10.555 20.152,10.555 22.255,11.32C22.555,11.424 22.754,11.708 22.75,12.025L22.75,15.25ZM13.195,27.25C13.885,24.609 16.271,22.767 19,22.767C21.729,22.767 24.115,24.609 24.805,27.25" style="fill:none;stroke:rgb(44,44,44);stroke-width:2px;"/>
                    </g>
                </g>
            </g>
            <g id="g-root-ic_serv_8vvw8o1lrvnyc-stroke" transform="matrix(1,0,0,1,314,446)">
                <g id="ic_serv_8vvw8o1lrvnyc-stroke">
                    <g>
                        <path d="M28.075,29.875L28.075,44.875M18.625,37.375L21.614,37.375C22.611,37.375 23.275,37.975 23.275,38.875L23.275,44.875M37.375,37.375L34.482,37.375C33.518,37.375 32.875,37.975 32.875,38.875L32.875,44.875M33.625,26.875C33.625,28.525 32.275,29.875 30.625,29.875L25.225,29.875C23.575,29.875 22.375,28.525 22.375,27.025L22.375,13.975C22.375,12.325 23.725,11.125 25.225,11.125L30.775,11.125C32.425,11.125 33.625,12.475 33.625,13.975L33.625,26.875ZM18.625,38.425C18.625,39.325 18.025,39.925 17.125,39.925L12.625,39.925C11.725,39.925 11.125,39.325 11.125,38.425L11.125,30.175C11.125,29.275 11.725,28.675 12.625,28.675L17.125,28.675C18.025,28.675 18.625,29.275 18.625,30.175L18.625,38.425ZM44.875,38.425C44.875,39.325 44.275,39.925 43.375,39.925L38.875,39.925C37.975,39.925 37.375,39.325 37.375,38.425L37.375,30.175C37.375,29.275 37.975,28.675 38.875,28.675L43.375,28.675C44.275,28.675 44.875,29.275 44.875,30.175L44.875,38.425ZM28.075,26.679C28.806,26.679 29.398,26.086 29.398,25.355C29.398,24.625 28.806,24.032 28.075,24.032C27.344,24.032 26.752,24.625 26.752,25.355C26.752,26.086 27.344,26.679 28.075,26.679Z" style="fill:none;stroke:rgb(44,44,44);stroke-width:2px;"/>
                    </g>
                </g>
            </g>
            <g id="g-root-ic_moni_1ltn6yg1lrx2q1-stroke" transform="matrix(1,0,0,1,230,74)">
                <g id="ic_moni_1ltn6yg1lrx2q1-stroke">
                    <g>
                        <path d="M27.625,26.47L34.375,19.72M35.26,14.335C34.693,14.899 34.374,15.665 34.375,16.465L34.375,19.72L38.38,19.72C39.18,19.721 39.946,19.402 40.51,18.835L44.125,15.22L38.875,15.22L38.875,10.72L35.26,14.335ZM32.125,45.22L23.125,45.22C24.413,43.465 25.192,41.389 25.375,39.22L29.875,39.22C30.067,41.387 30.845,43.461 32.125,45.22ZM20.905,45.28L35.125,45.22M11.875,34.72L43.375,34.72M43.375,22.72L43.375,37C43.375,38.243 42.368,39.25 41.125,39.25L14.125,39.25C12.882,39.25 11.875,38.243 11.875,37L11.875,17.5C11.875,16.257 12.882,15.25 14.125,15.25L28.255,15.25M22.375,26.47C22.375,29.369 24.726,31.72 27.625,31.72C30.524,31.72 32.875,29.369 32.875,26.47C32.875,23.571 30.524,21.22 27.625,21.22C24.726,21.22 22.375,23.571 22.375,26.47" style="fill:none;stroke:rgb(44,44,44);stroke-width:2px;"/>
                    </g>
                </g>
            </g>
        </g>
    </g>
</svg>
