<?xml version="1.0" encoding="UTF-8" standalone="no"?>
<!DOCTYPE svg PUBLIC "-//W3C//DTD SVG 1.1//EN" "http://www.w3.org/Graphics/SVG/1.1/DTD/svg11.dtd">
<svg width="100%" height="100%" viewBox="0 0 702 918" version="1.1" xmlns="http://www.w3.org/2000/svg" xmlns:xlink="http://www.w3.org/1999/xlink" xml:space="preserve" xmlns:serif="http://www.serif.com/" style="fill-rule:evenodd;clip-rule:evenodd;stroke-linecap:round;stroke-linejoin:round;">
    <g id="blend" transform="matrix(1.09228,0,0,1.09228,-33.0417,-58.5968)">
        <g id="items">
            <g id="blend1" serif:id="blend">
                <g id="g-root-cp_5_shape-5_me77ah7jlxqh-fill" transform="matrix(1,0,0,1,314.303,68)">
                    <g id="cp_5_shape-5_me77ah7jlxqh-fill">
                        <g>
                            <path d="M27.697,292L15.697,292L15.697,160L27.697,160L27.697,292ZM32.297,28.191L27.697,28.191L27.697,160L15.697,160L15.697,28.191L11.017,28.191C10.237,28.191 9.747,27.341 10.137,26.661L20.86,10.448C21.256,9.849 22.136,9.851 22.53,10.451L33.177,26.661C33.577,27.341 33.087,28.191 32.297,28.191Z" style="fill:rgb(247,148,56);"/>
                        </g>
                    </g>
                </g>
                <g id="g-root-cp_1_shape-1_93d6097jlw5n-fill" transform="matrix(1,0,0,1,32,67.8164)">
                    <g id="cp_1_shape-1_93d6097jlw5n-fill">
                        <g>
                            <path d="M214,328.184L46,328.183C26.118,328.183 10,312.081 10,292.199L10,292.184L250,292.184C250,312.066 233.882,328.184 214,328.184ZM254.6,28.375L250,28.375L250,160.184L10,160.184C10,140.302 26.118,124.505 46,124.505L172,124.505C213.07,124.505 238,94.374 238,55.034L238,28.374L233.32,28.374C232.54,28.374 232.05,27.524 232.44,26.844L243.163,10.632C243.559,10.033 244.439,10.034 244.833,10.635L255.48,26.844C255.88,27.525 255.39,28.375 254.6,28.375ZM250,160.184L250,292.184L10,292.184L10,160.184L250,160.184Z" style="fill:rgb(26,195,251);"/>
                        </g>
                    </g>
                </g>
                <g id="g-root-cp_3_shape-3_1ut0pm17jlxjh-fill" transform="matrix(1,0,0,1,284.303,68)">
                    <g id="cp_3_shape-3_1ut0pm17jlxjh-fill">
                        <g>
                            <path d="M27.697,292L15.697,292L15.697,160L27.697,160L27.697,292ZM32.297,28.191L27.697,28.191L27.697,160L15.697,160L15.697,28.191L11.017,28.191C10.237,28.191 9.747,27.341 10.137,26.661L20.86,10.448C21.256,9.849 22.136,9.851 22.53,10.451L33.177,26.661C33.577,27.341 33.087,28.191 32.297,28.191Z" style="fill:rgb(166,218,55);"/>
                        </g>
                    </g>
                </g>
                <g id="g-root-cp_3_shape-3_1_1hi6obt7jlvyn-fill" transform="matrix(1,0,0,1,32,350)">
                    <g id="cp_3_shape-3_1_1hi6obt7jlvyn-fill">
                        <g>
                            <path d="M214,64.321C244,64.321 268,46 268,10L280,10L280,100.306L10,100.306C10,80.423 26.118,64.321 46,64.321L214,64.321Z" style="fill:rgb(166,218,55);"/>
                        </g>
                    </g>
                </g>
                <g id="g-root-cp_5_shape-5_1_1d2d67d7jlwqx-fill" transform="matrix(1,0,0,1,320,350)">
                    <g id="cp_5_shape-5_1_1d2d67d7jlwqx-fill">
                        <g>
                            <rect x="10" y="10" width="12" height="246" style="fill:rgb(247,148,56);"/>
                        </g>
                    </g>
                </g>
                <g id="g-root-cp_3_shape-3_2_zrj4x57jlv63-fill" transform="matrix(1,0,0,1,32,440)">
                    <g id="cp_3_shape-3_2_zrj4x57jlv63-fill">
                        <g>
                            <path d="M280,10L280,165.975L10,165.975L10,10L280,10ZM244,202.008L46,202.008C26.118,202.008 10,185.905 10,166.023L10,166.008L280,166.008C280,185.89 263.882,202.008 244,202.008Z" style="fill:rgb(166,218,55);"/>
                        </g>
                    </g>
                </g>
                <g id="g-root-cp_5_shape-5_2_vbpmsp7jlvyd-fill" transform="matrix(1,0,0,1,32,596)">
                    <g id="cp_5_shape-5_2_vbpmsp7jlvyd-fill">
                        <g>
                            <path d="M244,64.137C274,64.137 298,45.878 298,10L310,10L310,100L10,100C10,80.185 26.118,64.137 46,64.137L244,64.137Z" style="fill:rgb(247,148,56);"/>
                        </g>
                    </g>
                </g>
                <g id="g-root-cp_5_shape-5_3_mg2mjt7jlwr3-fill" transform="matrix(1,0,0,1,32,686)">
                    <g id="cp_5_shape-5_3_mg2mjt7jlwr3-fill">
                        <g>
                            <path d="M310,10L310,142L10,142L10,10L310,10ZM274,178.008L46,178.008C26.118,178.008 10,161.882 10,142L310,142C310,161.882 293.882,178.008 274,178.008Z" style="fill:rgb(247,148,56);"/>
                        </g>
                    </g>
                </g>
                <g id="g-root-cp_2_shape-2_dl23e17jlv5t-fill" transform="matrix(1,0,0,1,404.378,67.8164)">
                    <g id="cp_2_shape-2_dl23e17jlv5t-fill">
                        <g>
                            <path d="M51.622,352.184L219.622,352.184C239.504,352.184 255.622,336.081 255.622,316.199L255.622,316.184L15.622,316.184C15.622,336.066 31.74,352.184 51.622,352.184ZM11.022,28.375L15.622,28.375L15.622,160.184L255.622,160.184C255.622,140.302 239.505,124.505 219.623,124.505L93.622,124.505C52.552,124.505 27.622,94.374 27.622,55.034L27.622,28.374L32.302,28.374C33.082,28.374 33.572,27.524 33.182,26.844L22.459,10.632C22.063,10.033 21.184,10.034 20.79,10.635L10.142,26.844C9.742,27.525 10.232,28.375 11.022,28.375ZM15.622,160.184L15.622,316.184L255.622,316.184L255.622,160.184L15.622,160.184Z" style="fill:rgb(67,221,147);"/>
                        </g>
                    </g>
                </g>
                <g id="g-root-cp_4_shape-4_4pf3557jlvyj-fill" transform="matrix(1,0,0,1,374.383,68)">
                    <g id="cp_4_shape-4_4pf3557jlvyj-fill">
                        <g>
                            <path d="M15.623,316L27.623,316L27.623,160L15.623,160L15.623,316ZM11.022,28.191L15.622,28.191L15.622,160L27.622,160L27.622,28.191L32.302,28.191C33.082,28.191 33.572,27.341 33.182,26.661L22.459,10.448C22.063,9.849 21.184,9.851 20.79,10.451L10.142,26.661C9.742,27.341 10.232,28.191 11.022,28.191Z" style="fill:rgb(255,231,17);"/>
                        </g>
                    </g>
                </g>
                <g id="g-root-cp_6_shape-6_1qf2mqx7jlxcd-fill" transform="matrix(1,0,0,1,344.383,68)">
                    <g id="cp_6_shape-6_1qf2mqx7jlxcd-fill">
                        <g>
                            <path d="M15.623,316L27.623,316L27.623,160L15.623,160L15.623,316ZM11.022,28.191L15.622,28.191L15.622,160L27.622,160L27.622,28.191L32.302,28.191C33.082,28.191 33.572,27.341 33.182,26.661L22.459,10.448C22.063,9.849 21.184,9.851 20.79,10.451L10.142,26.661C9.742,27.341 10.232,28.191 11.022,28.191Z" style="fill:rgb(251,103,98);"/>
                        </g>
                    </g>
                </g>
                <g id="g-root-cp_4_shape-4_1_1cu902x7jnabz-fill" transform="matrix(1,0,0,1,380,374)">
                    <g id="cp_4_shape-4_1_1cu902x7jnabz-fill">
                        <g>
                            <path d="M76,64.321C46,64.321 22,46 22,10L10,10L10,100.306L280,100.306C280,80.423 263.882,64.321 244,64.321L76,64.321Z" style="fill:rgb(255,231,17);"/>
                        </g>
                    </g>
                </g>
                <g id="g-root-cp_4_shape-4_2_18efhyh7jnb49-fill" transform="matrix(1,0,0,1,380,464)">
                    <g id="cp_4_shape-4_2_18efhyh7jnb49-fill">
                        <g>
                            <path d="M10,10L10,142L280,142L280,10L10,10ZM46,178L244,178C263.882,178 280,161.898 280,142.016L280,142L10,142C10,161.882 26.118,178 46,178Z" style="fill:rgb(255,231,17);"/>
                        </g>
                    </g>
                </g>
                <g id="g-root-cp_6_shape-6_1_v2yzl57jncp7-fill" transform="matrix(1,0,0,1,350,374)">
                    <g id="cp_6_shape-6_1_v2yzl57jncp7-fill">
                        <g>
                            <rect x="10" y="10" width="12" height="222" style="fill:rgb(251,103,98);"/>
                        </g>
                    </g>
                </g>
                <g id="g-root-cp_6_shape-6_2_hs4yax7jnb4d-fill" transform="matrix(1,0,0,1,350,596)">
                    <g id="cp_6_shape-6_2_hs4yax7jnb4d-fill">
                        <g>
                            <path d="M76,64.321C46,64.321 22,46 22,10L10,10L10,100.306L310,100.306C310,80.423 293.882,64.321 274,64.321L76,64.321Z" style="fill:rgb(251,103,98);"/>
                        </g>
                    </g>
                </g>
                <g id="g-root-cp_6_shape-6_3_dcbg6h7jnbwn-fill" transform="matrix(1,0,0,1,350,686)">
                    <g id="cp_6_shape-6_3_dcbg6h7jnbwn-fill">
                        <g>
                            <path d="M10,10L10,142L310,142L310,10L10,10ZM46,178L274,178C293.882,178 310,161.898 310,142.016L310,142L10,142C10,161.882 26.118,178 46,178Z" style="fill:rgb(251,103,98);"/>
                        </g>
                    </g>
                </g>
                <g id="g-root-tx_unifiedc_zoerhl7jsyys-fill" transform="matrix(1,0,0,1,440,326)">
                    <g id="tx_unifiedc_zoerhl7jsyys-fill">
                        <g>
                            <g>
                                <g transform="matrix(1,0,0,1,20.93,31.2)">
                                    <g transform="matrix(15,0,0,15,22.5073,0)">
                                    </g>
                                    <g transform="matrix(15,0,0,15,26.6748,0)">
                                    </g>
                                    <text x="0px" y="0px" style="font-family:'ArialMT', 'Arial', sans-serif;font-size:15px;fill:rgb(44,44,44);">Uniﬁed communication</text>
                                </g>
                                <g transform="matrix(1,0,0,1,15.01,49.2)">
                                    <text x="0px" y="0px" style="font-family:'ArialMT', 'Arial', sans-serif;font-size:15px;fill:rgb(44,44,44);">across multiple channels</text>
                                </g>
                                <g transform="matrix(1,0,0,1,21.69,67.2)">
                                    <text x="0px" y="0px" style="font-family:'ArialMT', 'Arial', sans-serif;font-size:15px;fill:rgb(44,44,44);">for better engagement.</text>
                                </g>
                            </g>
                        </g>
                    </g>
                </g>
                <g id="g-root-tx_seamless_de6vft7jnawz-fill" transform="matrix(1,0,0,1,62,302)">
                    <g id="tx_seamless_de6vft7jnawz-fill">
                        <g>
                            <g>
                                <g transform="matrix(1,0,0,1,47.15,31.2)">
                                    <text x="0px" y="0px" style="font-family:'ArialMT', 'Arial', sans-serif;font-size:15px;fill:rgb(44,44,44);">Seamless voice</text>
                                </g>
                                <g transform="matrix(1,0,0,1,12.78,49.2)">
                                    <text x="0px" y="0px" style="font-family:'ArialMT', 'Arial', sans-serif;font-size:15px;fill:rgb(44,44,44);">communication within the</text>
                                </g>
                                <g transform="matrix(1,0,0,1,55.02,67.2)">
                                    <text x="0px" y="0px" style="font-family:'ArialMT', 'Arial', sans-serif;font-size:15px;fill:rgb(44,44,44);">CRM system.</text>
                                </g>
                            </g>
                        </g>
                    </g>
                </g>
                <g id="g-root-tx_customiz_1heftt57joqa5-fill" transform="matrix(1,0,0,1,101,488)">
                    <g id="tx_customiz_1heftt57joqa5-fill">
                        <g>
                            <g>
                                <g transform="matrix(1,0,0,1,11.92,34)">
                                    <text x="0px" y="0px" style="font-family:'Arial-BoldMT', 'Arial', sans-serif;font-weight:700;font-size:20px;fill:rgb(44,44,44);">Customizable</text>
                                </g>
                                <g transform="matrix(1,0,0,1,19.99,58)">
                                    <text x="0px" y="0px" style="font-family:'Arial-BoldMT', 'Arial', sans-serif;font-weight:700;font-size:20px;fill:rgb(44,44,44);">Dashboards</text>
                                </g>
                            </g>
                        </g>
                    </g>
                </g>
                <g id="g-root-tx_automate_18gax7t7jvqxa-fill" transform="matrix(1,0,0,1,431,512)">
                    <g id="tx_automate_18gax7t7jvqxa-fill">
                        <g>
                            <g>
                                <g transform="matrix(1,0,0,1,17.66,34)">
                                    <text x="0px" y="0px" style="font-family:'Arial-BoldMT', 'Arial', sans-serif;font-weight:700;font-size:20px;fill:rgb(44,44,44);">Automated Lead</text>
                                </g>
                                <g transform="matrix(1,0,0,1,56.88,58)">
                                    <text x="0px" y="0px" style="font-family:'Arial-BoldMT', 'Arial', sans-serif;font-weight:700;font-size:20px;fill:rgb(44,44,44);">Scoring</text>
                                </g>
                            </g>
                        </g>
                    </g>
                </g>
                <g id="g-root-tx_tailored_1ur5acp7joqva-fill" transform="matrix(1,0,0,1,83,548)">
                    <g id="tx_tailored_1ur5acp7joqva-fill">
                        <g>
                            <g>
                                <g transform="matrix(1,0,0,1,12.78,31.2)">
                                    <text x="0px" y="0px" style="font-family:'ArialMT', 'Arial', sans-serif;font-size:15px;fill:rgb(44,44,44);">T<tspan x="7.5px 15.842px " y="0px 0px ">ai</tspan>lored dashboards for</text>
                                </g>
                                <g transform="matrix(1,0,0,1,32.81,49.2)">
                                    <text x="0px" y="0px" style="font-family:'ArialMT', 'Arial', sans-serif;font-size:15px;fill:rgb(44,44,44);">personalized data</text>
                                </g>
                                <g transform="matrix(1,0,0,1,48.47,67.2)">
                                    <text x="0px" y="0px" style="font-family:'ArialMT', 'Arial', sans-serif;font-size:15px;fill:rgb(44,44,44);">visualization.</text>
                                </g>
                            </g>
                        </g>
                    </g>
                </g>
                <g id="g-root-tx_efficien_18i6ch57jvpxj-fill" transform="matrix(1,0,0,1,419,572)">
                    <g id="tx_efficien_18i6ch57jvpxj-fill">
                        <g>
                            <g>
                                <g transform="matrix(1,0,0,1,19.21,28.2)">
                                    <g transform="matrix(15,0,0,15,10.0049,0)">
                                    </g>
                                    <g transform="matrix(15,0,0,15,14.0389,0)">
                                    </g>
                                    <g transform="matrix(15,0,0,15,18.073,0)">
                                    </g>
                                    <text x="0px" y="0px" style="font-family:'ArialMT', 'Arial', sans-serif;font-size:15px;fill:rgb(44,44,44);">Eﬃcient lead prioritization</text>
                                </g>
                                <g transform="matrix(1,0,0,1,13.53,46.2)">
                                    <text x="0px" y="0px" style="font-family:'ArialMT', 'Arial', sans-serif;font-size:15px;fill:rgb(44,44,44);">through automated scoring.</text>
                                </g>
                            </g>
                        </g>
                    </g>
                </g>
                <g id="g-root-tx_secureac_hzmnc97jq5mx-fill" transform="matrix(1,0,0,1,62,794)">
                    <g id="tx_secureac_hzmnc97jq5mx-fill">
                        <g>
                            <g>
                                <g transform="matrix(1,0,0,1,12.63,28.2)">
                                    <text x="0px" y="0px" style="font-family:'ArialMT', 'Arial', sans-serif;font-size:15px;fill:rgb(44,44,44);">Secure access management based</text>
                                </g>
                                <g transform="matrix(1,0,0,1,84.32,46.2)">
                                    <text x="0px" y="0px" style="font-family:'ArialMT', 'Arial', sans-serif;font-size:15px;fill:rgb(44,44,44);">on user roles.</text>
                                </g>
                            </g>
                        </g>
                    </g>
                </g>
                <g transform="matrix(1,0,0,1,75.71,300)">
                    <g id="g-root-tx_nativevo_140hf3d7jnawy-fill">
                        <g id="tx_nativevo_140hf3d7jnawy-fill">
                            <g>
                                <g>
                                    <text x="0px" y="0px" style="font-family:'Arial-BoldMT', 'Arial', sans-serif;font-weight:700;font-size:20px;fill:rgb(44,44,44);">Native V<tspan x="77.441px 89.658px 95.215px 108.193px 113.75px " y="0px 0px 0px 0px 0px ">oIP C</tspan>alling</text>
                                </g>
                            </g>
                        </g>
                    </g>
                </g>
                <g id="g-root-tx_rolebase_73oo97jq5u0-fill" transform="matrix(1,0,0,1,86,734)">
                    <g id="tx_rolebase_73oo97jq5u0-fill">
                        <g>
                            <g>
                                <g transform="matrix(1,0,0,1,16.29,34)">
                                    <text x="0px" y="0px" style="font-family:'Arial-BoldMT', 'Arial', sans-serif;font-weight:700;font-size:20px;fill:rgb(44,44,44);">Role-Based <tspan x="114.844px 129.287px " y="0px 0px ">Ac</tspan>cess</text>
                                </g>
                                <g transform="matrix(1,0,0,1,70.54,58)">
                                    <text x="0px" y="0px" style="font-family:'Arial-BoldMT', 'Arial', sans-serif;font-weight:700;font-size:20px;fill:rgb(44,44,44);">Control</text>
                                </g>
                            </g>
                        </g>
                    </g>
                </g>
                <g transform="matrix(1,0,0,1,401.56,768)">
                    <g id="g-root-tx_thirdpar_hx4qzt7jx5hd-fill">
                        <g id="tx_thirdpar_hx4qzt7jx5hd-fill">
                            <g>
                                <g>
                                    <text x="0px" y="0px" style="font-family:'Arial-BoldMT', 'Arial', sans-serif;font-weight:700;font-size:20px;fill:rgb(44,44,44);">Third-Party Integrations</text>
                                </g>
                            </g>
                        </g>
                    </g>
                </g>
                <g id="g-root-tx_seamless_zpnpnt7jx5aa-fill" transform="matrix(1,0,0,1,380,770)">
                    <g id="tx_seamless_zpnpnt7jx5aa-fill">
                        <g>
                            <g>
                                <g transform="matrix(1,0,0,1,13.63,31.2)">
                                    <text x="0px" y="0px" style="font-family:'ArialMT', 'Arial', sans-serif;font-size:15px;fill:rgb(44,44,44);">Seamless integration with external</text>
                                </g>
                                <g transform="matrix(1,0,0,1,41.88,49.2)">
                                    <text x="0px" y="0px" style="font-family:'ArialMT', 'Arial', sans-serif;font-size:15px;fill:rgb(44,44,44);">applications for enhanced</text>
                                </g>
                                <g transform="matrix(1,0,0,1,85.55,67.2)">
                                    <text x="0px" y="0px" style="font-family:'ArialMT', 'Arial', sans-serif;font-size:15px;fill:rgb(44,44,44);">functionality<tspan x="78.098px " y="0px ">.</tspan></text>
                                </g>
                            </g>
                        </g>
                    </g>
                </g>
                <g id="g-root-tx_omnichan_4l1rjd7jsxkz-fill" transform="matrix(1,0,0,1,452,266)">
                    <g id="tx_omnichan_4l1rjd7jsxkz-fill">
                        <g>
                            <g>
                                <g transform="matrix(1,0,0,1,28.77,34)">
                                    <text x="0px" y="0px" style="font-family:'Arial-BoldMT', 'Arial', sans-serif;font-weight:700;font-size:20px;fill:rgb(44,44,44);">Omnichannel</text>
                                </g>
                                <g transform="matrix(1,0,0,1,16.8,58)">
                                    <text x="0px" y="0px" style="font-family:'Arial-BoldMT', 'Arial', sans-serif;font-weight:700;font-size:20px;fill:rgb(44,44,44);">Communication</text>
                                </g>
                            </g>
                        </g>
                    </g>
                </g>
                <g id="g-root-cp_5_shape-5_me77ah7jlxqh-stroke" transform="matrix(1,0,0,1,314.303,68)">
                    <g id="cp_5_shape-5_me77ah7jlxqh-stroke">
                        <g>
                            <path d="M15.697,160L15.697,292M27.697,292L27.697,160M15.697,160L15.697,28.191L11.017,28.191C10.237,28.191 9.747,27.341 10.137,26.661L20.86,10.448C21.256,9.849 22.136,9.851 22.53,10.451L33.177,26.661C33.577,27.341 33.087,28.191 32.297,28.191L27.697,28.191L27.697,160" style="fill:none;stroke:rgb(44,44,44);stroke-width:2px;"/>
                        </g>
                    </g>
                </g>
                <g id="g-root-cp_1_shape-1_93d6097jlw5n-stroke" transform="matrix(1,0,0,1,32,67.8164)">
                    <g id="cp_1_shape-1_93d6097jlw5n-stroke">
                        <g>
                            <path d="M10,160.184C10,140.301 26.118,124.321 46,124.321L172,124.321C213.07,124.321 238,94.191 238,54.851L238,28.191L233.32,28.191C232.54,28.191 232.05,27.341 232.44,26.661L243.163,10.448C243.559,9.849 244.439,9.851 244.833,10.451L255.48,26.661C255.88,27.341 255.39,28.191 254.6,28.191L250,28.191L250,160.184M250,292.184C250,312.066 233.882,328.191 214,328.191L46,328.191C26.118,328.191 10,312.081 10,292.199L10,292.184M250,292.184L250,160.184M10,160.184L10,292.184" style="fill:none;stroke:rgb(44,44,44);stroke-width:2px;"/>
                        </g>
                    </g>
                </g>
                <g id="g-root-cp_3_shape-3_1ut0pm17jlxjh-stroke" transform="matrix(1,0,0,1,284.303,68)">
                    <g id="cp_3_shape-3_1ut0pm17jlxjh-stroke">
                        <g>
                            <path d="M15.697,160L15.697,292M27.697,292L27.697,160M15.697,160L15.697,28.191L11.017,28.191C10.237,28.191 9.747,27.341 10.137,26.661L20.86,10.448C21.256,9.849 22.136,9.851 22.53,10.451L33.177,26.661C33.577,27.341 33.087,28.191 32.297,28.191L27.697,28.191L27.697,160" style="fill:none;stroke:rgb(44,44,44);stroke-width:2px;"/>
                        </g>
                    </g>
                </g>
                <g id="g-root-cp_3_shape-3_1_1hi6obt7jlvyn-stroke" transform="matrix(1,0,0,1,32,350)">
                    <g id="cp_3_shape-3_1_1hi6obt7jlvyn-stroke">
                        <g>
                            <path d="M268,10C268,46 244,64.321 214,64.321L46,64.321C26.118,64.321 10,80.423 10,100.306M280,100.306L280,10" style="fill:none;stroke:rgb(44,44,44);stroke-width:2px;"/>
                        </g>
                    </g>
                </g>
                <g id="g-root-cp_5_shape-5_1_1d2d67d7jlwqx-stroke" transform="matrix(1,0,0,1,320,350)">
                    <g id="cp_5_shape-5_1_1d2d67d7jlwqx-stroke">
                        <g>
                            <path d="M10,10L10,256M22,256L22,10" style="fill:none;stroke:rgb(44,44,44);stroke-width:2px;"/>
                        </g>
                    </g>
                </g>
                <g id="g-root-cp_3_shape-3_2_zrj4x57jlv63-stroke" transform="matrix(1,0,0,1,32,440)">
                    <g id="cp_3_shape-3_2_zrj4x57jlv63-stroke">
                        <g>
                            <path d="M280,165.975L280,10M10,10L10,166M280,166.008C280,185.89 263.882,202.008 244,202.008L46,202.008C26.118,202.008 10,185.905 10,166.023L10,166.008" style="fill:none;stroke:rgb(44,44,44);stroke-width:2px;"/>
                        </g>
                    </g>
                </g>
                <g id="g-root-cp_5_shape-5_2_vbpmsp7jlvyd-stroke" transform="matrix(1,0,0,1,32,596)">
                    <g id="cp_5_shape-5_2_vbpmsp7jlvyd-stroke">
                        <g>
                            <path d="M298,10C298,45.878 274,64.137 244,64.137L46,64.137C26.118,64.137 10,80.185 10,100M310,100L310,10" style="fill:none;stroke:rgb(44,44,44);stroke-width:2px;"/>
                        </g>
                    </g>
                </g>
                <g id="g-root-cp_5_shape-5_3_mg2mjt7jlwr3-stroke" transform="matrix(1,0,0,1,32,686)">
                    <g id="cp_5_shape-5_3_mg2mjt7jlwr3-stroke">
                        <g>
                            <path d="M310,142L310,10M10,10L10,142M310,142C310,161.882 293.882,178.008 274,178.008L46,178.008C26.118,178.008 10,161.882 10,142" style="fill:none;stroke:rgb(44,44,44);stroke-width:2px;"/>
                        </g>
                    </g>
                </g>
                <g id="g-root-cp_2_shape-2_dl23e17jlv5t-stroke" transform="matrix(1,0,0,1,404.378,67.8164)">
                    <g id="cp_2_shape-2_dl23e17jlv5t-stroke">
                        <g>
                            <path d="M255.622,160.184C255.622,140.301 239.505,124.321 219.623,124.321L93.622,124.321C52.552,124.321 27.622,94.191 27.622,54.851L27.622,28.191L32.302,28.191C33.082,28.191 33.572,27.341 33.182,26.661L22.459,10.448C22.063,9.849 21.184,9.851 20.79,10.451L10.142,26.661C9.742,27.341 10.232,28.191 11.022,28.191L15.622,28.191L15.622,160.184M15.622,316.184C15.622,336.066 31.74,352.184 51.622,352.184L219.623,352.183C239.505,352.183 255.622,336.081 255.622,316.199L255.622,316.184M15.622,316.184L15.622,160.184M255.622,160.184L255.622,316.184" style="fill:none;stroke:rgb(44,44,44);stroke-width:2px;"/>
                        </g>
                    </g>
                </g>
                <g id="g-root-cp_4_shape-4_4pf3557jlvyj-stroke" transform="matrix(1,0,0,1,374.383,68)">
                    <g id="cp_4_shape-4_4pf3557jlvyj-stroke">
                        <g>
                            <path d="M27.622,160L27.622,316M15.622,316L15.622,160M27.622,160L27.622,28.191L32.302,28.191C33.082,28.191 33.572,27.341 33.182,26.661L22.459,10.448C22.063,9.849 21.184,9.851 20.79,10.451L10.142,26.661C9.742,27.341 10.232,28.191 11.022,28.191L15.622,28.191L15.622,160" style="fill:none;stroke:rgb(44,44,44);stroke-width:2px;"/>
                        </g>
                    </g>
                </g>
                <g id="g-root-cp_6_shape-6_1qf2mqx7jlxcd-stroke" transform="matrix(1,0,0,1,344.383,68)">
                    <g id="cp_6_shape-6_1qf2mqx7jlxcd-stroke">
                        <g>
                            <path d="M27.622,160L27.622,316M15.622,316L15.622,160M27.622,160L27.622,28.191L32.302,28.191C33.082,28.191 33.572,27.341 33.182,26.661L22.459,10.448C22.063,9.849 21.184,9.851 20.79,10.451L10.142,26.661C9.742,27.341 10.232,28.191 11.022,28.191L15.622,28.191L15.622,160" style="fill:none;stroke:rgb(44,44,44);stroke-width:2px;"/>
                        </g>
                    </g>
                </g>
                <g id="g-root-cp_4_shape-4_1_1cu902x7jnabz-stroke" transform="matrix(1,0,0,1,380,374)">
                    <g id="cp_4_shape-4_1_1cu902x7jnabz-stroke">
                        <g>
                            <path d="M22,10C22,46 46,64.321 76,64.321L244,64.321C263.882,64.321 280,80.423 280,100.306M10,100.306L10,10" style="fill:none;stroke:rgb(44,44,44);stroke-width:2px;"/>
                        </g>
                    </g>
                </g>
                <g id="g-root-cp_4_shape-4_2_18efhyh7jnb49-stroke" transform="matrix(1,0,0,1,380,464)">
                    <g id="cp_4_shape-4_2_18efhyh7jnb49-stroke">
                        <g>
                            <path d="M10,142L10,10M280,10L280,142M10,142C10,161.882 26.118,178.008 46,178.008L244,178.008C263.882,178.008 280,161.898 280,142.016L280,142" style="fill:none;stroke:rgb(44,44,44);stroke-width:2px;"/>
                        </g>
                    </g>
                </g>
                <g id="g-root-cp_6_shape-6_1_v2yzl57jncp7-stroke" transform="matrix(1,0,0,1,350,374)">
                    <g id="cp_6_shape-6_1_v2yzl57jncp7-stroke">
                        <g>
                            <path d="M22,10L22,232M10,232L10,10" style="fill:none;stroke:rgb(44,44,44);stroke-width:2px;"/>
                        </g>
                    </g>
                </g>
                <g id="g-root-cp_6_shape-6_2_hs4yax7jnb4d-stroke" transform="matrix(1,0,0,1,350,596)">
                    <g id="cp_6_shape-6_2_hs4yax7jnb4d-stroke">
                        <g>
                            <path d="M22,10C22,46 46,64.321 76,64.321L274,64.321C293.882,64.321 310,80.423 310,100.306M10,100.306L10,10" style="fill:none;stroke:rgb(44,44,44);stroke-width:2px;"/>
                        </g>
                    </g>
                </g>
                <g id="g-root-cp_6_shape-6_3_dcbg6h7jnbwn-stroke" transform="matrix(1,0,0,1,350,686)">
                    <g id="cp_6_shape-6_3_dcbg6h7jnbwn-stroke">
                        <g>
                            <path d="M10,142L10,10M310,10L310,142M10,142C10,161.882 26.118,178.008 46,178.008L274,178.008C293.882,178.008 310,161.898 310,142.016L310,142" style="fill:none;stroke:rgb(44,44,44);stroke-width:2px;"/>
                        </g>
                    </g>
                </g>
                <g id="g-root-ic_dayt_qu0pex7jopaf-stroke" transform="matrix(1,0,0,1,143,428)">
                    <g id="ic_dayt_qu0pex7jopaf-stroke">
                        <g>
                            <path d="M13,45L17,45L17,57L13,57L13,45ZM21,35L25,35L25,57L21,57L21,35ZM29,41L33,41L33,57L29,57L29,41ZM37,27L41,27L41,57L37,57L37,27ZM45,35L49,35L49,57L45,57L45,35ZM53,19L57,19L57,57L53,57L53,19ZM13,11L57,11L57,15L13,15L13,11Z" style="fill:none;stroke:rgb(44,44,44);stroke-width:2px;"/>
                        </g>
                    </g>
                </g>
                <g id="g-root-ic_chec_4kfag97jvrig-stroke" transform="matrix(1,0,0,1,491,452)">
                    <g id="ic_chec_4kfag97jvrig-stroke">
                        <g>
                            <path d="M45.9,24.4L21.9,24.4L21.9,56.4L45.9,56.4L45.9,24.4ZM49.9,35.6L56.3,35.6M49.9,43.6L56.3,43.6M49.9,51.6L54.3,51.6C55.5,51.6 56.3,50.8 56.3,49.6L56.3,29.6C56.3,28.4 55.5,27.6 54.3,27.6L49.9,27.6M22.9,35L45.9,35M22.9,46L45.9,46M17.9,35.6L11.5,35.6M17.9,43.6L11.5,43.6M17.9,51.6L13.5,51.6C12.3,51.6 11.5,50.8 11.5,49.6L11.5,29.6C11.5,28.4 12.3,27.6 13.5,27.6L17.9,27.6M30.9,13.6L33.9,16.4L38.9,11.6" style="fill:none;stroke:rgb(44,44,44);stroke-width:2px;"/>
                        </g>
                    </g>
                </g>
                <g id="g-root-ic_key_1d3m4dl7jq3uy-stroke" transform="matrix(1,0,0,1,158,674)">
                    <g id="ic_key_1d3m4dl7jq3uy-stroke">
                        <g>
                            <path d="M42.81,50.462C41.834,51.438 40.251,51.438 39.275,50.462C38.298,49.485 38.298,47.903 39.275,46.926C40.251,45.95 41.834,45.95 42.81,46.926C43.786,47.903 43.786,49.485 42.81,50.462ZM48.096,45.884L56.706,37.294C56.894,37.106 57,36.852 57,36.586L57,34C57,33.448 56.552,33 56,33L53.4,33C53.144,33 52.898,33.098 52.712,33.274L43.854,41.642C40.328,40.148 36.239,41.362 34.099,44.538C31.959,47.713 32.37,51.959 35.078,54.666C37.786,57.373 42.032,57.782 45.207,55.64C48.381,53.499 49.593,49.409 48.098,45.884L48.096,45.884ZM16.5,19.5C16.5,24.194 20.306,28 25,28C29.694,28 33.5,24.194 33.5,19.5C33.5,14.806 29.694,11 25,11C20.306,11 16.5,14.806 16.5,19.5ZM27,45L11,45C11,39.115 14.681,33.857 20.211,31.844C25.742,29.831 31.941,31.492 35.724,36" style="fill:none;stroke:rgb(44,44,44);stroke-width:2px;"/>
                        </g>
                    </g>
                </g>
                <g id="g-root-ic_exch_73oo97jswlp-stroke" transform="matrix(1,0,0,1,506,206)">
                    <g id="ic_exch_73oo97jswlp-stroke">
                        <g>
                            <path d="M23,56L27,52L23,48M12,27.958C11.996,29.624 13.335,30.981 15,31L33,31C34.665,30.98 36.003,29.623 36,27.958L36,16C36,14.343 34.657,13 33,13L15,13C13.343,13 12,14.343 12,16L12,27.958ZM12,25L36,25M19,35L29,35M24,31L24,35M38,33C38,31.895 38.895,31 40,31L52,31C53.105,31 54,31.895 54,33L54,55C54,56.105 53.105,57 52,57L40,57C38.895,57 38,56.105 38,55L38,33ZM15,42C15,47.523 19.477,52 25,52L27,52M47,12L43,16L47,20M55,26C55,20.477 50.523,16 45,16L43,16M38,49L54,49M46,52.5C45.724,52.5 45.5,52.724 45.5,53C45.5,53.276 45.724,53.5 46,53.5C46.276,53.5 46.5,53.276 46.5,53C46.5,52.724 46.276,52.5 46,52.5" style="fill:none;stroke:rgb(44,44,44);stroke-width:2px;"/>
                        </g>
                    </g>
                </g>
                <g id="g-root-ic_plan_1ly06g97jx4az-stroke" transform="matrix(1,0,0,1,476,674)">
                    <g id="ic_plan_1ly06g97jx4az-stroke">
                        <g>
                            <path d="M22,31L18,31L18,12C18,11.448 18.448,11 19,11L39,11C39.552,11 40,11.448 40,12L40,31L29,31M34,31L34,37C37.314,37 40,39.686 40,43L40,44L34,44L34,56C34,56.552 33.552,57 33,57L12,57C11.448,57 11,56.552 11,56L11,32C11,31.448 11.448,31 12,31L18,31M34,48L56,48C56.552,48 57,47.552 57,47L57,34C53.134,34 50,30.866 50,27L56,27C56.552,27 57,26.552 57,26L57,20C57,19.448 56.552,19 56,19L40,19M11,45L21,45L21,57L12,57C11.448,57 11,56.552 11,56L11,45ZM11,49L21,49M11,53L21,53" style="fill:none;stroke:rgb(44,44,44);stroke-width:2px;"/>
                        </g>
                    </g>
                </g>
                <g id="g-root-ic_1_18hjve17jncas-stroke" transform="matrix(1,0,0,1,128,206)">
                    <g id="ic_1_18hjve17jncas-stroke">
                        <g>
                            <path d="M33.032,19.02L33.032,11.02L41.032,11.02M33.032,11.02L45.032,22.02L45.032,34.966M57.032,19.02L57.032,11.02L49.032,11.02M57.032,11.02L48.662,18.654M31.764,56.658C26.964,51.846 28.666,48.094 31.27,45.488L32.952,43.806C34.628,42.132 37.342,42.132 39.018,43.806L46.296,51.086C46.89,51.679 47.148,52.531 46.982,53.354C46.815,54.177 46.248,54.862 45.47,55.178C36.15,58.987 25.454,56.834 18.334,49.714C11.214,42.594 9.061,31.898 12.87,22.578C13.186,21.8 13.871,21.233 14.694,21.066C15.517,20.9 16.369,21.158 16.962,21.752L24.244,29.034C25.918,30.709 25.918,33.423 24.244,35.098L22.56,36.78C19.96,39.38 16.204,41.088 11.392,36.288" style="fill:none;stroke:rgb(44,44,44);stroke-width:2px;"/>
                        </g>
                    </g>
                </g>
            </g>
        </g>
    </g>
</svg>
