<?xml version="1.0" encoding="UTF-8" standalone="no"?>
<!DOCTYPE svg PUBLIC "-//W3C//DTD SVG 1.1//EN" "http://www.w3.org/Graphics/SVG/1.1/DTD/svg11.dtd">
<svg width="100%" height="100%" viewBox="0 0 618 612" version="1.1" xmlns="http://www.w3.org/2000/svg" xmlns:xlink="http://www.w3.org/1999/xlink" xml:space="preserve" xmlns:serif="http://www.serif.com/" style="fill-rule:evenodd;clip-rule:evenodd;stroke-linecap:round;stroke-linejoin:round;">
    <g id="items" transform="matrix(1.20854,0,0,1.20854,-64.4376,-100.644)">
        <g id="blend">
            <g id="g-root-cp_1_sign-1_1qcl2efpuv2fg-fill" transform="matrix(1,0,0,1,50,122)">
                <g id="cp_1_sign-1_1qcl2efpuv2fg-fill">
                    <g>
                        <path d="M10,52L28,10L28,94L10,52ZM28,10L249,10L249,94L28,94L28,10Z" style="fill:rgb(67,221,147);"/>
                    </g>
                </g>
            </g>
            <g id="g-root-cp_3_sign-3_vah0mfpuv37q-fill" transform="matrix(1,0,0,1,110,218)">
                <g id="cp_3_sign-3_vah0mfpuv37q-fill">
                    <g>
                        <path d="M10,52L28,10L28,94L10,52ZM28,10L189,10L189,94L28,94L28,10Z" style="fill:rgb(247,148,56);"/>
                    </g>
                </g>
            </g>
            <g id="g-root-cp_5_sign-5_djth7rpuv2f4-fill" transform="matrix(1,0,0,1,74,314)">
                <g id="cp_5_sign-5_djth7rpuv2f4-fill">
                    <g>
                        <path d="M10,52L28,10L28,94L10,52ZM28,10L225,10L225,94L28,94L28,10Z" style="fill:rgb(166,218,55);"/>
                    </g>
                </g>
            </g>
            <g id="g-root-cp_pole_g-pole_1qdu0knpuv4lm-fill" transform="matrix(1,0,0,1,287,98)">
                <g id="cp_pole_g-pole_1qdu0knpuv4lm-fill">
                    <g>
                        <path d="M31,346L13,346L13,460L31,460L31,459.897L24.55,459.88C24.55,459.88 25.3,453.89 17.74,452.78C25.63,449.53 28.41,454.56 28.41,454.56C28.41,454.56 27.994,447.986 31,442.2L31,346ZM13,22L31,22L31,346L13,346L13,22Z" style="fill:rgb(171,171,171);"/>
                    </g>
                </g>
                <g id="cp_pole_g-pole_1qdu0knpuv4lm-fill1" serif:id="cp_pole_g-pole_1qdu0knpuv4lm-fill">
                    <g>
                        <rect x="10" y="10" width="24" height="12" style="fill:rgb(171,171,171);"/>
                    </g>
                </g>
            </g>
            <g id="g-root-cp_pole_plant_1d2zzafpuv30t-fill" transform="matrix(1,0,0,1,255,523)">
                <g id="cp_pole_plant_1d2zzafpuv30t-fill">
                    <g>
                        <path d="M60.393,29.56C60.393,29.56 57.613,24.53 49.723,27.78C54.516,28.484 57.019,30.471 56.533,35.008L10,35.008C10,35.008 17.976,46.521 54.183,46.521C90.39,46.521 97.76,35.008 97.76,35.008L71.483,35.008C68.788,30.384 74.815,23.86 80.883,26.67C78.883,23.56 72.993,22.89 68.553,26C66.693,20.52 67.443,13.77 70.613,10C59.453,14.7 60.393,29.56 60.393,29.56Z" style="fill:rgb(145,187,57);"/>
                    </g>
                </g>
            </g>
            <g id="g-root-cp_2_sign-2_18n6h5zpuv3t3-fill" transform="matrix(1,0,0,1,309,158)">
                <g id="cp_2_sign-2_18n6h5zpuv3t3-fill">
                    <g>
                        <path d="M10,10L231,10L231,118L10,118L10,10ZM249,64L231,10L231,118L249,64Z" style="fill:rgb(79,145,252);"/>
                    </g>
                </g>
            </g>
            <g id="g-root-cp_4_sign-4_qwixrbpuv30h-fill" transform="matrix(1,0,0,1,309,278)">
                <g id="cp_4_sign-4_qwixrbpuv30h-fill">
                    <g>
                        <path d="M10,10L219,10L219,94L10,94L10,10ZM237,52L219,10L219,94L237,52Z" style="fill:rgb(203,104,249);"/>
                    </g>
                </g>
            </g>
            <g id="g-root-cp_6_sign-6_4pff53puv5e3-fill" transform="matrix(1,0,0,1,309,374)">
                <g id="cp_6_sign-6_4pff53puv5e3-fill">
                    <g>
                        <path d="M10,10L231,10L231,70L10,70L10,10ZM249,40L231,10L231,70L249,40Z" style="fill:rgb(26,195,251);"/>
                    </g>
                </g>
            </g>
            <g id="g-root-tx_enhanced_m7ysfbpuxx5b-fill" transform="matrix(1,0,0,1,122,140)">
                <g id="tx_enhanced_m7ysfbpuxx5b-fill">
                    <g>
                        <g>
                            <g transform="matrix(1,0,0,1,18.83,34)">
                                <text x="0px" y="0px" style="font-family:'ArialMT', 'Arial', sans-serif;font-size:20px;fill:rgb(44,44,44);">Enhanced <tspan x="94.531px 107.871px " y="0px 0px ">Ag</tspan>ent</text>
                            </g>
                            <g transform="matrix(1,0,0,1,78.65,58)">
                                <g transform="matrix(20,0,0,20,13.3398,0)">
                                </g>
                                <g transform="matrix(20,0,0,20,18.7186,0)">
                                </g>
                                <g transform="matrix(20,0,0,20,24.0973,0)">
                                </g>
                                <text x="0px" y="0px" style="font-family:'ArialMT', 'Arial', sans-serif;font-size:20px;fill:rgb(44,44,44);">Eﬃciency</text>
                            </g>
                        </g>
                    </g>
                </g>
            </g>
            <g id="g-root-tx_reducedc_zp1kknpv3hu5-fill" transform="matrix(1,0,0,1,320,176)">
                <g id="tx_reducedc_zp1kknpv3hu5-fill">
                    <g>
                        <g>
                            <g transform="matrix(1,0,0,1,12,34)">
                                <text x="0px" y="0px" style="font-family:'ArialMT', 'Arial', sans-serif;font-size:20px;fill:rgb(44,44,44);">Reduced</text>
                            </g>
                            <g transform="matrix(1,0,0,1,12,58)">
                                <text x="0px" y="0px" style="font-family:'ArialMT', 'Arial', sans-serif;font-size:20px;fill:rgb(44,44,44);">Communication</text>
                            </g>
                            <g transform="matrix(1,0,0,1,12,82)">
                                <text x="0px" y="0px" style="font-family:'ArialMT', 'Arial', sans-serif;font-size:20px;fill:rgb(44,44,44);">Costs</text>
                            </g>
                        </g>
                    </g>
                </g>
            </g>
            <g id="g-root-tx_realtime_me7jafpv0phl-fill" transform="matrix(1,0,0,1,182,236)">
                <g id="tx_realtime_me7jafpv0phl-fill">
                    <g>
                        <g>
                            <g transform="matrix(1,0,0,1,14.87,34)">
                                <text x="0px" y="0px" style="font-family:'ArialMT', 'Arial', sans-serif;font-size:20px;fill:rgb(44,44,44);">Real-T<tspan x="59.268px 63.711px " y="0px 0px ">im</tspan>e</text>
                            </g>
                            <g transform="matrix(1,0,0,1,22.48,58)">
                                <text x="0px" y="0px" style="font-family:'ArialMT', 'Arial', sans-serif;font-size:20px;fill:rgb(44,44,44);">Analytics</text>
                            </g>
                        </g>
                    </g>
                </g>
            </g>
            <g id="g-root-tx_seamless_1luw50npv4z5z-fill" transform="matrix(1,0,0,1,320,296)">
                <g id="tx_seamless_1luw50npv4z5z-fill">
                    <g>
                        <g>
                            <g transform="matrix(1,0,0,1,12,34)">
                                <text x="0px" y="0px" style="font-family:'ArialMT', 'Arial', sans-serif;font-size:20px;fill:rgb(44,44,44);">Seamless CRM</text>
                            </g>
                            <g transform="matrix(1,0,0,1,12,58)">
                                <text x="0px" y="0px" style="font-family:'ArialMT', 'Arial', sans-serif;font-size:20px;fill:rgb(44,44,44);">Integration</text>
                            </g>
                        </g>
                    </g>
                </g>
            </g>
            <g id="g-root-tx_scalable_4mxisnpv258j-fill" transform="matrix(1,0,0,1,146,332)">
                <g id="tx_scalable_4mxisnpv258j-fill">
                    <g>
                        <g>
                            <g transform="matrix(1,0,0,1,46.92,34)">
                                <text x="0px" y="0px" style="font-family:'ArialMT', 'Arial', sans-serif;font-size:20px;fill:rgb(44,44,44);">Scalable &amp;</text>
                            </g>
                            <g transform="matrix(1,0,0,1,17.98,58)">
                                <text x="0px" y="0px" style="font-family:'ArialMT', 'Arial', sans-serif;font-size:20px;fill:rgb(44,44,44);">Customizable</text>
                            </g>
                        </g>
                    </g>
                </g>
            </g>
            <g transform="matrix(1,0,0,1,332,426)">
                <g id="g-root-tx_reliable_1cy06ljpv6by9-fill">
                    <g id="tx_reliable_1cy06ljpv6by9-fill">
                        <g>
                            <g>
                                <text x="0px" y="0px" style="font-family:'ArialMT', 'Arial', sans-serif;font-size:20px;fill:rgb(44,44,44);">Reliable Support</text>
                            </g>
                        </g>
                    </g>
                </g>
            </g>
            <g id="g-root-cp_1_sign-1_1qcl2efpuv2fg-stroke" transform="matrix(1,0,0,1,50,122)">
                <g id="cp_1_sign-1_1qcl2efpuv2fg-stroke">
                    <g>
                        <path d="M28,10L249,10M249,94L28,94M28,94L10,52L28,10" style="fill:none;stroke:rgb(44,44,44);stroke-width:2px;"/>
                    </g>
                </g>
            </g>
            <g id="g-root-cp_3_sign-3_vah0mfpuv37q-stroke" transform="matrix(1,0,0,1,110,218)">
                <g id="cp_3_sign-3_vah0mfpuv37q-stroke">
                    <g>
                        <path d="M28,10L189,10M189,94L28,94M28,94L10,52L28,10" style="fill:none;stroke:rgb(44,44,44);stroke-width:2px;"/>
                    </g>
                </g>
            </g>
            <g id="g-root-cp_5_sign-5_djth7rpuv2f4-stroke" transform="matrix(1,0,0,1,74,314)">
                <g id="cp_5_sign-5_djth7rpuv2f4-stroke">
                    <g>
                        <path d="M28,10L225,10M225,94L28,94M28,94L10,52L28,10" style="fill:none;stroke:rgb(44,44,44);stroke-width:2px;"/>
                    </g>
                </g>
            </g>
            <g id="g-root-cp_pole_g-pole_1qdu0knpuv4lm-stroke" transform="matrix(1,0,0,1,287,98)">
                <g id="cp_pole_g-pole_1qdu0knpuv4lm-stroke">
                    <g>
                        <path d="M31,442L31,346M13,459L13,346M31,346L31,22M13,346L13,22" style="fill:none;stroke:rgb(44,44,44);stroke-width:2px;"/>
                    </g>
                </g>
                <g id="cp_pole_g-pole_1qdu0knpuv4lm-stroke1" serif:id="cp_pole_g-pole_1qdu0knpuv4lm-stroke">
                    <g>
                        <rect x="10" y="10" width="24" height="12" style="fill:none;stroke:rgb(44,44,44);stroke-width:2px;"/>
                    </g>
                </g>
            </g>
            <g id="g-root-cp_pole_plant_1d2zzafpuv30t-stroke" transform="matrix(1,0,0,1,255,523)">
                <g id="cp_pole_plant_1d2zzafpuv30t-stroke">
                    <g>
                        <path d="M56.55,34.88C56.55,34.88 57.3,28.89 49.74,27.78C57.63,24.53 60.41,29.56 60.41,29.56C60.41,29.56 59.47,14.7 70.63,10C67.46,13.77 66.71,20.52 68.57,26C73.01,22.89 78.9,23.56 80.9,26.67C76.68,24.44 69.89,28.468 71,34.918M71,34.918L98,34.918M10,34.918L56.5,34.918" style="fill:none;stroke:rgb(44,44,44);stroke-width:2px;"/>
                    </g>
                </g>
            </g>
            <g id="g-root-cp_2_sign-2_18n6h5zpuv3t3-stroke" transform="matrix(1,0,0,1,309,158)">
                <g id="cp_2_sign-2_18n6h5zpuv3t3-stroke">
                    <g>
                        <path d="M231,118L10,118M10,10L231,10M231,10L249,64L231,118" style="fill:none;stroke:rgb(44,44,44);stroke-width:2px;"/>
                    </g>
                </g>
            </g>
            <g id="g-root-cp_4_sign-4_qwixrbpuv30h-stroke" transform="matrix(1,0,0,1,309,278)">
                <g id="cp_4_sign-4_qwixrbpuv30h-stroke">
                    <g>
                        <path d="M219,94L10,94M10,10L219,10M219,10L237,52L219,94" style="fill:none;stroke:rgb(44,44,44);stroke-width:2px;"/>
                    </g>
                </g>
            </g>
            <g id="g-root-cp_6_sign-6_4pff53puv5e3-stroke" transform="matrix(1,0,0,1,309,374)">
                <g id="cp_6_sign-6_4pff53puv5e3-stroke">
                    <g>
                        <path d="M231,70L10,70M10,10L231,10M231,10L249,40L231,70" style="fill:none;stroke:rgb(44,44,44);stroke-width:2px;"/>
                    </g>
                </g>
            </g>
            <g id="g-root-ic_1_m7ysfbpuwjri-stroke" transform="matrix(1,0,0,1,74,146)">
                <g id="ic_1_m7ysfbpuwjri-stroke">
                    <g>
                        <path d="M10.75,33.25L10.75,45.25M33.25,43.75C33.25,41.265 31.235,39.25 28.75,39.25L23.125,39.25C23.125,36.765 21.11,34.75 18.625,34.75L10.75,34.75L10.75,43.75L33.25,43.75ZM18.625,39.25L24.25,39.25M21.805,31.016C21.933,30.587 22.096,30.169 22.294,29.767C23.029,28.296 26.102,27.276 29.961,25.848C31.011,25.461 30.832,22.737 30.37,22.228C28.881,20.616 28.152,18.445 28.366,16.261C28.232,14.871 28.682,13.488 29.609,12.443C30.535,11.398 31.854,10.784 33.25,10.75C34.646,10.784 35.965,11.398 36.891,12.443C37.818,13.488 38.268,14.871 38.134,16.261C38.348,18.445 37.619,20.616 36.13,22.228C35.668,22.737 35.497,25.461 36.54,25.848C40.397,27.276 43.471,28.296 44.206,29.767C44.879,31.343 45.236,33.036 45.256,34.75L25.756,34.75" style="fill:none;stroke:rgb(44,44,44);stroke-width:2px;"/>
                    </g>
                </g>
            </g>
            <g id="g-root-ic_decr_djth7rpv25u4-stroke" transform="matrix(1,0,0,1,488,194)">
                <g id="ic_decr_djth7rpv25u4-stroke">
                    <g>
                        <path d="M22.461,32.61C18.767,28.993 17.623,23.504 19.564,18.713C21.505,13.922 26.146,10.777 31.315,10.75C36.484,10.723 41.158,13.82 43.148,18.591C45.139,23.361 44.051,28.862 40.396,32.516M32.131,28.651L32.131,30.349M32.131,16.75L32.131,18.452M29.583,26.101C29.583,27.509 30.724,28.651 32.133,28.651C33.541,28.651 34.683,27.509 34.683,26.101C34.683,24.693 33.541,23.551 32.133,23.551C30.724,23.551 29.583,22.409 29.583,21.001C29.583,19.593 30.724,18.451 32.133,18.451C33.541,18.451 34.683,19.593 34.683,21.001M11.881,28.75L24.435,39.91C24.981,40.395 25.797,40.416 26.368,39.959L31.869,35.56C32.45,35.095 33.285,35.127 33.829,35.635L44.131,45.25M38.131,45.25L44.131,45.25L44.131,39.285" style="fill:none;stroke:rgb(44,44,44);stroke-width:2px;"/>
                    </g>
                </g>
            </g>
            <g id="g-root-ic_wave_8ydpbbpuxxqg-stroke" transform="matrix(1,0,0,1,134,242)">
                <g id="ic_wave_8ydpbbpuxxqg-stroke">
                    <g>
                        <path d="M13.75,11.5L42.25,11.5C42.25,11.5 45.25,11.5 45.25,14.5L45.25,41.5C45.25,41.5 45.25,44.5 42.25,44.5L13.75,44.5C13.75,44.5 10.75,44.5 10.75,41.5L10.75,14.5C10.75,14.5 10.75,11.5 13.75,11.5M10.75,19L45.25,19M16,14.875C16.207,14.875 16.375,15.043 16.375,15.25C16.375,15.457 16.207,15.625 16,15.625C15.793,15.625 15.625,15.457 15.625,15.25C15.625,15.043 15.793,14.875 16,14.875M20.5,14.875C20.707,14.875 20.875,15.043 20.875,15.25C20.875,15.457 20.707,15.625 20.5,15.625C20.293,15.625 20.125,15.457 20.125,15.25C20.125,15.043 20.293,14.875 20.5,14.875M25,14.875C25.207,14.875 25.375,15.043 25.375,15.25C25.375,15.457 25.207,15.625 25,15.625C24.793,15.625 24.625,15.457 24.625,15.25C24.625,15.043 24.793,14.875 25,14.875M10.75,31.75L45.25,31.75M19,19L19,44.5M19,29.5L21.198,25.107C21.907,23.687 23.363,22.797 24.949,22.812C26.535,22.828 27.974,23.746 28.656,25.179L29.245,26.414C29.896,27.783 31.242,28.688 32.756,28.774C34.269,28.861 35.709,28.116 36.512,26.83C37.267,25.621 38.59,24.885 40.015,24.879C41.44,24.873 42.768,25.599 43.533,26.802L45.25,29.5M19,38.64L21.462,36.178C21.957,35.682 22.652,35.438 23.349,35.514C24.046,35.591 24.671,35.979 25.048,36.571L26.891,39.467C27.306,40.119 28.019,40.521 28.791,40.538C29.563,40.556 30.293,40.186 30.736,39.553L31.997,37.753C32.442,37.117 33.176,36.747 33.951,36.767C34.727,36.787 35.44,37.195 35.851,37.853L35.917,37.959C36.326,38.613 37.035,39.02 37.807,39.044C38.578,39.068 39.311,38.705 39.76,38.077C40.177,37.495 40.839,37.138 41.555,37.111C42.271,37.085 42.958,37.391 43.417,37.941L45.25,40.14" style="fill:none;stroke:rgb(44,44,44);stroke-width:2px;"/>
                    </g>
                </g>
            </g>
            <g id="g-root-ic_refr_14640vbpv3j7y-stroke" transform="matrix(1,0,0,1,476,302)">
                <g id="ic_refr_14640vbpv3j7y-stroke">
                    <g>
                        <path d="M14.875,17.125C14.875,20.646 17.729,23.5 21.25,23.5C24.771,23.5 27.625,20.646 27.625,17.125C27.625,13.604 24.771,10.75 21.25,10.75C17.729,10.75 14.875,13.604 14.875,17.125M22.75,36.25L10.75,36.25C10.751,32.411 12.847,28.879 16.215,27.038C19.584,25.198 23.689,25.342 26.92,27.415M38.635,32.71L43.195,34.75L45.25,30.145M26.98,32.89C28.253,29.178 31.937,26.852 35.835,27.299C39.734,27.746 42.796,30.846 43.195,34.75M31.57,39.79L27.01,37.75L24.955,42.355M43.225,39.595C41.954,43.306 38.273,45.634 34.376,45.19C30.479,44.747 27.414,41.652 27.01,37.75" style="fill:none;stroke:rgb(44,44,44);stroke-width:2px;"/>
                    </g>
                </g>
            </g>
            <g id="g-root-ic_3_mfghgnpv0rnm-stroke" transform="matrix(1,0,0,1,98,338)">
                <g id="ic_3_mfghgnpv0rnm-stroke">
                    <g>
                        <path d="M37,19C36.33,14.604 32.55,11.357 28.103,11.357C23.656,11.357 19.876,14.604 19.206,19L19.206,19C14.945,19 11.491,22.454 11.491,26.714C11.491,30.975 14.945,34.429 19.206,34.429C20.167,34.438 21.12,34.254 22.009,33.889C23.464,35.851 25.762,37.009 28.206,37.009C30.649,37.009 32.948,35.851 34.403,33.889C35.292,34.254 36.245,34.438 37.206,34.429C41.466,34.429 44.92,30.975 44.92,26.714C44.92,22.454 41.466,19 37.206,19L37,19ZM24.143,26.714L28,30.571L28,44.714M28,30.571L31.857,26.714" style="fill:none;stroke:rgb(44,44,44);stroke-width:2px;"/>
                    </g>
                </g>
            </g>
            <g id="g-root-ic_smok_1lwrk9zpv4y68-stroke" transform="matrix(1,0,0,1,488,386)">
                <g id="ic_smok_1lwrk9zpv4y68-stroke">
                    <g>
                        <path d="M34.93,40.57C32.87,41.916 30.461,42.631 28,42.625C22.269,42.625 17.242,38.801 15.713,33.278C14.183,27.755 16.526,21.89 21.44,18.942C26.354,15.993 32.632,16.686 36.785,20.635C40.939,24.584 41.947,30.818 39.25,35.875M16.375,35.125L13.75,35.125C12.093,35.125 10.75,33.782 10.75,32.125L10.75,27.625C10.75,25.968 12.093,24.625 13.75,24.625L16.375,24.625M39.625,35.125L42.25,35.125C43.907,35.125 45.25,33.782 45.25,32.125L45.25,27.625C45.25,25.968 43.907,24.625 42.25,24.625L39.625,24.625M42.235,24.625C42.235,16.755 35.855,10.375 27.985,10.375C20.115,10.375 13.735,16.755 13.735,24.625M21.13,33.625C22.325,36.353 25.021,38.116 28,38.116C30.979,38.116 33.675,36.353 34.87,33.625M21.25,27.25C21.457,27.25 21.625,27.418 21.625,27.625C21.625,27.832 21.457,28 21.25,28C21.043,28 20.875,27.832 20.875,27.625C20.875,27.418 21.043,27.25 21.25,27.25M34.75,27.25C34.957,27.25 35.125,27.418 35.125,27.625C35.125,27.832 34.957,28 34.75,28C34.543,28 34.375,27.832 34.375,27.625C34.375,27.418 34.543,27.25 34.75,27.25M31.555,37.225L38.815,44.5C39.116,44.803 39.533,44.963 39.959,44.94C40.386,44.918 40.783,44.714 41.05,44.38L41.995,43.195C42.25,42.868 42.359,42.45 42.295,42.04C42.236,41.627 42.008,41.258 41.665,41.02L33.685,35.5" style="fill:none;stroke:rgb(44,44,44);stroke-width:2px;"/>
                    </g>
                </g>
            </g>
        </g>
    </g>
</svg>
