<?xml version="1.0" encoding="UTF-8" standalone="no"?>
<!DOCTYPE svg PUBLIC "-//W3C//DTD SVG 1.1//EN" "http://www.w3.org/Graphics/SVG/1.1/DTD/svg11.dtd">
<svg width="100%" height="100%" viewBox="0 0 588 586" version="1.1" xmlns="http://www.w3.org/2000/svg" xmlns:xlink="http://www.w3.org/1999/xlink" xml:space="preserve" xmlns:serif="http://www.serif.com/" style="fill-rule:evenodd;clip-rule:evenodd;stroke-linecap:round;stroke-linejoin:round;">
    <g id="items" transform="matrix(1.07544,0,0,1.07544,-22.1791,-43.537)">
        <g id="blend">
            <g id="g-root-sy_-1_cu_1hi7jbbogyiod-fill" transform="matrix(1,0,0,1,14,62)">
                <g id="sy_-1_cu_1hi7jbbogyiod-fill">
                    <g>
                        <path d="M10,490L10,418L82.5,418L82.5,490L10,490ZM34,394L10,418L82.5,418L106,394L34,394ZM34,394L34,322L106,322L106,394L34,394ZM58,298L34,322L106,322L130,298L58,298ZM58,298L58,226L130,226L130,298L58,298ZM82,202L58,226L130,226L154,202L82,202ZM82,202L82,130L154,130L154,202L82,202ZM106,106L82,130L154,130L178,106L106,106ZM106,106L106,34L178,34L178,106L106,106ZM130,10L106,34L178,34L202,10L130,10Z" style="fill:url(#_Linear1);"/>
                    </g>
                </g>
            </g>
            <g id="g-root-sy_-1_cu_1_qvwznrogyioe-fill" transform="matrix(1,0,0,1,362,62)">
                <g id="sy_-1_cu_1_qvwznrogyioe-fill">
                    <g>
                        <path d="M202,490L202,418L130.5,418L130.5,490L202,490ZM202,418L178,394L106,394L130.5,418L202,418ZM178,322L178,394L106,394L106,322L178,322ZM178,322L154,298L82,298L106,322L178,322ZM154,226L154,298L82,298L82,226L154,226ZM154,226L130,202L58,202L82,226L154,226ZM130,130L130,202L58,202L58,130L130,130ZM130,130L106,106L34,106L58,130L130,130ZM106,34L106,106L34,106L34,34L106,34ZM106,34L82,10L10,10L34,34L106,34Z" style="fill:url(#_Linear2);"/>
                    </g>
                </g>
            </g>
            <g id="g-root-sy_1_cu_dkghafogyk9b-fill" transform="matrix(1,0,0,1,86.4998,446)">
                <g id="sy_1_cu_dkghafogyk9b-fill">
                    <g>
                        <path d="M10,106L10,34L406,34L406,106L10,106ZM381.5,10L406,34L10,34L33.5,10L381.5,10Z" style="fill:url(#_Linear3);"/>
                    </g>
                </g>
            </g>
            <g id="g-root-sy_2_cu_1uuwzuvogyj9k-fill" transform="matrix(1,0,0,1,110,350)">
                <g id="sy_2_cu_1uuwzuvogyj9k-fill">
                    <g>
                        <path d="M10,106L10,34L358,34L358,106L10,106ZM334,10L358,34L10,34L34,10L334,10Z" style="fill:url(#_Linear4);"/>
                    </g>
                </g>
            </g>
            <g id="g-root-sy_3_cu_1hjghhjogykuh-fill" transform="matrix(1,0,0,1,134,254)">
                <g id="sy_3_cu_1hjghhjogykuh-fill">
                    <g>
                        <path d="M10,34L10,106L310,106L310,34L10,34ZM286,10L310,34L10,34L34,10L286,10Z" style="fill:url(#_Linear5);"/>
                    </g>
                </g>
            </g>
            <g id="g-root-sy_4_cu_13ymutjogzxu2-fill" transform="matrix(1,0,0,1,158,158)">
                <g id="sy_4_cu_13ymutjogzxu2-fill">
                    <g>
                        <path d="M10,106L10,34L262,34L262,106L10,106ZM238,10L262,34L10,34L34,10L238,10Z" style="fill:url(#_Linear6);"/>
                    </g>
                </g>
            </g>
            <g id="g-root-sy_5_cu_qn6cg7ogzzez-fill" transform="matrix(1,0,0,1,182,62)">
                <g id="sy_5_cu_qn6cg7ogzzez-fill">
                    <g>
                        <path d="M10,106L10,34L214,34L214,106L10,106ZM190,10L214,34L10,34L34,10L190,10Z" style="fill:url(#_Linear7);"/>
                    </g>
                </g>
            </g>
            <g transform="matrix(1,0,0,1,198.72,240)">
                <g id="g-root-tx_realtime_1lua6x3ogzytc-fill">
                    <g id="tx_realtime_1lua6x3ogzytc-fill">
                        <g>
                            <g>
                                <text x="0px" y="0px" style="font-family:'ArialMT', 'Arial', sans-serif;font-size:20px;fill:rgb(244,244,244);">Real-T<tspan x="59.268px 63.711px " y="0px 0px ">im</tspan>e Monitoring</text>
                            </g>
                        </g>
                    </g>
                </g>
            </g>
            <g id="g-root-tx_datasync_v7zn9jogzytd-fill" transform="matrix(1,0,0,1,224,98)">
                <g id="tx_datasync_v7zn9jogzytd-fill">
                    <g>
                        <g>
                            <g transform="matrix(1,0,0,1,14.17,34)">
                                <text x="0px" y="0px" style="font-family:'ArialMT', 'Arial', sans-serif;font-size:20px;fill:rgb(244,244,244);">Data Sync &amp;</text>
                            </g>
                            <g transform="matrix(1,0,0,1,24.26,58)">
                                <text x="0px" y="0px" style="font-family:'ArialMT', 'Arial', sans-serif;font-size:20px;fill:rgb(244,244,244);">Reporting</text>
                            </g>
                        </g>
                    </g>
                </g>
            </g>
            <g transform="matrix(1,0,0,1,235.94,336)">
                <g id="g-root-tx_callinit_hva6pzogzy87-fill">
                    <g id="tx_callinit_hva6pzogzy87-fill">
                        <g>
                            <g>
                                <text x="0px" y="0px" style="font-family:'ArialMT', 'Arial', sans-serif;font-size:20px;fill:rgb(244,244,244);">Call Initiation</text>
                            </g>
                        </g>
                    </g>
                </g>
            </g>
            <g transform="matrix(1,0,0,1,237.69,432)">
                <g id="g-root-tx_crmpopup_1cxe8hzogzxfy-fill">
                    <g id="tx_crmpopup_1cxe8hzogzxfy-fill">
                        <g>
                            <g>
                                <text x="0px" y="0px" style="font-family:'ArialMT', 'Arial', sans-serif;font-size:20px;fill:rgb(244,244,244);">CRM Pop-Up</text>
                            </g>
                        </g>
                    </g>
                </g>
            </g>
            <g transform="matrix(1,0,0,1,240.62,528)">
                <g id="g-root-tx_agentlog_htergnogzz7x-fill">
                    <g id="tx_agentlog_htergnogzz7x-fill">
                        <g>
                            <g>
                                <text x="0px" y="0px" style="font-family:'ArialMT', 'Arial', sans-serif;font-size:20px;fill:rgb(244,244,244);">Agent Login</text>
                            </g>
                        </g>
                    </g>
                </g>
            </g>
            <g id="g-root-sy_-1_cu_1hi7jbbogyiod-stroke" transform="matrix(1,0,0,1,14,62)">
                <g id="sy_-1_cu_1hi7jbbogyiod-stroke">
                    <g>
                        <path d="M10,490L10,418L82.5,418L82.5,490L10,490ZM10,418L34,394L106,394L82.5,418L10,418ZM34,394L34,322L106,322L106,394L34,394ZM34,322L58,298L130,298L106,322L34,322ZM58,298L58,226L130,226L130,298L58,298ZM58,226L82,202L154,202L130,226L58,226ZM82,202L82,130L154,130L154,202L82,202ZM82,130L106,106L178,106L154,130L82,130ZM106,106L106,34L178,34L178,106L106,106ZM106,34L130,10L202,10L178,34L106,34Z" style="fill:none;stroke:rgb(244,244,244);stroke-width:2px;"/>
                    </g>
                </g>
            </g>
            <g id="g-root-sy_-1_cu_1_qvwznrogyioe-stroke" transform="matrix(1,0,0,1,362,62)">
                <g id="sy_-1_cu_1_qvwznrogyioe-stroke">
                    <g>
                        <path d="M202,418L202,490L130.5,490L130.5,418L202,418ZM202,418L178,394L106,394L130.5,418L202,418ZM178,322L178,394L106,394L106,322L178,322ZM178,322L154,298L82,298L106,322L178,322ZM154,226L154,298L82,298L82,226L154,226ZM154,226L130,202L58,202L82,226L154,226ZM130,130L130,202L58,202L58,130L130,130ZM130,130L106,106L34,106L58,130L130,130ZM106,106L106,34L34,34L34,106L106,106ZM106,34L82,10L10,10L34,34L106,34Z" style="fill:none;stroke:rgb(244,244,244);stroke-width:2px;"/>
                    </g>
                </g>
            </g>
            <g id="g-root-sy_1_cu_dkghafogyk9b-stroke" transform="matrix(1,0,0,1,86.4998,446)">
                <g id="sy_1_cu_dkghafogyk9b-stroke">
                    <g>
                        <path d="M10,34L10,106L406,106L406,34L10,34ZM406,34L381.5,10L33.5,10L10,34L406,34Z" style="fill:none;stroke:rgb(244,244,244);stroke-width:2px;"/>
                    </g>
                </g>
            </g>
            <g id="g-root-sy_2_cu_1uuwzuvogyj9k-stroke" transform="matrix(1,0,0,1,110,350)">
                <g id="sy_2_cu_1uuwzuvogyj9k-stroke">
                    <g>
                        <path d="M10,34L10,106L358,106L358,34L10,34ZM358,34L334,10L34,10L10,34L358,34Z" style="fill:none;stroke:rgb(244,244,244);stroke-width:2px;"/>
                    </g>
                </g>
            </g>
            <g id="g-root-sy_3_cu_1hjghhjogykuh-stroke" transform="matrix(1,0,0,1,134,254)">
                <g id="sy_3_cu_1hjghhjogykuh-stroke">
                    <g>
                        <path d="M10,106L10,34L310,34L310,106L10,106ZM310,34L286,10L34,10L10,34L310,34Z" style="fill:none;stroke:rgb(244,244,244);stroke-width:2px;"/>
                    </g>
                </g>
            </g>
            <g id="g-root-sy_4_cu_13ymutjogzxu2-stroke" transform="matrix(1,0,0,1,158,158)">
                <g id="sy_4_cu_13ymutjogzxu2-stroke">
                    <g>
                        <path d="M10,34L10,106L262,106L262,34L10,34ZM262,34L238,10L34,10L10,34L262,34Z" style="fill:none;stroke:rgb(244,244,244);stroke-width:2px;"/>
                    </g>
                </g>
            </g>
            <g id="g-root-sy_5_cu_qn6cg7ogzzez-stroke" transform="matrix(1,0,0,1,182,62)">
                <g id="sy_5_cu_qn6cg7ogzzez-stroke">
                    <g>
                        <path d="M10,34L10,106L214,106L214,34L10,34ZM214,34L190,10L34,10L10,34L214,34Z" style="fill:none;stroke:rgb(244,244,244);stroke-width:2px;"/>
                    </g>
                </g>
            </g>
            <g id="g-root-ic_uplo_1qbz4avogzx1e-stroke" transform="matrix(1,0,0,1,398,98)">
                <g id="ic_uplo_1qbz4avogzx1e-stroke">
                    <g>
                        <path d="M28.98,57.028L12.98,57.028C11.875,57.028 10.98,56.133 10.98,55.028L10.98,13.028C10.98,11.923 11.875,11.028 12.98,11.028L39.566,11.028C40.096,11.028 40.605,11.239 40.98,11.614L48.4,19.028C48.775,19.403 48.986,19.912 48.986,20.442L48.986,27.028M16.98,41.028L28.98,41.028M19.98,31.028L21.98,31.028C22.532,31.028 22.98,31.476 22.98,32.028L22.98,41.028L18.98,41.028L18.98,32.028C18.98,31.476 19.428,31.028 19.98,31.028ZM30.98,35.028L30.98,26.028C30.98,25.476 30.532,25.028 29.98,25.028L27.98,25.028C27.428,25.028 26.98,25.476 26.98,26.028L26.98,41.028M32.98,45.028C32.98,51.655 38.353,57.028 44.98,57.028C51.607,57.028 56.98,51.655 56.98,45.028C56.98,38.401 51.607,33.028 44.98,33.028C38.353,33.028 32.98,38.401 32.98,45.028L32.98,45.028ZM44.98,51.028L44.98,39.028M44.98,39.028L40.48,43.528M44.98,39.028L49.48,43.528" style="fill:none;stroke:rgb(244,244,244);stroke-width:2px;"/>
                    </g>
                </g>
            </g>
            <g id="g-root-ic_48px_1ltnptzoh5kas-stroke" transform="matrix(1,0,0,1,98,194)">
                <g id="ic_48px_1ltnptzoh5kas-stroke">
                    <g>
                        <path d="M15.072,30.179C15.072,24.482 17.789,19.696 23.011,19.696C28.233,19.696 30.949,24.482 30.949,30.179L30.949,37.273C30.949,42.97 28.105,47.882 23.011,47.882C17.916,47.882 15.072,42.97 15.072,37.273L15.072,30.179ZM49.91,47.979L49.91,19.551L36.295,39.738L55.315,39.738" style="fill:none;stroke:rgb(244,244,244);stroke-width:2px;"/>
                    </g>
                </g>
            </g>
            <g id="g-root-ic_pers_deu7ifoh4742-stroke" transform="matrix(1,0,0,1,422,194)">
                <g id="ic_pers_deu7ifoh4742-stroke">
                    <g>
                        <path d="M24.25,29.35L24.25,23.35M13.25,35.15L35.25,35.15M37.05,56.35C35.25,51.15 30.25,47.35 24.45,47.35C18.65,47.35 13.45,51.15 11.65,56.35M16.05,37.35C16.25,41.75 19.85,45.35 24.25,45.35C28.85,45.35 32.45,41.75 32.45,37.15L32.45,33.55C32.45,28.95 28.85,25.35 24.25,25.35C19.85,25.35 16.25,28.95 16.05,33.35L16.05,37.35ZM44.35,23.65C50.977,23.65 56.35,20.964 56.35,17.65C56.35,14.336 50.977,11.65 44.35,11.65C37.723,11.65 32.35,14.336 32.35,17.65C32.35,20.964 37.723,23.65 44.35,23.65ZM39.95,32.25C41.35,32.45 42.75,32.65 44.35,32.65C50.95,32.65 56.35,30.05 56.35,26.65L56.35,17.65M32.35,17.65L32.35,22.05M39.95,41.25C41.35,41.45 42.75,41.65 44.35,41.65C50.95,41.65 56.35,39.05 56.35,35.65L56.35,26.65" style="fill:none;stroke:rgb(244,244,244);stroke-width:2px;"/>
                    </g>
                </g>
            </g>
            <g id="g-root-ic_48px_18gbs7boh8dn2-stroke" transform="matrix(1,0,0,1,74,290)">
                <g id="ic_48px_18gbs7boh8dn2-stroke">
                    <g>
                        <path d="M15.072,30.179C15.072,24.482 17.789,19.695 23.011,19.695C28.233,19.695 30.949,24.482 30.949,30.179L30.949,37.273C30.949,42.969 28.105,47.882 23.011,47.882C17.916,47.882 15.072,42.969 15.072,37.273L15.072,30.179ZM37.121,27.068C37.002,24.659 38.483,19.71 45.065,19.71C51.648,19.71 52.656,24.597 52.428,27.357C52.177,30.4 50.272,33.508 42.201,33.508C49.714,33.508 53.126,35.562 53.126,41.125C53.126,45.933 48.876,47.89 44.992,47.89C42.201,47.866 36.62,46.287 36.62,40.162" style="fill:none;stroke:rgb(244,244,244);stroke-width:2px;"/>
                    </g>
                </g>
            </g>
            <g id="g-root-ic_1_v7d66foh6xol-stroke" transform="matrix(1,0,0,1,446,290)">
                <g id="ic_1_v7d66foh6xol-stroke">
                    <g>
                        <path d="M33.032,19.02L33.032,11.02L41.032,11.02M33.032,11.02L45.032,22.02L45.032,34.966M57.032,19.02L57.032,11.02L49.032,11.02M57.032,11.02L48.662,18.654M31.764,56.658C26.964,51.846 28.666,48.094 31.27,45.488L32.952,43.806C34.628,42.132 37.342,42.132 39.018,43.806L46.296,51.086C46.89,51.679 47.148,52.531 46.982,53.354C46.815,54.177 46.248,54.862 45.47,55.178C36.15,58.987 25.454,56.834 18.334,49.714C11.214,42.594 9.061,31.898 12.87,22.578C13.186,21.8 13.871,21.233 14.694,21.066C15.517,20.9 16.369,21.158 16.962,21.752L24.244,29.034C25.918,30.709 25.918,33.423 24.244,35.098L22.56,36.78C19.96,39.38 16.204,41.088 11.392,36.288" style="fill:none;stroke:rgb(244,244,244);stroke-width:2px;"/>
                    </g>
                </g>
            </g>
            <g id="g-root-ic_48px_1lsernroh1d6z-stroke" transform="matrix(1,0,0,1,122,98)">
                <g id="ic_48px_1lsernroh1d6z-stroke">
                    <g>
                        <path d="M15.072,30.179C15.072,24.482 17.789,19.696 23.011,19.696C28.233,19.696 30.949,24.482 30.949,30.179L30.949,37.273C30.949,42.97 28.105,47.882 23.011,47.882C17.916,47.882 15.072,42.97 15.072,37.273L15.072,30.179ZM53.693,20.121L40.379,20.121L38.988,33.144C39.817,32.315 42.353,30.657 45.865,30.657C49.971,30.657 53.813,33.447 53.427,40.052C53.028,46.894 48.912,47.904 45.529,47.904C41.945,47.904 38.405,45.361 38.073,40.565" style="fill:none;stroke:rgb(244,244,244);stroke-width:2px;"/>
                    </g>
                </g>
            </g>
            <g id="g-root-ic_box_1qbz4avohb5dt-stroke" transform="matrix(1,0,0,1,494,482)">
                <g id="ic_box_1qbz4avohb5dt-stroke">
                    <g>
                        <path d="M38.68,29.48C41.442,29.48 43.68,27.241 43.68,24.48C43.68,21.719 41.442,19.48 38.68,19.48C35.919,19.48 33.68,21.719 33.68,24.48C33.68,27.241 35.919,29.48 38.68,29.48ZM46.48,48.48L44.88,49.48L42.68,54.68C42.08,56.28 40.28,56.88 38.68,56.28C37.28,55.68 36.68,54.28 36.88,52.88C36.88,52.68 37.08,52.28 37.08,52.28L39.08,47.48M44.68,36.931L41.68,41.531C40.68,42.731 38.88,43.331 37.48,42.331C36.08,41.531 35.68,39.531 36.48,38.131L42.08,29.331C42.48,28.931 42.88,28.331 43.68,28.131C45.68,27.331 47.08,29.131 47.28,29.731L52.08,39.531C52.28,39.931 52.48,40.531 52.48,40.931L52.48,47.331L55.88,51.731C56.88,53.131 56.68,54.931 55.28,55.931C54.08,56.731 52.48,56.731 51.48,55.731L51.08,55.331L47.08,50.131C46.68,49.731 46.48,49.131 46.48,48.731L46.48,45.731M38.787,42.839L28.08,42.839L28.08,34.239L38.787,34.239M31,56.504L13.5,56.504C12.3,56.504 11.5,55.704 11.5,54.504L11.5,13.504C11.5,12.304 12.3,11.504 13.5,11.504L36,11.504C37.105,11.504 38,12.399 38,13.504L38,14M18.9,35.004C18.348,35.004 17.9,34.556 17.9,34.004C17.9,33.452 18.348,33.004 18.9,33.004M18.9,35.004C19.452,35.004 19.9,34.556 19.9,34.004C19.9,33.452 19.452,33.004 18.9,33.004" style="fill:none;stroke:rgb(244,244,244);stroke-width:2px;"/>
                    </g>
                </g>
            </g>
            <g id="g-root-ic_user_1i9vroh9r7z-stroke" transform="matrix(1,0,0,1,470,386)">
                <g id="ic_user_1i9vroh9r7z-stroke">
                    <g>
                        <path d="M33,51L15,51C12.791,51 11,49.209 11,47L11,15C11,12.791 12.791,11 15,11L53,11C55.209,11 57,12.791 57,15L57,29M18,15.508C18.203,15.508 18.386,15.631 18.463,15.819C18.54,16.006 18.495,16.222 18.351,16.364C18.206,16.507 17.99,16.548 17.803,16.468C17.616,16.388 17.497,16.203 17.5,16C17.504,15.727 17.727,15.508 18,15.508M11,21.008L57,21.008M24,15.508C24.203,15.508 24.386,15.631 24.463,15.819C24.54,16.006 24.495,16.222 24.351,16.364C24.206,16.507 23.99,16.548 23.803,16.468C23.616,16.388 23.497,16.203 23.5,16C23.504,15.727 23.727,15.508 24,15.508M30,15.508C30.203,15.508 30.386,15.631 30.463,15.819C30.54,16.006 30.495,16.222 30.351,16.364C30.206,16.507 29.99,16.548 29.803,16.468C29.616,16.388 29.497,16.203 29.5,16C29.5,15.724 29.724,15.5 30,15.5M57,57C57,51.477 52.523,47 47,47C41.477,47 37,51.477 37,57L57,57ZM41,38.008C41,41.322 43.686,44.008 47,44.008C50.314,44.008 53,41.322 53,38.008C53,34.694 50.314,32.008 47,32.008C43.686,32.008 41,34.694 41,38.008L41,38.008ZM24,29.008L34,29.008M24,38.008L30,38.008M18,28.508C18.276,28.508 18.5,28.732 18.5,29.008C18.5,29.284 18.276,29.508 18,29.508C17.724,29.508 17.5,29.284 17.5,29.008C17.5,28.732 17.724,28.508 18,28.508M18,37.508C18.276,37.508 18.5,37.732 18.5,38.008C18.5,38.284 18.276,38.508 18,38.508C17.724,38.508 17.5,38.284 17.5,38.008C17.5,37.732 17.724,37.508 18,37.508" style="fill:none;stroke:rgb(244,244,244);stroke-width:2px;"/>
                    </g>
                </g>
            </g>
            <g id="g-root-ic_48px_1um6cnbohdz4a-stroke" transform="matrix(1,0,0,1,26,482)">
                <g id="ic_48px_1um6cnbohdz4a-stroke">
                    <g>
                        <path d="M37.842,23.377L46.297,20.184L46.297,47.951M15.072,30.179C15.072,24.482 17.789,19.695 23.011,19.695C28.233,19.695 30.949,24.482 30.949,30.179L30.949,37.273C30.949,42.969 28.105,47.882 23.011,47.882C17.916,47.882 15.072,42.969 15.072,37.273L15.072,30.179Z" style="fill:none;stroke:rgb(244,244,244);stroke-width:2px;"/>
                    </g>
                </g>
            </g>
            <g id="g-root-ic_48px_18mkj2foh9slk-stroke" transform="matrix(1,0,0,1,50,386)">
                <g id="ic_48px_18mkj2foh9slk-stroke">
                    <g>
                        <path d="M15.072,30.179C15.072,24.482 17.789,19.695 23.011,19.695C28.233,19.695 30.949,24.482 30.949,30.179L30.949,37.273C30.949,42.969 28.105,47.882 23.011,47.882C17.916,47.882 15.072,42.969 15.072,37.273L15.072,30.179ZM36.832,27.515C36.832,22.895 40.056,19.695 44.438,19.695C51.707,19.695 54.186,26.789 49.421,33.098L37.33,47.417L53.951,47.417" style="fill:none;stroke:rgb(244,244,244);stroke-width:2px;"/>
                    </g>
                </g>
            </g>
        </g>
    </g>
    <defs>
        <linearGradient id="_Linear1" x1="0" y1="0" x2="1" y2="0" gradientUnits="userSpaceOnUse" gradientTransform="matrix(10,490,-490,10,0,0)"><stop offset="0" style="stop-color:rgb(149,149,149);stop-opacity:1"/><stop offset="1" style="stop-color:rgb(127,127,127);stop-opacity:1"/></linearGradient>
        <linearGradient id="_Linear2" x1="0" y1="0" x2="1" y2="0" gradientUnits="userSpaceOnUse" gradientTransform="matrix(10,490,-490,10,0,0)"><stop offset="0" style="stop-color:rgb(149,149,149);stop-opacity:1"/><stop offset="1" style="stop-color:rgb(127,127,127);stop-opacity:1"/></linearGradient>
        <linearGradient id="_Linear3" x1="0" y1="0" x2="1" y2="0" gradientUnits="userSpaceOnUse" gradientTransform="matrix(10,106,-106,10,-1.77636e-15,0)"><stop offset="0" style="stop-color:rgb(78,136,230);stop-opacity:1"/><stop offset="1" style="stop-color:rgb(79,126,202);stop-opacity:1"/></linearGradient>
        <linearGradient id="_Linear4" x1="0" y1="0" x2="1" y2="0" gradientUnits="userSpaceOnUse" gradientTransform="matrix(10,106,-106,10,0,0)"><stop offset="0" style="stop-color:rgb(31,169,215);stop-opacity:1"/><stop offset="1" style="stop-color:rgb(49,135,163);stop-opacity:1"/></linearGradient>
        <linearGradient id="_Linear5" x1="0" y1="0" x2="1" y2="0" gradientUnits="userSpaceOnUse" gradientTransform="matrix(10,106,-106,10,0,0)"><stop offset="0" style="stop-color:rgb(59,196,130);stop-opacity:1"/><stop offset="1" style="stop-color:rgb(68,152,112);stop-opacity:1"/></linearGradient>
        <linearGradient id="_Linear6" x1="0" y1="0" x2="1" y2="0" gradientUnits="userSpaceOnUse" gradientTransform="matrix(10,106,-106,10,0,0)"><stop offset="0" style="stop-color:rgb(145,187,57);stop-opacity:1"/><stop offset="1" style="stop-color:rgb(125,152,68);stop-opacity:1"/></linearGradient>
        <linearGradient id="_Linear7" x1="0" y1="0" x2="1" y2="0" gradientUnits="userSpaceOnUse" gradientTransform="matrix(10,106,-106,10,0,0)"><stop offset="0" style="stop-color:rgb(221,201,22);stop-opacity:1"/><stop offset="1" style="stop-color:rgb(169,156,44);stop-opacity:1"/></linearGradient>
    </defs>
</svg>
