<?xml version="1.0" encoding="UTF-8" standalone="no"?>
<!DOCTYPE svg PUBLIC "-//W3C//DTD SVG 1.1//EN" "http://www.w3.org/Graphics/SVG/1.1/DTD/svg11.dtd">
<svg width="100%" height="100%" viewBox="0 0 702 906" version="1.1" xmlns="http://www.w3.org/2000/svg" xmlns:xlink="http://www.w3.org/1999/xlink" xml:space="preserve" xmlns:serif="http://www.serif.com/" style="fill-rule:evenodd;clip-rule:evenodd;stroke-linecap:round;stroke-linejoin:round;">
    <g id="items" transform="matrix(1.09187,0,0,1.09187,-32.2457,-52.7106)">
        <g id="blend">
            <g id="g-root-cp_5_shape-5_8zmxm28o14i3-fill" transform="matrix(1,0,0,1,314.303,68)">
                <g id="cp_5_shape-5_8zmxm28o14i3-fill">
                    <g>
                        <path d="M27.697,304L15.697,304L15.697,160L27.697,160L27.697,304ZM32.297,28.191L27.697,28.191L27.697,160L15.697,160L15.697,28.191L11.017,28.191C10.237,28.191 9.747,27.341 10.137,26.661L20.86,10.448C21.256,9.849 22.136,9.851 22.53,10.451L33.177,26.661C33.577,27.341 33.087,28.191 32.297,28.191Z" style="fill:rgb(203,104,249);"/>
                    </g>
                </g>
            </g>
            <g id="g-root-cp_1_shape-1_1cymxt68o1539-fill" transform="matrix(1,0,0,1,32,67.8164)">
                <g id="cp_1_shape-1_1cymxt68o1539-fill">
                    <g>
                        <path d="M214,340.184L46,340.183C26.118,340.183 10,324.081 10,304.199L10,304.184L250,304.184C250,324.066 233.882,340.184 214,340.184ZM254.6,28.375L250,28.375L250,160.184L10,160.184C10,140.302 26.118,124.505 46,124.505L172,124.505C213.07,124.505 238,94.374 238,55.034L238,28.374L233.32,28.374C232.54,28.374 232.05,27.524 232.44,26.844L243.163,10.632C243.559,10.033 244.439,10.034 244.833,10.635L255.48,26.844C255.88,27.525 255.39,28.375 254.6,28.375ZM250,160.184L250,304.184L10,304.184L10,160.184L250,160.184Z" style="fill:rgb(251,103,98);"/>
                    </g>
                </g>
            </g>
            <g id="g-root-cp_3_shape-3_qs5wa28o14b3-fill" transform="matrix(1,0,0,1,284.303,68)">
                <g id="cp_3_shape-3_qs5wa28o14b3-fill">
                    <g>
                        <path d="M27.697,304L15.697,304L15.697,160L27.697,160L27.697,304ZM32.297,28.191L27.697,28.191L27.697,160L15.697,160L15.697,28.191L11.017,28.191C10.237,28.191 9.747,27.341 10.137,26.661L20.86,10.448C21.256,9.849 22.136,9.851 22.53,10.451L33.177,26.661C33.577,27.341 33.087,28.191 32.297,28.191Z" style="fill:rgb(255,231,17);"/>
                    </g>
                </g>
            </g>
            <g id="g-root-cp_3_shape-3_1_hwiw168o15vl-fill" transform="matrix(1,0,0,1,32,362)">
                <g id="cp_3_shape-3_1_hwiw168o15vl-fill">
                    <g>
                        <path d="M214,64.321C244,64.321 268,46 268,10L280,10L280,100.306L10,100.306C10,80.423 26.118,64.321 46,64.321L214,64.321Z" style="fill:rgb(255,231,17);"/>
                    </g>
                </g>
            </g>
            <g id="g-root-cp_5_shape-5_1_4louqy8o14ar-fill" transform="matrix(1,0,0,1,320,362)">
                <g id="cp_5_shape-5_1_4louqy8o14ar-fill">
                    <g>
                        <rect x="10" y="10" width="12" height="222" style="fill:rgb(203,104,249);"/>
                    </g>
                </g>
            </g>
            <g id="g-root-cp_3_shape-3_2_1hfpe3u8o16h9-fill" transform="matrix(1,0,0,1,32,452)">
                <g id="cp_3_shape-3_2_1hfpe3u8o16h9-fill">
                    <g>
                        <path d="M280,10L280,141.979L10,141.979L10,10L280,10ZM244,178.008L46,178.008C26.118,178.008 10,161.905 10,142.023L10,142.008L280,142.008C280,161.89 263.882,178.008 244,178.008Z" style="fill:rgb(255,231,17);"/>
                    </g>
                </g>
            </g>
            <g id="g-root-cp_5_shape-5_2_zp1up68o15on-fill" transform="matrix(1,0,0,1,32,584)">
                <g id="cp_5_shape-5_2_zp1up68o15on-fill">
                    <g>
                        <path d="M244,64.137C274,64.137 298,45.878 298,10L310,10L310,100L10,100C10,80.185 26.118,64.137 46,64.137L244,64.137Z" style="fill:rgb(203,104,249);"/>
                    </g>
                </g>
            </g>
            <g id="g-root-cp_5_shape-5_3_me7tey8o143t-fill" transform="matrix(1,0,0,1,32,674)">
                <g id="cp_5_shape-5_3_me7tey8o143t-fill">
                    <g>
                        <path d="M310,10L310,142L10,142L10,10L310,10ZM274,178.008L46,178.008C26.118,178.008 10,161.882 10,142L310,142C310,161.882 293.882,178.008 274,178.008Z" style="fill:rgb(203,104,249);"/>
                    </g>
                </g>
            </g>
            <g id="g-root-cp_2_shape-2_4mxsx68o16gz-fill" transform="matrix(1,0,0,1,404.378,67.8164)">
                <g id="cp_2_shape-2_4mxsx68o16gz-fill">
                    <g>
                        <path d="M51.622,328.184L219.622,328.184C239.504,328.184 255.622,312.081 255.622,292.199L255.622,292.184L15.622,292.184C15.622,312.066 31.74,328.184 51.622,328.184ZM11.022,28.375L15.622,28.375L15.622,160.184L255.622,160.184C255.622,140.302 239.505,124.505 219.623,124.505L93.622,124.505C52.552,124.505 27.622,94.374 27.622,55.034L27.622,28.374L32.302,28.374C33.082,28.374 33.572,27.524 33.182,26.844L22.459,10.632C22.063,10.033 21.184,10.034 20.79,10.635L10.142,26.844C9.742,27.525 10.232,28.375 11.022,28.375ZM15.622,160.184L15.622,292.184L255.622,292.184L255.622,160.184L15.622,160.184Z" style="fill:rgb(67,221,147);"/>
                    </g>
                </g>
            </g>
            <g id="g-root-cp_4_shape-4_1qd7tm28o14p1-fill" transform="matrix(1,0,0,1,374.383,68)">
                <g id="cp_4_shape-4_1qd7tm28o14p1-fill">
                    <g>
                        <path d="M15.623,292L27.623,292L27.623,160L15.623,160L15.623,292ZM11.022,28.191L15.622,28.191L15.622,160L27.622,160L27.622,28.191L32.302,28.191C33.082,28.191 33.572,27.341 33.182,26.661L22.459,10.448C22.063,9.849 21.184,9.851 20.79,10.451L10.142,26.661C9.742,27.341 10.232,28.191 11.022,28.191Z" style="fill:rgb(247,148,56);"/>
                    </g>
                </g>
            </g>
            <g id="g-root-cp_6_shape-6_1d1rb8q8o169z-fill" transform="matrix(1,0,0,1,344.383,68)">
                <g id="cp_6_shape-6_1d1rb8q8o169z-fill">
                    <g>
                        <path d="M15.623,292L27.623,292L27.623,160L15.623,160L15.623,292ZM11.022,28.191L15.622,28.191L15.622,160L27.622,160L27.622,28.191L32.302,28.191C33.082,28.191 33.572,27.341 33.182,26.661L22.459,10.448C22.063,9.849 21.184,9.851 20.79,10.451L10.142,26.661C9.742,27.341 10.232,28.191 11.022,28.191Z" style="fill:rgb(243,102,187);"/>
                    </g>
                </g>
            </g>
            <g id="g-root-cp_4_shape-4_1_zqx9yi8o14p5-fill" transform="matrix(1,0,0,1,380,350)">
                <g id="cp_4_shape-4_1_zqx9yi8o14p5-fill">
                    <g>
                        <path d="M76,64.321C46,64.321 22,46 22,10L10,10L10,100.306L280,100.306C280,80.423 263.882,64.321 244,64.321L76,64.321Z" style="fill:rgb(247,148,56);"/>
                    </g>
                </g>
            </g>
            <g id="g-root-cp_4_shape-4_2_mfgrl68o16a3-fill" transform="matrix(1,0,0,1,380,440)">
                <g id="cp_4_shape-4_2_mfgrl68o16a3-fill">
                    <g>
                        <path d="M10,10L10,142L280,142L280,10L10,10ZM46,178L244,178C263.882,178 280,161.898 280,142.016L280,142L10,142C10,161.882 26.118,178 46,178Z" style="fill:rgb(247,148,56);"/>
                    </g>
                </g>
            </g>
            <g id="g-root-cp_6_shape-6_1_94mqay8o14p9-fill" transform="matrix(1,0,0,1,350,350)">
                <g id="cp_6_shape-6_1_94mqay8o14p9-fill">
                    <g>
                        <rect x="10" y="10" width="12" height="222" style="fill:rgb(243,102,187);"/>
                    </g>
                </g>
            </g>
            <g id="g-root-cp_6_shape-6_2_4ot86i8o15hj-fill" transform="matrix(1,0,0,1,350,572)">
                <g id="cp_6_shape-6_2_4ot86i8o15hj-fill">
                    <g>
                        <path d="M76,64.321C46,64.321 22,46 22,10L10,10L10,100.306L310,100.306C310,80.423 293.882,64.321 274,64.321L76,64.321Z" style="fill:rgb(243,102,187);"/>
                    </g>
                </g>
            </g>
            <g id="g-root-cp_6_shape-6_3_1qf38ve8o13pl-fill" transform="matrix(1,0,0,1,350,662)">
                <g id="cp_6_shape-6_3_1qf38ve8o13pl-fill">
                    <g>
                        <path d="M10,10L10,118L310,118L310,10L10,10ZM46,154L274,154C293.882,154 310,137.898 310,118.016L310,118L10,118C10,137.882 26.118,154 46,154Z" style="fill:rgb(243,102,187);"/>
                    </g>
                </g>
            </g>
            <g id="g-root-tx_enhanced_74dyi8nu51g-fill" transform="matrix(1,0,0,1,452,302)">
                <g id="tx_enhanced_74dyi8nu51g-fill">
                    <g>
                        <g>
                            <g transform="matrix(1,0,0,1,30.11,31.2)">
                                <text x="0px" y="0px" style="font-family:'ArialMT', 'Arial', sans-serif;font-size:15px;fill:rgb(44,44,44);">Enhanced patient</text>
                            </g>
                            <g transform="matrix(1,0,0,1,29.47,49.2)">
                                <text x="0px" y="0px" style="font-family:'ArialMT', 'Arial', sans-serif;font-size:15px;fill:rgb(44,44,44);">management and</text>
                            </g>
                            <g transform="matrix(1,0,0,1,15.31,67.2)">
                                <g transform="matrix(15,0,0,15,86.7334,0)">
                                </g>
                                <g transform="matrix(15,0,0,15,90.7675,0)">
                                </g>
                                <g transform="matrix(15,0,0,15,94.8015,0)">
                                </g>
                                <text x="0px" y="0px" style="font-family:'ArialMT', 'Arial', sans-serif;font-size:15px;fill:rgb(44,44,44);">operational eﬃciency<tspan x="139.431px " y="0px ">.</tspan></text>
                            </g>
                        </g>
                    </g>
                </g>
            </g>
            <g id="g-root-tx_streamli_qp1iui8o2i31-fill" transform="matrix(1,0,0,1,80,302)">
                <g id="tx_streamli_qp1iui8o2i31-fill">
                    <g>
                        <g>
                            <g transform="matrix(1,0,0,1,40.13,28.2)">
                                <text x="0px" y="0px" style="font-family:'ArialMT', 'Arial', sans-serif;font-size:15px;fill:rgb(44,44,44);">Streamlined</text>
                            </g>
                            <g transform="matrix(1,0,0,1,13.68,46.2)">
                                <text x="0px" y="0px" style="font-family:'ArialMT', 'Arial', sans-serif;font-size:15px;fill:rgb(44,44,44);">communication and</text>
                            </g>
                            <g transform="matrix(1,0,0,1,22.77,64.2)">
                                <text x="0px" y="0px" style="font-family:'ArialMT', 'Arial', sans-serif;font-size:15px;fill:rgb(44,44,44);">customer service</text>
                            </g>
                            <g transform="matrix(1,0,0,1,43.71,82.2)">
                                <text x="0px" y="0px" style="font-family:'ArialMT', 'Arial', sans-serif;font-size:15px;fill:rgb(44,44,44);">processes.</text>
                            </g>
                        </g>
                    </g>
                </g>
            </g>
            <g transform="matrix(1,0,0,1,87.72,534)">
                <g id="g-root-tx_educatio_8ye2lm8noikg-fill">
                    <g id="tx_educatio_8ye2lm8noikg-fill">
                        <g>
                            <g>
                                <text x="0px" y="0px" style="font-family:'Arial-BoldMT', 'Arial', sans-serif;font-weight:700;font-size:20px;fill:rgb(44,44,44);">Education &amp; EdT<tspan x="158.516px 169.639px " y="0px 0px ">ec</tspan>h</text>
                            </g>
                        </g>
                    </g>
                </g>
            </g>
            <g transform="matrix(1,0,0,1,433.81,522)">
                <g id="g-root-tx_financei_1uuad2i8nvh8v-fill">
                    <g id="tx_financei_1uuad2i8nvh8v-fill">
                        <g>
                            <g>
                                <text x="0px" y="0px" style="font-family:'Arial-BoldMT', 'Arial', sans-serif;font-weight:700;font-size:20px;fill:rgb(44,44,44);">Finance &amp; Insurance</text>
                            </g>
                        </g>
                    </g>
                </g>
            </g>
            <g id="g-root-tx_improved_v6qje28nohl5-fill" transform="matrix(1,0,0,1,59,536)">
                <g id="tx_improved_v6qje28nohl5-fill">
                    <g>
                        <g>
                            <g transform="matrix(1,0,0,1,44.94,31.2)">
                                <text x="0px" y="0px" style="font-family:'ArialMT', 'Arial', sans-serif;font-size:15px;fill:rgb(44,44,44);">Improved educational</text>
                            </g>
                            <g transform="matrix(1,0,0,1,15.94,49.2)">
                                <text x="0px" y="0px" style="font-family:'ArialMT', 'Arial', sans-serif;font-size:15px;fill:rgb(44,44,44);">administration and technology</text>
                            </g>
                            <g transform="matrix(1,0,0,1,79.31,67.2)">
                                <text x="0px" y="0px" style="font-family:'ArialMT', 'Arial', sans-serif;font-size:15px;fill:rgb(44,44,44);">integration.</text>
                            </g>
                        </g>
                    </g>
                </g>
            </g>
            <g id="g-root-tx_optimize_8vw6968nwwlk-fill" transform="matrix(1,0,0,1,437,524)">
                <g id="tx_optimize_8vw6968nwwlk-fill">
                    <g>
                        <g>
                            <g transform="matrix(1,0,0,1,22.19,31.2)">
                                <g transform="matrix(15,0,0,15,71.6895,0)">
                                </g>
                                <g transform="matrix(15,0,0,15,75.8569,0)">
                                </g>
                                <text x="0px" y="0px" style="font-family:'ArialMT', 'Arial', sans-serif;font-size:15px;fill:rgb(44,44,44);">Optimized ﬁnancial</text>
                            </g>
                            <g transform="matrix(1,0,0,1,16.41,49.2)">
                                <text x="0px" y="0px" style="font-family:'ArialMT', 'Arial', sans-serif;font-size:15px;fill:rgb(44,44,44);">transactions and risk</text>
                            </g>
                            <g transform="matrix(1,0,0,1,39.96,67.2)">
                                <text x="0px" y="0px" style="font-family:'ArialMT', 'Arial', sans-serif;font-size:15px;fill:rgb(44,44,44);">management.</text>
                            </g>
                        </g>
                    </g>
                </g>
            </g>
            <g id="g-root-tx_efficien_1hbymqy8nybyc-fill" transform="matrix(1,0,0,1,380,746)">
                <g id="tx_efficien_1hbymqy8nybyc-fill">
                    <g>
                        <g>
                            <g transform="matrix(1,0,0,1,12.46,28.2)">
                                <g transform="matrix(15,0,0,15,10.0049,0)">
                                </g>
                                <g transform="matrix(15,0,0,15,14.0389,0)">
                                </g>
                                <g transform="matrix(15,0,0,15,18.073,0)">
                                </g>
                                <text x="0px" y="0px" style="font-family:'ArialMT', 'Arial', sans-serif;font-size:15px;fill:rgb(44,44,44);">Eﬃcient property management and</text>
                            </g>
                            <g transform="matrix(1,0,0,1,68.21,46.2)">
                                <text x="0px" y="0px" style="font-family:'ArialMT', 'Arial', sans-serif;font-size:15px;fill:rgb(44,44,44);">client interactions.</text>
                            </g>
                        </g>
                    </g>
                </g>
            </g>
            <g transform="matrix(1,0,0,1,491.03,300)">
                <g id="g-root-tx_healthca_1hfph9m8nu51f-fill">
                    <g id="tx_healthca_1hfph9m8nu51f-fill">
                        <g>
                            <g>
                                <text x="0px" y="0px" style="font-family:'Arial-BoldMT', 'Arial', sans-serif;font-weight:700;font-size:20px;fill:rgb(44,44,44);">Healthcare</text>
                            </g>
                        </g>
                    </g>
                </g>
            </g>
            <g transform="matrix(1,0,0,1,107.2,300)">
                <g id="g-root-tx_callcent_1um63sa8o2jnw-fill">
                    <g id="tx_callcent_1um63sa8o2jnw-fill">
                        <g>
                            <g>
                                <text x="0px" y="0px" style="font-family:'Arial-BoldMT', 'Arial', sans-serif;font-weight:700;font-size:20px;fill:rgb(44,44,44);">Call Centers</text>
                            </g>
                        </g>
                    </g>
                </g>
            </g>
            <g transform="matrix(1,0,0,1,134.69,756)">
                <g id="g-root-tx_ecommerc_zlxkfe8nspon-fill">
                    <g id="tx_ecommerc_zlxkfe8nspon-fill">
                        <g>
                            <g>
                                <text x="0px" y="0px" style="font-family:'Arial-BoldMT', 'Arial', sans-serif;font-weight:700;font-size:20px;fill:rgb(44,44,44);">E-commerce</text>
                            </g>
                        </g>
                    </g>
                </g>
            </g>
            <g transform="matrix(1,0,0,1,459.43,744)">
                <g id="g-root-tx_realesta_qnsnu28nycy3-fill">
                    <g id="tx_realesta_qnsnu28nycy3-fill">
                        <g>
                            <g>
                                <text x="0px" y="0px" style="font-family:'Arial-BoldMT', 'Arial', sans-serif;font-weight:700;font-size:20px;fill:rgb(44,44,44);">Real Estate</text>
                            </g>
                        </g>
                    </g>
                </g>
            </g>
            <g id="g-root-tx_seamless_1qa3jca8nsoow-fill" transform="matrix(1,0,0,1,86,758)">
                <g id="tx_seamless_1qa3jca8nsoow-fill">
                    <g>
                        <g>
                            <g transform="matrix(1,0,0,1,15.66,31.2)">
                                <text x="0px" y="0px" style="font-family:'ArialMT', 'Arial', sans-serif;font-size:15px;fill:rgb(44,44,44);">Seamless online sales and</text>
                            </g>
                            <g transform="matrix(1,0,0,1,31.51,49.2)">
                                <text x="0px" y="0px" style="font-family:'ArialMT', 'Arial', sans-serif;font-size:15px;fill:rgb(44,44,44);">customer relationship</text>
                            </g>
                            <g transform="matrix(1,0,0,1,57.96,67.2)">
                                <text x="0px" y="0px" style="font-family:'ArialMT', 'Arial', sans-serif;font-size:15px;fill:rgb(44,44,44);">management.</text>
                            </g>
                        </g>
                    </g>
                </g>
            </g>
            <g id="g-root-cp_5_shape-5_8zmxm28o14i3-stroke" transform="matrix(1,0,0,1,314.303,68)">
                <g id="cp_5_shape-5_8zmxm28o14i3-stroke">
                    <g>
                        <path d="M15.697,160L15.697,304M27.697,304L27.697,160M15.697,160L15.697,28.191L11.017,28.191C10.237,28.191 9.747,27.341 10.137,26.661L20.86,10.448C21.256,9.849 22.136,9.851 22.53,10.451L33.177,26.661C33.577,27.341 33.087,28.191 32.297,28.191L27.697,28.191L27.697,160" style="fill:none;stroke:rgb(44,44,44);stroke-width:2px;"/>
                    </g>
                </g>
            </g>
            <g id="g-root-cp_1_shape-1_1cymxt68o1539-stroke" transform="matrix(1,0,0,1,32,67.8164)">
                <g id="cp_1_shape-1_1cymxt68o1539-stroke">
                    <g>
                        <path d="M10,160.184C10,140.301 26.118,124.321 46,124.321L172,124.321C213.07,124.321 238,94.191 238,54.851L238,28.191L233.32,28.191C232.54,28.191 232.05,27.341 232.44,26.661L243.163,10.448C243.559,9.849 244.439,9.851 244.833,10.451L255.48,26.661C255.88,27.341 255.39,28.191 254.6,28.191L250,28.191L250,160.184M250,304.184C250,324.066 233.882,340.191 214,340.191L46,340.191C26.118,340.191 10,324.081 10,304.199L10,304.184M250,304.184L250,160.184M10,160.184L10,304.184" style="fill:none;stroke:rgb(44,44,44);stroke-width:2px;"/>
                    </g>
                </g>
            </g>
            <g id="g-root-cp_3_shape-3_qs5wa28o14b3-stroke" transform="matrix(1,0,0,1,284.303,68)">
                <g id="cp_3_shape-3_qs5wa28o14b3-stroke">
                    <g>
                        <path d="M15.697,160L15.697,304M27.697,304L27.697,160M15.697,160L15.697,28.191L11.017,28.191C10.237,28.191 9.747,27.341 10.137,26.661L20.86,10.448C21.256,9.849 22.136,9.851 22.53,10.451L33.177,26.661C33.577,27.341 33.087,28.191 32.297,28.191L27.697,28.191L27.697,160" style="fill:none;stroke:rgb(44,44,44);stroke-width:2px;"/>
                    </g>
                </g>
            </g>
            <g id="g-root-cp_3_shape-3_1_hwiw168o15vl-stroke" transform="matrix(1,0,0,1,32,362)">
                <g id="cp_3_shape-3_1_hwiw168o15vl-stroke">
                    <g>
                        <path d="M268,10C268,46 244,64.321 214,64.321L46,64.321C26.118,64.321 10,80.423 10,100.306M280,100.306L280,10" style="fill:none;stroke:rgb(44,44,44);stroke-width:2px;"/>
                    </g>
                </g>
            </g>
            <g id="g-root-cp_5_shape-5_1_4louqy8o14ar-stroke" transform="matrix(1,0,0,1,320,362)">
                <g id="cp_5_shape-5_1_4louqy8o14ar-stroke">
                    <g>
                        <path d="M10,10L10,232M22,232L22,10" style="fill:none;stroke:rgb(44,44,44);stroke-width:2px;"/>
                    </g>
                </g>
            </g>
            <g id="g-root-cp_3_shape-3_2_1hfpe3u8o16h9-stroke" transform="matrix(1,0,0,1,32,452)">
                <g id="cp_3_shape-3_2_1hfpe3u8o16h9-stroke">
                    <g>
                        <path d="M280,141.979L280,10M10,10L10,142M280,142.008C280,161.89 263.882,178.008 244,178.008L46,178.008C26.118,178.008 10,161.905 10,142.023L10,142.008" style="fill:none;stroke:rgb(44,44,44);stroke-width:2px;"/>
                    </g>
                </g>
            </g>
            <g id="g-root-cp_5_shape-5_2_zp1up68o15on-stroke" transform="matrix(1,0,0,1,32,584)">
                <g id="cp_5_shape-5_2_zp1up68o15on-stroke">
                    <g>
                        <path d="M298,10C298,45.878 274,64.137 244,64.137L46,64.137C26.118,64.137 10,80.185 10,100M310,100L310,10" style="fill:none;stroke:rgb(44,44,44);stroke-width:2px;"/>
                    </g>
                </g>
            </g>
            <g id="g-root-cp_5_shape-5_3_me7tey8o143t-stroke" transform="matrix(1,0,0,1,32,674)">
                <g id="cp_5_shape-5_3_me7tey8o143t-stroke">
                    <g>
                        <path d="M310,142L310,10M10,10L10,142M310,142C310,161.882 293.882,178.008 274,178.008L46,178.008C26.118,178.008 10,161.882 10,142" style="fill:none;stroke:rgb(44,44,44);stroke-width:2px;"/>
                    </g>
                </g>
            </g>
            <g id="g-root-cp_2_shape-2_4mxsx68o16gz-stroke" transform="matrix(1,0,0,1,404.378,67.8164)">
                <g id="cp_2_shape-2_4mxsx68o16gz-stroke">
                    <g>
                        <path d="M255.622,160.184C255.622,140.301 239.505,124.321 219.623,124.321L93.622,124.321C52.552,124.321 27.622,94.191 27.622,54.851L27.622,28.191L32.302,28.191C33.082,28.191 33.572,27.341 33.182,26.661L22.459,10.448C22.063,9.849 21.184,9.851 20.79,10.451L10.142,26.661C9.742,27.341 10.232,28.191 11.022,28.191L15.622,28.191L15.622,160.184M15.622,292.184C15.622,312.066 31.74,328.184 51.622,328.184L219.623,328.183C239.505,328.183 255.622,312.081 255.622,292.199L255.622,292.184M15.622,292.184L15.622,160.184M255.622,160.184L255.622,292.184" style="fill:none;stroke:rgb(44,44,44);stroke-width:2px;"/>
                    </g>
                </g>
            </g>
            <g id="g-root-cp_4_shape-4_1qd7tm28o14p1-stroke" transform="matrix(1,0,0,1,374.383,68)">
                <g id="cp_4_shape-4_1qd7tm28o14p1-stroke">
                    <g>
                        <path d="M27.622,160L27.622,292M15.622,292L15.622,160M27.622,160L27.622,28.191L32.302,28.191C33.082,28.191 33.572,27.341 33.182,26.661L22.459,10.448C22.063,9.849 21.184,9.851 20.79,10.451L10.142,26.661C9.742,27.341 10.232,28.191 11.022,28.191L15.622,28.191L15.622,160" style="fill:none;stroke:rgb(44,44,44);stroke-width:2px;"/>
                    </g>
                </g>
            </g>
            <g id="g-root-cp_6_shape-6_1d1rb8q8o169z-stroke" transform="matrix(1,0,0,1,344.383,68)">
                <g id="cp_6_shape-6_1d1rb8q8o169z-stroke">
                    <g>
                        <path d="M27.622,160L27.622,292M15.622,292L15.622,160M27.622,160L27.622,28.191L32.302,28.191C33.082,28.191 33.572,27.341 33.182,26.661L22.459,10.448C22.063,9.849 21.184,9.851 20.79,10.451L10.142,26.661C9.742,27.341 10.232,28.191 11.022,28.191L15.622,28.191L15.622,160" style="fill:none;stroke:rgb(44,44,44);stroke-width:2px;"/>
                    </g>
                </g>
            </g>
            <g id="g-root-cp_4_shape-4_1_zqx9yi8o14p5-stroke" transform="matrix(1,0,0,1,380,350)">
                <g id="cp_4_shape-4_1_zqx9yi8o14p5-stroke">
                    <g>
                        <path d="M22,10C22,46 46,64.321 76,64.321L244,64.321C263.882,64.321 280,80.423 280,100.306M10,100.306L10,10" style="fill:none;stroke:rgb(44,44,44);stroke-width:2px;"/>
                    </g>
                </g>
            </g>
            <g id="g-root-cp_4_shape-4_2_mfgrl68o16a3-stroke" transform="matrix(1,0,0,1,380,440)">
                <g id="cp_4_shape-4_2_mfgrl68o16a3-stroke">
                    <g>
                        <path d="M10,142L10,10M280,10L280,142M10,142C10,161.882 26.118,178.008 46,178.008L244,178.008C263.882,178.008 280,161.898 280,142.016L280,142" style="fill:none;stroke:rgb(44,44,44);stroke-width:2px;"/>
                    </g>
                </g>
            </g>
            <g id="g-root-cp_6_shape-6_1_94mqay8o14p9-stroke" transform="matrix(1,0,0,1,350,350)">
                <g id="cp_6_shape-6_1_94mqay8o14p9-stroke">
                    <g>
                        <path d="M22,10L22,232M10,232L10,10" style="fill:none;stroke:rgb(44,44,44);stroke-width:2px;"/>
                    </g>
                </g>
            </g>
            <g id="g-root-cp_6_shape-6_2_4ot86i8o15hj-stroke" transform="matrix(1,0,0,1,350,572)">
                <g id="cp_6_shape-6_2_4ot86i8o15hj-stroke">
                    <g>
                        <path d="M22,10C22,46 46,64.321 76,64.321L274,64.321C293.882,64.321 310,80.423 310,100.306M10,100.306L10,10" style="fill:none;stroke:rgb(44,44,44);stroke-width:2px;"/>
                    </g>
                </g>
            </g>
            <g id="g-root-cp_6_shape-6_3_1qf38ve8o13pl-stroke" transform="matrix(1,0,0,1,350,662)">
                <g id="cp_6_shape-6_3_1qf38ve8o13pl-stroke">
                    <g>
                        <path d="M10,118L10,10M310,10L310,118M10,118C10,137.882 26.118,154.008 46,154.008L274,154.008C293.882,154.008 310,137.898 310,118.016L310,118" style="fill:none;stroke:rgb(44,44,44);stroke-width:2px;"/>
                    </g>
                </g>
            </g>
            <g id="g-root-ic_stud_4mhm28noide-stroke" transform="matrix(1,0,0,1,143,440)">
                <g id="ic_stud_4mhm28noide-stroke">
                    <g>
                        <path d="M32.6,25.6C30.17,25.6 28.2,23.63 28.2,21.2C28.2,18.77 30.17,16.8 32.6,16.8C35.03,16.8 37,18.77 37,21.2C37,23.63 35.03,25.6 32.6,25.6ZM25.8,34.6C25.8,30.8 28.8,27.8 32.6,27.8C36.4,27.8 39.4,30.8 39.4,34.6M46.5,42.9C46.5,42.9 45.5,40.1 37.9,39.7C37.1,39.7 36.5,40.1 36.5,40.7L36.5,52.3C36.5,52.9 37.1,53.3 37.7,53.3C45.5,53.5 46.5,56.5 46.5,56.5L46.5,42.9ZM46.5,42.9C46.5,42.9 47.5,40.1 55.1,39.7C55.9,39.7 56.5,40.1 56.5,40.7L56.5,52.3C56.5,52.9 55.9,53.3 55.3,53.3C47.5,53.5 46.5,56.5 46.5,56.5M52.7,34.3L52.7,14.3C52.7,12.7 51.5,11.5 49.9,11.5L14.3,11.5C12.7,11.5 11.5,12.7 11.5,14.3L11.5,41.7C11.5,43.3 12.7,44.5 14.3,44.5L29.9,44.5M27.3,44.5L25.9,52.5M29.4,52.5L23.9,52.5" style="fill:none;stroke:rgb(44,44,44);stroke-width:2px;"/>
                    </g>
                </g>
            </g>
            <g id="g-root-ic_shie_1cuw6ga8nwx6p-stroke" transform="matrix(1,0,0,1,491,428)">
                <g id="ic_shie_1cuw6ga8nwx6p-stroke">
                    <g>
                        <path d="M49.028,18.96L11.028,18.96M29.028,36.96L14.028,36.96C12.371,36.96 11.028,35.617 11.028,33.96L11.028,13.96C11.028,12.303 12.371,10.96 14.028,10.96L46.028,10.96C47.685,10.96 49.028,12.303 49.028,13.96L49.028,28.96M45.028,24.96L39.028,24.96M21.028,28.96L15.028,28.96M25.028,24.96L15.028,24.96M45.028,36.96L45.028,48.96M51.028,42.96L39.028,42.96M46.1,56.754L47.206,56.334C52.466,54.334 57.028,49.286 57.028,43.658L57.028,36.872C57.029,36.04 56.537,35.288 55.774,34.956C52.322,33.666 48.671,32.989 44.986,32.956C41.329,32.987 37.706,33.664 34.284,34.956C33.521,35.287 33.028,36.04 33.028,36.872L33.028,43.658C33.028,49.286 37.504,54.33 42.764,56.334L43.87,56.754C44.588,57.028 45.382,57.028 46.1,56.754L46.1,56.754Z" style="fill:none;stroke:rgb(44,44,44);stroke-width:2px;"/>
                    </g>
                </g>
            </g>
            <g id="g-root-ic_exch_mcchbe8nsq9t-stroke" transform="matrix(1,0,0,1,158,662)">
                <g id="ic_exch_mcchbe8nsq9t-stroke">
                    <g>
                        <path d="M22.5,55.5L26.5,51.5L22.5,47.5M39.5,30.5L51.5,30.5C51.5,30.5 53.5,30.5 53.5,32.5L53.5,54.5C53.5,54.5 53.5,56.5 51.5,56.5L39.5,56.5C39.5,56.5 37.5,56.5 37.5,54.5L37.5,32.5C37.5,32.5 37.5,30.5 39.5,30.5M14.5,41.5C14.5,47.023 18.977,51.5 24.5,51.5L26.5,51.5M46.5,11.5L42.5,15.5L46.5,19.5M54.5,25.5C54.5,19.977 50.023,15.5 44.5,15.5L42.5,15.5M37.5,48.5L53.5,48.5M45.5,52C45.224,52 45,52.224 45,52.5C45,52.776 45.224,53 45.5,53C45.776,53 46,52.776 46,52.5C46,52.224 45.776,52 45.5,52M23.5,30.5C23.5,31.605 24.395,32.5 25.5,32.5C26.605,32.5 27.5,31.605 27.5,30.5C27.5,29.395 26.605,28.5 25.5,28.5C24.395,28.5 23.5,29.395 23.5,30.5M15.5,30.5C15.5,31.605 16.395,32.5 17.5,32.5C18.605,32.5 19.5,31.605 19.5,30.5C19.5,29.395 18.605,28.5 17.5,28.5C16.395,28.5 15.5,29.395 15.5,30.5M31.5,11.5L26.5,26.5L16.5,26.5L13.5,16.5L29.834,16.5" style="fill:none;stroke:rgb(44,44,44);stroke-width:2px;"/>
                    </g>
                </g>
            </g>
            <g id="g-root-ic_bell_vb3uzu8nu39h-stroke" transform="matrix(1,0,0,1,506,206)">
                <g id="ic_bell_vb3uzu8nu39h-stroke">
                    <g>
                        <path d="M33,39L33,38C33,32.477 28.523,28 23,28C17.477,28 13,32.477 13,38L13,39M30,17C30.023,17.333 30.023,17.667 30,18C30,21.866 26.866,25 23,25C19.134,25 16,21.866 16,18C16,17.724 15.97,17.266 16,17M12,39L56,39C56,39 57,39 57,40L57,56C57,56 57,57 56,57L12,57C12,57 11,57 11,56L11,40C11,40 11,39 12,39M41,39C41,35.686 43.686,33 47,33C50.314,33 53,35.686 53,39L41,39ZM30,17C25.429,15.666 20.571,15.666 16,17L16,13C16,11.895 16.895,11 18,11L28,11C29.105,11 30,11.895 30,13L30,17ZM23.5,31.5C23.5,31.776 23.276,32 23,32C22.724,32 22.5,31.776 22.5,31.5C22.5,31.224 22.724,31 23,31C23.276,31 23.5,31.224 23.5,31.5M23.5,36C23.5,36.276 23.276,36.5 23,36.5C22.724,36.5 22.5,36.276 22.5,36C22.5,35.724 22.724,35.5 23,35.5C23.276,35.5 23.5,35.724 23.5,36M45,29L49,29M47,29L47,33M31,53L31,45M39,53L39,45M31,49L39,49" style="fill:none;stroke:rgb(44,44,44);stroke-width:2px;"/>
                    </g>
                </g>
            </g>
            <g id="g-root-ic_pick_1lseisq8o2jgu-stroke" transform="matrix(1,0,0,1,128,206)">
                <g id="ic_pick_1lseisq8o2jgu-stroke">
                    <g>
                        <path d="M47.164,39.562C49.216,39.734 50.793,41.453 50.788,43.512C50.783,45.572 49.197,47.282 47.144,47.444M54.378,56.744C52.974,54.025 50.234,52.254 47.178,52.092M27.802,41.8C27.801,45.497 30.799,48.495 34.496,48.495C38.193,48.495 41.191,45.497 41.19,41.8C41.191,38.103 38.193,35.105 34.496,35.105C30.799,35.105 27.801,38.103 27.802,41.8M24.234,57C25.782,52.745 29.795,49.887 34.322,49.815C38.85,49.743 42.952,52.472 44.634,56.676M20.836,39.562C18.784,39.734 17.207,41.453 17.212,43.512C17.217,45.572 18.803,47.282 20.856,47.444M13.622,56.744C15.026,54.025 17.766,52.254 20.822,52.092M30.232,20.156C30.232,22.477 32.113,24.358 34.434,24.358C36.755,24.358 38.636,22.477 38.636,20.156C38.636,17.835 36.755,15.954 34.434,15.954C32.113,15.954 30.232,17.835 30.232,20.156M30.482,21.588L23.872,27.67L27.124,32.39M38.386,21.588L44.998,27.67L41.744,32.39M34.434,15.954L34.434,11" style="fill:none;stroke:rgb(44,44,44);stroke-width:2px;"/>
                    </g>
                </g>
            </g>
            <g id="g-root-ic_pers_4j71ka8nyb65-stroke" transform="matrix(1,0,0,1,476,650)">
                <g id="ic_pers_4j71ka8nyb65-stroke">
                    <g>
                        <path d="M39,47L25,47L25,12C24.994,11.627 25.204,11.283 25.54,11.12C25.858,10.921 26.262,10.921 26.58,11.12L42.58,19.7C42.848,19.886 43.005,20.194 43,20.52L43,23M41,18.92L41,13.06M25,21L32,21M25,27L34,27M11,33L17,33M11,39L17,39M25,33L37,33M31,47L31,40C31,39.448 31.448,39 32,39L36,39C36.552,39 37,39.448 37,40L37,47M25,27L12,27C11.448,27 11,27.448 11,28L11,46C11,46.552 11.448,47 12,47L25,47M45,29C45,31.761 47.239,34 50,34C52.761,34 55,31.761 55,29C55,26.239 52.761,24 50,24C47.239,24 45,26.239 45,29M50,36C46.145,35.989 43.011,39.105 43,42.96L43,48L46.5,48L47.66,57L52.34,57L53.5,48L57,48L57,42.96C56.989,39.105 53.855,35.989 50,36Z" style="fill:none;stroke:rgb(44,44,44);stroke-width:2px;"/>
                    </g>
                </g>
            </g>
        </g>
    </g>
</svg>
