<?xml version="1.0" encoding="UTF-8" standalone="no"?>
<!DOCTYPE svg PUBLIC "-//W3C//DTD SVG 1.1//EN" "http://www.w3.org/Graphics/SVG/1.1/DTD/svg11.dtd">
<svg width="100%" height="100%" viewBox="0 0 702 882" version="1.1" xmlns="http://www.w3.org/2000/svg" xmlns:xlink="http://www.w3.org/1999/xlink" xml:space="preserve" xmlns:serif="http://www.serif.com/" style="fill-rule:evenodd;clip-rule:evenodd;stroke-linecap:round;stroke-linejoin:round;">
    <g id="items" transform="matrix(1.08784,0,0,1.08784,-30.8304,-39.255)">
        <g id="blend">
            <g id="g-root-cp_5_shape-5_vccpevmt3swe-fill" transform="matrix(1,0,0,1,314.303,56)">
                <g id="cp_5_shape-5_vccpevmt3swe-fill">
                    <g>
                        <path d="M27.697,292L15.697,292L15.697,160L27.697,160L27.697,292ZM32.297,28.191L27.697,28.191L27.697,160L15.697,160L15.697,28.191L11.017,28.191C10.237,28.191 9.747,27.341 10.137,26.661L20.86,10.448C21.256,9.849 22.136,9.851 22.53,10.451L33.177,26.661C33.577,27.341 33.087,28.191 32.297,28.191Z" style="fill:rgb(203,104,249);"/>
                    </g>
                </g>
            </g>
            <g id="g-root-cp_1_shape-1_1um636vmt55og-fill" transform="matrix(1,0,0,1,32,55.8164)">
                <g id="cp_1_shape-1_1um636vmt55og-fill">
                    <g>
                        <path d="M214,328.184L46,328.183C26.118,328.183 10,312.081 10,292.199L10,292.184L250,292.184C250,312.066 233.882,328.184 214,328.184ZM254.6,28.375L250,28.375L250,160.184L10,160.184C10,140.302 26.118,124.505 46,124.505L172,124.505C213.07,124.505 238,94.374 238,55.034L238,28.374L233.32,28.374C232.54,28.374 232.05,27.524 232.44,26.844L243.163,10.632C243.559,10.033 244.439,10.034 244.833,10.635L255.48,26.844C255.88,27.525 255.39,28.375 254.6,28.375ZM250,160.184L250,292.184L10,292.184L10,160.184L250,160.184Z" style="fill:rgb(255,231,17);"/>
                    </g>
                </g>
            </g>
            <g id="g-root-cp_3_shape-3_13zvjjbmt55oi-fill" transform="matrix(1,0,0,1,284.303,56)">
                <g id="cp_3_shape-3_13zvjjbmt55oi-fill">
                    <g>
                        <path d="M27.697,292L15.697,292L15.697,160L27.697,160L27.697,292ZM32.297,28.191L27.697,28.191L27.697,160L15.697,160L15.697,28.191L11.017,28.191C10.237,28.191 9.747,27.341 10.137,26.661L20.86,10.448C21.256,9.849 22.136,9.851 22.53,10.451L33.177,26.661C33.577,27.341 33.087,28.191 32.297,28.191Z" style="fill:rgb(251,103,98);"/>
                    </g>
                </g>
            </g>
            <g id="g-root-cp_3_shape-3_1_qof15zmt579g-fill" transform="matrix(1,0,0,1,32,338)">
                <g id="cp_3_shape-3_1_qof15zmt579g-fill">
                    <g>
                        <path d="M214,64.321C244,64.321 268,46 268,10L280,10L280,100.306L10,100.306C10,80.423 26.118,64.321 46,64.321L214,64.321Z" style="fill:rgb(251,103,98);"/>
                    </g>
                </g>
            </g>
            <g id="g-root-cp_5_shape-5_1_4hxzmvmt56ha-fill" transform="matrix(1,0,0,1,320,338)">
                <g id="cp_5_shape-5_1_4hxzmvmt56ha-fill">
                    <g>
                        <rect x="10" y="10" width="12" height="222" style="fill:rgb(203,104,249);"/>
                    </g>
                </g>
            </g>
            <g id="g-root-cp_3_shape-3_2_1lsei7bmt55hk-fill" transform="matrix(1,0,0,1,32,428)">
                <g id="cp_3_shape-3_2_1lsei7bmt55hk-fill">
                    <g>
                        <path d="M280,10L280,141.979L10,141.979L10,10L280,10ZM244,178.008L46,178.008C26.118,178.008 10,161.905 10,142.023L10,142.008L280,142.008C280,161.89 263.882,178.008 244,178.008Z" style="fill:rgb(251,103,98);"/>
                    </g>
                </g>
            </g>
            <g id="g-root-cp_5_shape-5_2_1414hpjmt57uq-fill" transform="matrix(1,0,0,1,32,560)">
                <g id="cp_5_shape-5_2_1414hpjmt57uq-fill">
                    <g>
                        <path d="M244,64.137C274,64.137 298,45.878 298,10L310,10L310,100L10,100C10,80.185 26.118,64.137 46,64.137L244,64.137Z" style="fill:rgb(203,104,249);"/>
                    </g>
                </g>
            </g>
            <g id="g-root-cp_5_shape-5_3_hung6fmt572k-fill" transform="matrix(1,0,0,1,32,650)">
                <g id="cp_5_shape-5_3_hung6fmt572k-fill">
                    <g>
                        <path d="M310,10L310,142L10,142L10,10L310,10ZM274,178.008L46,178.008C26.118,178.008 10,161.882 10,142L310,142C310,161.882 293.882,178.008 274,178.008Z" style="fill:rgb(203,104,249);"/>
                    </g>
                </g>
            </g>
            <g id="g-root-cp_2_shape-2_3zwrrmt569y-fill" transform="matrix(1,0,0,1,404.378,55.8164)">
                <g id="cp_2_shape-2_3zwrrmt569y-fill">
                    <g>
                        <path d="M51.622,328.184L219.622,328.184C239.504,328.184 255.622,312.081 255.622,292.199L255.622,292.184L15.622,292.184C15.622,312.066 31.74,328.184 51.622,328.184ZM11.022,28.375L15.622,28.375L15.622,160.184L255.622,160.184C255.622,140.302 239.505,124.505 219.623,124.505L93.622,124.505C52.552,124.505 27.622,94.374 27.622,55.034L27.622,28.374L32.302,28.374C33.082,28.374 33.572,27.524 33.182,26.844L22.459,10.632C22.063,10.033 21.184,10.034 20.79,10.635L10.142,26.844C9.742,27.525 10.232,28.375 11.022,28.375ZM15.622,160.184L15.622,292.184L255.622,292.184L255.622,160.184L15.622,160.184Z" style="fill:rgb(67,221,147);"/>
                    </g>
                </g>
            </g>
            <g id="g-root-cp_4_shape-4_1ltngdjmt57ns-fill" transform="matrix(1,0,0,1,374.383,56)">
                <g id="cp_4_shape-4_1ltngdjmt57ns-fill">
                    <g>
                        <path d="M15.623,292L27.623,292L27.623,160L15.623,160L15.623,292ZM11.022,28.191L15.622,28.191L15.622,160L27.622,160L27.622,28.191L32.302,28.191C33.082,28.191 33.572,27.341 33.182,26.661L22.459,10.448C22.063,9.849 21.184,9.851 20.79,10.451L10.142,26.661C9.742,27.341 10.232,28.191 11.022,28.191Z" style="fill:rgb(247,148,56);"/>
                    </g>
                </g>
            </g>
            <g id="g-root-cp_6_shape-6_142zwyvmt56v6-fill" transform="matrix(1,0,0,1,344.383,56)">
                <g id="cp_6_shape-6_142zwyvmt56v6-fill">
                    <g>
                        <path d="M15.623,292L27.623,292L27.623,160L15.623,160L15.623,292ZM11.022,28.191L15.622,28.191L15.622,160L27.622,160L27.622,28.191L32.302,28.191C33.082,28.191 33.572,27.341 33.182,26.661L22.459,10.448C22.063,9.849 21.184,9.851 20.79,10.451L10.142,26.661C9.742,27.341 10.232,28.191 11.022,28.191Z" style="fill:rgb(243,102,187);"/>
                    </g>
                </g>
            </g>
            <g id="g-root-cp_4_shape-4_1_hwivfrmt5630-fill" transform="matrix(1,0,0,1,380,338)">
                <g id="cp_4_shape-4_1_hwivfrmt5630-fill">
                    <g>
                        <path d="M76,64.321C46,64.321 22,46 22,10L10,10L10,100.306L280,100.306C280,80.423 263.882,64.321 244,64.321L76,64.321Z" style="fill:rgb(247,148,56);"/>
                    </g>
                </g>
            </g>
            <g id="g-root-cp_4_shape-4_2_58uxzmt58g6-fill" transform="matrix(1,0,0,1,380,428)">
                <g id="cp_4_shape-4_2_58uxzmt58g6-fill">
                    <g>
                        <path d="M10,10L10,142L280,142L280,10L10,10ZM46,178L244,178C263.882,178 280,161.898 280,142.016L280,142L10,142C10,161.882 26.118,178 46,178Z" style="fill:rgb(247,148,56);"/>
                    </g>
                </g>
            </g>
            <g id="g-root-cp_6_shape-6_1_1lvivmvmt56o8-fill" transform="matrix(1,0,0,1,350,338)">
                <g id="cp_6_shape-6_1_1lvivmvmt56o8-fill">
                    <g>
                        <rect x="10" y="10" width="12" height="222" style="fill:rgb(243,102,187);"/>
                    </g>
                </g>
            </g>
            <g id="g-root-cp_6_shape-6_2_18k2d9jmt5896-fill" transform="matrix(1,0,0,1,350,560)">
                <g id="cp_6_shape-6_2_18k2d9jmt5896-fill">
                    <g>
                        <path d="M76,64.321C46,64.321 22,46 22,10L10,10L10,100.306L310,100.306C310,80.423 293.882,64.321 274,64.321L76,64.321Z" style="fill:rgb(243,102,187);"/>
                    </g>
                </g>
            </g>
            <g id="g-root-cp_6_shape-6_3_v98bzbmt56oc-fill" transform="matrix(1,0,0,1,350,650)">
                <g id="cp_6_shape-6_3_v98bzbmt56oc-fill">
                    <g>
                        <path d="M10,10L10,118L310,118L310,10L10,10ZM46,154L274,154C293.882,154 310,137.898 310,118.016L310,118L10,118C10,137.882 26.118,154 46,154Z" style="fill:rgb(243,102,187);"/>
                    </g>
                </g>
            </g>
            <g id="g-root-tx_efficien_8zpgnmt56gw-fill" transform="matrix(1,0,0,1,62,290)">
                <g id="tx_efficien_8zpgnmt56gw-fill">
                    <g>
                        <g>
                            <g transform="matrix(1,0,0,1,12.72,31.2)">
                                <g transform="matrix(15,0,0,15,10.0049,0)">
                                </g>
                                <g transform="matrix(15,0,0,15,14.0389,0)">
                                </g>
                                <g transform="matrix(15,0,0,15,18.073,0)">
                                </g>
                                <text x="0px" y="0px" style="font-family:'ArialMT', 'Arial', sans-serif;font-size:15px;fill:rgb(44,44,44);">Eﬃcient call management</text>
                            </g>
                            <g transform="matrix(1,0,0,1,23.37,49.2)">
                                <text x="0px" y="0px" style="font-family:'ArialMT', 'Arial', sans-serif;font-size:15px;fill:rgb(44,44,44);">for improved customer</text>
                            </g>
                            <g transform="matrix(1,0,0,1,73.48,67.2)">
                                <text x="0px" y="0px" style="font-family:'ArialMT', 'Arial', sans-serif;font-size:15px;fill:rgb(44,44,44);">service.</text>
                            </g>
                        </g>
                    </g>
                </g>
            </g>
            <g id="g-root-tx_securean_hvwecnmtasck-fill" transform="matrix(1,0,0,1,458,290)">
                <g id="tx_securean_hvwecnmtasck-fill">
                    <g>
                        <g>
                            <g transform="matrix(1,0,0,1,18.71,31.2)">
                                <text x="0px" y="0px" style="font-family:'ArialMT', 'Arial', sans-serif;font-size:15px;fill:rgb(44,44,44);">Secure and reliable</text>
                            </g>
                            <g transform="matrix(1,0,0,1,18.57,49.2)">
                                <text x="0px" y="0px" style="font-family:'ArialMT', 'Arial', sans-serif;font-size:15px;fill:rgb(44,44,44);">communication for</text>
                            </g>
                            <g transform="matrix(1,0,0,1,12.13,67.2)">
                                <text x="0px" y="0px" style="font-family:'ArialMT', 'Arial', sans-serif;font-size:15px;fill:rgb(44,44,44);">healthcare providers.</text>
                            </g>
                        </g>
                    </g>
                </g>
            </g>
            <g id="g-root-tx_improved_13ymld3mtdmo0-fill" transform="matrix(1,0,0,1,380,734)">
                <g id="tx_improved_13ymld3mtdmo0-fill">
                    <g>
                        <g>
                            <g transform="matrix(1,0,0,1,25.48,28.2)">
                                <text x="0px" y="0px" style="font-family:'ArialMT', 'Arial', sans-serif;font-size:15px;fill:rgb(44,44,44);">Improved communication for e-</text>
                            </g>
                            <g transform="matrix(1,0,0,1,17.57,46.2)">
                                <text x="0px" y="0px" style="font-family:'ArialMT', 'Arial', sans-serif;font-size:15px;fill:rgb(44,44,44);">commerce customer interactions.</text>
                            </g>
                        </g>
                    </g>
                </g>
            </g>
            <g transform="matrix(1,0,0,1,491.03,288)">
                <g id="g-root-tx_healthca_3dfonmtasjn-fill">
                    <g id="tx_healthca_3dfonmtasjn-fill">
                        <g>
                            <g>
                                <text x="0px" y="0px" style="font-family:'Arial-BoldMT', 'Arial', sans-serif;font-weight:700;font-size:20px;fill:rgb(44,44,44);">Healthcare</text>
                            </g>
                        </g>
                    </g>
                </g>
            </g>
            <g transform="matrix(1,0,0,1,107.2,288)">
                <g id="g-root-tx_callcent_zqas9zmt5827-fill">
                    <g id="tx_callcent_zqas9zmt5827-fill">
                        <g>
                            <g>
                                <text x="0px" y="0px" style="font-family:'Arial-BoldMT', 'Arial', sans-serif;font-weight:700;font-size:20px;fill:rgb(44,44,44);">Call Centers</text>
                            </g>
                        </g>
                    </g>
                </g>
            </g>
            <g transform="matrix(1,0,0,1,121.89,510)">
                <g id="g-root-tx_governme_zlazl3mt807b-fill">
                    <g id="tx_governme_zlazl3mt807b-fill">
                        <g>
                            <g>
                                <text x="0px" y="0px" style="font-family:'Arial-BoldMT', 'Arial', sans-serif;font-weight:700;font-size:20px;fill:rgb(44,44,44);">Government</text>
                            </g>
                        </g>
                    </g>
                </g>
            </g>
            <g transform="matrix(1,0,0,1,480.39,510)">
                <g id="g-root-tx_educatio_4hbijrmtc6wx-fill">
                    <g id="tx_educatio_4hbijrmtc6wx-fill">
                        <g>
                            <g>
                                <text x="0px" y="0px" style="font-family:'Arial-BoldMT', 'Arial', sans-serif;font-weight:700;font-size:20px;fill:rgb(44,44,44);">Education</text>
                            </g>
                        </g>
                    </g>
                </g>
            </g>
            <g id="g-root-tx_streamli_1cy0g4nmt80sg-fill" transform="matrix(1,0,0,1,65,512)">
                <g id="tx_streamli_1cy0g4nmt80sg-fill">
                    <g>
                        <g>
                            <g transform="matrix(1,0,0,1,16.13,31.2)">
                                <text x="0px" y="0px" style="font-family:'ArialMT', 'Arial', sans-serif;font-size:15px;fill:rgb(44,44,44);">Streamlined communication</text>
                            </g>
                            <g transform="matrix(1,0,0,1,12.86,49.2)">
                                <text x="0px" y="0px" style="font-family:'ArialMT', 'Arial', sans-serif;font-size:15px;fill:rgb(44,44,44);">for government agencies and</text>
                            </g>
                            <g transform="matrix(1,0,0,1,80.47,67.2)">
                                <text x="0px" y="0px" style="font-family:'ArialMT', 'Arial', sans-serif;font-size:15px;fill:rgb(44,44,44);">services.</text>
                            </g>
                        </g>
                    </g>
                </g>
            </g>
            <g id="g-root-tx_enhanced_140i0mfmtc7ii-fill" transform="matrix(1,0,0,1,413,512)">
                <g id="tx_enhanced_140i0mfmtc7ii-fill">
                    <g>
                        <g>
                            <g transform="matrix(1,0,0,1,36.43,31.2)">
                                <text x="0px" y="0px" style="font-family:'ArialMT', 'Arial', sans-serif;font-size:15px;fill:rgb(44,44,44);">Enhanced educational</text>
                            </g>
                            <g transform="matrix(1,0,0,1,15.72,49.2)">
                                <text x="0px" y="0px" style="font-family:'ArialMT', 'Arial', sans-serif;font-size:15px;fill:rgb(44,44,44);">communication for students</text>
                            </g>
                            <g transform="matrix(1,0,0,1,60.43,67.2)">
                                <text x="0px" y="0px" style="font-family:'ArialMT', 'Arial', sans-serif;font-size:15px;fill:rgb(44,44,44);">and educators.</text>
                            </g>
                        </g>
                    </g>
                </g>
            </g>
            <g transform="matrix(1,0,0,1,108.48,732)">
                <g id="g-root-tx_financeb_142dfvrmt9ez1-fill">
                    <g id="tx_financeb_142dfvrmt9ez1-fill">
                        <g>
                            <g>
                                <text x="0px" y="0px" style="font-family:'Arial-BoldMT', 'Arial', sans-serif;font-weight:700;font-size:20px;fill:rgb(44,44,44);">Finance &amp; Banking</text>
                            </g>
                        </g>
                    </g>
                </g>
            </g>
            <g transform="matrix(1,0,0,1,452.69,732)">
                <g id="g-root-tx_ecommerc_4pfoo7mtc6q7-fill">
                    <g id="tx_ecommerc_4pfoo7mtc6q7-fill">
                        <g>
                            <g>
                                <text x="0px" y="0px" style="font-family:'Arial-BoldMT', 'Arial', sans-serif;font-weight:700;font-size:20px;fill:rgb(44,44,44);">E-commerce</text>
                            </g>
                        </g>
                    </g>
                </g>
            </g>
            <g id="g-root-tx_securean_909e3rmt9fra-fill" transform="matrix(1,0,0,1,80,734)">
                <g id="tx_securean_909e3rmt9fra-fill">
                    <g>
                        <g>
                            <g transform="matrix(1,0,0,1,44.35,31.2)">
                                <g transform="matrix(15,0,0,15,89.231,0)">
                                </g>
                                <g transform="matrix(15,0,0,15,93.265,0)">
                                </g>
                                <g transform="matrix(15,0,0,15,97.2991,0)">
                                </g>
                                <text x="0px" y="0px" style="font-family:'ArialMT', 'Arial', sans-serif;font-size:15px;fill:rgb(44,44,44);">Secure and eﬃcient</text>
                            </g>
                            <g transform="matrix(1,0,0,1,16.67,49.2)">
                                <g transform="matrix(15,0,0,15,126.716,0)">
                                </g>
                                <g transform="matrix(15,0,0,15,130.884,0)">
                                </g>
                                <text x="0px" y="0px" style="font-family:'ArialMT', 'Arial', sans-serif;font-size:15px;fill:rgb(44,44,44);">communication for ﬁnancial</text>
                            </g>
                            <g transform="matrix(1,0,0,1,70.9,67.2)">
                                <text x="0px" y="0px" style="font-family:'ArialMT', 'Arial', sans-serif;font-size:15px;fill:rgb(44,44,44);">institutions.</text>
                            </g>
                        </g>
                    </g>
                </g>
            </g>
            <g id="g-root-cp_5_shape-5_vccpevmt3swe-stroke" transform="matrix(1,0,0,1,314.303,56)">
                <g id="cp_5_shape-5_vccpevmt3swe-stroke">
                    <g>
                        <path d="M15.697,160L15.697,292M27.697,292L27.697,160M15.697,160L15.697,28.191L11.017,28.191C10.237,28.191 9.747,27.341 10.137,26.661L20.86,10.448C21.256,9.849 22.136,9.851 22.53,10.451L33.177,26.661C33.577,27.341 33.087,28.191 32.297,28.191L27.697,28.191L27.697,160" style="fill:none;stroke:rgb(44,44,44);stroke-width:2px;"/>
                    </g>
                </g>
            </g>
            <g id="g-root-cp_1_shape-1_1um636vmt55og-stroke" transform="matrix(1,0,0,1,32,55.8164)">
                <g id="cp_1_shape-1_1um636vmt55og-stroke">
                    <g>
                        <path d="M10,160.184C10,140.301 26.118,124.321 46,124.321L172,124.321C213.07,124.321 238,94.191 238,54.851L238,28.191L233.32,28.191C232.54,28.191 232.05,27.341 232.44,26.661L243.163,10.448C243.559,9.849 244.439,9.851 244.833,10.451L255.48,26.661C255.88,27.341 255.39,28.191 254.6,28.191L250,28.191L250,160.184M250,292.184C250,312.066 233.882,328.191 214,328.191L46,328.191C26.118,328.191 10,312.081 10,292.199L10,292.184M250,292.184L250,160.184M10,160.184L10,292.184" style="fill:none;stroke:rgb(44,44,44);stroke-width:2px;"/>
                    </g>
                </g>
            </g>
            <g id="g-root-cp_3_shape-3_13zvjjbmt55oi-stroke" transform="matrix(1,0,0,1,284.303,56)">
                <g id="cp_3_shape-3_13zvjjbmt55oi-stroke">
                    <g>
                        <path d="M15.697,160L15.697,292M27.697,292L27.697,160M15.697,160L15.697,28.191L11.017,28.191C10.237,28.191 9.747,27.341 10.137,26.661L20.86,10.448C21.256,9.849 22.136,9.851 22.53,10.451L33.177,26.661C33.577,27.341 33.087,28.191 32.297,28.191L27.697,28.191L27.697,160" style="fill:none;stroke:rgb(44,44,44);stroke-width:2px;"/>
                    </g>
                </g>
            </g>
            <g id="g-root-cp_3_shape-3_1_qof15zmt579g-stroke" transform="matrix(1,0,0,1,32,338)">
                <g id="cp_3_shape-3_1_qof15zmt579g-stroke">
                    <g>
                        <path d="M268,10C268,46 244,64.321 214,64.321L46,64.321C26.118,64.321 10,80.423 10,100.306M280,100.306L280,10" style="fill:none;stroke:rgb(44,44,44);stroke-width:2px;"/>
                    </g>
                </g>
            </g>
            <g id="g-root-cp_5_shape-5_1_4hxzmvmt56ha-stroke" transform="matrix(1,0,0,1,320,338)">
                <g id="cp_5_shape-5_1_4hxzmvmt56ha-stroke">
                    <g>
                        <path d="M10,10L10,232M22,232L22,10" style="fill:none;stroke:rgb(44,44,44);stroke-width:2px;"/>
                    </g>
                </g>
            </g>
            <g id="g-root-cp_3_shape-3_2_1lsei7bmt55hk-stroke" transform="matrix(1,0,0,1,32,428)">
                <g id="cp_3_shape-3_2_1lsei7bmt55hk-stroke">
                    <g>
                        <path d="M280,141.979L280,10M10,10L10,142M280,142.008C280,161.89 263.882,178.008 244,178.008L46,178.008C26.118,178.008 10,161.905 10,142.023L10,142.008" style="fill:none;stroke:rgb(44,44,44);stroke-width:2px;"/>
                    </g>
                </g>
            </g>
            <g id="g-root-cp_5_shape-5_2_1414hpjmt57uq-stroke" transform="matrix(1,0,0,1,32,560)">
                <g id="cp_5_shape-5_2_1414hpjmt57uq-stroke">
                    <g>
                        <path d="M298,10C298,45.878 274,64.137 244,64.137L46,64.137C26.118,64.137 10,80.185 10,100M310,100L310,10" style="fill:none;stroke:rgb(44,44,44);stroke-width:2px;"/>
                    </g>
                </g>
            </g>
            <g id="g-root-cp_5_shape-5_3_hung6fmt572k-stroke" transform="matrix(1,0,0,1,32,650)">
                <g id="cp_5_shape-5_3_hung6fmt572k-stroke">
                    <g>
                        <path d="M310,142L310,10M10,10L10,142M310,142C310,161.882 293.882,178.008 274,178.008L46,178.008C26.118,178.008 10,161.882 10,142" style="fill:none;stroke:rgb(44,44,44);stroke-width:2px;"/>
                    </g>
                </g>
            </g>
            <g id="g-root-cp_2_shape-2_3zwrrmt569y-stroke" transform="matrix(1,0,0,1,404.378,55.8164)">
                <g id="cp_2_shape-2_3zwrrmt569y-stroke">
                    <g>
                        <path d="M255.622,160.184C255.622,140.301 239.505,124.321 219.623,124.321L93.622,124.321C52.552,124.321 27.622,94.191 27.622,54.851L27.622,28.191L32.302,28.191C33.082,28.191 33.572,27.341 33.182,26.661L22.459,10.448C22.063,9.849 21.184,9.851 20.79,10.451L10.142,26.661C9.742,27.341 10.232,28.191 11.022,28.191L15.622,28.191L15.622,160.184M15.622,292.184C15.622,312.066 31.74,328.184 51.622,328.184L219.623,328.183C239.505,328.183 255.622,312.081 255.622,292.199L255.622,292.184M15.622,292.184L15.622,160.184M255.622,160.184L255.622,292.184" style="fill:none;stroke:rgb(44,44,44);stroke-width:2px;"/>
                    </g>
                </g>
            </g>
            <g id="g-root-cp_4_shape-4_1ltngdjmt57ns-stroke" transform="matrix(1,0,0,1,374.383,56)">
                <g id="cp_4_shape-4_1ltngdjmt57ns-stroke">
                    <g>
                        <path d="M27.622,160L27.622,292M15.622,292L15.622,160M27.622,160L27.622,28.191L32.302,28.191C33.082,28.191 33.572,27.341 33.182,26.661L22.459,10.448C22.063,9.849 21.184,9.851 20.79,10.451L10.142,26.661C9.742,27.341 10.232,28.191 11.022,28.191L15.622,28.191L15.622,160" style="fill:none;stroke:rgb(44,44,44);stroke-width:2px;"/>
                    </g>
                </g>
            </g>
            <g id="g-root-cp_6_shape-6_142zwyvmt56v6-stroke" transform="matrix(1,0,0,1,344.383,56)">
                <g id="cp_6_shape-6_142zwyvmt56v6-stroke">
                    <g>
                        <path d="M27.622,160L27.622,292M15.622,292L15.622,160M27.622,160L27.622,28.191L32.302,28.191C33.082,28.191 33.572,27.341 33.182,26.661L22.459,10.448C22.063,9.849 21.184,9.851 20.79,10.451L10.142,26.661C9.742,27.341 10.232,28.191 11.022,28.191L15.622,28.191L15.622,160" style="fill:none;stroke:rgb(44,44,44);stroke-width:2px;"/>
                    </g>
                </g>
            </g>
            <g id="g-root-cp_4_shape-4_1_hwivfrmt5630-stroke" transform="matrix(1,0,0,1,380,338)">
                <g id="cp_4_shape-4_1_hwivfrmt5630-stroke">
                    <g>
                        <path d="M22,10C22,46 46,64.321 76,64.321L244,64.321C263.882,64.321 280,80.423 280,100.306M10,100.306L10,10" style="fill:none;stroke:rgb(44,44,44);stroke-width:2px;"/>
                    </g>
                </g>
            </g>
            <g id="g-root-cp_4_shape-4_2_58uxzmt58g6-stroke" transform="matrix(1,0,0,1,380,428)">
                <g id="cp_4_shape-4_2_58uxzmt58g6-stroke">
                    <g>
                        <path d="M10,142L10,10M280,10L280,142M10,142C10,161.882 26.118,178.008 46,178.008L244,178.008C263.882,178.008 280,161.898 280,142.016L280,142" style="fill:none;stroke:rgb(44,44,44);stroke-width:2px;"/>
                    </g>
                </g>
            </g>
            <g id="g-root-cp_6_shape-6_1_1lvivmvmt56o8-stroke" transform="matrix(1,0,0,1,350,338)">
                <g id="cp_6_shape-6_1_1lvivmvmt56o8-stroke">
                    <g>
                        <path d="M22,10L22,232M10,232L10,10" style="fill:none;stroke:rgb(44,44,44);stroke-width:2px;"/>
                    </g>
                </g>
            </g>
            <g id="g-root-cp_6_shape-6_2_18k2d9jmt5896-stroke" transform="matrix(1,0,0,1,350,560)">
                <g id="cp_6_shape-6_2_18k2d9jmt5896-stroke">
                    <g>
                        <path d="M22,10C22,46 46,64.321 76,64.321L274,64.321C293.882,64.321 310,80.423 310,100.306M10,100.306L10,10" style="fill:none;stroke:rgb(44,44,44);stroke-width:2px;"/>
                    </g>
                </g>
            </g>
            <g id="g-root-cp_6_shape-6_3_v98bzbmt56oc-stroke" transform="matrix(1,0,0,1,350,650)">
                <g id="cp_6_shape-6_3_v98bzbmt56oc-stroke">
                    <g>
                        <path d="M10,118L10,10M310,10L310,118M10,118C10,137.882 26.118,154.008 46,154.008L274,154.008C293.882,154.008 310,137.898 310,118.016L310,118" style="fill:none;stroke:rgb(44,44,44);stroke-width:2px;"/>
                    </g>
                </g>
            </g>
            <g id="g-root-ic_dc_90vv6vmt7z7l-stroke" transform="matrix(1,0,0,1,143,416)">
                <g id="ic_dc_90vv6vmt7z7l-stroke">
                    <g>
                        <path d="M23.546,27.728L44.456,27.728L44.456,42.364L23.546,42.364L23.546,27.728ZM11,27.728L23.546,27.728L23.546,42.364L11,42.364L11,27.728ZM44.454,27.728L57,27.728L57,42.364L44.454,42.364L44.454,27.728ZM23.546,27.728L34,19.364L44.454,27.728M11,27.728L11,21.454L31.386,21.454M57,27.728L57,21.454L36.614,21.454M19.41,21.454L19.41,18.318M47.544,21.454L47.544,18.318M34,19.364L34,11L41.292,11L41.292,16.228L34,16.228M30.46,27.728L30.46,42.364M37.54,27.728L37.54,42.364M26.682,57L41.318,57M34,57L34,51.772C34,47.59 39.228,47.59 39.228,51.772M34,57L34,51.772C34,47.59 28.772,47.59 28.772,51.772M57,35.294L37.54,35.294M11,35.294L30.46,35.294M37.54,36.816C37.54,34.861 35.955,33.277 34,33.277C32.045,33.277 30.46,34.861 30.46,36.816M17.272,32.062L17.272,35.046M17.272,39.382L17.272,42.364M50.728,32.062L50.728,35.046M50.728,39.382L50.728,42.364" style="fill:none;stroke:rgb(44,44,44);stroke-width:2px;"/>
                    </g>
                </g>
            </g>
            <g id="g-root-ic_inte_2qyljmtc93f-stroke" transform="matrix(1,0,0,1,491,416)">
                <g id="ic_inte_2qyljmtc93f-stroke">
                    <g>
                        <path d="M29.362,32L29.362,34.312M32.878,28.636C27.724,26.698 21.974,29.291 20.014,34.436M31.696,18C33.268,18.002 34.823,17.684 36.268,17.066C35.887,14.11 33.664,11.725 30.742,11.137C27.82,10.548 24.848,11.888 23.352,14.466C25.54,16.726 28.551,18.001 31.696,18ZM22.362,18C22.362,21.866 25.496,25 29.362,25C33.228,25 36.362,21.866 36.362,18C36.362,14.134 33.228,11 29.362,11C25.496,11 22.362,14.134 22.362,18M39.458,36.432C39.457,40.68 42.9,44.124 47.148,44.124C51.396,44.124 54.839,40.68 54.838,36.432C54.839,32.184 51.396,28.74 47.148,28.74C42.9,28.74 39.457,32.184 39.458,36.432M37.36,56.708C37.31,53.177 39.164,49.893 42.214,48.113C45.263,46.333 49.035,46.333 52.084,48.113C55.134,49.893 56.988,53.177 56.938,56.708M32.878,49.698L12.096,49.698C11.742,49.698 11.413,49.516 11.224,49.218C11.035,48.919 11.013,48.544 11.164,48.224L14.782,40.642C15.124,39.925 15.848,39.469 16.642,39.468L34.642,39.468M13.476,49.782L13.476,57M40.864,32C46.014,37.15 51.864,36.432 54.84,36.432M47.148,53.184L47.148,50.442" style="fill:none;stroke:rgb(44,44,44);stroke-width:2px;"/>
                    </g>
                </g>
            </g>
            <g id="g-root-ic_2_1hf2wfbmtasy5-stroke" transform="matrix(1,0,0,1,506,194)">
                <g id="ic_2_1hf2wfbmtasy5-stroke">
                    <g>
                        <path d="M48.889,29.542L48.889,15.228C48.889,14.32 48.529,13.449 47.886,12.806C47.244,12.164 46.373,11.803 45.465,11.803L18.588,11.803C17.68,11.803 16.809,12.164 16.167,12.806C15.524,13.449 15.164,14.32 15.164,15.228L15.164,34.982L11.739,46.702L25.438,41.831L35.368,41.831M34.65,18.004L28.488,18.004L28.488,23.238L23.254,23.238L23.254,29.4L28.488,29.4L28.488,34.634L34.65,34.634L34.65,29.4L39.884,29.4L39.884,23.238L34.65,23.238L34.65,18.004ZM37.443,55.955C37.443,53.459 38.434,51.066 40.199,49.302C41.963,47.537 44.357,46.546 46.852,46.546C49.348,46.546 51.741,47.537 53.505,49.302C55.27,51.066 56.261,53.459 56.261,55.955L37.443,55.955ZM46.852,46.546C50.316,46.546 53.125,43.737 53.125,40.273C53.125,36.808 50.316,34 46.852,34C43.388,34 40.579,36.808 40.579,40.273C40.579,43.737 43.388,46.546 46.852,46.546Z" style="fill:none;stroke:rgb(44,44,44);stroke-width:2px;"/>
                    </g>
                </g>
            </g>
            <g id="g-root-ic_24_hrj2qvmt6ku9-stroke" transform="matrix(1,0,0,1,128,194)">
                <g id="ic_24_hrj2qvmt6ku9-stroke">
                    <g>
                        <path d="M11,57L11,39C11,37.895 11.895,37 13,37L55,37C56.105,37 57,37.895 57,39L57,57M21,46C21,44.343 22.343,43 24,43C25.657,43 27,44.343 27,46C26.981,46.981 26.628,47.926 26,48.68L21,55L27,55M36,51L30,51C30,49 30,43 36,43L36,55M42,43L42,55M42,48L46,48C47.105,48 48,48.895 48,50L48,55M47,37L47,32M43,27L51,27C51,27 52,27 52,28L52,31C52,31 52,32 51,32L43,32C43,32 42,32 42,31L42,28C42,28 42,27 43,27M17,17L17,18C17,20.761 19.239,23 22,23C24.761,23 27,20.761 27,18L27,17M27,17L17,17L17,12.7C16.994,12.277 17.26,11.898 17.66,11.76C20.464,10.741 23.536,10.741 26.34,11.76C26.74,11.898 27.006,12.277 27,12.7L27,17ZM14.26,33C15.18,29.479 18.361,27.023 22,27.023C25.639,27.023 28.82,29.479 29.74,33" style="fill:none;stroke:rgb(44,44,44);stroke-width:2px;"/>
                    </g>
                </g>
            </g>
            <g id="g-root-ic_card_dhybhjmt9dzb-stroke" transform="matrix(1,0,0,1,158,638)">
                <g id="ic_card_dhybhjmt9dzb-stroke">
                    <g>
                        <path d="M39,41L55,41C55,41 57,41 57,43L57,55C57,55 57,57 55,57L39,57C39,57 37,57 37,55L37,43C37,43 37,41 39,41M37,47L57,47M53,53L49,53M31,41L11,41C10.994,35.151 15.206,30.15 20.971,29.161C26.736,28.172 32.374,31.483 34.318,37M15.5,18.5C15.5,22.642 18.858,26 23,26C27.142,26 30.5,22.642 30.5,18.5C30.5,14.358 27.142,11 23,11C18.858,11 15.5,14.358 15.5,18.5M34.5,18.5C34.5,22.642 37.858,26 42,26C46.142,26 49.5,22.642 49.5,18.5C49.5,14.358 46.142,11 42,11C37.858,11 34.5,14.358 34.5,18.5M53.32,37C52.132,33.642 49.513,30.986 46.173,29.75C42.833,28.514 39.116,28.825 36.028,30.6" style="fill:none;stroke:rgb(44,44,44);stroke-width:2px;"/>
                    </g>
                </g>
            </g>
            <g id="g-root-ic_cart_1lr5k13mtdmgx-stroke" transform="matrix(1,0,0,1,476,638)">
                <g id="ic_cart_1lr5k13mtdmgx-stroke">
                    <g>
                        <path d="M11,41C11,34.373 16.373,29 23,29C29.627,29 35,34.373 35,41L11,41ZM15.5,18.5C15.5,22.642 18.858,26 23,26C27.142,26 30.5,22.642 30.5,18.5C30.5,14.358 27.142,11 23,11C18.858,11 15.5,14.358 15.5,18.5M34.5,18.5C34.5,22.642 37.858,26 42,26C46.142,26 49.5,22.642 49.5,18.5C49.5,14.358 46.142,11 42,11C37.858,11 34.5,14.358 34.5,18.5M52.38,34.98C49.062,29.252 41.734,27.293 36,30.6M49,55C49,56.105 49.895,57 51,57C52.105,57 53,56.105 53,55C53,53.895 52.105,53 51,53C49.895,53 49,53.895 49,55M40,55C40,56.105 40.895,57 42,57C43.105,57 44,56.105 44,55C44,53.895 43.105,53 42,53C40.895,53 40,53.895 40,55M57,34L52.22,48.32C52.084,48.724 51.706,48.997 51.28,49L42,49C41.553,49.007 41.158,48.711 41.04,48.28L38.64,41.28C38.552,40.978 38.611,40.652 38.8,40.4C38.989,40.148 39.285,40 39.6,40L55,40" style="fill:none;stroke:rgb(44,44,44);stroke-width:2px;"/>
                    </g>
                </g>
            </g>
        </g>
    </g>
</svg>
