<?xml version="1.0" encoding="UTF-8" standalone="no"?>
<!DOCTYPE svg PUBLIC "-//W3C//DTD SVG 1.1//EN" "http://www.w3.org/Graphics/SVG/1.1/DTD/svg11.dtd">
<svg width="100%" height="100%" viewBox="0 0 702 882" version="1.1" xmlns="http://www.w3.org/2000/svg" xmlns:xlink="http://www.w3.org/1999/xlink" xml:space="preserve" xmlns:serif="http://www.serif.com/" style="fill-rule:evenodd;clip-rule:evenodd;stroke-linecap:round;stroke-linejoin:round;">
    <g id="items" transform="matrix(1.09209,0,0,1.09209,-32.3219,-41.154)">
        <g id="blend">
            <g id="g-root-cp_5_shape-5_1upwxmfpv260z-fill" transform="matrix(1,0,0,1,314.303,56)">
                <g id="cp_5_shape-5_1upwxmfpv260z-fill">
                    <g>
                        <path d="M27.697,316L15.697,316L15.697,160L27.697,160L27.697,316ZM32.297,28.191L27.697,28.191L27.697,160L15.697,160L15.697,28.191L11.017,28.191C10.237,28.191 9.747,27.341 10.137,26.661L20.86,10.448C21.256,9.849 22.136,9.851 22.53,10.451L33.177,26.661C33.577,27.341 33.087,28.191 32.297,28.191Z" style="fill:rgb(203,104,249);"/>
                    </g>
                </g>
            </g>
            <g id="g-root-cp_1_shape-1_18jfw3bpv258t-fill" transform="matrix(1,0,0,1,32,55.8164)">
                <g id="cp_1_shape-1_18jfw3bpv258t-fill">
                    <g>
                        <path d="M214,352.184L46,352.183C26.118,352.183 10,336.081 10,316.199L10,316.184L250,316.184C250,336.066 233.882,352.184 214,352.184ZM254.6,28.375L250,28.375L250,160.184L10,160.184C10,140.302 26.118,124.505 46,124.505L172,124.505C213.07,124.505 238,94.374 238,55.034L238,28.374L233.32,28.374C232.54,28.374 232.05,27.524 232.44,26.844L243.163,10.632C243.559,10.033 244.439,10.034 244.833,10.635L255.48,26.844C255.88,27.525 255.39,28.375 254.6,28.375ZM250,160.184L250,316.184L10,316.184L10,160.184L250,160.184Z" style="fill:rgb(255,231,17);"/>
                    </g>
                </g>
            </g>
            <g id="g-root-cp_3_shape-3_qssconpv24g7-fill" transform="matrix(1,0,0,1,284.303,56)">
                <g id="cp_3_shape-3_qssconpv24g7-fill">
                    <g>
                        <path d="M27.697,316L15.697,316L15.697,160L27.697,160L27.697,316ZM32.297,28.191L27.697,28.191L27.697,160L15.697,160L15.697,28.191L11.017,28.191C10.237,28.191 9.747,27.341 10.137,26.661L20.86,10.448C21.256,9.849 22.136,9.851 22.53,10.451L33.177,26.661C33.577,27.341 33.087,28.191 32.297,28.191Z" style="fill:rgb(251,103,98);"/>
                    </g>
                </g>
            </g>
            <g id="g-root-cp_3_shape-3_1_dhbubbpv2615-fill" transform="matrix(1,0,0,1,32,362)">
                <g id="cp_3_shape-3_1_dhbubbpv2615-fill">
                    <g>
                        <path d="M214,64.321C244,64.321 268,46 268,10L280,10L280,100.306L10,100.306C10,80.423 26.118,64.321 46,64.321L214,64.321Z" style="fill:rgb(251,103,98);"/>
                    </g>
                </g>
            </g>
            <g id="g-root-cp_5_shape-5_1_6ht13pv24gb-fill" transform="matrix(1,0,0,1,320,362)">
                <g id="cp_5_shape-5_1_6ht13pv24gb-fill">
                    <g>
                        <rect x="10" y="10" width="12" height="198" style="fill:rgb(203,104,249);"/>
                    </g>
                </g>
            </g>
            <g id="g-root-cp_3_shape-3_2_1hgybljpv23gl-fill" transform="matrix(1,0,0,1,32,452)">
                <g id="cp_3_shape-3_2_1hgybljpv23gl-fill">
                    <g>
                        <path d="M280,10L280,117.982L10,117.982L10,10L280,10ZM244,154.008L46,154.008C26.118,154.008 10,137.906 10,118.023L10,118.008L280,118.008C280,137.89 263.882,154.008 244,154.008Z" style="fill:rgb(251,103,98);"/>
                    </g>
                </g>
            </g>
            <g id="g-root-cp_5_shape-5_2_145ht87pv251j-fill" transform="matrix(1,0,0,1,32,560)">
                <g id="cp_5_shape-5_2_145ht87pv251j-fill">
                    <g>
                        <path d="M244,64.137C274,64.137 298,45.878 298,10L310,10L310,100L10,100C10,80.185 26.118,64.137 46,64.137L244,64.137Z" style="fill:rgb(203,104,249);"/>
                    </g>
                </g>
            </g>
            <g id="g-root-cp_5_shape-5_3_meu9tjpv248x-fill" transform="matrix(1,0,0,1,32,650)">
                <g id="cp_5_shape-5_3_meu9tjpv248x-fill">
                    <g>
                        <path d="M310,10L310,118L10,118L10,10L310,10ZM274,154.008L46,154.008C26.118,154.008 10,137.882 10,118L310,118C310,137.882 293.882,154.008 274,154.008Z" style="fill:rgb(203,104,249);"/>
                    </g>
                </g>
            </g>
            <g id="g-root-cp_2_shape-2_8d8afpv23gr-fill" transform="matrix(1,0,0,1,404.378,55.8164)">
                <g id="cp_2_shape-2_8d8afpv23gr-fill">
                    <g>
                        <path d="M51.622,352.184L219.622,352.184C239.504,352.184 255.622,336.081 255.622,316.199L255.622,316.184L15.622,316.184C15.622,336.066 31.74,352.184 51.622,352.184ZM11.022,28.375L15.622,28.375L15.622,160.184L255.622,160.184C255.622,140.302 239.505,124.505 219.623,124.505L93.622,124.505C52.552,124.505 27.622,94.374 27.622,55.034L27.622,28.374L32.302,28.374C33.082,28.374 33.572,27.524 33.182,26.844L22.459,10.632C22.063,10.033 21.184,10.034 20.79,10.635L10.142,26.844C9.742,27.525 10.232,28.375 11.022,28.375ZM15.622,160.184L15.622,316.184L255.622,316.184L255.622,160.184L15.622,160.184Z" style="fill:rgb(247,148,56);"/>
                    </g>
                </g>
            </g>
            <g id="g-root-cp_4_shape-4_1ly0rw7pv24ul-fill" transform="matrix(1,0,0,1,374.383,56)">
                <g id="cp_4_shape-4_1ly0rw7pv24ul-fill">
                    <g>
                        <path d="M15.623,316L27.623,316L27.623,160L15.623,160L15.623,316ZM11.022,28.191L15.622,28.191L15.622,160L27.622,160L27.622,28.191L32.302,28.191C33.082,28.191 33.572,27.341 33.182,26.661L22.459,10.448C22.063,9.849 21.184,9.851 20.79,10.451L10.142,26.661C9.742,27.341 10.232,28.191 11.022,28.191Z" style="fill:rgb(243,102,187);"/>
                    </g>
                </g>
            </g>
            <g id="g-root-cp_6_shape-6_147d8hjpv241z-fill" transform="matrix(1,0,0,1,344.383,56)">
                <g id="cp_6_shape-6_147d8hjpv241z-fill">
                    <g>
                        <path d="M15.623,316L27.623,316L27.623,160L15.623,160L15.623,316ZM11.022,28.191L15.622,28.191L15.622,160L27.622,160L27.622,28.191L32.302,28.191C33.082,28.191 33.572,27.341 33.182,26.661L22.459,10.448C22.063,9.849 21.184,9.851 20.79,10.451L10.142,26.661C9.742,27.341 10.232,28.191 11.022,28.191Z" style="fill:rgb(135,105,253);"/>
                    </g>
                </g>
            </g>
            <g id="g-root-cp_4_shape-4_1_zrjqd3pv24u9-fill" transform="matrix(1,0,0,1,380,362)">
                <g id="cp_4_shape-4_1_zrjqd3pv24u9-fill">
                    <g>
                        <path d="M76,64.321C46,64.321 22,46 22,10L10,10L10,100.306L280,100.306C280,80.423 263.882,64.321 244,64.321L76,64.321Z" style="fill:rgb(243,102,187);"/>
                    </g>
                </g>
            </g>
            <g id="g-root-cp_4_shape-4_2_dl2otzpv2423-fill" transform="matrix(1,0,0,1,380,452)">
                <g id="cp_4_shape-4_2_dl2otzpv2423-fill">
                    <g>
                        <path d="M10,10L10,142L280,142L280,10L10,10ZM46,178L244,178C263.882,178 280,161.898 280,142.016L280,142L10,142C10,161.882 26.118,178 46,178Z" style="fill:rgb(243,102,187);"/>
                    </g>
                </g>
            </g>
            <g id="g-root-cp_6_shape-6_1_9m6gnpv25n1-fill" transform="matrix(1,0,0,1,350,362)">
                <g id="cp_6_shape-6_1_9m6gnpv25n1-fill">
                    <g>
                        <rect x="10" y="10" width="12" height="222" style="fill:rgb(135,105,253);"/>
                    </g>
                </g>
            </g>
            <g id="g-root-cp_6_shape-6_2_1lpwlrrpv3ifj-fill" transform="matrix(1,0,0,1,350,584)">
                <g id="cp_6_shape-6_2_1lpwlrrpv3ifj-fill">
                    <g>
                        <path d="M76,64.321C46,64.321 22,46 22,10L10,10L10,100.306L310,100.306C310,80.423 293.882,64.321 274,64.321L76,64.321Z" style="fill:rgb(135,105,253);"/>
                    </g>
                </g>
            </g>
            <g id="g-root-cp_6_shape-6_3_1cu9livpv3k01-fill" transform="matrix(1,0,0,1,350,674)">
                <g id="cp_6_shape-6_3_1cu9livpv3k01-fill">
                    <g>
                        <path d="M10,10L10,118L310,118L310,10L10,10ZM46,154L274,154C293.882,154 310,137.898 310,118.016L310,118L10,118C10,137.882 26.118,154 46,154Z" style="fill:rgb(135,105,253);"/>
                    </g>
                </g>
            </g>
            <g id="g-root-tx_seamless_1lu9xdjpv6cjq-fill" transform="matrix(1,0,0,1,440,314)">
                <g id="tx_seamless_1lu9xdjpv6cjq-fill">
                    <g>
                        <g>
                            <g transform="matrix(1,0,0,1,12.92,31.2)">
                                <text x="0px" y="0px" style="font-family:'ArialMT', 'Arial', sans-serif;font-size:15px;fill:rgb(44,44,44);">Seamless integration with</text>
                            </g>
                            <g transform="matrix(1,0,0,1,40.45,49.2)">
                                <text x="0px" y="0px" style="font-family:'ArialMT', 'Arial', sans-serif;font-size:15px;fill:rgb(44,44,44);">smartphones and</text>
                            </g>
                            <g transform="matrix(1,0,0,1,24.62,67.2)">
                                <text x="0px" y="0px" style="font-family:'ArialMT', 'Arial', sans-serif;font-size:15px;fill:rgb(44,44,44);">business applications.</text>
                            </g>
                        </g>
                    </g>
                </g>
            </g>
            <g id="g-root-tx_customiz_v4v0afpv3klp-fill" transform="matrix(1,0,0,1,74,314)">
                <g id="tx_customiz_v4v0afpv3klp-fill">
                    <g>
                        <g>
                            <g transform="matrix(1,0,0,1,25.97,31.2)">
                                <text x="0px" y="0px" style="font-family:'ArialMT', 'Arial', sans-serif;font-size:15px;fill:rgb(44,44,44);">Customized dialer</text>
                            </g>
                            <g transform="matrix(1,0,0,1,14.61,49.2)">
                                <g transform="matrix(15,0,0,15,72.5464,0)">
                                </g>
                                <g transform="matrix(15,0,0,15,76.7139,0)">
                                </g>
                                <g transform="matrix(15,0,0,15,123.398,0)">
                                </g>
                                <g transform="matrix(15,0,0,15,127.566,0)">
                                </g>
                                <text x="0px" y="0px" style="font-family:'ArialMT', 'Arial', sans-serif;font-size:15px;fill:rgb(44,44,44);">solution to ﬁt speciﬁc</text>
                            </g>
                            <g transform="matrix(1,0,0,1,32.19,67.2)">
                                <text x="0px" y="0px" style="font-family:'ArialMT', 'Arial', sans-serif;font-size:15px;fill:rgb(44,44,44);">business needs.</text>
                            </g>
                        </g>
                    </g>
                </g>
            </g>
            <g id="g-root-tx_smartpho_qqwxfbpv6b5x-fill" transform="matrix(1,0,0,1,440,254)">
                <g id="tx_smartpho_qqwxfbpv6b5x-fill">
                    <g>
                        <g>
                            <g transform="matrix(1,0,0,1,13.66,34)">
                                <text x="0px" y="0px" style="font-family:'Arial-BoldMT', 'Arial', sans-serif;font-weight:700;font-size:20px;fill:rgb(44,44,44);">Smartphone &amp; <tspan x="141.494px 155.938px " y="0px 0px ">Ap</tspan>p</text>
                            </g>
                            <g transform="matrix(1,0,0,1,49.17,58)">
                                <text x="0px" y="0px" style="font-family:'Arial-BoldMT', 'Arial', sans-serif;font-weight:700;font-size:20px;fill:rgb(44,44,44);">Integration</text>
                            </g>
                        </g>
                    </g>
                </g>
            </g>
            <g transform="matrix(1,0,0,1,76.33,534)">
                <g id="g-root-tx_unifieda_18mk9ivpv3klj-fill">
                    <g id="tx_unifieda_18mk9ivpv3klj-fill">
                        <g>
                            <g>
                                <g transform="matrix(20,0,0,20,32.2168,0)">
                                </g>
                                <g transform="matrix(20,0,0,20,38.877,0)">
                                </g>
                                <text x="0px" y="0px" style="font-family:'Arial-BoldMT', 'Arial', sans-serif;font-weight:700;font-size:20px;fill:rgb(44,44,44);">Uniﬁed <tspan x="72.588px 87.031px " y="0px 0px ">Ag</tspan>ent Desktop</text>
                            </g>
                        </g>
                    </g>
                </g>
            </g>
            <g id="g-root-tx_multilev_1q6ckzbpv7rwo-fill" transform="matrix(1,0,0,1,431,500)">
                <g id="tx_multilev_1q6ckzbpv7rwo-fill">
                    <g>
                        <g>
                            <g transform="matrix(1,0,0,1,16.23,34)">
                                <text x="0px" y="0px" style="font-family:'Arial-BoldMT', 'Arial', sans-serif;font-weight:700;font-size:20px;fill:rgb(44,44,44);">Multi-Level IVRS</text>
                            </g>
                            <g transform="matrix(1,0,0,1,55.57,58)">
                                <text x="0px" y="0px" style="font-family:'Arial-BoldMT', 'Arial', sans-serif;font-weight:700;font-size:20px;fill:rgb(44,44,44);">Support</text>
                            </g>
                        </g>
                    </g>
                </g>
            </g>
            <g id="g-root-tx_supportf_1hjg7xzpv7q4k-fill" transform="matrix(1,0,0,1,380,758)">
                <g id="tx_supportf_1hjg7xzpv7q4k-fill">
                    <g>
                        <g>
                            <g transform="matrix(1,0,0,1,16.82,28.2)">
                                <text x="0px" y="0px" style="font-family:'ArialMT', 'Arial', sans-serif;font-size:15px;fill:rgb(44,44,44);">Support for multiple languages to</text>
                            </g>
                            <g transform="matrix(1,0,0,1,49.26,46.2)">
                                <text x="0px" y="0px" style="font-family:'ArialMT', 'Arial', sans-serif;font-size:15px;fill:rgb(44,44,44);">reach global audiences.</text>
                            </g>
                        </g>
                    </g>
                </g>
            </g>
            <g id="g-root-tx_tailorma_1lr5jxzpv3klo-fill" transform="matrix(1,0,0,1,62,254)">
                <g id="tx_tailorma_1lr5jxzpv3klo-fill">
                    <g>
                        <g>
                            <g transform="matrix(1,0,0,1,14.4,34)">
                                <text x="0px" y="0px" style="font-family:'Arial-BoldMT', 'Arial', sans-serif;font-weight:700;font-size:20px;fill:rgb(44,44,44);">T<tspan x="10.732px 21.855px " y="0px 0px ">ai</tspan>lor-Made Dialer</text>
                            </g>
                            <g transform="matrix(1,0,0,1,60.27,58)">
                                <text x="0px" y="0px" style="font-family:'Arial-BoldMT', 'Arial', sans-serif;font-weight:700;font-size:20px;fill:rgb(44,44,44);">Solution</text>
                            </g>
                        </g>
                    </g>
                </g>
            </g>
            <g id="g-root-tx_advanced_htehx3pv7r41-fill" transform="matrix(1,0,0,1,407,560)">
                <g id="tx_advanced_htehx3pv7r41-fill">
                    <g>
                        <g>
                            <g transform="matrix(1,0,0,1,28.18,28.2)">
                                <text x="0px" y="0px" style="font-family:'ArialMT', 'Arial', sans-serif;font-size:15px;fill:rgb(44,44,44);">Advanced IVRS support for</text>
                            </g>
                            <g transform="matrix(1,0,0,1,17.26,46.2)">
                                <text x="0px" y="0px" style="font-family:'ArialMT', 'Arial', sans-serif;font-size:15px;fill:rgb(44,44,44);">diverse customer interactions.</text>
                            </g>
                        </g>
                    </g>
                </g>
            </g>
            <g transform="matrix(1,0,0,1,74,732)">
                <g id="g-root-tx_realtime_1qbyurbpv4xdu-fill">
                    <g id="tx_realtime_1qbyurbpv4xdu-fill">
                        <g>
                            <g>
                                <text x="0px" y="0px" style="font-family:'Arial-BoldMT', 'Arial', sans-serif;font-weight:700;font-size:20px;fill:rgb(44,44,44);">Real-T<tspan x="60.762px 66.318px " y="0px 0px ">im</tspan>e Call Monitoring</text>
                            </g>
                        </g>
                    </g>
                </g>
            </g>
            <g id="g-root-tx_immediat_dj79knpv4wln-fill" transform="matrix(1,0,0,1,74,734)">
                <g id="tx_immediat_dj79knpv4wln-fill">
                    <g>
                        <g>
                            <g transform="matrix(1,0,0,1,17.56,28.2)">
                                <text x="0px" y="0px" style="font-family:'ArialMT', 'Arial', sans-serif;font-size:15px;fill:rgb(44,44,44);">Immediate call monitoring for</text>
                            </g>
                            <g transform="matrix(1,0,0,1,55.69,46.2)">
                                <text x="0px" y="0px" style="font-family:'ArialMT', 'Arial', sans-serif;font-size:15px;fill:rgb(44,44,44);">quality assurance.</text>
                            </g>
                        </g>
                    </g>
                </g>
            </g>
            <g transform="matrix(1,0,0,1,403.2,756)">
                <g id="g-root-tx_multilan_mfgqwnpv7rwj-fill">
                    <g id="tx_multilan_mfgqwnpv7rwj-fill">
                        <g>
                            <g>
                                <text x="0px" y="0px" style="font-family:'Arial-BoldMT', 'Arial', sans-serif;font-weight:700;font-size:20px;fill:rgb(44,44,44);">Multi-language Support</text>
                            </g>
                        </g>
                    </g>
                </g>
            </g>
            <g id="g-root-tx_centrali_9m6gnpv3jsw-fill" transform="matrix(1,0,0,1,65,536)">
                <g id="tx_centrali_9m6gnpv3jsw-fill">
                    <g>
                        <g>
                            <g transform="matrix(1,0,0,1,34.67,28.2)">
                                <text x="0px" y="0px" style="font-family:'ArialMT', 'Arial', sans-serif;font-size:15px;fill:rgb(44,44,44);">Centralized desktop for</text>
                            </g>
                            <g transform="matrix(1,0,0,1,16.55,46.2)">
                                <g transform="matrix(15,0,0,15,8.34229,0)">
                                </g>
                                <g transform="matrix(15,0,0,15,12.3763,0)">
                                </g>
                                <g transform="matrix(15,0,0,15,16.4104,0)">
                                </g>
                                <text x="0px" y="0px" style="font-family:'ArialMT', 'Arial', sans-serif;font-size:15px;fill:rgb(44,44,44);">eﬃcient agent management.</text>
                            </g>
                        </g>
                    </g>
                </g>
            </g>
            <g id="g-root-cp_5_shape-5_1upwxmfpv260z-stroke" transform="matrix(1,0,0,1,314.303,56)">
                <g id="cp_5_shape-5_1upwxmfpv260z-stroke">
                    <g>
                        <path d="M15.697,160L15.697,316M27.697,316L27.697,160M15.697,160L15.697,28.191L11.017,28.191C10.237,28.191 9.747,27.341 10.137,26.661L20.86,10.448C21.256,9.849 22.136,9.851 22.53,10.451L33.177,26.661C33.577,27.341 33.087,28.191 32.297,28.191L27.697,28.191L27.697,160" style="fill:none;stroke:rgb(44,44,44);stroke-width:2px;"/>
                    </g>
                </g>
            </g>
            <g id="g-root-cp_1_shape-1_18jfw3bpv258t-stroke" transform="matrix(1,0,0,1,32,55.8164)">
                <g id="cp_1_shape-1_18jfw3bpv258t-stroke">
                    <g>
                        <path d="M10,160.184C10,140.301 26.118,124.321 46,124.321L172,124.321C213.07,124.321 238,94.191 238,54.851L238,28.191L233.32,28.191C232.54,28.191 232.05,27.341 232.44,26.661L243.163,10.448C243.559,9.849 244.439,9.851 244.833,10.451L255.48,26.661C255.88,27.341 255.39,28.191 254.6,28.191L250,28.191L250,160.184M250,316.184C250,336.066 233.882,352.191 214,352.191L46,352.191C26.118,352.191 10,336.081 10,316.199L10,316.184M250,316.184L250,160.184M10,160.184L10,316.184" style="fill:none;stroke:rgb(44,44,44);stroke-width:2px;"/>
                    </g>
                </g>
            </g>
            <g id="g-root-cp_3_shape-3_qssconpv24g7-stroke" transform="matrix(1,0,0,1,284.303,56)">
                <g id="cp_3_shape-3_qssconpv24g7-stroke">
                    <g>
                        <path d="M15.697,160L15.697,316M27.697,316L27.697,160M15.697,160L15.697,28.191L11.017,28.191C10.237,28.191 9.747,27.341 10.137,26.661L20.86,10.448C21.256,9.849 22.136,9.851 22.53,10.451L33.177,26.661C33.577,27.341 33.087,28.191 32.297,28.191L27.697,28.191L27.697,160" style="fill:none;stroke:rgb(44,44,44);stroke-width:2px;"/>
                    </g>
                </g>
            </g>
            <g id="g-root-cp_3_shape-3_1_dhbubbpv2615-stroke" transform="matrix(1,0,0,1,32,362)">
                <g id="cp_3_shape-3_1_dhbubbpv2615-stroke">
                    <g>
                        <path d="M268,10C268,46 244,64.321 214,64.321L46,64.321C26.118,64.321 10,80.423 10,100.306M280,100.306L280,10" style="fill:none;stroke:rgb(44,44,44);stroke-width:2px;"/>
                    </g>
                </g>
            </g>
            <g id="g-root-cp_5_shape-5_1_6ht13pv24gb-stroke" transform="matrix(1,0,0,1,320,362)">
                <g id="cp_5_shape-5_1_6ht13pv24gb-stroke">
                    <g>
                        <path d="M10,10L10,208M22,208L22,10" style="fill:none;stroke:rgb(44,44,44);stroke-width:2px;"/>
                    </g>
                </g>
            </g>
            <g id="g-root-cp_3_shape-3_2_1hgybljpv23gl-stroke" transform="matrix(1,0,0,1,32,452)">
                <g id="cp_3_shape-3_2_1hgybljpv23gl-stroke">
                    <g>
                        <path d="M280,117.982L280,10M10,10L10,118M280,118.008C280,137.89 263.882,154.008 244,154.008L46,154.008C26.118,154.008 10,137.906 10,118.023L10,118.008" style="fill:none;stroke:rgb(44,44,44);stroke-width:2px;"/>
                    </g>
                </g>
            </g>
            <g id="g-root-cp_5_shape-5_2_145ht87pv251j-stroke" transform="matrix(1,0,0,1,32,560)">
                <g id="cp_5_shape-5_2_145ht87pv251j-stroke">
                    <g>
                        <path d="M298,10C298,45.878 274,64.137 244,64.137L46,64.137C26.118,64.137 10,80.185 10,100M310,100L310,10" style="fill:none;stroke:rgb(44,44,44);stroke-width:2px;"/>
                    </g>
                </g>
            </g>
            <g id="g-root-cp_5_shape-5_3_meu9tjpv248x-stroke" transform="matrix(1,0,0,1,32,650)">
                <g id="cp_5_shape-5_3_meu9tjpv248x-stroke">
                    <g>
                        <path d="M310,118L310,10M10,10L10,118M310,118C310,137.882 293.882,154.008 274,154.008L46,154.008C26.118,154.008 10,137.882 10,118" style="fill:none;stroke:rgb(44,44,44);stroke-width:2px;"/>
                    </g>
                </g>
            </g>
            <g id="g-root-cp_2_shape-2_8d8afpv23gr-stroke" transform="matrix(1,0,0,1,404.378,55.8164)">
                <g id="cp_2_shape-2_8d8afpv23gr-stroke">
                    <g>
                        <path d="M255.622,160.184C255.622,140.301 239.505,124.321 219.623,124.321L93.622,124.321C52.552,124.321 27.622,94.191 27.622,54.851L27.622,28.191L32.302,28.191C33.082,28.191 33.572,27.341 33.182,26.661L22.459,10.448C22.063,9.849 21.184,9.851 20.79,10.451L10.142,26.661C9.742,27.341 10.232,28.191 11.022,28.191L15.622,28.191L15.622,160.184M15.622,316.184C15.622,336.066 31.74,352.184 51.622,352.184L219.623,352.183C239.505,352.183 255.622,336.081 255.622,316.199L255.622,316.184M15.622,316.184L15.622,160.184M255.622,160.184L255.622,316.184" style="fill:none;stroke:rgb(44,44,44);stroke-width:2px;"/>
                    </g>
                </g>
            </g>
            <g id="g-root-cp_4_shape-4_1ly0rw7pv24ul-stroke" transform="matrix(1,0,0,1,374.383,56)">
                <g id="cp_4_shape-4_1ly0rw7pv24ul-stroke">
                    <g>
                        <path d="M27.622,160L27.622,316M15.622,316L15.622,160M27.622,160L27.622,28.191L32.302,28.191C33.082,28.191 33.572,27.341 33.182,26.661L22.459,10.448C22.063,9.849 21.184,9.851 20.79,10.451L10.142,26.661C9.742,27.341 10.232,28.191 11.022,28.191L15.622,28.191L15.622,160" style="fill:none;stroke:rgb(44,44,44);stroke-width:2px;"/>
                    </g>
                </g>
            </g>
            <g id="g-root-cp_6_shape-6_147d8hjpv241z-stroke" transform="matrix(1,0,0,1,344.383,56)">
                <g id="cp_6_shape-6_147d8hjpv241z-stroke">
                    <g>
                        <path d="M27.622,160L27.622,316M15.622,316L15.622,160M27.622,160L27.622,28.191L32.302,28.191C33.082,28.191 33.572,27.341 33.182,26.661L22.459,10.448C22.063,9.849 21.184,9.851 20.79,10.451L10.142,26.661C9.742,27.341 10.232,28.191 11.022,28.191L15.622,28.191L15.622,160" style="fill:none;stroke:rgb(44,44,44);stroke-width:2px;"/>
                    </g>
                </g>
            </g>
            <g id="g-root-cp_4_shape-4_1_zrjqd3pv24u9-stroke" transform="matrix(1,0,0,1,380,362)">
                <g id="cp_4_shape-4_1_zrjqd3pv24u9-stroke">
                    <g>
                        <path d="M22,10C22,46 46,64.321 76,64.321L244,64.321C263.882,64.321 280,80.423 280,100.306M10,100.306L10,10" style="fill:none;stroke:rgb(44,44,44);stroke-width:2px;"/>
                    </g>
                </g>
            </g>
            <g id="g-root-cp_4_shape-4_2_dl2otzpv2423-stroke" transform="matrix(1,0,0,1,380,452)">
                <g id="cp_4_shape-4_2_dl2otzpv2423-stroke">
                    <g>
                        <path d="M10,142L10,10M280,10L280,142M10,142C10,161.882 26.118,178.008 46,178.008L244,178.008C263.882,178.008 280,161.898 280,142.016L280,142" style="fill:none;stroke:rgb(44,44,44);stroke-width:2px;"/>
                    </g>
                </g>
            </g>
            <g id="g-root-cp_6_shape-6_1_9m6gnpv25n1-stroke" transform="matrix(1,0,0,1,350,362)">
                <g id="cp_6_shape-6_1_9m6gnpv25n1-stroke">
                    <g>
                        <path d="M22,10L22,232M10,232L10,10" style="fill:none;stroke:rgb(44,44,44);stroke-width:2px;"/>
                    </g>
                </g>
            </g>
            <g id="g-root-cp_6_shape-6_2_1lpwlrrpv3ifj-stroke" transform="matrix(1,0,0,1,350,584)">
                <g id="cp_6_shape-6_2_1lpwlrrpv3ifj-stroke">
                    <g>
                        <path d="M22,10C22,46 46,64.321 76,64.321L274,64.321C293.882,64.321 310,80.423 310,100.306M10,100.306L10,10" style="fill:none;stroke:rgb(44,44,44);stroke-width:2px;"/>
                    </g>
                </g>
            </g>
            <g id="g-root-cp_6_shape-6_3_1cu9livpv3k01-stroke" transform="matrix(1,0,0,1,350,674)">
                <g id="cp_6_shape-6_3_1cu9livpv3k01-stroke">
                    <g>
                        <path d="M10,118L10,10M310,10L310,118M10,118C10,137.882 26.118,154.008 46,154.008L274,154.008C293.882,154.008 310,137.898 310,118.016L310,118" style="fill:none;stroke:rgb(44,44,44);stroke-width:2px;"/>
                    </g>
                </g>
            </g>
            <g id="g-root-ic_sett_zit35jpv4yyx-stroke" transform="matrix(1,0,0,1,143,440)">
                <g id="ic_sett_zit35jpv4yyx-stroke">
                    <g>
                        <path d="M42.626,23.938C42.626,25.525 43.913,26.812 45.5,26.812C47.087,26.812 48.374,25.525 48.374,23.938C48.374,22.351 47.087,21.064 45.5,21.064C43.913,21.064 42.626,22.351 42.626,23.938L42.626,23.938ZM47.942,12.816L48.8,15.6C49.09,16.558 50.072,17.129 51.048,16.906L53.872,16.25C54.97,16.003 56.101,16.499 56.661,17.475C57.222,18.451 57.081,19.678 56.314,20.502L54.338,22.632C53.656,23.368 53.656,24.506 54.338,25.242L56.314,27.372C57.081,28.196 57.222,29.423 56.661,30.399C56.101,31.375 54.97,31.871 53.872,31.624L51.048,30.97C50.072,30.745 49.088,31.317 48.8,32.276L47.952,35.06C47.628,36.138 46.636,36.876 45.51,36.876C44.384,36.876 43.392,36.138 43.068,35.06L42.22,32.276C41.932,31.317 40.948,30.745 39.972,30.97L37.148,31.624C36.05,31.871 34.919,31.375 34.359,30.399C33.798,29.423 33.939,28.196 34.706,27.372L36.682,25.242C37.364,24.506 37.364,23.368 36.682,22.632L34.706,20.502C33.939,19.678 33.798,18.451 34.359,17.475C34.919,16.499 36.05,16.003 37.148,16.25L39.972,16.906C40.945,17.123 41.92,16.553 42.21,15.6L43.058,12.816C43.382,11.738 44.374,11 45.5,11C46.626,11 47.618,11.738 47.942,12.816ZM11,43L53,43M53,37L53,47C53,48.105 52.105,49 51,49L13,49C11.895,49 11,48.105 11,47L11,21C11,19.895 11.895,19 13,19L29,19M26,57C27.812,54.712 28.861,51.915 29,49M38,57C36.188,54.712 35.139,51.915 35,49M23,57L41,57" style="fill:none;stroke:rgb(44,44,44);stroke-width:2px;"/>
                    </g>
                </g>
            </g>
            <g id="g-root-ic_1_1hckzzrpv7rpm-stroke" transform="matrix(1,0,0,1,491,440)">
                <g id="ic_1_1hckzzrpv7rpm-stroke">
                    <g>
                        <path d="M33.032,19.02L33.032,11.02L41.032,11.02M33.032,11.02L45.032,22.02L45.032,34.966M57.032,19.02L57.032,11.02L49.032,11.02M57.032,11.02L48.662,18.654M31.764,56.658C26.964,51.846 28.666,48.094 31.27,45.488L32.952,43.806C34.628,42.132 37.342,42.132 39.018,43.806L46.296,51.086C46.89,51.679 47.148,52.531 46.982,53.354C46.815,54.177 46.248,54.862 45.47,55.178C36.15,58.987 25.454,56.834 18.334,49.714C11.214,42.594 9.061,31.898 12.87,22.578C13.186,21.8 13.871,21.233 14.694,21.066C15.517,20.9 16.369,21.158 16.962,21.752L24.244,29.034C25.918,30.709 25.918,33.423 24.244,35.098L22.56,36.78C19.96,39.38 16.204,41.088 11.392,36.288" style="fill:none;stroke:rgb(44,44,44);stroke-width:2px;"/>
                    </g>
                </g>
            </g>
            <g id="g-root-ic_app_hx5cfrpv6ayv-stroke" transform="matrix(1,0,0,1,506,194)">
                <g id="ic_app_hx5cfrpv6ayv-stroke">
                    <g>
                        <path d="M40.5,49L11,49M25.75,52.5C26.026,52.5 26.25,52.724 26.25,53C26.25,53.276 26.026,53.5 25.75,53.5C25.474,53.5 25.25,53.276 25.25,53C25.25,52.724 25.474,52.5 25.75,52.5M15,11L36.5,11C36.5,11 40.5,11 40.5,15L40.5,53C40.5,53 40.5,57 36.5,57L15,57C15,57 11,57 11,53L11,15C11,15 11,11 15,11M45.054,33.048C46.14,31.899 46.14,30.101 45.054,28.952M49,37.144C52.26,33.697 52.26,28.303 49,24.856M49,37.144C52.26,33.697 52.26,28.303 49,24.856M52.924,41.24C58.358,35.495 58.358,26.505 52.924,20.76M52.924,41.24C58.358,35.495 58.358,26.505 52.924,20.76M18,20L22,20C22,20 24,20 24,22L24,26C24,26 24,28 22,28L18,28C18,28 16,28 16,26L16,22C16,22 16,20 18,20M30,20L34,20C34,20 36,20 36,22L36,26C36,26 36,28 34,28L30,28C30,28 28,28 28,26L28,22C28,22 28,20 30,20M18,32L22,32C22,32 24,32 24,34L24,38C24,38 24,40 22,40L18,40C18,40 16,40 16,38L16,34C16,34 16,32 18,32M30,32L34,32C34,32 36,32 36,34L36,38C36,38 36,40 34,40L30,40C30,40 28,40 28,38L28,34C28,34 28,32 30,32" style="fill:none;stroke:rgb(44,44,44);stroke-width:2px;"/>
                    </g>
                </g>
            </g>
            <g id="g-root-ic_cont_1cxdyyfpv3kem-stroke" transform="matrix(1,0,0,1,128,194)">
                <g id="ic_cont_1cxdyyfpv3kem-stroke">
                    <g>
                        <path d="M51.974,21.89C52.045,22.37 52.08,22.855 52.08,23.34C52.079,26.985 50.046,30.324 46.809,31.999C43.572,33.674 39.672,33.405 36.696,31.301C33.72,29.198 32.165,25.61 32.664,22M27.694,21.444L52.404,21.444M56.36,56.452L54.74,47.8C53.682,42.162 48.76,38.077 43.024,38.076L43.024,38.076C38.22,38.076 33.591,39.885 30.06,43.142L24.898,47.91C24.622,48.218 24.22,48.383 23.808,48.358C23.395,48.333 23.016,48.12 22.78,47.78L19.294,42.526C18.003,40.698 15.477,40.258 13.644,41.542C11.811,42.826 11.36,45.35 12.636,47.188L16.122,52.442C17.774,54.815 20.423,56.3 23.31,56.47C23.51,56.484 23.71,56.488 23.9,56.488C26.587,56.492 29.148,55.349 30.94,53.348L34.772,49.088L36.252,56.488M17.756,41.2L12.018,31.494C11.256,30.206 11.683,28.545 12.972,27.783C14.26,27.022 15.921,27.45 16.682,28.738L23.414,40.138M17.252,29.702L28.618,26.406M32.572,21.444L34.72,14.884L43.146,11.51L50.808,14.59L52.404,21.444M35.508,39.92C37.246,41.294 42.326,52.82 36.252,56.49M27.54,45.446L31.814,51.83" style="fill:none;stroke:rgb(44,44,44);stroke-width:2px;"/>
                    </g>
                </g>
            </g>
            <g id="g-root-ic_1_18mk9ivpv4xzg-stroke" transform="matrix(1,0,0,1,158,638)">
                <g id="ic_1_18mk9ivpv4xzg-stroke">
                    <g>
                        <path d="M27,34.556C32.308,34.55 36.639,30.306 36.754,25L27,25L27,15C21.6,15.001 17.223,19.378 17.223,24.778C17.223,30.178 21.6,34.555 27,34.556ZM34.024,39.622C29.065,37.199 23.207,37.503 18.525,40.427C13.843,43.35 10.999,48.48 11,54L32,54M40.754,21C40.754,20.924 40.776,20.854 40.776,20.778C40.776,15.379 36.399,11.001 31,11L31,21L40.754,21ZM57,51C55.209,49.226 54.14,46.851 54,44.334L54,41C54,36.582 50.418,33 46,33C41.582,33 38,36.582 38,41L38,44.334C37.86,46.851 36.791,49.226 35,51L57,51ZM43.426,55C43.725,56.176 44.784,56.999 45.998,56.999C47.212,56.999 48.271,56.176 48.57,55" style="fill:none;stroke:rgb(44,44,44);stroke-width:2px;"/>
                    </g>
                </g>
            </g>
            <g id="g-root-ic_mess_hrj2nrpv95hp-stroke" transform="matrix(1,0,0,1,476,662)">
                <g id="ic_mess_hrj2nrpv95hp-stroke">
                    <g>
                        <path d="M55.4,25.1L14.4,25.1M55.4,41.1L14.4,41.1M40,54.48C42.88,50.1 44.82,42.16 44.82,33.1C44.82,24.04 42.96,16.1 40,11.72M29.72,54.48C26.82,50.1 24.9,42.16 24.9,33.1C24.9,24.04 26.9,16.1 29.72,11.72M11.2,55.46L16.18,44.66C10.314,35.161 12.494,22.774 21.249,15.847C30.005,8.921 42.561,9.65 50.455,17.545C58.35,25.439 59.079,37.995 52.153,46.751C45.226,55.506 32.839,57.686 23.34,51.82L12.54,56.8C12.156,56.99 11.692,56.914 11.389,56.611C11.086,56.308 11.01,55.844 11.2,55.46Z" style="fill:none;stroke:rgb(44,44,44);stroke-width:2px;"/>
                    </g>
                </g>
            </g>
        </g>
    </g>
</svg>
