<?xml version="1.0" encoding="UTF-8" standalone="no"?>
<!DOCTYPE svg PUBLIC "-//W3C//DTD SVG 1.1//EN" "http://www.w3.org/Graphics/SVG/1.1/DTD/svg11.dtd">
<svg width="100%" height="100%" viewBox="0 0 636 694" version="1.1" xmlns="http://www.w3.org/2000/svg" xmlns:xlink="http://www.w3.org/1999/xlink" xml:space="preserve" xmlns:serif="http://www.serif.com/" style="fill-rule:evenodd;clip-rule:evenodd;stroke-linecap:round;stroke-linejoin:round;">
    <g id="items" transform="matrix(1.07051,0,0,1.07051,-22.4221,-47.2297)">
        <g id="blend">
            <g id="g-root-sy_-1_cu_14802ve83wb2k-fill" transform="matrix(1,0,0,1,14,74)">
                <g id="sy_-1_cu_14802ve83wb2k-fill">
                    <g>
                        <path d="M10,514L10,586L82,586L82,514L10,514ZM34,490L10,514L82,514L106,490L34,490ZM34,490L34,418L106.5,418L106.5,490L34,490ZM58,394L34,418L106.5,418L130,394L58,394ZM58,394L58,322L130,322L130,394L58,394ZM82,298L58,322L130,322L154,298L82,298ZM82,298L82,226L154,226L154,298L82,298ZM106,202L82,226L154,226L178,202L106,202ZM106,202L106,130L178,130L178,202L106,202ZM130,106L106,130L178,130L202,106L130,106ZM130,106L130,34L202,34L202,106L130,106ZM154,10L130,34L202,34L226,10L154,10Z" style="fill:url(#_Linear1);"/>
                    </g>
                </g>
            </g>
            <g id="g-root-sy_-1_cu_1_mgq2dm83wdfp-fill" transform="matrix(1,0,0,1,386,74)">
                <g id="sy_-1_cu_1_mgq2dm83wdfp-fill">
                    <g>
                        <path d="M226,586L226,514L154.5,514L154.5,586L226,586ZM226,514L202,490L130,490L155,514L226,514ZM202,490L202,418L130.5,418L130.5,490L202,490ZM202,418L178,394L106,394L130.5,418L202,418ZM178,322L178,394L106,394L106,322L178,322ZM178,322L154,298L82,298L106,322L178,322ZM154,226L154,298L82,298L82,226L154,226ZM154,226L130,202L58,202L82,226L154,226ZM130,130L130,202L58,202L58,130L130,130ZM130,130L106,106L34,106L58,130L130,130ZM106,34L106,106L34,106L34,34L106,34ZM106,34L82,10L10,10L34,34L106,34Z" style="fill:url(#_Linear2);"/>
                    </g>
                </g>
            </g>
            <g id="g-root-sy_1_cu_8vwfpm83xqfa-fill" transform="matrix(1,0,0,1,86,554)">
                <g id="sy_1_cu_8vwfpm83xqfa-fill">
                    <g>
                        <path d="M10,106L10,34L454.5,34L454.5,106L10,106ZM430,10L455,34L10,34L34,10L430,10Z" style="fill:url(#_Linear3);"/>
                    </g>
                </g>
            </g>
            <g id="g-root-sy_2_cu_v48wi283xpfz-fill" transform="matrix(1,0,0,1,110.5,458)">
                <g id="sy_2_cu_v48wi283xpfz-fill">
                    <g>
                        <path d="M10,106L10,34L406,34L406,106L10,106ZM381.5,10L406,34L10,34L33.5,10L381.5,10Z" style="fill:url(#_Linear4);"/>
                    </g>
                </g>
            </g>
            <g id="g-root-sy_3_cu_m8lw9683xr0g-fill" transform="matrix(1,0,0,1,134,362)">
                <g id="sy_3_cu_m8lw9683xr0g-fill">
                    <g>
                        <path d="M10,106L10,34L358,34L358,106L10,106ZM334,10L358,34L10,34L34,10L334,10Z" style="fill:url(#_Linear5);"/>
                    </g>
                </g>
            </g>
            <g id="g-root-sy_4_cu_8xruyy83xpfl-fill" transform="matrix(1,0,0,1,158,266)">
                <g id="sy_4_cu_8xruyy83xpfl-fill">
                    <g>
                        <path d="M10,34L10,106L310,106L310,34L10,34ZM286,10L310,34L10,34L34,10L286,10Z" style="fill:url(#_Linear6);"/>
                    </g>
                </g>
            </g>
            <g id="g-root-sy_5_cu_24uq283xq8a-fill" transform="matrix(1,0,0,1,182,170)">
                <g id="sy_5_cu_24uq283xq8a-fill">
                    <g>
                        <path d="M10,106L10,34L262,34L262,106L10,106ZM238,10L262,34L10,34L34,10L238,10Z" style="fill:url(#_Linear7);"/>
                    </g>
                </g>
            </g>
            <g id="g-root-sy_6_cu_1lrsebu83xrm3-fill" transform="matrix(1,0,0,1,206,74)">
                <g id="sy_6_cu_1lrsebu83xrm3-fill">
                    <g>
                        <path d="M10,106L10,34L214,34L214,106L10,106ZM190,10L214,34L10,34L34,10L190,10Z" style="fill:url(#_Linear8);"/>
                    </g>
                </g>
            </g>
            <g id="g-root-tx_improved_8dll683xrt5-fill" transform="matrix(1,0,0,1,224,206)">
                <g id="tx_improved_8dll683xrt5-fill">
                    <g>
                        <g>
                            <g transform="matrix(1,0,0,1,14.29,34)">
                                <text x="0px" y="0px" style="font-family:'ArialMT', 'Arial', sans-serif;font-size:20px;fill:rgb(244,244,244);">Improve Decision-</text>
                            </g>
                            <g transform="matrix(1,0,0,1,61.19,58)">
                                <text x="0px" y="0px" style="font-family:'ArialMT', 'Arial', sans-serif;font-size:20px;fill:rgb(244,244,244);">Making</text>
                            </g>
                        </g>
                    </g>
                </g>
            </g>
            <g transform="matrix(1,0,0,1,204.38,348)">
                <g id="g-root-tx_scalewit_1hgyowa83xrt4-fill">
                    <g id="tx_scalewit_1hgyowa83xrt4-fill">
                        <g>
                            <g>
                                <text x="0px" y="0px" style="font-family:'ArialMT', 'Arial', sans-serif;font-size:20px;fill:rgb(244,244,244);">Scale Without Complexity</text>
                            </g>
                        </g>
                    </g>
                </g>
            </g>
            <g transform="matrix(1,0,0,1,233.88,156)">
                <g id="g-root-tx_getexper_vcd2mi83xq16-fill">
                    <g id="tx_getexper_vcd2mi83xq16-fill">
                        <g>
                            <g>
                                <text x="0px" y="0px" style="font-family:'ArialMT', 'Arial', sans-serif;font-size:20px;fill:rgb(244,244,244);">Get Expert Support</text>
                            </g>
                        </g>
                    </g>
                </g>
            </g>
            <g transform="matrix(1,0,0,1,209.81,444)">
                <g id="g-root-tx_personal_dhyop683xr7z-fill">
                    <g id="tx_personal_dhyop683xr7z-fill">
                        <g>
                            <g>
                                <text x="0px" y="0px" style="font-family:'ArialMT', 'Arial', sans-serif;font-size:20px;fill:rgb(244,244,244);">Personalize Experiences</text>
                            </g>
                        </g>
                    </g>
                </g>
            </g>
            <g transform="matrix(1,0,0,1,235.11,540)">
                <g id="g-root-tx_closedea_1hfpqq283xpn2-fill">
                    <g id="tx_closedea_1hfpqq283xpn2-fill">
                        <g>
                            <g>
                                <text x="0px" y="0px" style="font-family:'ArialMT', 'Arial', sans-serif;font-size:20px;fill:rgb(244,244,244);">Close Deals Faster</text>
                            </g>
                        </g>
                    </g>
                </g>
            </g>
            <g transform="matrix(1,0,0,1,236.77,636)">
                <g id="g-root-tx_boostpro_18itsay83xp1h-fill">
                    <g id="tx_boostpro_18itsay83xp1h-fill">
                        <g>
                            <g>
                                <text x="0px" y="0px" style="font-family:'ArialMT', 'Arial', sans-serif;font-size:20px;fill:rgb(244,244,244);">Boost Productivity</text>
                            </g>
                        </g>
                    </g>
                </g>
            </g>
            <g id="g-root-sy_-1_cu_14802ve83wb2k-stroke" transform="matrix(1,0,0,1,14,74)">
                <g id="sy_-1_cu_14802ve83wb2k-stroke">
                    <g>
                        <path d="M10,586L10,514L82,514L82,586L10,586ZM10,514L34,490L106,490L82,514L10,514ZM34,490L34,418L106.5,418L106.5,490L34,490ZM34,418L58,394L130,394L106.5,418L34,418ZM58,394L58,322L130,322L130,394L58,394ZM58,322L82,298L154,298L130,322L58,322ZM82,298L82,226L154,226L154,298L82,298ZM82,226L106,202L178,202L154,226L82,226ZM106,202L106,130L178,130L178,202L106,202ZM106,130L130,106L202,106L178,130L106,130ZM130,106L130,34L202,34L202,106L130,106ZM130,34L154,10L226,10L202,34L130,34Z" style="fill:none;stroke:rgb(244,244,244);stroke-width:2px;"/>
                    </g>
                </g>
            </g>
            <g id="g-root-sy_-1_cu_1_mgq2dm83wdfp-stroke" transform="matrix(1,0,0,1,386,74)">
                <g id="sy_-1_cu_1_mgq2dm83wdfp-stroke">
                    <g>
                        <path d="M226,586L226,514L154.5,514L154.5,586L226,586ZM226,514L202,490L130,490L155,514L226,514ZM202,418L202,490L130.5,490L130.5,418L202,418ZM202,418L178,394L106,394L130.5,418L202,418ZM178,322L178,394L106,394L106,322L178,322ZM178,322L154,298L82,298L106,322L178,322ZM154,226L154,298L82,298L82,226L154,226ZM154,226L130,202L58,202L82,226L154,226ZM130,130L130,202L58,202L58,130L130,130ZM130,130L106,106L34,106L58,130L130,130ZM106,106L106,34L34,34L34,106L106,106ZM106,34L82,10L10,10L34,34L106,34Z" style="fill:none;stroke:rgb(244,244,244);stroke-width:2px;"/>
                    </g>
                </g>
            </g>
            <g id="g-root-sy_1_cu_8vwfpm83xqfa-stroke" transform="matrix(1,0,0,1,86,554)">
                <g id="sy_1_cu_8vwfpm83xqfa-stroke">
                    <g>
                        <path d="M10,34L10,106L454.5,106L454.5,34L10,34ZM455,34L430,10L34,10L10,34L455,34Z" style="fill:none;stroke:rgb(244,244,244);stroke-width:2px;"/>
                    </g>
                </g>
            </g>
            <g id="g-root-sy_2_cu_v48wi283xpfz-stroke" transform="matrix(1,0,0,1,110.5,458)">
                <g id="sy_2_cu_v48wi283xpfz-stroke">
                    <g>
                        <path d="M10,34L10,106L406,106L406,34L10,34ZM406,34L381.5,10L33.5,10L10,34L406,34Z" style="fill:none;stroke:rgb(244,244,244);stroke-width:2px;"/>
                    </g>
                </g>
            </g>
            <g id="g-root-sy_3_cu_m8lw9683xr0g-stroke" transform="matrix(1,0,0,1,134,362)">
                <g id="sy_3_cu_m8lw9683xr0g-stroke">
                    <g>
                        <path d="M10,34L10,106L358,106L358,34L10,34ZM358,34L334,10L34,10L10,34L358,34Z" style="fill:none;stroke:rgb(244,244,244);stroke-width:2px;"/>
                    </g>
                </g>
            </g>
            <g id="g-root-sy_4_cu_8xruyy83xpfl-stroke" transform="matrix(1,0,0,1,158,266)">
                <g id="sy_4_cu_8xruyy83xpfl-stroke">
                    <g>
                        <path d="M10,106L10,34L310,34L310,106L10,106ZM310,34L286,10L34,10L10,34L310,34Z" style="fill:none;stroke:rgb(244,244,244);stroke-width:2px;"/>
                    </g>
                </g>
            </g>
            <g id="g-root-sy_5_cu_24uq283xq8a-stroke" transform="matrix(1,0,0,1,182,170)">
                <g id="sy_5_cu_24uq283xq8a-stroke">
                    <g>
                        <path d="M10,34L10,106L262,106L262,34L10,34ZM262,34L238,10L34,10L10,34L262,34Z" style="fill:none;stroke:rgb(244,244,244);stroke-width:2px;"/>
                    </g>
                </g>
            </g>
            <g id="g-root-sy_6_cu_1lrsebu83xrm3-stroke" transform="matrix(1,0,0,1,206,74)">
                <g id="sy_6_cu_1lrsebu83xrm3-stroke">
                    <g>
                        <path d="M10,34L10,106L214,106L214,34L10,34ZM214,34L190,10L34,10L10,34L214,34Z" style="fill:none;stroke:rgb(244,244,244);stroke-width:2px;"/>
                    </g>
                </g>
            </g>
            <g id="g-root-ic_48px_m98dca844r9i-stroke" transform="matrix(1,0,0,1,122,206)">
                <g id="ic_48px_m98dca844r9i-stroke">
                    <g>
                        <path d="M15.072,30.179C15.072,24.482 17.789,19.696 23.011,19.696C28.233,19.696 30.949,24.482 30.949,30.179L30.949,37.273C30.949,42.97 28.105,47.882 23.011,47.882C17.916,47.882 15.072,42.97 15.072,37.273L15.072,30.179ZM53.693,20.121L40.379,20.121L38.988,33.144C39.817,32.315 42.353,30.657 45.865,30.657C49.971,30.657 53.813,33.447 53.427,40.052C53.028,46.894 48.912,47.904 45.529,47.904C41.945,47.904 38.405,45.361 38.073,40.565" style="fill:none;stroke:rgb(244,244,244);stroke-width:2px;"/>
                    </g>
                </g>
            </g>
            <g id="g-root-ic_2_meun4a841wqt-stroke" transform="matrix(1,0,0,1,446,206)">
                <g id="ic_2_meun4a841wqt-stroke">
                    <g>
                        <path d="M19.351,56.5L19.351,43.97C16.587,41.41 14.66,38.076 13.82,34.403C12.981,30.731 13.269,26.891 14.646,23.384C16.022,19.878 18.425,16.868 21.539,14.748C24.653,12.628 28.334,11.496 32.101,11.5C46.379,11.5 49.461,23.256 54.551,36.46C54.638,36.687 54.669,36.932 54.64,37.174C54.611,37.416 54.525,37.647 54.387,37.848C54.249,38.049 54.065,38.213 53.849,38.326C53.634,38.44 53.394,38.5 53.151,38.5L49.351,38.5L49.351,44.5C49.351,46.091 48.719,47.617 47.593,48.743C46.468,49.868 44.942,50.5 43.351,50.5L40.351,50.5L40.351,56.5M20.447,28.097C21.273,22.813 26.227,18.482 33.794,19.07L35.719,19.281M33.072,16.074L36.015,19.016L33.072,21.958M40.131,38.025L35.975,37.819L36.181,33.663M28.147,26.936L32.144,28.094L30.987,32.09M42.439,24.353C43.875,28.111 41.757,33.782 37.315,36.378L36,37.094M30.588,39.728C24.08,43.619 20.594,36.369 25.73,31.94C27.441,30.464 30.102,29.059 30.759,28.837L32.063,28.313" style="fill:none;stroke:rgb(244,244,244);stroke-width:2px;"/>
                    </g>
                </g>
            </g>
            <g id="g-root-ic_sett_1cuwfwq83z4ej-stroke" transform="matrix(1,0,0,1,422,110)">
                <g id="ic_sett_1cuwfwq83z4ej-stroke">
                    <g>
                        <path d="M44.5,45.75C44.5,47.131 45.619,48.25 47,48.25C48.381,48.25 49.5,47.131 49.5,45.75C49.5,44.369 48.381,43.25 47,43.25C45.619,43.25 44.5,44.369 44.5,45.75ZM49.124,36.078L49.86,38.5C50.112,39.334 50.967,39.83 51.816,39.634L54.27,39.066C55.226,38.847 56.212,39.278 56.702,40.128C57.191,40.977 57.069,42.047 56.4,42.764L54.684,44.614C54.09,45.255 54.09,46.245 54.684,46.886L56.4,48.736C57.067,49.452 57.189,50.52 56.701,51.368C56.214,52.217 55.231,52.649 54.276,52.434L51.822,51.866C50.973,51.67 50.118,52.166 49.866,53L49.13,55.422C48.848,56.359 47.985,57.001 47.006,57.001C46.027,57.001 45.164,56.359 44.882,55.422L44.14,53C43.888,52.166 43.033,51.67 42.184,51.866L39.73,52.434C38.774,52.653 37.788,52.222 37.298,51.372C36.809,50.523 36.931,49.453 37.6,48.736L39.316,46.886C39.91,46.245 39.91,45.255 39.316,44.614L37.6,42.764C36.933,42.048 36.811,40.98 37.299,40.132C37.786,39.283 38.769,38.851 39.724,39.066L42.178,39.634C43.027,39.83 43.882,39.334 44.134,38.5L44.87,36.078C45.149,35.136 46.014,34.489 46.997,34.489C47.98,34.489 48.845,35.136 49.124,36.078ZM31,41L11,41C11,36.025 14.07,31.566 18.718,29.79C23.366,28.015 28.627,29.292 31.944,33M15.5,18.5C15.5,22.642 18.858,26 23,26C27.142,26 30.5,22.642 30.5,18.5C30.5,14.358 27.142,11 23,11C18.858,11 15.5,14.358 15.5,18.5ZM34.5,18.5C34.5,22.642 37.858,26 42,26C46.142,26 49.5,22.642 49.5,18.5C49.5,14.358 46.142,11 42,11C37.858,11 34.5,14.358 34.5,18.5ZM48.94,31.21C45.127,28.506 40.09,28.262 36.034,30.586" style="fill:none;stroke:rgb(244,244,244);stroke-width:2px;"/>
                    </g>
                </g>
            </g>
            <g id="g-root-ic_grow_4l2tfu83jqbr-stroke" transform="matrix(1,0,0,1,470,302)">
                <g id="ic_grow_4l2tfu83jqbr-stroke">
                    <g>
                        <path d="M36.982,11C36.456,24.896 25.024,35 11,35M33,15L37,11L41,15M55.498,15.904C55.822,15.755 56.202,15.79 56.494,15.996C56.785,16.202 56.945,16.548 56.912,16.904C56.598,20.74 55.148,29.556 48.49,29.556C45.279,29.497 42.707,26.877 42.707,23.665C42.707,20.453 45.279,17.833 48.49,17.774C50.928,17.626 53.311,16.99 55.498,15.904ZM50.954,22.346C47.626,23.639 45.038,26.335 43.882,29.714C43.627,30.449 43.498,31.222 43.5,32L43.5,57M11,57L57,57M11.5,52C11.5,52 15.5,52 15.5,57C15.5,57 15.5,52 19.5,52M29.5,53C30.094,51.276 31.679,50.088 33.5,50M28.5,43.928C29.672,45.099 29.672,46.999 28.501,48.171C27.329,49.342 25.43,49.343 24.258,48.172C23.23,46.544 22.459,44.766 21.974,42.902C21.861,42.546 21.956,42.156 22.22,41.892C22.484,41.628 22.874,41.533 23.23,41.646C25.093,42.132 26.871,42.901 28.5,43.928L28.5,43.928ZM28.4,48.274C29.12,49.383 29.502,50.678 29.5,52L29.5,57M28.474,34.466C28.124,34.52 27.829,34.755 27.698,35.084C27.567,35.413 27.619,35.786 27.836,36.066C29.836,38.616 34.414,43.466 38.74,40.698C40.935,39.299 41.581,36.386 40.182,34.191C38.783,31.995 35.869,31.35 33.674,32.75C32.07,33.657 30.303,34.24 28.474,34.466L28.474,34.466ZM34.32,36.692C37.122,36.134 40.027,36.84 42.26,38.622C42.747,39.009 43.166,39.475 43.5,40" style="fill:none;stroke:rgb(244,244,244);stroke-width:2px;"/>
                    </g>
                </g>
            </g>
            <g id="g-root-ic_48px_1hgys2283nvnu-stroke" transform="matrix(1,0,0,1,74,398)">
                <g id="ic_48px_1hgys2283nvnu-stroke">
                    <g>
                        <path d="M15.072,30.179C15.072,24.482 17.789,19.695 23.011,19.695C28.233,19.695 30.949,24.482 30.949,30.179L30.949,37.273C30.949,42.969 28.105,47.882 23.011,47.882C17.916,47.882 15.072,42.969 15.072,37.273L15.072,30.179ZM37.121,27.068C37.002,24.659 38.483,19.71 45.065,19.71C51.648,19.71 52.656,24.597 52.428,27.357C52.177,30.4 50.272,33.508 42.201,33.508C49.714,33.508 53.126,35.562 53.126,41.125C53.126,45.933 48.876,47.89 44.992,47.89C42.201,47.866 36.62,46.287 36.62,40.162" style="fill:none;stroke:rgb(244,244,244);stroke-width:2px;"/>
                    </g>
                </g>
            </g>
            <g id="g-root-ic_smar_v8mb9m83mj9d-stroke" transform="matrix(1,0,0,1,494,398)">
                <g id="ic_smar_v8mb9m83mj9d-stroke">
                    <g>
                        <path d="M40.5,19C40.776,19 41,19.224 41,19.5C41,19.776 40.776,20 40.5,20C40.224,20 40,19.776 40,19.5C40,19.224 40.224,19 40.5,19M49.5,19C49.776,19 50,19.224 50,19.5C50,19.776 49.776,20 49.5,20C49.224,20 49,19.776 49,19.5C49,19.224 49.224,19 49.5,19M49,26C49,28.209 47.209,30 45,30C42.791,30 41,28.209 41,26L49,26ZM44.866,11C41.676,11.011 38.623,12.301 36.392,14.582C34.161,16.863 32.939,19.944 33,23.134C32.91,25.367 33.451,27.579 34.562,29.518L31,37L38.482,33.436C42.856,36.147 48.464,35.803 52.474,32.578C56.483,29.353 58.021,23.948 56.31,19.095C54.599,14.242 50.012,10.997 44.866,11ZM43,39L43,57M11,57L11,21C11,18.791 12.791,17 15,17L30,17M29,25L11,25M21.5,43.5C21.5,45.985 23.515,48 26,48C28.485,48 30.5,45.985 30.5,43.5C30.5,41.015 28.485,39 26,39C23.515,39 21.5,41.015 21.5,43.5ZM35,57C33.951,52.886 30.246,50.007 26,50.007C21.754,50.007 18.049,52.886 17,57M24,21L29,21" style="fill:none;stroke:rgb(244,244,244);stroke-width:2px;"/>
                    </g>
                </g>
            </g>
            <g id="g-root-ic_pick_1cyndl683s4r1-stroke" transform="matrix(1,0,0,1,542,590)">
                <g id="ic_pick_1cyndl683s4r1-stroke">
                    <g>
                        <path d="M47.164,39.562C49.216,39.734 50.793,41.453 50.788,43.512C50.783,45.572 49.197,47.282 47.144,47.444M54.378,56.744C52.974,54.025 50.234,52.254 47.178,52.092M27.802,41.8C27.801,45.497 30.799,48.495 34.496,48.495C38.193,48.495 41.191,45.497 41.19,41.8C41.191,38.103 38.193,35.105 34.496,35.105C30.799,35.105 27.801,38.103 27.802,41.8M24.234,57C25.782,52.745 29.795,49.887 34.322,49.815C38.85,49.743 42.952,52.472 44.634,56.676M20.836,39.562C18.784,39.734 17.207,41.453 17.212,43.512C17.217,45.572 18.803,47.282 20.856,47.444M13.622,56.744C15.026,54.025 17.766,52.254 20.822,52.092M30.232,20.156C30.232,22.477 32.113,24.358 34.434,24.358C36.755,24.358 38.636,22.477 38.636,20.156C38.636,17.835 36.755,15.954 34.434,15.954C32.113,15.954 30.232,17.835 30.232,20.156M30.482,21.588L23.872,27.67L27.124,32.39M38.386,21.588L44.998,27.67L41.744,32.39M34.434,15.954L34.434,11" style="fill:none;stroke:rgb(244,244,244);stroke-width:2px;"/>
                    </g>
                </g>
            </g>
            <g id="g-root-ic_48px_qu1rbe83qpl8-stroke" transform="matrix(1,0,0,1,50,494)">
                <g id="ic_48px_qu1rbe83qpl8-stroke">
                    <g>
                        <path d="M15.072,30.179C15.072,24.482 17.789,19.695 23.011,19.695C28.233,19.695 30.949,24.482 30.949,30.179L30.949,37.273C30.949,42.969 28.105,47.882 23.011,47.882C17.916,47.882 15.072,42.969 15.072,37.273L15.072,30.179ZM36.832,27.515C36.832,22.895 40.056,19.695 44.438,19.695C51.707,19.695 54.186,26.789 49.421,33.098L37.33,47.417L53.951,47.417" style="fill:none;stroke:rgb(244,244,244);stroke-width:2px;"/>
                    </g>
                </g>
            </g>
            <g id="g-root-ic_conf_18mkpze83pc0b-stroke" transform="matrix(1,0,0,1,518,494)">
                <g id="ic_conf_18mkpze83pc0b-stroke">
                    <g>
                        <path d="M56.414,44.268L54.374,42.228C54.374,42.228 54.2,39.548 53.448,38.808L46.598,32.048C45.669,31.131 44.175,31.131 43.246,32.048C42.804,32.485 42.555,33.08 42.555,33.702C42.555,34.324 42.804,34.919 43.246,35.356L41.57,33.702C40.64,32.786 39.148,32.786 38.218,33.702C37.776,34.139 37.527,34.734 37.527,35.356C37.527,35.978 37.776,36.573 38.218,37.01L37.382,36.186C36.453,35.269 34.959,35.269 34.03,36.186C33.588,36.623 33.339,37.218 33.339,37.84C33.339,38.462 33.588,39.057 34.03,39.494L34.87,40.322C33.941,39.404 32.445,39.404 31.516,40.322C31.074,40.759 30.825,41.354 30.825,41.976C30.825,42.598 31.074,43.193 31.516,43.63L34.03,46.11C33.143,46.983 32.643,48.175 32.642,49.42C32.642,50.66 33.142,51.85 34.03,52.728C36.36,55.028 40.678,56.634 44.284,56.398M34.028,46.108L36.542,48.588M36.54,41.972L34.864,40.318M39.894,38.664L38.218,37.01M11.586,23.732L13.626,25.772C13.626,25.772 13.8,28.452 14.552,29.192L21.402,35.952C22.331,36.869 23.825,36.869 24.754,35.952C25.196,35.515 25.445,34.92 25.445,34.298C25.445,33.676 25.196,33.081 24.754,32.644L26.43,34.298C27.36,35.214 28.852,35.214 29.782,34.298C30.224,33.861 30.473,33.266 30.473,32.644C30.473,32.022 30.224,31.427 29.782,30.99L30.618,31.814C31.547,32.731 33.041,32.731 33.97,31.814C34.412,31.377 34.661,30.782 34.661,30.16C34.661,29.538 34.412,28.943 33.97,28.506L33.13,27.678C34.059,28.596 35.555,28.596 36.484,27.678C36.926,27.241 37.175,26.646 37.175,26.024C37.175,25.402 36.926,24.807 36.484,24.37L33.97,21.89C34.857,21.017 35.357,19.825 35.358,18.58C35.358,17.34 34.858,16.148 33.97,15.272C31.64,12.972 27.32,11.366 23.716,11.6M33.974,21.892L31.458,19.412M31.46,26.028L33.136,27.682M28.106,29.336L29.782,30.99M38.958,14L40.286,12.474C40.491,12.238 40.789,12.103 41.101,12.104C41.414,12.104 41.711,12.24 41.916,12.476L44.572,15.532C44.834,15.834 45.242,15.967 45.632,15.876L49.576,14.964C49.881,14.893 50.202,14.958 50.455,15.143C50.708,15.327 50.869,15.612 50.896,15.924L51.248,19.958C51.282,20.356 51.534,20.703 51.902,20.858L55.63,22.438C55.92,22.56 56.143,22.802 56.239,23.101C56.336,23.401 56.298,23.727 56.134,23.996L54.048,27.468C53.843,27.81 53.843,28.236 54.048,28.578L56.134,32.05C56.298,32.318 56.337,32.645 56.24,32.944C56.143,33.243 55.92,33.485 55.63,33.606L54.698,34.002M29.096,54L27.768,55.53C27.563,55.766 27.265,55.901 26.953,55.9C26.64,55.9 26.343,55.764 26.138,55.528L23.482,52.47C23.219,52.168 22.812,52.036 22.422,52.126L18.478,53.04C18.173,53.111 17.852,53.046 17.599,52.861C17.346,52.677 17.185,52.392 17.158,52.08L16.806,48.046C16.772,47.648 16.52,47.302 16.152,47.146L12.422,45.564C12.133,45.442 11.911,45.2 11.815,44.901C11.718,44.602 11.757,44.276 11.92,44.008L14.006,40.536C14.211,40.194 14.211,39.766 14.006,39.424L11.92,35.954C11.757,35.686 11.718,35.36 11.815,35.061C11.911,34.762 12.133,34.52 12.422,34.398L13.356,34" style="fill:none;stroke:rgb(244,244,244);stroke-width:2px;"/>
                    </g>
                </g>
            </g>
            <g id="g-root-ic_48px_qqawsq83tj46-stroke" transform="matrix(1,0,0,1,26,590)">
                <g id="ic_48px_qqawsq83tj46-stroke">
                    <g>
                        <path d="M37.842,23.377L46.297,20.184L46.297,47.951M15.072,30.179C15.072,24.482 17.789,19.695 23.011,19.695C28.233,19.695 30.949,24.482 30.949,30.179L30.949,37.273C30.949,42.969 28.105,47.882 23.011,47.882C17.916,47.882 15.072,42.969 15.072,37.273L15.072,30.179Z" style="fill:none;stroke:rgb(244,244,244);stroke-width:2px;"/>
                    </g>
                </g>
            </g>
            <g id="g-root-ic_48px_zlbcsq840idg-stroke" transform="matrix(1,0,0,1,146,110)">
                <g id="ic_48px_zlbcsq840idg-stroke">
                    <g>
                        <path d="M15.072,30.179C15.072,24.482 17.789,19.696 23.011,19.696C28.233,19.696 30.949,24.482 30.949,30.179L30.949,37.273C30.949,42.97 28.105,47.882 23.011,47.882C17.916,47.882 15.072,42.97 15.072,37.273L15.072,30.179ZM50.418,19.665C41.584,19.665 37.369,25.383 37.037,34.143L37.037,38.359C37.037,43.89 40.109,47.444 45.231,47.882C50.057,48.069 53.06,44.281 53.276,38.792C53.414,35.307 51.645,30.415 46.214,29.871C41.455,29.396 37.736,32.558 37.037,35.977" style="fill:none;stroke:rgb(244,244,244);stroke-width:2px;"/>
                    </g>
                </g>
            </g>
            <g id="g-root-ic_48px_1464qru83l3bc-stroke" transform="matrix(1,0,0,1,98,302)">
                <g id="ic_48px_1464qru83l3bc-stroke">
                    <g>
                        <path d="M15.072,30.179C15.072,24.482 17.789,19.696 23.011,19.696C28.233,19.696 30.949,24.482 30.949,30.179L30.949,37.273C30.949,42.97 28.105,47.882 23.011,47.882C17.916,47.882 15.072,42.97 15.072,37.273L15.072,30.179ZM49.91,47.979L49.91,19.551L36.295,39.738L55.315,39.738" style="fill:none;stroke:rgb(244,244,244);stroke-width:2px;"/>
                    </g>
                </g>
            </g>
        </g>
    </g>
    <defs>
        <linearGradient id="_Linear1" x1="0" y1="0" x2="1" y2="0" gradientUnits="userSpaceOnUse" gradientTransform="matrix(10,586,-586,10,0,0)"><stop offset="0" style="stop-color:rgb(149,149,149);stop-opacity:1"/><stop offset="1" style="stop-color:rgb(127,127,127);stop-opacity:1"/></linearGradient>
        <linearGradient id="_Linear2" x1="0" y1="0" x2="1" y2="0" gradientUnits="userSpaceOnUse" gradientTransform="matrix(10,586,-586,10,0,0)"><stop offset="0" style="stop-color:rgb(149,149,149);stop-opacity:1"/><stop offset="1" style="stop-color:rgb(127,127,127);stop-opacity:1"/></linearGradient>
        <linearGradient id="_Linear3" x1="0" y1="0" x2="1" y2="0" gradientUnits="userSpaceOnUse" gradientTransform="matrix(10,106,-106,10,-1.77636e-15,0)"><stop offset="0" style="stop-color:rgb(59,196,130);stop-opacity:1"/><stop offset="1" style="stop-color:rgb(68,152,112);stop-opacity:1"/></linearGradient>
        <linearGradient id="_Linear4" x1="0" y1="0" x2="1" y2="0" gradientUnits="userSpaceOnUse" gradientTransform="matrix(10,106,-106,10,-1.77636e-15,0)"><stop offset="0" style="stop-color:rgb(145,187,57);stop-opacity:1"/><stop offset="1" style="stop-color:rgb(125,152,68);stop-opacity:1"/></linearGradient>
        <linearGradient id="_Linear5" x1="0" y1="0" x2="1" y2="0" gradientUnits="userSpaceOnUse" gradientTransform="matrix(10,106,-106,10,0,0)"><stop offset="0" style="stop-color:rgb(31,169,215);stop-opacity:1"/><stop offset="1" style="stop-color:rgb(49,135,163);stop-opacity:1"/></linearGradient>
        <linearGradient id="_Linear6" x1="0" y1="0" x2="1" y2="0" gradientUnits="userSpaceOnUse" gradientTransform="matrix(10,106,-106,10,0,0)"><stop offset="0" style="stop-color:rgb(78,136,230);stop-opacity:1"/><stop offset="1" style="stop-color:rgb(79,126,202);stop-opacity:1"/></linearGradient>
        <linearGradient id="_Linear7" x1="0" y1="0" x2="1" y2="0" gradientUnits="userSpaceOnUse" gradientTransform="matrix(10,106,-106,10,0,0)"><stop offset="0" style="stop-color:rgb(185,92,227);stop-opacity:1"/><stop offset="1" style="stop-color:rgb(163,84,199);stop-opacity:1"/></linearGradient>
        <linearGradient id="_Linear8" x1="0" y1="0" x2="1" y2="0" gradientUnits="userSpaceOnUse" gradientTransform="matrix(10,106,-106,10,0,0)"><stop offset="0" style="stop-color:rgb(221,87,168);stop-opacity:1"/><stop offset="1" style="stop-color:rgb(191,74,144);stop-opacity:1"/></linearGradient>
    </defs>
</svg>
