<?xml version="1.0" encoding="UTF-8" standalone="no"?>
<!DOCTYPE svg PUBLIC "-//W3C//DTD SVG 1.1//EN" "http://www.w3.org/Graphics/SVG/1.1/DTD/svg11.dtd">
<svg width="100%" height="100%" viewBox="0 0 576 566" version="1.1" xmlns="http://www.w3.org/2000/svg" xmlns:xlink="http://www.w3.org/1999/xlink" xml:space="preserve" xmlns:serif="http://www.serif.com/" style="fill-rule:evenodd;clip-rule:evenodd;stroke-linecap:round;stroke-linejoin:round;">
    <g id="items" transform="matrix(1.10346,0,0,1.10346,-24.279,-38.7275)">
        <g id="blend">
            <g id="g-root-cp_7_text-7_94nf0n1pnvlz4-fill" transform="matrix(1,0,0,1,50,50)">
                <g id="cp_7_text-7_94nf0n1pnvlz4-fill">
                    <g>
                        <rect x="10" y="10" width="228" height="84" style="fill:rgb(203,104,249);"/>
                    </g>
                </g>
            </g>
            <g id="g-root-cp_7_stick-7_1lr69c71pnwyki-fill" transform="matrix(1,0,0,1,268,134)">
                <g id="cp_7_stick-7_1lr69c71pnwyki-fill">
                    <g>
                        <rect x="10" y="10" width="10" height="312" style="fill:rgb(203,104,249);"/>
                    </g>
                </g>
            </g>
            <g id="g-root-cp_5_text-5_4il6131pnwykk-fill" transform="matrix(1,0,0,1,40,134)">
                <g id="cp_5_text-5_4il6131pnwykk-fill">
                    <g>
                        <rect x="10" y="10" width="228" height="84" style="fill:rgb(251,103,98);"/>
                    </g>
                </g>
            </g>
            <g id="g-root-cp_5_stick-5_8znmbr1pnwzye-fill" transform="matrix(1,0,0,1,258,218)">
                <g id="cp_5_stick-5_8znmbr1pnwzye-fill">
                    <g>
                        <rect x="10" y="10" width="10" height="228" style="fill:rgb(251,103,98);"/>
                    </g>
                </g>
            </g>
            <g id="g-root-cp_3_text-3_zntl8n1pnwyyo-fill" transform="matrix(1,0,0,1,30,218)">
                <g id="cp_3_text-3_zntl8n1pnwyyo-fill">
                    <g>
                        <rect x="10" y="10" width="228" height="84" style="fill:rgb(255,231,17);"/>
                    </g>
                </g>
            </g>
            <g id="g-root-cp_3_stick-3_18kpjnr1pnwzka-fill" transform="matrix(1,0,0,1,248,302)">
                <g id="cp_3_stick-3_18kpjnr1pnwzka-fill">
                    <g>
                        <rect x="10" y="10" width="10" height="144" style="fill:rgb(255,231,17);"/>
                    </g>
                </g>
            </g>
            <g id="g-root-cp_1_text-1_7rglj1pnwyro-fill" transform="matrix(1,0,0,1,20,302)">
                <g id="cp_1_text-1_7rglj1pnwyro-fill">
                    <g>
                        <rect x="10" y="10" width="228" height="108" style="fill:rgb(67,221,147);"/>
                    </g>
                </g>
            </g>
            <g id="g-root-cp_1_stick-1_zqxyo71pnwzda-fill" transform="matrix(1,0,0,1,237.996,386)">
                <g id="cp_1_stick-1_zqxyo71pnwzda-fill">
                    <g>
                        <rect x="10.004" y="10" width="10" height="60" style="fill:rgb(67,221,147);"/>
                    </g>
                </g>
            </g>
            <g id="g-root-cp_6_text-6_dkgx531pnwzcw-fill" transform="matrix(1,0,0,1,278,122)">
                <g id="cp_6_text-6_dkgx531pnwzcw-fill">
                    <g>
                        <rect x="10" y="10" width="228" height="84" style="fill:rgb(243,102,187);"/>
                    </g>
                </g>
            </g>
            <g id="g-root-cp_6_stick-6_1lzafgn1pnwz5u-fill" transform="matrix(1,0,0,1,278,206)">
                <g id="cp_6_stick-6_1lzafgn1pnwz5u-fill">
                    <g>
                        <rect x="10" y="10" width="10" height="240" style="fill:rgb(243,102,187);"/>
                    </g>
                </g>
            </g>
            <g id="g-root-cp_4_text-4_zitsjr1pnycy4-fill" transform="matrix(1,0,0,1,288,206)">
                <g id="cp_4_text-4_zitsjr1pnycy4-fill">
                    <g>
                        <rect x="10" y="10" width="228" height="108" style="fill:rgb(247,148,56);"/>
                    </g>
                </g>
            </g>
            <g id="g-root-cp_4_stick-4_8wj8w71pnycy6-fill" transform="matrix(1,0,0,1,288,314)">
                <g id="cp_4_stick-4_8wj8w71pnycy6-fill">
                    <g>
                        <rect x="10" y="10" width="10" height="132" style="fill:rgb(247,148,56);"/>
                    </g>
                </g>
            </g>
            <g id="g-root-cp_2_text-2_w8nb1pnyeio-fill" transform="matrix(1,0,0,1,298,314)">
                <g id="cp_2_text-2_w8nb1pnyeio-fill">
                    <g>
                        <rect x="10" y="10" width="228" height="84" style="fill:rgb(166,218,55);"/>
                    </g>
                </g>
            </g>
            <g id="g-root-cp_2_stick-2_1cvj93b1pnydje-fill" transform="matrix(1,0,0,1,298,398)">
                <g id="cp_2_stick-2_1cvj93b1pnydje-fill">
                    <g>
                        <rect x="10" y="10" width="10" height="48" style="fill:rgb(166,218,55);"/>
                    </g>
                </g>
            </g>
            <g id="g-root-cp_0_g-0_zk2qpz1pnyf4c-fill" transform="matrix(1,0,0,1,238,446)">
                <g id="cp_0_g-0_zk2qpz1pnyf4c-fill">
                    <g>
                        <path d="M33.336,62L45.002,88L56.663,62L33.336,62Z" style="fill:rgb(232,232,232);"/>
                    </g>
                </g>
                <g id="cp_0_g-0_zk2qpz1pnyf4c-fill1" serif:id="cp_0_g-0_zk2qpz1pnyf4c-fill">
                    <g>
                        <path d="M80,10L10,10L33.333,62L56.668,62L80,10Z" style="fill:rgb(232,232,232);"/>
                    </g>
                </g>
            </g>
            <g transform="matrix(1,0,0,1,108.88,264)">
                <g id="g-root-tx_hospital_1qckptz1pxfp5a-fill">
                    <g id="tx_hospital_1qckptz1pxfp5a-fill">
                        <g>
                            <g>
                                <text x="0px" y="0px" style="font-family:'Arial-BoldMT', 'Arial', sans-serif;font-weight:700;font-size:20px;fill:rgb(44,44,44);">Hospitality</text>
                            </g>
                        </g>
                    </g>
                </g>
            </g>
            <g id="g-root-tx__1hgb8hz1pxjy11-fill">
            </g>
            <g transform="matrix(1,0,0,1,350,168)">
                <g id="g-root-tx_techstar_qs59l31pxjz0s-fill">
                    <g id="tx_techstar_qs59l31pxjz0s-fill">
                        <g>
                            <g>
                                <text x="0px" y="0px" style="font-family:'Arial-BoldMT', 'Arial', sans-serif;font-weight:700;font-size:20px;fill:rgb(44,44,44);">T<tspan x="10.732px 21.855px " y="0px 0px ">ec</tspan>h Startups</text>
                            </g>
                        </g>
                    </g>
                </g>
            </g>
            <g id="g-root-tx_financia_qn5gw71pxmqdr-fill" transform="matrix(1,0,0,1,348,218)">
                <g id="tx_financia_qn5gw71pxmqdr-fill">
                    <g>
                        <g>
                            <g transform="matrix(1,0,0,1,12,34)">
                                <text x="0px" y="0px" style="font-family:'Arial-BoldMT', 'Arial', sans-serif;font-weight:700;font-size:20px;fill:rgb(44,44,44);">Financial</text>
                            </g>
                            <g transform="matrix(1,0,0,1,12,58)">
                                <text x="0px" y="0px" style="font-family:'Arial-BoldMT', 'Arial', sans-serif;font-weight:700;font-size:20px;fill:rgb(44,44,44);">Services</text>
                            </g>
                        </g>
                    </g>
                </g>
            </g>
            <g id="g-root-tx__metnt31pxfqq7-fill">
            </g>
            <g id="g-root-tx__1cvhxon1pxmq68-fill">
            </g>
            <g id="g-root-tx_corporat_8x4ekn1pxii9t-fill" transform="matrix(1,0,0,1,80,314)">
                <g id="tx_corporat_8x4ekn1pxii9t-fill">
                    <g>
                        <g>
                            <g transform="matrix(1,0,0,1,26.52,34)">
                                <text x="0px" y="0px" style="font-family:'Arial-BoldMT', 'Arial', sans-serif;font-weight:700;font-size:20px;fill:rgb(44,44,44);">Corporate</text>
                            </g>
                            <g transform="matrix(1,0,0,1,13.45,58)">
                                <text x="0px" y="0px" style="font-family:'Arial-BoldMT', 'Arial', sans-serif;font-weight:700;font-size:20px;fill:rgb(44,44,44);">Enterprises</text>
                            </g>
                        </g>
                    </g>
                </g>
            </g>
            <g transform="matrix(1,0,0,1,126.78,180)">
                <g id="g-root-tx_educatio_13zuxfr1pxea6b-fill">
                    <g id="tx_educatio_13zuxfr1pxea6b-fill">
                        <g>
                            <g>
                                <text x="0px" y="0px" style="font-family:'Arial-BoldMT', 'Arial', sans-serif;font-weight:700;font-size:20px;fill:rgb(44,44,44);">Education</text>
                            </g>
                        </g>
                    </g>
                </g>
            </g>
            <g id="g-root-tx__8znmbr1pnye4p-fill">
            </g>
            <g transform="matrix(1,0,0,1,370,360)">
                <g id="g-root-tx_callcent_mbpadj1pxo74a-fill">
                    <g id="tx_callcent_mbpadj1pxo74a-fill">
                        <g>
                            <g>
                                <text x="0px" y="0px" style="font-family:'Arial-BoldMT', 'Arial', sans-serif;font-weight:700;font-size:20px;fill:rgb(44,44,44);">Call Centers</text>
                            </g>
                        </g>
                    </g>
                </g>
            </g>
            <g id="g-root-tx__v4ue9z1pxikga-fill">
            </g>
            <g id="g-root-tx__qte7rb1pxo5cb-fill">
            </g>
            <g transform="matrix(1,0,0,1,111.38,96)">
                <g id="g-root-tx_ecommerc_18hl6871pnydc0-fill">
                    <g id="tx_ecommerc_18hl6871pnydc0-fill">
                        <g>
                            <g>
                                <text x="0px" y="0px" style="font-family:'Arial-BoldMT', 'Arial', sans-serif;font-weight:700;font-size:20px;fill:rgb(44,44,44);">E-commerce</text>
                            </g>
                        </g>
                    </g>
                </g>
            </g>
            <g id="g-root-tx__humu2v1pxebk4-fill">
            </g>
            <g id="g-root-cp_7_text-7_94nf0n1pnvlz4-stroke" transform="matrix(1,0,0,1,50,50)">
                <g id="cp_7_text-7_94nf0n1pnvlz4-stroke">
                    <g>
                        <path d="M10,94L10,10L238,10L238,94" style="fill:none;stroke:rgb(44,44,44);stroke-width:2px;"/>
                    </g>
                </g>
            </g>
            <g id="g-root-cp_7_stick-7_1lr69c71pnwyki-stroke" transform="matrix(1,0,0,1,268,134)">
                <g id="cp_7_stick-7_1lr69c71pnwyki-stroke">
                    <g>
                        <path d="M19.996,322L19.996,10" style="fill:none;stroke:rgb(44,44,44);stroke-width:2px;"/>
                    </g>
                </g>
            </g>
            <g id="g-root-cp_5_text-5_4il6131pnwykk-stroke" transform="matrix(1,0,0,1,40,134)">
                <g id="cp_5_text-5_4il6131pnwykk-stroke">
                    <g>
                        <path d="M10,94L10,10L238,10L238,94" style="fill:none;stroke:rgb(44,44,44);stroke-width:2px;"/>
                    </g>
                </g>
            </g>
            <g id="g-root-cp_5_stick-5_8znmbr1pnwzye-stroke" transform="matrix(1,0,0,1,258,218)">
                <g id="cp_5_stick-5_8znmbr1pnwzye-stroke">
                    <g>
                        <path d="M19.996,238L19.996,10" style="fill:none;stroke:rgb(44,44,44);stroke-width:2px;"/>
                    </g>
                </g>
            </g>
            <g id="g-root-cp_3_text-3_zntl8n1pnwyyo-stroke" transform="matrix(1,0,0,1,30,218)">
                <g id="cp_3_text-3_zntl8n1pnwyyo-stroke">
                    <g>
                        <path d="M10,94L10,10L238,10L238,94" style="fill:none;stroke:rgb(44,44,44);stroke-width:2px;"/>
                    </g>
                </g>
            </g>
            <g id="g-root-cp_3_stick-3_18kpjnr1pnwzka-stroke" transform="matrix(1,0,0,1,248,302)">
                <g id="cp_3_stick-3_18kpjnr1pnwzka-stroke">
                    <g>
                        <path d="M19.996,154L19.996,10" style="fill:none;stroke:rgb(44,44,44);stroke-width:2px;"/>
                    </g>
                </g>
            </g>
            <g id="g-root-cp_1_text-1_7rglj1pnwyro-stroke" transform="matrix(1,0,0,1,20,302)">
                <g id="cp_1_text-1_7rglj1pnwyro-stroke">
                    <g>
                        <path d="M238,118L238,10L10,10L10,118L228,118" style="fill:none;stroke:rgb(44,44,44);stroke-width:2px;"/>
                    </g>
                </g>
            </g>
            <g id="g-root-cp_1_stick-1_zqxyo71pnwzda-stroke" transform="matrix(1,0,0,1,237.996,386)">
                <g id="cp_1_stick-1_zqxyo71pnwzda-stroke">
                    <g>
                        <path d="M20,70L20,10M10,70L10.004,34" style="fill:none;stroke:rgb(44,44,44);stroke-width:2px;"/>
                    </g>
                </g>
            </g>
            <g id="g-root-cp_6_text-6_dkgx531pnwzcw-stroke" transform="matrix(1,0,0,1,278,122)">
                <g id="cp_6_text-6_dkgx531pnwzcw-stroke">
                    <g>
                        <path d="M238,94L238,10L10,10L10,94" style="fill:none;stroke:rgb(44,44,44);stroke-width:2px;"/>
                    </g>
                </g>
            </g>
            <g id="g-root-cp_6_stick-6_1lzafgn1pnwz5u-stroke" transform="matrix(1,0,0,1,278,206)">
                <g id="cp_6_stick-6_1lzafgn1pnwz5u-stroke">
                    <g>
                        <path d="M10.004,250L10.004,10" style="fill:none;stroke:rgb(44,44,44);stroke-width:2px;"/>
                    </g>
                </g>
            </g>
            <g id="g-root-cp_4_text-4_zitsjr1pnycy4-stroke" transform="matrix(1,0,0,1,288,206)">
                <g id="cp_4_text-4_zitsjr1pnycy4-stroke">
                    <g>
                        <path d="M238,118L238,10L10,10L10,118" style="fill:none;stroke:rgb(44,44,44);stroke-width:2px;"/>
                    </g>
                </g>
            </g>
            <g id="g-root-cp_4_stick-4_8wj8w71pnycy6-stroke" transform="matrix(1,0,0,1,288,314)">
                <g id="cp_4_stick-4_8wj8w71pnycy6-stroke">
                    <g>
                        <path d="M10.004,142L10.004,10" style="fill:none;stroke:rgb(44,44,44);stroke-width:2px;"/>
                    </g>
                </g>
            </g>
            <g id="g-root-cp_2_text-2_w8nb1pnyeio-stroke" transform="matrix(1,0,0,1,298,314)">
                <g id="cp_2_text-2_w8nb1pnyeio-stroke">
                    <g>
                        <path d="M10,94L10,10L238,10L238,94L19,94" style="fill:none;stroke:rgb(44,44,44);stroke-width:2px;"/>
                    </g>
                </g>
            </g>
            <g id="g-root-cp_2_stick-2_1cvj93b1pnydje-stroke" transform="matrix(1,0,0,1,298,398)">
                <g id="cp_2_stick-2_1cvj93b1pnydje-stroke">
                    <g>
                        <path d="M10.004,58L10.004,10M20,58L20,10" style="fill:none;stroke:rgb(44,44,44);stroke-width:2px;"/>
                    </g>
                </g>
            </g>
            <g id="g-root-cp_0_g-0_zk2qpz1pnyf4c-stroke" transform="matrix(1,0,0,1,238,446)">
                <g id="cp_0_g-0_zk2qpz1pnyf4c-stroke">
                    <g>
                        <path d="M33.336,62L45.002,88L56.663,62L33.336,62Z" style="fill:none;stroke:rgb(44,44,44);stroke-width:2px;"/>
                    </g>
                </g>
                <g id="cp_0_g-0_zk2qpz1pnyf4c-stroke1" serif:id="cp_0_g-0_zk2qpz1pnyf4c-stroke">
                    <g>
                        <path d="M80,10L10,10L33.333,62L56.668,62L80,10Z" style="fill:none;stroke:rgb(44,44,44);stroke-width:2px;"/>
                    </g>
                </g>
            </g>
            <g id="g-root-ic_man_1qdto071pxfrbc-stroke" transform="matrix(1,0,0,1,210,230)">
                <g id="ic_man_1qdto071pxfrbc-stroke">
                    <g>
                        <path d="M12.25,27.25L43.75,27.25C43.75,27.25 45.25,27.25 45.25,28.75L45.25,37.75C45.25,37.75 45.25,39.25 43.75,39.25L12.25,39.25C12.25,39.25 10.75,39.25 10.75,37.75L10.75,28.75C10.75,28.75 10.75,27.25 12.25,27.25M15.25,39.25L15.25,45.25M40.75,39.25L40.75,45.25M23.875,13.9C25.396,15.484 27.499,16.378 29.695,16.375C30.799,16.374 31.89,16.149 32.905,15.715M23.2,16.375C23.2,19.067 25.383,21.25 28.075,21.25C30.767,21.25 32.95,19.067 32.95,16.375C32.95,13.683 30.767,11.5 28.075,11.5C25.383,11.5 23.2,13.683 23.2,16.375M34.75,27.25C33.264,24.967 30.724,23.591 28,23.591C25.276,23.591 22.736,24.967 21.25,27.25" style="fill:none;stroke:rgb(44,44,44);stroke-width:2px;"/>
                    </g>
                </g>
            </g>
            <g id="g-root-ic_idea_1qd76x31pxjymm-stroke" transform="matrix(1,0,0,1,290,134)">
                <g id="ic_idea_1qd76x31pxjymm-stroke">
                    <g>
                        <path d="M29.95,38.125L25.45,38.125M43.504,31.438C43.809,31.715 43.988,32.104 43.999,32.516C44.009,32.928 43.851,33.327 43.561,33.619C41.219,35.964 35.212,41.119 27.7,41.119C20.615,41.119 14.65,35.767 12.427,33.487C11.873,32.921 11.855,32.022 12.385,31.433C14.57,28.997 20.57,23.125 27.7,23.125C33.687,23.125 40.802,28.994 43.504,31.438ZM27.7,19.375L27.7,14.875M21.7,19.375L20.95,16.375M17.95,21.625L16.45,19.375M14.95,24.625L12.7,22.375M33.7,19.375L34.45,16.375M37.45,21.625L38.95,19.375M40.45,24.625L42.7,22.375M31.45,29.875C31.458,28.109 30.233,26.578 28.509,26.197C26.785,25.816 25.029,26.689 24.292,28.294C23.555,29.898 24.038,31.799 25.45,32.859L25.45,35.125L29.95,35.125L29.95,32.859C30.892,32.155 31.447,31.05 31.45,29.875L31.45,29.875ZM18.7,32.125C18.7,37.096 22.729,41.125 27.7,41.125C32.671,41.125 36.7,37.096 36.7,32.125C36.7,27.154 32.671,23.125 27.7,23.125C22.729,23.125 18.7,27.154 18.7,32.125Z" style="fill:none;stroke:rgb(44,44,44);stroke-width:2px;"/>
                    </g>
                </g>
            </g>
            <g id="g-root-ic_1_23vev1pxmsjt-stroke" transform="matrix(1,0,0,1,300,218)">
                <g id="ic_1_23vev1pxmsjt-stroke">
                    <g>
                        <path d="M13.756,39.15L13.756,27.15M12.256,39.15L19.756,39.15M10.756,45.15L45.256,45.15M10.756,42.15L45.256,42.15M12.256,27.15L19.756,27.15M24.256,39.15L31.756,39.15M24.256,27.15L31.756,27.15M18.256,39.15L18.256,27.15M25.756,39.15L25.756,27.15M30.256,39.15L30.256,27.15M36.256,39.15L43.756,39.15M36.256,27.15L43.756,27.15M37.756,39.15L37.756,27.15M42.256,39.15L42.256,27.15M12.475,22.807C12.222,23.004 12.121,23.34 12.225,23.643C12.329,23.946 12.615,24.15 12.935,24.15L43.085,24.15C43.406,24.15 43.691,23.947 43.796,23.645C43.901,23.342 43.801,23.006 43.549,22.808L28.515,11.011C28.243,10.799 27.862,10.799 27.59,11.011L12.475,22.807Z" style="fill:none;stroke:rgb(44,44,44);stroke-width:2px;"/>
                    </g>
                </g>
            </g>
            <g id="g-root-ic_2_142zavb1pxeakt-stroke" transform="matrix(1,0,0,1,220,146)">
                <g id="ic_2_142zavb1pxeakt-stroke">
                    <g>
                        <path d="M25.774,34.75L12.274,34.75C11.446,34.75 10.774,34.078 10.774,33.25L10.774,12.25C10.774,11.422 11.446,10.75 12.274,10.75L42.274,10.75C43.102,10.75 43.774,11.422 43.774,12.25L43.774,31.75M16.744,16.75L27.976,27.982M27.976,23.18L27.976,27.982L23.174,27.982M16.744,21.552L16.744,16.75L21.546,16.75M45.226,45.25L45.226,41.248C45.224,38.487 42.986,36.25 40.225,36.25L37.726,36.25L37.726,29.5C37.726,28.257 36.719,27.25 35.476,27.25C34.233,27.25 33.226,28.257 33.226,29.5L33.226,40L31.3,38.379C30.637,37.582 29.455,37.474 28.659,38.137C27.862,38.8 27.754,39.982 28.417,40.779L32.128,45.25" style="fill:none;stroke:rgb(44,44,44);stroke-width:2px;"/>
                    </g>
                </g>
            </g>
            <g id="g-root-ic_chat_1lt0d6v1pxijgj-stroke" transform="matrix(1,0,0,1,200,314)">
                <g id="ic_chat_1lt0d6v1pxijgj-stroke">
                    <g>
                        <path d="M27.25,10.75C28.078,10.75 28.75,11.422 28.75,12.25L28.75,21.25C28.75,22.078 28.078,22.75 27.25,22.75L24.25,22.75L24.25,26.5L20.5,22.75L12.25,22.75C11.422,22.75 10.75,22.078 10.75,21.25L10.75,12.25C10.75,11.422 11.422,10.75 12.25,10.75L27.25,10.75ZM44.995,25.75C43.655,23.43 41.179,22 38.5,22C35.821,22 33.345,23.43 32.005,25.75M34.615,13C36.033,14.446 37.975,15.258 40,15.25C41.032,15.254 42.053,15.044 43,14.635M34,15.25C34,17.735 36.015,19.75 38.5,19.75C40.985,19.75 43,17.735 43,15.25C43,12.765 40.985,10.75 38.5,10.75C36.015,10.75 34,12.765 34,15.25M23.995,45.25C22.655,42.93 20.179,41.5 17.5,41.5C14.821,41.5 12.345,42.93 11.005,45.25M13.615,32.5C15.796,34.739 19.137,35.391 22,34.135M13,34.75C13,37.235 15.015,39.25 17.5,39.25C19.985,39.25 22,37.235 22,34.75C22,32.265 19.985,30.25 17.5,30.25C15.015,30.25 13,32.265 13,34.75M25,16.75L15.25,16.75M18.25,14.5L15.25,16.75L18.25,19M28.75,28.75C27.922,28.75 27.25,29.422 27.25,30.25L27.25,39.25C27.25,40.078 27.922,40.75 28.75,40.75L31.75,40.75L31.75,44.5L35.5,40.75L43.75,40.75C44.578,40.75 45.25,40.078 45.25,39.25L45.25,30.25C45.25,29.422 44.578,28.75 43.75,28.75L28.75,28.75ZM31,34.75L40.75,34.75M37.75,32.5L40.75,34.75L37.75,37" style="fill:none;stroke:rgb(44,44,44);stroke-width:2px;"/>
                    </g>
                </g>
            </g>
            <g id="g-root-ic_appa_1cynmiv1pnyepu-stroke" transform="matrix(1,0,0,1,230,62)">
                <g id="ic_appa_1cynmiv1pnyepu-stroke">
                    <g>
                        <path d="M29.5,40L13.75,40C12.093,40 10.75,38.657 10.75,37L10.75,13.75C10.75,12.093 12.093,10.75 13.75,10.75L42.25,10.75C43.907,10.75 45.25,12.093 45.25,13.75L45.25,30.25M10.75,18.25L45.25,18.25M16,14.125C16.207,14.125 16.375,14.293 16.375,14.5C16.375,14.707 16.207,14.875 16,14.875C15.793,14.875 15.625,14.707 15.625,14.5C15.625,14.293 15.793,14.125 16,14.125M20.5,14.125C20.707,14.125 20.875,14.293 20.875,14.5C20.875,14.707 20.707,14.875 20.5,14.875C20.293,14.875 20.125,14.707 20.125,14.5C20.125,14.293 20.293,14.125 20.5,14.125M25,14.125C25.207,14.125 25.375,14.293 25.375,14.5C25.375,14.707 25.207,14.875 25,14.875C24.793,14.875 24.625,14.707 24.625,14.5C24.625,14.293 24.793,14.125 25,14.125M33.25,28.75L36.25,28.75L35.034,23.886C34.866,23.218 34.267,22.75 33.578,22.75L30.25,22.75C30.25,23.993 29.243,25 28,25C26.757,25 25.75,23.993 25.75,22.75L22.422,22.75C21.733,22.75 21.134,23.218 20.966,23.886L19.75,28.75L22.75,28.75L22.75,34.75L28,34.75M45.25,45.25L38.5,38.5M35.571,42.1C35.686,42.379 35.957,42.562 36.259,42.564C36.561,42.566 36.835,42.387 36.953,42.109L38.5,38.5L42.109,36.953C42.387,36.835 42.566,36.561 42.564,36.259C42.562,35.957 42.379,35.686 42.1,35.571L32.665,31.685C32.385,31.57 32.063,31.634 31.848,31.848C31.634,32.063 31.57,32.385 31.685,32.665L35.571,42.1Z" style="fill:none;stroke:rgb(44,44,44);stroke-width:2px;"/>
                    </g>
                </g>
            </g>
            <g id="g-root-ic_cog_18lx6fb1pxo558-stroke" transform="matrix(1,0,0,1,310,326)">
                <g id="ic_cog_18lx6fb1pxo558-stroke">
                    <g>
                        <path d="M22.6,27.618C22.6,24.635 25.018,22.218 28,22.218C30.982,22.218 33.4,24.635 33.4,27.618M16.705,33.085L16.687,33.085C13.672,33.756 11.528,36.431 11.528,39.52L11.528,40.824C11.528,41.406 11.759,41.965 12.171,42.377C12.583,42.789 13.142,43.02 13.725,43.02L19.215,43.02C20.428,43.02 21.412,42.037 21.412,40.824C21.412,39.611 22.395,38.627 23.608,38.627L32.392,38.627C33.605,38.627 34.588,39.611 34.588,40.824C34.588,42.037 35.572,43.02 36.786,43.02L42.276,43.02C42.858,43.02 43.417,42.789 43.829,42.377C44.241,41.965 44.472,41.406 44.472,40.824L44.472,39.52C44.471,36.432 42.327,33.759 39.313,33.088L39.295,33.088C31.834,31.643 24.166,31.642 16.705,33.085ZM42.324,30.637C42.532,29.645 42.638,28.633 42.638,27.619C42.638,27.024 42.602,26.429 42.529,25.839C42.446,25.123 41.871,24.565 41.154,24.504L39.042,24.331C38.819,23.568 38.518,22.831 38.141,22.131L39.508,20.521C39.962,20 39.995,19.235 39.586,18.677C38.822,17.689 37.935,16.802 36.946,16.038C36.389,15.628 35.622,15.661 35.103,16.117L33.493,17.482C32.793,17.107 32.056,16.806 31.294,16.582L31.12,14.472C31.059,13.754 30.501,13.178 29.785,13.095C28.603,12.95 27.409,12.95 26.227,13.095C25.511,13.178 24.953,13.754 24.892,14.472L24.712,16.576C23.95,16.8 23.213,17.101 22.513,17.476L20.904,16.111C20.382,15.657 19.616,15.626 19.06,16.038C18.071,16.802 17.184,17.689 16.42,18.677C16.011,19.235 16.044,20 16.498,20.521L17.865,22.131C17.488,22.831 17.187,23.568 16.965,24.331L14.852,24.504C14.135,24.565 13.56,25.123 13.477,25.839C13.404,26.429 13.368,27.024 13.368,27.619C13.368,28.633 13.474,29.645 13.682,30.637" style="fill:none;stroke:rgb(44,44,44);stroke-width:2px;"/>
                    </g>
                </g>
            </g>
        </g>
    </g>
</svg>
