<?xml version="1.0" encoding="UTF-8" standalone="no"?>
<!DOCTYPE svg PUBLIC "-//W3C//DTD SVG 1.1//EN" "http://www.w3.org/Graphics/SVG/1.1/DTD/svg11.dtd">
<svg width="100%" height="100%" viewBox="0 0 618 564" version="1.1" xmlns="http://www.w3.org/2000/svg" xmlns:xlink="http://www.w3.org/1999/xlink" xml:space="preserve" xmlns:serif="http://www.serif.com/" style="fill-rule:evenodd;clip-rule:evenodd;stroke-linecap:round;stroke-linejoin:round;">
    <g id="items" transform="matrix(1.21456,0,0,1.21456,-66.2992,-97.5351)">
        <g id="blend">
            <g id="g-root-cp_1_sign-1_1cynjc71mlosn4-fill" transform="matrix(1,0,0,1,50,122)">
                <g id="cp_1_sign-1_1cynjc71mlosn4-fill">
                    <g>
                        <path d="M10,52L28,10L28,94L10,52ZM28,10L249,10L249,94L28,94L28,10Z" style="fill:rgb(79,145,252);"/>
                    </g>
                </g>
            </g>
            <g id="g-root-cp_3_sign-3_qs6ht31mloruy-fill" transform="matrix(1,0,0,1,50,218)">
                <g id="cp_3_sign-3_qs6ht31mloruy-fill">
                    <g>
                        <path d="M10,40L28,10L28,70L10,40ZM28,10L249,10L249,70L28,70L28,10Z" style="fill:rgb(251,103,98);"/>
                    </g>
                </g>
            </g>
            <g id="g-root-cp_5_sign-5_dgpzfr1mlotfw-fill" transform="matrix(1,0,0,1,62,290)">
                <g id="cp_5_sign-5_dgpzfr1mlotfw-fill">
                    <g>
                        <path d="M10,52L28,10L28,94L10,52ZM28,10L237,10L237,94L28,94L28,10Z" style="fill:rgb(255,231,17);"/>
                    </g>
                </g>
            </g>
            <g id="g-root-cp_pole_g-pole_1ur6i071mlosg6-fill" transform="matrix(1,0,0,1,287,98)">
                <g id="cp_pole_g-pole_1ur6i071mlosg6-fill">
                    <g>
                        <path d="M31,298L13,298L13,412L31,412L31,411.897L24.55,411.88C24.55,411.88 25.3,405.89 17.74,404.78C25.63,401.53 28.41,406.56 28.41,406.56C28.41,406.56 27.994,399.986 31,394.2L31,298ZM13,22L31,22L31,298L13,298L13,22Z" style="fill:rgb(171,171,171);"/>
                    </g>
                </g>
                <g id="cp_pole_g-pole_1ur6i071mlosg6-fill1" serif:id="cp_pole_g-pole_1ur6i071mlosg6-fill">
                    <g>
                        <rect x="10" y="10" width="24" height="12" style="fill:rgb(171,171,171);"/>
                    </g>
                </g>
            </g>
            <g id="g-root-cp_pole_plant_1hfpzmv1mlou15-fill" transform="matrix(1,0,0,1,255,475)">
                <g id="cp_pole_plant_1hfpzmv1mlou15-fill">
                    <g>
                        <path d="M60.393,29.56C60.393,29.56 57.613,24.53 49.723,27.78C54.516,28.484 57.019,30.471 56.533,35.008L10,35.008C10,35.008 17.976,46.521 54.183,46.521C90.39,46.521 97.76,35.008 97.76,35.008L71.483,35.008C68.788,30.384 74.815,23.86 80.883,26.67C78.883,23.56 72.993,22.89 68.553,26C66.693,20.52 67.443,13.77 70.613,10C59.453,14.7 60.393,29.56 60.393,29.56Z" style="fill:rgb(145,187,57);"/>
                    </g>
                </g>
            </g>
            <g id="g-root-cp_2_sign-2_144vycn1mlosgb-fill" transform="matrix(1,0,0,1,309,158)">
                <g id="cp_2_sign-2_144vycn1mlosgb-fill">
                    <g>
                        <path d="M10,10L171,10L171,94L10,94L10,10ZM189,52L171,10L171,94L189,52Z" style="fill:rgb(67,221,147);"/>
                    </g>
                </g>
            </g>
            <g id="g-root-cp_4_sign-4_qtffzb1mlou19-fill" transform="matrix(1,0,0,1,309,254)">
                <g id="cp_4_sign-4_qtffzb1mlou19-fill">
                    <g>
                        <path d="M10,10L207,10L207,70L10,70L10,10ZM225,40L207,10L207,70L225,40Z" style="fill:rgb(166,218,55);"/>
                    </g>
                </g>
            </g>
            <g id="g-root-cp_6_sign-6_dilep31mlosgf-fill" transform="matrix(1,0,0,1,309,326)">
                <g id="cp_6_sign-6_dilep31mlosgf-fill">
                    <g>
                        <path d="M10,10L231,10L231,70L10,70L10,10ZM249,40L231,10L231,70L249,40Z" style="fill:rgb(247,148,56);"/>
                    </g>
                </g>
            </g>
            <g id="g-root-tx_instantc_1cws42v1mlrl6r-fill" transform="matrix(1,0,0,1,122,140)">
                <g id="tx_instantc_1cws42v1mlrl6r-fill">
                    <g>
                        <g>
                            <g transform="matrix(1,0,0,1,102.17,34)">
                                <text x="0px" y="0px" style="font-family:'ArialMT', 'Arial', sans-serif;font-size:20px;fill:rgb(44,44,44);">Instant</text>
                            </g>
                            <g transform="matrix(1,0,0,1,22.35,58)">
                                <text x="0px" y="0px" style="font-family:'ArialMT', 'Arial', sans-serif;font-size:20px;fill:rgb(44,44,44);">Communication</text>
                            </g>
                        </g>
                    </g>
                </g>
            </g>
            <g id="g-root-tx_scalable_8x5pyf1mlkkr3-fill" transform="matrix(1,0,0,1,320,176)">
                <g id="tx_scalable_8x5pyf1mlkkr3-fill">
                    <g>
                        <g>
                            <g transform="matrix(1,0,0,1,12,34)">
                                <text x="0px" y="0px" style="font-family:'ArialMT', 'Arial', sans-serif;font-size:20px;fill:rgb(44,44,44);">Scalable</text>
                            </g>
                            <g transform="matrix(1,0,0,1,12,58)">
                                <text x="0px" y="0px" style="font-family:'ArialMT', 'Arial', sans-serif;font-size:20px;fill:rgb(44,44,44);">Solutions</text>
                            </g>
                        </g>
                    </g>
                </g>
            </g>
            <g transform="matrix(1,0,0,1,140.62,270)">
                <g id="g-root-tx_securepr_1lqjp2f1mm1hxf-fill">
                    <g id="tx_securepr_1lqjp2f1mm1hxf-fill">
                        <g>
                            <g>
                                <text x="0px" y="0px" style="font-family:'ArialMT', 'Arial', sans-serif;font-size:20px;fill:rgb(44,44,44);">Secure &amp; Private</text>
                            </g>
                        </g>
                    </g>
                </g>
            </g>
            <g transform="matrix(1,0,0,1,332,306)">
                <g id="g-root-tx_costeffe_zpp0h31mllzpl-fill">
                    <g id="tx_costeffe_zpp0h31mllzpl-fill">
                        <g>
                            <g>
                                <g transform="matrix(20,0,0,20,61.123,0)">
                                </g>
                                <g transform="matrix(20,0,0,20,66.4648,0)">
                                </g>
                                <text x="0px" y="0px" style="font-family:'ArialMT', 'Arial', sans-serif;font-size:20px;fill:rgb(44,44,44);">Cost-Eﬀective</text>
                            </g>
                        </g>
                    </g>
                </g>
            </g>
            <g id="g-root-tx_seamless_m8m8br1mlhsel-fill" transform="matrix(1,0,0,1,134,308)">
                <g id="tx_seamless_m8m8br1mlhsel-fill">
                    <g>
                        <g>
                            <g transform="matrix(1,0,0,1,19.37,34)">
                                <text x="0px" y="0px" style="font-family:'ArialMT', 'Arial', sans-serif;font-size:20px;fill:rgb(44,44,44);">Seamless User</text>
                            </g>
                            <g transform="matrix(1,0,0,1,54.52,58)">
                                <text x="0px" y="0px" style="font-family:'ArialMT', 'Arial', sans-serif;font-size:20px;fill:rgb(44,44,44);">Experience</text>
                            </g>
                        </g>
                    </g>
                </g>
            </g>
            <g transform="matrix(1,0,0,1,332,378)">
                <g id="g-root-tx_easyinte_40m1z1mlou17-fill">
                    <g id="tx_easyinte_40m1z1mlou17-fill">
                        <g>
                            <g>
                                <text x="0px" y="0px" style="font-family:'ArialMT', 'Arial', sans-serif;font-size:20px;fill:rgb(44,44,44);">Easy Integration</text>
                            </g>
                        </g>
                    </g>
                </g>
            </g>
            <g id="g-root-cp_1_sign-1_1cynjc71mlosn4-stroke" transform="matrix(1,0,0,1,50,122)">
                <g id="cp_1_sign-1_1cynjc71mlosn4-stroke">
                    <g>
                        <path d="M28,10L249,10M249,94L28,94M28,94L10,52L28,10" style="fill:none;stroke:rgb(44,44,44);stroke-width:2px;"/>
                    </g>
                </g>
            </g>
            <g id="g-root-cp_3_sign-3_qs6ht31mloruy-stroke" transform="matrix(1,0,0,1,50,218)">
                <g id="cp_3_sign-3_qs6ht31mloruy-stroke">
                    <g>
                        <path d="M28,10L249,10M249,70L28,70M28,70L10,40L28,10" style="fill:none;stroke:rgb(44,44,44);stroke-width:2px;"/>
                    </g>
                </g>
            </g>
            <g id="g-root-cp_5_sign-5_dgpzfr1mlotfw-stroke" transform="matrix(1,0,0,1,62,290)">
                <g id="cp_5_sign-5_dgpzfr1mlotfw-stroke">
                    <g>
                        <path d="M28,10L237,10M237,94L28,94M28,94L10,52L28,10" style="fill:none;stroke:rgb(44,44,44);stroke-width:2px;"/>
                    </g>
                </g>
            </g>
            <g id="g-root-cp_pole_g-pole_1ur6i071mlosg6-stroke" transform="matrix(1,0,0,1,287,98)">
                <g id="cp_pole_g-pole_1ur6i071mlosg6-stroke">
                    <g>
                        <path d="M31,394L31,298M13,411L13,298M31,298L31,22M13,298L13,22" style="fill:none;stroke:rgb(44,44,44);stroke-width:2px;"/>
                    </g>
                </g>
                <g id="cp_pole_g-pole_1ur6i071mlosg6-stroke1" serif:id="cp_pole_g-pole_1ur6i071mlosg6-stroke">
                    <g>
                        <rect x="10" y="10" width="24" height="12" style="fill:none;stroke:rgb(44,44,44);stroke-width:2px;"/>
                    </g>
                </g>
            </g>
            <g id="g-root-cp_pole_plant_1hfpzmv1mlou15-stroke" transform="matrix(1,0,0,1,255,475)">
                <g id="cp_pole_plant_1hfpzmv1mlou15-stroke">
                    <g>
                        <path d="M56.55,34.88C56.55,34.88 57.3,28.89 49.74,27.78C57.63,24.53 60.41,29.56 60.41,29.56C60.41,29.56 59.47,14.7 70.63,10C67.46,13.77 66.71,20.52 68.57,26C73.01,22.89 78.9,23.56 80.9,26.67C76.68,24.44 69.89,28.468 71,34.918M71,34.918L98,34.918M10,34.918L56.5,34.918" style="fill:none;stroke:rgb(44,44,44);stroke-width:2px;"/>
                    </g>
                </g>
            </g>
            <g id="g-root-cp_2_sign-2_144vycn1mlosgb-stroke" transform="matrix(1,0,0,1,309,158)">
                <g id="cp_2_sign-2_144vycn1mlosgb-stroke">
                    <g>
                        <path d="M171,94L10,94M10,10L171,10M171,10L189,52L171,94" style="fill:none;stroke:rgb(44,44,44);stroke-width:2px;"/>
                    </g>
                </g>
            </g>
            <g id="g-root-cp_4_sign-4_qtffzb1mlou19-stroke" transform="matrix(1,0,0,1,309,254)">
                <g id="cp_4_sign-4_qtffzb1mlou19-stroke">
                    <g>
                        <path d="M207,70L10,70M10,10L207,10M207,10L225,40L207,70" style="fill:none;stroke:rgb(44,44,44);stroke-width:2px;"/>
                    </g>
                </g>
            </g>
            <g id="g-root-cp_6_sign-6_dilep31mlosgf-stroke" transform="matrix(1,0,0,1,309,326)">
                <g id="cp_6_sign-6_dilep31mlosgf-stroke">
                    <g>
                        <path d="M231,70L10,70M10,10L231,10M231,10L249,40L231,70" style="fill:none;stroke:rgb(44,44,44);stroke-width:2px;"/>
                    </g>
                </g>
            </g>
            <g id="g-root-ic_flas_qvav8n1mlot1m-stroke" transform="matrix(1,0,0,1,74,146)">
                <g id="ic_flas_qvav8n1mlot1m-stroke">
                    <g>
                        <path d="M40.75,21.25L40.75,13.251C40.75,11.87 39.63,10.75 38.25,10.75L17.751,10.75C16.37,10.75 15.25,11.87 15.25,13.251L15.25,30.25M28.75,36.25L18.435,36.25C14.8,36.25 11.632,33.776 10.75,30.25L30.25,30.25M40.75,24.25L31.883,35.323C31.743,35.49 31.711,35.724 31.803,35.923C31.895,36.121 32.094,36.249 32.313,36.25L36.25,36.25L36.25,45.25L45.117,34.177C45.257,34.01 45.289,33.776 45.197,33.577C45.105,33.379 44.906,33.251 44.688,33.25L40.75,33.25L40.75,24.25Z" style="fill:none;stroke:rgb(44,44,44);stroke-width:2px;"/>
                    </g>
                </g>
            </g>
            <g id="g-root-ic_poin_3e4yv1mlhtse-stroke" transform="matrix(1,0,0,1,428,182)">
                <g id="ic_poin_3e4yv1mlhtse-stroke">
                    <g>
                        <path d="M21.25,44.5L21.25,22.75L34.75,22.75L34.75,44.5M39.25,29.5L44.5,29.5L44.5,44.5M16.75,29.5L11.5,29.5L11.5,44.5M24.1,14.875L28,18.625L31.9,14.875M28,11.125L28,18.625" style="fill:none;stroke:rgb(44,44,44);stroke-width:2px;"/>
                    </g>
                </g>
            </g>
            <g id="g-root-ic_pers_1upb2qv1mlrkzo-stroke" transform="matrix(1,0,0,1,74,230)">
                <g id="ic_pers_1upb2qv1mlrkzo-stroke">
                    <g>
                        <path d="M17.071,17.071C17.071,20.267 19.662,22.857 22.857,22.857C26.053,22.857 28.643,20.267 28.643,17.071C28.643,13.876 26.053,11.286 22.857,11.286C19.662,11.286 17.071,13.876 17.071,17.071M25.429,26.997C21.993,26.204 18.384,27.024 15.629,29.223C12.873,31.423 11.274,34.76 11.286,38.286L11.286,42.143L25.429,42.143M37.437,44.637C37.155,44.739 36.845,44.739 36.563,44.637C32.175,42.899 29.291,38.66 29.286,33.94L29.286,30.571C29.263,30.224 29.391,29.883 29.637,29.637C29.883,29.391 30.224,29.263 30.571,29.286L43.429,29.286C43.776,29.263 44.117,29.391 44.363,29.637C44.609,29.883 44.737,30.224 44.714,30.571L44.714,33.94C44.709,38.66 41.825,42.899 37.437,44.637Z" style="fill:none;stroke:rgb(44,44,44);stroke-width:2px;"/>
                    </g>
                </g>
            </g>
            <g id="g-root-ic_targ_m9v6hz1mlklc8-stroke" transform="matrix(1,0,0,1,464,266)">
                <g id="ic_targ_m9v6hz1mlklc8-stroke">
                    <g>
                        <path d="M28,11.503L28,18.253M11.5,28.003L18.25,28.003M28,44.503L28,37.753M44.5,28.003L37.75,28.003M16,28.003C16,34.63 21.373,40.003 28,40.003C34.627,40.003 40,34.63 40,28.003C40,21.376 34.627,16.003 28,16.003C21.373,16.003 16,21.376 16,28.003ZM28,23.503L28,22.003M30.25,23.5L27.201,23.5C26.237,23.501 25.408,24.185 25.225,25.131C25.043,26.077 25.556,27.021 26.451,27.381L29.547,28.618C30.443,28.977 30.958,29.921 30.775,30.869C30.592,31.817 29.762,32.501 28.797,32.5L25.75,32.5M28,34.003L28,32.503" style="fill:none;stroke:rgb(44,44,44);stroke-width:2px;"/>
                    </g>
                </g>
            </g>
            <g id="g-root-ic_2_dfh19j1mm1fd8-stroke" transform="matrix(1,0,0,1,86,314)">
                <g id="ic_2_dfh19j1mm1fd8-stroke">
                    <g>
                        <path d="M25.375,16.375C17.575,16.375 11.125,22.825 11.125,30.625C11.125,38.425 17.575,44.875 25.375,44.875C33.175,44.875 39.625,38.425 39.625,30.625M18.025,34.975C19.375,37.825 22.075,39.625 25.375,39.625C28.675,39.625 31.375,37.825 32.725,34.975M37.375,26.125C41.517,26.125 44.875,22.767 44.875,18.625C44.875,14.483 41.517,11.125 37.375,11.125C33.233,11.125 29.875,14.483 29.875,18.625C29.875,22.767 33.233,26.125 37.375,26.125ZM37.375,15.625L37.375,21.625M34.375,18.625L40.375,18.625M19.75,29.125C19.439,29.125 19.188,28.873 19.188,28.563C19.188,28.252 19.439,28 19.75,28M19.75,29.125C20.061,29.125 20.313,28.873 20.313,28.563C20.313,28.252 20.061,28 19.75,28M31,29.125C30.689,29.125 30.438,28.873 30.438,28.563C30.438,28.252 30.689,28 31,28M31,29.125C31.311,29.125 31.563,28.873 31.563,28.563C31.563,28.252 31.311,28 31,28" style="fill:none;stroke:rgb(44,44,44);stroke-width:2px;"/>
                    </g>
                </g>
            </g>
            <g id="g-root-ic_plan_1d2eh0n1mlm0aq-stroke" transform="matrix(1,0,0,1,488,338)">
                <g id="ic_plan_1d2eh0n1mlm0aq-stroke">
                    <g>
                        <path d="M19,25.75L16,25.75L16,11.5C16,11.086 16.336,10.75 16.75,10.75L31.75,10.75C32.164,10.75 32.5,11.086 32.5,11.5L32.5,25.75L24.25,25.75M28,25.75L28,30.25C30.485,30.25 32.5,32.265 32.5,34.75L32.5,35.5L28,35.5L28,44.5C28,44.914 27.664,45.25 27.25,45.25L11.5,45.25C11.086,45.25 10.75,44.914 10.75,44.5L10.75,26.5C10.75,26.086 11.086,25.75 11.5,25.75L16,25.75M28,38.5L44.5,38.5C44.914,38.5 45.25,38.164 45.25,37.75L45.25,28C42.351,28 40,25.649 40,22.75L44.5,22.75C44.914,22.75 45.25,22.414 45.25,22L45.25,17.5C45.25,17.086 44.914,16.75 44.5,16.75L32.5,16.75M10.75,36.25L18.25,36.25L18.25,45.25L11.5,45.25C11.086,45.25 10.75,44.914 10.75,44.5L10.75,36.25ZM10.75,39.25L18.25,39.25M10.75,42.25L18.25,42.25" style="fill:none;stroke:rgb(44,44,44);stroke-width:2px;"/>
                    </g>
                </g>
            </g>
        </g>
    </g>
</svg>
