<?xml version="1.0" encoding="UTF-8" standalone="no"?>
<!DOCTYPE svg PUBLIC "-//W3C//DTD SVG 1.1//EN" "http://www.w3.org/Graphics/SVG/1.1/DTD/svg11.dtd">
<svg width="100%" height="100%" viewBox="0 0 576 755" version="1.1" xmlns="http://www.w3.org/2000/svg" xmlns:xlink="http://www.w3.org/1999/xlink" xml:space="preserve" xmlns:serif="http://www.serif.com/" style="fill-rule:evenodd;clip-rule:evenodd;stroke-linecap:round;stroke-linejoin:round;">
    <g id="items" transform="matrix(1.07034,0,0,1.07034,-20.258,-35.4328)">
        <g id="blend">
            <g id="g-root-cp_9_text-9_8xs70n1nfoz5t-fill" transform="matrix(1,0,0,1,50,86)">
                <g id="cp_9_text-9_8xs70n1nfoz5t-fill">
                    <g>
                        <rect x="10" y="10" width="228" height="84" style="fill:rgb(255,231,17);"/>
                    </g>
                </g>
            </g>
            <g id="g-root-cp_9_stick-9_v5i6pz1nfp1cb-fill" transform="matrix(1,0,0,1,272,170)">
                <g id="cp_9_stick-9_v5i6pz1nfp1cb-fill">
                    <g>
                        <rect x="10" y="10" width="5.997" height="468" style="fill:rgb(255,231,17);"/>
                    </g>
                </g>
            </g>
            <g id="g-root-cp_7_text-7_4j7n2f1nfp1cd-fill" transform="matrix(1,0,0,1,44,170)">
                <g id="cp_7_text-7_4j7n2f1nfp1cd-fill">
                    <g>
                        <rect x="10" y="10" width="228" height="108" style="fill:rgb(247,148,56);"/>
                    </g>
                </g>
            </g>
            <g id="g-root-cp_7_stick-7_1lto5mv1nfp0cn-fill" transform="matrix(1,0,0,1,266,278)">
                <g id="cp_7_stick-7_1lto5mv1nfp0cn-fill">
                    <g>
                        <rect x="10" y="10" width="5.997" height="360" style="fill:rgb(247,148,56);"/>
                    </g>
                </g>
            </g>
            <g id="g-root-cp_5_text-5_1430m871nfozk1-fill" transform="matrix(1,0,0,1,38,278)">
                <g id="cp_5_text-5_1430m871nfozk1-fill">
                    <g>
                        <rect x="10" y="10" width="228" height="108" style="fill:rgb(203,104,249);"/>
                    </g>
                </g>
            </g>
            <g id="g-root-cp_5_stick-5_dgq2kn1nfozk3-fill" transform="matrix(1,0,0,1,260,386)">
                <g id="cp_5_stick-5_dgq2kn1nfozk3-fill">
                    <g>
                        <rect x="10" y="10" width="5.997" height="252" style="fill:rgb(203,104,249);"/>
                    </g>
                </g>
            </g>
            <g id="g-root-cp_3_text-3_59k7b1nfp151-fill" transform="matrix(1,0,0,1,32,386)">
                <g id="cp_3_text-3_59k7b1nfp151-fill">
                    <g>
                        <rect x="10" y="10" width="228" height="108" style="fill:rgb(26,195,251);"/>
                    </g>
                </g>
            </g>
            <g id="g-root-cp_3_stick-3_1czwknb1nfp05r-fill" transform="matrix(1,0,0,1,254,494)">
                <g id="cp_3_stick-3_1czwknb1nfp05r-fill">
                    <g>
                        <rect x="10" y="10" width="5.997" height="144" style="fill:rgb(26,195,251);"/>
                    </g>
                </g>
            </g>
            <g id="g-root-cp_1_text-1_v9918n1nfozd5-fill" transform="matrix(1,0,0,1,26,494)">
                <g id="cp_1_text-1_v9918n1nfozd5-fill">
                    <g>
                        <rect x="10" y="10" width="228" height="108" style="fill:rgb(67,221,147);"/>
                    </g>
                </g>
            </g>
            <g id="g-root-cp_1_stick-1_dilhtz1nfoykj-fill" transform="matrix(1,0,0,1,247.997,578)">
                <g id="cp_1_stick-1_dilhtz1nfoykj-fill">
                    <g>
                        <rect x="10.003" y="10" width="5.997" height="60" style="fill:rgb(67,221,147);"/>
                    </g>
                </g>
            </g>
            <g id="g-root-cp_10_text-10_1qcm16v1nfp0r1-fill" transform="matrix(1,0,0,1,278,50)">
                <g id="cp_10_text-10_1qcm16v1nfp0r1-fill">
                    <g>
                        <rect x="10" y="10" width="228" height="84" style="fill:rgb(183,183,183);"/>
                    </g>
                </g>
            </g>
            <g id="g-root-cp_10_stick-10_18lyhs71nfozyf-fill" transform="matrix(1,0,0,1,278.003,134)">
                <g id="cp_10_stick-10_18lyhs71nfozyf-fill">
                    <g>
                        <rect x="10" y="10" width="5.997" height="504" style="fill:rgb(183,183,183);"/>
                    </g>
                </g>
            </g>
            <g id="g-root-cp_8_text-8_1464znr1nfp0qp-fill" transform="matrix(1,0,0,1,284,134)">
                <g id="cp_8_text-8_1464znr1nfp0qp-fill">
                    <g>
                        <rect x="10" y="10" width="228" height="132" style="fill:rgb(251,103,98);"/>
                    </g>
                </g>
            </g>
            <g id="g-root-cp_8_stick-8_hzny4n1nfozyj-fill" transform="matrix(1,0,0,1,284.003,266)">
                <g id="cp_8_stick-8_hzny4n1nfozyj-fill">
                    <g>
                        <rect x="10" y="10" width="5.997" height="372" style="fill:rgb(251,103,98);"/>
                    </g>
                </g>
            </g>
            <g id="g-root-cp_6_text-6_4o7frb1nfp1jh-fill" transform="matrix(1,0,0,1,290,266)">
                <g id="cp_6_text-6_4o7frb1nfp1jh-fill">
                    <g>
                        <rect x="10" y="10" width="228" height="108" style="fill:rgb(135,105,253);"/>
                    </g>
                </g>
            </g>
            <g id="g-root-cp_6_stick-6_1lynybr1nfp0jr-fill" transform="matrix(1,0,0,1,290.003,374)">
                <g id="cp_6_stick-6_1lynybr1nfp0jr-fill">
                    <g>
                        <rect x="10" y="10" width="5.997" height="264" style="fill:rgb(135,105,253);"/>
                    </g>
                </g>
            </g>
            <g id="g-root-cp_4_text-4_1480ex31nfozr5-fill" transform="matrix(1,0,0,1,296,374)">
                <g id="cp_4_text-4_1480ex31nfozr5-fill">
                    <g>
                        <rect x="10" y="10" width="228" height="108" style="fill:rgb(243,102,187);"/>
                    </g>
                </g>
            </g>
            <g id="g-root-cp_4_stick-4_dbq9vr1nfqebn-fill" transform="matrix(1,0,0,1,296.003,482)">
                <g id="cp_4_stick-4_dbq9vr1nfqebn-fill">
                    <g>
                        <rect x="10" y="10" width="5.997" height="156" style="fill:rgb(243,102,187);"/>
                    </g>
                </g>
            </g>
            <g id="g-root-cp_2_text-2_4g39mv1nfqf4d-fill" transform="matrix(1,0,0,1,302,482)">
                <g id="cp_2_text-2_4g39mv1nfqf4d-fill">
                    <g>
                        <rect x="10" y="10" width="228" height="108" style="fill:rgb(166,218,55);"/>
                    </g>
                </g>
            </g>
            <g id="g-root-cp_2_stick-2_1cuwryf1nfqexb-fill" transform="matrix(1,0,0,1,302.003,565)">
                <g id="cp_2_stick-2_1cuwryf1nfqexb-fill">
                    <g>
                        <rect x="10" y="10" width="5.997" height="73" style="fill:rgb(166,218,55);"/>
                    </g>
                </g>
            </g>
            <g id="g-root-cp_0_g-0_13zw8sn1nfqdc1-fill" transform="matrix(1,0,0,1,248,638)">
                <g id="cp_0_g-0_13zw8sn1nfqdc1-fill">
                    <g>
                        <path d="M30,58L40.001,82.001L50.001,58L30,58Z" style="fill:rgb(232,232,232);"/>
                    </g>
                </g>
                <g id="cp_0_g-0_13zw8sn1nfqdc1-fill1" serif:id="cp_0_g-0_13zw8sn1nfqdc1-fill">
                    <g>
                        <path d="M70.001,10L10,10L30,57.999L50.001,57.999L70.001,10Z" style="fill:rgb(232,232,232);"/>
                    </g>
                </g>
            </g>
            <g id="g-root-tx_customiz_dj7yx31nfum83-fill" transform="matrix(1,0,0,1,74,290)">
                <g id="tx_customiz_dj7yx31nfum83-fill">
                    <g>
                        <g>
                            <g transform="matrix(1,0,0,1,16.82,34)">
                                <text x="0px" y="0px" style="font-family:'Arial-BoldMT', 'Arial', sans-serif;font-weight:700;font-size:20px;fill:rgb(44,44,44);">Customizable</text>
                            </g>
                            <g transform="matrix(1,0,0,1,58.8,58)">
                                <text x="0px" y="0px" style="font-family:'Arial-BoldMT', 'Arial', sans-serif;font-weight:700;font-size:20px;fill:rgb(44,44,44);">Interface</text>
                            </g>
                        </g>
                    </g>
                </g>
            </g>
            <g id="g-root-tx__qq9u9z1nplt6o-fill">
            </g>
            <g id="g-root-tx__8x5pxj1nft81t-fill">
            </g>
            <g id="g-root-tx_seamless_1qapaiv1npompu-fill" transform="matrix(1,0,0,1,350,278)">
                <g id="tx_seamless_1qapaiv1npompu-fill">
                    <g>
                        <g>
                            <g transform="matrix(1,0,0,1,12,34)">
                                <text x="0px" y="0px" style="font-family:'Arial-BoldMT', 'Arial', sans-serif;font-weight:700;font-size:20px;fill:rgb(44,44,44);">Seamless</text>
                            </g>
                            <g transform="matrix(1,0,0,1,12,58)">
                                <text x="0px" y="0px" style="font-family:'Arial-BoldMT', 'Arial', sans-serif;font-weight:700;font-size:20px;fill:rgb(44,44,44);">Integration</text>
                            </g>
                        </g>
                    </g>
                </g>
            </g>
            <g id="g-root-tx__dccqyv1nfw170-fill">
            </g>
            <g id="g-root-tx__18lx6dj1npok5n-fill">
            </g>
            <g id="g-root-tx_crossdev_7rgjr1nfxekm-fill" transform="matrix(1,0,0,1,68,398)">
                <g id="tx_crossdev_7rgjr1nfxekm-fill">
                    <g>
                        <g>
                            <g transform="matrix(1,0,0,1,19.88,34)">
                                <text x="0px" y="0px" style="font-family:'Arial-BoldMT', 'Arial', sans-serif;font-weight:700;font-size:20px;fill:rgb(44,44,44);">Cross-Device</text>
                            </g>
                            <g transform="matrix(1,0,0,1,68.12,58)">
                                <text x="0px" y="0px" style="font-family:'Arial-BoldMT', 'Arial', sans-serif;font-weight:700;font-size:20px;fill:rgb(44,44,44);">Support</text>
                            </g>
                        </g>
                    </g>
                </g>
            </g>
            <g id="g-root-tx_multipar_i0wwav1nfrtog-fill" transform="matrix(1,0,0,1,104,182)">
                <g id="tx_multipar_i0wwav1nfrtog-fill">
                    <g>
                        <g>
                            <g transform="matrix(1,0,0,1,13.9,34)">
                                <text x="0px" y="0px" style="font-family:'Arial-BoldMT', 'Arial', sans-serif;font-weight:700;font-size:20px;fill:rgb(44,44,44);">Multi-Party</text>
                            </g>
                            <g transform="matrix(1,0,0,1,44.12,58)">
                                <text x="0px" y="0px" style="font-family:'Arial-BoldMT', 'Arial', sans-serif;font-weight:700;font-size:20px;fill:rgb(44,44,44);">Support</text>
                            </g>
                        </g>
                    </g>
                </g>
            </g>
            <g id="g-root-tx_realtime_1uu9n5z1npkf0v-fill" transform="matrix(1,0,0,1,344,146)">
                <g id="tx_realtime_1uu9n5z1npkf0v-fill">
                    <g>
                        <g>
                            <g transform="matrix(1,0,0,1,12,34)">
                                <text x="0px" y="0px" style="font-family:'Arial-BoldMT', 'Arial', sans-serif;font-weight:700;font-size:20px;fill:rgb(44,44,44);">Real-T<tspan x="60.762px 66.318px " y="0px 0px ">im</tspan>e T<tspan x="111.514px 122.637px " y="0px 0px ">ex</tspan>t</text>
                            </g>
                            <g transform="matrix(1,0,0,1,12,58)">
                                <text x="0px" y="0px" style="font-family:'Arial-BoldMT', 'Arial', sans-serif;font-weight:700;font-size:20px;fill:rgb(44,44,44);">and Media</text>
                            </g>
                            <g transform="matrix(1,0,0,1,12,82)">
                                <text x="0px" y="0px" style="font-family:'Arial-BoldMT', 'Arial', sans-serif;font-weight:700;font-size:20px;fill:rgb(44,44,44);">Sharing</text>
                            </g>
                        </g>
                    </g>
                </g>
            </g>
            <g id="g-root-tx_endtoend_1qdtnyf1nprdvx-fill" transform="matrix(1,0,0,1,356,386)">
                <g id="tx_endtoend_1qdtnyf1nprdvx-fill">
                    <g>
                        <g>
                            <g transform="matrix(1,0,0,1,12,34)">
                                <text x="0px" y="0px" style="font-family:'Arial-BoldMT', 'Arial', sans-serif;font-weight:700;font-size:20px;fill:rgb(44,44,44);">End-to-End</text>
                            </g>
                            <g transform="matrix(1,0,0,1,12,58)">
                                <text x="0px" y="0px" style="font-family:'Arial-BoldMT', 'Arial', sans-serif;font-weight:700;font-size:20px;fill:rgb(44,44,44);">Encryption</text>
                            </g>
                        </g>
                    </g>
                </g>
            </g>
            <g id="g-root-tx__mfhg931nfxgr3-fill">
            </g>
            <g id="g-root-tx__1uuw4931nprf9q-fill">
            </g>
            <g id="g-root-tx__1430m871nfqdqm-fill">
            </g>
            <g id="g-root-tx_highqual_1hbz8931ng1on5-fill" transform="matrix(1,0,0,1,62,506)">
                <g id="tx_highqual_1hbz8931ng1on5-fill">
                    <g>
                        <g>
                            <g transform="matrix(1,0,0,1,26.95,34)">
                                <text x="0px" y="0px" style="font-family:'Arial-BoldMT', 'Arial', sans-serif;font-weight:700;font-size:20px;fill:rgb(44,44,44);">High-Quality</text>
                            </g>
                            <g transform="matrix(1,0,0,1,12.82,58)">
                                <text x="0px" y="0px" style="font-family:'Arial-BoldMT', 'Arial', sans-serif;font-weight:700;font-size:20px;fill:rgb(44,44,44);">Audio &amp; V<tspan x="95.186px 100.742px " y="0px 0px ">id</tspan>eo</text>
                            </g>
                        </g>
                    </g>
                </g>
            </g>
            <g id="g-root-tx__zish3b1npj0g5-fill">
            </g>
            <g transform="matrix(1,0,0,1,98.23,131.2)">
                <g id="g-root-tx_globalre_huo5fr1nfqepx-fill">
                    <g id="tx_globalre_huo5fr1nfqepx-fill">
                        <g>
                            <g>
                                <text x="0px" y="0px" style="font-family:'Arial-BoldMT', 'Arial', sans-serif;font-weight:700;font-size:20px;fill:rgb(44,44,44);">Global Reach</text>
                            </g>
                        </g>
                    </g>
                </g>
            </g>
            <g id="g-root-tx_browserb_dik6fb1npu8so-fill" transform="matrix(1,0,0,1,362,494)">
                <g id="tx_browserb_dik6fb1npu8so-fill">
                    <g>
                        <g>
                            <g transform="matrix(1,0,0,1,12,34)">
                                <text x="0px" y="0px" style="font-family:'Arial-BoldMT', 'Arial', sans-serif;font-weight:700;font-size:20px;fill:rgb(44,44,44);">Browser-Based</text>
                            </g>
                            <g transform="matrix(1,0,0,1,12,58)">
                                <text x="0px" y="0px" style="font-family:'Arial-BoldMT', 'Arial', sans-serif;font-weight:700;font-size:20px;fill:rgb(44,44,44);">Communication</text>
                            </g>
                        </g>
                    </g>
                </g>
            </g>
            <g id="g-root-tx__deunbb1ng1n2a-fill">
            </g>
            <g transform="matrix(1,0,0,1,350,96)">
                <g id="g-root-tx_247suppo_qun5vr1nphj44-fill">
                    <g id="tx_247suppo_qun5vr1nphj44-fill">
                        <g>
                            <g>
                                <text x="0px" y="0px" style="font-family:'Arial-BoldMT', 'Arial', sans-serif;font-weight:700;font-size:20px;fill:rgb(44,44,44);">24/7 Support</text>
                            </g>
                        </g>
                    </g>
                </g>
            </g>
            <g id="g-root-tx__i093t31npu70p-fill">
            </g>
            <g id="g-root-cp_9_text-9_8xs70n1nfoz5t-stroke" transform="matrix(1,0,0,1,50,86)">
                <g id="cp_9_text-9_8xs70n1nfoz5t-stroke">
                    <g>
                        <path d="M10,94L10,10L238,10L238,94" style="fill:none;stroke:rgb(44,44,44);stroke-width:2px;"/>
                    </g>
                </g>
            </g>
            <g id="g-root-cp_9_stick-9_v5i6pz1nfp1cb-stroke" transform="matrix(1,0,0,1,272,170)">
                <g id="cp_9_stick-9_v5i6pz1nfp1cb-stroke">
                    <g>
                        <path d="M15.997,478L15.997,10" style="fill:none;stroke:rgb(44,44,44);stroke-width:2px;"/>
                    </g>
                </g>
            </g>
            <g id="g-root-cp_7_text-7_4j7n2f1nfp1cd-stroke" transform="matrix(1,0,0,1,44,170)">
                <g id="cp_7_text-7_4j7n2f1nfp1cd-stroke">
                    <g>
                        <path d="M10,118L10,10L238,10L238,118" style="fill:none;stroke:rgb(44,44,44);stroke-width:2px;"/>
                    </g>
                </g>
            </g>
            <g id="g-root-cp_7_stick-7_1lto5mv1nfp0cn-stroke" transform="matrix(1,0,0,1,266,278)">
                <g id="cp_7_stick-7_1lto5mv1nfp0cn-stroke">
                    <g>
                        <path d="M15.997,370L15.997,10" style="fill:none;stroke:rgb(44,44,44);stroke-width:2px;"/>
                    </g>
                </g>
            </g>
            <g id="g-root-cp_5_text-5_1430m871nfozk1-stroke" transform="matrix(1,0,0,1,38,278)">
                <g id="cp_5_text-5_1430m871nfozk1-stroke">
                    <g>
                        <path d="M10,118L10,10L238,10L238,118" style="fill:none;stroke:rgb(44,44,44);stroke-width:2px;"/>
                    </g>
                </g>
            </g>
            <g id="g-root-cp_5_stick-5_dgq2kn1nfozk3-stroke" transform="matrix(1,0,0,1,260,386)">
                <g id="cp_5_stick-5_dgq2kn1nfozk3-stroke">
                    <g>
                        <path d="M15.997,262L15.997,10" style="fill:none;stroke:rgb(44,44,44);stroke-width:2px;"/>
                    </g>
                </g>
            </g>
            <g id="g-root-cp_3_text-3_59k7b1nfp151-stroke" transform="matrix(1,0,0,1,32,386)">
                <g id="cp_3_text-3_59k7b1nfp151-stroke">
                    <g>
                        <path d="M10,118L10,10L238,10L238,118" style="fill:none;stroke:rgb(44,44,44);stroke-width:2px;"/>
                    </g>
                </g>
            </g>
            <g id="g-root-cp_3_stick-3_1czwknb1nfp05r-stroke" transform="matrix(1,0,0,1,254,494)">
                <g id="cp_3_stick-3_1czwknb1nfp05r-stroke">
                    <g>
                        <path d="M15.997,154L15.997,10" style="fill:none;stroke:rgb(44,44,44);stroke-width:2px;"/>
                    </g>
                </g>
            </g>
            <g id="g-root-cp_1_text-1_v9918n1nfozd5-stroke" transform="matrix(1,0,0,1,26,494)">
                <g id="cp_1_text-1_v9918n1nfozd5-stroke">
                    <g>
                        <path d="M238,118L238,10L10,10L10,118L232.5,118" style="fill:none;stroke:rgb(44,44,44);stroke-width:2px;"/>
                    </g>
                </g>
            </g>
            <g id="g-root-cp_1_stick-1_dilhtz1nfoykj-stroke" transform="matrix(1,0,0,1,247.997,578)">
                <g id="cp_1_stick-1_dilhtz1nfoykj-stroke">
                    <g>
                        <path d="M16,70L16,10M10,70L10,33" style="fill:none;stroke:rgb(44,44,44);stroke-width:2px;"/>
                    </g>
                </g>
            </g>
            <g id="g-root-cp_10_text-10_1qcm16v1nfp0r1-stroke" transform="matrix(1,0,0,1,278,50)">
                <g id="cp_10_text-10_1qcm16v1nfp0r1-stroke">
                    <g>
                        <path d="M238,94L238,10L10,10L10,94" style="fill:none;stroke:rgb(44,44,44);stroke-width:2px;"/>
                    </g>
                </g>
            </g>
            <g id="g-root-cp_10_stick-10_18lyhs71nfozyf-stroke" transform="matrix(1,0,0,1,278.003,134)">
                <g id="cp_10_stick-10_18lyhs71nfozyf-stroke">
                    <g>
                        <path d="M10.001,514L10.001,10" style="fill:none;stroke:rgb(44,44,44);stroke-width:2px;"/>
                    </g>
                </g>
            </g>
            <g id="g-root-cp_8_text-8_1464znr1nfp0qp-stroke" transform="matrix(1,0,0,1,284,134)">
                <g id="cp_8_text-8_1464znr1nfp0qp-stroke">
                    <g>
                        <path d="M238,142L238,10L10,10L10,142" style="fill:none;stroke:rgb(44,44,44);stroke-width:2px;"/>
                    </g>
                </g>
            </g>
            <g id="g-root-cp_8_stick-8_hzny4n1nfozyj-stroke" transform="matrix(1,0,0,1,284.003,266)">
                <g id="cp_8_stick-8_hzny4n1nfozyj-stroke">
                    <g>
                        <path d="M10.001,382L10.001,10" style="fill:none;stroke:rgb(44,44,44);stroke-width:2px;"/>
                    </g>
                </g>
            </g>
            <g id="g-root-cp_6_text-6_4o7frb1nfp1jh-stroke" transform="matrix(1,0,0,1,290,266)">
                <g id="cp_6_text-6_4o7frb1nfp1jh-stroke">
                    <g>
                        <path d="M238,118L238,10L10,10L10,118" style="fill:none;stroke:rgb(44,44,44);stroke-width:2px;"/>
                    </g>
                </g>
            </g>
            <g id="g-root-cp_6_stick-6_1lynybr1nfp0jr-stroke" transform="matrix(1,0,0,1,290.003,374)">
                <g id="cp_6_stick-6_1lynybr1nfp0jr-stroke">
                    <g>
                        <path d="M10.001,274L10.001,10" style="fill:none;stroke:rgb(44,44,44);stroke-width:2px;"/>
                    </g>
                </g>
            </g>
            <g id="g-root-cp_4_text-4_1480ex31nfozr5-stroke" transform="matrix(1,0,0,1,296,374)">
                <g id="cp_4_text-4_1480ex31nfozr5-stroke">
                    <g>
                        <path d="M238,118L238,10L10,10L10,118" style="fill:none;stroke:rgb(44,44,44);stroke-width:2px;"/>
                    </g>
                </g>
            </g>
            <g id="g-root-cp_4_stick-4_dbq9vr1nfqebn-stroke" transform="matrix(1,0,0,1,296.003,482)">
                <g id="cp_4_stick-4_dbq9vr1nfqebn-stroke">
                    <g>
                        <path d="M10.001,166L10.001,10" style="fill:none;stroke:rgb(44,44,44);stroke-width:2px;"/>
                    </g>
                </g>
            </g>
            <g id="g-root-cp_2_text-2_4g39mv1nfqf4d-stroke" transform="matrix(1,0,0,1,302,482)">
                <g id="cp_2_text-2_4g39mv1nfqf4d-stroke">
                    <g>
                        <path d="M10,118L10,10L238,10L238,118L15.5,118" style="fill:none;stroke:rgb(44,44,44);stroke-width:2px;"/>
                    </g>
                </g>
            </g>
            <g id="g-root-cp_2_stick-2_1cuwryf1nfqexb-stroke" transform="matrix(1,0,0,1,302.003,565)">
                <g id="cp_2_stick-2_1cuwryf1nfqexb-stroke">
                    <g>
                        <path d="M10.001,83L10.001,10M15.997,83L15.997,34" style="fill:none;stroke:rgb(44,44,44);stroke-width:2px;"/>
                    </g>
                </g>
            </g>
            <g id="g-root-cp_0_g-0_13zw8sn1nfqdc1-stroke" transform="matrix(1,0,0,1,248,638)">
                <g id="cp_0_g-0_13zw8sn1nfqdc1-stroke">
                    <g>
                        <path d="M30,58L40.001,82.001L50.001,58L30,58Z" style="fill:none;stroke:rgb(44,44,44);stroke-width:2px;"/>
                    </g>
                </g>
                <g id="cp_0_g-0_13zw8sn1nfqdc1-stroke1" serif:id="cp_0_g-0_13zw8sn1nfqdc1-stroke">
                    <g>
                        <path d="M70.001,10L10,10L30,57.999L50.001,57.999L70.001,10Z" style="fill:none;stroke:rgb(44,44,44);stroke-width:2px;"/>
                    </g>
                </g>
            </g>
            <g id="g-root-ic_hori_de86871nfw079-stroke" transform="matrix(1,0,0,1,218,290)">
                <g id="ic_hori_de86871nfw079-stroke">
                    <g>
                        <path d="M12.25,10.752L43.75,10.752C43.75,10.752 45.25,10.752 45.25,12.252L45.25,43.751C45.25,43.751 45.25,45.251 43.75,45.251L12.25,45.251C12.25,45.251 10.75,45.251 10.75,43.751L10.75,12.252C10.75,12.252 10.75,10.752 12.25,10.752M25,18.251C25,19.908 26.343,21.251 28,21.251C29.657,21.251 31,19.908 31,18.251C31,16.595 29.657,15.252 28,15.252C26.343,15.252 25,16.595 25,18.251M30.997,18.251L40.782,18.251M15.282,18.251L24.994,18.251M19,28.002C19,29.658 20.343,31.002 22,31.002C23.657,31.002 25,29.658 25,28.002C25,26.345 23.657,25.002 22,25.002C20.343,25.002 19,26.345 19,28.002M24.994,28.002L40.782,28.002M15.282,28.002L18.994,28.002M22,37.751C22,39.408 23.343,40.751 25,40.751C26.657,40.751 28,39.408 28,37.751C28,36.095 26.657,34.751 25,34.751C23.343,34.751 22,36.095 22,37.751M27.994,37.751L40.782,37.751M15.282,37.751L22,37.751" style="fill:none;stroke:rgb(44,44,44);stroke-width:2px;"/>
                    </g>
                </g>
            </g>
            <g id="g-root-ic_plan_zs5ldz1npojyk-stroke" transform="matrix(1,0,0,1,302,278)">
                <g id="ic_plan_zs5ldz1npojyk-stroke">
                    <g>
                        <path d="M19,25.75L16,25.75L16,11.5C16,11.086 16.336,10.75 16.75,10.75L31.75,10.75C32.164,10.75 32.5,11.086 32.5,11.5L32.5,25.75L24.25,25.75M28,25.75L28,30.25C30.485,30.25 32.5,32.265 32.5,34.75L32.5,35.5L28,35.5L28,44.5C28,44.914 27.664,45.25 27.25,45.25L11.5,45.25C11.086,45.25 10.75,44.914 10.75,44.5L10.75,26.5C10.75,26.086 11.086,25.75 11.5,25.75L16,25.75M28,38.5L44.5,38.5C44.914,38.5 45.25,38.164 45.25,37.75L45.25,28C42.351,28 40,25.649 40,22.75L44.5,22.75C44.914,22.75 45.25,22.414 45.25,22L45.25,17.5C45.25,17.086 44.914,16.75 44.5,16.75L32.5,16.75M10.75,36.25L18.25,36.25L18.25,45.25L11.5,45.25C11.086,45.25 10.75,44.914 10.75,44.5L10.75,36.25ZM10.75,39.25L18.25,39.25M10.75,42.25L18.25,42.25" style="fill:none;stroke:rgb(44,44,44);stroke-width:2px;"/>
                    </g>
                </g>
            </g>
            <g id="g-root-ic_even_hu1ocn1nft8ne-stroke" transform="matrix(1,0,0,1,224,182)">
                <g id="ic_even_hu1ocn1nft8ne-stroke">
                    <g>
                        <path d="M19.435,20.527C20.73,20.527 21.779,19.477 21.779,18.182C21.779,16.888 20.73,15.838 19.435,15.838C18.14,15.838 17.09,16.888 17.09,18.182C17.09,19.477 18.14,20.527 19.435,20.527ZM19.435,33.565C20.73,33.565 21.779,32.516 21.779,31.221C21.779,29.926 20.73,28.876 19.435,28.876C18.14,28.876 17.09,29.926 17.09,31.221C17.09,32.516 18.14,33.565 19.435,33.565ZM37.872,34.963C39.739,34.963 41.252,33.45 41.252,31.583C41.252,29.716 39.739,28.203 37.872,28.203C36.005,28.203 34.492,29.716 34.492,31.583C34.492,33.45 36.005,34.963 37.872,34.963ZM35.527,20.527C36.822,20.527 37.872,19.477 37.872,18.182C37.872,16.888 36.822,15.838 35.527,15.838C34.233,15.838 33.183,16.888 33.183,18.182C33.183,19.477 34.233,20.527 35.527,20.527ZM23.537,24.63C23.537,23.542 23.105,22.498 22.336,21.729C21.566,20.959 20.523,20.527 19.435,20.527C18.347,20.527 17.303,20.959 16.534,21.729C15.764,22.498 15.332,23.542 15.332,24.63M23.537,37.668C23.537,36.58 23.105,35.536 22.336,34.767C21.566,33.998 20.523,33.565 19.435,33.565C18.347,33.565 17.303,33.998 16.534,34.767C15.764,35.536 15.332,36.58 15.332,37.668M44.133,44.409C44.133,42.748 43.473,41.155 42.299,39.981C41.125,38.807 39.532,38.147 37.872,38.147C36.211,38.147 34.619,38.807 33.445,39.981C32.27,41.155 31.611,42.748 31.611,44.409M38.428,21.729C37.659,20.959 36.615,20.527 35.527,20.527C34.439,20.527 33.396,20.959 32.626,21.729C31.857,22.498 31.425,23.542 31.425,24.63M42.833,24.089L42.833,13.091C42.833,12.263 42.162,11.591 41.333,11.591L13.367,11.591C12.539,11.591 11.867,12.263 11.867,13.091L11.867,36.168C11.867,36.997 12.539,37.668 13.367,37.668L29.461,37.668M27.35,11.591L27.35,37.668M11.867,24.63L34.684,24.63" style="fill:none;stroke:rgb(44,44,44);stroke-width:2px;"/>
                    </g>
                </g>
            </g>
            <g id="g-root-ic_noti_1d0hqbr1nplr7l-stroke" transform="matrix(1,0,0,1,296,146)">
                <g id="ic_noti_1d0hqbr1nplr7l-stroke">
                    <g>
                        <path d="M31.857,17.714C31.857,21.265 34.735,24.143 38.286,24.143C41.836,24.143 44.714,21.265 44.714,17.714C44.714,14.164 41.836,11.286 38.286,11.286C34.735,11.286 31.857,14.164 31.857,17.714M44.714,30.571L44.714,39.571C44.714,40.992 43.563,42.143 42.143,42.143L21.571,42.143L11.286,44.714L13.857,37L13.857,13.857C13.857,12.437 15.008,11.286 16.429,11.286L24.143,11.286" style="fill:none;stroke:rgb(44,44,44);stroke-width:2px;"/>
                    </g>
                </g>
            </g>
            <g id="g-root-ic_desi_1d3nf5z1nfxfrc-stroke" transform="matrix(1,0,0,1,212,398)">
                <g id="ic_desi_1d3nf5z1nfxfrc-stroke">
                    <g>
                        <path d="M22.75,39.25L33.25,39.25M28,36.25L28,39.25M15.25,31.75L33.25,31.75M12.25,10.75L18.25,10.75C18.25,10.75 19.75,10.75 19.75,12.25L19.75,22.75C19.75,22.75 19.75,24.25 18.25,24.25L12.25,24.25C12.25,24.25 10.75,24.25 10.75,22.75L10.75,12.25C10.75,12.25 10.75,10.75 12.25,10.75M37.75,31.75L43.75,31.75C43.75,31.75 45.25,31.75 45.25,33.25L45.25,43.75C45.25,43.75 45.25,45.25 43.75,45.25L37.75,45.25C37.75,45.25 36.25,45.25 36.25,43.75L36.25,33.25C36.25,33.25 36.25,31.75 37.75,31.75M36.25,42.25L45.25,42.25M22.75,18.25L38.5,18.25C39.743,18.25 40.75,19.257 40.75,20.5L40.75,28.75M33.25,36.25L17.5,36.25C16.257,36.25 15.25,35.243 15.25,34L15.25,27.25" style="fill:none;stroke:rgb(44,44,44);stroke-width:2px;"/>
                    </g>
                </g>
            </g>
            <g id="g-root-ic_unlo_1umry4n1npssuf-stroke" transform="matrix(1,0,0,1,308,386)">
                <g id="ic_unlo_1umry4n1npssuf-stroke">
                    <g>
                        <path d="M25.966,34.273C25.104,33.004 23.376,32.674 22.107,33.536L12.339,40.173C11.104,41.048 10.796,42.75 11.647,44.002C12.497,45.254 14.193,45.595 15.461,44.77L25.23,38.134C26.499,37.271 26.829,35.543 25.966,34.273L25.966,34.273ZM25.966,34.273L30.622,31L30.622,28L35.122,28M35.113,25C35.32,24.999 35.489,25.166 35.489,25.373C35.49,25.581 35.323,25.749 35.116,25.75C34.909,25.751 34.74,25.584 34.74,25.377C34.739,25.277 34.778,25.181 34.848,25.11C34.918,25.04 35.013,25 35.113,25M35.115,25.75L35.122,29.5M25.372,27.294L25.372,22.75C25.372,21.922 26.044,21.25 26.872,21.25L43.38,21.265C44.208,21.265 44.88,21.937 44.88,22.765L44.866,34.72C44.87,35.548 44.202,36.223 43.374,36.228L31.373,36.228M28.389,21.25L28.372,17.53C28.355,13.802 31.364,10.767 35.092,10.75C38.82,10.733 41.855,13.742 41.872,17.47" style="fill:none;stroke:rgb(44,44,44);stroke-width:2px;"/>
                    </g>
                </g>
            </g>
            <g id="g-root-ic_netw_59k7b1nfqfbj-stroke" transform="matrix(1,0,0,1,230,98)">
                <g id="ic_netw_59k7b1nfqfbj-stroke">
                    <g>
                        <path d="M10.804,27.997C10.804,37.524 18.527,45.247 28.054,45.247C37.581,45.247 45.304,37.524 45.304,27.997C45.304,18.47 37.581,10.747 28.054,10.747C18.527,10.747 10.804,18.47 10.804,27.997L10.804,27.997ZM19.804,21.622C19.804,23.486 21.315,24.997 23.179,24.997C25.043,24.997 26.554,23.486 26.554,21.622C26.554,19.758 25.043,18.247 23.179,18.247C21.315,18.247 19.804,19.758 19.804,21.622L19.804,21.622ZM29.554,36.622C29.554,37.658 30.393,38.497 31.429,38.497C32.465,38.497 33.304,37.658 33.304,36.622C33.304,35.586 32.465,34.747 31.429,34.747C30.393,34.747 29.554,35.586 29.554,36.622L29.554,36.622ZM35.554,25.372C35.554,26.822 36.729,27.997 38.179,27.997C39.629,27.997 40.804,26.822 40.804,25.372C40.804,23.922 39.629,22.747 38.179,22.747C36.729,22.747 35.554,23.922 35.554,25.372ZM26.554,21.25C29.907,21.378 33.102,22.709 35.554,25M38.702,27.946L39.302,28.747C39.302,28.747 41.552,31.747 41.552,38.497M35.288,12.333L35.554,13C36.64,16.216 37.148,19.6 37.054,22.993M36.304,27.25C36.116,30.348 35,33.317 33.1,35.772M30.532,38.269L30.304,38.5C30.304,38.5 26.554,42.25 18.304,42.25M28.054,10.75C26.002,12.945 24.352,15.484 23.179,18.25M21.427,24.508L21.304,25C20.487,29.057 21.013,33.269 22.804,37C25.354,42.109 31.804,44.5 31.804,44.5L32.364,44.709M19.804,21.622C19.804,21.622 14.05,22.035 11.142,24.581M11.224,31.798L11.554,31.747C11.554,31.747 21.876,30.16 30.265,35.152" style="fill:none;stroke:rgb(44,44,44);stroke-width:2px;"/>
                    </g>
                </g>
            </g>
            <g id="g-root-ic_next_hvx3lz1ng1og3-stroke" transform="matrix(1,0,0,1,206,506)">
                <g id="ic_next_hvx3lz1ng1og3-stroke">
                    <g>
                        <path d="M31.75,33.25L31.75,40.774L36.25,37L31.75,33.25ZM27.25,37C27.25,41.556 30.944,45.25 35.5,45.25C40.056,45.25 43.75,41.556 43.75,37C43.75,32.444 40.056,28.75 35.5,28.75C30.944,28.75 27.25,32.444 27.25,37L27.25,37ZM26.5,30.25L12.25,30.25C11.422,30.25 10.75,29.578 10.75,28.75L10.75,12.25C10.75,11.422 11.422,10.75 12.25,10.75L31.75,10.75C32.578,10.75 33.25,11.422 33.25,12.25L33.25,24.943M45.25,26.323C45.25,26.843 44.98,27.325 44.538,27.598C44.096,27.871 43.544,27.896 43.079,27.664L37.079,24.664C36.571,24.41 36.25,23.891 36.25,23.323L36.25,17.677C36.25,17.109 36.571,16.59 37.079,16.336L43.079,13.336C43.544,13.104 44.096,13.129 44.538,13.402C44.98,13.675 45.25,14.157 45.25,14.677L45.25,26.323ZM39.25,33.25L39.25,40.774" style="fill:none;stroke:rgb(44,44,44);stroke-width:2px;"/>
                    </g>
                </g>
            </g>
            <g id="g-root-ic_chat_zish3b1npvle2-stroke" transform="matrix(1,0,0,1,314,494)">
                <g id="ic_chat_zish3b1npvle2-stroke">
                    <g>
                        <path d="M42.951,19.06L42.951,13.05C42.95,11.779 41.92,10.75 40.65,10.75L13.05,10.75C11.78,10.75 10.75,11.78 10.75,13.05L10.75,38.35C10.75,39.62 11.78,40.65 13.05,40.65L20.2,40.65M10.75,17.65L42.951,17.65M26.083,38.35L29.151,38.35L29.151,45.25L36.05,38.35L43.717,38.35C44.563,38.349 45.249,37.663 45.25,36.817L45.25,24.55C45.25,23.703 44.564,23.017 43.717,23.017L26.083,23.017C25.236,23.017 24.55,23.703 24.55,24.55L24.55,36.817C24.551,37.663 25.237,38.349 26.083,38.35ZM29.151,28.465L40.65,28.465M29.151,33.065L40.65,33.065M14.097,14.184C14.097,14.494 14.348,14.746 14.659,14.746C14.97,14.746 15.222,14.494 15.222,14.184C15.222,13.873 14.97,13.621 14.659,13.621C14.348,13.621 14.097,13.873 14.097,14.184M18.406,14.184C18.406,14.494 18.658,14.746 18.969,14.746C19.279,14.746 19.531,14.494 19.531,14.184C19.531,13.873 19.279,13.621 18.969,13.621C18.658,13.621 18.406,13.873 18.406,14.184M22.714,14.184C22.714,14.494 22.966,14.746 23.277,14.746C23.587,14.746 23.839,14.494 23.839,14.184C23.839,13.873 23.587,13.621 23.277,13.621C22.966,13.621 22.714,13.873 22.714,14.184" style="fill:none;stroke:rgb(44,44,44);stroke-width:2px;"/>
                    </g>
                </g>
            </g>
            <g id="g-root-ic_1_1lr4xvr1npizgu-stroke" transform="matrix(1,0,0,1,290,62)">
                <g id="ic_1_1lr4xvr1npizgu-stroke">
                    <g>
                        <path d="M27.25,19.746C27.25,24.716 31.279,28.745 36.25,28.745C41.221,28.745 45.25,24.716 45.25,19.746C45.25,14.775 41.221,10.746 36.25,10.746C31.279,10.746 27.25,14.775 27.25,19.746L27.25,19.746ZM39.25,19.746L36.25,19.746L36.25,15.246M26.299,44.974C22.699,41.364 23.976,38.55 25.93,36.597L27.192,35.335C28.447,34.079 30.484,34.079 31.74,35.335L37.2,40.795C37.644,41.24 37.837,41.879 37.712,42.496C37.587,43.113 37.162,43.627 36.578,43.864C29.588,46.721 21.566,45.106 16.227,39.766C10.887,34.426 9.272,26.404 12.129,19.414C12.366,18.831 12.879,18.405 13.496,18.281C14.114,18.156 14.752,18.348 15.198,18.793L20.661,24.25C21.916,25.506 21.916,27.542 20.661,28.798L19.399,30.06C17.449,32.009 14.632,33.291 11.022,29.691" style="fill:none;stroke:rgb(44,44,44);stroke-width:2px;"/>
                    </g>
                </g>
            </g>
        </g>
    </g>
</svg>
