<?xml version="1.0" encoding="UTF-8" standalone="no"?>
<!DOCTYPE svg PUBLIC "-//W3C//DTD SVG 1.1//EN" "http://www.w3.org/Graphics/SVG/1.1/DTD/svg11.dtd">
<svg width="100%" height="100%" viewBox="0 0 588 586" version="1.1" xmlns="http://www.w3.org/2000/svg" xmlns:xlink="http://www.w3.org/1999/xlink" xml:space="preserve" xmlns:serif="http://www.serif.com/" style="fill-rule:evenodd;clip-rule:evenodd;stroke-linecap:round;stroke-linejoin:round;">
    <g id="items" transform="matrix(1.07304,0,0,1.07304,-21.475,-41.7898)">
        <g id="blend">
            <g id="g-root-sy_-1_cu_v7zgzb1npg4xz-fill" transform="matrix(1,0,0,1,14,62)">
                <g id="sy_-1_cu_v7zgzb1npg4xz-fill">
                    <g>
                        <path d="M10,490L10,418L82.5,418L82.5,490L10,490ZM34,394L10,418L82.5,418L106,394L34,394ZM34,394L34,322L106,322L106,394L34,394ZM58,298L34,322L106,322L130,298L58,298ZM58,298L58,226L130,226L130,298L58,298ZM82,202L58,226L130,226L154,202L82,202ZM82,202L82,130L154,130L154,202L82,202ZM106,106L82,130L154,130L178,106L106,106ZM106,106L106,34L178,34L178,106L106,106ZM130,10L106,34L178,34L202,10L130,10Z" style="fill:url(#_Linear1);"/>
                    </g>
                </g>
            </g>
            <g id="g-root-sy_-1_cu_1_1d0ifnb1npg4qw-fill" transform="matrix(1,0,0,1,362,62)">
                <g id="sy_-1_cu_1_1d0ifnb1npg4qw-fill">
                    <g>
                        <path d="M202,490L202,418L130.5,418L130.5,490L202,490ZM202,418L178,394L106,394L130.5,418L202,418ZM178,322L178,394L106,394L106,322L178,322ZM178,322L154,298L82,298L106,322L178,322ZM154,226L154,298L82,298L82,226L154,226ZM154,226L130,202L58,202L82,226L154,226ZM130,130L130,202L58,202L58,130L130,130ZM130,130L106,106L34,106L58,130L130,130ZM106,34L106,106L34,106L34,34L106,34ZM106,34L82,10L10,10L34,34L106,34Z" style="fill:url(#_Linear2);"/>
                    </g>
                </g>
            </g>
            <g id="g-root-sy_1_cu_me7vzr1npg4qx-fill" transform="matrix(1,0,0,1,86.4998,446)">
                <g id="sy_1_cu_me7vzr1npg4qx-fill">
                    <g>
                        <path d="M10,106L10,34L406,34L406,106L10,106ZM381.5,10L406,34L10,34L33.5,10L381.5,10Z" style="fill:url(#_Linear3);"/>
                    </g>
                </g>
            </g>
            <g id="g-root-sy_2_cu_1qd7w6v1npg5c2-fill" transform="matrix(1,0,0,1,110,350)">
                <g id="sy_2_cu_1qd7w6v1npg5c2-fill">
                    <g>
                        <path d="M10,106L10,34L358,34L358,106L10,106ZM334,10L358,34L10,34L34,10L334,10Z" style="fill:url(#_Linear4);"/>
                    </g>
                </g>
            </g>
            <g id="g-root-sy_3_cu_zqxcjb1npg5c3-fill" transform="matrix(1,0,0,1,134,254)">
                <g id="sy_3_cu_zqxcjb1npg5c3-fill">
                    <g>
                        <path d="M10,34L10,106L310,106L310,34L10,34ZM286,10L310,34L10,34L34,10L286,10Z" style="fill:url(#_Linear5);"/>
                    </g>
                </g>
            </g>
            <g id="g-root-sy_4_cu_dkgb071npg4jw-fill" transform="matrix(1,0,0,1,158,158)">
                <g id="sy_4_cu_dkgb071npg4jw-fill">
                    <g>
                        <path d="M10,106L10,34L262,34L262,106L10,106ZM238,10L262,34L10,34L34,10L238,10Z" style="fill:url(#_Linear6);"/>
                    </g>
                </g>
            </g>
            <g id="g-root-sy_5_cu_1lync8n1npg7il-fill" transform="matrix(1,0,0,1,182,62)">
                <g id="sy_5_cu_1lync8n1npg7il-fill">
                    <g>
                        <path d="M10,106L10,34L214,34L214,106L10,106ZM190,10L214,34L10,34L34,10L190,10Z" style="fill:url(#_Linear7);"/>
                    </g>
                </g>
            </g>
            <g transform="matrix(1,0,0,1,217.57,144)">
                <g id="g-root-tx_securemo_14300531nphkp7-fill">
                    <g id="tx_securemo_14300531nphkp7-fill">
                        <g>
                            <g>
                                <text x="0px" y="0px" style="font-family:'ArialMT', 'Arial', sans-serif;font-size:20px;fill:rgb(244,244,244);">Secure &amp; Monitor</text>
                            </g>
                        </g>
                    </g>
                </g>
            </g>
            <g transform="matrix(1,0,0,1,238.47,240)">
                <g id="g-root-tx_sharemed_8zn06v1nphjbe-fill">
                    <g id="tx_sharemed_8zn06v1nphjbe-fill">
                        <g>
                            <g>
                                <text x="0px" y="0px" style="font-family:'ArialMT', 'Arial', sans-serif;font-size:20px;fill:rgb(244,244,244);">Share Media</text>
                            </g>
                        </g>
                    </g>
                </g>
            </g>
            <g transform="matrix(1,0,0,1,239.14,336)">
                <g id="g-root-tx_initiate_1cwrl4n1nphkw9-fill">
                    <g id="tx_initiate_1cwrl4n1nphkw9-fill">
                        <g>
                            <g>
                                <text x="0px" y="0px" style="font-family:'ArialMT', 'Arial', sans-serif;font-size:20px;fill:rgb(244,244,244);">Initiate Calls</text>
                            </g>
                        </g>
                    </g>
                </g>
            </g>
            <g transform="matrix(1,0,0,1,228.96,432)">
                <g id="g-root-tx_connectu_qof4c71nphlvk-fill">
                    <g id="tx_connectu_qof4c71nphlvk-fill">
                        <g>
                            <g>
                                <text x="0px" y="0px" style="font-family:'ArialMT', 'Arial', sans-serif;font-size:20px;fill:rgb(244,244,244);">Connect Users</text>
                            </g>
                        </g>
                    </g>
                </g>
            </g>
            <g transform="matrix(1,0,0,1,236.94,528)">
                <g id="g-root-tx_setupcli_1lqj6471nphl3b-fill">
                    <g id="tx_setupcli_1lqj6471nphl3b-fill">
                        <g>
                            <g>
                                <text x="0px" y="0px" style="font-family:'ArialMT', 'Arial', sans-serif;font-size:20px;fill:rgb(244,244,244);">Set Up Client</text>
                            </g>
                        </g>
                    </g>
                </g>
            </g>
            <g id="g-root-sy_-1_cu_v7zgzb1npg4xz-stroke" transform="matrix(1,0,0,1,14,62)">
                <g id="sy_-1_cu_v7zgzb1npg4xz-stroke">
                    <g>
                        <path d="M10,490L10,418L82.5,418L82.5,490L10,490ZM10,418L34,394L106,394L82.5,418L10,418ZM34,394L34,322L106,322L106,394L34,394ZM34,322L58,298L130,298L106,322L34,322ZM58,298L58,226L130,226L130,298L58,298ZM58,226L82,202L154,202L130,226L58,226ZM82,202L82,130L154,130L154,202L82,202ZM82,130L106,106L178,106L154,130L82,130ZM106,106L106,34L178,34L178,106L106,106ZM106,34L130,10L202,10L178,34L106,34Z" style="fill:none;stroke:rgb(244,244,244);stroke-width:2px;"/>
                    </g>
                </g>
            </g>
            <g id="g-root-sy_-1_cu_1_1d0ifnb1npg4qw-stroke" transform="matrix(1,0,0,1,362,62)">
                <g id="sy_-1_cu_1_1d0ifnb1npg4qw-stroke">
                    <g>
                        <path d="M202,418L202,490L130.5,490L130.5,418L202,418ZM202,418L178,394L106,394L130.5,418L202,418ZM178,322L178,394L106,394L106,322L178,322ZM178,322L154,298L82,298L106,322L178,322ZM154,226L154,298L82,298L82,226L154,226ZM154,226L130,202L58,202L82,226L154,226ZM130,130L130,202L58,202L58,130L130,130ZM130,130L106,106L34,106L58,130L130,130ZM106,106L106,34L34,34L34,106L106,106ZM106,34L82,10L10,10L34,34L106,34Z" style="fill:none;stroke:rgb(244,244,244);stroke-width:2px;"/>
                    </g>
                </g>
            </g>
            <g id="g-root-sy_1_cu_me7vzr1npg4qx-stroke" transform="matrix(1,0,0,1,86.4998,446)">
                <g id="sy_1_cu_me7vzr1npg4qx-stroke">
                    <g>
                        <path d="M10,34L10,106L406,106L406,34L10,34ZM406,34L381.5,10L33.5,10L10,34L406,34Z" style="fill:none;stroke:rgb(244,244,244);stroke-width:2px;"/>
                    </g>
                </g>
            </g>
            <g id="g-root-sy_2_cu_1qd7w6v1npg5c2-stroke" transform="matrix(1,0,0,1,110,350)">
                <g id="sy_2_cu_1qd7w6v1npg5c2-stroke">
                    <g>
                        <path d="M10,34L10,106L358,106L358,34L10,34ZM358,34L334,10L34,10L10,34L358,34Z" style="fill:none;stroke:rgb(244,244,244);stroke-width:2px;"/>
                    </g>
                </g>
            </g>
            <g id="g-root-sy_3_cu_zqxcjb1npg5c3-stroke" transform="matrix(1,0,0,1,134,254)">
                <g id="sy_3_cu_zqxcjb1npg5c3-stroke">
                    <g>
                        <path d="M10,106L10,34L310,34L310,106L10,106ZM310,34L286,10L34,10L10,34L310,34Z" style="fill:none;stroke:rgb(244,244,244);stroke-width:2px;"/>
                    </g>
                </g>
            </g>
            <g id="g-root-sy_4_cu_dkgb071npg4jw-stroke" transform="matrix(1,0,0,1,158,158)">
                <g id="sy_4_cu_dkgb071npg4jw-stroke">
                    <g>
                        <path d="M10,34L10,106L262,106L262,34L10,34ZM262,34L238,10L34,10L10,34L262,34Z" style="fill:none;stroke:rgb(244,244,244);stroke-width:2px;"/>
                    </g>
                </g>
            </g>
            <g id="g-root-sy_5_cu_1lync8n1npg7il-stroke" transform="matrix(1,0,0,1,182,62)">
                <g id="sy_5_cu_1lync8n1npg7il-stroke">
                    <g>
                        <path d="M10,34L10,106L214,106L214,34L10,34ZM214,34L190,10L34,10L10,34L214,34Z" style="fill:none;stroke:rgb(244,244,244);stroke-width:2px;"/>
                    </g>
                </g>
            </g>
            <g id="g-root-ic_48px_mfgu5z1npixot-stroke" transform="matrix(1,0,0,1,122,98)">
                <g id="ic_48px_mfgu5z1npixot-stroke">
                    <g>
                        <path d="M15.072,30.179C15.072,24.482 17.789,19.696 23.011,19.696C28.233,19.696 30.949,24.482 30.949,30.179L30.949,37.273C30.949,42.97 28.105,47.882 23.011,47.882C17.916,47.882 15.072,42.97 15.072,37.273L15.072,30.179ZM53.693,20.121L40.379,20.121L38.988,33.144C39.817,32.315 42.353,30.657 45.865,30.657C49.971,30.657 53.813,33.447 53.427,40.052C53.028,46.894 48.912,47.904 45.529,47.904C41.945,47.904 38.405,45.361 38.073,40.565" style="fill:none;stroke:rgb(244,244,244);stroke-width:2px;"/>
                    </g>
                </g>
            </g>
            <g id="g-root-ic_2_5vf7b1nphj4c-stroke" transform="matrix(1,0,0,1,398,98)">
                <g id="ic_2_5vf7b1nphj4c-stroke">
                    <g>
                        <path d="M14.74,29.6L30.78,29.6C30.78,29.6 33.78,29.6 33.78,32.6L33.78,44C33.78,44 33.78,47 30.78,47L14.74,47C14.74,47 11.74,47 11.74,44L11.74,32.6C11.74,32.6 11.74,29.6 14.74,29.6M14.64,29.648L14.64,26.12C14.64,21.635 18.275,18 22.76,18C27.245,18 30.88,21.635 30.88,26.12L30.88,29.648M19.28,38.3L21.6,40.62L26.24,35.98M44.26,18C44.26,21.314 46.946,24 50.26,24C53.574,24 56.26,21.314 56.26,18C56.26,14.686 53.574,12 50.26,12C46.946,12 44.26,14.686 44.26,18M44.26,50C44.26,53.314 46.946,56 50.26,56C53.574,56 56.26,53.314 56.26,50C56.26,46.686 53.574,44 50.26,44C46.946,44 44.26,46.686 44.26,50M44.26,21L37.26,25M44.26,48L38.26,45" style="fill:none;stroke:rgb(244,244,244);stroke-width:2px;"/>
                    </g>
                </g>
            </g>
            <g id="g-root-ic_48px_zit6ev1npombz-stroke" transform="matrix(1,0,0,1,98,194)">
                <g id="ic_48px_zit6ev1npombz-stroke">
                    <g>
                        <path d="M15.072,30.179C15.072,24.482 17.789,19.696 23.011,19.696C28.233,19.696 30.949,24.482 30.949,30.179L30.949,37.273C30.949,42.97 28.105,47.882 23.011,47.882C17.916,47.882 15.072,42.97 15.072,37.273L15.072,30.179ZM49.91,47.979L49.91,19.551L36.295,39.738L55.315,39.738" style="fill:none;stroke:rgb(244,244,244);stroke-width:2px;"/>
                    </g>
                </g>
            </g>
            <g id="g-root-ic_conv_1cz9hh31nplte4-stroke" transform="matrix(1,0,0,1,422,194)">
                <g id="ic_conv_1cz9hh31nplte4-stroke">
                    <g>
                        <path d="M27.101,33.092C27.874,33.092 28.498,32.468 28.498,31.695L28.498,16.211C28.498,15.839 28.349,15.475 28.079,15.214L25.284,12.531C25.023,12.271 24.669,12.131 24.306,12.131L13.747,12.131C12.974,12.131 12.35,12.755 12.35,13.528L12.35,31.695C12.35,32.468 12.974,33.092 13.747,33.092L27.101,33.092ZM54.253,55.869C55.026,55.869 55.65,55.245 55.65,54.472L55.65,38.989C55.65,38.616 55.501,38.253 55.231,37.992L52.436,35.309C52.176,35.048 51.821,34.908 51.458,34.908L40.899,34.908C40.126,34.908 39.502,35.532 39.502,36.306L39.502,54.472C39.502,55.245 40.126,55.869 40.899,55.869L54.253,55.869ZM46.162,23.541L50.804,28.183L55.445,23.541M21.736,44.459L17.095,39.817L12.453,44.459M39.502,12.131L42.803,12.131C47.221,12.131 50.803,15.713 50.803,20.131L50.803,28.183M28.396,55.869L25.096,55.869C20.677,55.869 17.096,52.287 17.096,47.869L17.096,39.817" style="fill:none;stroke:rgb(244,244,244);stroke-width:2px;"/>
                    </g>
                </g>
            </g>
            <g id="g-root-ic_48px_qvacaf1npreh9-stroke" transform="matrix(1,0,0,1,74,290)">
                <g id="ic_48px_qvacaf1npreh9-stroke">
                    <g>
                        <path d="M15.072,30.179C15.072,24.482 17.789,19.695 23.011,19.695C28.233,19.695 30.949,24.482 30.949,30.179L30.949,37.273C30.949,42.969 28.105,47.882 23.011,47.882C17.916,47.882 15.072,42.969 15.072,37.273L15.072,30.179ZM37.121,27.068C37.002,24.659 38.483,19.71 45.065,19.71C51.648,19.71 52.656,24.597 52.428,27.357C52.177,30.4 50.272,33.508 42.201,33.508C49.714,33.508 53.126,35.562 53.126,41.125C53.126,45.933 48.876,47.89 44.992,47.89C42.201,47.866 36.62,46.287 36.62,40.162" style="fill:none;stroke:rgb(244,244,244);stroke-width:2px;"/>
                    </g>
                </g>
            </g>
            <g id="g-root-ic_1_qqx0on1nppyiy-stroke" transform="matrix(1,0,0,1,446,290)">
                <g id="ic_1_qqx0on1nppyiy-stroke">
                    <g>
                        <path d="M36.972,30.994L56.972,10.994M49.976,30.992L36.976,30.992L36.976,17.992M31.704,56.632C26.904,51.82 28.606,48.068 31.212,45.462L32.894,43.78C34.569,42.106 37.283,42.106 38.958,43.78L46.236,51.06C46.83,51.653 47.088,52.505 46.922,53.328C46.755,54.151 46.188,54.836 45.41,55.152C36.09,58.961 25.394,56.808 18.274,49.688C11.154,42.568 9.001,31.872 12.81,22.552C13.126,21.774 13.811,21.207 14.634,21.04C15.457,20.874 16.309,21.132 16.902,21.726L24.186,29C25.86,30.675 25.86,33.389 24.186,35.064L22.504,36.746C19.904,39.346 16.146,41.054 11.334,36.254" style="fill:none;stroke:rgb(244,244,244);stroke-width:2px;"/>
                    </g>
                </g>
            </g>
            <g id="g-root-ic_48px_hvwhiv1npx0cg-stroke" transform="matrix(1,0,0,1,50,386)">
                <g id="ic_48px_hvwhiv1npx0cg-stroke">
                    <g>
                        <path d="M15.072,30.179C15.072,24.482 17.789,19.695 23.011,19.695C28.233,19.695 30.949,24.482 30.949,30.179L30.949,37.273C30.949,42.969 28.105,47.882 23.011,47.882C17.916,47.882 15.072,42.969 15.072,37.273L15.072,30.179ZM36.832,27.515C36.832,22.895 40.056,19.695 44.438,19.695C51.707,19.695 54.186,26.789 49.421,33.098L37.33,47.417L53.951,47.417" style="fill:none;stroke:rgb(244,244,244);stroke-width:2px;"/>
                    </g>
                </g>
            </g>
            <g id="g-root-ic_2_mah1h31npu6mg-stroke" transform="matrix(1,0,0,1,470,386)">
                <g id="ic_2_mah1h31npu6mg-stroke">
                    <g>
                        <path d="M44.686,22L22,22C19.791,22 18,23.791 18,26L18,42C18,44.209 19.791,46 22,46L44,46C46.209,46 48,44.209 48,42L48,25.434M29.5,30.5C29.5,32.433 31.067,34 33,34C34.933,34 36.5,32.433 36.5,30.5C36.5,28.567 34.933,27 33,27C31.067,27 29.5,28.567 29.5,30.5M40,41C39.184,37.8 36.302,35.561 33,35.561C29.698,35.561 26.816,37.8 26,41M41,51L13,51C11.895,51 11,50.105 11,49L11,33C11,31.895 11.895,31 13,31M22,57C23.474,55.366 24.199,53.191 24,51M32,57C30.526,55.366 29.801,53.191 30,51M19,57L35,57M56.966,11L50,16L42,16C39.222,16 36.692,19.556 34.914,22M46.288,20L41.8,25.6C41.247,26.094 41.013,26.853 41.192,27.573C41.37,28.292 41.932,28.854 42.651,29.032C43.371,29.211 44.13,28.977 44.624,28.424L50.752,23L52.334,23C54.134,23 57,20.414 57,20.414" style="fill:none;stroke:rgb(244,244,244);stroke-width:2px;"/>
                    </g>
                </g>
            </g>
            <g id="g-root-ic_desk_dkgb071npzuh3-stroke" transform="matrix(1,0,0,1,494,482)">
                <g id="ic_desk_dkgb071npzuh3-stroke">
                    <g>
                        <path d="M28.276,57C29.933,54.65 30.879,51.873 31,49M39.724,57C38.067,54.65 37.121,51.873 37,49M25,57.002L43,57.002M11,43.002L57,43.002M13,11.002L55,11.002C55,11.002 57,11.002 57,13.002L57,47.002C57,47.002 57,49.002 55,49.002L13,49.002C13,49.002 11,49.002 11,47.002L11,13.002C11,13.002 11,11.002 13,11.002M36.874,27C36.875,28.588 35.589,29.875 34.001,29.876C32.414,29.877 31.126,28.59 31.126,27.003C31.126,25.415 32.412,24.128 34,24.128C35.586,24.128 36.873,25.414 36.874,27ZM35.888,18.4L36.542,20.552C36.77,21.29 37.53,21.726 38.282,21.552L40.462,21.046C41.311,20.854 42.186,21.239 42.619,21.993C43.052,22.748 42.943,23.697 42.35,24.334L40.824,26C40.298,26.569 40.298,27.447 40.824,28.016L42.35,29.664C42.942,30.301 43.05,31.249 42.616,32.002C42.183,32.756 41.31,33.14 40.462,32.95L38.282,32.444C37.53,32.27 36.77,32.706 36.542,33.444L35.888,35.6C35.637,36.433 34.87,37.003 34,37.003C33.13,37.003 32.363,36.433 32.112,35.6L31.458,33.448C31.23,32.71 30.47,32.274 29.718,32.448L27.538,32.954C26.69,33.144 25.817,32.76 25.384,32.006C24.95,31.253 25.058,30.305 25.65,29.668L27.176,28.02C27.704,27.45 27.704,26.57 27.176,26L25.65,24.354C25.051,23.718 24.939,22.765 25.373,22.007C25.807,21.249 26.687,20.865 27.538,21.06L29.718,21.566C30.47,21.74 31.23,21.304 31.458,20.566L32.112,18.4C32.363,17.567 33.13,16.997 34,16.997C34.87,16.997 35.637,17.567 35.888,18.4Z" style="fill:none;stroke:rgb(244,244,244);stroke-width:2px;"/>
                    </g>
                </g>
            </g>
            <g id="g-root-ic_48px_1hapr5j1nplr7k-stroke" transform="matrix(1,0,0,1,26,482)">
                <g id="ic_48px_1hapr5j1nplr7k-stroke">
                    <g>
                        <path d="M37.842,23.377L46.297,20.184L46.297,47.951M15.072,30.179C15.072,24.482 17.789,19.695 23.011,19.695C28.233,19.695 30.949,24.482 30.949,30.179L30.949,37.273C30.949,42.969 28.105,47.882 23.011,47.882C17.916,47.882 15.072,42.969 15.072,37.273L15.072,30.179Z" style="fill:none;stroke:rgb(244,244,244);stroke-width:2px;"/>
                    </g>
                </g>
            </g>
        </g>
    </g>
    <defs>
        <linearGradient id="_Linear1" x1="0" y1="0" x2="1" y2="0" gradientUnits="userSpaceOnUse" gradientTransform="matrix(10,490,-490,10,0,0)"><stop offset="0" style="stop-color:rgb(149,149,149);stop-opacity:1"/><stop offset="1" style="stop-color:rgb(127,127,127);stop-opacity:1"/></linearGradient>
        <linearGradient id="_Linear2" x1="0" y1="0" x2="1" y2="0" gradientUnits="userSpaceOnUse" gradientTransform="matrix(10,490,-490,10,0,0)"><stop offset="0" style="stop-color:rgb(149,149,149);stop-opacity:1"/><stop offset="1" style="stop-color:rgb(127,127,127);stop-opacity:1"/></linearGradient>
        <linearGradient id="_Linear3" x1="0" y1="0" x2="1" y2="0" gradientUnits="userSpaceOnUse" gradientTransform="matrix(10,106,-106,10,-1.77636e-15,0)"><stop offset="0" style="stop-color:rgb(78,136,230);stop-opacity:1"/><stop offset="1" style="stop-color:rgb(79,126,202);stop-opacity:1"/></linearGradient>
        <linearGradient id="_Linear4" x1="0" y1="0" x2="1" y2="0" gradientUnits="userSpaceOnUse" gradientTransform="matrix(10,106,-106,10,0,0)"><stop offset="0" style="stop-color:rgb(59,196,130);stop-opacity:1"/><stop offset="1" style="stop-color:rgb(68,152,112);stop-opacity:1"/></linearGradient>
        <linearGradient id="_Linear5" x1="0" y1="0" x2="1" y2="0" gradientUnits="userSpaceOnUse" gradientTransform="matrix(10,106,-106,10,0,0)"><stop offset="0" style="stop-color:rgb(145,187,57);stop-opacity:1"/><stop offset="1" style="stop-color:rgb(125,152,68);stop-opacity:1"/></linearGradient>
        <linearGradient id="_Linear6" x1="0" y1="0" x2="1" y2="0" gradientUnits="userSpaceOnUse" gradientTransform="matrix(10,106,-106,10,0,0)"><stop offset="0" style="stop-color:rgb(221,201,22);stop-opacity:1"/><stop offset="1" style="stop-color:rgb(169,156,44);stop-opacity:1"/></linearGradient>
        <linearGradient id="_Linear7" x1="0" y1="0" x2="1" y2="0" gradientUnits="userSpaceOnUse" gradientTransform="matrix(10,106,-106,10,0,0)"><stop offset="0" style="stop-color:rgb(220,131,49);stop-opacity:1"/><stop offset="1" style="stop-color:rgb(176,114,57);stop-opacity:1"/></linearGradient>
    </defs>
</svg>
