<?xml version="1.0" encoding="UTF-8" standalone="no"?>
<!DOCTYPE svg PUBLIC "-//W3C//DTD SVG 1.1//EN" "http://www.w3.org/Graphics/SVG/1.1/DTD/svg11.dtd">
<svg width="100%" height="100%" viewBox="0 0 576 712" version="1.1" xmlns="http://www.w3.org/2000/svg" xmlns:xlink="http://www.w3.org/1999/xlink" xml:space="preserve" xmlns:serif="http://www.serif.com/" style="fill-rule:evenodd;clip-rule:evenodd;stroke-linecap:round;stroke-linejoin:round;">
    <g id="items" transform="matrix(1.10441,0,0,1.10441,-30.0705,-61.3029)">
        <g id="blend">
            <g id="g-root-cp_5_text-5_1463r5b1m1r091-fill" transform="matrix(1,0,0,1,50,110)">
                <g id="cp_5_text-5_1463r5b1m1r091-fill">
                    <g>
                        <rect x="10" y="10" width="228" height="144" style="fill:rgb(247,148,56);"/>
                    </g>
                </g>
            </g>
            <g id="g-root-cp_5_stick-5_4o678v1m1r11r-fill" transform="matrix(1,0,0,1,266,254)">
                <g id="cp_5_stick-5_4o678v1m1r11r-fill">
                    <g>
                        <rect x="10" y="10" width="12" height="324" style="fill:rgb(247,148,56);"/>
                    </g>
                </g>
            </g>
            <g id="g-root-cp_3_text-3_1utn8z31m1r2f5-fill" transform="matrix(1,0,0,1,38,254)">
                <g id="cp_3_text-3_1utn8z31m1r2f5-fill">
                    <g>
                        <rect x="10" y="10" width="228" height="144" style="fill:rgb(26,195,251);"/>
                    </g>
                </g>
            </g>
            <g id="g-root-cp_3_stick-3_1hit7ov1m1r0ub-fill" transform="matrix(1,0,0,1,254,398)">
                <g id="cp_3_stick-3_1hit7ov1m1r0ub-fill">
                    <g>
                        <rect x="10" y="10" width="12" height="180" style="fill:rgb(26,195,251);"/>
                    </g>
                </g>
            </g>
            <g id="g-root-cp_1_text-1_18n67fz1m1r1n1-fill" transform="matrix(1,0,0,1,26,398)">
                <g id="cp_1_text-1_18n67fz1m1r1n1-fill">
                    <g>
                        <rect x="10" y="10" width="228" height="144" style="fill:rgb(67,221,147);"/>
                    </g>
                </g>
            </g>
            <g id="g-root-cp_1_stick-1_dl25nz1m1r2fb-fill" transform="matrix(1,0,0,1,242,482)">
                <g id="cp_1_stick-1_dl25nz1m1r2fb-fill">
                    <g>
                        <rect x="10" y="10" width="12" height="96" style="fill:rgb(67,221,147);"/>
                    </g>
                </g>
            </g>
            <g id="g-root-cp_6_text-6_1ulj2un1m1sg01-fill" transform="matrix(1,0,0,1,278,98)">
                <g id="cp_6_text-6_1ulj2un1m1sg01-fill">
                    <g>
                        <rect x="10" y="10" width="228" height="156" style="fill:rgb(251,103,98);"/>
                    </g>
                </g>
            </g>
            <g id="g-root-cp_6_stick-6_1hap1kf1m1sef7-fill" transform="matrix(1,0,0,1,278,254)">
                <g id="cp_6_stick-6_1hap1kf1m1sef7-fill">
                    <g>
                        <rect x="10" y="10" width="12" height="324" style="fill:rgb(251,103,98);"/>
                    </g>
                </g>
            </g>
            <g id="g-root-cp_4_text-4_18f21bj1m1sf7x-fill" transform="matrix(1,0,0,1,290,254)">
                <g id="cp_4_text-4_18f21bj1m1sf7x-fill">
                    <g>
                        <rect x="10" y="10" width="228" height="144" style="fill:rgb(255,231,17);"/>
                    </g>
                </g>
            </g>
            <g id="g-root-cp_4_stick-4_qoehwv1m1sefb-fill" transform="matrix(1,0,0,1,290,398)">
                <g id="cp_4_stick-4_qoehwv1m1sefb-fill">
                    <g>
                        <rect x="10" y="10" width="12" height="180" style="fill:rgb(255,231,17);"/>
                    </g>
                </g>
            </g>
            <g id="g-root-cp_2_text-2_dcxzjj1m1sg09-fill" transform="matrix(1,0,0,1,302,398)">
                <g id="cp_2_text-2_dcxzjj1m1sg09-fill">
                    <g>
                        <rect x="10" y="10" width="228" height="132" style="fill:rgb(166,218,55);"/>
                    </g>
                </g>
            </g>
            <g id="g-root-cp_2_stick-2_23y9b1m1seff-fill" transform="matrix(1,0,0,1,302,482)">
                <g id="cp_2_stick-2_23y9b1m1seff-fill">
                    <g>
                        <rect x="10" y="10" width="12" height="96" style="fill:rgb(166,218,55);"/>
                    </g>
                </g>
            </g>
            <g id="g-root-cp_0_g-0_1hbxzqn1m1sglh-fill" transform="matrix(1,0,0,1,242,578)">
                <g id="cp_0_g-0_1hbxzqn1m1sglh-fill">
                    <g>
                        <path d="M33.994,61L46.01,86L58.005,61L33.994,61Z" style="fill:rgb(232,232,232);"/>
                    </g>
                </g>
                <g id="cp_0_g-0_1hbxzqn1m1sglh-fill1" serif:id="cp_0_g-0_1hbxzqn1m1sglh-fill">
                    <g>
                        <path d="M82,10L10,10L34,61L58.001,61L82,10Z" style="fill:rgb(232,232,232);"/>
                    </g>
                </g>
            </g>
            <g id="g-root-tx_securesi_1ltmx4f1m1setl-fill" transform="matrix(1,0,0,1,110,122)">
                <g id="tx_securesi_1ltmx4f1m1setl-fill">
                    <g>
                        <g>
                            <g transform="matrix(1,0,0,1,17.32,34)">
                                <text x="0px" y="0px" style="font-family:'Arial-BoldMT', 'Arial', sans-serif;font-weight:700;font-size:20px;fill:rgb(44,44,44);">Secure SIP</text>
                            </g>
                            <g transform="matrix(1,0,0,1,53.58,58)">
                                <text x="0px" y="0px" style="font-family:'Arial-BoldMT', 'Arial', sans-serif;font-weight:700;font-size:20px;fill:rgb(44,44,44);">T<tspan x="11.113px 18.896px " y="0px 0px ">ru</tspan>nks</text>
                            </g>
                        </g>
                    </g>
                </g>
            </g>
            <g id="g-root-tx_customca_9lnan1m1y1ae-fill" transform="matrix(1,0,0,1,350,266)">
                <g id="tx_customca_9lnan1m1y1ae-fill">
                    <g>
                        <g>
                            <g transform="matrix(1,0,0,1,12,34)">
                                <text x="0px" y="0px" style="font-family:'Arial-BoldMT', 'Arial', sans-serif;font-weight:700;font-size:20px;fill:rgb(44,44,44);">Custom Call</text>
                            </g>
                            <g transform="matrix(1,0,0,1,12,58)">
                                <text x="0px" y="0px" style="font-family:'Arial-BoldMT', 'Arial', sans-serif;font-weight:700;font-size:20px;fill:rgb(44,44,44);">Plans</text>
                            </g>
                        </g>
                    </g>
                </g>
            </g>
            <g id="g-root-tx_instantm_1qapdf31m1v7rg-fill" transform="matrix(1,0,0,1,50,326)">
                <g id="tx_instantm_1qapdf31m1v7rg-fill">
                    <g>
                        <g>
                            <g transform="matrix(1,0,0,1,12.9,31.2)">
                                <text x="0px" y="0px" style="font-family:'ArialMT', 'Arial', sans-serif;font-size:15px;fill:rgb(44,44,44);">Instant monitoring and</text>
                            </g>
                            <g transform="matrix(1,0,0,1,23.07,49.2)">
                                <text x="0px" y="0px" style="font-family:'ArialMT', 'Arial', sans-serif;font-size:15px;fill:rgb(44,44,44);">management of V<tspan x="117.576px 125.918px " y="0px 0px ">oI</tspan>P</text>
                            </g>
                            <g transform="matrix(1,0,0,1,89.05,67.2)">
                                <text x="0px" y="0px" style="font-family:'ArialMT', 'Arial', sans-serif;font-size:15px;fill:rgb(44,44,44);">operations.</text>
                            </g>
                        </g>
                    </g>
                </g>
            </g>
            <g id="g-root-tx_tailored_v2z1v31m1zh8n-fill" transform="matrix(1,0,0,1,350,326)">
                <g id="tx_tailored_v2z1v31m1zh8n-fill">
                    <g>
                        <g>
                            <g transform="matrix(1,0,0,1,12,31.2)">
                                <text x="0px" y="0px" style="font-family:'ArialMT', 'Arial', sans-serif;font-size:15px;fill:rgb(44,44,44);">T<tspan x="7.5px 15.842px " y="0px 0px ">ai</tspan>lored call plans to</text>
                            </g>
                            <g transform="matrix(1,0,0,1,12,49.2)">
                                <g transform="matrix(15,0,0,15,72.5317,0)">
                                </g>
                                <g transform="matrix(15,0,0,15,76.6992,0)">
                                </g>
                                <text x="0px" y="0px" style="font-family:'ArialMT', 'Arial', sans-serif;font-size:15px;fill:rgb(44,44,44);">meet speciﬁc</text>
                            </g>
                            <g transform="matrix(1,0,0,1,12,67.2)">
                                <text x="0px" y="0px" style="font-family:'ArialMT', 'Arial', sans-serif;font-size:15px;fill:rgb(44,44,44);">business needs.</text>
                            </g>
                        </g>
                    </g>
                </g>
            </g>
            <g id="g-root-tx_realtime_qqwe9b1m1vabn-fill" transform="matrix(1,0,0,1,98,266)">
                <g id="tx_realtime_qqwe9b1m1vabn-fill">
                    <g>
                        <g>
                            <g transform="matrix(1,0,0,1,22.68,34)">
                                <text x="0px" y="0px" style="font-family:'Arial-BoldMT', 'Arial', sans-serif;font-weight:700;font-size:20px;fill:rgb(44,44,44);">Real-T<tspan x="60.762px 66.318px " y="0px 0px ">im</tspan>e</text>
                            </g>
                            <g transform="matrix(1,0,0,1,19.2,58)">
                                <text x="0px" y="0px" style="font-family:'Arial-BoldMT', 'Arial', sans-serif;font-weight:700;font-size:20px;fill:rgb(44,44,44);">Dashboard</text>
                            </g>
                        </g>
                    </g>
                </g>
            </g>
            <g id="g-root-tx_carrierg_1hgbbcf1m1wow6-fill" transform="matrix(1,0,0,1,62,410)">
                <g id="tx_carrierg_1hgbbcf1m1wow6-fill">
                    <g>
                        <g>
                            <g transform="matrix(1,0,0,1,16.88,34)">
                                <text x="0px" y="0px" style="font-family:'Arial-BoldMT', 'Arial', sans-serif;font-weight:700;font-size:20px;fill:rgb(44,44,44);">Carrier-Grade</text>
                            </g>
                            <g transform="matrix(1,0,0,1,16.22,58)">
                                <text x="0px" y="0px" style="font-family:'Arial-BoldMT', 'Arial', sans-serif;font-weight:700;font-size:20px;fill:rgb(44,44,44);">Infrastructure</text>
                            </g>
                        </g>
                    </g>
                </g>
            </g>
            <g id="g-root-tx_roundthe_4loawf1m1y39f-fill" transform="matrix(1,0,0,1,338,170)">
                <g id="tx_roundthe_4loawf1m1y39f-fill">
                    <g>
                        <g>
                            <g transform="matrix(1,0,0,1,12,28.2)">
                                <text x="0px" y="0px" style="font-family:'ArialMT', 'Arial', sans-serif;font-size:15px;fill:rgb(44,44,44);">Round-the-clock</text>
                            </g>
                            <g transform="matrix(1,0,0,1,12,46.2)">
                                <text x="0px" y="0px" style="font-family:'ArialMT', 'Arial', sans-serif;font-size:15px;fill:rgb(44,44,44);">expert support for</text>
                            </g>
                            <g transform="matrix(1,0,0,1,12,64.2)">
                                <text x="0px" y="0px" style="font-family:'ArialMT', 'Arial', sans-serif;font-size:15px;fill:rgb(44,44,44);">uninterrupted V<tspan x="101.741px 110.083px " y="0px 0px ">oI</tspan>P</text>
                            </g>
                            <g transform="matrix(1,0,0,1,12,82.2)">
                                <text x="0px" y="0px" style="font-family:'ArialMT', 'Arial', sans-serif;font-size:15px;fill:rgb(44,44,44);">services.</text>
                            </g>
                        </g>
                    </g>
                </g>
            </g>
            <g transform="matrix(1,0,0,1,374,444)">
                <g id="g-root-tx_globalco_qn5jqn1m20ver-fill">
                    <g id="tx_globalco_qn5jqn1m20ver-fill">
                        <g>
                            <g>
                                <text x="0px" y="0px" style="font-family:'Arial-BoldMT', 'Arial', sans-serif;font-weight:700;font-size:20px;fill:rgb(44,44,44);">Global Coverage</text>
                            </g>
                        </g>
                    </g>
                </g>
            </g>
            <g id="g-root-tx_extensiv_18foien1m20v7o-fill" transform="matrix(1,0,0,1,362,446)">
                <g id="tx_extensiv_18foien1m20v7o-fill">
                    <g>
                        <g>
                            <g transform="matrix(1,0,0,1,12,28.2)">
                                <text x="0px" y="0px" style="font-family:'ArialMT', 'Arial', sans-serif;font-size:15px;fill:rgb(44,44,44);">Extensive global</text>
                            </g>
                            <g transform="matrix(1,0,0,1,12,46.2)">
                                <text x="0px" y="0px" style="font-family:'ArialMT', 'Arial', sans-serif;font-size:15px;fill:rgb(44,44,44);">network for</text>
                            </g>
                            <g transform="matrix(1,0,0,1,12,64.2)">
                                <text x="0px" y="0px" style="font-family:'ArialMT', 'Arial', sans-serif;font-size:15px;fill:rgb(44,44,44);">widespread V<tspan x="90.059px 98.401px " y="0px 0px ">oI</tspan>P</text>
                            </g>
                            <g transform="matrix(1,0,0,1,12,82.2)">
                                <text x="0px" y="0px" style="font-family:'ArialMT', 'Arial', sans-serif;font-size:15px;fill:rgb(44,44,44);">availability<tspan x="68.086px " y="0px ">.</tspan></text>
                            </g>
                        </g>
                    </g>
                </g>
            </g>
            <g id="g-root-tx_robustin_hz08j31m1wmj3-fill" transform="matrix(1,0,0,1,38,470)">
                <g id="tx_robustin_hz08j31m1wmj3-fill">
                    <g>
                        <g>
                            <g transform="matrix(1,0,0,1,23.13,31.2)">
                                <text x="0px" y="0px" style="font-family:'ArialMT', 'Arial', sans-serif;font-size:15px;fill:rgb(44,44,44);">Robust infrastructure</text>
                            </g>
                            <g transform="matrix(1,0,0,1,30.37,49.2)">
                                <text x="0px" y="0px" style="font-family:'ArialMT', 'Arial', sans-serif;font-size:15px;fill:rgb(44,44,44);">ensures high-quality</text>
                            </g>
                            <g transform="matrix(1,0,0,1,69.63,67.2)">
                                <text x="0px" y="0px" style="font-family:'ArialMT', 'Arial', sans-serif;font-size:15px;fill:rgb(44,44,44);">V<tspan x="9.177px 17.52px 21.687px 31.421px 35.588px " y="0px 0px 0px 0px 0px ">oIP s</tspan>ervices.</text>
                            </g>
                        </g>
                    </g>
                </g>
            </g>
            <g id="g-root-tx_securean_qrivcf1m1sflu-fill" transform="matrix(1,0,0,1,62,182)">
                <g id="tx_securean_qrivcf1m1sflu-fill">
                    <g>
                        <g>
                            <g transform="matrix(1,0,0,1,19.65,31.2)">
                                <text x="0px" y="0px" style="font-family:'ArialMT', 'Arial', sans-serif;font-size:15px;fill:rgb(44,44,44);">Secure and encrypted</text>
                            </g>
                            <g transform="matrix(1,0,0,1,40.77,49.2)">
                                <text x="0px" y="0px" style="font-family:'ArialMT', 'Arial', sans-serif;font-size:15px;fill:rgb(44,44,44);">SIP<tspan x="23.906px 28.074px " y="0px 0px "> t</tspan>runks for safe</text>
                            </g>
                            <g transform="matrix(1,0,0,1,55.75,67.2)">
                                <text x="0px" y="0px" style="font-family:'ArialMT', 'Arial', sans-serif;font-size:15px;fill:rgb(44,44,44);">communication.</text>
                            </g>
                        </g>
                    </g>
                </g>
            </g>
            <g id="g-root-tx_247exper_1cz8v1r1m1y0wa-fill" transform="matrix(1,0,0,1,338,110)">
                <g id="tx_247exper_1cz8v1r1m1y0wa-fill">
                    <g>
                        <g>
                            <g transform="matrix(1,0,0,1,12,34)">
                                <text x="0px" y="0px" style="font-family:'Arial-BoldMT', 'Arial', sans-serif;font-weight:700;font-size:20px;fill:rgb(44,44,44);">24/7 Expert</text>
                            </g>
                            <g transform="matrix(1,0,0,1,12,58)">
                                <text x="0px" y="0px" style="font-family:'Arial-BoldMT', 'Arial', sans-serif;font-weight:700;font-size:20px;fill:rgb(44,44,44);">Support</text>
                            </g>
                        </g>
                    </g>
                </g>
            </g>
            <g id="g-root-cp_5_text-5_1463r5b1m1r091-stroke" transform="matrix(1,0,0,1,50,110)">
                <g id="cp_5_text-5_1463r5b1m1r091-stroke">
                    <g>
                        <path d="M10,154L10,10L238,10L238,154" style="fill:none;stroke:rgb(44,44,44);stroke-width:2px;"/>
                    </g>
                </g>
            </g>
            <g id="g-root-cp_5_stick-5_4o678v1m1r11r-stroke" transform="matrix(1,0,0,1,266,254)">
                <g id="cp_5_stick-5_4o678v1m1r11r-stroke">
                    <g>
                        <path d="M21.996,334L21.996,10" style="fill:none;stroke:rgb(44,44,44);stroke-width:2px;"/>
                    </g>
                </g>
            </g>
            <g id="g-root-cp_3_text-3_1utn8z31m1r2f5-stroke" transform="matrix(1,0,0,1,38,254)">
                <g id="cp_3_text-3_1utn8z31m1r2f5-stroke">
                    <g>
                        <path d="M10,154L10,10L238,10L238,154" style="fill:none;stroke:rgb(44,44,44);stroke-width:2px;"/>
                    </g>
                </g>
            </g>
            <g id="g-root-cp_3_stick-3_1hit7ov1m1r0ub-stroke" transform="matrix(1,0,0,1,254,398)">
                <g id="cp_3_stick-3_1hit7ov1m1r0ub-stroke">
                    <g>
                        <path d="M21.996,190L21.996,10" style="fill:none;stroke:rgb(44,44,44);stroke-width:2px;"/>
                    </g>
                </g>
            </g>
            <g id="g-root-cp_1_text-1_18n67fz1m1r1n1-stroke" transform="matrix(1,0,0,1,26,398)">
                <g id="cp_1_text-1_18n67fz1m1r1n1-stroke">
                    <g>
                        <path d="M238,154L238,10L10,10L10,154L226,154" style="fill:none;stroke:rgb(44,44,44);stroke-width:2px;"/>
                    </g>
                </g>
            </g>
            <g id="g-root-cp_1_stick-1_dl25nz1m1r2fb-stroke" transform="matrix(1,0,0,1,242,482)">
                <g id="cp_1_stick-1_dl25nz1m1r2fb-stroke">
                    <g>
                        <path d="M21.996,106L21.996,10M10,106L10,70" style="fill:none;stroke:rgb(44,44,44);stroke-width:2px;"/>
                    </g>
                </g>
            </g>
            <g id="g-root-cp_6_text-6_1ulj2un1m1sg01-stroke" transform="matrix(1,0,0,1,278,98)">
                <g id="cp_6_text-6_1ulj2un1m1sg01-stroke">
                    <g>
                        <path d="M238,166L238,10L10,10L10,166" style="fill:none;stroke:rgb(44,44,44);stroke-width:2px;"/>
                    </g>
                </g>
            </g>
            <g id="g-root-cp_6_stick-6_1hap1kf1m1sef7-stroke" transform="matrix(1,0,0,1,278,254)">
                <g id="cp_6_stick-6_1hap1kf1m1sef7-stroke">
                    <g>
                        <path d="M10.004,334L10.004,10" style="fill:none;stroke:rgb(44,44,44);stroke-width:2px;"/>
                    </g>
                </g>
            </g>
            <g id="g-root-cp_4_text-4_18f21bj1m1sf7x-stroke" transform="matrix(1,0,0,1,290,254)">
                <g id="cp_4_text-4_18f21bj1m1sf7x-stroke">
                    <g>
                        <path d="M238,154L238,10L10,10L10,154" style="fill:none;stroke:rgb(44,44,44);stroke-width:2px;"/>
                    </g>
                </g>
            </g>
            <g id="g-root-cp_4_stick-4_qoehwv1m1sefb-stroke" transform="matrix(1,0,0,1,290,398)">
                <g id="cp_4_stick-4_qoehwv1m1sefb-stroke">
                    <g>
                        <path d="M10.004,190L10.004,10" style="fill:none;stroke:rgb(44,44,44);stroke-width:2px;"/>
                    </g>
                </g>
            </g>
            <g id="g-root-cp_2_text-2_dcxzjj1m1sg09-stroke" transform="matrix(1,0,0,1,302,398)">
                <g id="cp_2_text-2_dcxzjj1m1sg09-stroke">
                    <g>
                        <path d="M10,142L10,10L238,10L238,142L22,142" style="fill:none;stroke:rgb(44,44,44);stroke-width:2px;"/>
                    </g>
                </g>
            </g>
            <g id="g-root-cp_2_stick-2_23y9b1m1seff-stroke" transform="matrix(1,0,0,1,302,482)">
                <g id="cp_2_stick-2_23y9b1m1seff-stroke">
                    <g>
                        <path d="M10.004,106L10.004,10M22,106L22,58" style="fill:none;stroke:rgb(44,44,44);stroke-width:2px;"/>
                    </g>
                </g>
            </g>
            <g id="g-root-cp_0_g-0_1hbxzqn1m1sglh-stroke" transform="matrix(1,0,0,1,242,578)">
                <g id="cp_0_g-0_1hbxzqn1m1sglh-stroke">
                    <g>
                        <path d="M33.994,61L46.01,86L58.005,61L33.994,61Z" style="fill:none;stroke:rgb(44,44,44);stroke-width:2px;"/>
                    </g>
                </g>
                <g id="cp_0_g-0_1hbxzqn1m1sglh-stroke1" serif:id="cp_0_g-0_1hbxzqn1m1sglh-stroke">
                    <g>
                        <path d="M82,10L10,10L34,61L58.001,61L82,10Z" style="fill:none;stroke:rgb(44,44,44);stroke-width:2px;"/>
                    </g>
                </g>
            </g>
            <g id="g-root-ic_play_1qbyblb1m1v9xh-stroke" transform="matrix(1,0,0,1,218,266)">
                <g id="ic_play_1qbyblb1m1v9xh-stroke">
                    <g>
                        <path d="M12.25,10.75L43.75,10.75C43.75,10.75 45.25,10.75 45.25,12.25L45.25,43.75C45.25,43.75 45.25,45.25 43.75,45.25L12.25,45.25C12.25,45.25 10.75,45.25 10.75,43.75L10.75,12.25C10.75,12.25 10.75,10.75 12.25,10.75M14.5,26.506L17.5,22.006L21.25,30.25L27.25,15.25L32.5,28.756L37.75,21.25L41.5,25.756M14.5,40L41.5,40M36.25,37.75L36.25,42.25M10.75,34.75L44.5,34.75" style="fill:none;stroke:rgb(44,44,44);stroke-width:2px;"/>
                    </g>
                </g>
            </g>
            <g id="g-root-ic_1_18foien1m1zhts-stroke" transform="matrix(1,0,0,1,302,266)">
                <g id="ic_1_18foien1m1zhts-stroke">
                    <g>
                        <path d="M34.315,12.355L40.75,14.5L37,25L38.5,44.5C38.513,44.697 38.442,44.891 38.305,45.033C38.168,45.176 37.978,45.255 37.78,45.25L31.78,45.25C31.314,45.223 30.877,45.013 30.565,44.665L28,41.5L25.465,44.665C25.151,45.01 24.716,45.22 24.25,45.25L18.25,45.25C18.049,45.259 17.853,45.182 17.71,45.04C17.568,44.897 17.491,44.701 17.5,44.5L19,25L15.25,14.5L21.685,12.355M28,32.5L28,41.5M31,10.75C30.505,16.75 30.25,25 28,32.5C25.75,25 25.495,16.75 25,10.75M31,10.75C33.055,10.75 34.855,12.55 35.95,14.635C36.131,14.974 36.028,15.394 35.71,15.61L34,16.75L35.245,18.625C35.379,18.862 35.379,19.153 35.245,19.39C33.22,23.38 32.35,30.325 28,32.5C23.635,30.325 22.78,23.38 20.71,19.39C20.567,19.155 20.567,18.86 20.71,18.625L22,16.75L20.29,15.61C19.972,15.394 19.869,14.974 20.05,14.635C21.13,12.55 22.945,10.75 25,10.75L31,10.75ZM21.25,37.75L23.5,37.75M32.5,37.75L34.75,37.75M15.25,14.5C13.165,23.5 11.305,37.75 10.765,40.87C10.699,41.23 10.902,41.584 11.245,41.71L14.5,42.85C14.695,42.94 14.92,42.94 15.115,42.85C15.308,42.742 15.444,42.556 15.49,42.34L19,25M40.75,14.5C42.835,23.5 44.695,37.75 45.25,40.87C45.316,41.23 45.113,41.584 44.77,41.71L41.5,42.85C41.305,42.94 41.08,42.94 40.885,42.85C40.692,42.742 40.556,42.556 40.51,42.34L37,25" style="fill:none;stroke:rgb(44,44,44);stroke-width:2px;"/>
                    </g>
                </g>
            </g>
            <g id="g-root-ic_gate_18mjqcv1m1wop4-stroke" transform="matrix(1,0,0,1,206,410)">
                <g id="ic_gate_18mjqcv1m1wop4-stroke">
                    <g>
                        <path d="M45.25,45.082C41.5,45.864 39.16,42.114 39.16,42.114C37.981,43.987 35.942,45.145 33.728,45.198C31.531,45.092 29.516,43.947 28.3,42.114C27.122,43.987 25.083,45.145 22.87,45.198C20.674,45.092 18.661,43.947 17.448,42.113L17.448,42.114C17.448,42.114 14.448,45.926 10.765,45.144M45.25,39.082C41.5,39.864 39.16,36.114 39.16,36.114C37.981,37.987 35.942,39.145 33.728,39.198C31.531,39.092 29.516,37.947 28.3,36.114C27.122,37.987 25.083,39.145 22.87,39.198C20.674,39.092 18.661,37.947 17.448,36.113L17.448,36.114C17.448,36.114 14.448,39.926 10.765,39.144M19.75,10.75L19.75,38.308M36.25,10.75L36.25,38.652M10.75,28.75L45.25,28.75M27.25,28.75C19.75,25 19.75,13.75 19.75,13.75C19.75,13.75 19.75,25 12.25,28.75M43.75,28.75C36.25,25 36.25,13.75 36.25,13.75C36.25,13.75 36.25,25 28.75,28.75" style="fill:none;stroke:rgb(44,44,44);stroke-width:2px;"/>
                    </g>
                </g>
            </g>
            <g id="g-root-ic_shar_8xqyi71m20w0d-stroke" transform="matrix(1,0,0,1,314,410)">
                <g id="ic_shar_8xqyi71m20w0d-stroke">
                    <g>
                        <path d="M25.75,42.235C17.551,41.834 11.035,35.203 10.777,26.998C10.519,18.793 16.607,11.766 24.764,10.852C32.922,9.937 40.414,15.442 41.98,23.5M10.99,23.755L19.315,23.755C20.413,23.762 21.462,24.21 22.225,25L23.725,26.5C25.273,28.036 25.346,30.516 23.89,32.14L22,34.24C21.345,35.008 20.997,35.991 21.025,37L21.025,41.305M37.81,15.55L29.875,15.55C28.177,15.55 26.8,16.927 26.8,18.625C26.8,20.323 28.177,21.7 29.875,21.7L30.46,21.7C31.829,21.693 33.111,22.368 33.88,23.5L35.98,26.65M27.25,37.375C27.25,39.239 28.761,40.75 30.625,40.75C32.489,40.75 34,39.239 34,37.375C34,35.511 32.489,34 30.625,34C28.761,34 27.25,35.511 27.25,37.375M38.5,41.875C38.5,43.739 40.011,45.25 41.875,45.25C43.739,45.25 45.25,43.739 45.25,41.875C45.25,40.011 43.739,38.5 41.875,38.5C40.011,38.5 38.5,40.011 38.5,41.875M38.5,30.625C38.5,32.489 40.011,34 41.875,34C43.739,34 45.25,32.489 45.25,30.625C45.25,28.761 43.739,27.25 41.875,27.25C40.011,27.25 38.5,28.761 38.5,30.625M33.505,35.635L38.995,32.35M33.76,38.635L38.74,40.615" style="fill:none;stroke:rgb(44,44,44);stroke-width:2px;"/>
                    </g>
                </g>
            </g>
            <g id="g-root-ic_24_zpnrxr1m1y1hg-stroke" transform="matrix(1,0,0,1,290,110)">
                <g id="ic_24_zpnrxr1m1y1hg-stroke">
                    <g>
                        <path d="M10.75,45.25L10.75,31.75C10.75,30.922 11.422,30.25 12.25,30.25L43.75,30.25C44.578,30.25 45.25,30.922 45.25,31.75L45.25,45.25M18.25,37C18.25,35.757 19.257,34.75 20.5,34.75C21.743,34.75 22.75,35.757 22.75,37C22.736,37.736 22.471,38.445 22,39.01L18.25,43.75L22.75,43.75M29.5,40.75L25,40.75C25,39.25 25,34.75 29.5,34.75L29.5,43.75M34,34.75L34,43.75M34,38.5L37,38.5C37.828,38.5 38.5,39.172 38.5,40L38.5,43.75M37.75,30.25L37.75,26.5M34.75,22.75L40.75,22.75C40.75,22.75 41.5,22.75 41.5,23.5L41.5,25.75C41.5,25.75 41.5,26.5 40.75,26.5L34.75,26.5C34.75,26.5 34,26.5 34,25.75L34,23.5C34,23.5 34,22.75 34.75,22.75M15.25,15.25L15.25,16C15.25,18.071 16.929,19.75 19,19.75C21.071,19.75 22.75,18.071 22.75,16L22.75,15.25M22.75,15.25L15.25,15.25L15.25,12.025C15.246,11.708 15.445,11.424 15.745,11.32C17.848,10.555 20.152,10.555 22.255,11.32C22.555,11.424 22.754,11.708 22.75,12.025L22.75,15.25ZM13.195,27.25C13.885,24.609 16.271,22.767 19,22.767C21.729,22.767 24.115,24.609 24.805,27.25" style="fill:none;stroke:rgb(44,44,44);stroke-width:2px;"/>
                    </g>
                </g>
            </g>
            <g id="g-root-ic_safe_1qapdf31m1sg7f-stroke" transform="matrix(1,0,0,1,230,122)">
                <g id="ic_safe_1qapdf31m1sg7f-stroke">
                    <g>
                        <path d="M13.756,10.75L42.256,10.75C42.256,10.75 45.256,10.75 45.256,13.75L45.256,40.75C45.256,40.75 45.256,43.75 42.256,43.75L13.756,43.75C13.756,43.75 10.756,43.75 10.756,40.75L10.756,13.75C10.756,13.75 10.756,10.75 13.756,10.75M13.756,43.75L13.756,45.25M42.256,43.75L42.256,45.25M15.25,34.75L15.25,36.25C15.25,37.907 16.593,39.25 18.25,39.25L37.75,39.25C39.407,39.25 40.75,37.907 40.75,36.25L40.75,18.25C40.75,16.593 39.407,15.25 37.75,15.25L18.25,15.25C16.593,15.25 15.25,16.593 15.25,18.25L15.25,19.75M15.256,24.25L15.256,30.25M13.756,19.75L16.756,19.75L16.756,24.25L13.756,24.25L13.756,19.75ZM13.756,30.25L16.756,30.25L16.756,34.75L13.756,34.75L13.756,30.25ZM22.006,27.25C22.006,30.978 25.028,34 28.756,34C32.484,34 35.506,30.978 35.506,27.25C35.506,23.522 32.484,20.5 28.756,20.5C25.028,20.5 22.006,23.522 22.006,27.25M25.006,27.25C25.006,29.321 26.685,31 28.756,31C30.827,31 32.506,29.321 32.506,27.25C32.506,25.179 30.827,23.5 28.756,23.5C26.685,23.5 25.006,25.179 25.006,27.25M28.756,20.5L28.756,23.5M23.983,22.477L26.104,24.599M22.006,27.25L25.006,27.25M23.983,32.023L26.104,29.902M28.756,34L28.756,31M33.529,32.024L31.408,29.902M35.506,27.25L32.506,27.25M33.529,22.477L31.408,24.599" style="fill:none;stroke:rgb(44,44,44);stroke-width:2px;"/>
                    </g>
                </g>
            </g>
        </g>
    </g>
</svg>
