<?xml version="1.0" encoding="UTF-8" standalone="no"?>
<!DOCTYPE svg PUBLIC "-//W3C//DTD SVG 1.1//EN" "http://www.w3.org/Graphics/SVG/1.1/DTD/svg11.dtd">
<svg width="100%" height="100%" viewBox="0 0 576 784" version="1.1" xmlns="http://www.w3.org/2000/svg" xmlns:xlink="http://www.w3.org/1999/xlink" xml:space="preserve" xmlns:serif="http://www.serif.com/" style="fill-rule:evenodd;clip-rule:evenodd;stroke-linecap:round;stroke-linejoin:round;">
    <g id="items" transform="matrix(1.07969,0,0,1.07969,-22.9512,-53.6299)">
        <g id="blend">
            <g id="g-root-cp_5_text-5_91j1db1mlorux-fill" transform="matrix(1,0,0,1,50,98)">
                <g id="cp_5_text-5_91j1db1mlorux-fill">
                    <g>
                        <rect x="10" y="10" width="228" height="180" style="fill:rgb(203,104,249);"/>
                    </g>
                </g>
            </g>
            <g id="g-root-cp_5_stick-5_90ejz1mlottv-fill" transform="matrix(1,0,0,1,266,278)">
                <g id="cp_5_stick-5_90ejz1mlottv-fill">
                    <g>
                        <rect x="10" y="10" width="12" height="372" style="fill:rgb(203,104,249);"/>
                    </g>
                </g>
            </g>
            <g id="g-root-cp_3_text-3_4gpqjz1mlq6md-fill" transform="matrix(1,0,0,1,38,278)">
                <g id="cp_3_text-3_4gpqjz1mlq6md-fill">
                    <g>
                        <rect x="10" y="10" width="228" height="156" style="fill:rgb(251,103,98);"/>
                    </g>
                </g>
            </g>
            <g id="g-root-cp_3_stick-3_1unfqgf1mlq9dz-fill" transform="matrix(1,0,0,1,254,434)">
                <g id="cp_3_stick-3_1unfqgf1mlq9dz-fill">
                    <g>
                        <rect x="10" y="10" width="12" height="216" style="fill:rgb(251,103,98);"/>
                    </g>
                </g>
            </g>
            <g id="g-root-cp_1_text-1_8znm3z1mlq70h-fill" transform="matrix(1,0,0,1,26,434)">
                <g id="cp_1_text-1_8znm3z1mlq70h-fill">
                    <g>
                        <rect x="10" y="10" width="228" height="180" style="fill:rgb(255,231,17);"/>
                    </g>
                </g>
            </g>
            <g id="g-root-cp_1_stick-1_4l325r1mlq96z-fill" transform="matrix(1,0,0,1,242,518)">
                <g id="cp_1_stick-1_4l325r1mlq96z-fill">
                    <g>
                        <rect x="10" y="10" width="12" height="132" style="fill:rgb(255,231,17);"/>
                    </g>
                </g>
            </g>
            <g id="g-root-cp_6_text-6_4myhf31mlq879-fill" transform="matrix(1,0,0,1,278,146)">
                <g id="cp_6_text-6_4myhf31mlq879-fill">
                    <g>
                        <rect x="10" y="10" width="228" height="180" style="fill:rgb(135,105,253);"/>
                    </g>
                </g>
            </g>
            <g id="g-root-cp_6_stick-6_djufu71mlq8sv-fill" transform="matrix(1,0,0,1,278,326)">
                <g id="cp_6_stick-6_djufu71mlq8sv-fill">
                    <g>
                        <rect x="10" y="10" width="12" height="324" style="fill:rgb(135,105,253);"/>
                    </g>
                </g>
            </g>
            <g id="g-root-cp_4_text-4_1480er31mlq7t5-fill" transform="matrix(1,0,0,1,290,326)">
                <g id="cp_4_text-4_1480er31mlq7t5-fill">
                    <g>
                        <rect x="10" y="10" width="228" height="156" style="fill:rgb(243,102,187);"/>
                    </g>
                </g>
            </g>
            <g id="g-root-cp_4_stick-4_13zw8mn1mlrldv-fill" transform="matrix(1,0,0,1,290,482)">
                <g id="cp_4_stick-4_13zw8mn1mlrldv-fill">
                    <g>
                        <rect x="10" y="10" width="12" height="168" style="fill:rgb(243,102,187);"/>
                    </g>
                </g>
            </g>
            <g id="g-root-cp_2_text-2_1q7m8bz1mlrnkd-fill" transform="matrix(1,0,0,1,302,482)">
                <g id="cp_2_text-2_1q7m8bz1mlrnkd-fill">
                    <g>
                        <rect x="10" y="10" width="228" height="120" style="fill:rgb(247,148,56);"/>
                    </g>
                </g>
            </g>
            <g id="g-root-cp_2_stick-2_1upb5pr1mlrlsf-fill" transform="matrix(1,0,0,1,302,566)">
                <g id="cp_2_stick-2_1upb5pr1mlrlsf-fill">
                    <g>
                        <rect x="10" y="10" width="12" height="84" style="fill:rgb(247,148,56);"/>
                    </g>
                </g>
            </g>
            <g id="g-root-cp_0_g-0_4l325r1mlrncx-fill" transform="matrix(1,0,0,1,242,650)">
                <g id="cp_0_g-0_4l325r1mlrncx-fill">
                    <g>
                        <path d="M33.994,61L46.01,86L58.005,61L33.994,61Z" style="fill:rgb(232,232,232);"/>
                    </g>
                </g>
                <g id="cp_0_g-0_4l325r1mlrncx-fill1" serif:id="cp_0_g-0_4l325r1mlrncx-fill">
                    <g>
                        <path d="M82,10L10,10L34,61L58.001,61L82,10Z" style="fill:rgb(232,232,232);"/>
                    </g>
                </g>
            </g>
            <g id="g-root-tx_healthca_8x5prj1mlug3s-fill" transform="matrix(1,0,0,1,98,290)">
                <g id="tx_healthca_8x5prj1mlug3s-fill">
                    <g>
                        <g>
                            <g transform="matrix(1,0,0,1,18.07,34)">
                                <text x="0px" y="0px" style="font-family:'Arial-BoldMT', 'Arial', sans-serif;font-weight:700;font-size:20px;fill:rgb(44,44,44);">Healthcare</text>
                            </g>
                            <g transform="matrix(1,0,0,1,29.87,58)">
                                <text x="0px" y="0px" style="font-family:'Arial-BoldMT', 'Arial', sans-serif;font-weight:700;font-size:20px;fill:rgb(44,44,44);">Providers</text>
                            </g>
                        </g>
                    </g>
                </g>
            </g>
            <g id="g-root-tx_ecommerc_m8m84v1mlt151-fill" transform="matrix(1,0,0,1,74,110)">
                <g id="tx_ecommerc_m8m84v1mlt151-fill">
                    <g>
                        <g>
                            <g transform="matrix(1,0,0,1,16.6,34)">
                                <text x="0px" y="0px" style="font-family:'Arial-BoldMT', 'Arial', sans-serif;font-weight:700;font-size:20px;fill:rgb(44,44,44);">E-Commerce &amp;</text>
                            </g>
                            <g transform="matrix(1,0,0,1,64.23,58)">
                                <text x="0px" y="0px" style="font-family:'Arial-BoldMT', 'Arial', sans-serif;font-weight:700;font-size:20px;fill:rgb(44,44,44);">Customer</text>
                            </g>
                            <g transform="matrix(1,0,0,1,80.12,82)">
                                <text x="0px" y="0px" style="font-family:'Arial-BoldMT', 'Arial', sans-serif;font-weight:700;font-size:20px;fill:rgb(44,44,44);">Support</text>
                            </g>
                        </g>
                    </g>
                </g>
            </g>
            <g id="g-root-tx_enhancin_4mc0bz1mlx7ux-fill" transform="matrix(1,0,0,1,338,242)">
                <g id="tx_enhancin_4mc0bz1mlx7ux-fill">
                    <g>
                        <g>
                            <g transform="matrix(1,0,0,1,12,28.2)">
                                <g transform="matrix(15,0,0,15,75.0586,0)">
                                </g>
                                <g transform="matrix(15,0,0,15,79.2261,0)">
                                </g>
                                <text x="0px" y="0px" style="font-family:'ArialMT', 'Arial', sans-serif;font-size:15px;fill:rgb(44,44,44);">Enhancing ﬁnancial</text>
                            </g>
                            <g transform="matrix(1,0,0,1,12,46.2)">
                                <text x="0px" y="0px" style="font-family:'ArialMT', 'Arial', sans-serif;font-size:15px;fill:rgb(44,44,44);">and insurance</text>
                            </g>
                            <g transform="matrix(1,0,0,1,12,64.2)">
                                <text x="0px" y="0px" style="font-family:'ArialMT', 'Arial', sans-serif;font-size:15px;fill:rgb(44,44,44);">services with</text>
                            </g>
                            <g transform="matrix(1,0,0,1,12,82.2)">
                                <text x="0px" y="0px" style="font-family:'ArialMT', 'Arial', sans-serif;font-size:15px;fill:rgb(44,44,44);">technology<tspan x="71.44px " y="0px ">.</tspan></text>
                            </g>
                        </g>
                    </g>
                </g>
            </g>
            <g id="g-root-tx_streamli_1cw5pyn1mlugox-fill" transform="matrix(1,0,0,1,50,350)">
                <g id="tx_streamli_1cw5pyn1mlugox-fill">
                    <g>
                        <g>
                            <g transform="matrix(1,0,0,1,80.05,28.2)">
                                <text x="0px" y="0px" style="font-family:'ArialMT', 'Arial', sans-serif;font-size:15px;fill:rgb(44,44,44);">Streamlining</text>
                            </g>
                            <g transform="matrix(1,0,0,1,19.17,46.2)">
                                <text x="0px" y="0px" style="font-family:'ArialMT', 'Arial', sans-serif;font-size:15px;fill:rgb(44,44,44);">healthcare operations</text>
                            </g>
                            <g transform="matrix(1,0,0,1,67.7,64.2)">
                                <text x="0px" y="0px" style="font-family:'ArialMT', 'Arial', sans-serif;font-size:15px;fill:rgb(44,44,44);">with advanced</text>
                            </g>
                            <g transform="matrix(1,0,0,1,87.32,82.2)">
                                <text x="0px" y="0px" style="font-family:'ArialMT', 'Arial', sans-serif;font-size:15px;fill:rgb(44,44,44);">technology<tspan x="71.44px " y="0px ">.</tspan></text>
                            </g>
                        </g>
                    </g>
                </g>
            </g>
            <g id="g-root-tx_educatio_4n2y71mlyn0u-fill" transform="matrix(1,0,0,1,350,338)">
                <g id="tx_educatio_4n2y71mlyn0u-fill">
                    <g>
                        <g>
                            <g transform="matrix(1,0,0,1,12,34)">
                                <text x="0px" y="0px" style="font-family:'Arial-BoldMT', 'Arial', sans-serif;font-weight:700;font-size:20px;fill:rgb(44,44,44);">Educational</text>
                            </g>
                            <g transform="matrix(1,0,0,1,12,58)">
                                <text x="0px" y="0px" style="font-family:'Arial-BoldMT', 'Arial', sans-serif;font-weight:700;font-size:20px;fill:rgb(44,44,44);">Institutions</text>
                            </g>
                        </g>
                    </g>
                </g>
            </g>
            <g id="g-root-tx_supporti_18jgl9r1mlymtr-fill" transform="matrix(1,0,0,1,350,398)">
                <g id="tx_supporti_18jgl9r1mlymtr-fill">
                    <g>
                        <g>
                            <g transform="matrix(1,0,0,1,12,28.2)">
                                <text x="0px" y="0px" style="font-family:'ArialMT', 'Arial', sans-serif;font-size:15px;fill:rgb(44,44,44);">Supporting</text>
                            </g>
                            <g transform="matrix(1,0,0,1,12,46.2)">
                                <text x="0px" y="0px" style="font-family:'ArialMT', 'Arial', sans-serif;font-size:15px;fill:rgb(44,44,44);">educational</text>
                            </g>
                            <g transform="matrix(1,0,0,1,12,64.2)">
                                <text x="0px" y="0px" style="font-family:'ArialMT', 'Arial', sans-serif;font-size:15px;fill:rgb(44,44,44);">institutions with</text>
                            </g>
                            <g transform="matrix(1,0,0,1,12,82.2)">
                                <text x="0px" y="0px" style="font-family:'ArialMT', 'Arial', sans-serif;font-size:15px;fill:rgb(44,44,44);">innovative tools.</text>
                            </g>
                        </g>
                    </g>
                </g>
            </g>
            <g id="g-root-tx_optimizi_deun5b1mlt0xy-fill" transform="matrix(1,0,0,1,86,194)">
                <g id="tx_optimizi_deun5b1mlt0xy-fill">
                    <g>
                        <g>
                            <g transform="matrix(1,0,0,1,52.32,28.2)">
                                <text x="0px" y="0px" style="font-family:'ArialMT', 'Arial', sans-serif;font-size:15px;fill:rgb(44,44,44);">Optimizing e-</text>
                            </g>
                            <g transform="matrix(1,0,0,1,39.97,46.2)">
                                <text x="0px" y="0px" style="font-family:'ArialMT', 'Arial', sans-serif;font-size:15px;fill:rgb(44,44,44);">commerce and</text>
                            </g>
                            <g transform="matrix(1,0,0,1,21.17,64.2)">
                                <text x="0px" y="0px" style="font-family:'ArialMT', 'Arial', sans-serif;font-size:15px;fill:rgb(44,44,44);">customer support</text>
                            </g>
                            <g transform="matrix(1,0,0,1,80.67,82.2)">
                                <text x="0px" y="0px" style="font-family:'ArialMT', 'Arial', sans-serif;font-size:15px;fill:rgb(44,44,44);">services.</text>
                            </g>
                        </g>
                    </g>
                </g>
            </g>
            <g id="g-root-tx_telemark_1qcm10v1mlvsoy-fill" transform="matrix(1,0,0,1,50,446)">
                <g id="tx_telemark_1qcm10v1mlvsoy-fill">
                    <g>
                        <g>
                            <g transform="matrix(1,0,0,1,22.27,34)">
                                <text x="0px" y="0px" style="font-family:'Arial-BoldMT', 'Arial', sans-serif;font-weight:700;font-size:20px;fill:rgb(44,44,44);">T<tspan x="10.732px 21.855px " y="0px 0px ">el</tspan>emarketing</text>
                            </g>
                            <g transform="matrix(1,0,0,1,68.33,58)">
                                <text x="0px" y="0px" style="font-family:'Arial-BoldMT', 'Arial', sans-serif;font-weight:700;font-size:20px;fill:rgb(44,44,44);">Agencies</text>
                            </g>
                        </g>
                    </g>
                </g>
            </g>
            <g id="g-root-tx_financia_1hf3lin1mlx8n4-fill" transform="matrix(1,0,0,1,338,158)">
                <g id="tx_financia_1hf3lin1mlx8n4-fill">
                    <g>
                        <g>
                            <g transform="matrix(1,0,0,1,12,34)">
                                <text x="0px" y="0px" style="font-family:'Arial-BoldMT', 'Arial', sans-serif;font-weight:700;font-size:20px;fill:rgb(44,44,44);">Financial &amp;</text>
                            </g>
                            <g transform="matrix(1,0,0,1,12,58)">
                                <text x="0px" y="0px" style="font-family:'Arial-BoldMT', 'Arial', sans-serif;font-weight:700;font-size:20px;fill:rgb(44,44,44);">Insurance</text>
                            </g>
                            <g transform="matrix(1,0,0,1,12,82)">
                                <text x="0px" y="0px" style="font-family:'Arial-BoldMT', 'Arial', sans-serif;font-weight:700;font-size:20px;fill:rgb(44,44,44);">Services</text>
                            </g>
                        </g>
                    </g>
                </g>
            </g>
            <g id="g-root-tx_enhancin_zqbhdb1mlvsoz-fill" transform="matrix(1,0,0,1,98,506)">
                <g id="tx_enhancin_zqbhdb1mlvsoz-fill">
                    <g>
                        <g>
                            <g transform="matrix(1,0,0,1,34.27,31.2)">
                                <text x="0px" y="0px" style="font-family:'ArialMT', 'Arial', sans-serif;font-size:15px;fill:rgb(44,44,44);">Enhancing</text>
                            </g>
                            <g transform="matrix(1,0,0,1,12.5,49.2)">
                                <text x="0px" y="0px" style="font-family:'ArialMT', 'Arial', sans-serif;font-size:15px;fill:rgb(44,44,44);">telemarketing</text>
                            </g>
                            <g transform="matrix(1,0,0,1,11.93,67.2)">
                                <g transform="matrix(15,0,0,15,8.34229,0)">
                                </g>
                                <g transform="matrix(15,0,0,15,12.3763,0)">
                                </g>
                                <g transform="matrix(15,0,0,15,16.4104,0)">
                                </g>
                                <text x="0px" y="0px" style="font-family:'ArialMT', 'Arial', sans-serif;font-size:15px;fill:rgb(44,44,44);">eﬃciency and</text>
                            </g>
                            <g transform="matrix(1,0,0,1,40.63,85.2)">
                                <text x="0px" y="0px" style="font-family:'ArialMT', 'Arial', sans-serif;font-size:15px;fill:rgb(44,44,44);">customer</text>
                            </g>
                            <g transform="matrix(1,0,0,1,16.58,103.2)">
                                <text x="0px" y="0px" style="font-family:'ArialMT', 'Arial', sans-serif;font-size:15px;fill:rgb(44,44,44);">engagement.</text>
                            </g>
                        </g>
                    </g>
                </g>
            </g>
            <g transform="matrix(1,0,0,1,374,528)">
                <g id="g-root-tx_voiprese_mcd2nj1mm03d3-fill">
                    <g id="tx_voiprese_mcd2nj1mm03d3-fill">
                        <g>
                            <g>
                                <text x="0px" y="0px" style="font-family:'Arial-BoldMT', 'Arial', sans-serif;font-weight:700;font-size:20px;fill:rgb(44,44,44);">V<tspan x="11.855px 24.072px 29.629px 42.607px 48.164px " y="0px 0px 0px 0px 0px ">oIP R</tspan>esellers</text>
                            </g>
                        </g>
                    </g>
                </g>
            </g>
            <g id="g-root-tx_providin_1hgcjov1mm01l4-fill" transform="matrix(1,0,0,1,362,530)">
                <g id="tx_providin_1hgcjov1mm01l4-fill">
                    <g>
                        <g>
                            <g transform="matrix(1,0,0,1,12,31.2)">
                                <text x="0px" y="0px" style="font-family:'ArialMT', 'Arial', sans-serif;font-size:15px;fill:rgb(44,44,44);">Providing reliable V<tspan x="128.408px 136.75px " y="0px 0px ">oI</tspan>P</text>
                            </g>
                            <g transform="matrix(1,0,0,1,12,49.2)">
                                <text x="0px" y="0px" style="font-family:'ArialMT', 'Arial', sans-serif;font-size:15px;fill:rgb(44,44,44);">solutions for seamless</text>
                            </g>
                            <g transform="matrix(1,0,0,1,12,67.2)">
                                <text x="0px" y="0px" style="font-family:'ArialMT', 'Arial', sans-serif;font-size:15px;fill:rgb(44,44,44);">communication.</text>
                            </g>
                        </g>
                    </g>
                </g>
            </g>
            <g id="g-root-cp_5_text-5_91j1db1mlorux-stroke" transform="matrix(1,0,0,1,50,98)">
                <g id="cp_5_text-5_91j1db1mlorux-stroke">
                    <g>
                        <path d="M10,190L10,10L238,10L238,190" style="fill:none;stroke:rgb(44,44,44);stroke-width:2px;"/>
                    </g>
                </g>
            </g>
            <g id="g-root-cp_5_stick-5_90ejz1mlottv-stroke" transform="matrix(1,0,0,1,266,278)">
                <g id="cp_5_stick-5_90ejz1mlottv-stroke">
                    <g>
                        <path d="M21.996,382L21.996,10" style="fill:none;stroke:rgb(44,44,44);stroke-width:2px;"/>
                    </g>
                </g>
            </g>
            <g id="g-root-cp_3_text-3_4gpqjz1mlq6md-stroke" transform="matrix(1,0,0,1,38,278)">
                <g id="cp_3_text-3_4gpqjz1mlq6md-stroke">
                    <g>
                        <path d="M10,166L10,10L238,10L238,166" style="fill:none;stroke:rgb(44,44,44);stroke-width:2px;"/>
                    </g>
                </g>
            </g>
            <g id="g-root-cp_3_stick-3_1unfqgf1mlq9dz-stroke" transform="matrix(1,0,0,1,254,434)">
                <g id="cp_3_stick-3_1unfqgf1mlq9dz-stroke">
                    <g>
                        <path d="M21.996,226L21.996,10" style="fill:none;stroke:rgb(44,44,44);stroke-width:2px;"/>
                    </g>
                </g>
            </g>
            <g id="g-root-cp_1_text-1_8znm3z1mlq70h-stroke" transform="matrix(1,0,0,1,26,434)">
                <g id="cp_1_text-1_8znm3z1mlq70h-stroke">
                    <g>
                        <path d="M238,190L238,10L10,10L10,190L226,190" style="fill:none;stroke:rgb(44,44,44);stroke-width:2px;"/>
                    </g>
                </g>
            </g>
            <g id="g-root-cp_1_stick-1_4l325r1mlq96z-stroke" transform="matrix(1,0,0,1,242,518)">
                <g id="cp_1_stick-1_4l325r1mlq96z-stroke">
                    <g>
                        <path d="M21.996,142L21.996,10M10,142L10,106" style="fill:none;stroke:rgb(44,44,44);stroke-width:2px;"/>
                    </g>
                </g>
            </g>
            <g id="g-root-cp_6_text-6_4myhf31mlq879-stroke" transform="matrix(1,0,0,1,278,146)">
                <g id="cp_6_text-6_4myhf31mlq879-stroke">
                    <g>
                        <path d="M238,190L238,10L10,10L10,190" style="fill:none;stroke:rgb(44,44,44);stroke-width:2px;"/>
                    </g>
                </g>
            </g>
            <g id="g-root-cp_6_stick-6_djufu71mlq8sv-stroke" transform="matrix(1,0,0,1,278,326)">
                <g id="cp_6_stick-6_djufu71mlq8sv-stroke">
                    <g>
                        <path d="M10.004,334L10.004,10" style="fill:none;stroke:rgb(44,44,44);stroke-width:2px;"/>
                    </g>
                </g>
            </g>
            <g id="g-root-cp_4_text-4_1480er31mlq7t5-stroke" transform="matrix(1,0,0,1,290,326)">
                <g id="cp_4_text-4_1480er31mlq7t5-stroke">
                    <g>
                        <path d="M238,166L238,10L10,10L10,166" style="fill:none;stroke:rgb(44,44,44);stroke-width:2px;"/>
                    </g>
                </g>
            </g>
            <g id="g-root-cp_4_stick-4_13zw8mn1mlrldv-stroke" transform="matrix(1,0,0,1,290,482)">
                <g id="cp_4_stick-4_13zw8mn1mlrldv-stroke">
                    <g>
                        <path d="M10.004,178L10.004,10" style="fill:none;stroke:rgb(44,44,44);stroke-width:2px;"/>
                    </g>
                </g>
            </g>
            <g id="g-root-cp_2_text-2_1q7m8bz1mlrnkd-stroke" transform="matrix(1,0,0,1,302,482)">
                <g id="cp_2_text-2_1q7m8bz1mlrnkd-stroke">
                    <g>
                        <path d="M10,130L10,10L238,10L238,130L22,130" style="fill:none;stroke:rgb(44,44,44);stroke-width:2px;"/>
                    </g>
                </g>
            </g>
            <g id="g-root-cp_2_stick-2_1upb5pr1mlrlsf-stroke" transform="matrix(1,0,0,1,302,566)">
                <g id="cp_2_stick-2_1upb5pr1mlrlsf-stroke">
                    <g>
                        <path d="M10.004,94L10.004,10M22,94L22,46" style="fill:none;stroke:rgb(44,44,44);stroke-width:2px;"/>
                    </g>
                </g>
            </g>
            <g id="g-root-cp_0_g-0_4l325r1mlrncx-stroke" transform="matrix(1,0,0,1,242,650)">
                <g id="cp_0_g-0_4l325r1mlrncx-stroke">
                    <g>
                        <path d="M33.994,61L46.01,86L58.005,61L33.994,61Z" style="fill:none;stroke:rgb(44,44,44);stroke-width:2px;"/>
                    </g>
                </g>
                <g id="cp_0_g-0_4l325r1mlrncx-stroke1" serif:id="cp_0_g-0_4l325r1mlrncx-stroke">
                    <g>
                        <path d="M82,10L10,10L34,61L58.001,61L82,10Z" style="fill:none;stroke:rgb(44,44,44);stroke-width:2px;"/>
                    </g>
                </g>
            </g>
            <g id="g-root-ic_stet_deun5b1mluebu-stroke" transform="matrix(1,0,0,1,218,290)">
                <g id="ic_stet_deun5b1mluebu-stroke">
                    <g>
                        <path d="M20.414,37.159C21.69,36.71 22.923,36.149 24.1,35.483M10.75,40C10.75,42.899 13.101,45.25 16,45.25C18.899,45.25 21.25,42.899 21.25,40C21.25,37.101 18.899,34.75 16,34.75C13.101,34.75 10.75,37.101 10.75,40M14.5,40C14.5,40.828 15.172,41.5 16,41.5C16.828,41.5 17.5,40.828 17.5,40C17.5,39.172 16.828,38.5 16,38.5C15.172,38.5 14.5,39.172 14.5,40M42.042,43.779L41.4,45.129L33.726,40.255C32.28,39.335 31.745,37.482 32.479,35.934L32.479,35.933C33.212,34.384 34.984,33.624 36.612,34.159L45.25,37L44.608,38.35M29.485,31.883C33.461,28.875 40,23.183 40,18.297C40,10.07 29.677,7.827 26.5,15.304C23.323,7.827 13,10.07 13,18.297C13,25.318 25.95,33.64 26.5,34C28.265,35.155 31.537,36.55 32.384,36.151" style="fill:none;stroke:rgb(44,44,44);stroke-width:2px;"/>
                    </g>
                </g>
            </g>
            <g id="g-root-ic_grad_91j1db1mlyoe8-stroke" transform="matrix(1,0,0,1,302,338)">
                <g id="ic_grad_91j1db1mlyoe8-stroke">
                    <g>
                        <path d="M28.975,27.175C23.875,11.875 22.825,11.125 19.675,11.125L19.675,15.475L12.325,19.225C11.575,19.525 11.125,20.275 11.125,21.175L11.125,21.925C11.125,24.325 13.075,26.275 15.475,26.275L17.575,26.275L17.575,36.775M17.575,31.525L28.336,25.263M44.875,34.825L44.875,38.125M40.375,37.047L40.375,42.625C40.375,42.625 38.125,44.875 34.825,44.875C31.525,44.875 29.125,42.625 29.125,42.625L29.125,37.047M24.625,34.825L34.825,39.325L44.875,34.825L34.825,30.325L24.625,34.825Z" style="fill:none;stroke:rgb(44,44,44);stroke-width:2px;"/>
                    </g>
                </g>
            </g>
            <g id="g-root-ic_phon_1ly1h2n1mlvuvg-stroke" transform="matrix(1,0,0,1,206,446)">
                <g id="ic_phon_1ly1h2n1mlvuvg-stroke">
                    <g>
                        <path d="M18.4,30.4C19.252,29.546 19.252,28.163 18.4,27.308L16.073,24.99C15.22,24.136 13.836,24.136 12.982,24.99L11.71,26.261C10.607,27.362 10.434,29.088 11.296,30.386C15.039,36.021 19.869,40.851 25.504,44.595C26.803,45.454 28.526,45.282 29.629,44.182L30.901,42.91C31.755,42.057 31.755,40.673 30.901,39.82L30.901,39.82L28.582,37.501C27.729,36.648 26.345,36.648 25.492,37.501L25.492,37.501L24.72,38.275C22.129,36.143 19.752,33.765 17.62,31.174L18.4,30.4ZM26.673,27.952L25.923,27.952C24.283,27.948 22.957,26.618 22.957,24.979L22.957,22.008C22.957,20.366 24.288,19.035 25.93,19.035L26.68,19.035C27.091,19.039 27.423,19.373 27.423,19.785L27.423,27.217C27.414,27.625 27.081,27.952 26.673,27.952ZM42.277,27.952L41.527,27.952C41.116,27.952 40.781,27.621 40.777,27.209L40.777,19.777C40.777,19.363 41.113,19.027 41.527,19.027L42.277,19.027C43.067,19.027 43.824,19.341 44.382,19.9C44.94,20.46 45.252,21.218 45.25,22.008L45.25,24.979C45.25,26.621 43.919,27.952 42.277,27.952ZM25.93,19.035C25.929,14.52 29.589,10.86 34.103,10.861C38.618,10.86 42.278,14.52 42.277,19.035M37.077,31.668L39.306,31.668C40.947,31.668 42.278,30.336 42.277,28.695L42.277,27.952M31.131,18.292C31.133,16.781 32.269,15.512 33.771,15.343C35.272,15.174 36.662,16.158 37.001,17.631C37.34,19.103 36.52,20.596 35.095,21.1C34.501,21.31 34.103,21.872 34.103,22.503L34.103,22.75M34.12,26.173C33.801,26.172 33.542,26.43 33.541,26.749C33.54,27.069 33.799,27.328 34.118,27.328C34.437,27.328 34.696,27.07 34.696,26.751C34.696,26.432 34.438,26.174 34.12,26.173" style="fill:none;stroke:rgb(44,44,44);stroke-width:2px;"/>
                    </g>
                </g>
            </g>
            <g id="g-root-ic_serv_me8hwv1mm02dd-stroke" transform="matrix(1,0,0,1,314,494)">
                <g id="ic_serv_me8hwv1mm02dd-stroke">
                    <g>
                        <path d="M28.075,29.875L28.075,44.875M18.625,37.375L21.614,37.375C22.611,37.375 23.275,37.975 23.275,38.875L23.275,44.875M37.375,37.375L34.482,37.375C33.518,37.375 32.875,37.975 32.875,38.875L32.875,44.875M33.625,26.875C33.625,28.525 32.275,29.875 30.625,29.875L25.225,29.875C23.575,29.875 22.375,28.525 22.375,27.025L22.375,13.975C22.375,12.325 23.725,11.125 25.225,11.125L30.775,11.125C32.425,11.125 33.625,12.475 33.625,13.975L33.625,26.875ZM18.625,38.425C18.625,39.325 18.025,39.925 17.125,39.925L12.625,39.925C11.725,39.925 11.125,39.325 11.125,38.425L11.125,30.175C11.125,29.275 11.725,28.675 12.625,28.675L17.125,28.675C18.025,28.675 18.625,29.275 18.625,30.175L18.625,38.425ZM44.875,38.425C44.875,39.325 44.275,39.925 43.375,39.925L38.875,39.925C37.975,39.925 37.375,39.325 37.375,38.425L37.375,30.175C37.375,29.275 37.975,28.675 38.875,28.675L43.375,28.675C44.275,28.675 44.875,29.275 44.875,30.175L44.875,38.425ZM28.075,26.679C28.806,26.679 29.398,26.086 29.398,25.355C29.398,24.625 28.806,24.032 28.075,24.032C27.344,24.032 26.752,24.625 26.752,25.355C26.752,26.086 27.344,26.679 28.075,26.679Z" style="fill:none;stroke:rgb(44,44,44);stroke-width:2px;"/>
                    </g>
                </g>
            </g>
            <g id="g-root-ic_shie_18lc0j31mlx8g2-stroke" transform="matrix(1,0,0,1,290,158)">
                <g id="ic_shie_18lc0j31mlx8g2-stroke">
                    <g>
                        <path d="M31,21.25L27.781,21.25C26.492,21.25 25.372,22.137 25.075,23.392C24.779,24.647 25.384,25.941 26.538,26.518L29.463,27.981C30.617,28.557 31.224,29.852 30.928,31.108C30.631,32.364 29.51,33.251 28.219,33.25L25,33.25M28,21.253L28,19.003M28,35.503L28,33.253M13,15.664L13,27.119C12.987,34.728 17.652,41.562 24.742,44.323L26.35,44.95C27.416,45.364 28.599,45.364 29.665,44.95L31.265,44.33C38.355,41.566 43.017,34.729 43,27.119L43,15.664C43.004,14.763 42.483,13.943 41.665,13.564C37.361,11.669 32.703,10.71 28,10.75C23.298,10.708 18.64,11.664 14.335,13.556C13.515,13.936 12.993,14.76 13,15.664Z" style="fill:none;stroke:rgb(44,44,44);stroke-width:2px;"/>
                    </g>
                </g>
            </g>
            <g id="g-root-ic_mess_zn73xr1mlszyn-stroke" transform="matrix(1,0,0,1,230,110)">
                <g id="ic_mess_zn73xr1mlszyn-stroke">
                    <g>
                        <path d="M10.75,12.25C10.75,11.422 11.422,10.75 12.25,10.75L33.25,10.75C34.078,10.75 34.75,11.422 34.75,12.25L34.75,28.75C34.75,29.578 34.078,30.25 33.25,30.25L29.5,30.25L29.5,34.75L24.25,30.25L12.25,30.25C11.422,30.25 10.75,29.578 10.75,28.75L10.75,12.25ZM41.875,29.5C41.668,29.5 41.5,29.668 41.5,29.875C41.5,30.082 41.668,30.25 41.875,30.25C42.082,30.25 42.25,30.082 42.25,29.875C42.25,29.668 42.082,29.5 41.875,29.5M45.25,45.25L43.75,45.25C42.371,45.123 41.168,44.263 40.6,43C40.461,42.707 40.521,42.359 40.75,42.13L43,39.25L40,39.25C39.586,39.25 39.25,38.914 39.25,38.5L39.25,36.25L36.25,36.25C36.01,36.251 35.784,36.138 35.642,35.946C35.5,35.753 35.458,35.504 35.53,35.275L37.75,30.25C37.75,22.75 42.25,21.25 45.25,21.25M28.75,14.5L26.665,22.255C26.567,22.553 26.288,22.753 25.975,22.75L19.855,22.75C19.557,22.747 19.288,22.572 19.165,22.3L17.5,17.8C17.38,17.575 17.38,17.305 17.5,17.08C17.663,16.831 17.957,16.702 18.25,16.75L28.135,16.75M20.125,25C20.332,25 20.5,25.168 20.5,25.375C20.5,25.582 20.332,25.75 20.125,25.75C19.918,25.75 19.75,25.582 19.75,25.375C19.75,25.168 19.918,25 20.125,25M25.375,25C25.582,25 25.75,25.168 25.75,25.375C25.75,25.582 25.582,25.75 25.375,25.75C25.168,25.75 25,25.582 25,25.375C25,25.168 25.168,25 25.375,25" style="fill:none;stroke:rgb(44,44,44);stroke-width:2px;"/>
                    </g>
                </g>
            </g>
        </g>
    </g>
</svg>
