<?xml version="1.0" encoding="UTF-8" standalone="no"?>
<!DOCTYPE svg PUBLIC "-//W3C//DTD SVG 1.1//EN" "http://www.w3.org/Graphics/SVG/1.1/DTD/svg11.dtd">
<svg width="100%" height="100%" viewBox="0 0 702 954" version="1.1" xmlns="http://www.w3.org/2000/svg" xmlns:xlink="http://www.w3.org/1999/xlink" xml:space="preserve" xmlns:serif="http://www.serif.com/" style="fill-rule:evenodd;clip-rule:evenodd;stroke-linecap:round;stroke-linejoin:round;">
    <g id="items" transform="matrix(1.09851,0,0,1.09851,-34.5783,-68.7556)">
        <g id="blend">
            <g id="g-root-cp_5_shape-5_v5hx0v1lrn8xu-fill" transform="matrix(1,0,0,1,314.303,104)">
                <g id="cp_5_shape-5_v5hx0v1lrn8xu-fill">
                    <g>
                        <path d="M27.697,316L15.697,316L15.697,160L27.697,160L27.697,316ZM32.297,28.191L27.697,28.191L27.697,160L15.697,160L15.697,28.191L11.017,28.191C10.237,28.191 9.747,27.341 10.137,26.661L20.86,10.448C21.256,9.849 22.136,9.851 22.53,10.451L33.177,26.661C33.577,27.341 33.087,28.191 32.297,28.191Z" style="fill:rgb(247,148,56);"/>
                    </g>
                </g>
            </g>
            <g id="g-root-cp_1_shape-1_hunvqn1lrn7d0-fill" transform="matrix(1,0,0,1,32,103.816)">
                <g id="cp_1_shape-1_hunvqn1lrn7d0-fill">
                    <g>
                        <path d="M214,352.184L46,352.183C26.118,352.183 10,336.081 10,316.199L10,316.184L250,316.184C250,336.066 233.882,352.184 214,352.184ZM254.6,28.375L250,28.375L250,160.184L10,160.184C10,140.302 26.118,124.505 46,124.505L172,124.505C213.07,124.505 238,94.374 238,55.034L238,28.374L233.32,28.374C232.54,28.374 232.05,27.524 232.44,26.844L243.163,10.632C243.559,10.033 244.439,10.034 244.833,10.635L255.48,26.844C255.88,27.525 255.39,28.375 254.6,28.375ZM250,160.184L250,316.184L10,316.184L10,160.184L250,160.184Z" style="fill:rgb(67,221,147);"/>
                    </g>
                </g>
            </g>
            <g id="g-root-cp_3_shape-3_4j7ddb1lrn8xy-fill" transform="matrix(1,0,0,1,284.303,104)">
                <g id="cp_3_shape-3_4j7ddb1lrn8xy-fill">
                    <g>
                        <path d="M27.697,316L15.697,316L15.697,160L27.697,160L27.697,316ZM32.297,28.191L27.697,28.191L27.697,160L15.697,160L15.697,28.191L11.017,28.191C10.237,28.191 9.747,27.341 10.137,26.661L20.86,10.448C21.256,9.849 22.136,9.851 22.53,10.451L33.177,26.661C33.577,27.341 33.087,28.191 32.297,28.191Z" style="fill:rgb(26,195,251);"/>
                    </g>
                </g>
            </g>
            <g id="g-root-cp_3_shape-3_1_40cbz1lrn6kg-fill" transform="matrix(1,0,0,1,32,410)">
                <g id="cp_3_shape-3_1_40cbz1lrn6kg-fill">
                    <g>
                        <path d="M214,64.321C244,64.321 268,46 268,10L280,10L280,100.306L10,100.306C10,80.423 26.118,64.321 46,64.321L214,64.321Z" style="fill:rgb(26,195,251);"/>
                    </g>
                </g>
            </g>
            <g id="g-root-cp_5_shape-5_1_1ltnvxr1lrn7ya-fill" transform="matrix(1,0,0,1,320,410)">
                <g id="cp_5_shape-5_1_1ltnvxr1lrn7ya-fill">
                    <g>
                        <rect x="10" y="10" width="12" height="222" style="fill:rgb(247,148,56);"/>
                    </g>
                </g>
            </g>
            <g id="g-root-cp_3_shape-3_2_18i7dkf1lrn9j8-fill" transform="matrix(1,0,0,1,32,500)">
                <g id="cp_3_shape-3_2_18i7dkf1lrn9j8-fill">
                    <g>
                        <path d="M280,10L280,141.979L10,141.979L10,10L280,10ZM244,178.008L46,178.008C26.118,178.008 10,161.905 10,142.023L10,142.008L280,142.008C280,161.89 263.882,178.008 244,178.008Z" style="fill:rgb(26,195,251);"/>
                    </g>
                </g>
            </g>
            <g id="g-root-cp_5_shape-5_2_zn6uen1lrn766-fill" transform="matrix(1,0,0,1,32,632)">
                <g id="cp_5_shape-5_2_zn6uen1lrn766-fill">
                    <g>
                        <path d="M244,64.137C274,64.137 298,45.878 298,10L310,10L310,100L10,100C10,80.185 26.118,64.137 46,64.137L244,64.137Z" style="fill:rgb(247,148,56);"/>
                    </g>
                </g>
            </g>
            <g id="g-root-cp_5_shape-5_3_hvwtwv1lrn9jc-fill" transform="matrix(1,0,0,1,32,722)">
                <g id="cp_5_shape-5_3_hvwtwv1lrn9jc-fill">
                    <g>
                        <path d="M310,10L310,118L10,118L10,10L310,10ZM274,154.008L46,154.008C26.118,154.008 10,137.882 10,118L310,118C310,137.882 293.882,154.008 274,154.008Z" style="fill:rgb(247,148,56);"/>
                    </g>
                </g>
            </g>
            <g id="g-root-cp_2_shape-2_4l2smn1lrn7yi-fill" transform="matrix(1,0,0,1,404.378,103.816)">
                <g id="cp_2_shape-2_4l2smn1lrn7yi-fill">
                    <g>
                        <path d="M51.622,352.184L219.622,352.184C239.504,352.184 255.622,336.081 255.622,316.199L255.622,316.184L15.622,316.184C15.622,336.066 31.74,352.184 51.622,352.184ZM11.022,28.375L15.622,28.375L15.622,160.184L255.622,160.184C255.622,140.302 239.505,124.505 219.623,124.505L93.622,124.505C52.552,124.505 27.622,94.374 27.622,55.034L27.622,28.374L32.302,28.374C33.082,28.374 33.572,27.524 33.182,26.844L22.459,10.632C22.063,10.033 21.184,10.034 20.79,10.635L10.142,26.844C9.742,27.525 10.232,28.375 11.022,28.375ZM15.622,160.184L15.622,316.184L255.622,316.184L255.622,160.184L15.622,160.184Z" style="fill:rgb(166,218,55);"/>
                    </g>
                </g>
            </g>
            <g id="g-root-cp_4_shape-4_1qaqc8f1lrn9cc-fill" transform="matrix(1,0,0,1,374.383,104)">
                <g id="cp_4_shape-4_1qaqc8f1lrn9cc-fill">
                    <g>
                        <path d="M15.623,316L27.623,316L27.623,160L15.623,160L15.623,316ZM11.022,28.191L15.622,28.191L15.622,160L27.622,160L27.622,28.191L32.302,28.191C33.082,28.191 33.572,27.341 33.182,26.661L22.459,10.448C22.063,9.849 21.184,9.851 20.79,10.451L10.142,26.661C9.742,27.341 10.232,28.191 11.022,28.191Z" style="fill:rgb(255,231,17);"/>
                    </g>
                </g>
            </g>
            <g id="g-root-cp_6_shape-6_1lvjb731lrn6yu-fill" transform="matrix(1,0,0,1,344.383,104)">
                <g id="cp_6_shape-6_1lvjb731lrn6yu-fill">
                    <g>
                        <path d="M15.623,316L27.623,316L27.623,160L15.623,160L15.623,316ZM11.022,28.191L15.622,28.191L15.622,160L27.622,160L27.622,28.191L32.302,28.191C33.082,28.191 33.572,27.341 33.182,26.661L22.459,10.448C22.063,9.849 21.184,9.851 20.79,10.451L10.142,26.661C9.742,27.341 10.232,28.191 11.022,28.191Z" style="fill:rgb(251,103,98);"/>
                    </g>
                </g>
            </g>
            <g id="g-root-cp_4_shape-4_1_18k2str1lrn8js-fill" transform="matrix(1,0,0,1,380,410)">
                <g id="cp_4_shape-4_1_18k2str1lrn8js-fill">
                    <g>
                        <path d="M76,64.321C46,64.321 22,46 22,10L10,10L10,100.306L280,100.306C280,80.423 263.882,64.321 244,64.321L76,64.321Z" style="fill:rgb(255,231,17);"/>
                    </g>
                </g>
            </g>
            <g id="g-root-cp_4_shape-4_2_v98rjj1lrn6yy-fill" transform="matrix(1,0,0,1,380,500)">
                <g id="cp_4_shape-4_2_v98rjj1lrn6yy-fill">
                    <g>
                        <path d="M10,10L10,142L280,142L280,10L10,10ZM46,178L244,178C263.882,178 280,161.898 280,142.016L280,142L10,142C10,161.882 26.118,178 46,178Z" style="fill:rgb(255,231,17);"/>
                    </g>
                </g>
            </g>
            <g id="g-root-cp_6_shape-6_1_qtf9f31lrn7r8-fill" transform="matrix(1,0,0,1,350,410)">
                <g id="cp_6_shape-6_1_qtf9f31lrn7r8-fill">
                    <g>
                        <rect x="10" y="10" width="12" height="222" style="fill:rgb(251,103,98);"/>
                    </g>
                </g>
            </g>
            <g id="g-root-cp_6_shape-6_2_dhyr1r1lrn9c6-fill" transform="matrix(1,0,0,1,350,632)">
                <g id="cp_6_shape-6_2_dhyr1r1lrn9c6-fill">
                    <g>
                        <path d="M76,64.321C46,64.321 22,46 22,10L10,10L10,100.306L310,100.306C310,80.423 293.882,64.321 274,64.321L76,64.321Z" style="fill:rgb(251,103,98);"/>
                    </g>
                </g>
            </g>
            <g id="g-root-cp_6_shape-6_3_74prj1lrn7rc-fill" transform="matrix(1,0,0,1,350,722)">
                <g id="cp_6_shape-6_3_74prj1lrn7rc-fill">
                    <g>
                        <path d="M10,10L10,118L310,118L310,10L10,10ZM46,154L274,154C293.882,154 310,137.898 310,118.016L310,118L10,118C10,137.882 26.118,154 46,154Z" style="fill:rgb(251,103,98);"/>
                    </g>
                </g>
            </g>
            <g id="g-root-tx_worldwid_1qf3nu71lrrgul-fill" transform="matrix(1,0,0,1,446,362)">
                <g id="tx_worldwid_1qf3nu71lrrgul-fill">
                    <g>
                        <g>
                            <g transform="matrix(1,0,0,1,15.08,31.2)">
                                <text x="0px" y="0px" style="font-family:'ArialMT', 'Arial', sans-serif;font-size:15px;fill:rgb(44,44,44);">W<tspan x="13.887px 22.229px " y="0px 0px ">or</tspan>ldwide connectivity</text>
                            </g>
                            <g transform="matrix(1,0,0,1,31.28,49.2)">
                                <text x="0px" y="0px" style="font-family:'ArialMT', 'Arial', sans-serif;font-size:15px;fill:rgb(44,44,44);">for seamless V<tspan x="98.372px 106.714px " y="0px 0px ">oI</tspan>P</text>
                            </g>
                            <g transform="matrix(1,0,0,1,51.88,67.2)">
                                <text x="0px" y="0px" style="font-family:'ArialMT', 'Arial', sans-serif;font-size:15px;fill:rgb(44,44,44);">termination.</text>
                            </g>
                        </g>
                    </g>
                </g>
            </g>
            <g id="g-root-tx_costeffe_9050v1lrn6ro-fill" transform="matrix(1,0,0,1,68,362)">
                <g id="tx_costeffe_9050v1lrn6ro-fill">
                    <g>
                        <g>
                            <g transform="matrix(1,0,0,1,13.22,31.2)">
                                <g transform="matrix(15,0,0,15,44.1797,0)">
                                </g>
                                <g transform="matrix(15,0,0,15,48.186,0)">
                                </g>
                                <text x="0px" y="0px" style="font-family:'ArialMT', 'Arial', sans-serif;font-size:15px;fill:rgb(44,44,44);">Cost-eﬀective solutions</text>
                            </g>
                            <g transform="matrix(1,0,0,1,22.62,49.2)">
                                <text x="0px" y="0px" style="font-family:'ArialMT', 'Arial', sans-serif;font-size:15px;fill:rgb(44,44,44);">for high-volume V<tspan x="116.726px 125.068px " y="0px 0px ">oI</tspan>P</text>
                            </g>
                            <g transform="matrix(1,0,0,1,63.2,67.2)">
                                <text x="0px" y="0px" style="font-family:'ArialMT', 'Arial', sans-serif;font-size:15px;fill:rgb(44,44,44);">minutes.</text>
                            </g>
                        </g>
                    </g>
                </g>
            </g>
            <g transform="matrix(1,0,0,1,108.62,582)">
                <g id="g-root-tx_fastscal_8dnxr1lronba-fill">
                    <g id="tx_fastscal_8dnxr1lronba-fill">
                        <g>
                            <g>
                                <text x="0px" y="0px" style="font-family:'Arial-BoldMT', 'Arial', sans-serif;font-weight:700;font-size:20px;fill:rgb(44,44,44);">Fast Scalability</text>
                            </g>
                        </g>
                    </g>
                </g>
            </g>
            <g id="g-root-tx_optimize_dkgne71lrsv7r-fill" transform="matrix(1,0,0,1,431,548)">
                <g id="tx_optimize_dkgne71lrsv7r-fill">
                    <g>
                        <g>
                            <g transform="matrix(1,0,0,1,16.92,34)">
                                <text x="0px" y="0px" style="font-family:'Arial-BoldMT', 'Arial', sans-serif;font-weight:700;font-size:20px;fill:rgb(44,44,44);">Optimized Dialer</text>
                            </g>
                            <g transform="matrix(1,0,0,1,62.29,58)">
                                <g transform="matrix(20,0,0,20,30.0195,0)">
                                </g>
                                <g transform="matrix(20,0,0,20,36.4902,0)">
                                </g>
                                <g transform="matrix(20,0,0,20,42.9608,0)">
                                </g>
                                <text x="0px" y="0px" style="font-family:'Arial-BoldMT', 'Arial', sans-serif;font-weight:700;font-size:20px;fill:rgb(44,44,44);">T<tspan x="11.113px 18.896px " y="0px 0px ">ra</tspan>ﬃc</text>
                            </g>
                        </g>
                    </g>
                </g>
            </g>
            <g id="g-root-tx_rapidlya_vcd4z31lroljb-fill" transform="matrix(1,0,0,1,59,584)">
                <g id="tx_rapidlya_vcd4z31lroljb-fill">
                    <g>
                        <g>
                            <g transform="matrix(1,0,0,1,58.35,31.2)">
                                <text x="0px" y="0px" style="font-family:'ArialMT', 'Arial', sans-serif;font-size:15px;fill:rgb(44,44,44);">Rapidly adaptable</text>
                            </g>
                            <g transform="matrix(1,0,0,1,15.28,49.2)">
                                <text x="0px" y="0px" style="font-family:'ArialMT', 'Arial', sans-serif;font-size:15px;fill:rgb(44,44,44);">infrastructure for growing V<tspan x="179.246px 187.588px " y="0px 0px ">oI</tspan>P</text>
                            </g>
                            <g transform="matrix(1,0,0,1,95.53,67.2)">
                                <text x="0px" y="0px" style="font-family:'ArialMT', 'Arial', sans-serif;font-size:15px;fill:rgb(44,44,44);">needs.</text>
                            </g>
                        </g>
                    </g>
                </g>
            </g>
            <g id="g-root-tx_flexible_qvaoof1lrua6j-fill" transform="matrix(1,0,0,1,380,806)">
                <g id="tx_flexible_qvaoof1lrua6j-fill">
                    <g>
                        <g>
                            <g transform="matrix(1,0,0,1,15.74,28.2)">
                                <text x="0px" y="0px" style="font-family:'ArialMT', 'Arial', sans-serif;font-size:15px;fill:rgb(44,44,44);">Flexible billing options tailored for</text>
                            </g>
                            <g transform="matrix(1,0,0,1,68.69,46.2)">
                                <text x="0px" y="0px" style="font-family:'ArialMT', 'Arial', sans-serif;font-size:15px;fill:rgb(44,44,44);">wholesale clients.</text>
                            </g>
                        </g>
                    </g>
                </g>
            </g>
            <g id="g-root-tx_globalte_vbqnvz1lrrfgs-fill" transform="matrix(1,0,0,1,440,302)">
                <g id="tx_globalte_vbqnvz1lrrfgs-fill">
                    <g>
                        <g>
                            <g transform="matrix(1,0,0,1,13.21,34)">
                                <text x="0px" y="0px" style="font-family:'Arial-BoldMT', 'Arial', sans-serif;font-weight:700;font-size:20px;fill:rgb(44,44,44);">Global T<tspan x="78.516px 89.639px " y="0px 0px ">er</tspan>mination</text>
                            </g>
                            <g transform="matrix(1,0,0,1,65.99,58)">
                                <text x="0px" y="0px" style="font-family:'Arial-BoldMT', 'Arial', sans-serif;font-weight:700;font-size:20px;fill:rgb(44,44,44);">Access</text>
                            </g>
                        </g>
                    </g>
                </g>
            </g>
            <g id="g-root-tx_highvolu_vahppr1lrn957-fill" transform="matrix(1,0,0,1,86,302)">
                <g id="tx_highvolu_vahppr1lrn957-fill">
                    <g>
                        <g>
                            <g transform="matrix(1,0,0,1,14.29,34)">
                                <text x="0px" y="0px" style="font-family:'Arial-BoldMT', 'Arial', sans-serif;font-weight:700;font-size:20px;fill:rgb(44,44,44);">High-V<tspan x="62.949px 75.166px " y="0px 0px ">ol</tspan>ume</text>
                            </g>
                            <g transform="matrix(1,0,0,1,28.66,58)">
                                <text x="0px" y="0px" style="font-family:'Arial-BoldMT', 'Arial', sans-serif;font-weight:700;font-size:20px;fill:rgb(44,44,44);">Discounts</text>
                            </g>
                        </g>
                    </g>
                </g>
            </g>
            <g transform="matrix(1,0,0,1,96.65,804)">
                <g id="g-root-tx_lowasrac_18n769b1lrq0i1-fill">
                    <g id="tx_lowasrac_18n769b1lrq0i1-fill">
                        <g>
                            <g>
                                <text x="0px" y="0px" style="font-family:'Arial-BoldMT', 'Arial', sans-serif;font-weight:700;font-size:20px;fill:rgb(44,44,44);">Low <tspan x="44.805px 59.248px " y="0px 0px ">AS</tspan>R/ACD Issues</text>
                            </g>
                        </g>
                    </g>
                </g>
            </g>
            <g transform="matrix(1,0,0,1,432.63,804)">
                <g id="g-root-tx_wholesal_1qd88kv1lru9du-fill">
                    <g id="tx_wholesal_1qd88kv1lru9du-fill">
                        <g>
                            <g>
                                <text x="0px" y="0px" style="font-family:'Arial-BoldMT', 'Arial', sans-serif;font-weight:700;font-size:20px;fill:rgb(44,44,44);">Wholesale Billing</text>
                            </g>
                        </g>
                    </g>
                </g>
            </g>
            <g id="g-root-tx_minimalc_dl34hb1lrq1aa-fill" transform="matrix(1,0,0,1,98,806)">
                <g id="tx_minimalc_dl34hb1lrq1aa-fill">
                    <g>
                        <g>
                            <g transform="matrix(1,0,0,1,13.49,28.2)">
                                <text x="0px" y="0px" style="font-family:'ArialMT', 'Arial', sans-serif;font-size:15px;fill:rgb(44,44,44);">Minimal call quality and</text>
                            </g>
                            <g transform="matrix(1,0,0,1,16.77,46.2)">
                                <text x="0px" y="0px" style="font-family:'ArialMT', 'Arial', sans-serif;font-size:15px;fill:rgb(44,44,44);">connectivity problems.</text>
                            </g>
                        </g>
                    </g>
                </g>
            </g>
            <g id="g-root-tx_efficien_1lza5pr1lrsv0o-fill" transform="matrix(1,0,0,1,425,608)">
                <g id="tx_efficien_1lza5pr1lrsv0o-fill">
                    <g>
                        <g>
                            <g transform="matrix(1,0,0,1,15.59,28.2)">
                                <g transform="matrix(15,0,0,15,10.0049,0)">
                                </g>
                                <g transform="matrix(15,0,0,15,14.0389,0)">
                                </g>
                                <g transform="matrix(15,0,0,15,18.073,0)">
                                </g>
                                <text x="0px" y="0px" style="font-family:'ArialMT', 'Arial', sans-serif;font-size:15px;fill:rgb(44,44,44);">Eﬃcient handling of high-</text>
                            </g>
                            <g transform="matrix(1,0,0,1,32.22,46.2)">
                                <g transform="matrix(15,0,0,15,110.881,0)">
                                </g>
                                <g transform="matrix(15,0,0,15,114.915,0)">
                                </g>
                                <g transform="matrix(15,0,0,15,118.949,0)">
                                </g>
                                <text x="0px" y="0px" style="font-family:'ArialMT', 'Arial', sans-serif;font-size:15px;fill:rgb(44,44,44);">volume dialer traﬃc.</text>
                            </g>
                        </g>
                    </g>
                </g>
            </g>
            <g id="g-root-cp_5_shape-5_v5hx0v1lrn8xu-stroke" transform="matrix(1,0,0,1,314.303,104)">
                <g id="cp_5_shape-5_v5hx0v1lrn8xu-stroke">
                    <g>
                        <path d="M15.697,160L15.697,316M27.697,316L27.697,160M15.697,160L15.697,28.191L11.017,28.191C10.237,28.191 9.747,27.341 10.137,26.661L20.86,10.448C21.256,9.849 22.136,9.851 22.53,10.451L33.177,26.661C33.577,27.341 33.087,28.191 32.297,28.191L27.697,28.191L27.697,160" style="fill:none;stroke:rgb(44,44,44);stroke-width:2px;"/>
                    </g>
                </g>
            </g>
            <g id="g-root-cp_1_shape-1_hunvqn1lrn7d0-stroke" transform="matrix(1,0,0,1,32,103.816)">
                <g id="cp_1_shape-1_hunvqn1lrn7d0-stroke">
                    <g>
                        <path d="M10,160.184C10,140.301 26.118,124.321 46,124.321L172,124.321C213.07,124.321 238,94.191 238,54.851L238,28.191L233.32,28.191C232.54,28.191 232.05,27.341 232.44,26.661L243.163,10.448C243.559,9.849 244.439,9.851 244.833,10.451L255.48,26.661C255.88,27.341 255.39,28.191 254.6,28.191L250,28.191L250,160.184M250,316.184C250,336.066 233.882,352.191 214,352.191L46,352.191C26.118,352.191 10,336.081 10,316.199L10,316.184M250,316.184L250,160.184M10,160.184L10,316.184" style="fill:none;stroke:rgb(44,44,44);stroke-width:2px;"/>
                    </g>
                </g>
            </g>
            <g id="g-root-cp_3_shape-3_4j7ddb1lrn8xy-stroke" transform="matrix(1,0,0,1,284.303,104)">
                <g id="cp_3_shape-3_4j7ddb1lrn8xy-stroke">
                    <g>
                        <path d="M15.697,160L15.697,316M27.697,316L27.697,160M15.697,160L15.697,28.191L11.017,28.191C10.237,28.191 9.747,27.341 10.137,26.661L20.86,10.448C21.256,9.849 22.136,9.851 22.53,10.451L33.177,26.661C33.577,27.341 33.087,28.191 32.297,28.191L27.697,28.191L27.697,160" style="fill:none;stroke:rgb(44,44,44);stroke-width:2px;"/>
                    </g>
                </g>
            </g>
            <g id="g-root-cp_3_shape-3_1_40cbz1lrn6kg-stroke" transform="matrix(1,0,0,1,32,410)">
                <g id="cp_3_shape-3_1_40cbz1lrn6kg-stroke">
                    <g>
                        <path d="M268,10C268,46 244,64.321 214,64.321L46,64.321C26.118,64.321 10,80.423 10,100.306M280,100.306L280,10" style="fill:none;stroke:rgb(44,44,44);stroke-width:2px;"/>
                    </g>
                </g>
            </g>
            <g id="g-root-cp_5_shape-5_1_1ltnvxr1lrn7ya-stroke" transform="matrix(1,0,0,1,320,410)">
                <g id="cp_5_shape-5_1_1ltnvxr1lrn7ya-stroke">
                    <g>
                        <path d="M10,10L10,232M22,232L22,10" style="fill:none;stroke:rgb(44,44,44);stroke-width:2px;"/>
                    </g>
                </g>
            </g>
            <g id="g-root-cp_3_shape-3_2_18i7dkf1lrn9j8-stroke" transform="matrix(1,0,0,1,32,500)">
                <g id="cp_3_shape-3_2_18i7dkf1lrn9j8-stroke">
                    <g>
                        <path d="M280,141.979L280,10M10,10L10,142M280,142.008C280,161.89 263.882,178.008 244,178.008L46,178.008C26.118,178.008 10,161.905 10,142.023L10,142.008" style="fill:none;stroke:rgb(44,44,44);stroke-width:2px;"/>
                    </g>
                </g>
            </g>
            <g id="g-root-cp_5_shape-5_2_zn6uen1lrn766-stroke" transform="matrix(1,0,0,1,32,632)">
                <g id="cp_5_shape-5_2_zn6uen1lrn766-stroke">
                    <g>
                        <path d="M298,10C298,45.878 274,64.137 244,64.137L46,64.137C26.118,64.137 10,80.185 10,100M310,100L310,10" style="fill:none;stroke:rgb(44,44,44);stroke-width:2px;"/>
                    </g>
                </g>
            </g>
            <g id="g-root-cp_5_shape-5_3_hvwtwv1lrn9jc-stroke" transform="matrix(1,0,0,1,32,722)">
                <g id="cp_5_shape-5_3_hvwtwv1lrn9jc-stroke">
                    <g>
                        <path d="M310,118L310,10M10,10L10,118M310,118C310,137.882 293.882,154.008 274,154.008L46,154.008C26.118,154.008 10,137.882 10,118" style="fill:none;stroke:rgb(44,44,44);stroke-width:2px;"/>
                    </g>
                </g>
            </g>
            <g id="g-root-cp_2_shape-2_4l2smn1lrn7yi-stroke" transform="matrix(1,0,0,1,404.378,103.816)">
                <g id="cp_2_shape-2_4l2smn1lrn7yi-stroke">
                    <g>
                        <path d="M255.622,160.184C255.622,140.301 239.505,124.321 219.623,124.321L93.622,124.321C52.552,124.321 27.622,94.191 27.622,54.851L27.622,28.191L32.302,28.191C33.082,28.191 33.572,27.341 33.182,26.661L22.459,10.448C22.063,9.849 21.184,9.851 20.79,10.451L10.142,26.661C9.742,27.341 10.232,28.191 11.022,28.191L15.622,28.191L15.622,160.184M15.622,316.184C15.622,336.066 31.74,352.184 51.622,352.184L219.623,352.183C239.505,352.183 255.622,336.081 255.622,316.199L255.622,316.184M15.622,316.184L15.622,160.184M255.622,160.184L255.622,316.184" style="fill:none;stroke:rgb(44,44,44);stroke-width:2px;"/>
                    </g>
                </g>
            </g>
            <g id="g-root-cp_4_shape-4_1qaqc8f1lrn9cc-stroke" transform="matrix(1,0,0,1,374.383,104)">
                <g id="cp_4_shape-4_1qaqc8f1lrn9cc-stroke">
                    <g>
                        <path d="M27.622,160L27.622,316M15.622,316L15.622,160M27.622,160L27.622,28.191L32.302,28.191C33.082,28.191 33.572,27.341 33.182,26.661L22.459,10.448C22.063,9.849 21.184,9.851 20.79,10.451L10.142,26.661C9.742,27.341 10.232,28.191 11.022,28.191L15.622,28.191L15.622,160" style="fill:none;stroke:rgb(44,44,44);stroke-width:2px;"/>
                    </g>
                </g>
            </g>
            <g id="g-root-cp_6_shape-6_1lvjb731lrn6yu-stroke" transform="matrix(1,0,0,1,344.383,104)">
                <g id="cp_6_shape-6_1lvjb731lrn6yu-stroke">
                    <g>
                        <path d="M27.622,160L27.622,316M15.622,316L15.622,160M27.622,160L27.622,28.191L32.302,28.191C33.082,28.191 33.572,27.341 33.182,26.661L22.459,10.448C22.063,9.849 21.184,9.851 20.79,10.451L10.142,26.661C9.742,27.341 10.232,28.191 11.022,28.191L15.622,28.191L15.622,160" style="fill:none;stroke:rgb(44,44,44);stroke-width:2px;"/>
                    </g>
                </g>
            </g>
            <g id="g-root-cp_4_shape-4_1_18k2str1lrn8js-stroke" transform="matrix(1,0,0,1,380,410)">
                <g id="cp_4_shape-4_1_18k2str1lrn8js-stroke">
                    <g>
                        <path d="M22,10C22,46 46,64.321 76,64.321L244,64.321C263.882,64.321 280,80.423 280,100.306M10,100.306L10,10" style="fill:none;stroke:rgb(44,44,44);stroke-width:2px;"/>
                    </g>
                </g>
            </g>
            <g id="g-root-cp_4_shape-4_2_v98rjj1lrn6yy-stroke" transform="matrix(1,0,0,1,380,500)">
                <g id="cp_4_shape-4_2_v98rjj1lrn6yy-stroke">
                    <g>
                        <path d="M10,142L10,10M280,10L280,142M10,142C10,161.882 26.118,178.008 46,178.008L244,178.008C263.882,178.008 280,161.898 280,142.016L280,142" style="fill:none;stroke:rgb(44,44,44);stroke-width:2px;"/>
                    </g>
                </g>
            </g>
            <g id="g-root-cp_6_shape-6_1_qtf9f31lrn7r8-stroke" transform="matrix(1,0,0,1,350,410)">
                <g id="cp_6_shape-6_1_qtf9f31lrn7r8-stroke">
                    <g>
                        <path d="M22,10L22,232M10,232L10,10" style="fill:none;stroke:rgb(44,44,44);stroke-width:2px;"/>
                    </g>
                </g>
            </g>
            <g id="g-root-cp_6_shape-6_2_dhyr1r1lrn9c6-stroke" transform="matrix(1,0,0,1,350,632)">
                <g id="cp_6_shape-6_2_dhyr1r1lrn9c6-stroke">
                    <g>
                        <path d="M22,10C22,46 46,64.321 76,64.321L274,64.321C293.882,64.321 310,80.423 310,100.306M10,100.306L10,10" style="fill:none;stroke:rgb(44,44,44);stroke-width:2px;"/>
                    </g>
                </g>
            </g>
            <g id="g-root-cp_6_shape-6_3_74prj1lrn7rc-stroke" transform="matrix(1,0,0,1,350,722)">
                <g id="cp_6_shape-6_3_74prj1lrn7rc-stroke">
                    <g>
                        <path d="M10,118L10,10M310,10L310,118M10,118C10,137.882 26.118,154.008 46,154.008L274,154.008C293.882,154.008 310,137.898 310,118.016L310,118" style="fill:none;stroke:rgb(44,44,44);stroke-width:2px;"/>
                    </g>
                </g>
            </g>
            <g id="g-root-ic_2_9htb1lrq0w0-stroke" transform="matrix(1,0,0,1,143,488)">
                <g id="ic_2_9htb1lrq0w0-stroke">
                    <g>
                        <path d="M38,50L30,50L30,26C30.389,23.758 31.898,21.871 34,21C36.102,21.871 37.611,23.758 38,26L38,50ZM16,43.694L16,27C16,25.343 17.343,24 19,24C20.657,24 22,25.343 22,27L22,40.352M26,38.176L26,20C26,15.582 31,11 34,11C37,11 42,15.582 42,20L42,38.176M30,36L17,43.072C14.599,44.068 13.025,46.401 13,49L30,49M38,49L55,49C54.974,46.401 53.4,44.069 51,43.072L38,36M34,29L34,33M16,49L14.316,54.052C14.219,54.272 14.246,54.527 14.387,54.722C14.527,54.917 14.761,55.022 15,55L23,55C23.239,55.022 23.473,54.917 23.613,54.722C23.754,54.527 23.781,54.272 23.684,54.052L22,49M52,43.694L52,27C52,25.343 50.657,24 49,24C47.343,24 46,25.343 46,27L46,40.352M52,49L53.684,54.052C53.781,54.272 53.754,54.527 53.613,54.722C53.473,54.917 53.239,55.022 53,55L45,55C44.761,55.022 44.527,54.917 44.387,54.722C44.246,54.527 44.219,54.272 44.316,54.052L46,49M30.132,50L28.292,56.044C28.203,56.269 28.236,56.524 28.38,56.719C28.524,56.914 28.759,57.02 29,57L39,57C39.242,57.019 39.477,56.913 39.621,56.718C39.766,56.523 39.8,56.268 39.712,56.042L37.896,50" style="fill:none;stroke:rgb(44,44,44);stroke-width:2px;"/>
                    </g>
                </g>
            </g>
            <g id="g-root-ic_alte_18ntncf1lrn6kl-stroke" transform="matrix(1,0,0,1,128,242)">
                <g id="ic_alte_18ntncf1lrn6kl-stroke">
                    <g>
                        <path d="M11.714,20.286C11.714,25.02 15.552,28.857 20.286,28.857C25.02,28.857 28.857,25.02 28.857,20.286C28.857,15.552 25.02,11.714 20.286,11.714C15.552,11.714 11.714,15.552 11.714,20.286M39.143,47.714C39.143,52.448 42.98,56.286 47.714,56.286C52.448,56.286 56.286,52.448 56.286,47.714C56.286,42.98 52.448,39.143 47.714,39.143C42.98,39.143 39.143,42.98 39.143,47.714M11.714,56.286L56.286,11.714" style="fill:none;stroke:rgb(44,44,44);stroke-width:2px;"/>
                    </g>
                </g>
            </g>
            <g id="g-root-ic_1_qn6ijz1lruadd-stroke" transform="matrix(1,0,0,1,491,488)">
                <g id="ic_1_qn6ijz1lruadd-stroke">
                    <g>
                        <path d="M33,23C33,29.627 38.373,35 45,35C51.627,35 57,29.627 57,23C57,16.373 51.627,11 45,11C38.373,11 33,16.373 33,23ZM45,17L45,29M51,23L39,23M31.732,56.638C26.932,51.824 28.634,48.074 31.24,45.468L32.922,43.786C34.597,42.112 37.311,42.112 38.986,43.786L46.266,51.066C46.859,51.66 47.116,52.511 46.949,53.334C46.783,54.157 46.215,54.841 45.438,55.158C36.118,58.967 25.422,56.814 18.302,49.694C11.182,42.574 9.029,31.878 12.838,22.558C13.155,21.781 13.839,21.213 14.662,21.047C15.485,20.88 16.336,21.137 16.93,21.73L24.21,29.01C25.884,30.685 25.884,33.399 24.21,35.074L22.528,36.756C19.928,39.356 16.172,41.064 11.358,36.264" style="fill:none;stroke:rgb(44,44,44);stroke-width:2px;"/>
                    </g>
                </g>
            </g>
            <g id="g-root-ic_1_18egj1r1lrrh8j-stroke" transform="matrix(1,0,0,1,158,710)">
                <g id="ic_1_18egj1r1lrrh8j-stroke">
                    <g>
                        <path d="M33,23C33,29.627 38.373,35 45,35C51.627,35 57,29.627 57,23C57,16.373 51.627,11 45,11C38.373,11 33,16.373 33,23ZM49.242,18.758L40.758,27.242M49.242,27.242L40.758,18.758M31.732,56.638C26.932,51.824 28.634,48.074 31.24,45.468L32.922,43.786C34.597,42.112 37.311,42.112 38.986,43.786L46.266,51.066C46.859,51.66 47.116,52.511 46.949,53.334C46.783,54.157 46.215,54.841 45.438,55.158C36.118,58.967 25.422,56.814 18.302,49.694C11.182,42.574 9.029,31.878 12.838,22.558C13.155,21.781 13.839,21.213 14.662,21.047C15.485,20.88 16.336,21.137 16.93,21.73L24.21,29.01C25.884,30.685 25.884,33.399 24.21,35.074L22.528,36.756C19.928,39.356 16.172,41.064 11.358,36.264" style="fill:none;stroke:rgb(44,44,44);stroke-width:2px;"/>
                    </g>
                </g>
            </g>
            <g id="g-root-ic_1_1uux5yn1lru7lw-stroke" transform="matrix(1,0,0,1,476,710)">
                <g id="ic_1_1uux5yn1lru7lw-stroke">
                    <g>
                        <path d="M13.008,26L55.008,26C55.008,26 57.008,26 57.008,28L57.008,52C57.008,52 57.008,54 55.008,54L13.008,54C13.008,54 11.008,54 11.008,52L11.008,28C11.008,28 11.008,26 13.008,26M15,22C15,20.895 15.895,20 17,20L51,20C52.105,20 53,20.895 53,22M19,16C19,14.895 19.895,14 21,14L47,14C48.105,14 49,14.895 49,16M11.008,37L22.008,26M57.008,37L46.008,26M11.008,43L22.008,54M57.008,43L46.008,54M27.008,40C27.008,43.866 30.142,47 34.008,47C37.874,47 41.008,43.866 41.008,40C41.008,36.134 37.874,33 34.008,33C30.142,33 27.008,36.134 27.008,40M19.008,40L21.008,40M47.008,40L49.008,40" style="fill:none;stroke:rgb(44,44,44);stroke-width:2px;"/>
                    </g>
                </g>
            </g>
            <g id="g-root-ic_3_v3mhrj1lrst1i-stroke" transform="matrix(1,0,0,1,506,242)">
                <g id="ic_3_v3mhrj1lrst1i-stroke">
                    <g>
                        <path d="M57,33.882C57.007,46.627 46.681,56.963 33.936,56.97C21.137,56.757 10.901,46.269 11,33.468C11.01,21.241 20.786,11.262 33.01,11C33.342,10.986 33.674,10.98 34.01,10.98C40.102,10.947 45.956,13.346 50.272,17.646C54.588,21.946 57.01,27.79 57,33.882L57,33.882ZM33.01,11C21.01,24 21.01,40.96 33.01,56.96M35.01,11C47.01,24 47.01,40.954 35.01,56.954M14.772,20.968L53.04,20.968M11.006,32.968L57,32.968M13.97,44.968L54.17,44.968" style="fill:none;stroke:rgb(44,44,44);stroke-width:2px;"/>
                    </g>
                </g>
            </g>
        </g>
    </g>
</svg>
