<?xml version="1.0" encoding="UTF-8" standalone="no"?>
<!DOCTYPE svg PUBLIC "-//W3C//DTD SVG 1.1//EN" "http://www.w3.org/Graphics/SVG/1.1/DTD/svg11.dtd">
<svg width="100%" height="100%" viewBox="0 0 1000 1000" version="1.1" xmlns="http://www.w3.org/2000/svg" xmlns:xlink="http://www.w3.org/1999/xlink" xml:space="preserve" xmlns:serif="http://www.serif.com/" style="fill-rule:evenodd;clip-rule:evenodd;stroke-linejoin:round;stroke-miterlimit:2;">
    <rect id="Artboard1" x="0" y="0" width="1000" height="1000" style="fill:none;"/>
    <g id="Artboard11" serif:id="Artboard1">
        <g transform="matrix(12.7176,0,0,12.7176,-1350.13,-2609.39)">
            <path d="M155.9,212.746C156.938,216.865 153.969,218.709 149.986,219.713C146,220.717 142.51,220.498 141.474,216.379C140.451,212.322 143.298,209.986 147.281,208.982C151.264,207.98 154.845,208.553 155.9,212.746Z" style="fill:white;fill-rule:nonzero;"/>
        </g>
        <g transform="matrix(12.7176,0,0,12.7176,-1350.13,-2609.39)">
            <path d="M150.384,209.555C149.533,209.555 148.571,209.688 147.525,209.951C144.677,210.67 141.483,212.325 142.443,216.135C143.195,219.121 145.352,219.848 149.742,218.742C155.241,217.357 155.451,215.058 154.931,212.99C154.341,210.646 152.896,209.555 150.384,209.555ZM146.509,221.215C143.336,221.215 141.26,219.627 140.504,216.623C139.455,212.462 141.836,209.322 147.037,208.012C152.318,206.686 155.814,208.308 156.87,212.502C157.893,216.563 155.658,219.314 150.23,220.682C148.81,221.041 147.592,221.215 146.509,221.215Z" style="fill:rgb(31,30,31);fill-rule:nonzero;"/>
        </g>
        <g transform="matrix(12.7176,0,0,12.7176,-1350.13,-2609.39)">
            <path d="M172.977,265.373C172.396,261.547 169.122,260.067 167.184,259.485C165.246,258.903 162.031,258.689 159.997,257.528C157.963,256.365 158.286,250.551 158.286,250.551L149.502,250.551C149.502,250.551 149.826,256.365 147.791,257.528C145.759,258.689 142.543,258.903 140.605,259.485C138.667,260.067 135.393,261.547 134.813,265.373C134.347,268.439 134.326,278.197 134.326,278.197L173.461,278.197C173.461,278.197 173.442,268.439 172.977,265.373Z" style="fill:white;fill-rule:nonzero;"/>
        </g>
        <g transform="matrix(12.7176,0,0,12.7176,-1350.13,-2609.39)">
            <path d="M135.332,277.197L172.455,277.197C172.436,274.641 172.351,267.91 171.988,265.523C171.521,262.445 168.962,261.063 166.896,260.443C166.28,260.258 165.489,260.106 164.65,259.945C162.931,259.615 160.981,259.242 159.501,258.395C157.528,257.27 157.259,253.523 157.26,251.551L150.528,251.551C150.529,253.523 150.26,257.27 148.287,258.395C146.808,259.242 144.858,259.615 143.139,259.945C142.3,260.106 141.509,260.258 140.894,260.443C138.827,261.063 136.268,262.445 135.801,265.523C135.438,267.912 135.352,274.641 135.332,277.197ZM173.461,279.197L134.326,279.197C134.061,279.197 133.806,279.092 133.618,278.904C133.431,278.717 133.325,278.461 133.326,278.195C133.327,277.795 133.353,268.326 133.824,265.223C134.311,262.016 136.616,259.637 140.318,258.528C141.031,258.313 141.872,258.153 142.762,257.981C144.328,257.682 146.104,257.34 147.294,256.66C148.313,256.076 148.618,252.703 148.504,250.607C148.488,250.332 148.587,250.064 148.775,249.865C148.965,249.664 149.228,249.551 149.502,249.551L158.286,249.551C158.561,249.551 158.823,249.664 159.013,249.863C159.201,250.064 159.3,250.332 159.284,250.607C159.17,252.703 159.475,256.076 160.493,256.658C161.686,257.34 163.461,257.682 165.027,257.981C165.917,258.153 166.758,258.313 167.472,258.528C171.173,259.637 173.479,262.016 173.965,265.225C174.437,268.326 174.46,277.795 174.461,278.195C174.462,278.461 174.356,278.717 174.169,278.904C173.981,279.092 173.727,279.197 173.461,279.197Z" style="fill:rgb(31,30,31);fill-rule:nonzero;"/>
        </g>
        <g transform="matrix(12.7176,0,0,12.7176,-1350.13,-2609.39)">
            <path d="M166.402,236.041C166.402,236.041 168.256,228.125 166.099,223.721C163.775,218.975 160.287,216.264 153.895,216.264C147.503,216.264 144.013,218.975 141.688,223.721C139.533,228.125 141.387,236.041 141.387,236.041C138.481,235.459 139.025,238.639 139.934,240.076C140.687,241.27 140.703,241.396 141.156,242.707C141.811,244.596 143.313,243.289 143.313,243.289C144.185,245.711 144.802,246.283 148.276,249.486C151.303,252.279 152.365,252.248 153.895,252.248C155.424,252.248 156.462,252.279 159.512,249.486C163,246.297 163.605,245.711 164.477,243.289C164.477,243.289 165.977,244.596 166.631,242.707C167.086,241.396 167.102,241.27 167.854,240.076C168.764,238.639 169.309,235.459 166.402,236.041Z" style="fill:white;fill-rule:nonzero;"/>
        </g>
        <g transform="matrix(12.7176,0,0,12.7176,-1350.13,-2609.39)">
            <path d="M143.313,242.289C143.396,242.289 143.481,242.299 143.564,242.32C143.884,242.404 144.142,242.639 144.253,242.949C145.044,245.146 145.565,245.627 148.954,248.75C151.66,251.248 152.509,251.248 153.795,251.248L153.945,251.248L153.994,252.248L153.994,251.248C155.267,251.248 156.107,251.248 158.836,248.748C162.346,245.54 162.757,245.115 163.535,242.95C163.647,242.64 163.905,242.404 164.225,242.32C164.543,242.238 164.884,242.316 165.134,242.535C165.247,242.629 165.45,242.729 165.534,242.729C165.518,242.726 165.602,242.624 165.686,242.379L165.784,242.095C166.179,240.955 166.275,240.704 167.008,239.543C167.495,238.772 167.73,237.578 167.483,237.129C167.455,237.077 167.396,236.971 167.052,236.971C166.916,236.971 166.766,236.988 166.599,237.021C166.265,237.088 165.922,236.98 165.685,236.736C165.447,236.492 165.352,236.145 165.429,235.813C165.446,235.737 167.174,228.189 165.2,224.161C162.834,219.326 159.452,217.264 153.895,217.264C148.336,217.264 144.954,219.326 142.587,224.161C140.611,228.197 142.343,235.736 142.36,235.813C142.438,236.144 142.342,236.492 142.105,236.736C141.868,236.98 141.522,237.088 141.19,237.021C141.023,236.988 140.873,236.971 140.737,236.971C140.394,236.971 140.334,237.077 140.307,237.129C140.059,237.578 140.293,238.772 140.779,239.541C141.515,240.708 141.612,240.961 142.008,242.107L142.102,242.379C142.186,242.624 142.27,242.725 142.295,242.744C142.357,242.729 142.579,242.601 142.656,242.534C142.84,242.374 143.074,242.289 143.313,242.289ZM153.994,253.248L153.944,253.248L153.845,252.248L153.795,253.248C151.979,253.248 150.657,253.045 147.599,250.221C144.571,247.432 143.598,246.533 142.779,244.664C142.614,244.704 142.438,244.729 142.254,244.729C141.816,244.729 140.741,244.563 140.211,243.033L140.116,242.759C139.76,241.725 139.723,241.615 139.088,240.609C138.472,239.635 137.782,237.565 138.555,236.163C138.892,235.551 139.452,235.157 140.164,235.022C139.723,232.533 139.015,226.909 140.79,223.281C143.506,217.736 147.548,215.264 153.895,215.264C160.241,215.264 164.282,217.736 166.997,223.281C168.774,226.909 168.066,232.533 167.625,235.021C168.337,235.157 168.897,235.551 169.235,236.164C170.008,237.567 169.315,239.637 168.698,240.611C168.067,241.611 168.03,241.719 167.675,242.748L167.575,243.035C167.046,244.563 165.972,244.729 165.534,244.729C165.35,244.729 165.174,244.704 165.009,244.664C164.163,246.588 163.144,247.52 160.187,250.225C157.107,253.045 155.793,253.248 153.994,253.248Z" style="fill:rgb(31,30,31);fill-rule:nonzero;"/>
        </g>
        <g transform="matrix(12.7176,0,0,12.7176,-1350.13,-2609.39)">
            <path d="M162.221,216.264C155.104,212.545 149.117,216.264 149.117,216.264C134.365,217.893 139.527,236.498 139.527,236.498L139.535,236.498C139.854,236.07 140.432,235.85 141.387,236.041C141.184,234.686 142.85,233.035 145.465,231.098C148.08,229.162 149.117,226.352 149.117,226.352C149.117,226.352 151.734,231.293 158.286,232.6C164.839,233.908 166.221,234.83 166.402,236.041C167.357,235.85 167.936,236.07 168.252,236.498L168.262,236.498C168.262,236.498 172.225,221.488 162.221,216.264Z" style="fill:white;fill-rule:nonzero;"/>
        </g>
        <g transform="matrix(12.7176,0,0,12.7176,-1350.13,-2609.39)">
            <path d="M155.66,215.61C152.104,215.61 149.669,217.098 149.645,217.113C149.519,217.191 149.375,217.24 149.227,217.258C145.835,217.632 143.313,219.006 141.729,221.34C138.785,225.686 139.679,232.309 140.216,235.015C140.307,234.999 140.402,234.987 140.502,234.98C141.003,233.36 142.862,231.781 144.869,230.295C147.198,228.57 148.17,226.029 148.18,226.004C148.318,225.635 148.66,225.381 149.053,225.355C149.444,225.33 149.817,225.537 150.001,225.884C150.099,226.066 152.508,230.428 158.481,231.619C163.912,232.703 166.267,233.576 167.076,234.972C167.247,234.973 167.405,234.987 167.553,235.012C168.199,231.442 169.328,221.104 161.758,217.149C159.803,216.129 157.752,215.61 155.66,215.61ZM168.262,237.498L168.252,237.498C167.935,237.498 167.637,237.348 167.448,237.092C167.352,236.963 167.022,236.938 166.598,237.021C166.331,237.075 166.052,237.017 165.827,236.859C165.604,236.701 165.454,236.459 165.413,236.189C165.292,235.383 162.966,234.554 158.091,233.58C153.415,232.647 150.617,230.002 149.255,228.308C148.623,229.369 147.591,230.768 146.06,231.902C143.104,234.092 142.395,235.207 142.37,235.771C142.394,235.856 142.406,235.947 142.406,236.041C142.406,236.593 141.959,237.041 141.406,237.041L141.387,237.041C141.321,237.041 141.256,237.034 141.191,237.021C141.027,236.988 140.879,236.972 140.746,236.972C140.429,236.972 140.36,237.064 140.337,237.095C140.148,237.348 139.852,237.498 139.535,237.498C139.086,237.498 138.684,237.197 138.563,236.766C138.448,236.351 135.796,226.539 140.07,220.225C141.963,217.429 144.897,215.771 148.797,215.294C149.53,214.888 152.119,213.61 155.66,213.61C158.077,213.61 160.44,214.205 162.684,215.377C173.273,220.908 169.398,236.108 169.229,236.753C169.112,237.191 168.716,237.498 168.262,237.498Z" style="fill:rgb(31,30,31);fill-rule:nonzero;"/>
        </g>
        <g transform="matrix(12.7176,0,0,12.7176,-1350.13,-2609.39)">
            <path d="M147.791,257.528C145.759,258.689 142.543,258.903 140.605,259.485C138.667,260.067 135.393,261.547 134.813,265.373C134.347,268.439 134.326,278.197 134.326,278.197L173.461,278.197C173.461,278.197 173.442,268.439 172.977,265.373C172.396,261.547 169.122,260.067 167.184,259.485C165.246,258.903 162.031,258.689 159.997,257.528C159.908,257.477 159.827,257.414 159.749,257.35L153.845,263.607L148.039,257.35C147.96,257.414 147.879,257.477 147.791,257.528Z" style="fill:white;fill-rule:nonzero;"/>
        </g>
        <g transform="matrix(12.7176,0,0,12.7176,-1350.13,-2609.39)">
            <path d="M135.332,277.197L172.455,277.197C172.436,274.641 172.351,267.91 171.988,265.523C171.521,262.445 168.962,261.063 166.896,260.443C166.28,260.258 165.489,260.106 164.65,259.945C163.091,259.646 161.343,259.311 159.926,258.619L154.572,264.295C154.383,264.494 154.12,264.607 153.845,264.607L153.841,264.607C153.563,264.607 153.3,264.49 153.111,264.289L147.856,258.623C146.443,259.313 144.697,259.646 143.139,259.945C142.3,260.106 141.509,260.258 140.894,260.443C138.827,261.063 136.268,262.445 135.801,265.523C135.438,267.912 135.352,274.641 135.332,277.197ZM173.461,279.197L134.326,279.197C134.061,279.197 133.806,279.092 133.618,278.904C133.431,278.717 133.325,278.461 133.326,278.195C133.327,277.795 133.353,268.326 133.824,265.223C134.311,262.016 136.616,259.637 140.318,258.528C141.031,258.313 141.872,258.153 142.762,257.981C144.328,257.682 146.104,257.34 147.294,256.66C147.338,256.636 147.372,256.604 147.407,256.574C147.816,256.242 148.414,256.283 148.772,256.671L153.851,262.145L159.021,256.664C159.384,256.281 159.979,256.242 160.386,256.578C160.418,256.606 160.449,256.636 160.486,256.654C161.686,257.34 163.461,257.682 165.027,257.981C165.917,258.153 166.758,258.313 167.472,258.528C171.173,259.637 173.479,262.016 173.965,265.225C174.437,268.326 174.46,277.795 174.461,278.195C174.462,278.461 174.356,278.717 174.169,278.904C173.981,279.092 173.727,279.197 173.461,279.197Z" style="fill:rgb(31,30,31);fill-rule:nonzero;"/>
        </g>
        <g transform="matrix(12.7176,0,0,12.7176,-1350.13,-2609.39)">
            <path d="M159.897,257.528C159.809,257.477 159.727,257.414 159.648,257.35C159.648,257.35 156.759,259.313 153.844,259.313C150.867,259.313 148.039,257.35 148.039,257.35C147.96,257.414 147.879,257.477 147.791,257.528C146.873,258.054 145.713,258.379 144.54,258.639L144.54,258.643L153.844,268.852L163.148,258.643L163.148,258.639C161.975,258.379 160.814,258.054 159.897,257.528Z" style="fill:white;fill-rule:nonzero;"/>
        </g>
        <g transform="matrix(12.7176,0,0,12.7176,-1350.13,-2609.39)">
            <path d="M146.392,259.189L153.844,267.367L161.296,259.189C160.735,259.016 160.166,258.801 159.644,258.528C158.598,259.136 156.259,260.313 153.844,260.313C151.389,260.313 149.078,259.143 148.04,258.529C147.519,258.801 146.951,259.016 146.392,259.189ZM153.844,269.852C153.563,269.852 153.294,269.734 153.104,269.525L143.801,259.317C143.633,259.132 143.54,258.891 143.54,258.643C143.54,258.175 143.866,257.764 144.324,257.662C145.249,257.457 146.423,257.158 147.294,256.66C147.338,256.636 147.372,256.604 147.407,256.574C147.753,256.293 148.242,256.274 148.608,256.528C148.634,256.546 151.228,258.313 153.844,258.313C156.421,258.313 159.06,256.541 159.086,256.521C159.455,256.274 159.941,256.296 160.285,256.578C160.317,256.606 160.35,256.636 160.387,256.654C161.265,257.158 162.439,257.457 163.364,257.662C163.822,257.764 164.148,258.171 164.148,258.639C164.148,258.887 164.056,259.132 163.888,259.317L154.583,269.525C154.394,269.734 154.125,269.852 153.844,269.852Z" style="fill:rgb(31,30,31);fill-rule:nonzero;"/>
        </g>
        <g transform="matrix(12.7176,0,0,12.7176,-1350.13,-2609.39)">
            <path d="M157.167,248.457C156.614,248.457 156.167,248.01 156.167,247.457C156.167,246.904 156.614,246.457 157.167,246.457C162.025,246.457 165.441,245.432 167.047,243.492C168.336,241.935 168.041,240.292 168.028,240.223C167.926,239.684 168.275,239.158 168.813,239.051C169.358,238.945 169.876,239.285 169.987,239.822C170.01,239.927 170.502,242.411 168.626,244.72C166.611,247.199 162.756,248.457 157.167,248.457Z" style="fill:rgb(31,30,31);fill-rule:nonzero;"/>
        </g>
        <g transform="matrix(12.7176,0,0,12.7176,-1350.13,-2609.39)">
            <path d="M171.642,238.303C171.642,235.252 170.379,232.777 168.818,232.762L167.801,232.762L167.801,233.102C166.652,233.879 165.734,235.91 165.734,238.303C165.734,240.695 166.652,242.727 167.801,243.504L167.801,243.846L168.818,243.846L168.818,243.844C170.379,243.826 171.642,241.354 171.642,238.303Z" style="fill:white;fill-rule:nonzero;"/>
        </g>
        <g transform="matrix(12.7176,0,0,12.7176,-1350.13,-2609.39)">
            <path d="M168.554,242.846L168.811,242.846C169.559,242.83 170.642,241.057 170.642,238.303C170.642,235.543 169.556,233.77 168.809,233.762L168.552,233.762C168.496,233.825 168.433,233.883 168.36,233.931C167.553,234.477 166.734,236.154 166.734,238.303C166.734,240.451 167.553,242.129 168.36,242.675C168.433,242.724 168.498,242.781 168.554,242.846ZM168.818,244.846L167.801,244.846C167.298,244.846 166.882,244.475 166.812,243.992C165.553,242.838 164.734,240.64 164.734,238.303C164.734,235.967 165.553,233.768 166.812,232.613C166.883,232.131 167.299,231.762 167.801,231.762L168.818,231.762C171.003,231.784 172.642,234.597 172.642,238.303C172.642,242.008 171.003,244.82 168.829,244.844C168.825,244.844 168.822,244.846 168.818,244.846Z" style="fill:rgb(31,30,31);fill-rule:nonzero;"/>
        </g>
        <g transform="matrix(12.7176,0,0,12.7176,-1350.13,-2609.39)">
            <path d="M168.891,242.678C168.891,243.4 168.42,243.986 167.839,243.986L166.786,243.986C166.205,243.986 165.734,243.4 165.734,242.678L165.734,233.928C165.734,233.205 166.205,232.619 166.786,232.619L167.839,232.619C168.42,232.619 168.891,233.205 168.891,233.928L168.891,242.678Z" style="fill:white;fill-rule:nonzero;"/>
        </g>
        <g transform="matrix(12.7176,0,0,12.7176,-1350.13,-2609.39)">
            <path d="M167.78,233.605L166.786,233.619C166.815,233.625 166.734,233.737 166.734,233.928L166.734,242.678C166.734,242.868 166.815,242.98 166.846,243L167.794,242.987C167.83,242.949 167.891,242.842 167.891,242.678L167.891,233.928C167.891,233.737 167.81,233.625 167.78,233.605ZM167.839,244.986L166.786,244.986C165.655,244.986 164.734,243.951 164.734,242.678L164.734,233.928C164.734,232.654 165.655,231.619 166.786,231.619L167.839,231.619C168.97,231.619 169.891,232.654 169.891,233.928L169.891,242.678C169.891,243.951 168.97,244.986 167.839,244.986Z" style="fill:rgb(31,30,31);fill-rule:nonzero;"/>
        </g>
        <g transform="matrix(12.7176,0,0,12.7176,-1350.13,-2609.39)">
            <path d="M136.148,238.303C136.148,235.252 137.41,232.777 138.971,232.762L139.987,232.762L139.987,233.102C141.137,233.879 142.055,235.91 142.055,238.303C142.055,240.695 141.137,242.727 139.987,243.504L139.987,243.846L138.971,243.846L138.971,243.844C137.41,243.826 136.148,241.354 136.148,238.303Z" style="fill:white;fill-rule:nonzero;"/>
        </g>
        <g transform="matrix(12.7176,0,0,12.7176,-1350.13,-2609.39)">
            <path d="M138.971,233.762C138.234,233.77 137.148,235.543 137.148,238.303C137.148,241.063 138.234,242.836 138.981,242.844L139.235,242.844C139.291,242.78 139.355,242.723 139.428,242.675C140.236,242.129 141.055,240.451 141.055,238.303C141.055,236.154 140.236,234.477 139.428,233.931C139.355,233.883 139.291,233.825 139.235,233.762L138.971,233.762ZM139.987,244.846L138.971,244.846C136.786,244.819 135.148,242.007 135.148,238.303C135.148,234.596 136.787,231.784 138.961,231.762L139.987,231.762C140.252,231.762 140.507,231.866 140.694,232.054C140.847,232.206 140.945,232.402 140.977,232.613C142.236,233.767 143.055,235.966 143.055,238.303C143.055,240.641 142.236,242.838 140.977,243.992C140.905,244.475 140.49,244.846 139.987,244.846Z" style="fill:rgb(31,30,31);fill-rule:nonzero;"/>
        </g>
        <g transform="matrix(12.7176,0,0,12.7176,-1350.13,-2609.39)">
            <path d="M138.897,242.678C138.897,243.4 139.369,243.986 139.949,243.986L141.002,243.986C141.584,243.986 142.055,243.4 142.055,242.678L142.055,233.928C142.055,233.205 141.584,232.619 141.002,232.619L139.949,232.619C139.369,232.619 138.897,233.205 138.897,233.928L138.897,242.678Z" style="fill:white;fill-rule:nonzero;"/>
        </g>
        <g transform="matrix(12.7176,0,0,12.7176,-1350.13,-2609.39)">
            <path d="M140.944,233.605L139.949,233.619C139.979,233.625 139.897,233.737 139.897,233.928L139.897,242.678C139.897,242.868 139.979,242.98 140.009,243L140.958,242.987C140.994,242.949 141.055,242.842 141.055,242.678L141.055,233.928C141.055,233.737 140.974,233.625 140.944,233.605ZM141.002,244.986L139.949,244.986C138.818,244.986 137.897,243.951 137.897,242.678L137.897,233.928C137.897,232.654 138.818,231.619 139.949,231.619L141.002,231.619C142.134,231.619 143.055,232.654 143.055,233.928L143.055,242.678C143.055,243.951 142.134,244.986 141.002,244.986Z" style="fill:rgb(31,30,31);fill-rule:nonzero;"/>
        </g>
        <g transform="matrix(12.7176,0,0,12.7176,-1350.13,-2609.39)">
            <path d="M168.877,234.199C168.324,234.199 167.877,233.752 167.877,233.199C167.877,225.489 161.604,219.217 153.895,219.217C146.184,219.217 139.91,225.489 139.91,233.199C139.91,233.752 139.463,234.199 138.91,234.199C138.357,234.199 137.91,233.752 137.91,233.199C137.91,224.387 145.081,217.217 153.895,217.217C162.707,217.217 169.877,224.387 169.877,233.199C169.877,233.752 169.43,234.199 168.877,234.199Z" style="fill:rgb(31,30,31);fill-rule:nonzero;"/>
        </g>
        <g transform="matrix(12.7176,0,0,12.7176,-1350.13,-2609.39)">
            <path d="M159.008,247.475C159.008,248.125 158.43,248.652 157.717,248.652L153.307,248.652C152.596,248.652 152.016,248.125 152.016,247.475L152.016,247.439C152.016,246.787 152.596,246.262 153.307,246.262L157.717,246.262C158.43,246.262 159.008,246.787 159.008,247.439L159.008,247.475Z" style="fill:white;fill-rule:nonzero;"/>
        </g>
        <g transform="matrix(12.7176,0,0,12.7176,-1350.13,-2609.39)">
            <path d="M153.307,247.262C153.132,247.262 153.016,247.369 153.016,247.439C153.016,247.547 153.132,247.652 153.307,247.652L157.717,247.652C157.895,247.652 158.008,247.547 158.008,247.475C158.008,247.367 157.895,247.262 157.717,247.262L153.307,247.262ZM157.717,249.652L153.307,249.652C152.043,249.652 151.016,248.676 151.016,247.475C151.016,246.238 152.043,245.262 153.307,245.262L157.717,245.262C158.98,245.262 160.008,246.238 160.008,247.439C160.008,248.676 158.98,249.652 157.717,249.652Z" style="fill:rgb(31,30,31);fill-rule:nonzero;"/>
        </g>
        <g transform="matrix(12.7176,0,0,12.7176,-1350.13,-2609.39)">
            <path d="M163.891,276.652L125.064,276.652L125.6,281.65L163.891,281.65L163.891,276.652Z" style="fill:white;fill-rule:nonzero;"/>
        </g>
        <g transform="matrix(12.7176,0,0,12.7176,-1350.13,-2609.39)">
            <path d="M126.498,280.65L162.891,280.65L162.891,277.652L126.177,277.652L126.498,280.65ZM163.891,282.65L125.6,282.65C125.089,282.65 124.66,282.266 124.605,281.758L124.07,276.76C124.04,276.477 124.131,276.195 124.32,275.984C124.511,275.773 124.78,275.652 125.064,275.652L163.891,275.652C164.443,275.652 164.891,276.102 164.891,276.652L164.891,281.65C164.891,282.203 164.443,282.65 163.891,282.65Z" style="fill:rgb(31,30,31);fill-rule:nonzero;"/>
        </g>
        <g transform="matrix(12.7176,0,0,12.7176,-1350.13,-2609.39)">
            <path d="M156.988,281.566L117.008,281.566L113.932,251.299L153.913,251.299L156.988,281.566Z" style="fill:white;fill-rule:nonzero;"/>
        </g>
        <g transform="matrix(12.7176,0,0,12.7176,-1350.13,-2609.39)">
            <path d="M117.911,280.566L155.882,280.566L153.01,252.299L115.038,252.299L117.911,280.566ZM157.008,282.566L117.008,282.566C116.495,282.566 116.064,282.178 116.013,281.668L112.937,251.4C112.908,251.119 113,250.838 113.189,250.629C113.379,250.418 113.648,250.299 113.932,250.299L153.913,250.299C154.426,250.299 154.856,250.688 154.908,251.197L157.963,281.268C157.992,281.363 158.008,281.463 158.008,281.566C158.008,282.119 157.561,282.566 157.008,282.566Z" style="fill:rgb(31,30,31);fill-rule:nonzero;"/>
        </g>
        <g transform="matrix(12.7176,0,0,12.7176,-1350.13,-2609.39)">
            <path d="M143.141,266.432C143.141,270.674 139.701,274.113 135.46,274.113C131.219,274.113 127.779,270.674 127.779,266.432C127.779,262.191 131.219,258.753 135.46,258.753C139.701,258.753 143.141,262.191 143.141,266.432Z" style="fill:white;fill-rule:nonzero;"/>
        </g>
        <g transform="matrix(12.7176,0,0,12.7176,-1350.13,-2609.39)">
            <path d="M135.46,259.753C131.776,259.753 128.779,262.75 128.779,266.432C128.779,270.115 131.776,273.113 135.46,273.113C139.144,273.113 142.141,270.115 142.141,266.432C142.141,262.75 139.144,259.753 135.46,259.753ZM135.46,275.113C130.673,275.113 126.779,271.219 126.779,266.432C126.779,261.646 130.673,257.753 135.46,257.753C140.246,257.753 144.141,261.646 144.141,266.432C144.141,271.219 140.246,275.113 135.46,275.113Z" style="fill:rgb(31,30,31);fill-rule:nonzero;"/>
        </g>
        <g transform="matrix(12.7176,0,0,12.7176,-1350.13,-2609.39)">
            <rect x="134.336" y="261.406" width="2.248" height="6.08" style="fill:white;fill-rule:nonzero;"/>
        </g>
        <g transform="matrix(12.7176,0,0,12.7176,-1350.13,-2609.39)">
            <path d="M135.336,266.486L135.584,266.486L135.584,262.406L135.336,262.406L135.336,266.486ZM136.584,268.486L134.336,268.486C133.783,268.486 133.336,268.039 133.336,267.486L133.336,261.406C133.336,260.854 133.783,260.406 134.336,260.406L136.584,260.406C137.137,260.406 137.584,260.854 137.584,261.406L137.584,267.486C137.584,268.039 137.137,268.486 136.584,268.486Z" style="fill:rgb(31,30,31);fill-rule:nonzero;"/>
        </g>
        <g transform="matrix(12.7176,0,0,12.7176,-1350.13,-2609.39)">
            <rect x="134.336" y="269.422" width="2.248" height="2.037" style="fill:white;fill-rule:nonzero;"/>
        </g>
        <g transform="matrix(12.7176,0,0,12.7176,-1350.13,-2609.39)">
            <path d="M136.584,272.459L134.336,272.459C133.783,272.459 133.336,272.012 133.336,271.459L133.336,269.422C133.336,268.871 133.783,268.422 134.336,268.422L136.584,268.422C137.137,268.422 137.584,268.871 137.584,269.422L137.584,271.459C137.584,272.012 137.137,272.459 136.584,272.459Z" style="fill:rgb(31,30,31);fill-rule:nonzero;"/>
        </g>
    </g>
</svg>
