<?xml version="1.0" encoding="UTF-8"?> <svg xmlns="http://www.w3.org/2000/svg" xmlns:xlink="http://www.w3.org/1999/xlink" width="309px" height="82px" viewBox="0 0 309 82" version="1.1"><!-- Generator: Sketch 58 (84663) - https://sketch.com --><title>SIPTRUNK</title><desc>Created with Sketch.</desc><g id="Page-1" stroke="none" stroke-width="1" fill="none" fill-rule="evenodd"><g id="BCMone" transform="translate(-531.000000, -1435.000000)" fill-rule="nonzero"><g id="SIPTRUNK" transform="translate(531.000000, 1435.000000)"><polygon id="Path" fill="#00B5EC" points="117.03 52.86 117.03 25.01 112.03 25.01 112.03 17.22 117.03 17.22 117.03 0.48 125.53 0.48 125.53 17.22 130.53 17.22 130.53 25.01 125.53 25.01 125.53 52.86"></polygon><path d="M138.27,52.86 L138.27,30.4 C138.27,22.64 143.69,17.22 151.45,17.22 L154.27,17.22 L154.27,25 L152.16,25 C150.711214,24.9338454 149.301472,25.4804441 148.275958,26.505958 C147.250444,27.531472 146.703845,28.9412139 146.77,30.39 L146.77,52.86 L138.27,52.86 Z" id="Path" fill="#00B5EC"></path><path d="M180.73,53.75 C169.5,53.75 161.66,46.06 161.66,35.04 L161.66,17.22 L170.16,17.22 L170.16,35 C170.040491,38.9169842 172.061937,42.5886731 175.435627,44.5824792 C178.809317,46.5762853 183.000683,46.5762853 186.374373,44.5824792 C189.748063,42.5886731 191.769509,38.9169842 191.65,35 L191.65,17.22 L200.16,17.22 L200.16,35 C200.16,46.6 190.07,53.75 180.73,53.75 Z" id="Path" fill="#00B5EC"></path><path d="M240.75,52.86 L240.75,35 C240.75,28.67 236.23,24.07 230.01,24.07 C227.11465,24.0276104 224.327996,25.171549 222.297524,27.2360191 C220.267053,29.3004891 219.169542,32.1057526 219.26,35 L219.26,52.86 L210.76,52.86 L210.76,35 C210.76,23.44 220.84,16.29 230.18,16.29 C241.41,16.29 249.25,23.98 249.25,35 L249.25,52.86 L240.75,52.86 Z" id="Path" fill="#00B5EC"></path><polygon id="Path" fill="#00B5EC" points="288.02 52.86 280.81 33.28 268.72 46.35 268.72 52.86 260.21 52.86 260.21 0.48 268.72 0.48 268.72 35.87 286.04 17.22 295.78 17.22 286.99 26.65 296.43 52.86"></polygon><path d="M1.88,53.65 L1.88,46.59 L26.66,46.59 C27.7113243,46.626533 28.7307548,46.2256178 29.475549,45.4827187 C30.2203432,44.7398197 30.6238543,43.7214139 30.59,42.67 C30.5856012,41.6460964 30.1638231,40.6682702 29.4220996,39.962406 C28.680376,39.2565419 27.6828656,38.8836966 26.66,38.93 L11.76,38.93 C5.68486775,38.93 0.76,34.0051322 0.76,27.93 C0.830212999,21.8841898 5.71418975,17.000213 11.76,16.93 L33.76,16.93 L33.76,24 L12.68,24 C10.5647494,24 8.85,25.7147494 8.85,27.83 C8.85,29.9452506 10.5647494,31.66 12.68,31.66 L27.58,31.66 C30.5080402,31.6247675 33.3264506,32.7723755 35.3970375,34.8429625 C37.4676245,36.9135494 38.6152325,39.7319598 38.58,42.66 C38.4325055,48.6729785 33.5929785,53.5125055 27.58,53.66 L1.88,53.65 Z" id="Path" fill="#0A3F62"></path><path d="M46.27,53.65 L46.27,17 L55,17 L55,53.65 L46.27,53.65 Z M50.82,11.59 C47.7175856,11.5469794 45.2130206,9.04241441 45.17,5.94 C45.2247598,2.8730547 47.7529757,0.429858464 50.82,0.48 C52.2729986,0.463763853 53.6712244,1.03379699 54.6987137,2.06128628 C55.726203,3.08877558 56.2962361,4.48700142 56.28,5.94 C56.3301415,9.00702429 53.8869453,11.5352402 50.82,11.59 Z" id="Shape" fill="#0A3F62"></path><path d="M99.82,49.22 C97.9776063,51.0470874 95.8015512,52.5034488 93.41,53.51 C90.9249342,54.5653385 88.249797,55.0996852 85.55,55.08 C84.6992777,55.0831963 83.849738,55.0163034 83.01,54.88 C82.23,54.74 81.47,54.62 80.72,54.52 L82.65,46.41 C83.1002115,46.523262 83.5580973,46.6034755 84.02,46.65 C84.5282683,46.7031715 85.038958,46.7298742 85.55,46.73 C87.1136573,46.7380707 88.6623133,46.4249359 90.1,45.81 C92.9195488,44.6037362 95.1702701,42.3637496 96.39,39.55 C97.629592,36.6502542 97.629592,33.3697458 96.39,30.47 C95.1702701,27.6562504 92.9195488,25.4162638 90.1,24.21 C87.1907126,22.9831789 83.9092874,22.9831789 81,24.21 C78.1794399,25.4252375 75.9220867,27.66116 74.68,30.47 C74.0336531,31.8970187 73.6930223,33.4434825 73.68,35.01 L73.68,78.49 L65.33,70.83 L65.33,35 C65.3436598,32.3063003 65.9121433,29.6442996 67,27.18 C69.0510814,22.3619937 72.9005681,18.5340325 77.73,16.51 C82.7609323,14.4166631 88.4190677,14.4166631 93.45,16.51 C98.2822861,18.526277 102.131154,22.3571929 104.17,27.18 C106.263348,32.1901291 106.263348,37.8298709 104.17,42.84 C103.140253,45.2246809 101.663702,47.390289 99.82,49.22 L99.82,49.22 Z" id="Path" fill="#0A3F62"></path><path d="M89,68 L92.53,78.52 L91.45,78.52 L90.3,75.08 L85.84,75.08 L83.84,78.52 L82.67,78.52 L88.77,68 L89,68 Z M88.67,70.2 L86.43,74.08 L90,74.08 L88.67,70.2 Z" id="Shape" fill="#0A3F62"></path><path d="M99.59,68 L100.94,68 C101.840129,67.9558847 102.742031,68.036652 103.62,68.24 C104.075779,68.388619 104.471855,68.6795419 104.75,69.07 C105.042051,69.4773469 105.193042,69.9689461 105.18,70.47 C105.188866,71.0091258 105.02794,71.5373844 104.72,71.98 C104.421161,72.4305944 103.992104,72.7794215 103.49,72.98 C104.071358,73.1480445 104.583237,73.498647 104.95,73.98 C105.305121,74.4481784 105.491862,75.0224957 105.48,75.61 C105.495229,76.1953935 105.338799,76.7724453 105.03,77.27 C104.737205,77.7220794 104.310753,78.0716304 103.81,78.27 C102.954502,78.5249973 102.061298,78.629881 101.17,78.58 L98.17,78.58 L99.59,68 Z M99.89,73.52 L99.35,77.52 L100.78,77.52 C101.448897,77.5388276 102.118153,77.4986723 102.78,77.4 C103.234669,77.3187454 103.651552,77.0945394 103.97,76.76 C104.483952,76.0849188 104.516017,75.1590196 104.05,74.45 C103.768392,74.1177814 103.391301,73.8803532 102.97,73.77 C102.240362,73.5733946 101.48503,73.4890942 100.73,73.52 L99.89,73.52 Z M100.51,68.99 L100.03,72.49 C100.24,72.49 100.47,72.49 100.74,72.49 C101.414494,72.5157431 102.088957,72.4381798 102.74,72.26 C103.140803,72.1312267 103.490751,71.879264 103.74,71.54 C103.965425,71.2216037 104.084428,70.8400939 104.08,70.45 C104.112737,70.0015281 103.907746,69.5687694 103.54,69.31 C102.814368,68.9909602 102.018977,68.86356 101.23,68.94 L100.51,68.99 Z" id="Shape" fill="#0A3F62"></path><path d="M117.5,69.42 L116.86,70.3 C115.848474,69.290874 114.478815,68.722879 113.05,68.72 C112.134426,68.7162134 111.234083,68.9542351 110.44,69.41 C109.65466,69.8358978 109.001003,70.4688038 108.55,71.24 C108.096928,71.9840815 107.85815,72.838835 107.86,73.71 C107.84767,74.444573 108.030566,75.1692531 108.39,75.81 C108.7479,76.4259825 109.275585,76.9258941 109.91,77.25 C110.613884,77.603236 111.39254,77.7816066 112.18,77.77 C113.495777,77.7628009 114.773462,77.3275453 115.82,76.53 L116.41,77.37 C115.744074,77.8283614 115.021341,78.1981317 114.26,78.47 C113.584902,78.6683895 112.883528,78.7628053 112.18,78.75 C110.903122,78.8082329 109.64539,78.4231406 108.62,77.66 C107.422507,76.7230743 106.745909,75.2695047 106.8,73.75 C106.770249,72.1264932 107.431916,70.5668497 108.62,69.46 C110.455494,67.7821564 113.067523,67.2551344 115.41,68.09 C116.17961,68.4066855 116.887168,68.8569491 117.5,69.42 L117.5,69.42 Z" id="Path" fill="#0A3F62"></path><polygon id="Path" fill="#0A3F62" points="129.89 68 129.89 78.52 128.89 78.52 128.89 71.27 124.32 78.52 124.05 78.52 121.34 71 119.18 78.51 118.11 78.51 121.11 67.99 121.29 67.99 124.36 76.54 129.68 67.99"></polygon><path d="M142.49,67.7 C143.811486,67.6647187 145.09011,68.1703894 146.03,69.1 C146.969291,70.0260413 147.480236,71.3015913 147.44,72.62 C147.475305,74.2618929 146.826981,75.8446726 145.65,76.99 C144.462809,78.1623874 142.847808,78.7982714 141.18,78.75 C139.831274,78.8164968 138.514695,78.3245882 137.54,77.39 C136.611712,76.4472627 136.115685,75.161939 136.17,73.84 C136.16262,72.7489485 136.445632,71.6755746 136.99,70.73 C137.524168,69.7922761 138.310613,69.0231533 139.26,68.51 C140.248235,67.9645393 141.361318,67.6854072 142.49,67.7 L142.49,67.7 Z M142.49,68.7 C141.55115,68.6819237 140.623867,68.9094356 139.8,69.36 C139.01115,69.7957391 138.35994,70.4434851 137.92,71.23 C137.46573,72.0101392 137.227558,72.8972416 137.23,73.8 C137.21835,74.5244312 137.390365,75.2400123 137.73,75.88 C138.047965,76.473989 138.530614,76.9635819 139.12,77.29 C139.757769,77.6249316 140.469759,77.7934702 141.19,77.78 C142.112227,77.7863675 143.019679,77.5482907 143.82,77.09 C144.615702,76.6475281 145.273335,75.9933561 145.72,75.2 C146.176964,74.399137 146.414945,73.4920483 146.41,72.57 C146.468208,71.4198528 145.98317,70.3090787 145.1,69.57 C144.358953,68.9676266 143.424344,68.6549059 142.47,68.69 L142.49,68.7 Z" id="Shape" fill="#0A3F62"></path><path d="M149.73,70.71 L150.73,70.71 L150.57,71.92 C151.222449,71.0484733 152.241456,70.5278938 153.33,70.51 C154.071809,70.4593436 154.799813,70.7287048 155.33,71.25 C155.841669,71.786248 156.109404,72.509855 156.07,73.25 C156.05099,73.8127397 155.997557,74.3737885 155.91,74.93 L155.43,78.5 L154.43,78.5 L154.91,74.93 C154.993034,74.3700881 155.043121,73.8057836 155.06,73.24 C155.085029,72.7513553 154.907812,72.2739538 154.57,71.92 C154.225863,71.5785497 153.754249,71.3971595 153.27,71.42 C152.750915,71.4135882 152.240835,71.5558553 151.8,71.83 C151.375223,72.1017429 151.03015,72.4813231 150.8,72.93 C150.485721,73.6295018 150.289725,74.3763166 150.22,75.14 L149.78,78.5 L148.78,78.5 L149.73,70.71 Z" id="Path" fill="#0A3F62"></path><path d="M165.66,74.8 L158.719992,74.8 C158.661459,75.5933882 158.920445,76.3775426 159.44,76.98 C159.960683,77.5207206 160.690351,77.8089393 161.44,77.77 C161.968166,77.7748631 162.490796,77.662139 162.97,77.44 C163.431025,77.2041575 163.828804,76.8612446 164.13,76.44 L164.87,77.05 C164.473197,77.546104 163.966539,77.9432141 163.39,78.21 C162.763519,78.5000198 162.080321,78.6469073 161.39,78.64 C160.346985,78.7145821 159.329238,78.2963806 158.64,77.51 C158.043675,76.7903518 157.718174,75.8846086 157.719992,74.95 C157.726349,74.1649915 157.940252,73.395633 158.34,72.72 C159.134096,71.3152886 160.626398,70.4505187 162.24,70.46 C163.171182,70.4259333 164.072905,70.7895312 164.719992,71.46 C165.388569,72.1493476 165.749343,73.0801441 165.719992,74.04 C165.71398,74.2942434 165.69395,74.5479616 165.66,74.8 Z M164.74,73.93 C164.73969,73.259921 164.469322,72.6182479 163.99,72.15 C163.513985,71.6904558 162.871166,71.4448842 162.21,71.47 C161.470613,71.4547648 160.746745,71.68317 160.15,72.12 C159.548493,72.5742656 159.107191,73.2081995 158.89,73.93 L164.74,73.93 Z" id="Shape" fill="#0A3F62"></path><path d="M182.17,69.42 L181.53,70.3 C180.517247,69.2927133 179.14838,68.7250468 177.72,68.72 C176.804426,68.7162134 175.904083,68.9542351 175.11,69.41 C174.32466,69.8358978 173.671003,70.4688038 173.22,71.24 C172.766928,71.9840815 172.52815,72.838835 172.53,73.71 C172.51767,74.444573 172.700566,75.1692531 173.06,75.81 C173.415165,76.4281413 173.943577,76.9287419 174.58,77.25 C175.283884,77.603236 176.06254,77.7816066 176.85,77.77 C178.165777,77.7628009 179.443462,77.3275453 180.49,76.53 L181.08,77.37 C180.414074,77.8283614 179.691341,78.1981317 178.93,78.47 C178.254902,78.6683895 177.553528,78.7628053 176.85,78.75 C175.573122,78.8082329 174.31539,78.4231406 173.29,77.66 C172.092507,76.7230743 171.415909,75.2695047 171.47,73.75 C171.440249,72.1264932 172.101916,70.5668497 173.29,69.46 C175.125494,67.7821564 177.737523,67.2551344 180.08,68.09 C180.84961,68.4066855 181.557168,68.8569491 182.17,69.42 L182.17,69.42 Z" id="Path" fill="#0A3F62"></path><path d="M187.67,70.51 C188.307877,70.5002897 188.936584,70.6626481 189.49,70.98 C190.038848,71.2934729 190.489128,71.7541443 190.79,72.31 C191.105473,72.8999526 191.263883,73.5611392 191.25,74.23 C191.25278,75.0249355 191.049506,75.8070242 190.66,76.5 C190.285173,77.1763994 189.731691,77.7367995 189.06,78.12 C188.370508,78.506965 187.59054,78.7036826 186.8,78.69 C185.837939,78.7324848 184.902119,78.3697638 184.22,77.69 C183.541766,76.9946403 183.180038,76.0505304 183.22,75.08 C183.213151,74.2737719 183.420185,73.4801417 183.82,72.78 C184.20236,72.091393 184.766107,71.5207288 185.45,71.13 C186.122518,70.7315084 186.888324,70.5176348 187.67,70.51 L187.67,70.51 Z M187.67,71.46 C187.05643,71.4572887 186.452928,71.6159234 185.92,71.92 C185.389733,72.2219642 184.953577,72.6650436 184.66,73.2 C184.366292,73.7506134 184.215031,74.3659688 184.22,74.99 C184.188308,75.7326861 184.463085,76.4557844 184.98,76.99 C185.508515,77.5168153 186.234655,77.796379 186.98,77.76 C188.204489,77.7804618 189.335235,77.106661 189.9,76.02 C190.198429,75.4635705 190.353113,74.8413986 190.35,74.21 C190.36226,73.7119491 190.245111,73.2192354 190.01,72.78 C189.797043,72.3615693 189.466967,72.0141209 189.06,71.78 C188.624707,71.5458309 188.133659,71.4351722 187.64,71.46 L187.67,71.46 Z" id="Shape" fill="#0A3F62"></path><path d="M193.71,70.71 L194.71,70.71 L194.57,71.81 C194.86319,71.3853076 195.25871,71.0413777 195.72,70.81 C196.160681,70.5884062 196.646746,70.4720244 197.14,70.47 C198.229854,70.4315469 199.202963,71.1479207 199.49,72.2 C199.816092,71.6731627 200.265751,71.2338019 200.8,70.92 C201.276812,70.6310932 201.822519,70.4756704 202.38,70.47 C203.046101,70.4413718 203.69367,70.6934512 204.165109,71.1648908 C204.636549,71.6363303 204.888628,72.2838987 204.86,72.95 C204.851043,73.361618 204.817651,73.7723408 204.76,74.18 L204.21,78.45 L203.21,78.45 L203.71,74.72 C203.799278,74.1505803 203.852717,73.5761169 203.87,73 C203.883452,72.5801241 203.720216,72.1738485 203.42,71.88 C203.109397,71.5740566 202.685564,71.4110438 202.25,71.43 C201.730711,71.43 201.225431,71.5984269 200.81,71.91 C200.379167,72.1919538 200.03342,72.5861051 199.81,73.05 C199.605137,73.5883148 199.464172,74.1488168 199.39,74.72 L198.88,78.45 L197.88,78.45 L198.45,74.18 C198.503666,73.8089469 198.533727,73.4348615 198.54,73.06 C198.563993,72.6166022 198.40493,72.1827926 198.1,71.86 C197.788734,71.5550876 197.365366,71.3922537 196.93,71.41 C196.526447,71.4087244 196.128535,71.5047719 195.77,71.69 C195.417322,71.8688823 195.107034,72.1212047 194.86,72.43 C194.608764,72.7706673 194.428531,73.158338 194.33,73.57 C194.225729,73.9720938 194.142284,74.3793023 194.08,74.79 L193.6,78.45 L192.6,78.45 L193.71,70.71 Z" id="Path" fill="#0A3F62"></path><path d="M207.62,70.71 L208.62,70.71 L208.47,71.88 C209.258852,71.0112496 210.376545,70.5140939 211.55,70.51 C212.527234,70.4694429 213.476423,70.8419988 214.165167,71.5364505 C214.853911,72.2309021 215.218621,73.183134 215.17,74.16 C215.185686,75.3622135 214.708726,76.5184812 213.85,77.36 C213.042002,78.2145333 211.916032,78.6960571 210.74,78.69 C210.144348,78.7015269 209.555662,78.5603799 209.03,78.28 C208.513884,77.9697836 208.089416,77.5280605 207.8,77 L207.22,81.34 L206.22,81.34 L207.62,70.71 Z M211.45,71.42 C210.835763,71.4119457 210.230882,71.5709432 209.7,71.88 C209.159218,72.1805623 208.717857,72.6323489 208.43,73.18 C208.14231,73.7432293 207.9948,74.3675714 208,75 C207.962359,75.7455475 208.242113,76.4721808 208.77,77 C209.302251,77.5199984 210.026735,77.7953023 210.77,77.76 C211.693185,77.7821806 212.584128,77.4200089 213.23,76.76 C213.895349,76.0848594 214.256505,75.1675241 214.23,74.22 C214.273908,73.4771743 213.998661,72.750926 213.473443,72.223798 C212.948225,71.69667 212.22298,71.4187889 211.48,71.46 L211.45,71.42 Z" id="Shape" fill="#0A3F62"></path><path d="M224.12,78.49 L223.12,78.49 L223.27,77.32 C222.478947,78.185701 221.362665,78.6822293 220.19,78.69 C219.222499,78.7295698 218.281629,78.367697 217.59,77.69 C216.910135,76.9834842 216.548829,76.0296357 216.59,75.05 C216.572561,73.8483892 217.054135,72.6933364 217.92,71.86 C218.72967,71.0019017 219.860256,70.5199531 221.04,70.53 C221.634823,70.5149522 222.223569,70.6526707 222.75,70.93 C223.266634,71.2351635 223.691521,71.6738674 223.98,72.2 L224.16,70.73 L225.16,70.73 L224.12,78.49 Z M220.29,77.77 C220.90278,77.7767011 221.506464,77.6214682 222.04,77.32 C222.577443,77.009361 223.014681,76.5513024 223.3,76 C223.605193,75.4313364 223.763324,74.7953759 223.76,74.15 C223.799009,73.4061495 223.523159,72.6802266 223,72.15 C222.464127,71.6367324 221.741231,71.3656464 221,71.4 C220.076593,71.3766037 219.185183,71.7389653 218.54,72.4 C217.876063,73.08013 217.515388,73.9998506 217.54,74.95 C217.492793,75.6910449 217.765919,76.4167087 218.290021,76.9427242 C218.814124,77.4687397 219.538788,77.7445067 220.28,77.7 L220.29,77.77 Z" id="Shape" fill="#0A3F62"></path><path d="M227.48,70.71 L228.48,70.71 L228.32,71.92 C228.972449,71.0484733 229.991456,70.5278938 231.08,70.51 C231.804788,70.4737216 232.511756,70.7420067 233.03,71.25 C233.545859,71.7836225 233.814293,72.5091212 233.77,73.25 C233.75099,73.8127397 233.697557,74.3737885 233.61,74.93 L233.13,78.5 L232.13,78.5 L232.61,74.93 C232.700096,74.3707542 232.753543,73.8062176 232.77,73.24 C232.791176,72.750087 232.610438,72.272938 232.27,71.92 C231.926553,71.5774857 231.45445,71.3959078 230.97,71.42 C230.450915,71.4135882 229.940835,71.5558553 229.5,71.83 C229.056832,72.0948 228.693912,72.4750017 228.45,72.93 C228.135191,73.6287113 227.942403,74.3761883 227.88,75.14 L227.43,78.5 L226.43,78.5 L227.48,70.71 Z" id="Path" fill="#0A3F62"></path><polygon id="Path" fill="#0A3F62" points="235.41 70.71 236.41 70.71 238.41 76.45 241.75 70.71 242.87 70.71 236.69 81.34 235.57 81.34 237.77 77.55"></polygon><path d="M299.31,48.37 L302.62,48.37 L302.62,49.15 L301.4,49.15 L301.4,52.79 L300.52,52.79 L300.52,49.15 L299.31,49.15 L299.31,48.37 Z M307.42,52.79 L307.09,50 L306,52.29 L305.34,52.29 L304.22,50 L303.89,52.76 L303,52.76 L303.56,48.34 L304.27,48.34 L305.65,51.27 L307,48.37 L307.78,48.37 L308.33,52.79 L307.42,52.79 Z" id="Shape" fill="#00B5EC"></path></g></g></g></svg> 