<?xml version="1.0" encoding="UTF-8" standalone="no"?>
<!DOCTYPE svg PUBLIC "-//W3C//DTD SVG 1.1//EN" "http://www.w3.org/Graphics/SVG/1.1/DTD/svg11.dtd">
<svg width="100%" height="100%" viewBox="0 0 1000 1000" version="1.1" xmlns="http://www.w3.org/2000/svg" xmlns:xlink="http://www.w3.org/1999/xlink" xml:space="preserve" xmlns:serif="http://www.serif.com/" style="fill-rule:evenodd;clip-rule:evenodd;stroke-linejoin:round;stroke-miterlimit:2;">
    <rect id="Artboard1" x="0" y="0" width="1000" height="1000" style="fill:none;"/>
    <g id="Artboard11" serif:id="Artboard1">
        <g transform="matrix(13.1087,0,0,13.6696,-4426.48,-489.757)">
            <path d="M350.722,38.414L353.569,76.787L411.555,72.106L410.256,40.122L350.722,38.414Z" style="fill:rgb(239,209,160);fill-rule:nonzero;"/>
        </g>
        <g transform="matrix(13.1087,0,0,13.6696,-4426.48,-489.757)">
            <path d="M383.038,57.235C395.306,57.235 405.955,60.939 411.323,66.374L410.256,40.122L350.722,38.414L352.957,68.541C357.418,61.946 369.201,57.235 383.038,57.235Z" style="fill:rgb(226,197,145);fill-rule:nonzero;"/>
        </g>
        <g transform="matrix(13.1087,0,0,13.6696,-4426.48,-489.757)">
            <path d="M350.722,38.414L379.031,57.094L410.256,40.122L380.906,53.532L350.722,38.414Z" style="fill:rgb(211,164,121);fill-rule:nonzero;"/>
        </g>
        <g transform="matrix(13.1087,0,0,13.6696,-4426.48,-489.757)">
            <path d="M351.187,39.797C351.187,39.797 374.39,57.235 374.39,58.782C374.39,60.329 354.421,67.782 354.421,67.782L351.187,39.797Z" style="fill:rgb(239,209,160);fill-rule:nonzero;"/>
        </g>
        <g transform="matrix(13.1087,0,0,13.6696,-4426.48,-489.757)">
            <path d="M350.722,38.414L379.452,55.547L410.256,40.122L350.722,38.414Z" style="fill:rgb(239,209,160);fill-rule:nonzero;"/>
        </g>
        <g transform="matrix(13.1087,0,0,13.6696,-4426.48,-489.757)">
            <path d="M354.14,66.797L353.569,76.787L409.265,72.282L398.296,50.907L354.14,66.797Z" style="fill:rgb(178,146,98);fill-rule:nonzero;"/>
        </g>
        <g transform="matrix(13.1087,0,0,13.6696,-4426.48,-489.757)">
            <path d="M339.006,70.546L362.93,107.73L407.395,84.067L392.833,44.022L339.006,70.546Z" style="fill:rgb(255,242,187);fill-rule:nonzero;"/>
        </g>
        <g transform="matrix(13.1087,0,0,13.6696,-4426.48,-489.757)">
            <path d="M379.713,77.393C387.843,73.212 398.956,78.843 405.89,79.805L392.833,44.022L339.006,70.546L359.611,102.572C360.01,93.703 367.719,83.56 379.713,77.393Z" style="fill:rgb(252,231,180);fill-rule:nonzero;"/>
        </g>
        <g transform="matrix(13.1087,0,0,13.6696,-4426.48,-489.757)">
            <path d="M341.281,71.586L381.846,82.312L391.597,48.183L380.676,80.362L341.281,71.586Z" style="fill:rgb(224,174,128);fill-rule:nonzero;"/>
        </g>
        <g transform="matrix(13.1087,0,0,13.6696,-4426.48,-489.757)">
            <path d="M339.006,70.546L381.375,81.188L392.833,44.022L339.006,70.546Z" style="fill:rgb(255,242,187);fill-rule:nonzero;"/>
        </g>
        <g transform="matrix(13.1087,0,0,13.6696,-4426.48,-489.757)">
            <path d="M341.062,72.704C341.062,72.704 367.359,80.438 367.077,81C363.354,88.447 358.077,98.579 358.077,98.579L341.062,72.704Z" style="fill:rgb(255,242,187);fill-rule:nonzero;"/>
        </g>
        <g transform="matrix(13.1087,0,0,13.6696,-4426.48,-489.757)">
            <path d="M405.256,79.25C405.256,79.25 388.277,73.067 386.905,70.875C385.533,68.684 394.471,50.22 394.471,50.22L405.256,79.25Z" style="fill:rgb(255,242,187);fill-rule:nonzero;"/>
        </g>
        <g transform="matrix(13.1087,0,0,13.6696,-4426.48,-489.757)">
            <path d="M394.452,48.474L405.89,83.743L363.094,107.156L340.031,70.782L369.626,55.458L339.006,70.546L362.93,107.73L407.395,84.067L394.452,48.474Z" style="fill:rgb(242,198,151);fill-rule:nonzero;"/>
        </g>
        <g transform="matrix(13.1087,0,0,13.6696,-4426.48,-489.757)">
            <path d="M394.452,48.474L392.718,43.501L369.626,55.458L392.833,44.022L394.452,48.474Z" style="fill:rgb(242,198,151);fill-rule:nonzero;"/>
        </g>
        <g transform="matrix(13.1087,0,0,13.6696,-4426.48,-489.757)">
            <path d="M373.499,50.157C373.125,50.157 353.155,39.563 354.28,39.188C355.405,38.813 382.874,40.126 382.874,40.126L373.499,50.157Z" style="fill:rgb(247,218,176);fill-rule:nonzero;"/>
        </g>
        <g transform="matrix(13.1087,0,0,13.6696,-4426.48,-489.757)">
            <path d="M407.395,84.067L371.296,102.445L362.93,107.73L407.395,84.067Z" style="fill:rgb(198,139,99);fill-rule:nonzero;"/>
        </g>
        <g transform="matrix(13.1087,0,0,13.6696,-4426.48,-489.757)">
            <path d="M342.655,69.938L374.155,55.125C374.155,55.125 368.342,75.469 366.843,75.469C365.343,75.469 342.093,71.438 342.655,69.938Z" style="fill:rgb(255,247,197);fill-rule:nonzero;"/>
        </g>
    </g>
</svg>
