<?xml version="1.0" encoding="UTF-8" standalone="no"?>
<!DOCTYPE svg PUBLIC "-//W3C//DTD SVG 1.1//EN" "http://www.w3.org/Graphics/SVG/1.1/DTD/svg11.dtd">
<svg width="100%" height="100%" viewBox="0 0 1000 1000" version="1.1" xmlns="http://www.w3.org/2000/svg" xmlns:xlink="http://www.w3.org/1999/xlink" xml:space="preserve" xmlns:serif="http://www.serif.com/" style="fill-rule:evenodd;clip-rule:evenodd;stroke-linejoin:round;stroke-miterlimit:2;">
    <rect id="Artboard1" x="0" y="0" width="1000" height="1000" style="fill:none;"/>
    <g id="Artboard11" serif:id="Artboard1">
        <g transform="matrix(8.26338,0,0,8.26338,-3559.67,-3441.9)">
            <g transform="matrix(2,0,0,2,-10.4386,-27.3112)">
                <path d="M240.189,245.301C242.877,243.795 243.377,243.46 243.459,243.412C243.459,243.412 243.541,243.365 243.586,243.338C243.938,243.137 244.057,242.693 243.857,242.348L236.238,229.152C236.039,228.809 235.596,228.689 235.248,228.891C235.248,228.891 230.701,230.982 227.848,233.603C227.498,233.924 227.174,234.258 226.875,234.601C224.197,237.664 223.451,241.547 223.889,245.232C224.508,250.456 231.713,262.271 231.713,262.271C231.713,262.271 238.342,274.416 242.555,277.564C245.863,280.033 250.111,281.359 254.605,279.949C258.303,278.789 262.387,275.898 262.387,275.898C262.734,275.697 262.855,275.252 262.656,274.908L255.037,261.714C254.838,261.365 254.395,261.248 254.047,261.449C253.998,261.477 253.969,261.518 253.932,261.551C253.932,261.551 253.299,261.843 250.646,263.412C247.271,265.412 247.182,267.285 247.182,267.285C245.621,266.324 240.57,257.156 240.57,257.156C240.57,257.156 235.156,248.197 235.105,246.365C235.105,246.365 236.848,247.17 240.189,245.301Z" style="fill:white;fill-rule:nonzero;"/>
            </g>
            <g transform="matrix(2,0,0,2,-10.4386,-27.3112)">
                <path d="M235.502,229.875C234.518,230.352 230.879,232.178 228.525,234.339C228.207,234.631 227.906,234.941 227.627,235.258C224.779,238.52 224.563,242.418 224.881,245.115C225.469,250.064 232.496,261.636 232.566,261.75C232.656,261.912 239.162,273.781 243.152,276.764C246.619,279.351 250.588,280.161 254.307,278.994C257.43,278.016 260.91,275.699 261.661,275.184L254.32,262.473C254.174,262.546 253.416,262.935 251.156,264.271C248.393,265.91 248.18,267.355 248.178,267.369C248.137,267.707 247.924,268.02 247.617,268.166C247.311,268.313 246.947,268.315 246.658,268.137C245.002,267.116 240.91,259.844 239.695,257.639C238.412,255.519 234.16,248.337 234.107,246.393C234.098,246.047 234.268,245.721 234.557,245.531C234.846,245.341 235.211,245.313 235.523,245.457C235.537,245.457 237.01,245.934 239.701,244.428C240.758,243.836 242.158,243.043 242.855,242.609L235.502,229.875ZM250.895,281.525C247.816,281.525 244.725,280.432 241.957,278.365C237.617,275.123 231.109,263.254 230.834,262.75C230.561,262.302 223.533,250.729 222.895,245.35C222.377,240.969 223.521,236.918 226.121,233.943C226.447,233.57 226.799,233.209 227.172,232.867C230.107,230.17 234.639,228.07 234.83,227.982C235.008,227.873 235.309,227.793 235.611,227.793C236.227,227.793 236.799,228.122 237.105,228.652L244.725,241.848C244.955,242.249 245.016,242.715 244.893,243.16C244.771,243.605 244.484,243.977 244.084,244.205L243.955,244.281C243.357,244.653 242.262,245.286 240.678,246.173C238.854,247.193 237.43,247.484 236.49,247.531C237.338,249.525 239.449,253.367 241.428,256.639C243.281,260.004 245.549,263.747 246.855,265.488C247.396,264.646 248.373,263.597 250.137,262.551C252.158,261.354 253.029,260.887 253.354,260.722C253.402,260.679 253.469,260.629 253.551,260.582C254.34,260.128 255.451,260.422 255.906,261.218L263.523,274.408C263.996,275.23 263.711,276.287 262.889,276.764C262.793,276.836 258.709,279.711 254.904,280.902C253.59,281.315 252.24,281.525 250.895,281.525Z" style="fill:rgb(31,30,31);fill-rule:nonzero;"/>
            </g>
            <g transform="matrix(2,0,0,2,-10.4386,-27.3112)">
                <path d="M259.932,278.461C259.59,278.461 259.258,278.285 259.07,277.971L250.484,263.52C250.201,263.045 250.357,262.431 250.832,262.148C251.307,261.865 251.922,262.022 252.203,262.498L260.79,276.949C261.071,277.424 260.915,278.038 260.441,278.32C260.281,278.416 260.105,278.461 259.932,278.461Z" style="fill:rgb(31,30,31);fill-rule:nonzero;"/>
            </g>
            <g transform="matrix(2,0,0,2,-10.4386,-27.3112)">
                <path d="M240.658,246.023C240.318,246.023 239.984,245.849 239.799,245.533L231.219,231.092C230.936,230.617 231.092,230.004 231.566,229.722C232.041,229.438 232.656,229.596 232.938,230.07L241.518,244.512C241.799,244.986 241.643,245.601 241.168,245.883C241.008,245.979 240.832,246.023 240.658,246.023Z" style="fill:rgb(31,30,31);fill-rule:nonzero;"/>
            </g>
            <g transform="matrix(2,0,0,2,-10.4386,-27.3112)">
                <path d="M276.75,225.314L261.678,223.686L264.129,228.008L255.145,233.104L258.975,239.859L267.961,234.763L270.412,239.087L276.75,225.314Z" style="fill:white;fill-rule:nonzero;"/>
            </g>
            <g transform="matrix(2,0,0,2,-10.4386,-27.3112)">
                <path d="M256.508,233.48L259.351,238.496L267.467,233.893C267.697,233.762 267.971,233.727 268.227,233.799C268.482,233.869 268.699,234.039 268.83,234.27L270.32,236.896L275.262,226.158L263.51,224.889L265,227.516C265.271,227.996 265.104,228.605 264.623,228.878L256.508,233.48ZM258.975,240.859C258.887,240.859 258.797,240.848 258.709,240.823C258.453,240.752 258.236,240.584 258.105,240.353L254.275,233.598C254.002,233.117 254.17,232.508 254.65,232.234L262.766,227.632L260.808,224.178C260.622,223.852 260.637,223.449 260.842,223.136C261.049,222.822 261.414,222.65 261.785,222.691L276.857,224.32C277.178,224.354 277.461,224.541 277.621,224.82C277.779,225.101 277.793,225.439 277.658,225.732L271.32,239.505C271.164,239.846 270.828,240.07 270.453,240.086C270.076,240.103 269.727,239.906 269.541,239.58L267.584,236.126L259.469,240.729C259.316,240.815 259.146,240.859 258.975,240.859Z" style="fill:rgb(31,30,31);fill-rule:nonzero;"/>
            </g>
            <g transform="matrix(2,0,0,2,-10.4386,-27.3112)">
                <path d="M248.754,256.137L255.092,242.364L257.545,246.688L266.529,241.592L270.359,248.347L261.375,253.443L263.826,257.766L248.754,256.137Z" style="fill:white;fill-rule:nonzero;"/>
            </g>
            <g transform="matrix(2,0,0,2,-10.4386,-27.3112)">
                <path d="M250.244,255.293L261.993,256.563L260.506,253.936C260.375,253.705 260.34,253.432 260.41,253.177C260.48,252.921 260.65,252.704 260.881,252.573L268.996,247.971L266.154,242.955L258.036,247.559C257.807,247.689 257.532,247.723 257.278,247.652C257.023,247.582 256.805,247.412 256.676,247.182L255.186,244.555L250.244,255.293ZM263.826,258.766C263.791,258.766 263.756,258.764 263.719,258.761L248.646,257.132C248.326,257.097 248.043,256.91 247.885,256.632C247.725,256.352 247.711,256.012 247.846,255.719L254.184,241.946C254.342,241.605 254.676,241.381 255.051,241.365C255.428,241.354 255.777,241.545 255.963,241.871L257.922,245.325L266.037,240.723C266.268,240.592 266.539,240.557 266.797,240.629C267.053,240.699 267.27,240.868 267.4,241.1L271.23,247.854C271.502,248.334 271.334,248.943 270.854,249.217L262.738,253.819L264.609,257.119C264.758,257.294 264.848,257.52 264.848,257.766C264.848,258.322 264.379,258.8 263.838,258.766L263.826,258.766Z" style="fill:rgb(31,30,31);fill-rule:nonzero;"/>
            </g>
        </g>
    </g>
</svg>
