<?xml version="1.0" encoding="UTF-8" standalone="no"?>
<!DOCTYPE svg PUBLIC "-//W3C//DTD SVG 1.1//EN" "http://www.w3.org/Graphics/SVG/1.1/DTD/svg11.dtd">
<svg width="100%" height="100%" viewBox="0 0 1000 1000" version="1.1" xmlns="http://www.w3.org/2000/svg" xmlns:xlink="http://www.w3.org/1999/xlink" xml:space="preserve" xmlns:serif="http://www.serif.com/" style="fill-rule:evenodd;clip-rule:evenodd;stroke-linejoin:round;stroke-miterlimit:2;">
    <rect id="Artboard1" x="0" y="0" width="1000" height="1000" style="fill:none;"/>
    <g id="Artboard11" serif:id="Artboard1">
        <g transform="matrix(1,0,0,1,12,-2)">
            <g transform="matrix(12.7301,0,0,11.0496,-3173.31,-2552.06)">
                <path d="M275.477,265.568L267.714,265.325L267.714,266.199L275.477,266.441L275.477,265.568Z" style="fill:rgb(71,58,48);fill-rule:nonzero;"/>
            </g>
            <g transform="matrix(12.7301,0,0,11.0496,-3173.31,-2552.06)">
                <path d="M275.234,265.539L267.956,265.423L267.956,265.84L275.234,265.956L275.234,265.539Z" style="fill:rgb(234,212,204);fill-rule:nonzero;"/>
            </g>
            <g transform="matrix(12.7301,0,0,11.0496,-3173.31,-2552.06)">
                <path d="M273.743,313.251L268.206,313.298L268.445,317.346L273.706,317.404L273.743,313.251Z" style="fill:rgb(71,58,48);fill-rule:nonzero;"/>
            </g>
            <g transform="matrix(12.7301,0,0,11.0496,-3173.31,-2552.06)">
                <path d="M273.269,313.621L268.68,313.659L268.879,316.987L273.238,317.036L273.269,313.621Z" style="fill:rgb(234,212,204);fill-rule:nonzero;"/>
            </g>
            <g transform="matrix(12.7301,0,0,11.0496,-3173.31,-2552.06)">
                <path d="M270.922,315.731C270.15,315.731 269.424,315.636 268.789,315.469L268.879,316.987L273.238,317.036L273.253,315.412C272.571,315.613 271.776,315.731 270.922,315.731Z" style="fill:rgb(198,178,167);fill-rule:nonzero;"/>
            </g>
            <g transform="matrix(12.7301,0,0,11.0496,-3173.31,-2552.06)">
                <path d="M270.893,316.059C271.734,316.059 272.528,315.97 273.25,315.813L273.253,315.412C272.571,315.613 271.776,315.731 270.922,315.731C270.15,315.731 269.424,315.636 268.789,315.469L268.812,315.871C269.46,315.991 270.16,316.059 270.893,316.059Z" style="fill:rgb(158,132,119);fill-rule:nonzero;"/>
            </g>
            <g transform="matrix(12.7301,0,0,11.0496,-3173.31,-2552.06)">
                <path d="M272.566,314.227L269.384,314.251L269.521,316.397L272.545,316.429L272.566,314.227Z" style="fill:rgb(71,58,48);fill-rule:nonzero;"/>
            </g>
            <g transform="matrix(12.7301,0,0,11.0496,-3173.31,-2552.06)">
                <path d="M272.177,314.421L269.772,314.441L269.876,316.21L272.162,316.235L272.177,314.421Z" style="fill:rgb(234,212,204);fill-rule:nonzero;"/>
            </g>
            <g transform="matrix(12.7301,0,0,11.0496,-3173.31,-2552.06)">
                <path d="M271.25,315.694C270.754,315.694 270.281,315.666 269.841,315.616L269.876,316.21L272.162,316.235L272.167,315.661C271.871,315.682 271.565,315.694 271.25,315.694Z" style="fill:rgb(198,178,167);fill-rule:nonzero;"/>
            </g>
            <g transform="matrix(12.7301,0,0,11.0496,-3173.31,-2552.06)">
                <path d="M321.586,268.139C329.591,257.166 320.382,244.158 306.136,237.462C289.399,229.596 274.543,234.617 268.52,242.482C262.495,250.345 268.991,262.37 283.031,269.339C297.069,276.307 315.776,276.103 321.586,268.139Z" style="fill:rgb(112,79,158);fill-rule:nonzero;"/>
            </g>
            <g transform="matrix(12.7301,0,0,11.0496,-3173.31,-2552.06)">
                <path d="M292.064,271.347C297.261,274.043 295.12,279.57 293.794,282.547C293.062,284.189 293.412,284.454 293.411,284.454C293.411,284.454 302.87,278.856 302.954,270.945L292.064,271.347Z" style="fill:rgb(112,79,158);fill-rule:nonzero;"/>
            </g>
            <g transform="matrix(12.7301,0,0,11.0496,-3173.31,-2552.06)">
                <path d="M321.668,267.372C329.673,256.397 320.464,243.389 306.218,236.694C289.481,228.827 274.625,233.849 268.602,241.714C262.577,249.577 269.073,261.602 283.113,268.571C297.15,275.539 315.857,275.336 321.668,267.372Z" style="fill:rgb(177,136,226);fill-rule:nonzero;"/>
            </g>
            <g transform="matrix(12.7301,0,0,11.0496,-3173.31,-2552.06)">
                <path d="M306.218,236.694C289.851,229.001 275.289,233.635 269.02,241.197C274.747,241.186 281.129,242.637 287.333,245.661C300.733,252.188 308.872,263.882 307.44,273.468C313.741,272.993 319.033,270.983 321.668,267.372C329.673,256.397 320.464,243.389 306.218,236.694Z" style="fill:rgb(191,158,239);fill-rule:nonzero;"/>
            </g>
            <g transform="matrix(12.7301,0,0,11.0496,-3173.31,-2552.06)">
                <path d="M292.146,270.579C300.21,274.762 293.493,283.686 293.493,283.686C293.493,283.686 302.952,278.087 303.036,270.177L292.146,270.579Z" style="fill:rgb(177,136,226);fill-rule:nonzero;"/>
            </g>
            <g transform="matrix(12.7301,0,0,11.0496,-3173.31,-2552.06)">
                <path d="M287.195,253.913C287.311,252.826 286.524,251.852 285.437,251.736C284.35,251.62 283.376,252.407 283.26,253.494C283.144,254.581 283.932,255.555 285.018,255.671C286.104,255.786 287.079,254.999 287.195,253.913Z" style="fill:rgb(237,225,255);fill-rule:nonzero;"/>
            </g>
            <g transform="matrix(12.7301,0,0,11.0496,-3173.31,-2552.06)">
                <path d="M299.327,255.205C299.444,254.118 298.657,253.143 297.57,253.028C296.484,252.912 295.509,253.699 295.393,254.786C295.277,255.872 296.064,256.847 297.15,256.962C298.238,257.078 299.212,256.292 299.327,255.205Z" style="fill:rgb(237,225,255);fill-rule:nonzero;"/>
            </g>
            <g transform="matrix(12.7301,0,0,11.0496,-3173.31,-2552.06)">
                <path d="M311.461,256.496C311.577,255.409 310.791,254.436 309.703,254.319C308.617,254.203 307.642,254.991 307.526,256.078C307.411,257.164 308.198,258.139 309.284,258.254C310.371,258.37 311.345,257.583 311.461,256.496Z" style="fill:rgb(237,225,255);fill-rule:nonzero;"/>
            </g>
            <g transform="matrix(12.7301,0,0,11.0496,-3173.31,-2552.06)">
                <path d="M285.538,273.16L287.503,273.597L287.431,281.238L285.538,282.839L285.538,273.16Z" style="fill:rgb(170,148,133);fill-rule:nonzero;"/>
            </g>
            <g transform="matrix(12.7301,0,0,11.0496,-3173.31,-2552.06)">
                <path d="M253.669,319.075L254.489,263.957L285.992,264.482L288.342,318.946L253.669,319.075Z" style="fill:rgb(135,116,102);fill-rule:nonzero;"/>
            </g>
            <g transform="matrix(12.7301,0,0,11.0496,-3173.31,-2552.06)">
                <path d="M268.884,309.727C263.769,311.787 258.669,313.306 253.74,314.321L253.669,319.075L288.342,318.946L287.502,299.473C282.178,303.381 275.888,306.906 268.884,309.727Z" style="fill:rgb(117,98,86);fill-rule:nonzero;"/>
            </g>
            <g transform="matrix(12.7301,0,0,11.0496,-3173.31,-2552.06)">
                <path d="M268.707,279.604C274.664,277.789 280.557,277.086 285.934,277.355L285.397,264.894L255.094,264.388L254.769,286.186C258.762,283.473 263.477,281.197 268.707,279.604Z" style="fill:rgb(102,86,75);fill-rule:nonzero;"/>
            </g>
            <g transform="matrix(12.7301,0,0,11.0496,-3173.31,-2552.06)">
                <path d="M255.921,312.604L255.943,266.927L284.266,267.553L286.343,312.104L255.921,312.604Z" style="fill:rgb(71,58,48);fill-rule:nonzero;"/>
            </g>
            <g transform="matrix(12.7301,0,0,11.0496,-3173.31,-2552.06)">
                <path d="M256.726,311.91L256.463,267.667L283.564,268.314L285.538,311.344L256.726,311.91Z" style="fill:rgb(225,255,251);fill-rule:nonzero;"/>
            </g>
            <g transform="matrix(12.7301,0,0,11.0496,-3173.31,-2552.06)">
                <path d="M257.221,311.464L256.967,268.114L283.128,268.747L285.036,310.909L257.221,311.464Z" style="fill:rgb(140,229,220);fill-rule:nonzero;"/>
            </g>
            <g transform="matrix(12.7301,0,0,11.0496,-3173.31,-2552.06)">
                <path d="M274.007,284.266C268.134,286.533 262.319,287.675 257.297,287.757L257.435,311.308L284.562,310.767L283.158,279.71C280.449,281.413 277.371,282.967 274.007,284.266Z" style="fill:rgb(140,229,220);fill-rule:nonzero;"/>
            </g>
            <g transform="matrix(12.7301,0,0,11.0496,-3173.31,-2552.06)">
                <path d="M274.681,296.696C277.873,294.803 280.833,292.594 283.511,290.181L283.158,278.191C280.449,280.808 277.371,283.195 274.007,285.19C268.134,288.673 262.319,290.427 257.297,290.553L257.342,302.632C262.647,302.22 268.633,300.283 274.681,296.696Z" style="fill:rgb(125,211,200);fill-rule:nonzero;"/>
            </g>
            <g transform="matrix(12.7301,0,0,11.0496,-3173.31,-2552.06)">
                <path d="M277.126,288.128C277.126,284.483 274.174,281.529 270.529,281.529C266.884,281.529 263.931,284.483 263.931,288.128C263.931,291.772 266.884,294.725 270.529,294.725C274.174,294.725 277.126,291.772 277.126,288.128Z" style="fill:rgb(225,255,251);fill-rule:nonzero;"/>
            </g>
            <g transform="matrix(12.7301,0,0,11.0496,-3173.31,-2552.06)">
                <path d="M267.32,278.208L267.233,277.94C267.941,277.711 268.678,277.556 269.422,277.479L269.451,277.759C268.726,277.834 268.009,277.984 267.32,278.208ZM273.758,278.214C273.07,277.99 272.354,277.838 271.628,277.761L271.658,277.481C272.403,277.56 273.139,277.716 273.845,277.947L273.758,278.214ZM263.566,280.371L263.378,280.162C263.932,279.663 264.541,279.221 265.188,278.848L265.329,279.092C264.699,279.455 264.106,279.885 263.566,280.371ZM277.508,280.385C276.967,279.898 276.375,279.466 275.748,279.103L275.889,278.859C276.534,279.233 277.141,279.676 277.696,280.176L277.508,280.385ZM261.012,283.871L260.755,283.755C261.06,283.075 261.437,282.425 261.877,281.822L262.105,281.988C261.676,282.575 261.308,283.208 261.012,283.871ZM280.055,283.889C279.76,283.228 279.393,282.593 278.965,282.003L279.192,281.838C279.632,282.444 280.008,283.096 280.312,283.775L280.055,283.889ZM260.105,288.107L259.824,288.105C259.825,287.356 259.906,286.608 260.061,285.882L260.334,285.94C260.185,286.648 260.107,287.376 260.105,288.107ZM281.233,288.171L280.952,288.171L280.952,288.127C280.952,287.397 280.876,286.668 280.727,285.961L281.002,285.903C281.155,286.629 281.233,287.377 281.233,288.127L281.233,288.171ZM260.737,292.459C260.433,291.777 260.203,291.06 260.051,290.33L260.327,290.272C260.475,290.983 260.699,291.68 260.993,292.345L260.737,292.459ZM280.294,292.52L280.038,292.404C280.336,291.74 280.565,291.044 280.718,290.336L280.992,290.395C280.836,291.123 280.601,291.838 280.294,292.52ZM263.346,296.065C262.792,295.563 262.29,295.003 261.853,294.399L262.081,294.234C262.506,294.822 262.995,295.367 263.534,295.856L263.346,296.065ZM277.664,296.108L277.476,295.898C278.018,295.414 278.511,294.871 278.94,294.286L279.166,294.452C278.726,295.053 278.22,295.611 277.664,296.108ZM267.191,298.301C266.482,298.068 265.795,297.76 265.15,297.384L265.292,297.142C265.92,297.507 266.588,297.807 267.279,298.034L267.191,298.301ZM273.804,298.322L273.718,298.054C274.409,297.833 275.079,297.537 275.711,297.174L275.85,297.418C275.202,297.79 274.514,298.094 273.804,298.322ZM270.529,298.832C270.143,298.832 269.756,298.811 269.378,298.771L269.408,298.491C270.12,298.568 270.862,298.571 271.586,298.498L271.614,298.778C271.255,298.814 270.89,298.832 270.529,298.832Z" style="fill:rgb(225,255,251);fill-rule:nonzero;"/>
            </g>
            <g transform="matrix(12.7301,0,0,11.0496,-3173.31,-2552.06)">
                <path d="M254.776,264.404L285.733,264.921L287.993,318.69L254.276,318.35L254.776,264.404ZM285.992,264.482L254.489,263.957L253.669,319.075L288.342,318.946L285.992,264.482Z" style="fill:rgb(71,58,48);fill-rule:nonzero;"/>
            </g>
            <g transform="matrix(12.7301,0,0,11.0496,-3173.31,-2552.06)">
                <path d="M262.487,304.49L262.839,305.547L263.197,304.49L263.507,304.49L262.995,305.94L262.995,307.213L262.675,307.213L262.675,305.94L262.164,304.49L262.487,304.49Z" style="fill:rgb(255,255,240);fill-rule:nonzero;"/>
            </g>
            <g transform="matrix(12.7301,0,0,11.0496,-3173.31,-2552.06)">
                <path d="M264.612,304.49L264.612,304.8L264.032,304.8L264.032,305.655L264.442,305.655L264.442,305.964L264.032,305.964L264.032,306.904L264.612,306.904L264.612,307.213L263.711,307.213L263.711,304.49L264.612,304.49Z" style="fill:rgb(255,255,240);fill-rule:nonzero;"/>
            </g>
            <g transform="matrix(12.7301,0,0,11.0496,-3173.31,-2552.06)">
                <path d="M265.377,304.442C265.542,304.442 265.67,304.49 265.763,304.588C265.856,304.685 265.902,304.814 265.902,304.973L265.902,305.071L265.607,305.071L265.607,304.998L265.544,304.81L265.37,304.74L265.18,304.826L265.12,305.033L265.156,305.222L265.262,305.408L265.375,305.561L265.514,305.743L265.652,305.931L265.766,306.1L265.883,306.343C265.907,306.42 265.92,306.508 265.92,306.608C265.92,306.81 265.875,306.969 265.787,307.086C265.699,307.203 265.561,307.262 265.374,307.262C265.283,307.262 265.202,307.247 265.132,307.22L264.953,307.107L264.84,306.938L264.8,306.729L264.8,306.583L265.095,306.66L265.095,306.726L265.163,306.897L265.353,306.97L265.549,306.886C265.592,306.831 265.614,306.751 265.614,306.649L265.584,306.458L265.478,306.243L265.382,306.11L265.262,305.958L265.138,305.796L265.029,305.638C264.951,305.512 264.896,305.402 264.868,305.306C264.839,305.21 264.824,305.117 264.824,305.029C264.824,304.848 264.874,304.705 264.975,304.6C265.077,304.494 265.21,304.442 265.377,304.442Z" style="fill:rgb(255,255,240);fill-rule:nonzero;"/>
            </g>
            <g transform="matrix(12.7301,0,0,11.0496,-3173.31,-2552.06)">
                <path d="M275.984,304.444L276.446,306.322L276.446,304.444L276.724,304.444L276.724,307.167L276.439,307.167L275.914,305.164L275.914,307.167L275.636,307.167L275.636,304.444L275.984,304.444Z" style="fill:rgb(254,255,222);fill-rule:nonzero;"/>
            </g>
            <g transform="matrix(12.7301,0,0,11.0496,-3173.31,-2552.06)">
                <path d="M277.344,306.666L277.411,306.845L277.587,306.906L277.762,306.845L277.831,306.666L277.831,304.945L277.762,304.766L277.587,304.705L277.411,304.766L277.344,304.945L277.344,306.666ZM278.147,306.67L278.103,306.9L277.983,307.072L277.804,307.179L277.587,307.216L277.366,307.179L277.189,307.072L277.071,306.9L277.027,306.67L277.027,304.942L277.071,304.712L277.189,304.542L277.366,304.434L277.587,304.396L277.804,304.434L277.983,304.542L278.103,304.712L278.147,304.942L278.147,306.67Z" style="fill:rgb(254,255,222);fill-rule:nonzero;"/>
            </g>
            <g transform="matrix(12.7301,0,0,11.0496,-3173.31,-2552.06)">
                <path d="M272.147,289.067C275.103,285.352 272.868,283.982 272.868,283.982L271.784,285.543C271.784,285.543 272.722,286.593 272.065,287.862C272.004,287.979 271.942,288.09 271.88,288.197L271.788,288.349L271.736,288.432L271.658,288.548L271.598,288.637C270.15,290.7 268.552,290.054 268.552,290.054L267.339,291.495C268.511,292.167 269.414,292.37 271.783,289.515L271.787,289.509L271.951,289.311L272.147,289.067Z" style="fill:rgb(125,211,200);fill-rule:nonzero;"/>
            </g>
            <g transform="matrix(12.7301,0,0,11.0496,-3173.31,-2552.06)">
                <path d="M273.293,277.477C273.293,276.633 272.609,275.949 271.766,275.949C270.921,275.949 270.238,276.633 270.238,277.477C270.238,278.322 270.921,279.005 271.766,279.005C272.609,279.005 273.293,278.322 273.293,277.477Z" style="fill:rgb(225,255,251);fill-rule:nonzero;"/>
            </g>
            <g transform="matrix(12.7301,0,0,11.0496,-3173.31,-2552.06)">
                <path d="M287.944,317.429L287.993,318.69L254.276,318.35L287.944,317.429Z" style="fill:rgb(135,116,102);fill-rule:nonzero;"/>
            </g>
            <g transform="matrix(12.7301,0,0,11.0496,-3173.31,-2552.06)">
                <path d="M298.424,269.449C298.424,269.449 316.858,275.271 323.262,259.552C323.262,259.552 321.905,276.823 297.259,271.778L298.424,269.449Z" style="fill:rgb(177,136,226);fill-rule:nonzero;"/>
            </g>
            <g transform="matrix(12.7301,0,0,11.0496,-3173.31,-2552.06)">
                <rect x="259.225" y="303.7" width="9.702" height="4.172" style="fill:rgb(204,200,50);fill-rule:nonzero;"/>
            </g>
            <g transform="matrix(12.7301,0,0,11.0496,-3173.31,-2552.06)">
                <rect x="271.935" y="303.7" width="9.703" height="4.172" style="fill:rgb(239,85,69);fill-rule:nonzero;"/>
            </g>
        </g>
    </g>
</svg>
