<?xml version="1.0" encoding="UTF-8" standalone="no"?>
<!DOCTYPE svg PUBLIC "-//W3C//DTD SVG 1.1//EN" "http://www.w3.org/Graphics/SVG/1.1/DTD/svg11.dtd">
<svg width="100%" height="100%" viewBox="0 0 1000 1000" version="1.1" xmlns="http://www.w3.org/2000/svg" xmlns:xlink="http://www.w3.org/1999/xlink" xml:space="preserve" xmlns:serif="http://www.serif.com/" style="fill-rule:evenodd;clip-rule:evenodd;stroke-linejoin:round;stroke-miterlimit:2;">
    <rect id="Artboard1" x="0" y="0" width="1000" height="1000" style="fill:none;"/>
    <g id="Artboard11" serif:id="Artboard1">
        <g transform="matrix(15.6093,0,0,13.2611,-2171.42,-4514.18)">
            <path d="M166.961,391.57C167.187,391.338 169.664,397.406 169.664,397.406L165.818,398.853C165.818,398.853 163.377,395.241 166.961,391.57Z" style="fill:rgb(165,47,35);fill-rule:nonzero;"/>
        </g>
        <g transform="matrix(15.6093,0,0,13.2611,-2171.42,-4514.18)">
            <path d="M150.886,387.625C150.886,387.625 161.258,390.251 162.596,409.989L170.47,409.627C170.47,409.627 157.759,390.187 175.832,388.216L150.886,387.625Z" style="fill:rgb(229,82,62);fill-rule:nonzero;"/>
        </g>
        <g transform="matrix(15.6093,0,0,13.2611,-2171.42,-4514.18)">
            <path d="M161.231,391.598C162.793,391.055 164.652,392.288 166.426,394.588C167.237,391.441 169.843,388.869 175.832,388.216L150.886,387.625C150.886,387.625 155.505,388.803 158.975,395.449C159.245,393.449 160.004,392.025 161.231,391.598Z" style="fill:rgb(193,58,43);fill-rule:nonzero;"/>
        </g>
        <g transform="matrix(15.6093,0,0,13.2611,-2171.42,-4514.18)">
            <path d="M145.402,378.915C145.402,378.915 173.588,362.075 184.5,346.313C184.5,346.313 198.337,366.764 195.856,390.623C195.856,390.623 161.63,385.072 147.312,390.651L145.402,378.915Z" style="fill:rgb(242,151,68);fill-rule:nonzero;"/>
        </g>
        <g transform="matrix(15.6093,0,0,13.2611,-2171.42,-4514.18)">
            <path d="M194.531,378.001C194.531,378.001 170.719,375.563 147.375,386.813L146.25,384.375C146.25,384.375 179.813,371.906 196.219,374.156L194.531,378.001Z" style="fill:rgb(229,109,48);fill-rule:nonzero;"/>
        </g>
        <g transform="matrix(15.6093,0,0,13.2611,-2171.42,-4514.18)">
            <path d="M181.688,376.313C186.472,375.975 190.849,375.922 194.864,376.092C192.209,358.38 183.938,345.563 183.938,345.563C177.93,360.242 145.875,380.438 145.875,380.438L146.813,385.688C155.788,381.997 167.447,377.319 181.688,376.313Z" style="fill:rgb(252,195,81);fill-rule:nonzero;"/>
        </g>
        <g transform="matrix(15.6093,0,0,13.2611,-2171.42,-4514.18)">
            <path d="M189.281,389.531L195.781,390.713C197.313,378.194 194.97,360.748 183.984,345.469L182.485,348.515C188.385,358.546 190.637,371.757 189.281,389.531Z" style="fill:rgb(242,151,68);fill-rule:nonzero;"/>
        </g>
        <g transform="matrix(15.6093,0,0,13.2611,-2171.42,-4514.18)">
            <path d="M149.483,391.94C148.147,392.867 145.589,384.77 144.031,379.262C143.92,378.873 144.114,378.462 144.484,378.301C144.853,378.138 145.286,378.273 145.498,378.617C148.339,383.228 152.004,390.188 149.483,391.94Z" style="fill:rgb(255,227,110);fill-rule:nonzero;"/>
        </g>
        <g transform="matrix(15.6093,0,0,13.2611,-2171.42,-4514.18)">
            <path d="M149.014,385.158C148.407,386.214 147.614,386.859 146.742,386.859C146.626,386.859 146.513,386.847 146.4,386.825C147.55,390.037 148.717,392.472 149.483,391.94C150.938,390.929 150.331,388.184 149.014,385.158Z" style="fill:rgb(242,189,95);fill-rule:nonzero;"/>
        </g>
        <g transform="matrix(15.6093,0,0,13.2611,-2171.42,-4514.18)">
            <path d="M144.141,378.563C144.141,378.563 147.563,382.593 149.953,391.453L149.156,392.39C149.156,392.39 143.859,381.094 144.141,378.563Z" style="fill:rgb(237,154,79);fill-rule:nonzero;"/>
        </g>
        <g transform="matrix(15.6093,0,0,13.2611,-2171.42,-4514.18)">
            <path d="M182.818,343.135C182.299,343.628 182.197,344.413 182.569,345.023C188.789,355.242 196.37,372.156 194.426,391.28C194.362,391.906 194.814,392.466 195.439,392.536L195.544,392.548C196.509,392.656 197.383,391.976 197.515,391.013C199.275,378.237 196.607,359.041 184.841,343.289C184.61,342.98 184.259,342.785 183.875,342.753C183.491,342.721 183.113,342.855 182.834,343.12L182.818,343.135Z" style="fill:rgb(255,227,110);fill-rule:nonzero;"/>
        </g>
        <g transform="matrix(15.6093,0,0,13.2611,-2171.42,-4514.18)">
            <path d="M192.386,363.647C193.218,363.523 193.877,362.709 194.317,361.452C192.725,356.751 190.564,352.038 187.735,347.521C187.196,349.021 186.981,351.177 187.186,353.593C188.587,356.561 189.925,359.809 191.074,363.292C191.511,363.578 191.954,363.712 192.386,363.647Z" style="fill:rgb(255,252,151);fill-rule:nonzero;"/>
        </g>
        <g transform="matrix(15.6093,0,0,13.2611,-2171.42,-4514.18)">
            <path d="M196.915,374.792C195.957,375.117 194.97,375.275 193.971,375.287C194.733,380.271 194.981,385.539 194.454,390.991C194.378,391.779 194.948,392.481 195.735,392.569C196.592,392.666 197.367,392.064 197.488,391.211C198.167,386.42 198.218,380.708 197.397,374.608C197.238,374.672 197.079,374.737 196.915,374.792Z" style="fill:rgb(244,183,93);fill-rule:nonzero;"/>
        </g>
        <g transform="matrix(15.6093,0,0,13.2611,-2171.42,-4514.18)">
            <path d="M162.525,409.041C162.215,409.074 161.988,409.347 162.012,409.658L162.069,410.378C162.105,410.841 162.45,411.22 162.908,411.299C165.052,411.67 170.914,412.561 171.333,411.28C171.627,410.382 171.251,409.511 170.876,408.93C170.59,408.489 170.081,408.245 169.559,408.3L162.525,409.041Z" style="fill:rgb(252,195,81);fill-rule:nonzero;"/>
        </g>
        <g transform="matrix(15.6093,0,0,13.2611,-2171.42,-4514.18)">
            <path d="M170.876,408.93L170.693,408.719C170.747,408.956 170.78,409.247 170.789,409.605C170.808,410.401 169.074,411.047 166.957,411.047C164.84,411.047 163.196,410.398 163.125,409.605C163.103,409.359 163.109,409.156 163.132,408.977L162.525,409.041C162.215,409.074 161.988,409.347 162.012,409.658L162.069,410.378C162.105,410.841 162.45,411.22 162.908,411.299C165.052,411.67 170.914,412.561 171.333,411.28C171.627,410.382 171.251,409.511 170.876,408.93Z" style="fill:rgb(242,159,70);fill-rule:nonzero;"/>
        </g>
        <g transform="matrix(15.6093,0,0,13.2611,-2171.42,-4514.18)">
            <path d="M151.172,379.828C151.172,379.828 177.188,363.094 183.094,355.641L185.344,360.703L151.172,379.828Z" style="fill:rgb(255,230,123);fill-rule:nonzero;"/>
        </g>
        <g transform="matrix(15.6093,0,0,13.2611,-2171.42,-4514.18)">
            <path d="M142.342,376.759C143.911,375.593 147.234,385.172 149.384,391.771C149.536,392.236 149.315,392.74 148.874,392.95C148.434,393.161 147.905,393.014 147.636,392.607C144.041,387.17 139.381,378.96 142.342,376.759Z" style="fill:rgb(255,227,110);fill-rule:nonzero;"/>
        </g>
        <g transform="matrix(15.6093,0,0,13.2611,-2171.42,-4514.18)">
            <path d="M149.384,391.771C148.696,389.607 147.866,387.113 147.007,384.782C146.329,385.996 145.411,386.874 144.367,387.235C145.398,389.117 146.564,390.985 147.636,392.607C147.905,393.014 148.434,393.161 148.874,392.95C149.315,392.74 149.532,392.237 149.384,391.771Z" style="fill:rgb(242,189,95);fill-rule:nonzero;"/>
        </g>
        <g transform="matrix(15.6093,0,0,13.2611,-2171.42,-4514.18)">
            <path d="M191.906,385.594L192.094,389.344C192.094,389.344 169.125,387.188 170.906,386.438C172.688,385.688 191.906,385.594 191.906,385.594Z" style="fill:rgb(244,183,93);fill-rule:nonzero;"/>
        </g>
        <g transform="matrix(15.6093,0,0,13.2611,-2171.42,-4514.18)">
            <path d="M167.761,409.046C167.765,409.265 166.894,409.514 165.818,409.602C164.741,409.69 163.866,409.583 163.863,409.363C163.86,409.143 164.733,409.068 165.809,408.98C166.886,408.892 167.759,408.827 167.761,409.046Z" style="fill:rgb(255,220,108);fill-rule:nonzero;"/>
        </g>
        <g transform="matrix(15.6093,0,0,13.2611,-2171.42,-4514.18)">
            <path d="M169.61,408.847C169.584,408.718 169.332,408.619 169.03,408.629C168.708,408.647 168.434,408.779 168.449,408.934C168.46,409.093 168.766,409.198 169.106,409.156C169.422,409.129 169.638,408.988 169.61,408.847Z" style="fill:rgb(255,220,108);fill-rule:nonzero;"/>
        </g>
        <g transform="matrix(15.6093,0,0,13.2611,-2171.42,-4514.18)">
            <path d="M163.473,406.438C163.582,406.891 167.348,406.611 167.464,406.09C167.531,405.786 164.919,401.06 164.919,396.26C164.919,393.716 159.946,394.815 160.871,396.781C163.174,401.674 162.837,403.777 163.473,406.438Z" style="fill:rgb(255,133,90);fill-rule:nonzero;"/>
        </g>
        <g transform="matrix(15.6093,0,0,13.2611,-2171.42,-4514.18)">
            <path d="M143.938,379.368C143.67,378.286 143.02,377.659 142.485,377.966C141.951,378.273 141.734,379.4 142.002,380.481C142.269,381.562 142.919,382.19 143.454,381.883C143.988,381.575 144.205,380.449 143.938,379.368Z" style="fill:rgb(255,252,151);fill-rule:nonzero;"/>
        </g>
        <g transform="matrix(15.6093,0,0,13.2611,-2171.42,-4514.18)">
            <path d="M144.656,382.906C144.682,382.467 144.472,382.097 144.188,382.08C143.904,382.063 143.652,382.405 143.626,382.845C143.6,383.284 143.809,383.654 144.093,383.671C144.377,383.688 144.629,383.345 144.656,382.906Z" style="fill:rgb(255,252,151);fill-rule:nonzero;"/>
        </g>
        <g transform="matrix(15.6093,0,0,13.2611,-2171.42,-4514.18)">
            <path d="M145.391,378.892C145.319,378.625 145.117,378.451 144.941,378.503C144.765,378.554 144.68,378.812 144.752,379.079C144.824,379.346 145.025,379.521 145.202,379.469C145.378,379.417 145.463,379.159 145.391,378.892Z" style="fill:rgb(255,252,151);fill-rule:nonzero;"/>
        </g>
        <g transform="matrix(15.6093,0,0,13.2611,-2171.42,-4514.18)">
            <path d="M194.625,363.867C194.625,363.867 193.852,367.102 194.063,367.664C194.273,368.227 195.539,370.266 195.75,369.563C195.961,368.859 194.625,363.867 194.625,363.867Z" style="fill:rgb(255,252,151);fill-rule:nonzero;"/>
        </g>
    </g>
</svg>
