<?xml version="1.0" encoding="UTF-8" standalone="no"?>
<!DOCTYPE svg PUBLIC "-//W3C//DTD SVG 1.1//EN" "http://www.w3.org/Graphics/SVG/1.1/DTD/svg11.dtd">
<svg width="100%" height="100%" viewBox="0 0 1000 1000" version="1.1" xmlns="http://www.w3.org/2000/svg" xmlns:xlink="http://www.w3.org/1999/xlink" xml:space="preserve" xmlns:serif="http://www.serif.com/" style="fill-rule:evenodd;clip-rule:evenodd;stroke-linejoin:round;stroke-miterlimit:2;">
    <rect id="Artboard1" x="0" y="0" width="1000" height="1000" style="fill:none;"/>
    <g id="Artboard11" serif:id="Artboard1">
        <g transform="matrix(10.4112,0,0,20.3747,-2328.54,-3239.62)">
            <path d="M248.745,170.205L254.914,197.21L292.693,189.18L289.507,166.868L248.745,170.205Z" style="fill:rgb(255,242,187);fill-rule:nonzero;"/>
        </g>
        <g transform="matrix(10.4112,0,0,20.3747,-2328.54,-3239.62)">
            <path d="M277.841,182.368C282.734,181.507 287.947,185.468 292.214,185.735L289.507,166.868L248.745,170.205L254.405,194.983C259.254,190.315 267.65,184.161 277.841,182.368Z" style="fill:rgb(252,231,180);fill-rule:nonzero;"/>
        </g>
        <g transform="matrix(10.4112,0,0,20.3747,-2328.54,-3239.62)">
            <path d="M248.745,170.205L275.294,183.271L289.507,166.868L248.745,170.205Z" style="fill:rgb(242,198,151);fill-rule:nonzero;"/>
        </g>
        <g transform="matrix(10.4112,0,0,20.3747,-2328.54,-3239.62)">
            <path d="M248.745,170.205L275.213,182.232L289.507,166.868L248.745,170.205Z" style="fill:rgb(255,242,187);fill-rule:nonzero;"/>
        </g>
        <g transform="matrix(10.4112,0,0,20.3747,-2328.54,-3239.62)">
            <path d="M231.312,166.803C225.512,172.046 224.863,178.804 229.455,185.979L224.783,187.501L245.729,194.534L240.338,182.432L236.248,183.764C231.967,178.476 229.114,172.731 233.899,168.036C241.683,160.398 266.855,158.984 284.411,163.231L285.543,163.073C261.002,156.578 238.745,160.086 231.312,166.803Z" style="fill:rgb(103,224,244);fill-rule:nonzero;"/>
        </g>
        <g transform="matrix(10.4112,0,0,20.3747,-2328.54,-3239.62)">
            <path d="M312.09,177.684L316.196,175.674L297.662,168.63L303.619,181.832L307.684,179.841C313.123,185.542 315.527,192.02 309.599,197.837C298.101,209.118 268.512,206.196 253.57,200.355L251.185,200.262C269.833,208.158 301.743,211.574 314.349,199.205C321.376,192.31 318.662,184.339 312.09,177.684Z" style="fill:rgb(192,198,62);fill-rule:nonzero;"/>
        </g>
        <g transform="matrix(10.4112,0,0,20.3747,-2328.54,-3239.62)">
            <path d="M312.09,177.684L316.196,175.674L297.662,168.63L303.619,181.832L307.684,179.841C313.123,185.542 315.527,192.02 309.599,197.837C308.295,199.116 306.749,200.203 305.029,201.134C304.788,202.496 304.401,203.824 303.868,205.103C308.037,203.791 311.64,201.863 314.349,199.205C321.376,192.31 318.662,184.339 312.09,177.684Z" style="fill:rgb(225,232,84);fill-rule:nonzero;"/>
        </g>
        <g transform="matrix(10.4112,0,0,20.3747,-2328.54,-3239.62)">
            <path d="M231.875,166.332C233.65,165.993 235.487,165.743 237.371,165.581C247.558,160.145 268.938,159.488 284.411,163.231L285.543,163.073C261.586,156.732 239.811,159.926 231.875,166.332Z" style="fill:rgb(65,186,206);fill-rule:nonzero;"/>
        </g>
        <g transform="matrix(10.4112,0,0,20.3747,-2328.54,-3239.62)">
            <path d="M249.753,197.48C249.753,197.017 249.219,196.64 248.56,196.64C247.902,196.64 247.367,197.017 247.367,197.48C247.367,197.944 247.902,198.32 248.56,198.32C249.219,198.32 249.753,197.944 249.753,197.48Z" style="fill:rgb(65,186,206);fill-rule:nonzero;"/>
        </g>
        <g transform="matrix(10.4112,0,0,20.3747,-2328.54,-3239.62)">
            <path d="M293.366,164.832C293.366,164.369 292.832,163.993 292.173,163.993C291.514,163.993 290.979,164.369 290.979,164.832C290.979,165.296 291.514,165.672 292.173,165.672C292.832,165.672 293.366,165.296 293.366,164.832Z" style="fill:rgb(203,216,80);fill-rule:nonzero;"/>
        </g>
        <g transform="matrix(10.4112,0,0,20.3747,-2328.54,-3239.62)">
            <path d="M289.507,166.868L289.44,166.874L292.191,189.016L255.274,196.864L249.247,170.475L269.052,168.543L248.745,170.205L254.914,197.21L292.693,189.18L289.507,166.868Z" style="fill:rgb(242,198,151);fill-rule:nonzero;"/>
        </g>
        <g transform="matrix(10.4112,0,0,20.3747,-2328.54,-3239.62)">
            <path d="M289.401,166.557L269.052,168.543L289.44,166.874L289.401,166.557Z" style="fill:rgb(242,198,151);fill-rule:nonzero;"/>
        </g>
        <g transform="matrix(10.4112,0,0,20.3747,-2328.54,-3239.62)">
            <path d="M255.668,193.966C257.604,192.359 263.697,186.909 267.892,183.676C269.431,182.49 251.1,175.066 251.1,175.066L255.668,193.966Z" style="fill:rgb(255,242,187);fill-rule:nonzero;"/>
        </g>
        <g transform="matrix(10.4112,0,0,20.3747,-2328.54,-3239.62)">
            <path d="M289.257,168.734C287.891,169.623 282.686,177.276 280.551,179.658C279.709,180.597 291.475,185.325 291.475,185.325L289.257,168.734Z" style="fill:rgb(255,242,187);fill-rule:nonzero;"/>
        </g>
    </g>
</svg>
