<?xml version="1.0" encoding="UTF-8" standalone="no"?>
<!DOCTYPE svg PUBLIC "-//W3C//DTD SVG 1.1//EN" "http://www.w3.org/Graphics/SVG/1.1/DTD/svg11.dtd">
<svg width="100%" height="100%" viewBox="0 0 1000 1000" version="1.1" xmlns="http://www.w3.org/2000/svg" xmlns:xlink="http://www.w3.org/1999/xlink" xml:space="preserve" xmlns:serif="http://www.serif.com/" style="fill-rule:evenodd;clip-rule:evenodd;stroke-linejoin:round;stroke-miterlimit:2;">
    <rect id="Artboard1" x="0" y="0" width="1000" height="1000" style="fill:none;"/>
    <g id="Artboard11" serif:id="Artboard1">
        <g transform="matrix(6.50156,0,0,6.50156,70.3053,136.293)">
            <g transform="matrix(2,0,0,2,-8.65833,-16.128)">
                <path d="M9.613,39.201C10.058,39.201 10.456,38.89 10.547,38.437C12.526,28.769 19.613,20.935 29.043,17.994C29.546,17.836 29.828,17.301 29.67,16.798C29.515,16.294 28.978,16.017 28.474,16.17C18.381,19.32 10.795,27.705 8.678,38.055C8.572,38.572 8.905,39.076 9.421,39.182C9.487,39.194 9.55,39.201 9.613,39.201Z" style="fill:rgb(31,30,31);fill-rule:nonzero;"/>
            </g>
            <g transform="matrix(2,0,0,2,-8.65833,-16.128)">
                <path d="M64.684,39.289C64.747,39.289 64.81,39.283 64.874,39.269C65.39,39.166 65.725,38.662 65.621,38.146C63.492,27.567 55.733,19.096 45.374,16.04C44.869,15.888 44.338,16.18 44.188,16.685C44.038,17.191 44.327,17.722 44.833,17.871C54.513,20.727 61.76,28.64 63.749,38.522C63.841,38.976 64.239,39.289 64.684,39.289Z" style="fill:rgb(31,30,31);fill-rule:nonzero;"/>
            </g>
            <g transform="matrix(2,0,0,2,-8.65833,-16.128)">
                <path d="M37.14,72.961C40.646,72.961 44.072,72.342 47.327,71.123C47.82,70.938 48.071,70.388 47.886,69.894C47.7,69.401 47.148,69.152 46.657,69.335C40.446,71.662 33.413,71.607 27.233,69.187C26.744,68.996 26.189,69.236 25.996,69.728C25.804,70.219 26.046,70.772 26.537,70.965C29.915,72.289 33.482,72.961 37.14,72.961Z" style="fill:rgb(31,30,31);fill-rule:nonzero;"/>
            </g>
            <g transform="matrix(2,0,0,2,-8.65833,-16.128)">
                <path d="M25.299,24.381C25.588,22.483 25.829,21.764 28.46,21.46C29.455,21.344 32.168,21.066 33.176,20.491C34.185,19.915 34.024,17.03 34.024,17.03L39.534,17.03C39.534,17.03 39.372,19.915 40.382,20.491C41.392,21.066 44.103,21.344 45.099,21.46C47.73,21.764 47.971,22.483 48.26,24.381C48.491,25.901 48.499,27.935 48.499,27.935L25.059,27.935C25.059,27.935 25.068,25.901 25.299,24.381Z" style="fill:white;fill-rule:nonzero;"/>
            </g>
            <g transform="matrix(2,0,0,2,-8.65833,-16.128)">
                <path d="M47.315,24.525C47.068,22.894 47.03,22.644 44.988,22.408L44.781,22.385C42.831,22.162 40.889,21.879 39.909,21.319C38.88,20.732 38.62,19.127 38.573,17.985L34.984,17.985C34.937,19.127 34.677,20.732 33.65,21.319C32.669,21.879 30.728,22.162 28.774,22.385L28.568,22.408C26.529,22.644 26.49,22.894 26.243,24.526C26.121,25.321 26.064,26.281 26.037,26.98L47.522,26.98C47.494,26.281 47.438,25.322 47.315,24.525ZM24.383,28.609C24.204,28.429 24.104,28.185 24.104,27.932C24.105,27.846 24.116,25.809 24.356,24.238C24.699,21.979 25.204,20.874 28.349,20.512L28.559,20.488C29.393,20.393 31.927,20.103 32.685,19.673C32.943,19.443 33.13,18.183 33.071,17.082C33.057,16.82 33.151,16.564 33.331,16.374C33.512,16.184 33.762,16.076 34.024,16.076L39.534,16.076C39.795,16.076 40.047,16.184 40.227,16.374C40.407,16.564 40.501,16.82 40.487,17.082C40.427,18.183 40.614,19.443 40.856,19.662C41.63,20.103 44.165,20.393 44.997,20.488L45.208,20.512C48.355,20.875 48.86,21.979 49.203,24.238C49.441,25.809 49.452,27.846 49.454,27.932C49.454,28.185 49.355,28.429 49.175,28.609C48.996,28.789 48.753,28.89 48.499,28.89L25.059,28.89C24.805,28.89 24.562,28.789 24.383,28.609Z" style="fill:rgb(31,30,31);fill-rule:nonzero;"/>
            </g>
            <g transform="matrix(2,0,0,2,-8.65833,-16.128)">
                <path d="M36.836,22.642C36.836,22.642 40.079,20.317 40.382,20.491C41.392,21.066 44.103,21.344 45.099,21.46C47.73,21.764 47.971,22.483 48.26,24.381C48.491,25.901 48.499,27.935 48.499,27.935L25.059,27.935C25.059,27.935 25.068,25.901 25.299,24.381C25.588,22.483 25.829,21.764 28.46,21.46C29.455,21.344 32.168,21.066 33.176,20.491C33.48,20.317 36.836,22.642 36.836,22.642Z" style="fill:white;fill-rule:nonzero;"/>
            </g>
            <g transform="matrix(2,0,0,2,-8.65833,-16.128)">
                <path d="M47.315,24.525C47.068,22.894 47.03,22.644 44.988,22.408L44.781,22.385C43.064,22.189 41.356,21.947 40.302,21.51C39.736,21.807 38.441,22.665 37.394,23.417C37.065,23.653 36.626,23.656 36.293,23.427C35.194,22.666 33.842,21.799 33.262,21.507C32.209,21.946 30.496,22.189 28.774,22.385L28.568,22.408C26.529,22.644 26.49,22.894 26.243,24.526C26.121,25.321 26.064,26.281 26.037,26.98L47.522,26.98C47.494,26.281 47.438,25.322 47.315,24.525ZM24.383,28.609C24.204,28.429 24.104,28.185 24.104,27.932C24.105,27.846 24.116,25.809 24.356,24.238C24.699,21.979 25.204,20.874 28.349,20.512L28.559,20.488C29.393,20.393 31.927,20.103 32.703,19.662C32.846,19.579 33.054,19.526 33.22,19.526C33.482,19.526 33.956,19.526 36.827,21.478C39.603,19.526 40.077,19.526 40.337,19.526C40.503,19.526 40.71,19.579 40.856,19.662C41.63,20.103 44.165,20.393 44.997,20.488L45.208,20.512C48.355,20.875 48.86,21.979 49.203,24.238C49.441,25.809 49.452,27.846 49.454,27.932C49.454,28.185 49.355,28.429 49.175,28.609C48.996,28.789 48.753,28.89 48.499,28.89L25.059,28.89C24.805,28.89 24.562,28.789 24.383,28.609Z" style="fill:rgb(31,30,31);fill-rule:nonzero;"/>
            </g>
            <g transform="matrix(2,0,0,2,-8.65833,-16.128)">
                <path d="M42.214,21.05C43.303,21.264 44.505,21.391 45.099,21.46C47.73,21.764 47.971,22.483 48.26,24.381C48.491,25.901 48.499,27.935 48.499,27.935L37.522,27.935L42.214,21.05Z" style="fill:white;fill-rule:nonzero;"/>
            </g>
            <g transform="matrix(2,0,0,2,-8.65833,-16.128)">
                <path d="M47.315,24.525C47.068,22.894 47.03,22.644 44.988,22.408L44.788,22.385C44.268,22.326 43.47,22.235 42.653,22.1L39.327,26.98L47.522,26.98C47.494,26.281 47.438,25.322 47.315,24.525ZM36.678,28.382C36.513,28.068 36.534,27.69 36.733,27.397L41.425,20.512C41.641,20.197 42.022,20.039 42.397,20.113C43.337,20.298 44.38,20.417 45.005,20.489L45.208,20.512C48.355,20.875 48.86,21.979 49.203,24.238C49.441,25.809 49.452,27.846 49.454,27.932C49.454,28.185 49.355,28.429 49.175,28.609C48.996,28.789 48.753,28.89 48.499,28.89L37.522,28.89C37.168,28.89 36.844,28.694 36.678,28.382Z" style="fill:rgb(31,30,31);fill-rule:nonzero;"/>
            </g>
            <g transform="matrix(2,0,0,2,-8.65833,-16.128)">
                <path d="M25.059,27.935C25.059,27.935 25.068,25.901 25.299,24.381C25.588,22.483 25.829,21.764 28.46,21.46C29.054,21.391 30.255,21.264 31.345,21.05L36.036,27.935L25.059,27.935Z" style="fill:white;fill-rule:nonzero;"/>
            </g>
            <g transform="matrix(2,0,0,2,-8.65833,-16.128)">
                <path d="M30.905,22.1C30.086,22.235 29.286,22.326 28.766,22.386L28.568,22.408C26.529,22.644 26.49,22.894 26.243,24.526C26.121,25.321 26.064,26.281 26.037,26.98L34.231,26.98L30.905,22.1ZM24.383,28.609C24.204,28.429 24.104,28.185 24.104,27.932C24.105,27.846 24.116,25.809 24.356,24.238C24.699,21.979 25.204,20.874 28.349,20.512L28.549,20.489C29.173,20.418 30.218,20.298 31.161,20.113C31.537,20.039 31.919,20.197 32.134,20.512L36.825,27.397C37.024,27.69 37.045,28.068 36.88,28.382C36.715,28.694 36.39,28.89 36.036,28.89L25.059,28.89C24.805,28.89 24.562,28.789 24.383,28.609Z" style="fill:rgb(31,30,31);fill-rule:nonzero;"/>
            </g>
            <g transform="matrix(2,0,0,2,-8.65833,-16.128)">
                <path d="M29.705,10.907C29.513,10.007 29.412,9.125 29.412,8.323C29.412,4.255 32.71,0.955 36.779,0.955C40.849,0.955 44.147,4.255 44.147,8.323C44.147,9.123 44.042,10.003 43.845,10.9C44.229,11.28 44.371,11.951 44.157,12.619C43.935,13.312 43.396,13.78 42.841,13.838C41.62,16.416 39.572,18.546 36.779,18.546C33.915,18.546 31.878,16.415 30.682,13.836C30.139,13.764 29.619,13.295 29.401,12.619C29.19,11.957 29.328,11.288 29.705,10.907Z" style="fill:white;fill-rule:nonzero;"/>
            </g>
            <g transform="matrix(2,0,0,2,-8.65833,-16.128)">
                <path d="M30.367,8.323C30.367,9.05 30.46,9.875 30.638,10.708C30.705,11.023 30.609,11.35 30.382,11.579C30.292,11.671 30.191,11.956 30.311,12.327C30.424,12.685 30.67,12.872 30.809,12.89C31.131,12.934 31.41,13.139 31.547,13.435C32.268,14.987 33.905,17.591 36.779,17.591C39.589,17.591 41.241,14.984 41.979,13.43C42.12,13.129 42.409,12.924 42.741,12.889C42.882,12.874 43.132,12.69 43.248,12.327C43.355,11.995 43.289,11.693 43.173,11.578C42.94,11.347 42.841,11.014 42.913,10.694C43.097,9.863 43.192,9.044 43.192,8.323C43.192,4.786 40.315,1.91 36.779,1.91C33.243,1.91 30.367,4.786 30.367,8.323ZM30.007,14.633C29.318,14.348 28.751,13.717 28.492,12.91C28.243,12.132 28.324,11.311 28.687,10.683C28.534,9.858 28.458,9.067 28.458,8.323C28.458,3.734 32.19,0 36.779,0C41.368,0 45.103,3.734 45.103,8.323C45.103,9.063 45.022,9.852 44.866,10.674C45.233,11.303 45.317,12.127 45.065,12.911C44.802,13.74 44.216,14.377 43.503,14.651C41.915,17.739 39.483,19.5 36.779,19.5C33.979,19.5 31.587,17.777 30.007,14.633Z" style="fill:rgb(31,30,31);fill-rule:nonzero;"/>
            </g>
            <g transform="matrix(2,0,0,2,-8.65833,-16.128)">
                <path d="M50.106,65.385C50.394,63.487 50.633,62.768 53.265,62.465C54.261,62.35 56.974,62.07 57.982,61.494C58.991,60.918 58.831,58.035 58.831,58.035L61.585,58.035L64.339,58.033C64.339,58.033 64.179,60.918 65.189,61.494C66.196,62.07 68.908,62.348 69.905,62.465C72.536,62.769 72.776,63.487 73.065,65.385C73.298,66.904 73.306,68.939 73.306,68.939L49.864,68.939C49.864,68.939 49.873,66.904 50.106,65.385Z" style="fill:white;fill-rule:nonzero;"/>
            </g>
            <g transform="matrix(2,0,0,2,-8.65833,-16.128)">
                <path d="M72.12,65.527C71.874,63.9 71.837,63.649 69.793,63.414L69.562,63.387C67.619,63.162 65.688,62.879 64.716,62.322C63.687,61.735 63.427,60.131 63.38,58.989L59.79,58.99C59.743,60.133 59.484,61.735 58.456,62.322C57.474,62.885 55.528,63.168 53.571,63.391L53.374,63.414C51.334,63.647 51.297,63.898 51.049,65.529C50.928,66.324 50.87,67.285 50.844,67.984L72.327,67.984C72.3,67.285 72.243,66.326 72.12,65.527ZM49.189,69.613C49.009,69.434 48.909,69.188 48.91,68.936C48.91,68.85 48.921,66.812 49.161,65.242C49.505,62.982 50.011,61.879 53.155,61.518L53.355,61.494C54.19,61.398 56.731,61.109 57.492,60.677C57.749,60.446 57.937,59.187 57.878,58.088C57.863,57.826 57.958,57.569 58.138,57.379C58.318,57.189 58.567,57.081 58.831,57.081L64.339,57.079C64.602,57.079 64.851,57.187 65.032,57.377C65.212,57.568 65.306,57.824 65.292,58.086C65.233,59.187 65.42,60.446 65.661,60.666C66.429,61.103 68.863,61.385 69.778,61.49L70.014,61.518C73.161,61.881 73.667,62.984 74.009,65.24C74.248,66.812 74.259,68.85 74.261,68.936C74.261,69.188 74.16,69.434 73.981,69.613C73.802,69.793 73.56,69.894 73.306,69.894L49.864,69.894C49.611,69.894 49.367,69.793 49.189,69.613Z" style="fill:rgb(31,30,31);fill-rule:nonzero;"/>
            </g>
            <g transform="matrix(2,0,0,2,-8.65833,-16.128)">
                <path d="M61.643,63.645C61.643,63.645 64.884,61.32 65.189,61.494C66.196,62.07 68.908,62.348 69.905,62.465C72.536,62.769 72.776,63.487 73.065,65.385C73.298,66.904 73.306,68.939 73.306,68.939L49.864,68.939C49.864,68.939 49.873,66.904 50.106,65.385C50.394,63.487 50.633,62.768 53.265,62.465C54.261,62.35 56.974,62.07 57.982,61.494C58.286,61.32 61.643,63.645 61.643,63.645Z" style="fill:white;fill-rule:nonzero;"/>
            </g>
            <g transform="matrix(2,0,0,2,-8.65833,-16.128)">
                <path d="M72.12,65.527C71.874,63.9 71.837,63.649 69.793,63.414L69.562,63.387C67.855,63.189 66.155,62.947 65.108,62.514C64.542,62.811 63.247,63.669 62.199,64.422C61.871,64.657 61.431,64.66 61.099,64.431C60,63.67 58.648,62.803 58.069,62.51C57.015,62.95 55.297,63.194 53.571,63.391L53.374,63.414C51.334,63.647 51.297,63.898 51.049,65.529C50.928,66.324 50.87,67.285 50.844,67.984L72.327,67.984C72.3,67.285 72.243,66.326 72.12,65.527ZM49.189,69.613C49.009,69.434 48.909,69.188 48.91,68.936C48.91,68.85 48.921,66.812 49.161,65.242C49.505,62.982 50.011,61.879 53.155,61.518L53.355,61.494C54.19,61.398 56.731,61.109 57.509,60.666C57.653,60.582 57.861,60.53 58.027,60.53C58.288,60.53 58.763,60.53 61.634,62.481C64.407,60.53 64.882,60.53 65.143,60.53C65.31,60.53 65.517,60.582 65.661,60.666C66.429,61.103 68.863,61.385 69.778,61.49L70.014,61.518C73.161,61.881 73.667,62.984 74.009,65.24C74.248,66.812 74.259,68.85 74.261,68.936C74.261,69.188 74.16,69.434 73.981,69.613C73.802,69.793 73.56,69.894 73.306,69.894L49.864,69.894C49.611,69.894 49.367,69.793 49.189,69.613Z" style="fill:rgb(31,30,31);fill-rule:nonzero;"/>
            </g>
            <g transform="matrix(2,0,0,2,-8.65833,-16.128)">
                <path d="M67.02,62.055C68.108,62.268 69.312,62.394 69.905,62.465C72.536,62.769 72.776,63.487 73.065,65.385C73.298,66.904 73.306,68.939 73.306,68.939L62.327,68.939L67.02,62.055Z" style="fill:white;fill-rule:nonzero;"/>
            </g>
            <g transform="matrix(2,0,0,2,-8.65833,-16.128)">
                <path d="M72.12,65.527C71.874,63.9 71.837,63.649 69.792,63.414L69.534,63.384C69.027,63.324 68.25,63.234 67.46,63.103L64.134,67.984L72.327,67.984C72.3,67.285 72.243,66.326 72.12,65.527ZM61.481,69.385C61.317,69.072 61.339,68.693 61.538,68.4L66.231,61.518C66.445,61.202 66.827,61.046 67.202,61.119C68.114,61.297 69.142,61.416 69.755,61.486L70.014,61.518C73.161,61.881 73.667,62.984 74.009,65.24C74.248,66.812 74.259,68.85 74.261,68.936C74.261,69.188 74.16,69.434 73.981,69.613C73.802,69.793 73.56,69.894 73.306,69.894L62.327,69.894C61.973,69.894 61.647,69.697 61.481,69.385Z" style="fill:rgb(31,30,31);fill-rule:nonzero;"/>
            </g>
            <g transform="matrix(2,0,0,2,-8.65833,-16.128)">
                <path d="M49.864,68.939C49.864,68.939 49.873,66.904 50.106,65.385C50.394,63.487 50.633,62.768 53.265,62.465C53.858,62.394 55.062,62.268 56.151,62.054L56.151,62.055L60.843,68.939L49.864,68.939Z" style="fill:white;fill-rule:nonzero;"/>
            </g>
            <g transform="matrix(2,0,0,2,-8.65833,-16.128)">
                <path d="M55.71,63.103C54.917,63.234 54.138,63.325 53.631,63.384L53.374,63.414C51.334,63.647 51.297,63.898 51.049,65.529C50.928,66.324 50.87,67.285 50.844,67.984L59.036,67.984L55.71,63.103ZM49.189,69.613C49.009,69.434 48.909,69.188 48.91,68.936C48.91,68.85 48.921,66.812 49.161,65.242C49.505,62.982 50.011,61.879 53.151,61.518L53.411,61.488C54.024,61.416 55.054,61.297 55.968,61.117C56.288,61.053 56.618,61.16 56.843,61.396C56.888,61.443 56.925,61.493 56.959,61.547L61.632,68.4C61.831,68.693 61.852,69.072 61.687,69.385C61.522,69.697 61.196,69.894 60.843,69.894L49.864,69.894C49.611,69.894 49.367,69.793 49.189,69.613Z" style="fill:rgb(31,30,31);fill-rule:nonzero;"/>
            </g>
            <g transform="matrix(2,0,0,2,-8.65833,-16.128)">
                <path d="M54.511,51.912C54.317,51.01 54.216,50.129 54.218,49.328C54.218,45.26 57.516,41.961 61.585,41.959C65.653,41.961 68.953,45.259 68.954,49.326C68.954,50.129 68.849,51.007 68.649,51.903C69.035,52.283 69.177,52.955 68.964,53.623C68.74,54.316 68.202,54.784 67.647,54.842C66.427,57.42 64.378,59.549 61.585,59.549C58.721,59.549 56.685,57.42 55.487,54.84C54.945,54.766 54.423,54.299 54.207,53.623C53.995,52.961 54.132,52.293 54.511,51.912Z" style="fill:white;fill-rule:nonzero;"/>
            </g>
            <g transform="matrix(2,0,0,2,-8.65833,-16.128)">
                <path d="M55.172,49.33C55.171,50.057 55.267,50.881 55.444,51.713C55.513,52.028 55.415,52.356 55.189,52.585C55.074,52.701 55.011,53 55.116,53.332C55.236,53.708 55.487,53.876 55.618,53.894C55.94,53.938 56.217,54.144 56.355,54.437C57.073,55.99 58.71,58.595 61.585,58.595C64.394,58.595 66.048,55.987 66.784,54.434C66.927,54.133 67.216,53.928 67.548,53.893C67.689,53.878 67.939,53.694 68.054,53.33C68.161,52.999 68.095,52.697 67.98,52.582C67.745,52.352 67.646,52.018 67.718,51.696C67.901,50.867 67.999,50.049 67.999,49.326C67.999,45.792 65.12,42.915 61.585,42.913C58.049,42.915 55.172,45.793 55.172,49.33ZM54.814,55.637C54.123,55.35 53.557,54.719 53.298,53.914C53.05,53.137 53.13,52.315 53.492,51.687C53.339,50.865 53.262,50.074 53.263,49.328C53.263,44.74 56.997,41.006 61.585,41.004C66.173,41.006 69.907,44.739 69.909,49.326C69.909,50.068 69.829,50.857 69.671,51.678C70.04,52.307 70.124,53.131 69.872,53.914C69.606,54.744 69.022,55.381 68.31,55.654C66.722,58.743 64.289,60.504 61.585,60.504C58.784,60.504 56.392,58.779 54.814,55.637Z" style="fill:rgb(31,30,31);fill-rule:nonzero;"/>
            </g>
            <g transform="matrix(2,0,0,2,-8.65833,-16.128)">
                <path d="M24.175,65.385C23.886,63.487 23.645,62.768 21.015,62.465C20.017,62.35 17.304,62.07 16.297,61.494C15.289,60.918 15.449,58.035 15.449,58.035L12.693,58.035L9.94,58.033C9.94,58.033 10.1,60.918 9.091,61.494C8.083,62.07 5.37,62.348 4.375,62.465C1.744,62.769 1.501,63.487 1.214,65.385C0.983,66.904 0.974,68.939 0.974,68.939L24.415,68.939C24.415,68.939 24.406,66.904 24.175,65.385Z" style="fill:white;fill-rule:nonzero;"/>
            </g>
            <g transform="matrix(2,0,0,2,-8.65833,-16.128)">
                <path d="M23.231,65.529C22.982,63.898 22.944,63.647 20.904,63.414L20.707,63.391C18.751,63.168 16.805,62.885 15.824,62.322C14.795,61.735 14.537,60.133 14.489,58.99L10.9,58.989C10.853,60.131 10.593,61.735 9.565,62.322C8.591,62.879 6.659,63.162 4.717,63.387L4.483,63.414C2.443,63.649 2.405,63.9 2.158,65.529C2.037,66.324 1.979,67.285 1.953,67.984L23.437,67.984C23.409,67.285 23.352,66.326 23.231,65.529ZM0,68.939C0,68.87 0.007,68.803 0.021,68.737C0.029,68.178 0.071,66.549 0.27,65.242C0.612,62.984 1.118,61.881 4.263,61.518L4.499,61.49C5.415,61.385 7.85,61.103 8.601,60.677C8.858,60.446 9.047,59.187 8.987,58.086C8.973,57.824 9.067,57.568 9.248,57.377C9.428,57.187 9.679,57.079 9.94,57.079L15.449,57.081C15.71,57.081 15.962,57.189 16.141,57.379C16.322,57.569 16.416,57.826 16.402,58.088C16.342,59.187 16.531,60.446 16.771,60.666C17.547,61.109 20.088,61.398 20.923,61.494L21.123,61.518C24.268,61.879 24.774,62.982 25.118,65.242C25.357,66.812 25.369,68.849 25.37,68.934C25.37,69.188 25.271,69.432 25.091,69.611C24.912,69.792 24.669,69.894 24.415,69.894L0.954,69.894C0.427,69.894 0,69.467 0,68.939Z" style="fill:rgb(31,30,31);fill-rule:nonzero;"/>
            </g>
            <g transform="matrix(2,0,0,2,-8.65833,-16.128)">
                <path d="M12.638,63.645C12.638,63.645 9.396,61.32 9.091,61.494C8.083,62.07 5.37,62.348 4.375,62.465C1.744,62.769 1.501,63.487 1.214,65.385C0.983,66.904 0.974,68.939 0.974,68.939L24.415,68.939C24.415,68.939 24.406,66.904 24.175,65.385C23.886,63.487 23.645,62.768 21.015,62.465C20.017,62.35 17.304,62.07 16.297,61.494C15.994,61.32 12.638,63.645 12.638,63.645Z" style="fill:white;fill-rule:nonzero;"/>
            </g>
            <g transform="matrix(2,0,0,2,-8.65833,-16.128)">
                <path d="M23.231,65.529C22.982,63.898 22.944,63.647 20.904,63.414L20.707,63.391C18.981,63.194 17.265,62.95 16.21,62.512C15.631,62.803 14.279,63.67 13.18,64.431C12.848,64.66 12.408,64.657 12.081,64.422C11.031,63.669 9.736,62.811 9.17,62.514C8.123,62.947 6.424,63.189 4.717,63.387L4.483,63.414C2.443,63.649 2.405,63.9 2.158,65.529C2.037,66.324 1.979,67.285 1.953,67.984L23.437,67.984C23.409,67.285 23.352,66.324 23.231,65.529ZM0,68.939C0,68.87 0.007,68.803 0.021,68.737C0.029,68.178 0.071,66.549 0.27,65.242C0.612,62.984 1.118,61.881 4.263,61.518L4.499,61.49C5.415,61.385 7.85,61.103 8.618,60.666C8.761,60.582 8.968,60.53 9.134,60.53C9.397,60.53 9.871,60.53 12.647,62.481C15.516,60.53 15.991,60.53 16.253,60.53C16.418,60.53 16.627,60.584 16.771,60.666C17.547,61.109 20.088,61.398 20.923,61.494L21.123,61.518C24.268,61.879 24.774,62.982 25.118,65.242C25.357,66.812 25.369,68.849 25.37,68.934C25.37,69.188 25.271,69.432 25.091,69.611C24.912,69.792 24.669,69.894 24.415,69.894L0.954,69.894C0.427,69.894 0,69.467 0,68.939Z" style="fill:rgb(31,30,31);fill-rule:nonzero;"/>
            </g>
            <g transform="matrix(2,0,0,2,-8.65833,-16.128)">
                <path d="M7.261,62.055C6.17,62.268 4.969,62.394 4.375,62.465C1.744,62.769 1.501,63.487 1.214,65.385C0.983,66.904 0.974,68.939 0.974,68.939L11.953,68.939L7.261,62.055Z" style="fill:white;fill-rule:nonzero;"/>
            </g>
            <g transform="matrix(2,0,0,2,-8.65833,-16.128)">
                <path d="M6.82,63.103C6.028,63.234 5.249,63.325 4.74,63.384L4.483,63.414C2.443,63.649 2.405,63.9 2.158,65.529C2.037,66.324 1.979,67.285 1.953,67.984L10.147,67.984L6.82,63.103ZM0,68.939C0,68.87 0.007,68.803 0.021,68.737C0.029,68.178 0.071,66.549 0.27,65.242C0.612,62.984 1.118,61.881 4.261,61.518L4.52,61.488C5.135,61.416 6.163,61.297 7.078,61.119C7.454,61.044 7.834,61.202 8.049,61.518L12.742,68.4C12.941,68.693 12.962,69.072 12.797,69.385C12.632,69.697 12.307,69.894 11.953,69.894L0.954,69.894C0.427,69.894 0,69.467 0,68.939Z" style="fill:rgb(31,30,31);fill-rule:nonzero;"/>
            </g>
            <g transform="matrix(2,0,0,2,-8.65833,-16.128)">
                <path d="M24.415,68.939C24.415,68.939 24.406,66.904 24.175,65.385C23.886,63.487 23.645,62.768 21.015,62.465C20.422,62.394 19.219,62.268 18.128,62.054L18.128,62.055L13.438,68.939L24.415,68.939Z" style="fill:white;fill-rule:nonzero;"/>
            </g>
            <g transform="matrix(2,0,0,2,-8.65833,-16.128)">
                <path d="M23.231,65.529C22.982,63.898 22.944,63.647 20.901,63.414L20.641,63.383C20.134,63.324 19.358,63.234 18.568,63.103L15.242,67.984L23.437,67.984C23.409,67.285 23.352,66.324 23.231,65.529ZM12.463,68.939C12.463,68.677 12.569,68.439 12.739,68.268L17.339,61.516C17.554,61.201 17.936,61.042 18.312,61.117C19.225,61.297 20.252,61.416 20.865,61.486L21.123,61.518C24.268,61.879 24.774,62.982 25.118,65.242C25.357,66.812 25.369,68.849 25.37,68.934C25.37,69.188 25.271,69.432 25.091,69.611C24.912,69.792 24.669,69.894 24.415,69.894L13.418,69.894C12.891,69.894 12.463,69.467 12.463,68.939Z" style="fill:rgb(31,30,31);fill-rule:nonzero;"/>
            </g>
            <g transform="matrix(2,0,0,2,-8.65833,-16.128)">
                <path d="M19.769,51.912C19.963,51.01 20.062,50.129 20.062,49.328C20.062,45.26 16.764,41.961 12.695,41.959C8.625,41.961 5.327,45.259 5.325,49.326C5.325,50.129 5.43,51.007 5.629,51.903C5.245,52.283 5.102,52.955 5.316,53.623C5.538,54.316 6.079,54.784 6.632,54.842C7.854,57.42 9.9,59.549 12.693,59.549C15.559,59.549 17.595,57.42 18.792,54.84C19.335,54.766 19.855,54.299 20.073,53.623C20.284,52.961 20.146,52.293 19.769,51.912Z" style="fill:white;fill-rule:nonzero;"/>
            </g>
            <g transform="matrix(2,0,0,2,-8.65833,-16.128)">
                <path d="M6.28,49.326C6.28,50.047 6.377,50.867 6.562,51.696C6.632,52.018 6.534,52.352 6.3,52.582C6.185,52.697 6.118,52.999 6.224,53.33C6.341,53.693 6.591,53.878 6.731,53.893C7.063,53.928 7.352,54.133 7.495,54.434C8.23,55.987 9.885,58.595 12.693,58.595C15.568,58.595 17.206,55.99 17.925,54.437C18.063,54.144 18.339,53.938 18.662,53.894C18.792,53.876 19.042,53.707 19.163,53.332C19.27,53 19.205,52.701 19.091,52.585C18.864,52.356 18.768,52.027 18.835,51.713C19.014,50.882 19.107,50.058 19.107,49.328C19.107,45.793 16.231,42.915 12.695,42.913C9.159,42.915 6.281,45.792 6.28,49.326ZM5.969,55.654C5.258,55.38 4.673,54.744 4.406,53.914C4.156,53.131 4.239,52.307 4.607,51.678C4.45,50.856 4.371,50.066 4.371,49.326C4.373,44.739 8.107,41.006 12.695,41.004C17.284,41.006 21.017,44.74 21.017,49.328C21.017,50.074 20.94,50.865 20.787,51.687C21.15,52.315 21.231,53.136 20.981,53.914C20.724,54.72 20.157,55.35 19.467,55.637C17.888,58.779 15.496,60.504 12.693,60.504C9.99,60.504 7.559,58.743 5.969,55.654Z" style="fill:rgb(31,30,31);fill-rule:nonzero;"/>
            </g>
            <g transform="matrix(2,0,0,2,-8.65833,-16.128)">
                <path d="M40.168,49.979C41.211,48.893 41.433,48.697 41.468,48.667C41.468,48.667 41.497,48.629 41.515,48.613C41.655,48.473 41.878,48.469 42.021,48.607L47.327,53.844C47.466,53.978 47.468,54.206 47.327,54.346C47.327,54.346 45.778,56.24 44.185,57.271C43.986,57.396 43.792,57.51 43.591,57.609C41.811,58.494 39.879,58.369 38.187,57.707C35.79,56.768 31.085,51.898 31.085,51.898C31.085,51.898 26.149,47.26 25.18,44.875C24.421,43.001 24.318,40.828 25.54,38.875C26.546,37.263 28.422,35.686 28.422,35.686C28.56,35.546 28.782,35.544 28.923,35.682L34.233,40.92C34.37,41.061 34.372,41.281 34.23,41.422C34.215,41.441 34.19,41.451 34.17,41.463C34.17,41.463 33.954,41.728 32.885,42.788C31.521,44.142 30.62,43.951 30.62,43.951C30.883,44.809 34.603,48.335 34.603,48.335C34.603,48.335 38.176,52.004 39.034,52.258C39.034,52.258 38.869,51.333 40.168,49.979Z" style="fill:white;fill-rule:nonzero;"/>
            </g>
            <g transform="matrix(2,0,0,2,-8.65833,-16.128)">
                <path d="M41.772,49.701C41.585,49.889 41.296,50.183 40.858,50.641C40.011,51.521 39.983,52.094 39.976,52.094L39.976,52.092C40.032,52.417 39.918,52.749 39.672,52.969C39.426,53.189 39.082,53.267 38.765,53.174C37.856,52.906 35.628,50.757 33.945,49.027C32.166,47.34 29.985,45.139 29.707,44.231C29.6,43.882 29.593,43.475 29.859,43.226C30.128,42.978 30.404,42.875 30.745,43.006C30.768,43.006 31.319,42.996 32.212,42.11C32.658,41.668 32.949,41.371 33.135,41.178L28.653,36.757C28.081,37.281 27.003,38.335 26.349,39.381C25.163,41.277 25.54,43.221 26.064,44.515C26.794,46.311 30.408,49.951 31.771,51.234C33.04,52.548 36.73,56.11 38.534,56.818C40.161,57.455 41.786,57.439 43.169,56.752C43.341,56.668 43.505,56.57 43.665,56.47C44.698,55.803 45.739,54.705 46.255,54.127L41.772,49.701ZM37.839,58.596C35.32,57.609 30.894,53.075 30.43,52.594C29.91,52.103 25.314,47.739 24.294,45.232C23.317,42.818 23.472,40.381 24.73,38.369C25.804,36.649 27.726,35.024 27.741,35.016C28.232,34.519 29.089,34.508 29.593,35.002L34.918,40.254C35.417,40.768 35.41,41.596 34.903,42.099L34.901,42.098C34.877,42.119 34.852,42.143 34.824,42.164C34.683,42.323 34.339,42.69 33.557,43.466C33.059,43.96 32.597,44.289 32.19,44.508C32.934,45.353 34.165,46.605 35.286,47.67C36.352,48.763 37.62,49.977 38.464,50.703C38.675,50.291 38.995,49.822 39.48,49.318C39.946,48.832 40.531,48.229 40.787,47.996C40.808,47.971 40.829,47.947 40.843,47.934C41.337,47.445 42.176,47.431 42.692,47.928L47.991,53.158C48.24,53.398 48.384,53.737 48.386,54.085C48.39,54.414 48.265,54.735 48.044,54.978C47.833,55.232 46.314,57.031 44.692,58.078C44.466,58.223 44.243,58.352 44.017,58.463C43.043,58.947 41.987,59.193 40.878,59.193C39.874,59.193 38.852,58.992 37.839,58.596Z" style="fill:rgb(31,30,31);fill-rule:nonzero;"/>
            </g>
            <g transform="matrix(2,0,0,2,-8.65833,-16.128)">
                <path d="M41.858,45.989C41.956,45.989 42.056,45.975 42.153,45.943C42.655,45.779 42.929,45.242 42.767,44.74C41.995,42.362 40.114,40.48 37.736,39.708C37.231,39.547 36.695,39.82 36.532,40.322C36.37,40.823 36.644,41.361 37.146,41.523C38.944,42.109 40.367,43.531 40.951,45.33C41.081,45.732 41.456,45.989 41.858,45.989Z" style="fill:rgb(31,30,31);fill-rule:nonzero;"/>
            </g>
            <g transform="matrix(2,0,0,2,-8.65833,-16.128)">
                <path d="M45.292,44.845C45.39,44.845 45.489,44.83 45.588,44.799C46.089,44.635 46.363,44.096 46.2,43.595C45.077,40.138 42.34,37.402 38.88,36.275C38.378,36.114 37.839,36.386 37.677,36.887C37.514,37.389 37.788,37.928 38.29,38.091C41.171,39.029 43.449,41.307 44.384,44.186C44.516,44.588 44.89,44.845 45.292,44.845Z" style="fill:rgb(31,30,31);fill-rule:nonzero;"/>
            </g>
            <g transform="matrix(2,0,0,2,-8.65833,-16.128)">
                <path d="M45.213,44.845C45.31,44.845 45.409,44.83 45.508,44.799C46.009,44.635 46.283,44.096 46.121,43.595C44.997,40.138 42.26,37.402 38.802,36.275C38.3,36.114 37.761,36.386 37.598,36.887C37.435,37.389 37.709,37.928 38.21,38.091C41.091,39.029 43.369,41.307 44.306,44.186C44.436,44.588 44.811,44.845 45.213,44.845Z" style="fill:rgb(31,30,31);fill-rule:nonzero;"/>
            </g>
            <g transform="matrix(2,0,0,2,-8.65833,-16.128)">
                <path d="M48.813,44.344C48.896,44.344 48.98,44.333 49.064,44.31C49.571,44.172 49.872,43.648 49.734,43.139C48.356,38.053 44.493,34.19 39.403,32.807C38.895,32.667 38.37,32.969 38.232,33.477C38.094,33.986 38.394,34.511 38.903,34.649C43.332,35.853 46.692,39.213 47.892,43.639C48.007,44.063 48.392,44.344 48.813,44.344Z" style="fill:rgb(31,30,31);fill-rule:nonzero;"/>
            </g>
        </g>
    </g>
</svg>
