<?xml version="1.0" encoding="UTF-8" standalone="no"?>
<!DOCTYPE svg PUBLIC "-//W3C//DTD SVG 1.1//EN" "http://www.w3.org/Graphics/SVG/1.1/DTD/svg11.dtd">
<svg width="100%" height="100%" viewBox="0 0 739 270" version="1.1" xmlns="http://www.w3.org/2000/svg" xmlns:xlink="http://www.w3.org/1999/xlink" xml:space="preserve" xmlns:serif="http://www.serif.com/" style="fill-rule:evenodd;clip-rule:evenodd;stroke-linejoin:round;stroke-miterlimit:2;">
    <g id="Logo">
        <path d="M1.4,174.9L30.5,174.9L30.5,268.1L1.4,268.1L1.4,174.9ZM32.1,145C32.1,136.1 25,129.1 16.2,129.1C7.3,129.1 0,136.1 0,145C0,153.9 7.3,161.2 16.2,161.2C25,161.2 32.1,153.9 32.1,145M53.5,174.9L53.5,268.1L82.6,268.1L82.6,209.2C86.4,199.4 91.6,194.2 98.5,194.2C106.6,194.2 109.9,200.7 109.9,211L109.9,268.1L139,268.1L139,206.3C139,184.7 127.1,173 109.3,173C98.4,173 89.9,177.8 83,187.9L82.7,187.9L82.7,174.8L53.5,174.8M161,174.9L161,268.1L190,268.1L190,208.3C195.4,199 200.3,194.6 206.3,194.6C213.6,194.6 217.2,201.7 217.2,213.2L217.2,268.1L246.3,268.1L246.3,207.6C251.3,198.9 256.9,194.6 263.3,194.6C272.3,194.6 273.6,202.6 273.6,217.4L273.6,268L302.7,268L302.7,206C302.7,182.4 286.3,173 272.6,173C259.9,173 250.6,179.2 244.2,192C239.7,179.9 230.5,173 218.1,173C207.3,173 198.1,178 190.4,189.1L190,189.1L190,174.8L161,174.8M400,248C401.9,248 404.6,246.9 408.5,244.4L408.5,260.9C398.2,267.2 391.3,269.8 384.3,269.8C375.6,269.8 370.8,265.6 369.3,256.9C359.4,266.3 352.2,270 342.3,270C328.8,270 318.3,259.9 318.3,246.6C318.3,227.4 338.9,218.5 368.2,208.8L368.2,205.6C368.2,196.7 364.6,192.8 356.5,192.8C346.4,192.8 337.1,196.9 324.6,207L324.6,185.8C337.5,176.6 348.2,173.1 363.3,173.1C381.2,173.1 397.2,178.9 397.2,199.9L397.2,237.9C397.1,246.8 397.5,248 400,248M368,221.7C352.4,227.4 344.4,232.2 344.4,240.5C344.4,246.4 348.5,250.4 354.5,250.4C359.1,250.4 361.8,249.2 368,244.2L368,221.7ZM421.6,174.9L421.6,268.1L450.7,268.1L450.7,253.7C450.7,228.1 457.6,200.5 472.9,200.5C476.5,200.5 480.5,202.1 485,205.1L491.2,179.2C485.3,175.6 479.7,173.7 474.5,173.7C463.3,173.7 455.1,185.4 448.9,210.1L448.5,210.1L448.5,174.8L421.6,174.8M498.3,240.5L498.3,262.2C510.6,267.8 520.3,270 530,270C550.4,270 564.8,257.4 564.8,239.7C564.8,207.9 519.3,210.6 519.3,198.1C519.3,194 523.6,191.4 530.7,191.4C535.1,191.4 539.6,192 544.4,193.4C549.4,195 554.7,197.3 561.1,200.7L561.1,181.5C550.6,175.6 540.9,173 530.8,173C510.8,173 496.7,185.1 496.7,202.6C496.7,231.9 538.9,229.3 538.9,242C538.9,247.3 534.5,250.2 528.2,250.2C519.2,250.2 510,247.1 498.3,240.5M656.6,248C658.6,248 661.2,246.9 665.1,244.4L665.1,260.9C654.8,267.2 647.9,269.8 640.8,269.8C632.1,269.8 627.3,265.6 625.9,256.9C616,266.3 608.7,270 598.9,270C585.4,270 574.9,259.9 574.9,246.6C574.9,227.4 595.5,218.5 624.8,208.8L624.8,205.6C624.8,196.7 621.1,192.8 613.1,192.8C603,192.8 593.7,196.9 581.1,207L581.1,185.8C594.1,176.6 604.7,173.1 619.9,173.1C637.8,173.1 653.8,178.9 653.8,199.9L653.8,237.9C653.8,246.8 654.1,248 656.6,248M624.7,221.7C609.1,227.4 601.1,232.2 601.1,240.5C601.1,246.4 605.1,250.4 611.2,250.4C615.8,250.4 618.4,249.2 624.7,244.2L624.7,221.7ZM739,262.1L739,240.6C730.7,245.6 726.1,247.5 721.4,247.5C713.8,247.5 711,241.5 711,232.8L711,193.2L737.6,193.2L737.6,174.9L711,174.9L711,146L706,146L668.5,189.6L668.5,193.2L681.9,193.2L681.9,238.3C681.9,262.1 698.4,269.9 712.8,269.9C721.1,270 727.9,267.9 739,262.1M582.3,18.6C599.4,22.3 654.8,56.3 605,95.5L629.9,108.6C681.7,48.4 604,19 582.4,18.2C582.3,18.2 581.7,18.3 582.3,18.6M606.1,0.3C639.5,13 700,65.1 655.1,121.8L678.5,134C719.8,91.8 693.8,24 606.3,0L606,0C606,0 605.9,0 605.9,0.1C605.8,0.2 606.1,0.3 606.1,0.3M719.4,102.6L733.9,42L673.1,14C673.1,14 672.9,13.8 672.8,14C672.7,14.2 673,14.3 673,14.3C702.1,31.3 723.3,70.2 719.1,102.6C719.1,102.6 719.1,102.9 719.4,102.6" style="stroke:white;stroke-width:1px;"/>
    </g>
</svg>
