<?xml version="1.0" encoding="UTF-8" standalone="no"?>
<!DOCTYPE svg PUBLIC "-//W3C//DTD SVG 1.1//EN" "http://www.w3.org/Graphics/SVG/1.1/DTD/svg11.dtd">
<svg width="100%" height="100%" viewBox="0 0 1000 1000" version="1.1" xmlns="http://www.w3.org/2000/svg" xmlns:xlink="http://www.w3.org/1999/xlink" xml:space="preserve" xmlns:serif="http://www.serif.com/" style="fill-rule:evenodd;clip-rule:evenodd;stroke-linejoin:round;stroke-miterlimit:2;">
    <rect id="Artboard1" x="0" y="0" width="1000" height="1000" style="fill:none;"/>
    <g id="Artboard11" serif:id="Artboard1">
        <g transform="matrix(1,0,0,1,0,10)">
            <g transform="matrix(13.1451,0,0,12.3752,-1386.63,-3833.9)">
                <path d="M173.489,346.166C173.489,364.123 158.94,378.68 140.979,378.68C123.019,378.68 108.461,364.123 108.461,346.166C108.461,328.209 123.019,313.652 140.979,313.652C158.94,313.652 173.489,328.209 173.489,346.166Z" style="fill:white;fill-rule:nonzero;"/>
            </g>
            <g transform="matrix(13.1451,0,0,12.3752,-1386.63,-3833.9)">
                <path d="M140.979,314.652C123.6,314.652 109.461,328.789 109.461,346.166C109.461,363.543 123.6,377.68 140.979,377.68C158.354,377.68 172.489,363.543 172.489,346.166C172.489,328.789 158.354,314.652 140.979,314.652ZM140.979,379.68C122.497,379.68 107.461,364.645 107.461,346.166C107.461,327.686 122.497,312.652 140.979,312.652C159.456,312.652 174.489,327.686 174.489,346.166C174.489,364.645 159.456,379.68 140.979,379.68Z" style="fill:rgb(31,30,31);fill-rule:nonzero;"/>
            </g>
            <g transform="matrix(13.1451,0,0,12.3752,-1386.63,-3833.9)">
                <path d="M140.977,314.578C135.695,314.578 130.041,327.264 130.041,346.148C130.041,365.031 135.695,377.717 140.977,377.717C146.258,377.717 151.912,365.031 151.912,346.148C151.912,327.264 146.258,314.578 140.977,314.578ZM140.977,379.717C133.723,379.717 128.041,364.971 128.041,346.148C128.041,327.324 133.723,312.578 140.977,312.578C148.23,312.578 153.912,327.324 153.912,346.148C153.912,364.971 148.23,379.717 140.977,379.717Z" style="fill:rgb(31,30,31);fill-rule:nonzero;"/>
            </g>
            <g transform="matrix(13.1451,0,0,12.3752,-1386.63,-3833.9)">
                <rect x="139.977" y="313.578" width="2" height="65.139" style="fill:rgb(31,30,31);fill-rule:nonzero;"/>
            </g>
            <g transform="matrix(13.1451,0,0,12.3752,-1386.63,-3833.9)">
                <path d="M140.977,330.096C123.569,330.096 109.407,337.297 109.407,346.148C109.407,355 123.569,362.201 140.977,362.201C158.384,362.201 172.546,355 172.546,346.148C172.546,337.297 158.384,330.096 140.977,330.096ZM140.977,364.201C122.467,364.201 107.407,356.104 107.407,346.148C107.407,336.193 122.467,328.096 140.977,328.096C159.486,328.096 174.546,336.193 174.546,346.148C174.546,356.104 159.486,364.201 140.977,364.201Z" style="fill:rgb(31,30,31);fill-rule:nonzero;"/>
            </g>
            <g transform="matrix(13.1451,0,0,12.3752,-1386.63,-3833.9)">
                <rect x="108.407" y="345.148" width="65.139" height="2" style="fill:rgb(31,30,31);fill-rule:nonzero;"/>
            </g>
            <g transform="matrix(13.1451,0,0,12.3752,-1386.63,-3833.9)">
                <path d="M140.977,314.578C127.988,314.578 117.422,328.74 117.422,346.148C117.422,363.555 127.988,377.717 140.977,377.717C153.964,377.717 164.53,363.555 164.53,346.148C164.53,328.74 153.964,314.578 140.977,314.578ZM140.977,379.717C126.886,379.717 115.422,364.658 115.422,346.148C115.422,327.639 126.886,312.578 140.977,312.578C155.067,312.578 166.53,327.639 166.53,346.148C166.53,364.658 155.067,379.717 140.977,379.717Z" style="fill:rgb(31,30,31);fill-rule:nonzero;"/>
            </g>
            <g transform="matrix(13.1451,0,0,12.3752,-1386.63,-3833.9)">
                <path d="M145.828,367.492C143.55,365.191 143.07,364.779 142.999,364.709C142.999,364.709 142.929,364.639 142.888,364.6C142.587,364.301 142.103,364.305 141.805,364.605L130.578,376.027C130.284,376.324 130.285,376.811 130.588,377.105C130.588,377.105 133.984,381.125 137.441,383.281C137.865,383.543 138.292,383.781 138.725,383.988C142.582,385.838 146.725,385.504 150.336,384.027C155.454,381.936 165.404,371.318 165.404,371.318C165.404,371.318 175.849,361.189 177.855,356.037C179.43,351.992 179.581,347.316 176.888,343.158C174.677,339.738 170.6,336.408 170.6,336.408C170.299,336.113 169.817,336.119 169.521,336.414L158.289,347.84C157.994,348.139 158.001,348.621 158.304,348.92C158.343,348.959 158.393,348.979 158.437,349.006C158.437,349.006 158.911,349.566 161.246,351.811C164.218,354.672 166.143,354.236 166.143,354.236C165.606,356.086 157.734,363.777 157.734,363.777C157.734,363.777 150.178,371.781 148.337,372.344C148.337,372.344 148.659,370.354 145.828,367.492Z" style="fill:white;fill-rule:nonzero;"/>
            </g>
            <g transform="matrix(13.1451,0,0,12.3752,-1386.63,-3833.9)">
                <path d="M131.445,376.572C132.147,377.373 135.069,380.623 137.971,382.432C138.38,382.686 138.769,382.9 139.156,383.086C142.402,384.643 146.21,384.635 149.957,383.102C154.815,381.115 164.576,370.738 164.675,370.635C164.811,370.5 175.019,360.564 176.924,355.674C178.589,351.396 178.278,347.145 176.049,343.701C174.145,340.758 170.733,337.826 170.077,337.275L159.19,348.35C159.193,348.354 159.196,348.355 159.199,348.359C159.216,348.379 159.716,348.953 161.939,351.09C164.03,353.104 165.453,353.26 165.839,353.26C165.896,353.26 165.936,353.256 165.956,353.254C166.296,353.199 166.651,353.324 166.876,353.58C167.101,353.838 167.198,354.188 167.104,354.514C166.537,356.465 160.324,362.645 158.434,364.492C156.646,366.387 150.572,372.705 148.629,373.299C148.299,373.398 147.939,373.324 147.68,373.098C147.419,372.869 147.295,372.523 147.35,372.184C147.349,372.184 147.471,370.572 145.117,368.195C144.21,367.279 142.997,366.066 142.368,365.488C142.365,365.486 142.359,365.48 142.353,365.475L131.445,376.572ZM144.364,386.258C142.229,386.258 140.186,385.797 138.292,384.889C137.839,384.672 137.389,384.424 136.915,384.131C133.362,381.916 129.966,377.92 129.824,377.752C129.55,377.49 129.363,377.049 129.358,376.576C129.354,376.104 129.535,375.66 129.866,375.324L141.092,363.904C141.764,363.229 142.922,363.225 143.593,363.891L143.706,364.002C144.249,364.5 145.197,365.434 146.539,366.787C148.076,368.342 148.783,369.697 149.102,370.701C150.877,369.301 154.217,366.045 157.007,363.09C159.926,360.238 163.115,356.854 164.496,355.047C163.488,354.748 162.137,354.057 160.553,352.531C158.766,350.813 158.05,350.066 157.795,349.789C157.736,349.75 157.662,349.693 157.588,349.617C156.908,348.947 156.896,347.828 157.576,347.139L168.809,335.713C169.483,335.039 170.633,335.039 171.301,335.695C171.403,335.773 175.457,339.104 177.728,342.615C180.315,346.609 180.692,351.506 178.787,356.4C176.725,361.695 166.533,371.615 166.101,372.035C165.722,372.441 155.974,382.803 150.715,384.953C148.598,385.818 146.461,386.258 144.364,386.258Z" style="fill:rgb(31,30,31);fill-rule:nonzero;"/>
            </g>
            <g transform="matrix(13.1451,0,0,12.3752,-1386.63,-3833.9)">
                <path d="M160.641,352.217C160.392,352.217 160.143,352.125 159.948,351.939C159.55,351.557 159.536,350.924 159.919,350.525L172.15,337.77C172.532,337.373 173.165,337.359 173.564,337.74C173.963,338.123 173.977,338.756 173.594,339.154L161.362,351.91C161.166,352.113 160.903,352.217 160.641,352.217Z" style="fill:rgb(31,30,31);fill-rule:nonzero;"/>
            </g>
            <g transform="matrix(13.1451,0,0,12.3752,-1386.63,-3833.9)">
                <path d="M133.191,380.844C132.942,380.844 132.693,380.752 132.499,380.566C132.101,380.184 132.087,379.551 132.47,379.152L144.693,366.402C145.076,366.006 145.708,365.992 146.107,366.373C146.506,366.756 146.52,367.389 146.137,367.787L133.913,380.537C133.717,380.74 133.454,380.844 133.191,380.844Z" style="fill:rgb(31,30,31);fill-rule:nonzero;"/>
            </g>
        </g>
    </g>
</svg>
