<?xml version="1.0" encoding="UTF-8" standalone="no"?>
<!DOCTYPE svg PUBLIC "-//W3C//DTD SVG 1.1//EN" "http://www.w3.org/Graphics/SVG/1.1/DTD/svg11.dtd">
<svg width="100%" height="100%" viewBox="0 0 78 68" version="1.1" xmlns="http://www.w3.org/2000/svg" xmlns:xlink="http://www.w3.org/1999/xlink" xml:space="preserve" xmlns:serif="http://www.serif.com/" style="fill-rule:evenodd;clip-rule:evenodd;stroke-linejoin:round;stroke-miterlimit:2;">
    <path d="M45.5,61.961L45.5,61.749L42.388,61.749L42.388,61.961C42.388,61.961 43.014,61.967 43.23,62.31L43.23,64.379L40.803,64.379L40.803,62.31C40.803,62.31 40.918,62.002 41.651,61.964L41.651,61.752L38.541,61.752L38.541,61.964C38.541,61.964 39.165,61.97 39.38,62.314L39.38,67.122C39.165,67.466 38.541,67.471 38.541,67.471L38.541,67.682L41.651,67.682L41.651,67.471C40.918,67.434 40.803,67.124 40.803,67.124L40.803,64.762L43.23,64.762L43.23,67.118C43.014,67.464 42.388,67.467 42.388,67.467L42.388,67.68L45.5,67.68L45.5,67.467C44.766,67.431 44.652,67.121 44.652,67.121L44.652,62.307C44.652,62.307 44.766,62 45.5,61.961Z" style="fill:rgb(0,145,172);fill-rule:nonzero;"/>
    <path d="M58.305,67.492C58.243,67.476 58.177,67.446 58.11,67.406C57.668,67.142 57.148,66.444 57.148,66.444C56.275,65.087 55.789,64.846 55.789,64.846C55.789,64.846 56.937,64.531 57.179,63.681C57.341,63.275 57.158,62.728 57.158,62.728C56.727,61.7 55.458,61.75 55.458,61.75L51.574,61.75L51.574,61.965C51.574,61.965 52.152,61.967 52.35,62.314L52.35,67.122C52.152,67.466 51.574,67.471 51.574,67.471L51.574,67.682L54.729,67.682L54.729,67.471C54.054,67.434 53.86,67.124 53.86,67.124L53.86,65.097C53.918,65.087 54.518,64.992 55.292,66.228C55.292,66.228 56.214,67.593 56.417,67.667L57.821,67.676L58.5,67.681L58.305,67.492ZM53.86,64.669L53.86,62.31C53.86,62.31 53.846,62.265 53.866,62.208L53.873,62.21C53.873,62.21 55.67,61.817 55.829,63.112C55.829,63.112 55.855,63.401 55.753,63.701C55.326,64.757 53.933,64.676 53.86,64.669Z" style="fill:rgb(0,145,172);fill-rule:nonzero;"/>
    <path d="M51.047,65.963C50.834,66.856 50.636,67.044 50.636,67.044C49.644,67.422 48.505,67.224 48.505,67.224C48.166,67.204 48.104,66.864 48.093,66.762L48.093,64.745L49.365,64.745C49.548,64.781 49.729,65.617 49.75,65.747L50.004,65.747L50.004,63.345L49.756,63.345C49.731,63.497 49.555,64.306 49.373,64.38L48.093,64.38L48.093,62.257C48.288,62.214 49.531,61.968 50.377,62.326C50.377,62.326 50.602,62.483 50.817,63.379L51.055,63.379L51.067,61.761L45.826,61.749L45.826,61.961C45.826,61.961 46.321,61.967 46.493,62.31L46.493,67.122C46.321,67.466 45.826,67.471 45.826,67.471L45.826,67.682L51.23,67.682L51.29,65.952L51.047,65.963Z" style="fill:rgb(0,145,172);fill-rule:nonzero;"/>
    <path d="M64.09,66.98L61.816,61.749L59.654,61.749L59.654,61.991C59.654,61.991 60.33,61.997 60.497,62.333L58.703,66.997C58.594,67.253 58.323,67.361 58.11,67.407C57.949,67.441 57.821,67.44 57.821,67.44L57.821,67.683L60.056,67.683L60.056,67.44C59.362,67.429 59.224,67.075 59.224,67.075L59.694,65.841L62.059,65.841L62.588,67.097C62.473,67.394 61.753,67.44 61.753,67.44L61.756,67.683L64.976,67.683L64.976,67.44C64.291,67.446 64.09,66.98 64.09,66.98ZM59.841,65.452L60.817,62.881L61.898,65.452L59.841,65.452Z" style="fill:rgb(0,145,172);fill-rule:nonzero;"/>
    <path d="M70.277,65.77C70.107,66.666 69.859,67.037 69.859,67.037C68.926,67.366 67.765,67.215 67.765,67.215C67.48,67.199 67.418,66.861 67.41,66.762L67.41,62.323C67.513,62.217 67.55,62.022 68.243,61.974L68.243,61.749L65.138,61.749L65.138,61.983C65.138,61.983 65.821,62.028 65.957,62.374L65.947,67.074C65.81,67.42 65.138,67.435 65.138,67.435L65.138,67.682L70.45,67.682L70.497,65.754L70.277,65.77Z" style="fill:rgb(0,145,172);fill-rule:nonzero;"/>
    <path d="M77.114,63.427C76.348,61.693 74.334,61.749 74.334,61.749L70.71,61.749L70.71,61.97C70.71,61.97 71.434,62.003 71.545,62.357L71.545,67.077C71.433,67.429 70.71,67.462 70.71,67.462L70.71,67.683L73.961,67.683C75.424,67.654 76.64,66.978 77.144,65.903C77.67,64.649 77.114,63.427 77.114,63.427ZM73.583,67.297C72.976,67.249 72.967,66.865 72.967,66.865L72.964,62.201C72.964,62.201 73.332,62.099 74.1,62.121C74.1,62.121 74.791,62.095 75.244,62.661C75.244,62.661 75.678,63.206 75.708,64.097L75.726,64.65C75.726,64.65 75.755,65.726 75.411,66.313C74.899,67.406 73.583,67.297 73.583,67.297Z" style="fill:rgb(0,145,172);fill-rule:nonzero;"/>
    <path d="M6.186,63.434C5.446,61.758 3.499,61.81 3.499,61.81L0,61.81L0,62.026C0,62.026 0.698,62.058 0.805,62.402L0.805,66.97C0.698,67.312 0,67.343 0,67.343L0,67.559L3.139,67.559C4.554,67.53 5.731,66.876 6.216,65.833C6.722,64.619 6.186,63.434 6.186,63.434ZM2.773,67.183C2.187,67.138 2.181,66.765 2.181,66.765L2.177,62.249C2.177,62.249 2.531,62.15 3.275,62.172C3.275,62.172 3.943,62.148 4.378,62.693C4.378,62.693 4.8,63.222 4.829,64.086L4.846,64.621C4.846,64.621 4.872,65.662 4.541,66.229C4.046,67.289 2.773,67.183 2.773,67.183Z" style="fill:rgb(0,145,172);fill-rule:nonzero;"/>
    <path d="M11.681,65.891C11.474,66.756 11.281,66.937 11.281,66.937C10.32,67.303 9.217,67.112 9.217,67.112C8.89,67.093 8.831,66.762 8.82,66.665L8.82,64.713L10.052,64.713C10.23,64.746 10.403,65.557 10.424,65.683L10.67,65.683L10.67,63.356L10.429,63.356C10.404,63.505 10.235,64.286 10.058,64.357L8.82,64.357L8.82,62.304C9.007,62.262 10.211,62.023 11.032,62.367C11.032,62.367 11.249,62.522 11.455,63.389L11.685,63.389L11.698,61.822L6.624,61.812L6.624,62.015C6.624,62.015 7.102,62.022 7.268,62.355L7.268,67.013C7.102,67.347 6.624,67.352 6.624,67.352L6.624,67.557L11.857,67.557L11.915,65.882L11.681,65.891Z" style="fill:rgb(0,145,172);fill-rule:nonzero;"/>
    <path d="M29.191,66.9L26.985,61.837L24.883,61.837L24.883,62.07C24.883,62.07 25.538,62.076 25.7,62.403L23.958,66.916C23.773,67.352 23.102,67.345 23.102,67.345L23.102,67.584L25.272,67.584L25.272,67.345C24.599,67.336 24.464,66.993 24.464,66.993L24.921,65.799L27.22,65.799L27.731,67.015C27.622,67.302 26.921,67.345 26.921,67.345L26.923,67.584L30.053,67.584L30.053,67.345C29.388,67.35 29.191,66.9 29.191,66.9ZM25.063,65.424L26.014,62.932L27.062,65.424L25.063,65.424Z" style="fill:rgb(0,145,172);fill-rule:nonzero;"/>
    <path d="M17.596,66.434C16.15,67.651 14.746,66.861 14.746,66.861C12.823,65.776 13.44,61.74 16.091,62.173C16.091,62.173 16.838,62.234 16.928,62.621L17.188,63.412L17.412,63.412L17.412,62.08C17.412,62.08 16.317,61.54 14.558,61.84C13.142,62.111 12.534,63.433 12.534,63.433C12.534,63.433 12.291,63.835 12.228,64.634C12.228,64.634 12.035,66.528 13.818,67.371C13.818,67.371 14.825,67.898 16.346,67.584C16.346,67.584 17.101,67.447 17.795,66.695L17.596,66.434Z" style="fill:rgb(0,145,172);fill-rule:nonzero;"/>
    <path d="M23.109,66.434C21.663,67.651 20.258,66.861 20.258,66.861C18.334,65.776 18.951,61.74 21.603,62.173C21.603,62.173 22.351,62.234 22.439,62.621L22.702,63.412L22.922,63.412L22.922,62.08C22.922,62.08 21.831,61.54 20.07,61.84C18.654,62.111 18.046,63.433 18.046,63.433C18.046,63.433 17.803,63.835 17.738,64.634C17.738,64.634 17.545,66.528 19.331,67.371C19.331,67.371 20.336,67.898 21.86,67.584C21.86,67.584 22.613,67.447 23.306,66.695L23.109,66.434Z" style="fill:rgb(0,145,172);fill-rule:nonzero;"/>
    <path d="M34.63,61.837L34.631,62.083C35.255,62.087 35.453,62.423 35.453,62.423L35.451,65.763L32.408,61.837L30.197,61.837L30.197,62.074C30.197,62.074 30.748,62.062 31.008,62.41L31.016,66.985C30.837,67.318 30.189,67.347 30.189,67.347L30.189,67.584L32.332,67.584L32.332,67.34C31.71,67.336 31.51,66.998 31.51,66.998L31.513,62.976L35.073,67.584L35.955,67.584L35.947,62.437C36.125,62.103 36.773,62.074 36.773,62.074L36.773,61.837L34.63,61.837Z" style="fill:rgb(0,145,172);fill-rule:nonzero;"/>
    <path d="M35.368,12.975C31.138,0.469 20.011,0.867 20.011,0.867L0,0.867L0,2.465C0,2.465 3.992,2.704 4.609,5.257L4.609,39.323C3.992,41.874 0,42.111 0,42.111L0,43.712L17.95,43.712C26.042,43.505 32.764,38.613 35.541,30.853C38.44,21.806 35.368,12.975 35.368,12.975ZM7.125,39.474L5.885,39.474L5.885,5.091L7.125,5.091L7.125,39.474ZM15.86,40.917C12.51,40.581 12.466,37.803 12.466,37.803L12.45,4.13C12.45,4.13 14.478,3.395 18.728,3.549C18.728,3.549 22.546,3.362 25.035,7.445C25.035,7.445 27.441,11.395 27.611,17.821L27.707,21.817C27.707,21.817 27.862,29.567 25.971,33.81C23.133,41.704 15.86,40.917 15.86,40.917ZM24.178,38.963C24.178,38.963 29.163,35.443 29.327,22.095C29.357,21.967 29.415,19.98 29.286,18.336C29.114,16.151 28.74,14.185 28.74,14.185C27.43,6.447 24.107,4.528 24.003,4.47C28.193,5.795 30.383,12.822 30.618,20.221C30.879,28.452 28.716,37.143 24.178,38.963Z" style="fill:rgb(0,145,172);fill-rule:nonzero;"/>
    <path d="M77.373,2.345L77.373,0.814L58.24,0.814L58.24,2.345C58.24,2.345 62.092,2.384 63.416,4.876L63.416,19.839L48.487,19.839L48.487,4.877C48.487,4.877 49.202,2.64 53.705,2.366L53.705,0.834L34.573,0.834L34.573,2.366C34.573,2.366 38.424,2.404 39.748,4.897L39.748,39.69C38.424,42.183 34.571,42.221 34.571,42.221L34.571,43.751L53.705,43.751L53.705,42.221C49.202,41.945 48.487,39.709 48.487,39.709L48.487,22.612L63.416,22.612L63.416,39.669C62.092,42.161 58.24,42.199 58.24,42.199L58.24,43.73L77.373,43.73L77.373,42.199C72.871,41.926 72.156,39.69 72.156,39.69L72.156,4.855C72.156,4.855 72.871,2.618 77.373,2.345ZM42.501,39.674L41.127,39.674L41.127,5.092L42.501,5.092L42.501,39.674ZM66.219,39.656L64.845,39.656L64.845,5.073L66.219,5.073L66.219,39.656Z" style="fill:rgb(0,145,172);fill-rule:nonzero;"/>
    <path d="M48.615,57.204C48.596,57.035 48.593,57.004 48.546,57.004C48.535,57.004 48.523,57.009 48.515,57.018C48.5,57.032 48.499,57.051 48.495,57.074C48.404,57.446 48.237,57.62 48.235,57.624C48.233,57.625 48.233,57.626 48.232,57.627C47.937,58.025 47.465,58.262 46.97,58.262L31.548,58.262C30.942,58.262 30.383,57.907 30.126,57.359C30.101,57.304 30.035,57.144 30.028,57.069C30.026,57.052 30.022,57.004 29.978,57.004C29.932,57.004 29.925,57.037 29.909,57.205C29.901,57.299 29.895,57.4 29.895,57.455C29.895,58.369 30.639,59.113 31.553,59.113L46.976,59.113C47.89,59.113 48.634,58.369 48.634,57.455C48.634,57.394 48.624,57.286 48.615,57.204Z" style="fill:rgb(0,145,172);fill-rule:nonzero;"/>
    <path d="M31.392,57.814C31.558,57.862 31.716,57.887 31.859,57.887L31.86,57.887C32.214,57.9 32.459,57.834 32.634,57.787C32.699,57.77 32.754,57.755 32.802,57.748C32.934,57.731 33.132,57.734 33.358,57.756C33.444,57.769 33.54,57.781 33.642,57.792C34.285,57.866 35.153,57.915 35.587,57.9C35.589,57.9 35.591,57.9 35.593,57.899L35.605,57.899C36.096,57.899 36.445,57.715 36.572,57.635C36.825,57.774 37.481,57.872 37.736,57.885C37.922,57.894 38.124,57.899 38.336,57.899C39.268,57.899 40.274,57.809 40.823,57.724C41.727,57.903 43.227,57.941 44.329,57.941C45.279,57.941 46.12,57.91 46.283,57.89L46.352,57.882C46.658,57.851 47.374,57.778 47.666,57.116C47.783,56.853 47.772,56.577 47.634,56.292C48.1,55.719 48.166,54.74 47.985,54.049C47.865,53.593 47.643,53.253 47.584,53.169C47.536,53.04 47.332,52.504 47.066,52.057C46.703,51.383 46.001,50.915 45.035,50.705C44.387,50.563 43.629,50.533 43.038,50.622C42.996,50.629 42.92,50.642 42.822,50.659C42.407,50.731 41.544,50.88 41.263,50.888C41.213,50.885 41.178,50.868 41.152,50.835C41.108,50.779 41.067,50.649 41.12,50.346C41.122,50.331 41.124,50.32 41.124,50.32L41.124,50.321C41.2,49.867 41.078,49.493 40.769,49.238C40.619,49.116 40.428,49.056 40.183,49.056C39.984,49.056 39.779,49.095 39.587,49.134C39.534,49.145 39.48,49.157 39.426,49.17C39.165,49.229 38.885,49.279 38.669,49.209C38.644,49.201 38.615,49.188 38.584,49.17C38.583,49.17 38.581,49.17 38.581,49.169C38.272,48.996 37.702,48.436 37.384,48.1C37.42,48.028 37.446,47.966 37.479,47.881C37.5,47.828 37.524,47.767 37.56,47.686C37.59,47.618 37.693,47.447 37.751,47.355C37.78,47.308 37.79,47.25 37.776,47.197C37.763,47.142 37.727,47.095 37.678,47.069C37.511,46.976 37.337,46.934 37.19,46.917C37.409,46.549 37.586,46.088 37.608,46.031C37.632,45.966 37.623,45.896 37.583,45.841C37.545,45.788 37.484,45.756 37.411,45.756L37.41,45.756C36.447,45.791 35.971,45.982 35.737,46.151C35.633,46.079 35.483,46.01 35.287,46.01C35.21,46.01 35.131,46.02 35.051,46.042C34.76,46.121 34.604,46.335 34.53,46.48C34.33,46.529 33.979,46.685 33.621,47.174C33.127,47.844 32.583,48.182 32.322,48.346C32.261,48.383 32.216,48.412 32.19,48.432C31.854,48.696 31.523,49.101 31.942,49.897C32.243,50.47 32.948,50.674 33.509,50.674C33.642,50.674 33.774,50.663 33.901,50.642C33.964,50.74 34.03,50.902 33.96,51.093C33.925,51.191 33.875,51.286 33.825,51.381L33.78,51.466C33.659,51.688 33.534,51.916 33.629,52.288C33.475,52.392 33.279,52.606 33.236,52.85C33.212,52.987 33.216,53.121 33.252,53.259C33.244,53.257 33.234,53.255 33.222,53.252L33.109,53.222C32.854,53.152 32.561,53.099 32.291,53.206C31.973,53.333 31.522,53.687 31.175,54.655C31.08,54.92 30.991,55.17 31.099,55.408C31.108,55.427 31.131,55.477 30.964,55.573C30.832,55.649 30.744,55.794 30.734,55.952C30.728,56.049 30.752,56.143 30.802,56.225L30.804,56.224C30.807,56.231 30.81,56.238 30.814,56.245C30.825,56.261 30.828,56.266 30.815,56.289C30.765,56.369 30.713,56.455 30.677,56.556C30.602,56.767 30.592,56.815 30.569,56.926C30.508,57.227 30.798,57.641 31.392,57.814ZM30.741,56.943C30.76,56.851 30.768,56.813 30.84,56.612C30.872,56.521 30.926,56.436 30.962,56.378C31.008,56.301 31.007,56.225 30.958,56.148C30.957,56.148 30.954,56.144 30.952,56.139C30.951,56.138 30.95,56.136 30.949,56.135C30.917,56.083 30.902,56.024 30.906,55.962C30.912,55.861 30.967,55.769 31.05,55.722C31.251,55.606 31.321,55.476 31.256,55.335C31.181,55.17 31.238,54.991 31.337,54.712C31.663,53.805 32.07,53.479 32.355,53.365C32.583,53.275 32.822,53.321 33.064,53.387L33.193,53.421C33.316,53.452 33.386,53.413 33.411,53.378C33.43,53.352 33.448,53.306 33.426,53.237C33.39,53.123 33.384,53.002 33.405,52.878C33.444,52.661 33.645,52.467 33.769,52.402C33.807,52.383 33.825,52.34 33.812,52.301C33.706,51.96 33.805,51.778 33.931,51.547L33.979,51.456C34.03,51.36 34.083,51.259 34.122,51.15C34.234,50.841 34.08,50.588 34.008,50.494C33.988,50.468 33.955,50.455 33.923,50.461C33.79,50.487 33.651,50.5 33.509,50.5C32.999,50.5 32.359,50.32 32.094,49.816C31.737,49.138 31.98,48.814 32.296,48.566C32.319,48.548 32.359,48.524 32.413,48.49C32.684,48.322 33.245,47.972 33.759,47.275C34.123,46.778 34.472,46.664 34.605,46.639C34.633,46.634 34.656,46.616 34.667,46.59C34.72,46.476 34.846,46.275 35.096,46.208C35.161,46.19 35.225,46.181 35.287,46.181C35.471,46.181 35.603,46.26 35.682,46.325C35.714,46.352 35.761,46.353 35.793,46.325C35.949,46.193 36.368,45.966 37.418,45.928C37.428,45.928 37.437,45.932 37.443,45.941C37.449,45.95 37.451,45.96 37.447,45.97C37.438,45.995 37.216,46.575 36.969,46.944C36.952,46.97 36.95,47.004 36.964,47.032C36.979,47.06 37.008,47.077 37.039,47.078C37.184,47.081 37.397,47.108 37.595,47.218C37.602,47.222 37.607,47.229 37.609,47.238C37.612,47.246 37.61,47.255 37.606,47.262C37.599,47.272 37.448,47.512 37.403,47.617C37.366,47.7 37.341,47.762 37.313,47.833C37.279,47.92 37.253,47.983 37.204,48.073C37.186,48.106 37.191,48.146 37.216,48.174C37.303,48.266 38.074,49.081 38.494,49.317C38.495,49.318 38.496,49.319 38.497,49.319C38.541,49.344 38.581,49.362 38.616,49.373C38.87,49.455 39.182,49.401 39.464,49.337C39.517,49.325 39.57,49.313 39.622,49.302C39.806,49.264 40,49.228 40.183,49.228C40.386,49.228 40.542,49.274 40.659,49.371C40.919,49.584 41.02,49.902 40.954,50.291C40.954,50.294 40.95,50.314 40.95,50.317C40.931,50.426 40.874,50.759 41.018,50.941C41.074,51.013 41.155,51.053 41.26,51.06C41.562,51.051 42.401,50.906 42.852,50.829C42.948,50.812 43.024,50.799 43.066,50.792C43.28,50.759 43.525,50.743 43.776,50.743C44.188,50.743 44.611,50.787 44.999,50.872C45.915,51.072 46.577,51.51 46.917,52.141C47.186,52.592 47.389,53.134 47.427,53.238C47.429,53.245 47.433,53.252 47.437,53.259C47.481,53.319 47.702,53.646 47.819,54.092C47.99,54.742 47.923,55.71 47.465,56.224C47.441,56.251 47.437,56.292 47.455,56.324L47.476,56.36C47.594,56.597 47.606,56.828 47.509,57.046C47.257,57.616 46.635,57.68 46.335,57.711L46.262,57.719C46.13,57.735 45.329,57.768 44.33,57.768L44.329,57.768C43.428,57.768 41.777,57.74 40.842,57.552C40.837,57.551 40.831,57.55 40.825,57.55C40.821,57.55 40.816,57.551 40.812,57.551C40.273,57.635 39.268,57.727 38.337,57.727C38.127,57.727 37.928,57.722 37.745,57.713C37.418,57.697 36.76,57.574 36.626,57.465C36.597,57.441 36.552,57.44 36.52,57.463C36.483,57.49 36.142,57.727 35.585,57.727L35.585,57.727C35.581,57.726 35.576,57.727 35.571,57.728C35.142,57.742 34.292,57.693 33.662,57.621C33.562,57.61 33.468,57.598 33.379,57.586C33.132,57.561 32.926,57.558 32.779,57.578C32.725,57.585 32.663,57.601 32.59,57.621C32.439,57.661 32.232,57.717 31.947,57.717C31.921,57.717 31.894,57.716 31.863,57.715C31.733,57.715 31.591,57.693 31.44,57.649C30.921,57.497 30.699,57.152 30.741,56.943Z" style="fill:rgb(0,145,172);fill-rule:nonzero;"/>
    <path d="M44.551,51.64L44.56,51.65C44.764,51.876 44.991,52.13 45.239,52.35L45.25,52.36C45.787,52.87 46.248,52.876 46.267,52.876C46.597,52.876 46.863,52.68 46.937,52.62C46.938,52.62 46.938,52.62 46.938,52.619C46.893,52.528 46.855,52.453 46.818,52.384C46.794,52.337 46.657,52.114 46.611,52.047C46.552,51.96 46.487,51.879 46.413,51.803C45.841,51.222 44.955,51.031 44.312,50.973L44.3,50.974C44.181,50.963 44.06,50.956 43.937,50.952C43.893,50.951 43.848,50.95 43.804,50.95C43.962,51.057 44.106,51.174 44.235,51.301C44.33,51.395 44.432,51.508 44.551,51.64Z" style="fill:rgb(0,145,172);fill-rule:nonzero;"/>
    <path d="M36.333,48.755L36.331,48.755C36.39,48.935 36.493,49.362 36.263,49.695C35.979,50.106 35.426,50.205 35.023,50.277L34.926,50.294C34.898,50.301 34.858,50.307 34.812,50.314C34.702,50.33 34.445,50.368 34.448,50.449C34.451,50.554 34.544,50.615 34.701,50.615C34.761,50.615 34.824,50.606 34.888,50.588C34.981,50.553 35.082,50.508 35.186,50.458C35.209,50.446 35.235,50.44 35.262,50.44C35.33,50.44 35.39,50.478 35.419,50.538C35.439,50.579 35.442,50.627 35.427,50.671C35.412,50.715 35.381,50.75 35.339,50.771C35.106,50.884 34.888,50.967 34.69,51.016C34.652,51.031 34.639,51.055 34.65,51.096C34.667,51.16 34.698,51.165 34.746,51.161C35.637,50.954 36.959,50.475 38.192,49.363C37.816,49.087 37.348,48.611 37.138,48.391C36.99,48.538 36.707,48.755 36.333,48.755Z" style="fill:rgb(0,145,172);fill-rule:nonzero;"/>
    <path d="M36.007,47.16C36.299,47.16 36.661,46.935 36.889,46.612C37.031,46.409 37.107,46.261 37.157,46.154C36.55,46.227 35.82,46.414 35.682,46.714C35.637,46.812 35.658,46.923 35.744,47.045C35.798,47.121 35.889,47.16 36.007,47.16Z" style="fill:rgb(0,145,172);fill-rule:nonzero;"/>
    <path d="M33.994,52.824L34.084,52.824C34.519,52.824 34.991,52.79 35.486,52.722C36.494,52.582 38.106,52.225 40.06,51.311C40.077,51.302 40.088,51.279 40.084,51.257C40.081,51.239 40.06,51.182 39.909,51.161C39.529,51.085 39.463,50.781 39.462,50.777C39.462,50.777 39.396,50.645 39.505,50.559C39.584,50.511 39.695,50.537 39.744,50.615C39.748,50.622 39.858,50.789 40.119,50.789L40.139,50.789C40.377,50.781 40.667,50.578 40.724,50.378C40.816,49.996 40.75,49.71 40.526,49.529C40.444,49.462 40.33,49.431 40.177,49.431C40.125,49.431 40.067,49.434 40.002,49.442C39.628,49.51 39.376,49.812 39.282,49.926L39.071,50.178C38.162,51.201 37.047,51.682 35.975,52.05C35.047,52.367 34.284,52.454 33.999,52.477C33.932,52.486 33.833,52.542 33.841,52.661C33.847,52.75 33.925,52.817 33.994,52.824Z" style="fill:rgb(0,145,172);fill-rule:nonzero;"/>
    <path d="M33.967,56.555C33.865,56.412 33.71,56.217 33.519,56.072C33.294,55.901 33.067,55.903 32.944,55.978C32.81,56.059 32.786,56.18 32.765,56.273C32.74,56.382 32.699,56.642 32.661,56.892C32.625,57.124 32.862,57.281 33.239,57.221C33.674,57.157 34.279,57.042 33.967,56.556C33.967,56.556 33.967,56.555 33.967,56.555Z" style="fill:rgb(0,145,172);fill-rule:nonzero;"/>
    <path d="M30.961,57.05C30.962,57.046 30.964,57.042 30.967,57.029C31.019,56.813 31.089,56.663 31.09,56.662C31.12,56.598 31.156,56.565 31.195,56.565C31.206,56.565 31.217,56.568 31.226,56.571C31.24,56.578 31.249,56.588 31.254,56.603C31.269,56.643 31.25,56.703 31.235,56.735C31.22,56.77 31.14,56.959 31.098,57.201C31.092,57.246 31.216,57.29 31.2,57.283C31.216,57.29 31.229,57.296 31.244,57.302C31.408,57.362 31.506,57.233 31.542,56.908C31.599,56.382 31.497,56.313 31.424,56.262L31.405,56.249C31.336,56.202 31.261,56.143 31.257,56.041C31.275,55.835 31.477,55.835 31.61,55.835C31.682,55.835 31.763,55.838 31.887,55.844C32.028,55.855 32.129,55.785 32.175,55.657C32.226,55.512 32.192,55.296 32.028,55.163C31.773,54.947 31.684,54.798 31.739,54.68C31.767,54.62 31.821,54.586 31.892,54.586C31.961,54.586 32.051,54.618 32.168,54.684C32.198,54.701 32.229,54.71 32.261,54.71C32.411,54.71 32.551,54.515 32.604,54.432C32.676,54.318 32.765,54.178 32.926,54.052C33.018,53.983 33.142,53.978 33.204,54.045C33.239,54.083 33.254,54.138 33.247,54.208C33.238,54.292 33.209,54.4 33.161,54.521C33.075,54.723 33.068,54.906 33.137,55.066C33.204,55.217 33.345,55.344 33.514,55.406C33.813,55.513 33.932,55.483 34.232,55.382C34.447,55.309 34.577,55.318 34.628,55.406C34.665,55.47 34.648,55.562 34.579,55.68C34.417,55.956 34.293,56.294 34.434,56.416C34.434,56.415 34.459,56.398 34.486,56.342C34.576,56.154 34.726,55.84 35.091,55.84C35.159,55.84 35.233,55.852 35.308,55.875C35.351,55.888 35.364,55.92 35.368,55.933C35.376,55.966 35.364,56.002 35.332,56.036C35.203,56.179 34.932,56.549 35.23,56.891C35.317,56.988 35.445,57.052 35.6,57.076C35.649,57.084 35.697,57.087 35.743,57.087C36.125,57.087 36.296,56.826 36.334,56.688C36.346,56.642 36.353,56.599 36.359,56.558C36.376,56.45 36.394,56.342 36.487,56.178C36.57,55.982 36.724,55.804 36.941,55.653C37.428,55.314 37.724,54.793 37.776,54.642L37.794,54.591C37.841,54.454 37.866,54.379 37.979,54.375C38.038,54.375 38.083,54.398 38.113,54.438C38.164,54.508 38.164,54.626 38.11,54.788C38.05,54.974 37.745,55.43 37.506,55.692C37.378,55.834 37.257,56.246 37.369,56.544C37.435,56.72 37.573,56.822 37.78,56.845C37.815,56.847 37.848,56.848 37.878,56.85C38.102,56.867 38.296,56.875 38.473,56.875C38.993,56.875 39.361,56.807 39.565,56.674C39.773,56.537 39.875,56.435 39.939,56.295C40.05,56.012 40.146,55.628 40.23,55.123C40.467,53.702 40.091,52.893 39.935,52.631C39.879,52.687 39.798,52.748 39.693,52.773C39.661,52.781 39.628,52.785 39.596,52.785C39.488,52.785 39.404,52.742 39.349,52.704C39.321,52.773 39.266,52.862 39.158,52.905C39.097,52.929 39.035,52.942 38.975,52.942C38.874,52.942 38.796,52.906 38.745,52.874C38.718,52.952 38.65,53.067 38.487,53.109C38.447,53.119 38.407,53.124 38.368,53.124C38.273,53.124 38.202,53.093 38.156,53.063C38.126,53.138 38.057,53.233 37.903,53.275C37.863,53.286 37.823,53.291 37.784,53.291C37.69,53.291 37.615,53.26 37.56,53.226C37.539,53.312 37.477,53.436 37.307,53.477C37.267,53.487 37.227,53.492 37.189,53.492C37.068,53.492 36.982,53.443 36.929,53.399C36.895,53.471 36.824,53.559 36.671,53.594C36.629,53.603 36.588,53.608 36.549,53.608C36.433,53.608 36.352,53.566 36.302,53.528C36.268,53.596 36.198,53.684 36.057,53.722C36.012,53.733 35.969,53.739 35.928,53.739C35.838,53.739 35.77,53.713 35.722,53.686C35.686,53.741 35.615,53.813 35.483,53.843C35.447,53.851 35.412,53.855 35.379,53.855C35.25,53.855 35.166,53.796 35.116,53.744C35.098,53.776 35.079,53.82 35.077,53.865C35.071,53.955 35.079,54.023 35.307,54.292C35.389,54.39 35.512,54.51 35.621,54.616L35.627,54.622C35.93,54.918 36.167,55.151 36.093,55.294C36.064,55.349 36.009,55.379 35.938,55.379C35.811,55.379 35.612,55.287 35.293,55.08C35.263,55.059 35.232,55.039 35.201,55.018L35.178,54.997C35.094,54.939 34.87,54.779 34.756,54.697C34.599,54.584 33.896,54.117 33.643,53.967C33.638,53.964 33.63,53.959 33.62,53.953L33.6,53.94C33.448,53.838 32.985,53.528 32.612,53.528C32.545,53.528 32.484,53.539 32.433,53.56C32.187,53.658 31.832,53.95 31.532,54.787C31.484,54.912 31.409,55.173 31.446,55.249C31.512,55.394 31.561,55.67 31.154,55.903C31.132,55.916 31.116,55.945 31.115,55.976C31.114,55.98 31.115,55.985 31.115,55.991C31.116,55.996 31.117,56.001 31.118,56.007C31.127,56.045 31.141,56.077 31.162,56.106C31.162,56.106 31.174,56.123 31.177,56.128C31.248,56.235 31.207,56.341 31.126,56.47C31.105,56.502 31.086,56.536 31.068,56.569C31.07,56.567 31.073,56.566 31.075,56.564C31.059,56.583 31.044,56.605 31.031,56.633C31.03,56.634 30.957,56.826 30.927,56.924C30.886,57.05 30.936,57.114 30.936,57.114L30.961,57.05ZM31.296,56.76C31.302,56.747 31.326,56.694 31.326,56.637C31.326,56.694 31.302,56.748 31.296,56.76C31.285,56.786 31.239,56.896 31.199,57.047C31.239,56.896 31.285,56.786 31.296,56.76Z" style="fill:rgb(0,145,172);fill-rule:nonzero;"/>
    <path d="M40.515,52.157C40.419,52.196 40.342,52.27 40.304,52.362C40.262,52.465 40.269,52.587 40.325,52.715C40.36,52.798 40.412,52.947 40.448,53.059C40.471,53.136 40.551,53.314 40.768,53.314C40.8,53.314 40.835,53.31 40.872,53.301C41.163,53.235 41.157,53.096 41.15,52.935C41.144,52.79 41.085,52.506 41.009,52.331C40.936,52.161 40.794,52.125 40.688,52.125C40.629,52.125 40.566,52.137 40.515,52.157Z" style="fill:rgb(0,145,172);fill-rule:nonzero;"/>
    <path d="M40.905,54.963C40.899,54.963 40.892,54.962 40.885,54.962C40.687,54.962 40.57,55.05 40.537,55.225C40.515,55.348 40.501,55.427 40.492,55.484C40.484,55.529 40.478,55.562 40.471,55.596C40.463,55.64 40.47,55.763 40.546,55.861C40.605,55.937 40.691,55.98 40.803,55.988C40.816,55.989 40.829,55.989 40.842,55.989C41.036,55.989 41.155,55.882 41.196,55.67C41.214,55.577 41.24,55.356 41.244,55.264C41.246,55.217 41.22,55.138 41.158,55.072C41.113,55.024 41.034,54.966 40.905,54.963Z" style="fill:rgb(0,145,172);fill-rule:nonzero;"/>
    <path d="M35.892,51.959C35.835,51.959 35.781,51.981 35.744,52.019C35.707,52.057 35.689,52.109 35.69,52.168C35.693,52.24 35.696,52.286 35.698,52.323C35.7,52.359 35.701,52.386 35.701,52.419C35.701,52.508 35.735,52.614 35.895,52.614L35.895,52.618L35.896,52.614C36.071,52.614 36.098,52.501 36.103,52.416C36.108,52.344 36.099,52.197 36.086,52.108C36.067,51.987 35.972,51.96 35.896,51.959L35.892,51.959Z" style="fill:rgb(0,145,172);fill-rule:nonzero;"/>
    <path d="M42.781,56.334C42.781,56.334 42.938,56.295 42.781,56.192C42.625,56.089 42.346,55.942 41.999,56.084C41.651,56.226 41.637,56.49 41.813,56.563C41.989,56.637 42.196,56.665 42.17,56.734C42.125,56.852 41.656,56.603 41.613,56.934C41.58,57.178 41.72,57.265 42.072,57.293C42.105,57.293 42.125,57.284 42.125,57.261C42.128,57.113 42.176,56.549 42.781,56.334Z" style="fill:rgb(0,145,172);fill-rule:nonzero;"/>
    <path d="M43.781,56.786C43.559,56.776 43.147,56.729 42.985,56.529C42.967,56.503 42.938,56.497 42.903,56.508C42.755,56.557 42.367,56.732 42.322,57.24C42.317,57.286 42.33,57.309 42.349,57.325C42.399,57.368 42.508,57.444 42.657,57.454C42.684,57.455 42.705,57.441 42.707,57.418C42.713,57.326 42.749,57.076 42.896,56.871C42.997,56.711 43.138,56.835 43.066,56.946C43.028,57.012 42.92,57.257 42.938,57.449C42.941,57.478 42.965,57.499 42.999,57.505C43.087,57.523 43.303,57.559 43.564,57.519C43.576,57.517 43.61,57.507 43.627,57.492C43.689,57.439 43.839,57.298 43.914,56.874C43.93,56.815 43.838,56.787 43.781,56.786Z" style="fill:rgb(0,145,172);fill-rule:nonzero;"/>
    <path d="M43.669,56.239C43.387,56.219 43.385,56.096 43.383,56.044C43.381,55.953 43.475,55.879 43.513,55.853C43.406,55.759 43.362,55.618 43.362,55.617C43.251,55.685 43.099,55.836 43.103,56.05C43.106,56.178 43.165,56.483 43.65,56.518C43.863,56.531 43.996,56.586 44.02,56.611C44.02,56.611 44.072,56.484 44.233,56.432C44.103,56.278 43.769,56.246 43.669,56.239Z" style="fill:rgb(0,145,172);fill-rule:nonzero;"/>
    <path d="M45.072,56.606C45.072,56.606 44.803,56.509 44.517,56.529C44.316,56.558 44.175,56.663 44.162,56.833C44.122,57.336 44.661,57.317 44.881,57.301C45.101,57.287 45.91,57.301 45.91,57.301C45.688,56.945 45.374,56.718 45.072,56.606Z" style="fill:rgb(0,145,172);fill-rule:nonzero;"/>
    <path d="M41.552,54.964C41.554,55.31 41.777,55.54 42.216,55.643C42.274,55.654 42.332,55.66 42.386,55.66C42.804,55.66 42.917,55.293 43.037,54.906L43.06,54.831C43.184,54.435 43.434,54.119 43.804,53.891C43.963,53.781 44.09,53.728 44.091,53.728C44.112,53.719 44.134,53.715 44.157,53.715C44.228,53.715 44.291,53.757 44.318,53.823C44.336,53.866 44.335,53.913 44.318,53.956C44.3,53.999 44.267,54.032 44.224,54.05C44.201,54.06 43.635,54.316 43.505,54.859C43.445,55.112 43.521,55.417 43.709,55.674C43.865,55.888 44.236,56.255 44.963,56.308L45.088,56.317C45.097,56.315 45.107,56.314 45.118,56.314C45.992,56.314 46.594,56.117 46.906,55.728C47.225,55.331 47.145,54.83 47.113,54.687C47.104,54.642 47.112,54.595 47.137,54.555C47.161,54.517 47.2,54.49 47.245,54.479C47.259,54.476 47.272,54.475 47.283,54.475C47.365,54.475 47.436,54.531 47.454,54.611C47.494,54.793 47.593,55.429 47.178,55.946C47.164,55.963 47.15,55.98 47.13,56.001C47.027,56.121 46.92,56.214 46.81,56.279C46.825,56.281 46.844,56.282 46.865,56.282C46.984,56.282 47.164,56.24 47.352,56.039C47.724,55.57 47.768,54.713 47.619,54.145C47.538,53.835 47.387,53.559 47.322,53.448C47.085,53.601 46.718,53.773 46.267,53.773C45.866,53.773 45.228,53.574 44.637,53.015C44.356,52.763 44.101,52.481 43.897,52.254L43.886,52.241C43.782,52.126 43.684,52.017 43.607,51.941C43.301,51.641 42.928,51.472 42.668,51.384C42.651,51.379 42.631,51.374 42.611,51.368L42.586,51.361C42.517,51.34 42.438,51.317 42.346,51.297C42.184,51.263 42.043,51.259 41.901,51.283C41.833,51.303 41.765,51.321 41.71,51.335L41.696,51.34C41.69,51.342 41.684,51.343 41.678,51.346C41.46,51.449 41.215,51.655 41.293,52.047C41.31,52.12 41.68,53.757 41.552,54.964ZM47.175,53.685C47.196,53.73 47.208,53.779 47.208,53.828C47.208,53.998 47.081,54.137 46.924,54.137C46.786,54.137 46.671,54.031 46.646,53.881C46.825,53.841 47.001,53.777 47.175,53.685ZM46.265,53.926C46.334,53.924 46.404,53.92 46.48,53.91C46.506,54.069 46.606,54.204 46.745,54.268C46.691,54.31 46.626,54.333 46.556,54.333C46.386,54.333 46.247,54.194 46.247,54.024C46.247,53.992 46.253,53.96 46.265,53.926ZM45.889,53.883C45.957,53.898 46.024,53.909 46.09,53.916C46.082,53.952 46.078,53.988 46.078,54.023C46.078,54.137 46.117,54.245 46.19,54.331C46.01,54.348 45.853,54.203 45.853,54.023C45.853,53.977 45.864,53.93 45.889,53.883ZM45.491,53.758C45.566,53.788 45.642,53.815 45.722,53.839C45.697,53.899 45.684,53.961 45.684,54.023C45.684,54.115 45.709,54.202 45.758,54.278C45.563,54.308 45.401,54.159 45.401,53.973C45.401,53.894 45.433,53.818 45.491,53.758ZM45.135,53.579C45.201,53.618 45.267,53.653 45.33,53.685C45.267,53.768 45.231,53.869 45.231,53.974C45.231,54.027 45.241,54.08 45.259,54.132C45.115,54.104 45.007,53.978 45.007,53.829C45.008,53.731 45.054,53.64 45.135,53.579ZM44.798,53.349C44.858,53.396 44.92,53.441 44.985,53.485C44.891,53.575 44.838,53.698 44.838,53.828C44.838,53.862 44.842,53.897 44.849,53.929C44.713,53.897 44.614,53.774 44.614,53.63C44.614,53.508 44.685,53.4 44.798,53.349ZM44.453,53.045C44.495,53.084 44.53,53.117 44.562,53.146C44.592,53.174 44.624,53.203 44.658,53.233C44.534,53.316 44.455,53.453 44.446,53.601C44.341,53.549 44.273,53.443 44.273,53.324C44.273,53.205 44.342,53.098 44.453,53.045ZM44.132,52.723C44.2,52.795 44.264,52.861 44.325,52.923C44.198,53.004 44.117,53.14 44.105,53.294C43.996,53.243 43.926,53.135 43.926,53.013C43.926,52.885 44.008,52.77 44.132,52.723ZM43.837,52.403L43.855,52.422C43.904,52.477 43.955,52.533 44.009,52.592C43.874,52.665 43.783,52.795 43.762,52.946C43.68,52.889 43.63,52.795 43.63,52.694C43.63,52.565 43.713,52.448 43.837,52.403ZM43.491,52.033C43.503,52.044 43.516,52.057 43.528,52.069C43.584,52.125 43.654,52.2 43.718,52.27C43.587,52.339 43.494,52.464 43.468,52.608C43.356,52.559 43.283,52.449 43.283,52.325C43.283,52.195 43.365,52.079 43.491,52.033ZM43.125,51.761C43.203,51.808 43.278,51.859 43.349,51.913C43.207,51.997 43.116,52.15 43.113,52.315C43.011,52.262 42.946,52.156 42.946,52.041C42.946,51.922 43.014,51.815 43.125,51.761Z" style="fill:rgb(0,145,172);fill-rule:nonzero;"/>
    <path d="M34.212,51.715C34.218,51.715 34.223,51.714 34.223,51.714L34.248,51.711C34.243,51.746 34.24,51.801 34.258,51.847C34.196,51.875 34.151,51.936 34.151,52.009C34.151,52.109 34.232,52.19 34.332,52.19C34.432,52.19 34.513,52.109 34.513,52.009C34.513,51.91 34.434,51.83 34.336,51.828C34.336,51.828 34.336,51.827 34.336,51.827C34.317,51.799 34.322,51.737 34.33,51.702L34.332,51.701C34.453,51.686 34.581,51.665 34.712,51.637L34.721,51.635C34.716,51.675 34.715,51.732 34.735,51.776C34.688,51.805 34.656,51.853 34.656,51.912C34.656,52.001 34.728,52.073 34.817,52.073C34.906,52.073 34.978,52.001 34.978,51.912C34.978,51.823 34.906,51.75 34.817,51.75C34.815,51.75 34.813,51.752 34.81,51.752L34.81,51.751C34.793,51.724 34.796,51.66 34.804,51.617L34.807,51.616C34.908,51.593 35.015,51.566 35.132,51.533L35.144,51.53C35.139,51.565 35.139,51.615 35.156,51.656C35.118,51.679 35.093,51.719 35.093,51.766C35.093,51.839 35.152,51.898 35.225,51.898C35.297,51.898 35.357,51.839 35.357,51.766C35.357,51.697 35.302,51.641 35.234,51.636L35.234,51.635C35.214,51.606 35.22,51.541 35.229,51.505C35.282,51.49 35.331,51.474 35.378,51.46L35.413,51.449L35.424,51.453C35.45,51.474 35.536,51.52 35.649,51.52C35.686,51.52 35.721,51.515 35.756,51.505C35.916,51.459 35.967,51.333 35.983,51.262L35.985,51.253L36.009,51.241L36.021,51.237L36.031,51.253C36.056,51.298 36.134,51.327 36.224,51.327C36.276,51.327 36.329,51.317 36.378,51.299C36.529,51.242 36.571,51.113 36.56,51.021L36.559,51.005L36.6,50.984L36.612,50.997C36.658,51.05 36.733,51.08 36.818,51.08C36.87,51.08 36.924,51.068 36.975,51.046C37.102,50.99 37.161,50.864 37.121,50.734L37.116,50.717L37.131,50.707C37.134,50.705 37.137,50.704 37.14,50.702L37.159,50.692L37.171,50.705C37.226,50.765 37.305,50.8 37.386,50.8C37.438,50.8 37.489,50.786 37.534,50.76C37.658,50.686 37.709,50.536 37.657,50.402L37.649,50.385L37.693,50.355L37.707,50.369C37.762,50.421 37.834,50.45 37.91,50.45C37.973,50.45 38.034,50.43 38.085,50.392C38.199,50.305 38.234,50.15 38.166,50.023L38.158,50.006L38.196,49.975L38.211,49.989C38.257,50.032 38.322,50.055 38.395,50.055C38.488,50.055 38.578,50.018 38.647,49.949C38.736,49.863 38.778,49.699 38.696,49.573C38.651,49.563 38.608,49.551 38.567,49.539C38.552,49.534 38.519,49.52 38.5,49.511C38.408,49.597 38.332,49.665 38.262,49.726C37.813,50.116 37.308,50.458 36.763,50.743C36.357,50.957 35.937,51.136 35.513,51.276C34.911,51.475 34.436,51.553 34.207,51.581C34.146,51.6 34.14,51.63 34.143,51.658C34.147,51.695 34.17,51.715 34.212,51.715Z" style="fill:rgb(0,145,172);fill-rule:nonzero;"/>
    <path d="M33.985,53.456C33.985,53.589 34.093,53.698 34.227,53.698C34.36,53.698 34.468,53.589 34.468,53.456C34.468,53.323 34.36,53.214 34.227,53.214C34.225,53.214 34.224,53.215 34.223,53.215C34.223,53.212 34.222,53.21 34.222,53.208C34.201,53.161 34.219,53.112 34.221,53.107C34.232,53.083 34.221,53.056 34.198,53.045C34.192,53.042 34.186,53.041 34.18,53.041C34.161,53.041 34.145,53.052 34.137,53.068C34.134,53.076 34.102,53.15 34.132,53.232L34.132,53.233C34.046,53.271 33.985,53.356 33.985,53.456Z" style="fill:rgb(0,145,172);fill-rule:nonzero;"/>
    <path d="M34.561,53.424C34.561,53.557 34.669,53.666 34.802,53.666C34.936,53.666 35.044,53.557 35.044,53.424C35.044,53.291 34.936,53.183 34.803,53.183C34.803,53.183 34.801,53.175 34.8,53.172C34.778,53.121 34.8,53.07 34.8,53.069C34.81,53.046 34.8,53.019 34.777,53.009C34.771,53.006 34.764,53.005 34.758,53.005C34.74,53.005 34.723,53.016 34.716,53.032C34.712,53.04 34.681,53.114 34.711,53.196L34.712,53.2C34.624,53.237 34.561,53.323 34.561,53.424Z" style="fill:rgb(0,145,172);fill-rule:nonzero;"/>
    <path d="M35.131,53.362C35.131,53.496 35.239,53.604 35.372,53.604C35.505,53.604 35.614,53.496 35.614,53.362C35.614,53.248 35.533,53.152 35.426,53.128L35.425,53.128C35.412,53.124 35.398,53.123 35.385,53.122C35.383,53.122 35.38,53.121 35.378,53.121L35.373,53.121L35.372,53.116C35.371,53.114 35.371,53.112 35.37,53.109C35.349,53.061 35.368,53.013 35.37,53.007C35.38,52.984 35.37,52.956 35.346,52.946C35.341,52.943 35.334,52.942 35.328,52.942C35.31,52.942 35.293,52.953 35.285,52.969C35.282,52.977 35.251,53.05 35.28,53.133L35.282,53.139C35.194,53.175 35.131,53.261 35.131,53.362Z" style="fill:rgb(0,145,172);fill-rule:nonzero;"/>
    <path d="M35.679,53.258C35.679,53.391 35.788,53.499 35.921,53.499C36.055,53.499 36.163,53.391 36.163,53.258C36.163,53.125 36.055,53.016 35.922,53.016L35.921,53.013C35.921,53.011 35.92,53.008 35.919,53.006C35.896,52.955 35.918,52.904 35.919,52.903C35.929,52.88 35.918,52.853 35.896,52.842C35.889,52.84 35.883,52.839 35.877,52.839C35.859,52.839 35.842,52.849 35.835,52.866C35.831,52.874 35.799,52.947 35.829,53.03L35.831,53.033C35.742,53.07 35.679,53.156 35.679,53.258Z" style="fill:rgb(0,145,172);fill-rule:nonzero;"/>
    <path d="M36.443,52.911L36.443,52.911C36.443,52.912 36.443,52.912 36.442,52.912C36.421,52.921 36.403,52.934 36.385,52.948C36.385,52.948 36.385,52.948 36.385,52.949C36.331,52.993 36.297,53.059 36.297,53.134C36.297,53.267 36.405,53.375 36.538,53.375C36.671,53.375 36.78,53.267 36.78,53.134C36.78,53.044 36.73,52.967 36.658,52.925C36.649,52.92 36.641,52.915 36.633,52.911C36.631,52.91 36.629,52.91 36.628,52.909C36.615,52.904 36.601,52.9 36.588,52.897C36.585,52.896 36.584,52.896 36.582,52.896C36.57,52.894 36.557,52.892 36.545,52.891L36.539,52.891L36.538,52.886C36.537,52.883 36.537,52.881 36.535,52.879C36.515,52.833 36.532,52.786 36.535,52.777C36.546,52.753 36.535,52.726 36.513,52.716C36.506,52.713 36.5,52.712 36.493,52.712C36.475,52.712 36.459,52.722 36.451,52.739C36.448,52.747 36.417,52.821 36.446,52.903L36.449,52.909L36.445,52.91C36.445,52.911 36.444,52.911 36.443,52.911Z" style="fill:rgb(0,145,172);fill-rule:nonzero;"/>
    <path d="M36.935,53.015C36.935,53.149 37.043,53.257 37.177,53.257C37.31,53.257 37.418,53.148 37.418,53.015C37.418,52.882 37.31,52.774 37.177,52.774L37.176,52.774C37.176,52.77 37.175,52.768 37.174,52.766C37.152,52.715 37.174,52.664 37.174,52.664C37.184,52.641 37.174,52.613 37.151,52.603C37.145,52.6 37.138,52.598 37.132,52.598C37.114,52.598 37.097,52.609 37.09,52.626C37.086,52.634 37.055,52.707 37.085,52.79L37.085,52.792C36.997,52.828 36.935,52.914 36.935,53.015Z" style="fill:rgb(0,145,172);fill-rule:nonzero;"/>
    <path d="M37.666,52.6C37.648,52.609 37.631,52.619 37.616,52.632C37.615,52.633 37.613,52.634 37.612,52.635C37.559,52.679 37.525,52.745 37.525,52.819C37.525,52.952 37.633,53.061 37.767,53.061C37.9,53.061 38.008,52.952 38.008,52.819C38.008,52.74 37.969,52.67 37.911,52.626C37.872,52.596 37.825,52.578 37.773,52.577L37.768,52.576L37.767,52.571C37.766,52.568 37.765,52.566 37.764,52.564C37.743,52.516 37.762,52.468 37.764,52.462C37.775,52.438 37.764,52.411 37.741,52.401C37.735,52.398 37.729,52.397 37.722,52.397C37.704,52.397 37.687,52.407 37.68,52.424C37.676,52.432 37.645,52.506 37.675,52.588L37.677,52.594L37.671,52.597C37.669,52.597 37.667,52.599 37.666,52.6Z" style="fill:rgb(0,145,172);fill-rule:nonzero;"/>
    <path d="M38.105,52.627C38.105,52.76 38.214,52.868 38.347,52.868C38.48,52.868 38.589,52.76 38.589,52.627C38.589,52.494 38.48,52.386 38.347,52.385L38.347,52.384C38.346,52.381 38.346,52.379 38.344,52.376C38.323,52.327 38.344,52.277 38.344,52.274C38.355,52.251 38.344,52.224 38.322,52.213C38.316,52.211 38.309,52.209 38.302,52.209C38.284,52.209 38.268,52.22 38.261,52.236C38.257,52.245 38.225,52.319 38.255,52.4L38.256,52.403C38.168,52.439 38.105,52.526 38.105,52.627Z" style="fill:rgb(0,145,172);fill-rule:nonzero;"/>
    <path d="M38.699,52.451C38.699,52.584 38.807,52.693 38.94,52.693C39.074,52.693 39.182,52.584 39.182,52.451C39.182,52.323 39.08,52.217 38.953,52.211C38.951,52.211 38.949,52.21 38.947,52.21L38.945,52.21C38.944,52.21 38.943,52.21 38.942,52.21L38.94,52.205C38.94,52.202 38.939,52.2 38.938,52.198C38.916,52.148 38.937,52.098 38.938,52.095C38.948,52.072 38.938,52.045 38.915,52.035C38.909,52.032 38.903,52.03 38.896,52.03C38.878,52.03 38.861,52.041 38.854,52.058C38.852,52.061 38.818,52.137 38.848,52.221L38.851,52.227C38.762,52.264 38.699,52.35 38.699,52.451Z" style="fill:rgb(0,145,172);fill-rule:nonzero;"/>
    <path d="M39.462,52.021C39.443,52.03 39.425,52.042 39.408,52.055C39.408,52.055 39.407,52.056 39.407,52.056C39.354,52.101 39.319,52.167 39.319,52.241C39.319,52.374 39.428,52.482 39.561,52.482C39.694,52.482 39.802,52.374 39.802,52.241C39.802,52.152 39.753,52.074 39.68,52.032C39.672,52.028 39.664,52.023 39.655,52.018L39.653,52.018C39.639,52.012 39.625,52.007 39.609,52.004C39.595,52.001 39.582,51.999 39.567,51.999L39.561,51.998L39.56,51.994C39.56,51.991 39.559,51.989 39.557,51.986C39.536,51.936 39.557,51.885 39.557,51.884C39.568,51.861 39.557,51.834 39.535,51.824C39.528,51.821 39.522,51.819 39.516,51.819C39.497,51.819 39.481,51.83 39.473,51.846C39.472,51.849 39.438,51.926 39.468,52.01L39.47,52.016L39.465,52.019C39.464,52.019 39.463,52.02 39.462,52.021Z" style="fill:rgb(0,145,172);fill-rule:nonzero;"/>
    <path d="M44.163,52.01C44.365,52.233 44.614,52.51 44.882,52.749C45.547,53.381 46.154,53.413 46.269,53.413C46.667,53.413 46.989,53.24 47.167,53.118C47.143,53.061 47.118,53.007 47.094,52.954C46.947,53.059 46.643,53.237 46.269,53.237C46.205,53.237 45.633,53.22 45.001,52.619C44.738,52.385 44.492,52.112 44.295,51.892C44.175,51.759 44.073,51.646 43.984,51.559C43.762,51.34 43.493,51.159 43.186,51.016C43.081,51.03 42.968,51.048 42.853,51.069C43.154,51.178 43.534,51.363 43.86,51.684C43.946,51.768 44.047,51.88 44.163,52.01Z" style="fill:rgb(0,145,172);fill-rule:nonzero;"/>
    <path d="M34.601,49.937C34.64,49.937 34.682,49.938 34.723,49.94L34.755,49.941C34.784,49.942 34.813,49.942 34.841,49.942C34.892,49.942 34.929,49.94 34.961,49.935L34.995,49.929C35.393,49.858 35.804,49.785 35.97,49.507C36.1,49.288 36.067,48.98 35.878,48.641L35.856,48.602C35.791,48.491 35.672,48.284 35.846,48.161C35.957,48.084 36.092,47.984 36.151,47.939C36.135,47.87 36.122,47.718 36.279,47.618C36.397,47.541 36.488,47.549 36.566,47.552C36.612,47.555 36.656,47.56 36.7,47.535C36.743,47.51 36.781,47.497 36.811,47.497C36.868,47.497 36.887,47.537 36.891,47.548C36.906,47.587 36.888,47.633 36.845,47.669C36.834,47.678 36.812,47.695 36.782,47.717C36.685,47.792 36.389,48.018 36.35,48.096C36.321,48.156 36.28,48.304 36.318,48.373C36.328,48.392 36.346,48.403 36.373,48.406C36.723,48.386 36.963,48.071 36.99,48.034C37.056,47.922 37.079,47.865 37.12,47.761C37.14,47.713 37.17,47.637 37.214,47.536C37.235,47.489 37.272,47.419 37.325,47.328C37.226,47.298 37.119,47.283 37.004,47.283C36.91,47.283 36.836,47.293 36.796,47.299L36.776,47.301C36.171,47.41 35.782,47.919 35.778,47.924C35.671,48.07 35.558,48.145 35.442,48.145C35.336,48.145 35.269,48.082 35.257,48.069C35.211,48.025 35.125,47.943 35.248,47.68C35.351,47.46 35.31,47.146 35.154,46.966C35.057,46.854 34.864,46.837 34.757,46.837C34.696,46.837 34.652,46.842 34.645,46.843L34.625,46.845C34.521,46.87 34.236,46.973 33.925,47.397C33.788,47.584 33.627,47.778 33.445,47.975C33.341,48.114 33.194,48.23 33.064,48.332C32.922,48.444 32.8,48.54 32.782,48.626L32.78,48.635C32.772,48.675 32.76,48.736 32.716,48.774C32.665,48.816 32.621,48.816 32.579,48.817C32.531,48.817 32.473,48.819 32.357,48.866C32.212,48.925 32.138,49.058 32.129,49.271C32.13,49.409 32.176,49.556 32.267,49.707C32.333,49.818 32.416,49.915 32.513,49.996C32.574,50.043 32.652,50.067 32.745,50.067C32.846,50.067 32.961,50.038 33.06,49.986C33.258,49.883 33.307,49.739 33.337,49.653C33.346,49.628 33.352,49.608 33.36,49.592C33.378,49.554 33.479,49.362 33.629,49.362C33.694,49.362 33.755,49.397 33.81,49.465C33.844,49.508 33.859,49.555 33.853,49.606C33.841,49.703 33.755,49.78 33.691,49.83C33.683,49.836 33.639,49.872 33.633,49.921C33.629,49.948 33.639,49.975 33.661,50.002C33.671,50.02 33.711,50.08 33.828,50.08C33.843,50.08 33.858,50.079 33.873,50.078C33.968,50.067 34.06,50.041 34.149,50.017C34.236,49.992 34.34,49.963 34.44,49.952C34.475,49.942 34.528,49.937 34.601,49.937ZM34.106,48.168C34.009,48.147 33.905,48.098 33.82,48.035L33.789,48.012L33.771,48.045C33.759,48.068 33.747,48.09 33.736,48.111C33.731,48.119 33.723,48.123 33.706,48.124C33.694,48.12 33.687,48.109 33.688,48.096C33.709,47.94 33.762,47.792 33.847,47.656C33.894,47.582 33.949,47.519 34.012,47.469C34.07,47.419 34.152,47.378 34.243,47.355C34.313,47.335 34.388,47.325 34.463,47.325L34.488,47.325C34.569,47.328 34.65,47.342 34.729,47.367C34.766,47.379 34.802,47.392 34.839,47.406L34.957,47.46C34.986,47.474 35.015,47.488 35.044,47.499C35.079,47.515 35.109,47.525 35.141,47.525C35.153,47.526 35.163,47.535 35.165,47.547C35.167,47.559 35.161,47.569 35.15,47.574C35.123,47.586 35.085,47.591 35.038,47.588L35.023,47.587L35.012,47.599C34.987,47.625 34.965,47.658 34.939,47.709L34.916,47.753C34.897,47.791 34.873,47.838 34.845,47.882C34.806,47.945 34.759,47.998 34.708,48.042C34.649,48.088 34.586,48.124 34.519,48.146C34.393,48.194 34.245,48.201 34.106,48.168Z" style="fill:rgb(0,145,172);fill-rule:nonzero;"/>
    <path d="M34.738,47.805C34.758,47.778 34.778,47.75 34.798,47.721L34.799,47.72C34.815,47.696 34.832,47.672 34.849,47.648C34.868,47.624 34.886,47.602 34.905,47.583L34.85,47.572C34.795,47.559 34.743,47.548 34.691,47.539C34.618,47.526 34.543,47.522 34.468,47.526C34.487,47.553 34.501,47.582 34.511,47.613C34.559,47.773 34.469,47.943 34.308,47.992C34.279,48.001 34.25,48.005 34.22,48.005C34.096,48.005 33.984,47.929 33.938,47.814C33.908,47.855 33.878,47.899 33.847,47.949C33.954,48 34.043,48.029 34.129,48.04C34.254,48.056 34.371,48.044 34.47,48.006C34.576,47.968 34.666,47.901 34.738,47.805Z" style="fill:rgb(0,145,172);fill-rule:nonzero;"/>
</svg>
