<svg xmlns="http://www.w3.org/2000/svg" xmlns:xlink="http://www.w3.org/1999/xlink" class="h-8 sm:h-12 block w-auto" version="1.1" x="0px" y="0px" viewBox="0 0 1080 253.479" xml:space="preserve">
        <title>Entrepreneur Landing Page</title>
        <defs>
          <style>
            .entlogo {
              fill: #fff;
              stroke-width: 0px;
            }
          </style>
        </defs>
        <path class="entlogo" d="M258.424,189.002c-5.304,0-8.345-3.243-8.345-8.896v-105.699l18.274-2.034,1.572-16.103h-20.226v-23.335l-20.208.932-6.258,21.757-14.743.688-.569,16.008,12.883,2.047v105.906c0,23.462,16.971,26.966,27.087,26.966,12.694,0,20.846-3.051,23.042-3.985l.646-.276-1.334-13.977h-11.822Z"></path>
        <path class="entlogo" d="M345.399,60.629h-.358c-12.716,0-24.269,3.381-33.547,9.798v-.679l-2.455-9.055-34.768,4.82v13.942l12.179,1.191v109.112l-10.285,2.372-.582,13.46h50.73l.971-13.459-11.559-2.391v-105.549c2.583-1.716,5.752-2.885,9.872-3.637l1.839,16.299,19.983.742,3.536-32.153-5.556-4.814Z"></path>
        <path class="entlogo" d="M988.557,70.396l-3.147-10.738-38.813,4.438v12.443l13.195,1.193v102.806c-1.635,2.35-3.162,4.244-4.663,5.775-2.52,1.031-5.578,1.554-9.099,1.554-9.427,0-14.01-5.858-14.01-17.909v-99.561l-3.141-10.739-38.434,4.44v12.439l12.813,1.193v95.629c0,10.203,3.31,33.934,33.981,33.934,12.037,0,19.479-4.955,25.574-10.581l2.633,8.881h33.118l1.546-13.8-11.553-2.228v-119.167Z"></path>
        <path class="entlogo" d="M201.496,92.01c0-20.094-11.968-32.576-31.234-32.576-10.711,0-19.881,3.784-27.963,11.554v-2.264l-2.722-8.033-33.658,4.819v13.943l12.814,1.192v108.925l-10.919,2.203-.582,13.818h50.857l.969-13.808-11.56-2.221v-102.088c1.271-1.747,2.627-3.52,4.072-4.723,2.604-.814,4.878-1.429,8.035-1.429,8.954,0,13.124,5.258,13.124,16.548v107.721h39.667l.772-13.812-11.672-2.218v-97.551Z"></path>
        <polygon class="entlogo" points="78.509 162.004 75.631 188.884 47.125 188.884 47.125 108.351 58.537 108.351 61.751 122.119 76.959 122.119 76.959 79.936 61.58 79.556 58.532 93.002 47.125 93.002 47.125 16.024 75.41 16.024 76.592 40.643 97.862 41.202 100.347 0 .956 0 0 15.735 15.701 17.78 15.701 186.986 1.78 189.187 1.023 205.591 102.352 205.591 100.761 162.744 78.509 162.004"></polygon>
        <path class="entlogo" d="M1074.443,60.629h-.358c-12.713,0-24.268,3.381-33.549,9.798v-.679l-2.454-9.055-34.766,4.82v13.942l12.178,1.191v109.112l-10.287,2.372-.582,13.46h50.731l.97-13.459-11.56-2.391v-105.548c2.585-1.717,5.755-2.886,9.873-3.638l1.838,16.299,19.987.742,3.536-32.153-5.557-4.814Z"></path>
        <path class="entlogo" d="M607.909,60.629h-.358c-12.715,0-24.268,3.381-33.547,9.798v-.679l-2.456-9.055-34.766,4.82v13.942l12.18,1.191v109.112l-10.287,2.372-.582,13.46h50.731l.968-13.459-11.56-2.391v-105.548c2.586-1.717,5.757-2.886,9.877-3.638l1.836,16.299,19.987.742,3.535-32.153-5.557-4.814Z"></path>
        <path class="entlogo" d="M794.588,92.01c0-20.094-11.967-32.576-31.233-32.576-10.709,0-19.88,3.784-27.964,11.554v-2.264l-2.719-8.033-33.659,4.819v13.943l12.814,1.192v108.925l-10.92,2.203-.58,13.818h50.855l.966-13.808-11.557-2.221v-102.088c1.267-1.745,2.619-3.515,4.071-4.722,2.606-.814,4.881-1.43,8.035-1.43,8.956,0,13.129,5.258,13.129,16.548v107.721h39.662l.774-13.812-11.675-2.218v-97.551Z"></path>
        <path class="entlogo" d="M395.458,59.212c-15.536-.27-28.143,7.828-36.526,23.426-6.877,12.794-10.851,30.572-11.19,50.059-.773,44.369,17.49,74.507,45.445,74.997.303.005.604.008.906.008,13.194,0,25.615-5.062,35.059-14.31l.478-.469-5.035-11.182-.914.512c-8.438,4.735-15.103,6.61-22.95,6.472-15.498-.271-23.293-24.039-23.096-47.694l54.238.314,3.203-7.611.075-.355c.8-45.993-14.039-73.72-39.692-74.169ZM377.377,126.831c.263-9.814,2.87-35.553,8.245-46.939,3.883-2.546,5.912-2.978,8.644-2.929,8.714.153,13.927,17.411,14.701,48.623l-31.591,1.246Z"></path>
        <path class="entlogo" d="M498.814,60.181c-14.871,0-23.052,7.497-27.059,12.102v-1.072l-3.153-10.756-34.759,4.819v13.404l12.835,1.7v157.59l-10.811,2.199-.585,13.313h50.806l.972-13.303-11.577-2.218v-41.598c4.817,2.321,11.017,3.634,17.292,3.634,42.372,0,42.372-54.702,42.372-72.678,0-32.455-9.544-67.135-36.332-67.135ZM501.856,178.974c-3.922,1.896-8.097,2.781-13.104,2.781-5.39,0-9.739-.877-13.269-2.678v-91.605c1.567-2.395,3.471-4.584,4.839-6.089,3.108-1.067,6.161-1.565,9.588-1.565,7.82,0,16.794,5.969,16.794,52.52,0,26.088-3.813,43.23-4.847,46.636Z"></path>
        <path class="entlogo" d="M659.3,59.212c-15.579-.27-28.143,7.828-36.526,23.426-6.877,12.793-10.85,30.571-11.189,50.059-.774,44.369,17.49,74.507,45.445,74.997.303.005.604.008.906.008,13.195,0,25.614-5.062,35.058-14.31l.48-.469-5.037-11.182-.913.512c-8.438,4.735-15.059,6.605-22.951,6.472-15.498-.271-23.294-24.039-23.096-47.694l54.237.314,3.205-7.611.073-.355c.8-45.993-14.037-73.72-39.69-74.169ZM641.221,126.831c.262-9.812,2.866-35.547,8.244-46.939,3.881-2.545,5.885-2.977,8.643-2.929,8.717.153,13.929,17.407,14.701,48.623l-31.589,1.246Z"></path>
        <path class="entlogo" d="M852.07,59.212c-15.554-.27-28.143,7.828-36.526,23.426-6.877,12.793-10.85,30.571-11.189,50.059-.774,44.369,17.49,74.507,45.445,74.997.303.005.604.008.906.008,13.195,0,25.614-5.062,35.058-14.31l.48-.469-5.037-11.182-.913.512c-8.44,4.734-15.059,6.602-22.951,6.472-15.498-.271-23.294-24.039-23.096-47.694l54.237.314,3.205-7.611.073-.355c.8-45.993-14.037-73.72-39.69-74.169ZM833.99,126.831c.262-9.814,2.866-35.552,8.244-46.94,3.881-2.547,5.905-2.985,8.643-2.928,12.067.211,14.312,33.325,14.701,48.623l-31.589,1.246Z"></path>
        <g>
          <path class="entlogo" d="M1065.287,191.693c-4.063,0-7.244,3.182-7.244,7.244s3.182,7.24,7.244,7.24,7.243-3.181,7.243-7.24-3.182-7.244-7.243-7.244ZM1065.287,193.65c2.961,0,5.193,2.273,5.193,5.287,0,1.521-.572,2.85-1.516,3.796l-2.14-3.199c1.161-.319,1.794-1.138,1.794-2.338,0-1.596-.938-2.406-2.789-2.406h-3.238v8.294h1.457v-3.466h1.229l2.193,3.466h1.071c-.881.706-1.994,1.136-3.255,1.136-2.961,0-5.194-2.271-5.194-5.283s2.233-5.287,5.194-5.287ZM1067.158,197.196c0,1.034-.827,1.111-2.089,1.111h-1.021v-2.205h1.512c1.433,0,1.599.624,1.599,1.094Z"></path>
          <path class="entlogo" d="M1065.287,206.427c-4.202,0-7.494-3.29-7.494-7.49s3.292-7.493,7.494-7.493,7.493,3.291,7.493,7.493-3.291,7.49-7.493,7.49ZM1065.287,191.944c-3.922,0-6.994,3.071-6.994,6.993s3.072,6.99,6.994,6.99,6.993-3.07,6.993-6.99-3.071-6.993-6.993-6.993ZM1065.287,204.47c-3.104,0-5.445-2.379-5.445-5.533s2.341-5.536,5.445-5.536,5.443,2.38,5.443,5.536c0,1.497-.537,2.877-1.517,3.897h.039l-.327.291-.013-.019-.216.173c-.972.778-2.151,1.19-3.41,1.19ZM1062.807,203.334c.721.407,1.564.636,2.48.636.874,0,1.705-.218,2.441-.636h-.396l-2.193-3.466h-.843v3.466h-1.49ZM1062.341,194.837c-1.229.898-1.999,2.371-1.999,4.1s.771,3.199,1.999,4.097v-8.196ZM1067.608,202.834h1.123l-2.308-3.45.334-.092c1.053-.29,1.609-1.015,1.609-2.097,0-1.45-.83-2.155-2.538-2.155h-2.988v7.794h.956v-3.466h1.618l2.193,3.466ZM1067.215,199.668l1.782,2.664c.798-.91,1.233-2.104,1.233-3.396,0-2.871-2.125-5.036-4.943-5.036-.919,0-1.765.23-2.486.64h3.028c2.511,0,3.038,1.444,3.038,2.655,0,1.196-.583,2.063-1.652,2.473ZM1065.069,198.557h-1.272v-2.705h1.762c1.228,0,1.85.452,1.85,1.344,0,1.361-1.297,1.361-2.339,1.361ZM1064.297,198.057h.772c1.38,0,1.839-.124,1.839-.861,0-.273,0-.844-1.35-.844h-1.262v1.705Z"></path>
        </g>
      </svg>